<svg width="21" height="23" viewBox="0 0 21 23" fill="none" xmlns="http://www.w3.org/2000/svg">
<path d="M0.627293 11.2567L2.06179e-08 11.5353C-4.0995e-05 11.7018 0.0611133 11.8671 0.180428 11.9916L10.0671 22.3129C10.1825 22.4334 10.3807 22.4994 10.497 22.5C10.6153 22.5005 10.8174 22.4354 10.9348 22.3128L20.8198 11.985C20.9388 11.8607 20.9999 11.6958 21.0001 11.5295L20.4547 11.2567C20.1505 11.2567 17.3258 11.2567 13.8936 11.2567L10.2133 12.5013L7.10067 11.2567C3.87212 11.2567 1.18305 11.2567 0.627293 11.2567Z" fill="#FFB739"/>
<path d="M20.9998 11.5296C20.9998 11.6957 20.9388 11.8605 20.8196 11.9849L10.9346 22.3127C10.8183 22.4345 10.618 22.4998 10.5 22.4998V12.4042L13.8936 11.2567H20.4546L20.9998 11.5296Z" fill="#FF9441"/>
<path d="M7.10059 11.2567L10.5 22.4998L13.8936 11.2567H7.10059Z" fill="#FF9441"/>
<path d="M13.8936 11.2567L10.5 22.4998V11.2567H13.8936Z" fill="#FF7149"/>
<path d="M20.8969 11.1718L17.6064 6.00685C17.5608 5.93543 17.5022 5.87476 17.4346 5.82792L17.1364 5.97797L11.0693 6.01759L10.5 5.72046L10.04 6.02429L3.98651 6.06382L3.56409 5.82857C3.49703 5.87528 3.43859 5.93573 3.39314 6.00719L0.102826 11.1787C0.0335508 11.2875 0 11.4118 0 11.5353C1.19196 11.5349 19.4605 11.5299 21 11.5295C21.0001 11.4056 20.9664 11.281 20.8969 11.1718Z" fill="#FFD17E"/>
<path d="M20.9998 11.5296C20.2371 11.5296 15.3654 11.5313 10.5 11.5326V5.72046L11.0694 6.01742L17.1364 5.97793L17.4346 5.82771C17.5022 5.87493 17.5608 5.93543 17.6063 6.00667L20.8971 11.1716C20.9667 11.2811 21.0002 11.4056 20.9998 11.5296Z" fill="#FFB739"/>
<path d="M3.90464 5.72046C3.78175 5.72046 3.66387 5.75917 3.56445 5.82848L7.20894 11.5333H7.20935L10.5 5.72046H3.90464Z" fill="#FFB739"/>
<path d="M13.7923 11.5315L17.4347 5.82786C17.3355 5.75898 17.218 5.72052 17.0955 5.72052H10.5L13.7897 11.5316H13.7923V11.5315Z" fill="#FF9441"/>
<path d="M6.82611 16.0254C5.79765 16.0254 4.96089 15.1489 4.96089 14.0714C4.96089 13.7155 4.68543 13.4269 4.34565 13.4269C4.00588 13.4269 3.73042 13.7155 3.73042 14.0714C3.73042 15.1434 2.89875 16.0254 1.86523 16.0254C1.52546 16.0254 1.25 16.314 1.25 16.6699C1.25 17.0259 1.52546 17.3145 1.86523 17.3145C2.8937 17.3145 3.73042 18.191 3.73042 19.2685C3.73042 19.6244 4.00588 19.913 4.34565 19.913C4.68543 19.913 4.96089 19.6244 4.96089 19.2685C4.96089 18.1965 5.79248 17.3145 6.82611 17.3145C7.16589 17.3145 7.44135 17.0259 7.44135 16.6699C7.44135 16.314 7.16589 16.0254 6.82611 16.0254Z" fill="#FFD17E"/>
<path d="M16.2558 3.09854C15.2273 3.09854 14.3906 2.22197 14.3906 1.14453C14.3906 0.788578 14.1151 0.5 13.7753 0.5C13.4356 0.5 13.1601 0.788578 13.1601 1.14453C13.1601 2.22197 12.3234 3.09854 11.2949 3.09854C10.9551 3.09854 10.6797 3.38711 10.6797 3.74307C10.6797 4.09902 10.9551 4.3876 11.2949 4.3876C12.3234 4.3876 13.1601 5.26416 13.1601 6.3416C13.1601 6.69755 13.4356 6.98613 13.7753 6.98613C14.1151 6.98613 14.3906 6.69755 14.3906 6.3416C14.3906 5.26416 15.2273 4.3876 16.2558 4.3876C16.5955 4.3876 16.871 4.09902 16.871 3.74307C16.871 3.38711 16.5955 3.09854 16.2558 3.09854Z" fill="#FFB739"/>
</svg>
