<svg width="28" height="12" viewBox="0 0 28 12" fill="none" xmlns="http://www.w3.org/2000/svg">
<path d="M2.97436 1.53961C3.1878 0.637298 3.99343 0 4.92065 0H24.9717C26.2624 0 27.2151 1.20437 26.918 2.46039L25.0256 10.4604C24.8122 11.3627 24.0066 12 23.0793 12H3.02829C1.73761 12 0.784889 10.7956 1.08199 9.53961L2.97436 1.53961Z" fill="#87AB49"/>
<path d="M9.85113 8.50256L9.50449 9.85641H4.5L6.29815 2.74872H7.98798L6.52563 8.50256H9.85113Z" fill="white"/>
<path d="M12.1633 9.85641H10.5601L11.9142 4.46154H13.5282L12.1633 9.85641ZM12.9432 3.80513C12.7194 3.80513 12.5172 3.74359 12.3366 3.62051C12.1561 3.4906 12.0658 3.29573 12.0658 3.0359C12.0658 2.89231 12.0947 2.75897 12.1525 2.6359C12.2175 2.50598 12.3005 2.39658 12.4016 2.30769C12.5027 2.21197 12.6183 2.13675 12.7482 2.08205C12.8854 2.02735 13.0299 2 13.1815 2C13.4054 2 13.6076 2.06496 13.7881 2.19487C13.9687 2.31795 14.0589 2.5094 14.0589 2.76923C14.0589 2.91282 14.0264 3.04957 13.9615 3.17949C13.9037 3.30256 13.8242 3.41197 13.7231 3.50769C13.622 3.59658 13.5029 3.66838 13.3657 3.72308C13.2357 3.77778 13.0949 3.80513 12.9432 3.80513Z" fill="white"/>
<path d="M15.1769 3.11795L16.8559 2.87179L16.4442 4.46154L18.2424 4.46154L17.9174 5.71282L16.1301 5.71282L15.6535 7.6C15.6102 7.75726 15.5813 7.90427 15.5668 8.04103C15.5596 8.17778 15.5777 8.29744 15.621 8.4C15.6715 8.49573 15.7546 8.57094 15.8701 8.62564C15.9857 8.68034 16.1445 8.70769 16.3467 8.70769C16.5201 8.70769 16.6862 8.69402 16.845 8.66667C17.0111 8.63248 17.1772 8.58803 17.3433 8.53333L17.4625 9.70256C17.2458 9.77778 17.0111 9.84274 16.7584 9.89744C16.5056 9.95214 16.2059 9.97949 15.8593 9.97949C15.361 9.97949 14.9747 9.91111 14.7002 9.77436C14.4258 9.63077 14.2308 9.43932 14.1153 9.2C13.9998 8.95385 13.9492 8.6735 13.9637 8.35897C13.9781 8.04444 14.0286 7.71282 14.1153 7.3641L15.1769 3.11795Z" fill="white"/>
<path d="M18.3005 7.74359C18.3005 7.30598 18.38 6.88205 18.5388 6.4718C18.7049 6.06154 18.936 5.69915 19.2321 5.38462C19.5282 5.06325 19.8856 4.80684 20.3045 4.61538C20.7306 4.41709 21.2 4.31795 21.7127 4.31795C21.9654 4.31795 22.2001 4.35214 22.4168 4.42051C22.6334 4.48889 22.8212 4.58803 22.9801 4.71795C23.1461 4.84786 23.2725 5.00855 23.3592 5.2C23.4531 5.38462 23.5 5.59658 23.5 5.8359C23.5 6.2188 23.4097 6.54359 23.2292 6.81026C23.0487 7.07692 22.7959 7.29573 22.4709 7.46667C22.1532 7.63077 21.7741 7.75043 21.3336 7.82564C20.893 7.90085 20.4128 7.93846 19.8929 7.93846C19.9434 8.22564 20.0517 8.43077 20.2178 8.55385C20.3911 8.67009 20.662 8.72821 21.0303 8.72821C21.2613 8.72821 21.496 8.71111 21.7343 8.67692C21.9727 8.6359 22.1965 8.57778 22.4059 8.50256L22.5251 9.70256C22.3229 9.77778 22.0629 9.84615 21.7452 9.90769C21.4347 9.96923 21.0952 10 20.7269 10C20.2792 10 19.9001 9.94188 19.5896 9.82564C19.2863 9.70256 19.0371 9.53846 18.8421 9.33333C18.6544 9.1282 18.5172 8.88889 18.4305 8.61539C18.3439 8.34188 18.3005 8.05128 18.3005 7.74359ZM21.4527 5.52821C21.0844 5.52821 20.7594 5.6547 20.4778 5.90769C20.2034 6.15385 20.0229 6.48205 19.9362 6.89231C20.3839 6.87863 20.745 6.84444 21.0194 6.78974C21.2938 6.7282 21.5069 6.65641 21.6585 6.57436C21.8102 6.49231 21.9113 6.40342 21.9618 6.30769C22.0124 6.21197 22.0376 6.11624 22.0376 6.02051C22.0376 5.69231 21.8427 5.52821 21.4527 5.52821Z" fill="white"/>
</svg>
