<svg width="128" height="146" viewBox="0 0 128 146" fill="none" xmlns="http://www.w3.org/2000/svg">
  <path d="M102.075 21.2144C102.889 22.5318 104.293 23.4033 105.842 23.4033H123.492C125.922 23.4033 127.836 25.4749 127.644 27.8973L125.4 56.2125C122.673 90.6264 102.93 121.837 72.0813 140.499L66.1558 144.083C64.8304 144.885 63.1696 144.885 61.8442 144.083L55.9186 140.499C25.0705 121.837 5.32677 90.6264 2.59986 56.2125L0.356112 27.8973C0.16416 25.4749 2.07812 23.4033 4.50808 23.4033H22.1585C23.7072 23.4033 25.1112 22.5318 25.9255 21.2144C33.4734 9.00341 47.697 2.61816 64 2.61816C80.303 2.61816 94.5266 9.00341 102.075 21.2144Z" fill="white"/>
  <path d="M97.5538 30.4847C97.7109 30.773 98.0113 30.9555 98.3396 30.9555H118.064C118.579 30.9555 118.985 31.395 118.944 31.9089L116.785 59.1058C114.441 88.6329 97.4679 115.412 70.9488 131.423L64.4582 135.342C64.1774 135.512 63.8257 135.512 63.5449 135.342L57.0543 131.423C30.5352 115.412 13.5622 88.6329 11.2179 59.1058L9.05861 31.9089C9.01781 31.395 9.42383 30.9555 9.93934 30.9555H29.6635C29.9918 30.9555 30.2922 30.773 30.4493 30.4847C36.689 19.0407 49.3713 11.2079 64.0015 11.2079C78.6318 11.2079 91.3141 19.0407 97.5538 30.4847Z" fill="#0A0A0B"/>
  <path fill-rule="evenodd" clip-rule="evenodd" d="M29.7141 91.1956C29.9027 91.5428 30.3687 91.6147 30.6559 91.3434L45.5437 77.2815C45.7493 77.0873 45.7922 76.777 45.6545 76.5299C44.1411 73.8151 43.2847 70.7235 43.2847 67.4432C43.2847 56.6465 52.5618 47.8941 64.0056 47.8941C67.4983 47.8941 70.7892 48.7094 73.676 50.1492C73.9076 50.2647 74.1873 50.2268 74.3754 50.0492L89.4137 35.8451C89.631 35.6399 89.6667 35.3064 89.4925 35.0634C83.9628 27.3474 74.6092 22.2758 64.0016 22.2758C52.8988 22.2758 43.17 27.8319 37.7616 36.1609C36.8577 37.553 35.3593 38.4917 33.6996 38.4917H20.8863C19.9114 38.4917 19.1434 39.3226 19.2201 40.2945L20.9027 61.6075C21.7284 72.0663 24.7766 82.1052 29.7141 91.1956ZM36.6027 100.826C36.3772 101.039 36.3488 101.388 36.539 101.633C42.4098 109.199 49.7589 115.788 58.329 120.991L60.821 122.505C62.7754 123.691 65.2278 123.691 67.1822 122.505L69.6742 120.991C91.3276 107.844 105.186 85.8539 107.1 61.6075L108.783 40.2945C108.86 39.3226 108.092 38.4917 107.117 38.4917H102.839C102.684 38.4917 102.536 38.5508 102.423 38.657L82.4313 57.5399C82.225 57.7348 82.1825 58.0462 82.3216 58.2936C83.8569 61.0234 84.7265 64.1375 84.7265 67.4432C84.7265 78.2398 75.4495 86.9922 64.0056 86.9922C60.486 86.9922 57.1714 86.1643 54.2686 84.7037C54.0367 84.5871 53.7559 84.6245 53.5673 84.8027L36.6027 100.826Z" fill="#F7971E"/>
  <ellipse cx="63.996" cy="67.4433" rx="10.7177" ry="10.329" fill="#F7971E"/>
</svg>
