<svg width="107" height="50" viewBox="0 0 107 50" fill="none" xmlns="http://www.w3.org/2000/svg">
<path d="M15.0669 29.5376L10.4013 18.8936C10.3056 18.6752 10.2483 18.4965 10.1909 18.2979H14.2829C14.3211 18.4766 14.3594 18.6156 14.4167 18.7745L18.2792 28.0482C18.394 28.3461 18.6043 28.4652 18.8338 28.4652C19.0632 28.4652 19.2353 28.366 19.3692 28.0482L23.1934 18.7745C23.2508 18.6355 23.3082 18.4567 23.3464 18.2979H27.381C27.3236 18.4965 27.2663 18.6752 27.1707 18.8936L22.5433 29.5376C21.8167 31.2057 20.6503 32 18.8146 32C16.9981 32 15.7935 31.2057 15.0669 29.5376Z" fill="white"/>
<path d="M30.9921 18.2979H39.5585C41.3941 18.2979 42.5796 18.8539 43.4401 19.7475C44.3388 20.6809 44.8742 21.9716 44.8742 23.322C44.8742 24.5135 44.4535 25.6454 43.746 26.539C42.8664 27.6312 41.5471 28.3461 39.5585 28.3461H33.6117V31.722H30.1508V19.1319C30.1508 18.5759 30.4376 18.2979 30.9921 18.2979ZM33.6117 25.0496H39.6349C40.3998 25.0496 40.8396 24.8113 41.1264 24.4142C41.3176 24.156 41.4323 23.8383 41.4323 23.461C41.4323 23.0638 41.3176 22.7262 41.1073 22.4482C40.8205 22.0908 40.3807 21.8525 39.6349 21.8525H33.8603C33.7073 21.8525 33.6117 21.9319 33.6117 22.1305V25.0496Z" fill="white"/>
<path d="M64.0294 18.2979V29.1206C64.0294 31.1461 62.863 32 61.601 32C60.5111 32 59.6889 31.6823 59.077 30.9475L51.983 22.4284C51.8874 22.3092 51.7918 22.2496 51.677 22.2496C51.505 22.2496 51.352 22.3887 51.352 22.627V31.722H47.9484V21.1376C47.9484 18.8539 49.2104 18 50.9504 18C52.1742 18 52.9391 18.3376 53.7421 19.3305L60.0522 27.1745C60.1478 27.3135 60.2625 27.3333 60.3773 27.3333C60.5302 27.3333 60.645 27.2142 60.645 26.9759V18.2979H64.0294Z" fill="white"/>
<path d="M81.1899 31.722H71.8014C68.6272 31.722 67.5947 30.2723 67.5947 27.3532V18.2979H71.0747V27.0156C71.0747 27.9887 71.3233 28.2865 72.222 28.2865H81.1899V31.722Z" fill="white"/>
<path d="M86.2861 25.4667L80.4158 18.7546C80.2246 18.5362 80.1481 18.4369 80.0908 18.2979H84.3548C84.3931 18.3972 84.4887 18.5759 84.6608 18.7546L87.9114 22.4284C87.9879 22.5078 88.0643 22.5674 88.1791 22.5674C88.2938 22.5674 88.3703 22.5078 88.4468 22.4284L91.6783 18.7546C91.8504 18.5759 91.9651 18.3972 92.0033 18.2979H96.1909C96.1144 18.4369 96.0379 18.5362 95.8467 18.7546L89.7853 25.705V31.722H86.2861V25.4667Z" fill="white"/>
</svg>
