<svg width="84" height="84" viewBox="0 0 84 84" fill="none" xmlns="http://www.w3.org/2000/svg">
<ellipse cx="41.9999" cy="41.9399" rx="28.2874" ry="28.4296" fill="url(#paint0_linear_463_109009)"/>
<path fill-rule="evenodd" clip-rule="evenodd" d="M10.0732 52.0488C10.5612 51.4426 11.4996 51.5342 11.8857 52.2098C12.1316 52.6403 12.0657 53.1795 11.7379 53.5514C9.81656 55.7311 8.98763 57.4272 9.53974 58.3935C11.3127 61.4965 26.6561 55.8993 43.81 45.8917C44.4017 45.5465 44.9878 45.2006 45.5679 44.8543C45.77 44.7337 45.8862 44.5111 45.8862 44.2757C45.8862 40.2916 49.0998 37.0617 53.0641 37.0617C55.1888 37.0617 57.4913 37.1251 59.2025 35.8657C67.7552 29.5704 72.8347 24.2092 71.6598 22.1528C71.1334 21.2316 69.4109 21.0772 66.7999 21.5774C66.3254 21.6683 65.84 21.4575 65.6003 21.038C65.2254 20.3819 65.6099 19.5515 66.3575 19.4416C71.492 18.6868 75.1341 19.3177 76.4108 21.5521C78.8021 25.7374 72.2224 34.3715 60.768 43.151C60.4228 43.4157 60.242 43.8407 60.242 44.2757C60.242 48.2599 57.0284 51.4897 53.0641 51.4897C52.8659 51.4897 52.6696 51.4817 52.4754 51.4658C50.7077 51.3216 48.8247 51.2472 47.2927 52.1409C27.9923 63.4007 9.73667 67.9614 6.51767 62.3276C5.19713 60.0164 6.61225 56.3486 10.0732 52.0488Z" fill="#D2E1F8"/>
<ellipse cx="53.0641" cy="44.2758" rx="3.58896" ry="3.607" fill="#70AF09"/>
<g opacity="0.32">
<path d="M27.504 32.2169C25.7631 36.5372 26.3124 41.093 24.1771 40.2239C22.0418 39.3548 21.7221 35.148 23.463 30.8278C25.2039 26.5075 28.3462 23.7098 30.4814 24.5789C32.6167 25.448 29.2449 27.8967 27.504 32.2169Z" fill="#E5E5E5"/>
<path d="M26.1637 44.5159C26.3192 45.9386 25.6638 47.1782 24.6997 47.2847C23.7356 47.3911 22.828 46.3241 22.6725 44.9014C22.517 43.4787 23.1724 42.2391 24.1365 42.1326C25.1005 42.0261 26.0081 43.0932 26.1637 44.5159Z" fill="#E5E5E5"/>
</g>
<path d="M33.6483 63.5982C32.6654 63.0274 33.1365 62.0708 35.524 61.2755C40.5584 60.1648 39.709 62.4101 46.9536 61.5463C54.1982 60.6824 58.0174 57.6808 59.9411 55.7063C61.48 54.1267 62.9026 51.9891 62.8344 52.7433C62.5069 54.3476 59.8629 58.5763 51.9061 62.6569C41.9601 67.7578 35.1556 64.4734 33.6483 63.5982Z" fill="#080F1B" fill-opacity="0.11"/>
<path d="M65.6418 26.1942C66.5722 25.5745 66.8321 24.3145 66.1564 23.4239C61.8373 17.732 55.6485 13.7273 48.6575 12.1493C41.0092 10.4228 32.993 11.7344 26.2845 15.8097C19.5759 19.8851 14.6945 26.4088 12.6604 34.0172C10.8026 40.9665 11.4517 48.3294 14.4529 54.8149C14.9252 55.8355 16.1705 56.1937 17.1551 55.6504C18.1338 55.1103 18.4839 53.8833 18.0242 52.8643C15.5146 47.3013 14.9893 41.0138 16.577 35.0748C18.3395 28.4821 22.5694 22.8292 28.3823 19.2979C34.1953 15.7665 41.1415 14.6301 47.7688 16.126C53.7323 17.4722 59.0223 20.8561 62.756 25.6667C63.446 26.5556 64.7052 26.818 65.6418 26.1942Z" fill="#D2E1F8"/>
<path d="M24.6722 64.4984C23.9887 65.3882 24.1474 66.6702 25.0747 67.2954C29.4252 70.2287 34.4671 71.9882 39.7138 72.3862C45.6337 72.8352 51.5548 71.5311 56.7454 68.6351C61.9359 65.7392 66.1685 61.3783 68.9201 56.0912C71.3587 51.4054 72.5393 46.1742 72.3629 40.9122C72.3253 39.7905 71.3268 38.9771 70.214 39.0896C69.0982 39.2023 68.2917 40.203 68.3176 41.328C68.4204 45.7935 67.3965 50.2246 65.3265 54.2022C62.9422 58.7834 59.2747 62.5622 54.777 65.0716C50.2793 67.5809 45.1487 68.7109 40.019 68.3219C35.5652 67.984 31.2816 66.514 27.5649 64.0645C26.6287 63.4476 25.3574 63.6064 24.6722 64.4984Z" fill="#D2E1F8"/>
<defs>
<linearGradient id="paint0_linear_463_109009" x1="12.0015" y1="-6.68174" x2="55.114" y2="66.402" gradientUnits="userSpaceOnUse">
<stop offset="0.394669" stop-color="#FF3A3A"/>
<stop offset="0.72037" stop-color="#D64D12"/>
<stop offset="0.749987" stop-color="#70AF09"/>
</linearGradient>
</defs>
</svg>
