<svg width="360" height="550" viewBox="0 0 360 550" fill="none" xmlns="http://www.w3.org/2000/svg">
<g clip-path="url(#clip0_1969_382)">
<rect width="360" height="550" fill="url(#paint0_linear_1969_382)"/>
<path d="M128.961 190.223C128.961 190.271 128.96 190.32 128.977 190.368L128.799 190.627L128.912 190.223H128.961Z" fill="#0A0A0B"/>
<path d="M24.7422 75.6572L24.4834 75.4961C24.5163 75.4709 24.5451 75.4541 24.5742 75.4375C24.6017 75.4218 24.6297 75.4061 24.6611 75.3828L24.7422 75.6572Z" fill="#0A0A0B"/>
<path fill-rule="evenodd" clip-rule="evenodd" d="M343.963 0C344.034 1.10918 343.522 2.25985 342.536 2.79395C342.387 2.87215 342.235 2.94528 342.085 3.01855C341.241 3.43003 340.427 3.8268 340.208 4.91113C339.932 6.23687 339.949 7.5794 340.499 8.84082C341.048 10.0848 341.905 11.1197 343.069 11.8311C343.618 12.1546 344.314 12.3976 344.929 12.3486C345.417 12.3126 345.89 12.1606 346.364 12.0078C346.739 11.8872 347.114 11.7655 347.499 11.7012C348.954 11.4593 350.135 12.1062 350.976 13.2217C351.493 13.9003 351.962 14.7578 352.043 15.5977C352.27 17.7643 353.659 18.6053 355.486 19.1064L355.819 19.1992C356.764 19.4591 357.725 19.7225 358.607 20.1416C359.073 20.3669 359.528 20.5498 359.994 20.668L360 39.249C358.561 39.1361 357.457 39.5041 356.979 41.0801C356.882 41.4036 356.413 41.8727 356.122 41.8564C355.291 41.8275 354.856 42.3308 354.431 42.8223C354.153 43.1434 353.879 43.4594 353.502 43.6191C352.727 43.9692 351.882 44.1558 351.038 44.3418C350.792 44.396 350.546 44.4505 350.302 44.5088C348.717 44.9129 347.585 45.8185 346.519 47.0635C344.076 49.9242 341.603 52.8028 338.369 54.8398C337.545 55.3573 337.173 56.069 337.043 57.0068C336.914 58.1057 336.752 59.2055 336.494 60.2881C336.397 60.6922 336.09 61.0802 335.798 61.3711C334.004 63.1335 330.448 63.3602 329.122 61.8408C328.619 61.2627 328.072 60.7222 327.526 60.1826L327.525 60.1816C327.125 59.7855 326.724 59.3897 326.342 58.9795C325.516 58.106 325.5 56.7475 326.421 56.0361C327.103 55.5034 327.842 55.0338 328.576 54.5674C328.956 54.3262 329.334 54.0858 329.703 53.8379C330.366 53.3848 330.528 52.1397 329.946 51.4609C329.625 51.085 329.282 50.7218 328.94 50.3594C328.371 49.7558 327.801 49.1521 327.326 48.4863C325.887 46.4322 323.867 45.6078 321.539 46.0762C319.744 46.4323 318.046 46.3518 316.3 46.0283C316.139 45.9958 315.896 46.1741 315.75 46.3037C315.428 46.6262 315.411 47.0955 315.847 47.418C319.048 49.8111 319.97 53.0289 319.437 56.8438C319.308 57.7172 319.226 58.6226 319.242 59.4961C319.259 60.4167 319.566 61.3234 320.439 61.7275C322.104 62.5032 322.59 63.8779 322.605 65.5107C322.622 66.3833 322.525 67.2733 322.428 68.1621C322.331 69.0194 321.328 69.8598 320.584 69.7139C320.402 69.678 320.22 69.642 320.038 69.6064C318.911 69.3862 317.786 69.1666 316.672 68.874C314.781 68.3729 313.212 68.5504 311.983 70.3291C311.369 71.2181 310.56 72.0584 309.671 72.6729C308.399 73.5572 307.558 74.7254 306.678 75.9473L306.566 76.1016C306.415 76.3149 306.267 76.518 306.126 76.7129C304.456 79.0132 303.617 80.1691 306.761 83.5371C307.052 83.8615 307.262 84.2648 307.457 84.6699C307.876 85.5752 307.521 86.3989 307.036 87.1592C306.535 87.9675 305.451 88.4213 304.756 88.0498C303.578 87.4302 302.335 86.9514 301.092 86.4736C299.024 85.6789 296.957 84.885 295.2 83.4414C294.873 83.1795 294.414 83.0872 293.957 82.9951L293.955 82.9941C293.735 82.9497 293.514 82.906 293.31 82.8428C292.743 82.6815 291.902 83.0528 291.66 83.6191C291.434 84.1579 291.222 84.7113 291.01 85.2646C290.904 85.5413 290.797 85.818 290.689 86.0928C290.334 87.0144 290.593 87.8867 291.176 88.5654C292.502 90.086 293.94 91.4605 296.171 91.4932C296.543 91.4932 296.916 91.6827 297.266 91.8613L297.271 91.8643C297.315 91.8862 297.357 91.9084 297.399 91.9297C298.078 92.2685 298.225 92.9318 298.225 93.6104C298.208 94.6616 297.012 95.7443 296.009 95.583L295.776 95.5459C293.656 95.2048 291.558 94.8668 290.092 92.9639C289.323 91.9481 288.135 91.662 286.964 91.3799C286.831 91.348 286.699 91.3152 286.567 91.2822C285.646 91.0394 284.983 90.4101 284.757 89.5205C284.271 87.5641 283.673 85.6887 282.509 84.0068C281.701 82.8425 281.797 81.5823 281.959 80.1914C282.347 76.8612 281.328 75.1953 278.289 73.9502C278.206 73.9156 278.123 73.8806 278.04 73.8467C276.891 73.3737 275.836 72.9392 274.991 71.9131C274.638 71.4855 274.189 71.1409 273.738 70.7949C273.018 70.2419 272.292 69.684 271.941 68.7764C273.879 68.7456 275.642 69.4448 277.42 70.1494L277.465 70.167C282.218 72.0264 287.1 73.3681 292.145 74.209C295.992 74.856 299.68 74.3388 303.221 72.7539C303.819 72.4957 304.449 72.1558 304.886 71.6865C307.036 69.3749 308.686 66.7393 309.041 63.5215C309.138 62.6817 309.024 61.6147 308.572 60.9678C308.272 60.5459 307.99 60.107 307.708 59.668C306.681 58.071 305.649 56.4653 303.722 55.6152C302.933 55.2608 302.261 54.6066 301.603 53.9658L301.601 53.9639C301.45 53.8175 301.301 53.6715 301.15 53.5303C300.164 52.6087 299.162 52.0749 297.738 51.832C295.605 51.4605 293.568 50.491 291.79 49.0195C290.092 47.6132 288.184 46.417 286.276 45.2842C280.795 42.051 279.226 41.6299 273.051 41.6299C272.612 41.6299 272.169 41.7239 271.729 41.8174C271.292 41.91 270.857 42.0029 270.431 42.0029C269.332 41.9866 268.232 41.8408 267.149 41.6152C266.281 41.4261 266.501 40.8623 266.719 40.3047C266.744 40.2398 266.77 40.1745 266.794 40.1104C267.052 39.4318 266.891 38.7203 266.325 38.2998C265.629 37.7824 264.821 37.3781 264.029 36.9902C263.172 36.5698 262.299 36.5861 261.604 37.3291C260.633 38.3803 259.582 39.059 258.095 38.4609C256.802 37.9438 255.508 38.1065 254.166 38.333C253.633 38.43 252.938 37.9763 252.437 37.6211C252.129 37.3947 251.968 36.894 251.871 36.4727C251.758 36.0206 252.112 35.7613 252.662 35.7295C253.794 35.6969 254.846 35.4217 255.751 34.6777C256.592 33.9664 257.448 33.2553 258.306 32.5439C258.774 32.156 258.564 31.2187 257.981 30.8799C255.381 29.3307 252.517 28.4282 249.662 27.5293C249.358 27.4335 249.054 27.3377 248.75 27.2412C248.321 27.1084 247.673 27.5447 247.157 27.8926C247.11 27.9243 247.064 27.9556 247.02 27.9854C246.753 28.1639 246.566 28.4927 246.388 28.8057L246.387 28.8076C246.339 28.8912 246.292 28.9736 246.244 29.0518C245.937 29.5365 245.613 29.6984 245.339 29.4238C245.193 29.2943 245.08 29.0366 245.08 28.8428C245.08 28.5371 245.1 28.2304 245.121 27.9248C245.145 27.5677 245.169 27.2102 245.16 26.8535C245.128 25.689 244.385 24.7184 243.302 24.4121C242.348 24.1366 241.572 24.5087 240.876 25.123C240.214 25.7211 239.68 26.3674 239.583 27.3379C239.519 27.9849 239.34 28.6641 239.033 29.2305C238.878 29.5253 238.407 29.7018 238.026 29.8447L237.982 29.8604C237.901 29.892 237.594 29.6021 237.546 29.4082C237.287 28.2755 236.979 27.3219 235.46 27.4023C234.778 27.4428 234.671 26.8523 234.572 26.3086C234.552 26.1948 234.532 26.083 234.507 25.9795C234.103 24.4272 232.728 24.0725 232.13 24.9297C231.55 25.7602 230.7 26.2069 229.858 26.6494C228.964 27.1199 228.079 27.5858 227.538 28.502C226.52 28.6489 225.71 29.2002 224.902 29.751C224.285 30.1718 223.669 30.5918 222.962 30.8301C222.823 30.8804 222.674 30.9014 222.515 30.9238C222.471 30.93 222.426 30.9363 222.38 30.9434C222.38 30.9652 222.379 30.9877 222.378 31.0098C222.376 31.0361 222.372 31.0627 222.363 31.0889L222.089 31.3799L222.299 30.96C222.318 30.96 222.337 30.9548 222.353 30.9502C222.364 30.9469 222.373 30.9434 222.38 30.9434C222.445 30.5875 222.412 30.2488 222.267 29.9092C222.215 29.8953 222.164 29.8781 222.112 29.8613C221.986 29.8203 221.859 29.7793 221.732 29.7793C218.904 29.7313 218.613 30.0866 219.276 32.6084C219.341 32.857 219.376 33.1125 219.412 33.3701C219.43 33.4986 219.448 33.6279 219.47 33.7568C219.502 33.7568 219.531 33.7521 219.559 33.748C219.587 33.744 219.615 33.7403 219.647 33.7402L219.89 34.0635L219.485 33.9023C219.485 33.8536 219.47 33.8056 219.454 33.7568C217.341 33.6306 215.534 34.4944 213.732 35.3564L213.729 35.3574C213.23 35.5963 212.732 35.8354 212.227 36.0527C212.016 36.1497 211.984 36.8615 212.032 37.2656C212.058 37.5088 212.142 37.7623 212.225 38.0127C212.351 38.3947 212.476 38.7701 212.389 39.0918C212.25 39.6047 211.807 39.5955 211.355 39.5859C211.123 39.581 210.888 39.5768 210.69 39.6426L210.161 39.8066L210.16 39.8076C209.298 40.0758 208.429 40.346 207.57 40.6279L207.587 40.5146C207.598 40.3693 207.613 40.2224 207.628 40.0762C207.676 39.6042 207.724 39.1314 207.65 38.6875C207.537 37.9438 206.859 37.6046 206.195 37.5557C205.921 37.5406 205.323 38.0902 205.371 38.2197C205.596 38.9367 205.917 39.6412 206.231 40.3311L206.309 40.499L206.357 40.5957C204.465 40.4671 203.123 41.2742 202.348 42.9561H202.372C202.377 42.9872 202.414 43.0516 202.45 43.1162C202.543 43.2803 202.641 43.4509 202.251 43.1182C202.267 43.0856 202.284 43.0613 202.3 43.0371C202.316 43.0129 202.331 42.9885 202.348 42.9561C202.188 42.9602 202.025 42.9637 201.862 42.9668C201.383 42.9759 200.894 42.985 200.424 43.0215C199.227 43.1022 198.338 43.635 197.918 44.832C197.433 46.2067 197.417 47.4357 198.694 48.4053C198.789 48.4738 198.886 48.5408 198.982 48.6084C199.25 48.7953 199.519 48.984 199.744 49.1982C200.214 49.6341 200.051 50.4092 199.405 50.8623C199.354 50.8985 199.302 50.9358 199.251 50.9736L199.219 50.998L199.12 51.0713L199.117 51.0732C198.504 51.5306 197.879 51.997 197.013 51.6064C195.93 51.1207 194.862 51.2992 193.746 51.4932C193.051 51.6061 192.421 50.8301 192.663 50.2158C192.814 49.7947 192.974 49.3733 193.134 48.9512C193.366 48.3364 193.6 47.7189 193.811 47.0957C193.843 46.9824 193.616 46.7073 193.455 46.6104C193.325 46.5291 193.003 46.5138 192.922 46.6104L192.273 47.2705C190.939 48.6283 189.615 49.977 188.363 51.3955C187.867 51.954 188.307 52.5562 188.686 53.0752L188.734 53.1426C189.398 54.0315 189.155 54.7591 188.395 55.4541C188.196 55.64 188.064 55.9123 187.933 56.1826L188.31 56.4385C188.951 56.4588 189.589 56.479 190.206 56.376C190.913 56.2421 191.605 56.0534 192.297 55.8652C193.109 55.6444 193.92 55.4241 194.749 55.293C195.348 55.2007 195.98 55.3133 196.615 55.4268C196.871 55.4725 197.129 55.5182 197.384 55.5508C197.478 55.5614 197.567 55.627 197.656 55.6934C197.705 55.7293 197.754 55.7657 197.805 55.7939C197.751 55.8421 197.699 55.8958 197.647 55.9492C197.543 56.0575 197.438 56.1656 197.319 56.2305L197.134 56.3311L196.962 56.4248C196.304 56.7832 195.643 57.1445 194.959 57.459C194.639 57.6005 194.288 57.6595 193.938 57.7188C193.847 57.7342 193.756 57.7497 193.666 57.7666C192.485 57.9922 192.437 58.7525 192.744 59.6904C192.552 59.831 192.336 59.9623 192.12 60.0938C191.591 60.4153 191.059 60.7393 190.853 61.21C190.658 61.6386 190.715 62.1682 190.774 62.708V62.7158C190.813 63.0689 190.852 63.4269 190.82 63.7646C190.787 64.0292 190.596 64.279 190.4 64.5342C190.309 64.653 190.218 64.7732 190.141 64.8965C190.038 65.0687 189.906 65.2441 189.774 65.4189C189.474 65.8191 189.174 66.2182 189.219 66.5781C189.381 67.9355 188.701 68.6952 187.699 69.1973C186.454 69.8279 185.565 70.5382 185.258 72.0586C185.135 72.6637 184.821 73.2333 184.508 73.7988C184.16 74.4265 183.815 75.0498 183.738 75.7129C183.733 75.7718 183.728 75.8304 183.723 75.8877C183.621 76.9942 183.546 77.8057 182.332 78.251C181.669 78.4939 181.362 79.1406 181.556 79.8682C181.895 81.1774 182.04 82.4217 181.556 83.7637C181.274 84.5304 181.135 85.3485 180.997 86.1689C180.914 86.6633 180.83 87.159 180.715 87.6455C180.505 88.5831 179.858 89.1482 178.969 89.4717C178.772 89.5443 178.568 89.6106 178.363 89.6768C177.93 89.8169 177.494 89.9584 177.11 90.167C176.787 90.3446 176.431 90.7978 176.431 91.1367L176.428 91.2188C176.398 92.3169 176.371 93.2887 175.267 94.0146C172.938 95.5026 171.451 97.6846 170.465 100.224C170.424 100.326 170.385 100.43 170.345 100.533C170.144 101.051 169.939 101.579 169.656 102.051C169.171 102.843 168.428 103.328 167.457 103.264C166.949 103.226 166.441 103.149 165.933 103.073C165.568 103.019 165.203 102.964 164.839 102.924C164.644 102.908 164.386 103.053 164.256 103.214C163.901 103.586 163.934 104.007 164.272 104.427C164.324 104.484 164.383 104.539 164.441 104.593C164.547 104.69 164.653 104.788 164.726 104.912C165.097 105.543 164.983 106.513 164.449 106.562C163.541 106.649 162.806 107.155 162.073 107.658C161.177 108.275 160.284 108.888 159.082 108.728C158.723 108.999 158.365 109.268 158.007 109.538L158.005 109.54L157.996 109.546C156.968 110.319 155.943 111.091 154.927 111.881C154.798 111.978 154.782 112.317 154.814 112.527C155.121 114.015 154.232 114.436 153.003 114.661C152.147 114.823 151.273 115.05 150.514 115.471C149.996 115.745 149.479 116.343 149.316 116.908C149.182 117.366 149.172 117.854 149.162 118.342C149.154 118.732 149.146 119.122 149.074 119.496C148.882 120.463 148.943 121.452 149.003 122.441C149.09 123.867 149.176 125.294 148.508 126.658C148.464 126.759 148.52 126.921 148.574 127.081L148.586 127.115L148.595 127.142C148.612 127.192 148.627 127.243 148.638 127.289C148.914 128.301 149.49 129.156 150.065 130.009C150.464 130.6 150.861 131.19 151.159 131.832C151.271 132.072 151.39 132.311 151.508 132.55V132.552C151.883 133.312 152.26 134.076 152.47 134.888C152.615 135.437 152.373 136.214 152.05 136.731C151.789 137.174 151.431 137.554 151.071 137.937C150.828 138.195 150.583 138.455 150.367 138.735C150.06 139.139 150.335 140.305 150.788 140.531C151.137 140.715 151.503 140.852 151.865 140.988L151.868 140.989C152.11 141.08 152.35 141.17 152.582 141.273C153.326 141.613 153.6 142.276 153.196 142.778C152.958 143.089 152.703 143.39 152.448 143.691C152.133 144.064 151.818 144.438 151.532 144.831C151.112 145.397 151.338 146.852 151.839 147.32C154.118 149.487 156.721 151.153 159.696 152.172C160.1 152.317 160.618 152.463 160.974 152.35C161.448 152.188 161.931 152.041 162.412 151.895L162.413 151.894H162.416L162.417 151.893H162.419C164.675 151.207 166.921 150.525 168.346 148.275C169.042 147.16 169.882 146.044 170.917 145.251C171.489 144.808 172.145 144.476 172.801 144.143C174.108 143.479 175.418 142.813 176.075 141.273C176.108 141.209 176.479 141.177 176.576 141.273C176.746 141.418 176.932 141.56 177.12 141.703L177.121 141.704C177.667 142.119 178.226 142.544 178.419 143.085C178.659 143.752 178.733 144.472 178.808 145.195C178.868 145.787 178.929 146.381 179.082 146.949C179.245 147.548 179.499 148.134 179.752 148.717C180.128 149.582 180.502 150.443 180.569 151.331C180.761 153.675 181.814 155.534 182.904 157.462C183.01 157.648 183.115 157.836 183.221 158.024L183.35 158.255C183.441 158.42 183.533 158.586 183.624 158.751L183.629 158.759C184.567 160.454 185.5 162.14 186.729 163.666C187.161 164.192 186.997 164.696 186.827 165.214L186.826 165.216L186.81 165.267C186.8 165.296 186.791 165.325 186.781 165.354C186.763 165.411 186.746 165.469 186.729 165.526C186.616 165.895 186.517 166.272 186.418 166.646L186.417 166.647L186.416 166.652L186.415 166.654C186.359 166.867 186.303 167.079 186.244 167.288C186.293 167.288 186.326 167.272 186.374 167.272C186.393 167.36 186.396 167.441 186.397 167.52C186.398 167.551 186.399 167.582 186.4 167.612C186.402 167.634 186.404 167.656 186.406 167.677C186.481 167.769 186.56 167.86 186.638 167.952C186.929 168.295 187.223 168.64 187.376 169.035C188.712 172.7 189.475 172.553 191.72 172.122C192.218 172.026 192.789 171.917 193.455 171.832C194.441 171.702 194.927 170.942 195.104 170.004C195.395 168.484 196.398 167.757 197.837 167.515L197.933 167.499L198.039 167.48C198.635 167.377 199.23 167.273 199.826 167.288C201.717 167.352 203.35 166.981 204.191 165.041C206.706 165.482 207.019 163.887 207.326 162.315C207.39 161.988 207.454 161.661 207.537 161.354C207.65 160.934 207.618 160.466 207.57 160.029C207.473 159.269 207.069 158.897 206.261 159.107C206.051 159.155 205.775 159.188 205.613 159.091C205.468 159.01 205.339 158.751 205.339 158.558C205.342 158.127 205.337 157.694 205.331 157.263C205.308 155.492 205.285 153.719 205.856 151.978C206.195 150.943 206.374 149.811 206.342 148.712C206.293 146.674 207.408 145.414 208.929 144.362C209.323 144.091 209.741 143.843 210.16 143.596C210.891 143.163 211.626 142.729 212.242 142.164C213.39 141.113 214.28 139.868 214.086 138.089C214.042 137.634 214.117 137.163 214.192 136.691C214.256 136.293 214.32 135.894 214.312 135.502C214.296 134.871 214.166 134.128 213.827 133.627C212.323 131.444 210.803 129.261 208.185 128.161C206.843 127.596 206.261 126.303 206.261 124.896C206.292 121.355 206.39 117.798 206.535 114.257C206.568 113.627 206.892 112.98 207.23 112.43C209.074 109.391 211.143 106.594 214.166 104.557C215.621 103.587 216.915 102.342 218.176 101.113C220.526 98.7935 220.601 98.6192 221.866 95.6699C221.941 95.4948 222.021 95.31 222.105 95.1143C222.574 94.0315 222.606 93.0454 222.363 91.8975C221.814 89.3105 222.332 86.2874 223.431 84.2656C224.562 82.196 225.905 80.5311 228.637 81.1289C231.822 80.5788 234.814 81.1768 237.659 82.6484C238.484 83.0853 238.952 85.0734 238.225 85.543L238.173 85.5752C237.211 86.1741 236.446 86.6501 236.446 88.0166C236.446 88.8411 236.01 89.7467 235.525 90.458C234.901 91.3777 234.301 92.3168 233.702 93.2549L233.699 93.2578L233.698 93.2598L233.696 93.2627L233.695 93.2646C232.264 95.5054 230.833 97.7464 229.058 99.7383L228.968 99.8398C228.256 100.644 227.571 101.416 227.23 102.472C226.745 103.991 225.614 104.412 224.126 104.282C223.318 104.217 222.833 104.686 222.946 105.478C223.124 106.609 222.93 107.645 222.623 108.728C222.396 109.537 222.493 110.474 222.639 111.331C222.72 111.811 222.893 112.282 223.066 112.753C223.202 113.122 223.338 113.493 223.431 113.869C223.544 114.351 223.664 114.832 223.783 115.313V115.317C224.511 118.262 225.243 121.218 224.757 124.33C224.669 124.822 224.748 125.354 224.825 125.878C224.847 126.026 224.869 126.173 224.887 126.318C225.032 127.499 225.614 128.34 226.745 128.825C227.166 129.011 227.566 129.244 227.959 129.489L228.352 129.737L228.353 129.738C228.581 129.884 228.81 130.029 229.041 130.167L229.074 130.118C229.025 130.094 228.975 130.059 228.933 130.03L228.932 130.029C228.919 130.02 228.907 130.012 228.896 130.005L229.332 129.779L229.074 130.118C229.188 130.193 229.303 130.276 229.418 130.358C229.824 130.651 230.231 130.944 230.609 130.895C232.145 130.716 233.068 131.298 233.811 132.575C234.603 133.95 235.961 134.063 237.286 133.659C238.547 133.287 239.76 132.721 240.957 132.14C244.966 130.167 249.138 128.938 253.648 128.889C254.542 128.879 255.436 128.772 256.33 128.664C256.972 128.587 257.615 128.51 258.257 128.469C258.663 128.437 259.341 128.582 259.438 128.809C259.949 130.109 261.019 130.378 262.088 130.647C262.707 130.803 263.325 130.96 263.835 131.315C263.913 131.372 264.003 131.413 264.092 131.453C264.206 131.505 264.319 131.556 264.4 131.638C264.497 131.751 264.579 132.075 264.53 132.107C264.46 132.153 264.389 132.2 264.318 132.246L264.123 132.375L264.112 132.382C263.511 132.78 262.91 133.179 262.267 133.48C262.022 133.595 261.768 133.702 261.515 133.809C260.514 134.23 259.507 134.654 258.952 135.583C257.497 138.04 255.621 137.943 253.31 137.086C252.129 136.648 250.861 136.428 249.613 136.212C249.34 136.165 249.069 136.117 248.799 136.067C248.168 135.954 247.456 135.858 246.858 136.035C244.741 136.65 242.638 137.329 240.585 138.121C238.403 138.962 236.851 140.417 236.688 142.972C236.608 144.232 235.783 144.929 234.651 145.284C234.232 145.421 233.805 145.517 233.378 145.614C232.948 145.712 232.518 145.809 232.097 145.947C230.416 146.496 230.173 147.694 231.353 149.568C231.434 149.698 231.548 149.827 231.645 149.94C233.254 149.872 234.388 148.944 235.521 148.019L235.521 148.018C235.742 147.837 235.963 147.657 236.188 147.483C237.158 146.723 237.546 146.771 238.531 147.498C238.744 147.657 238.951 147.825 239.157 147.991C239.642 148.382 240.126 148.773 240.682 149.067C241.345 149.407 241.797 149.924 241.83 150.555C241.943 152.316 241.96 154.095 241.895 155.874C241.863 156.86 241.086 157.539 240.262 157.782C239.744 157.927 238.888 157.668 238.468 157.28C237.806 156.674 237.226 155.969 236.643 155.259C236.371 154.928 236.098 154.597 235.815 154.273C234.845 153.174 234.231 153.028 232.905 153.448C231.111 153.998 229.688 154.92 229.058 156.812C228.847 157.442 228.601 158.06 228.354 158.679C228.108 159.297 227.862 159.916 227.651 160.547C227.118 162.26 226.859 163.974 227.263 165.801C227.748 167.967 228.056 170.166 228.347 172.381C228.395 172.721 228.055 173.286 227.731 173.448C226.789 173.911 225.79 174.271 224.801 174.627L224.66 174.678C223.528 175.098 222.946 175.841 222.768 177.103C222.477 179.269 218.387 179.609 217.304 177.991C217.061 177.62 216.85 177.232 216.656 176.828C216.091 175.664 215.04 175.308 213.892 175.405C211.661 175.616 209.543 176.197 207.587 177.394C207.287 177.576 206.987 177.76 206.688 177.943C204.34 179.382 201.991 180.82 199.453 181.953C198.925 182.19 198.504 182.658 198.079 183.131C197.749 183.497 197.416 183.867 197.028 184.136C196.56 184.459 195.525 184.604 195.186 184.329C194.037 183.36 192.986 182.228 192.097 180.999C191.897 180.729 191.932 180.297 191.969 179.851C191.991 179.576 192.014 179.296 191.983 179.043C191.919 178.445 190.901 178.008 190.432 178.38L190.273 178.504C189.3 179.268 188.384 179.987 186.972 180.11C185.396 180.235 184.071 181.076 182.751 181.915L182.75 181.916C182.364 182.161 181.979 182.405 181.588 182.632C181.329 182.778 180.667 182.632 180.44 182.405C180.306 182.266 180.176 182.122 180.047 181.979C179.445 181.314 178.855 180.66 177.869 180.434C177.663 180.386 177.448 180.342 177.232 180.299L177.229 180.298C176.346 180.119 175.427 179.933 174.83 179.414C174.22 178.87 173.923 177.961 173.638 177.089C173.567 176.873 173.497 176.66 173.424 176.455C173.321 176.175 173.486 175.775 173.626 175.437C173.64 175.404 173.652 175.371 173.665 175.34C173.714 175.243 174.069 175.162 174.231 175.227C174.787 175.453 175.355 175.631 175.922 175.81C177.22 176.217 178.517 176.625 179.664 177.604C181.475 179.172 183.448 178.412 184.563 176.262C185.97 173.546 186.745 170.716 186.374 167.66C186.343 167.621 186.311 167.581 186.279 167.542L186.229 167.479L186.18 167.418C186.18 167.395 186.187 167.373 186.194 167.349L186.196 167.343L186.201 167.325L186.204 167.314L186.206 167.309L186.208 167.298C186.209 167.293 186.21 167.288 186.211 167.282C186.211 167.278 186.212 167.274 186.212 167.27L186.213 167.261V167.256C183.852 167.111 182.057 168.275 180.44 169.811C179.875 170.361 179.696 171.46 180.182 172.284C180.381 172.633 180.619 172.964 180.856 173.296C181.137 173.687 181.417 174.079 181.636 174.499C181.782 174.775 181.685 175.47 181.475 175.583C181.233 175.716 180.859 175.617 180.508 175.524C180.435 175.505 180.364 175.486 180.295 175.47C180.085 175.421 179.891 175.275 179.729 175.146C179.089 174.632 178.638 173.942 178.187 173.252C177.544 172.268 176.899 171.281 175.702 170.797C175.525 170.731 175.541 170.005 175.59 169.601C175.815 167.968 176.64 166.787 178.192 166.107C178.693 165.898 178.646 165.365 178.29 164.961C178.25 164.916 178.211 164.867 178.172 164.818L178.17 164.816C178.068 164.69 177.966 164.561 177.838 164.491C175.639 163.392 175.169 161.678 176.042 159.495C176.462 158.444 176.721 157.394 176.576 156.246C176.496 155.632 175.816 154.92 175.267 155.05C175.136 155.079 174.999 155.099 174.864 155.119C174.549 155.167 174.233 155.214 173.973 155.372C172.989 155.938 172.112 156.667 171.233 157.396C169.905 158.498 168.572 159.603 166.859 160.158C166.569 160.255 166.261 160.886 166.261 161.258C166.28 162.272 165.996 163.253 165.712 164.235C165.271 165.759 164.829 167.286 165.518 168.938C165.612 169.161 165.466 169.496 165.323 169.824C165.27 169.947 165.217 170.068 165.178 170.183C164.871 171.104 165.08 171.896 165.711 172.624C165.792 172.718 165.879 172.812 165.966 172.907C166.344 173.321 166.737 173.752 166.843 174.225C167.041 175.178 167.294 176.12 167.547 177.061C168.036 178.879 168.526 180.698 168.622 182.615C168.686 184.151 166.649 186.383 165.259 185.995C163.447 185.494 161.83 185.607 160.148 186.562C158.807 187.321 157.32 187.903 155.816 188.194C154.225 188.51 152.86 189.24 151.499 189.968C151.118 190.172 150.737 190.376 150.352 190.57C148.671 191.428 147.683 192.656 147.102 194.532C145.3 200.452 145.242 200.497 140.686 204.098L140.618 204.152C140.051 204.602 139.399 204.947 138.746 205.292C138.225 205.567 137.704 205.843 137.224 206.173C136.706 206.528 136.237 207.094 135.979 207.676C135.773 208.166 135.656 208.691 135.538 209.22C135.462 209.563 135.385 209.91 135.283 210.247C134.879 211.622 133.925 212.51 132.583 212.947C132.268 213.052 131.942 213.138 131.619 213.223H131.616L131.615 213.224C131.294 213.308 130.972 213.392 130.659 213.496C129.592 213.869 128.736 214.484 128.186 215.566C127.458 216.989 126.116 217.038 124.726 216.876C123.577 216.747 122.672 216.197 121.767 215.502C121.359 215.182 120.704 215.136 120.118 215.096L120.021 215.089L119.924 215.081C119.293 215.048 118.484 215.874 118.598 216.358C118.714 216.871 118.845 217.382 118.975 217.896C119.169 218.665 119.364 219.438 119.52 220.223C119.713 221.144 119.002 221.871 117.983 221.937C116.415 222.05 114.926 222.001 113.439 221.29C112.696 220.935 111.694 220.805 110.869 220.982C109.61 221.242 108.377 221.637 107.145 222.033C106.683 222.181 106.222 222.33 105.76 222.471C105.21 222.632 104.693 223.489 104.79 224.055C104.811 224.18 104.832 224.305 104.853 224.43C105.192 226.501 105.518 228.493 108.477 228.63C109.181 228.666 109.861 229 110.55 229.339C111.093 229.606 111.641 229.876 112.211 230.004C114.394 230.505 115.849 231.848 116.495 233.82C117.175 235.857 118.338 237.377 120.117 238.412C121.459 239.188 121.864 240.384 121.799 241.774C121.638 245.299 121.46 248.84 121.152 252.364C121.056 253.476 120.704 254.563 120.353 255.647C120.29 255.841 120.226 256.036 120.165 256.229C119.81 257.36 118.112 258.541 116.98 258.072C115.856 257.607 114.69 257.662 113.528 257.717C112.268 257.777 111.012 257.837 109.817 257.231C109.285 256.956 108.444 256.908 107.878 257.102C105.647 257.91 103.449 257.555 101.33 256.94C98.9541 256.244 96.6243 255.776 94.167 256.357C93.5369 256.503 92.7776 256.504 92.1953 256.277C89.4467 255.275 87.0047 255.275 85 257.813C84.7757 258.101 84.3123 258.199 83.8467 258.298C83.6068 258.349 83.366 258.4 83.1572 258.477C82.7369 258.622 82.3324 258.816 81.9443 259.01C81.2009 259.399 80.6188 260.595 80.9746 261.257C82.1546 263.44 82.8819 265.687 82.3486 268.209C82.3188 268.329 82.3635 268.462 82.4092 268.599C82.4374 268.683 82.4662 268.769 82.4785 268.855C83.497 273.851 82.5745 278.557 80.4404 283.101C79.8747 284.297 79.3905 285.542 78.9541 286.803C78.6632 287.659 78.6301 288.646 79.2441 289.357C81.2327 291.653 82.0902 294.273 81.7666 297.279C81.7186 297.716 81.7826 298.185 81.9277 298.589C82.0736 298.993 82.3488 299.526 82.6719 299.623C83.0421 299.734 83.4105 299.867 83.7793 299.999L83.7803 300C85.0702 300.464 86.3721 300.931 87.8301 300.529C88.6709 300.287 89.5756 300.19 90.4648 300.174C91.6127 300.158 92.6637 300.594 93.3428 301.563C93.7713 302.171 94.1663 302.806 94.5615 303.44C94.9865 304.123 95.4119 304.807 95.8809 305.46C96.8029 306.738 98.7916 307.206 100.069 306.479C101.039 305.929 101.993 305.363 102.898 304.717C105.162 303.099 107.636 302.469 110.433 302.68C111.831 302.782 113.238 302.677 114.642 302.571C115.233 302.527 115.825 302.482 116.415 302.453C117.611 302.388 118.565 301.871 119.212 300.885C119.988 299.72 121.023 298.961 122.349 298.54C123.707 298.103 124.564 297.262 125.017 295.84C125.615 293.916 126.633 292.203 128.104 290.764C128.8 290.085 129.14 289.114 128.525 288.37C125.938 285.201 127.311 282.647 129.607 280.174C129.973 279.769 130.327 279.358 130.68 278.948L130.682 278.945C130.905 278.685 131.129 278.426 131.354 278.169C131.565 277.929 131.772 277.686 131.979 277.442C133.492 275.666 134.998 273.895 137.643 273.738C140.634 272.348 142.931 270.472 142.995 266.818C143.025 265.599 143.192 264.38 143.356 263.174L143.399 262.857C143.48 262.211 143.642 261.548 143.819 260.918C144.289 259.317 146.326 257.862 147.877 258.185C148.677 258.353 149.491 258.468 150.306 258.582C152.537 258.896 154.772 259.21 156.738 260.643C157.886 261.483 159.47 261.16 160.359 260.028C162.074 257.878 164.11 256.309 166.762 255.452C167.537 255.194 168.249 254.467 168.815 253.804C170.368 252.058 172.129 251.847 174.231 252.655C176.188 253.399 177.74 254.498 178.661 256.438C179.255 257.675 179.877 258.903 180.498 260.127L180.5 260.129C180.616 260.357 180.731 260.586 180.847 260.814L181.021 261.16C181.488 261.586 181.959 262.009 182.429 262.432C184.724 264.498 187.02 266.566 188.992 268.969C190.723 271.086 192.97 272.623 195.605 273.237C197.68 273.722 199.276 274.92 200.868 276.116C201.72 276.756 202.572 277.396 203.496 277.926C204.337 279.608 205.792 280.562 207.408 281.402C207.958 281.694 208.525 282.212 208.767 282.761C209.38 284.202 209.88 285.695 210.379 287.182C210.445 287.379 210.512 287.576 210.578 287.772C210.707 288.16 210.675 288.662 210.562 289.05L210.533 289.134C209.898 290.992 209.327 292.663 206.794 293.108C206.521 293.158 206.248 293.207 205.976 293.257C202.311 293.924 198.689 294.582 194.927 294.19C194.313 294.126 193.617 294.434 193.052 294.741C192.728 294.919 192.421 295.388 192.356 295.775C192.275 296.163 192.357 296.827 192.599 296.988C193.893 297.829 195.234 298.605 196.608 299.316C198.766 300.433 200.933 301.52 203.103 302.608L203.105 302.609L204.886 303.504C205.355 303.73 206.325 303.278 206.552 302.695C206.59 302.599 206.629 302.501 206.669 302.403C206.882 301.881 207.101 301.348 207.101 300.804C207.109 300.346 207.029 299.888 206.948 299.429C206.875 299.011 206.802 298.592 206.794 298.169C206.779 296.859 207.877 295.712 209.349 295.792C210.868 295.873 211.952 295.405 212.68 294.127C213.763 292.203 214.813 290.262 215.864 288.306C216.543 287.013 216.414 285.751 215.638 284.522C215.525 284.342 215.39 284.167 215.256 283.992C214.969 283.619 214.685 283.249 214.619 282.841C214.49 282.001 214.57 281.079 214.797 280.255C215.169 278.929 216.899 278.282 218.062 279.042C218.658 279.433 219.2 279.907 219.741 280.381C220.185 280.769 220.63 281.157 221.104 281.5C221.313 281.644 222.025 281.45 222.219 281.191C223.124 280.012 223.058 278.169 222.04 277.587C220.819 276.899 219.671 276.084 218.524 275.27C216.408 273.766 214.294 272.264 211.725 271.572C210.368 271.216 210.108 270.311 209.995 269.146C209.962 268.791 209.607 268.275 209.284 268.161C208.46 267.887 207.57 267.676 206.696 267.644C204.514 267.563 202.881 266.495 201.556 264.927L201.338 264.671C200.399 263.571 199.427 262.433 198.888 261.128C197.875 258.674 196.019 256.976 194.161 255.276L194.132 255.249C194.041 255.166 193.95 255.083 193.859 255C193.437 254.611 192.947 254.296 192.456 253.981C192.009 253.694 191.56 253.407 191.159 253.061C190.093 252.154 189.559 250.942 189.607 249.535C189.626 248.924 189.668 248.312 189.711 247.7C189.745 247.212 189.78 246.724 189.802 246.236C189.834 245.493 190.303 244.992 190.885 244.701C191.871 244.2 192.906 243.763 193.957 243.456C194.232 243.376 194.911 243.715 195.008 243.989C195.171 244.489 195.275 245.012 195.379 245.533C195.49 246.091 195.6 246.648 195.783 247.175C196.09 248.016 196.786 248.954 197.724 248.694C198.52 248.469 199.14 248.791 199.753 249.109C200.285 249.385 200.811 249.657 201.442 249.567C202.477 249.421 203.253 250.117 203.496 250.958C204.352 253.949 206.519 255.792 208.945 257.393C209.338 257.649 209.723 257.922 210.109 258.194L210.11 258.195C211.696 259.316 213.29 260.442 215.396 260.481C215.632 260.659 215.861 260.85 216.09 261.04C216.88 261.697 217.672 262.356 218.774 262.519C220.424 262.762 221.572 263.844 222.671 264.943C223.319 265.592 223.926 266.275 224.53 266.956C225.101 267.6 225.672 268.243 226.276 268.855C226.955 269.55 227.182 270.262 227.102 271.232C227.041 271.936 227.059 272.639 227.076 273.343C227.092 273.965 227.107 274.588 227.068 275.21C226.907 277.554 227.247 279.64 229.381 281.079C229.542 281.192 229.736 281.499 229.688 281.645C229.121 283.419 230.202 284.2 231.354 285.032L231.355 285.033L231.478 285.121L231.527 285.157L231.602 285.211C231.648 285.245 231.695 285.28 231.741 285.314C232.5 285.875 233.175 286.571 233.845 287.262C234.102 287.527 234.36 287.792 234.62 288.048C234.759 288.995 235.323 289.734 235.886 290.471C236.505 291.281 237.122 292.089 237.173 293.172C237.787 293.706 237.804 293.884 237.189 294.417L237.199 294.704H237.362V294.721C237.354 294.727 237.345 294.734 237.338 294.74C237.33 294.747 237.323 294.753 237.316 294.759C237.308 294.766 237.301 294.775 237.293 294.782L237.284 294.79L237.238 294.836C237.228 294.846 237.217 294.857 237.205 294.868L237.213 295.11C237.222 295.371 237.23 295.632 237.238 295.889C239.033 297.117 240.651 298.46 241.07 300.837C241.152 301.353 241.879 301.904 242.428 302.146C244.044 302.874 245.759 303.343 247.586 303.165C248.378 303.084 248.992 302.68 248.652 301.952C248.06 300.692 248.593 299.708 249.122 298.729C249.517 298 249.91 297.274 249.834 296.439C249.818 296.374 250.254 296.147 250.399 296.196C251.516 296.564 252.384 296.089 253.252 295.615C253.717 295.361 254.182 295.107 254.684 294.983C255.136 294.87 255.282 294.45 255.137 293.949C254.619 292.219 254.004 290.57 252.339 289.567C252.131 289.439 251.911 289.319 251.69 289.199C251.106 288.881 250.521 288.561 250.157 288.079C248.571 285.905 247.112 283.647 245.649 281.382L245.339 280.9C245.161 280.614 245.168 280.2 245.175 279.815L245.176 279.726V279.702C245.176 279.67 245.177 279.639 245.177 279.607C245.161 279.397 245.242 279.17 245.339 278.977C245.581 278.492 245.97 278.443 246.423 278.815C246.607 278.973 246.777 279.146 246.945 279.317C247.087 279.461 247.228 279.604 247.376 279.737C249.316 281.354 251.111 280.885 251.968 278.557C252.016 278.421 252.062 278.284 252.109 278.147L252.111 278.142C252.349 277.449 252.589 276.752 252.953 276.132C253.099 275.841 253.762 275.566 254.054 275.679C254.91 276.018 255.719 276.261 256.495 275.566C257.627 274.563 258.969 274.66 260.295 274.839C262.186 275.081 263.56 276.585 263.608 278.411C263.689 281.079 263.689 283.731 262.913 286.317C262.752 286.851 263.479 287.627 264.093 287.644C264.567 287.655 265.042 287.625 265.516 287.595C265.704 287.583 265.893 287.572 266.082 287.562C266.131 287.559 266.182 287.554 266.231 287.549C266.411 287.531 266.593 287.512 266.745 287.562C266.939 287.643 267.214 287.821 267.23 287.982C267.278 288.403 267.328 288.904 267.134 289.244C266.649 290.068 265.837 290.295 265.022 290.522C264.559 290.652 264.094 290.781 263.689 291.021C263.512 291.135 263.301 291.281 263.221 291.459C263.011 291.944 263.157 292.364 263.625 292.606C264.093 292.86 264.572 293.102 265.05 293.343C265.364 293.501 265.677 293.659 265.985 293.819C266.15 293.904 266.319 293.982 266.488 294.061C266.935 294.267 267.38 294.473 267.731 294.79C268.111 295.138 267.868 295.517 267.636 295.881C267.403 296.244 267.181 296.592 267.602 296.875C267.678 296.927 267.756 296.979 267.833 297.031C268.875 297.737 269.921 298.446 270.447 299.575C270.871 300.49 271.586 301.09 272.301 301.689C272.596 301.937 272.89 302.184 273.164 302.453C273.843 303.116 274.684 303.278 275.622 303.019C277.546 302.501 279.082 303.068 280.311 304.685C280.665 305.143 281.236 305.466 281.764 305.765C281.813 305.793 281.862 305.82 281.91 305.848C282.283 306.058 282.768 306.269 283.172 306.221C283.243 306.211 283.314 306.201 283.385 306.191L283.646 306.157C283.745 306.145 283.843 306.133 283.941 306.12L283.944 306.119C285.889 305.874 287.854 305.628 289.138 303.844C290.254 302.292 291.708 302.307 293.293 302.695C294.829 303.068 296.203 303.827 297.335 304.942C299.13 306.737 301.264 306.802 303.544 306.365C306.033 305.897 308.086 304.749 309.735 302.777C310.285 302.114 311.223 301.758 312.161 302.13C313.332 302.6 314.552 302.631 315.775 302.661C316.274 302.673 316.774 302.685 317.271 302.728C317.286 302.679 317.286 302.631 317.303 302.582L317.465 302.373L317.416 302.744C317.391 302.744 317.365 302.745 317.34 302.742C317.317 302.74 317.293 302.735 317.271 302.728C316.478 305.072 316.688 307.465 317.108 309.81C317.513 312.073 317.399 314.256 316.801 316.406C316.332 318.121 315.767 319.801 315.152 321.467C314.901 322.168 314.619 322.855 314.337 323.542C313.696 325.104 313.057 326.663 312.776 328.37C312.42 330.586 311.175 332.493 309.752 334.239C309.154 334.951 308.475 335.565 307.537 335.581C306.887 335.594 306.235 335.625 305.584 335.655C302.919 335.781 300.257 335.906 297.658 334.789C296.72 334.372 295.603 334.312 294.52 334.254C294.364 334.246 294.209 334.237 294.056 334.228C294.002 334.224 293.949 334.221 293.896 334.218L293.84 334.214L293.746 334.207C290.771 333.965 288.038 334.821 285.5 336.341C284.288 337.068 283.043 337.15 281.669 336.858C280.286 336.563 278.908 336.238 277.53 335.913L277.527 335.912H277.525L277.524 335.911H277.521L277.519 335.91H277.516L277.514 335.909H277.511L277.509 335.908H277.507L277.506 335.907H277.502L277.501 335.906H277.497L277.495 335.905H277.492L277.49 335.904H277.487L277.485 335.903L277.482 335.902H277.479L277.478 335.901H277.474L277.473 335.9H277.469L277.467 335.899L277.464 335.898H277.461L277.454 335.896C274.106 335.108 270.756 334.32 267.327 333.933L267.277 333.927C265.544 333.734 263.611 333.519 262.202 332.639C260.109 331.33 257.884 330.959 255.598 330.578L255.25 330.521C253.213 330.198 251.418 329.485 249.947 327.966C249.365 327.368 248.475 326.916 247.634 326.721C243.851 325.848 240.133 325.994 236.544 327.675C234.264 328.742 232.242 332.122 233.099 334.951C233.188 335.243 233.289 335.532 233.389 335.822C233.577 336.369 233.765 336.919 233.892 337.489C234.102 338.411 233.762 339.235 233.212 339.963C232.808 340.497 232.371 340.998 231.887 341.45C230.691 342.582 228.847 342.858 227.569 342.081C227.09 341.796 226.636 341.47 226.18 341.144C225.913 340.953 225.645 340.762 225.371 340.577C225.231 340.482 225.091 340.386 224.952 340.289C224.898 340.251 224.843 340.213 224.789 340.175L224.642 340.071L224.471 339.95C223.684 339.395 222.896 338.84 222.04 338.395C219.275 336.924 216.414 335.792 213.181 335.84C211.742 335.856 210.675 335 210.061 333.689C209.784 333.062 209.547 332.415 209.312 331.771C209.243 331.586 209.175 331.4 209.106 331.216C208.622 329.875 207.7 328.968 206.374 328.483C202.591 327.11 198.775 325.929 194.668 326.414C192.64 326.652 190.878 325.898 189.121 325.146C188.847 325.028 188.573 324.91 188.298 324.797C188.259 324.782 188.219 324.768 188.179 324.754C187.998 324.69 187.809 324.623 187.716 324.49C186.244 322.712 184.24 321.903 182.122 321.208C181.184 320.901 180.78 319.01 181.426 318.314C181.845 317.865 182.289 317.436 182.732 317.008C183.247 316.511 183.762 316.014 184.239 315.484C185.565 313.981 185.63 312.202 184.903 310.473C184.655 309.891 184.26 309.37 183.861 308.846C183.585 308.482 183.307 308.115 183.075 307.724C182.865 307.385 182.801 306.834 182.914 306.462C183.206 305.657 183.554 304.879 183.902 304.098C184.093 303.671 184.283 303.242 184.466 302.809C184.708 302.211 184.11 301.419 183.334 301.629C182.202 301.936 181.168 302.017 180.359 300.966C179.05 299.301 177.287 299.349 175.492 299.834C174.674 300.052 173.87 300.338 173.065 300.625C172.201 300.933 171.335 301.241 170.448 301.467C169.714 301.659 168.939 301.685 168.165 301.711H168.163C167.83 301.722 167.496 301.734 167.166 301.759C166.277 301.096 165.327 301.293 164.384 301.489C163.578 301.657 162.777 301.824 162.024 301.451C160.742 300.82 159.671 301.25 158.603 301.679C158.055 301.898 157.507 302.118 156.932 302.194C155.639 302.373 154.264 302.437 152.971 302.26C149.608 301.807 146.31 301.903 143.092 302.971C141.734 303.414 140.347 303.461 138.953 303.507C138.571 303.519 138.188 303.532 137.806 303.553C136.221 303.633 134.765 303.956 133.342 304.717C131.014 305.993 128.638 307.207 126.196 308.258L125.964 308.357C124.204 309.112 122.511 309.837 121.07 311.216C119.324 312.898 116.997 313.156 114.83 312.268C113.1 311.556 111.516 311.313 109.673 311.572C107.927 311.814 106.116 311.814 104.354 311.669C103.703 311.616 103.062 311.219 102.449 310.838C102.301 310.746 102.155 310.654 102.01 310.569C101.765 310.431 101.584 310.196 101.401 309.959C101.306 309.835 101.21 309.711 101.104 309.6C99.3583 307.821 97.5314 308.258 96.6904 310.683C96.5664 311.041 96.4328 311.397 96.2998 311.752C95.9645 312.647 95.6302 313.54 95.4453 314.466C94.8307 317.587 92.8579 319.477 90.1738 320.933C87.8297 322.21 85.5663 323.617 83.335 325.088C81.282 326.446 79.3097 327.869 79.3096 330.779C79.3096 331.73 78.7224 332.491 78.1533 333.229L78.1523 333.231C78.0343 333.385 77.9168 333.537 77.8057 333.689C76.7224 335.194 76.2051 336.826 76.415 338.701C76.5156 339.732 76.5479 340.773 76.5801 341.809C76.5893 342.104 76.5986 342.401 76.6094 342.695C76.6581 343.843 76.3182 344.878 75.6709 345.832C75.3745 346.258 75.0851 346.689 74.7959 347.12L74.7949 347.122C74.2171 347.984 73.6393 348.845 73.0039 349.663C72.4865 350.343 71.8068 350.957 71.0957 351.475C70.6155 351.824 70.103 352.131 69.5898 352.438C68.9626 352.812 68.3348 353.187 67.7656 353.641C66.3265 354.805 64.7745 355.533 62.9473 355.76C61.2658 355.97 60.1337 356.988 59.2119 358.313C59.0863 358.49 58.9557 358.666 58.8252 358.841C58.4183 359.386 58.0103 359.933 57.7412 360.545C56.9972 362.258 55.801 363.455 54.1836 364.36C52.3895 365.364 51.435 367.061 50.4492 368.872C50.1973 369.341 49.95 369.815 49.7021 370.289L49.7002 370.292C48.3098 372.952 46.9075 375.635 44.6445 377.748C44.0144 378.33 43.5462 379.155 43.1904 379.946C41.6218 383.39 39.9881 386.785 37.7734 389.857C36.8357 391.168 36.5932 392.703 36.3994 394.271C36.1729 396.211 36.5774 397.779 38.3398 398.862C39.8593 399.8 40.3446 401.337 39.8594 402.922C39.3745 404.473 39.3262 405.831 39.7949 407.416C40.9593 411.312 41.2501 415.29 39.3262 419.121C39.132 419.509 39.0347 419.979 38.9541 420.399C38.2746 424.376 37.2564 428.208 34.2656 431.199C34.0392 431.426 34.0221 432.121 34.2002 432.428C34.6934 433.282 35.2583 434.099 35.8213 434.915C36.0152 435.196 36.2088 435.477 36.3994 435.759C37.1756 436.922 37.644 438.12 37.0137 439.51C36.0922 441.547 36.7874 443.439 37.5957 445.297C38.2422 446.801 39.5033 447.771 40.8936 448.466C41.7101 448.875 42.591 449.157 43.4736 449.438C43.8491 449.558 44.2252 449.679 44.5967 449.809C44.5967 449.786 44.5927 449.767 44.5889 449.747C44.5845 449.724 44.5801 449.698 44.5801 449.663L44.7744 449.388L44.6289 449.824C44.622 449.824 44.618 449.822 44.6133 449.818C44.611 449.817 44.6084 449.815 44.6055 449.813C44.5999 449.811 44.5923 449.809 44.5801 449.809C44.5802 451.183 45.114 452.347 46.3105 453.059C47.5232 453.77 48.3311 454.707 48.6709 456.098C48.8974 457.019 49.5924 457.634 50.417 458.006C52.3087 458.847 53.7799 460.188 55.1055 461.708C55.6717 462.339 56.3183 463.212 56.3506 463.988C56.4519 466.506 57.6021 468.597 58.7471 470.678C58.8812 470.921 59.0152 471.165 59.1475 471.409C60.4565 473.819 62.3326 475.676 64.9678 476.68C66.843 477.407 68.4275 478.507 70.0283 479.768C70.7829 480.365 71.5321 480.971 72.2812 481.576C75.1596 483.902 78.0391 486.228 81.2334 488.127C83.1736 489.275 85.1951 490.131 87.3291 490.762C87.927 490.923 88.6863 490.891 89.2686 490.665C90.4293 490.213 91.55 489.679 92.6699 489.146L92.6875 489.137C92.9649 489.004 93.2424 488.872 93.5205 488.741C95.9625 487.577 98.4843 486.914 101.249 486.995C103.011 487.043 104.806 486.849 106.552 486.559C109.252 486.122 111.791 486.364 114.265 487.544C114.781 487.782 115.345 487.934 115.905 488.086L115.986 488.108C116.048 488.125 116.11 488.141 116.172 488.158C117.482 488.547 118.792 488.531 120.102 488.045C120.76 487.804 121.432 487.593 122.105 487.381H122.107C122.921 487.125 123.735 486.868 124.531 486.559C124.718 486.487 124.907 486.417 125.096 486.347C126.152 485.954 127.23 485.554 128.121 484.909C129.802 483.713 131.628 483.018 133.568 482.436C134.228 482.235 134.883 481.984 135.535 481.735C136.77 481.264 138.001 480.795 139.261 480.657C140.305 480.551 141.331 480.303 142.355 480.055C144.138 479.623 145.918 479.191 147.797 479.509C147.905 479.528 148.013 479.543 148.123 479.557L148.785 479.631C149.115 479.671 149.438 479.727 149.737 479.849C152.292 480.899 154.377 482.484 155.46 485.136C155.611 485.51 155.754 485.887 155.897 486.264L155.899 486.27C156.232 487.143 156.562 488.014 156.979 488.838C158.096 491.036 159.988 492.024 162.396 492.088C163.06 492.104 163.739 492.072 164.386 491.975C165.026 491.862 165.668 491.752 166.311 491.643L166.322 491.641L166.336 491.639C168.54 491.263 170.751 490.885 172.923 490.374C174.604 489.985 175.913 489.938 176.899 491.635C177.32 492.379 178.063 492.977 178.791 493.446C181.168 494.966 181.41 497.44 181.522 499.815C181.571 501.336 181.103 502.921 180.617 504.376C180.435 504.944 180.133 505.476 179.831 506.005C179.462 506.652 179.095 507.295 178.953 507.998C178.805 508.707 178.853 509.461 178.899 510.212C178.95 511.018 179 511.82 178.808 512.557C178.685 513.02 178.577 513.492 178.469 513.966C178.038 515.858 177.6 517.779 176.14 519.266C175.927 519.479 175.889 519.891 175.855 520.264L175.846 520.362C175.841 520.407 175.837 520.452 175.832 520.495C175.8 520.689 175.897 520.932 175.979 521.126C178.888 528.352 179.922 529.857 185.711 535.208L186.1 535.571L186.101 535.572C186.941 536.36 187.788 537.152 188.67 537.908C190.4 539.38 191.596 541.239 192.55 543.26C193.018 544.227 193.32 545.225 193.632 546.253L193.666 546.363C194.022 547.606 194.449 548.817 194.958 550H0V53.8496C0.113235 53.7991 0.22647 53.7444 0.339844 53.6855C2.52292 52.5538 4.85106 51.9393 7.30859 51.5352C11.2696 50.8728 15.102 49.5789 18.2871 47.0244C20.377 45.3746 22.5382 43.8437 24.6924 42.3184C26.8877 40.7639 29.0757 39.2147 31.1729 37.5498C31.381 37.3704 31.3569 36.8365 31.3389 36.4375L31.335 36.3379C31.335 36.1921 31.0438 36.0136 30.8496 35.9492C29.8251 35.5948 28.7441 35.4719 27.665 35.3496C26.0877 35.1709 24.513 34.9922 23.1211 34.0898C21.2296 32.8778 19.3539 33.103 17.3818 33.7979C17.0696 33.9116 16.6442 33.7768 16.2607 33.6543C16.2077 33.6373 16.1556 33.6202 16.1045 33.6045C15.9268 33.5565 15.7812 33.3299 15.668 33.1523C15.377 32.7155 15.3935 32.1984 15.7812 32.0361C16.2962 31.8324 16.8281 31.6693 17.3613 31.5059C17.883 31.346 18.4065 31.1852 18.918 30.9854C20.2429 30.4679 20.9543 29.2395 20.793 27.8008C20.7161 27.1178 20.6036 26.4337 20.4902 25.748C20.389 25.1357 20.2874 24.521 20.2109 23.9033C20.147 23.4347 21.0677 22.5303 21.5693 22.6426C21.9571 22.7242 22.4742 22.9985 22.5879 23.3057C22.7519 23.7514 22.9097 24.2 23.0674 24.6475C23.796 26.7147 24.5223 28.7732 25.8379 30.5811C26.9374 32.1007 28.2307 33.184 30.2842 32.9258C31.0673 32.8242 31.8763 32.84 32.665 32.8555L32.9355 32.8604C35.3283 32.9093 35.6997 32.651 35.8291 30.4844C35.8736 29.7004 35.8752 28.9138 35.877 28.1279V28.123C35.8796 26.9169 35.8826 25.7119 36.0391 24.5186C36.158 23.5668 35.7778 22.7345 35.3984 21.9043C34.9529 20.9291 34.509 19.9564 34.876 18.7949C34.9705 18.5106 34.7157 18.1234 34.4551 17.7275C34.3154 17.5153 34.1733 17.3007 34.083 17.0977C32.9352 14.5912 31.1082 12.7163 28.8613 11.1641C27.9557 10.5324 27.082 9.80496 26.29 9.0293C25.8373 8.57626 25.3525 8.01093 25.207 7.41211C24.8347 5.92513 24.5922 4.38876 24.4141 2.86914C24.3661 2.5293 24.7545 2.01219 25.0938 1.81836C25.353 1.67351 26.064 1.77026 26.1611 1.97949C26.4521 2.52956 26.6943 3.19323 26.6943 3.80762C26.7105 6.23235 27.5997 8.0751 29.7178 9.36816C30.1815 9.65476 30.5985 10.009 31.0156 10.3623C31.7763 11.0067 32.5376 11.651 33.582 11.8916C34.2125 12.0366 35.167 11.7452 35.1992 11.1309C35.2476 10.0155 35.3936 8.96405 36.1367 8.0752C35.8384 7.16732 36.1621 6.46121 36.5771 5.75684L36.9609 5.11719C37.4457 4.30895 37.1224 3.1283 36.4922 2.69238C36.002 2.34926 35.5046 2.0184 35.0078 1.68848C34.1864 1.14298 33.3664 0.598608 32.585 0H343.963ZM52.9277 354.177C52.6852 354.334 52.4366 354.495 52.2441 354.688C51.8725 355.092 51.9693 355.512 52.4541 355.723C52.6157 355.803 52.922 355.835 53.0352 355.738C53.24 355.556 53.4131 355.333 53.582 355.116C53.653 355.025 53.7233 354.935 53.7949 354.849C53.6992 354.705 53.6074 354.562 53.5156 354.418C53.4217 354.271 53.3277 354.124 53.2295 353.977C53.1332 354.044 53.0308 354.11 52.9277 354.177ZM309.004 309.919C307.952 310.055 306.9 310.209 305.849 310.363C305.154 310.465 304.46 310.566 303.766 310.663C302.182 310.89 300.855 311.698 299.546 312.522C298.883 312.943 298.786 314.236 299.336 314.898C300.322 316.03 301.616 316.451 302.941 316.144C304.046 315.892 305.102 315.386 306.142 314.888C306.304 314.81 306.466 314.733 306.628 314.656C308.194 313.915 308.733 312.434 309.259 310.986L309.26 310.984C309.331 310.79 309.401 310.595 309.474 310.403C309.423 310.348 309.37 310.278 309.318 310.209C309.205 310.057 309.093 309.908 309.004 309.919ZM254.196 310.193C253.825 310.113 253.308 310.339 252.968 310.581C252.644 310.808 252.321 311.228 252.272 311.583C252.223 311.939 252.466 312.586 252.709 312.667C254.738 313.26 256.797 313.763 258.844 314.263L259.063 314.316C259.217 314.354 259.401 314.343 259.503 314.336C259.522 314.335 259.538 314.333 259.551 314.333H259.564C259.924 314.281 260.279 314.229 260.63 314.179L260.654 314.175H260.656C262.137 313.961 263.539 313.758 264.932 313.523C265.11 313.492 265.433 313.216 265.417 313.119L265.416 313.117C265.352 312.746 265.271 312.278 265.013 312.085C263.575 310.953 261.893 310.387 260.082 310.484C258.093 310.614 256.153 310.581 254.196 310.193ZM274.76 305.776C274.049 305.841 273.661 306.472 273.854 307.134C273.871 307.188 273.909 307.237 273.959 307.283L274.307 307.555C274.376 307.534 274.453 307.52 274.528 307.508C274.683 307.482 274.836 307.458 274.922 307.36C275.115 307.156 275.266 306.923 275.416 306.69L275.417 306.689L275.418 306.688L275.42 306.686C275.464 306.617 275.508 306.549 275.553 306.481C275.584 306.434 275.617 306.388 275.649 306.342C275.567 306.282 275.482 306.208 275.396 306.134C275.179 305.945 274.957 305.753 274.76 305.776ZM177.127 276.934C176.9 274.8 174.62 272.131 171.969 274.088C171.601 274.355 171.216 274.594 170.829 274.832C170.468 275.054 170.105 275.278 169.754 275.527C169.171 275.932 168.898 276.627 169.124 277.241C169.999 279.653 170.057 282.153 170.116 284.67L170.126 285.066C170.239 289.011 172.179 289.836 175.72 287.621C176.528 287.12 177.062 286.424 177.127 285.535C177.196 284.59 177.183 283.644 177.17 282.699C177.165 282.319 177.159 281.938 177.159 281.558H177.321C177.292 280.753 177.249 279.96 177.205 279.157L177.191 278.906C177.179 278.65 177.178 278.394 177.178 278.139C177.177 277.733 177.176 277.331 177.127 276.934ZM109.753 147.733C107.974 147.83 106.196 147.927 104.434 148.073C103.463 148.154 102.818 148.784 102.381 149.576C101.603 150.991 100.841 152.414 100.079 153.839L99.2275 155.43C99.0119 155.819 98.7188 155.818 98.3379 155.815C98.2971 155.815 98.2547 155.815 98.2119 155.815C98.1741 155.816 98.1351 155.816 98.0957 155.817C96.0906 155.883 95.4769 156.852 96.7217 158.13C98.3226 159.763 98.63 161.46 98.0801 163.529C97.9188 164.176 98.2577 164.822 98.8721 165.227C99.8099 165.857 99.713 166.618 99.2119 167.475C98.961 167.914 98.7391 168.363 98.5166 168.813L98.5146 168.816C98.4509 168.945 98.3869 169.075 98.3223 169.204L98.375 169.253L98.4121 169.288L98.4785 169.349C98.7036 169.556 98.9279 169.763 99.0986 170.013C99.2396 170.22 99.3314 170.46 99.4248 170.703C99.4921 170.879 99.5604 171.056 99.6484 171.226C100.488 172.89 100.764 172.907 102.461 171.323C102.568 171.227 102.668 171.123 102.771 171.018C102.823 170.964 102.876 170.908 102.931 170.854C102.962 170.99 103.007 171.126 103.052 171.262C103.145 171.545 103.238 171.825 103.205 172.099C103.134 172.792 103.017 173.479 102.9 174.167C102.832 174.57 102.764 174.975 102.704 175.381C102.526 176.593 103.238 177.434 104.547 177.58C104.651 177.587 104.752 177.612 104.852 177.636C104.969 177.664 105.087 177.692 105.21 177.692C105.565 177.682 105.928 177.64 106.291 177.598C107.053 177.509 107.814 177.42 108.492 177.628C109.218 177.848 109.29 178.503 109.363 179.183C109.414 179.652 109.467 180.133 109.737 180.489C109.872 180.662 109.995 180.849 110.119 181.036C110.367 181.41 110.615 181.783 110.949 182.042C111.951 182.818 112.178 183.708 111.92 184.937C111.24 188.299 110.561 188.784 106.892 188.315C106.798 188.302 106.707 188.277 106.617 188.253C106.491 188.219 106.367 188.186 106.244 188.186C105.694 188.186 105.355 188.444 105.403 188.881C105.442 189.287 105.445 189.702 105.447 190.116C105.456 191.432 105.464 192.751 106.632 193.845C107.23 194.41 106.908 195.753 106.309 196.254C105.892 196.61 105.449 196.947 105.005 197.285C104.743 197.484 104.481 197.683 104.224 197.887C104.086 197.99 103.945 198.089 103.803 198.188C103.409 198.465 103.013 198.743 102.704 199.099C102.461 199.374 102.348 199.94 102.461 200.312C102.558 200.684 102.946 201.185 103.286 201.233C105.937 201.687 108.411 202.575 110.739 203.934C110.853 203.996 110.947 204.098 111.043 204.201C111.097 204.259 111.151 204.318 111.209 204.37C111.108 204.405 111.006 204.452 110.905 204.498C110.684 204.599 110.465 204.699 110.254 204.678C108.023 204.386 106.212 205.259 105.129 207.086C104.394 208.338 103.396 209.333 102.4 210.325C101.687 211.037 100.973 211.748 100.359 212.552C100.263 212.681 100.36 213.003 100.457 213.181C100.57 213.359 100.78 213.618 100.941 213.618C100.976 213.617 101.01 213.617 101.045 213.616C101.083 213.616 101.122 213.615 101.161 213.614L101.266 213.613C101.806 213.609 102.371 213.604 102.801 213.376C103.002 213.275 103.203 213.168 103.403 213.061C104.395 212.53 105.393 211.997 106.535 212.212C108.734 212.632 110.352 212.082 111.71 210.223C112.114 209.674 113.326 209.414 114.118 209.496C116.365 209.706 118.596 209.624 120.73 209.123C123.334 208.525 125.938 208.154 128.605 208.024C131.144 207.895 133.245 206.698 134.927 204.774C135.298 204.354 135.234 203.368 134.733 202.979C134.539 202.839 134.325 202.731 134.111 202.623C133.933 202.533 133.754 202.443 133.585 202.333C132.841 201.831 132.68 201.282 133.051 200.732C133.325 200.324 133.617 199.921 133.908 199.518C134.527 198.662 135.15 197.802 135.622 196.868C137.125 193.957 135.428 190.821 132.21 190.4C131.433 190.306 130.637 190.28 129.844 190.255H129.842C129.548 190.245 129.254 190.236 128.961 190.223H128.977C128.964 190.065 128.959 189.903 128.954 189.741C128.939 189.257 128.924 188.775 128.718 188.412C127.602 186.472 126.681 184.467 126.002 182.333C125.582 181.04 124.757 179.828 123.577 179.229C121.394 178.113 120.326 176.318 119.647 174.104C118.693 170.934 116.802 168.59 113.617 167.442C113.116 167.264 112.986 166.957 113.196 166.439C113.323 166.121 113.433 165.791 113.544 165.461L113.545 165.46C113.788 164.736 114.031 164.011 114.441 163.4C115.687 161.509 116.431 159.423 116.996 157.272C117.271 156.254 116.414 155.025 115.299 154.831C115.164 154.806 115.029 154.775 114.895 154.744C114.593 154.674 114.29 154.604 113.988 154.604H112.29C111.298 154.609 110.304 154.614 109.316 154.572C109.031 154.558 108.731 154.194 108.496 153.908L108.443 153.845C108.378 153.748 108.476 153.408 108.589 153.246C108.874 152.876 109.167 152.51 109.46 152.144C109.999 151.47 110.539 150.796 111.03 150.094C111.208 149.853 111.206 149.474 111.205 149.111C111.205 149.074 111.205 149.037 111.205 149C111.205 148.965 111.205 148.931 111.206 148.897C111.207 148.871 111.208 148.844 111.209 148.817C111.224 148.316 110.415 147.702 109.753 147.733ZM90.2656 173.267C88.6326 173.525 87.3227 174.221 86.6924 175.854C86.5407 176.236 86.4027 176.625 86.2646 177.014C86.0347 177.661 85.8055 178.309 85.5127 178.926C85.351 179.249 84.8334 179.556 84.4453 179.604C83.5696 179.691 82.6853 179.72 81.7998 179.749H81.7959C81.359 179.763 80.9216 179.778 80.4844 179.799C79.7728 179.831 79.1584 180.396 79.1094 180.994C79.0889 181.415 79.0901 181.839 79.0908 182.262C79.0923 183.172 79.0938 184.079 78.8838 184.94C78.5603 186.25 79.1096 187.026 79.8857 187.85C80.9527 188.981 80.9528 190.276 80.3066 191.536C79.8055 192.511 79.1684 193.43 78.5381 194.339C78.4158 194.515 78.2936 194.691 78.1729 194.867C78.0077 195.108 77.7751 195.306 77.542 195.504C77.4321 195.597 77.3221 195.691 77.2188 195.789C75.909 196.985 76.4908 199.201 78.0908 200.364C80.0153 201.771 82.1976 202.03 84.4131 201.27C85.6581 200.849 86.8706 200.234 88.002 199.556C89.9261 198.376 91.9153 197.519 94.1787 197.261C95.1001 197.147 95.7301 196.5 96.2314 195.74C97.8807 193.218 98.5762 190.502 97.8975 187.511C97.7516 186.864 97.622 186.217 97.5088 185.555C97.3475 184.6 97.7514 183.824 98.2852 183.097C98.5151 182.78 98.8103 182.502 99.1006 182.228L99.207 182.126C100.726 180.655 100.646 178.99 99.7559 177.26C99.3518 176.468 98.9325 175.676 98.3662 175.013C97.9784 174.528 97.3962 173.994 96.8135 173.864C95.533 173.587 94.2252 173.408 92.9512 173.234C92.5206 173.176 92.0934 173.118 91.6729 173.057C91.1388 173.137 90.7021 173.202 90.2656 173.267ZM105.191 181.458C105.029 181.41 104.771 181.426 104.658 181.539C104.335 181.863 104.481 182.12 104.997 182.137C105.089 182.137 105.187 182.066 105.287 181.994C105.346 181.952 105.406 181.909 105.466 181.879C105.432 181.828 105.403 181.768 105.374 181.709C105.319 181.598 105.265 181.49 105.191 181.458ZM198.723 173.815C198.383 173.46 197.898 173.525 197.753 173.929C197.64 174.22 197.657 174.721 197.851 174.931C198.045 175.173 198.497 175.205 198.852 175.221C198.959 175.233 199.066 175.106 199.166 174.986L199.182 174.967C199.188 174.959 199.195 174.951 199.201 174.943L199.221 174.921C199.238 174.901 199.256 174.883 199.272 174.866C199.211 174.743 199.158 174.617 199.107 174.495C199 174.235 198.899 173.991 198.723 173.815ZM97.043 169.171C96.8971 169.187 96.6393 169.51 96.6553 169.639C96.7522 170.172 97.2045 170.447 97.625 170.156C97.8388 170.009 97.9421 169.707 98.0449 169.405L98.0459 169.401C98.0565 169.37 98.0674 169.338 98.0781 169.308C98.0884 169.278 98.0988 169.249 98.1094 169.22C98.0332 169.213 97.9562 169.204 97.8789 169.195C97.5961 169.164 97.3089 169.133 97.043 169.171ZM98.1436 169.17L98.1338 169.201L98.127 169.224C98.192 169.224 98.2562 169.223 98.3213 169.239V169.224C98.3044 169.207 98.2894 169.19 98.2744 169.173C98.2461 169.141 98.2177 169.109 98.1758 169.078C98.165 169.099 98.1543 169.134 98.1436 169.17ZM217.008 153.042C217.008 153.083 217.008 153.124 217.018 153.165C215.938 153.118 214.938 153.282 214.165 154.185C213.26 155.236 212.79 156.415 213.017 157.822C213.097 158.258 213.195 158.695 213.405 159.083C213.599 159.455 213.891 159.779 214.182 160.07C214.505 160.393 215.265 159.924 215.814 159.278C217.377 157.456 217.382 155.362 217.03 153.187H217.153L217.299 152.929L217.008 153.042ZM97.2197 149.61C97.026 149.53 96.8005 149.496 96.6221 149.561C95.4905 149.884 94.6002 150.548 94.374 151.728C94.269 152.299 94.2737 152.888 94.2783 153.481C94.2801 153.706 94.2825 153.933 94.2783 154.158C94.2487 154.168 94.2188 154.178 94.1895 154.188L94.1475 154.201L94.0352 154.507L94.292 154.347V154.164C94.3855 154.132 94.479 154.102 94.5723 154.071L94.5742 154.07C94.8462 153.982 95.1161 153.895 95.377 153.765C96.6543 153.134 97.317 152.018 97.6895 150.692C97.8342 150.175 97.7532 149.804 97.2197 149.61ZM111.172 144.842C111.026 144.211 110.8 144.179 110.606 144.793C110.584 144.883 110.672 145.005 110.754 145.119C110.79 145.169 110.824 145.217 110.849 145.261C110.945 145.132 111.059 144.987 111.172 144.842ZM28.9297 75.3008C27.4102 73.9108 26.7468 73.9275 24.6611 75.3828L24.6445 75.334C24.5157 75.3648 24.3855 75.3943 24.2549 75.4238C23.2875 75.6425 22.2981 75.8662 21.6855 76.6924C20.7635 77.9135 19.9272 79.1828 19.0889 80.4561C18.8398 80.8343 18.5907 81.2131 18.3389 81.5908C17.9673 82.1572 18.9542 83.5636 19.6816 83.5146C19.8172 83.5046 19.9564 83.4978 20.0967 83.4912C20.6256 83.4663 21.171 83.4406 21.6055 83.2236C23.139 82.4569 24.4691 83.0142 25.8301 83.584C25.9036 83.6148 25.978 83.6451 26.0518 83.6758C26.6174 83.9023 26.6332 84.2588 26.3096 84.7598C26.1779 84.9574 26.0669 85.1689 25.9561 85.3779C25.577 86.0926 25.2086 86.7862 24.0957 86.8613C22.6457 86.9538 21.2096 87.2898 19.7744 87.626L19.5195 87.6855C19.2773 87.7508 19.0185 88.3821 19.0508 88.7373C19.0996 89.1251 19.3911 89.7077 19.6982 89.8047C20.2814 89.9933 20.8845 90.1071 21.4883 90.2207C21.9718 90.3117 22.4564 90.4025 22.9307 90.5322C23.5453 90.6935 24.2729 90.9365 24.6445 91.3887C25.3236 92.2296 25.857 93.2165 26.3096 94.2178C26.4389 94.4932 26.1972 95.0909 25.9385 95.3818C25.6798 95.6889 25.2112 95.9321 24.8066 95.9639C23.7233 96.0935 23.254 96.6763 23.3027 97.7266C23.3512 98.9716 24.0466 99.6504 25.4375 99.7637C25.5879 99.7785 25.7383 99.7962 25.8887 99.8135C26.4002 99.8723 26.9143 99.9314 27.4258 99.8936C29.6896 99.6996 31.888 99.7484 33.5859 101.575C34.2363 101.78 34.8837 101.994 35.5303 102.208C36.9733 102.686 38.4127 103.163 39.875 103.531C40.716 103.789 41.7345 103.709 42.5107 103.402C43.769 102.892 44.9868 102.282 46.2051 101.672C48.1488 100.699 50.0949 99.7259 52.2119 99.1494C52.826 98.9881 53.3752 98.4863 53.8447 98.0332C55.477 96.433 57.4496 95.4795 59.6328 94.9141C60.5541 94.6875 61.1691 94.1369 61.7188 93.4102C62.0687 92.9575 62.4685 92.5406 62.8701 92.1221C63.2287 91.7484 63.5892 91.3719 63.917 90.9678C64.1757 90.6605 64.4507 90.0626 64.3213 89.7881C63.4159 87.8797 64.2247 86.3607 65.2754 84.8564C65.3881 84.6942 65.4204 84.4197 65.3721 84.2422C65.3232 84.0484 65.1615 83.8222 64.9844 83.709C64.6134 83.4673 64.2344 83.2413 63.8555 83.0156C63.4746 82.7888 63.0932 82.5613 62.7207 82.3184C61.9719 81.8366 61.9907 81.1393 62.0098 80.4424C62.0208 80.041 62.0323 79.6395 61.8965 79.2793C61.6153 78.5101 61.2146 77.7866 60.8125 77.0605C60.6823 76.8255 60.5513 76.5899 60.4248 76.3525C60.1983 75.9321 59.8104 75.8027 59.3096 75.9648C58.404 76.2557 57.5786 76.1914 56.8838 75.4639C55.7198 74.2514 54.6205 74.4125 53.4727 75.5117C51.5812 77.3069 49.4464 78.082 46.8105 77.1768C46.4263 77.049 45.9703 77.1279 45.5156 77.2061C45.0529 77.2856 44.5911 77.364 44.208 77.2256C42.0256 76.4338 40.8613 77.4038 39.9238 79.1816C39.8423 79.3437 39.0507 79.3921 38.8408 79.1982C38.5614 78.9473 38.3448 78.6225 38.127 78.2949C37.9791 78.0726 37.8301 77.8491 37.6602 77.6465C37.2555 77.1608 36.2694 77.4035 35.9297 77.9209C35.4124 78.7291 35.3806 79.5865 35.5586 80.459C35.8331 81.8336 35.0252 82.4803 33.958 82.9814C33.57 83.159 33.1658 83.3212 32.7617 83.4824L32.8906 83.6758L32.748 83.7334L32.6484 83.7734L32.5332 83.8193L32.4053 83.8711C32.4663 83.801 32.5228 83.7306 32.5771 83.6631L32.5781 83.6621C32.6239 83.6053 32.6686 83.5496 32.7129 83.498C32.7288 83.4979 32.7451 83.4824 32.7451 83.4824C31.9854 82.4802 31.7099 81.3641 31.8555 80.0547C32.0009 78.7127 31.5321 77.5005 30.3682 76.627C30.0117 76.3605 29.694 76.0468 29.3721 75.7295C29.2269 75.5864 29.0804 75.4415 28.9297 75.3008ZM337.107 35.1553C336.153 35.1706 334.973 36.1902 334.763 37.1924C334.676 37.6221 334.605 38.0598 334.52 38.585L334.519 38.5879V38.5908L334.518 38.5957L334.517 38.6035L334.516 38.6055V38.6074L334.515 38.6113C334.473 38.868 334.427 39.147 334.375 39.4551C334.439 39.6949 334.5 39.9619 334.566 40.2451L334.567 40.248C334.719 40.9003 334.893 41.6414 335.151 42.3506C335.62 43.6436 337.058 44.1934 338.449 43.8047C341.149 43.0453 342.216 40.9432 342.847 38.502C342.944 38.1468 342.718 37.5966 342.443 37.3057C341.037 35.7217 339.209 35.0746 337.107 35.1553Z" fill="#0A0A0B"/>
<path d="M288.96 538.07C289.332 538.118 289.93 538.442 289.994 538.732C290.452 540.701 290.853 542.67 291.256 544.646L291.258 544.652L291.628 546.461C291.263 547.782 291.268 548.957 291.653 550H289.629C289.474 548.742 289.235 547.494 288.996 546.247L288.995 546.244V546.239L288.994 546.237V546.233L288.991 546.212C288.522 543.757 288.053 541.304 288.217 538.78C288.233 538.506 288.734 538.038 288.96 538.07Z" fill="#0A0A0B"/>
<path d="M360 550H342.943C342.029 548.596 342.106 547.022 342.993 545.119C343.221 544.632 343.427 544.137 343.633 543.645C344.272 542.111 344.906 540.591 346.179 539.33C347.421 538.119 348.051 536.537 348.68 534.955C349.042 534.045 349.403 533.136 349.881 532.298C350.543 531.117 351.24 530.083 352.501 529.387C354.667 528.191 356.477 526.51 357.916 524.505C358.585 523.577 359.281 522.675 360 521.795V550Z" fill="#0A0A0B"/>
<path d="M312.273 514.69C313.988 514.48 315.185 515.515 316.09 516.841C316.3 517.148 316.429 517.698 316.3 518.037C315.395 520.56 313.972 522.759 312.177 524.748C311.579 525.41 311.175 526.17 311.239 527.14C311.272 527.528 311.24 528.11 310.981 528.32C310.496 528.724 309.866 529 309.268 529.193C308.961 529.296 308.593 529.257 308.245 529.22C308.153 529.21 308.062 529.2 307.974 529.193C307.662 529.171 307.349 529.115 307.048 529.061C306.98 529.048 306.913 529.036 306.847 529.024C306.796 529.016 306.746 529.007 306.696 528.999C306.611 529.005 306.526 529.013 306.441 529.02L306.3 529.031L306.161 529.043C305.456 529.102 304.761 529.161 304.076 529.097C303.802 529.065 303.463 528.531 303.35 528.158C303.22 527.77 303.204 527.269 303.302 526.865C303.932 524.278 304.189 521.676 304.076 519.008C304.044 518.361 304.19 517.65 304.481 517.101C304.756 516.567 305.274 515.903 305.791 515.79C307.925 515.289 310.092 514.933 312.273 514.69Z" fill="#0A0A0B"/>
<path d="M288.847 526.203L288.669 526.655L288.491 526.187L288.847 526.203Z" fill="#0A0A0B"/>
<path d="M311.143 507.949L310.657 508.095L310.689 507.723L311.143 507.949Z" fill="#0A0A0B"/>
<path d="M298.629 505.831L298.516 506.122L298.531 505.669L298.952 505.637L298.629 505.831Z" fill="#0A0A0B"/>
<path d="M333.341 447.609C333.57 447.653 333.784 447.734 334.004 447.816L334.006 447.817C334.111 447.857 334.217 447.897 334.327 447.934C334.375 448.418 334.15 448.758 333.746 448.661C333.552 448.607 333.394 448.416 333.233 448.224L333.19 448.173C333.175 448.155 333.161 448.137 333.146 448.119C333.094 448.059 333.04 448.001 332.985 447.949C333.014 447.916 333.045 447.875 333.077 447.834C333.17 447.714 333.269 447.585 333.341 447.609Z" fill="#0A0A0B"/>
<path d="M315.411 354.982C316.64 355.031 317.432 355.823 318.144 356.681C318.418 357.018 318.662 357.375 318.905 357.729C319.163 358.106 319.42 358.481 319.712 358.831C321.059 360.467 322.163 362.266 323.266 364.062C324.255 365.674 325.243 367.284 326.405 368.774C327.811 370.569 328.846 372.461 329.315 374.692C329.59 376.066 330.479 377.085 331.887 377.521C334.635 378.394 336.364 380.286 337.383 382.938C337.706 383.762 338.111 384.571 338.548 385.347C339.323 386.737 339.695 388.224 339.598 389.825C339.574 390.319 339.604 390.815 339.634 391.316C339.644 391.487 339.655 391.658 339.663 391.83C339.841 395.436 341.684 398.119 344.465 400.221C345.003 400.629 345.587 400.975 346.169 401.32C346.739 401.658 347.308 401.996 347.828 402.388C349.606 403.778 351.094 405.411 351.708 407.675C352.452 410.31 353.955 412.461 355.814 414.466C357.297 416.06 358.781 417.702 360 419.5V438.837C359.219 437.991 358.385 437.193 357.552 436.396C356.684 435.566 355.816 434.735 355.007 433.851C353.665 432.412 351.854 431.474 350.026 430.601C346.793 429.048 344.109 426.801 343.268 422.97C342.965 421.571 342.51 420.196 342.056 418.823C341.88 418.293 341.705 417.762 341.538 417.23C340.924 415.258 339.695 413.689 338.095 412.429C337.421 411.902 336.75 411.374 336.08 410.848C335.55 410.431 335.021 410.015 334.489 409.599C334.29 409.442 334.09 409.286 333.891 409.13C332.759 408.256 332.145 407.06 332.097 405.687C332.009 403.095 331.443 400.6 330.877 398.101C330.609 396.921 330.342 395.739 330.124 394.547C329.462 390.989 327.343 388.564 324.368 386.77C324.128 386.625 323.856 386.525 323.585 386.425C323.218 386.289 322.852 386.154 322.573 385.912C322.088 385.508 321.716 384.877 321.489 384.279C321.247 383.681 321.085 382.97 321.15 382.323C321.376 379.979 320.698 378.006 319.211 376.195C318.782 375.666 318.445 375.064 318.109 374.463C317.901 374.09 317.694 373.718 317.465 373.365C317.251 373.032 317.036 372.699 316.822 372.366C314.391 368.586 311.971 364.822 310.9 360.335C310.772 359.78 310.468 359.267 310.164 358.755C310.008 358.491 309.852 358.227 309.72 357.958C309.413 357.296 309.833 356.616 310.626 356.632C310.816 356.632 311.008 356.644 311.197 356.656C311.894 356.7 312.576 356.742 313.147 356.195C313.794 355.566 314.441 354.95 315.411 354.982Z" fill="#0A0A0B"/>
<path d="M270.755 275.501C272.413 274.501 274.25 274.658 276.075 274.815L276.08 274.816H276.086C276.233 274.829 276.38 274.842 276.527 274.854C277.804 274.983 278.095 275.938 277.125 277.215C276.754 277.684 276.139 278.008 275.557 278.233C275.272 278.345 274.92 278.304 274.575 278.265C274.535 278.26 274.495 278.255 274.455 278.251C274.391 278.244 274.326 278.238 274.264 278.233C273.975 278.212 273.685 278.169 273.443 278.134H273.44L273.438 278.133H273.434C273.367 278.123 273.303 278.113 273.244 278.104L273.201 278.099L273.161 278.094L273.115 278.088C272.826 278.088 272.557 278.09 272.302 278.092C271.828 278.095 271.402 278.098 270.981 278.088C270.157 278.072 269.509 277.57 269.72 277.053C269.946 276.487 270.254 275.792 270.755 275.501Z" fill="#0A0A0B"/>
<path d="M314.941 232.802C317.27 230.796 319.986 230.328 322.912 230.651C323.071 230.666 323.231 230.677 323.388 230.688C323.567 230.701 323.744 230.715 323.916 230.732C322.881 231.784 321.846 232.833 320.795 233.868C320.019 234.612 320.067 235.404 320.471 236.277C320.778 236.907 320.924 237.538 320.552 238.169C320.349 238.516 320.154 238.869 319.96 239.223C319.103 240.781 318.245 242.342 316.624 243.344C316.397 243.472 316.317 244.264 316.494 244.523C317.756 246.35 319.162 247.886 321.539 248.533C324.32 249.277 326.793 250.828 328.879 252.963C331.401 255.533 334.489 257.263 337.707 258.832C340.989 260.433 342.542 263.279 342.751 266.868C342.784 268.274 342.33 269.519 341.117 270.344C340.391 270.845 339.647 271.346 338.887 271.798C337.513 272.622 336.074 273.092 334.457 272.494C332.468 271.767 330.512 272.138 328.588 272.769C327.262 273.205 325.969 273.092 324.675 272.655C323.556 272.284 322.436 271.93 321.318 271.575L321.307 271.571C319.894 271.123 318.482 270.676 317.076 270.198C316.656 270.051 316.292 269.751 315.928 269.452C315.773 269.325 315.618 269.198 315.459 269.082C315.332 268.989 315.21 268.865 315.091 268.743C314.877 268.524 314.669 268.31 314.44 268.29C313.101 268.156 311.825 267.761 310.56 267.368C309.534 267.05 308.514 266.734 307.472 266.561C303.01 265.817 298.645 266.755 294.425 268.258C292.727 268.856 291.385 270.068 290.237 271.459C289.461 272.381 288.442 272.786 287.278 272.413C285.617 271.878 283.94 271.958 282.264 272.038C281.51 272.074 280.755 272.11 280.003 272.09C276.657 271.993 274.021 270.651 272.614 267.434C272.439 267.04 272.242 266.655 272.046 266.271C271.735 265.664 271.426 265.06 271.208 264.426C270.998 263.844 270.981 263.1 271.143 262.519C271.182 262.372 271.22 262.222 271.256 262.073C271.29 261.935 271.322 261.795 271.354 261.655C271.642 260.427 271.933 259.188 272.954 258.298C274.214 257.199 274.78 255.872 274.78 254.207C274.78 252.994 274.931 251.781 275.081 250.568V250.549L275.082 250.547L275.12 250.23C275.249 249.293 275.783 248.55 276.688 248.258C278.402 247.692 279.098 246.496 279.275 244.782C279.372 243.941 279.713 243.036 280.197 242.324C281.3 240.684 282.487 239.097 283.673 237.512L284.034 237.027C284.189 236.82 284.344 236.613 284.498 236.406C285.113 235.598 286.502 235.34 287.537 235.792C287.575 235.81 287.615 235.824 287.655 235.837C287.7 235.851 287.747 235.863 287.792 235.875C287.93 235.911 288.062 235.945 288.151 236.035C290.367 238.023 292.937 239.026 295.929 239.026C296.623 239.027 297.027 240.029 296.592 240.514C296.286 240.861 295.958 241.186 295.63 241.513L295.628 241.516C295.331 241.811 295.032 242.107 294.748 242.422C294.312 242.923 294.49 243.731 295.12 244.055C295.359 244.184 295.617 244.282 295.874 244.381C296.034 244.442 296.194 244.504 296.349 244.572C297.674 245.17 298.289 246.172 298.58 247.611C298.953 249.389 300.488 250.1 302.039 249.486C302.653 249.244 303.253 248.968 303.851 248.661C304.184 248.494 304.521 248.334 304.856 248.174L304.858 248.173C305.725 247.759 306.588 247.347 307.392 246.835C308.96 245.833 310.641 245.494 312.452 245.412C312.733 245.401 313.007 245.241 313.283 245.08C313.404 245.009 313.525 244.938 313.648 244.879C314.133 244.669 314.456 243.844 314.311 243.133C314.182 242.453 313.519 241.937 312.889 241.985L312.818 241.99C312.629 242.005 312.427 242.02 312.226 242.049C307.246 242.663 307.148 242.647 304.271 238.687L304.303 238.67C306.049 236.649 308.038 235.065 310.803 234.677C312.355 234.467 313.762 233.82 314.941 232.802Z" fill="#0A0A0B"/>
<path d="M304.197 238.585L304.2 238.589C304.223 238.62 304.245 238.651 304.271 238.687L303.867 238.816L304.142 238.509C304.162 238.536 304.18 238.561 304.197 238.585Z" fill="#0A0A0B"/>
<path d="M324.223 230.748L323.916 230.732L323.947 230.7L324.062 230.586L324.433 230.344L324.223 230.748Z" fill="#0A0A0B"/>
<path d="M304.175 227.062C304.277 227.051 304.38 227.088 304.482 227.123C304.541 227.143 304.6 227.163 304.659 227.175C304.653 227.192 304.646 227.211 304.64 227.23L304.633 227.25L304.622 227.285C304.585 227.399 304.546 227.518 304.497 227.53C304.384 227.542 304.271 227.497 304.157 227.453C304.109 227.434 304.061 227.415 304.013 227.4C304.018 227.386 304.023 227.371 304.028 227.355L304.034 227.339L304.048 227.297C304.085 227.183 304.125 227.062 304.175 227.062Z" fill="#0A0A0B"/>
<path d="M291.529 215.981C291.656 215.945 291.785 215.908 291.854 215.954C291.963 216.02 292.036 216.137 292.106 216.251L292.107 216.253C292.125 216.281 292.143 216.31 292.161 216.337C292.177 216.361 292.193 216.385 292.21 216.407C292.183 216.412 292.155 216.419 292.126 216.427C292.097 216.435 292.066 216.443 292.036 216.452C291.902 216.492 291.766 216.532 291.677 216.487C291.578 216.444 291.524 216.319 291.47 216.193C291.462 216.175 291.454 216.157 291.446 216.14C291.427 216.097 291.408 216.056 291.386 216.02C291.431 216.01 291.48 215.996 291.529 215.981Z" fill="#0A0A0B"/>
<path d="M260.1 150.36L260.343 150.78L259.938 150.522L259.664 150.086L260.1 150.36Z" fill="#0A0A0B"/>
<path d="M196.395 147.692C196.459 147.817 196.524 147.939 196.479 147.984C196.331 148.185 196.15 148.364 195.963 148.549L195.888 148.623L195.848 148.663V148.681C195.848 148.786 195.847 148.879 195.832 148.986C195.735 149.147 195.654 149.31 195.573 149.471C195.557 149.507 195.542 149.543 195.527 149.577C195.483 149.682 195.439 149.782 195.379 149.892C195.492 149.537 195.59 149.197 195.687 148.841C195.725 148.792 195.759 148.755 195.79 148.723C195.81 148.702 195.829 148.682 195.848 148.663C195.848 148.63 195.848 148.597 195.848 148.564C195.844 148.176 195.84 147.784 196.317 147.531C196.337 147.581 196.366 147.637 196.395 147.692Z" fill="#0A0A0B"/>
<path d="M189.269 142.39C189.77 141.565 190.4 141.226 190.755 141.613C191.143 142.066 191.483 142.632 191.612 143.214C191.721 143.817 191.652 144.478 191.589 145.086L191.58 145.17C191.45 146.367 190.723 147.223 189.575 147.386C188.795 147.497 188.005 147.513 187.22 147.529C186.98 147.534 186.741 147.539 186.503 147.547V147.709L186.421 147.825L186.398 147.856L186.382 147.88C186.348 147.926 186.314 147.971 186.276 148.016L186.28 147.985L186.286 147.943C186.292 147.901 186.299 147.858 186.306 147.814C186.319 147.727 186.332 147.636 186.341 147.547H186.503C186.422 146.044 186.488 144.669 188.298 143.99C188.591 143.874 188.77 143.46 188.951 143.038C189.05 142.809 189.149 142.577 189.269 142.39Z" fill="#0A0A0B"/>
<path d="M309.45 142.166L309.457 142.173C310.131 142.865 310.806 143.557 311.466 144.249C311.919 144.719 311.676 145.721 311.127 145.947C309.946 146.416 309.024 145.947 308.232 145.122C307.748 144.636 307.554 144.038 307.893 143.376C307.989 143.182 308.071 142.972 308.119 142.762C308.176 142.487 308.229 142.208 308.281 141.929C308.332 141.659 308.382 141.39 308.437 141.124C308.773 141.471 309.112 141.819 309.45 142.166Z" fill="#0A0A0B"/>
<path d="M257.061 143.279C257.949 143.667 258.257 144.525 257.771 145.381C257.691 145.543 257.464 145.688 257.271 145.737C256.786 145.882 256.446 145.655 256.252 145.154C256.009 144.508 255.994 143.878 256.51 143.36C256.573 143.287 256.705 143.288 256.842 143.289C256.916 143.29 256.992 143.29 257.061 143.279Z" fill="#0A0A0B"/>
<path d="M308.442 141.097L308.437 141.124L308.41 141.097L308.414 141.074C308.423 141.082 308.432 141.09 308.442 141.097Z" fill="#0A0A0B"/>
<path d="M307.214 140.628C306.89 140.321 307.164 140.224 307.698 140.692C307.729 140.724 307.781 140.741 307.83 140.758C307.858 140.768 307.886 140.777 307.909 140.789C308.087 140.789 308.282 140.789 308.459 140.821C308.444 140.911 308.429 140.987 308.414 141.074C308.395 141.057 308.378 141.037 308.359 141.017C308.345 141.001 308.33 140.984 308.313 140.967C308.249 140.943 308.187 140.914 308.127 140.886C308.067 140.858 308.006 140.829 307.941 140.806C307.651 140.806 307.375 140.773 307.214 140.628Z" fill="#0A0A0B"/>
<path d="M206.713 138.816C206.826 138.688 207.133 138.622 207.327 138.671C207.577 138.721 207.821 138.802 208.066 138.883C208.218 138.933 208.37 138.983 208.524 139.026C208.512 139.098 208.504 139.192 208.497 139.282C208.485 139.435 208.473 139.576 208.442 139.576C208.055 139.624 207.635 139.657 207.247 139.593C206.665 139.48 206.455 139.14 206.713 138.816Z" fill="#0A0A0B"/>
<path d="M271.717 117.787L271.719 117.788C272.009 117.898 272.298 118.007 272.533 118.187C273.619 119.011 274.677 119.864 275.742 120.724C275.905 120.855 276.069 120.986 276.232 121.118C276.384 121.24 276.536 121.362 276.688 121.484L276.741 121.527L276.779 121.558L276.864 121.625L276.973 121.71C277.222 121.906 277.473 122.104 277.707 122.325C280.65 125.188 280.197 128.21 276.543 130.247C276.451 130.301 276.364 130.361 276.277 130.421C276.256 130.436 276.234 130.45 276.213 130.465L276.176 130.49C276.142 130.513 276.108 130.536 276.074 130.557C276.047 130.573 276.02 130.589 275.993 130.604C274.926 131.185 274.328 131.104 273.682 130.425C272.126 128.788 270.97 126.893 269.813 124.996L269.812 124.995C269.359 124.251 268.905 123.506 268.427 122.777C268.2 122.438 268.086 121.905 268.168 121.532C268.507 119.98 269.219 118.64 270.706 117.847C270.818 117.791 270.941 117.756 271.065 117.722L271.067 117.721C271.158 117.696 271.249 117.67 271.337 117.636C271.461 117.69 271.589 117.739 271.717 117.787Z" fill="#0A0A0B"/>
<path d="M303.771 128.778C303.914 128.776 304.063 128.774 304.142 128.841C304.626 129.261 304.562 129.585 303.964 129.649C303.802 129.665 303.543 129.487 303.462 129.326C303.43 129.239 303.477 129.109 303.526 128.975C303.551 128.908 303.576 128.84 303.592 128.775C303.646 128.78 303.709 128.779 303.771 128.778Z" fill="#0A0A0B"/>
<path d="M291.498 110.749C291.563 110.959 291.611 111.17 291.66 111.396C292.226 113.821 293.552 115.842 294.894 117.879C295.216 118.357 295.37 118.949 295.524 119.541C295.595 119.81 295.665 120.079 295.751 120.337C295.637 120.554 295.536 120.764 295.439 120.967L295.438 120.97L295.437 120.973C295.232 121.402 295.044 121.797 294.78 122.147C294.538 122.471 294.118 122.745 293.714 122.858C293.261 122.972 292.906 122.633 292.873 122.147C292.76 120.176 291.757 118.833 290.027 118.009C288.508 117.297 287.666 116.084 287.182 114.532C286.875 113.514 287.149 112.787 288.184 112.641C289.089 112.511 289.897 112.285 290.561 111.654C290.755 111.479 290.946 111.291 291.133 111.105L291.14 111.099C291.26 110.98 291.379 110.862 291.498 110.749Z" fill="#0A0A0B"/>
<path d="M259.26 117.522C259.389 117.426 259.696 117.442 259.874 117.522C259.995 117.567 260.087 117.679 260.179 117.792C260.221 117.844 260.264 117.897 260.31 117.943C260.212 118.111 260.124 118.282 260.036 118.45C259.921 118.672 259.808 118.89 259.68 119.092C259.658 119.123 259.637 119.154 259.615 119.186L259.587 119.228C259.243 119.726 258.914 120.203 259.211 120.87C259.47 121.468 259.777 122.244 258.937 122.471C258.419 122.6 257.707 122.228 257.157 121.921C256.398 121.501 256.204 120.304 256.818 119.658C257.51 118.936 258.3 118.298 259.084 117.665L259.085 117.664L259.26 117.522Z" fill="#0A0A0B"/>
<path d="M244.902 118.444L244.465 118.364L244.756 117.862L244.902 118.444Z" fill="#0A0A0B"/>
<path d="M257.691 113.805L257.254 113.514L257.805 113.4L257.691 113.805Z" fill="#0A0A0B"/>
<path d="M263.367 111.152C263.428 111.271 263.489 111.39 263.479 111.509C263.478 111.635 263.38 111.738 263.282 111.839C263.243 111.879 263.204 111.92 263.172 111.962C263.149 111.912 263.121 111.861 263.094 111.81C263.022 111.678 262.95 111.544 262.961 111.428C262.972 111.323 263.058 111.231 263.147 111.136C263.161 111.121 263.175 111.107 263.188 111.092L263.205 111.074C263.212 111.066 263.219 111.057 263.227 111.049C263.247 111.025 263.267 111 263.285 110.975C263.307 111.034 263.337 111.093 263.367 111.152Z" fill="#0A0A0B"/>
<path d="M246.471 107.467C246.784 107.555 247.078 107.702 247.368 107.846C247.418 107.87 247.467 107.895 247.517 107.919C247.55 107.936 247.584 107.952 247.618 107.968C247.663 107.986 247.709 108.003 247.755 108.02L247.789 108.032C247.934 108.083 248.08 108.135 248.185 108.227C248.293 108.324 248.366 108.457 248.437 108.586C248.452 108.614 248.467 108.641 248.482 108.668L248.494 108.689L248.508 108.712C248.314 108.76 248.104 108.809 247.91 108.793C247.784 108.782 247.65 108.73 247.537 108.687C247.476 108.663 247.421 108.642 247.376 108.631C247.247 108.598 247.113 108.576 246.982 108.554C246.475 108.469 246.004 108.39 245.953 107.709C245.953 107.628 246.325 107.434 246.471 107.467Z" fill="#0A0A0B"/>
<path d="M174.57 104.346L174.135 104.427L174.216 104.136L174.57 104.346Z" fill="#0A0A0B"/>
<path d="M261.717 102.794C262.121 102.843 262.526 102.923 262.897 103.069C262.992 103.111 263.052 103.234 263.113 103.359C263.147 103.428 263.181 103.497 263.221 103.554C263.173 103.622 263.114 103.713 263.061 103.796C262.987 103.91 262.923 104.007 262.913 104.007C262.543 103.809 262.18 103.596 261.82 103.384C261.678 103.3 261.536 103.216 261.394 103.134C261.434 103.093 261.474 103.038 261.514 102.984C261.585 102.887 261.655 102.794 261.717 102.794Z" fill="#0A0A0B"/>
<path d="M284.816 97.9502L284.838 97.958L284.867 97.9688L284.883 97.9736C284.939 97.9929 284.997 98.0119 285.056 98.0303C285.305 98.1088 285.556 98.1875 285.693 98.3477C285.92 98.6039 286.006 99.0025 286.082 99.3564L286.098 99.4307C286.109 99.4765 285.961 99.5544 285.816 99.6299L285.812 99.6309C285.777 99.6495 285.741 99.6686 285.708 99.6865C285.686 99.6986 285.664 99.7103 285.646 99.7217C285.549 99.6492 285.443 99.5827 285.338 99.5166C285.093 99.3621 284.853 99.2102 284.74 98.9951C284.639 98.8037 284.679 98.5342 284.718 98.2686C284.735 98.152 284.752 98.036 284.757 97.9277C284.776 97.9356 284.796 97.9428 284.816 97.9502Z" fill="#0A0A0B"/>
<path d="M249.381 92.4473C250.346 92.3996 250.831 93.0792 251.306 93.7441L251.337 93.7881C251.434 93.9176 251.369 94.3058 251.256 94.3711C250.932 94.5813 250.382 94.9199 250.188 94.8066C249.688 94.4842 249.236 93.9984 248.929 93.4658C248.862 93.3312 249.025 93.0577 249.187 92.79L249.188 92.7891C249.259 92.6697 249.331 92.5516 249.381 92.4473Z" fill="#0A0A0B"/>
<path d="M359.994 8.12402C359.095 6.70102 358.388 5.14108 357.863 3.45605C357.507 2.32028 357.226 1.16138 356.964 0H359.994V8.12402Z" fill="#0A0A0B"/>
</g>
<defs>
<linearGradient id="paint0_linear_1969_382" x1="180" y1="0" x2="180" y2="550" gradientUnits="userSpaceOnUse">
<stop stop-color="#0A0A0B"/>
<stop offset="1" stop-color="#0A0A0B" stop-opacity="0"/>
</linearGradient>
<clipPath id="clip0_1969_382">
<rect width="360" height="550" fill="white"/>
</clipPath>
</defs>
</svg>
