<svg width="105" height="133" viewBox="0 0 105 133" fill="none" xmlns="http://www.w3.org/2000/svg">
  <circle cx="53.243" cy="39.9998" r="31.16" fill="url(#paint0_linear_1437_24790)"/>
  <path fill-rule="evenodd" clip-rule="evenodd" d="M80.0719 15.3408C85.7285 14.5131 89.7415 15.205 91.1481 17.6542C93.7817 22.2418 86.5324 31.7044 73.9141 41.3272C73.5348 41.6165 73.3375 42.0825 73.3375 42.5595C73.3375 46.9263 69.7971 50.4667 65.4303 50.4667C65.2117 50.4667 64.9953 50.4578 64.7812 50.4403C62.8343 50.2813 60.7623 50.1999 59.0729 51.1806C37.8131 63.5214 17.7044 68.5199 14.1578 62.3456C12.7027 59.8114 14.2638 55.7892 18.0797 51.0742C18.6161 50.4114 19.6434 50.5116 20.068 51.2509C20.3403 51.7252 20.2675 52.32 19.9049 52.7294C17.7905 55.117 16.879 56.9755 17.4869 58.0341C19.4418 61.4337 36.3423 55.2998 55.2369 44.332C55.8899 43.9529 56.5356 43.571 57.1755 43.1901C57.396 43.0588 57.524 42.8161 57.524 42.5595C57.5242 38.193 61.0638 34.6535 65.4303 34.6533C67.7693 34.6533 70.3021 34.7228 72.1892 33.3409C81.6109 26.4412 87.2081 20.5667 85.9147 18.3124C85.3342 17.3023 83.4344 17.133 80.5553 17.6826C80.0366 17.7816 79.5059 17.5515 79.2428 17.0937C78.8295 16.3742 79.251 15.4611 80.0719 15.3408Z" fill="#D7DEED"/>
  <circle cx="65.431" cy="42.5599" r="3.95342" fill="#87AB49"/>
  <g opacity="0.32">
    <path d="M37.2756 29.3429C35.3579 34.0781 35.9629 39.0715 33.6108 38.1189C31.2586 37.1663 30.9065 32.5555 32.8242 27.8203C34.7418 23.0851 38.2032 20.0187 40.5553 20.9713C42.9074 21.9239 39.1932 24.6077 37.2756 29.3429Z" fill="#EAEBEF"/>
    <path d="M35.7991 42.823C35.9704 44.3824 35.2484 45.7411 34.1865 45.8578C33.1245 45.9744 32.1247 44.8049 31.9534 43.2456C31.782 41.6863 32.504 40.3276 33.566 40.2109C34.628 40.0942 35.6277 41.2637 35.7991 42.823Z" fill="#EAEBEF"/>
  </g>
  <path opacity="0.1" d="M44.0434 63.7381C42.9607 63.1125 43.4796 62.064 46.1096 61.1923C51.6553 59.975 50.7195 62.4359 58.6998 61.4891C66.6801 60.5423 70.8871 57.2524 73.0062 55.0883C74.7015 53.3569 76.2684 51.0141 76.1933 51.8407C75.8326 53.599 72.92 58.2339 64.1553 62.7065C53.1993 68.2972 45.7038 64.6974 44.0434 63.7381Z" fill="black"/>
  <path d="M79.2775 22.7476C80.3058 22.0662 80.5928 20.6748 79.8443 19.6942C75.087 13.4616 68.2733 9.07668 60.5771 7.34811C52.1522 5.45585 43.3218 6.89336 35.9321 11.3601C28.5423 15.8269 23.1651 22.9772 20.9246 31.3163C18.8778 38.934 19.5932 47.0051 22.9004 54.1142C23.4207 55.2327 24.786 55.6254 25.8674 55.0316C26.9487 54.4379 27.3353 53.0829 26.8265 51.9591C24.0676 45.8654 23.4913 38.9797 25.2388 32.4755C27.1803 25.2496 31.8397 19.0538 38.243 15.1833C44.6463 11.3128 52.2978 10.0672 59.5981 11.7068C66.1694 13.1827 71.9981 16.8935 76.1112 22.1687C76.8697 23.1416 78.2492 23.4291 79.2775 22.7476Z" fill="#D7DEED"/>
  <path d="M34.1587 64.7218C33.4049 65.6983 33.5816 67.1079 34.6062 67.7949C39.3969 71.0073 44.9485 72.9342 50.7254 73.3702C57.2464 73.8623 63.7688 72.433 69.4865 69.259C75.2041 66.0849 79.8665 61.3051 82.8975 55.5103C85.5826 50.3768 86.8831 44.646 86.6902 38.8811C86.649 37.6482 85.5461 36.7528 84.3186 36.8762C83.0912 36.9996 82.2053 38.0953 82.2338 39.3285C82.3472 44.2231 81.2193 49.08 78.939 53.4398C76.3126 58.461 72.2726 62.6028 67.3182 65.3531C62.3638 68.1035 56.7121 69.342 51.0616 68.9156C46.1554 68.5453 41.4368 66.934 37.3426 64.2493C36.311 63.5728 34.9126 63.7453 34.1587 64.7218Z" fill="#D7DEED"/>
  <path d="M1.20354 132.943C0.401179 132.943 0 132.728 0 132.298V119.604C0 119.322 0.0601768 119.12 0.18053 118.999C0.314257 118.865 0.521533 118.798 0.802358 118.798H7.40175C7.61571 118.798 7.7695 118.878 7.86311 119.039C7.95672 119.201 8.00352 119.456 8.00352 119.805V120.43C8.00352 120.779 7.95672 121.034 7.86311 121.195C7.7695 121.357 7.61571 121.437 7.40175 121.437H3.08908V124.984H7.26134C7.4753 124.984 7.62909 125.064 7.72269 125.225C7.8163 125.387 7.86311 125.642 7.86311 125.991V126.616C7.86311 126.965 7.8163 127.22 7.72269 127.381C7.62909 127.543 7.4753 127.623 7.26134 127.623H3.08908V132.298C3.08908 132.728 2.6879 132.943 1.88554 132.943H1.20354Z" fill="#87AB49"/>
  <path d="M13.8593 132.943C13.057 132.943 12.6558 132.728 12.6558 132.298V119.604C12.6558 119.322 12.716 119.12 12.8363 118.999C12.97 118.865 13.1773 118.798 13.4581 118.798H17.3696C20.6994 118.798 22.3643 120.06 22.3643 122.586C22.3643 123.338 22.1504 123.996 21.7224 124.56C21.3079 125.111 20.7395 125.521 20.0174 125.79V125.87C20.2715 125.964 20.5323 126.193 20.7997 126.555C21.0672 126.905 21.2878 127.294 21.4617 127.724L23.2268 132.157C23.2937 132.332 23.3271 132.459 23.3271 132.54C23.3271 132.661 23.2268 132.761 23.0263 132.842C22.8257 132.909 22.5248 132.943 22.1236 132.943H21.3012C20.6459 132.943 20.2581 132.802 20.1378 132.52L18.5531 128.59C18.3258 128.147 18.0784 127.838 17.8109 127.664C17.5569 127.476 17.1289 127.381 16.5272 127.381H15.7449V132.298C15.7449 132.728 15.3437 132.943 14.5413 132.943H13.8593ZM17.6505 124.702C18.065 124.702 18.4261 124.534 18.7336 124.198C19.0412 123.862 19.195 123.452 19.195 122.969C19.195 122.498 19.0412 122.129 18.7336 121.86C18.4394 121.578 18.0316 121.437 17.51 121.437H15.7449V124.702H17.6505Z" fill="#87AB49"/>
  <path d="M28.5696 132.903C28.2888 132.903 28.0815 132.842 27.9478 132.721C27.8274 132.587 27.7672 132.379 27.7672 132.097V119.604C27.7672 119.322 27.8274 119.12 27.9478 118.999C28.0815 118.865 28.2888 118.798 28.5696 118.798H35.6103C35.8242 118.798 35.978 118.878 36.0716 119.039C36.1652 119.201 36.212 119.456 36.212 119.805V120.43C36.212 120.779 36.1652 121.034 36.0716 121.195C35.978 121.357 35.8242 121.437 35.6103 121.437H30.8563V124.359H35.0687C35.2826 124.359 35.4364 124.44 35.53 124.601C35.6236 124.762 35.6704 125.017 35.6704 125.366V125.991C35.6704 126.34 35.6236 126.596 35.53 126.757C35.4364 126.918 35.2826 126.999 35.0687 126.999H30.8563V130.263H35.6303C35.8443 130.263 35.9981 130.344 36.0917 130.505C36.1853 130.666 36.2321 130.921 36.2321 131.27V131.895C36.2321 132.244 36.1853 132.5 36.0917 132.661C35.9981 132.822 35.8443 132.903 35.6303 132.903H28.5696Z" fill="#87AB49"/>
  <path d="M42.2277 132.903C41.9469 132.903 41.7396 132.842 41.6059 132.721C41.4855 132.587 41.4253 132.379 41.4253 132.097V119.604C41.4253 119.322 41.4855 119.12 41.6059 118.999C41.7396 118.865 41.9469 118.798 42.2277 118.798H49.2684C49.4823 118.798 49.6361 118.878 49.7297 119.039C49.8233 119.201 49.8701 119.456 49.8701 119.805V120.43C49.8701 120.779 49.8233 121.034 49.7297 121.195C49.6361 121.357 49.4823 121.437 49.2684 121.437H44.5144V124.359H48.7268C48.9407 124.359 49.0945 124.44 49.1881 124.601C49.2817 124.762 49.3285 125.017 49.3285 125.366V125.991C49.3285 126.34 49.2817 126.596 49.1881 126.757C49.0945 126.918 48.9407 126.999 48.7268 126.999H44.5144V130.263H49.2884C49.5024 130.263 49.6562 130.344 49.7498 130.505C49.8434 130.666 49.8902 130.921 49.8902 131.27V131.895C49.8902 132.244 49.8434 132.5 49.7498 132.661C49.6562 132.822 49.5024 132.903 49.2884 132.903H42.2277Z" fill="#87AB49"/>
  <path d="M66.7424 132.943C66.0871 132.943 65.7127 132.802 65.6191 132.52L61.2863 119.563C61.2329 119.375 61.2061 119.254 61.2061 119.201C61.2061 118.905 61.614 118.757 62.4297 118.757H63.1318C63.8004 118.757 64.1949 118.952 64.3152 119.342L66.8026 127.341C67.0566 128.161 67.2037 128.772 67.2439 129.175H67.3241C67.3642 128.772 67.5113 128.161 67.7654 127.341L70.3329 119.342C70.4667 118.952 70.8611 118.757 71.5164 118.757H72.0981C72.9005 118.757 73.3017 118.905 73.3017 119.201C73.3017 119.295 73.2816 119.416 73.2415 119.563L68.9087 132.52C68.8151 132.802 68.4407 132.943 67.7854 132.943H66.7424Z" fill="#87AB49"/>
  <path d="M78.7414 132.943C77.939 132.943 77.5379 132.728 77.5379 132.298V119.604C77.5379 119.322 77.598 119.12 77.7184 118.999C77.8521 118.865 78.0594 118.798 78.3402 118.798H82.5526C83.8096 118.798 84.9195 119.107 85.8824 119.725C86.8452 120.329 87.3266 121.491 87.3266 123.21C87.3266 124.393 87.0458 125.313 86.4841 125.971C85.9225 126.616 85.294 127.052 84.5986 127.281C83.9032 127.509 83.2881 127.623 82.7532 127.623H80.6269V132.298C80.6269 132.728 80.2258 132.943 79.4234 132.943H78.7414ZM82.4122 124.963C82.8936 124.963 83.3015 124.836 83.6358 124.581C83.9835 124.325 84.1573 123.869 84.1573 123.21C84.1573 122.552 83.9835 122.095 83.6358 121.84C83.3015 121.572 82.8936 121.437 82.4122 121.437H80.6269V124.963H82.4122Z" fill="#87AB49"/>
  <path d="M92.8892 132.943C92.0869 132.943 91.6857 132.728 91.6857 132.298V119.402C91.6857 118.972 92.0869 118.757 92.8892 118.757H93.7517C94.0727 118.757 94.3401 118.798 94.5541 118.878C94.7681 118.945 94.9419 119.086 95.0756 119.301L99.5889 126.293C99.8564 126.683 100.097 127.079 100.311 127.482L100.391 127.462C100.365 127.153 100.351 126.696 100.351 126.092V119.402C100.351 118.972 100.752 118.757 101.555 118.757H102.136C102.939 118.757 103.34 118.972 103.34 119.402V132.298C103.34 132.728 102.939 132.943 102.136 132.943H101.374C101.053 132.943 100.786 132.909 100.572 132.842C100.358 132.761 100.184 132.614 100.05 132.399L95.4367 125.306C95.1693 124.916 94.9285 124.52 94.7146 124.117L94.6343 124.137C94.6611 124.446 94.6745 124.903 94.6745 125.508V132.298C94.6745 132.728 94.2733 132.943 93.4709 132.943H92.8892Z" fill="#87AB49"/>
  <path d="M2.26702 111.694C0.755674 111.694 0 111.289 0 110.479V86.5678C0 86.0364 0.113351 85.6568 0.340053 85.4291C0.591945 85.1761 0.982376 85.0496 1.51135 85.0496H9.44593C11.8137 85.0496 13.9044 85.6315 15.718 86.7955C17.5316 87.9341 18.4384 90.1229 18.4384 93.3617C18.4384 95.5884 17.9095 97.3217 16.8515 98.5616C15.7936 99.7761 14.6097 100.598 13.2999 101.029C11.99 101.459 10.8313 101.674 9.82376 101.674H5.81869V110.479C5.81869 111.289 5.06302 111.694 3.55167 111.694H2.26702ZM9.18144 96.6638C10.0883 96.6638 10.8565 96.4234 11.4862 95.9427C12.1412 95.4619 12.4686 94.6016 12.4686 93.3617C12.4686 92.1219 12.1412 91.2615 11.4862 90.7808C10.8565 90.2747 10.0883 90.0217 9.18144 90.0217H5.81869V96.6638H9.18144Z" fill="#97ABC3"/>
  <path d="M26.8382 111.922C23.1606 111.922 21.3218 109.872 21.3218 105.773V84.2146C21.3218 83.4049 22.0775 83 23.5888 83H24.6468C26.1581 83 26.9138 83.4049 26.9138 84.2146V105.849C26.9138 106.431 27.0146 106.848 27.2161 107.101C27.4428 107.354 27.7954 107.481 28.274 107.481C28.4 107.481 28.5637 107.456 28.7652 107.405C28.9919 107.354 29.1682 107.329 29.2942 107.329C29.5209 107.329 29.7224 107.519 29.8987 107.898C30.075 108.278 30.2136 108.696 30.3143 109.151C30.4151 109.606 30.4655 109.91 30.4655 110.062C30.4655 111.302 29.2564 111.922 26.8382 111.922Z" fill="#97ABC3"/>
  <path d="M37.3374 111.922C35.3978 111.922 33.9746 111.416 33.0678 110.404C32.1862 109.391 31.7454 108.05 31.7454 106.38C31.7454 104.356 32.4759 102.673 33.9369 101.332C35.423 99.9912 38.3072 99.3207 42.5893 99.3207V98.0681C42.5893 97.3343 42.35 96.7903 41.8714 96.4361C41.418 96.0818 40.6749 95.9047 39.6422 95.9047C38.7858 95.9047 38.0301 95.9933 37.3752 96.1704C36.7454 96.3475 36.1787 96.5499 35.6749 96.7777C35.1711 97.0054 34.8814 97.1193 34.8059 97.1193C34.554 97.1193 34.2769 96.9295 33.9746 96.5499C33.6724 96.1704 33.4079 95.7402 33.1812 95.2595C32.9545 94.7534 32.8411 94.3612 32.8411 94.0829C32.8411 93.6527 33.156 93.2352 33.7857 92.8303C34.4154 92.4255 35.2845 92.0965 36.3928 91.8435C37.5011 91.5905 38.7228 91.464 40.0578 91.464C42.9042 91.464 44.9697 92.0333 46.2543 93.1719C47.539 94.2853 48.1813 95.8288 48.1813 97.8025V104.938C48.1813 106.102 48.2065 106.988 48.2569 107.595C48.3324 108.202 48.4206 108.873 48.5214 109.606C48.5969 109.935 48.6347 110.214 48.6347 110.441C48.6347 110.846 48.1183 111.15 47.0856 111.352C46.078 111.555 45.1838 111.656 44.4029 111.656C43.9495 111.656 43.6347 111.479 43.4583 111.125C43.282 110.745 43.1435 110.34 43.0427 109.91C42.9672 109.48 42.9168 109.189 42.8916 109.037C42.7405 109.315 42.4382 109.682 41.9848 110.138C41.5314 110.568 40.9017 110.973 40.0956 111.352C39.2895 111.732 38.3701 111.922 37.3374 111.922ZM39.1888 107.481C39.8941 107.481 40.5616 107.253 41.1913 106.798C41.8211 106.342 42.2871 105.773 42.5893 105.09V103.002C39.0628 103.002 37.2996 103.939 37.2996 105.811C37.2996 106.317 37.4633 106.722 37.7908 107.026C38.1182 107.329 38.5842 107.481 39.1888 107.481Z" fill="#97ABC3"/>
  <path d="M55.3573 111.694C53.8459 111.694 53.0902 111.289 53.0902 110.479V98.4477C53.0902 97.3343 53.0525 96.4867 52.9769 95.9047C52.9265 95.2974 52.8509 94.6269 52.7502 93.8931C52.6746 93.5388 52.6368 93.2732 52.6368 93.096C52.6368 92.6912 53.1406 92.3875 54.1482 92.1851C55.1809 91.9827 56.0877 91.8815 56.8686 91.8815C57.322 91.8815 57.6369 92.0586 57.8132 92.4128C57.9895 92.7418 58.1155 93.1087 58.191 93.5135C58.2918 93.9184 58.3548 94.1967 58.38 94.3485C58.9845 93.5388 59.7906 92.8556 60.7981 92.299C61.8057 91.7423 62.8762 91.464 64.0097 91.464C65.8989 91.464 67.2969 91.97 68.2037 92.9822C69.1105 93.969 69.5639 95.5125 69.5639 97.6127V110.479C69.5639 111.289 68.8083 111.694 67.2969 111.694H66.239C64.7276 111.694 63.972 111.289 63.972 110.479V98.4477C63.972 97.6633 63.7956 97.0813 63.443 96.7018C63.0903 96.2969 62.511 96.0945 61.7049 96.0945C61.0248 96.0945 60.4203 96.3222 59.8913 96.7777C59.3875 97.2078 58.9845 97.7139 58.6822 98.2959V110.479C58.6822 111.289 57.9266 111.694 56.4152 111.694H55.3573Z" fill="#97ABC3"/>
  <path d="M83.2281 111.922C79.9031 111.922 77.422 111.036 75.7847 109.265C74.1726 107.468 73.3665 104.989 73.3665 101.826C73.3665 98.2579 74.1726 95.639 75.7847 93.969C77.422 92.299 79.6764 91.464 82.548 91.464C85.3439 91.464 87.3969 92.3749 88.7067 94.1967C90.0417 96.0186 90.7092 98.3718 90.7092 101.256C90.7092 101.56 90.4447 102.015 89.9158 102.623C89.412 103.205 89.0342 103.496 88.7823 103.496H79.1474C79.2734 104.938 79.7016 105.963 80.4321 106.57C81.1626 107.177 82.1827 107.481 83.4926 107.481C84.1978 107.481 84.8402 107.405 85.4195 107.253C85.9989 107.076 86.6034 106.861 87.2331 106.608C87.6362 106.406 87.9132 106.304 88.0644 106.304C88.3163 106.304 88.5933 106.494 88.8956 106.874C89.2231 107.228 89.4876 107.645 89.6891 108.126C89.9158 108.582 90.0291 108.936 90.0291 109.189C90.0291 109.771 89.6387 110.277 88.8578 110.707C88.077 111.112 87.145 111.416 86.0618 111.618C84.9787 111.821 84.0341 111.922 83.2281 111.922ZM85.2684 99.7382C85.2684 98.5742 85.0417 97.6506 84.5883 96.9674C84.1349 96.2589 83.4548 95.9047 82.548 95.9047C80.684 95.9047 79.5505 97.1825 79.1474 99.7382H85.2684Z" fill="#97ABC3"/>
  <path d="M100.573 111.922C96.8955 111.922 95.0567 109.872 95.0567 105.773V96.2083H94.4522C94.0492 96.2083 93.7595 96.0565 93.5832 95.7529C93.4068 95.4492 93.3187 94.9685 93.3187 94.3106V93.6654C93.3187 93.0075 93.4068 92.5267 93.5832 92.2231C93.7595 91.9194 94.0492 91.7676 94.4522 91.7676H95.0567L95.5479 88.1619C95.6739 87.3522 96.354 86.9473 97.5882 86.9473H98.7595C100.019 86.9473 100.649 87.3522 100.649 88.1619V91.7676H102.5C102.903 91.7676 103.193 91.9194 103.369 92.2231C103.545 92.5267 103.634 93.0075 103.634 93.6654V94.3106C103.634 94.9685 103.545 95.4492 103.369 95.7529C103.193 96.0565 102.903 96.2083 102.5 96.2083H100.649V105.849C100.649 106.431 100.749 106.848 100.951 107.101C101.178 107.354 101.53 107.481 102.009 107.481C102.135 107.481 102.299 107.456 102.5 107.405C102.727 107.354 102.903 107.329 103.029 107.329C103.256 107.329 103.457 107.519 103.634 107.898C103.81 108.278 103.948 108.696 104.049 109.151C104.15 109.606 104.2 109.91 104.2 110.062C104.2 111.302 102.991 111.922 100.573 111.922Z" fill="#97ABC3"/>
  <defs>
    <linearGradient id="paint0_linear_1437_24790" x1="20.1982" y1="-13.2915" x2="67.3364" y2="67.0181" gradientUnits="userSpaceOnUse">
      <stop offset="0.394669" stop-color="#FF3A3A"/>
      <stop offset="0.72037" stop-color="#D64D12"/>
      <stop offset="0.749987" stop-color="#70AF09"/>
    </linearGradient>
  </defs>
</svg>
