<svg width="79" height="81" viewBox="0 0 79 81" fill="none" xmlns="http://www.w3.org/2000/svg">
<rect y="0.5" width="79" height="80" rx="39.5" fill="#87AB49"/>
<path d="M36.5751 27.9492C33.9485 30.1165 32.5307 33.2854 32.0848 34.5989L32.0863 34.8809V57.8122C32.0863 59.6197 33.5332 61.085 35.318 61.085H57.1767C59.1433 61.085 60.8731 60.3651 61.382 57.9896C61.7891 56.0893 60.7815 54.6161 60.2268 54.117C60.9361 54.1786 62.4886 53.7107 63.0236 51.3463C63.5587 48.982 62.1521 47.2827 61.382 46.7285C62.1927 46.7491 64.2361 46.0678 64.5814 43.6451C64.9267 41.2224 63.6114 40.3046 63.0236 39.7095C64.1586 39.6684 66.4528 38.8228 66.5501 35.7689C66.6474 32.715 64.2396 31.9515 63.0236 31.9515H48.1273C49.3433 30.2276 51.1674 25.9791 51.8362 19.3295C52.505 12.6799 46.4249 11.2636 45.3913 12.5566C44.3576 13.8496 45.3305 17.4822 44.3576 20.7455C43.3848 24.0087 39.8584 25.2401 36.5751 27.9492Z" fill="white"/>
<path d="M15.082 34.6429C15.082 33.0363 16.3682 31.7339 17.9548 31.7339H26.0061C27.5927 31.7339 28.8788 33.0363 28.8788 34.6429V57.7912C28.8788 59.3979 27.5927 60.7003 26.0061 60.7003H17.9548C16.3682 60.7003 15.082 59.3979 15.082 57.7912V34.6429Z" fill="white"/>
</svg>
