<svg width="30" height="30" viewBox="0 0 30 30" fill="none" xmlns="http://www.w3.org/2000/svg">
<path d="M0 15C0 21.0522 3.58875 26.2672 8.74886 28.6345V1.36552C3.58875 3.73972 0 8.94786 0 15Z" fill="#380096"/>
<path d="M30 15C30 8.94786 26.4113 3.73972 21.2511 1.36552V28.6345C26.4113 26.2672 30 21.0522 30 15Z" fill="#D81C3F"/>
<path d="M15 1.05016e-05C12.7699 1.05016e-05 10.6496 0.487202 8.74886 1.36552V28.6345C10.6496 29.506 12.7699 30 15 30C17.2301 30 19.3435 29.5128 21.2511 28.6345V1.36552C19.3435 0.494063 17.2301 1.05016e-05 15 1.05016e-05Z" fill="#FCE016"/>
<path d="M15 20.5512C15.1647 20.4895 15.2745 20.3385 15.3705 20.1944C15.446 20.263 15.5421 20.3248 15.645 20.3385C15.7548 20.3523 15.8715 20.3111 15.9607 20.2493C15.995 20.2287 16.0293 20.1944 16.0773 20.1876C16.1459 20.1738 16.2145 20.1533 16.2694 20.1052C16.3792 20.0229 16.4341 19.8856 16.4273 19.7484C16.4273 19.6112 16.3655 19.4739 16.2694 19.3779C16.3655 19.3024 16.4822 19.2612 16.6057 19.2269C16.7566 19.1857 16.9076 19.1583 17.0654 19.1446C17.3742 19.1103 17.683 19.0965 17.9918 19.0965C18.3349 19.1034 18.6779 19.0485 18.9936 18.9044C19.2955 18.7672 19.5563 18.527 19.7072 18.2251C19.9131 17.8134 19.9062 17.2919 19.6523 16.9007C19.7072 16.887 19.769 16.8733 19.817 16.839C19.8994 16.7841 19.9542 16.6949 19.9748 16.592C20.0091 16.3998 19.9131 16.1665 19.7278 16.091C19.6317 16.0499 19.522 16.0636 19.4259 16.0979C19.2955 15.9881 19.22 15.8234 19.172 15.6587C19.124 15.4735 19.1102 15.2608 19.2063 15.0892C19.3161 15.0961 19.4327 15.0892 19.5288 15.0343C19.6043 14.9931 19.6523 14.9108 19.6661 14.8285C19.6866 14.7255 19.6523 14.6295 19.618 14.5334C19.7141 14.4854 19.8033 14.4236 19.8788 14.355C20.0915 14.1423 20.2081 13.8335 20.215 13.5384V13.4424C20.2013 13.2434 20.1532 13.0512 20.0503 12.8866C19.9543 12.7287 19.8033 12.5984 19.6386 12.5229C19.4533 12.4405 19.2406 12.4268 19.0416 12.4474C18.973 12.4543 18.9112 12.4748 18.8426 12.4611C18.7671 12.4405 18.7123 12.3788 18.678 12.3102C18.6436 12.2347 18.6574 12.1455 18.678 12.0631C18.726 11.8985 18.8426 11.7612 18.9867 11.672C19.1514 11.5691 19.2749 11.4113 19.323 11.226C19.3436 11.1299 19.3435 11.0133 19.2886 10.9241C19.2681 10.8829 19.2269 10.8555 19.1995 10.8211C19.172 10.7731 19.1651 10.7182 19.124 10.677C19.0622 10.6016 18.9662 10.5673 18.877 10.5467C18.8426 10.4781 18.7877 10.4232 18.7191 10.382C18.5887 10.3065 18.4309 10.2653 18.28 10.2791C18.2319 10.2379 18.1702 10.2104 18.1084 10.1899C18.0123 10.1624 17.8957 10.1487 17.8065 10.1967C17.731 10.1761 17.6487 10.1555 17.5732 10.1761C17.5183 10.1899 17.484 10.2379 17.436 10.2379C17.237 10.2722 17.0929 10.4643 17.0929 10.6565C17.0929 10.7388 17.1272 10.8211 17.1752 10.8898C17.038 10.9035 16.9076 10.9035 16.7704 10.9103C16.6674 10.9241 16.5576 10.9172 16.4684 10.8692C16.3998 10.8349 16.3518 10.7663 16.3518 10.6908C16.3449 10.581 16.393 10.4781 16.4547 10.3957C16.5028 10.3134 16.5233 10.2104 16.5302 10.1212C16.5508 9.95655 16.5096 9.78501 16.4067 9.66149C16.29 9.51739 16.1116 9.44191 15.9332 9.43505C15.8028 9.43505 15.6656 9.47622 15.5695 9.57229C15.4803 9.65463 15.3225 9.80559 15.0343 9.80559C14.7461 9.80559 14.5883 9.64777 14.4991 9.57229C14.403 9.48308 14.2658 9.43505 14.1354 9.43505C13.957 9.44191 13.7717 9.52426 13.6619 9.66149C13.559 9.79187 13.5178 9.96341 13.5384 10.1212C13.5522 10.2173 13.5727 10.3134 13.6208 10.3957C13.6825 10.4849 13.7306 10.581 13.7237 10.6908C13.7168 10.7663 13.6688 10.8349 13.607 10.8692C13.511 10.9172 13.4012 10.9172 13.3051 10.9103C13.1679 10.9035 13.0375 10.8966 12.9003 10.8898C12.9483 10.8211 12.9826 10.7388 12.9826 10.6565C12.9895 10.4575 12.8385 10.2653 12.6395 10.2379C12.5846 10.2379 12.5503 10.183 12.5023 10.1761C12.4268 10.1555 12.3445 10.1693 12.269 10.1967C12.1729 10.1487 12.0631 10.1555 11.9671 10.1899C11.9053 10.2036 11.8436 10.2379 11.7955 10.2791C11.6446 10.2653 11.4867 10.3065 11.3564 10.382C11.2877 10.4163 11.2329 10.4712 11.1985 10.5467C11.1093 10.5741 11.0133 10.6084 10.9515 10.677C10.9103 10.7182 10.8966 10.7731 10.876 10.8211C10.8417 10.8555 10.8074 10.8829 10.78 10.9241C10.7251 11.0133 10.7251 11.1231 10.7457 11.226C10.7937 11.4113 10.9172 11.5691 11.0819 11.672C11.2191 11.7612 11.3426 11.8985 11.3907 12.0631C11.4113 12.1455 11.425 12.2347 11.3907 12.3102C11.3564 12.3788 11.3015 12.4405 11.226 12.4611C11.1574 12.4748 11.0956 12.4543 11.027 12.4543C10.828 12.4337 10.6153 12.4474 10.43 12.5297C10.2585 12.6052 10.1144 12.7356 10.0183 12.8934C9.91537 13.0581 9.86048 13.2571 9.84676 13.4492V13.5453C9.85362 13.8472 9.9634 14.1491 10.183 14.3619C10.2585 14.4305 10.3477 14.4991 10.4437 14.5403C10.4094 14.6295 10.3751 14.7324 10.3957 14.8353C10.4094 14.9177 10.4575 15 10.5329 15.0412C10.629 15.1029 10.7457 15.1098 10.8554 15.0961C10.9515 15.2676 10.9309 15.4803 10.8897 15.6656C10.8417 15.8303 10.7731 15.995 10.6427 16.1048C10.5467 16.0705 10.4369 16.0567 10.3339 16.0979C10.1487 16.1734 10.0526 16.4067 10.0869 16.5988C10.1006 16.7017 10.1624 16.791 10.2447 16.8458C10.2928 16.8802 10.3545 16.8939 10.4094 16.9076C10.1487 17.2919 10.1487 17.8202 10.3545 18.2319C10.4986 18.5339 10.7662 18.774 11.0682 18.9113C11.3838 19.0554 11.7269 19.1103 12.07 19.1034C12.3788 19.1034 12.6876 19.1171 12.9963 19.1514C13.1473 19.172 13.3051 19.1926 13.4492 19.2338C13.5659 19.2681 13.6894 19.3092 13.7855 19.3847C13.6894 19.4808 13.6276 19.618 13.6276 19.7553C13.6208 19.8856 13.6757 20.0297 13.7855 20.1121C13.8403 20.1533 13.909 20.1807 13.9776 20.1944C14.0188 20.2013 14.0531 20.2356 14.0942 20.2562C14.1834 20.3179 14.2932 20.3591 14.4099 20.3454C14.5197 20.3317 14.6089 20.2699 14.6844 20.2013C14.7255 20.3385 14.8353 20.4895 15 20.5512Z" fill="#7A3F28"/>
<path d="M15 20.4758C15.0137 20.4758 15.0343 20.4689 15.0549 20.462C15.1921 20.3728 15.2676 20.2219 15.3705 20.0984C15.4529 20.1807 15.5421 20.263 15.6587 20.2836C15.7823 20.3042 15.8989 20.2356 15.995 20.167C16.0293 20.1395 16.0704 20.1395 16.1048 20.1258C16.194 20.1052 16.2763 20.0503 16.3175 19.9749C16.3792 19.8788 16.3861 19.7621 16.3586 19.6523C16.3312 19.5494 16.2626 19.4602 16.1871 19.3916C16.242 19.3298 16.3106 19.2887 16.3792 19.2544C16.5439 19.1789 16.7223 19.1446 16.8939 19.1103C17.285 19.0485 17.683 19.0416 18.0878 19.0348C18.4927 19.0279 18.9113 18.9387 19.2406 18.6917C19.5426 18.479 19.7484 18.1359 19.7896 17.7653C19.8307 17.4703 19.7621 17.1684 19.5974 16.9213C19.4671 16.9007 19.3367 16.8664 19.2132 16.8047C18.9456 16.6743 18.726 16.4479 18.6093 16.1734C18.5064 15.9401 18.479 15.6793 18.5064 15.4254C18.5201 15.2196 18.5956 15.0206 18.6917 14.8422C18.7671 14.7118 18.8632 14.5814 19.0005 14.5128C18.925 14.4716 18.8564 14.4099 18.8289 14.3207C18.8015 14.2452 18.8289 14.1491 18.8907 14.1011C18.973 14.0394 19.0965 14.0599 19.1514 14.1423C19.172 14.1697 19.1651 14.204 19.1651 14.2315C19.2818 14.2452 19.4122 14.2383 19.5151 14.1697C19.618 14.1011 19.6798 13.9913 19.7141 13.8815C19.7759 13.6757 19.7553 13.4492 19.6866 13.2502C19.6386 13.113 19.5426 12.9826 19.4122 12.914C19.3504 12.8797 19.2749 12.8591 19.2063 12.8385C19.1514 12.8248 19.1034 12.8385 19.0553 12.8523C18.9661 12.8866 18.8907 12.9483 18.8632 13.0375C18.8495 13.0787 18.8701 13.1199 18.8701 13.161C18.8838 13.1816 18.9044 13.2091 18.925 13.2228C18.9867 13.2571 19.0622 13.2365 19.1103 13.1885C19.124 13.1748 19.1308 13.1542 19.1308 13.1336C19.124 13.113 19.0965 13.113 19.0828 13.113C19.0759 13.1061 19.0622 13.0993 19.0553 13.0993C19.0691 13.0856 19.0897 13.0718 19.1034 13.065C19.124 13.0787 19.1514 13.0924 19.1651 13.1199C19.1789 13.1473 19.172 13.1885 19.1514 13.2091C19.0897 13.2914 18.9524 13.312 18.877 13.2365C18.8358 13.1953 18.7946 13.1405 18.7809 13.0787C18.7397 12.9483 18.7397 12.7974 18.7603 12.6601C18.7191 12.6944 18.6642 12.7219 18.6093 12.7219C18.5338 12.7219 18.4584 12.6807 18.4035 12.6258C18.376 12.6944 18.3555 12.763 18.3417 12.8385C18.3143 12.9964 18.3486 13.1542 18.4172 13.2983C18.4652 13.3943 18.5476 13.4698 18.6505 13.5041C18.7946 13.5453 18.9456 13.5179 19.0828 13.4767C19.0897 13.4973 19.0965 13.5179 19.1034 13.5384C18.9867 13.5727 18.8701 13.5933 18.7466 13.5865C18.6368 13.5796 18.5338 13.5384 18.4584 13.463C18.3623 13.3669 18.3143 13.2365 18.2868 13.0993C18.2525 12.9415 18.28 12.7699 18.3417 12.6189C18.3486 12.5915 18.3692 12.5641 18.3486 12.5366C18.3074 12.468 18.3005 12.3856 18.2868 12.3033C18.2662 12.118 18.3211 11.9259 18.4241 11.7749C18.5133 11.6377 18.6436 11.5348 18.7534 11.4113C18.8838 11.274 19.0142 11.1231 19.0897 10.9447C19.124 10.8692 19.124 10.7731 19.0759 10.7045C19.0142 10.629 18.925 10.5947 18.8358 10.581C18.8495 10.7251 18.8426 10.8829 18.7809 11.0201C18.7397 11.1231 18.6711 11.226 18.5544 11.2672C18.5476 11.2466 18.5476 11.226 18.5407 11.1985C18.6368 11.1574 18.6917 11.0682 18.7328 10.979C18.7877 10.8349 18.8015 10.6633 18.7534 10.5124C18.7397 10.4712 18.726 10.43 18.6848 10.4094C18.5682 10.3477 18.4309 10.3065 18.2937 10.3134C18.3554 10.4232 18.3966 10.5467 18.376 10.6702C18.3623 10.8211 18.2731 10.9515 18.1702 11.0613C18.1565 11.0476 18.1427 11.0339 18.1221 11.0133C18.1908 10.9447 18.2525 10.8555 18.2868 10.7594C18.3349 10.629 18.3143 10.4712 18.2388 10.3545C18.2182 10.3271 18.2045 10.2859 18.177 10.2585C18.081 10.2104 17.9712 10.1899 17.8614 10.2104C17.9437 10.3202 17.9918 10.4575 17.9918 10.5947C17.9918 10.7251 17.9643 10.8623 17.8683 10.9515C17.8545 10.9309 17.8408 10.9172 17.8271 10.8966C17.8614 10.8555 17.8888 10.8143 17.9026 10.7662C17.9506 10.6016 17.9231 10.4094 17.8202 10.2653C17.7928 10.2242 17.7379 10.2173 17.6898 10.2104C17.6281 10.2104 17.5457 10.2036 17.5183 10.2722C17.484 10.2722 17.4497 10.2722 17.4154 10.2859C17.2438 10.3271 17.1203 10.5261 17.1615 10.7045C17.1752 10.7868 17.2301 10.8486 17.285 10.9035C17.2576 10.9241 17.2232 10.9378 17.1889 10.9378C17.0448 10.9515 16.8939 10.9515 16.7498 10.9652C16.6537 10.9721 16.5576 10.9652 16.4684 10.9378C16.393 10.9103 16.3312 10.8623 16.2969 10.7868C16.2557 10.6908 16.2694 10.5741 16.3106 10.4781C16.3381 10.4094 16.3929 10.3545 16.4135 10.2791C16.4684 10.1144 16.4753 9.92224 16.3929 9.77128C16.2694 9.53798 15.9607 9.42819 15.7136 9.53112C15.6176 9.57229 15.5558 9.65463 15.4735 9.70953C15.3499 9.80559 15.1784 9.86049 15.0206 9.85363C14.8628 9.86049 14.6912 9.79873 14.5608 9.70953C14.4785 9.65463 14.4167 9.57229 14.3207 9.53112C14.0805 9.42819 13.7649 9.53798 13.6414 9.77128C13.559 9.92911 13.5659 10.1144 13.6208 10.2791C13.6414 10.3545 13.6962 10.4094 13.7237 10.4781C13.7649 10.5741 13.7786 10.6908 13.7374 10.7868C13.7031 10.8623 13.6413 10.9103 13.5659 10.9378C13.4767 10.9721 13.3737 10.979 13.2845 10.9652C13.1404 10.9584 12.9895 10.9515 12.8454 10.9378C12.8111 10.9378 12.7768 10.9241 12.7493 10.9035C12.8042 10.8486 12.8591 10.7868 12.8728 10.7045C12.914 10.5329 12.7905 10.334 12.6189 10.2859C12.5846 10.2791 12.5503 10.2791 12.5229 10.2722C12.4954 10.2036 12.4131 10.2036 12.3513 10.2104C12.3033 10.2173 12.2484 10.2242 12.221 10.2653C12.118 10.4094 12.0837 10.6016 12.1386 10.7662C12.1523 10.8143 12.1798 10.8623 12.2141 10.8966C12.2004 10.9103 12.1866 10.9309 12.1729 10.9515C12.0768 10.8623 12.0494 10.7251 12.0494 10.5947C12.0494 10.4575 12.0974 10.3202 12.1798 10.2104C12.0769 10.1899 11.9602 10.2104 11.8641 10.2585C11.8367 10.2859 11.823 10.3271 11.8024 10.3545C11.7269 10.4781 11.7063 10.629 11.7543 10.7594C11.7887 10.8555 11.8435 10.9378 11.919 11.0133C11.9053 11.027 11.8847 11.0407 11.871 11.0613C11.7681 10.9584 11.6857 10.8211 11.6651 10.6702C11.6446 10.5467 11.6857 10.4232 11.7475 10.3134C11.6102 10.2996 11.473 10.3408 11.3564 10.4094C11.3152 10.43 11.3015 10.4712 11.2877 10.5124C11.2397 10.6633 11.2534 10.828 11.3083 10.979C11.3426 11.0682 11.3975 11.1642 11.5005 11.1985C11.4936 11.2191 11.4867 11.2397 11.4867 11.2672C11.3701 11.2329 11.3015 11.1231 11.2603 11.0201C11.1985 10.8829 11.1848 10.7251 11.2054 10.581C11.1162 10.5947 11.0201 10.629 10.9652 10.7045C10.9103 10.7662 10.9172 10.8692 10.9447 10.9447C11.0201 11.1231 11.1505 11.2672 11.2809 11.4113C11.3907 11.5279 11.5142 11.6377 11.6102 11.7749C11.7132 11.9259 11.7681 12.118 11.7475 12.3033C11.7338 12.3788 11.72 12.4611 11.6857 12.5366C11.6651 12.5641 11.6857 12.5915 11.6926 12.6189C11.7544 12.7699 11.7818 12.9415 11.7475 13.0993C11.72 13.2297 11.672 13.3669 11.5759 13.463C11.5005 13.5384 11.3907 13.5796 11.2877 13.5865C11.1711 13.5933 11.0476 13.5727 10.9309 13.5384C10.9378 13.5179 10.9446 13.4973 10.9515 13.4767C11.0887 13.5179 11.2397 13.5453 11.3838 13.5041C11.4867 13.4767 11.5691 13.3943 11.6171 13.2983C11.6857 13.161 11.72 12.9964 11.6926 12.8385C11.6789 12.763 11.6583 12.6944 11.6308 12.6258C11.5759 12.6738 11.5073 12.7219 11.425 12.7219C11.3701 12.7219 11.3152 12.6944 11.274 12.6601C11.2946 12.7974 11.2946 12.9415 11.2534 13.0787C11.2328 13.1405 11.1985 13.1953 11.1505 13.2365C11.075 13.312 10.9378 13.2914 10.876 13.2091C10.8554 13.1885 10.8486 13.1473 10.8623 13.1199C10.876 13.0924 10.9035 13.0856 10.9241 13.065C10.9378 13.0787 10.9584 13.0924 10.9721 13.0993C10.9652 13.1061 10.9515 13.113 10.9447 13.113C10.9241 13.113 10.9035 13.113 10.8966 13.1336C10.8966 13.1542 10.9035 13.1748 10.9172 13.1885C10.9584 13.2365 11.0407 13.2502 11.0956 13.2228C11.1162 13.2091 11.1368 13.1885 11.1505 13.161C11.1505 13.1199 11.178 13.0787 11.1574 13.0375C11.1299 12.9483 11.0544 12.8866 10.9721 12.8523C10.9241 12.8385 10.8692 12.8179 10.8143 12.8385C10.7457 12.8591 10.6702 12.8728 10.6084 12.914C10.478 12.9826 10.382 13.113 10.3339 13.2502C10.2653 13.4492 10.2447 13.6757 10.3065 13.8815C10.3408 13.9982 10.4026 14.108 10.5055 14.1697C10.6084 14.2383 10.7388 14.2452 10.8554 14.2315C10.8554 14.204 10.8554 14.1697 10.8692 14.1423C10.9241 14.0599 11.0544 14.0394 11.1368 14.1011C11.2054 14.1491 11.226 14.2452 11.1985 14.3207C11.1711 14.4099 11.1025 14.4716 11.027 14.5128C11.1642 14.5814 11.2603 14.7118 11.3358 14.8422C11.4318 15.0206 11.5005 15.2196 11.521 15.4254C11.5485 15.6793 11.521 15.9401 11.4181 16.1734C11.3015 16.4479 11.0819 16.6743 10.8143 16.8047C10.6908 16.8664 10.5604 16.9007 10.43 16.9213C10.2653 17.1684 10.1967 17.4703 10.2379 17.7653C10.279 18.129 10.4849 18.4721 10.7868 18.6917C11.1162 18.9387 11.5348 19.0279 11.9396 19.0348C12.3376 19.0348 12.7356 19.0485 13.1336 19.1103C13.312 19.1377 13.4835 19.1789 13.6482 19.2544C13.7168 19.2887 13.7854 19.3298 13.8403 19.3916C13.758 19.4602 13.6962 19.5494 13.6688 19.6523C13.6413 19.7553 13.6482 19.8788 13.7031 19.9749C13.7443 20.0503 13.8266 20.1121 13.9158 20.1258C13.9501 20.1395 13.9982 20.1395 14.0256 20.167C14.1217 20.2356 14.2383 20.3042 14.3618 20.2836C14.4785 20.263 14.5677 20.1807 14.6501 20.0984C14.7461 20.2219 14.8285 20.3728 14.9657 20.462C14.9657 20.4689 14.9863 20.4758 15 20.4758Z" fill="#D1BF91"/>
<path d="M15 10.5192C15.1029 10.4918 15.3568 10.4232 15.446 10.3614C15.5078 10.3202 15.5421 10.2585 15.6038 10.2173C15.6519 10.1899 15.7068 10.1624 15.7617 10.183C15.796 10.2036 15.7754 10.2448 15.7754 10.2722C15.796 10.2791 15.8166 10.2859 15.8371 10.2928C15.844 10.2447 15.8577 10.1967 15.8303 10.1555C15.8028 10.1144 15.7411 10.1007 15.693 10.1144C15.597 10.1281 15.5215 10.1899 15.4666 10.2585C15.4186 10.3134 15.0755 10.4369 15 10.4643C14.9314 10.4369 14.5883 10.3202 14.5334 10.2585C14.4716 10.1899 14.3962 10.1281 14.307 10.1144C14.2589 10.1075 14.1972 10.1144 14.1697 10.1555C14.1423 10.1967 14.156 10.2447 14.1628 10.2928C14.1834 10.2859 14.204 10.2791 14.2246 10.2722C14.2246 10.2448 14.2109 10.2036 14.2383 10.183C14.2932 10.1624 14.3481 10.1899 14.3962 10.2173C14.4579 10.2585 14.4991 10.3202 14.554 10.3614C14.6432 10.4232 14.8902 10.4918 15 10.5192Z" fill="#7A3F28"/>
<path d="M15.0755 10.8211C15.0892 10.8211 15.1029 10.8211 15.1167 10.8211C15.1098 10.9035 15.1167 10.9858 15.1647 11.0544C15.2059 11.1368 15.2882 11.2054 15.3843 11.1985C15.4529 11.1985 15.5146 11.1505 15.5215 11.0819C15.5284 11.0201 15.4941 10.9309 15.4255 10.9241C15.398 10.9378 15.398 10.979 15.3843 11.0133C15.3774 10.9927 15.3637 10.9858 15.3568 10.9652C15.35 10.9172 15.4049 10.876 15.446 10.8898C15.5147 10.9035 15.549 10.9652 15.5627 11.027C15.5764 11.0956 15.549 11.178 15.4803 11.2123C15.4117 11.2534 15.3225 11.2466 15.2539 11.2054C15.1235 11.1299 15.0549 10.9721 15.0755 10.8211Z" fill="#7A3F28"/>
<path d="M15 18.0878C15.1029 18.0329 15.2127 17.9506 15.3019 17.8751C15.3431 17.8408 15.4048 17.834 15.4597 17.8271C15.6793 17.7996 15.8989 17.8065 16.1185 17.8065C16.5233 17.8134 16.9282 17.8408 17.333 17.8683C17.4771 17.8751 17.6144 17.8545 17.7447 17.7996C18.0055 17.6899 18.2045 17.4428 18.2457 17.1615C18.2662 17.038 18.2457 16.9076 18.2457 16.7841C18.2319 15.8303 18.2319 14.8765 18.2251 13.9158C18.3005 14.0325 18.3829 14.1423 18.4309 14.2727C18.3623 14.3413 18.3074 14.4305 18.2868 14.5334C18.2662 14.6775 18.3074 14.8216 18.3829 14.9383C18.3555 15.0275 18.328 15.1235 18.3143 15.2127C18.28 15.4323 18.2662 15.6519 18.2937 15.8715C18.3143 16.0018 18.3554 16.1391 18.4584 16.2351C18.4721 16.2214 18.4858 16.2008 18.4995 16.1871C18.4652 16.1391 18.4241 16.0842 18.4035 16.0293C18.3417 15.8646 18.3417 15.6862 18.3486 15.5078C18.3623 15.3088 18.3897 15.1098 18.4584 14.9245C18.376 14.8079 18.3211 14.6501 18.3623 14.506C18.3829 14.4168 18.4446 14.3481 18.5064 14.2864C18.4721 14.1834 18.4241 14.0942 18.3623 14.005C18.3143 13.9296 18.2594 13.8609 18.2182 13.7855C18.2113 13.6894 18.2182 13.5933 18.2182 13.4973C18.2868 13.6002 18.3417 13.7237 18.4515 13.7923C18.6162 13.9021 18.8289 13.9364 19.021 13.8953C19.1651 13.8609 19.2886 13.7717 19.3779 13.6619C19.3641 13.6482 19.3436 13.6345 19.323 13.6208C19.2818 13.6757 19.2338 13.7237 19.172 13.7649C19.0279 13.8541 18.8495 13.8747 18.6917 13.8335C18.575 13.806 18.4584 13.7443 18.3897 13.6482C18.3349 13.5727 18.2868 13.4973 18.2457 13.4149C18.2319 13.3806 18.2114 13.3463 18.2114 13.312C18.2114 12.6327 18.2114 11.9465 18.2114 11.2672C17.8134 11.2672 17.4085 11.274 17.0105 11.274C16.7566 11.274 16.5027 11.274 16.2489 11.2809H15C14.7461 11.274 13.2434 11.2809 12.9895 11.274C12.5915 11.274 12.1866 11.2672 11.7887 11.2672C11.7887 11.9465 11.7887 12.6327 11.7887 13.312C11.7887 13.3532 11.7749 13.3806 11.7543 13.4149C11.7132 13.4973 11.6651 13.5727 11.6102 13.6482C11.5416 13.7512 11.425 13.806 11.3083 13.8335C11.1436 13.8747 10.9652 13.8541 10.8211 13.7649C10.7594 13.7306 10.7113 13.6757 10.6702 13.6208C10.6496 13.6345 10.6359 13.6482 10.6153 13.6619C10.7045 13.7786 10.828 13.8678 10.9721 13.8953C11.1642 13.9433 11.3769 13.9021 11.5416 13.7923C11.6514 13.7237 11.7063 13.6002 11.7749 13.4973C11.7749 13.5933 11.7818 13.6894 11.7749 13.7855C11.7406 13.8609 11.6789 13.9296 11.6308 14.005C11.5691 14.0874 11.521 14.1834 11.4867 14.2864C11.5553 14.3413 11.6103 14.4168 11.6308 14.506C11.672 14.6501 11.6171 14.801 11.5348 14.9245C11.6034 15.1098 11.6308 15.3088 11.6446 15.5078C11.6514 15.6793 11.6514 15.8577 11.5897 16.0293C11.5691 16.091 11.5348 16.1391 11.4936 16.1871C11.5073 16.2077 11.521 16.2214 11.5279 16.2351C11.6308 16.1459 11.672 16.0087 11.6926 15.8715C11.7269 15.6519 11.7063 15.4254 11.672 15.2127C11.6583 15.1167 11.6377 15.0275 11.6034 14.9383C11.6789 14.8147 11.72 14.6706 11.6994 14.5334C11.6857 14.4305 11.6308 14.3413 11.5554 14.2727C11.6034 14.1423 11.6857 14.0325 11.7612 13.9158C11.7612 14.8696 11.7543 15.8234 11.7406 16.7841C11.7406 16.9076 11.72 17.038 11.7406 17.1615C11.7886 17.4428 11.9808 17.6899 12.2415 17.7996C12.3719 17.8545 12.516 17.8751 12.6532 17.8683C13.0581 17.8477 13.4629 17.8202 13.8678 17.8065C14.0874 17.8065 14.307 17.7996 14.5197 17.8271C14.5746 17.834 14.6363 17.8408 14.6775 17.8751C14.7873 17.9506 14.8971 18.0329 15 18.0878Z" fill="#7A3F28"/>
<path d="M15 18.0192C15.0892 17.9643 15.1784 17.8957 15.2608 17.8202C15.3088 17.7722 15.3774 17.7653 15.4392 17.7585C15.6656 17.731 15.8921 17.7379 16.1116 17.7379C16.5165 17.7447 16.9213 17.7722 17.3262 17.7928C17.5114 17.8065 17.6967 17.7585 17.8408 17.6555C18.0192 17.5389 18.1427 17.3399 18.177 17.1272C18.1908 17.0311 18.177 16.9419 18.177 16.8458C18.1702 16.6057 18.1702 16.3587 18.1633 16.1116C18.1633 15.7068 18.1565 15.3019 18.1565 14.8971C18.1496 13.7031 18.1496 12.5092 18.1496 11.3152C17.1341 11.3152 16.1116 11.3289 15.0892 11.3289H14.9932C13.9776 11.3289 12.866 11.3152 11.8436 11.3152C11.8436 12.5092 11.8436 13.7031 11.8367 14.8971C11.8367 15.3019 11.8298 15.7068 11.8298 16.1116C11.8298 16.3587 11.823 16.5988 11.8161 16.8458C11.8161 16.9419 11.8024 17.0311 11.8161 17.1272C11.8504 17.3399 11.9739 17.532 12.1523 17.6555C12.3033 17.7585 12.4886 17.8065 12.667 17.7928C13.0718 17.7653 13.4767 17.7447 13.8815 17.7379C14.108 17.7379 14.3344 17.7242 14.554 17.7585C14.6157 17.7722 14.6844 17.7791 14.7324 17.8202C14.8216 17.8957 14.9108 17.9643 15 18.0192Z" fill="#D1BF91"/>
<path d="M18.3623 16.9968C18.4927 16.8802 18.6779 16.8253 18.8495 16.839C19.0005 16.8527 19.1377 16.9282 19.2543 17.0311C19.3916 17.1546 19.5014 17.3056 19.5357 17.4909C19.5494 17.6212 19.5425 17.7516 19.5014 17.8751C19.4327 18.0741 19.2955 18.2388 19.1445 18.3829C19.0485 18.479 18.9387 18.5544 18.822 18.6231C18.6025 18.7397 18.3623 18.8015 18.129 18.8426C17.8614 18.8907 17.5938 18.8975 17.3193 18.9044C17.086 18.9113 16.8527 18.9113 16.6263 18.9113C16.4479 18.9113 16.2694 18.9593 16.1116 19.0348C15.9469 19.1171 15.7891 19.2269 15.693 19.3916C15.6725 19.4053 15.6587 19.419 15.645 19.4328C15.597 19.5288 15.5695 19.6386 15.597 19.7484C15.6176 19.8513 15.6793 19.9474 15.7685 19.9954C15.8371 20.0366 15.9195 20.0435 15.995 20.0297C16.1047 20.0092 16.1939 19.92 16.2214 19.8102C16.2488 19.7004 16.2145 19.5631 16.1048 19.5082C16.0293 19.4602 15.9195 19.4739 15.8577 19.5494C15.796 19.618 15.796 19.7484 15.8783 19.8033C15.9332 19.8376 16.0156 19.8239 16.043 19.7621C16.0636 19.7141 16.043 19.6523 15.9881 19.6523C15.9606 19.6523 15.9538 19.6798 15.9401 19.7072C15.9538 19.6935 15.9675 19.6867 15.9812 19.6798C15.9881 19.6935 16.0018 19.7278 15.9812 19.7347C15.9401 19.7621 15.8989 19.7072 15.9195 19.6661C15.9401 19.6112 16.0155 19.6043 16.0498 19.6455C16.1047 19.7072 16.0773 19.817 16.0087 19.8445C15.9332 19.8788 15.844 19.8445 15.8097 19.7759C15.7617 19.6798 15.796 19.5563 15.8852 19.4945C15.9881 19.4259 16.1322 19.4533 16.2077 19.5494C16.3106 19.6798 16.2832 19.8856 16.1596 19.9886C16.0636 20.0778 15.9195 20.0984 15.8028 20.0435C15.7136 20.0023 15.645 19.9337 15.6038 19.8445C15.5421 19.7141 15.5558 19.5563 15.6244 19.4328C15.645 19.3985 15.645 19.3573 15.6656 19.323C15.6999 19.2749 15.7342 19.2338 15.7754 19.1857C15.6519 19.1789 15.5146 19.22 15.4529 19.323C15.3774 19.4465 15.3637 19.522 15.3225 19.6386C15.295 19.7278 15.2813 19.8239 15.2196 19.8925C15.1921 19.9268 15.1441 19.9611 15.0961 19.9474C15.048 19.9268 15.0412 19.8925 15.0412 19.8239C15.0412 19.6867 15.0549 19.5426 15.1166 19.419C15.1784 19.2955 15.2333 19.1995 15.3294 19.124C15.4803 19.0142 15.5833 18.9318 15.7617 18.8632C16.0704 18.7466 16.3929 18.6711 16.7223 18.6505C17.1134 18.6231 17.5114 18.6368 17.9026 18.6368C18.2868 18.6368 18.6573 18.4721 18.925 18.2045C19.0485 18.081 19.1514 17.9437 19.2132 17.7859C19.2749 17.5801 19.1514 17.333 18.9455 17.2781C18.8632 17.2507 18.774 17.2713 18.7054 17.3262C18.7397 17.3468 18.774 17.3673 18.7877 17.4017C18.8152 17.4771 18.8015 17.5663 18.7466 17.6281C18.6917 17.6967 18.5887 17.731 18.4995 17.7104C18.4172 17.6967 18.3417 17.6487 18.3005 17.5801C18.2319 17.484 18.2251 17.3605 18.2525 17.2507C18.2662 17.1958 18.2937 17.1478 18.3211 17.0929C18.3143 17.0448 18.3349 17.0174 18.3623 16.9968Z" fill="#7A3F28"/>
<path d="M18.3554 17.0929C18.4721 16.9625 18.6505 16.8939 18.8289 16.9007C18.9524 16.9007 19.0691 16.9625 19.1651 17.038C19.2749 17.1272 19.371 17.237 19.4328 17.3673C19.4877 17.4909 19.4876 17.635 19.4602 17.7722C19.4122 17.9849 19.2749 18.1565 19.124 18.3074C19.0348 18.4035 18.9318 18.479 18.8152 18.5407C18.6162 18.6505 18.3966 18.7123 18.1839 18.7534C17.8888 18.8083 17.5938 18.8152 17.2919 18.8289C17.1409 18.8358 16.9831 18.8289 16.8321 18.8358C16.6949 18.8358 16.5576 18.8289 16.4273 18.8564C16.2145 18.8975 16.0087 18.9936 15.844 19.124C15.7342 19.0897 15.6176 19.1308 15.5215 19.1857C15.4117 19.2544 15.3774 19.3504 15.3225 19.4671C15.2813 19.5494 15.2539 19.6318 15.2264 19.7278C15.2127 19.7896 15.199 19.92 15.1372 19.8925C15.0412 19.8582 15.0892 19.6867 15.1098 19.5974C15.1372 19.4945 15.1647 19.3847 15.2333 19.2955C15.3225 19.1857 15.3774 19.1034 15.5009 19.0348C15.7411 18.9044 16.0087 18.8221 16.2832 18.7603C16.7017 18.6642 17.1272 18.678 17.5526 18.678C17.7104 18.678 17.8682 18.6848 18.0261 18.6711C18.5064 18.6299 18.9661 18.3486 19.2063 17.93C19.2475 17.8545 19.2955 17.7791 19.2955 17.6899C19.3092 17.532 19.2475 17.3742 19.124 17.2713C19.0348 17.1958 18.9181 17.1546 18.8015 17.1821C18.7191 17.1958 18.6505 17.2507 18.6025 17.3125C18.6025 17.3468 18.5819 17.3879 18.6162 17.4085C18.6231 17.3879 18.6231 17.3742 18.6299 17.3605C18.6368 17.3605 18.6436 17.3605 18.6505 17.3605C18.6642 17.3536 18.6848 17.333 18.7054 17.3468C18.7534 17.3605 18.774 17.4154 18.7672 17.4634C18.7672 17.5663 18.678 17.6555 18.575 17.6693C18.4858 17.683 18.3966 17.6418 18.3417 17.5732C18.2388 17.4497 18.2525 17.2644 18.3349 17.1272C18.328 17.1066 18.3417 17.1066 18.3554 17.0929Z" fill="#D1BF91"/>
<path d="M11.5759 17.6418C11.6377 17.6555 11.7063 17.6693 11.7612 17.6967C11.7406 17.6967 11.72 17.7036 11.6994 17.7036C11.6926 17.7653 11.6994 17.8202 11.7132 17.882C11.72 17.9437 11.7269 18.0055 11.7338 18.0673C11.7818 17.9918 11.8367 17.9232 11.8847 17.8477C11.8984 17.8271 11.9122 17.8065 11.9259 17.7791C11.9122 17.7585 11.8984 17.7448 11.8847 17.7242C11.9328 17.731 11.9808 17.7447 12.0288 17.7653C12.0014 17.7791 11.9739 17.7859 11.9533 17.8134C11.8641 17.9369 11.7818 18.0673 11.6926 18.1908C11.6651 18.0329 11.6514 17.8751 11.6308 17.7242C11.624 17.683 11.5965 17.6624 11.5759 17.6418Z" fill="#7A3F28"/>
<path d="M13.9501 18.1976C14.0119 18.1908 14.0805 18.1839 14.1423 18.1908C14.1217 18.1976 14.108 18.2045 14.0874 18.2182C14.0942 18.28 14.1217 18.328 14.1491 18.3829C14.1766 18.4378 14.1972 18.4927 14.2246 18.5544C14.2521 18.4652 14.2795 18.3829 14.307 18.2937C14.3138 18.2662 14.3207 18.2457 14.3207 18.2182C14.307 18.2045 14.2864 18.1908 14.2658 18.1839C14.3138 18.177 14.3619 18.1702 14.4099 18.177C14.3824 18.1976 14.355 18.2114 14.3481 18.2457C14.3001 18.3898 14.2589 18.5407 14.204 18.6848C14.1354 18.5476 14.0805 18.3966 14.0119 18.2594C14.005 18.2251 13.9776 18.2114 13.9501 18.1976Z" fill="#7A3F28"/>
<path d="M12.0357 17.7653C12.1043 17.7791 12.1661 17.7928 12.2278 17.8134C12.2072 17.8202 12.1798 17.8202 12.1592 17.834C12.1317 17.8888 12.1249 17.9506 12.1112 18.0055C12.0974 18.081 12.0631 18.1496 12.0631 18.2251C12.0768 18.2388 12.0974 18.2525 12.118 18.2731C12.0494 18.2594 11.9876 18.2457 11.919 18.2182C11.9396 18.2182 11.9602 18.2114 11.9808 18.2045C12.0014 18.177 12.0082 18.1496 12.0151 18.1222C12.0357 18.0467 12.0563 17.9712 12.0769 17.8888C12.0837 17.8614 12.0906 17.834 12.0906 17.8065C12.0768 17.7859 12.0563 17.7791 12.0357 17.7653Z" fill="#7A3F28"/>
<path d="M18.3211 17.834C18.3829 17.8134 18.4446 17.8065 18.5064 17.7996C18.5476 17.7996 18.5956 17.7996 18.6299 17.8202C18.6779 17.8545 18.6848 17.9232 18.6642 17.9712C18.6505 17.9986 18.6162 18.0192 18.5887 18.0398C18.6299 18.0878 18.6711 18.1359 18.7191 18.1839C18.7466 18.2114 18.7877 18.2182 18.822 18.2319C18.7809 18.2457 18.7397 18.2525 18.6985 18.2525C18.6436 18.1908 18.5819 18.1222 18.527 18.0535C18.5133 18.0535 18.4995 18.0535 18.4858 18.0604C18.4927 18.1153 18.4927 18.177 18.5133 18.2319C18.5201 18.2594 18.5613 18.2525 18.5819 18.2594C18.5201 18.28 18.4515 18.2868 18.3829 18.2868C18.4035 18.2731 18.4446 18.2594 18.4378 18.2251C18.4378 18.1565 18.4172 18.0878 18.4103 18.0192C18.4035 17.9643 18.3966 17.9094 18.3829 17.8545C18.3829 17.834 18.3417 17.8408 18.3211 17.834Z" fill="#7A3F28"/>
<path d="M18.4515 17.8408C18.4789 17.834 18.5201 17.8202 18.5476 17.8408C18.6025 17.8683 18.6162 17.9506 18.575 17.9986C18.5544 18.0261 18.5133 18.0329 18.4789 18.0398C18.4721 17.9712 18.4584 17.9094 18.4515 17.8408Z" fill="#D1BF91"/>
<path d="M18.0604 17.8545C18.1084 17.8408 18.1633 17.8477 18.2045 17.8683C18.3486 17.9506 18.376 18.177 18.2525 18.2868C18.1908 18.3486 18.081 18.3555 18.0124 18.3006C17.9369 18.2457 17.9026 18.1359 17.9094 18.0467C17.9163 17.9643 17.9712 17.882 18.0604 17.8545Z" fill="#7A3F28"/>
<path d="M12.4817 18.2937C12.4543 18.2319 12.4405 18.1702 12.4131 18.1084C12.4405 18.1016 12.4748 18.1016 12.4954 18.081C12.5503 18.0467 12.564 17.9643 12.5229 17.9094C12.5023 17.882 12.4611 17.8614 12.4268 17.8545C12.365 17.834 12.2964 17.8202 12.2347 17.8065C12.2553 17.8202 12.2759 17.834 12.2896 17.8545C12.2896 17.9026 12.269 17.9506 12.2621 17.9986C12.2415 18.0741 12.2278 18.1496 12.2004 18.2251C12.1935 18.2594 12.1523 18.2525 12.1249 18.2594C12.1866 18.28 12.2553 18.3006 12.317 18.3143C12.2964 18.3006 12.2827 18.2868 12.2621 18.2662C12.2621 18.1976 12.2896 18.1427 12.3033 18.081C12.317 18.0878 12.3307 18.0878 12.3445 18.0947C12.3788 18.1702 12.3925 18.2594 12.4337 18.3349C12.468 18.3555 12.5092 18.3623 12.5503 18.3623C12.5297 18.3555 12.4954 18.3349 12.4817 18.2937ZM12.317 18.0673C12.3308 17.9986 12.3445 17.9369 12.365 17.8751C12.3994 17.882 12.4405 17.8888 12.4611 17.9163C12.4954 17.9643 12.4748 18.0398 12.4131 18.0673C12.3856 18.0878 12.3513 18.0741 12.317 18.0673Z" fill="#7A3F28"/>
<path d="M18.0604 17.8888C18.1016 17.8683 18.1565 17.882 18.1908 17.9232C18.2319 17.9712 18.2457 18.0329 18.2525 18.1016C18.2594 18.1633 18.2594 18.2388 18.2182 18.2868C18.177 18.328 18.1016 18.3349 18.0604 18.2937C17.9986 18.2319 17.9849 18.1359 17.9849 18.0535C17.978 17.9849 17.9986 17.9094 18.0604 17.8888Z" fill="#D1BF91"/>
<path d="M17.6555 17.93C17.7173 17.9163 17.7859 17.9026 17.8545 17.8957C17.8408 17.9094 17.8202 17.9232 17.7996 17.9369C17.7928 17.9575 17.7996 17.9849 17.7996 18.0055C17.8134 18.1016 17.8271 18.1976 17.8408 18.2868C17.8477 18.3074 17.8477 18.328 17.8614 18.3349C17.882 18.3417 17.9026 18.3486 17.9163 18.3486C17.8545 18.3692 17.7859 18.376 17.7173 18.376C17.7379 18.3623 17.7585 18.3555 17.7791 18.3417C17.7791 18.3143 17.779 18.28 17.7722 18.2525C17.7585 18.1702 17.7447 18.081 17.731 17.9986C17.7242 17.9781 17.7242 17.9575 17.7173 17.9437C17.6967 17.9369 17.6761 17.9369 17.6555 17.93Z" fill="#7A3F28"/>
<path d="M12.6052 18.0329C12.6121 17.9918 12.6258 17.9506 12.6395 17.9163C12.7562 17.9437 12.866 17.9781 12.9758 18.0055C12.9689 18.0467 12.962 18.0878 12.9483 18.1221C12.9414 18.0878 12.9483 18.0467 12.914 18.0261C12.8866 18.0055 12.8591 18.0055 12.8248 17.9986C12.7973 18.1084 12.7699 18.2251 12.7425 18.3349C12.7356 18.3555 12.7287 18.376 12.7356 18.3966C12.7493 18.4103 12.7699 18.4241 12.7905 18.4378C12.7219 18.4241 12.6601 18.4103 12.5983 18.3898C12.6189 18.3898 12.6395 18.3898 12.6601 18.376C12.6738 18.3555 12.6807 18.3349 12.6876 18.3211C12.715 18.2045 12.7424 18.0947 12.7768 17.9781C12.7493 17.9712 12.715 17.9643 12.6807 17.9643C12.6464 17.9781 12.6327 18.0124 12.6052 18.0329Z" fill="#7A3F28"/>
<path d="M17.285 17.9781C17.4017 17.9643 17.5183 17.9437 17.6281 17.93C17.635 17.9712 17.6418 18.0124 17.6487 18.0535C17.635 18.0329 17.6212 17.9986 17.5938 17.9849C17.5595 17.9712 17.5252 17.9849 17.4909 17.9849C17.5114 18.1084 17.5252 18.2388 17.5526 18.3623C17.5595 18.3966 17.6006 18.3966 17.6281 18.4035C17.5663 18.4172 17.4977 18.4309 17.4291 18.4309C17.4497 18.4172 17.4703 18.4103 17.484 18.3966C17.4909 18.3692 17.484 18.3417 17.4771 18.3211C17.4634 18.2114 17.4428 18.1016 17.4291 17.9918C17.3948 17.9986 17.3673 17.9986 17.3399 18.0124C17.3124 18.0261 17.3125 18.0673 17.3056 18.0878H17.2919C17.2919 18.0535 17.285 18.0124 17.285 17.9781Z" fill="#7A3F28"/>
<path d="M12.9963 18.0055C13.0581 18.0192 13.1198 18.0329 13.1816 18.0535C13.161 18.0604 13.1404 18.0604 13.1267 18.0673C13.113 18.1016 13.1199 18.1359 13.1267 18.1702C13.1404 18.2525 13.1473 18.3417 13.161 18.4241C13.2296 18.328 13.2983 18.2319 13.36 18.1359C13.3463 18.1222 13.3326 18.1016 13.312 18.0878C13.36 18.0947 13.408 18.1084 13.4561 18.129C13.4286 18.1427 13.3943 18.1496 13.3737 18.177C13.3257 18.2457 13.2777 18.3211 13.2228 18.3966C13.1885 18.4515 13.1541 18.5064 13.113 18.5544C13.0924 18.3966 13.0718 18.2457 13.0512 18.0947C13.0444 18.0467 13.0169 18.0329 12.9963 18.0055Z" fill="#7A3F28"/>
<path d="M16.8802 18.0398C16.9556 18.0261 17.038 18.0124 17.1135 18.0055C17.1889 17.9986 17.2507 18.0741 17.237 18.1427C17.2301 18.1908 17.1889 18.2182 17.1615 18.2457C17.1958 18.2937 17.237 18.3349 17.2781 18.3829C17.3056 18.4172 17.3468 18.4241 17.3879 18.4309C17.3468 18.4447 17.3124 18.4515 17.2713 18.4515C17.2095 18.3966 17.1546 18.3211 17.0997 18.2594C17.086 18.2594 17.0723 18.2594 17.0586 18.2594C17.0654 18.3211 17.0654 18.3829 17.086 18.4378C17.1066 18.4515 17.1272 18.4515 17.1478 18.4584C17.086 18.479 17.0174 18.4858 16.9556 18.4858C16.9694 18.4721 16.9899 18.4652 17.0105 18.4515C17.0174 18.4241 17.0105 18.3966 17.0105 18.3692C16.9968 18.2868 16.9831 18.2114 16.9762 18.129C16.9694 18.1016 16.9694 18.0741 16.9556 18.0467C16.9213 18.0535 16.9007 18.0467 16.8802 18.0398Z" fill="#7A3F28"/>
<path d="M17.0105 18.0535C17.0448 18.0467 17.086 18.0329 17.1135 18.0535C17.1615 18.0878 17.1683 18.1702 17.1272 18.2114C17.1066 18.2319 17.0723 18.2388 17.038 18.2457C17.0311 18.1839 17.0174 18.1153 17.0105 18.0535Z" fill="#D1BF91"/>
<path d="M16.6125 18.0673C16.6606 18.0467 16.7155 18.0535 16.7635 18.081C16.9076 18.1565 16.935 18.376 16.8252 18.4927C16.7909 18.5339 16.736 18.5544 16.688 18.5544C16.6194 18.5544 16.5576 18.5133 16.5165 18.4584C16.4753 18.3966 16.4616 18.3143 16.4753 18.2388C16.489 18.1633 16.537 18.0947 16.6125 18.0673Z" fill="#7A3F28"/>
<path d="M16.6331 18.0947C16.6743 18.081 16.7155 18.0878 16.7429 18.1221C16.7909 18.1702 16.8047 18.2388 16.8184 18.3006C16.8253 18.3623 16.8252 18.4378 16.7841 18.4858C16.7429 18.5339 16.6606 18.5407 16.6194 18.4927C16.5645 18.4309 16.5439 18.3486 16.5439 18.2662C16.537 18.2045 16.5576 18.1153 16.6331 18.0947Z" fill="#D1BF91"/>
<path d="M16.0636 18.1633C16.1665 18.1359 16.2763 18.129 16.3861 18.1153C16.393 18.1496 16.3998 18.1908 16.3998 18.2251C16.3792 18.2045 16.3655 18.1702 16.3381 18.1565C16.29 18.1496 16.242 18.1633 16.194 18.1702C16.2008 18.2319 16.2145 18.2868 16.2214 18.3486C16.2557 18.3417 16.29 18.3417 16.3243 18.3211C16.3381 18.3006 16.3381 18.28 16.3449 18.2525C16.3655 18.3074 16.3655 18.3692 16.3724 18.4309C16.3586 18.4103 16.3518 18.3898 16.3381 18.3692C16.3037 18.3555 16.2626 18.3692 16.2283 18.376C16.242 18.4309 16.242 18.4927 16.2557 18.5544C16.2626 18.5888 16.3038 18.5819 16.3243 18.5888C16.2626 18.6093 16.194 18.6093 16.1253 18.6162C16.1459 18.6025 16.1734 18.5956 16.1802 18.575C16.1802 18.527 16.1665 18.4721 16.1665 18.4241C16.1528 18.3486 16.1459 18.28 16.1322 18.2045C16.1391 18.1702 16.091 18.1702 16.0636 18.1633Z" fill="#7A3F28"/>
<path d="M13.4629 18.3074C13.4355 18.2388 13.4904 18.1496 13.5659 18.1427C13.6208 18.1359 13.6619 18.1702 13.7031 18.1976C13.7168 18.1908 13.7237 18.177 13.7374 18.1702C13.7237 18.2319 13.7168 18.2937 13.6894 18.3486C13.6825 18.3006 13.6894 18.2525 13.6619 18.2114C13.6345 18.177 13.5796 18.1565 13.5453 18.1839C13.5178 18.2045 13.5041 18.2388 13.5247 18.2731C13.5659 18.3417 13.6413 18.3829 13.6757 18.4584C13.71 18.5339 13.6551 18.6299 13.5727 18.6368C13.511 18.6437 13.4561 18.6025 13.4149 18.575C13.4012 18.5819 13.3875 18.5956 13.3806 18.6025C13.3875 18.5407 13.4081 18.4858 13.4286 18.4241C13.4355 18.4721 13.4286 18.5339 13.4698 18.5682C13.5041 18.6025 13.5865 18.6162 13.6139 18.5613C13.6345 18.5201 13.6208 18.479 13.5933 18.4515C13.5453 18.4172 13.4835 18.376 13.4629 18.3074Z" fill="#7A3F28"/>
<path d="M14.7461 18.2045C14.801 18.1976 14.8559 18.1976 14.9108 18.2045C14.8902 18.2114 14.8696 18.2182 14.8559 18.2319C14.8422 18.28 14.849 18.328 14.849 18.376C14.849 18.479 14.849 18.5819 14.849 18.6848C14.801 18.6437 14.7667 18.5888 14.7324 18.5407C14.6706 18.4652 14.6157 18.3829 14.554 18.3074C14.554 18.3966 14.554 18.479 14.554 18.5682C14.554 18.5888 14.554 18.6162 14.5677 18.6437C14.5814 18.6574 14.6089 18.6642 14.6295 18.6711C14.5746 18.678 14.5197 18.678 14.4579 18.6711C14.4785 18.6574 14.5197 18.6574 14.5265 18.6231C14.5334 18.527 14.5265 18.4309 14.5334 18.3349C14.5334 18.3074 14.5403 18.2731 14.5197 18.2457C14.5059 18.2251 14.4853 18.2182 14.4648 18.2182C14.4648 18.2114 14.4579 18.2045 14.4579 18.1976C14.4922 18.1976 14.5334 18.1976 14.5677 18.1976C14.6569 18.3143 14.7461 18.4309 14.8353 18.5476C14.8353 18.4447 14.8422 18.3486 14.8284 18.2457C14.8079 18.2114 14.7667 18.2114 14.7461 18.2045Z" fill="#7A3F28"/>
<path d="M14.9176 18.1976C14.9863 18.1908 15.0549 18.1908 15.1235 18.1976C15.1029 18.2045 15.0823 18.2114 15.0686 18.2251C15.0549 18.2457 15.0618 18.2663 15.0618 18.2868C15.0618 18.376 15.0618 18.4652 15.0618 18.5544C15.0618 18.5819 15.0617 18.6093 15.0686 18.6299C15.0823 18.6437 15.1098 18.6505 15.1304 18.6642C15.0617 18.6642 15 18.6642 14.9314 18.6642C14.952 18.6505 14.9726 18.6505 14.9931 18.6368C15.0069 18.5682 15 18.4996 15 18.4378C15 18.3692 15.0069 18.2937 14.9931 18.2251C14.9588 18.2182 14.9382 18.2114 14.9176 18.1976Z" fill="#7A3F28"/>
<path d="M15.151 18.1976C15.2745 18.1976 15.3911 18.1976 15.5146 18.1976C15.5146 18.2319 15.5215 18.2663 15.5215 18.3074C15.5215 18.3074 15.5146 18.3143 15.5078 18.3143C15.5009 18.2868 15.4941 18.2525 15.4666 18.2388C15.4323 18.2251 15.398 18.2319 15.3705 18.2319C15.3705 18.3417 15.3705 18.4515 15.3705 18.5613C15.3705 18.5888 15.3705 18.6162 15.3774 18.6437C15.3911 18.6574 15.4117 18.6574 15.4323 18.6642V18.6711C15.3637 18.6711 15.3019 18.6711 15.2333 18.6711C15.2608 18.6574 15.3019 18.6505 15.3019 18.6162C15.3088 18.4858 15.3019 18.3623 15.3019 18.2319C15.2676 18.2319 15.2264 18.2251 15.1921 18.2457C15.1715 18.2663 15.1647 18.2937 15.151 18.3211C15.151 18.2731 15.151 18.2388 15.151 18.1976Z" fill="#7A3F28"/>
<path d="M15.5421 18.6093C15.6038 18.4652 15.6519 18.3143 15.7205 18.1702C15.7891 18.3074 15.8303 18.4515 15.892 18.5956C15.9058 18.6299 15.9332 18.6437 15.9607 18.6642C15.8989 18.6642 15.8371 18.6642 15.7754 18.6642C15.7891 18.6505 15.8097 18.6437 15.8234 18.6299C15.8234 18.5888 15.796 18.5476 15.7823 18.5064C15.7274 18.5064 15.6725 18.5064 15.6176 18.5064C15.6039 18.5476 15.5833 18.5819 15.5764 18.6299C15.597 18.6437 15.6176 18.6505 15.6382 18.6642C15.5833 18.6642 15.5352 18.6642 15.4803 18.6642C15.5078 18.6505 15.5352 18.6368 15.5421 18.6093Z" fill="#7A3F28"/>
<path d="M15.6382 18.479C15.6587 18.4172 15.6862 18.3555 15.7068 18.3006C15.7273 18.3623 15.7548 18.4241 15.7754 18.4858C15.7273 18.4858 15.6793 18.479 15.6382 18.479Z" fill="#D1BF91"/>
<path d="M14.9245 10.8211C14.9108 10.8211 14.8971 10.8211 14.8834 10.8211C14.8902 10.9035 14.8765 10.9858 14.8353 11.0544C14.7942 11.1368 14.7118 11.2054 14.6157 11.1985C14.5471 11.1985 14.4854 11.1505 14.4785 11.0819C14.4717 11.0201 14.506 10.9309 14.5746 10.9241C14.602 10.9378 14.602 10.979 14.6157 11.0133C14.6295 10.9927 14.6363 10.9858 14.6432 10.9652C14.6501 10.9172 14.5952 10.876 14.554 10.8898C14.4922 10.9035 14.4511 10.9652 14.4373 11.027C14.4236 11.0956 14.4579 11.178 14.5197 11.2123C14.5883 11.2534 14.6775 11.2466 14.7461 11.2054C14.8765 11.1299 14.9451 10.9721 14.9245 10.8211Z" fill="#7A3F28"/>
<path d="M15 10.032C15.0274 10.0183 15.2127 9.99772 15.3568 9.94969C15.5009 9.8948 15.6793 9.81245 15.7068 9.79873C15.7891 9.76442 15.892 9.75756 15.9744 9.80559C16.0293 9.83304 16.0704 9.8948 16.0979 9.94969C16.1322 10.0526 16.1185 10.1624 16.091 10.2653C16.0361 10.4643 15.9401 10.6565 15.7754 10.7937C15.7342 10.828 15.693 10.8692 15.6725 10.9241C15.6587 10.9515 15.6587 10.9858 15.6793 10.9996C15.7205 11.0339 15.7823 11.027 15.8303 11.0339C16.1116 11.0682 16.3929 11.0956 16.6811 11.1093C16.9144 11.1162 17.1477 11.1231 17.381 11.0613C17.3879 11.0682 17.3948 11.075 17.3948 11.0819C17.4634 11.0682 17.532 11.0407 17.5869 10.9996C17.7104 10.9172 17.7928 10.7594 17.7585 10.6153C17.731 10.4781 17.6144 10.3683 17.4771 10.3614C17.3262 10.3477 17.1752 10.4643 17.1615 10.6153C17.1478 10.7182 17.2301 10.828 17.333 10.8349C17.4291 10.8486 17.5389 10.7663 17.532 10.6702C17.532 10.6016 17.4634 10.5398 17.3948 10.5604C17.3468 10.5673 17.2987 10.6359 17.3399 10.677C17.3605 10.6976 17.3879 10.6839 17.4085 10.6702C17.3948 10.6633 17.3536 10.6633 17.3673 10.6359C17.3879 10.6016 17.4497 10.6427 17.4291 10.677C17.4085 10.7388 17.3193 10.7251 17.2987 10.6702C17.2644 10.5947 17.3467 10.5124 17.4222 10.5192C17.5046 10.5192 17.5663 10.6153 17.5526 10.6976C17.5389 10.8006 17.4291 10.876 17.3262 10.8623C17.2232 10.8555 17.134 10.7663 17.1203 10.6633C17.1066 10.581 17.1409 10.4918 17.1958 10.43C17.2781 10.334 17.4222 10.2928 17.5457 10.3271C17.6624 10.3614 17.7516 10.4643 17.779 10.581C17.8065 10.6908 17.779 10.8006 17.7173 10.8898C17.6487 10.9927 17.5389 11.0613 17.4222 11.0888C17.3124 11.1368 17.1889 11.1437 17.0723 11.1505C16.6263 11.178 16.1802 11.1162 15.7411 11.0682C15.693 11.0613 15.6381 11.0476 15.6038 11.0064C15.5695 10.9584 15.5833 10.8898 15.6107 10.8417C15.6587 10.7594 15.7411 10.7114 15.8028 10.6427C15.9195 10.5055 15.995 10.3271 16.0293 10.1487C16.043 10.0595 16.043 9.94969 15.9744 9.88107C15.9195 9.81932 15.8234 9.81246 15.7479 9.83304C15.6931 9.84676 15.6519 9.88107 15.6038 9.90166C15.4391 9.97714 15.1578 10.0595 14.9794 10.0801C14.801 10.0595 14.5197 9.97714 14.355 9.90166C14.3069 9.88107 14.2658 9.84676 14.2109 9.83304C14.1354 9.81246 14.0393 9.81932 13.9913 9.88107C13.9227 9.94969 13.9158 10.0595 13.9364 10.1487C13.9707 10.3271 14.0462 10.4986 14.1628 10.6427C14.2246 10.7114 14.3069 10.7594 14.355 10.8417C14.3824 10.8898 14.3961 10.9584 14.3618 11.0064C14.3275 11.0476 14.2726 11.0682 14.2246 11.0682C13.7786 11.1162 13.3394 11.178 12.8934 11.1505C12.7768 11.1437 12.6532 11.1368 12.5435 11.0888C12.4268 11.0613 12.317 10.9858 12.2484 10.8898C12.1866 10.8006 12.1661 10.6839 12.1866 10.581C12.2141 10.4643 12.3033 10.3614 12.4131 10.3271C12.5366 10.2859 12.6807 10.3271 12.763 10.43C12.8179 10.4918 12.8522 10.5741 12.8385 10.6633C12.8248 10.7663 12.7356 10.8555 12.6327 10.8623C12.5297 10.876 12.4199 10.8006 12.4062 10.6976C12.3856 10.6153 12.4474 10.5261 12.5366 10.5192C12.6121 10.5124 12.6944 10.5947 12.6601 10.6702C12.6395 10.7251 12.5503 10.7319 12.5297 10.677C12.5092 10.6427 12.5709 10.6016 12.5915 10.6359C12.6121 10.6633 12.5709 10.6633 12.5572 10.6702C12.5778 10.6839 12.6052 10.6976 12.6258 10.677C12.667 10.6359 12.6258 10.5673 12.5709 10.5604C12.5023 10.5398 12.4337 10.6016 12.4337 10.6702C12.4337 10.7663 12.5366 10.8486 12.6327 10.8349C12.7356 10.828 12.8179 10.7182 12.8042 10.6153C12.7905 10.4575 12.6395 10.3477 12.4886 10.3614C12.3513 10.3683 12.2347 10.4849 12.2072 10.6153C12.1798 10.7663 12.2553 10.9172 12.3788 10.9996C12.4405 11.0407 12.5091 11.0682 12.5778 11.0819C12.5846 11.075 12.5915 11.0682 12.5915 11.0613C12.8179 11.1162 13.0581 11.1093 13.2914 11.1093C13.5727 11.0956 13.8541 11.0613 14.1354 11.0339C14.1834 11.027 14.2452 11.0339 14.2864 10.9996C14.307 10.979 14.3069 10.9447 14.2932 10.9241C14.2726 10.8692 14.2315 10.828 14.1834 10.7937C14.0256 10.6565 13.9227 10.4643 13.8678 10.2653C13.8403 10.1624 13.8266 10.0526 13.8609 9.94969C13.8815 9.88793 13.9296 9.83304 13.9844 9.80559C14.0668 9.76442 14.1697 9.76442 14.252 9.79873C14.2726 9.81245 14.4167 9.88793 14.554 9.93597C14.7735 9.99772 14.9657 10.032 15 10.032Z" fill="#7A3F28"/>
<path d="M11.6377 16.9968C11.5073 16.8802 11.322 16.8253 11.1505 16.839C10.9995 16.8527 10.8623 16.9282 10.7456 17.0311C10.6084 17.1546 10.4986 17.3056 10.4643 17.4909C10.4506 17.6212 10.4574 17.7516 10.4986 17.8751C10.5672 18.0741 10.7045 18.2388 10.8554 18.3829C10.9515 18.479 11.0613 18.5544 11.1779 18.6231C11.3975 18.7397 11.6308 18.8015 11.871 18.8426C12.1386 18.8907 12.4131 18.8975 12.6807 18.9044C12.914 18.9113 13.1473 18.9113 13.3806 18.9113C13.559 18.9113 13.7374 18.9593 13.8952 19.0348C14.0599 19.1171 14.2177 19.2269 14.3138 19.3916C14.3344 19.4053 14.3481 19.419 14.3618 19.4328C14.4099 19.5288 14.4373 19.6386 14.4099 19.7484C14.3893 19.8513 14.3275 19.9474 14.2315 19.9954C14.1628 20.0366 14.0874 20.0435 14.0119 20.0297C13.9021 20.0092 13.8129 19.92 13.7854 19.8102C13.758 19.7004 13.7923 19.5631 13.8952 19.5082C13.9776 19.4602 14.0805 19.4739 14.1423 19.5494C14.204 19.618 14.204 19.7484 14.1217 19.8033C14.0668 19.8376 13.9844 19.8239 13.957 19.7621C13.9364 19.7141 13.957 19.6523 14.0119 19.6523C14.0462 19.6523 14.0531 19.6798 14.0599 19.7072C14.0462 19.6935 14.0325 19.6867 14.0187 19.6798C14.0119 19.6935 13.9982 19.7278 14.0187 19.7347C14.0599 19.7621 14.1011 19.7072 14.0805 19.6661C14.0599 19.6112 13.9844 19.6043 13.9501 19.6455C13.8952 19.7072 13.9227 19.817 13.9982 19.8445C14.0736 19.8788 14.1628 19.8445 14.1972 19.7759C14.2452 19.6798 14.2109 19.5563 14.1285 19.4945C14.0256 19.4259 13.8815 19.4533 13.806 19.5494C13.7031 19.6798 13.7306 19.8856 13.8541 19.9886C13.9501 20.0778 14.0942 20.0984 14.2109 20.0435C14.3001 20.0023 14.3687 19.9337 14.4099 19.8445C14.4648 19.7141 14.4579 19.5563 14.3893 19.4328C14.3687 19.3985 14.3687 19.3573 14.3481 19.323C14.3138 19.2749 14.2726 19.2338 14.2383 19.1857C14.3618 19.1789 14.4991 19.22 14.5608 19.323C14.6363 19.4465 14.65 19.522 14.6912 19.6386C14.7187 19.7278 14.7324 19.8239 14.7941 19.8925C14.8216 19.9268 14.8696 19.9611 14.9176 19.9474C14.9657 19.9268 14.9725 19.8925 14.9725 19.8239C14.9725 19.6867 14.9588 19.5426 14.8971 19.419C14.8353 19.2955 14.7804 19.1995 14.6843 19.124C14.5334 19.0142 14.4236 18.9318 14.252 18.8632C13.9433 18.7466 13.6208 18.6711 13.2914 18.6505C12.9003 18.6231 12.5091 18.6368 12.1112 18.6368C11.7269 18.6368 11.3564 18.4721 11.0887 18.2045C10.9652 18.081 10.8623 17.9437 10.8005 17.7859C10.7388 17.5801 10.8623 17.333 11.0682 17.2781C11.1505 17.2507 11.2397 17.2713 11.3083 17.3262C11.2809 17.3468 11.2397 17.3673 11.226 17.4017C11.1985 17.4771 11.2122 17.5663 11.2671 17.6281C11.322 17.6967 11.425 17.731 11.5142 17.7104C11.5965 17.6967 11.672 17.6487 11.7132 17.5801C11.7818 17.484 11.7886 17.3605 11.7612 17.2507C11.7475 17.1958 11.7132 17.1478 11.6926 17.0929C11.6857 17.0448 11.6651 17.0174 11.6377 16.9968Z" fill="#7A3F28"/>
<path d="M11.6446 17.0929C11.5279 16.9625 11.3495 16.8939 11.1711 16.9007C11.0476 16.9007 10.9309 16.9625 10.8349 17.038C10.7182 17.1272 10.629 17.237 10.5672 17.3673C10.5123 17.4909 10.5123 17.635 10.5398 17.7722C10.5878 17.9849 10.7251 18.1565 10.876 18.3074C10.9652 18.4035 11.075 18.479 11.1848 18.5407C11.3838 18.6505 11.5965 18.7123 11.8161 18.7534C12.1112 18.8083 12.4062 18.8152 12.7081 18.8289C12.8591 18.8358 13.0169 18.8289 13.1679 18.8358C13.3051 18.8358 13.4424 18.8289 13.5796 18.8564C13.7923 18.8975 13.9982 18.9936 14.1628 19.124C14.2726 19.0897 14.3893 19.1308 14.4853 19.1857C14.5951 19.2544 14.6295 19.3504 14.6843 19.4671C14.7255 19.5494 14.753 19.6318 14.7804 19.7278C14.801 19.7896 14.8079 19.92 14.8696 19.8994C14.9657 19.8651 14.9176 19.6935 14.8971 19.6043C14.8696 19.5014 14.8422 19.3916 14.7736 19.3024C14.6844 19.1926 14.6294 19.1103 14.5059 19.0416C14.2658 18.9113 13.9982 18.8289 13.7306 18.7672C13.3189 18.6711 12.8866 18.6848 12.4611 18.6848C12.3033 18.6848 12.1455 18.6917 11.9876 18.678C11.5073 18.6368 11.0476 18.3555 10.8074 17.9369C10.7662 17.8614 10.7182 17.7859 10.7182 17.6967C10.7045 17.5389 10.7662 17.3811 10.8897 17.2781C10.979 17.2027 11.0956 17.1615 11.2123 17.1889C11.2946 17.2027 11.3632 17.2576 11.4113 17.3193C11.4113 17.3536 11.4318 17.3948 11.3975 17.4154C11.3907 17.3948 11.3907 17.3811 11.3838 17.3673C11.3769 17.3673 11.3701 17.3673 11.3632 17.3673C11.3495 17.3605 11.3289 17.3399 11.3083 17.3536C11.2603 17.3673 11.2397 17.4222 11.2466 17.4703C11.2466 17.5732 11.3358 17.6624 11.4387 17.6761C11.5279 17.6899 11.6171 17.6487 11.672 17.5801C11.7749 17.4566 11.7612 17.2713 11.6789 17.134C11.6789 17.1066 11.6583 17.1066 11.6446 17.0929Z" fill="#D1BF91"/>
<path d="M14.9588 11.5622C13.9913 11.5622 13.0169 11.5622 12.0425 11.5622C12.0425 12.1386 12.0425 12.7082 12.0425 13.2845C12.0494 13.6894 12.0425 14.0942 12.0494 14.4922C12.914 14.4922 13.7786 14.4922 14.6432 14.4922C14.7461 14.4854 14.8559 14.4991 14.9588 14.4785C14.9588 13.511 14.9588 12.5366 14.9588 11.5622Z" fill="#7A3F28"/>
<path d="M14.9314 14.6295C14.355 14.6295 13.7786 14.6295 13.2022 14.6226C12.8179 14.6226 12.4337 14.6157 12.0494 14.6157C12.0288 14.8971 12.0426 15.1853 12.0357 15.4666C12.0357 15.8097 12.0357 16.1528 12.0357 16.4959C12.0357 16.5782 12.0288 16.6606 12.0631 16.7429C12.118 16.8733 12.2209 16.9831 12.3239 17.0791C12.4474 17.1821 12.5778 17.2713 12.7219 17.333C12.8111 17.3742 12.914 17.3948 13.0101 17.3879C13.511 17.3742 14.005 17.3468 14.5059 17.3262C14.5677 17.3193 14.6363 17.3193 14.6981 17.3536C14.7598 17.3811 14.8079 17.4291 14.8628 17.4703C14.8834 17.4909 14.9108 17.484 14.9382 17.484C14.9451 17.1752 14.9382 16.8664 14.9451 16.5508C14.9314 15.8989 14.9314 15.2676 14.9314 14.6295Z" fill="#7A3F28"/>
<path d="M12.5023 11.6446C13.0993 11.6446 13.6962 11.6377 14.2932 11.6377C14.4922 11.6308 14.6981 11.6308 14.8971 11.6308C14.8971 12.4886 14.8971 13.3394 14.8971 14.1972C14.8902 14.2727 14.8902 14.3481 14.8971 14.4236C14.6363 14.4305 14.3824 14.4236 14.1217 14.4305C13.4492 14.4305 12.7836 14.4305 12.1112 14.4305C12.1112 13.8953 12.1043 13.3532 12.1043 12.8111C12.0974 12.42 12.0974 12.0357 12.0974 11.6446C12.2347 11.6514 12.3651 11.6377 12.5023 11.6446Z" fill="#D81C3F"/>
<path d="M14.2383 11.7338C14.3275 11.672 14.4373 11.6514 14.5334 11.6652C14.6981 11.6857 14.8422 11.8367 14.849 12.0014C14.849 12.0837 14.8147 12.1661 14.7461 12.2141C14.6843 12.269 14.5952 12.2964 14.5197 12.3102C14.5059 12.2621 14.4991 12.2072 14.4922 12.1592C14.5608 12.1386 14.65 12.118 14.6844 12.0426C14.7187 11.9465 14.6363 11.8504 14.554 11.8161C14.4716 11.7955 14.3687 11.8024 14.307 11.8641C14.2658 11.9053 14.2726 11.9671 14.2864 12.0151C14.307 12.118 14.3207 12.2347 14.2726 12.3308C14.2452 12.3925 14.1766 12.4268 14.1285 12.4748C14.0942 12.4337 14.0599 12.3994 14.0256 12.3582C14.0668 12.317 14.1285 12.2896 14.1423 12.2278C14.1628 12.1455 14.1354 12.07 14.1217 11.9877C14.1148 11.8985 14.156 11.7955 14.2383 11.7338Z" fill="#FBE015"/>
<path d="M13.4012 11.8985C13.4355 11.8573 13.4767 11.8161 13.511 11.7749C13.6963 11.9671 13.8678 12.1661 14.0393 12.3651C14.0737 12.4062 14.108 12.4405 14.1423 12.4817C14.1903 12.5366 14.2383 12.5915 14.2864 12.6464C14.3276 12.6944 14.3481 12.763 14.3275 12.8248C14.1766 13.1336 14.0531 13.4492 13.8952 13.7512C13.8609 13.7512 13.8266 13.7512 13.7923 13.7512C13.7855 13.8472 13.7717 13.957 13.8129 14.0531C13.8404 14.1286 13.909 14.1835 13.9913 14.1835C14.1011 14.1903 14.2178 14.1148 14.2315 14.005C14.2452 13.8953 14.2452 13.7717 14.3001 13.6688C14.3756 13.5316 14.5746 13.4767 14.7118 13.5522C14.8559 13.6276 14.9314 13.8266 14.849 13.9707C14.7941 14.0668 14.6844 14.1217 14.5746 14.1217C14.5746 14.0668 14.5677 14.0119 14.5609 13.957C14.6157 13.9501 14.6844 13.9364 14.7118 13.8815C14.7461 13.7855 14.6569 13.6688 14.554 13.6825C14.5059 13.6894 14.4648 13.71 14.4442 13.758C14.3962 13.8747 14.4236 14.0119 14.3756 14.1286C14.2864 14.307 14.0462 14.403 13.8609 14.3138C13.7512 14.2658 13.6757 14.156 13.6482 14.0394C13.6208 13.9433 13.6276 13.8404 13.6345 13.7443C13.559 13.7512 13.4835 13.7443 13.4012 13.7512C13.4012 13.8198 13.4149 13.8884 13.4081 13.957C13.3943 14.0874 13.3326 14.2109 13.2228 14.2864C13.065 14.3893 12.8385 14.3413 12.715 14.1972C12.6944 14.1697 12.6738 14.1423 12.6601 14.108V14.0942C12.7013 14.0462 12.7493 13.9982 12.7905 13.9501C12.7973 13.9913 12.7974 14.0394 12.8317 14.0805C12.8797 14.1423 12.9552 14.1766 13.0307 14.1766C13.1061 14.1766 13.1747 14.1354 13.2022 14.0668C13.2571 13.9707 13.2365 13.8609 13.2365 13.758C13.2022 13.758 13.1679 13.758 13.1336 13.758C13.113 13.7168 13.0993 13.6757 13.0787 13.6414C13.0512 13.5933 13.0307 13.5384 13.0101 13.4904C12.9277 13.3051 12.8385 13.113 12.7493 12.9277C12.7356 12.8934 12.7081 12.8591 12.7081 12.8248C12.7081 12.7836 12.7081 12.7493 12.7287 12.715C12.7425 12.6738 12.7768 12.6533 12.8042 12.6189C12.9964 12.3788 13.1953 12.1386 13.4012 11.8985Z" fill="white"/>
<path d="M12.9277 12.7974C13.1061 12.5641 13.2845 12.3308 13.4629 12.0974C13.4629 12.5778 13.4629 13.0512 13.4629 13.5316C13.4698 13.5727 13.4218 13.6002 13.3806 13.6002C13.2845 13.6071 13.2022 13.5384 13.1748 13.4492C13.0787 13.2365 13.0032 13.0169 12.9277 12.7974Z" fill="#D81C3F"/>
<path d="M13.559 12.0974C13.7374 12.3308 13.9158 12.5641 14.0942 12.7974C14.0256 12.9895 13.9639 13.1816 13.8884 13.3669C13.8541 13.4286 13.8472 13.4973 13.7923 13.5453C13.7443 13.5933 13.6688 13.6208 13.607 13.6002C13.5796 13.5933 13.5522 13.5659 13.559 13.5316C13.559 13.0581 13.559 12.5778 13.559 12.0974Z" fill="#D81C3F"/>
<path d="M12.9826 12.7836C13.1267 12.5915 13.2777 12.4062 13.4218 12.2141C13.4218 12.6395 13.4218 13.065 13.4218 13.4973C13.4218 13.5179 13.4218 13.5384 13.4149 13.5522C13.3463 13.5796 13.264 13.5384 13.2296 13.4698C13.1336 13.264 13.065 13.0512 12.9895 12.8385C12.9758 12.8248 12.9689 12.8042 12.9826 12.7836Z" fill="#FBE015"/>
<path d="M13.6002 12.221C13.7511 12.42 13.9021 12.6121 14.0531 12.8111C13.9707 13.0375 13.8952 13.264 13.7923 13.4835C13.758 13.5522 13.6757 13.5865 13.6002 13.559C13.6002 13.113 13.6002 12.667 13.6002 12.221Z" fill="#FBE015"/>
<path d="M12.9964 13.4904C13.0238 13.5384 13.0375 13.5933 13.065 13.6414C12.9689 13.7443 12.8728 13.8541 12.7768 13.957C12.7356 14.005 12.6876 14.0531 12.6464 14.1011C12.5709 14.1903 12.4886 14.2727 12.4131 14.3619C12.3788 14.3207 12.3445 14.2795 12.3102 14.2452C12.3445 14.204 12.3856 14.1697 12.42 14.1286C12.4268 14.1148 12.4405 14.108 12.4474 14.0942C12.5023 14.0394 12.5572 13.9776 12.6052 13.9158C12.6533 13.8609 12.7013 13.8129 12.7493 13.758C12.8385 13.6688 12.914 13.5796 12.9964 13.4904Z" fill="#FBE015"/>
<path d="M12.2896 13.559C12.4131 13.4767 12.5915 13.511 12.6875 13.6208C12.7219 13.6619 12.7356 13.71 12.7562 13.7512C12.7081 13.806 12.6601 13.8541 12.6121 13.909C12.6052 13.8472 12.5983 13.7855 12.564 13.7306C12.516 13.6688 12.4199 13.6619 12.3582 13.71C12.3102 13.7512 12.2758 13.8335 12.317 13.8953C12.3445 13.9364 12.4062 13.9501 12.4542 13.957C12.4542 13.9982 12.4474 14.0462 12.4474 14.0874C12.4405 14.1011 12.4268 14.108 12.4199 14.1217C12.317 14.108 12.2141 14.0599 12.1661 13.9639C12.0974 13.8266 12.1592 13.6414 12.2896 13.559Z" fill="white"/>
<path d="M13.065 13.6414C13.0856 13.6825 13.0993 13.7237 13.1199 13.758C13.1542 13.758 13.1885 13.758 13.2228 13.758C13.2296 13.8609 13.2434 13.9776 13.1885 14.0668C13.1542 14.1286 13.0856 14.1697 13.0169 14.1766C12.9415 14.1766 12.866 14.1423 12.8179 14.0805C12.7905 14.0462 12.7836 13.9982 12.7768 13.9501C12.8797 13.8541 12.9689 13.7512 13.065 13.6414Z" fill="#D81C3F"/>
<path d="M12.365 13.7168C12.4199 13.662 12.5229 13.6757 12.5709 13.7374C12.6052 13.7855 12.6052 13.8541 12.6189 13.9158C12.564 13.9776 12.516 14.0325 12.4611 14.0942C12.4611 14.0531 12.4611 14.0119 12.468 13.9639C12.4199 13.957 12.3582 13.9433 12.3307 13.9021C12.2827 13.8404 12.317 13.758 12.365 13.7168Z" fill="#D81C3F"/>
<path d="M19.1583 10.8966C19.2132 10.9515 19.2475 11.0201 19.2475 11.0956C19.2475 11.2603 19.1652 11.4113 19.0485 11.5211C18.9799 11.5828 18.8975 11.624 18.8289 11.6857C18.6848 11.8092 18.5888 11.9808 18.575 12.1729C18.5682 12.2415 18.5888 12.3033 18.6162 12.3719C18.5956 12.3925 18.5682 12.4131 18.5682 12.4405C18.5682 12.4611 18.5887 12.4817 18.6025 12.4954C18.6093 12.468 18.6093 12.4337 18.6368 12.4131C18.6642 12.4405 18.6917 12.468 18.726 12.4954C18.7534 12.516 18.7466 12.5572 18.7466 12.5915C18.726 12.667 18.6436 12.7082 18.5682 12.6944C18.4515 12.6738 18.3692 12.5709 18.3417 12.4611C18.3212 12.4062 18.3417 12.3445 18.3349 12.2896C18.328 12.1592 18.3623 12.0288 18.4241 11.9122C18.4721 11.823 18.5338 11.7475 18.6025 11.672C18.7603 11.5142 18.9181 11.3564 19.0416 11.1711C19.0897 11.0819 19.1308 10.9927 19.1583 10.8966Z" fill="#D1BF91"/>
<path d="M15.0412 11.5622C16.0155 11.5622 16.9831 11.5622 17.9574 11.5622C17.9574 12.1386 17.9574 12.7082 17.9574 13.2845C17.9506 13.6894 17.9574 14.0942 17.9574 14.4922C17.0928 14.4922 16.2283 14.4922 15.3637 14.4922C15.2607 14.4854 15.1509 14.4991 15.048 14.4854C15.0412 13.511 15.0412 12.5366 15.0412 11.5622Z" fill="#7A3F28"/>
<path d="M15.1098 11.6308C15.199 11.6308 15.2951 11.6308 15.3843 11.6308C15.3843 12.5641 15.3843 13.4973 15.3843 14.4305C15.2882 14.4305 15.199 14.4305 15.1098 14.4305C15.1098 13.4973 15.1098 12.5641 15.1098 11.6308Z" fill="#FBE015"/>
<path d="M15.3842 11.6308C15.5832 11.624 15.7822 11.624 15.9881 11.6308C15.9881 12.5641 15.9881 13.4973 15.9881 14.4305C15.7891 14.4305 15.5901 14.4305 15.3842 14.4305C15.3842 13.4973 15.3842 12.5641 15.3842 11.6308Z" fill="#D81C3F"/>
<path d="M15.9881 11.6308C16.0636 11.6308 16.1322 11.6308 16.2077 11.6308C16.2077 12.5641 16.2077 13.4973 16.2077 14.4305C16.1322 14.4305 16.0567 14.4305 15.9881 14.4305C15.9881 13.4973 15.9881 12.5641 15.9881 11.6308Z" fill="#FBE015"/>
<path d="M16.2077 11.6308C16.4067 11.624 16.6057 11.6308 16.8115 11.6308C16.8115 12.5641 16.8115 13.4973 16.8115 14.4305C16.6125 14.4305 16.4135 14.4305 16.2077 14.4305C16.2077 13.4973 16.2077 12.5641 16.2077 11.6308Z" fill="#D81C3F"/>
<path d="M16.8115 11.6308C16.887 11.6308 16.9556 11.6308 17.0311 11.6308C17.0311 12.5641 17.0311 13.4973 17.0311 14.4305C16.9556 14.4305 16.8801 14.4305 16.8115 14.4305C16.8115 13.4973 16.8115 12.5641 16.8115 11.6308Z" fill="#FBE015"/>
<path d="M17.0311 11.6308C17.2301 11.6308 17.4291 11.6308 17.635 11.6308C17.635 12.5641 17.635 13.5041 17.635 14.4373C17.436 14.4373 17.237 14.4373 17.0311 14.4373C17.0311 13.4973 17.0311 12.5641 17.0311 11.6308Z" fill="#D81C3F"/>
<path d="M17.635 11.624C17.7242 11.624 17.8134 11.624 17.9026 11.624C17.9026 11.9053 17.9026 12.1798 17.9026 12.4611C17.8957 12.7974 17.9026 13.1267 17.8957 13.463C17.8957 13.7855 17.8957 14.108 17.8957 14.4305C17.8065 14.4305 17.7242 14.4305 17.635 14.4305C17.635 13.4973 17.635 12.5641 17.635 11.624Z" fill="#FBE015"/>
<path d="M18.973 12.5229C19.1926 12.4886 19.4259 12.5092 19.6249 12.6052C19.8033 12.6876 19.9405 12.8385 20.0229 13.0101C20.1807 13.3326 20.167 13.7306 20.0091 14.0531C19.9131 14.2452 19.7552 14.4099 19.5494 14.4922C19.4122 14.5128 19.2681 14.5128 19.124 14.4991C19.0828 14.4991 19.0416 14.506 19.0005 14.4854C18.925 14.4511 18.8563 14.3824 18.8426 14.307C18.8289 14.2452 18.8426 14.1766 18.8975 14.1423C18.9661 14.0942 19.0622 14.1148 19.1034 14.1835C19.1171 14.1972 19.1034 14.2178 19.0965 14.2383C19.0759 14.2383 19.0485 14.2452 19.0279 14.2521C19.0485 14.2727 19.0691 14.2864 19.0897 14.307C19.2269 14.3275 19.3778 14.3275 19.5082 14.2589C19.6523 14.1834 19.7347 14.0394 19.769 13.8884C19.8239 13.6757 19.8033 13.4492 19.7278 13.2434C19.6729 13.0924 19.57 12.9552 19.4259 12.8797C19.3573 12.8454 19.2818 12.8179 19.2063 12.8111C19.1514 12.8248 19.0965 12.8179 19.0416 12.8385C18.9318 12.866 18.8358 12.9415 18.8015 13.0444C18.7671 12.8797 18.7877 12.715 18.8289 12.5503C18.8838 12.5366 18.9318 12.5297 18.973 12.5229Z" fill="#D1BF91"/>
<path d="M18.9936 14.5883C19.0279 14.5677 19.0691 14.5609 19.1034 14.5609C19.2475 14.5746 19.3985 14.5814 19.5426 14.554C19.5974 14.6706 19.6249 14.8216 19.5426 14.9383C19.5494 14.8834 19.5494 14.8285 19.522 14.7804C19.4602 14.6775 19.3367 14.6432 19.2269 14.6638C19.1308 14.6775 19.0485 14.7255 18.973 14.7873C18.8289 14.9383 18.7534 15.1441 18.7328 15.35C18.7191 15.5284 18.726 15.7068 18.7809 15.8715C18.8358 16.043 18.9456 16.194 19.0828 16.3106C19.1514 16.3655 19.2269 16.4273 19.323 16.4547C19.4122 16.4959 19.5082 16.5096 19.6043 16.4822C19.6798 16.4616 19.7484 16.4204 19.7896 16.3449C19.8102 16.3106 19.8102 16.2695 19.817 16.2283C19.8994 16.3243 19.9405 16.4479 19.9199 16.5714C19.9062 16.6606 19.8513 16.7498 19.769 16.791C19.7072 16.8253 19.6318 16.839 19.5563 16.839C19.2338 16.791 18.9318 16.592 18.7534 16.3175C18.5544 16.0156 18.5201 15.6313 18.5819 15.2745C18.6231 15.0892 18.6985 14.9177 18.8015 14.7598C18.8495 14.705 18.9113 14.6363 18.9936 14.5883Z" fill="#D1BF91"/>
<path d="M15.0686 14.6295C15.645 14.6295 16.2214 14.6295 16.7978 14.6226C17.1821 14.6226 17.5663 14.6157 17.9506 14.6157C17.9712 14.8971 17.9575 15.1853 17.9643 15.4666C17.9643 15.8097 17.9643 16.1528 17.9643 16.4959C17.9643 16.5782 17.9712 16.6606 17.9369 16.7429C17.882 16.8733 17.7791 16.9831 17.6761 17.0791C17.5595 17.1821 17.4222 17.2713 17.2781 17.333C17.1889 17.3742 17.086 17.3948 16.9899 17.3879C16.489 17.3742 15.995 17.3468 15.5009 17.3262C15.4392 17.3193 15.3705 17.3193 15.3088 17.3536C15.247 17.3811 15.199 17.4291 15.1441 17.4703C15.1235 17.4909 15.0961 17.484 15.0686 17.484C15.0618 17.1752 15.0686 16.8664 15.0618 16.5508C15.0686 15.8989 15.0686 15.2676 15.0686 14.6295Z" fill="#7A3F28"/>
<path d="M15.1304 14.6912C16.0499 14.6844 16.9694 14.6844 17.8888 14.6775C17.8957 15.1853 17.8957 15.6862 17.8957 16.194C17.8957 16.3312 17.8957 16.4753 17.8957 16.6125C17.8957 16.7292 17.8202 16.8253 17.7447 16.9076C17.6349 17.0311 17.5046 17.134 17.3605 17.2164C17.2507 17.2713 17.134 17.3262 17.0037 17.3193C16.5096 17.3125 16.0156 17.2781 15.5215 17.2576C15.446 17.2576 15.3706 17.2507 15.2951 17.2781C15.2265 17.3056 15.1715 17.3468 15.1098 17.3948C15.1304 16.4959 15.1304 15.597 15.1304 14.6912Z" fill="#FBE015"/>
<path d="M19.0485 14.7804C19.124 14.7187 19.2269 14.6844 19.3298 14.705C19.4053 14.7187 19.4808 14.7667 19.5013 14.8422C19.5219 14.9108 19.4808 14.9863 19.4122 15.0069C19.371 15.0275 19.3092 15.0275 19.2818 14.9794C19.2886 14.952 19.3092 14.9314 19.3298 14.9039C19.3024 14.9039 19.2681 14.8971 19.2543 14.9314C19.2269 14.9657 19.2475 15 19.2612 15.0343C19.2269 15.0343 19.1926 15.0343 19.1583 15.0275C19.0553 15.1853 19.0485 15.3911 19.0759 15.5764C19.1034 15.748 19.1651 15.9264 19.2749 16.0636C19.3092 16.1116 19.3573 16.1459 19.3984 16.1802C19.419 16.1734 19.4396 16.1665 19.467 16.1528C19.4739 16.1802 19.4739 16.2146 19.5013 16.2283C19.5219 16.2489 19.5494 16.2351 19.57 16.2351C19.5562 16.2146 19.5357 16.2008 19.5151 16.1871C19.5151 16.1734 19.5082 16.1391 19.5357 16.1391C19.5974 16.1254 19.6592 16.1391 19.7072 16.1665C19.7415 16.1802 19.7484 16.2283 19.7484 16.2626C19.7484 16.3243 19.7003 16.3792 19.6523 16.4067C19.5494 16.4684 19.419 16.4616 19.323 16.4067C19.2818 16.3724 19.2337 16.3449 19.1926 16.3106C19.0553 16.2214 18.9387 16.091 18.8701 15.9332C18.7877 15.748 18.7671 15.5421 18.7877 15.3431C18.8015 15.1853 18.8495 15.0206 18.9455 14.8971C18.9867 14.8628 19.0348 14.8285 19.0485 14.7804Z" fill="#D1BF91"/>
<path d="M15.6176 14.9245C15.6313 14.9177 15.645 14.9177 15.6588 14.9245C15.6725 14.9314 15.6793 14.952 15.6862 14.9726C15.7479 14.9657 15.8166 14.9657 15.8783 14.9726C15.8852 14.9588 15.892 14.9314 15.9058 14.9245C15.9126 14.9245 15.9332 14.9245 15.9401 14.9383C15.9538 14.9588 15.9332 14.9863 15.9332 15.0069C15.9881 15.0275 16.0499 15.0549 16.1048 15.0618C16.194 15.0686 16.2832 15.048 16.3724 15.0549C16.4753 15.0686 16.5782 15.0618 16.6743 15.0618C16.7566 15.0618 16.839 15.0206 16.9213 15.0343C16.9625 15.0412 17.0037 15.0618 17.0311 15.0961C17.0654 15.1372 17.1203 15.1647 17.1615 15.199C17.2095 15.247 17.2164 15.3225 17.1821 15.3774C17.1615 15.4117 17.1203 15.4323 17.086 15.4529C17.0997 15.4872 17.1409 15.4941 17.1615 15.5215C17.1752 15.5627 17.1752 15.597 17.1821 15.6382C17.1889 15.7136 17.2027 15.7891 17.2095 15.8715C17.1889 15.8715 17.1752 15.8715 17.1546 15.8715C17.134 15.8989 17.1066 15.9195 17.0723 15.9264C17.0586 15.9126 17.038 15.9058 17.0174 15.8921C17.0174 15.8715 17.038 15.8577 17.0517 15.844C17.0929 15.8097 17.1135 15.7411 17.086 15.6862C17.0723 15.6587 17.0586 15.6244 17.0448 15.5901C17.0243 15.5627 16.9968 15.549 16.9625 15.5352C16.9213 15.5695 16.9694 15.6382 16.9419 15.6793C16.8664 15.7342 16.8047 15.8097 16.7292 15.8715C16.7223 15.8715 16.7086 15.8715 16.7017 15.8715C16.6812 15.9058 16.6469 15.9264 16.6057 15.9332C16.6057 15.9264 16.5988 15.9126 16.592 15.9058C16.5782 15.9058 16.5576 15.9058 16.5439 15.8989C16.5576 15.8646 16.5782 15.8234 16.6194 15.8166C16.6949 15.796 16.7361 15.7342 16.7704 15.6656C16.791 15.6313 16.7635 15.5901 16.7498 15.5558C16.7361 15.549 16.7292 15.549 16.7155 15.5421C16.7155 15.5352 16.7017 15.5215 16.7017 15.5146C16.6057 15.5352 16.5233 15.6039 16.4273 15.6176C16.4341 15.6862 16.4479 15.7548 16.4479 15.8303C16.4479 15.8509 16.4273 15.8509 16.4204 15.8646C16.4135 15.8577 16.4067 15.844 16.4067 15.8372C16.3998 15.8646 16.393 15.9058 16.3655 15.9264C16.3381 15.9332 16.3106 15.9332 16.2832 15.9332C16.2832 15.9264 16.2832 15.9126 16.2832 15.9058C16.2763 15.9058 16.2557 15.9058 16.2489 15.9058C16.2694 15.8509 16.3175 15.8166 16.3312 15.7548C16.3449 15.7136 16.3381 15.6725 16.3244 15.6313C16.2626 15.6244 16.2008 15.6244 16.1528 15.5833C16.1322 15.597 16.1116 15.6176 16.0979 15.6313C16.1391 15.645 16.1871 15.6519 16.2214 15.6656C16.2214 15.6725 16.2214 15.6862 16.2214 15.6931C16.2351 15.6999 16.2557 15.7068 16.2626 15.7274C16.2626 15.748 16.2557 15.7685 16.2489 15.7823C16.2351 15.796 16.2214 15.8028 16.2008 15.8166C16.1322 15.796 16.091 15.7205 16.0293 15.6931C16.0018 15.6793 15.9813 15.645 15.9744 15.6107C15.9744 15.5627 16.0018 15.5284 16.0224 15.4872C15.995 15.4598 15.9675 15.4254 15.9332 15.398C15.9401 15.4254 15.9538 15.4598 15.9607 15.4941C15.9538 15.4941 15.947 15.5078 15.9401 15.5078C15.9264 15.5215 15.9195 15.549 15.8989 15.5421C15.8852 15.5421 15.8783 15.5215 15.8646 15.5078C15.8509 15.5009 15.844 15.4941 15.8303 15.4941C15.8372 15.4666 15.8509 15.4392 15.8577 15.4117C15.8646 15.3843 15.8577 15.35 15.8509 15.3225C15.844 15.3157 15.8372 15.3088 15.8303 15.2951C15.796 15.3019 15.7548 15.3088 15.7274 15.3431C15.6999 15.3774 15.6519 15.3774 15.6107 15.3637C15.5833 15.35 15.5695 15.3294 15.5558 15.3088C15.5489 15.2951 15.5352 15.2882 15.5421 15.2745C15.5627 15.247 15.597 15.2265 15.6107 15.1921C15.6244 15.1647 15.6107 15.1372 15.6176 15.1098C15.6244 15.0824 15.645 15.0549 15.6519 15.0275C15.6382 15.0069 15.6176 14.9657 15.6176 14.9245Z" fill="#7A3F28"/>
<path d="M15.6382 14.9245C15.6656 14.952 15.6793 14.9863 15.6793 15.0206C15.645 15 15.6382 14.9657 15.6382 14.9245Z" fill="#D81C3F"/>
<path d="M15.8852 15.0343C15.8783 14.9931 15.8989 14.9588 15.9195 14.9383C15.9264 14.9726 15.9126 15.0069 15.8852 15.0343Z" fill="#D81C3F"/>
<path d="M15.693 14.9863C15.7479 14.9794 15.796 14.9726 15.8509 14.9863C15.8646 15.0069 15.8714 15.0275 15.8783 15.048C15.892 15.0343 15.9058 15.0275 15.9126 15.0206C15.9469 15.0412 16.0087 15.0412 16.0018 15.0961C16.0018 15.1853 15.9744 15.2745 15.9195 15.3431C15.892 15.3843 15.8715 15.3294 15.8509 15.3088C15.8715 15.2882 15.8852 15.2676 15.8989 15.247C15.8577 15.2882 15.796 15.3157 15.7342 15.3294C15.7274 15.3157 15.7205 15.3019 15.7205 15.2951C15.7205 15.3157 15.7205 15.3431 15.7205 15.3637C15.6862 15.3705 15.6519 15.3911 15.6244 15.3706C15.597 15.35 15.5833 15.3294 15.5627 15.3019C15.6038 15.2676 15.6313 15.2265 15.645 15.1716C15.6519 15.1716 15.6656 15.1647 15.6725 15.1647C15.6587 15.1578 15.6381 15.151 15.6244 15.151C15.6656 15.0892 15.6793 15.0412 15.693 14.9863Z" fill="#D81C3F"/>
<path d="M15.6999 15.0206C15.7342 15.0137 15.7685 15.0137 15.796 15.0412C15.7617 15.0412 15.7274 15.0343 15.6999 15.0206Z" fill="#7A3F28"/>
<path d="M16.6674 15.0824C16.7429 15.0824 16.8184 15.0549 16.8939 15.048C16.9145 15.0755 16.9419 15.1029 16.9762 15.1235C16.9625 15.1029 16.9419 15.0755 16.9282 15.0549C16.9968 15.0618 17.0311 15.1372 17.086 15.1647C17.1203 15.1921 17.1683 15.2196 17.1821 15.2608C17.2164 15.3431 17.1477 15.446 17.0585 15.4392C16.9968 15.4392 16.9282 15.4392 16.8664 15.4323C16.7841 15.4117 16.7292 15.3431 16.6537 15.3019C16.6262 15.2882 16.5988 15.3019 16.5714 15.3088C16.5302 15.3225 16.489 15.3019 16.4547 15.2882C16.489 15.2882 16.5302 15.2951 16.5645 15.2813C16.5302 15.2745 16.5027 15.2676 16.4684 15.2608C16.5027 15.2539 16.537 15.247 16.5714 15.247V15.2402C16.5302 15.247 16.489 15.247 16.4479 15.2402C16.489 15.2264 16.537 15.2196 16.5851 15.2196C16.688 15.247 16.736 15.3637 16.8458 15.3911C16.9076 15.4049 16.9762 15.4117 17.0448 15.4049C17.1066 15.398 17.1546 15.3294 17.1272 15.2676C17.0997 15.2059 17.038 15.1647 16.9694 15.1578C16.9556 15.2402 17.0105 15.3157 17.0448 15.3843C16.9625 15.3911 16.8733 15.3911 16.7978 15.35C16.7292 15.3019 16.6743 15.2265 16.5919 15.2059C16.5302 15.199 16.4753 15.2127 16.4135 15.2264C16.4273 15.247 16.441 15.2745 16.4273 15.2951C16.4616 15.3088 16.4959 15.3225 16.5302 15.3294C16.5645 15.3294 16.5988 15.3157 16.6331 15.3157C16.6674 15.3294 16.7017 15.3568 16.7292 15.3774C16.7704 15.4049 16.8115 15.4392 16.839 15.4803C16.7978 15.5009 16.7429 15.5078 16.6949 15.5146C16.5988 15.5215 16.5165 15.6039 16.4204 15.6107C16.4204 15.5421 16.4204 15.4803 16.4067 15.4049C16.393 15.5558 16.4135 15.6999 16.4273 15.844C16.4135 15.8372 16.4067 15.8303 16.3929 15.8234C16.3655 15.8509 16.3312 15.8715 16.29 15.8715C16.3243 15.8097 16.3518 15.7411 16.3381 15.6725C16.3312 15.6382 16.3175 15.5901 16.2832 15.5695C16.2557 15.549 16.2214 15.5352 16.2008 15.5146C16.1665 15.4803 16.1459 15.4392 16.1116 15.4049C16.1254 15.4735 16.1802 15.5284 16.242 15.5695C16.2694 15.5833 16.29 15.6039 16.3106 15.6244C16.2626 15.6244 16.2077 15.6244 16.1665 15.597C16.091 15.5352 16.0156 15.4872 15.9538 15.4117C15.995 15.3705 16.0293 15.3225 16.0636 15.2676C16.0636 15.3294 16.0155 15.3911 16.0293 15.4529C16.0499 15.3843 16.0773 15.3088 16.0842 15.2402C16.0842 15.1853 16.0704 15.1304 16.0773 15.0824C16.1528 15.0824 16.2283 15.0824 16.3038 15.0755C16.2969 15.0961 16.29 15.1167 16.29 15.1372C16.3037 15.1578 16.3312 15.1647 16.3518 15.1784C16.3381 15.1578 16.2969 15.1372 16.3106 15.1098C16.3175 15.0892 16.3381 15.0686 16.3655 15.0755C16.4684 15.0892 16.5714 15.0824 16.6674 15.0824Z" fill="#D81C3F"/>
<path d="M15.7342 15.151C15.7754 15.1304 15.8234 15.1441 15.8577 15.1167C15.8509 15.1235 15.8509 15.1304 15.844 15.1372C15.8097 15.1647 15.7754 15.199 15.7411 15.2264C15.7411 15.2196 15.7411 15.2059 15.7479 15.199C15.7411 15.1853 15.7342 15.1716 15.7342 15.151Z" fill="#7A3F28"/>
<path d="M16.9007 15.1372C16.9145 15.2059 16.9213 15.2813 16.9007 15.35C16.8939 15.3568 16.887 15.3568 16.8802 15.3568C16.9145 15.2882 16.8802 15.2059 16.9007 15.1372Z" fill="#7A3F28"/>
<path d="M17.0654 15.3911C17.0311 15.3225 16.9831 15.2608 16.9831 15.1784C17.0448 15.199 17.1135 15.2402 17.1203 15.3088C17.1272 15.3431 17.0929 15.3705 17.0654 15.3911Z" fill="#FBE015"/>
<path d="M15.6176 15.3294C15.6313 15.3157 15.6519 15.3019 15.6656 15.2882C15.6587 15.3019 15.6519 15.3157 15.645 15.3362C15.6587 15.3294 15.6724 15.3294 15.6862 15.3225C15.6793 15.3294 15.6725 15.3431 15.6725 15.35C15.6519 15.3362 15.6313 15.3362 15.6176 15.3294Z" fill="#7A3F28"/>
<path d="M16.8321 15.4529C16.9144 15.4598 16.9899 15.4598 17.0723 15.4598C17.086 15.4941 17.1203 15.5215 17.1477 15.5352C17.1683 15.5695 17.1615 15.6107 17.1683 15.645C17.1752 15.7205 17.1958 15.796 17.1958 15.8715C17.1821 15.8577 17.1683 15.844 17.1546 15.8372C17.1478 15.844 17.1409 15.8577 17.134 15.8646C17.1134 15.8646 17.0997 15.8577 17.086 15.8577C17.1134 15.8097 17.1409 15.748 17.1066 15.6931C17.0791 15.6519 17.0791 15.597 17.038 15.5695C17.0105 15.549 16.9762 15.5352 16.9419 15.5284C16.8939 15.5146 16.8664 15.4803 16.8321 15.4529Z" fill="#D81C3F"/>
<path d="M16.839 15.5078C16.8802 15.4941 16.9076 15.5352 16.935 15.549V15.5558C16.935 15.597 16.9488 15.6382 16.935 15.6793C16.8596 15.7342 16.7978 15.8097 16.7223 15.8715C16.688 15.8646 16.6468 15.8577 16.6125 15.8509C16.6468 15.8372 16.688 15.8234 16.7155 15.7891C16.7498 15.7548 16.7772 15.7136 16.7909 15.6656C16.8047 15.6244 16.7772 15.5901 16.7635 15.5558C16.7498 15.549 16.736 15.549 16.7223 15.5421C16.7635 15.5284 16.7978 15.5146 16.839 15.5078Z" fill="#D81C3F"/>
<path d="M16.043 15.5215C16.0773 15.5421 16.1116 15.5627 16.1528 15.5833C16.1253 15.6039 16.091 15.6244 16.1048 15.6656C16.1391 15.6862 16.1802 15.6862 16.2145 15.6931C16.2145 15.7274 16.2214 15.7754 16.1871 15.8028C16.1459 15.7754 16.1185 15.7274 16.0704 15.7068C16.043 15.6931 16.0155 15.6587 16.0155 15.6244C16.0087 15.5833 16.0224 15.549 16.043 15.5215Z" fill="#D81C3F"/>
<path d="M16.2077 15.7823C16.2145 15.7617 16.2214 15.7411 16.2283 15.7205C16.2557 15.7411 16.2489 15.7685 16.242 15.796C16.2351 15.796 16.2214 15.7891 16.2077 15.7823Z" fill="#D81C3F"/>
<path d="M16.5714 15.9126C16.5782 15.8852 16.5988 15.8715 16.6194 15.8577C16.6057 15.8783 16.592 15.8989 16.5714 15.9126Z" fill="#D81C3F"/>
<path d="M16.3038 15.8921C16.3312 15.8921 16.3655 15.8852 16.3998 15.8783C16.3929 15.8921 16.3792 15.9058 16.3724 15.9195C16.3518 15.9264 16.3381 15.9264 16.3175 15.9264C16.3037 15.9195 16.3038 15.8989 16.3038 15.8921Z" fill="#D81C3F"/>
<path d="M16.6057 15.9264C16.6125 15.9058 16.6194 15.8852 16.6331 15.8646C16.6537 15.8715 16.6674 15.8715 16.688 15.8783C16.6674 15.9058 16.64 15.9195 16.6057 15.9264Z" fill="#D81C3F"/>
<path d="M17.0585 15.8783C17.086 15.8783 17.1135 15.8783 17.1409 15.8852C17.1272 15.8989 17.1066 15.9058 17.0929 15.9195C17.0791 15.9058 17.0654 15.8989 17.0517 15.8921C17.0517 15.8852 17.0585 15.8783 17.0585 15.8783Z" fill="#D81C3F"/>
<path d="M15.6244 16.0087C15.6381 16.0018 15.6519 16.0018 15.6656 16.0087C15.6793 16.0156 15.6862 16.043 15.693 16.0567C15.7548 16.0499 15.8166 16.0499 15.8783 16.0567C15.8852 16.043 15.8852 16.0224 15.8989 16.0087C15.9126 16.0018 15.9332 16.0018 15.9401 16.0087C15.9607 16.0293 15.9332 16.0636 15.9332 16.0842C15.995 16.1048 16.0499 16.1322 16.1116 16.1391C16.2008 16.1459 16.29 16.1254 16.3792 16.1391C16.4822 16.1459 16.5782 16.1459 16.6812 16.1459C16.7704 16.1459 16.8527 16.0979 16.9419 16.1254C16.9831 16.1322 17.0174 16.1597 17.0448 16.194C17.0929 16.2489 17.1684 16.2695 17.2027 16.3312C17.2301 16.3792 17.2164 16.4341 17.1889 16.4753C17.1683 16.5096 17.134 16.5233 17.0997 16.5439C17.0997 16.5576 17.1066 16.5645 17.1135 16.5714C17.134 16.5851 17.1752 16.592 17.1821 16.6194C17.1958 16.688 17.1958 16.7498 17.2095 16.8184C17.2164 16.8596 17.2301 16.9007 17.2232 16.9419C17.2232 16.9694 17.1889 16.9488 17.1752 16.9488C17.1546 16.9831 17.1272 16.9968 17.0929 17.0037C17.0791 16.9899 17.0585 16.9831 17.038 16.9694C17.0723 16.9282 17.1135 16.8939 17.1203 16.8458C17.134 16.7841 17.0791 16.7361 17.0723 16.6743C17.038 16.6537 17.0105 16.6331 16.9762 16.6125C16.9625 16.6537 16.9762 16.7017 16.9762 16.7429C16.9625 16.7704 16.9282 16.7841 16.9007 16.8115C16.8527 16.8596 16.8047 16.9076 16.7498 16.9556C16.7429 16.9556 16.7292 16.9556 16.7223 16.9556C16.7017 16.9899 16.6674 17.0105 16.6263 17.0174C16.6263 17.0105 16.6125 16.9968 16.6125 16.9899C16.5988 16.9899 16.5851 16.9899 16.5645 16.9899C16.5782 16.9625 16.592 16.9351 16.6194 16.9145C16.6468 16.8939 16.688 16.887 16.7086 16.8664C16.7498 16.8253 16.7841 16.7704 16.8047 16.7086C16.7909 16.688 16.7772 16.6674 16.7704 16.6469C16.7498 16.6331 16.736 16.6194 16.7155 16.6057C16.6194 16.6263 16.5439 16.6949 16.4479 16.7086C16.4479 16.7841 16.4684 16.8664 16.4684 16.9419C16.4547 16.9488 16.4341 16.9419 16.4204 16.9351C16.4204 16.9694 16.4067 16.9968 16.3861 17.0243C16.3587 17.0243 16.3312 17.0243 16.3038 17.0243C16.3038 17.0174 16.3038 17.0105 16.3038 17.0037C16.2969 17.0037 16.2832 16.9968 16.2763 16.9968C16.2694 16.9762 16.2969 16.9556 16.3038 16.9351C16.3518 16.8733 16.3655 16.7978 16.3381 16.7223C16.2763 16.7155 16.2145 16.7155 16.1665 16.6812C16.1459 16.6949 16.1254 16.7086 16.1116 16.7361C16.1528 16.7429 16.194 16.7498 16.2283 16.7635C16.2283 16.7772 16.2351 16.7841 16.2351 16.7978C16.2489 16.8047 16.2557 16.8047 16.2694 16.8115C16.2694 16.8184 16.2832 16.8321 16.2832 16.839C16.2763 16.8733 16.2488 16.9007 16.2214 16.9213C16.1528 16.8939 16.1116 16.8253 16.0499 16.791C16.0155 16.7772 16.0018 16.7361 15.995 16.7017C15.995 16.6606 16.0224 16.6194 16.043 16.5851C16.0156 16.5576 15.9881 16.5233 15.9538 16.4959C15.9607 16.5302 15.9675 16.5576 15.9813 16.5851C15.9744 16.592 15.9675 16.5988 15.9607 16.6057C15.9469 16.6194 15.9401 16.6469 15.9126 16.64C15.9058 16.6331 15.892 16.6194 15.8852 16.6057C15.8783 16.5988 15.8646 16.592 15.8577 16.5782C15.8577 16.5439 15.8852 16.5096 15.8852 16.4753C15.8852 16.4479 15.8714 16.4136 15.8577 16.3861C15.8303 16.393 15.8028 16.3998 15.7823 16.4067C15.7548 16.4204 15.7411 16.4547 15.7068 16.4616C15.6793 16.4616 15.6519 16.4616 15.6244 16.4479C15.597 16.4273 15.5833 16.393 15.5627 16.3655C15.5901 16.3449 15.6176 16.3175 15.6313 16.29C15.645 16.2626 15.6382 16.2283 15.6382 16.194C15.6519 16.1665 15.6656 16.1391 15.6725 16.1116C15.6382 16.0979 15.6244 16.0567 15.6244 16.0087Z" fill="#7A3F28"/>
<path d="M15.6382 16.0156C15.6656 16.043 15.6793 16.0773 15.6793 16.1116C15.6519 16.091 15.6382 16.0499 15.6382 16.0156Z" fill="#D81C3F"/>
<path d="M15.8852 16.1185C15.8852 16.0842 15.9058 16.0499 15.9263 16.0224C15.9332 16.0636 15.9195 16.0979 15.8852 16.1185Z" fill="#D81C3F"/>
<path d="M15.6999 16.0705C15.7548 16.0636 15.8097 16.0636 15.8646 16.0705C15.8715 16.091 15.8783 16.1048 15.8783 16.1254C15.9195 16.0979 15.9675 16.1116 16.0018 16.1391C16.0156 16.2008 16.0087 16.2626 15.9881 16.3175C15.9744 16.3587 15.9538 16.3998 15.9263 16.4341C15.8989 16.4341 15.8852 16.3998 15.8646 16.3861C15.8783 16.3724 15.8989 16.3518 15.9126 16.3312C15.9126 16.3312 15.9058 16.3243 15.9058 16.3175C15.8715 16.3724 15.8097 16.3861 15.7548 16.3998C15.7479 16.3861 15.7479 16.3655 15.7411 16.3518C15.7342 16.3861 15.7479 16.441 15.6999 16.4479C15.645 16.4616 15.6107 16.4136 15.5833 16.3724C15.6244 16.3449 15.6519 16.2969 15.6656 16.2489C15.6725 16.242 15.6862 16.2351 15.693 16.2351C15.6862 16.2351 15.6656 16.2283 15.6519 16.2283C15.6656 16.1802 15.6862 16.1254 15.6999 16.0705Z" fill="#D81C3F"/>
<path d="M15.7068 16.1116C15.7411 16.1048 15.7754 16.1048 15.796 16.1322C15.7685 16.1254 15.7342 16.1185 15.7068 16.1116Z" fill="#7A3F28"/>
<path d="M16.7704 16.1597C16.8115 16.1528 16.8527 16.1391 16.9007 16.1391C16.9282 16.1665 16.9556 16.194 16.9831 16.2146C16.9693 16.194 16.9488 16.1665 16.935 16.1459C17.0105 16.1528 17.038 16.2283 17.0929 16.2626C17.134 16.29 17.1752 16.3106 17.1889 16.3587C17.2095 16.4135 17.1821 16.4822 17.134 16.5165C17.0997 16.5439 17.0517 16.5371 17.0105 16.5371C16.9556 16.5371 16.9007 16.5439 16.8527 16.5302C16.7841 16.5028 16.7292 16.4479 16.6674 16.4067C16.6331 16.3861 16.5988 16.3998 16.5714 16.4067C16.5302 16.4204 16.489 16.3998 16.4547 16.3861C16.489 16.3861 16.5302 16.393 16.5714 16.3861C16.537 16.3724 16.5027 16.3655 16.4684 16.3587C16.5096 16.3518 16.5508 16.3449 16.5851 16.3312C16.537 16.3312 16.4959 16.3381 16.4478 16.3312C16.4959 16.3175 16.5439 16.3038 16.5919 16.3106C16.6811 16.3381 16.7292 16.4273 16.8115 16.4684C16.887 16.5028 16.9762 16.5096 17.0585 16.4959C17.1203 16.489 17.1546 16.4135 17.134 16.3587C17.1066 16.2969 17.0448 16.2557 16.9762 16.2626C16.9762 16.3449 17.0242 16.4136 17.0585 16.4822C16.9762 16.4959 16.887 16.489 16.8184 16.4547C16.7429 16.4067 16.688 16.3243 16.5988 16.2969C16.5439 16.2969 16.4822 16.3038 16.4273 16.3175C16.4341 16.3312 16.441 16.3449 16.441 16.3587C16.441 16.3655 16.4341 16.3792 16.4341 16.3861C16.4753 16.3998 16.5096 16.4204 16.5576 16.4204C16.5851 16.4204 16.6125 16.4067 16.64 16.4067C16.6812 16.4204 16.7155 16.4547 16.7498 16.4753C16.7909 16.5028 16.8252 16.5371 16.8527 16.5714C16.8115 16.592 16.7635 16.5988 16.7155 16.6057C16.6125 16.6125 16.5371 16.688 16.4341 16.7017C16.4273 16.6331 16.441 16.5645 16.4204 16.4959C16.4067 16.64 16.4273 16.7841 16.4478 16.9351C16.4341 16.9351 16.4204 16.9282 16.4067 16.9282C16.3792 16.9556 16.3449 16.9694 16.3038 16.9625C16.3381 16.9007 16.3724 16.8321 16.3586 16.7635C16.3518 16.7292 16.3381 16.688 16.3038 16.6674C16.2694 16.64 16.2351 16.6263 16.2077 16.592C16.1802 16.5645 16.1597 16.5302 16.1459 16.4959C16.1459 16.5576 16.1939 16.6057 16.242 16.64C16.2763 16.6606 16.3175 16.6812 16.3381 16.7155C16.29 16.7086 16.2351 16.7155 16.194 16.688C16.1185 16.6263 16.0361 16.5782 15.9744 16.5028C16.0156 16.4616 16.0499 16.4135 16.0842 16.3655C16.0842 16.4273 16.0499 16.4822 16.0499 16.5439C16.0773 16.489 16.091 16.4341 16.1048 16.3724C16.1185 16.3038 16.1048 16.242 16.1048 16.1734C16.1802 16.1802 16.2557 16.1665 16.3312 16.1665C16.3243 16.194 16.3037 16.2146 16.3175 16.242C16.3312 16.2557 16.3518 16.2626 16.3724 16.2763C16.3586 16.2557 16.3381 16.242 16.3312 16.2214C16.3381 16.2008 16.3518 16.1871 16.3655 16.1734C16.4547 16.194 16.5439 16.1871 16.6263 16.1871C16.6606 16.1734 16.7155 16.1734 16.7704 16.1597Z" fill="#D81C3F"/>
<path d="M15.7411 16.2351C15.7822 16.2351 15.8234 16.2214 15.8646 16.2077C15.8234 16.242 15.7891 16.2763 15.7479 16.3106C15.7479 16.3038 15.7479 16.29 15.7479 16.2832C15.7411 16.2763 15.7342 16.2695 15.7342 16.2626C15.7411 16.2557 15.7411 16.242 15.7411 16.2351Z" fill="#7A3F28"/>
<path d="M16.887 16.4479C16.9144 16.3724 16.887 16.29 16.9076 16.2146C16.9076 16.2695 16.9213 16.3243 16.9144 16.3861C16.9144 16.4136 16.9007 16.4341 16.887 16.4479Z" fill="#7A3F28"/>
<path d="M16.9899 16.2695C17.0517 16.2832 17.1203 16.3243 17.1272 16.393C17.134 16.4341 17.0997 16.4616 17.0723 16.4822C17.038 16.4136 16.9899 16.3449 16.9899 16.2695Z" fill="#FBE015"/>
<path d="M15.6244 16.4204C15.6381 16.3998 15.6519 16.3861 15.6725 16.3655C15.6656 16.3792 15.6587 16.393 15.6519 16.4136C15.6656 16.4067 15.6793 16.4067 15.693 16.3998C15.6793 16.4341 15.645 16.4273 15.6244 16.4204Z" fill="#7A3F28"/>
<path d="M16.839 16.5371C16.9213 16.5439 16.9968 16.5439 17.0791 16.5439C17.0928 16.5851 17.1203 16.6125 17.1615 16.6194C17.1683 16.6674 17.1752 16.7086 17.1752 16.7498C17.1821 16.8184 17.1958 16.887 17.2027 16.9625C17.1889 16.9488 17.1752 16.9419 17.1615 16.9282C17.1546 16.9351 17.1477 16.9488 17.1477 16.9556C17.1272 16.9556 17.1134 16.9556 17.0929 16.9556C17.1134 16.9145 17.134 16.8802 17.134 16.839C17.134 16.8047 17.1134 16.7772 17.0997 16.7498C17.086 16.7223 17.0791 16.6949 17.0517 16.6743C17.0242 16.6537 16.9899 16.64 16.9556 16.6331C16.9076 16.6057 16.8733 16.5714 16.839 16.5371Z" fill="#D81C3F"/>
<path d="M16.736 16.6194C16.7772 16.6125 16.8252 16.5988 16.8664 16.5851C16.8939 16.6057 16.9213 16.6194 16.9488 16.64C16.9488 16.6812 16.9556 16.7292 16.9488 16.7704C16.8733 16.8253 16.8115 16.8939 16.7429 16.9556C16.7086 16.9556 16.6674 16.9488 16.6331 16.9419C16.6743 16.9282 16.7086 16.9076 16.736 16.8733C16.7704 16.8321 16.8115 16.7841 16.8184 16.7292C16.7978 16.688 16.7704 16.6469 16.736 16.6194Z" fill="#D81C3F"/>
<path d="M16.0156 16.7361C16.0018 16.688 16.0293 16.6469 16.0499 16.6057C16.0842 16.6263 16.1185 16.6469 16.1528 16.6743C16.1322 16.6949 16.0842 16.7292 16.1116 16.7566C16.146 16.7704 16.1803 16.7772 16.2146 16.7841C16.2146 16.8253 16.2077 16.8596 16.1871 16.9007C16.1597 16.8802 16.1322 16.8527 16.0979 16.8253C16.0705 16.791 16.0293 16.7772 16.0156 16.7361Z" fill="#D81C3F"/>
<path d="M16.5714 16.9899C16.5851 16.9762 16.6057 16.9556 16.6194 16.9419C16.6125 16.9694 16.5988 16.9899 16.5714 16.9899Z" fill="#D81C3F"/>
<path d="M16.64 16.9625C16.6606 16.9625 16.6743 16.9625 16.6949 16.9694C16.6743 16.9968 16.6468 17.0105 16.6125 17.0174C16.6194 16.9968 16.6194 16.9694 16.64 16.9625Z" fill="#D81C3F"/>
<path d="M17.0517 16.9694C17.0791 16.9625 17.1134 16.9694 17.1478 16.9694C17.1272 16.9831 17.1135 16.9899 17.0929 17.0037C17.0791 16.9899 17.0654 16.9762 17.0517 16.9694Z" fill="#D81C3F"/>
<path d="M16.3106 16.9762C16.3381 16.9762 16.3655 16.9694 16.3998 16.9694C16.3861 17.0037 16.3518 17.0174 16.3106 17.0174C16.3106 17.0037 16.3106 16.9899 16.3106 16.9762Z" fill="#D81C3F"/>
<path d="M10.8417 10.8966C10.7868 10.9515 10.7525 11.0201 10.7525 11.0956C10.7525 11.2603 10.8417 11.4113 10.9515 11.5211C11.0201 11.5828 11.1025 11.624 11.1711 11.6857C11.3152 11.8092 11.4181 11.9808 11.425 12.1729C11.4318 12.2415 11.4112 12.3033 11.3838 12.3719C11.4044 12.3925 11.4318 12.4131 11.4318 12.4405C11.4318 12.4611 11.4112 12.4817 11.3975 12.4954C11.3907 12.468 11.3907 12.4337 11.3632 12.4131C11.3358 12.4405 11.3083 12.468 11.2809 12.4954C11.2466 12.516 11.2603 12.5572 11.2603 12.5915C11.274 12.667 11.3632 12.7082 11.4387 12.6944C11.5553 12.6738 11.6377 12.5709 11.6651 12.4611C11.6857 12.4062 11.6651 12.3445 11.672 12.2896C11.6789 12.1592 11.6514 12.0288 11.5828 11.9122C11.5348 11.823 11.473 11.7475 11.4044 11.672C11.2466 11.5142 11.0888 11.3564 10.9652 11.1711C10.9103 11.0819 10.8692 10.9927 10.8417 10.8966Z" fill="#D1BF91"/>
<path d="M11.027 12.5229C10.8074 12.4886 10.5741 12.5092 10.3751 12.6052C10.1967 12.6876 10.0595 12.8385 9.97714 13.0101C9.82618 13.3326 9.83303 13.7306 9.99085 14.0531C10.0869 14.2452 10.2448 14.4099 10.4506 14.4922C10.5878 14.5128 10.7319 14.5128 10.876 14.4991C10.9172 14.4991 10.9584 14.506 10.9995 14.4854C11.075 14.4511 11.1368 14.3824 11.1574 14.307C11.1711 14.2452 11.1505 14.1766 11.1025 14.1423C11.0407 14.0942 10.9378 14.1148 10.8966 14.1835C10.8829 14.1972 10.8966 14.2178 10.9035 14.2383C10.9309 14.2383 10.9515 14.2452 10.9721 14.2521C10.9515 14.2727 10.9309 14.2864 10.9103 14.307C10.7731 14.3275 10.6222 14.3275 10.4918 14.2589C10.3545 14.1834 10.2653 14.0394 10.231 13.8884C10.1761 13.6757 10.1967 13.4492 10.2722 13.2434C10.3271 13.0924 10.43 12.9552 10.5741 12.8797C10.6427 12.8454 10.7182 12.8179 10.7937 12.8111C10.8486 12.8248 10.9035 12.8179 10.9584 12.8385C11.0682 12.866 11.1574 12.9415 11.1985 13.0444C11.2329 12.8797 11.2123 12.715 11.1711 12.5503C11.1162 12.5366 11.0682 12.5297 11.027 12.5229Z" fill="#D1BF91"/>
<path d="M11.0064 14.5883C10.9721 14.5677 10.9309 14.5609 10.8897 14.5609C10.7456 14.5746 10.6015 14.5814 10.4574 14.554C10.3957 14.6706 10.3751 14.8216 10.4574 14.9383C10.4506 14.8834 10.4506 14.8285 10.478 14.7804C10.5398 14.6775 10.6633 14.6432 10.7731 14.6638C10.8692 14.6775 10.9584 14.7255 11.027 14.7873C11.1711 14.9383 11.2465 15.1441 11.2671 15.35C11.2809 15.5284 11.274 15.7068 11.2122 15.8715C11.1574 16.043 11.0476 16.194 10.9103 16.3106C10.8348 16.3655 10.7662 16.4273 10.6702 16.4547C10.5809 16.4959 10.478 16.5096 10.3888 16.4822C10.3133 16.4616 10.2447 16.4204 10.2104 16.3449C10.1898 16.3106 10.1898 16.2695 10.183 16.2283C10.1006 16.3243 10.0595 16.4479 10.08 16.5714C10.0938 16.6606 10.1487 16.7498 10.231 16.791C10.2996 16.8253 10.3751 16.839 10.4437 16.839C10.7662 16.791 11.0681 16.592 11.2465 16.3175C11.4455 16.0156 11.4798 15.6313 11.4181 15.2745C11.3769 15.0892 11.3015 14.9177 11.1985 14.7598C11.1505 14.705 11.0887 14.6363 11.0064 14.5883Z" fill="#D1BF91"/>
<path d="M10.9515 14.7804C10.876 14.7187 10.7662 14.6844 10.6702 14.705C10.5947 14.7187 10.5192 14.7667 10.4986 14.8422C10.478 14.9108 10.5192 14.9863 10.5878 15.0069C10.629 15.0275 10.6908 15.0275 10.7182 14.9794C10.7113 14.952 10.6908 14.9314 10.6702 14.9039C10.6976 14.9039 10.7319 14.8971 10.7457 14.9314C10.7662 14.9657 10.7525 15 10.7319 15.0343C10.7662 15.0343 10.8006 15.0343 10.8349 15.0275C10.9378 15.1853 10.9447 15.3911 10.9172 15.5764C10.8829 15.748 10.828 15.9264 10.7182 16.0636C10.6839 16.1116 10.6359 16.1459 10.5947 16.1802C10.5741 16.1734 10.5535 16.1665 10.5261 16.1528C10.5192 16.1802 10.5192 16.2146 10.4918 16.2283C10.4712 16.2489 10.4437 16.2351 10.4232 16.2351C10.4369 16.2146 10.4575 16.2008 10.478 16.1871C10.478 16.1734 10.4849 16.1391 10.4575 16.1391C10.4026 16.1254 10.3408 16.1391 10.2859 16.1665C10.2516 16.1802 10.2447 16.2283 10.2447 16.2626C10.2447 16.3243 10.2928 16.3792 10.3408 16.4067C10.4437 16.4684 10.5741 16.4616 10.6702 16.4067C10.7113 16.3724 10.7594 16.3449 10.8005 16.3106C10.9378 16.2214 11.0544 16.091 11.1231 15.9332C11.2054 15.748 11.226 15.5421 11.2054 15.3431C11.1917 15.1853 11.1436 15.0206 11.0476 14.8971C11.0133 14.8628 10.9721 14.8285 10.9515 14.7804Z" fill="#D1BF91"/>
<path d="M14.8765 14.6912C13.957 14.6844 13.0375 14.6844 12.118 14.6775C12.1043 15.1853 12.1111 15.6862 12.1111 16.194C12.1111 16.3312 12.1111 16.4753 12.1111 16.6125C12.1111 16.7292 12.1866 16.8253 12.2552 16.9076C12.365 17.0311 12.4954 17.134 12.6395 17.2164C12.7493 17.2713 12.866 17.3262 12.9963 17.3193C13.4904 17.3125 13.9844 17.2781 14.4785 17.2576C14.554 17.2576 14.6294 17.2507 14.7049 17.2781C14.7735 17.3056 14.8284 17.3468 14.8833 17.3948C14.8765 16.4959 14.8765 15.597 14.8765 14.6912Z" fill="#FBE015"/>
<path d="M14.2452 14.6912C14.2452 15.549 14.2452 16.4067 14.2452 17.2713C14.3207 17.2644 14.3961 17.2644 14.4716 17.2576C14.5334 17.2576 14.5951 17.2507 14.65 17.2644C14.65 16.4067 14.65 15.549 14.65 14.6981C14.5128 14.6912 14.3824 14.6912 14.2452 14.6912Z" fill="#D81C3F"/>
<path d="M12.3307 14.6844C12.3307 15.4529 12.3307 16.2283 12.3307 16.9968C12.4199 17.086 12.5229 17.1546 12.6327 17.2232C12.667 17.237 12.7013 17.2576 12.7356 17.2713C12.7356 16.4136 12.7356 15.549 12.7356 14.6912C12.6052 14.6844 12.468 14.6844 12.3307 14.6844Z" fill="#D81C3F"/>
<path d="M13.3806 14.6844C13.2502 14.6844 13.113 14.6844 12.9758 14.6844C12.9758 15.5627 12.9758 16.441 12.9758 17.3193C12.9826 17.3193 12.9826 17.3193 12.9895 17.3193C13.1198 17.3193 13.2502 17.3125 13.3806 17.3056C13.3806 16.4341 13.3875 15.5627 13.3806 14.6844Z" fill="#D81C3F"/>
<path d="M13.6276 14.6912C13.6276 15.5627 13.6276 16.4273 13.6276 17.2987C13.7648 17.2919 13.9021 17.285 14.0393 17.2781C14.0393 16.4204 14.0393 15.5558 14.0393 14.6912C13.8952 14.6912 13.758 14.6912 13.6276 14.6912Z" fill="#D81C3F"/>
<path d="M16.0156 15.0755C16.043 15.199 15.9401 15.35 15.9195 15.3568C15.8921 15.3637 15.8715 15.3362 15.8715 15.3362C15.8715 15.3362 15.8715 15.3774 15.8852 15.398C15.892 15.4117 15.8577 15.4735 15.8577 15.5009C15.8577 15.5215 15.9675 15.5215 15.9607 15.5009C15.9469 15.4872 15.9332 15.4323 15.9332 15.4254C15.9401 15.398 16.091 15.3157 16.0704 15.0892C16.0567 15.0961 16.0361 15.0686 16.0087 15.0686L16.0156 15.0755Z" fill="#0072C6"/>
<path d="M16.0224 16.1665C16.043 16.29 15.9469 16.441 15.9263 16.4479C15.9058 16.4547 15.8852 16.4204 15.8852 16.4204C15.8852 16.4204 15.8852 16.4616 15.892 16.4753C15.8989 16.4959 15.8646 16.5508 15.8646 16.5782C15.8646 16.6057 15.9744 16.6057 15.9675 16.5782C15.9607 16.5645 15.9469 16.5096 15.9469 16.5028C15.9538 16.4822 16.1048 16.393 16.091 16.1665C16.0773 16.1734 16.0499 16.1459 16.0293 16.1459L16.0224 16.1665Z" fill="#0072C6"/>
</svg>
