<svg width="30" height="30" viewBox="0 0 30 30" fill="none" xmlns="http://www.w3.org/2000/svg">
<path d="M15.0002 30.001C21.0523 30.001 26.2673 26.4122 28.6347 21.2521H1.36569C3.73989 26.4191 8.94804 30.001 15.0002 30.001Z" fill="black"/>
<path d="M15.0002 0.0010376C8.94804 0.0010376 3.73303 3.58978 1.36569 8.74989H28.6347C26.2673 3.58978 21.0592 0.0010376 15.0002 0.0010376Z" fill="#009A00"/>
<path d="M0.000183105 15.001C0.000183105 17.2311 0.494235 19.3514 1.36569 21.2521H28.6347C29.5061 19.3514 30.0002 17.2311 30.0002 15.001C30.0002 12.7709 29.5061 10.6575 28.6347 8.74988H1.36569C0.494235 10.6575 0.000183105 12.7709 0.000183105 15.001Z" fill="#F1F4FB"/>
<path d="M0.000183105 15.001C0.000183105 21.0532 3.58893 26.2682 8.74904 28.6355V1.36652C3.58893 3.73385 0.000183105 8.94886 0.000183105 15.001Z" fill="#CE1126"/>
</svg>
