<svg width="30" height="30" viewBox="0 0 30 30" fill="none" xmlns="http://www.w3.org/2000/svg">
<path d="M29.9861 14.9977C29.9861 23.2124 23.2722 29.8755 14.9948 29.8755C6.71739 29.8755 0.00341797 23.2124 0.00341797 14.9977C0.00341797 6.7831 6.71739 0.120038 14.9948 0.120038C23.2722 0.120038 29.9861 6.7831 29.9861 14.9977Z" fill="white"/>
<path d="M24.5311 11.738H5.4757H1.31055L6.19618 18.2622H23.8106L28.6962 11.738H24.5311Z" fill="#0072C6"/>
<path d="M0.610657 10.8049L1.31054 11.7379H5.47569L10.2378 10.7912L6.20304 8.09514L10.9652 9.04186L8.26847 5.00115L12.3032 7.69724L11.3563 2.93621L14.053 6.97692L14.9999 2.21588L15.9469 6.97692L18.6436 2.93621L17.6966 7.69724L21.7314 5.00115L19.0347 9.04186L23.7968 8.09514L19.7552 10.7912L24.5173 11.7379H28.6825L29.3824 10.8049C27.564 4.5621 21.8137 1.14441e-05 14.9862 1.14441e-05C8.17238 1.14441e-05 2.42219 4.56896 0.610657 10.8049Z" fill="black"/>
<path d="M6.19623 18.262L1.30373 11.7447L0.603846 10.8117C0.514642 11.1205 0.432275 11.4292 0.363656 11.7447C0.130353 12.7944 0 13.8851 0 15.0034C0 16.1216 0.130353 17.2124 0.363656 18.262C1.85268 24.9782 7.83623 29.9999 15 29.9999L6.19623 18.262Z" fill="#CE1126"/>
<path d="M29.6363 11.7379C29.5677 11.4223 29.4854 11.1136 29.3962 10.8049L28.6963 11.7379L23.8038 18.2552L15 29.9931C22.1638 29.9931 28.1473 24.9714 29.6363 18.2552C29.8696 17.2055 30 16.1148 30 14.9965C30 13.8783 29.8696 12.7875 29.6363 11.7379Z" fill="#CE1126"/>
<path d="M19.7688 10.7912L23.8036 8.09507L19.0415 9.04179L21.7382 5.00795L17.7034 7.70403L18.6504 2.943L15.9468 6.97685L14.9998 2.21581L14.0529 6.97685L11.3562 2.943L12.3031 7.70403L8.26836 5.00795L10.9651 9.04179L6.20294 8.09507L10.2377 10.7912L5.47559 11.7379H24.531L19.7688 10.7912Z" fill="#FCD116"/>
</svg>
