<svg width="30" height="30" viewBox="0 0 30 30" fill="none" xmlns="http://www.w3.org/2000/svg">
<g clip-path="url(#clip0_1_12962)">
<path d="M-14.9998 0.0010376H45.0002V30.001H-14.9998V0.0010376Z" fill="#012169"/>
<path d="M-14.9998 0.0010376L15.0002 15.001L-14.9998 0.0010376ZM15.0002 0.0010376L-14.9998 15.001L15.0002 0.0010376Z" fill="black"/>
<path d="M-14.9998 0.0010376L15.0002 15.001M15.0002 0.0010376L-14.9998 15.001" stroke="white" stroke-width="3"/>
<mask id="mask0_1_12962" style="mask-type:luminance" maskUnits="userSpaceOnUse" x="-15" y="0" width="36" height="18">
<path d="M-14.9998 0.0010376V7.50104H20.0002V15.001H15.0002L-14.9998 0.0010376ZM15.0002 0.0010376H0.000242233V17.501H-14.9998V15.001L15.0002 0.0010376Z" fill="white"/>
</mask>
<g mask="url(#mask0_1_12962)">
<path d="M-14.9998 0.0010376L15.0002 15.001L-14.9998 0.0010376ZM15.0002 0.0010376L-14.9998 15.001L15.0002 0.0010376Z" fill="black"/>
<path d="M-14.9998 0.0010376L15.0002 15.001M15.0002 0.0010376L-14.9998 15.001" stroke="#C8102E" stroke-width="2"/>
</g>
<path d="M0.000242233 0.0010376V17.501V0.0010376ZM-14.9998 7.50104H20.0002H-14.9998Z" fill="black"/>
<path d="M0.000242129 0.0010376V17.501M-14.9998 7.50104H20.0002" stroke="white" stroke-width="5"/>
<path d="M0.000242233 0.0010376V17.501V0.0010376ZM-14.9998 7.50104H20.0002H-14.9998Z" fill="black"/>
<path d="M0.000242129 0.0010376V17.501M-14.9998 7.50104H20.0002" stroke="#C8102E" stroke-width="3"/>
<path d="M-14.9998 15.001H15.0002V0.0010376H25.0002V20.001H-14.9998V15.001Z" fill="#012169"/>
<path d="M21.5982 7.80109C21.5982 15.3516 22.4737 17.9533 24.2264 19.706C25.2717 20.7438 25.7351 21.1343 27.3582 22.2011C28.9813 21.1343 29.4446 20.7438 30.49 19.706C32.2427 17.9533 33.1182 15.3516 33.1182 7.80109C31.8434 8.34691 31.1169 8.61154 30.0656 8.59534C29.1252 8.58088 28.1288 8.14411 27.3582 7.80109C26.5876 8.14411 25.5912 8.58086 24.6508 8.59534C23.5995 8.61154 22.873 8.34691 21.5982 7.80109Z" fill="white"/>
<path d="M27.5401 11.5815C27.8108 12.1885 28.6786 12.8587 28.9172 13.1872C28.6135 13.5157 28.5528 13.4799 28.5927 14.0901C29.1207 13.5634 29.1302 13.5085 29.4698 13.5884C30.2138 14.2962 29.6029 15.8163 28.9881 16.1467C28.3734 16.4993 28.485 16.1345 27.5636 16.5764C27.9861 16.9207 28.4755 16.5259 28.8755 16.6314C29.0928 16.8773 28.7721 17.3253 28.9411 17.7473C29.2945 17.7148 29.2521 17.0345 29.3344 16.7878C29.5926 15.884 31.1451 15.2537 31.224 14.4246C31.5514 14.2781 31.8785 14.3788 32.2765 14.5919C32.0783 13.8152 31.4226 13.8235 31.2468 13.581C30.8284 12.9714 30.4576 12.2761 29.564 12.0957C28.8856 11.9587 28.9363 12.1369 28.5016 11.8542C28.2309 11.6533 27.4086 11.2733 27.5401 11.5815Z" fill="#FF9900"/>
<path d="M29.35 12.4067C29.4281 12.4067 29.4914 12.3463 29.4914 12.2719C29.4914 12.1974 29.4281 12.1371 29.35 12.1371C29.2719 12.1371 29.2086 12.1974 29.2086 12.2719C29.2086 12.3463 29.2719 12.4067 29.35 12.4067Z" fill="white"/>
<path d="M25.3705 14.1564C25.8069 13.6447 26.0231 12.6001 26.2163 12.2455C26.6628 12.348 26.658 12.4159 27.2053 12.0973C26.4702 11.8982 26.4148 11.9159 26.3303 11.5923C26.6391 10.6345 28.3342 10.4393 28.9279 10.8032C29.542 11.1567 29.1516 11.233 29.9918 11.8032C30.1138 11.2863 29.519 11.0582 29.43 10.6717C29.5565 10.3737 30.1218 10.4347 30.4342 10.0952C30.239 9.81235 29.6279 10.166 29.3606 10.2119C28.4018 10.4164 27.092 9.4022 26.2863 9.72294C25.9975 9.51545 25.938 9.19264 25.9497 8.75758C25.322 9.28751 25.6361 9.83634 25.4932 10.0978C25.1234 10.7353 24.6517 11.3727 24.9019 12.2102C25.0918 12.846 25.2333 12.7201 25.1742 13.2186C25.1143 13.5406 25.1461 14.4113 25.3705 14.1564Z" fill="#FF9900"/>
<path d="M25.2905 12.2452C25.2541 12.1794 25.1685 12.1542 25.0995 12.189C25.0304 12.2238 25.004 12.3054 25.0405 12.3712C25.077 12.437 25.1625 12.4622 25.2316 12.4274C25.3006 12.3926 25.327 12.3111 25.2905 12.2452Z" fill="white"/>
<path d="M28.9167 14.5162C28.2315 14.4248 27.182 14.7888 26.7638 14.8146C26.6248 14.3972 26.6883 14.3661 26.1191 14.0843C26.3207 14.7871 26.3652 14.8231 26.1184 15.0595C25.0989 15.3029 24.0468 14.0209 24.0664 13.3482C24.066 12.6643 24.3365 12.9434 24.4137 11.9629C23.8866 12.1307 23.9895 12.7341 23.6886 13.0066C23.3556 13.0576 23.118 12.5647 22.6516 12.4855C22.4987 12.791 23.1323 13.1068 23.3117 13.301C23.9913 13.9775 23.7584 15.5709 24.4631 16.0624C24.4262 16.4053 24.1672 16.6208 23.7707 16.8364C24.5711 17.0744 24.9013 16.5342 25.2099 16.5155C25.9734 16.4875 26.7896 16.5426 27.412 15.9053C27.8845 15.4215 27.6982 15.3711 28.1763 15.1615C28.4963 15.0438 29.2615 14.5674 28.9167 14.5162Z" fill="#FF9900"/>
<path d="M27.2426 15.5704C27.2024 15.6343 27.2241 15.7171 27.291 15.7554C27.358 15.7937 27.4448 15.7731 27.485 15.7093C27.5252 15.6455 27.5036 15.5627 27.4367 15.5243C27.3697 15.486 27.2829 15.5066 27.2426 15.5704Z" fill="white"/>
<path d="M23.0428 18.1039C23.3787 18.7416 23.7729 19.2528 24.2261 19.7061C25.2714 20.7438 25.7348 21.1343 27.3578 22.2011C28.9809 21.1343 29.4443 20.7438 30.4897 19.7061C30.9429 19.2528 31.337 18.7416 31.6729 18.1039H23.0428Z" fill="#99CCFF"/>
<path d="M21.3582 7.5011C21.3582 15.3663 22.2703 18.0764 24.096 19.9021C25.1849 20.9831 25.6676 21.3898 27.3582 22.5011C29.0489 21.3898 29.5316 20.9831 30.6205 19.9021C32.4462 18.0764 33.3582 15.3663 33.3582 7.5011C32.0303 8.06967 31.2736 8.34531 30.1785 8.32844C29.1989 8.31336 28.1609 7.85842 27.3582 7.5011C26.5555 7.85842 25.5176 8.31335 24.538 8.32844C23.4429 8.34531 22.6862 8.06967 21.3582 7.5011ZM21.7182 7.92109C22.9665 8.45782 23.6779 8.71807 24.7072 8.70215C25.6281 8.68791 26.6037 8.2584 27.3582 7.92109C28.1128 8.2584 29.0884 8.68793 30.0093 8.70215C31.0386 8.71807 31.75 8.45782 32.9982 7.92109C32.9982 15.3458 32.141 17.9042 30.4248 19.6277C29.4013 20.6481 28.9475 21.032 27.3582 22.0811C25.769 21.032 25.3152 20.6481 24.2917 19.6277C22.5755 17.9042 21.7182 15.3458 21.7182 7.92109Z" fill="#FDC301"/>
</g>
<defs>
<clipPath id="clip0_1_12962">
<rect y="0.0010376" width="30" height="30" rx="15" fill="white"/>
</clipPath>
</defs>
</svg>
