<svg width="30" height="30" viewBox="0 0 30 30" fill="none" xmlns="http://www.w3.org/2000/svg">
<path d="M30 15C30 23.2823 23.2822 30 15 30C6.71775 30 0 23.2823 0 15C0 6.71776 6.71775 1.04904e-05 15 1.04904e-05C23.2822 1.04904e-05 30 6.71776 30 15Z" fill="#CE1126"/>
<path d="M14.9932 23.7557C14.6844 23.3783 14.2041 22.9666 14.3413 22.4177C14.4168 22.2393 14.5746 22.1089 14.6501 21.9305C14.705 21.8001 14.6844 21.6492 14.6775 21.5051C14.4374 21.7589 14.2178 22.0746 13.8678 22.1981C13.6345 22.2942 13.3532 22.2256 13.1679 22.0609C13.0993 21.9991 13.0444 21.8619 13.1473 21.807C13.3944 21.6354 13.758 21.6697 13.9639 21.4364C14.1835 21.21 14.2246 20.8875 14.1903 20.5924C13.8198 20.7777 13.5728 21.2306 13.1268 21.2512C12.8042 21.3266 12.4406 21.1139 12.4063 20.7777C12.7425 20.5856 13.1405 20.6062 13.4904 20.4552C13.7031 20.3454 13.7855 20.1052 13.7375 19.8719C13.4218 19.9886 13.1336 20.2699 12.7699 20.2013C12.4817 20.2356 12.1798 20.0023 12.2004 19.7004C12.42 19.6592 12.6327 19.6249 12.8454 19.5906C13.2503 19.4877 13.5659 19.1858 13.8061 18.8564C14.1423 18.3555 14.3825 17.7791 14.4236 17.1684C14.4168 17.0174 14.3962 16.8459 14.2795 16.7361C13.9913 16.6949 13.8541 16.99 13.71 17.1684C13.3532 17.6967 13.0238 18.2594 12.8248 18.877C12.5298 18.877 12.2827 18.7191 12.0357 18.5613C11.8985 18.4653 11.7269 18.5613 11.5897 18.6094C11.178 18.7878 10.7594 18.9181 10.3477 19.0965C10.4987 19.1652 10.6496 19.2269 10.8006 19.2818C10.9721 19.3367 11.1711 19.2475 11.3152 19.3504C11.4319 19.4328 11.5279 19.5494 11.6171 19.6592C11.7201 19.7827 11.6652 19.9543 11.6583 20.1052C11.5966 20.0298 11.5279 19.9611 11.4525 19.8925C11.2878 19.7141 10.9859 19.968 10.828 19.769C10.6359 19.5151 10.334 19.3916 10.0458 19.275C9.95657 19.2475 9.86737 19.2063 9.77817 19.2544C9.52428 19.3916 9.26353 19.5357 9.06454 19.7553C8.96161 19.8719 8.89299 20.0229 8.76262 20.1052C8.62538 20.1807 8.46069 20.1464 8.30973 20.1807C8.22053 20.3317 8.14505 20.4895 8.0627 20.6473C7.8843 20.3729 8.01467 20.0503 8.09702 19.7621C8.16563 19.5083 8.4607 19.5014 8.68028 19.4877C8.97534 19.5151 9.22236 19.3024 9.44194 19.1446C8.94103 19.1446 8.44697 19.1789 7.94605 19.2406C7.76078 19.275 7.63041 19.124 7.47258 19.0691C7.30104 19.0554 7.1295 19.0897 6.95109 19.1034C7.03343 18.9936 7.0746 18.8358 7.22556 18.8015C7.41769 18.7329 7.63041 18.7054 7.8294 18.6574C8.06957 18.5956 8.25483 18.7946 8.46755 18.8358C8.80378 18.8907 9.14001 18.9044 9.47624 18.8907C9.20177 18.6643 8.89299 18.4584 8.52931 18.4378C8.33032 18.4309 8.25483 18.2182 8.08329 18.1565C7.92547 18.1222 7.75393 18.1359 7.5961 18.1153C7.651 18.0055 7.69902 17.8408 7.83626 17.8134C8.04898 17.7928 8.2617 17.8614 8.48128 17.8477C8.65282 17.8477 8.88613 17.834 8.96847 18.0192C9.18119 18.3761 9.54487 18.6025 9.90168 18.7946C9.98403 18.8358 10.0732 18.7809 10.1487 18.7603C10.629 18.5682 11.1094 18.3898 11.576 18.1633C11.4593 18.0192 11.3427 17.8751 11.226 17.7242C11.8093 17.4223 12.4131 17.086 12.7837 16.5234C12.9758 16.2283 13.1954 15.8921 13.1542 15.5215C12.8866 15.9195 12.667 16.441 12.1524 16.5714C11.974 16.6812 11.7818 16.4342 11.8985 16.2901C12.0014 16.1185 12.1729 15.995 12.2416 15.8029C12.3445 15.6107 12.3445 15.3774 12.3788 15.1647C12.269 15.1647 12.1112 15.0755 12.0426 15.199C11.8916 15.4529 11.823 15.7548 11.6789 16.0224C11.4662 16.4067 11.274 16.8459 10.8692 17.0517C10.6428 17.1203 10.2105 16.99 10.3134 16.6743C10.5467 16.4136 10.9035 16.2763 11.0545 15.9401C11.226 15.6107 11.4662 15.1922 11.2397 14.8353C10.8898 15.1304 10.7114 15.5696 10.4026 15.9058C9.99775 16.3587 9.64093 16.8939 9.0714 17.1684C8.80378 17.2919 8.495 17.3879 8.19994 17.3331C7.91174 17.2987 7.62355 17.1478 7.48631 16.8939C7.41083 16.7635 7.52062 16.6057 7.651 16.5782C7.85685 16.4959 8.06957 16.5851 8.28915 16.592C8.64596 16.6194 8.98219 16.441 9.2498 16.2283C9.77816 15.7411 10.1418 15.103 10.3889 14.4374C10.3546 14.3962 10.3203 14.355 10.2928 14.3138C9.90854 14.7393 9.51055 15.1853 9.0165 15.4804C8.68713 15.6793 8.28229 15.8303 7.89803 15.7205C7.60297 15.6656 7.26673 15.446 7.26673 15.1167C7.28731 14.9108 7.5412 14.8971 7.69903 14.9245C8.09701 14.9726 8.52931 15.0069 8.89299 14.8079C9.35274 14.5471 9.66837 14.1148 9.99088 13.7031C10.135 13.4698 10.3683 13.2503 10.334 12.9552C9.81934 13.2159 9.45566 13.6894 8.94789 13.957C8.56362 14.2246 8.04212 14.2933 7.60982 14.1011C7.40396 14.0188 7.253 13.7855 7.28731 13.559C7.23928 13.4012 7.3628 13.2571 7.5069 13.2434C7.93919 13.264 8.36463 13.463 8.79693 13.3395C9.26353 13.1679 9.62034 12.8042 9.93599 12.4337C10.0526 12.317 10.1213 12.1592 10.1213 11.9945C9.61348 12.1043 9.18119 12.4062 8.72145 12.619C8.4607 12.7356 8.15877 12.7493 7.87743 12.715C7.57551 12.6739 7.29418 12.4406 7.24614 12.1318C7.19811 11.9671 7.32849 11.8367 7.46573 11.8093C7.86371 11.7269 8.15191 12.1043 8.54303 12.0494C9.21549 12.0357 9.94971 11.6926 10.2036 11.0339C10.1693 10.9996 10.1418 10.9653 10.1075 10.9309C9.75758 10.9858 9.45566 11.178 9.11257 11.2672C8.46069 11.3907 7.71962 11.2603 7.25301 10.7525C7.09519 10.6016 7.17752 10.3546 7.32162 10.2242C7.62354 10.1693 7.88429 10.382 8.14504 10.5055C8.61851 10.7525 9.24294 10.8074 9.68896 10.4712C9.94971 10.2928 10.2311 10.0458 10.2242 9.69582C9.83307 9.75071 9.49683 9.97029 9.10571 10.0252C8.6391 10.0732 8.1176 10.0595 7.71275 9.77816C7.39711 9.58603 7.08833 9.22921 7.17753 8.82436C7.2187 8.65282 7.44514 8.57047 7.58923 8.6734C7.78823 8.8175 7.92547 9.04394 8.13818 9.16745C8.47442 9.41448 8.92043 9.44193 9.32528 9.41448C9.58603 9.38017 9.92913 9.43507 10.0938 9.16745C10.1144 8.98218 9.99089 8.81064 9.80562 8.79005C9.01651 8.65968 8.24798 8.36462 7.60296 7.89115C7.3628 7.7196 7.14322 7.4863 7.06774 7.1981C7.00598 6.92363 7.17753 6.56681 7.47945 6.54623C7.67845 6.54623 7.7951 6.7315 7.8843 6.88246C8.36463 7.69216 9.28412 8.12445 10.1693 8.30972C10.2173 8.16562 10.2791 8.02153 10.3546 7.88429C10.828 8.10387 11.3084 8.26855 11.7956 8.44696C11.9877 8.5293 12.2004 8.61164 12.3102 8.79691C12.5847 9.14001 12.3788 9.62034 12.5023 10.0115C12.5709 10.1693 12.7356 10.2928 12.9072 10.2928C13.2091 10.3271 13.4973 10.1075 13.5247 9.80561C13.5728 9.09197 13.2228 8.32345 12.5641 8.00094C12.1729 7.76077 11.7063 7.74019 11.2603 7.66471C10.9584 7.64412 10.8761 7.23241 10.5741 7.21869C10.3271 7.20497 10.0732 7.12948 9.89482 6.95794C9.81934 6.86873 9.70269 6.77953 9.71641 6.64915C9.77131 6.58054 9.84678 6.50506 9.94971 6.5874C10.1418 6.71091 10.2448 6.94422 10.4575 7.04714C10.7251 7.12949 10.9996 7.15007 11.2672 7.08832C11.2672 7.02656 11.2672 6.97166 11.2672 6.90991C11.1643 6.8756 11.0545 6.83443 10.9447 6.83443C10.8074 6.8756 10.6977 6.98539 10.5741 7.04714C10.6016 6.88246 10.5741 6.66974 10.7388 6.57368C10.9515 6.45016 11.2123 6.47761 11.4456 6.42958C11.6377 6.42958 11.775 6.27175 11.9602 6.25117C12.3239 6.21686 12.6739 6.34724 13.0032 6.4982C13.4012 6.71778 13.8678 6.54623 14.2933 6.51192C14.1492 6.7315 13.9364 6.88932 13.7031 6.99225C13.6963 7.01969 13.6826 7.06087 13.6826 7.08832C13.8953 7.24614 14.1286 7.36279 14.3687 7.47258C14.2521 7.56178 14.1286 7.63726 13.9982 7.69902C14.156 7.93232 14.4168 8.05584 14.6844 8.11759C14.5815 8.19993 14.4579 8.26169 14.3344 8.30972C14.4236 8.3852 14.4785 8.50872 14.5883 8.54989C14.6981 8.57047 14.801 8.57734 14.9177 8.5842C14.8697 8.68713 14.8285 8.79691 14.7873 8.9067C14.8697 8.91357 14.9451 8.92043 15.0275 8.92043C15.0275 8.92043 15.1647 8.92043 15.2471 8.9067C15.2059 8.79691 15.1716 8.68713 15.1167 8.5842C15.2333 8.57047 15.3363 8.57047 15.4461 8.54989C15.5558 8.50872 15.6107 8.3852 15.7068 8.30972C15.5764 8.26169 15.4666 8.19307 15.3569 8.11759C15.6245 8.0627 15.8852 7.93232 16.043 7.69902C15.9127 7.6304 15.7891 7.56178 15.6725 7.47258C15.9127 7.36279 16.1391 7.24614 16.3587 7.08832C16.3518 7.06087 16.3381 7.01969 16.3312 6.99225C16.0979 6.88932 15.8852 6.7315 15.7411 6.51192C16.1665 6.54623 16.6332 6.71778 17.0311 6.4982C17.3605 6.34724 17.7105 6.22372 18.0741 6.25117C18.2594 6.27862 18.3966 6.43644 18.5888 6.42958C18.8152 6.47761 19.0828 6.45016 19.2955 6.57368C19.4602 6.66974 19.4328 6.88932 19.4602 7.04714C19.3367 6.97852 19.2269 6.8756 19.0897 6.83443C18.9799 6.83443 18.8701 6.8756 18.7672 6.90991C18.7672 6.97166 18.7672 7.02656 18.7672 7.08832C19.0348 7.15007 19.3161 7.12949 19.5769 7.04714C19.7827 6.94422 19.8925 6.71091 20.0847 6.5874C20.1876 6.50506 20.2631 6.58054 20.318 6.64915C20.3317 6.77953 20.2082 6.86873 20.1396 6.95794C19.9543 7.13635 19.7004 7.20497 19.4602 7.21869C19.1583 7.23928 19.0828 7.64412 18.7809 7.66471C18.3349 7.74019 17.8683 7.76077 17.4772 8.00094C16.8184 8.32345 16.4685 9.09197 16.5165 9.80561C16.5508 10.1075 16.839 10.3271 17.1341 10.2928C17.3125 10.2928 17.4772 10.1693 17.5389 10.0115C17.6693 9.62034 17.4497 9.14001 17.731 8.79691C17.8408 8.61164 18.0536 8.5293 18.2457 8.44696C18.7329 8.26855 19.2132 8.10387 19.6867 7.88429C19.7622 8.01466 19.8171 8.16562 19.8719 8.30972C20.764 8.12445 21.6766 7.69216 22.1569 6.88246C22.2461 6.7315 22.3628 6.54623 22.5618 6.54623C22.8637 6.55995 23.0353 6.92363 22.9804 7.1981C22.9049 7.4863 22.6853 7.7196 22.4451 7.89115C21.8001 8.36462 21.0316 8.65968 20.2425 8.79005C20.0641 8.81064 19.9337 8.98218 19.9611 9.16745C20.1258 9.43507 20.4689 9.38017 20.7297 9.41448C21.1345 9.44193 21.5737 9.41448 21.9168 9.16745C22.1295 9.04394 22.2736 8.8175 22.4657 8.6734C22.6098 8.57047 22.8363 8.65282 22.8774 8.82436C22.9666 9.22921 22.6647 9.57916 22.3422 9.77816C21.9374 10.0595 21.4159 10.0732 20.9493 10.0252C20.5581 9.97715 20.2219 9.75757 19.8308 9.69582C19.8171 10.0389 20.1053 10.2928 20.366 10.4712C20.812 10.8074 21.4365 10.7525 21.9099 10.5055C22.1707 10.382 22.4314 10.1693 22.7402 10.2242C22.8774 10.3546 22.9598 10.6016 22.8088 10.7525C22.3422 11.2535 21.6011 11.3907 20.9424 11.2672C20.6062 11.178 20.2974 10.9858 19.9543 10.9309C19.92 10.9653 19.8925 10.9996 19.8582 11.0339C20.1121 11.6926 20.8532 12.0357 21.5188 12.0494C21.9099 12.1112 22.1981 11.7269 22.5961 11.8093C22.7333 11.8436 22.8706 11.9671 22.8225 12.1318C22.7814 12.4406 22.4932 12.6807 22.1912 12.715C21.9099 12.7493 21.608 12.7425 21.3472 12.619C20.8875 12.4062 20.4483 12.1043 19.9474 11.9945C19.9474 12.1592 20.0229 12.3102 20.1327 12.4337C20.4483 12.8042 20.8052 13.1679 21.2718 13.3395C21.7041 13.463 22.1364 13.264 22.5618 13.2434C22.7059 13.2571 22.8363 13.4012 22.7882 13.559C22.8225 13.7855 22.6716 14.0188 22.4589 14.1011C22.0334 14.3001 21.5051 14.2246 21.1208 13.957C20.613 13.6894 20.2425 13.2159 19.7347 12.9552C19.7004 13.2503 19.9337 13.4767 20.0778 13.7031C20.3935 14.1148 20.7091 14.5471 21.1757 14.8079C21.5394 15.0069 21.9717 14.9726 22.3697 14.9245C22.5206 14.904 22.7814 14.9108 22.8019 15.1167C22.8019 15.446 22.4726 15.6656 22.1707 15.7205C21.7795 15.8303 21.3816 15.6725 21.0522 15.4804C20.5513 15.1784 20.1601 14.7393 19.7759 14.3138C19.7416 14.355 19.7141 14.3962 19.6798 14.4374C19.9268 15.0961 20.2905 15.7411 20.8189 16.2283C21.0934 16.441 21.4227 16.6194 21.7795 16.592C21.9923 16.5851 22.205 16.4959 22.4108 16.5782C22.5412 16.6057 22.651 16.7635 22.5755 16.8939C22.4383 17.1546 22.1501 17.2987 21.8619 17.3331C21.56 17.3879 21.258 17.2919 20.9904 17.1684C20.4209 16.8939 20.0709 16.3587 19.6592 15.9058C19.3504 15.5764 19.172 15.1373 18.8221 14.8353C18.5956 15.1922 18.8358 15.6107 19.0073 15.9401C19.1652 16.2763 19.522 16.4136 19.7553 16.6743C19.8582 16.9831 19.4191 17.1203 19.1926 17.0517C18.7878 16.8459 18.5888 16.3998 18.3829 16.0224C18.232 15.7617 18.1702 15.4529 18.0193 15.199C17.9438 15.0755 17.7928 15.1647 17.683 15.1647C17.7105 15.3774 17.7105 15.6039 17.8203 15.8029C17.8889 15.995 18.0604 16.1185 18.1633 16.2901C18.2731 16.441 18.0879 16.6812 17.9095 16.5714C17.3948 16.441 17.1821 15.9195 16.9145 15.5215C16.8733 15.8921 17.0929 16.2214 17.285 16.5234C17.6556 17.086 18.2663 17.4154 18.8427 17.7242C18.726 17.8751 18.6094 18.0192 18.4927 18.1633C18.9525 18.3898 19.4397 18.5682 19.9131 18.7603C19.9886 18.7809 20.0778 18.8289 20.1601 18.7946C20.517 18.6094 20.8806 18.3829 21.0934 18.0192C21.1826 17.834 21.409 17.8477 21.5874 17.8477C21.8001 17.8614 22.0128 17.7928 22.2256 17.8134C22.3628 17.8477 22.4108 18.0055 22.4657 18.1153C22.301 18.1359 22.1364 18.1222 21.9717 18.1565C21.8001 18.2182 21.7246 18.4309 21.5256 18.4378C21.1551 18.4515 20.8532 18.6643 20.5787 18.8907C20.9149 18.9044 21.2512 18.8907 21.5874 18.8358C21.807 18.7946 21.9923 18.5888 22.2256 18.6574C22.4314 18.7123 22.6373 18.7329 22.8294 18.8015C22.9804 18.8358 23.0215 19.0005 23.1039 19.1034C22.9323 19.0897 22.7608 19.0554 22.5824 19.0691C22.4246 19.1309 22.2942 19.2818 22.1089 19.2406C21.6149 19.172 21.1139 19.1446 20.613 19.1446C20.8326 19.3093 21.0796 19.5151 21.3747 19.4877C21.5943 19.5083 21.8893 19.5083 21.9579 19.7621C22.0403 20.0503 22.1707 20.3729 21.9923 20.6473C21.9099 20.4895 21.8344 20.3317 21.7452 20.1807C21.5943 20.1464 21.4296 20.1807 21.2923 20.1052C21.1551 20.016 21.0934 19.8651 20.9904 19.7553C20.7914 19.5357 20.5307 19.3916 20.2768 19.2544C20.1876 19.2063 20.0915 19.2475 20.0092 19.275C19.721 19.3847 19.4191 19.5083 19.2338 19.769C19.076 19.968 18.774 19.721 18.6094 19.8925C18.5339 19.9611 18.4653 20.0298 18.3966 20.1052C18.3898 19.9543 18.3349 19.7827 18.4378 19.6592C18.527 19.5494 18.6231 19.4328 18.7397 19.3504C18.8838 19.2475 19.0828 19.3367 19.2544 19.2818C19.4053 19.2338 19.5563 19.1652 19.7073 19.0965C19.3024 18.9181 18.877 18.7878 18.4653 18.6094C18.328 18.5613 18.1565 18.4584 18.0193 18.5613C17.7791 18.7191 17.5252 18.8838 17.2301 18.877C17.0311 18.2594 16.7018 17.6967 16.3381 17.1684C16.194 16.99 16.0568 16.6949 15.7686 16.7361C15.6519 16.8459 15.6313 17.0174 15.6245 17.1684C15.6656 17.7722 15.9058 18.3555 16.242 18.8564C16.4822 19.1789 16.7978 19.4877 17.2027 19.5906C17.4154 19.6249 17.6281 19.6592 17.8477 19.7004C17.8683 20.0023 17.5664 20.2356 17.2782 20.2013C16.9145 20.2699 16.6263 19.9886 16.3106 19.8719C16.2626 20.1052 16.3381 20.3454 16.5577 20.4552C16.9008 20.613 17.3056 20.5856 17.6418 20.7777C17.6007 21.1139 17.237 21.3266 16.9214 21.2512C16.4685 21.2374 16.2214 20.7846 15.8509 20.5924C15.8166 20.8875 15.8578 21.2169 16.0773 21.4364C16.2832 21.6766 16.6469 21.6423 16.8939 21.807C16.9968 21.8619 16.9419 21.9991 16.8733 22.0609C16.688 22.2256 16.4136 22.2942 16.1734 22.1981C15.8235 22.0746 15.6107 21.7589 15.3706 21.5051C15.3637 21.6492 15.3431 21.8001 15.398 21.9305C15.4735 22.1089 15.6382 22.2393 15.7068 22.4177C15.7891 22.9666 15.3157 23.3783 14.9932 23.7557Z" fill="#030001"/>
</svg>
