<svg width="30" height="30" viewBox="0 0 30 30" fill="none" xmlns="http://www.w3.org/2000/svg">
<path d="M15 30C21.0522 30 26.2672 26.4113 28.6345 21.2512H1.36551C3.73285 26.4181 8.94785 30 15 30Z" fill="#FF9900"/>
<path d="M15 0C8.94785 0 3.73285 3.58875 1.36551 8.74886H28.6345C26.2603 3.58875 21.0522 0 15 0Z" fill="#FA0000"/>
<path d="M0 15C0 17.2301 0.494047 19.3436 1.3655 21.2512H28.6345C29.506 19.3504 30 17.2301 30 15C30 12.7699 29.506 10.6496 28.6345 8.74886H1.3655C0.487185 10.6565 0 12.7699 0 15Z" fill="#0000AA"/>
</svg>
