<svg width="30" height="30" viewBox="0 0 30 30" fill="none" xmlns="http://www.w3.org/2000/svg">
<path d="M15 30C23.2822 30 30 23.2823 30 15H0C0 23.2891 6.71774 30 15 30Z" fill="black"/>
<path d="M15 1.04904e-05C6.71774 1.04904e-05 0 6.71776 0 15H30C30 6.71776 23.2822 1.04904e-05 15 1.04904e-05Z" fill="#CE1126"/>
<path d="M10.8005 10.7662H12.7013L13.2914 8.96158L13.8815 10.7662H15.7822L14.2452 11.8847L14.8284 13.6894L13.2914 12.5709L11.7475 13.6963L12.3376 11.8916L10.8005 10.7662Z" fill="#F9D616"/>
<path d="M18.3074 20.9698L18.9867 20.1738L20.1807 21.1757C20.1807 21.1757 20.7983 21.7452 21.0178 22.102C21.3335 22.6167 20.9492 23.2617 20.4483 22.9186C20.1807 22.7333 20.167 22.3147 19.7415 21.9168C19.4465 21.6423 19.2063 21.3404 18.3897 21.1551C18.3554 21.1345 18.3074 20.9698 18.3074 20.9698Z" fill="#F9D616"/>
<path d="M20.3659 14.6912C20.414 14.2178 20.414 13.7374 20.3659 13.264L19.8101 13.3189C19.769 12.8728 19.6798 12.4405 19.5494 12.0288L20.0846 11.8641C19.9474 11.4113 19.7621 10.9652 19.5357 10.5467L19.0347 10.8143C18.822 10.4232 18.5819 10.0595 18.3005 9.72325L18.7466 9.35957C18.4446 8.98903 18.1084 8.6528 17.7379 8.35088L17.3673 8.80376C17.0311 8.52929 16.6605 8.28912 16.2694 8.08327L16.5508 7.56177C16.1322 7.33533 15.6862 7.15692 15.2333 7.01282L15.0617 7.58235C14.6637 7.45884 14.2452 7.3765 13.8197 7.32846L13.6894 8.57732C16.4341 8.86552 18.5887 11.1642 18.5887 13.9845C18.5887 15.6519 17.8339 17.1478 16.6537 18.1496L18.1839 19.2132C18.3829 19.0211 18.575 18.8152 18.7534 18.6025L18.3211 18.2457C18.6024 17.9094 18.8426 17.5389 19.0553 17.1478L19.5494 17.4154C19.7758 16.9968 19.9542 16.5508 20.0983 16.0979L19.5631 15.9332C19.6866 15.5215 19.7758 15.0892 19.817 14.6432L20.3659 14.6912Z" fill="#F9D616"/>
<path d="M14.8902 19.1377C14.3344 19.3298 13.7374 19.4396 13.1198 19.4396C11.8024 19.4396 10.6153 18.9524 9.6752 18.177L8.87923 19.1514C9.21546 19.4259 9.57913 19.6729 9.96339 19.8788L9.68892 20.3934C10.1075 20.6199 10.5535 20.8051 11.0064 20.9424L11.1711 20.3934C11.5828 20.5238 12.0151 20.6199 12.4611 20.661L12.4062 21.2168C12.8797 21.2649 13.36 21.2649 13.8335 21.2168L13.7786 20.661C14.2246 20.6199 14.6569 20.5307 15.0686 20.4003L15.2333 20.9355C15.4597 20.8669 15.6793 20.7845 15.8989 20.6953L15.6038 19.5494L14.8902 19.1377Z" fill="#F9D616"/>
<path d="M18.2251 20.86C18.2251 20.86 14.9588 18.8701 12.6326 17.5458C11.2054 16.688 9.57913 15.2127 10.7045 13.0238C11.2054 14.8285 18.8563 20.1189 18.8563 20.1189L18.2251 20.86Z" fill="#F9D616"/>
<path d="M18.2114 20.0778C16.194 18.1839 13.4286 17.0654 11.473 14.8147C11.4593 14.801 11.4661 14.7873 11.473 14.7736C11.4867 14.7667 11.5005 14.7667 11.5142 14.7736C13.4561 17.0105 16.2214 18.1359 18.2525 20.0366C18.2662 20.0503 18.2662 20.0641 18.2525 20.0778C18.2457 20.0846 18.2388 20.0846 18.2319 20.0846C18.2251 20.0846 18.2182 20.0846 18.2114 20.0778Z" fill="black"/>
<path d="M19.4602 20.8394C19.4602 20.9081 19.4053 20.9561 19.3436 20.9561C19.2818 20.9561 19.2269 20.9012 19.2269 20.8394C19.2269 20.7708 19.2818 20.7228 19.3436 20.7228C19.4122 20.7159 19.4602 20.7708 19.4602 20.8394Z" fill="black"/>
<path d="M20.1189 21.4158C20.1189 21.4845 20.064 21.5325 20.0023 21.5325C19.9337 21.5325 19.8856 21.4776 19.8856 21.4158C19.8856 21.3472 19.9405 21.2923 20.0023 21.2923C20.064 21.2992 20.1189 21.3541 20.1189 21.4158Z" fill="black"/>
<path d="M20.7228 22.0471C20.7228 22.1157 20.6679 22.1638 20.6061 22.1638C20.5375 22.1638 20.4826 22.1089 20.4826 22.0471C20.4826 21.9785 20.5375 21.9236 20.6061 21.9236C20.6679 21.9236 20.7228 21.9785 20.7228 22.0471Z" fill="black"/>
</svg>
