<svg width="30" height="30" viewBox="0 0 30 30" fill="none" xmlns="http://www.w3.org/2000/svg">
<path d="M30 15C30 6.71575 23.2843 1.01907e-05 15 1.05528e-05C6.71573 1.09149e-05 -1.01779e-06 6.71575 -6.5567e-07 15C-2.93553e-07 23.2843 6.71573 30 15 30C23.2843 30 30 23.2843 30 15Z" fill="#3A7DCE"/>
<path d="M14.6874 6.31543C14.6874 6.31543 15.4902 6.37719 15.6755 6.40463C15.8539 6.43208 16.197 6.54187 16.4166 6.53501C16.6293 6.52815 16.9312 6.39777 16.993 6.41836C17.0478 6.43894 17.0959 6.52129 17.1577 6.52129C17.2194 6.52129 17.3361 6.58304 17.3978 6.6997C17.4596 6.82321 17.439 6.92614 17.535 6.94673C17.6311 6.97417 17.8233 6.933 17.8644 6.94673C17.9056 6.96045 17.9879 7.31041 18.235 7.35844C18.8869 7.48882 18.9761 7.15945 19.3054 7.22806C19.6279 7.29668 19.477 7.52999 19.6622 7.59175C19.8544 7.6535 19.9298 7.50254 19.9298 7.50254C19.9298 7.50254 20.2661 8.18873 20.2386 8.40145C20.2386 8.40145 20.4033 8.46321 20.5749 8.13384C20.5749 8.13384 20.9248 8.1407 21.165 8.24363C21.4052 8.34656 21.9198 8.49752 21.9198 8.49752C21.9198 8.49752 21.9473 8.63476 22.0914 8.67593C22.2355 8.7171 22.2972 8.70337 22.2972 8.70337L22.3796 8.92982C22.3796 8.92982 22.558 8.73768 22.7158 8.79258C22.8668 8.84061 23.2648 9.27978 23.2648 9.27978C23.2648 9.27978 23.2167 9.89735 23.2442 10.0758C23.2785 10.2542 23.5186 10.9061 23.5186 10.9061C23.5186 10.9061 23.5118 11.1531 23.5941 11.3589C23.6833 11.5648 23.7931 11.7638 23.7657 11.9216C23.7382 12.0863 23.5255 12.3196 23.5255 12.3196C23.5255 12.3196 23.7039 12.3882 23.6902 12.5941C23.6765 12.7999 23.3608 13.3283 23.3608 13.3283C23.3608 13.3283 23.8411 13.3901 24.047 13.541C24.2529 13.6989 24.3558 13.8361 24.5136 13.9047C24.6646 13.9733 25.1449 13.8498 25.1449 13.8498C25.1449 13.8498 24.9939 14.0351 24.9939 14.2753C24.9939 14.5154 25.2478 15.0438 25.2478 15.0438C25.2478 15.0438 25.0283 15.1467 24.9939 15.2839C24.9596 15.4212 25.042 15.5927 24.9939 15.73C24.9391 15.8672 24.8704 15.9907 24.8704 15.9907C24.8704 15.9907 25.0969 16.3338 25.4194 16.3819C25.4194 16.3819 25.1998 16.8279 25.1449 17.2053C25.0969 17.5827 25.1655 17.8572 25.1655 17.8572C25.1655 17.8572 24.9047 17.8572 24.7881 17.9807C24.6646 18.0973 24.5616 18.4404 24.4793 18.5502C24.3901 18.6532 24.2735 18.5983 24.2735 18.5983C24.2735 18.5983 24.5342 19.3874 24.4313 19.6824C24.4313 19.6824 24.2529 19.6413 24.1362 19.7442C24.0196 19.8471 23.8961 20.0118 23.8961 20.0118L23.6421 19.9638C23.6421 19.9638 23.4638 20.3686 23.4638 20.499C23.4638 20.6362 23.6284 20.945 23.6284 20.945L23.1961 20.9176C23.1961 20.9176 23.2579 21.1234 23.2991 21.1852C23.3402 21.2401 23.3608 21.3362 23.3608 21.3362C23.3608 21.3362 22.7089 21.6518 22.4688 21.6793C22.4688 21.6793 22.5099 22.1116 22.7089 22.2282C22.7089 22.2282 22.3658 22.3174 22.2903 22.4684C22.2149 22.6193 22.1257 22.7977 22.1257 22.7977L22.3384 22.9762C22.3384 22.9762 22.0365 22.8389 21.8306 22.9213C21.6179 22.9967 21.4601 23.1477 21.412 23.2369C21.412 23.2369 21.1376 23.3124 21.0415 23.3879C20.9454 23.4634 20.8974 23.5457 20.8974 23.5457C20.8974 23.5457 20.8356 23.4153 20.767 23.4153C20.6984 23.4153 20.2318 23.93 20.2318 23.93L20.2936 23.6418L19.8063 23.7378C19.8063 23.7378 19.7789 23.4977 19.7103 23.4771C19.6417 23.4565 19.3878 23.7859 19.2917 23.8133C19.1956 23.8408 19.1751 23.7035 19.1133 23.7172C19.0447 23.7378 18.8663 24.0741 18.8663 24.0741C18.8663 24.0741 18.6261 23.8957 18.482 23.9025C18.3379 23.9094 18.0909 23.9917 17.9262 23.9574C17.7546 23.9231 17.4459 23.6418 17.3772 23.6486C17.3086 23.6555 17.2674 23.8133 17.2674 23.8133C17.2674 23.8133 17.1645 23.7241 17.0753 23.7721C16.993 23.8133 16.9038 23.8408 16.8557 23.8133C16.8008 23.7859 16.7597 23.6486 16.6567 23.6623C16.5538 23.6829 16.4509 23.8408 16.4097 23.827C16.3685 23.8133 16.3411 23.6623 16.2313 23.5869C16.1215 23.5114 15.648 23.3947 15.6343 23.2644C15.6137 23.1271 15.9019 23.0722 15.9842 22.9967C16.0666 22.9213 15.998 22.7909 16.046 22.7085C16.0872 22.6193 16.3891 22.4684 16.444 22.3449C16.492 22.2282 16.4166 22.1596 16.4371 22.0429C16.4509 21.9331 16.5469 21.8577 16.5469 21.693C16.5469 21.5283 16.2381 20.5951 16.094 20.5745C15.9499 20.5539 15.847 20.9176 15.648 20.9793C15.2432 21.1097 14.207 20.5608 14.0286 20.5265C13.8502 20.4921 13.5002 20.6019 13.3287 20.5265C13.1571 20.451 13.1915 20.3755 13.1915 20.3755C13.1915 20.3755 13.1023 20.499 13.013 20.5127C12.9238 20.5196 12.7729 20.4098 12.6494 20.4304C12.4298 20.4647 12.4504 20.65 12.2926 20.6774C12.1004 20.7117 11.0094 20.5882 11.0094 20.5882L11.0162 20.7872C11.0162 20.7872 10.4055 20.4372 10.2202 20.3755C10.0281 20.3137 9.71246 20.2931 9.53405 20.1834C9.35564 20.0736 9.26644 19.8403 9.08116 19.7854C8.89589 19.7305 8.5185 19.8471 8.5185 19.8471L8.50477 19.3119H8.05188C8.05188 19.3119 8.20284 18.9757 8.16167 18.6943C8.1205 18.413 7.96269 17.7954 7.96269 17.7954L7.61273 17.8709C7.61273 17.8709 7.48234 17.6993 7.51665 17.5896C7.55096 17.4798 7.69507 17.5072 7.68135 17.3974C7.66076 17.2945 7.33825 17.1573 7.33825 17.1573C7.33825 17.1573 7.33138 16.773 7.24218 16.773C7.15983 16.773 7.14612 16.8622 7.14612 16.8622L7.21472 17.0612C7.21472 17.0612 6.61774 16.9994 6.50795 16.7936C6.39816 16.5877 6.3364 16.2652 6.36385 16.1074C6.36385 16.1074 6.71382 16.1691 6.90595 16.1074C6.90595 16.1074 6.67264 15.1261 6.72753 15.0095C6.78243 14.8997 7.03633 14.735 7.12554 14.5909C7.20788 14.4468 7.17355 14.3164 7.17355 14.3164L7.44805 14.3096C7.44805 14.3096 7.26962 13.9939 7.26276 13.8978C7.2559 13.8018 7.26963 13.5891 7.26963 13.5891L7.09808 13.5822C7.09808 13.5822 6.97457 13.8292 6.9334 13.8567C6.89223 13.8841 6.84419 13.8224 6.84419 13.8224C6.84419 13.8224 6.92652 13.6371 6.89221 13.5479C6.8579 13.4587 6.79616 13.4381 6.79616 13.4381L6.80302 13.1499C6.80302 13.1499 6.65893 13.1842 6.59031 13.1019C6.52169 13.0127 6.46679 12.8686 6.41876 12.8617C6.37073 12.8548 6.28151 12.9578 6.28151 12.9578C6.28151 12.9578 6.31583 13.0813 6.2678 13.1019C6.2129 13.1293 6.1031 13.0195 6.02076 13.0127C5.93155 13.0058 5.83548 12.9235 5.82175 12.8548C5.81489 12.7862 5.80804 12.6078 5.65708 12.6078C5.65708 12.6078 5.74628 12.3265 5.82862 12.2441C5.91097 12.1686 6.2678 12.0657 6.2678 12.0657C6.2678 12.0657 6.06878 11.9353 5.97272 11.8324C5.87665 11.7295 5.81491 11.5922 5.81491 11.5922C5.81491 11.5922 5.22477 11.3315 5.09439 11.1119C4.96402 10.8855 4.62779 9.87676 4.65524 9.28664C4.65524 9.28664 4.77875 9.1494 4.92285 9.38957C5.06695 9.62973 5.33458 10.0414 5.5816 10.2199C5.82863 10.3983 6.16485 10.4394 6.42561 10.6178C6.69322 10.7963 6.7893 10.9609 6.99516 11.0707C7.20101 11.1805 7.61958 11.208 7.81857 11.3452C8.01757 11.4825 8.38811 11.9491 8.60769 12.0589C8.82727 12.1618 9.02628 11.8873 9.02628 11.8873C9.02628 11.8873 9.33506 11.8873 9.51347 11.8461C9.69874 11.805 9.9252 11.702 10.0007 11.5922C10.0007 11.5922 10.2889 11.606 10.5565 11.5648C10.8241 11.5236 11.0231 11.4413 11.0231 11.4413L10.9339 11.0982C10.9339 11.0982 11.0574 10.8992 11.3868 10.9678C11.3868 10.9678 11.3181 10.4806 11.6132 10.1855C11.6132 10.1855 11.4966 10.0415 11.5309 9.95225C11.5652 9.86304 11.6887 9.82873 11.7162 9.71208C11.7436 9.58856 11.6818 9.52681 11.723 9.3827C11.7642 9.2386 11.8397 9.19743 11.8259 9.13568C11.8122 9.07392 11.7161 9.03961 11.723 8.93668C11.7299 8.83375 12.0935 8.69651 12.1073 8.60731C12.121 8.5181 11.9975 8.374 11.9975 8.374C11.9975 8.374 12.1004 8.05836 12.0181 7.8525C12.0181 7.8525 12.1896 7.7976 12.3063 7.71526C12.4229 7.63292 12.5739 7.44078 12.6974 7.42706L12.8209 7.47509C12.8209 7.47509 12.8484 7.03593 13.0268 6.91242C13.2052 6.78204 13.5346 6.74773 13.5346 6.74773C13.5346 6.74773 13.5963 6.56246 13.4248 6.44581C13.4248 6.44581 13.5208 6.33602 13.6581 6.39777C13.7953 6.45953 13.9463 6.68597 14.008 6.67911C14.0698 6.67225 14.0698 6.54187 14.111 6.51443C14.1521 6.48698 14.31 6.48698 14.3511 6.43894C14.3923 6.39091 14.4746 5.88999 14.5707 5.89685C14.6187 5.93116 14.6599 6.17133 14.6874 6.31543Z" fill="white"/>
</svg>
