<svg width="30" height="30" viewBox="0 0 30 30" fill="none" xmlns="http://www.w3.org/2000/svg">
<path d="M15 30C21.0522 30 26.2672 26.4113 28.6345 21.2511H1.36551C3.73285 26.4181 8.94785 30 15 30Z" fill="#75AADB"/>
<path d="M15 0C8.94785 0 3.73285 3.58875 1.36551 8.74886H28.6345C26.2603 3.58875 21.0522 0 15 0Z" fill="#75AADB"/>
<path d="M0 15C0 17.2301 0.494047 19.3436 1.3655 21.2511H28.6345C29.506 19.3504 30 17.2301 30 15C30 12.7699 29.506 10.6564 28.6345 8.74885H1.3655C0.487185 10.6564 0 12.7699 0 15Z" fill="#F1F4FB"/>
<path d="M14.9383 9.78502C14.9726 9.74385 15.048 9.75071 15.0686 9.79874C15.0961 9.86736 15.0892 9.94284 15.0961 10.0183C15.1304 10.979 15.1647 11.9465 15.2059 12.9072C15.2882 12.715 15.2882 12.4955 15.3088 12.2896C15.3225 12.0426 15.3911 11.8024 15.5009 11.5828C15.597 11.3907 15.6793 11.1917 15.7136 10.979C15.7411 10.8417 15.7274 10.6976 15.7205 10.5535C15.7137 10.3546 15.7754 10.1556 15.8989 9.99774C15.947 9.94284 16.0156 9.88795 16.091 9.88795C16.1322 9.88109 16.1665 9.92226 16.1528 9.96343C16.1185 10.0252 16.0567 10.0801 16.0224 10.1487C15.9744 10.231 15.9607 10.334 15.9675 10.43C15.9881 10.6084 16.0156 10.7937 16.0019 10.979C15.995 11.1917 15.9401 11.4044 15.844 11.5966C15.7823 11.7132 15.7342 11.8367 15.7136 11.9671C15.6519 12.2896 15.6793 12.619 15.6313 12.9415C16.043 12.0426 16.4547 11.1437 16.8664 10.2448C16.887 10.1967 16.9282 10.135 16.9968 10.1487C17.0586 10.1693 17.0517 10.2516 17.038 10.3065C16.688 11.2603 16.3312 12.2073 15.9881 13.1611C16.2214 12.9072 16.3106 12.5572 16.5302 12.2896C16.6743 12.0975 16.8802 11.9671 17.038 11.7818C17.134 11.672 17.2233 11.5485 17.2782 11.4113C17.3399 11.2603 17.3811 11.0888 17.4909 10.9584C17.587 10.8349 17.7173 10.7251 17.8751 10.6976C17.93 10.6908 18.0261 10.7182 17.9987 10.7937C17.9438 10.8555 17.8546 10.8692 17.7928 10.931C17.6624 11.0339 17.635 11.1986 17.587 11.3495C17.5183 11.5897 17.4223 11.823 17.2576 12.0151C17.1478 12.1592 16.99 12.2553 16.8802 12.3994C16.6537 12.6876 16.5645 13.0513 16.3655 13.3532C17.0723 12.7013 17.7722 12.0494 18.479 11.3976C18.5339 11.3495 18.575 11.2946 18.6368 11.274C18.6848 11.2603 18.7397 11.3152 18.726 11.3632C18.7054 11.4319 18.6437 11.4799 18.5956 11.5348C17.9369 12.2484 17.2713 12.9621 16.6125 13.6757C16.8802 13.559 17.0654 13.3326 17.2987 13.1679C17.4497 13.065 17.6144 12.9895 17.7859 12.9346C18.0055 12.8591 18.2251 12.7631 18.4035 12.6121C18.5476 12.4886 18.6505 12.3239 18.8152 12.2278C18.9525 12.1455 19.1171 12.0906 19.2818 12.1181C19.3299 12.1318 19.3985 12.1592 19.3916 12.2278C19.3779 12.2827 19.3024 12.2759 19.2613 12.2827C19.1377 12.2896 19.0211 12.3376 18.9387 12.4268C18.8221 12.5572 18.7192 12.7013 18.6025 12.8248C18.4378 12.9895 18.2388 13.1199 18.0192 13.1885C17.8888 13.2297 17.7585 13.2846 17.6487 13.3669C17.3742 13.5453 17.1684 13.8061 16.9008 13.9913C17.8271 13.6482 18.7603 13.3052 19.6867 12.9552C19.7416 12.9346 19.8239 12.9277 19.8445 12.9964C19.8651 13.0513 19.8102 13.0924 19.7622 13.1199C18.8427 13.5453 17.9163 13.9639 16.9968 14.3893C17.2438 14.3825 17.4703 14.2795 17.7036 14.2178C17.9095 14.156 18.1359 14.1423 18.3555 14.156C18.5957 14.1766 18.8427 14.1766 19.0691 14.0943C19.2338 14.0394 19.3779 13.9433 19.5494 13.909C19.6935 13.8815 19.8376 13.8815 19.9749 13.9364C20.0298 13.957 20.0984 13.9913 20.1258 14.0531C20.1464 14.0943 20.1258 14.1423 20.0846 14.1492C20.0023 14.1423 19.9337 14.0943 19.8514 14.0943C19.7553 14.0874 19.6592 14.1149 19.5769 14.156C19.4053 14.2452 19.2338 14.3482 19.0554 14.4099C18.8564 14.4785 18.6505 14.4991 18.4447 14.4854C18.3075 14.4717 18.1633 14.4854 18.0192 14.5128C17.7104 14.5883 17.4223 14.7324 17.1135 14.801C17.5732 14.801 18.0261 14.8285 18.4859 14.8491C19.028 14.8697 19.57 14.8902 20.1053 14.9108C20.1601 14.9108 20.2356 14.9314 20.2356 15C20.2356 15.0618 20.1738 15.0892 20.1258 15.0892C19.1103 15.1304 18.1016 15.1579 17.086 15.2059C17.2987 15.2882 17.5321 15.2882 17.7516 15.3088C17.9781 15.3294 18.2045 15.3912 18.4104 15.4941C18.6162 15.597 18.8289 15.6931 19.0554 15.7137C19.2544 15.7411 19.4671 15.6862 19.6661 15.7411C19.7965 15.7686 19.92 15.8303 20.016 15.9264C20.0572 15.9744 20.0984 16.0293 20.0984 16.0911C20.0984 16.1254 20.0641 16.1665 20.0229 16.1528C19.9474 16.1048 19.8857 16.0362 19.8033 16.0019C19.6661 15.9401 19.5083 15.9744 19.3642 15.9881C19.1103 16.0156 18.8495 16.0156 18.6094 15.9332C18.4447 15.8852 18.3006 15.7823 18.129 15.7342C17.7791 15.6382 17.4017 15.6794 17.038 15.6245C17.9163 16.0156 18.7878 16.4273 19.6661 16.8253C19.721 16.8527 19.8033 16.8733 19.8308 16.9419C19.8513 17.0174 19.7621 17.0586 19.6935 17.0311C18.7329 16.6812 17.7791 16.3175 16.8253 15.9744C17.0105 16.146 17.2507 16.242 17.4703 16.3655C17.6487 16.4685 17.8134 16.6057 17.9506 16.7704C18.0879 16.9282 18.2388 17.0792 18.4172 17.189C18.5407 17.2644 18.6711 17.3056 18.8084 17.3605C18.9936 17.4291 19.1583 17.5664 19.2475 17.7516C19.2818 17.8202 19.3024 17.8957 19.275 17.9643C19.2612 18.0055 19.1926 18.0192 19.172 17.9781C19.124 17.9095 19.0966 17.8203 19.0279 17.7585C18.925 17.6556 18.774 17.6281 18.6368 17.5869C18.3966 17.5183 18.1633 17.4223 17.9781 17.2576C17.834 17.1478 17.7379 16.99 17.5938 16.8802C17.3056 16.6537 16.9351 16.5577 16.6263 16.3587C17.3056 17.0792 17.9781 17.8134 18.6574 18.5407C18.6986 18.5819 18.7466 18.6505 18.6917 18.7054C18.6437 18.7535 18.5819 18.7192 18.5407 18.678C17.9026 18.081 17.2576 17.484 16.6194 16.8939C16.5165 16.8047 16.4204 16.7086 16.3175 16.6194C16.4273 16.8665 16.64 17.0517 16.7978 17.2713C16.9145 17.4291 16.9968 17.6007 17.0586 17.7859C17.1272 17.9849 17.2095 18.1977 17.3468 18.3692C17.4291 18.4721 17.5321 18.5613 17.6281 18.6574C17.7654 18.7946 17.8614 18.973 17.882 19.172C17.8889 19.2475 17.882 19.3367 17.8271 19.3916C17.7997 19.4259 17.7379 19.4122 17.7242 19.3642C17.7104 19.275 17.7173 19.1858 17.6761 19.1103C17.6212 18.973 17.4909 18.8907 17.3811 18.8015C17.1889 18.6437 17.0106 18.4721 16.8939 18.2525C16.7978 18.0879 16.7704 17.8957 16.6743 17.7379C16.4959 17.4291 16.2077 17.2027 16.0019 16.9145C16.345 17.8477 16.6881 18.774 17.0312 19.7004C17.0517 19.7553 17.0586 19.8376 16.9899 19.8582C16.9282 19.8719 16.887 19.8102 16.8664 19.7622C16.4822 18.9319 16.0979 18.0947 15.7205 17.2644C15.6793 17.1821 15.645 17.0929 15.6039 17.0174C15.6107 17.2576 15.7068 17.4909 15.7754 17.7173C15.8372 17.9232 15.8509 18.1359 15.8372 18.3486C15.8234 18.5682 15.8166 18.7878 15.8715 19.0005C15.9058 19.1377 15.9744 19.2612 16.0293 19.3916C16.1117 19.5769 16.1254 19.7896 16.0567 19.9817C16.0362 20.0504 15.9881 20.119 15.9195 20.1396C15.8783 20.1464 15.8303 20.1121 15.844 20.0709C15.8646 19.9817 15.9058 19.9063 15.8989 19.817C15.8989 19.673 15.8097 19.5494 15.7411 19.4259C15.6176 19.2063 15.5215 18.973 15.5009 18.726C15.4803 18.5407 15.5215 18.3623 15.4941 18.1771C15.4529 17.8065 15.2539 17.484 15.1853 17.1203C15.1579 18.1084 15.1098 19.1034 15.0755 20.0915C15.0755 20.1533 15.0618 20.2425 14.9863 20.2425C14.9177 20.2425 14.8971 20.1739 14.8971 20.119C14.8559 19.1103 14.8216 18.1016 14.7804 17.0929C14.6981 17.2919 14.7049 17.5046 14.6775 17.7105C14.6638 17.9506 14.5952 18.1908 14.4854 18.4104C14.3825 18.6162 14.2864 18.8289 14.2658 19.0554C14.2384 19.275 14.3001 19.5014 14.2246 19.7141C14.1766 19.8651 14.0942 20.0229 13.9501 20.0915C13.8953 20.119 13.806 20.0984 13.8198 20.0298C13.8609 19.9543 13.9296 19.8994 13.9639 19.817C14.0188 19.7073 13.9982 19.5769 13.9913 19.4602C13.957 19.1926 13.9433 18.9181 14.0257 18.6574C14.0737 18.4653 14.1972 18.3006 14.2452 18.1084C14.3344 17.7585 14.2864 17.4017 14.3481 17.0517C13.9433 17.9506 13.5247 18.8427 13.1199 19.7416C13.0993 19.7965 13.0581 19.8651 12.9826 19.8514C12.914 19.8308 12.9209 19.7484 12.9415 19.6935C13.2914 18.7397 13.6482 17.7928 13.9913 16.8459C13.7786 17.0792 13.6894 17.388 13.5042 17.6418C13.4081 17.7791 13.2914 17.8957 13.1679 17.9987C12.9895 18.1496 12.8248 18.328 12.7219 18.5407C12.6464 18.7054 12.6052 18.8907 12.4886 19.0279C12.3994 19.1514 12.269 19.2612 12.118 19.2955C12.0631 19.3093 11.9671 19.3024 11.9671 19.2201C11.9808 19.1652 12.0494 19.1583 12.0906 19.124C12.2073 19.0691 12.2896 18.9593 12.3308 18.8358C12.4062 18.5956 12.468 18.3418 12.6053 18.1222C12.7013 17.9643 12.8454 17.8408 12.9826 17.7105C13.2846 17.4154 13.3806 16.9831 13.6139 16.64C12.9072 17.2919 12.2072 17.9438 11.5073 18.5956C11.4593 18.6368 11.4113 18.6986 11.3495 18.7123C11.2946 18.726 11.2466 18.6711 11.2603 18.6231C11.274 18.5613 11.329 18.5202 11.3701 18.4721C11.9397 17.8614 12.5092 17.2439 13.0856 16.6263C13.1817 16.5165 13.2777 16.4204 13.3669 16.3106C13.0924 16.4342 12.8934 16.6743 12.6396 16.839C12.4955 16.9351 12.3376 17.0037 12.1661 17.0586C11.9396 17.1341 11.72 17.2301 11.5485 17.3948C11.425 17.5046 11.3358 17.6418 11.1917 17.731C11.0682 17.8134 10.9241 17.8683 10.78 17.8683C10.7182 17.8683 10.6496 17.8546 10.6016 17.8134C10.5741 17.7859 10.581 17.7173 10.629 17.7105C10.7182 17.6967 10.8074 17.6967 10.8898 17.6624C10.9996 17.6144 11.0751 17.5183 11.1505 17.4223C11.2809 17.2576 11.425 17.0929 11.6034 16.9694C11.7544 16.8596 11.9328 16.7978 12.1043 16.7361C12.5023 16.5783 12.7494 16.2214 13.0856 15.9881C12.2073 16.3106 11.3221 16.64 10.4438 16.9694C10.3683 16.99 10.2996 17.0311 10.2173 17.0311C10.1693 17.038 10.1281 16.9762 10.1418 16.9351C10.1624 16.8939 10.1967 16.8733 10.2379 16.8527C11.1505 16.4342 12.07 16.0156 12.9826 15.597C12.6807 15.597 12.4062 15.7548 12.1112 15.8029C11.7544 15.8783 11.3907 15.7686 11.0339 15.8578C10.8349 15.8989 10.6565 16.0224 10.4575 16.0705C10.2791 16.1117 10.0801 16.1116 9.92911 16.0087C9.88108 15.9744 9.82621 15.9127 9.86738 15.8509C9.90169 15.8166 9.95658 15.8509 9.99776 15.8578C10.1007 15.8989 10.2173 15.9058 10.3202 15.8646C10.4506 15.8097 10.5673 15.7342 10.6976 15.6725C10.8898 15.5696 11.0956 15.5078 11.3152 15.4941C11.473 15.4804 11.6377 15.5147 11.7956 15.4941C12.173 15.4529 12.5023 15.2539 12.8797 15.1784C11.8985 15.151 10.9241 15.103 9.94972 15.0755C9.89482 15.0755 9.83303 15.0755 9.785 15.0481C9.74383 15.0206 9.74383 14.952 9.785 14.9245C9.81245 14.904 9.85363 14.8971 9.88794 14.8971C10.8966 14.8559 11.8985 14.8216 12.9072 14.7805C12.6053 14.6569 12.269 14.7118 11.9534 14.6226C11.6858 14.5609 11.4593 14.403 11.2054 14.3207C11.0682 14.2727 10.9172 14.2521 10.7731 14.2521C10.6153 14.2521 10.4575 14.2795 10.3065 14.2315C10.1555 14.1835 9.99772 14.108 9.92224 13.9639C9.88793 13.9159 9.89481 13.8061 9.97715 13.8198C10.0458 13.8541 10.0938 13.9159 10.1624 13.957C10.2448 14.0051 10.3477 14.0119 10.4438 14.0051C10.629 13.9913 10.8212 13.957 11.0064 13.9708C11.2123 13.9776 11.425 14.0325 11.6103 14.1286C11.7269 14.1903 11.8642 14.2384 12.0014 14.2658C12.3171 14.3207 12.6395 14.2933 12.962 14.3482C12.0631 13.9433 11.1711 13.5247 10.2722 13.1199C10.2242 13.0993 10.1762 13.0718 10.1624 13.0238C10.1487 12.9758 10.1899 12.9209 10.2379 12.9277C10.3202 12.9277 10.3889 12.9689 10.4644 12.9895C11.3701 13.3257 12.269 13.662 13.1679 13.9913C12.9278 13.7718 12.5984 13.6826 12.3445 13.4836C12.221 13.3944 12.1112 13.2846 12.0083 13.1679C11.8573 12.9964 11.6926 12.8385 11.4936 12.7356C11.3221 12.6464 11.1162 12.6121 10.9584 12.4817C10.8349 12.3857 10.7251 12.2484 10.6976 12.0975C10.6908 12.0426 10.7251 11.9465 10.7937 11.974C10.8486 12.0357 10.8692 12.1181 10.9241 12.1798C11.027 12.3102 11.1986 12.3376 11.3495 12.3857C11.5897 12.4543 11.823 12.5503 12.0151 12.715C12.1592 12.8317 12.2553 12.9826 12.3994 13.0924C12.6876 13.3189 13.0581 13.4149 13.36 13.6139C12.6876 12.9003 12.022 12.1729 11.3495 11.4525C11.3152 11.4181 11.274 11.3701 11.2672 11.3152C11.274 11.2603 11.3289 11.226 11.377 11.2535C11.4387 11.2809 11.4868 11.3427 11.5417 11.3838C12.2484 12.0426 12.9552 12.7013 13.6688 13.3532C13.5453 13.0787 13.2983 12.8797 13.1405 12.6327C13.0444 12.4886 12.9758 12.3239 12.9209 12.1592C12.8454 11.9396 12.7493 11.7132 12.5915 11.5417C12.4749 11.4113 12.3239 11.3084 12.2347 11.1643C12.1523 11.0339 12.0975 10.8692 12.118 10.7114C12.1249 10.6496 12.1592 10.5673 12.2279 10.5741C12.2828 10.5879 12.269 10.6633 12.2827 10.7045C12.2827 10.8349 12.3445 10.9515 12.4406 11.0407C12.619 11.1986 12.8248 11.3358 12.9689 11.5279C13.0924 11.6789 13.1748 11.8642 13.2365 12.0563C13.3806 12.468 13.758 12.7219 13.9982 13.0718C13.6551 12.1524 13.312 11.226 12.9689 10.2997C12.9552 10.2585 12.9415 10.2242 12.9483 10.183C12.9621 10.135 13.0238 10.1144 13.065 10.1418C13.1199 10.1761 13.1405 10.2516 13.1679 10.3134C13.5728 11.1986 13.9845 12.0837 14.3893 12.9689C14.3893 12.6601 14.2246 12.3788 14.1766 12.0837C14.108 11.7406 14.2109 11.3838 14.1354 11.0407C14.1011 10.8417 13.9776 10.6702 13.9227 10.4712C13.8747 10.2859 13.8747 10.0664 13.9845 9.90853C14.0188 9.85364 14.1217 9.80561 14.1492 9.89481C14.1423 9.97715 14.1011 10.0526 14.0943 10.1281C14.0805 10.2242 14.1149 10.3202 14.156 10.4026C14.2521 10.581 14.355 10.7525 14.4167 10.9447C14.4785 11.1368 14.506 11.3358 14.4854 11.5417C14.4717 11.6995 14.4854 11.8573 14.5266 12.0083C14.602 12.2965 14.7462 12.5709 14.8011 12.8729C14.8285 11.8847 14.8765 10.9035 14.9108 9.92226C14.9108 9.88109 14.9039 9.82619 14.9383 9.78502Z" fill="#843511"/>
<path d="M14.9591 9.88103C14.9591 9.84672 14.966 9.78496 15.014 9.79868C15.0346 9.81927 15.0414 9.85358 15.0414 9.88103C15.0757 10.8897 15.1169 11.8915 15.1581 12.9002C15.1169 12.9002 15.0826 12.8934 15.0552 12.8865C15.0414 12.4336 15.0277 11.9808 15.0071 11.521C14.9865 11.9739 14.9728 12.4268 14.9522 12.8865C14.9179 12.8865 14.8836 12.8865 14.8493 12.8934C14.8836 11.8984 14.9179 10.8897 14.9591 9.88103Z" fill="#FCBF49"/>
<path d="M14.019 9.95652C14.0328 9.92908 14.0671 9.90849 14.1014 9.90163C14.0808 9.99769 14.0396 10.0938 14.0396 10.2035C14.0465 10.3408 14.122 10.4574 14.1837 10.5741C14.3004 10.7799 14.4033 10.9995 14.4239 11.2328C14.4513 11.4181 14.4102 11.5965 14.4307 11.7818C14.4651 12.1729 14.6847 12.5229 14.7533 12.9071C14.719 12.914 14.6778 12.9208 14.6435 12.9277C14.5817 12.5846 14.3964 12.2827 14.3347 11.9327C14.3072 11.8161 14.321 11.6994 14.3072 11.5896C14.2729 11.7475 14.2729 11.9053 14.3141 12.0562C14.3896 12.3513 14.5131 12.6395 14.5268 12.9483C14.4925 12.9552 14.4582 12.962 14.4307 12.9689C14.4102 12.6464 14.2455 12.3582 14.2043 12.0357C14.1768 11.871 14.1837 11.7063 14.1975 11.5485C14.2112 11.3152 14.1975 11.075 14.1083 10.8486C14.0534 10.6976 13.9573 10.5535 13.9367 10.3888C13.9298 10.2447 13.9298 10.0869 14.019 9.95652Z" fill="#FCBF49"/>
<path d="M16.0295 9.96333C16.057 9.94275 16.0913 9.94275 16.1256 9.94275C16.0707 10.0251 15.9884 10.1006 15.954 10.2035C15.906 10.3476 15.9403 10.4986 15.954 10.6495C15.9815 10.8828 15.9815 11.1161 15.9129 11.3426C15.8648 11.5141 15.7619 11.6582 15.7139 11.8366C15.6041 12.2072 15.6658 12.6051 15.5835 12.9826C15.5492 12.9688 15.5149 12.962 15.4806 12.9551C15.5561 12.6257 15.508 12.2895 15.5698 11.9601C15.5904 11.8366 15.6384 11.7268 15.6864 11.6102C15.5766 11.7268 15.5355 11.8847 15.508 12.0425C15.4668 12.3375 15.4668 12.6463 15.3708 12.9277C15.3365 12.9414 15.3021 12.9208 15.2747 12.9208C15.357 12.6806 15.3502 12.4199 15.3845 12.1729C15.4119 11.9739 15.4737 11.7817 15.5629 11.6033C15.6658 11.3906 15.7619 11.1642 15.7825 10.9309C15.8031 10.7319 15.755 10.5329 15.8099 10.3407C15.8374 10.1898 15.8991 10.0457 16.0295 9.96333Z" fill="#FCBF49"/>
<path d="M12.9965 10.1967C13.0446 10.1761 13.0652 10.231 13.0789 10.2653C13.4974 11.1779 13.916 12.0905 14.3346 13.0032C14.3071 13.0169 14.2728 13.0237 14.2385 13.0375C14.0601 12.6395 13.8748 12.2415 13.6964 11.8435C13.7101 11.9396 13.7513 12.0219 13.7856 12.1111C13.9091 12.4336 14.0189 12.7561 14.1493 13.0718C14.115 13.0855 14.0876 13.1061 14.0532 13.1198C13.7033 12.1797 13.3533 11.2397 13.0102 10.2927C12.9965 10.2653 12.9828 10.231 12.9965 10.1967Z" fill="#FCBF49"/>
<path d="M16.9559 10.2035C17.0107 10.1692 17.0107 10.2516 16.997 10.2859C16.6471 11.2328 16.2971 12.1798 15.9472 13.1198C15.9129 13.1061 15.8854 13.0924 15.8511 13.0787C15.9609 12.7561 16.0913 12.4405 16.2079 12.1249C16.2422 12.0288 16.2834 11.9396 16.304 11.8435C16.1187 12.2415 15.9403 12.6395 15.755 13.0375C15.7207 13.0238 15.6933 13.0169 15.659 13.0032C16.0364 12.1866 16.4069 11.3701 16.7843 10.5535C16.8392 10.4368 16.8804 10.3065 16.9559 10.2035Z" fill="#FCBF49"/>
<path d="M12.1663 10.7113C12.1732 10.677 12.1938 10.6564 12.2212 10.6358C12.2349 10.7456 12.2349 10.8554 12.2898 10.9583C12.3447 11.0613 12.4408 11.1299 12.53 11.2054C12.729 11.3563 12.928 11.5347 13.0515 11.768C13.1407 11.919 13.1682 12.0974 13.2574 12.2552C13.4358 12.6052 13.772 12.8385 13.9779 13.1747C13.9504 13.1953 13.9161 13.209 13.8886 13.2296C13.7034 12.9414 13.422 12.7287 13.2368 12.4474C13.1613 12.3444 13.1201 12.2209 13.079 12.1043C13.0927 12.3033 13.1956 12.4817 13.326 12.6326C13.4975 12.8454 13.6759 13.0443 13.7994 13.2845C13.772 13.3051 13.7445 13.3257 13.7171 13.3463C13.5799 13.0512 13.3191 12.8522 13.1544 12.5709C13.0789 12.4405 13.024 12.3033 12.976 12.1592C12.9005 11.9259 12.7976 11.6994 12.626 11.521C12.5163 11.3975 12.3653 11.2946 12.283 11.1505C12.1869 11.0201 12.1251 10.8623 12.1663 10.7113Z" fill="#FCBF49"/>
<path d="M17.5185 10.9926C17.6078 10.876 17.7175 10.7662 17.8616 10.7388C17.8959 10.725 17.9371 10.7387 17.9715 10.7456C17.896 10.8074 17.7999 10.8348 17.7381 10.9103C17.6283 11.0201 17.6009 11.1779 17.5528 11.322C17.4911 11.5484 17.4019 11.7749 17.2441 11.9602C17.1274 12.1043 16.9696 12.2072 16.8598 12.3581C16.6197 12.6532 16.5304 13.0375 16.3109 13.3531C16.2834 13.3325 16.256 13.3119 16.2216 13.2914C16.3932 13.0375 16.4824 12.7424 16.6403 12.4748C16.7157 12.3376 16.8187 12.2209 16.9353 12.1248C16.7638 12.2003 16.6471 12.365 16.5579 12.5228C16.4207 12.763 16.3109 13.0169 16.1256 13.2227C16.0982 13.209 16.0707 13.1953 16.0433 13.1747C16.2697 12.914 16.3589 12.5709 16.5785 12.3101C16.6814 12.1797 16.8118 12.0768 16.9284 11.967C17.0794 11.8229 17.2235 11.6582 17.3058 11.4661C17.3744 11.3014 17.4156 11.1299 17.5185 10.9926Z" fill="#FCBF49"/>
<path d="M11.3154 11.3632C11.3017 11.2946 11.3841 11.322 11.4046 11.3563C12.1457 12.0425 12.8799 12.7287 13.621 13.408C13.6004 13.4355 13.573 13.4561 13.5524 13.4835C13.223 13.1885 12.9074 12.8797 12.578 12.5846C12.8731 12.914 13.175 13.2296 13.4769 13.559C13.4494 13.5796 13.4289 13.607 13.4083 13.6345C12.7564 12.9277 12.1046 12.2209 11.4458 11.5142C11.3978 11.4593 11.3429 11.4181 11.3154 11.3632Z" fill="#FCBF49"/>
<path d="M18.5958 11.3495C18.6164 11.3289 18.6439 11.3083 18.6782 11.3151C18.6987 11.3563 18.6576 11.3906 18.637 11.4181C17.9577 12.1523 17.2715 12.8865 16.5922 13.6207C16.5716 13.5933 16.551 13.5727 16.5235 13.5452C16.8186 13.2227 17.1274 12.9071 17.4224 12.5777C17.0931 12.8728 16.7774 13.1747 16.4549 13.4766C16.4275 13.4492 16.4 13.4286 16.3795 13.408C17.1137 12.7218 17.8547 12.0356 18.5958 11.3495Z" fill="#FCBF49"/>
<path d="M10.7459 12.0288C10.8076 12.1043 10.8419 12.2072 10.9174 12.2758C11.0272 12.3856 11.1782 12.4062 11.3154 12.4474C11.5418 12.516 11.7683 12.6052 11.9536 12.7561C12.0976 12.8728 12.2006 13.0306 12.3515 13.1404C12.6466 13.3806 13.0377 13.4698 13.3465 13.6894C13.3259 13.7168 13.3053 13.7511 13.2848 13.7786C13.0377 13.607 12.7427 13.5178 12.4819 13.3737C12.3447 13.2914 12.2211 13.1884 12.1114 13.0649C12.2006 13.2571 12.3859 13.3737 12.5643 13.4698C12.7907 13.5933 13.024 13.7031 13.2161 13.8746C13.2024 13.9021 13.1818 13.9295 13.1681 13.957C12.9211 13.7305 12.5848 13.6413 12.3309 13.4355C12.1937 13.3325 12.0908 13.209 11.981 13.0855C11.8369 12.9208 11.6585 12.7767 11.4595 12.6807C11.3085 12.612 11.137 12.5777 10.9929 12.4679C10.8831 12.3787 10.7733 12.269 10.7459 12.1249C10.7253 12.0974 10.739 12.0631 10.7459 12.0288Z" fill="#FCBF49"/>
<path d="M18.8566 12.2689C18.9869 12.1935 19.1379 12.1317 19.2957 12.166C19.3232 12.1729 19.3506 12.2003 19.3712 12.2209C19.2683 12.2346 19.1585 12.2346 19.0624 12.2827C18.9732 12.3238 18.9115 12.3993 18.8497 12.4748C18.7262 12.6258 18.6095 12.7836 18.4586 12.9071C18.3145 13.0238 18.1429 13.113 17.9645 13.1678C17.7381 13.2365 17.546 13.3806 17.3676 13.5384C17.196 13.6962 17.0382 13.8609 16.846 13.9844C16.8255 13.957 16.8117 13.9227 16.7911 13.8883C17.045 13.7237 17.2372 13.4904 17.4773 13.3051C17.6077 13.2022 17.7587 13.1267 17.9165 13.0718C17.7587 13.0855 17.6077 13.1541 17.4842 13.2433C17.2372 13.4286 17.0176 13.6482 16.7362 13.7854C16.7156 13.758 16.6951 13.7374 16.6676 13.7099C16.9558 13.5727 17.1548 13.3119 17.4293 13.1541C17.5597 13.0718 17.7038 13.0169 17.8479 12.9689C18.0812 12.8934 18.3076 12.7904 18.4929 12.6189C18.6095 12.5022 18.7056 12.3582 18.8566 12.2689Z" fill="#FCBF49"/>
<path d="M14.863 12.9345C15.2884 12.9071 15.7139 13.01 16.0775 13.2296C16.5236 13.5041 16.8666 13.9501 16.997 14.451C17.1342 14.9588 17.0793 15.5214 16.8255 15.9812C16.6059 16.386 16.2491 16.7154 15.8237 16.9007C15.3159 17.1271 14.712 17.1271 14.1974 16.9075C13.7582 16.7291 13.3946 16.3929 13.1681 15.9743C12.9211 15.5283 12.8593 14.9794 12.9828 14.4853C13.0995 13.9981 13.4014 13.5658 13.8131 13.2845C14.1219 13.0855 14.4856 12.9551 14.863 12.9345Z" fill="#FCBF49"/>
<path d="M10.1901 13.0032C10.245 12.9826 10.2999 13.0169 10.3548 13.0375C11.2743 13.3806 12.1938 13.7168 13.1133 14.0599C13.0995 14.0873 13.079 14.1216 13.0721 14.1559C12.7016 14.0118 12.3242 13.8746 11.9536 13.7374C11.9193 13.7236 11.8781 13.7099 11.837 13.7031C12.235 13.8815 12.6329 14.0667 13.0309 14.252C13.0241 14.2863 13.0104 14.3138 12.9966 14.3481C12.084 13.9295 11.1713 13.5109 10.2587 13.0924C10.2244 13.0649 10.1764 13.0443 10.1901 13.0032Z" fill="#FCBF49"/>
<path d="M19.7006 13.01C19.728 12.9963 19.7692 12.9826 19.8035 12.9963C19.8241 13.0512 19.7555 13.0649 19.7281 13.0855C18.8154 13.5041 17.9096 13.9226 17.0039 14.3344C16.9902 14.3001 16.9833 14.2726 16.9696 14.2383C17.3676 14.0599 17.7655 13.8746 18.1635 13.6962C18.0675 13.7099 17.9851 13.7511 17.8959 13.7786C17.5803 13.9021 17.2509 14.0187 16.9353 14.1422C16.9216 14.1079 16.901 14.0805 16.8872 14.0462C17.8204 13.7099 18.7605 13.36 19.7006 13.01Z" fill="#FCBF49"/>
<path d="M9.93613 13.8815C10.0253 13.9433 10.094 14.0187 10.1969 14.053C10.3341 14.1011 10.4782 14.0668 10.6223 14.053C10.8625 14.0256 11.1026 14.0256 11.3359 14.0942C11.5075 14.1423 11.6516 14.2452 11.83 14.2932C12.2005 14.403 12.5985 14.3412 12.9759 14.4167C12.9691 14.451 12.9554 14.4922 12.9485 14.5265C12.6191 14.451 12.2691 14.4991 11.9398 14.4373C11.8231 14.4167 11.7133 14.3687 11.6036 14.3207C11.7339 14.4373 11.9055 14.4785 12.077 14.5059C12.3584 14.5402 12.6534 14.5471 12.9279 14.6363C12.9279 14.6706 12.921 14.7049 12.921 14.7324C12.5917 14.6226 12.2417 14.6706 11.9123 14.5677C11.6722 14.5059 11.4663 14.355 11.2262 14.2863C11.0409 14.2246 10.8419 14.204 10.6429 14.2177C10.437 14.2315 10.2175 14.1903 10.0528 14.0668C9.99101 14.0256 9.92927 13.9638 9.93613 13.8815Z" fill="#FCBF49"/>
<path d="M19.1242 14.1353C19.2889 14.0804 19.433 13.9775 19.6114 13.9569C19.7555 13.9363 19.9202 13.9432 20.0437 14.0255C20.0711 14.0393 20.0848 14.0736 20.0986 14.1079C19.9956 14.0873 19.8858 14.0393 19.7829 14.053C19.6594 14.0667 19.5565 14.1285 19.4536 14.1834C19.2683 14.2863 19.0693 14.3824 18.8566 14.4235C18.6782 14.4647 18.4997 14.4441 18.3282 14.4373C17.889 14.4373 17.5116 14.6843 17.0931 14.7666C17.0862 14.7323 17.0794 14.6911 17.0725 14.6568C17.4156 14.5951 17.7244 14.4098 18.0674 14.3481C18.1841 14.3206 18.3008 14.3343 18.4105 14.3206C18.2596 14.2863 18.0949 14.2863 17.9439 14.3275C17.6489 14.403 17.3607 14.5265 17.045 14.5402C17.0382 14.5059 17.0313 14.4716 17.0245 14.4441C17.2784 14.4235 17.5048 14.3275 17.7518 14.2657C17.9508 14.2108 18.1567 14.1971 18.3694 14.2108C18.6233 14.2245 18.884 14.2245 19.1242 14.1353Z" fill="#FCBF49"/>
<path d="M9.96357 14.9588C10.938 14.9245 11.9192 14.8833 12.8936 14.849C12.8936 14.8833 12.8867 14.9176 12.8867 14.9519C12.4407 14.9656 11.9879 14.9794 11.5418 14.9999C11.9879 15.0205 12.4407 15.0411 12.8867 15.0548C12.8867 15.0891 12.8936 15.1235 12.8936 15.1578C11.8918 15.1235 10.8831 15.0823 9.87437 15.048C9.84006 15.048 9.7783 15.0411 9.79203 14.9931C9.84692 14.9519 9.90868 14.9656 9.96357 14.9588Z" fill="#FCBF49"/>
<path d="M17.0999 14.849C18.0675 14.8833 19.0418 14.9245 20.0094 14.9588C20.0643 14.9588 20.1191 14.9588 20.1672 14.9725C20.1946 14.9794 20.2015 14.9931 20.1946 15.0205C20.1741 15.0411 20.1466 15.0411 20.1192 15.0411C19.1173 15.0823 18.1086 15.1166 17.0999 15.1509C17.0999 15.1166 17.1 15.0823 17.1068 15.048C17.546 15.0342 17.9851 15.0205 18.4311 14.9931C17.992 14.9725 17.546 14.9588 17.1068 14.945C17.1 14.9176 17.0999 14.8833 17.0999 14.849Z" fill="#FCBF49"/>
<path d="M11.6722 15.5695C12.1114 15.5695 12.4888 15.3225 12.9074 15.2401C12.9142 15.2744 12.9142 15.3156 12.9211 15.3499C12.5643 15.4117 12.2486 15.6107 11.8918 15.6656C11.7889 15.6861 11.6928 15.6724 11.5967 15.6861C11.7477 15.7273 11.9124 15.7136 12.0702 15.6724C12.3584 15.5969 12.6398 15.4803 12.9486 15.4597C12.9554 15.494 12.9623 15.5215 12.9691 15.5558C12.6466 15.5763 12.3584 15.741 12.0359 15.7822C11.8781 15.8096 11.7203 15.8028 11.5624 15.7891C11.3223 15.7685 11.0753 15.7822 10.8488 15.8783C10.691 15.94 10.54 16.0361 10.3616 16.0498C10.2175 16.0704 10.0528 16.0567 9.93619 15.9675C9.90874 15.9537 9.90188 15.9194 9.89502 15.892C9.99795 15.9194 10.1077 15.9606 10.2175 15.9469C10.341 15.94 10.4508 15.8645 10.5538 15.8096C10.739 15.7067 10.938 15.6107 11.1508 15.5763C11.3223 15.5489 11.4938 15.5626 11.6722 15.5695Z" fill="#FCBF49"/>
<path d="M17.0725 15.3637C17.0794 15.3293 17.0862 15.295 17.0862 15.2607C17.3538 15.3568 17.642 15.3362 17.9165 15.3842C18.0881 15.4186 18.2528 15.4734 18.4037 15.5489C18.6164 15.6587 18.8497 15.7548 19.0967 15.7685C19.2889 15.7891 19.481 15.7411 19.6731 15.796C19.8104 15.8303 19.9545 15.8989 20.0368 16.0224C20.0574 16.0498 20.0574 16.0842 20.0574 16.1185C19.9751 16.0636 19.9065 15.9881 19.8173 15.9538C19.728 15.9195 19.6251 15.9195 19.529 15.9263C19.3232 15.9469 19.1173 15.9744 18.9115 15.9538C18.7331 15.9332 18.5547 15.8783 18.3968 15.796C18.2184 15.7067 18.0194 15.6587 17.8204 15.645C17.5597 15.6244 17.2852 15.6313 17.0245 15.5832C17.0382 15.5489 17.045 15.5078 17.0519 15.4734C17.3538 15.5421 17.6626 15.5078 17.9645 15.5489C18.1155 15.5626 18.2527 15.6175 18.3968 15.6793C18.2733 15.5695 18.1155 15.5283 17.9508 15.5009C17.6626 15.4597 17.3607 15.4597 17.0725 15.3637Z" fill="#FCBF49"/>
<path d="M12.7014 15.8028C12.7975 15.7547 12.9005 15.7136 12.9897 15.6655C13.0034 15.6998 13.024 15.7273 13.0308 15.7616C12.6329 15.9469 12.2349 16.1321 11.8369 16.3037C11.933 16.29 12.0221 16.2419 12.1182 16.2145C12.4338 16.0978 12.7564 15.9743 13.0789 15.8645C13.0926 15.8988 13.0995 15.9263 13.12 15.9537C12.2006 16.2968 11.2811 16.6331 10.3616 16.9761C10.3067 16.9967 10.2586 17.0242 10.1969 17.0105C10.1832 16.9624 10.2312 16.9418 10.2655 16.9281C11.0752 16.5507 11.8917 16.1733 12.7014 15.8028Z" fill="#FCBF49"/>
<path d="M16.9627 15.7616C16.9764 15.7273 16.9901 15.6998 17.0038 15.6655C17.9165 16.0978 18.8428 16.5095 19.7623 16.935C19.7829 16.9487 19.8241 16.9761 19.7966 17.0036C19.7623 17.0242 19.728 17.0036 19.7006 16.9967C18.7605 16.6468 17.8204 16.2968 16.8803 15.9537C16.9009 15.9263 16.9009 15.8439 16.9489 15.8714C17.3126 16.0086 17.6832 16.1459 18.0469 16.2831C18.0812 16.2968 18.1155 16.3037 18.1498 16.3105C17.7586 16.1253 17.3607 15.94 16.9627 15.7616Z" fill="#FCBF49"/>
<path d="M12.2692 16.736C12.6054 16.5507 12.8319 16.2282 13.1544 16.0292C13.175 16.0635 13.1887 16.091 13.2093 16.1253C12.9211 16.3106 12.7152 16.5919 12.427 16.7772C12.3241 16.8458 12.2074 16.8938 12.0908 16.935C12.2692 16.9281 12.4339 16.8389 12.5711 16.7291C12.7976 16.5507 13.0103 16.3517 13.271 16.2214C13.2916 16.2488 13.3122 16.2762 13.3328 16.3037C13.0446 16.4409 12.8387 16.7085 12.5574 16.8664C12.427 16.9418 12.2898 16.9967 12.1525 17.0448C11.9192 17.1203 11.6928 17.2232 11.5144 17.3947C11.3909 17.5045 11.2879 17.6486 11.1438 17.7378C11.0135 17.8133 10.8625 17.8751 10.7047 17.8407C10.6772 17.8339 10.6498 17.8133 10.6361 17.7859C10.7459 17.7721 10.8556 17.7721 10.9517 17.7104C11.0546 17.6555 11.1233 17.5594 11.1988 17.4702C11.3566 17.2712 11.535 17.0791 11.7546 16.9556C11.9192 16.8664 12.1045 16.8321 12.2692 16.736Z" fill="#FCBF49"/>
<path d="M16.7843 16.1322C16.7981 16.1047 16.8187 16.0704 16.8324 16.0429C17.0931 16.2694 17.4431 16.3586 17.7107 16.585C17.8754 16.7154 17.992 16.8938 18.1498 17.0311C18.2665 17.1477 18.4106 17.2506 18.5616 17.3124C18.7057 17.381 18.8772 17.4153 19.0076 17.5182C19.1174 17.6074 19.2272 17.7172 19.2546 17.8613C19.2684 17.9025 19.2546 17.9368 19.2409 17.9711C19.1791 17.8956 19.1517 17.7996 19.0831 17.731C19.0076 17.6486 18.891 17.6143 18.788 17.58C18.589 17.5182 18.3832 17.4633 18.2047 17.3536C18.0606 17.2712 17.9371 17.1546 17.8342 17.0311C17.7244 16.9007 17.5872 16.7977 17.4362 16.7154C17.1755 16.5713 16.8941 16.4752 16.654 16.3106C16.6745 16.2831 16.6952 16.2488 16.7157 16.2214C16.9696 16.3929 17.2716 16.489 17.5392 16.6399C17.6695 16.7154 17.7862 16.8183 17.8891 16.9418C17.8136 16.7772 17.6627 16.6674 17.5117 16.5782C17.2647 16.4409 17.0039 16.3174 16.7843 16.1322Z" fill="#FCBF49"/>
<path d="M11.3497 18.5956C12.0359 17.8545 12.7221 17.1203 13.4082 16.3792C13.4288 16.4066 13.4494 16.4272 13.47 16.4547C13.2436 16.7017 13.0171 16.9487 12.7838 17.1957C12.7289 17.2575 12.6672 17.3055 12.626 17.3742C12.6877 17.3261 12.7426 17.2712 12.8044 17.2163C13.0514 16.9899 13.2916 16.7634 13.5386 16.537C13.5661 16.5576 13.5866 16.5782 13.6141 16.5988C12.9073 17.2575 12.2006 17.9094 11.4938 18.5681C11.4458 18.6093 11.4046 18.6573 11.3497 18.6916C11.2879 18.7054 11.3154 18.623 11.3497 18.5956Z" fill="#FCBF49"/>
<path d="M16.5235 16.4547C16.5441 16.4341 16.5716 16.4066 16.5921 16.3792C17.2715 17.1134 17.9508 17.8545 18.637 18.5818C18.6575 18.6093 18.6919 18.6436 18.6781 18.6779C18.637 18.6916 18.6095 18.6642 18.5752 18.6367C17.8342 17.9574 17.0999 17.2712 16.3657 16.5919C16.3863 16.5713 16.4137 16.5507 16.4412 16.5233C16.6951 16.7566 16.949 16.9899 17.2029 17.2232C17.2578 17.2712 17.3058 17.3261 17.3607 17.3604C17.0931 17.0585 16.8048 16.7634 16.5235 16.4547Z" fill="#FCBF49"/>
<path d="M13.1407 17.6486C13.374 17.3536 13.47 16.9625 13.6896 16.6537C13.7171 16.6743 13.7514 16.6949 13.7788 16.7154C13.6073 16.9693 13.5112 17.2644 13.3603 17.532C13.2848 17.6692 13.1818 17.7859 13.0652 17.882C13.2093 17.8133 13.3191 17.683 13.4014 17.5457C13.5524 17.285 13.669 17.0036 13.8818 16.7772C13.9092 16.7909 13.9367 16.8115 13.9641 16.8252C13.7377 17.086 13.6416 17.4359 13.4152 17.6967C13.2848 17.8682 13.1132 17.9849 12.9691 18.1358C12.8525 18.2594 12.7496 18.3966 12.6878 18.5476C12.6192 18.6985 12.5849 18.8632 12.482 18.9936C12.3996 19.1102 12.283 19.2132 12.1389 19.2475C12.1046 19.2543 12.0634 19.2475 12.0359 19.2337C12.1045 19.172 12.2006 19.1445 12.2692 19.0691C12.379 18.9593 12.4064 18.8014 12.4545 18.6573C12.5162 18.424 12.6123 18.1976 12.7701 18.0123C12.8731 17.8957 13.0309 17.7927 13.1407 17.6486Z" fill="#FCBF49"/>
<path d="M16.2148 16.7292C16.2422 16.7086 16.2697 16.688 16.2971 16.6674C16.4069 16.9007 16.599 17.0791 16.75 17.2781C16.8666 17.4291 16.9558 17.6006 17.0176 17.7859C17.0862 17.9986 17.1754 18.2182 17.3126 18.4035C17.395 18.5064 17.4979 18.5956 17.594 18.6848C17.7243 18.8083 17.8204 18.973 17.841 19.1514C17.8479 19.2269 17.8547 19.3298 17.7792 19.371C17.7655 19.2612 17.7655 19.1377 17.6969 19.0416C17.6283 18.925 17.5116 18.8495 17.4087 18.7671C17.2235 18.6162 17.0519 18.4446 16.9489 18.2388C16.8597 18.0809 16.8254 17.9094 16.7431 17.7516C16.5578 17.4085 16.2285 17.1752 16.0226 16.8527C16.0501 16.8321 16.0844 16.8184 16.1118 16.7978C16.2834 17.0585 16.5167 17.2507 16.7019 17.4908C16.8049 17.6212 16.8735 17.7653 16.9215 17.9231C16.9078 17.6418 16.7019 17.4222 16.5373 17.2164C16.4137 17.0585 16.304 16.8938 16.2148 16.7292Z" fill="#FCBF49"/>
<path d="M13.6348 18.0192C13.7788 17.6418 13.9092 17.2575 14.0602 16.887C14.0876 16.9007 14.1151 16.9213 14.1425 16.935C13.9984 17.3055 13.868 17.6761 13.7308 18.0466C13.7171 18.0878 13.7033 18.1221 13.6965 18.1633C13.8749 17.7653 14.0602 17.3673 14.2386 16.9693C14.266 16.9762 14.3003 16.9899 14.3346 17.0036C13.9229 17.9162 13.4975 18.8289 13.0789 19.7415C13.0652 19.7758 13.0446 19.8238 12.9966 19.8101C12.9829 19.7758 12.9966 19.7415 13.0034 19.7072C13.2093 19.1445 13.422 18.5818 13.6348 18.0192Z" fill="#FCBF49"/>
<path d="M15.8511 16.9213C15.8854 16.9075 15.9128 16.9007 15.9471 16.887C16.2834 17.8064 16.6264 18.7259 16.9695 19.6386C16.9901 19.6934 17.0176 19.7483 17.0038 19.8032C16.9558 19.817 16.9352 19.7689 16.9146 19.7346C16.5304 18.8906 16.1392 18.0466 15.755 17.2095C15.7275 17.1408 15.6795 17.0722 15.6658 16.9967C15.6932 16.983 15.7207 16.9693 15.755 16.9624C15.9402 17.3604 16.1255 17.7584 16.3039 18.1633C16.2833 18.0603 16.2422 17.9711 16.2079 17.8751C16.0912 17.5594 15.9677 17.2438 15.8511 16.9213Z" fill="#FCBF49"/>
<path d="M14.4169 17.0311C14.4512 17.0448 14.4856 17.0517 14.5267 17.0585C14.4581 17.3605 14.4856 17.6692 14.4513 17.9712C14.4375 18.1221 14.3826 18.2662 14.3209 18.4035C14.4238 18.2937 14.465 18.1427 14.4924 17.9986C14.5405 17.6898 14.5336 17.381 14.6365 17.086C14.6708 17.0928 14.7051 17.0928 14.7394 17.0997C14.6297 17.4291 14.6777 17.779 14.5748 18.1084C14.5061 18.3486 14.3689 18.5544 14.2934 18.7877C14.2248 18.973 14.2111 19.172 14.2248 19.371C14.2454 19.57 14.2042 19.7827 14.0807 19.9474C14.0327 20.0091 13.9641 20.0778 13.8817 20.0709C13.9366 19.9886 14.0052 19.9199 14.0464 19.8307C14.0807 19.7415 14.0807 19.6523 14.0738 19.5631C14.0532 19.3641 14.0258 19.1583 14.0464 18.9524C14.067 18.7671 14.1219 18.5887 14.2042 18.424C14.2934 18.2525 14.3415 18.0672 14.3621 17.8751C14.3758 17.5869 14.362 17.3056 14.4169 17.0311Z" fill="#FCBF49"/>
<path d="M15.4599 17.0654C15.4874 17.0448 15.5217 17.0448 15.5491 17.0311C15.5697 17.2781 15.6589 17.5046 15.7275 17.7379C15.7824 17.9437 15.803 18.1564 15.7824 18.3692C15.7687 18.6093 15.7687 18.8495 15.8442 19.0828C15.9059 19.2681 16.0226 19.4327 16.0432 19.6249C16.0638 19.769 16.0569 19.9268 15.9608 20.0503C15.9402 20.0778 15.9128 20.0846 15.8853 20.0983C15.9197 19.9611 15.9745 19.8307 15.9265 19.6935C15.8785 19.5425 15.7824 19.4122 15.7138 19.2681C15.6246 19.0896 15.5628 18.9044 15.5491 18.7054C15.5354 18.5338 15.5697 18.3623 15.5491 18.1907C15.5079 17.8065 15.3021 17.4634 15.2335 17.0928C15.2746 17.086 15.309 17.0791 15.3433 17.0723C15.405 17.4154 15.5903 17.7241 15.6521 18.0672C15.6726 18.1839 15.6658 18.3005 15.6726 18.4103C15.7138 18.2456 15.7069 18.081 15.6658 17.9231C15.5971 17.6418 15.4805 17.3673 15.4599 17.0654Z" fill="#FCBF49"/>
<path d="M14.8424 17.1066C14.8767 17.1134 14.911 17.1134 14.9453 17.1134C14.959 17.5732 14.9727 18.026 15.0002 18.4789C15.0208 18.026 15.0345 17.5732 15.0482 17.1203C15.0825 17.1134 15.1168 17.1134 15.1511 17.1134C15.11 18.0878 15.0757 19.069 15.0414 20.0434C15.0345 20.0983 15.0482 20.1601 15.0207 20.2081C15.007 20.2081 14.9864 20.2081 14.9796 20.2081C14.9521 20.1532 14.959 20.0983 14.9521 20.0434C14.9178 19.0553 14.8767 18.0809 14.8424 17.1066Z" fill="#FCBF49"/>
<path d="M14.7189 14.6706C14.6571 14.7049 14.4787 14.8009 14.2797 14.8353C14.2042 14.849 13.8406 14.7461 13.8406 14.7461C14.3964 15.1097 14.7189 14.6706 14.7189 14.6706ZM14.4375 14.7392C14.5062 14.7117 14.5199 14.7255 14.6297 14.6431C14.6297 14.6431 14.5816 14.5676 14.4718 14.4853C14.362 14.403 14.1699 14.4235 14.1082 14.4373C14.0464 14.4579 13.868 14.5265 13.8063 14.6363C13.8063 14.6363 14.0944 14.7666 14.2111 14.7598C14.2179 14.7666 14.3758 14.7666 14.4375 14.7392ZM14.3826 14.499C14.4169 14.5127 14.5542 14.6431 14.5542 14.6431C14.5542 14.6431 14.4032 14.7323 14.3483 14.7461C14.3826 14.7323 14.3964 14.5745 14.3826 14.499ZM13.9229 14.6157C13.9435 14.5814 14.0464 14.499 14.1082 14.4853C14.1013 14.5402 14.0944 14.7186 14.1287 14.7461C14.0944 14.7461 13.9229 14.6157 13.9229 14.6157ZM14.7189 14.6019C14.712 14.5951 14.712 14.6019 14.7189 14.6019V14.6019ZM14.4169 14.1353C14.5336 14.1559 14.7944 14.1971 14.8767 14.5402C14.959 14.8696 14.712 15.2264 14.712 15.2264L14.7944 15.247C14.9591 14.9931 15.0139 14.403 14.8287 14.2383C14.6503 14.0736 14.4513 14.0461 14.3552 14.0393C14.2523 14.0324 14.1631 14.0324 13.9984 14.0873C13.8337 14.1422 13.6072 14.403 13.6072 14.403C13.8611 14.1971 14.3003 14.1148 14.4169 14.1353ZM15.0002 15.9126C14.9796 15.9126 14.6228 15.9263 14.5817 15.94C14.6914 15.9812 14.9796 15.988 14.9933 15.988C15.0071 15.988 15.2953 15.988 15.405 15.94C15.3776 15.9263 15.0139 15.9126 15.0002 15.9126ZM14.7944 15.3705C14.7463 15.3911 14.5748 15.5763 14.5748 15.2538C14.5748 15.2538 14.4856 15.3911 14.5405 15.4803C14.5542 15.5009 14.5679 15.542 14.6228 15.5352C14.6777 15.5283 14.7669 15.5009 14.8149 15.5077C14.863 15.5146 14.9796 15.5283 14.9865 15.5283C14.9933 15.5283 15.11 15.5146 15.158 15.5077C15.2061 15.5009 15.2953 15.5283 15.357 15.5352C15.4188 15.542 15.4256 15.5009 15.4462 15.4803C15.4942 15.3911 15.4119 15.2538 15.4119 15.2538C15.4119 15.5763 15.2335 15.3842 15.1923 15.3705C15.1031 15.4803 15.0002 15.4803 14.9933 15.4803C14.9865 15.4734 14.8836 15.4803 14.7944 15.3705ZM14.4169 14.4098C14.4169 14.4098 14.5199 14.4579 14.5679 14.499C14.6091 14.5333 14.6983 14.5882 14.7189 14.6019C14.7257 14.5951 14.7875 14.5814 14.7875 14.5814C14.7875 14.5814 14.6708 14.5265 14.5953 14.4716C14.5199 14.4167 14.3827 14.3343 14.2866 14.3343C14.1905 14.3343 13.9847 14.3755 13.8955 14.4167C13.8063 14.4579 13.6759 14.6225 13.6759 14.6225C13.6759 14.6225 13.9984 14.3961 14.163 14.3892C14.3277 14.3686 14.4169 14.4098 14.4169 14.4098ZM15.2815 15.2264C15.2815 15.2264 15.0276 14.8696 15.11 14.5402C15.1923 14.204 15.4531 14.1559 15.5698 14.1353C15.6864 14.1216 16.1324 14.1971 16.3795 14.3961C16.3795 14.3961 16.153 14.1353 15.9883 14.0804C15.8236 14.0256 15.7344 14.0256 15.6315 14.0324C15.5286 14.0461 15.3296 14.0667 15.1512 14.2314C14.9727 14.3961 15.0276 14.9862 15.1923 15.2401L15.2815 15.2264ZM15.8854 14.4441C15.8305 14.4235 15.6247 14.4098 15.5217 14.4922C15.4188 14.5745 15.3707 14.65 15.3707 14.65C15.4737 14.7255 15.4943 14.7186 15.556 14.7461C15.6246 14.7735 15.7825 14.7735 15.7825 14.7735C15.8991 14.7804 16.1873 14.65 16.1873 14.65C16.1255 14.5333 15.9403 14.4647 15.8854 14.4441ZM15.4394 14.6431C15.4394 14.6431 15.5766 14.5059 15.6109 14.499C15.6041 14.5745 15.6178 14.7323 15.6384 14.7461C15.5835 14.7323 15.4394 14.6431 15.4394 14.6431ZM15.8579 14.7461C15.8923 14.7186 15.8854 14.5402 15.8854 14.4853C15.9471 14.499 16.0501 14.5814 16.0707 14.6157C16.0707 14.6157 15.8991 14.7461 15.8579 14.7461ZM15.2129 15.7136C15.1031 15.693 15.1443 15.7342 15.0002 15.7342C14.8493 15.7342 14.8973 15.6998 14.7806 15.7136C14.664 15.7273 14.4993 15.9263 14.4993 15.9263C14.4993 15.9263 14.7532 15.7822 14.7669 15.7822C14.7806 15.7822 14.9865 15.8028 15.0002 15.8028C15.0071 15.8028 15.2129 15.7822 15.2267 15.7822C15.2473 15.7822 15.5011 15.9263 15.5011 15.9263C15.5011 15.9263 15.3296 15.7273 15.2129 15.7136ZM15.7138 14.8284C15.5148 14.7941 15.3364 14.698 15.2747 14.6637C15.2747 14.6637 15.5972 15.1029 16.1599 14.7392C16.1599 14.746 15.7893 14.8421 15.7138 14.8284ZM15.4737 15.9675C15.357 15.9675 15.3021 16.0361 15.2129 16.091C15.0688 16.1802 15.0071 16.1596 15.0002 16.1596C14.9934 16.1596 14.9316 16.1802 14.7875 16.091C14.6983 16.0361 14.6434 15.9675 14.5267 15.9675C14.6503 16.0361 14.7326 16.1253 14.8012 16.1665C14.8561 16.1939 14.9316 16.2145 14.9728 16.2213C14.9247 16.2351 14.8355 16.2831 14.7806 16.3106C14.712 16.3586 14.6914 16.4958 14.6914 16.4958C14.6914 16.4958 14.7806 16.3929 14.8355 16.338C14.8973 16.2831 14.9865 16.29 15.0002 16.29C15.0071 16.29 15.1031 16.2831 15.158 16.338C15.2198 16.3929 15.309 16.4958 15.309 16.4958C15.309 16.4958 15.2884 16.3586 15.2129 16.3106C15.158 16.2762 15.0688 16.2351 15.0208 16.2213C15.0619 16.2145 15.1374 16.2008 15.1923 16.1665C15.2678 16.1253 15.3502 16.0361 15.4737 15.9675ZM16.105 14.4098C16.0226 14.3618 15.8168 14.3275 15.7138 14.3275C15.6109 14.3275 15.4806 14.4098 15.3982 14.4647C15.3227 14.5196 15.1992 14.5745 15.1992 14.5745C15.1992 14.5745 15.261 14.5882 15.2678 14.5951C15.2884 14.5814 15.3776 14.5333 15.4188 14.4922C15.4599 14.451 15.5629 14.403 15.5629 14.403C15.5629 14.403 15.659 14.3618 15.8236 14.3755C15.9883 14.3892 16.3108 14.6088 16.3108 14.6088C16.3108 14.6088 16.1873 14.4579 16.105 14.4098ZM15.2815 14.5951C15.2747 14.5951 15.2747 14.602 15.2815 14.5951V14.5951Z" fill="#843511"/>
</svg>
