<svg width="30" height="30" viewBox="0 0 30 30" fill="none" xmlns="http://www.w3.org/2000/svg">
<g clip-path="url(#clip0_1_12988)">
<path d="M-14.9998 0.0010376H45.0002V30.001H-14.9998V0.0010376Z" fill="#000066"/>
<path d="M-14.9998 15.001L45.0002 0.0010376V30.001L-14.9998 15.001Z" fill="#BD1021"/>
<path d="M-8.57156 15.001L45 1.6084V28.3936" fill="white"/>
<path d="M21.0663 16.6766C21.4662 16.7074 21.4525 17.1038 21.4525 17.1038L22.8687 17.1354C23.0498 16.6417 23.2378 16.6988 23.5818 16.9427C23.9087 17.1743 24.2654 17.2778 24.2654 17.2778C24.4021 16.5692 25.407 16.7125 25.407 16.7125C25.8354 15.6892 25.8718 15.7028 25.6166 15.5732C25.3614 15.4436 25.2573 15.2244 25.2573 15.2244C25.0151 14.932 24.8875 14.5091 24.8601 14.2496C24.8328 13.9902 24.532 14.3795 24.4773 14.2976C24.4227 14.2157 23.976 14.2635 23.976 14.2635C24.0854 14.3795 23.7117 14.3113 23.7117 14.3113C23.7482 14.3386 23.7117 14.4477 23.7117 14.4477C23.6752 14.3999 23.3927 14.3522 23.3927 14.3522C23.3653 14.4136 23.3016 14.4818 23.3016 14.4818C23.1466 14.4136 22.8367 14.4272 22.8367 14.4272C22.381 14.4203 22.1076 14.5636 21.98 14.6387C21.8524 14.7137 21.3967 14.9456 21.023 15.3072C20.6493 15.6688 20.4397 15.6278 20.4397 15.6278C20.3303 16.0303 19.4371 16.5215 19.4371 16.5215C19.2913 16.6511 18.8447 16.7125 18.6169 16.5215C18.3891 16.3305 18.6169 15.9894 18.6169 15.9894C18.7012 15.8299 18.7848 15.8365 18.7941 15.2832C18.8004 14.909 19.1866 14.6123 19.583 14.1774C20.0677 13.6457 20.7451 12.7705 20.7451 12.7705C20.7485 13.0391 20.8954 13.0826 20.8954 13.0826C21.0288 12.8089 21.2202 12.5888 21.2202 12.5888C21.2304 12.6119 21.2578 12.6272 21.2578 12.6272C21.4081 12.4226 21.5004 12.3407 21.5004 12.3407C21.4492 12.3203 21.0288 12.3407 20.6357 12.6835C20.2426 13.0263 19.9726 12.9112 19.9726 12.9112C19.6992 12.8242 19.6753 12.6145 19.6753 12.6145C19.4757 11.7554 20.2597 11.141 20.2597 11.141C19.207 10.8903 19.9658 9.55494 21.2714 8.98704C22.577 8.41914 22.5633 8.1633 22.5633 8.1633C22.6385 8.2503 22.7001 8.40378 22.7001 8.40378C22.7137 8.39352 22.8094 8.2503 23.5614 7.91772C24.3133 7.58514 24.6756 7.29864 24.6756 7.29864C24.7713 7.48284 24.7507 7.61586 24.7507 7.61586C26.8083 6.89448 28.8351 5.23938 28.8351 5.23938C28.8931 5.3775 28.8624 5.58726 28.8624 5.58726C29.1973 5.27772 30.4073 4.55634 30.4073 4.55634C30.4278 5.01678 30.0484 5.1933 30.0484 5.1933C30.0895 5.25984 30.1134 5.38002 30.1134 5.38002C30.3116 5.27256 31.2344 4.62792 31.2344 4.62792C31.5727 4.91952 31.2652 5.3979 31.2652 5.3979C31.3848 5.38002 31.4737 5.27514 31.4737 5.27514C31.5591 5.7714 31.0089 6.20886 31.0089 6.20886C31.1046 6.21144 31.2652 6.11676 31.2652 6.11676C31.1626 6.6591 30.1339 7.26024 30.1339 7.26024C30.2842 7.39326 30.1407 7.56978 30.0177 7.6491C29.8946 7.72842 29.6759 7.90236 29.7442 7.974C29.8126 8.04564 30.2672 7.72584 30.2672 7.72584C30.3458 7.95354 29.7613 8.4012 29.7613 8.4012C30.1681 8.4549 31.2994 7.94076 31.2994 7.94076C31.2071 8.37822 30.7798 8.71842 30.2535 8.9154C29.7271 9.11238 29.7545 9.1431 29.7545 9.1431C29.8468 9.21726 30.5748 9.00498 30.5748 9.00498C30.356 9.49356 29.5972 9.82872 29.5972 9.82872C29.8057 10.0052 30.0894 9.80058 30.3731 9.60618C30.6568 9.41178 31.043 9.24546 31.4702 9.10224C31.8975 8.95896 32.1982 9.06642 32.1982 9.06642C32.5536 8.95386 32.8544 9.11244 32.8544 9.11244C33.538 9.16872 33.6063 9.41687 33.6063 9.41687C33.6815 9.43475 33.7396 9.46548 33.9139 9.5934C34.0882 9.72131 34.078 10.1178 34.0711 10.3123C34.0643 10.5067 34.0096 10.5067 33.9754 10.5604C33.9412 10.6142 33.9378 10.6756 33.9378 10.7497C33.9378 10.8239 33.7669 11.2844 32.7108 11.2895C31.6547 11.2946 31.1101 11.2895 31.1101 11.2895C31.023 11.2895 30.9187 11.3407 30.9187 11.3407C30.4744 11.5607 30.7091 11.1906 30.1805 11.6255C29.6519 12.0604 29.383 11.9853 29.383 11.9853C29.2964 12.0893 28.7427 12.6044 28.426 12.809C28.1092 13.0137 28.1662 12.9949 28.4419 13.1143C28.7176 13.2337 29.1346 13.1143 29.1346 13.1143C28.8681 13.2917 29.0526 13.3735 29.0526 13.3735C29.4035 13.1603 29.6154 13.2388 29.6154 13.2388C29.7271 13.5441 29.326 14.0267 29.326 14.0267C29.481 14.0472 29.7726 14.0267 29.7726 14.0267C29.702 14.2331 29.4103 14.4599 29.1961 14.5298C28.9819 14.5997 29.0207 14.627 29.0845 14.7566C29.1483 14.8862 29.0936 15.0176 29.0936 15.0176C28.7199 14.7584 28.7062 14.9903 28.7062 14.9903C28.6631 15.2975 28.6698 15.7373 28.6698 15.7373C28.4055 15.6043 28.3918 15.7816 28.3918 15.7816C28.3234 16.0613 27.9999 16.3853 27.9999 16.3853C27.9862 16.2114 27.8267 16.1671 27.8267 16.1671C27.6581 16.4911 27.3482 16.6855 27.3482 16.6855C27.3072 16.9652 27.3847 17.3575 27.3847 17.3575C27.1842 17.3165 27.1113 17.32 27.0793 17.3677C27.0474 17.4155 27.1249 17.4394 27.1249 17.4394L29.7362 17.5042C29.7727 17.5076 29.9276 17.5246 29.9322 17.8077C29.9367 18.0908 29.7043 18.1045 29.7043 18.1045L26.847 18.0362C26.847 18.0362 26.8606 18.1147 26.7102 18.1931C26.5598 18.2716 26.61 18.1045 26.5689 18.4558C26.5279 18.8071 25.9582 18.4285 25.9582 18.4285C25.8671 18.5649 25.6438 18.7423 25.6438 18.7423C25.5162 18.3568 25.384 18.2375 25.179 18.5717C24.9739 18.906 25.5481 18.848 25.5481 18.848C25.5481 18.848 28.9021 18.3535 29.0844 18.3364C29.2667 18.3194 29.4672 18.3296 29.5492 18.5854C29.6313 18.8413 29.1436 18.8822 29.1436 18.8822L25.703 19.2574C25.6301 19.462 25.343 19.445 25.343 19.445C25.3658 19.6394 25.1607 19.7622 25.0559 19.8338C24.9511 19.9055 24.623 19.8713 24.623 19.8713C24.222 20.1442 24.026 19.9293 24.026 19.9293C23.7663 20.0419 23.6022 19.9941 23.388 19.902C23.1738 19.8099 23.1921 19.5507 23.1921 19.5507L21.0206 19.7758C20.9181 19.8116 20.8474 19.8799 20.8474 19.8799C20.9249 19.9788 20.6919 20.2086 20.6919 20.2086C20.7568 20.2534 20.8816 20.3787 20.8987 20.6499C20.9167 20.9368 20.5483 20.985 20.7329 21.1846C20.9175 21.3841 21.2541 21.2191 21.6301 21.0388C22.006 20.8584 22.3752 20.8814 22.5358 20.8827C22.6964 20.884 23.1442 20.9965 23.4227 21.095C23.7013 21.1935 23.797 21.1347 23.8158 20.9914C23.8345 20.8481 23.9593 20.8072 23.9593 20.8072C23.9251 20.9479 24.0004 21.0106 24.0004 21.0106C24.108 21.0183 24.296 20.9134 24.296 20.9134C24.2789 21.017 24.1422 21.0823 24.1422 21.0823C23.8688 21.2651 24.2448 21.1974 24.2448 21.1974C24.9933 21.0439 25.2598 21.0593 25.4547 21.0797C25.6495 21.1002 26.5689 21.4916 26.5689 21.4916C26.6031 21.3995 26.5791 21.1718 26.5791 21.1718C26.815 21.2358 26.9107 21.3714 26.9107 21.3714C26.9995 21.2742 26.9415 21.1105 26.9415 21.1105C27.7002 21.5351 26.7843 21.727 26.5416 21.8088C26.2989 21.8906 26.3023 21.9904 26.3023 21.9904C26.504 21.9265 26.6441 21.9034 26.8116 21.8906C26.9791 21.8779 26.921 21.8881 27.3209 21.8088C27.7208 21.7295 27.9259 21.8983 27.9259 21.8983C27.591 21.9162 27.4918 22.016 27.4918 22.016C27.7038 22.1618 27.5021 22.2846 27.5021 22.2846C27.1979 21.9009 26.9382 22.3 26.9382 22.3C27.0424 22.2846 27.3483 22.3486 27.4354 22.4036C27.5029 22.4461 27.661 22.5238 27.8575 22.6146C28.135 22.7428 28.0831 22.6606 28.2984 22.7425C28.5137 22.8244 28.4317 23.0316 28.4317 23.0316C28.3395 22.8628 28.1412 22.8039 28.1412 22.8039C28.1241 23.0316 27.8952 23.0699 27.8952 23.0699C28.1754 22.7578 27.5704 22.6223 27.2868 22.6274C27.0031 22.6325 26.7912 22.8141 26.7912 22.8141C27.3619 23.3488 27.7584 23.1748 27.7584 23.1748C27.6867 23.3692 27.215 23.2925 27.215 23.2925C27.4338 23.4587 27.4098 23.5765 27.4098 23.5765C27.2936 23.4639 27.1022 23.5202 26.6921 23.2541C26.282 22.9881 25.9162 23.0751 25.9162 23.0751C26.3161 23.5023 25.7693 23.7556 25.7693 23.7556C25.5676 23.8707 25.8547 24.0267 25.8547 24.0267C25.6018 24.0727 25.5676 23.8195 25.5676 23.8195C25.4343 23.794 25.2429 23.9551 25.2429 23.9551C25.2566 23.6942 25.5984 23.8247 25.6086 23.5535C25.6189 23.2823 25.2907 23.0726 24.3235 23.2056C23.3562 23.3386 23.0725 23.0291 23.0725 23.0291C22.9905 23.0317 22.9734 23.1135 22.9734 23.1135C23.134 23.267 23.2059 23.3309 23.1785 23.4384C23.1511 23.5459 23.2297 23.5817 23.2297 23.5817C23.052 23.5714 23.0383 23.3591 23.0383 23.3591C23.0349 23.4461 22.9973 23.4538 22.9392 23.5459C22.8811 23.638 22.9358 23.7556 22.9358 23.7556C22.8606 23.6891 22.7239 23.6098 22.8538 23.4205C22.9538 23.2747 22.6453 23.0879 22.6453 23.0879C22.5256 22.9652 22.2078 23.0803 22.2078 23.0803C21.5482 23.2107 21.162 22.7938 21.162 22.7938C21.0868 22.7938 20.9432 22.7528 20.9432 22.7528C20.2459 23.065 19.6342 22.3896 19.6342 22.3896C19.1079 22.4894 18.8686 22.2361 18.708 21.988C18.5473 21.7398 18.5166 21.7193 18.3046 21.5915C18.0927 21.4636 17.8947 21.1017 18.0893 20.911C18.259 20.7448 18.2089 20.7064 18.2089 20.7064C17.9355 20.2468 18.6966 20.0986 18.7102 19.9886C18.7302 19.8281 18.8891 19.7266 19.06 19.7164C19.2309 19.7061 19.2309 19.7215 19.3437 19.6064C19.4565 19.4912 19.6718 19.6345 19.6718 19.6345C19.7163 19.6013 20.0922 19.3096 20.4271 19.4606C20.7621 19.6115 21.039 19.5041 21.039 19.5041C21.2748 19.4529 23.2332 19.1869 23.2332 19.1869C23.3597 18.9976 23.4486 18.7699 23.9886 18.6471C24.5286 18.5243 24.9387 18.1892 24.9387 18.1892C24.843 18.0869 24.6824 18.092 24.6004 18.0817C24.5184 18.0715 24.3475 17.9257 24.3475 17.9257C24.2484 17.9692 24.1975 17.9479 23.4896 18.3784C22.8573 18.763 22.8391 17.9999 22.8391 17.9999L21.4594 18.0024C21.4355 18.294 21.2134 18.4091 21.2134 18.4091L20.7109 18.4347C20.4307 18.2863 20.4273 17.7926 20.4273 17.7926C18.9097 17.8157 18.0655 18.358 18.0655 18.358C16.3464 17.4779 14.9997 17.2784 14.9997 17.2784C17.088 17.0507 18.192 16.4701 18.192 16.4701C19.3438 17.1608 20.4273 17.1787 20.4273 17.1787C20.4683 16.7617 20.7486 16.6594 20.7486 16.6594L21.0663 16.6766Z" fill="black"/>
<path d="M18.5841 20.1418C18.1477 20.3977 18.2266 20.5374 18.2646 20.616C18.3034 20.6962 18.3079 20.7729 18.1894 20.8923C18.0709 21.0117 18.0823 21.0532 18.0823 21.0532C18.1006 21.4773 18.401 21.5674 18.5263 21.6714C18.6312 21.7586 18.8092 22.0316 18.8092 22.0316C19.0325 22.3522 19.2694 22.3556 19.4449 22.3556C19.6203 22.3556 19.6047 22.3407 19.5155 22.2618C19.4316 22.1876 19.2557 22.0435 19.2557 22.0435C19.4904 22.1253 19.7137 22.3709 19.7137 22.3709C20.1571 22.8561 20.5659 22.7922 20.7459 22.7683C20.9259 22.7444 20.894 22.6404 20.894 22.6404C20.8845 22.6231 20.7094 22.6097 20.7094 22.6097C20.0441 22.5465 19.8436 22.11 19.8436 22.11C20.2446 22.5039 20.8735 22.5841 21.0671 22.5768C21.2608 22.5696 21.2494 22.625 21.2084 22.6353C21.1673 22.6455 21.1081 22.6353 21.0193 22.6284C20.9304 22.6216 20.9304 22.6438 20.9509 22.6813C20.9714 22.7188 21.0551 22.7226 21.1611 22.7188C21.2671 22.715 21.1816 22.7265 21.4567 22.9401C21.7319 23.1537 22.4171 22.981 22.4171 22.981C21.9745 22.871 21.913 22.6715 21.913 22.6715C21.3115 22.7418 21.0671 22.3811 21.0671 22.3811C20.9594 22.2737 20.638 22.1075 20.638 22.1075C20.2981 21.9616 20.2451 21.6539 20.2451 21.6539C20.3408 21.7901 20.5271 21.9462 20.7629 22.0115C20.9987 22.0767 21.0653 22.1112 21.0653 22.1112C20.9525 22.1279 20.8859 22.0908 20.8859 22.0908C20.65 22.0217 20.7833 22.1177 20.7833 22.1177C21.0431 22.3248 21.1149 22.3095 21.1149 22.3095C21.7967 22.3799 21.4584 22.1075 21.4584 22.1075C21.9437 22.2226 22.0241 22.0409 22.0241 22.0409C22.1249 22.2545 22.4923 22.1778 22.4923 22.1778C22.0036 22.4131 22.3744 22.3459 22.3744 22.3459C22.8683 22.2533 22.9651 22.379 22.9651 22.379C23.0988 22.5033 23.234 22.4861 23.234 22.4861C23.234 22.4861 23.3228 22.4886 23.5108 22.5263C23.6988 22.5639 23.9859 22.724 24.2593 22.6901C24.5327 22.6563 24.5772 22.7421 24.5772 22.7421C24.526 22.7244 24.4063 22.7061 24.1944 22.8008C23.9825 22.8954 23.6168 22.9261 23.0836 22.8008C22.5505 22.6754 22.5094 22.6908 22.5094 22.6908C22.6359 22.7854 22.7486 22.9185 22.7726 23.0105C22.7965 23.1026 22.8888 23.1077 22.8888 23.1077C22.9264 22.9901 23.087 22.9389 23.087 22.9389C23.1922 23.0361 23.4733 23.164 23.4733 23.164C23.504 23.1 23.4733 23.0553 23.4733 23.0553C23.6783 23.251 23.9176 23.1921 23.9176 23.1921C23.9824 23.1462 23.962 23.0361 23.962 23.0361C24.044 23.0335 24.0577 23.0847 24.1158 23.1231C24.1739 23.1615 24.3584 23.1359 24.3584 23.1359C24.2901 23.1077 24.2422 23.0028 24.2422 23.0028C24.5122 22.8161 25.0967 22.898 25.0967 22.898C25.5188 22.9721 25.4658 23.2484 25.4658 23.2484C25.5512 23.2893 25.664 23.4173 25.664 23.4173C25.6999 23.3201 25.6675 23.2215 25.6675 23.2215C25.8606 23.3136 25.9016 23.5388 25.9016 23.5388C26.1254 23.2829 25.688 22.9952 25.688 22.9952C25.8999 22.9683 26.134 22.9875 26.2759 23.0079C26.4177 23.0284 26.621 23.1026 26.7868 23.2407C26.9526 23.3789 27.25 23.4428 27.25 23.4428C27.2408 23.3858 27.0825 23.2893 27.0466 23.2689C27.0107 23.2484 26.9954 23.1986 26.9954 23.1986C27.1406 23.2241 27.2414 23.2113 27.2414 23.2113C26.7305 22.8992 26.6023 22.7509 26.6023 22.7509C26.7937 22.7752 26.8997 22.6562 26.8997 22.6562C26.4964 22.6652 26.4827 22.5603 26.4827 22.5603C26.5322 22.5743 26.7151 22.6191 26.9561 22.5718C27.197 22.5245 27.532 22.5731 27.532 22.5731C27.3577 22.2929 26.6826 22.3403 26.4673 22.3518C26.252 22.3633 26.1683 22.3352 26.1683 22.3352C26.2025 22.3185 26.2384 22.2827 26.4075 22.2815C26.5767 22.2802 26.7424 22.2942 26.9338 22.1625C27.1252 22.0307 27.3878 22.0742 27.3878 22.0742C27.3241 21.948 27.021 21.9037 26.7544 22.0742C26.4878 22.2447 26.2463 22.1902 26.2463 22.1902C26.6678 22.1305 26.7908 21.9821 26.7908 21.9821C26.6632 21.9514 26.5926 21.9924 26.3397 22.0418C26.0868 22.0913 26.0184 22.0043 26.0184 22.0043C26.2964 21.8389 26.4901 21.7724 26.4901 21.7724C26.2531 21.7229 26.0344 21.6218 26.0344 21.6218C25.7883 21.8532 25.5969 21.9838 25.1252 21.7365C24.6536 21.4893 24.4075 21.5183 24.4075 21.5183C24.8222 21.2727 25.2483 21.3784 25.5582 21.5643C25.8681 21.7502 25.957 21.5984 25.957 21.5984C25.859 21.537 25.8727 21.4841 25.8727 21.4841C26.6246 21.8678 26.9504 21.6291 27.1168 21.5165C27.2831 21.404 27.0416 21.2539 27.0416 21.2539C27.0256 21.4978 26.718 21.6086 26.4765 21.5268C26.235 21.4449 26.0117 21.3409 25.6642 21.1959C25.3168 21.051 24.8815 21.126 24.4759 21.2113C24.0703 21.2966 24.0179 21.2556 23.9815 21.2232C23.945 21.1908 23.9245 21.0919 23.7172 21.1772C23.5098 21.2625 23.0267 21.0357 22.726 20.964C22.4252 20.8924 21.9328 20.9316 21.5069 21.1653C21.0811 21.399 20.8712 21.341 20.7436 21.2829C20.616 21.2249 20.5363 21.0647 20.673 20.9214C20.8097 20.7781 20.8211 20.7389 20.8097 20.5325C20.7983 20.3262 20.5955 20.2034 20.5955 20.2034C20.7824 20.0106 20.828 19.968 20.7641 19.8845C20.7004 19.8009 20.8006 19.8026 20.9077 19.7549C21.0148 19.7071 20.9669 19.7003 20.9419 19.6372C20.9168 19.5741 20.8553 19.5843 20.8553 19.5843C20.607 19.5946 20.4703 19.5264 20.4703 19.5264C20.059 19.3371 19.6773 19.7054 19.6773 19.7054C19.4437 19.5264 19.3902 19.6423 19.3492 19.6866C19.3081 19.731 19.2261 19.7617 19.1167 19.7719C19.0172 19.7812 18.8669 19.8201 18.8147 19.9131C18.8147 19.9131 18.7687 19.9878 18.8261 20.0696C18.8261 20.0696 18.89 20.1659 18.7738 20.2822C18.6576 20.3986 18.6166 20.4267 18.6525 20.5367C18.6884 20.6467 18.6781 20.7311 18.6337 20.8028C18.6337 20.8028 18.5807 20.7414 18.5944 20.6659C18.6081 20.5904 18.6081 20.5469 18.591 20.506C18.591 20.506 18.4765 20.6186 18.456 20.6991C18.456 20.6991 18.4082 20.5751 18.5739 20.4088C18.7396 20.2425 18.8152 20.1597 18.7687 20.0954C18.7345 20.0481 18.6133 20.1247 18.5841 20.1418Z" fill="#FFC221"/>
<path d="M19.0549 21.9755C19.0549 21.9755 18.8475 21.8169 18.8726 21.5969C18.8977 21.3769 18.8935 21.3496 18.8705 21.3036C18.8705 21.3036 18.8327 21.3255 18.8338 21.411C18.8349 21.4913 18.8235 21.5748 18.8156 21.5901C18.8156 21.5901 18.7085 21.4076 18.6652 21.3735C18.6652 21.3735 18.7017 21.1825 18.6424 21.1006C18.5832 21.0187 18.5258 21.0136 18.4579 21.0392C18.3638 21.0746 18.2927 21.162 18.6089 21.4212C18.6089 21.4212 18.7267 21.515 18.8088 21.7231C18.8908 21.9312 19.0276 21.9636 19.0549 21.9755ZM20.0825 21.3667C20.0825 21.3667 20.0666 21.2422 20.1782 21.0222C20.2899 20.8021 20.2229 20.6387 20.1979 20.5841C20.1728 20.5295 20.1577 20.5498 20.2703 20.4552C20.4089 20.3389 20.2169 20.192 20.4448 19.988C20.4448 19.988 20.5952 19.8591 20.6294 19.8062C20.6294 19.8062 20.3879 19.9358 20.2306 20.0006C20.0734 20.0654 19.4719 20.3604 19.604 20.5582C19.7362 20.7561 19.7225 20.7663 19.702 20.8482C19.702 20.8482 19.3443 20.6589 19.4696 20.3519C19.4696 20.3519 19.5264 20.2282 19.6769 20.0893C19.8137 19.9631 19.7316 20.1166 20.0096 19.9579C20.0096 19.9579 20.2306 19.8266 20.3468 19.6492C20.3468 19.6492 20.201 19.7413 20.1485 19.7567C20.1485 19.7567 19.8272 19.8147 19.6974 19.9511C19.5675 20.0875 19.2918 20.3246 19.3852 20.5889C19.3852 20.5889 19.0639 20.5497 18.991 20.2154C18.991 20.2154 18.3963 20.9487 19.645 21.2898C19.645 21.2899 19.8729 21.3505 20.0825 21.3667Z" fill="black"/>
<path d="M25.5751 18.9148C26.0415 18.8443 28.744 18.4359 28.9896 18.411C29.2585 18.3837 29.3614 18.3478 29.4499 18.5644C29.5501 18.81 29.0808 18.8134 29.0808 18.8134L25.8588 19.1787C25.7008 19.197 25.6654 19.1367 25.6654 19.1367C25.6375 19.0852 25.5837 19.0167 25.5465 18.9718C25.5465 18.9717 25.5041 18.9255 25.5751 18.9148Z" fill="#FFC221"/>
<path d="M18.9748 20.3806C18.9748 20.3806 18.6262 21.1148 19.9967 21.2964C19.9967 21.2964 20.0001 21.2146 20.0548 21.0994C20.1094 20.9843 20.2291 20.7516 20.1163 20.6006C20.0035 20.4496 20.2085 20.529 20.2393 20.332C20.2701 20.135 20.2188 20.1631 20.3145 20.0352C20.3145 20.0352 19.8839 20.1913 19.7198 20.3806C19.5557 20.5699 19.942 20.7132 19.7129 20.9203C19.7129 20.9203 19.5215 20.8513 19.4087 20.644C19.4089 20.6441 19.1423 20.6493 18.9748 20.3806Z" fill="#5A3719"/>
<path d="M20.3147 21.2825C20.3147 21.2825 20.653 21.5754 21.0563 21.5626C21.4596 21.5498 21.6305 21.4424 21.7331 21.2825C21.7331 21.2825 21.8115 21.4064 21.8117 21.4884C21.8117 21.4884 22.1603 21.1993 22.7618 21.45C23.3634 21.7007 23.1788 21.6318 23.3121 21.6496C23.3121 21.6496 23.0564 21.6041 22.4713 21.8721C21.8698 22.1476 20.301 22.0537 20.3147 21.2825Z" fill="black"/>
<path d="M19.7541 19.9868C19.7541 19.9868 19.9062 20.0098 20.0583 19.8384C20.0583 19.8384 19.8532 19.8768 19.7541 19.9868ZM18.6048 21.3503C18.6048 21.3503 18.322 21.1277 18.5031 21.0842C18.5031 21.0842 18.6321 21.0638 18.6048 21.3503Z" fill="#5A3719"/>
<path d="M24.761 22.7421C24.761 22.7421 24.9114 22.4733 25.3455 22.4733C25.7796 22.4733 25.8308 22.6728 26.3777 22.7112C26.3777 22.7112 25.721 22.8962 25.2635 22.7265C25.0242 22.6378 24.8089 22.7116 24.761 22.7421Z" fill="black"/>
<path d="M20.4653 21.4782C20.4653 21.4782 21.1147 21.8722 21.6923 21.445C21.6923 21.445 21.7402 21.491 21.7812 21.5959C21.7812 21.5959 22.2186 21.1737 23.0013 21.6291C23.0013 21.6291 22.9051 21.6184 22.5365 21.7775C22.0563 21.9847 20.8549 22.1203 20.4653 21.4782Z" fill="#5A3719"/>
<path d="M22.9704 21.8773C22.9704 21.8773 23.5924 21.9494 24.1188 21.9182C24.4422 21.899 24.7921 21.8398 24.6178 21.9494C24.4435 22.0589 24.5289 22.0691 25.274 22.0001C26.0191 21.931 25.2672 22.1408 25.7799 22.2073C25.7799 22.2073 24.5373 22.8416 22.9704 21.8773Z" fill="black"/>
<path d="M24.604 21.4807C24.604 21.4807 24.9697 21.3477 25.3081 21.5063C25.6465 21.6649 25.5952 21.6777 25.8208 21.7007C25.8208 21.7007 25.6636 21.9258 25.2911 21.7442C24.9185 21.5626 24.8198 21.5275 24.604 21.4807ZM25.0108 22.6038C25.0108 22.6038 25.3696 22.4248 25.7662 22.6108C25.8159 22.6341 25.9241 22.6791 26.0259 22.701C26.0259 22.701 25.722 22.7952 25.4106 22.6984C25.2812 22.6582 25.1782 22.6268 25.0108 22.6038ZM23.2369 21.9616C23.2369 21.9616 24.0367 22.0358 24.4707 21.9493C24.4707 21.9493 23.9683 22.1919 25.2295 22.0793C25.2295 22.0793 25.5097 22.0486 25.4755 22.0921C25.4413 22.1356 25.4209 22.1688 25.5576 22.2097C25.5576 22.2098 24.6211 22.6293 23.2369 21.9616Z" fill="#5A3719"/>
<path d="M19.2414 21.2825C19.2414 21.2825 19.2482 21.3439 19.4259 21.4232C19.6036 21.5025 19.6993 21.6445 19.737 21.7212C19.7746 21.7979 19.8651 21.9128 20.0121 21.9494C20.0121 21.9494 19.3851 22.0802 19.1041 21.7541C19.1041 21.7541 18.8911 21.5191 19.2346 21.2825" fill="black"/>
<path d="M24.1768 22.7292C24.1768 22.7292 23.9273 22.7138 23.5889 22.5961C23.2505 22.4785 23.1616 22.5783 22.9703 22.435C22.7789 22.2917 22.3927 22.3813 22.3209 22.3915C22.2491 22.4017 22.0441 22.3915 22.3004 22.2252C22.3004 22.2252 22.0953 22.2201 22.0167 22.1178C22.0167 22.1178 21.9244 22.2073 21.5792 22.174C21.5792 22.174 21.733 22.4156 21.1144 22.346C21.1144 22.346 21.299 22.5603 21.5212 22.6038C21.7433 22.6473 21.836 22.6329 21.9791 22.591C21.9791 22.591 21.9381 22.7778 22.2252 22.8494C22.5123 22.921 22.5704 22.9773 22.7174 23.0361C22.7174 23.0361 22.7379 22.9159 22.3551 22.6371C22.3551 22.6371 22.5602 22.6268 22.8541 22.6984C23.1479 22.7701 23.8144 22.9415 24.1768 22.7292ZM24.3317 23.0157C24.3317 23.0157 24.3932 23.1589 24.5823 23.1265C24.7714 23.0941 25.0825 23.0387 25.3832 23.1922C25.3832 23.1922 25.4345 22.9363 24.8307 22.9185C24.8307 22.9185 24.4525 22.9389 24.3317 23.0157ZM19.2186 21.3733C19.2186 21.3733 18.9862 21.5643 19.1969 21.763C19.3895 21.9445 19.6868 21.9285 19.8292 21.9234C19.8292 21.9234 19.7438 21.8748 19.6686 21.7622C19.5934 21.6496 19.5908 21.5736 19.4327 21.5013C19.2687 21.4263 19.2493 21.4066 19.2186 21.3733ZM18.9748 20.3808C18.9748 20.3808 18.6262 21.115 19.9967 21.2966C19.9967 21.2966 20.0001 21.2148 20.0548 21.0996C20.1094 20.9845 20.2291 20.7517 20.1163 20.6008C20.0035 20.4498 20.2085 20.5291 20.2393 20.3322C20.2701 20.1352 20.2188 20.1633 20.3145 20.0354C20.3145 20.0354 19.8839 20.1915 19.7198 20.3808C19.5557 20.5701 19.942 20.7133 19.7129 20.9205C19.7129 20.9205 19.5215 20.8515 19.4087 20.6442C19.4089 20.6443 19.1423 20.6494 18.9748 20.3808Z" fill="#5A3719"/>
<path d="M22.5773 22.0744C22.5773 22.0744 22.8644 22.0284 23.5958 22.3021C24.3272 22.5759 24.6314 22.5068 24.7408 22.4991C24.7408 22.4991 24.3282 22.7146 23.6892 22.4333C23.1242 22.1845 23.0866 22.2791 22.5773 22.0744Z" fill="black"/>
<path d="M27.1555 21.9106C27.1555 21.9106 27.3225 21.9049 27.4198 21.9506C27.4198 21.9506 27.4836 21.896 27.6363 21.8798C27.6363 21.8798 27.536 21.7792 27.1555 21.9106ZM26.6554 21.5056C26.6554 21.5056 26.8229 21.4979 26.873 21.4177C26.873 21.4177 26.7887 21.3103 26.66 21.2591C26.66 21.2591 26.6861 21.3734 26.6554 21.5056ZM21.0353 19.6364C21.0353 19.6364 21.0046 19.5545 21.1789 19.5289C21.3532 19.5034 23.6317 19.1785 23.6317 19.1785C23.6317 19.1785 23.7525 19.1783 23.7696 19.2578C23.7881 19.3437 23.7559 19.408 23.2057 19.4723C22.6554 19.5366 21.2028 19.7182 21.2028 19.7182C21.2028 19.7182 21.049 19.7438 21.0353 19.6364Z" fill="#FFC221"/>
<path d="M23.258 19.5383C23.258 19.5383 23.258 19.8606 23.5861 19.9084C23.9045 19.9547 24.0139 19.8885 24.0988 19.7209C24.1211 19.6768 24.2188 19.3403 24.0774 19.3146C24.0218 19.3045 23.9233 19.3103 23.8528 19.3404C23.743 19.3873 23.6411 19.4423 23.6773 19.4973C23.7548 19.615 23.7699 19.6423 23.7411 19.6508C23.6624 19.6741 23.6045 19.605 23.5885 19.557C23.5685 19.4973 23.6318 19.4588 23.4176 19.4905C23.33 19.5034 23.258 19.5007 23.258 19.5383Z" fill="#FFC221"/>
<path d="M24.6235 19.2905C24.7911 19.3098 24.7784 19.6645 24.5779 19.8248C24.3619 19.9974 24.1559 19.9357 24.1559 19.9357C24.0469 19.8897 24.0606 19.905 24.1449 19.7771C24.2247 19.656 24.2623 19.4931 24.2178 19.3797C24.2036 19.3435 24.2429 19.3141 24.2985 19.3021C24.2986 19.3021 24.4503 19.2705 24.6235 19.2905Z" fill="#FFC221"/>
<path d="M24.7692 19.3217C24.7692 19.3217 24.8889 19.4722 24.7395 19.7497C24.7395 19.7497 24.6735 19.8315 24.8216 19.8196C24.9697 19.8077 25.3001 19.6491 25.2659 19.4461C25.2659 19.4461 25.2545 19.3967 25.1679 19.4018C25.0813 19.4069 25.152 19.354 25.1884 19.3438C25.2249 19.3336 25.3377 19.2918 25.0449 19.1033C25.0449 19.1033 24.9966 19.0598 24.9401 19.0778C24.8955 19.0919 24.7395 19.1559 24.7395 19.2466C24.7396 19.2838 24.7692 19.3217 24.7692 19.3217Z" fill="#FFC221"/>
<path d="M25.0896 19.0668C25.0896 19.0668 25.3232 19.2342 25.3221 19.2839C25.321 19.3336 25.3004 19.401 25.362 19.3951C25.4235 19.3891 25.6764 19.3354 25.6069 19.1683C25.5374 19.0011 25.4679 18.9423 25.3506 18.9014C25.2332 18.8605 25.2036 18.9159 25.1034 18.9918C25.1033 18.9918 25.0304 19.0361 25.0896 19.0668ZM23.8262 19.303C23.8262 19.303 23.8649 19.1785 23.6553 19.1325C23.6553 19.1325 23.7441 19.0591 23.9219 19.0984C24.0984 19.1373 24.0795 19.2536 24.0782 19.2689C24.0782 19.2689 23.9401 19.2637 23.8262 19.303ZM24.2819 19.274C24.2819 19.274 24.5248 19.2315 24.6328 19.245C24.6328 19.245 24.5132 18.9773 24.1896 19.0685C24.1896 19.0685 24.3058 19.1998 24.2819 19.274ZM24.6977 19.2075C24.6977 19.2075 24.6977 19.1256 24.9039 19.0437C24.9039 19.0437 24.8039 18.9495 24.6647 18.9585C24.5052 18.9687 24.4733 19.0267 24.4733 19.0267C24.4733 19.0267 24.6465 19.0868 24.6977 19.2075ZM24.7786 18.9278C24.7786 18.9278 24.9062 18.9602 24.986 19.0284C24.986 19.0284 25.1069 18.8964 25.2093 18.8681C25.2093 18.8681 25.0088 18.7606 24.7786 18.9278Z" fill="#FFC221"/>
<path d="M18.0691 18.2831C18.0691 18.2831 18.632 17.8061 18.9475 17.8636C19.2628 17.921 19.1047 17.8814 19.4499 17.8277C19.7951 17.774 20.1506 17.7382 20.2941 17.7561C20.2941 17.7561 19.8771 17.4568 19.132 17.4619C19.132 17.4619 18.6057 17.6435 18.2434 17.884C18.2434 17.884 17.5461 17.4952 16.825 17.728C16.825 17.728 17.6077 18.0119 18.0691 18.2831Z" fill="#5A3719"/>
<path d="M24.0555 19.1093L24.1495 19.0935C24.1495 19.0935 24.3081 19.29 24.1929 19.2922C24.1028 19.294 24.1392 19.2645 24.1222 19.2074C24.1051 19.1502 24.0744 19.1247 24.0555 19.1093ZM23.3481 19.1247C23.3481 19.1247 23.2917 19.1948 23.3976 19.1784C23.5267 19.1584 23.5018 19.1827 23.6437 19.0867C23.6437 19.0867 23.7309 18.9942 23.8932 19.0518C23.8932 19.0518 24.0299 19.0965 24.141 19.0428C24.252 18.9891 24.2777 18.993 24.3375 18.9981C24.3973 19.0032 24.3933 19.0161 24.4731 18.9578C24.5528 18.8996 24.6912 18.9443 24.7784 18.8714C24.8656 18.7985 24.9749 18.8599 24.7784 18.7192C24.7784 18.7192 24.7374 18.6783 24.7408 18.6437C24.7408 18.6437 24.816 18.6654 24.8758 18.7192C24.9356 18.7729 25.0347 18.7563 25.0518 18.7473C25.0518 18.7473 25.0621 18.5721 25.2364 18.4109C25.4107 18.2498 25.4124 18.237 25.3099 18.2357C25.2073 18.2344 25.0347 18.1947 24.9766 18.2357C24.9186 18.2766 24.4075 18.6117 24.1102 18.668C23.8129 18.7243 23.5395 18.8087 23.3481 19.1247ZM15.4135 17.2914C15.4135 17.2914 16.3261 17.5267 16.5312 17.6256C16.5312 17.6256 16.5801 17.473 16.1655 17.3536C16.1655 17.3536 17.1726 17.3229 18.2389 17.8073C18.2389 17.8073 18.753 17.3665 20.4072 17.5029C20.4072 17.5029 20.4104 17.3568 20.4218 17.2445C20.4218 17.2445 19.2597 17.2104 18.1933 16.5623C18.1933 16.5623 17.2387 17.0321 15.4135 17.2914ZM20.4856 17.7322C20.4218 16.7993 20.7795 16.7158 20.7795 16.7158C20.7795 16.7158 20.948 16.7168 21.1304 16.7448C21.1304 16.7448 20.8479 17.0807 20.923 17.7476C20.923 17.7476 20.9527 17.855 20.7134 17.855C20.478 17.855 20.4856 17.7322 20.4856 17.7322Z" fill="#FFC221"/>
<path d="M20.7291 18.3497C20.7291 18.3497 20.5559 18.1724 20.5377 17.9677C20.5377 17.9677 20.5331 17.9149 20.7086 17.92C20.884 17.9251 20.9069 17.9031 20.9501 18.0052C20.9921 18.1045 21.1027 18.3139 21.1301 18.3378L20.7291 18.3497Z" fill="#5A3719"/>
<path d="M21.1038 17.884C21.0879 17.7619 21.0818 17.6578 21.0845 17.5294C21.0959 17.0092 21.1823 17.0554 21.2165 17.1203L21.3944 17.1235C21.3944 17.1235 21.2645 16.5369 21.1119 16.8796C20.9619 17.2164 20.9729 17.4356 20.9911 17.7016C21.0016 17.8549 21.0218 17.9503 21.0389 18.0076L21.1038 17.884Z" fill="#FFC221"/>
<path d="M23.1139 17.8854C23.1139 17.8854 23.4574 17.9379 22.931 18.0632C22.931 18.0632 22.9566 18.6992 23.5787 18.2538C23.5787 18.2538 23.9462 18.0189 24.2007 17.9233C24.2007 17.9233 24.3289 17.879 24.3135 17.7831C24.3135 17.7831 24.3238 17.6701 24.1905 17.6922C24.1905 17.6922 24.0855 17.6947 24.0179 17.67C24.0179 17.67 23.9444 17.5835 23.8948 17.6167C23.8452 17.65 23.729 17.6308 23.8196 17.7408C23.9102 17.8508 23.9375 17.8227 23.982 17.7907C24.0264 17.7587 24.2229 17.6807 24.0418 17.8431C23.8607 18.0055 23.7188 17.7536 23.6607 17.7075L23.1139 17.8854ZM21.3947 17.9575L21.2421 17.9541C21.2421 17.9541 21.1601 18.0769 21.1041 17.884L21.0393 18.0076C21.0393 18.0076 21.2284 18.6906 21.3947 17.9575Z" fill="#5A3719"/>
<path d="M21.1781 17.1694C21.1781 17.1694 21.1006 17.6162 21.1986 17.8925L22.8506 17.9233C22.8506 17.9233 22.83 17.6026 22.8551 17.1695H22.6205C22.6205 17.1695 22.5885 17.5293 22.6182 17.751L22.5795 17.7518C22.5795 17.7518 22.5498 17.4406 22.5817 17.1695H22.388C22.388 17.1695 22.3561 17.5021 22.3812 17.7544H22.3447C22.3447 17.7544 22.3173 17.4628 22.3493 17.1695H22.1579C22.1579 17.1695 22.1227 17.4707 22.1603 17.7503L22.1146 17.7493C22.1146 17.7493 22.0758 17.444 22.1169 17.1695H21.905C21.905 17.1695 21.8526 17.4509 21.9027 17.7527H21.8594C21.8594 17.7527 21.8115 17.4645 21.8639 17.1695H21.652C21.652 17.1695 21.6019 17.4884 21.6452 17.7527H21.6041C21.6041 17.7527 21.5699 17.444 21.6155 17.1695H21.4173C21.4173 17.1695 21.3649 17.4389 21.4082 17.7527H21.3648C21.3648 17.7527 21.3329 17.5191 21.374 17.1695L21.1781 17.1694ZM22.9235 17.9846C22.9235 17.9846 22.8777 17.1762 23.0328 16.9682C23.1879 16.7603 23.2197 16.8011 23.484 16.9682C23.7483 17.1353 24.0901 17.3161 24.1448 17.3366C24.1994 17.357 24.2769 17.3775 24.2769 17.5242C24.2769 17.6709 24.3043 17.7152 24.0764 17.531C24.0423 17.5034 23.9357 17.4059 23.8588 17.3814C23.6546 17.3162 23.9079 17.4271 23.9807 17.531C24.0425 17.6191 24.0901 17.6095 23.9306 17.6504C23.7711 17.6914 23.2197 17.8755 22.9235 17.9846Z" fill="#FFC221"/>
<path d="M23.502 17.4058C23.502 17.4058 23.3824 17.2546 23.5345 17.2201C23.6866 17.1855 23.6985 17.4592 23.7242 17.6242C23.7498 17.7892 23.5328 17.4575 23.502 17.4058ZM23.2799 18.1103C23.2799 18.1103 23.1022 18.1755 23.2184 18.2331C23.3346 18.2906 23.6627 18.0182 23.55 18.0361C23.4371 18.054 23.2799 18.1103 23.2799 18.1103ZM23.5209 17.8609C23.5209 17.8609 23.6781 17.8455 23.6474 17.9133C23.6166 17.9811 23.5602 17.938 23.5363 17.9231C23.5123 17.9082 23.4012 17.8698 23.5209 17.8609Z" fill="black"/>
<path d="M24.3582 17.6494C24.3582 17.6494 24.4003 17.9572 24.6646 18.0353C24.6646 18.0353 24.8173 18.0732 24.7854 17.9385C24.7854 17.9385 24.7592 17.8259 24.7376 17.779C24.7159 17.7321 24.61 17.7023 24.5986 17.6972C24.5872 17.6921 24.5735 17.6597 24.6465 17.6836C24.7194 17.7074 24.7308 17.71 24.7251 17.6588C24.7194 17.6077 24.6765 17.6282 24.6095 17.5955C24.5838 17.5829 24.6123 17.5659 24.6396 17.5719C24.667 17.5778 24.7319 17.5975 24.733 17.4917C24.733 17.4917 24.7475 17.4329 24.667 17.4286C24.5793 17.4239 24.5861 17.3847 24.6135 17.3788C24.6408 17.3728 24.7326 17.4364 24.7581 17.3318C24.7843 17.2244 24.6316 17.2862 24.6522 17.2308C24.6727 17.1754 24.7809 17.2625 24.7899 17.1967C24.7986 17.1328 24.886 17.1049 24.7371 17.0843C24.6665 17.0745 24.7318 17.0432 24.8111 17.0543C24.896 17.0663 24.9472 16.9614 24.9963 16.9273C25.0453 16.8932 25.3221 16.7278 24.953 16.7823C24.5838 16.8368 24.4756 17.0159 24.4517 17.0518C24.4276 17.0875 24.3251 17.299 24.3582 17.6494Z" fill="#FFC221"/>
<path d="M25.2184 17.8881C25.2658 17.879 25.3107 17.8919 25.3268 17.9249C25.3876 18.0496 25.2482 18.0051 25.1707 18.0972C25.0933 18.1893 25.091 18.1705 24.9816 18.1383C24.8722 18.1061 24.8313 17.9403 24.8313 17.9403C24.819 17.8894 24.8663 17.8851 24.9229 17.8916C24.9229 17.8916 25.1043 17.9101 25.2184 17.8881ZM24.8187 17.8218C24.8187 17.8218 24.8263 17.8591 24.889 17.8642C24.9516 17.8693 25.1337 17.8851 25.2419 17.8502C25.2419 17.8502 25.2818 17.8423 25.2639 17.7718C25.2639 17.7718 25.2624 17.7261 25.165 17.7446C25.0675 17.7632 24.9266 17.7446 24.8796 17.7344C24.8326 17.7242 24.7944 17.7353 24.8187 17.8218ZM24.8038 17.5984C24.8038 17.5984 24.8004 17.6956 24.8984 17.7084C24.9964 17.7212 25.1184 17.7207 25.1692 17.7107C25.2079 17.703 25.2778 17.6888 25.2835 17.6317C25.2892 17.5745 25.3051 17.5319 25.1844 17.5618C25.0636 17.5916 24.9178 17.572 24.903 17.5686C24.8881 17.5652 24.8061 17.5404 24.8038 17.5984ZM24.8483 17.4023C24.8483 17.4023 24.8244 17.4466 24.8278 17.4893C24.8312 17.5319 24.9018 17.5464 25.0294 17.5481C25.1571 17.5499 25.2709 17.5311 25.2789 17.4884C25.2869 17.4458 25.3177 17.3963 25.2174 17.4117C25.1172 17.4271 24.9907 17.4313 24.9406 17.4109C24.8904 17.3903 24.8567 17.3833 24.8483 17.4023Z" fill="#FFC221"/>
<path d="M29.5325 17.8969C29.5325 17.8969 29.5308 17.9858 29.6008 18.0734L26.0591 17.9717C26.0591 17.9717 26.1108 17.9397 26.124 17.8018L29.5325 17.8969Z" fill="#5A3719"/>
<path d="M24.8764 17.2556C24.8764 17.2556 24.8456 17.3451 24.9094 17.3631C24.9732 17.3809 25.0826 17.4006 25.2273 17.3776C25.2273 17.3776 25.3002 17.3827 25.3253 17.3051C25.3504 17.2275 25.3478 17.271 25.1417 17.23C25.1417 17.23 25.0769 17.2111 25.2649 17.2104C25.2649 17.2104 25.3697 17.2138 25.3857 17.1959C25.4017 17.178 25.5406 17.068 25.3606 17.0748C25.1806 17.0817 25.2695 17.0433 25.3606 17.0433C25.4518 17.0433 25.4803 17.062 25.5098 17.033C25.5395 17.004 25.5121 17.0236 25.4631 16.9741C25.4141 16.9247 25.4483 16.9392 25.4836 16.9665C25.519 16.9938 25.5406 17.0023 25.5805 16.9673C25.6204 16.9323 25.5497 16.8812 25.5805 16.8871C25.6112 16.8931 25.6261 16.9515 25.7422 16.8952C25.8584 16.839 26.0156 16.8684 26.0584 16.9003C26.1011 16.9323 26.2224 16.9732 26.2959 16.8978C26.3694 16.8223 26.2087 16.7609 26.2771 16.7506C26.3455 16.7404 26.3933 16.7647 26.4207 16.7097C26.4481 16.6547 26.3147 16.6023 26.4429 16.5678C26.5711 16.5332 26.4634 16.1738 26.419 16.1406C26.419 16.1406 26.2754 16.225 26.1182 16.4795C25.9609 16.734 25.8687 16.8824 25.655 16.8044C25.3469 16.6918 25.1894 16.8537 25.1417 16.8828C25.0678 16.928 25.2962 16.9502 25.1629 16.9527C25.0296 16.9553 25.0296 16.9668 25.016 16.9873C25.0023 17.0077 25.0142 17.0257 25.0382 17.0269C25.0621 17.0282 25.1134 17.0794 25.0313 17.0768C24.9493 17.0742 24.8912 17.0614 24.9153 17.1486C24.9153 17.1486 24.9168 17.1676 24.9647 17.1727C25.0125 17.1778 25.0296 17.2278 24.9407 17.2278C24.8837 17.2279 24.878 17.25 24.8764 17.2556ZM25.2039 18.1437C25.2039 18.1437 25.1407 18.1884 25.2278 18.1935C25.315 18.1986 25.3612 18.2152 25.3885 18.1686C25.4158 18.1219 25.5337 18.1411 25.4551 18.0758C25.3765 18.0106 25.3235 18.0477 25.2039 18.1437Z" fill="#FFC221"/>
<path d="M25.5694 17.0782C25.5694 17.0782 25.8643 16.8006 26.1108 16.9887C26.3573 17.1767 26.3812 17.2049 26.3846 17.2087C26.388 17.2126 26.4136 17.233 26.347 17.2919C26.2803 17.3507 26.3452 17.3494 26.4187 17.3136C26.4922 17.2778 26.4973 17.311 26.5332 17.3507C26.5691 17.3903 26.6171 17.4134 26.5034 17.4146C26.3897 17.4159 26.1453 17.4146 26.1453 17.4146C26.1453 17.4146 25.9795 17.4287 26.0633 17.3609C26.1471 17.2931 26.1351 17.2125 26.0923 17.2074C26.0496 17.2023 26.0889 17.2484 26.0633 17.2804C26.0377 17.3123 25.9795 17.3417 25.9215 17.3405C25.8634 17.3392 25.8121 17.3825 25.9044 17.4159C25.9966 17.4492 25.8941 17.471 25.8463 17.4697C25.7985 17.4684 25.5677 17.4876 25.8019 17.5157C26.036 17.5439 25.7808 17.5371 25.9522 17.6351C26.1419 17.7434 26.0052 17.9737 25.9335 17.9941C25.9335 17.9941 25.8549 18.0369 25.954 18.0251C26.0531 18.0133 26.1078 17.9992 26.0377 18.0529C25.9677 18.1066 25.8276 18.2857 25.6327 18.1488C25.6327 18.1488 25.5439 18.1067 25.7028 18.099C25.8618 18.0913 25.5729 18.0574 25.5251 18.0251C25.4773 17.9928 25.2944 17.8061 25.4089 17.8291C25.5234 17.8522 25.4824 17.7856 25.414 17.7613C25.3456 17.737 25.332 17.6321 25.4089 17.6552C25.4858 17.6782 25.5763 17.7211 25.6379 17.7182C25.6994 17.7153 25.6824 17.6897 25.5507 17.6487C25.4191 17.6078 25.3644 17.6014 25.3952 17.4902C25.426 17.3789 25.5695 17.5337 25.5354 17.4505C25.5012 17.3674 25.3764 17.4083 25.4431 17.2983C25.5097 17.1883 25.5251 17.2356 25.5559 17.2497C25.5867 17.2638 25.6359 17.2533 25.549 17.1883C25.4943 17.1473 25.554 17.0918 25.5694 17.0782Z" fill="#FFC221"/>
<path d="M25.7818 17.1549C25.7818 17.1549 25.78 17.1178 25.833 17.1242C25.886 17.1306 25.8723 17.105 25.8877 17.0973C25.903 17.0896 26.0356 17.1368 25.9116 17.1817C25.8658 17.1984 25.7938 17.1865 25.7818 17.1549Z" fill="black"/>
<path d="M26.0635 17.4695C26.0635 17.4695 25.9638 17.5203 26.0541 17.6249C26.131 17.714 26.1306 17.7423 26.1242 17.8016C26.1177 17.8609 29.5326 17.8967 29.5326 17.8967C29.5326 17.8967 29.5266 17.6773 29.6727 17.5539C29.6727 17.554 27.8066 17.5105 26.0635 17.4695Z" fill="#FFC221"/>
<path d="M29.5907 17.8366C29.5907 17.8366 29.6045 17.6516 29.7069 17.5903C29.7633 17.5565 29.8377 17.5762 29.8701 17.7253C29.9163 17.9375 29.7365 18.118 29.6531 18.0374C29.5736 17.9607 29.5907 17.8366 29.5907 17.8366Z" fill="#5A3719"/>
<path d="M25.6776 18.6347C25.6776 18.6347 25.9048 18.4415 25.939 18.3545C25.939 18.3545 26.5543 18.7904 26.5167 18.3902C26.5167 18.3902 26.5184 18.2829 26.5354 18.1806C26.5354 18.1806 26.7579 18.2024 26.7918 18.0248L26.2176 18.0079C26.2176 18.0079 26.1577 17.9951 26.0689 18.0911C25.98 18.187 25.7971 18.292 25.6263 18.2005C25.6263 18.2005 25.5547 18.1383 25.482 18.1908C25.4092 18.2432 25.4058 18.2586 25.4656 18.3149C25.5255 18.3712 25.6536 18.5439 25.6776 18.6347ZM26.9986 17.4311L26.6619 17.4183C26.6619 17.4183 26.5389 17.2456 26.2996 17.0537C26.2996 17.0537 26.2296 17.023 26.3646 16.9156C26.4996 16.8082 26.5389 16.6931 26.544 16.6406C26.5492 16.5882 26.5355 16.5063 26.5867 16.569C26.638 16.6317 26.9866 16.9463 27.0362 16.853C27.0858 16.7596 27.0943 16.7161 27.1029 16.688C27.1114 16.6598 27.1234 16.5728 27.1729 16.6637C27.2225 16.7545 27.2565 16.7313 27.2584 16.9668C27.2584 16.9668 27.2669 17.1996 27.3028 17.284C27.3027 17.284 26.8618 17.1428 26.9986 17.4311ZM25.5374 16.7148C25.5374 16.7148 25.7937 16.8581 25.9202 16.6636C26.0467 16.4692 26.1321 16.4385 26.0364 16.2518C25.9407 16.0651 26.0391 15.9781 26.1112 15.9013C26.1834 15.8246 26.2449 15.8374 26.2552 15.5406C26.2654 15.2438 26.4705 15.1441 26.5628 15.052C26.6551 14.9599 26.8875 14.8192 26.5354 14.7604C26.1834 14.7016 25.4862 14.5199 25.305 14.2488C25.1239 13.9777 25.0419 14.1388 25.0385 14.149C25.035 14.1593 24.9769 14.3588 25.1581 14.7195C25.3392 15.0802 25.493 15.3121 25.6674 15.4289C25.8417 15.5458 25.9989 15.6097 25.91 15.8502C25.8211 16.0906 25.6673 16.5204 25.5374 16.7148Z" fill="#7B3C20"/>
<path d="M26.4838 15.9479C26.4838 15.9479 26.5283 16.5644 26.9794 16.7844C26.9794 16.7844 27.082 16.5439 27.0409 16.306C27.0409 16.306 27.1879 16.3188 27.2289 16.3853C27.2289 16.3853 27.2358 16.2063 27.0238 16.141C26.8119 16.0758 26.9145 15.6741 26.9896 15.6281C27.0648 15.5821 27.0409 15.502 26.9896 15.4295C26.9384 15.357 26.9247 15.247 27.1024 15.293C27.2802 15.3391 27.2528 15.2444 27.1469 15.1574C27.041 15.0704 27.0444 14.963 27.1947 14.963C27.3451 14.963 27.5946 14.8172 27.4442 14.7712C27.2938 14.7251 27.246 14.6765 27.451 14.6177C27.6561 14.5588 27.7552 14.4847 27.6014 14.4668C27.4476 14.4489 27.3451 14.3951 27.4954 14.3696C27.6458 14.344 27.4681 14.1905 27.2938 14.1829C27.1195 14.1752 26.7435 14.2468 27.0409 14.0089C27.3382 13.771 26.6136 13.945 26.911 13.7889C27.2083 13.6328 26.8119 13.7019 26.7572 13.6994C26.7025 13.6968 26.7031 13.6994 26.7233 13.6201C26.7435 13.5407 26.682 13.5049 26.5965 13.5535C26.5111 13.6021 26.5111 13.6021 26.5145 13.4921C26.5179 13.3822 26.412 13.464 26.347 13.4921C26.2821 13.5203 26.118 13.643 26.0531 13.5766C25.9882 13.5101 25.9506 13.441 25.7489 13.5638C25.5472 13.6865 25.5951 13.5766 25.5985 13.5229C25.602 13.4692 25.6771 13.2568 25.4003 13.4845C25.1235 13.7122 25.3491 13.2389 25.1303 13.4C24.9115 13.5612 24.8877 13.5893 24.8535 13.5177C24.8193 13.446 24.7779 13.3873 24.5371 13.5407C24.2963 13.6942 24.4741 13.4486 24.5082 13.3949C24.5424 13.3412 24.645 12.9933 24.433 13.2645C24.433 13.2645 24.3305 13.4538 24.1015 13.1161C24.1015 13.1161 23.8588 13.4516 23.7973 13.303C23.7358 13.1545 23.6742 13.1392 23.5956 13.2364C23.517 13.3336 23.5751 13.2313 23.541 13.1494C23.5068 13.0675 23.4863 12.9166 23.083 13.2107C22.6797 13.5049 23.2231 13.2901 22.9155 13.4231C22.6079 13.5561 21.8662 13.9756 22.5464 13.8784C23.2266 13.7812 22.2148 14.1445 22.4507 14.211C22.6866 14.2775 22.6113 14.4821 23.4966 14.2391C24.3818 13.9961 24.2382 14.2007 24.6894 14.0063C25.1405 13.8119 24.5868 14.0729 25.1918 14.06C25.7968 14.0472 25.2943 14.0626 25.4106 14.188C25.5268 14.3133 26.0394 14.6101 26.5179 14.6587C26.9964 14.7073 27.1126 14.5282 26.9759 14.7354C26.8392 14.9426 26.7913 15.0219 26.7093 15.0935C26.6273 15.1652 26.4017 15.3289 26.3983 15.6154C26.3949 15.9019 26.0223 15.948 26.1591 16.2651C26.1592 16.2651 26.3711 16.0604 26.4838 15.9479Z" fill="#5A3719"/>
<path d="M27.2712 16.6372C27.2712 16.6372 27.1618 16.5605 27.1641 16.4241C27.1641 16.4241 27.2415 16.4377 27.2712 16.4872C27.2712 16.4872 27.5469 16.1751 27.2176 16.0626C26.8884 15.95 27.0523 15.6516 27.164 15.6498C27.2757 15.6481 27.2951 15.6174 27.2011 15.4929C27.1071 15.3684 27.1139 15.3633 27.3007 15.3309C27.4876 15.2985 27.4622 15.2593 27.3792 15.2133C27.2962 15.1672 27.2325 15.0922 27.2325 15.0922C27.2325 15.0922 27.761 14.862 27.5901 14.7562C27.4191 14.6505 27.5901 14.6778 27.7427 14.5686C27.8953 14.4595 27.9159 14.439 27.9387 14.3964C27.9387 14.3964 27.7878 14.4117 27.6764 14.3895C27.6764 14.3895 27.8083 14.3247 27.6764 14.2173C27.5445 14.1098 27.4898 14.0126 27.2802 14.062C27.0705 14.1115 27.1389 14.0416 27.2209 13.9546C27.303 13.8676 27.2642 13.8181 27.1161 13.796C27.1161 13.796 27.1344 13.7073 27.246 13.5964C27.246 13.5964 26.9612 13.6169 26.8655 13.5675C26.8655 13.5675 26.9794 13.489 26.9886 13.3952C26.9886 13.3952 26.8314 13.4464 26.6331 13.4276C26.6331 13.4276 26.7493 13.327 26.7493 13.2383C26.7493 13.2383 26.4053 13.315 26.2458 13.4361C26.2458 13.4361 26.2116 13.4293 26.1843 13.3918C26.1569 13.3543 26.1364 13.3167 25.7559 13.4378C25.7559 13.4378 25.7992 13.269 25.8903 13.2007C25.9815 13.1325 25.9678 12.9961 25.3753 13.3662C25.3753 13.3662 25.2956 13.3184 25.2295 13.141C25.2295 13.141 25.1019 13.3218 25.0039 13.3832C25.0039 13.3832 24.9219 13.4176 24.9322 13.3024C24.9424 13.1871 24.8741 13.2693 24.8125 13.3024C24.751 13.3355 24.71 13.4173 24.7408 13.1845C24.7716 12.9517 24.6588 12.9031 24.6588 12.9031C24.6588 12.9031 24.4742 13.1641 24.3682 13.1922C24.3682 13.1922 24.1734 13.0029 24.1051 12.8776C24.0367 12.7522 24.0367 12.7062 23.9683 12.9236C23.9 13.141 23.8146 13.1589 23.8146 13.1589C23.8146 13.1589 23.6983 13.0591 23.6847 13.0054C23.6847 13.0054 23.6641 13.0643 23.6266 13.0899C23.6266 13.0899 23.524 12.9696 23.5275 12.7957C23.5275 12.7957 22.8918 13.1461 22.8132 13.3585C22.8132 13.3585 22.2116 13.3227 21.9621 13.3687C21.9621 13.3687 22.0236 13.1743 22.1809 13.0771C22.1809 13.0771 22.0237 13.0593 22.0168 12.8981C22.0168 12.8981 22.1433 12.916 22.2219 12.8955C22.3005 12.8751 22.1125 12.6474 22.3108 12.6423C22.509 12.6372 22.6355 12.7369 22.5466 12.4734C22.4577 12.21 22.4988 12.21 22.4988 12.21C22.4988 12.21 22.8439 12.4146 22.8987 12.3634C22.9534 12.3123 22.8542 12.2023 23.1618 12.2535C23.4694 12.3046 23.384 12.1281 23.5036 12.1204C23.6232 12.1128 23.6881 12.1972 23.613 11.6395C23.5378 11.0819 23.9855 11.9158 23.6813 11.0742C23.6813 11.0742 23.6044 10.8197 23.4216 10.711C23.4216 10.711 23.3805 10.8952 23.1738 10.7327C22.967 10.5702 22.5603 10.5127 22.7311 10.3848C22.902 10.2569 22.9824 10.0855 22.9328 9.97807C22.9328 9.97807 22.7313 10.1887 22.3808 10.0382C22.104 9.91921 22.0459 10.138 21.7622 10.074C21.7622 10.074 21.7673 10.0011 22.0066 9.81307C22.2459 9.62503 21.8682 9.87577 21.7195 9.90901C21.5708 9.94225 21.5281 9.91543 21.8425 9.67237C22.157 9.42937 22.779 8.99959 22.6936 8.64655C22.6936 8.64655 22.8405 8.83327 23.2267 8.69774C23.613 8.5622 23.9001 8.51353 24.0163 8.31403C24.1325 8.11447 24.4367 7.91239 24.5153 7.86889C24.5939 7.82539 24.6999 7.79473 24.5802 7.98403C24.4606 8.17333 24.2658 8.49823 23.7326 8.71819C23.1994 8.93821 22.9944 9.09937 22.8987 9.21445C22.803 9.32959 22.3176 9.58795 22.6321 9.54445C22.9465 9.50095 23.4934 9.55213 23.2371 9.47791C22.9807 9.40375 22.6902 9.52393 22.926 9.30907C23.1618 9.09421 23.2029 9.02257 23.5446 8.87929C23.8864 8.73601 24.2658 8.40859 24.2282 8.75647C24.1906 9.10435 23.5549 9.47533 23.3977 9.58783C23.2405 9.70039 23.2986 9.68251 23.302 9.72853C23.3054 9.77455 23.278 9.86923 23.2131 9.91273C23.1482 9.95623 23.1687 10.0048 23.1858 10.102C23.2029 10.1992 23.1687 10.2376 23.2165 10.2529C23.2644 10.2682 23.3122 10.276 23.3259 10.345C23.3396 10.4141 23.3755 10.423 23.4678 10.4154C23.56 10.4077 23.6181 10.4166 23.625 10.4704C23.6318 10.5241 23.7189 10.597 23.7292 10.4333C23.7394 10.2696 23.7993 10.2376 23.6318 10.3131C23.4643 10.3885 23.4285 10.3617 23.4319 10.2837C23.4353 10.2057 23.4165 10.2235 23.3464 10.2171C23.2764 10.2107 23.2524 10.1122 23.3772 10.047C23.502 9.98179 23.5003 10.0483 23.6558 9.91909C23.8113 9.78991 23.8113 9.75409 23.8353 9.69397C23.8592 9.63385 23.6131 9.86923 23.4952 9.92293C23.3773 9.97663 23.408 9.88585 23.4285 9.75151C23.449 9.61717 23.743 9.44197 23.878 9.43939C24.013 9.43681 24.3172 9.51613 24.1856 9.70033C24.054 9.88453 23.6815 10.1032 23.8421 10.1199C24.0027 10.1365 24.0284 10.0738 24.1207 10.1557C24.213 10.2375 24.1275 10.4038 24.0848 10.4921C24.0421 10.5804 23.9532 10.6917 23.9139 10.7121C23.9139 10.7121 23.7447 10.4103 23.7499 10.6494C23.755 10.8886 23.714 10.9743 23.7499 10.9833C23.7858 10.9922 23.9737 11.1175 24.0336 11.1201C24.0934 11.1227 23.7088 11.3005 23.8695 11.312C24.0301 11.3235 24.2848 11.2417 24.3736 11.0754C24.3736 11.0754 24.0472 10.996 23.9157 10.8733C23.9157 10.8733 24.2968 10.7838 24.1908 10.4167C24.1908 10.4167 24.5702 10.5203 24.4062 10.6917C24.2421 10.8631 24.143 10.8375 24.2848 10.8861C24.4267 10.9347 24.4968 10.9756 24.4968 10.9756C24.4968 10.9756 24.5938 11.0242 24.5376 11.1035C24.4813 11.1828 24.4797 11.3031 24.5275 11.3005C24.5753 11.2979 24.736 11.2237 24.601 11.1419C24.466 11.0601 24.7548 11.0741 24.6318 11.005C24.5087 10.936 24.4762 10.9194 24.4438 10.8861C24.4113 10.8528 25.9887 9.92803 25.1923 10.2747C25.1923 10.2747 25.3581 9.91525 25.5904 9.91393C25.8228 9.91261 25.8399 10.0968 25.7083 10.2363C25.5768 10.3757 25.4913 10.5931 25.182 10.6443C25.182 10.6443 25.624 10.8609 25.1017 11.2147C25.1017 11.2147 24.9883 11.2684 25.0293 11.3077C25.0704 11.3469 25.3802 11.1712 25.4235 11.0724C25.4668 10.9734 25.5329 10.8967 25.6514 10.8387C25.7699 10.7808 26.3532 10.3834 26.5287 10.0832C26.7041 9.78301 26.752 9.77281 27.0937 9.49825C27.4355 9.22369 27.3763 9.27823 27.4196 9.21175C27.4629 9.14527 27.4811 9.03607 27.6384 8.94739C27.7956 8.85871 28.4062 8.51935 28.5976 8.38118C28.789 8.24306 29.181 7.98895 29.3496 7.77403C29.5182 7.55917 29.9722 7.28467 30.0855 7.33573C30.1989 7.38679 30.0741 7.54723 29.8075 7.75015C29.541 7.95307 28.8802 8.48689 28.7731 8.56873C28.666 8.65057 28.1055 9.05989 27.8958 9.08719C27.6862 9.11449 27.709 9.18781 27.5836 9.32425C27.4583 9.46069 27.1689 9.74719 27.0709 9.82567C26.973 9.90409 26.7405 10.0644 26.7269 10.177C26.7132 10.2895 26.7679 10.3032 26.5811 10.4788C26.3943 10.6545 25.8474 11.0518 25.6492 11.115C25.6492 11.115 26.0001 11.2309 25.7904 11.468C25.5808 11.7051 25.5945 11.6709 25.5785 11.6863C25.5785 11.6863 26.1113 11.6079 25.7334 12.0222C25.7334 12.0222 25.6605 12.1416 25.8291 12.0171C26.0094 11.884 25.9317 11.7016 25.9111 11.676C25.9111 11.676 26.1937 11.5003 26.5195 11.4952C26.8454 11.4901 26.834 11.4679 26.5423 11.3844C26.5423 11.3844 26.7497 11.1319 26.9251 11.2564C27.1006 11.3809 27.0436 11.4526 26.8591 11.5515C26.6745 11.6504 26.4011 11.6913 26.1983 11.8039C26.1983 11.8039 26.5834 11.8789 26.7907 11.722C26.9981 11.5651 27.0072 11.6436 27.0345 11.6709C27.0619 11.6982 27.0847 11.7493 26.9935 11.8806C26.9023 12.012 26.8932 12.0187 26.8978 12.0478C26.9023 12.0768 26.8909 12.1672 26.7041 12.1978C26.5173 12.2286 26.433 12.307 26.4967 12.3957C26.5605 12.4843 26.5628 12.7044 26.4033 12.6839C26.2438 12.6634 26.2871 12.5373 26.2256 12.4878C26.1641 12.4383 26.0775 12.3616 25.7995 12.5065C25.5215 12.6515 25.4987 12.4792 25.5124 12.3889C25.5124 12.3889 25.3324 12.5458 25.182 12.4008C25.0316 12.2559 25.1683 12.1996 25.2549 12.1263C25.3414 12.0529 25.6946 11.8995 25.4827 11.9267C25.2709 11.9539 24.9541 11.9676 24.8812 11.8039C24.8083 11.6402 25.0384 11.659 25.0749 11.6743C25.1113 11.6897 25.2617 11.8108 25.2663 11.6521C25.2708 11.4936 25.5055 11.4765 25.4257 11.4441C25.346 11.4117 25.2343 11.5123 25.2024 11.5515C25.2024 11.5515 25.0384 11.323 24.7741 11.398C24.5098 11.4731 24.8584 11.4424 24.929 11.4543C24.9996 11.4663 24.9586 11.5976 24.7216 11.8108C24.4846 12.024 24.5917 11.9592 24.7672 11.9592C24.9427 11.9592 25.3734 11.9608 25.1227 12.1655C24.872 12.3702 24.7718 12.4725 24.6419 12.4366C24.512 12.4008 24.6579 12.3156 24.7148 12.2797C24.7717 12.2439 24.8059 12.1808 24.6829 12.2269C24.5598 12.273 24.5166 12.2815 24.4186 12.1075C24.3206 11.9335 24.3616 11.9847 24.4026 11.8704C24.4437 11.7562 24.5394 11.6351 24.4254 11.6777C24.3115 11.7203 24.3229 11.7237 24.332 11.5924C24.3411 11.4611 24.2021 11.4321 24.2021 11.4321C24.2021 11.4321 24.2568 11.5635 24.2067 11.647C24.1566 11.7305 24.1543 11.7595 24.2363 11.7817C24.3183 11.8039 24.3958 11.8738 24.2841 11.9505C24.1725 12.0273 24.1861 12.0171 24.2568 12.0631C24.3274 12.1091 24.4299 12.162 24.3205 12.2694C24.2112 12.3768 24.3023 12.3445 24.357 12.3445C24.4117 12.3445 24.5355 12.3905 24.5374 12.4963C24.5393 12.602 24.5302 12.6276 24.7079 12.5287C24.8856 12.4297 25.2411 12.4417 25.2365 12.5799C25.2319 12.718 25.1909 12.7521 25.3801 12.6345C25.5693 12.5168 25.6535 12.7453 25.7834 12.6345C25.9133 12.5236 25.9953 12.4162 26.1457 12.6055C26.296 12.7948 26.2492 12.852 26.0659 12.9858C25.8827 13.1195 26.1548 13.0165 26.2938 12.9448C26.4328 12.8732 26.8224 12.8254 27.0457 12.9244C27.2691 13.0233 27.3328 13.0011 27.4969 12.9329C27.6609 12.8647 27.7452 12.8493 27.9936 13.0147C28.242 13.1802 28.4356 13.2109 28.5655 13.2075C28.5655 13.2075 28.2898 13.3149 27.9799 13.3354C27.67 13.3558 27.5151 13.4138 27.4536 13.4616C27.4536 13.4616 27.64 13.5741 27.6767 13.7122C27.6767 13.7122 27.8797 13.6849 27.98 13.7259C27.98 13.7259 27.9276 13.8725 28.0529 13.951C28.1782 14.0294 28.2648 14.0584 28.1714 14.1658C28.078 14.2733 28.315 14.2272 28.1805 14.379C28.0461 14.5308 28.0096 14.6076 28.0051 14.7303C28.0005 14.8531 28.0347 14.8719 27.9139 14.8838C27.7932 14.8957 27.9345 15.0304 27.8797 15.1908C27.8251 15.3511 27.4878 15.334 27.5015 15.7638C27.5015 15.7638 27.5949 15.554 27.7954 15.3698C27.996 15.1856 28.0028 15.1686 27.9982 15.0577C27.9937 14.9468 27.9846 14.9724 28.0917 14.8888C28.1988 14.8053 28.0438 14.7268 28.1509 14.6074C28.258 14.488 28.1646 14.5119 28.2899 14.3908C28.4152 14.2698 28.1805 14.2544 28.3081 14.1299C28.4358 14.0054 28.0005 13.8639 28.1259 13.7837C28.2512 13.7035 28.4676 13.5927 27.7385 13.6047C27.7385 13.6047 27.9139 13.3147 28.5292 13.3779C28.5292 13.3779 28.3674 13.4921 28.3537 13.6047C28.3537 13.6047 28.4244 13.6405 28.4677 13.6507C28.4677 13.6507 28.4439 13.7332 28.3264 13.8331C28.3264 13.8331 28.6523 14.0156 28.7047 14.1231C28.7047 14.1231 28.5064 14.1844 28.4563 14.2714C28.4563 14.2714 28.5429 14.3704 28.5726 14.4982C28.5726 14.4982 28.3515 14.4709 28.3219 14.6364C28.2923 14.8018 28.2262 14.6892 28.2262 14.7864C28.2262 14.8836 28.2331 14.9229 28.1556 14.9382C28.0782 14.9536 28.1419 15.0354 28.1556 15.09C28.1693 15.1446 28.1944 15.2691 28.183 15.3083C28.183 15.3083 28.0713 15.31 28.0189 15.3253C28.0189 15.3253 28.0531 15.5624 27.921 15.5965C27.7888 15.6306 27.9916 15.6783 27.8503 15.7039C27.709 15.7295 27.7273 15.738 27.5541 16.0485C27.5541 16.0485 27.7022 15.9649 27.8549 15.8643C28.0075 15.7636 27.8435 15.7944 28.0964 15.5454C28.3493 15.2964 28.3038 15.2776 28.2832 15.1514C28.2627 15.0252 28.2582 14.9229 28.3493 14.8035C28.4404 14.6841 28.4701 14.5477 28.7936 14.5648C28.7936 14.5648 28.6979 14.3495 28.5794 14.2935C28.5794 14.2935 28.7343 14.1862 28.8984 14.1709C28.8984 14.1709 28.7548 13.9986 28.461 13.8315C28.461 13.8315 28.7025 13.6234 28.7595 13.5246C28.7595 13.5246 28.6478 13.5416 28.5589 13.5211C28.5589 13.5211 28.6008 13.4216 28.8187 13.279C28.8187 13.279 28.9349 13.3915 28.9303 13.5092C28.9303 13.5092 29.304 13.2943 29.5159 13.3182C29.5159 13.3182 29.623 13.5877 29.1035 14.0925C29.1035 14.0925 29.4248 14.1232 29.5615 14.1044C29.5615 14.1044 29.484 14.3534 29.0944 14.5C28.7047 14.6467 29.1786 14.8181 28.7799 14.7883C28.3812 14.7585 28.5042 14.8957 28.5156 15.0987C28.527 15.3016 28.5407 15.5097 28.5316 15.5659C28.5316 15.5659 28.2126 15.4619 28.2194 15.7706C28.2262 16.0793 28.0554 16.1441 28.0212 16.1731C28.0212 16.1731 27.9286 16.0903 27.7887 16.0417C27.7884 16.042 27.5905 16.4178 27.2712 16.6372Z" fill="#5A3719"/>
<path d="M26.8154 12.7677C26.8154 12.7677 26.9248 12.7499 27.1093 12.8649C27.2939 12.98 27.475 12.7422 27.27 12.6807C27.0649 12.6193 27.2734 12.5477 27.4579 12.6961C27.6425 12.8445 27.7143 12.7703 27.7827 12.7191C27.8511 12.668 27.933 12.6398 27.8066 12.5529C27.6801 12.4659 27.892 12.5069 27.9877 12.5682C28.0834 12.6296 28.0458 12.6936 28.0322 12.7115C28.0186 12.7295 28.0083 12.929 28.1962 12.7422C28.3842 12.5555 28.4765 12.3687 28.4731 12.2766C28.4731 12.2766 28.5756 12.3406 28.5893 12.4583C28.603 12.5759 28.7465 12.3943 28.7944 12.3303C28.8422 12.2664 28.9243 12.105 28.914 11.9836C28.914 11.9836 29.0405 12.1792 29.2285 11.9836C29.4165 11.788 29.3344 11.9108 29.56 11.852C29.7856 11.7931 30.0693 11.6268 30.2231 11.4401C30.3769 11.2534 30.3871 11.3787 30.5854 11.3327C30.7836 11.2866 31.1835 11.0103 31.2211 10.8594C31.2587 10.7085 31.2519 10.6164 31.1937 10.6675C31.1356 10.7186 31.1595 10.6778 31.0741 10.624C30.9886 10.5703 30.8622 10.6931 30.8622 10.6931C30.8622 10.6931 30.9886 10.7903 30.8929 10.8312C30.7972 10.8721 30.705 11.0077 30.5238 10.9565C30.3427 10.9053 30.1547 11.1228 30.1547 11.1228C30.1547 11.1228 30.3119 11.2532 30.1 11.3351C29.8881 11.417 29.9223 11.4451 29.7924 11.3556C29.7924 11.3556 29.5668 11.6421 29.437 11.7009C29.437 11.7009 29.3755 11.6958 29.3344 11.6421C29.3344 11.6421 29.1875 11.8083 29.1123 11.8416C29.1123 11.8416 29.02 11.7521 28.9345 11.724C28.9345 11.724 28.7568 11.944 28.6064 12.0131C28.6064 12.0131 28.5619 11.9312 28.4662 11.8749C28.4662 11.8749 28.419 12.1627 28.104 12.3329C28.104 12.3329 28.1245 12.2561 27.9672 12.1512C27.9672 12.1512 27.5776 12.4889 27.4238 12.5222C27.27 12.5554 27.4135 12.4505 27.4341 12.407C27.4546 12.3635 27.5503 12.2203 27.3623 12.1614C27.1743 12.1026 27.2051 12.2024 27.1641 12.2203C27.123 12.2382 27.1196 12.1871 26.9932 12.2049C26.8667 12.2228 26.8872 12.2791 26.8326 12.2996C26.7779 12.3201 26.5591 12.2638 26.5694 12.4096C26.5797 12.5554 26.6822 12.6552 26.4908 12.7396C26.2993 12.824 26.5625 12.8061 26.8154 12.7677Z" fill="#7B3C20"/>
<path d="M27.6048 12.3562C27.6048 12.3562 27.6493 12.172 27.4886 12.0825C27.4886 12.0825 28.5208 11.9239 27.7415 11.53C27.7415 11.53 28.6677 11.3381 28.449 11.0414C28.2302 10.7446 28.0176 10.8112 27.9855 10.8163C27.9534 10.8214 28.1824 10.6449 28.2439 10.6679C28.3054 10.6909 29.0506 10.9774 28.8592 10.7319C28.6678 10.4863 28.6849 10.5016 28.6541 10.43C28.6541 10.43 28.9001 10.43 29.2727 10.7932C29.2727 10.7932 29.3513 10.7114 29.3411 10.563C29.3411 10.563 29.6077 10.6372 29.6897 10.7165C29.6897 10.7165 29.7341 10.6244 29.717 10.5732C29.717 10.5732 29.9461 10.696 30.0247 10.8265C30.0247 10.8265 30.1306 10.7344 30.1477 10.6295C30.1477 10.6295 30.3767 10.7242 30.4348 10.7958C30.4348 10.7958 30.51 10.696 30.4826 10.5528C30.4826 10.5528 30.862 10.6653 30.9133 10.43C30.9133 10.43 31.2949 10.5127 31.0469 10.6613C30.7281 10.8523 31.0147 10.6142 30.6877 10.8418C30.4341 11.0184 30.2923 11.2255 30.1704 11.1829C30.0808 11.1516 29.9733 11.4123 29.8502 11.2844C29.7272 11.1565 29.7272 11.2153 29.6417 11.3484C29.5563 11.4814 29.423 11.617 29.423 11.617C29.423 11.617 29.3564 11.5786 29.306 11.5275C29.306 11.5275 29.2316 11.6502 29.1359 11.7423C29.1359 11.7423 29.0607 11.6425 28.9411 11.5812C28.9411 11.5812 28.7531 11.7986 28.6369 11.8728C28.6369 11.8728 28.5275 11.7653 28.4113 11.7295C28.4113 11.7295 28.3942 12.0237 28.1652 12.1746C28.1652 12.1746 28.1174 12.0774 27.9704 12.0186C27.9705 12.0186 27.8543 12.2046 27.6048 12.3562Z" fill="#5A3719"/>
<path d="M27.062 11.9056C27.062 11.9056 26.9366 12.002 27.0175 12.1052C27.0984 12.2083 27.1029 12.0873 27.2055 12.0771C27.308 12.0668 28.5726 11.8494 27.4277 11.5066C27.4277 11.5066 27.4755 11.4631 27.6737 11.4452C27.872 11.4273 28.5897 11.2329 28.2548 10.9771C27.9198 10.7212 27.6413 11.064 27.9232 10.7571C28.1488 10.5115 27.9677 10.3912 27.9677 10.3912C27.9677 10.3912 27.3012 10.8364 27.1542 10.9182C27.0073 11.0001 26.7954 11.1561 27.0449 11.238C27.2943 11.3198 27.4653 10.9668 27.4892 11.0461C27.5131 11.1254 26.9867 11.417 27.062 11.5526C27.1371 11.6882 27.12 11.8008 27.2499 11.7751C27.3798 11.7496 27.7319 11.8417 27.4448 11.8314C27.1577 11.8212 27.062 11.9056 27.062 11.9056Z" fill="#5A3719"/>
<path d="M27.5198 11.2689C27.5198 11.2689 27.4036 11.3505 27.5574 11.3096C27.7112 11.2687 28.0188 11.2022 27.9608 11.1229C27.9026 11.0436 27.6975 11.1386 27.5198 11.2689Z" fill="black"/>
<path d="M29.5497 9.94902C29.5497 9.94902 30.1376 9.93366 30.3802 10.0974C30.6229 10.2611 30.7391 10.3685 30.8108 10.3916C30.8108 10.3916 30.8006 10.6141 30.4246 10.4555C30.4246 10.4555 30.4451 10.563 30.4041 10.6679C30.4041 10.6679 30.2639 10.5758 30.1033 10.5349C30.1033 10.5349 30.076 10.6193 30.0247 10.6679C30.0247 10.6679 29.8573 10.499 29.6693 10.4479C29.6693 10.4479 29.6317 10.5323 29.5975 10.563C29.5975 10.563 29.3959 10.4479 29.2421 10.4504C29.2421 10.4504 29.2729 10.5733 29.2421 10.6219C29.2421 10.6219 28.8148 10.2868 28.4354 10.3303C28.4354 10.3303 28.62 10.5989 28.7396 10.7319C28.7396 10.7319 27.9706 10.6705 28.0971 10.2561C28.2236 9.84168 28.0868 9.94578 28.5893 9.94872C29.0917 9.95166 29.5497 9.94902 29.5497 9.94902Z" fill="#7B3C20"/>
<path d="M25.9436 11.0937C25.9436 11.0937 25.8548 11.1661 25.9436 11.2276C26.0325 11.2889 26.3367 11.069 26.3777 11.0383C26.4187 11.0075 26.528 11.0127 26.3777 11.1253C26.2273 11.2378 26.0735 11.3606 25.9778 11.4834C25.9778 11.4834 26.4871 11.3453 26.8186 11.0588C27.1501 10.7723 26.8031 10.9579 27.3688 10.6853C27.9345 10.4127 28.2301 9.97411 27.9259 10.0202C27.6217 10.0662 27.3483 10.4141 27.1125 10.5472C26.8767 10.6802 26.7434 10.6981 26.7809 10.6213C26.8186 10.5446 26.9929 10.5753 27.3175 10.3144C27.6422 10.0534 27.5704 10.0714 27.5738 9.97927C27.5773 9.88717 27.4508 9.65953 27.9395 9.40369C28.4283 9.14785 29.9492 8.25763 30.0791 7.95325C30.0791 7.95325 29.6348 8.00185 29.0503 8.43415C28.4659 8.86645 28.153 9.06859 27.9916 9.12229C27.8302 9.17599 27.8507 9.14017 27.7447 9.26557C27.6388 9.39091 27.0611 9.94861 26.9552 10.0304C26.8492 10.1123 26.8184 10.166 26.8094 10.3329C26.8054 10.4089 26.1453 10.9061 25.9436 11.0937Z" fill="#5A3719"/>
<path d="M27.9537 9.93464C27.9537 9.93464 27.8409 9.98702 27.7315 9.93464C27.6221 9.88226 27.6563 9.64688 27.9195 9.50618C28.1827 9.36548 28.6612 9.15572 28.9039 9.125C28.9039 9.125 28.8697 9.42944 28.1143 9.68522C28.1143 9.68522 28.1622 9.84374 27.9537 9.93464Z" fill="#5A3719"/>
<path d="M28.2205 9.73676C28.2205 9.73676 28.2425 9.81164 28.2205 9.88004C28.2205 9.88004 29.6252 10.0156 30.3499 9.16118C30.3499 9.16118 29.3552 9.25328 28.9588 9.49118C28.9588 9.49118 29.2083 9.17906 29.9534 8.9207C30.6985 8.66234 31.0027 8.34254 31.0676 8.16608C31.0676 8.16608 30.1253 8.49608 29.6766 8.49608C29.6766 8.49608 29.5877 8.4935 29.5023 8.5421C29.4169 8.5907 28.8153 9.02816 28.6547 9.10232C28.6547 9.10232 28.993 9.07418 29.1127 8.9642C29.1126 8.9642 28.8775 9.59654 28.2205 9.73676Z" fill="#AA5323"/>
<path d="M25.531 10.5394C25.531 10.5394 25.3498 10.6673 25.425 10.7313C25.5002 10.7952 25.6297 10.808 25.905 10.5778C26.1803 10.3476 26.8468 9.77452 26.4257 9.75154C26.4257 9.75154 25.8864 9.7183 25.905 10.0483C25.9238 10.3815 25.558 10.5185 25.531 10.5394ZM24.2869 10.3449C24.2869 10.3449 24.6423 10.5521 24.509 10.7235C24.509 10.7235 25.5994 9.7975 25.2917 9.59794C24.9841 9.39838 24.7415 9.77446 24.8167 9.8128C24.8918 9.8512 25.0525 9.77956 24.9944 9.8512C24.9363 9.92284 24.3553 10.3143 24.2869 10.3449ZM24.0032 10.0457C24.0032 10.0457 24.2424 10.1173 24.2527 10.2196C24.2629 10.3219 24.9738 9.71818 24.7858 9.46498C24.6996 9.34888 24.3039 9.30124 24.2868 9.52894C24.2697 9.75664 24.6422 9.5059 24.5124 9.66964C24.3421 9.88432 24.0545 10.0098 24.0032 10.0457ZM26.5617 9.54118C26.5617 9.54118 26.4094 9.6517 26.5461 9.71824C26.6828 9.78478 26.7717 9.67984 26.84 9.61846C26.9084 9.55708 27.2468 9.30892 27.3254 9.15034C27.404 8.99176 27.5202 8.94316 27.6433 8.86126C27.7663 8.77942 28.6345 8.34706 29.1676 7.86868C29.7008 7.3903 29.4787 7.51312 30.0323 7.2061C30.586 6.89914 30.9483 6.61774 31.0645 6.28516C31.0645 6.28516 30.8082 6.36958 30.5826 6.51538C30.357 6.66118 29.8478 6.98098 29.7452 7.02442C29.6427 7.06786 29.4992 7.0756 29.4239 7.15486C29.3488 7.23418 29.3556 7.3288 29.089 7.54882C28.8224 7.76884 27.445 8.7409 27.2775 8.87902C27.11 9.01732 26.5617 9.54118 26.5617 9.54118Z" fill="#5A3719"/>
<path d="M25.4532 9.86324C25.4532 9.86324 25.6035 9.78032 25.8861 9.79964C26.1686 9.8189 27.2851 8.7377 27.6087 8.51942C27.9323 8.30114 28.9439 7.57118 29.0807 7.43816C29.2174 7.30514 29.2401 7.16186 29.3586 7.08344C29.4771 7.00502 29.5865 7.01522 29.8599 6.85832C30.1333 6.70142 31.4458 5.91692 31.3683 5.4599C31.3683 5.4599 29.4133 6.6332 28.9621 7.01522C28.511 7.39724 27.2578 8.26358 27.0345 8.40344C26.8111 8.5433 26.6334 8.78546 26.2598 9.089C25.8861 9.39254 25.517 9.64832 25.4532 9.86324Z" fill="#AA5323"/>
<path d="M25.0432 9.44738C25.0432 9.44738 25.405 9.41036 25.4533 9.58724C25.4533 9.58724 26.2281 9.05516 26.4058 8.83688C26.5835 8.6186 26.3466 8.74478 26.7886 8.45486C27.2306 8.16494 28.698 7.13828 28.9077 6.95408C29.1173 6.76988 29.5138 6.52772 29.8327 6.31286C30.1518 6.098 31.4004 5.48744 31.2591 4.98602C31.2591 4.98602 30.3432 5.59994 30.1381 5.73302C29.933 5.86604 29.8464 5.79098 29.6368 5.95472C29.4271 6.11846 28.9669 6.44588 28.8849 6.54818C28.8028 6.65048 28.101 7.1894 27.7593 7.41794C27.4175 7.64648 26.6519 8.08988 26.2827 8.41052C25.9135 8.7311 25.1981 9.32462 25.0432 9.44738Z" fill="#AA5323"/>
<path d="M23.9158 9.34258C23.9158 9.34258 24.0988 9.34522 24.1535 9.41686C24.1535 9.41686 24.4919 9.12004 24.8519 9.41338C24.8519 9.41338 26.1734 8.51974 26.3056 8.29462C26.4378 8.0695 26.6519 8.06608 27.1669 7.6909C27.6819 7.31572 28.0054 7.15882 28.3472 6.89278C28.689 6.62674 28.9761 6.32656 29.2222 6.1663C29.4683 6.00598 30.0881 5.60008 29.9833 5.24878C29.9833 5.24878 29.482 5.53528 29.1539 5.89342C28.8258 6.25156 28.8531 5.9446 28.5205 6.24472C28.1878 6.5449 27.6728 6.95416 27.2444 7.16566C26.816 7.37716 27.0758 7.35328 26.7659 7.5511C26.456 7.74892 26.4788 7.71826 26.3649 7.7455C26.251 7.7728 26.0778 7.85464 25.9639 7.98766C25.8499 8.12068 25.5446 8.30146 25.2119 8.48908C24.8792 8.67664 24.0613 9.16354 23.9158 9.34258Z" fill="#AA5323"/>
<path d="M24.3135 8.65669C24.3135 8.65669 24.2417 8.50831 24.3681 8.40343C24.4946 8.29855 24.7236 8.02225 24.7612 7.84831C24.7988 7.67437 24.7714 7.70251 25.1371 7.55155C25.5028 7.40065 26.3334 7.01179 26.8017 6.72271C27.2699 6.43363 27.9808 5.96809 28.1278 5.85553C28.2747 5.74297 28.6314 5.49229 28.776 5.37463C28.776 5.37463 28.8455 5.57161 28.6883 5.70721C28.5311 5.84281 27.9261 6.26743 27.827 6.33397C27.7279 6.40051 27.1708 6.77395 26.9999 6.86863C26.829 6.96331 26.4052 7.17817 26.2548 7.30351C26.1045 7.42885 26.1238 7.46725 25.4527 7.79467C24.7817 8.12209 24.7509 8.15539 24.7714 8.18095C24.792 8.20651 25.0927 8.07607 25.2363 7.99165C25.3798 7.90723 25.9301 7.65655 26.0941 7.52605C26.2582 7.39561 26.535 7.19095 26.6547 7.12441C26.7743 7.05787 27.7654 6.46441 28.0491 6.25465C28.3328 6.04489 28.4114 5.97583 28.473 6.01165C28.5345 6.04747 28.6336 6.05005 28.5072 6.17023C28.3807 6.29047 27.9774 6.64351 27.8236 6.74581C27.6698 6.84811 27.1879 7.13467 27.0546 7.20373C26.9212 7.27279 26.87 7.40071 26.7948 7.45441C26.7196 7.50811 26.5009 7.66417 26.2343 7.72555C25.9677 7.78693 25.9198 7.98649 25.7455 8.09905C25.5712 8.21161 24.3308 8.87929 24.2932 8.91253C24.2932 8.91253 24.3682 8.83573 24.3135 8.65669Z" fill="#AA5323"/>
<path d="M28.6062 5.87116C28.6062 5.87116 28.5379 5.9317 28.5755 5.96584C28.6251 6.01084 28.7976 6.1321 29.0129 5.9185C29.2283 5.7049 29.8067 5.2393 29.9943 5.12932C30.1818 5.01934 30.2707 4.91446 30.2639 4.7635C30.2639 4.7635 29.3753 5.23678 28.6062 5.87116ZM29.8298 5.78932C29.8298 5.78932 29.9665 5.56162 30.3015 5.34676C30.6364 5.1319 31.1393 4.81906 31.2072 4.74304C31.2072 4.74304 31.3268 4.87864 31.0636 5.0449C30.8005 5.21116 30.2878 5.55142 30.2263 5.60002C30.1648 5.64862 30.0623 5.72278 29.8298 5.78932Z" fill="#AA5323"/>
<path d="M23.0185 8.26769C23.0185 8.26769 22.6459 8.46725 22.7792 8.59259C22.9126 8.71793 23.1108 8.67959 23.1928 8.64377C23.2748 8.60795 23.432 8.56961 23.456 8.56193C23.4799 8.55425 23.8046 8.46215 23.8866 8.31125C23.9686 8.16035 24.1874 7.98635 24.3617 7.86101C24.536 7.73567 24.5975 7.61033 24.5736 7.52081C24.5735 7.52075 23.1064 8.21381 23.0185 8.26769ZM20.8037 9.98933C20.8037 9.98933 21.0611 9.83627 21.4223 9.93305C21.4223 9.93305 21.4052 9.84503 21.3506 9.79949C21.3506 9.79949 21.788 9.68489 21.8837 9.49049C21.9794 9.29609 22 9.33701 22.0854 9.28073C22.1708 9.22445 22.7621 8.74865 22.6938 8.64629C22.6255 8.54393 22.6118 8.41097 22.5605 8.35721C22.5605 8.35721 22.4374 8.52605 21.8632 8.80487C21.289 9.08369 20.6499 9.29345 20.1851 9.92021C19.7203 10.547 19.7681 10.9102 20.3354 11.0688C20.3354 11.0688 20.7353 10.8181 21.7094 10.9051C22.6835 10.9921 23.015 11.3578 23.0766 11.4244C23.1381 11.4909 23.3363 11.7313 23.1449 12.1381C23.1449 12.1381 23.3398 12.2225 23.3569 12.0358C23.374 11.849 23.3842 11.8925 23.4286 11.9206C23.4731 11.9488 23.5277 11.9539 23.5072 11.8106C23.4867 11.6674 23.4184 11.3476 23.3295 11.2376C23.2406 11.1277 23.3398 11.1763 23.3978 11.1992C23.4559 11.2223 23.661 11.3885 23.538 11.0816C23.4149 10.7746 23.3842 10.9255 23.3808 10.9409C23.3774 10.9562 23.3534 11.033 23.0869 10.8334C22.8203 10.6339 22.5776 10.5367 22.3964 10.4855C22.2153 10.4344 22.3418 10.4344 22.4477 10.396C22.5536 10.3576 22.6972 10.3346 22.745 10.217C22.745 10.217 22.6391 10.2425 22.4443 10.1735C22.2494 10.1044 21.8598 10.0967 21.5453 10.3321C21.5453 10.3321 21.6445 9.96881 21.3574 9.98927C21.0703 10.0097 20.8686 10.0021 20.5644 10.2425C20.5644 10.2425 20.5473 9.87671 20.8344 9.68741C21.1215 9.49811 21.0839 9.61325 21.2446 9.56465C21.4052 9.51605 21.4189 9.35489 21.3505 9.30371C21.3505 9.30371 21.7265 9.36767 22.3588 8.84327C22.3588 8.84327 22.019 9.28841 21.6061 9.37793C21.6061 9.37793 21.5407 9.61487 21.1659 9.66701C20.7911 9.71915 20.8003 9.93563 20.8037 9.98933Z" fill="#7B3C20"/>
<path d="M19.7241 12.1576C19.7241 12.1576 19.9086 11.0553 20.9409 10.9755C21.8454 10.9056 22.1325 11.0181 22.3126 11.0761C22.4927 11.1341 22.9323 11.2637 22.7615 11.4053C22.5906 11.5468 22.4926 11.5212 22.4926 11.5212C22.4926 11.5212 22.6908 11.3012 22.5108 11.2637C22.3308 11.2262 22.3149 11.3354 22.2898 11.4275C22.2647 11.5196 22.2533 11.6304 22.1645 11.702C22.1645 11.702 22.0733 11.5963 21.9434 11.6884C21.8135 11.7805 21.9252 11.7839 21.9776 11.7686C22.03 11.7532 22.0984 11.7259 22.0847 11.8061C22.071 11.8862 21.9981 12.0243 21.7839 12.1369C21.5697 12.2495 21.5811 12.2426 21.326 12.2835C21.0708 12.3245 20.8338 12.4251 20.508 12.7048C20.1821 12.9845 19.8255 12.8912 19.7538 12.5786C19.6923 12.3106 19.7241 12.1576 19.7241 12.1576Z" fill="#5A3719"/>
<path d="M20.9055 12.1232C20.9055 12.1232 21.0047 11.9057 20.8269 11.8059C20.8269 11.8059 20.2835 11.8991 20.1228 11.7343C20.1228 11.7343 20.7141 11.7036 21.0798 11.5604C21.4455 11.4171 21.3362 11.3174 21.2097 11.2943C21.0833 11.2713 20.8509 11.3276 20.8269 11.4427C20.8269 11.4427 20.7552 11.3199 20.8475 11.238C20.9397 11.1561 21.0833 11.1408 21.2132 11.1792C21.3431 11.2176 21.4592 11.2739 21.8865 11.0513C21.8865 11.0513 22.1325 11.1075 22.1394 11.2738C22.1462 11.4401 22.1223 11.5091 22.1018 11.5347C22.0812 11.5603 22.0505 11.6089 21.9992 11.6038C21.948 11.5987 21.883 11.5859 21.8181 11.701C21.7532 11.8161 21.7142 11.9159 21.6055 11.9926C21.6055 11.9926 21.7326 11.6345 21.4182 11.55C21.4182 11.55 21.1584 11.7035 20.9602 11.7112C20.9602 11.7113 21.2132 11.9466 20.9055 12.1232Z" fill="black"/>
<path d="M21.4729 11.4658C21.4729 11.4658 21.3533 11.3341 21.5105 11.32C21.6677 11.306 21.8762 11.4211 21.8353 11.5183C21.7942 11.6155 21.6097 11.6116 21.4729 11.4658Z" fill="#5A3719"/>
<path d="M21.7487 11.3069C21.7487 11.3069 21.8854 11.3478 21.9196 11.4438C21.9537 11.5397 22.0392 11.4016 22.0358 11.3581C22.0324 11.3146 21.9486 11.1228 21.7999 11.2123C21.6513 11.3018 21.7258 11.2986 21.7487 11.3069Z" fill="#5A3719"/>
<path d="M21.3672 13.2026C21.3672 13.2026 21.659 13.0654 21.9038 13.0824C21.9038 13.0824 21.8081 12.737 21.979 12.7959C22.1499 12.8547 22.102 12.8317 22.1362 12.8291C22.1362 12.8291 22.1464 12.6014 22.102 12.5119C22.102 12.5119 22.2763 12.5528 22.454 12.5554C22.454 12.5554 22.2865 12.228 22.4711 12.0029C22.4711 12.0029 22.5724 12.2177 22.8003 12.2715C22.8003 12.2715 22.8014 12.1794 22.8003 12.0822C22.8003 12.0822 22.9359 12.0668 23.0419 12.1231C23.1478 12.1794 23.2367 11.5296 22.9222 11.3864C22.9222 11.3864 22.8471 11.5091 22.5531 11.5706C22.2592 11.6319 22.2616 11.691 22.1407 11.9122C22.0199 12.1334 21.914 12.1359 21.6679 12.2945C21.4218 12.4531 21.2722 12.7754 21.2581 12.8036C21.2583 12.8036 21.3877 12.9621 21.3672 13.2026Z" fill="#7B3C20"/>
<path d="M18.8686 15.539C18.8686 15.539 18.8485 15.0649 19.0877 14.8244C19.3269 14.5839 20.489 13.3746 20.6667 13.0366C20.6667 13.0366 20.8171 13.1411 20.8239 13.333C20.8239 13.333 21.0187 12.9975 21.1725 12.871C21.1725 12.871 21.3092 13.0107 21.2853 13.2895C21.2853 13.2895 21.5656 13.1411 21.9997 13.1386C21.9997 13.1386 21.839 13.3279 21.8322 13.4379C21.8322 13.4379 22.4338 13.3713 22.7482 13.4225C22.7482 13.4225 21.9211 13.8855 22.1534 13.9264C22.3858 13.9674 22.6285 13.9239 22.6285 13.9239C22.6285 13.9239 22.3654 14.1925 21.9449 14.2462C21.9449 14.2462 22.4781 14.2385 22.5841 14.3587C22.5841 14.3587 22.0645 14.4381 21.6476 14.7552C21.6476 14.7552 21.6086 14.7373 21.6059 14.6196C21.6059 14.6196 21.5929 14.7245 21.4733 14.8243C21.3536 14.9241 21.0665 15.1364 20.9606 15.2438C20.8546 15.3513 20.6564 15.5635 20.4445 15.5533C20.4445 15.5533 20.4923 15.3896 20.3351 15.3385C20.1779 15.2873 19.9967 15.3231 19.8703 15.4587C19.8703 15.4587 19.3097 15.4664 19.132 15.492C19.132 15.492 19.2585 15.2899 19.3747 15.295C19.4909 15.3001 19.9591 15.364 20.0001 15.0443C20.0411 14.7246 19.6993 14.809 19.8292 14.6197C19.9591 14.4304 19.9283 14.4381 19.9318 14.4201C19.9318 14.4201 19.8258 14.479 19.7643 14.6478C19.7028 14.8167 19.6583 14.9471 19.4362 15.1159C19.214 15.2848 19.122 15.387 19.0605 15.5047C19.0606 15.5048 18.9593 15.5189 18.8686 15.539Z" fill="white"/>
<path d="M19.4078 15.2524C19.4078 15.2524 19.426 15.1876 19.5901 15.1603C19.7541 15.133 19.761 15.0546 19.7404 15.0205C19.7199 14.9863 19.6219 14.9864 19.7815 14.8056C19.7815 14.8056 19.8384 14.821 19.8772 14.8653C19.9159 14.9096 20.0959 15.2951 19.4078 15.2524Z" fill="white"/>
<path d="M19.0137 14.9176C19.0222 15.2335 19.4362 15.1162 19.4362 15.1162C19.2887 15.2283 19.1986 15.311 19.1366 15.3884C19.164 15.2349 18.9032 15.1965 18.9032 15.1965C18.9246 15.1027 18.959 15.0034 19.0137 14.9176ZM20.5359 13.2294C20.5959 13.1509 20.6413 13.085 20.6667 13.0367C20.6667 13.0367 20.817 13.1412 20.8239 13.3331C20.8239 13.3331 21.0187 12.9976 21.1725 12.8712C21.1725 12.8712 21.3092 13.0108 21.2853 13.2896C21.2853 13.2896 21.5655 13.1412 21.9996 13.1387C21.9996 13.1387 21.839 13.328 21.8321 13.438C21.8321 13.438 22.4337 13.3714 22.7481 13.4226C22.7481 13.4226 21.921 13.8856 22.1534 13.9266C22.3858 13.9675 22.6284 13.924 22.6284 13.924C22.6284 13.924 22.3653 14.1926 21.9449 14.2463C21.9449 14.2463 22.478 14.2386 22.584 14.3589C22.584 14.3589 22.4322 14.382 22.2269 14.4534C22.2269 14.4534 22.0736 14.3094 21.6293 14.3299C21.6293 14.3299 21.9749 14.1365 22.249 14.074C22.249 14.074 22.1282 13.9155 21.9391 14.0604C21.9391 14.0604 21.5632 13.8012 21.8731 13.5812C21.8731 13.5812 21.6543 13.5352 21.5108 13.6375C21.5108 13.6375 21.5176 13.4601 21.6771 13.38C21.6771 13.38 21.2555 13.3117 21.1508 13.6221C21.1508 13.6221 21.071 13.4942 21.1075 13.3492C21.1075 13.3492 20.8523 13.496 20.736 13.6623C20.7362 13.6623 20.6977 13.347 20.5359 13.2294ZM19.719 15.2343C19.6433 15.2529 19.542 15.2609 19.4078 15.2526C19.4078 15.2526 19.4193 15.2117 19.5061 15.1812C19.5061 15.1812 19.531 15.2331 19.719 15.2343Z" fill="#999999"/>
<path d="M20.4852 14.0392C20.4852 14.0392 20.6766 14.1901 20.7449 14.2822C20.7449 14.2822 20.9192 14.1593 20.9842 14.0596C20.9842 14.0596 21.1209 14.1491 21.1687 14.2822C21.1687 14.2822 21.2644 14.2156 21.2849 14.1236C21.2849 14.1236 21.5263 14.1748 21.6055 14.254C21.6055 14.254 21.6424 14.0212 21.6055 13.8754C21.6055 13.8754 21.7737 13.8882 21.8762 13.9317C21.8762 13.9317 21.7809 13.7782 22.2677 13.5812C22.2677 13.5812 21.8996 13.6603 21.76 13.8217C21.76 13.8217 21.6028 13.8294 21.5344 13.7808C21.5344 13.7808 21.5447 14.0161 21.5378 14.1287C21.5378 14.1287 21.443 14.0903 21.258 14.0468C21.258 14.0468 21.2132 14.1236 21.1824 14.1415C21.1824 14.1415 21.0662 14.0494 21.0149 13.9317C21.0149 13.9317 20.8372 14.0932 20.7689 14.1619C20.7689 14.1619 20.6014 14.0443 20.4852 14.0392Z" fill="black"/>
<path d="M19.3849 16.4338C19.3849 16.4338 19.4601 16.4696 19.6378 16.3263C19.8155 16.183 20.3179 15.8633 20.3658 15.6075C20.4136 15.3516 20.2051 15.3363 20.041 15.4105C19.877 15.4846 19.9453 15.6279 19.9522 15.6739C19.959 15.72 19.9624 15.8991 19.6959 16.1472C19.4293 16.3954 19.3849 16.4338 19.3849 16.4338Z" fill="#FFC221"/>
<path d="M19.3269 16.5155C19.3269 16.5155 18.9236 16.3466 19.2859 16.165C19.6482 15.9834 19.8089 15.9348 19.8498 15.7838C19.8909 15.6329 19.8669 15.6585 19.7336 15.7224C19.6003 15.7864 19.0877 16.0166 19.0091 15.8018C19.0091 15.8018 19.221 15.8836 19.4841 15.7557C19.7473 15.6279 19.9626 15.5895 19.7952 15.5357C19.6277 15.482 19.0227 15.5485 18.9236 15.5766C18.8245 15.6048 18.8484 15.5997 18.8313 15.6994C18.8142 15.7992 18.7014 16.0089 18.6605 16.0703C18.6194 16.1317 18.5203 16.3875 18.7049 16.5001C18.8894 16.6127 19.182 16.6049 19.3269 16.5155Z" fill="#FFC221"/>
<path d="M19.1699 15.6355C19.1699 15.6355 19.0775 15.6483 19.0946 15.6841C19.1117 15.7199 19.1358 15.7148 19.1699 15.7174C19.204 15.7199 19.2553 15.6995 19.2621 15.6764C19.2689 15.6535 19.2042 15.6279 19.1699 15.6355Z" fill="black"/>
<path d="M19.3029 16.4258C19.3029 16.4258 19.1115 16.3337 19.3269 16.2161C19.5422 16.0984 19.7746 15.9859 19.8054 15.9373C19.8054 15.9372 19.7028 16.083 19.3029 16.4258Z" fill="white"/>
</g>
<defs>
<clipPath id="clip0_1_12988">
<rect y="0.0010376" width="30" height="30" rx="15" fill="white"/>
</clipPath>
</defs>
</svg>
