<svg width="30" height="30" viewBox="0 0 30 30" fill="none" xmlns="http://www.w3.org/2000/svg">
<path d="M15.0069 30C21.059 30 26.274 26.4121 28.6414 21.2532H1.37238C3.73285 26.4121 8.94789 30 15.0069 30Z" fill="#D81E05"/>
<path d="M15.0069 1.14467e-05C8.95474 1.14467e-05 3.73974 3.58794 1.36554 8.74687H28.6345C26.2672 3.58794 21.0522 1.14467e-05 15.0069 1.14467e-05Z" fill="#D81E05"/>
<path d="M0 15.0034C0 17.233 0.487226 19.3529 1.36554 21.2532H28.6345C29.506 19.3529 30 17.233 30 15.0034C30 12.7738 29.5128 10.6609 28.6345 8.75373H1.36554C0.494088 10.654 0 12.767 0 15.0034Z" fill="#F1F4FB"/>
</svg>
