<svg width="30" height="30" viewBox="0 0 30 30" fill="none" xmlns="http://www.w3.org/2000/svg">
<path d="M17.7104 0.253889V1.74291L12.4405 5.25618H17.7104V9.75756H12.4199L17.7104 13.2845V15.0069H15.1098L8.70765 10.7388V15.0069H4.20628V10.7388L0.0754703 13.4904C0.0274374 13.9845 0 14.4922 0 15C0 23.2823 6.71774 30 15 30C23.2823 30 30 23.2823 30 15C30 7.6441 24.6958 1.52333 17.7104 0.253889ZM8.0009 25.8074L6.45699 24.188L4.91307 25.8074L5.22186 23.5911L2.99176 23.3989L4.91307 22.2598L3.67794 20.4003L5.7708 21.1894L6.45699 19.0622L7.14317 21.1894L9.23603 20.4003L8.0009 22.2598L9.92221 23.3989L7.69898 23.5911L8.0009 25.8074ZM24.092 14.753L23.3371 13.957L22.5823 14.753L22.7333 13.6688L21.6423 13.5727L22.5823 13.0169L21.9785 12.1043L23.0009 12.4886L23.3371 11.4456L23.6734 12.4886L24.6958 12.1043L24.092 13.0169L25.032 13.5727L23.941 13.6688L24.092 14.753ZM15 0C12.7493 0 10.6221 0.500916 8.70765 1.38609V4.2818L15.1235 0.00686201C15.0823 0.00686201 15.0412 0 15 0Z" fill="#004990"/>
<path d="M11.0338 6.18937H17.7104V5.2493H12.4405L11.0338 6.18937Z" fill="white"/>
<path d="M7.76758 10.1144V15H8.70765V10.7388L7.76758 10.1144Z" fill="white"/>
<path d="M12.4199 9.75069H17.7104V8.81748H11.0132L12.4199 9.75069Z" fill="white"/>
<path d="M8.70765 4.28182V1.38612C8.392 1.53708 8.07636 1.68804 7.76758 1.85959V4.90625L8.70765 4.28182Z" fill="white"/>
<path d="M5.14637 3.69854C4.88562 3.92498 4.63171 4.15828 4.39154 4.39845L5.14637 4.90622V3.69854Z" fill="white"/>
<path d="M1.33798 8.81748C1.25564 8.98902 1.18019 9.16743 1.11157 9.3527L1.90753 8.81748H1.33798Z" fill="white"/>
<path d="M4.2063 10.7388V15H5.14641V10.1144L4.2063 10.7388Z" fill="white"/>
<path d="M11.0133 8.81748H7.76758V10.1144L8.70765 10.7388L15.1098 15H17.7104V14.9588L9.88104 9.75069H11.6583L17.7104 13.7717V13.2777L12.4199 9.75069L11.0133 8.81748Z" fill="white"/>
<path d="M5.14637 4.90623L4.39154 4.39846C3.83573 4.95427 3.32797 5.55125 2.86823 6.1894H5.14637V4.90623Z" fill="white"/>
<path d="M7.76758 4.90622V6.18939H11.027L12.4337 5.24932L17.7036 1.73605V0.247027C17.6075 0.226442 17.5114 0.212718 17.4153 0.192132L9.81244 5.24932H8.70082V4.8033L15.8783 0.027448C15.6244 0.0137243 15.3705 0.00686185 15.1098 0L8.69395 4.27493L7.76758 4.90622Z" fill="white"/>
<path d="M5.14633 10.1144V8.81748H1.90751L1.11156 9.3527C0.830221 10.0457 0.596912 10.7594 0.418504 11.5005L3.03974 9.75755H4.20622V10.1624L0.150881 12.8591C0.123434 13.0718 0.089128 13.2845 0.0685425 13.4973L4.19939 10.7457L5.14633 10.1144Z" fill="white"/>
<path d="M5.14644 8.81747V10.1144V15.0069H7.76763V10.1144V8.81747H11.0064H17.7036V6.18938H11.027H7.76763V4.90621V1.85955C6.82755 2.38105 5.94927 2.99862 5.14644 3.69852V4.90621V6.18938H2.8683C2.27131 7.00594 1.76351 7.88425 1.33807 8.81747H1.90762H5.14644Z" fill="#EF3E42"/>
<path d="M9.88104 9.75067L17.7104 14.9588V13.7717L11.6583 9.75067H9.88104Z" fill="#EF3E42"/>
<path d="M8.7077 5.24929H9.81936L17.4223 0.192107C16.9213 0.109765 16.4067 0.0548698 15.8921 0.0205606L8.71457 4.79641V5.24929H8.7077Z" fill="#EF3E42"/>
<path d="M4.2063 9.75067H3.03982L0.418591 11.4936C0.308801 11.9396 0.226455 12.3925 0.157837 12.8522L4.21317 10.1555V9.75067H4.2063Z" fill="#EF3E42"/>
<path d="M8.00087 22.253L9.236 20.3934L7.14314 21.1825L6.45695 19.0554L5.77764 21.1825L3.67791 20.3934L4.91991 22.253L2.9986 23.3989L5.22183 23.591L4.91991 25.8074L6.45695 24.1812L8.00087 25.8074L7.69208 23.591L9.92218 23.3989L8.00087 22.253Z" fill="white"/>
<path d="M24.0919 13.0169L24.6957 12.1043L23.6733 12.4954L23.3371 11.4524L23.0008 12.4954L21.9853 12.1043L22.5892 13.0169L21.6422 13.5727L22.7332 13.6688L22.5823 14.753L23.3371 13.9638L24.0919 14.753L23.9409 13.6688L25.032 13.5727L24.0919 13.0169Z" fill="white"/>
</svg>
