<svg width="30" height="30" viewBox="0 0 30 30" fill="none" xmlns="http://www.w3.org/2000/svg">
<path d="M29.9981 15.001C29.9981 23.286 23.2838 30.001 14.9997 30.001C6.71434 30.001 0 23.286 0 15.001C0 6.71747 6.71434 0.0010376 14.9997 0.0010376C23.2824 0.0010376 29.9981 6.71611 29.9981 15.001Z" fill="#4694D6"/>
<path d="M13.9905 12.7037C13.8001 13.9325 11.8127 13.8393 11.3401 14.9749C10.9607 16.016 11.7195 17.2475 12.477 17.8147C14.559 19.1393 16.3546 18.0996 16.3546 21.4119C16.3546 23.1147 14.8411 26.5215 17.0176 27.3722C18.816 28.0352 21.8445 25.2914 22.6951 24.2503C23.3566 23.3037 23.5457 22.7352 24.4921 21.979C25.6276 21.0325 26.007 20.938 24.7757 20.0873C23.8292 19.4243 23.1676 19.7078 22.7882 18.3832C22.5978 17.7201 23.2607 16.6804 23.0731 15.9229C22.7882 14.1243 20.5172 13.8407 18.9078 13.0818C17.2039 12.3256 16.1643 12.3256 14.3658 12.3256L13.9905 12.7037Z" fill="#86CE4E"/>
<path d="M25.0924 3.9032C24.0556 4.44018 22.4379 4.68128 21.5545 4.9758C19.0931 5.92375 20.4176 5.82786 20.23 7.91005C20.8915 8.09909 21.46 7.81553 21.838 7.24703C22.5009 9.14155 20.1354 8.7621 19.2835 8.7621C18.8096 8.7621 18.4302 8.57306 17.9576 8.7621C17.2001 9.14155 18.148 10.4662 17.107 9.51964C16.6331 9.23607 17.0125 8.38402 16.3496 7.91142C16.066 7.72238 14.5525 7.62648 14.2676 7.8169C13.1321 8.57306 14.647 9.8032 15.499 10.4662C16.1605 11.0347 15.877 11.2237 16.918 11.4142C17.4837 11.5073 18.0535 11.0347 18.6219 11.2237C19.756 11.5073 20.23 12.6443 21.46 13.0224C22.9735 13.495 23.7309 13.4005 24.3939 14.9155C24.7719 15.8607 24.8678 16.9018 25.4349 17.9429C26.3813 19.3621 27.6113 20.3073 28.5564 18.51C28.9715 17.595 28.7331 16.6087 29.8906 16.769C29.9577 16.1881 29.9974 15.5991 29.9974 15.0005C29.9974 10.6032 28.1058 6.64703 25.0924 3.9032Z" fill="#86CE4E"/>
<path d="M6.39629 21.9646C6.11276 21.6811 5.92374 20.4509 5.64021 20.0728C5.5457 19.7893 5.07178 19.7893 4.88276 19.5989C4.69237 19.3153 4.97727 18.7468 4.59786 18.5578C4.03216 18.1797 3.46373 18.3687 2.89667 18.1797C1.94883 17.8961 2.42275 18.2756 1.66667 17.4235C1.09687 16.855 0.695538 15.7372 0.0106812 15.1701C0.0668394 20.0989 2.49808 24.4537 6.21412 27.1482C6.68119 26.603 7.24688 26.1126 7.81668 25.6564C8.66865 24.9002 10.089 24.8044 9.4261 23.3852C8.85767 21.8701 7.15511 22.629 6.39629 21.9646Z" fill="#86CE4E"/>
<path d="M6.41056 6.65596C5.49422 5.97103 4.71759 5.25459 3.78756 5.04089C1.85215 7.21898 0.542704 9.96418 0.137268 12.9984C0.994709 12.9943 0.670088 14.5916 1.86859 14.0395C2.15349 13.9436 2.81369 12.5245 3.09859 12.145C3.66702 11.5779 7.26252 10.2532 5.65448 9.40117C5.8435 9.11624 6.03389 9.02171 6.41193 8.92719C6.60095 9.49569 6.88448 9.87377 7.45291 9.96829C7.83095 8.26418 7.83095 7.60254 6.41056 6.65596Z" fill="#86CE4E"/>
<path d="M5.63844 4.97431C5.82883 4.97431 7.24648 3.64965 7.24648 3.5565C7.24648 3.07979 6.99171 2.74829 6.62326 2.55103C5.86033 3.06335 5.14945 3.64692 4.49609 4.28938C4.85633 4.60856 5.10973 4.97431 5.63844 4.97431Z" fill="#86CE4E"/>
<path d="M14.676 0.00921631C12.6995 0.0503122 10.8161 0.469489 9.09852 1.20374C9.23139 1.2873 9.36425 1.36949 9.49711 1.43661C8.85746 2.50237 8.5027 2.71333 9.21221 3.99278C9.71079 5.05716 10.4888 4.91333 11.412 5.76538C12.1229 4.98456 11.5531 4.701 11.7654 3.99278C11.9092 3.28182 12.5475 2.92702 13.1858 2.64346C14.1788 2.2188 15.9539 2.7147 15.7403 1.22565C15.6745 0.707846 15.2663 0.300997 14.676 0.00921631Z" fill="#86CE4E"/>
<path d="M13.7771 3.38224C14.5578 3.23977 14.629 4.0206 15.4097 3.80827C15.907 5.08635 12.784 4.80279 13.7771 3.4521V3.38224Z" fill="#86CE4E"/>
<g opacity="0.13">
<path d="M17.7306 0.256409C22.3822 2.80435 25.5366 7.74408 25.5366 13.4208C25.5366 21.7057 18.8223 28.4208 10.5383 28.4208C9.60276 28.4208 8.69053 28.3304 7.80432 28.1674C9.93834 29.3386 12.3901 30.0044 14.9981 30.0044C23.2807 30.0044 29.9964 23.2893 29.9964 15.0044C29.9964 7.65367 24.7093 1.54271 17.7306 0.256409Z" fill="black"/>
</g>
</svg>
