<svg width="30" height="30" viewBox="0 0 30 30" fill="none" xmlns="http://www.w3.org/2000/svg">
<path d="M30 15C30 23.2823 23.2823 30 15 30C6.71774 30 0 23.2823 0 15C0 6.71776 6.71774 1.90735e-06 15 1.90735e-06C23.2823 1.90735e-06 30 6.71776 30 15Z" fill="#5881BB"/>
<path d="M4.05536 25.2447H25.9378C26.4936 24.6546 27.0082 24.0233 27.4611 23.344H2.52518C2.98492 24.0165 3.50641 24.6478 4.05536 25.2447Z" fill="#F9D616"/>
<path d="M28.3326 21.8619C28.6482 21.2512 28.9158 20.6199 29.1423 19.9612H0.857727C1.08417 20.613 1.35864 21.2512 1.67429 21.8619H28.3326Z" fill="#F9D616"/>
<path d="M6.45013 11.2534L5.48263 8.42635L2.65555 7.4657L5.48263 6.49817L6.44326 3.67109L7.41081 6.49817L10.2379 7.45883L7.41081 8.42635L6.45013 11.2534Z" fill="white"/>
<path d="M6.44995 10.574L5.654 8.25473L3.33469 7.46562L5.654 6.66964L6.44308 4.35034L7.23908 6.66964L9.56526 7.45876L7.24595 8.25473L6.44995 10.574Z" fill="#EF2B2D"/>
</svg>
