<svg width="30" height="30" viewBox="0 0 30 30" fill="none" xmlns="http://www.w3.org/2000/svg">
<path d="M15 30C21.0521 30 26.2671 26.4121 28.6345 21.2532H1.36548C3.73282 26.4121 8.94096 30 15 30Z" fill="#01AD68"/>
<path d="M15 1.14415e-05C8.94782 1.14415e-05 3.73282 3.58794 1.36548 8.74687H28.6345C26.2603 3.58794 21.0521 1.14415e-05 15 1.14415e-05Z" fill="#0092C7"/>
<path d="M0 15.0034C0 17.233 0.487185 19.3529 1.3655 21.2532H28.6345C29.506 19.3529 30 17.233 30 15.0034C30 12.7738 29.506 10.6609 28.6345 8.75373H1.3655C0.487185 10.654 0 12.767 0 15.0034Z" fill="#E90538"/>
<path d="M12.9963 9.85823C14.5471 9.61812 16.1321 10.215 17.2575 11.2646C16.3174 10.8941 15.2881 10.4962 14.2657 10.7432C12.3581 11.0382 10.7936 12.7601 10.6838 14.6879C10.4711 16.8214 12.1385 18.9481 14.2657 19.2637C15.295 19.5244 16.3174 19.1127 17.2575 18.7423C15.7616 20.1829 13.3668 20.6357 11.473 19.7233C9.27032 18.756 7.98025 16.1148 8.59782 13.7892C9.07128 11.7448 10.8897 10.0572 12.9963 9.85823Z" fill="white"/>
<path d="M18.8701 12.3622C18.8907 12.3622 18.925 12.3622 18.9455 12.3622C19.1583 12.7739 19.2817 13.2198 19.419 13.652C19.9062 13.4805 20.3796 13.2541 20.8668 13.0551C20.661 13.5353 20.4208 14.0018 20.2561 14.4958C20.7021 14.633 21.1482 14.7565 21.553 14.9691C21.553 14.9897 21.553 15.024 21.553 15.0446C21.1482 15.2573 20.6953 15.3808 20.263 15.518C20.4414 16.0119 20.661 16.4853 20.8599 16.9655C20.3796 16.7597 19.913 16.5196 19.4258 16.3549C19.2886 16.8008 19.1651 17.2468 18.9524 17.6515C18.9318 17.6515 18.8975 17.6515 18.8769 17.6515C18.6642 17.2468 18.5407 16.8008 18.4034 16.3618C17.9094 16.5401 17.4359 16.7597 16.9556 16.9586C17.1615 16.4784 17.4016 16.0119 17.5663 15.518C17.1203 15.3808 16.6743 15.2573 16.2694 15.0446C16.2694 15.024 16.2694 14.9897 16.2694 14.9691C16.6743 14.7565 17.1203 14.633 17.5594 14.4958C17.381 14.0018 17.1615 13.5285 16.9693 13.0483C17.4497 13.2541 17.9162 13.4942 18.4034 13.6588C18.5338 13.2129 18.6505 12.767 18.8701 12.3622Z" fill="white"/>
</svg>
