<svg width="30" height="30" viewBox="0 0 30 30" fill="none" xmlns="http://www.w3.org/2000/svg">
<path d="M3.25201 5.70217H4.60347L2.81981 6.99907L3.49897 9.09879L1.8045 7.87052C0.658835 9.99083 0.000244141 12.4199 0.000244141 15C0.000244141 23.2822 6.71645 30 14.9968 30C17.6037 30 20.0597 29.3344 22.1932 28.161L21.6993 27.8042L19.9156 29.1011L20.5948 27.0014L18.8043 25.7045H21.0133L21.6993 23.6047L22.3785 25.7045H24.5875L22.8038 27.0014L23.0165 27.6601C24.0387 27.0082 24.9854 26.2397 25.8155 25.3682L4.63093 4.17885C4.14385 4.65232 3.67735 5.16009 3.25201 5.70217ZM17.7135 19.6043L18.3927 21.704H20.6017L18.818 23.0009L19.4972 25.1006L17.7135 23.8037L15.9298 25.1006L16.6158 23.0009L14.8253 21.704H17.0343L17.7135 19.6043ZM13.7139 15.6038L14.3931 17.7035H16.6021L14.8184 19.0004L15.4976 21.1002L13.7139 19.8033L11.9234 21.1002L12.6094 19.0004L10.8189 17.7035H13.0279L13.7139 15.6038ZM9.71439 11.6034L10.3935 13.7031H12.6026L10.8189 15L11.4981 17.0997L9.71439 15.8028L7.93073 17.0997L8.60989 15L6.82623 13.7031H9.03522L9.71439 11.6034ZM5.71483 7.60291L6.39403 9.70263H8.60302L6.81937 10.9995L7.49853 13.0992L5.71483 11.8024L3.92431 13.0992L4.61033 10.9995L2.82668 9.70263H5.03567L5.71483 7.60291Z" fill="#171796"/>
<path d="M30.0002 15C30.0002 6.71775 23.284 -3.8147e-06 15.0036 -3.8147e-06C10.9835 -3.8147e-06 7.34068 1.59195 4.64459 4.172L25.8291 25.3614C28.4086 22.6715 30.0002 19.0279 30.0002 15Z" fill="#F7D117"/>
<path d="M2.81979 6.99882L4.60345 5.70222H3.25199C2.71689 6.38139 2.22293 7.10172 1.81131 7.87007L3.50582 9.09806L2.81979 6.99882Z" fill="white"/>
<path d="M4.61023 10.9996L3.9242 13.1062L5.71472 11.8024L7.49842 13.1062L6.81926 10.9996L8.60291 9.70271H6.39392L5.71472 7.60298L5.02869 9.70271H2.8197L4.61023 10.9996Z" fill="white"/>
<path d="M8.60989 15.0001L7.92386 17.0998L9.71439 15.8029L11.4981 17.0998L10.8189 15.0001L12.6026 13.7032H10.3935L9.71439 11.6035L9.02836 13.7032H6.81937L8.60989 15.0001Z" fill="white"/>
<path d="M12.6094 19.0005L11.9234 21.1002L13.7139 19.8033L15.4976 21.1002L14.8184 19.0005L16.6021 17.7036H14.3931L13.7139 15.6039L13.0279 17.7036H10.8188L12.6094 19.0005Z" fill="white"/>
<path d="M16.6088 23.001L15.9228 25.1007L17.7134 23.8038L19.497 25.1007L18.8179 23.001L20.6015 21.7041H18.3925L17.7134 19.6044L17.0273 21.7041H14.8183L16.6088 23.001Z" fill="white"/>
<path d="M24.6012 25.7045H22.3921L21.713 23.6048L21.027 25.7045H18.818L20.6085 27.0014L19.9293 29.1012L21.713 27.8043L22.2069 28.1611C22.4882 28.0033 22.7626 27.8317 23.0302 27.6602L22.8175 27.0014L24.6012 25.7045Z" fill="white"/>
</svg>
