<svg width="30" height="30" viewBox="0 0 30 30" fill="none" xmlns="http://www.w3.org/2000/svg">
<path d="M0.000146211 15.0001C0.000146211 21.0523 3.58889 26.2673 8.749 28.6346V1.36565C3.58889 3.73985 0.000146211 8.948 0.000146211 15.0001Z" fill="#00267F"/>
<path d="M30.0001 15.0001C30.0001 8.948 26.4114 3.73299 21.2513 1.36565V28.6346C26.4114 26.2673 30.0001 21.0523 30.0001 15.0001Z" fill="#00267F"/>
<path d="M15.0002 0.000152588C12.7701 0.000152588 10.6566 0.487342 8.74905 1.36566V28.6346C10.6498 29.5061 12.7701 30.0002 15.0002 30.0002C17.2303 30.0002 19.3506 29.5061 21.2513 28.6346V1.36566C19.3437 0.494204 17.2303 0.000152588 15.0002 0.000152588Z" fill="#FFC726"/>
<path d="M14.3688 21.0043V17.6419L12.1525 17.937C12.1525 17.937 11.1712 12.7495 9.79198 10.8213C9.7165 10.7183 9.76453 10.684 9.85373 10.6978C10.8144 10.8968 11.8299 11.3634 12.5161 12.0701C12.5985 12.1662 12.0907 11.9672 12.0427 11.9603C11.6584 11.8849 13.0857 16.6676 13.0857 16.6676L14.3757 16.4754V11.9192C14.0738 11.9123 13.6072 11.9878 13.3327 12.077C14.2041 11.2124 15.0001 9.00288 15.0001 9.00288C15.0001 9.00288 15.8029 11.2193 16.6675 12.0839C16.3999 11.9946 15.9265 11.9123 15.6245 11.9192V16.4823L16.9077 16.6744C16.9077 16.6744 18.335 11.8711 17.9507 11.9672C17.9027 11.9809 17.4018 12.1799 17.4772 12.0839C18.1634 11.3771 19.1721 10.9105 20.1396 10.7115C20.2288 10.6909 20.27 10.7321 20.2014 10.835C18.829 12.77 17.8409 17.9439 17.8409 17.9439L15.6177 17.6488V21.0043H14.3688Z" fill="black"/>
</svg>
