<svg width="30" height="30" viewBox="0 0 30 30" fill="none" xmlns="http://www.w3.org/2000/svg">
<path d="M0.000144958 15.0001C0.000144958 21.0523 3.58889 26.2673 8.749 28.6346V1.36565C3.58889 3.73985 0.000144958 8.948 0.000144958 15.0001Z" fill="black"/>
<path d="M30.0001 15.0001C30.0001 8.948 26.4114 3.73299 21.2513 1.36565V28.6346C26.4114 26.2673 30.0001 21.0592 30.0001 15.0001Z" fill="#EE0000"/>
<path d="M15.0002 0.000152588C12.7701 0.000152588 10.6498 0.494204 8.74904 1.36566V28.6346C10.6498 29.5061 12.7701 30.0002 15.0002 30.0002C17.2303 30.0002 19.3506 29.5061 21.2513 28.6346V1.36566C19.3506 0.494204 17.2303 0.000152588 15.0002 0.000152588Z" fill="#FFDE00"/>
</svg>
