<svg width="30" height="30" viewBox="0 0 30 30" fill="none" xmlns="http://www.w3.org/2000/svg">
<path d="M14.997 30.0001C21.0478 30.0001 26.2616 26.4114 28.6284 21.2513H1.35876C3.73242 26.4114 8.94624 30.0001 14.997 30.0001Z" fill="#D62612"/>
<path d="M14.9968 0.000152588C8.94603 0.000152588 3.73222 3.5889 1.36542 8.74901H28.635C26.2545 3.5889 21.0476 0.000152588 14.9968 0.000152588Z" fill="#F1F4FB"/>
<path d="M0.000366211 15.0001C0.000366211 17.2302 0.48744 19.3506 1.36556 21.2513H28.6352C29.5064 19.3506 30.0004 17.2302 30.0004 15.0001C30.0004 12.77 29.5133 10.6497 28.6352 8.749H1.36556C0.48744 10.6497 0.000366211 12.77 0.000366211 15.0001Z" fill="#009966"/>
</svg>
