<svg width="30" height="30" viewBox="0 0 30 30" fill="none" xmlns="http://www.w3.org/2000/svg">
<path d="M0.000183105 15.0001C0.000183105 21.3816 3.99378 26.8162 9.60677 28.9845L13.7856 27.1593L6.82772 24.1195L13.7856 21.0797L6.82772 18.0399L13.7856 15.0001L6.82772 11.9603L13.7856 8.92049L6.82772 5.88069L13.7856 2.84089L9.60677 1.01565C3.99378 3.18399 0.000183105 8.61857 0.000183105 15.0001Z" fill="#F1F4FB"/>
<path d="M6.8277 5.88071L13.7856 8.92051L6.8277 11.9603L13.7856 15.0001L6.8277 18.0399L13.7856 21.0797L6.8277 24.1195L13.7856 27.1593L9.60675 28.9846C11.281 29.6296 13.0926 30.0001 15.0002 30.0001C23.2824 30.0001 30.0002 23.2824 30.0002 15.0001C30.0002 6.71785 23.2824 0.000103788 15.0002 0.000103788C13.0994 0.000103788 11.281 0.370646 9.60675 1.01566L13.7856 2.84091L6.8277 5.88071Z" fill="#CE1126"/>
</svg>
