<svg width="30" height="30" viewBox="0 0 30 30" fill="none" xmlns="http://www.w3.org/2000/svg">
<path d="M28.4144 21.6885C29.4233 19.6706 29.9998 17.4057 29.9998 14.9966C29.9998 12.5876 29.4164 10.3226 28.4144 8.3048L18.3801 14.9966L28.4144 21.6885Z" fill="#1EB53A"/>
<path d="M3.6651 5.18878L14.9966 12.7454L26.3281 5.18878C23.5759 2.01102 19.5265 4.03418e-05 14.9966 4.03418e-05C10.4668 -0.00682308 6.41733 2.01102 3.6651 5.18878Z" fill="#CE1126"/>
<path d="M1.58575 8.31172C0.576831 10.3296 0.000305176 12.5945 0.000305176 15.0036C0.000305176 17.4126 0.583694 19.6775 1.58575 21.6954L11.6201 15.0036L1.58575 8.31172Z" fill="#1EB53A"/>
<path d="M26.335 24.8045L14.9966 17.2479L3.6651 24.8045C6.41733 27.9822 10.4667 30.0001 15.0035 30.0001C19.5333 30.0001 23.5827 27.9822 26.335 24.8045Z" fill="#CE1126"/>
<path d="M3.66519 5.18878C2.84844 6.13593 2.14837 7.17917 1.58557 8.31164L11.6199 15.0035L1.58557 21.6953C2.14837 22.8278 2.84844 23.871 3.66519 24.8182L14.9967 17.2615L26.3351 24.8182C27.1518 23.8779 27.8519 22.8278 28.4147 21.6953L18.3804 15.0035L28.4147 8.31164C27.8519 7.17917 27.1518 6.13593 26.3351 5.18878L15.0036 12.7454L3.66519 5.18878Z" fill="white"/>
<path d="M22.5053 14.9967C22.5053 19.1422 19.1422 22.4984 15.0035 22.4984C10.8649 22.4984 7.50183 19.1422 7.50183 14.9967C7.50183 10.8512 10.858 7.49494 15.0035 7.49494C19.1422 7.49494 22.5053 10.858 22.5053 14.9967Z" fill="white"/>
<path d="M15.0032 12.8208L14.9483 12.7247L14.5159 11.9766H13.658H13.5482L13.6031 11.8805L14.0286 11.1393L13.6031 10.3912L13.5482 10.302H13.658H14.5159L14.9483 9.55385L15.0032 9.45776L15.0512 9.55385L15.4905 10.302H16.3484H16.4514L16.4033 10.3912L15.9709 11.1393L16.4033 11.8805L16.4514 11.9766H16.3484H15.4905L15.0512 12.7247L15.0032 12.8208Z" fill="#CE1126"/>
<path d="M15.0036 9.58134L15.4566 10.3638H16.3489L15.9027 11.1393L16.3489 11.9149H15.4566L15.0036 12.6973L14.5506 11.9149H13.6584L14.1045 11.1393L13.6584 10.3638H14.5506L15.0036 9.58134ZM15.0036 9.34112L14.9007 9.52643L14.482 10.2471H13.6584H13.4456L13.5486 10.4255L13.9604 11.1393L13.5486 11.8531L13.4456 12.0316H13.6584H14.482L14.9007 12.7522L15.0036 12.9376L15.1066 12.7522L15.5252 12.0316H16.3489H16.5616L16.4587 11.8531L16.0469 11.1393L16.4587 10.4255L16.5616 10.2471H16.3489H15.5252L15.1066 9.52643L15.0036 9.34112Z" fill="#1EB53A"/>
<path d="M11.4963 18.8331L11.4483 18.7439L11.009 17.9889H10.1511H10.0482L10.0962 17.8997L10.5286 17.1516L10.0962 16.4104L10.0482 16.3211H10.1511H11.009L11.4483 15.5662L11.4963 15.4769L11.5512 15.5662L11.9836 16.3211H12.8416H12.9514L12.8965 16.4104L12.4709 17.1516L12.8965 17.8997L12.9514 17.9889H12.8416H11.9836L11.5512 18.7439L11.4963 18.8331Z" fill="#CE1126"/>
<path d="M11.4959 15.5937L11.9489 16.3761H12.8412L12.3951 17.1517L12.8412 17.9272H11.9489L11.4959 18.7096L11.043 17.9272H10.1507L10.5968 17.1517L10.1507 16.3761H11.043L11.4959 15.5937ZM11.4959 15.3534L11.3861 15.5319L10.9675 16.2525H10.1439H9.93109L10.034 16.4379L10.4458 17.1517L10.034 17.8654L9.93109 18.0439H10.1439H10.9675L11.3793 18.7646L11.4891 18.9499L11.592 18.7646L12.0038 18.0439H12.8275H13.0402L12.9373 17.8654L12.5255 17.1517L12.9373 16.4379L13.0471 16.2525H12.8343H12.0107L11.5989 15.5319L11.4959 15.3534Z" fill="#1EB53A"/>
<path d="M18.5038 18.8331L18.4489 18.7439L18.0165 17.9889H17.1586H17.0556L17.1036 17.8997L17.536 17.1516L17.1036 16.4104L17.0556 16.3211H17.1586H18.0165L18.4489 15.5662L18.5038 15.4769L18.5587 15.5662L18.9911 16.3211H19.849H19.952L19.9039 16.4104L19.4715 17.1516L19.9039 17.8997L19.9588 17.9889H19.849H18.9911L18.5587 18.7439L18.5038 18.8331Z" fill="#CE1126"/>
<path d="M18.5034 15.5937L18.9496 16.3761H19.8418L19.3957 17.1517L19.8418 17.9272H18.9427L18.4966 18.7096L18.0436 17.9272H17.1513L17.5975 17.1517L17.1513 16.3761H18.0436L18.5034 15.5937ZM18.5034 15.3534L18.4005 15.5319L17.9818 16.2525H17.1582H16.9454L17.0553 16.4379L17.4671 17.1517L17.0553 17.8654L16.9454 18.0508H17.1582H17.9818L18.4005 18.7714L18.5034 18.9567L18.6064 18.7714L19.025 18.0508H19.8487H20.0614L19.9585 17.8723L19.5467 17.1585L19.9585 16.4447L20.0614 16.2594H19.8487H19.025L18.6064 15.5387L18.5034 15.3534Z" fill="#1EB53A"/>
</svg>
