<svg width="30" height="30" viewBox="0 0 30 30" fill="none" xmlns="http://www.w3.org/2000/svg">
<g clip-path="url(#clip0_1_13360)">
<path d="M-14.9998 0.0010376H45.0002V30.001H-14.9998V0.0010376Z" fill="#C8102E"/>
<path d="M-14.9998 0.0010376H15.0002V15.001H-14.9998V0.0010376Z" fill="#012169"/>
<path d="M-14.9998 0.0010376V1.67804L11.6462 15.001H15.0002V13.324L-11.6458 0.0010376H-14.9998ZM15.0002 0.0010376V1.67804L-11.6458 15.001H-14.9998V13.324L11.6462 0.0010376H15.0002Z" fill="white"/>
<path d="M-2.49982 0.0010376V15.001H2.50018V0.0010376H-2.49982ZM-14.9998 5.00104V10.001H15.0002V5.00104H-14.9998Z" fill="white"/>
<path d="M-14.9998 6.00104V9.00104H15.0002V6.00104H-14.9998ZM-1.49982 0.0010376V15.001H1.50018V0.0010376H-1.49982Z" fill="#C8102E"/>
<path d="M-14.9998 15.001L-4.99982 10.001H-2.76382L-12.7638 15.001H-14.9998ZM-14.9998 0.0010376L-4.99982 5.00104H-7.23582L-14.9998 1.11904V0.0010376ZM2.76418 5.00104L12.7642 0.0010376H15.0002L5.00018 5.00104H2.76418ZM15.0002 15.001L5.00018 10.001H7.23618L15.0002 13.883V15.001Z" fill="#C8102E"/>
<path d="M34.8175 6.40088V19.1051C34.8175 22.4985 28.0338 23.6011 28.0338 23.6011C28.0338 23.6011 21.25 22.4985 21.25 19.1051V6.40088H34.8175Z" fill="white"/>
<path d="M34.8175 19.105C34.8175 22.4984 28.0338 23.601 28.0338 23.601C28.0338 23.601 21.25 22.4984 21.25 19.105C21.25 19.105 21.25 18.8317 21.3881 18.6763C21.3881 18.6763 21.3133 19.2407 21.7469 19.6676C21.7469 19.6676 21.4068 19.0654 21.7394 18.4736C21.7394 18.4736 21.6161 19.235 22.0908 19.6723C22.0908 19.6723 21.8291 19.0503 22.1245 18.3567C22.1245 18.3567 21.9787 19.4913 22.4946 19.7175C22.4946 19.7175 22.6366 19.0654 22.431 18.647C22.431 18.647 22.7861 18.7902 22.7674 19.7364C22.7674 19.7364 22.8796 19.5969 22.9094 18.9146C22.9094 18.9146 22.9244 19.6949 23.1936 19.8758C23.1936 19.8758 23.2758 19.7967 23.1637 19.4423C23.0515 19.088 23.2123 18.9636 23.2384 18.9711C23.2384 18.9711 23.1795 19.3631 23.508 19.6572C23.508 19.6572 23.3656 19.0427 23.5637 18.9598C23.5637 18.9598 23.5226 19.48 23.9338 19.5969C23.9338 19.5969 23.9637 19.4461 23.874 19.2765C23.874 19.2765 23.7955 19.0753 23.8552 18.9214C23.8552 18.9214 23.9861 19.3933 24.1655 19.4725C24.1655 19.4725 24.0571 19.1959 24.158 18.9214C24.158 18.9214 24.1804 19.3142 24.5318 19.4762C24.5318 19.4762 24.3003 19.1722 24.3918 18.8379L26.6513 18.9485L27.8213 19.0043L31.3315 18.7562L31.9371 18.236C31.9371 18.236 32.1763 18.5678 31.7988 19.0917C31.7988 19.0917 32.1726 19.0239 32.2922 18.4396C32.2922 18.4396 32.4454 18.7638 32.2361 19.1219C32.2361 19.1219 32.6511 18.7073 32.7108 18.236C32.7108 18.236 32.8716 18.6921 32.479 19.1822C32.479 19.1822 32.8304 19.0653 32.98 18.5451C32.98 18.5451 33.0996 18.8585 32.7594 19.3012C32.7594 19.3012 33.3949 18.9636 33.3762 18.2662C33.3762 18.2662 33.6416 18.6507 33.3388 19.1784C33.3388 19.1784 33.664 18.8882 33.694 18.4547C33.694 18.4547 33.8734 18.6507 33.679 19.1897C33.679 19.1897 34.0753 18.8165 34.1351 18.4131C34.1351 18.4131 34.2211 18.7863 33.8809 19.2575C33.8809 19.2575 34.1126 19.201 34.3332 18.7411C34.3332 18.7411 34.393 18.9221 34.1912 19.2538C34.1912 19.2538 34.408 19.2161 34.5538 18.8015C34.5538 18.8015 34.5799 19.0503 34.5164 19.2727C34.5164 19.2727 34.6846 19.1634 34.722 18.6921C34.722 18.6921 34.816 18.8467 34.8176 19.0389C34.8191 19.2312 34.8175 19.105 34.8175 19.105Z" fill="#2F8F22"/>
<path d="M31.3236 11.7609C31.3236 11.7609 31.0879 11.801 30.7851 11.7087C30.4824 11.6165 30.36 11.654 30.266 11.7087C30.266 11.7087 30.3889 11.4654 30.0899 11.2733C30.0899 11.2733 30.1871 11.519 30.0525 11.6337C30.0525 11.6337 29.9927 11.69 29.9216 11.6052C29.9216 11.6052 29.817 11.4977 29.7067 11.4148C29.7067 11.4148 29.9609 11.3262 29.9142 11.068C29.8674 10.8098 29.7291 10.7759 29.6544 10.7438C29.6544 10.7438 29.6805 10.8607 29.6544 10.9398C29.6544 10.9398 29.3778 10.7853 29.7534 10.5666C30.1291 10.348 30.06 10.2198 29.9927 10.1086C29.9254 9.99741 29.7815 9.87489 29.7104 9.83151C29.7104 9.83151 29.7852 9.94839 29.7721 10.0483C29.759 10.1482 29.5889 10.2123 29.6226 10.037C29.6562 9.86169 29.6207 9.89187 29.6169 9.70527C29.6169 9.70527 29.9515 9.81837 30.0824 9.49227C30.0824 9.49227 30.2113 9.15489 29.7889 8.98713C29.7889 8.98713 29.8917 9.12471 29.8412 9.22839C29.8412 9.22839 29.7515 9.39801 29.645 9.26043C29.5384 9.12285 29.4711 9.09645 29.4824 8.93433C29.4824 8.93433 29.8655 8.98713 29.7609 8.57055C29.7609 8.57055 29.6992 8.84763 29.202 8.47443C29.202 8.47443 29.5254 8.14269 29.4002 7.87503C29.4002 7.87503 29.3609 7.75251 29.0095 7.82415C29.0095 7.82415 29.3142 7.63191 29.1852 7.46793C29.1852 7.46793 29.1198 7.35861 28.8357 7.50183C28.8357 7.50183 28.946 7.31145 28.6674 7.10601C28.6674 7.10601 28.4805 7.20405 28.3815 7.29447C28.3815 7.29447 28.1909 7.05321 28.0694 6.95709C28.0694 6.95709 27.8488 7.04193 27.7928 7.29447C27.7928 7.29447 27.69 7.17195 27.4563 7.11543C27.4563 7.11543 27.3442 7.32279 27.49 7.50369C27.49 7.50369 27.3816 7.49991 27.1835 7.41321C27.1835 7.41321 26.9573 7.30575 26.9909 7.49991C27.0245 7.69407 27.0414 7.73739 27.0863 7.82787C27.0863 7.82787 26.5788 7.71003 26.6003 7.98429C26.6153 8.17467 26.6863 8.33865 26.8433 8.47623C26.8433 8.47623 26.5592 8.84757 26.3162 8.56857C26.3162 8.56857 26.2321 8.65905 26.4134 8.89653C26.4134 8.89653 26.5947 9.09633 26.4452 9.22263C26.4452 9.22263 26.2452 9.38283 26.148 9.07185C26.148 9.07185 25.8247 9.39417 26.206 9.64107C26.206 9.64107 26.4509 9.78057 26.7013 9.56565C26.7013 9.56565 26.6247 10.1839 26.3854 10.0652C26.3854 10.0652 26.2415 9.95961 26.4994 9.83331C26.4994 9.83331 26.1275 9.78621 26.0676 10.1462C26.0676 10.1462 26.0217 10.4327 26.3461 10.5364C26.3461 10.5364 26.5965 10.6269 26.3367 10.821C26.3367 10.821 26.1536 10.9605 26.2732 11.1678C26.2732 11.1678 26.4171 11.3959 26.0526 11.4185C26.0526 11.4185 25.8545 11.4167 25.7835 11.3903C25.7835 11.3903 25.7036 11.5389 25.7594 11.7087C25.7594 11.7087 25.5779 11.5734 25.1648 11.7231C24.7518 11.8728 24.7835 11.7672 24.7499 11.8125C24.7162 11.8577 24.6359 12.0104 24.6359 12.0104C24.6359 12.0104 24.8527 12.2742 24.8564 12.2686C24.8601 12.263 24.8153 12.5702 24.8153 12.5702L24.9219 12.621L25.7723 12.2422L26.6358 11.7922L27.3301 11.8347L27.7704 11.9396L28.3487 11.9817L28.7629 11.7608H29.3628L30.0227 12.0896L30.7758 12.5389L31.1684 12.6077L31.4708 12.5916V11.9816L31.3236 11.7609Z" fill="#C8102E" stroke="black" stroke-width="0.04986" stroke-linejoin="round"/>
<path d="M24.4737 12.4742C24.4737 12.4742 24.8027 12.642 24.94 12.4384C24.94 12.4384 25.1195 12.0963 24.7255 11.9775C24.7255 11.9775 24.94 11.7203 24.7101 11.4828C24.7101 11.4828 24.5896 11.3556 24.3793 11.4489C24.3793 11.4489 24.2923 11.2679 24.0876 11.2736C24.0876 11.2736 23.9082 11.2707 23.8466 11.4686C23.8466 11.4686 23.5999 11.3669 23.4625 11.5139C23.4625 11.5139 23.2354 11.7683 23.5522 11.9691L23.7801 11.9898L24.0044 11.8862L24.2549 11.9578C24.2551 11.9577 24.1906 12.2113 24.4737 12.4742Z" fill="#C8102E" stroke="black" stroke-width="0.04986" stroke-linejoin="round"/>
<path d="M31.8166 11.8725C32.2129 11.8352 32.3529 12.1696 32.3529 12.1696C32.5606 12.6569 32.1195 12.9171 32.1195 12.9171C32.1531 13.0264 32.1568 13.1696 32.1568 13.1696C32.7774 13.245 32.6689 13.9424 32.6689 13.9424L32.4634 13.7728C32.1045 13.6333 31.7344 13.9386 31.4691 14.4513C31.2037 14.964 31.3308 15.2053 31.3756 15.8122C31.4205 16.4191 32.4073 16.781 32.4073 16.781C32.4073 16.781 31.94 17.9835 31.6372 18.7563C31.3345 19.5291 30.7027 19.2087 30.5196 19.0459C30.3364 18.8831 30.2906 18.9735 30.1981 19.0459C30.1056 19.1183 30.613 19.514 29.6897 19.8872C28.7664 20.2604 28.6056 20.5469 28.4524 20.6412C28.2991 20.7354 27.6599 20.6714 27.5964 20.5922C27.5328 20.513 27.5702 20.513 27.331 20.366C27.0918 20.219 26.688 20.0908 26.2469 19.8759C25.8058 19.661 25.817 19.3858 25.8208 19.3293C25.8245 19.2728 25.974 18.8129 25.4574 19.1785C24.9408 19.5441 24.5012 19.0044 24.5012 19.0044C24.4003 18.8717 23.9704 17.7197 23.9704 17.7197C23.8545 17.2899 23.6265 16.7885 23.6265 16.7885C23.6377 16.7847 23.604 16.8413 23.9853 16.6227C24.3666 16.404 24.5374 16.0403 24.6694 15.6803C24.8014 15.3203 24.6731 14.7039 24.6245 14.5795C24.5759 14.4551 24.2918 13.8848 23.94 13.7652C23.5882 13.6457 23.3523 13.9424 23.3523 13.9424C23.3523 13.9424 23.2438 13.245 23.8644 13.1696C23.8644 13.1696 23.8681 13.0264 23.9017 12.9171C23.9017 12.9171 23.4606 12.657 23.6683 12.1696C23.6683 12.1696 23.8083 11.8352 24.2046 11.8725L24.1087 12.0538C24.1087 12.0538 24.0089 13.049 25.4656 12.3818C26.9224 11.7145 26.8786 11.5901 27.7085 12.0086L28.3141 11.9973C28.3141 11.9973 29.1888 11.5926 29.4691 11.7667C29.7495 11.9408 30.7588 12.5062 30.7588 12.5062C30.7588 12.5062 31.7344 12.8721 31.9251 12.1972L31.8166 11.8725Z" fill="#64B4D1" stroke="black" stroke-width="0.03738"/>
<path d="M27.4341 16.1874C27.4341 16.1874 27.3834 15.8819 27.3302 15.6841C27.3302 15.6841 27.2221 15.3736 27.4066 15.1557L27.6353 14.8925C27.6353 14.8925 27.7774 14.7013 27.9534 14.6753C27.9534 14.6753 28.1294 14.6701 28.1462 14.6343C28.163 14.5984 28.3555 14.2816 28.8134 14.6343C28.8134 14.6343 28.9592 14.4006 29.1835 14.361C29.1835 14.361 29.4258 14.2875 29.543 14.4684C29.543 14.4684 29.8153 14.262 30.0489 14.5942C30.0489 14.5942 30.3722 14.4124 30.6077 14.774C30.6077 14.774 30.9274 14.6181 31.1236 14.9504C31.3199 15.2827 31.2806 15.4184 31.2806 15.4184L31.4263 15.9462L31.9423 16.5832L30.7424 17.0356H30.2041L29.1275 17.3239L27.2155 17.4709L26.6828 16.8433L27.4341 16.1874Z" fill="white" stroke="#012169" stroke-width="0.049842" stroke-miterlimit="10"/>
<path d="M25.8185 19.3652C25.8185 19.3652 25.5325 19.3822 25.3867 19.4557C25.2409 19.5292 25.1288 19.6084 24.9606 19.7158C24.9606 19.7158 24.8821 19.8203 24.5513 19.7567C24.5513 19.7567 23.9793 19.6196 23.9793 20.0663C23.9793 20.0663 23.2953 20.1229 23.5756 20.7223C23.5756 20.7223 23.7662 21.1916 24.1587 20.858C24.1587 20.858 23.9064 21.2198 24.3942 21.3613C24.3942 21.3613 24.7419 21.4461 24.8428 21.0898C24.8428 21.0898 24.8989 20.9485 24.7643 20.7731C24.7643 20.7731 24.9326 20.7392 25.0503 20.5583C25.0503 20.5583 24.6914 21.0118 25.0839 21.1752C25.0839 21.1752 25.5772 21.299 25.6053 20.7844C25.6053 20.7844 25.5651 20.5469 25.7562 20.4621C25.7562 20.4621 26.1493 20.3716 26.3287 19.9334C26.3288 19.9334 25.7636 19.6324 25.8185 19.3652Z" fill="#C8102E" stroke="black" stroke-width="0.04986" stroke-linejoin="round"/>
<path d="M24.6631 14.8552C24.6631 14.8552 24.2219 14.652 24.0126 14.8552C24.0126 14.8552 23.721 14.6746 23.4145 14.8552C23.4145 14.8552 23.1229 15.0457 22.9211 15.2556C22.9211 15.2556 22.7791 15.3772 22.8314 15.7606C22.8314 15.7606 22.9061 16.0309 22.8613 16.1667C22.8613 16.1667 22.7641 16.1474 22.5697 16.3777C22.5697 16.3777 22.323 16.6635 22.1062 16.4113C22.1062 16.4113 22.1734 16.7623 22.5809 16.7057C22.5809 16.7057 22.3828 16.8603 22.5547 17.2599C22.5547 17.2599 22.6818 17.5426 22.48 17.8969C22.48 17.8969 22.8351 17.7537 22.8201 17.3353C22.8201 17.3353 22.7902 17.0526 22.8949 16.8528C22.8949 16.8528 22.7902 17.0344 23.0332 17.422C23.0332 17.422 23.2201 17.7009 23.0668 17.9912C23.0668 17.9912 23.4182 17.863 23.3846 17.437C23.351 17.011 23.1379 17.1882 23.2762 16.7962C23.2762 16.7962 23.3098 16.997 23.4145 17.0983C23.5191 17.1996 23.6537 17.3692 23.5976 17.6519C23.5976 17.6519 23.807 17.3918 23.7584 17.1241C23.7098 16.8565 23.6575 16.7755 23.6575 16.7755L24.3191 16.4004L24.6481 15.8047L24.6631 14.8552Z" fill="#C8102E" stroke="black" stroke-width="0.04986" stroke-linejoin="round"/>
<path d="M23.6575 16.536C23.6575 16.536 23.3846 16.5172 23.3397 16.306" stroke="black" stroke-width="0.049842" stroke-miterlimit="10"/>
<path d="M22.8618 16.1667C22.8618 16.1667 22.9569 16.1629 23.0429 16.2496C23.0429 16.2496 23.1085 16.3476 23.202 16.3363" stroke="black" stroke-width="0.049842" stroke-miterlimit="10"/>
<path d="M24.0613 15.7332C24.0613 15.7332 23.9193 15.7332 23.8408 15.6653C23.8408 15.6653 23.7585 15.6088 23.7099 15.6992C23.7099 15.6992 23.6351 15.8274 23.7734 15.884C23.7734 15.884 23.9454 15.9707 23.6725 16.1441C23.6725 16.1441 23.9977 16.0272 23.8669 15.8689C23.8669 15.8689 23.7249 15.7672 23.7772 15.7294C23.7772 15.7294 23.7922 15.6992 23.8483 15.737C23.9044 15.7747 24.0165 15.7596 24.0613 15.7332Z" fill="black"/>
<path d="M28.5201 16.4533L27.427 12.6785L27.387 12.6893L28.3529 16.5098L28.5201 16.4533Z" fill="#784421" stroke="black" stroke-width="0.03738"/>
<path d="M24.7132 20.6881C24.7132 20.6881 24.4553 20.5432 24.2422 20.7129C24.2422 20.7129 24.264 20.6186 24.427 20.5771C24.427 20.5771 24.5152 20.3283 24.7618 20.3509C24.7618 20.3509 24.6609 20.4715 24.5263 20.5734C24.5263 20.5734 24.6684 20.5881 24.7132 20.6881Z" fill="black"/>
<path d="M23.8049 21.2877C23.8049 21.2877 23.3956 21.0304 23.617 20.5978C23.617 20.5978 23.6815 20.4734 23.8049 20.4989C23.8049 20.4989 24.06 20.578 23.861 20.9315C23.861 20.9315 23.76 21.1605 23.8049 21.2877Z" fill="#64B4D1" stroke="#012169" stroke-width="0.03738" stroke-miterlimit="2.613"/>
<path d="M24.6351 21.6949C24.6351 21.6949 24.0519 21.4292 24.2313 20.9768C24.2313 20.9768 24.2868 20.8241 24.4161 20.8354C24.4161 20.8354 24.641 20.8467 24.596 21.1464C24.596 21.1464 24.5285 21.4405 24.6351 21.6949Z" fill="#64B4D1" stroke="#012169" stroke-width="0.03738" stroke-miterlimit="2.613"/>
<path d="M24.5118 20.0067C24.5118 20.0067 24.3366 20.1361 24.2653 20.2228C24.2653 20.2228 24.194 20.1343 24.1006 20.0805C24.1006 20.0805 24.2082 20.0664 24.2653 20.1148C24.2653 20.1148 24.3547 20.0281 24.5118 20.0067Z" fill="black"/>
<path d="M25.0297 21.5818C25.0297 21.5818 25.4866 21.4659 25.4026 20.9938C25.4026 20.9938 25.3577 20.7874 25.1642 20.8156C25.1642 20.8156 24.9311 20.8752 25.0829 21.1753C25.0829 21.1753 25.1726 21.3896 25.0297 21.5818Z" fill="#64B4D1" stroke="#012169" stroke-width="0.03738" stroke-miterlimit="2.613"/>
<path d="M27.0946 11.5931C27.0946 11.5931 27.389 11.6834 27.5488 11.7485C27.5488 11.7485 27.975 11.9408 28.5161 11.7485C28.5161 11.7485 28.882 11.6036 28.9308 11.5931L28.6506 12.02L28.6366 12.2405L28.8119 12.4978C28.8119 12.4978 28.7067 12.5402 28.3927 12.3479C28.3927 12.3479 28.045 12.0793 27.6301 12.3479C27.6301 12.3479 27.403 12.5017 27.2124 12.4978L27.4815 12.1972L27.3778 11.9266L27.0946 11.5931Z" fill="#F5CE00" stroke="black" stroke-width="0.049842" stroke-miterlimit="2.613"/>
<path d="M25.2072 21.0178C25.2072 21.0178 25.224 20.9952 25.2044 20.9853C25.2044 20.9853 25.1848 20.9768 25.1707 21.0044C25.1707 21.0044 25.1231 21.08 25.1634 21.1835C25.1634 21.1835 25.2016 21.2553 25.183 21.3302C25.183 21.3302 25.1805 21.3514 25.1974 21.3543C25.1974 21.3543 25.2135 21.3487 25.2166 21.3331C25.2166 21.3331 25.2394 21.26 25.2002 21.1884C25.2002 21.1884 25.1526 21.0772 25.2072 21.0178Z" fill="white"/>
<path d="M28.9308 12.2083C28.9308 12.2083 28.9226 12.2762 28.8552 12.2837C28.8552 12.2837 28.785 12.3064 28.7441 12.2189C28.7441 12.2189 28.7394 12.1991 28.7383 12.1895C28.7336 12.1486 28.7196 12.0311 28.8467 11.935C28.8467 11.935 29.0542 11.7654 29.4504 11.9708C29.4504 11.9708 29.7644 12.1216 29.9813 12.2498C29.9813 12.2498 30.542 12.5513 30.6093 12.574C30.6093 12.574 30.856 12.6983 31.2335 12.7135C31.2335 12.7135 31.7494 12.7511 31.968 12.3893C31.968 12.3893 32.1344 12.1141 31.968 11.9388C31.968 11.9388 31.9008 11.8597 31.7901 11.8742C31.7437 11.8804 31.6924 11.9017 31.6428 11.9596C31.6428 11.9596 31.5625 12.0764 31.6559 12.1631C31.6559 12.1631 31.7774 12.2376 31.8204 12.0802C31.8204 12.0802 31.8222 12.0689 31.826 12.083C31.8284 12.0922 31.8558 12.2122 31.7914 12.3139C31.7914 12.3139 31.4802 12.7849 30.6242 12.2968L29.4953 11.6636C29.4953 11.6636 28.9289 11.3734 28.5906 11.8276C28.5906 11.8276 28.3178 12.2046 28.6691 12.4515C28.6691 12.4515 28.9308 12.6079 29.0952 12.3592C29.0952 12.3592 29.2317 12.1141 29.0168 12.0067C29.0168 12.0067 28.828 11.9182 28.7532 12.1066C28.6785 12.2951 28.899 12.3441 28.9196 12.2103C28.9196 12.2102 28.9253 12.1781 28.9308 12.2083Z" fill="#F5CE00" stroke="black" stroke-width="0.049842" stroke-miterlimit="2.613"/>
<path d="M24.456 14.1516C24.456 14.1516 24.456 13.5636 24.456 13.4448C24.456 13.3893 24.4564 13.3431 24.5405 13.2752C24.6245 13.2074 24.7143 13.0999 24.8432 13.4053C24.8432 13.4053 25.0955 13.1396 25.1797 13.1C25.1797 13.1 25.3255 12.9756 25.4264 13.1565C25.4264 13.1565 25.561 12.9529 25.6675 12.902C25.6675 12.902 25.9198 12.7381 25.931 13.23L26.1272 13.049C26.1272 13.049 26.2786 12.9246 26.4469 13.0943C26.4469 13.0943 26.7328 13.3714 26.7721 13.4505C26.7721 13.4505 26.8352 13.5362 26.84 13.6715C26.84 13.6715 26.8393 13.8237 26.9178 13.9085C26.9178 13.9085 27.0074 13.9876 27.0944 14.0046C27.0944 14.0046 27.299 14.0102 27.3719 14.2025C27.3719 14.2025 27.4056 14.1692 27.5065 15.0905V16.7696L26.3738 18.1211L24.5571 17.6009L23.8338 17.3012L23.6712 16.7696L24.3721 16.3173L24.7534 15.2882L24.6301 14.5644L24.456 14.1516Z" fill="#E4CB5E" stroke="black" stroke-width="0.03738" stroke-miterlimit="2.613"/>
<path d="M29.4621 15.0433L29.548 14.9151L29.7537 14.7568C29.7537 14.7568 30.0676 15.5808 30.0826 15.7606V16.0164C30.0826 16.0164 30.5536 16.1365 30.6359 16.8603L30.2472 17.5765L29.6379 17.2372L29.4622 17.1091V15.0433H29.4621Z" fill="#784421" stroke="black" stroke-width="0.03738"/>
<path d="M23.6911 20.7011C23.6911 20.7011 23.7136 20.6714 23.6981 20.6587C23.6981 20.6587 23.6883 20.6445 23.6617 20.6785C23.6617 20.6785 23.5379 20.8169 23.6365 21.0298C23.6365 21.0298 23.6477 21.0602 23.6673 21.0503C23.6673 21.0503 23.6841 21.0418 23.6687 21.0163C23.6687 21.0163 23.5804 20.841 23.6911 20.7011Z" fill="white"/>
<path d="M25.5284 20.5621C25.5284 20.5621 25.5471 20.498 25.5022 20.4302C25.5022 20.4302 25.4724 20.3812 25.4835 20.3171" stroke="black" stroke-width="0.049842" stroke-miterlimit="10"/>
<path d="M25.9314 13.23C25.9314 13.23 25.9331 13.4068 25.9835 13.5369C26.034 13.667 26.2044 13.8919 26.2156 14.0135" stroke="black" stroke-width="0.03738" stroke-miterlimit="10"/>
<path d="M30.2044 19.3652C30.2044 19.3652 30.4904 19.3822 30.6362 19.4557C30.782 19.5292 30.8941 19.6084 31.0623 19.7158C31.0623 19.7158 31.1408 19.8204 31.4716 19.7568C31.4716 19.7568 32.0435 19.6197 32.0435 20.0664C32.0435 20.0664 32.7276 20.1229 32.4473 20.7223C32.4473 20.7223 32.2566 21.1916 31.8641 20.858C31.8641 20.858 32.1164 21.2199 31.6286 21.3613C31.6286 21.3613 31.281 21.4462 31.1801 21.0899C31.1801 21.0899 31.124 20.9485 31.2585 20.7732C31.2585 20.7732 31.0903 20.7393 30.9726 20.5583C30.9726 20.5583 31.3314 21.0119 30.9389 21.1753C30.9389 21.1753 30.4457 21.299 30.4175 20.7845C30.4175 20.7845 30.4578 20.547 30.2666 20.4622C30.2666 20.4622 29.8736 20.3717 29.6942 19.9334C29.6942 19.9335 30.2593 19.6325 30.2044 19.3652Z" fill="#C8102E" stroke="black" stroke-width="0.04986" stroke-linejoin="round"/>
<path d="M25.7053 14.0132L26.1719 17.78" stroke="black" stroke-width="0.03738" stroke-miterlimit="10"/>
<path d="M25.8132 14.0051L26.3366 17.5162" stroke="black" stroke-width="0.03738" stroke-miterlimit="10"/>
<path d="M25.9114 13.9888L26.5143 17.4711" stroke="black" stroke-width="0.03738" stroke-miterlimit="10"/>
<path d="M27.032 17.1147L25.9388 13.3399L25.8988 13.3506L26.8647 17.1713L27.032 17.1147Z" fill="#784421" stroke="black" stroke-width="0.03738"/>
<path d="M26.246 13.8505L27.3499 16.6398" stroke="black" stroke-width="0.03738" stroke-miterlimit="10"/>
<path d="M26.1724 13.8956L27.2378 16.8093" stroke="black" stroke-width="0.03738" stroke-miterlimit="10"/>
<path d="M24.4238 21.4272C24.4238 21.4272 24.2957 21.3044 24.3135 21.0842C24.3135 21.0842 24.321 21.0371 24.2975 21.0305C24.2975 21.0305 24.2724 21.0201 24.2687 21.0747C24.2687 21.0747 24.2331 21.3047 24.3883 21.4366C24.3883 21.4366 24.3989 21.4498 24.416 21.446C24.416 21.446 24.4343 21.4419 24.4238 21.4272Z" fill="white"/>
<path d="M26.2958 13.8124L27.4339 16.3568" stroke="black" stroke-width="0.03738" stroke-miterlimit="10"/>
<path d="M25.9847 13.9706L26.6828 17.3974" stroke="black" stroke-width="0.03738" stroke-miterlimit="10"/>
<path d="M29.5482 14.9151L27.4532 15.5766L27.339 16.5098C26.8418 17.23 25.8315 17.3578 25.8315 17.3578L26.6175 18.1947L28.1277 18.5114L28.9202 17.9007L29.6379 17.2372C29.5632 16.8829 29.6043 16.357 29.6043 16.357C29.6043 16.2685 29.6379 16.0611 29.6379 16.0611C29.6379 16.0611 29.5146 15.2092 29.5482 14.9151Z" fill="#784421" stroke="black" stroke-width="0.022824"/>
<path d="M27.3679 16.2752C27.3679 16.2752 28.7477 15.8444 29.5705 15.4984" stroke="black" stroke-width="0.03738" stroke-miterlimit="10"/>
<path d="M26.7053 17.0618C26.7053 17.0618 28.4267 16.7509 29.6378 16.061L30.0827 15.7606" stroke="black" stroke-width="0.03738" stroke-miterlimit="10"/>
<path d="M30.0822 16.0164L29.6037 16.357C29.6037 16.357 27.6785 17.2448 26.2127 17.2685" stroke="black" stroke-width="0.03738" stroke-miterlimit="10"/>
<path d="M29.6041 16.9878C29.6041 16.9878 28.1242 17.7499 27.2756 17.7612" stroke="black" stroke-width="0.03738" stroke-miterlimit="10"/>
<path d="M23.8733 17.2391C23.8733 17.2391 23.935 16.9469 24.2154 17.0619C24.2154 17.0619 24.3107 16.5832 24.8209 16.5662C25.3312 16.5493 25.3592 17.0638 25.3592 17.0978C25.3592 17.0978 25.5091 16.8769 25.7593 16.9025C25.7593 16.9025 26.1908 16.877 26.0301 17.5698L26.1117 17.6567C26.1117 17.6567 26.4414 16.8829 27.1198 17.0864C27.1198 17.0864 27.7814 17.2881 27.3497 17.929C27.3497 17.929 27.6763 18.353 27.9532 18.3134C28.2301 18.2738 28.4768 18.1891 28.7515 17.7028C29.0263 17.2165 29.6655 17.143 29.8281 17.1712C29.9907 17.1995 30.1192 17.3051 30.1457 17.42C30.1457 17.42 30.4841 16.2904 31.7009 16.4679L32.1887 16.7132L32.3737 16.7981L32.0979 17.5765L31.426 19.0954L30.9158 19.2522L30.3832 18.9469L30.1981 19.046L30.183 19.501L29.4804 20.0067L28.9926 20.2078L28.4543 20.5753L28.3291 20.9039C28.3291 20.9039 28.0318 20.7787 27.6963 20.9039L27.5852 20.6319L27.2713 20.3322L26.0515 19.7568L25.8311 19.046L25.6084 18.9469L25.3592 19.2323L24.9947 19.2748L24.4508 18.9073L23.8733 17.2391Z" fill="white" stroke="#012169" stroke-width="0.049842" stroke-miterlimit="10"/>
<path d="M29.1856 11.7089C29.1856 11.7089 28.7201 11.6882 28.7369 12.1707" stroke="black" stroke-width="0.049842" stroke-miterlimit="2.613"/>
<path d="M29.9621 19.0485C29.9621 19.0485 30.1135 19.028 30.1135 19.163C30.1135 19.163 30.1042 19.3602 29.8639 19.3171C29.8639 19.3171 29.627 19.2652 29.7111 19.0004C29.7111 19.0004 29.7672 18.8138 29.9915 18.8407C29.9915 18.8407 30.2087 18.8506 30.3041 19.1474C30.3041 19.1474 30.377 19.3977 30.2523 19.6125C30.113 19.8523 29.7607 20.0098 29.5906 20.0795C29.5906 20.0795 28.9093 20.3471 28.7061 20.5003C28.7061 20.5003 28.3945 20.7316 28.5323 20.947C28.5323 20.947 28.5856 21.029 28.6655 21.029C28.6655 21.029 28.7566 21.0332 28.772 20.9399C28.772 20.9399 28.7725 20.9381 28.7711 20.9357C28.7711 20.9357 28.7697 20.9357 28.7692 20.938C28.7692 20.938 28.7627 20.995 28.7131 21.0163C28.7131 21.0163 28.6468 21.0497 28.5772 20.9908C28.5772 20.9908 28.5034 20.9201 28.5651 20.8103C28.5651 20.8103 28.6459 20.6751 28.8342 20.7552C28.8342 20.7552 29.0001 20.8372 28.9319 21.0134C28.9319 21.0134 28.8712 21.1756 28.6711 21.1752C28.6711 21.1752 28.5205 21.1702 28.4242 21.0692C28.2739 20.9117 28.2658 20.6048 28.3982 20.4461C28.3982 20.4461 28.5235 20.2774 28.7749 20.1746C28.9205 20.1151 29.1954 19.9956 29.4814 19.8835C29.6824 19.8046 29.8664 19.7102 29.986 19.5687C29.986 19.5687 30.0926 19.45 30.1234 19.2464C30.1234 19.2464 30.1529 19.0937 30.0599 19.0603C30.0599 19.0603 30.0127 19.0391 29.9608 19.0461C29.9608 19.0461 29.9594 19.0462 29.9591 19.0471C29.959 19.0471 29.9569 19.0494 29.9621 19.0485Z" fill="#F5CE00" stroke="black" stroke-width="0.049842" stroke-miterlimit="2.613"/>
<path d="M29.9743 19.0477C29.9743 19.0477 30.1416 19.0175 30.2462 19.2164C30.2462 19.2164 30.3079 19.3445 30.3178 19.4187" stroke="black" stroke-width="0.049842" stroke-miterlimit="2.613"/>
<path d="M27.0949 12.2084C27.0949 12.2084 27.1032 12.2762 27.1705 12.2838C27.1705 12.2838 27.2407 12.3064 27.2816 12.219C27.2816 12.219 27.2863 12.1992 27.2874 12.1895C27.2921 12.1487 27.3061 12.0312 27.179 11.9351C27.179 11.9351 26.9715 11.7655 26.5753 11.9709C26.5753 11.9709 26.2613 12.1217 26.0445 12.2498C26.0445 12.2498 25.4838 12.5514 25.4164 12.574C25.4164 12.574 25.1697 12.6984 24.7922 12.7135C24.7922 12.7135 24.2763 12.7512 24.0577 12.3893C24.0577 12.3893 23.8914 12.1142 24.0577 11.9389C24.0577 11.9389 24.1249 11.8597 24.2356 11.8743C24.282 11.8804 24.3333 11.9018 24.3829 11.9596C24.3829 11.9596 24.4632 12.0765 24.3698 12.1632C24.3698 12.1632 24.2483 12.2377 24.2053 12.0803C24.2053 12.0803 24.2035 12.069 24.1997 12.0831C24.1973 12.0922 24.1698 12.2122 24.2343 12.314C24.2343 12.314 24.5455 12.7849 25.4015 12.2969L26.5304 11.6637C26.5304 11.6637 27.0967 11.3734 27.435 11.8277C27.435 11.8277 27.7079 12.2047 27.3565 12.4516C27.3565 12.4516 27.0949 12.608 26.9304 12.3592C26.9304 12.3592 26.794 12.1142 27.0089 12.0068C27.0089 12.0068 27.1977 11.9182 27.2724 12.1067C27.3472 12.2951 27.1266 12.3442 27.1061 12.2104C27.1061 12.2103 27.1005 12.1783 27.0949 12.2084Z" fill="#F5CE00" stroke="black" stroke-width="0.049842" stroke-miterlimit="2.613"/>
<path d="M24.3307 16.5098C24.8293 16.2269 24.9386 15.5992 24.9386 15.5992C25.0592 14.9744 24.8153 14.4796 24.8153 14.4796C24.4929 13.7983 23.9404 13.6715 23.9404 13.6715C23.9404 13.6715 24.4816 14.047 24.633 14.5531C24.633 14.5531 24.7508 14.98 24.6835 15.4013C24.6162 15.8226 24.6414 15.7151 24.5377 16.0402L24.3307 16.5098Z" fill="#F5CE00" stroke="black" stroke-width="0.049842" stroke-miterlimit="2.613"/>
<path d="M26.8403 11.7089C26.8403 11.7089 27.3059 11.6882 27.289 12.1707" stroke="black" stroke-width="0.049842" stroke-miterlimit="2.613"/>
<path d="M23.7782 16.8347C24.5884 16.5858 24.8099 15.7151 24.8099 15.7151C24.9753 15.062 24.7089 14.4909 24.7089 14.4909C24.3389 13.6218 23.7127 13.622 23.7127 13.622C23.3987 13.6135 23.361 13.8821 23.361 13.8821C23.3314 14.0724 23.465 14.1412 23.465 14.1412C23.6799 14.2581 23.8155 14.0997 23.8155 14.0997C23.9052 13.9829 23.8361 13.8792 23.8361 13.8792C23.7809 13.802 23.6753 13.8359 23.6753 13.8359C23.5917 13.8618 23.6006 13.9664 23.6006 13.9664C23.6001 13.9692 23.5982 13.9692 23.5982 13.9692C23.5945 13.9682 23.5959 13.9668 23.5959 13.9668C23.5959 13.9668 23.5772 13.8387 23.7024 13.8255C23.7024 13.8255 23.9463 13.7727 24.2323 14.129C24.2323 14.129 24.6089 14.6096 24.608 15.2316C24.608 15.2316 24.6556 16.3992 23.4389 16.7018C23.4389 16.7018 23.5706 16.8912 23.8033 17.5754C23.8033 17.5754 24.0668 18.4547 24.3184 18.93C24.3184 18.93 24.6528 19.6082 25.3986 19.3311C25.3986 19.3311 25.8426 19.136 25.8416 18.8137C25.8416 18.8137 25.8724 18.5196 25.6061 18.497C25.6061 18.497 25.3453 18.4772 25.3481 18.7006C25.3481 18.7006 25.3411 18.9423 25.6257 18.8872C25.6257 18.8872 25.7252 18.866 25.707 18.7685C25.707 18.7685 25.6911 18.6808 25.571 18.719C25.571 18.719 25.5673 18.7194 25.5668 18.7175C25.5668 18.7175 25.5654 18.7154 25.5696 18.7142C25.5696 18.7142 25.6161 18.6935 25.6652 18.7106C25.6652 18.7106 25.7091 18.7253 25.7126 18.7938C25.7126 18.7938 25.7154 18.849 25.6565 18.8801C25.6565 18.8801 25.585 18.9055 25.529 18.8999C25.529 18.8999 25.4535 19.0521 25.2829 19.1037C25.0454 19.1755 24.8497 19.1063 24.7299 19.0108C24.5997 18.9069 24.5154 18.7253 24.4902 18.6807C24.465 18.6362 24.2463 18.1464 24.0819 17.6196C24.0819 17.6196 23.9379 17.1653 23.823 16.9278L23.7782 16.8347Z" fill="#F5CE00" stroke="black" stroke-width="0.049842" stroke-miterlimit="2.613"/>
<path d="M26.0646 19.0485C26.0646 19.0485 25.9132 19.028 25.9132 19.163C25.9132 19.163 25.9225 19.3602 26.1628 19.3171C26.1628 19.3171 26.3997 19.2652 26.3156 19.0004C26.3156 19.0004 26.2595 18.8138 26.0352 18.8407C26.0352 18.8407 25.818 18.8506 25.7226 19.1474C25.7226 19.1474 25.6497 19.3978 25.7745 19.6125C25.9137 19.8523 26.266 20.0098 26.4361 20.0795C26.4361 20.0795 27.1174 20.3471 27.3206 20.5003C27.3206 20.5003 27.6322 20.7316 27.4944 20.947C27.4944 20.947 27.4411 21.029 27.3612 21.029C27.3612 21.029 27.2701 21.0332 27.2547 20.9399C27.2547 20.9399 27.2542 20.9381 27.2556 20.9357C27.2556 20.9357 27.257 20.9357 27.2575 20.938C27.2575 20.938 27.264 20.995 27.3136 21.0163C27.3136 21.0163 27.3799 21.0497 27.4495 20.9908C27.4495 20.9908 27.5233 20.9201 27.4617 20.8103C27.4617 20.8103 27.3808 20.6751 27.1925 20.7552C27.1925 20.7552 27.0266 20.8372 27.0948 21.0134C27.0948 21.0134 27.1555 21.1756 27.3556 21.1752C27.3556 21.1752 27.5062 21.1702 27.6025 21.0692C27.7528 20.9117 27.7609 20.6048 27.6285 20.4461C27.6285 20.4461 27.5032 20.2774 27.2518 20.1746C27.1062 20.1151 26.8313 19.9956 26.5453 19.8835C26.3443 19.8046 26.1603 19.7102 26.0407 19.5687C26.0407 19.5687 25.9341 19.45 25.9033 19.2464C25.9033 19.2464 25.8738 19.0937 25.9668 19.0603C25.9668 19.0603 26.014 19.0391 26.0659 19.0461C26.0659 19.0461 26.0673 19.0462 26.0676 19.0471C26.0677 19.0471 26.0698 19.0494 26.0646 19.0485Z" fill="#F5CE00" stroke="black" stroke-width="0.049842" stroke-miterlimit="2.613"/>
<path d="M26.0519 19.0477C26.0519 19.0477 25.8846 19.0175 25.78 19.2164C25.78 19.2164 25.7183 19.3445 25.7083 19.4187" stroke="black" stroke-width="0.049842" stroke-miterlimit="2.613"/>
<path d="M25.654 18.7076C25.654 18.7076 25.8215 18.7367 25.7352 18.9737C25.6539 19.1971 25.5029 19.2703 25.4581 19.3014" stroke="black" stroke-width="0.049842" stroke-miterlimit="2.613"/>
<path d="M27.6087 12.1435C27.6087 12.1435 28.0137 11.8898 28.4273 12.1707" stroke="black" stroke-width="0.049842" stroke-miterlimit="2.613"/>
<path d="M25.3041 14.621C25.3041 14.621 25.3602 14.3948 25.1023 13.999C25.1023 13.999 24.934 13.6371 24.8443 13.4053" stroke="black" stroke-width="0.03738" stroke-miterlimit="2.613"/>
<path d="M25.4267 13.1564C25.4267 13.1564 25.5728 13.5122 25.623 13.6715C25.623 13.6715 25.8041 14.1177 25.8425 14.2082" stroke="black" stroke-width="0.03738" stroke-miterlimit="2.613"/>
<path d="M25.5003 14.8698C25.5003 14.8698 25.6526 15.0338 25.6353 15.3109" stroke="black" stroke-width="0.03738" stroke-miterlimit="10"/>
<path d="M24.9957 14.6945C24.9957 14.6945 25.1639 14.7756 25.1528 15.2223C25.1528 15.2223 25.1359 15.5484 25.3882 15.7124" stroke="black" stroke-width="0.03738" stroke-miterlimit="10"/>
<path d="M24.9727 15.8274C24.9727 15.8274 25.4992 15.7699 25.5282 16.0941C25.5282 16.0941 25.5394 16.4051 25.7188 16.4391C25.7188 16.4391 25.9876 16.4645 26.0409 16.7133" stroke="black" stroke-width="0.03738" stroke-miterlimit="10"/>
<path d="M25.1385 16.1874C25.1385 16.1874 25.2311 16.326 25.3208 16.3853" stroke="black" stroke-width="0.03738" stroke-miterlimit="10"/>
<path d="M25.8138 15.8453C25.8138 15.8453 25.9476 16.048 25.9728 16.1667" stroke="black" stroke-width="0.03738" stroke-miterlimit="10"/>
<path d="M26.3932 13.4053C26.3932 13.4053 26.5165 13.5731 26.6362 13.6522" stroke="black" stroke-width="0.03738" stroke-miterlimit="10"/>
<path d="M26.887 14.3986C26.887 14.3986 27.1487 14.5268 27.1038 15.1865C27.1038 15.1865 27.0702 15.5734 27.1786 15.7845" stroke="black" stroke-width="0.03738" stroke-miterlimit="10"/>
<path d="M25.654 13.9509L25.6708 14.0132C25.6708 14.0132 26.14 14.033 26.3932 13.7135L26.3661 13.6522C26.3661 13.6522 25.9568 13.6314 25.654 13.9509Z" fill="#784421" stroke="black" stroke-width="0.03738"/>
<path d="M27.344 16.4679C27.344 16.4679 28.9665 15.9841 29.5918 15.7021" stroke="black" stroke-width="0.03738" stroke-miterlimit="10"/>
<path d="M27.1508 13.4222L27.9533 13.1169L27.9723 13.1706L27.1696 13.4754L27.1508 13.4222Z" fill="#784421" stroke="black" stroke-width="0.022824"/>
<path d="M27.2377 13.4498L27.7704 16.0612" stroke="black" stroke-width="0.03738" stroke-miterlimit="10"/>
<path d="M27.3306 13.4147L27.9406 16.0141" stroke="black" stroke-width="0.03738" stroke-miterlimit="10"/>
<path d="M27.4343 13.3752L28.1015 15.9556" stroke="black" stroke-width="0.03738" stroke-miterlimit="10"/>
<path d="M27.6959 13.2758L28.6056 15.2128" stroke="black" stroke-width="0.03738" stroke-miterlimit="10"/>
<path d="M27.8165 13.2302L28.7865 15.1558" stroke="black" stroke-width="0.03738" stroke-miterlimit="10"/>
<path d="M27.9058 13.1964L28.955 15.1027" stroke="black" stroke-width="0.03738" stroke-miterlimit="10"/>
<path d="M27.7345 16.0819L28.1462 15.9463" stroke="black" stroke-width="0.03738" stroke-miterlimit="10"/>
<path d="M27.4234 15.8236C27.4234 15.8236 28.6303 15.4711 29.5436 15.1027" stroke="black" stroke-width="0.03738" stroke-miterlimit="10"/>
<path d="M27.4065 15.9556C27.4065 15.9556 28.936 15.5509 29.5429 15.2556" stroke="black" stroke-width="0.03738" stroke-miterlimit="10"/>
<path d="M27.8738 17.1996L27.9539 17.4446L28.1728 17.3745L28.0981 17.1317" stroke="black" stroke-width="0.03738" stroke-miterlimit="10"/>
<path d="M28.4912 17.0237L28.5713 17.2687L28.7903 17.1987L28.7155 16.9559" stroke="black" stroke-width="0.03738" stroke-miterlimit="10"/>
<path d="M27.4532 15.5767L27.4343 15.2452L29.4398 14.6363L29.5482 14.9152" stroke="black" stroke-width="0.03738" stroke-miterlimit="10"/>
<path d="M28.285 14.9869L28.3942 15.2796" stroke="black" stroke-width="0.03738" stroke-miterlimit="10"/>
<path d="M28.9856 14.774L29.1133 15.0524" stroke="black" stroke-width="0.03738" stroke-miterlimit="10"/>
<path d="M29.1526 14.7236L29.272 14.9869" stroke="black" stroke-width="0.03738" stroke-miterlimit="10"/>
<path d="M29.3111 14.6754L29.4367 14.9505" stroke="black" stroke-width="0.03738" stroke-miterlimit="10"/>
<path d="M29.4402 14.6363L29.6607 14.512L29.7542 14.7569" stroke="black" stroke-width="0.03738" stroke-miterlimit="10"/>
<path d="M29.5487 14.5751L29.661 14.8288" stroke="black" stroke-width="0.03738" stroke-miterlimit="10"/>
<path d="M24.5746 18.3926C24.5746 18.3926 24.182 17.9951 24.5746 17.6057C24.5746 17.6057 24.1484 17.3973 24.2157 17.0618" stroke="#012169" stroke-width="0.049842" stroke-miterlimit="10"/>
<path d="M25.2758 18.7075C25.2758 18.7075 24.8693 18.7629 24.9899 17.9713C24.9899 17.9713 24.8216 18.2851 24.7637 18.4464C24.7203 18.5671 24.749 18.762 24.9211 18.8674C24.9898 18.9095 25.3543 19.0044 25.472 18.763" stroke="#012169" stroke-width="0.049842" stroke-miterlimit="10"/>
<path d="M24.8212 17.4965C24.8212 17.4965 24.6558 17.6492 24.7736 17.9291" stroke="#012169" stroke-width="0.049842" stroke-miterlimit="10"/>
<path d="M24.9923 17.533C24.9923 17.533 25.0119 17.8045 25.1465 17.9571" stroke="#012169" stroke-width="0.049842" stroke-miterlimit="10"/>
<path d="M25.1086 17.4257C25.1086 17.4257 25.1074 17.7452 25.3372 17.943" stroke="#012169" stroke-width="0.049842" stroke-miterlimit="10"/>
<path d="M25.2226 17.3155C25.2226 17.3155 25.2248 17.6745 25.4911 17.8951" stroke="#012169" stroke-width="0.049842" stroke-miterlimit="10"/>
<path d="M26.5454 17.8413C26.5454 17.8413 26.68 17.5472 26.9631 17.5614C26.9631 17.5614 26.8257 17.6236 26.8285 17.7612C26.8285 17.7612 26.8117 17.9883 27.0556 18.0109C27.0556 18.0109 27.2519 18.0364 27.35 17.9289" stroke="#012169" stroke-width="0.049842" stroke-miterlimit="10"/>
<path d="M27.2157 19.1842C27.2157 19.1842 26.5176 18.8562 26.5905 18.3841C26.5905 18.3841 26.6185 18.0957 26.9005 17.96" stroke="#012169" stroke-width="0.049842" stroke-miterlimit="10"/>
<path d="M26.7527 18.2596C26.7527 18.2596 26.691 18.4632 26.8284 18.6046" stroke="#012169" stroke-width="0.049842" stroke-miterlimit="10"/>
<path d="M26.9098 18.1212C26.9098 18.1212 26.8257 18.3445 26.9659 18.5113" stroke="#012169" stroke-width="0.049842" stroke-miterlimit="10"/>
<path d="M27.078 18.0128C27.078 18.0128 26.9772 18.1975 27.0978 18.3643" stroke="#012169" stroke-width="0.049842" stroke-miterlimit="10"/>
<path d="M26.4417 19.2323C26.4417 19.2323 26.823 19.5631 27.1202 19.566" stroke="#012169" stroke-width="0.049842" stroke-miterlimit="10"/>
<path d="M26.3217 19.3369C26.3217 19.3369 26.678 19.6253 26.9007 19.6677" stroke="#012169" stroke-width="0.049842" stroke-miterlimit="10"/>
<path d="M26.1866 19.4186C26.1866 19.4186 26.6271 19.8062 26.9003 19.8345" stroke="#012169" stroke-width="0.049842" stroke-miterlimit="10"/>
<path d="M27.9779 20.1908C27.9779 20.1908 27.5449 20.4241 27.8805 20.6707" stroke="#012169" stroke-width="0.049842" stroke-miterlimit="10"/>
<path d="M27.7029 19.9334C27.7029 19.9334 28.1936 19.6761 28.4066 19.58" stroke="#012169" stroke-width="0.049842" stroke-miterlimit="10"/>
<path d="M27.8802 20.0664C27.8802 20.0664 28.5895 19.6338 28.7998 19.5405" stroke="#012169" stroke-width="0.049842" stroke-miterlimit="10"/>
<path d="M28.2444 20.0947C28.2444 20.0947 28.8499 19.6904 29.1751 19.5151" stroke="#012169" stroke-width="0.049842" stroke-miterlimit="10"/>
<path d="M28.6453 20.0805C28.6453 20.0805 29.063 19.7526 29.4668 19.5151" stroke="#012169" stroke-width="0.049842" stroke-miterlimit="10"/>
<path d="M29.6096 19.1053C29.6096 19.1053 29.405 18.8056 28.7321 19.1053C28.7321 19.1053 28.9788 18.8813 29.4666 18.7078" stroke="#012169" stroke-width="0.049842" stroke-miterlimit="10"/>
<path d="M29.0547 18.5991C29.0547 18.5991 29.1948 18.3927 29.5509 18.2909C29.5509 18.2909 29.6469 18.5312 29.9238 18.4775C29.9238 18.4775 30.3416 18.3955 30.2154 17.9375C30.2154 17.9375 30.1286 17.5954 29.6514 17.5615" stroke="#012169" stroke-width="0.049842" stroke-miterlimit="10"/>
<path d="M28.9425 14.6753C28.9425 14.6753 29.0369 14.5221 29.2715 14.5871" stroke="#012169" stroke-width="0.049842" stroke-miterlimit="10"/>
<path d="M23.8475 12.3001C23.8475 12.3001 23.7833 12.2128 23.8095 11.9509C23.8358 11.6889 23.6083 11.6588 23.5208 11.7341C23.5208 11.7341 23.4304 11.8124 23.5136 11.9785C23.5616 12.0744 23.6381 12.1985 23.8475 12.3001Z" fill="#64B4D1" stroke="#012169" stroke-width="0.03738" stroke-miterlimit="2.613"/>
<path d="M23.7619 12.1047C23.7619 12.1047 23.6767 12.013 23.7173 11.814C23.7173 11.814 23.7176 11.7944 23.7064 11.793C23.7064 11.793 23.6857 11.7878 23.6822 11.8074C23.6822 11.8074 23.6364 12.0196 23.7326 12.1349C23.7326 12.1349 23.7502 12.1519 23.762 12.1349C23.7619 12.1348 23.7749 12.1226 23.7619 12.1047Z" fill="white"/>
<path d="M23.9201 12.2051C23.9201 12.2051 23.9268 12.0995 24.1094 11.92C24.2919 11.7406 24.1418 11.5752 24.03 11.5766C24.03 11.5766 23.9142 11.5784 23.8725 11.7549C23.8485 11.8568 23.8281 11.9977 23.9201 12.2051Z" fill="#64B4D1" stroke="#012169" stroke-width="0.03738" stroke-miterlimit="2.613"/>
<path d="M23.9486 11.9754C23.9486 11.9754 23.9453 11.846 24.1106 11.711C24.1106 11.711 24.124 11.6953 24.1163 11.687C24.1163 11.687 24.1041 11.6694 24.0881 11.683C24.0881 11.683 23.9102 11.8254 23.9059 11.9809C23.9059 11.9809 23.9078 12.0061 23.9282 11.9999C23.9282 11.9998 23.9464 11.9983 23.9486 11.9754Z" fill="white"/>
<path d="M24.1675 12.1256C24.1675 12.1256 24.2152 12.0395 24.4406 11.9596C24.6661 11.8796 24.6051 11.6827 24.5103 11.6405C24.5103 11.6405 24.4118 11.5972 24.3065 11.7292C24.2456 11.8055 24.1723 11.9159 24.1675 12.1256Z" fill="#64B4D1" stroke="#012169" stroke-width="0.03738" stroke-miterlimit="2.613"/>
<path d="M24.2664 11.9674C24.2664 11.9674 24.3176 11.8488 24.524 11.7968C24.524 11.7968 24.5428 11.7883 24.5393 11.7775C24.5393 11.7775 24.5356 11.7563 24.5154 11.7619C24.5154 11.7619 24.2944 11.815 24.2254 11.9542C24.2254 11.9542 24.2166 11.9778 24.2377 11.9809C24.2377 11.9809 24.2548 11.9873 24.2664 11.9674Z" fill="white"/>
<path d="M24.0264 12.2117C24.0264 12.2117 24.1315 12.2412 24.3729 12.1248C24.6143 12.0083 24.72 12.211 24.6777 12.3194C24.6777 12.3194 24.6335 12.4316 24.4467 12.4119C24.3388 12.4005 24.1943 12.3723 24.0264 12.2117Z" fill="#64B4D1" stroke="#012169" stroke-width="0.03738" stroke-miterlimit="2.613"/>
<path d="M24.5879 12.2887C24.5879 12.2887 24.4785 12.3562 24.2799 12.2794C24.2799 12.2794 24.2597 12.2755 24.2564 12.2864C24.2564 12.2864 24.2474 12.3059 24.2671 12.313C24.2671 12.313 24.4783 12.3972 24.614 12.3232C24.614 12.3232 24.6347 12.3089 24.6191 12.2942C24.6191 12.2942 24.6088 12.2791 24.5879 12.2887Z" fill="white"/>
<path d="M24.3794 11.4487C24.3794 11.4487 24.2589 11.5072 24.2869 11.6485" stroke="black" stroke-width="0.049842" stroke-miterlimit="2.613"/>
<path d="M23.847 11.4686C23.847 11.4686 23.7999 11.6179 23.8519 11.6983" stroke="black" stroke-width="0.049842" stroke-miterlimit="10"/>
<path d="M29.0798 10.0975C29.0798 10.0975 29.1561 10.3155 29.1232 10.5131C29.0937 10.6898 29.1339 10.7355 29.1978 10.7704C29.253 10.8007 29.3811 10.7478 29.3965 10.6092C29.3965 10.6092 29.5479 10.9047 29.2535 11.104C29.2535 11.104 29.0418 11.2341 28.8624 11.0602C28.7992 10.9989 28.7713 10.8298 28.8021 10.6728C28.8021 10.6728 28.8485 10.4601 28.7713 10.2417C28.7713 10.2417 28.8918 10.3703 28.861 10.6268C28.861 10.6268 28.7993 11.087 29.1399 11.0644C29.1399 11.0644 29.3754 11.0616 29.3825 10.776C29.3825 10.776 29.2941 10.8778 29.1848 10.8439C29.1074 10.8199 29.0362 10.7449 29.0489 10.6268C29.0621 10.5029 29.0966 10.2869 29.0798 10.0975Z" fill="black"/>
<path d="M28.6942 10.8533C28.6942 10.8533 28.6754 11.217 28.3428 11.3056C28.3428 11.3056 28.3895 11.2397 28.3148 11.0587C28.3148 11.0587 28.2419 10.9532 28.2475 10.7892C28.2475 10.7892 28.1416 10.872 28.2625 11.0907C28.3354 11.2227 28.2718 11.381 28.2494 11.3867C28.2269 11.3923 28.7989 11.3112 28.6942 10.8533Z" fill="black"/>
<path d="M28.2619 10.4913C28.2619 10.4913 28.1816 10.4008 28.176 10.1916C28.1704 9.9824 28.1311 9.93152 28.1031 9.90698C28.1031 9.90698 28.1442 10.0879 28.1329 10.1991C28.1217 10.3103 28.1404 10.3744 28.1554 10.4272C28.1554 10.4272 27.9741 10.4554 27.8601 10.1916C27.7511 9.93932 27.6414 9.95972 27.5872 9.96158C27.5872 9.96158 27.6504 9.9686 27.7778 10.1991C27.9051 10.4293 27.9405 10.4763 28.2619 10.4913Z" fill="black"/>
<path d="M27.4141 9.94482C27.4141 9.94482 27.5188 10.1955 27.5225 10.3274C27.5225 10.3274 27.2795 10.2464 27.2141 10.0353C27.2141 10.0353 26.9543 10.1239 27.0496 10.4236C27.0496 10.4236 26.8253 10.3444 26.7244 10.1615C26.7244 10.1615 26.8496 10.2558 26.9655 10.2973C26.9655 10.2973 26.9524 10.056 27.2552 9.96552C27.2552 9.96552 27.3002 10.1816 27.4514 10.2332C27.4514 10.2332 27.4402 10.0975 27.4141 9.94482Z" fill="black"/>
<path d="M27.8139 9.51508C27.8139 9.51508 27.898 9.6376 28.07 9.64324C28.1522 9.64594 28.2406 9.6274 28.3261 9.51508C28.3261 9.51508 28.3148 9.72808 28.07 9.72994C28.07 9.72994 27.8139 9.73936 27.8139 9.51508Z" fill="black"/>
<path d="M26.754 10.971C26.754 10.971 26.8815 11.0869 26.9082 11.1251C26.9082 11.1251 26.9979 11.2127 27.0749 11.0994C27.0749 11.0994 27.1731 10.9181 27.2937 10.9229C27.2937 10.9229 27.2082 10.9823 27.112 11.1537C27.112 11.1537 27.0862 11.2169 27.0147 11.224C26.9812 11.2273 26.9389 11.2382 26.875 11.1714C26.875 11.1714 26.8198 11.1039 26.754 10.971Z" fill="black"/>
<path d="M28.0701 8.66119C27.814 8.66107 28.0299 8.85907 28.0299 8.85907C28.0355 9.17287 27.7837 9.26947 27.6122 9.17857C27.4407 9.08761 27.5748 8.85907 27.5748 8.85907C27.5748 8.85907 27.3814 8.98627 27.5047 9.17005C27.6281 9.35383 27.9514 9.27181 28.0701 9.10219C28.1888 9.27181 28.5121 9.35383 28.6355 9.17005C28.7588 8.98627 28.5654 8.85907 28.5654 8.85907C28.5654 8.85907 28.6995 9.08761 28.528 9.17857C28.3565 9.26947 28.1047 9.17293 28.1103 8.85907C28.1103 8.85907 28.3261 8.66107 28.0701 8.66119Z" fill="black"/>
<path d="M28.2245 8.3219C28.2245 8.3219 28.3142 8.4746 28.2946 8.70638C28.2946 8.70638 28.3759 8.47454 28.2245 8.3219Z" fill="black"/>
<path d="M27.4396 8.68102C27.4396 8.68102 27.42 8.51422 27.2574 8.50006C27.2574 8.50006 27.3948 8.59906 27.4396 8.68102Z" fill="black"/>
<path d="M28.7014 8.68102C28.7014 8.68102 28.721 8.51422 28.8836 8.50006C28.8836 8.50006 28.7462 8.59906 28.7014 8.68102Z" fill="black"/>
<path d="M27.182 8.93537C27.182 8.93537 27.311 8.97497 27.3895 8.87885C27.3895 8.87885 27.2409 8.91839 27.182 8.93537Z" fill="black"/>
<path d="M26.7636 7.91192C26.7636 7.91192 26.9136 7.89494 27.0636 8.11832C27.0636 8.11832 26.915 8.19746 26.8786 8.24552C26.8786 8.24552 26.8786 8.17202 26.9515 8.10698C26.9514 8.10704 26.9234 7.99394 26.7636 7.91192Z" fill="black"/>
<path d="M29.2757 7.91192C29.2757 7.91192 29.1257 7.89494 28.9757 8.11832C28.9757 8.11832 29.1243 8.19746 29.1607 8.24552C29.1607 8.24552 29.1607 8.17202 29.0878 8.10698C29.0878 8.10704 29.1159 7.99394 29.2757 7.91192Z" fill="black"/>
<path d="M28.1183 8.07856C28.1183 8.07856 28.2529 8.11546 28.4211 8.02216C28.4211 8.02216 28.6286 7.91188 28.7603 8.02216C28.7603 8.02216 28.6454 7.97098 28.4239 8.07856C28.4239 8.07856 28.2024 8.2 28.1183 8.07856Z" fill="black"/>
<path d="M28.2589 8.21444C28.2589 8.21444 28.3738 8.01284 28.7243 8.05286C28.7243 8.05286 28.6289 8.33318 28.2589 8.21444Z" fill="white"/>
<path d="M28.5 8.23971C28.5382 8.23971 28.5693 8.20038 28.5693 8.15187C28.5693 8.10335 28.5382 8.06403 28.5 8.06403C28.4617 8.06403 28.4307 8.10335 28.4307 8.15187C28.4307 8.20038 28.4617 8.23971 28.5 8.23971Z" fill="#784421"/>
<path d="M28.5002 8.20572C28.5229 8.20572 28.5413 8.1816 28.5413 8.15184C28.5413 8.12208 28.5229 8.09796 28.5002 8.09796C28.4774 8.09796 28.459 8.12208 28.459 8.15184C28.459 8.1816 28.4774 8.20572 28.5002 8.20572Z" fill="black"/>
<path d="M27.5064 7.78481C27.5064 7.78481 27.7279 7.79897 27.8624 7.88375C27.8624 7.88375 28.0054 7.96859 28.168 7.84697C28.168 7.84697 28.3448 7.74521 28.4583 7.60385C28.4583 7.60385 28.1876 7.79045 28.0867 7.81871C28.0867 7.81871 27.9942 7.74803 27.9578 7.64627C27.9578 7.64627 27.9718 7.56995 28.1176 7.42859C28.1176 7.42859 27.9213 7.48799 27.8821 7.65479C27.8821 7.65479 27.9185 7.75655 27.9942 7.83575C27.9942 7.83575 27.9578 7.85273 27.8624 7.79333C27.8624 7.79333 27.655 7.72259 27.5064 7.78481Z" fill="black"/>
<path d="M28.0697 9.11493C27.8781 9.28035 28.0697 9.26337 28.0697 9.26337C28.0697 9.26337 28.2613 9.28035 28.0697 9.11493Z" fill="black"/>
<path d="M27.9592 8.07856C27.9592 8.07856 27.8246 8.11546 27.6563 8.02216C27.6563 8.02216 27.4489 7.91188 27.3171 8.02216C27.3171 8.02216 27.4321 7.97098 27.6535 8.07856C27.6535 8.07856 27.875 8.2 27.9592 8.07856Z" fill="black"/>
<path d="M27.8187 8.21444C27.8187 8.21444 27.7037 8.01284 27.3533 8.05286C27.3533 8.05286 27.4486 8.33318 27.8187 8.21444Z" fill="white"/>
<path d="M27.5769 8.23971C27.6152 8.23971 27.6462 8.20038 27.6462 8.15187C27.6462 8.10335 27.6152 8.06403 27.5769 8.06403C27.5387 8.06403 27.5076 8.10335 27.5076 8.15187C27.5076 8.20038 27.5387 8.23971 27.5769 8.23971Z" fill="#784421"/>
<path d="M27.5765 8.20572C27.5992 8.20572 27.6177 8.1816 27.6177 8.15184C27.6177 8.12208 27.5992 8.09796 27.5765 8.09796C27.5538 8.09796 27.5353 8.12208 27.5353 8.15184C27.5353 8.1816 27.5538 8.20572 27.5765 8.20572Z" fill="black"/>
<path d="M34.8386 6.40088V19.1051C34.8386 22.4985 28.0548 23.6011 28.0548 23.6011C28.0548 23.6011 21.2711 22.4985 21.2711 19.1051V6.40088H34.8386Z" stroke="black" stroke-width="0.12"/>
</g>
<defs>
<clipPath id="clip0_1_13360">
<rect y="0.0010376" width="30" height="30" rx="15" fill="white"/>
</clipPath>
</defs>
</svg>
