<svg width="30" height="30" viewBox="0 0 30 30" fill="none" xmlns="http://www.w3.org/2000/svg">
<path d="M15.003 30.0001C19.4987 30.0001 23.5207 28.017 26.2662 24.8811L0.246094 17.6556C1.50215 24.6753 7.62454 30.0001 15.003 30.0001Z" fill="#F7E017"/>
<path d="M15.0055 4.57764e-05C10.5098 4.57764e-05 6.48768 1.98311 3.73535 5.11897L29.7556 12.3445C28.4995 5.33169 22.3771 4.57764e-05 15.0055 4.57764e-05Z" fill="#F7E017"/>
<path d="M29.3414 19.4053C29.767 18.0123 30.0003 16.5302 30.0003 15C30.0003 14.0874 29.9042 13.2091 29.7532 12.3445L3.733 5.11896C2.18181 6.88931 1.04242 9.02334 0.452148 11.3838L29.3414 19.4053Z" fill="white"/>
<path d="M0 14.9997C0 15.9055 0.0960814 16.7906 0.247082 17.6552L26.2672 24.8807C27.6468 23.3094 28.7176 21.4498 29.3422 19.405L0.452942 11.3835C0.164668 12.5432 0 13.7509 0 14.9997Z" fill="black"/>
<path d="M14.9348 5.74341H15.024C15.1681 5.75713 15.3122 5.82575 15.3946 5.94926C15.5044 6.0865 15.5251 6.27863 15.4496 6.43645C15.4084 6.52566 15.3466 6.59428 15.2711 6.64917C15.223 6.66976 15.2436 6.73838 15.2367 6.77955C15.3946 6.80013 15.5456 6.83444 15.6829 6.90305C15.8476 6.97853 15.9849 7.09519 16.1153 7.2187C16.2045 7.29418 16.3212 7.33535 16.431 7.37652C16.5614 7.42455 16.7055 7.40397 16.8428 7.41083C16.9046 7.41083 16.9595 7.47259 16.9458 7.52748C16.9252 7.58924 16.8771 7.63727 16.8291 7.67844C16.6918 7.80196 16.5409 7.90489 16.3967 8.00095C16.4997 8.19308 16.6095 8.37835 16.7124 8.57048C16.582 8.59793 16.4447 8.59793 16.3143 8.56362C16.0398 8.495 15.7927 8.37149 15.5524 8.22053C15.4632 8.16563 15.3534 8.15877 15.2505 8.14505C15.2505 8.25484 15.2505 8.37149 15.2505 8.48128C15.5113 8.48814 15.7859 8.495 16.0261 8.61851C16.1565 8.68027 16.2663 8.79692 16.3212 8.93416C16.4996 9.27725 16.6026 9.67523 16.5477 10.0664C16.534 10.1556 16.5065 10.2585 16.4241 10.3065C16.3281 10.3546 16.2251 10.2928 16.1702 10.2105C16.0672 10.0595 16.0329 9.88109 15.9711 9.71641C15.9368 9.85365 15.9094 9.99088 15.8476 10.1144C15.8133 10.183 15.7446 10.2516 15.6623 10.2516C15.5936 10.2585 15.5319 10.2173 15.4976 10.1624C15.4152 10.0458 15.3809 9.90167 15.3328 9.7713C15.3054 9.85364 15.2574 9.93598 15.2574 10.0183C15.2574 10.2448 15.2574 10.4712 15.2574 10.6908C15.4633 10.581 15.6966 10.5261 15.9231 10.5604C16.1427 10.5947 16.3487 10.6702 16.5546 10.7457C17.0762 10.9378 17.5909 11.1437 18.1195 11.3015C18.5587 11.4319 19.0187 11.5279 19.4785 11.4936C19.7874 11.4936 20.1031 11.4524 20.4188 11.4868C20.5081 11.4936 20.611 11.5142 20.6591 11.5965C20.7002 11.6652 20.6728 11.7406 20.6247 11.7955C20.5286 11.9191 20.3845 12.0083 20.2404 12.07C20.2472 12.1455 20.2198 12.2347 20.158 12.2827C19.9864 12.4268 19.7668 12.468 19.554 12.5092C19.5609 12.5915 19.5197 12.667 19.4648 12.715C20.0894 13.4081 20.4737 14.2932 20.6316 15.2127C20.8718 16.6057 20.611 18.0878 19.9109 19.3161C19.4236 20.1807 18.696 20.9218 17.8175 21.3884C16.7468 21.9716 15.4838 22.1569 14.2758 22.0265C13.5208 21.9442 12.7727 21.7177 12.107 21.3472C11.4686 20.9904 10.9058 20.4895 10.4665 19.9062C9.48502 18.5887 9.08692 16.8596 9.34774 15.247C9.49874 14.3276 9.86933 13.4287 10.5008 12.7356C10.4322 12.6807 10.3773 12.6052 10.3773 12.516C10.1782 12.4817 9.96542 12.4406 9.80755 12.3102C9.73205 12.2553 9.69772 12.1661 9.71145 12.0769C9.56045 12.0083 9.40948 11.9259 9.31339 11.7887C9.26534 11.7269 9.25849 11.6171 9.32713 11.5622C9.43008 11.4799 9.56737 11.4868 9.68405 11.473C10.1714 11.4662 10.6587 11.5417 11.1391 11.4593C11.7088 11.3632 12.2442 11.1711 12.7796 10.9721C13.1365 10.8417 13.4934 10.6908 13.8571 10.5879C14.1385 10.5055 14.4474 10.5535 14.7151 10.6839C14.7151 10.4781 14.7151 10.2791 14.7151 10.0732C14.722 9.95657 14.6533 9.86737 14.619 9.76444C14.5709 9.89482 14.5366 10.0252 14.4611 10.1487C14.4268 10.1967 14.3788 10.2448 14.3102 10.2516C14.2209 10.2585 14.1523 10.1967 14.1111 10.1281C14.0425 10.0046 14.015 9.8605 13.9738 9.72327C13.9121 9.89481 13.8915 10.0938 13.7748 10.2379C13.7199 10.3134 13.5826 10.3546 13.5071 10.2791C13.4247 10.1967 13.4178 10.0732 13.4041 9.97029C13.3767 9.66151 13.4316 9.35273 13.562 9.0714C13.6101 8.95474 13.6649 8.83123 13.7542 8.73517C13.8571 8.63224 13.9876 8.57048 14.1248 8.53617C14.317 8.48814 14.516 8.48814 14.7082 8.48128C14.7082 7.87744 14.7082 7.27359 14.7082 6.66289C14.5984 6.59427 14.5023 6.49135 14.468 6.36783C14.4268 6.2306 14.4543 6.07277 14.5366 5.95612C14.6396 5.83947 14.7906 5.76399 14.9348 5.74341Z" fill="#040102"/>
<path d="M14.8652 5.91498C15.0437 5.84637 15.2634 5.94929 15.332 6.13456C15.3801 6.26494 15.332 6.42276 15.2153 6.51196C15.1192 6.58744 14.9888 6.60803 14.8652 6.57372C14.728 6.53255 14.6182 6.39531 14.6182 6.25121C14.6182 6.09339 14.7211 5.95616 14.8652 5.91498Z" fill="#CE1125"/>
<path d="M14.8787 6.72457C14.9542 6.73143 15.0229 6.73143 15.0984 6.72457C15.0984 6.73143 15.0915 6.75888 15.0846 6.76574C15.0297 6.7726 14.9817 6.77947 14.9199 6.77947C14.9268 7.23235 14.9404 7.68523 14.9404 8.13811C14.9885 8.14497 15.0435 8.15183 15.0984 8.15183C15.0984 8.28907 15.0984 8.42631 15.0984 8.56354C15.0984 8.59099 15.1052 8.61843 15.0915 8.64588C15.0366 8.68019 14.9542 8.68019 14.8993 8.65274C14.865 8.63216 14.8787 8.59785 14.8787 8.56354C14.8787 7.9597 14.8787 7.34214 14.8787 6.72457Z" fill="#CE1125"/>
<path d="M15.0781 6.92374C15.3458 6.92374 15.6203 6.99235 15.8331 7.1639C15.9292 7.23252 16.0047 7.32172 16.1077 7.38348C16.293 7.50013 16.5194 7.56875 16.746 7.55502C16.6018 7.6854 16.4371 7.78833 16.2861 7.90498C16.2518 7.92556 16.2175 7.97359 16.2449 8.0079C16.3136 8.152 16.4028 8.28238 16.4715 8.42647C16.2381 8.39216 16.0115 8.28924 15.8056 8.17945C15.7095 8.12455 15.6272 8.05594 15.5174 8.02849C15.387 7.98046 15.236 7.99418 15.1056 8.00104C15.0782 7.65109 15.0781 7.28741 15.0781 6.92374Z" fill="#CE1125"/>
<path d="M14.1314 8.70055C14.3235 8.6388 14.5295 8.6388 14.7285 8.63194C14.7422 8.72114 14.804 8.79662 14.8863 8.82407C14.9893 8.85151 15.1197 8.85151 15.2021 8.76917C15.2364 8.74172 15.2433 8.68683 15.2639 8.64566C15.5041 8.63879 15.7649 8.64566 15.9776 8.76917C15.758 8.85837 15.5178 8.8721 15.2844 8.88582C15.0305 8.90641 14.7834 8.88582 14.5294 8.8721C14.3578 8.85151 14.1794 8.84465 14.0146 8.76917C14.0352 8.728 14.0902 8.71428 14.1314 8.70055Z" fill="#CE1125"/>
<path d="M13.8636 8.86537C13.8911 8.86537 13.9048 8.8791 13.9322 8.88596C14.0558 8.94772 14.1999 8.9683 14.3441 8.98888C14.5774 9.02319 14.8177 9.0232 15.051 9.0232C15.305 9.0232 15.5658 9.00947 15.8198 8.96144C15.9227 8.94085 16.0188 8.90655 16.1081 8.85851C16.2659 9.08495 16.3551 9.35257 16.4032 9.62018C16.4237 9.80545 16.4444 10.0044 16.3551 10.1828C16.3277 10.1554 16.2865 10.1279 16.2728 10.0936C16.1973 9.9564 16.1698 9.79858 16.1081 9.65448C16.0875 9.59959 16.06 9.5447 16.0051 9.52411C15.9433 9.50353 15.8884 9.54469 15.8679 9.59959C15.7855 9.76427 15.7923 9.97699 15.6619 10.1211C15.5246 9.97013 15.5109 9.75741 15.4286 9.579C15.4148 9.53097 15.3599 9.50353 15.3119 9.52411C15.2707 9.5447 15.2501 9.59273 15.2364 9.6339C15.1815 9.778 15.1471 9.93582 15.051 10.0525C15.0236 10.0936 14.9619 10.0936 14.9344 10.0525C14.8246 9.90837 14.7902 9.72996 14.7147 9.56528C14.6873 9.49666 14.5843 9.49666 14.5569 9.56528C14.4676 9.74369 14.4471 9.96327 14.3167 10.1211C14.1725 9.97013 14.1999 9.73683 14.0901 9.56528C14.0489 9.49666 13.9392 9.51038 13.9049 9.579C13.8156 9.74369 13.8087 9.94954 13.7126 10.1142C13.6921 10.1417 13.6646 10.1623 13.6303 10.1828C13.5411 9.94954 13.5616 9.68879 13.6165 9.44863C13.6509 9.31826 13.692 9.19474 13.7469 9.07809C13.7744 9.00947 13.8019 8.92713 13.8636 8.86537Z" fill="#CE1125"/>
<path d="M14.8662 10.2102C14.9486 10.2514 15.0378 10.2445 15.1133 10.2033C15.1133 10.3886 15.1133 10.5807 15.1133 10.7729C15.0241 10.7934 14.9486 10.7866 14.8662 10.766C14.8662 10.5807 14.8662 10.3955 14.8662 10.2102Z" fill="#CE1125"/>
<path d="M13.5276 10.8624C13.706 10.8006 13.8914 10.732 14.0698 10.7114C14.2551 10.6977 14.4267 10.732 14.5915 10.8075C14.7219 10.8692 14.8591 10.9379 15.0033 10.931C15.1405 10.931 15.2572 10.8692 15.3738 10.8144C15.5866 10.7046 15.8406 10.684 16.0671 10.7526C16.4171 10.8487 16.7467 10.9928 17.083 11.1163C17.6389 11.3221 18.2017 11.528 18.7852 11.6241C19.2656 11.7064 19.7529 11.6309 20.2402 11.6378C20.3432 11.6378 20.4392 11.6446 20.5285 11.6927C20.3843 11.8711 20.1647 11.9809 19.9313 12.0083C19.5058 12.0632 19.0734 12.0083 18.6478 11.9534C18.5929 11.9397 18.538 11.9877 18.5517 12.0426C18.5586 12.0975 18.6204 12.1044 18.6616 12.1112C19.094 12.1661 19.5401 12.2142 19.9794 12.1524C20.0137 12.1455 20.0481 12.1456 20.0755 12.1387C20.0069 12.2416 19.8902 12.2828 19.7735 12.3171C19.4509 12.4132 19.1146 12.4269 18.7714 12.4132C18.3459 12.3857 17.934 12.2896 17.529 12.1661C17.481 12.1456 17.4193 12.1799 17.4193 12.2348C17.4193 12.2896 17.4673 12.3102 17.5085 12.3171C17.9478 12.4543 18.3939 12.5435 18.8538 12.5641C19.0322 12.571 19.2176 12.5573 19.396 12.5504C19.3686 12.6259 19.2793 12.6259 19.2107 12.6396C19.0391 12.667 18.8675 12.7082 18.6959 12.7288C18.2841 12.7288 17.8654 12.7151 17.4536 12.6259C17.2682 12.5847 17.0761 12.523 16.9114 12.4132C16.8702 12.3857 16.8221 12.4063 16.8015 12.4475C16.7672 12.5024 16.8358 12.5435 16.877 12.571C17.1653 12.7425 17.5016 12.7974 17.8311 12.8386C18.037 12.8592 18.2497 12.8729 18.4625 12.8729C18.2978 13.0101 18.0713 12.9964 17.8654 12.9896C17.4673 12.9621 17.0692 12.8935 16.6848 12.7768C16.4583 12.7014 16.2319 12.6122 16.0534 12.4543C16.026 12.42 15.9573 12.42 15.9367 12.4681C15.9093 12.5092 15.9435 12.5504 15.9778 12.5778C16.0465 12.6396 16.122 12.6945 16.1975 12.7425C16.2799 12.7906 16.376 12.7974 16.4652 12.818C16.726 12.8798 16.9869 12.9347 17.2546 12.9964C17.2477 13.0856 17.1721 13.1474 17.0898 13.1611C16.8289 13.1954 16.5819 13.1474 16.3416 13.0719C16.0328 12.969 15.7308 12.8111 15.5112 12.5641C15.4906 12.5435 15.47 12.5161 15.4357 12.5161C15.3739 12.5092 15.3259 12.5847 15.3671 12.6327C15.5318 12.8317 15.7582 12.9758 15.9847 13.0925C15.6896 13.0444 15.4013 12.9347 15.168 12.7425C15.0788 12.667 15.0101 12.571 14.9483 12.4749C14.8934 12.5504 14.8522 12.6259 14.7767 12.6808C14.5914 12.818 14.3718 12.9209 14.1522 12.9827C14.0629 13.0101 13.9668 13.0307 13.8639 13.017C13.8295 13.0101 13.7953 12.969 13.809 12.9347C13.8433 12.8386 13.9256 12.77 14.0011 12.7082C14.2894 12.4955 14.6463 12.3651 14.9964 12.2896C15.0376 12.2828 15.0719 12.2485 15.065 12.2073C15.065 12.1524 15.0032 12.1318 14.9552 12.1456C14.5983 12.221 14.2482 12.3514 13.9531 12.5641C13.96 12.5298 13.9806 12.4886 13.9531 12.4612C13.9256 12.42 13.857 12.4337 13.8227 12.4681C13.6855 12.6053 13.5001 12.6808 13.3216 12.7494C13.0745 12.8386 12.8206 12.8935 12.5666 12.9347C12.3195 12.9758 12.0793 13.0101 11.8391 13.0033C11.7018 12.9964 11.5439 12.9827 11.4341 12.8866C11.8185 12.8729 12.2029 12.8592 12.5735 12.7631C12.7451 12.7219 12.9098 12.6602 13.0539 12.5573C13.0882 12.5367 13.1089 12.5092 13.102 12.4681C13.102 12.4269 13.054 12.4132 13.0265 12.3994C12.8687 12.5092 12.6902 12.5778 12.5117 12.619C12.1274 12.7082 11.7361 12.7288 11.338 12.7357C11.139 12.7562 10.9468 12.6945 10.7409 12.667C10.6516 12.6465 10.5418 12.6465 10.4938 12.5573C10.583 12.5573 10.6722 12.571 10.7615 12.571C11.2968 12.5916 11.8254 12.4886 12.3333 12.3377C12.3745 12.324 12.4088 12.3171 12.45 12.2965C12.4912 12.2691 12.4843 12.2004 12.4431 12.173C12.4157 12.1593 12.3882 12.1661 12.3608 12.173C11.8117 12.3445 11.235 12.4543 10.6516 12.4132C10.4526 12.3994 10.2604 12.372 10.082 12.3102C9.98589 12.2759 9.88293 12.2348 9.82116 12.1456C10.0065 12.1661 10.1987 12.1867 10.3772 12.1867C10.686 12.1799 10.9949 12.1593 11.2969 12.1044C11.3792 12.0975 11.3655 11.9466 11.2763 11.9603C10.8919 12.0083 10.5007 12.0563 10.1095 12.0289C9.95846 12.0152 9.80058 11.9946 9.6633 11.9191C9.55349 11.8642 9.43677 11.7956 9.375 11.6789C9.54659 11.6172 9.73194 11.6378 9.91726 11.6378C10.1575 11.6446 10.4046 11.6584 10.6448 11.6584C10.9606 11.6652 11.2763 11.6035 11.5852 11.528C12.2715 11.3496 12.8961 11.0888 13.5276 10.8624Z" fill="#CE1125"/>
<path d="M12.6885 13.0651C13.0934 12.9759 13.5121 12.8867 13.8553 12.6534C13.8004 12.7152 13.7455 12.7769 13.7112 12.8524C13.6906 12.9073 13.6974 12.9622 13.6974 13.0239C13.4366 13.1131 13.1689 13.1818 12.9012 13.1612C12.8188 13.1612 12.7365 13.1269 12.6885 13.0651Z" fill="#CE1125"/>
<path d="M14.8028 12.8589C14.8577 12.804 14.9195 12.7697 14.9744 12.7217C15.0361 12.7834 15.0979 12.8452 15.1734 12.9001C15.1734 13.1128 15.1734 13.3187 15.1734 13.5314C15.1117 13.4628 15.0567 13.3873 14.9812 13.3392C14.9057 13.3804 14.8577 13.4628 14.7959 13.5245C14.8028 13.3049 14.8028 13.0785 14.8028 12.8589Z" fill="#CE1125"/>
<path d="M18.9284 12.8453C19.052 12.8179 19.1755 12.8042 19.2991 12.7767C19.8139 13.3119 20.1639 13.9913 20.3629 14.698C20.7404 16.0635 20.5963 17.5526 20.006 18.8289C19.5873 19.7346 18.9216 20.5375 18.0773 21.0795C17.5626 21.4158 16.9792 21.6559 16.382 21.7863C15.7231 21.9373 15.0436 21.9716 14.3709 21.903C13.6777 21.8343 12.9913 21.6491 12.3667 21.3334C11.7078 20.9972 11.1244 20.5169 10.6645 19.9336C9.72421 18.7397 9.30551 17.1683 9.44965 15.6587C9.53201 14.7941 9.81343 13.9364 10.3213 13.2159C10.4243 13.0718 10.5478 12.9277 10.6645 12.7904C10.7949 12.8042 10.9323 12.8385 11.0627 12.8591C10.6097 13.6893 10.493 14.6774 10.644 15.6038C10.7607 16.3586 11.0626 17.086 11.5156 17.7035C11.9137 18.2456 12.4423 18.6916 13.0463 18.9867C13.7601 19.3366 14.5631 19.467 15.3456 19.4121C16.0937 19.3641 16.8419 19.1308 17.4596 18.7122C17.9881 18.3623 18.4136 17.8888 18.7362 17.3467C19.1274 16.688 19.3539 15.9332 19.402 15.1715C19.4569 14.3618 19.3059 13.5452 18.9284 12.8453Z" fill="#CE1125"/>
<path d="M11.2 12.9208C11.2138 12.8934 11.2412 12.8591 11.2755 12.8796C11.3167 12.9277 11.3511 12.9894 11.406 13.0237C11.5638 13.1267 11.7628 13.1473 11.9413 13.1473C12.1403 13.1473 12.3394 13.1198 12.5384 13.0924C12.5865 13.2296 12.7238 13.3051 12.8679 13.3119C13.1837 13.3394 13.4925 13.2639 13.7876 13.1473C13.822 13.1335 13.8494 13.1473 13.8769 13.1473C13.9867 13.1678 14.0965 13.1404 14.1994 13.1198C14.3573 13.0786 14.5015 13.0169 14.6456 12.9483C14.6456 13.209 14.6456 13.4698 14.6456 13.7236C14.6456 13.7717 14.6318 13.8128 14.6113 13.854C14.5769 13.9226 14.5563 13.9981 14.5289 14.0736C14.4053 13.8883 14.2475 13.6962 14.0347 13.6139C13.9249 13.5727 13.7945 13.5933 13.6778 13.607C13.7464 13.7031 13.8356 13.7854 13.9111 13.8746C14.0278 14.005 14.0554 14.1834 14.0691 14.3481C14.1103 14.7941 14.1171 15.2401 14.1171 15.6861C13.9386 15.6106 13.7465 15.6312 13.5612 15.6655C13.6573 15.8028 13.8014 15.8851 13.8837 16.0292C13.9798 16.2145 13.9935 16.4272 14.0004 16.6262C14.0278 16.9693 14.0141 17.3192 14.0279 17.6623C14.021 17.8339 14.0278 18.0054 14.021 18.1701C13.8082 18.1015 13.5749 18.1289 13.3552 18.1701C13.4582 18.3279 13.5954 18.4652 13.6709 18.6436C13.719 18.7877 13.7327 18.9386 13.7464 19.0896C13.1012 18.9043 12.5041 18.5475 12.0236 18.074C11.0009 17.0379 10.5411 15.5009 10.7882 14.0667C10.8706 13.6619 11.001 13.2708 11.2 12.9208Z" fill="#CE1125"/>
<path d="M18.201 13.1334C18.3864 13.1128 18.5923 13.0511 18.6747 12.8727C18.709 12.8727 18.7433 12.8727 18.7708 12.8795C19.1483 13.552 19.2992 14.3479 19.2512 15.1165C19.2032 15.8919 18.9698 16.6604 18.558 17.3191C18.2285 17.8612 17.7756 18.3209 17.2402 18.6572C16.9313 18.8493 16.5812 19.0003 16.2312 19.0963C16.2312 18.9522 16.2518 18.8013 16.2861 18.664C16.3548 18.4719 16.492 18.3347 16.6018 18.17C16.3685 18.1288 16.1214 18.1014 15.8948 18.1906C15.9017 17.6691 15.9086 17.1476 15.9498 16.6261C15.9704 16.4339 15.9772 16.2281 16.0596 16.0428C16.1282 15.885 16.2861 15.7958 16.396 15.6654C16.2175 15.638 16.0253 15.6242 15.8537 15.686C15.8674 15.2263 15.8674 14.7734 15.9155 14.3136C15.9361 14.1489 15.9704 13.9774 16.0802 13.847C16.1625 13.7647 16.2449 13.6823 16.3204 13.6C16.19 13.5794 16.039 13.5657 15.9086 13.6206C15.7095 13.7029 15.5517 13.8676 15.435 14.046C15.4076 14.0323 15.4075 13.998 15.3938 13.9705C15.3732 13.8951 15.3252 13.8264 15.3252 13.7441C15.3252 13.4971 15.3252 13.2501 15.3252 13.003C15.586 13.1403 15.8743 13.2432 16.1694 13.2432C16.2518 13.2501 16.3204 13.2089 16.4028 13.2295C16.6361 13.2912 16.8833 13.3393 17.1303 13.3049C17.2539 13.2912 17.3706 13.2089 17.4186 13.0854C17.6795 13.1197 17.9402 13.1608 18.201 13.1334Z" fill="#CE1125"/>
<path d="M14.7284 13.9707C14.7902 13.8129 14.8657 13.662 14.9892 13.5384C15.1334 13.7031 15.2294 13.909 15.298 14.1217C15.3392 14.2452 15.3598 14.3756 15.3941 14.506C15.4559 14.3962 15.4834 14.2658 15.552 14.156C15.6481 13.9913 15.7786 13.8404 15.957 13.7649C15.9021 13.8609 15.8403 13.9639 15.8197 14.0805C15.7648 14.3413 15.7579 14.6089 15.7442 14.8765C15.7305 15.1716 15.7373 15.4735 15.7167 15.7685C15.6755 15.8234 15.6207 15.8715 15.5726 15.9264C15.5314 15.9744 15.5108 16.0361 15.4696 16.0773C15.4079 15.9126 15.3461 15.7548 15.25 15.6107C15.1745 15.5009 15.0853 15.398 14.9892 15.3088C14.7559 15.5146 14.598 15.796 14.5088 16.091C14.4333 15.9881 14.3715 15.8715 14.2685 15.7891C14.2754 15.2951 14.2685 14.7942 14.2205 14.3001C14.1999 14.1148 14.145 13.9296 14.0352 13.7855C14.3234 13.9296 14.4539 14.2452 14.5912 14.5128C14.6323 14.3276 14.6598 14.1423 14.7284 13.9707Z" fill="#CE1125"/>
<path d="M14.9819 15.5148C15.1672 15.7001 15.277 15.9608 15.3457 16.2147C15.38 16.3451 15.4006 16.4823 15.4349 16.6127C15.5172 16.3931 15.5652 16.1461 15.73 15.9677C15.8123 15.8716 15.9359 15.8099 16.0594 15.7961C16.0114 15.8648 15.9565 15.9334 15.929 16.0157C15.8535 16.2216 15.8398 16.4343 15.8192 16.6539C15.778 17.196 15.7712 17.738 15.7712 18.2801C15.682 18.3487 15.6201 18.4448 15.5515 18.534C15.4486 18.2184 15.2702 17.9233 15.0025 17.7243C14.8515 17.8341 14.7279 17.9782 14.6387 18.136C14.5632 18.2595 14.5083 18.3968 14.4602 18.534C14.3916 18.4174 14.3023 18.3213 14.1925 18.2458C14.1925 17.6694 14.2063 17.0999 14.1651 16.5235C14.1514 16.3451 14.1308 16.1667 14.0484 16.002C14.0141 15.9265 13.9592 15.8579 13.9043 15.7961C14.0484 15.803 14.1856 15.8785 14.268 15.9951C14.4121 16.1735 14.4739 16.4 14.5563 16.6127C14.5906 16.5098 14.6043 16.4 14.6249 16.2902C14.673 15.9951 14.7897 15.7275 14.9819 15.5148Z" fill="#CE1125"/>
<path d="M19.4102 16.0773C19.5131 16.043 19.623 16.0636 19.7328 16.0636C19.8769 16.0636 20.028 16.1048 20.1721 16.1528C20.2476 16.1871 20.3299 16.2146 20.3711 16.2832C20.2201 16.2763 20.1034 16.1871 19.9662 16.146C19.7877 16.0979 19.5955 16.1322 19.417 16.0979C19.417 16.0911 19.417 16.0842 19.4102 16.0773Z" fill="#FBD014"/>
<path d="M9.89012 16.1597C9.99994 16.1323 10.1235 16.1597 10.2264 16.2146C10.2539 16.2283 10.2608 16.2626 10.2677 16.2969C10.2127 16.2763 10.1647 16.2489 10.1098 16.242C10.0137 16.2352 9.93137 16.3107 9.87646 16.3861C9.80096 16.5097 9.80088 16.6606 9.79402 16.8047C9.78716 16.9625 9.82154 17.1409 9.95195 17.2507C9.99314 17.285 10.0755 17.2988 10.1098 17.2439C10.1716 17.1409 10.1441 16.9968 10.2333 16.9076C10.3431 16.8253 10.4873 16.8527 10.604 16.9008C10.7138 16.9557 10.8236 17.0723 10.8099 17.2027C10.8168 17.3537 10.6932 17.5115 10.5285 17.484C10.5285 17.388 10.6315 17.3193 10.6315 17.2233C10.6315 17.1341 10.6177 17.0311 10.5422 16.9763C10.501 16.9488 10.4392 16.9282 10.4049 16.9763C10.35 17.0586 10.398 17.1684 10.3363 17.2439C10.302 17.285 10.2677 17.3331 10.2196 17.3537C9.98628 17.3948 9.73913 17.2645 9.64304 17.0517C9.54695 16.8322 9.56756 16.5783 9.67052 16.3724C9.71857 16.2695 9.79403 16.1871 9.89012 16.1597Z" fill="#FBD014"/>
<path d="M19.293 16.3034C19.2998 16.2416 19.3822 16.2485 19.4302 16.2553C19.5881 16.2896 19.746 16.3583 19.9107 16.372C20.0343 16.3789 20.1578 16.4337 20.247 16.523C20.3225 16.5916 20.3637 16.6876 20.398 16.7837C20.35 16.8523 20.2813 16.9072 20.2333 16.969C20.1921 17.017 20.1853 17.0925 20.1647 17.1474C20.1166 17.1199 20.1098 17.0582 20.0754 17.017C20.0205 16.9758 19.9176 16.9758 19.9038 16.8866C19.9999 16.8729 20.1028 16.8798 20.1852 16.8317C20.2676 16.7837 20.2676 16.667 20.2127 16.5984C20.1234 16.4818 19.9725 16.4269 19.8284 16.42C19.6774 16.4132 19.5332 16.3994 19.3959 16.3514C19.3548 16.3514 19.3204 16.3308 19.293 16.3034Z" fill="#FBD014"/>
<path d="M19.0869 16.8937V16.8799C19.2311 16.9074 19.3478 16.9897 19.4851 17.0378C19.6429 17.1064 19.8076 17.1681 19.9655 17.2573C20.0067 17.2848 20.0547 17.3054 20.0753 17.3534C20.0273 17.3671 19.9792 17.3397 19.9311 17.3191C19.8419 17.2711 19.7595 17.2093 19.6634 17.175C19.485 17.1132 19.2929 17.0583 19.1281 16.9554C19.1213 16.9417 19.0869 16.9211 19.0869 16.8937Z" fill="#FBD014"/>
<path d="M20.2327 17.1479C20.2807 17.2371 20.3082 17.3331 20.2944 17.4361C20.2944 17.4772 20.2464 17.4841 20.2121 17.4978C20.1778 17.3812 20.1778 17.2508 20.2327 17.1479Z" fill="#FBD014"/>
<path d="M19.0938 17.2435C19.1967 17.2435 19.286 17.2779 19.3821 17.3122C19.334 17.3533 19.2859 17.3945 19.2447 17.4494C19.279 17.5043 19.3202 17.5592 19.3408 17.6141C19.2722 17.6209 19.231 17.5592 19.1967 17.5112C19.1487 17.4288 19.1006 17.3396 19.0938 17.2435Z" fill="#FBD014"/>
<path d="M19.6024 17.4085C19.6642 17.4085 19.7054 17.4634 19.7397 17.5045C19.7946 17.5731 19.8495 17.6486 19.8632 17.7378C19.877 17.8613 19.7877 17.9643 19.7671 18.0809C19.7671 18.1564 19.8632 18.2113 19.8426 18.2936C19.8289 18.3828 19.7878 18.4652 19.7123 18.5132C19.623 18.5201 19.5475 18.4309 19.4583 18.4583C19.424 18.4858 19.4377 18.5407 19.4308 18.5818C19.424 18.7122 19.3554 18.822 19.3142 18.9455C19.2593 19.1308 19.1837 19.3092 19.1014 19.4876C19.0808 19.5356 19.0464 19.5974 18.9847 19.5905C18.9435 19.5699 18.9435 19.5082 18.9573 19.467C19.0122 19.3229 19.1357 19.22 19.1975 19.0827C19.2112 19.0347 19.1769 18.9798 19.1357 18.9592C19.0877 18.9455 19.0327 18.9455 18.9915 18.9318C18.9298 18.8906 18.9092 18.8151 18.8749 18.7534C18.8269 18.6642 18.7994 18.5613 18.8337 18.4652C18.8543 18.4103 18.916 18.376 18.9778 18.3897C19.0533 18.4103 19.1013 18.4789 19.1563 18.5338C19.1906 18.575 19.2387 18.6299 19.3005 18.6161C19.3279 18.5887 19.3416 18.5544 19.3485 18.5201C19.3622 18.4103 19.3622 18.3074 19.3622 18.1976C19.3622 18.1495 19.3622 18.0878 19.4033 18.0466C19.4994 17.9368 19.671 17.9094 19.7534 17.7859C19.8014 17.7172 19.7534 17.6349 19.7054 17.5869C19.6505 17.532 19.5818 17.4839 19.6024 17.4085Z" fill="#FBD014"/>
<path d="M9.79883 17.4839C9.85374 17.4633 9.90872 17.4496 9.95676 17.4702C9.97735 17.5182 9.97731 17.5731 9.9979 17.6142C10.0459 17.6554 10.1008 17.676 10.1351 17.724C10.1557 17.7858 10.0734 17.7789 10.0391 17.7652C9.93617 17.6966 9.84687 17.5937 9.79883 17.4839Z" fill="#FBD014"/>
<path d="M10.3144 17.7788C10.3282 17.7308 10.3831 17.717 10.4312 17.717C10.4792 17.717 10.5341 17.7239 10.5821 17.7445C10.5615 17.8131 10.5204 17.8749 10.5273 17.9503C10.5341 17.9846 10.541 18.0327 10.5821 18.0395C10.74 18.0738 10.9048 18.0189 11.0626 18.0395C11.1176 18.1013 11.0901 18.1905 11.0695 18.266C11.0146 18.362 10.8636 18.3209 10.7881 18.3826C10.7675 18.4512 10.8086 18.5267 10.843 18.5885C10.891 18.664 10.9528 18.7532 11.042 18.7737C11.0901 18.7737 11.1381 18.7532 11.1793 18.7326C11.3166 18.6571 11.4333 18.5404 11.5499 18.4307C11.6186 18.3689 11.7215 18.362 11.8039 18.4032C11.6186 18.5199 11.4538 18.6777 11.2616 18.7943C11.1106 18.8904 10.8841 18.8904 10.7606 18.7463C10.692 18.6845 10.6851 18.561 10.589 18.5336C10.4517 18.5061 10.3076 18.5542 10.1635 18.5199C10.0674 18.4856 10.088 18.3483 10.1292 18.2797C10.2047 18.2317 10.3076 18.2591 10.3763 18.2042C10.4312 18.1699 10.4174 18.0944 10.3968 18.0395C10.3694 17.9572 10.3282 17.8749 10.3144 17.7788Z" fill="#FBD014"/>
<path d="M14.4741 18.9866C14.5702 18.6024 14.68 18.1907 14.9889 17.9162C15.2017 18.1083 15.3321 18.3622 15.4145 18.6367C15.4556 18.7533 15.4762 18.87 15.5174 18.9935C15.5792 18.8563 15.6135 18.7053 15.689 18.5818C15.7577 18.472 15.8537 18.3759 15.9772 18.3348C16.0939 18.2867 16.2175 18.2867 16.341 18.2936C16.2655 18.4102 16.1763 18.5269 16.142 18.6641C16.1008 18.822 16.0871 18.9866 16.0802 19.1445C15.3664 19.316 14.6114 19.316 13.8976 19.1376C13.8839 18.9661 13.8702 18.7945 13.8221 18.6298C13.7809 18.5063 13.6985 18.3965 13.623 18.2867C13.7672 18.2799 13.9113 18.2799 14.0417 18.3416C14.1653 18.4034 14.2614 18.5132 14.3232 18.6367C14.3918 18.7533 14.4192 18.87 14.4741 18.9866Z" fill="#CE1125"/>
<path d="M10.7683 18.1223C10.8232 18.088 10.9262 18.1429 10.9056 18.2183C10.885 18.287 10.7889 18.3007 10.7271 18.2732C10.6722 18.2321 10.7133 18.1497 10.7683 18.1223Z" fill="#CE1125"/>
<path d="M19.5668 18.1496C19.6697 18.1015 19.7658 18.2593 19.6971 18.3417C19.6216 18.3623 19.5392 18.3211 19.5118 18.2594C19.4912 18.2113 19.5187 18.1564 19.5668 18.1496Z" fill="#CE1125"/>
<path d="M10.2949 18.3827C10.3292 18.3209 10.391 18.2729 10.4734 18.2798C10.5214 18.3072 10.5146 18.3827 10.4734 18.417C10.4322 18.4582 10.3704 18.4513 10.3223 18.4376C10.3086 18.4238 10.2949 18.3964 10.2949 18.3827Z" fill="#CE1125"/>
<path d="M11.5435 18.774C11.6533 18.6642 11.7974 18.575 11.9416 18.5269C11.9347 18.5818 11.8935 18.6161 11.8592 18.6505C11.7288 18.7671 11.5916 18.87 11.4749 18.9935C11.4131 19.0484 11.3651 19.1308 11.3788 19.2131C11.3788 19.2955 11.4543 19.3778 11.5435 19.3778C11.6533 19.3298 11.6534 19.1788 11.7632 19.1239C11.8044 19.1033 11.8524 19.1171 11.8936 19.1239C11.8318 19.3504 11.5641 19.5082 11.3376 19.4396C11.2346 19.3984 11.1866 19.2955 11.1592 19.1994C11.2278 19.0004 11.4131 18.9043 11.5435 18.774Z" fill="#FBD014"/>
<path d="M18.9778 18.5405C19.0053 18.513 19.0533 18.5473 19.0808 18.5679C19.1288 18.6091 19.1838 18.664 19.17 18.7326C19.1288 18.7738 19.0671 18.7943 19.0122 18.7669C18.9298 18.7257 18.9092 18.6022 18.9778 18.5405Z" fill="#CE1125"/>
<path d="M18.4835 18.7807C18.5933 18.767 18.6894 18.8288 18.7649 18.9042C18.8336 18.9797 18.8816 19.0826 18.8679 19.1924C18.8336 19.3914 18.6963 19.5698 18.511 19.6522C18.4149 19.6933 18.2982 19.6933 18.2089 19.6384C18.0923 19.5698 18.0374 19.4189 18.058 19.2885C18.0923 19.3297 18.1129 19.3914 18.1541 19.4326C18.2364 19.4806 18.3325 19.4806 18.4218 19.46C18.5728 19.4326 18.7169 19.3228 18.7787 19.1787C18.7924 19.1375 18.8061 19.0758 18.7649 19.0415C18.7238 19.0277 18.6894 19.0209 18.6482 19.0072C18.5453 18.9728 18.4629 18.8836 18.4835 18.7807Z" fill="#FBD014"/>
<path d="M18.167 18.8152C18.2425 18.8632 18.2699 18.9387 18.2974 19.0142C18.1944 19.021 18.167 18.8975 18.167 18.8152Z" fill="#FBD014"/>
<path d="M17.3564 19.0623C17.5418 19.179 17.6516 19.3917 17.7546 19.577C17.8232 19.7005 17.8919 19.8171 17.9193 19.9544C17.8369 19.9063 17.7889 19.8171 17.7409 19.7416C17.6585 19.6044 17.5761 19.4603 17.4938 19.3231C17.4526 19.227 17.3908 19.1515 17.3564 19.0623Z" fill="#FBD014"/>
<path d="M17.1095 19.1926C17.1095 19.1446 17.1713 19.124 17.2056 19.1652C17.288 19.2475 17.3429 19.3505 17.3979 19.4534C17.4802 19.6181 17.5695 19.7828 17.5901 19.9612C17.6038 20.0641 17.6175 20.167 17.5969 20.2631C17.5489 20.3591 17.4253 20.3386 17.3566 20.3797C17.288 20.4415 17.2606 20.5307 17.2056 20.5924C17.1507 20.6679 17.0409 20.716 16.9517 20.6748C16.8831 20.6473 16.8419 20.5719 16.7801 20.5307C16.7527 20.5101 16.7252 20.5307 16.6977 20.5376C16.5879 20.613 16.4987 20.7297 16.3752 20.7846C16.2379 20.812 16.1624 20.6405 16.032 20.6473C15.929 20.6885 15.9427 20.8463 15.8329 20.8807C15.7162 20.9287 15.5858 20.9355 15.4622 20.9493C15.3867 20.9561 15.2976 20.9493 15.2426 20.8944C15.2015 20.8463 15.1671 20.7983 15.1191 20.7571C15.0573 20.7914 15.0024 20.8532 14.9406 20.9012C14.8857 20.9493 14.7896 20.9699 14.7279 20.9218C14.6798 20.8738 14.6661 20.8052 14.6112 20.7571C14.5563 20.7434 14.5288 20.8052 14.4877 20.8326C14.4122 20.915 14.2886 20.9561 14.1856 20.9081C14.1307 20.8806 14.117 20.8189 14.0964 20.764C14.0827 20.7297 14.0621 20.6817 14.014 20.6954C13.9179 20.7091 13.8836 20.8189 13.7876 20.8395C13.7121 20.8532 13.6296 20.8463 13.5679 20.8052C13.513 20.7709 13.5198 20.7022 13.5061 20.6542C13.4924 20.5787 13.4444 20.5238 13.4375 20.4484C13.465 20.4072 13.5061 20.3729 13.5336 20.3317C13.5542 20.2905 13.561 20.2425 13.5747 20.2013C13.5953 20.1945 13.616 20.1876 13.6366 20.1807C13.6434 20.3043 13.6297 20.4346 13.6434 20.5581C13.6572 20.6268 13.7327 20.6611 13.7944 20.6679C13.8356 20.6679 13.8836 20.6817 13.9179 20.6611C14.014 20.565 14.0415 20.4209 14.1445 20.3317C14.1719 20.3043 14.22 20.3043 14.2268 20.3523C14.2406 20.4415 14.1994 20.5307 14.22 20.6199C14.2612 20.716 14.3778 20.7914 14.4808 20.7503C14.5837 20.6611 14.5974 20.517 14.6935 20.414L14.7141 20.4209C14.7485 20.4895 14.7004 20.5719 14.7347 20.6405C14.7691 20.7297 14.8789 20.764 14.9681 20.764C15.023 20.7709 15.0573 20.7228 15.0779 20.6748C15.1122 20.5925 15.1329 20.5033 15.1809 20.4278C15.2427 20.5238 15.1878 20.6611 15.277 20.7366C15.38 20.7846 15.5035 20.7709 15.6133 20.764C15.6957 20.7503 15.7986 20.7503 15.8673 20.6885C15.9153 20.5787 15.7574 20.4827 15.7986 20.3729C15.8741 20.2699 16.0045 20.2425 16.1212 20.2151C16.183 20.2013 16.2654 20.1807 16.2997 20.2425C16.334 20.3317 16.2653 20.4072 16.2516 20.4895C16.2722 20.5856 16.4094 20.6268 16.4849 20.5581C16.5947 20.4689 16.6634 20.3454 16.7458 20.2288C16.8144 20.1396 16.8968 20.0366 17.0203 20.0161C17.1576 20.0092 17.2812 20.0847 17.4116 20.1121C17.4459 20.1121 17.487 20.119 17.5214 20.0984C17.5694 20.0435 17.5419 19.968 17.5145 19.9063C17.4253 19.7141 17.3017 19.5495 17.185 19.3779C17.137 19.3367 17.1027 19.2681 17.1095 19.1926Z" fill="#FBD014"/>
<path d="M11.9292 19.5151C11.9773 19.4808 12.0184 19.4397 12.0802 19.4465C12.0871 19.4534 12.0871 19.4671 12.0871 19.4808C12.0322 19.5495 11.9292 19.6043 11.9635 19.7141C12.0459 19.9337 12.2724 20.0984 12.5057 20.1053C12.5607 20.1053 12.5606 20.0435 12.5675 20.0023C12.5744 19.9406 12.5538 19.872 12.595 19.8239C12.6293 19.7828 12.6842 19.7896 12.7322 19.7965C12.7459 19.9063 12.7116 20.0161 12.6292 20.0847C12.5126 20.1807 12.3547 20.2013 12.2106 20.1807C12.0802 20.1396 11.9498 20.0641 11.8743 19.9474C11.8193 19.872 11.7438 19.7896 11.7782 19.6867C11.8056 19.6112 11.8743 19.5632 11.9292 19.5151Z" fill="#FBD014"/>
<path d="M12.4004 19.618C12.4004 19.522 12.4965 19.4739 12.572 19.4396C12.5788 19.5357 12.4965 19.6112 12.4004 19.618Z" fill="#FBD014"/>
<path d="M11.0635 19.5768C11.1252 19.5082 11.2282 19.5288 11.3037 19.5631C11.2556 19.6386 11.1321 19.6317 11.0635 19.5768Z" fill="#FBD014"/>
<path d="M12.7734 20.1051C12.8283 19.9884 12.945 19.8992 13.0754 19.8786C13.1715 19.8923 13.2059 19.9953 13.2127 20.0776C13.2127 20.1462 13.1715 20.2491 13.0891 20.256C13.0136 20.208 13.1098 20.0913 13.0411 20.0296C12.9931 19.9884 12.9038 19.9953 12.8832 20.057C12.8557 20.1325 12.8695 20.2148 12.8764 20.2903C12.9039 20.3933 12.993 20.4756 13.0891 20.5168C13.1852 20.5305 13.2882 20.5099 13.3843 20.5305C13.3774 20.5648 13.3774 20.6197 13.3293 20.6265C13.2127 20.6746 13.0549 20.702 12.9656 20.5991C12.897 20.5373 12.8077 20.503 12.7185 20.503C12.5469 20.5168 12.3684 20.5236 12.2037 20.4756C12.1831 20.4619 12.1488 20.4619 12.1488 20.4344C12.1419 20.3521 12.2311 20.304 12.2929 20.3178C12.4096 20.3452 12.4989 20.4413 12.6224 20.4619C12.6636 20.4687 12.7116 20.4481 12.7322 20.407C12.7528 20.304 12.7185 20.1943 12.7734 20.1051Z" fill="#FBD014"/>
<path d="M13.5477 19.9471C13.5752 19.9128 13.6163 19.9334 13.6575 19.9334C13.6438 20.002 13.6026 20.0706 13.534 20.1049C13.4997 20.0569 13.4997 19.9883 13.5477 19.9471Z" fill="#FBD014"/>
<path d="M17.0067 20.16C17.1028 20.112 17.199 20.2012 17.2333 20.2836C17.2676 20.4139 17.1509 20.5306 17.0342 20.5717C16.9656 20.5992 16.897 20.5374 16.8901 20.4757C16.8695 20.359 16.8969 20.2149 17.0067 20.16Z" fill="#CE1125"/>
<path d="M5.11133 12.9824C5.11133 12.8932 5.15255 12.7902 5.24178 12.7628C5.35846 12.7285 5.45449 12.8177 5.52313 12.9C5.57118 12.8588 5.63296 12.8108 5.70159 12.8177C5.79082 12.8245 5.8595 12.8932 5.91441 12.9549C5.95559 12.9343 6.0036 12.9069 6.04478 12.9137C6.13401 12.9206 6.19582 12.9892 6.25759 13.0441C6.30564 13.0029 6.36741 12.9549 6.42918 12.9686C6.52527 12.9824 6.58699 13.0647 6.62817 13.1402C6.73799 13.3666 6.7723 13.6205 6.79289 13.8675C6.90271 13.9156 7.0057 13.991 7.08807 14.0803C7.23907 14.293 7.42439 14.4851 7.60284 14.6704C7.71953 14.7802 7.8637 14.8625 7.98725 14.9723C8.11766 15.0889 8.25493 15.2125 8.33043 15.3771C8.37162 15.4732 8.35097 15.583 8.35783 15.6859C8.35783 16.2417 8.37157 16.7975 8.37157 17.3533C8.3853 17.8268 8.37846 18.3003 8.39218 18.7737C8.48827 18.7943 8.59118 18.8561 8.59804 18.959C8.61177 19.0482 8.55686 19.1168 8.50881 19.1855C8.56372 19.2541 8.59804 19.3296 8.59804 19.4188C8.59804 19.5011 8.55006 19.5697 8.49516 19.6315C8.55693 19.6932 8.60491 19.7756 8.59804 19.8579C8.60491 19.9883 8.50202 20.0844 8.40592 20.1461C8.39906 20.2353 8.40592 20.3245 8.39905 20.4137C8.39905 20.4961 8.3235 20.551 8.26173 20.5921C8.08327 20.6882 7.87739 20.7019 7.6852 20.7156C7.44498 20.7294 7.19785 20.7156 6.96449 20.6745C6.82721 20.647 6.66938 20.6127 6.57329 20.4961C6.53898 20.3863 6.57328 20.2696 6.55955 20.1598C6.47032 20.0844 6.38108 19.9883 6.37422 19.8579C6.36736 19.7687 6.40855 19.6795 6.47032 19.6177C6.42914 19.556 6.39482 19.4942 6.38796 19.4188C6.37423 19.3227 6.41542 19.2266 6.47719 19.158C6.3811 19.0414 6.39485 18.8629 6.50467 18.7669C6.54586 18.7257 6.60762 18.7051 6.66252 18.6914C6.66939 18.3003 6.67626 17.9023 6.66939 17.5112C6.66253 17.1406 6.66935 16.7701 6.62817 16.3995C6.62131 16.276 6.53894 16.1868 6.45658 16.1045C6.16831 15.8026 5.81833 15.5624 5.58497 15.2124C5.47515 15.0478 5.42019 14.8556 5.36528 14.6635C5.23487 14.1763 5.15251 13.6754 5.11133 13.1745V12.9824Z" fill="#040102"/>
<path d="M5.2759 12.9208C5.28962 12.8797 5.33767 12.9208 5.35826 12.9345C5.49553 13.0718 5.55049 13.2639 5.57794 13.4492C5.59167 13.5521 5.57106 13.655 5.5642 13.758C5.58479 13.7991 5.62598 13.8335 5.65343 13.8746C5.80443 14.0599 5.9211 14.2726 5.976 14.5059C6.00346 14.6088 5.99663 14.7461 6.09272 14.8147C6.2849 14.9657 6.51821 15.0617 6.72412 15.199C6.79276 15.2539 6.87514 15.3019 6.91632 15.3911C6.94378 15.4391 6.9644 15.5146 7.03304 15.5146C7.08795 15.5215 7.12226 15.4528 7.1154 15.4048C7.10167 15.2607 7.06735 15.1235 7.02617 14.9862C6.98498 14.8559 6.9506 14.7186 6.8751 14.602C6.77901 14.451 6.67606 14.3001 6.62115 14.1216C6.61429 14.0736 6.60061 13.9844 6.66924 13.9913C6.79279 13.9981 6.90945 14.0873 6.99181 14.1834C7.09477 14.3344 7.21832 14.4647 7.34187 14.5951C7.43796 14.698 7.53402 14.8078 7.6507 14.8833C7.82229 15.0137 8.00767 15.1441 8.13808 15.3225C8.19299 15.3911 8.22731 15.4666 8.22731 15.5558C8.22731 16.5439 8.24784 17.532 8.25471 18.5201C8.25471 18.6093 8.26158 18.6916 8.26845 18.774C8.12431 18.8357 7.98016 18.9112 7.82229 18.9387C7.64384 18.9661 7.45858 18.9798 7.28699 18.9318C7.12226 18.8838 6.9781 18.8083 6.83396 18.7397C6.84083 18.0123 6.85453 17.285 6.81335 16.5576C6.80649 16.4409 6.80651 16.3106 6.74473 16.2076C6.6555 16.0567 6.52509 15.94 6.40155 15.8234C6.16132 15.6038 5.90738 15.3911 5.72892 15.1235C5.59851 14.9245 5.54361 14.6775 5.48184 14.4442C5.39948 14.0873 5.33083 13.7305 5.29651 13.3668C5.26905 13.2159 5.23471 13.0649 5.2759 12.9208Z" fill="#CE1125"/>
<path d="M5.6411 12.996C5.66856 12.948 5.73036 12.9686 5.75095 13.0029C5.82645 13.0784 5.84699 13.1813 5.87445 13.2773C5.90876 13.4558 5.9088 13.641 5.9088 13.8194C6.08039 13.9361 6.18336 14.1214 6.26572 14.2998C6.32063 14.4233 6.37549 14.5468 6.38235 14.684C6.54708 14.7183 6.68434 14.8213 6.79415 14.9379C6.84906 14.9928 6.88339 15.0751 6.89026 15.1506C6.65003 14.9791 6.3755 14.8624 6.14214 14.684C6.11468 14.5811 6.10097 14.4713 6.07352 14.3752C5.99802 14.1351 5.86071 13.9155 5.69598 13.7234C5.71657 13.5381 5.70975 13.346 5.64797 13.1744C5.64111 13.1127 5.59992 13.044 5.6411 12.996Z" fill="#CE1125"/>
<path d="M6.00472 13.168C5.991 13.1269 6.00465 13.0857 6.01838 13.0514C6.14879 13.1131 6.21749 13.2435 6.25868 13.367C6.29299 13.4768 6.29981 13.5866 6.29294 13.6964C6.29294 13.8268 6.33416 13.964 6.40966 14.0738C6.43711 14.1081 6.46455 14.1493 6.47828 14.1973C6.52632 14.362 6.62239 14.5061 6.71162 14.6502C6.64985 14.6159 6.58814 14.5884 6.52637 14.5541C6.44401 14.2934 6.32729 14.0395 6.14883 13.8336C6.11452 13.7856 6.04587 13.7513 6.05273 13.6827C6.0596 13.5111 6.05277 13.3396 6.00472 13.168Z" fill="#CE1125"/>
<path d="M6.32617 13.2089C6.35363 13.1745 6.38108 13.1402 6.4154 13.1197C6.48404 13.154 6.51145 13.2363 6.5389 13.2981C6.60068 13.4696 6.63501 13.6549 6.64187 13.847C6.58696 13.8607 6.53895 13.8882 6.49776 13.9225C6.4154 13.7647 6.49092 13.5725 6.43601 13.4078C6.4017 13.3324 6.35363 13.2706 6.32617 13.2089Z" fill="#CE1125"/>
<path d="M6.6428 18.8495C6.69085 18.8357 6.73895 18.8632 6.787 18.8838C6.97918 18.9798 7.17128 19.0759 7.39092 19.1033C7.64487 19.1239 7.91262 19.0896 8.14599 18.9867C8.23522 18.9455 8.33125 18.8975 8.42734 18.9387C8.46852 18.9524 8.46167 19.0073 8.44108 19.0416C8.38617 19.1239 8.2901 19.1788 8.20087 19.2269C8.00182 19.3229 7.78215 19.3641 7.56251 19.3641C7.26737 19.371 6.95851 19.3161 6.70455 19.1514C6.64964 19.1102 6.58103 19.0759 6.56044 19.0073C6.55358 18.9387 6.58789 18.87 6.6428 18.8495Z" fill="#CE1125"/>
<path d="M6.54549 19.4466C6.51804 19.378 6.53867 19.3025 6.58671 19.2545C6.86812 19.4398 7.20445 19.5084 7.5339 19.5015C7.781 19.5015 8.02803 19.4604 8.24767 19.3574C8.30258 19.3368 8.35069 19.2957 8.4056 19.282C8.45365 19.3163 8.46047 19.3917 8.44674 19.4466C8.39183 19.5496 8.282 19.6045 8.17905 19.6525C7.73977 19.8309 7.23185 19.824 6.79257 19.6388C6.69648 19.6045 6.58667 19.5564 6.54549 19.4466Z" fill="#CE1125"/>
<path d="M6.62135 20.0089C6.52526 19.9471 6.491 19.7824 6.59395 19.7138C6.93027 19.8991 7.32149 19.954 7.69899 19.9265C7.93236 19.9059 8.15884 19.851 8.36475 19.7344C8.40593 19.755 8.46084 19.7893 8.45398 19.8373C8.47457 19.954 8.35787 20.0157 8.26865 20.0569C7.91174 20.2147 7.50684 20.2422 7.12934 20.1735C6.95088 20.1461 6.77235 20.1049 6.62135 20.0089Z" fill="#CE1125"/>
<path d="M6.71781 20.2218C7.21199 20.4002 7.77482 20.407 8.269 20.2286C8.269 20.2904 8.269 20.359 8.26213 20.4208C8.18663 20.4962 8.07 20.5168 7.96704 20.5374C7.68563 20.5786 7.39049 20.5786 7.10908 20.5443C6.97181 20.5237 6.82762 20.5031 6.71094 20.4208C6.71094 20.359 6.71094 20.2904 6.71781 20.2218Z" fill="#CE1125"/>
<path d="M24.8857 12.9826C24.8857 12.8934 24.8445 12.7905 24.7552 12.763C24.6386 12.7287 24.5424 12.8179 24.4738 12.9003C24.4189 12.8591 24.364 12.811 24.2953 12.8179C24.2061 12.8248 24.1375 12.8934 24.0826 12.9551C24.0414 12.9346 24.0002 12.9071 23.9522 12.914C23.8629 12.9208 23.8012 12.9895 23.7394 13.0443C23.6914 13.0032 23.6296 12.9551 23.5678 12.9689C23.4717 12.9826 23.4099 13.0649 23.3688 13.1404C23.2589 13.3669 23.2246 13.6207 23.204 13.8678C23.0942 13.9158 22.9913 13.9913 22.9089 14.0805C22.7579 14.2932 22.5726 14.4853 22.3942 14.6706C22.2706 14.7804 22.1333 14.8627 22.0098 14.9725C21.8794 15.0892 21.7421 15.2127 21.6666 15.3774C21.6254 15.4734 21.646 15.5832 21.6391 15.6862C21.6391 16.242 21.6323 16.7978 21.6254 17.3536C21.6049 17.827 21.6117 18.3005 21.598 18.774C21.495 18.7946 21.3989 18.8563 21.392 18.9592C21.3783 19.0485 21.4332 19.1171 21.4812 19.1857C21.4263 19.2543 21.392 19.3298 21.392 19.419C21.392 19.5013 21.4401 19.57 21.4881 19.6317C21.4263 19.6935 21.3851 19.7758 21.3851 19.8581C21.3714 19.9885 21.4744 20.0846 21.5773 20.1463C21.5842 20.2355 21.5774 20.3248 21.5842 20.414C21.5842 20.4963 21.6528 20.5512 21.7215 20.5924C21.8999 20.6884 22.1059 20.7022 22.2981 20.7159C22.5452 20.7296 22.7853 20.7159 23.0187 20.6747C23.156 20.6473 23.3139 20.6129 23.4169 20.4963C23.4512 20.3865 23.4169 20.2699 23.4306 20.1601C23.5198 20.0846 23.609 19.9885 23.609 19.8581C23.6158 19.7689 23.5815 19.6797 23.5197 19.618C23.5541 19.5562 23.5953 19.4945 23.6022 19.419C23.6159 19.3229 23.5746 19.2269 23.5197 19.1582C23.6158 19.0416 23.5953 18.8632 23.4923 18.7671C23.4512 18.7259 23.3825 18.7054 23.3276 18.6916C23.3208 18.3005 23.3207 17.9025 23.3207 17.5114C23.3207 17.1409 23.3207 16.7703 23.3619 16.3998C23.3688 16.2763 23.4511 16.1871 23.5335 16.1047C23.8218 15.8028 24.1718 15.5626 24.4052 15.2127C24.515 15.048 24.5768 14.8559 24.6317 14.6637C24.7621 14.1766 24.8514 13.6756 24.8857 13.1747V12.9826Z" fill="#040102"/>
<path d="M24.7279 12.9211C24.7142 12.8799 24.6662 12.9211 24.6456 12.9348C24.5083 13.072 24.4534 13.2641 24.426 13.4494C24.4122 13.5523 24.4328 13.6553 24.4397 13.7582C24.4191 13.7994 24.3779 13.8337 24.3505 13.8749C24.1995 14.0601 24.0827 14.2728 24.0347 14.5061C24.0004 14.6091 24.0141 14.7463 23.9181 14.8149C23.719 14.9659 23.4925 15.0619 23.2866 15.1992C23.2111 15.2541 23.1355 15.3021 23.0944 15.3913C23.0669 15.4393 23.0464 15.5148 22.9777 15.5148C22.916 15.5217 22.8885 15.4531 22.8954 15.405C22.9091 15.2609 22.9434 15.1237 22.9846 14.9865C23.0258 14.8561 23.0601 14.7189 23.1356 14.6022C23.2317 14.4512 23.3346 14.3003 23.3895 14.1219C23.3964 14.0738 23.4102 13.9846 23.3415 13.9915C23.2111 13.9984 23.1012 14.0876 23.0257 14.1836C22.9159 14.3346 22.7992 14.465 22.6757 14.5953C22.5796 14.6983 22.4835 14.8081 22.3669 14.8835C22.1953 15.0139 22.01 15.1443 21.8796 15.3227C21.8247 15.3913 21.7835 15.4668 21.7972 15.556C21.7903 16.5441 21.7697 17.5322 21.7697 18.5203C21.7697 18.6095 21.7628 18.6919 21.756 18.7742C21.9001 18.836 22.0443 18.9114 22.2021 18.9389C22.3806 18.9663 22.5659 18.9801 22.7444 18.932C22.9023 18.884 23.0532 18.8085 23.2042 18.7399C23.1973 18.0125 23.1836 17.2852 23.2248 16.5578C23.2385 16.4412 23.2317 16.3108 23.3003 16.2079C23.3895 16.0569 23.5199 15.9403 23.6435 15.8236C23.8837 15.604 24.1377 15.3913 24.323 15.1237C24.4534 14.9247 24.5014 14.6777 24.5632 14.4444C24.6524 14.0876 24.7142 13.7308 24.7485 13.3671C24.7348 13.2161 24.7622 13.0652 24.7279 12.9211Z" fill="#CE1125"/>
<path d="M24.3568 12.9965C24.3294 12.9484 24.2745 12.969 24.247 13.0033C24.1784 13.0788 24.1509 13.1817 24.1234 13.2778C24.0891 13.4562 24.0823 13.6415 24.0892 13.8199C23.9176 13.9365 23.8215 14.1218 23.7254 14.3002C23.6705 14.4237 23.6155 14.5472 23.6086 14.6845C23.4508 14.7188 23.3067 14.8217 23.1968 14.9384C23.1419 14.9933 23.1076 15.0756 23.0939 15.1511C23.3341 14.9795 23.6087 14.8629 23.8421 14.6845C23.8695 14.5816 23.8832 14.4718 23.9107 14.3757C23.9862 14.1355 24.1235 13.916 24.2882 13.7238C24.2676 13.5386 24.2676 13.3464 24.3362 13.1749C24.3568 13.1131 24.398 13.0445 24.3568 12.9965Z" fill="#CE1125"/>
<path d="M23.9933 13.168C24.007 13.1268 23.9932 13.0857 23.9727 13.0514C23.8422 13.1131 23.7736 13.2435 23.7324 13.367C23.6981 13.4768 23.6912 13.5866 23.6981 13.6964C23.705 13.8268 23.657 13.964 23.5815 14.0738C23.554 14.1081 23.5334 14.1493 23.5196 14.1973C23.4716 14.362 23.3755 14.5061 23.2794 14.6502C23.3412 14.6159 23.403 14.5884 23.4648 14.5541C23.5471 14.2934 23.657 14.0395 23.8354 13.8336C23.8766 13.7856 23.9452 13.7513 23.9315 13.6827C23.9384 13.5111 23.9452 13.3396 23.9933 13.168Z" fill="#CE1125"/>
<path d="M23.6772 13.2088C23.6566 13.1745 23.6292 13.1402 23.588 13.1196C23.5193 13.154 23.4918 13.2363 23.4644 13.2981C23.4026 13.4696 23.3683 13.6549 23.3683 13.847C23.4163 13.8607 23.4644 13.8882 23.5125 13.9225C23.5948 13.7647 23.5193 13.5725 23.5742 13.4078C23.6017 13.3324 23.6429 13.2706 23.6772 13.2088Z" fill="#CE1125"/>
<path d="M23.3558 18.8497C23.3077 18.836 23.2529 18.8634 23.2117 18.884C23.0195 18.9801 22.8273 19.0761 22.6077 19.1036C22.3468 19.1242 22.086 19.0898 21.8527 18.9869C21.7635 18.9458 21.6673 18.8977 21.5712 18.9389C21.5301 18.9526 21.5369 19.0075 21.5575 19.0418C21.6124 19.1242 21.7017 19.1791 21.7978 19.2271C21.9968 19.3232 22.2164 19.3643 22.4361 19.3643C22.7312 19.3712 23.0401 19.3163 23.294 19.1516C23.3489 19.1104 23.4176 19.0761 23.4381 19.0075C23.4519 18.9389 23.4107 18.8703 23.3558 18.8497Z" fill="#CE1125"/>
<path d="M23.4515 19.4466C23.479 19.378 23.4584 19.3025 23.4035 19.2545C23.129 19.4398 22.7926 19.5084 22.4632 19.5015C22.2161 19.5015 21.9758 19.4604 21.7493 19.3574C21.6944 19.3368 21.6464 19.2957 21.5984 19.2819C21.5503 19.3163 21.5434 19.3917 21.5571 19.4466C21.6121 19.5496 21.7219 19.6044 21.8248 19.6525C22.2641 19.8309 22.772 19.824 23.2044 19.6388C23.3005 19.6044 23.4172 19.5564 23.4515 19.4466Z" fill="#CE1125"/>
<path d="M23.376 20.0093C23.4721 19.9476 23.5064 19.7829 23.4034 19.7143C23.0671 19.8995 22.6759 19.9544 22.2984 19.927C22.0719 19.9064 21.8385 19.8515 21.6326 19.7349C21.5914 19.7554 21.5434 19.7898 21.5434 19.8378C21.5228 19.9544 21.6463 20.0162 21.7287 20.0574C22.0856 20.2152 22.4906 20.2426 22.8681 20.174C23.0465 20.1466 23.225 20.1054 23.376 20.0093Z" fill="#CE1125"/>
<path d="M23.2864 20.222C22.7922 20.4004 22.2294 20.4073 21.7421 20.2289C21.7421 20.2906 21.7352 20.3592 21.7489 20.421C21.8244 20.4965 21.9343 20.5171 22.0441 20.5376C22.3255 20.5788 22.6207 20.5788 22.9021 20.5445C23.0325 20.5239 23.1766 20.5033 23.2933 20.421C23.2933 20.3592 23.2864 20.2906 23.2864 20.222Z" fill="#CE1125"/>
<path d="M19.2229 20.3453C19.2778 20.2973 19.3395 20.2355 19.4219 20.2424C19.5317 20.2493 19.614 20.3385 19.6827 20.4208C19.8337 20.6198 19.8818 20.8737 19.9024 21.1139C19.9161 21.3334 20.0465 21.5256 20.2112 21.6628C20.4034 21.5393 20.575 21.3609 20.6711 21.1482C20.7123 21.1413 20.7603 21.1413 20.8015 21.1413C20.8495 21.2099 20.8701 21.2923 20.8838 21.3677C20.9113 21.5599 20.8907 21.7657 20.8427 21.951C21.1653 21.9853 21.481 22.1225 21.7006 22.3627C21.7967 22.4725 21.8928 22.5892 21.9477 22.7264C21.9271 22.7607 21.8928 22.795 21.8654 22.8293C21.6595 22.7607 21.4467 22.7195 21.2339 22.6989C20.9662 22.6646 20.6916 22.6852 20.4377 22.7813C19.9709 22.9597 19.6484 23.3714 19.1885 23.5635C18.9414 23.6802 18.66 23.7214 18.3923 23.7488C18.1109 23.7763 17.8226 23.79 17.5481 23.7076C16.8274 24.0782 16.0175 24.2291 15.2144 24.2566H14.6448C13.876 24.2291 13.0936 24.0782 12.4072 23.7145C12.3043 23.7488 12.2013 23.7625 12.0984 23.7694C11.7895 23.7831 11.4806 23.7419 11.1786 23.687C10.8629 23.6253 10.5677 23.4675 10.3069 23.2753C10.0323 23.0763 9.7716 22.843 9.44214 22.747C9.05091 22.6235 8.62536 22.6852 8.23413 22.7882C8.17235 22.8019 8.09685 22.8499 8.05566 22.7813C8.06253 22.7195 8.04875 22.6509 8.08993 22.596C8.15857 22.4794 8.25467 22.3696 8.35763 22.2735C8.5704 22.0882 8.85181 21.9853 9.12635 21.951C9.06458 21.6834 9.02344 21.3815 9.16758 21.1344C9.21562 21.1413 9.25676 21.1413 9.29795 21.1482C9.39404 21.3609 9.55193 21.5462 9.75784 21.6559C9.87452 21.5667 9.96376 21.4432 10.0187 21.306C10.0736 21.1825 10.0598 21.0384 10.0873 20.908C10.1216 20.7022 10.1971 20.4963 10.3481 20.3453C10.4167 20.2836 10.5128 20.215 10.6089 20.2493C10.6844 20.2973 10.7462 20.3659 10.808 20.4277C11.1924 20.8394 11.6179 21.2236 12.0984 21.5256C12.6955 21.9167 13.375 22.1774 14.0751 22.2941C15.2145 22.4794 16.4224 22.2872 17.4451 21.7383C17.8707 21.5119 18.2688 21.2236 18.6257 20.8943C18.8385 20.7296 19.0238 20.5306 19.2229 20.3453Z" fill="#040102"/>
<path d="M10.3904 20.5375C10.4316 20.4826 10.4797 20.4209 10.5552 20.3934C10.6101 20.4209 10.6443 20.4758 10.6855 20.5169C11.1111 20.963 11.5778 21.3747 12.0995 21.704C12.7447 22.102 13.4722 22.3765 14.2272 22.4726C15.3528 22.6235 16.5334 22.4177 17.5423 21.8756C18.0091 21.6286 18.4346 21.3061 18.819 20.9561C19.0249 20.7708 19.2102 20.565 19.423 20.3934C19.6014 20.4758 19.6838 20.6679 19.725 20.8463C19.7731 21.011 19.7525 21.1963 19.8142 21.361C19.8623 21.4845 19.9377 21.5874 20.0132 21.6903C19.7661 21.7658 19.5465 21.8962 19.3337 22.0403C19.1072 22.1912 18.9288 22.3971 18.7366 22.5892C18.4826 22.8568 18.2219 23.1107 17.913 23.3166C17.5492 23.5773 17.1305 23.7695 16.6912 23.893C16.1833 24.0439 15.6548 24.0988 15.1263 24.1125C14.4537 24.1263 13.7673 24.0645 13.1153 23.8518C12.5799 23.6802 12.0858 23.3852 11.6671 23.0078C11.42 22.7951 11.2072 22.548 10.9807 22.3147C10.7473 22.0746 10.4659 21.8825 10.157 21.7452C10.0952 21.7109 10.0266 21.704 9.97168 21.6629C10.0884 21.5188 10.1845 21.3541 10.2051 21.1688C10.2326 20.9561 10.26 20.7228 10.3904 20.5375Z" fill="#CE1125"/>
<path d="M18.8608 20.9561C18.8677 20.9012 18.9157 20.8875 18.9501 20.8806C18.9844 20.9904 19.0049 21.107 18.9981 21.2168C18.9637 21.3198 18.8814 21.3952 18.8471 21.4913C18.8265 21.5393 18.854 21.5942 18.8677 21.6491C18.9226 21.7795 18.9638 21.9167 18.9432 22.054C18.9226 22.1775 18.8814 22.3147 18.7991 22.4108C18.7991 22.2255 18.9157 22.054 18.854 21.8687C18.8128 21.7246 18.6823 21.6011 18.7166 21.4433C18.7578 21.3198 18.8814 21.2511 18.9432 21.1482C18.9569 21.1139 18.9569 21.059 18.9226 21.0384C18.8883 21.0178 18.8608 20.9561 18.8608 20.9561Z" fill="#FBD014"/>
<path d="M10.2334 21.2372C10.254 21.2098 10.2746 21.1892 10.3089 21.1686C10.4393 21.2372 10.4462 21.4156 10.5629 21.498C10.7071 21.6009 10.8924 21.6832 11.0777 21.6558C11.1944 21.6421 11.3316 21.6352 11.4345 21.7038C11.5032 21.745 11.5032 21.8411 11.4689 21.9097C11.3728 22.0675 11.1531 22.1224 10.9953 22.0263C10.9266 21.9783 10.9472 21.8891 10.9404 21.8136C10.9404 21.7587 10.8786 21.7313 10.8305 21.7176C10.707 21.6764 10.5629 21.6627 10.4668 21.5735C10.357 21.4705 10.2609 21.3813 10.2334 21.2372Z" fill="#FBD014"/>
<path d="M19.1545 21.4978C19.0859 21.4498 19.0928 21.3469 19.1202 21.2783C19.1408 21.2234 19.1683 21.2989 19.182 21.3194C19.2094 21.3743 19.182 21.443 19.1545 21.4978Z" fill="#FBD014"/>
<path d="M9.24528 21.3609C9.30706 21.4364 9.35511 21.5119 9.42374 21.5805C9.49925 21.656 9.58847 21.7177 9.6777 21.7795C9.68456 21.8893 9.7463 21.9785 9.81494 22.0608C9.97967 22.2598 10.1856 22.4177 10.3915 22.5618C10.6867 22.7607 10.9955 22.946 11.3455 23.0352C11.421 23.0627 11.5172 23.0421 11.5789 23.1107C11.778 23.296 12.0045 23.4469 12.2241 23.6047C11.8946 23.6391 11.5652 23.5979 11.2495 23.543C10.9681 23.495 10.7072 23.3646 10.4807 23.2068C10.2061 23.0078 9.94533 22.7676 9.62273 22.6441C9.30014 22.5137 8.94325 22.5069 8.61379 22.5618C8.49025 22.5755 8.37355 22.6098 8.25 22.6304C8.401 22.4176 8.60691 22.2461 8.85401 22.1638C8.97069 22.1226 9.10113 22.1089 9.23154 22.0951C9.26586 22.0746 9.28645 22.0334 9.3139 22.0059C9.2384 21.8001 9.19724 21.5805 9.24528 21.3609Z" fill="#CE1125"/>
<path d="M20.6651 21.4501C20.6857 21.4227 20.6994 21.3884 20.7337 21.3815C20.7817 21.5942 20.7269 21.8069 20.6788 22.0128C20.6925 22.0471 20.72 22.0814 20.7406 22.1088C21.1318 22.1088 21.5161 22.3078 21.7289 22.6372C21.5573 22.6029 21.3789 22.5617 21.2005 22.548C20.8847 22.5137 20.5552 22.5549 20.2669 22.6921C19.8551 22.8842 19.5532 23.2479 19.1345 23.4332C18.8599 23.5567 18.5648 23.591 18.2765 23.6184C18.1049 23.6253 17.9265 23.6322 17.7549 23.6116C17.8304 23.543 17.9265 23.5018 18.0088 23.44C18.1598 23.3371 18.2971 23.2136 18.4413 23.097C18.8188 23.0421 19.1619 22.8568 19.4845 22.6441C19.6836 22.5137 19.8689 22.3696 20.0405 22.2049C20.1571 22.0951 20.2807 21.9647 20.3013 21.7932C20.4386 21.6903 20.569 21.5873 20.6651 21.4501Z" fill="#CE1125"/>
<path d="M18.1811 21.7179C18.2154 21.6356 18.2977 21.5944 18.3732 21.5807C18.4418 21.567 18.4968 21.615 18.538 21.6562C18.6478 21.7797 18.6821 21.9444 18.6752 22.1022C18.6684 22.2463 18.6684 22.3972 18.5998 22.5345C18.5448 22.6374 18.4968 22.7472 18.4213 22.8433C18.4007 22.8707 18.3664 22.8844 18.3321 22.8982C18.3252 22.7746 18.4213 22.6854 18.4762 22.5894C18.5723 22.459 18.5929 22.2875 18.6066 22.1296C18.6135 22.0473 18.6203 21.9581 18.586 21.8826C18.5654 21.8758 18.5449 21.8826 18.5311 21.9032C18.4694 21.9855 18.4488 22.0953 18.3527 22.1434C18.2497 22.1502 18.1536 22.013 18.2016 21.9169C18.2634 21.8963 18.2772 21.9993 18.3389 21.9787C18.4213 21.9306 18.4693 21.814 18.4282 21.7179C18.4076 21.7179 18.3733 21.7179 18.3595 21.7317C18.2978 21.7797 18.2497 21.8346 18.1948 21.8895C18.1742 21.8277 18.1605 21.766 18.1811 21.7179Z" fill="#FBD014"/>
<path d="M11.8322 21.6627C11.8665 21.6627 11.9076 21.6558 11.9419 21.6558C11.9831 21.697 11.9832 21.7587 11.9832 21.8136C11.9832 21.944 11.9488 22.0812 11.8733 22.191C11.8253 22.2734 11.7498 22.3283 11.7086 22.4106C11.6949 22.4312 11.6949 22.4518 11.6949 22.4724C11.7635 22.4998 11.8459 22.4724 11.9008 22.4243C12.0106 22.3283 12.1067 22.2185 12.2096 22.1155C12.2714 22.0606 12.3263 21.9989 12.4087 21.9714C12.4087 22.0126 12.4018 22.0538 12.3812 22.0949C12.2851 22.2596 12.1479 22.4106 12.1616 22.6096C12.1616 22.7262 12.2646 22.8086 12.3607 22.8635C12.4774 22.9321 12.6077 22.9733 12.745 22.9733C12.8686 22.9664 12.9166 22.836 12.9784 22.7468C13.0058 22.7056 13.0401 22.7468 13.0607 22.7743C13.0401 22.8429 12.9852 22.8978 12.9852 22.9664C12.9852 23.0282 13.0402 23.0625 13.0882 23.0831C13.1363 23.1036 13.1911 23.1311 13.2392 23.1105C13.3078 23.0625 13.3216 22.9664 13.3903 22.9184C13.4383 22.9321 13.4245 22.987 13.4245 23.0282C13.4245 23.0899 13.404 23.1585 13.452 23.2066C13.5 23.2477 13.5893 23.2683 13.6373 23.2134C13.6785 23.1585 13.6923 23.0762 13.7334 23.0213C13.7609 23.0144 13.7883 23.0282 13.8021 23.0556C13.8364 23.1517 13.8364 23.2615 13.8982 23.3438C13.9462 23.4056 14.0285 23.4124 14.0971 23.3918C14.1383 23.3781 14.1384 23.3232 14.1452 23.2958C14.1521 23.0899 14.0972 22.8909 14.1315 22.6919C14.1315 22.5959 14.3031 22.6096 14.2893 22.7057C14.2962 22.8086 14.2756 22.9115 14.2756 23.0144C14.2756 23.1517 14.2619 23.3026 14.1726 23.4193C14.0971 23.5154 13.9599 23.5771 13.8363 23.5428C13.7677 23.5153 13.7471 23.4261 13.6785 23.3918C13.5892 23.3644 13.4931 23.385 13.4039 23.3918C13.3284 23.3987 13.2872 23.3232 13.2254 23.3026C13.1499 23.2821 13.0745 23.2958 12.999 23.2889C12.9372 23.234 12.9097 23.138 12.8274 23.0968C12.697 23.0076 12.5322 23.1036 12.3881 23.0556C12.244 23.0213 12.0999 22.9595 12.0175 22.836C11.9695 22.7605 11.9832 22.6645 11.9763 22.5753C11.9832 22.5478 11.9489 22.5272 11.9283 22.5067C11.8322 22.5341 11.7361 22.5684 11.6331 22.5684C11.5302 22.5684 11.434 22.5135 11.3448 22.4655C11.2487 22.4037 11.1389 22.3351 11.084 22.2185C11.2075 22.1842 11.3243 22.2596 11.4204 22.3145C11.489 22.3557 11.5713 22.3488 11.6331 22.3008C11.7292 22.239 11.7979 22.143 11.8253 22.0332C11.8802 21.9165 11.8459 21.7862 11.8322 21.6627Z" fill="#FBD014"/>
<path d="M11.1732 21.738C11.2418 21.7312 11.3448 21.7998 11.3105 21.8821C11.283 21.9301 11.2212 21.9507 11.1732 21.937C11.1251 21.8821 11.1114 21.7792 11.1732 21.738Z" fill="#CE1125"/>
<path d="M9.99972 22.0606C9.93794 21.9852 9.84872 21.9097 9.82812 21.8068C9.97913 21.8273 10.1164 21.896 10.2537 21.9646C10.4802 22.095 10.6998 22.2391 10.8852 22.4243C11.0293 22.5753 11.1803 22.7331 11.3244 22.8841C11.0499 22.8086 10.7891 22.6576 10.5488 22.4929C10.3498 22.3694 10.1644 22.2253 9.99972 22.0606Z" fill="#CE1125"/>
<path d="M19.7192 21.9717C19.8564 21.9031 20.0006 21.8139 20.1585 21.8139C20.0761 21.9854 19.9319 22.102 19.7947 22.2256C19.4995 22.4657 19.17 22.6784 18.82 22.8294C18.7651 22.85 18.7102 22.8706 18.6553 22.8774C18.8131 22.7127 18.971 22.5481 19.1289 22.3902C19.3005 22.2187 19.5064 22.0883 19.7192 21.9717Z" fill="#CE1125"/>
<path d="M17.7144 21.9098C17.7419 21.903 17.7556 21.9441 17.7762 21.9579C17.8036 21.9922 17.8517 21.999 17.8654 22.0402C17.8723 22.0814 17.8654 22.15 17.8105 22.15C17.7899 22.1157 17.7762 22.0882 17.7694 22.0608C17.7007 22.0471 17.687 21.9716 17.7144 21.9098Z" fill="#FBD014"/>
<path d="M17.5555 21.9714C17.5623 21.9714 17.5829 21.9783 17.5967 21.9852C17.6035 22.0332 17.6104 22.0812 17.5967 22.1224C17.5829 22.1361 17.5692 22.1361 17.5486 22.1224C17.528 22.0744 17.5417 22.0195 17.5555 21.9714Z" fill="#FBD014"/>
<path d="M17.8847 22.1363C17.8778 22.0951 17.9122 22.0676 17.9328 22.0402C17.974 22.1157 17.9877 22.198 18.022 22.2804C18.0563 22.3558 18.1661 22.3147 18.2141 22.3833C18.221 22.4176 18.1936 22.445 18.1661 22.4588C18.1181 22.4999 18.0495 22.4794 17.9945 22.4862C17.8985 22.4931 17.8367 22.5754 17.7475 22.5754C17.72 22.5342 17.768 22.5068 17.7955 22.4862C17.8504 22.4382 17.9327 22.4039 17.9533 22.3284C17.9465 22.2598 17.8916 22.2049 17.8847 22.1363Z" fill="#FBD014"/>
<path d="M17.9124 22.8432C18.0017 22.7471 18.0223 22.6167 18.0909 22.5138C18.1252 22.4932 18.1389 22.5344 18.1526 22.5618C18.1801 22.6373 18.1527 22.7265 18.1046 22.7883C18.0085 22.9255 17.8712 23.0284 17.734 23.1314C17.5624 23.2617 17.3496 23.3235 17.13 23.2961C17.027 23.2755 16.9721 23.1725 16.9584 23.0765C16.9378 22.9804 16.9378 22.8775 16.9859 22.802C17.0064 22.8981 16.9996 23.0147 17.082 23.0902C17.1918 23.1588 17.329 23.152 17.4525 23.1176C17.631 23.0696 17.7889 22.9736 17.9124 22.8432Z" fill="#FBD014"/>
<path d="M14.6939 22.8224C14.7076 22.7675 14.7557 22.7263 14.7969 22.6989C14.8175 22.843 14.7969 22.9871 14.8106 23.1312C14.8175 23.2616 14.8312 23.3919 14.7831 23.5155C14.7763 23.5498 14.742 23.5635 14.7145 23.5772C14.6939 23.4468 14.7351 23.3165 14.7145 23.1861C14.7076 23.0694 14.6527 22.9391 14.6939 22.8224Z" fill="#FBD014"/>
<path d="M15.4024 22.7537C15.4436 22.7332 15.4573 22.788 15.4779 22.8155C15.5397 22.9802 15.5603 23.1517 15.5672 23.3233C15.574 23.4262 15.5809 23.5291 15.5465 23.6252C15.5397 23.6526 15.5123 23.6595 15.4985 23.6732C15.4779 23.5566 15.4848 23.4331 15.4711 23.3164C15.4505 23.1449 15.3819 22.987 15.3682 22.8155C15.3682 22.8018 15.375 22.7606 15.4024 22.7537Z" fill="#FBD014"/>
<path d="M15.9502 23.0144C15.8815 22.98 15.8815 22.8702 15.9433 22.8359C16.1423 22.8497 16.3345 23.0624 16.2659 23.2682C16.2109 23.4535 16.0119 23.5564 15.8266 23.5564C15.7854 23.5633 15.7579 23.5221 15.7305 23.5015C15.8128 23.378 15.9776 23.3849 16.1011 23.3574C16.1629 23.3437 16.2384 23.282 16.1972 23.2202C16.1561 23.1104 16.0462 23.0692 15.9502 23.0144Z" fill="#FBD014"/>
<path d="M17.9826 23.0626C18.0169 23.042 18.0787 23.042 18.1131 23.0831C18.1405 23.1929 17.9071 23.1998 17.9482 23.09C17.9551 23.0763 17.9689 23.0694 17.9826 23.0626Z" fill="#FBD014"/>
<path d="M15.1475 23.1381C15.1955 23.1724 15.2298 23.2205 15.2298 23.2822C15.2435 23.4538 15.1269 23.5979 14.9896 23.6802C14.7562 23.8243 14.4611 23.8106 14.2071 23.7214L14.1865 23.6939C14.4062 23.6733 14.6395 23.7214 14.8591 23.6596C14.969 23.6322 15.0651 23.5567 15.0994 23.4469C15.1475 23.3508 15.1269 23.2411 15.1475 23.1381Z" fill="#FBD014"/>
<path d="M17.7895 23.1517C17.8719 23.0899 17.9131 23.2615 17.8445 23.2889C17.769 23.3026 17.7415 23.1997 17.7895 23.1517Z" fill="#FBD014"/>
</svg>
