<svg width="30" height="30" viewBox="0 0 30 30" fill="none" xmlns="http://www.w3.org/2000/svg">
<path d="M14.9999 30.0001C21.052 30.0001 26.267 26.4113 28.6344 21.2512H1.36539C3.73273 26.4182 8.94773 30.0001 14.9999 30.0001Z" fill="#007A3D"/>
<path d="M14.9999 4.95911e-05C8.94773 4.95911e-05 3.73273 3.5888 1.36539 8.74891H28.6344C26.2602 3.5888 21.052 4.95911e-05 14.9999 4.95911e-05Z" fill="#D81E05"/>
<path d="M0 15C0 17.2302 0.494047 19.3505 1.3655 21.2512H28.6345C29.506 19.3505 30 17.2302 30 15C30 12.7699 29.506 10.6565 28.6345 8.7489H1.3655C0.487185 10.6565 0 12.7699 0 15Z" fill="#F7E214"/>
</svg>
