<svg width="30" height="30" viewBox="0 0 30 30" fill="none" xmlns="http://www.w3.org/2000/svg">
<g clip-path="url(#clip0_1_13566)">
<path d="M-7.50027 0.0010376H37.4997V30.001H-7.50027V0.0010376Z" fill="#F1F4FB"/>
<path d="M37.4997 1.25104V31.251H-7.50027L37.4997 1.25104Z" fill="#003087"/>
<path d="M-6.24985 13.751V0.0010376H15.0002L-6.24985 13.751Z" fill="#FFD700"/>
<path d="M7.49991 5.41772L11.83 12.9177L7.49991 20.4177L3.16978 12.9177L7.49991 5.41772ZM14.9999 12.9177L7.49991 17.2479L-9.15527e-05 12.9177L7.49991 8.5876L14.9999 12.9177Z" fill="#101820"/>
<path d="M7.49943 19.413C11.0866 19.413 13.9946 16.5051 13.9946 12.9179C13.9946 9.33066 11.0866 6.42267 7.49943 6.42267C3.91224 6.42267 1.00424 9.33066 1.00424 12.9179C1.00424 16.5051 3.91224 19.413 7.49943 19.413Z" fill="#101820"/>
<path d="M7.49985 18.5428C10.6064 18.5428 13.1248 16.0244 13.1248 12.9178C13.1248 9.81124 10.6064 7.29285 7.49985 7.29285C4.39325 7.29285 1.87485 9.81124 1.87485 12.9178C1.87485 16.0244 4.39325 18.5428 7.49985 18.5428Z" fill="#F1F4FB"/>
<path d="M7.49973 16.6678L4.25214 11.0428H10.7473L7.49973 16.6678ZM7.49973 9.16785L10.7473 14.7928H4.25214L7.49973 9.16785Z" fill="#D50032"/>
</g>
<defs>
<clipPath id="clip0_1_13566">
<rect y="0.0010376" width="30" height="30" rx="15" fill="white"/>
</clipPath>
</defs>
</svg>
