<svg width="30" height="30" viewBox="0 0 30 30" fill="none" xmlns="http://www.w3.org/2000/svg">
<path d="M30 15.0001C30 23.2823 23.2823 30 15 30C6.71091 30 0 23.2823 0 15.0001C0 6.71781 6.71778 6.86646e-05 15 6.86646e-05C23.2891 6.86646e-05 30 6.71781 30 15.0001Z" fill="#00923E"/>
<path d="M1.25568 15.0001L15.0068 23.7833L28.758 15.0001L15.0068 6.21696L1.25568 15.0001Z" fill="#F8C100"/>
<path d="M15.0066 9.11287C18.2592 9.11287 20.8941 11.7478 20.8941 15.0003C20.8941 18.2528 18.2592 20.8878 15.0066 20.8878C11.7541 20.8878 9.1123 18.2528 9.1123 15.0003C9.1123 11.7478 11.7473 9.11287 15.0066 9.11287Z" fill="#28166F"/>
<path d="M20.8605 15.597C18.2873 13.5385 14.9937 12.3582 11.4392 12.4818C10.8148 12.5023 10.1972 12.571 9.5934 12.6739C9.46302 12.9621 9.36695 13.2709 9.28461 13.5797C9.99138 13.4356 10.7187 13.3464 11.4667 13.3189C14.9731 13.1954 18.2119 14.4237 20.6821 16.5371C20.7713 16.2283 20.8331 15.9195 20.8605 15.597Z" fill="white"/>
<path d="M9.765 13.0583C9.75814 13.0034 9.75815 12.9485 9.77187 12.9073C9.77873 12.873 9.79246 12.8456 9.81304 12.8181C9.83363 12.7907 9.8542 12.7701 9.88164 12.7564C9.91595 12.7358 9.95712 12.7221 10.0052 12.7152C10.0875 12.7015 10.1561 12.7221 10.2179 12.7632C10.2796 12.8113 10.314 12.8799 10.3277 12.9691C10.3414 13.0652 10.3277 13.1338 10.2865 13.1955C10.2453 13.2573 10.1836 13.2916 10.0944 13.2985C10.012 13.3122 9.93654 13.2916 9.88164 13.2504C9.81302 13.223 9.77186 13.1544 9.765 13.0583ZM9.88164 13.0446C9.8885 13.1063 9.91593 13.1544 9.95024 13.1818C9.98455 13.2092 10.0258 13.223 10.0669 13.2161C10.115 13.2092 10.1492 13.1887 10.1767 13.1475C10.2041 13.1063 10.211 13.0583 10.1973 12.9897C10.1904 12.9211 10.1698 12.8799 10.1355 12.8524C10.1012 12.825 10.0601 12.8113 10.012 12.8181C9.96399 12.825 9.9297 12.8456 9.90225 12.8799C9.8748 12.9279 9.86792 12.9759 9.88164 13.0446Z" fill="#00923E"/>
<path d="M10.5744 13.2436L10.5264 12.6672L10.7665 12.6466C10.8283 12.6397 10.8763 12.6397 10.9038 12.6466C10.9312 12.6535 10.9587 12.674 10.9724 12.6946C10.993 12.7221 10.9998 12.7495 11.0067 12.7838C11.0067 12.825 10.9998 12.8662 10.9792 12.8936C10.9518 12.9211 10.9175 12.9417 10.8695 12.9554C10.8969 12.9691 10.9175 12.9828 10.9381 12.9966C10.9518 13.0103 10.9793 13.0446 11.0067 13.0858L11.089 13.1955L10.9518 13.2093L10.8557 13.0926C10.8214 13.0514 10.8008 13.024 10.7871 13.0171C10.7734 13.0034 10.7597 12.9966 10.7528 12.9966C10.7391 12.9897 10.7185 12.9897 10.691 12.9966H10.6705L10.691 13.2367L10.5744 13.2436ZM10.6567 12.9005L10.746 12.8936C10.8008 12.8936 10.8352 12.8868 10.8489 12.8799C10.8626 12.873 10.8763 12.8662 10.8763 12.8525C10.8832 12.8387 10.8832 12.825 10.8832 12.8113C10.8832 12.7907 10.8763 12.777 10.8626 12.7632C10.8489 12.7564 10.8351 12.7495 10.8146 12.7427C10.8077 12.7427 10.7802 12.7427 10.7322 12.7495L10.643 12.7564L10.6567 12.9005Z" fill="#00923E"/>
<path d="M11.2744 12.6055L11.4871 12.5986C11.5352 12.5986 11.5695 12.5986 11.5969 12.6055C11.6312 12.6192 11.6587 12.633 11.6861 12.6604C11.7136 12.6879 11.7273 12.7153 11.7479 12.7496C11.7616 12.7839 11.7684 12.8319 11.7684 12.8868C11.7684 12.9349 11.7684 12.976 11.7547 13.0104C11.741 13.0515 11.7204 13.0858 11.693 13.1133C11.6724 13.1339 11.6449 13.1476 11.6106 13.1613C11.5832 13.1682 11.5489 13.175 11.5077 13.175L11.2881 13.1819L11.2744 12.6055ZM11.3911 12.7016L11.3979 13.079H11.4871C11.5214 13.079 11.542 13.079 11.5557 13.0721C11.5763 13.0653 11.59 13.0584 11.6038 13.0447C11.6175 13.0309 11.6243 13.0172 11.6312 12.9898C11.6381 12.9623 11.6381 12.928 11.6381 12.8868C11.6381 12.8457 11.6312 12.8114 11.6243 12.7839C11.6175 12.7633 11.6038 12.7427 11.59 12.729C11.5763 12.7153 11.5558 12.7084 11.5352 12.7016C11.5214 12.7016 11.4871 12.7016 11.4391 12.7016H11.3911Z" fill="#00923E"/>
<path d="M11.9948 13.1681L12.0017 12.5917L12.4271 12.5986V12.6946L12.1183 12.6878V12.8182L12.4065 12.825V12.9211L12.1183 12.9142L12.1115 13.0721L12.434 13.0789V13.175L11.9948 13.1681Z" fill="#00923E"/>
<path d="M12.6608 13.1817L12.7019 12.6053L12.8735 12.6191L12.949 13.017L13.0794 12.6328L13.2509 12.6465L13.2097 13.2229L13.0999 13.216L13.1342 12.7632L12.9902 13.2092L12.8804 13.2023L12.798 12.7426L12.7637 13.1955L12.6608 13.1817Z" fill="#00923E"/>
<path d="M13.8135 13.2916L13.9027 12.7221L14.3282 12.7839L14.3145 12.8799L14.0057 12.8319L13.9851 12.9554L14.2733 12.9966L14.2596 13.0926L13.9714 13.0515L13.9508 13.2093L14.2664 13.2573L14.2527 13.3534L13.8135 13.2916Z" fill="#00923E"/>
<path d="M14.8149 13.4631L14.9453 12.9005L15.1237 12.9416C15.1924 12.9553 15.2335 12.9691 15.2541 12.9828C15.2816 13.0034 15.309 13.024 15.3227 13.0583C15.3364 13.0926 15.3433 13.1338 15.3296 13.1749C15.3227 13.2092 15.309 13.2367 15.2884 13.2573C15.2678 13.2779 15.2541 13.2916 15.2266 13.2984C15.206 13.3053 15.1855 13.3122 15.1649 13.3122C15.1375 13.3122 15.0963 13.3053 15.0483 13.2916L14.9728 13.2778L14.9247 13.4906L14.8149 13.4631ZM15.0345 13.024L14.9934 13.1818L15.0551 13.1955C15.1031 13.2092 15.1306 13.2092 15.1443 13.2092C15.158 13.2092 15.1786 13.2024 15.1855 13.1886C15.1992 13.1818 15.2061 13.1681 15.2061 13.1475C15.2129 13.1269 15.2061 13.1132 15.1992 13.0926C15.1855 13.072 15.1786 13.0651 15.158 13.0583C15.1443 13.0514 15.1169 13.0445 15.0826 13.0377L15.0345 13.024Z" fill="#00923E"/>
<path d="M15.467 13.621L15.6249 13.0652L15.8582 13.1338C15.9199 13.1475 15.9611 13.1681 15.9817 13.1819C16.0091 13.2024 16.0229 13.223 16.0297 13.2573C16.0366 13.2848 16.0366 13.3191 16.0297 13.3534C16.016 13.3946 15.9954 13.4289 15.9611 13.4426C15.9268 13.4632 15.8856 13.4701 15.8376 13.4632C15.8582 13.4838 15.8719 13.5044 15.8856 13.525C15.8925 13.5455 15.9062 13.5867 15.9199 13.6347L15.9542 13.7583L15.8239 13.7171L15.7758 13.573C15.7621 13.5181 15.7484 13.4906 15.7415 13.4701C15.7346 13.4563 15.7278 13.4426 15.7141 13.4357C15.7003 13.4289 15.6866 13.422 15.6592 13.4152L15.6386 13.4083L15.5699 13.6416L15.467 13.621ZM15.6729 13.3328L15.7552 13.3534C15.8101 13.3671 15.8444 13.374 15.8582 13.374C15.8719 13.374 15.8856 13.3671 15.8925 13.3603C15.9062 13.3534 15.913 13.3397 15.913 13.3191C15.9199 13.2985 15.9199 13.2848 15.913 13.2711C15.9062 13.2573 15.8925 13.2436 15.8787 13.2368C15.8719 13.2368 15.8444 13.223 15.7964 13.2093L15.7072 13.1819L15.6729 13.3328Z" fill="#00923E"/>
<path d="M16.2148 13.5456C16.2285 13.4907 16.256 13.4495 16.2835 13.4152C16.304 13.3946 16.3315 13.374 16.3589 13.3603C16.3864 13.3466 16.4207 13.3397 16.4481 13.3329C16.4893 13.3329 16.5305 13.3397 16.5716 13.3535C16.6471 13.3809 16.7089 13.4289 16.7363 13.4976C16.7638 13.5662 16.7638 13.6417 16.7363 13.7309C16.7089 13.8201 16.6609 13.8818 16.5922 13.9093C16.5236 13.9436 16.455 13.9436 16.3727 13.9161C16.2903 13.8887 16.2354 13.8406 16.208 13.7789C16.1874 13.7103 16.1874 13.6279 16.2148 13.5456ZM16.3315 13.5799C16.3109 13.6417 16.3109 13.6897 16.3246 13.7309C16.3384 13.772 16.3727 13.7995 16.4138 13.8201C16.455 13.8338 16.4962 13.8338 16.5373 13.8063C16.5785 13.7858 16.606 13.7446 16.6266 13.676C16.6471 13.6142 16.654 13.5593 16.6334 13.525C16.6197 13.4838 16.5854 13.4564 16.5442 13.4427C16.4962 13.4289 16.455 13.4289 16.4207 13.4495C16.3795 13.477 16.3521 13.5181 16.3315 13.5799Z" fill="#00923E"/>
<path d="M17.1892 13.9847L17.2235 13.8955L17.4499 13.9916L17.3676 14.2043C17.3333 14.218 17.2921 14.218 17.244 14.218C17.196 14.218 17.148 14.2043 17.1 14.1906C17.0451 14.1631 17.0039 14.1357 16.9696 14.0945C16.9353 14.0534 16.9215 14.0053 16.9147 13.9573C16.9147 13.9024 16.9215 13.8544 16.9421 13.7995C16.9627 13.7446 16.997 13.6965 17.0382 13.6691C17.0794 13.6348 17.1274 13.6142 17.1823 13.6142C17.2235 13.6073 17.2715 13.6211 17.3195 13.6416C17.3813 13.6691 17.4293 13.7034 17.4567 13.7446C17.4842 13.7857 17.4911 13.8338 17.4773 13.8887L17.3676 13.8612C17.3676 13.8338 17.3676 13.8063 17.3538 13.7789C17.3401 13.7583 17.3126 13.7377 17.2852 13.724C17.2372 13.7034 17.196 13.7034 17.1548 13.724C17.1136 13.7446 17.0862 13.7789 17.0588 13.8406C17.0313 13.9024 17.0313 13.9573 17.045 13.9985C17.0588 14.0396 17.0931 14.0739 17.1343 14.0945C17.1548 14.1014 17.1823 14.1082 17.2097 14.1082C17.2372 14.1082 17.2578 14.1082 17.2784 14.1014L17.3058 14.0328L17.1892 13.9847Z" fill="#00923E"/>
<path d="M17.5598 14.3689L17.8068 13.8474L18.0264 13.9503C18.0813 13.9778 18.1225 13.9984 18.1431 14.019C18.1636 14.0396 18.1774 14.067 18.1842 14.1013C18.1842 14.1288 18.1843 14.1631 18.1705 14.1905C18.1499 14.2317 18.1294 14.2591 18.0882 14.2729C18.0539 14.2866 18.0127 14.2866 17.9647 14.2729C17.9784 14.2934 17.9921 14.3209 17.999 14.3415C18.0058 14.3621 18.0127 14.4032 18.0195 14.4513L18.0333 14.5816L17.9098 14.5199L17.8892 14.3689C17.8823 14.314 17.8755 14.2797 17.8686 14.266C17.8617 14.2523 17.8549 14.2385 17.848 14.2317C17.8411 14.2248 17.8205 14.2111 17.8 14.2042L17.7794 14.1905L17.6765 14.4101L17.5598 14.3689ZM17.8068 14.1219L17.8823 14.1562C17.9372 14.1768 17.9647 14.1905 17.9784 14.1974C17.9921 14.1974 18.0058 14.1974 18.0195 14.1905C18.0333 14.1837 18.0402 14.1699 18.047 14.1562C18.0539 14.1356 18.0608 14.1219 18.0539 14.1082C18.0539 14.0944 18.0401 14.0807 18.0264 14.067C18.0196 14.0601 17.9921 14.0464 17.9509 14.0258L17.8686 13.9847L17.8068 14.1219Z" fill="#00923E"/>
<path d="M18.1981 14.6847L18.4725 14.1769L18.8499 14.3828L18.8019 14.4651L18.5274 14.321L18.4657 14.4377L18.7196 14.5749L18.6715 14.6641L18.4176 14.5269L18.3422 14.6641L18.6235 14.8151L18.5755 14.9043L18.1981 14.6847Z" fill="#00923E"/>
<path d="M18.8502 14.8286L18.9531 14.8766C18.9394 14.9109 18.9394 14.9452 18.9462 14.9727C18.9531 15.0001 18.9737 15.0207 19.0011 15.0413C19.0354 15.0619 19.0629 15.0687 19.0903 15.0687C19.1178 15.0619 19.1315 15.055 19.1452 15.0344C19.1521 15.0207 19.1521 15.0138 19.1521 15.0001C19.1521 14.9864 19.1383 14.9727 19.1315 14.9589C19.1246 14.9452 19.0972 14.9246 19.0629 14.8903C19.0148 14.8423 18.9874 14.808 18.9805 14.7737C18.9668 14.7256 18.9737 14.6845 18.9943 14.6433C19.008 14.6159 19.0286 14.5953 19.056 14.5884C19.0835 14.5747 19.1109 14.5678 19.1452 14.5747C19.1795 14.5815 19.2139 14.5953 19.255 14.6159C19.3168 14.657 19.3579 14.6982 19.3717 14.7394C19.3854 14.7874 19.3785 14.8286 19.3579 14.8766L19.255 14.8217C19.2688 14.7943 19.2687 14.7737 19.2619 14.7531C19.255 14.7325 19.2344 14.7188 19.207 14.6982C19.1795 14.6845 19.1521 14.6707 19.1315 14.6776C19.1178 14.6776 19.104 14.6845 19.0972 14.6982C19.0903 14.7119 19.0903 14.7256 19.0972 14.7394C19.104 14.76 19.1247 14.7874 19.1658 14.8286C19.207 14.8697 19.2344 14.9041 19.2482 14.9315C19.2619 14.9589 19.2687 14.9864 19.2687 15.0138C19.2687 15.0413 19.2619 15.0756 19.2413 15.103C19.2207 15.1305 19.2001 15.1511 19.1727 15.1717C19.1383 15.1854 19.1109 15.1923 19.0697 15.1854C19.0354 15.1785 18.9943 15.1648 18.9531 15.1374C18.8914 15.103 18.857 15.055 18.8364 15.007C18.8158 14.9384 18.8227 14.8835 18.8502 14.8286Z" fill="#00923E"/>
<path d="M19.4266 15.1854L19.5295 15.2403C19.5158 15.2746 19.5089 15.309 19.5157 15.3364C19.5226 15.3639 19.5432 15.3844 19.5706 15.405C19.5981 15.4256 19.6255 15.4325 19.653 15.4325C19.6736 15.4325 19.6942 15.4188 19.7079 15.3982C19.7148 15.3844 19.7148 15.3776 19.7148 15.3639C19.7148 15.3501 19.7079 15.3364 19.6942 15.3158C19.6873 15.3021 19.6667 15.2815 19.6324 15.2472C19.5912 15.1992 19.5638 15.158 19.5569 15.1237C19.5432 15.0757 19.5501 15.0345 19.5775 15.0002C19.5912 14.9796 19.6187 14.959 19.6461 14.9453C19.6736 14.9316 19.7079 14.9316 19.7422 14.9384C19.7765 14.9453 19.8108 14.959 19.8451 14.9865C19.9069 15.0276 19.9412 15.0688 19.9549 15.1168C19.9686 15.1649 19.9618 15.2129 19.9343 15.2541L19.8383 15.1923C19.852 15.1649 19.852 15.1443 19.8451 15.1237C19.8383 15.1031 19.8245 15.0825 19.7971 15.0688C19.7696 15.0482 19.7422 15.0413 19.7216 15.0413C19.7079 15.0413 19.6941 15.0482 19.6873 15.0619C19.6804 15.0757 19.6805 15.0894 19.6805 15.1031C19.6873 15.1237 19.7079 15.1511 19.7491 15.1923C19.7902 15.2335 19.8177 15.2678 19.8314 15.2952C19.8451 15.3227 19.852 15.3501 19.852 15.3776C19.852 15.405 19.8382 15.4393 19.8177 15.4668C19.7971 15.4942 19.7765 15.5148 19.7422 15.5285C19.7079 15.5423 19.6804 15.5491 19.6461 15.5423C19.6118 15.5354 19.5706 15.5148 19.5295 15.4874C19.4677 15.4462 19.4334 15.405 19.4197 15.3501C19.3854 15.2952 19.3991 15.2403 19.4266 15.1854Z" fill="#00923E"/>
<path d="M20.0441 15.4943C20.0784 15.4463 20.1196 15.4119 20.1539 15.3914C20.1814 15.3776 20.2088 15.3639 20.2431 15.3571C20.2774 15.3502 20.3049 15.357 20.3323 15.3639C20.3735 15.3708 20.4078 15.3914 20.449 15.4188C20.5176 15.4668 20.5519 15.5286 20.5656 15.6041C20.5725 15.6796 20.5519 15.7482 20.4902 15.8237C20.4353 15.8991 20.3735 15.9403 20.298 15.954C20.2225 15.9678 20.1539 15.9472 20.0922 15.8923C20.0235 15.8374 19.9824 15.7756 19.9755 15.707C19.9687 15.6384 19.9892 15.5629 20.0441 15.4943ZM20.1471 15.5629C20.1059 15.6178 20.0853 15.6658 20.0922 15.707C20.099 15.755 20.1128 15.7893 20.1539 15.8168C20.1882 15.8442 20.2294 15.8511 20.2774 15.8442C20.3186 15.8374 20.3666 15.8031 20.4009 15.755C20.4421 15.7001 20.4559 15.6521 20.4559 15.6109C20.4559 15.5698 20.4284 15.5286 20.3941 15.5012C20.3529 15.4737 20.3117 15.46 20.2706 15.4668C20.2294 15.4806 20.1814 15.508 20.1471 15.5629Z" fill="#00923E"/>
<path d="M16.8731 12.7631L16.928 12.9347H17.0996L16.9623 13.0376L17.0172 13.2023L16.8731 13.0993L16.729 13.2023L16.7839 13.0376L16.6467 12.9347H16.8182L16.8731 12.7631Z" fill="white"/>
<path d="M15.0277 17.5254L15.0826 17.6901H15.2541L15.1169 17.793L15.1718 17.9577L15.0277 17.8548L14.8835 17.9577L14.9385 17.793L14.8012 17.6901H14.9728L15.0277 17.5254Z" fill="white"/>
<path d="M19.2063 16.9421L19.2612 17.1068H19.4396L19.2956 17.2097L19.3504 17.3813L19.2063 17.2783L19.0622 17.3813L19.1171 17.2097L18.973 17.1068H19.1514L19.2063 16.9421Z" fill="white"/>
<path d="M20.0294 17.0794L20.0637 17.1892H20.1804L20.0843 17.2509L20.1255 17.3607L20.0294 17.299L19.9402 17.3607L19.9745 17.2509L19.8853 17.1892H19.9951L20.0294 17.0794Z" fill="white"/>
<path d="M19.447 17.4979L19.495 17.6489H19.646L19.5225 17.7381L19.5705 17.8822L19.447 17.793L19.3235 17.8822L19.3715 17.7381L19.2411 17.6489H19.399L19.447 17.4979Z" fill="white"/>
<path d="M19.076 17.985L19.1241 18.1291H19.275L19.1515 18.2183L19.1995 18.3624L19.076 18.2732L18.9594 18.3624L19.0005 18.2183L18.877 18.1291H19.0349L19.076 17.985Z" fill="white"/>
<path d="M18.6025 18.3418L18.6437 18.4516H18.7603L18.6643 18.5202L18.6986 18.63L18.6025 18.5613L18.5133 18.63L18.5476 18.5202L18.4515 18.4516H18.5682L18.6025 18.3418Z" fill="white"/>
<path d="M17.985 18.2183L18.0262 18.3281H18.136L18.0468 18.3967L18.0811 18.5065L17.985 18.4379L17.8958 18.5065L17.9301 18.3967L17.834 18.3281H17.9507L17.985 18.2183Z" fill="white"/>
<path d="M17.319 18.4241L17.3601 18.5408H17.4768L17.3807 18.6163L17.4219 18.7329L17.319 18.6574L17.216 18.7329L17.2572 18.6163L17.1542 18.5408H17.2778L17.319 18.4241Z" fill="white"/>
<path d="M17.9989 19.3916L18.0332 19.5083H18.1498L18.0538 19.5769L18.0949 19.6867L17.9989 19.6181L17.9028 19.6867L17.9371 19.5769L17.841 19.5083H17.9646L17.9989 19.3916Z" fill="white"/>
<path d="M16.798 18.884L16.846 19.035H17.0038L16.8735 19.1242L16.9215 19.282L16.798 19.1859L16.6676 19.282L16.7156 19.1242L16.5853 19.035H16.7431L16.798 18.884Z" fill="white"/>
<path d="M16.3315 18.2663L16.3727 18.383H16.4962L16.3932 18.4516L16.4344 18.5682L16.3315 18.4996L16.2354 18.5682L16.2697 18.4516L16.1736 18.383H16.2972L16.3315 18.2663Z" fill="white"/>
<path d="M18.0191 18.7536L18.0672 18.8978H18.2182L18.0947 18.9869L18.1426 19.1311L18.0191 19.0418L17.8888 19.1311L17.9368 18.9869L17.8133 18.8978H17.9711L18.0191 18.7536Z" fill="white"/>
<path d="M15.0202 19.6937L15.0339 19.7486H15.0888L15.0476 19.7829L15.0613 19.8378L15.0202 19.8035L14.9721 19.8378L14.9927 19.7829L14.9447 19.7486H15.0065L15.0202 19.6937Z" fill="white"/>
<path d="M16.5847 14.5611L16.619 14.6777H16.7494L16.6465 14.7532L16.6876 14.8767L16.5847 14.8012L16.4818 14.8767L16.5161 14.7532L16.42 14.6777H16.5436L16.5847 14.5611Z" fill="white"/>
<path d="M15.0271 15.8578L15.0614 15.9813H15.1987L15.0889 16.0637L15.1301 16.1872L15.0271 16.1117L14.9173 16.1872L14.9585 16.0637L14.8487 15.9813H14.9859L15.0271 15.8578Z" fill="white"/>
<path d="M15.7138 16.3932L15.7618 16.5304H15.9059L15.7893 16.6127L15.8304 16.75L15.7138 16.6608L15.604 16.75L15.6452 16.6127L15.5285 16.5304H15.6726L15.7138 16.3932Z" fill="white"/>
<path d="M14.4238 16.4068L14.4581 16.5165H14.5748L14.4787 16.5852L14.5199 16.695L14.4238 16.6263L14.3346 16.695L14.3689 16.5852L14.2797 16.5165H14.3895L14.4238 16.4068Z" fill="white"/>
<path d="M14.7122 16.8941L14.7328 16.9696H14.8083L14.7465 17.0107L14.774 17.0862L14.7122 17.0382L14.6505 17.0862L14.671 17.0107L14.6161 16.9696H14.6848L14.7122 16.8941Z" fill="white"/>
<path d="M10.1354 13.7925L10.1904 13.9571H10.3688L10.2247 14.0601L10.2796 14.2248L10.1354 14.1218L9.9982 14.2248L10.0462 14.0601L9.909 13.9571H10.0805L10.1354 13.7925Z" fill="white"/>
<path d="M12.7155 15.1305L12.7566 15.2678H12.9008L12.7841 15.3501L12.8321 15.4873L12.7155 15.405L12.5988 15.4873L12.64 15.3501L12.5233 15.2678H12.6674L12.7155 15.1305Z" fill="white"/>
<path d="M10.6698 16.2902L10.7247 16.4618H10.8962L10.759 16.5647L10.8139 16.7294L10.6698 16.6265L10.5257 16.7294L10.5806 16.5647L10.4434 16.4618H10.6149L10.6698 16.2902Z" fill="white"/>
<path d="M11.2468 16.0431L11.2743 16.1323H11.3635L11.2948 16.1803L11.3223 16.2627L11.2468 16.2147L11.1782 16.2627L11.2056 16.1803L11.137 16.1323H11.2262L11.2468 16.0431Z" fill="white"/>
<path d="M11.9189 16.9216L11.9669 17.0657H12.111L11.9943 17.148L12.0424 17.2921L11.9189 17.2029L11.7953 17.2921L11.8434 17.148L11.7198 17.0657H11.8708L11.9189 16.9216Z" fill="white"/>
<path d="M12.6191 18.0194L12.674 18.1841H12.8456L12.7083 18.287L12.7632 18.4517L12.6191 18.3488L12.4819 18.4517L12.5368 18.287L12.3927 18.1841H12.5642L12.6191 18.0194Z" fill="white"/>
<path d="M11.7269 17.5185L11.7749 17.6557H11.919L11.8023 17.7449L11.8504 17.889L11.7269 17.7998L11.6034 17.889L11.6514 17.7449L11.5279 17.6557H11.6788L11.7269 17.5185Z" fill="white"/>
<path d="M9.92936 16.9008L9.97053 17.0106H10.0803L9.99114 17.0792L10.0254 17.189L9.92936 17.1204L9.84016 17.189L9.87446 17.0792L9.77838 17.0106H9.89506L9.92936 16.9008Z" fill="white"/>
</svg>
