<svg width="30" height="30" viewBox="0 0 30 30" fill="none" xmlns="http://www.w3.org/2000/svg">
<path d="M2.90253 23.8463C5.63354 27.5715 10.0251 30 15 30C21.505 30 27.022 25.8564 29.1011 20.0663H7.83624L2.90253 23.8463Z" fill="#00ABC9"/>
<path d="M14.4579 15.0034L7.83624 20.0732H29.1011C29.6707 18.4885 30 16.7871 30 15.0034C30 13.2198 29.6707 11.5184 29.1011 9.94056H7.83624L14.4579 15.0034Z" fill="#FAE042"/>
<path d="M29.1011 9.93369C27.022 4.15048 21.4981 1.14467e-05 15 1.14467e-05C10.0251 1.14467e-05 5.63354 2.42855 2.90253 6.15368L7.83624 9.92684H29.1011V9.93369Z" fill="#00ABC9"/>
<path d="M7.83627 9.93369L2.90255 6.16054C2.0654 7.30621 1.38613 8.57536 0.898943 9.93369C0.329409 11.5184 0 13.2198 0 14.9966C0 16.7803 0.329409 18.4816 0.898943 20.0663C1.38613 21.4315 2.0654 22.6938 2.90255 23.8395L7.83627 20.0663L14.458 14.9966L7.83627 9.93369Z" fill="black"/>
</svg>
