<svg width="30" height="30" viewBox="0 0 30 30" fill="none" xmlns="http://www.w3.org/2000/svg">
<path d="M15.0035 30.0001C21.9768 30.0001 27.8176 25.238 29.4991 18.8016H0.501129C2.18953 25.2449 8.03717 30.0001 15.0035 30.0001Z" fill="#75AADB"/>
<path d="M15.0035 0.000152588C8.03031 0.000152588 2.18953 4.76227 0.501129 11.1987H29.4991C27.8176 4.76227 21.9768 0.000152588 15.0035 0.000152588Z" fill="#75AADB"/>
<path d="M0.508013 18.8019H29.506C29.6158 18.3832 29.705 17.9645 29.7805 17.539H0.233459C0.302094 17.9645 0.398198 18.3832 0.508013 18.8019Z" fill="white"/>
<path d="M29.7805 12.4684C29.705 12.036 29.6158 11.6173 29.506 11.1987H0.508013C0.398198 11.6173 0.308957 12.036 0.233459 12.4684H29.7805Z" fill="white"/>
<path d="M3.05176e-05 15.0002C3.05176e-05 15.8648 0.0892249 16.7088 0.226493 17.5322H29.7735C29.9108 16.7088 30 15.8648 30 15.0002C30 14.1356 29.9108 13.2916 29.7735 12.4681H0.226493C0.0892249 13.2916 3.05176e-05 14.1356 3.05176e-05 15.0002Z" fill="black"/>
</svg>
