<svg width="30" height="30" viewBox="0 0 30 30" fill="none" xmlns="http://www.w3.org/2000/svg">
<path d="M6.09238 27.0426C8.58952 28.8885 11.6629 30.0001 15.0039 30.0001C21.5074 30.0001 27.0231 25.8555 29.1018 20.0641H6.09238V27.0426Z" fill="#009900"/>
<path d="M29.1016 20.0641C29.671 18.479 30.0003 16.7773 30.0003 15.0001C30.0003 6.71783 23.284 7.62939e-05 15.0037 7.62939e-05C11.6627 7.62939e-05 8.58934 1.10483 6.0922 2.95753V20.071H29.1016V20.0641Z" fill="#CC0000"/>
<path d="M5.63966 3.30762V4.41924V5.26324V6.38172V6.9444V8.06288V8.90688V10.0254V10.7321V11.5693V12.132V12.4133V13.6759V14.5816V15.4256V16.3314V17.594V17.8753V18.438V19.2751V19.9819V21.1004V21.9444V23.0629V23.6256V24.7372V25.5812V26.6791C5.79059 26.8026 5.94153 26.9261 6.09931 27.0428V20.0643V2.9508C5.93466 3.06745 5.79059 3.19097 5.63966 3.30762Z" fill="white"/>
<path d="M0.569888 17.8685V17.5871V16.3246V15.4188V14.5748V13.669V12.4065V12.1251V11.5624V10.9312C0.206293 12.2212 0.000473022 13.5867 0.000473022 14.9934C0.000473022 16.3863 0.206293 17.7312 0.569888 19.0076V18.4311V17.8685Z" fill="white"/>
<path d="M4.14404 5.3999C4.14404 5.63315 4.14404 5.86639 4.14404 6.09964C4.24694 6.11336 4.34985 6.09964 4.44589 6.1065C4.44589 5.87326 4.44589 5.64001 4.44589 5.3999C4.54193 5.3999 4.64484 5.3999 4.74774 5.3999C4.74774 5.16665 4.74774 4.9334 4.74774 4.70015C4.84379 4.70015 4.94669 4.707 5.04273 4.69328C5.04273 4.46003 5.04273 4.22679 5.04273 4.0004C5.14563 4.0004 5.24167 4.0004 5.33772 4.0004C5.33772 3.84947 5.33772 3.69854 5.33772 3.54762C5.029 3.80831 4.72715 4.08958 4.43902 4.37086C4.43902 4.46004 4.43902 4.55608 4.43902 4.64526C4.43902 4.65898 4.43902 4.67956 4.43902 4.69328C4.34298 4.69328 4.24695 4.69328 4.1509 4.69328C4.1509 4.68642 4.1509 4.6727 4.1509 4.66584C4.048 4.77561 3.95195 4.89224 3.84905 5.002C3.84905 5.13234 3.84905 5.26955 3.84905 5.3999C3.94509 5.3999 4.04799 5.3999 4.14404 5.3999Z" fill="#CC0001"/>
<path d="M4.43903 4.69363C4.43903 4.67991 4.43903 4.66619 4.43903 4.64561C4.43903 4.55642 4.43903 4.46038 4.43903 4.3712C4.34299 4.46724 4.24009 4.56329 4.14404 4.65933C4.14404 4.66619 4.14404 4.67991 4.14404 4.68677C4.24695 4.69363 4.34299 4.69363 4.43903 4.69363Z" fill="white"/>
<path d="M1.16676 9.22942C1.15304 9.25686 1.13931 9.29116 1.13245 9.3186C1.14617 9.3186 1.1599 9.3186 1.16676 9.3186C1.16676 9.29116 1.16676 9.26372 1.16676 9.22942Z" fill="white"/>
<path d="M0.864598 10.0048C0.864598 10.0114 0.858009 10.018 0.858009 10.0245H0.864598C0.864598 10.018 0.864598 10.0114 0.864598 10.0048Z" fill="white"/>
<path d="M3.25224 5.70925C3.18364 5.79157 3.11503 5.8739 3.05329 5.96308C3.12189 5.96308 3.1905 5.96308 3.25224 5.96308C3.25224 5.8739 3.25224 5.79157 3.25224 5.70925Z" fill="white"/>
<path d="M5.33777 4.00058C5.24172 4.00058 5.13882 4.00058 5.04278 4.00058C5.04278 4.23389 5.04278 4.46719 5.04278 4.69363C4.93988 4.70049 4.84384 4.69363 4.74779 4.70049C4.74779 4.93379 4.74779 5.1671 4.74779 5.4004C4.64489 5.4004 4.54884 5.4004 4.44594 5.4004C4.44594 5.63371 4.44594 5.86701 4.44594 6.10717C4.34303 6.10717 4.24013 6.11403 4.14409 6.10031C4.14409 5.86701 4.14409 5.63371 4.14409 5.4004C4.04804 5.4004 3.94514 5.4004 3.8491 5.4004C3.8491 5.27003 3.8491 5.13279 3.8491 5.00241C3.69131 5.18082 3.54038 5.35923 3.38945 5.53764C3.49235 5.53764 3.60211 5.53764 3.70502 5.53764C3.70502 5.68174 3.70502 5.81898 3.70502 5.96307C3.75304 5.96307 3.80106 5.96307 3.85594 5.96307C3.85594 6.10031 3.85594 6.24441 3.85594 6.38164C3.90397 6.38164 3.952 6.38164 4.00003 6.38164C4.00003 6.57377 4.00003 6.75905 4.00003 6.94432C3.952 6.94432 3.90397 6.94432 3.85594 6.94432C3.85594 7.08156 3.85594 7.22565 3.85594 7.36289C3.80792 7.36289 3.75304 7.36289 3.70502 7.36289C3.70502 7.50699 3.70502 7.64422 3.70502 7.78832C3.55409 7.78832 3.40318 7.78832 3.25226 7.78832C3.25226 7.64422 3.25226 7.50699 3.25226 7.36289C3.15621 7.36289 3.06016 7.36289 2.96412 7.36289C2.96412 7.50699 2.96412 7.64422 2.96412 7.78832C2.81319 7.78832 2.66226 7.78832 2.51134 7.78832C2.51134 7.64422 2.51134 7.50699 2.51134 7.36289C2.46331 7.36289 2.4153 7.36289 2.36728 7.36289C2.36042 7.23251 2.36727 7.09528 2.36041 6.9649C2.2575 7.12273 2.16147 7.27369 2.06542 7.43151C2.06542 7.59619 2.06542 7.76087 2.06542 7.92556C2.16833 7.92556 2.26437 7.92556 2.36041 7.92556C2.36041 8.15886 2.36041 8.39217 2.36041 8.62547C2.46331 8.62547 2.55935 8.62547 2.6554 8.62547C2.6554 8.85877 2.6554 9.09207 2.6554 9.32538C2.75144 9.32538 2.85435 9.32538 2.95725 9.32538C2.95725 9.55868 2.95725 9.79198 2.95725 10.0253C3.05329 10.0253 3.14935 10.0253 3.24539 10.0253C3.24539 9.79198 3.24539 9.55868 3.24539 9.32538C3.34829 9.32538 3.44434 9.32538 3.54724 9.32538C3.54724 9.09207 3.54724 8.85877 3.54724 8.62547C3.64329 8.62547 3.74619 8.62547 3.84223 8.62547C3.84223 8.39217 3.84223 8.15886 3.84223 7.92556C3.93828 7.92556 4.04117 7.92556 4.13722 7.92556C4.13722 7.69226 4.13722 7.45895 4.13722 7.22565C4.24012 7.22565 4.33617 7.22565 4.43907 7.22565C4.43907 7.45895 4.43907 7.69226 4.43907 7.92556C4.53512 7.92556 4.63802 7.92556 4.73406 7.92556C4.74092 8.15886 4.73407 8.39217 4.74093 8.62547C4.84383 8.62547 4.93987 8.62547 5.03591 8.62547C5.03591 8.85877 5.03591 9.09207 5.03591 9.32538C5.13196 9.32538 5.23488 9.32538 5.33092 9.32538C5.33092 9.55868 5.33092 9.79198 5.33092 10.0253C5.42696 10.0253 5.52986 10.0253 5.62591 10.0253V8.9068C5.523 8.9068 5.42696 8.9068 5.32405 8.9068C5.32405 8.62547 5.32405 8.34413 5.32405 8.0628C5.42696 8.0628 5.523 8.0628 5.62591 8.0628V6.94432C5.57789 6.94432 5.523 6.94432 5.47498 6.94432C5.47498 7.08842 5.47498 7.22565 5.47498 7.36289C5.42696 7.36289 5.37208 7.36289 5.32405 7.36289C5.32405 7.50699 5.32405 7.64422 5.32405 7.78146C5.17313 7.78146 5.02221 7.78146 4.87814 7.78146C4.87814 7.64422 4.87814 7.50012 4.87814 7.36289C4.83012 7.36289 4.77523 7.36289 4.72721 7.36289C4.72721 7.22565 4.72721 7.08156 4.72721 6.94432C4.67919 6.94432 4.63117 6.94432 4.57629 6.94432C4.57629 6.75905 4.57629 6.57377 4.57629 6.38164C4.62431 6.38164 4.67919 6.38164 4.72721 6.38164C4.72721 6.24441 4.72721 6.10031 4.72721 5.96307C4.77523 5.96307 4.83012 5.96307 4.87814 5.96307C4.87814 5.81898 4.87814 5.68174 4.87814 5.5445C5.02907 5.5445 5.17999 5.5445 5.32405 5.5445C5.32405 5.68174 5.3172 5.82583 5.33092 5.96993C5.37894 5.96993 5.42696 5.96993 5.47498 5.96993C5.47498 6.10717 5.47498 6.25127 5.47498 6.38851C5.523 6.38851 5.57789 6.38851 5.62591 6.38851V5.27003C5.523 5.27003 5.42696 5.27003 5.32405 5.27003C5.32405 4.98869 5.32405 4.70735 5.32405 4.42602C5.42696 4.42602 5.523 4.42602 5.62591 4.42602V3.3144C5.52986 3.39674 5.42696 3.47222 5.33092 3.55456C5.33778 3.69866 5.33777 3.84962 5.33777 4.00058ZM3.2591 8.89994C3.1562 8.89994 3.06015 8.89994 2.95725 8.89994C2.95725 8.61861 2.95725 8.33727 2.95725 8.05593C3.06015 8.05593 3.1562 8.05593 3.2591 8.05593C3.26596 8.09711 3.26597 8.14514 3.26597 8.18631C3.25911 8.42648 3.2591 8.66664 3.2591 8.89994Z" fill="white"/>
<path d="M1.46167 8.57067C1.45481 8.59125 1.44794 8.60497 1.43422 8.62555C1.44108 8.62555 1.44795 8.62555 1.46167 8.62555C1.46167 8.60497 1.46167 8.59125 1.46167 8.57067Z" fill="white"/>
<path d="M5.33778 5.26308C5.44069 5.26308 5.53673 5.26308 5.63964 5.26308V4.41927C5.53673 4.41927 5.44069 4.41927 5.33778 4.41927C5.33778 4.70054 5.33778 4.98181 5.33778 5.26308Z" fill="#CC0001"/>
<path d="M5.48185 5.95622C5.43383 5.95622 5.38579 5.95622 5.33777 5.95622C5.32405 5.81216 5.33779 5.67495 5.33093 5.53088C5.18 5.53088 5.02906 5.53088 4.88499 5.53088C4.88499 5.66809 4.88499 5.81216 4.88499 5.94936C4.83697 5.94936 4.78895 5.94936 4.73406 5.94936C4.73406 6.08657 4.73406 6.23063 4.73406 6.36784C4.68604 6.36784 4.63802 6.36784 4.58314 6.36784C4.58314 6.55307 4.58314 6.73829 4.58314 6.93038C4.63116 6.93038 4.68604 6.93038 4.73406 6.93038C4.73406 7.07445 4.73406 7.21165 4.73406 7.34886C4.78209 7.34886 4.83697 7.34886 4.88499 7.34886C4.88499 7.49292 4.88499 7.63013 4.88499 7.76734C5.03592 7.76734 5.18686 7.76734 5.33093 7.76734C5.33093 7.63013 5.33093 7.48606 5.33093 7.34886C5.37895 7.34886 5.42697 7.34886 5.48185 7.34886C5.48185 7.21165 5.48185 7.06759 5.48185 6.93038C5.52987 6.93038 5.58476 6.93038 5.63278 6.93038V6.36784C5.58476 6.36784 5.52987 6.36784 5.48185 6.36784C5.48185 6.23749 5.48185 6.09343 5.48185 5.95622ZM5.33093 6.79318C5.2829 6.79318 5.23488 6.79318 5.18 6.79318C5.18 6.88922 5.18 6.9784 5.18 7.07445C5.13198 7.07445 5.08394 7.07445 5.03592 7.07445C5.03592 6.9784 5.03592 6.88922 5.03592 6.79318C4.9879 6.79318 4.93987 6.79318 4.88499 6.79318C4.88499 6.70399 4.88499 6.60795 4.88499 6.51877C4.93301 6.51877 4.98104 6.51877 5.03592 6.51877C5.03592 6.42958 5.03592 6.33354 5.03592 6.24435C5.08394 6.24435 5.13198 6.24435 5.18 6.24435C5.18 6.3404 5.18 6.42958 5.18 6.52563C5.22802 6.52563 5.2829 6.52563 5.33093 6.52563C5.33093 6.60795 5.33093 6.70399 5.33093 6.79318Z" fill="#CC0001"/>
<path d="M2.50452 7.36255C2.50452 7.50662 2.50452 7.64382 2.50452 7.78789C2.65545 7.78789 2.80638 7.78789 2.9573 7.78789C2.9573 7.64382 2.9573 7.50662 2.9573 7.36255C3.05335 7.36255 3.1494 7.36255 3.24544 7.36255C3.24544 7.50662 3.24544 7.64382 3.24544 7.78789C3.39637 7.78789 3.5473 7.78789 3.69822 7.78789C3.69822 7.64382 3.69822 7.50662 3.69822 7.36255C3.74625 7.36255 3.79427 7.36255 3.84915 7.36255C3.84915 7.22535 3.84915 7.08128 3.84915 6.94408C3.89717 6.94408 3.94519 6.94408 3.99321 6.94408C3.99321 6.75885 3.99321 6.56676 3.99321 6.38153C3.94519 6.38153 3.89717 6.38153 3.84915 6.38153C3.84915 6.24433 3.84915 6.10026 3.84915 5.96306C3.80113 5.96306 3.74625 5.96306 3.69822 5.96306C3.69822 5.81899 3.69822 5.68179 3.69822 5.53772C3.59532 5.53772 3.48554 5.53772 3.38264 5.53772C3.33461 5.5926 3.29346 5.64748 3.24544 5.70923C3.24544 5.79155 3.24544 5.87388 3.24544 5.96306C3.17684 5.96306 3.10823 5.96306 3.04649 5.96306C2.96417 6.07282 2.88185 6.18945 2.79953 6.30607C2.79953 6.38154 2.79953 6.45014 2.79953 6.5256C2.84755 6.5256 2.89557 6.5256 2.95046 6.5256C2.95046 6.62165 2.95046 6.71083 2.95046 6.80687C2.90243 6.80687 2.85441 6.80687 2.79953 6.80687C2.79953 6.90291 2.79953 6.9921 2.79953 7.08814C2.75151 7.08814 2.70347 7.08814 2.65545 7.08814C2.65545 6.9921 2.65545 6.90291 2.65545 6.80687C2.60743 6.80687 2.5594 6.80687 2.50452 6.80687C2.50452 6.77943 2.50452 6.75199 2.50452 6.71769C2.44964 6.80001 2.40163 6.88234 2.34675 6.96466C2.35361 7.095 2.34673 7.23221 2.35359 7.36255C2.40848 7.36255 2.4565 7.36255 2.50452 7.36255ZM3.25916 6.51874C3.30718 6.51874 3.3552 6.51874 3.41008 6.51874C3.41008 6.42956 3.41008 6.33351 3.41008 6.24433C3.4581 6.24433 3.50612 6.24433 3.55414 6.24433C3.55414 6.34037 3.55414 6.42956 3.55414 6.5256C3.60216 6.5256 3.6502 6.5256 3.69822 6.5256C3.69822 6.62165 3.69822 6.71083 3.69822 6.80687C3.6502 6.80687 3.60216 6.80687 3.55414 6.80687C3.55414 6.90291 3.55414 6.9921 3.55414 7.08814C3.50612 7.08814 3.4581 7.08814 3.41008 7.08814C3.41008 6.9921 3.41008 6.90291 3.41008 6.80687C3.3552 6.80687 3.31404 6.80687 3.25916 6.80687C3.25916 6.70397 3.2523 6.61478 3.25916 6.51874Z" fill="#CC0001"/>
<path d="M2.66168 6.49836C2.6551 6.50494 2.6551 6.51152 2.64852 6.5181C2.6551 6.5181 2.6551 6.5181 2.66168 6.5181C2.66168 6.51152 2.66168 6.50494 2.66168 6.49836Z" fill="#CC0001"/>
<path d="M2.66223 6.51893C2.65537 6.51893 2.65538 6.51893 2.64852 6.51893C2.60049 6.58753 2.55932 6.64927 2.5113 6.71787C2.5113 6.74532 2.5113 6.77276 2.5113 6.80706C2.55932 6.80706 2.60735 6.80706 2.66223 6.80706C2.66223 6.9031 2.66223 6.99229 2.66223 7.08833C2.71025 7.08833 2.75827 7.08833 2.80629 7.08833C2.80629 6.99229 2.80629 6.9031 2.80629 6.80706C2.85431 6.80706 2.90233 6.80706 2.95722 6.80706C2.95722 6.71101 2.95722 6.62183 2.95722 6.52579C2.90919 6.52579 2.86117 6.52579 2.80629 6.52579C2.80629 6.45032 2.80629 6.38172 2.80629 6.30626C2.75827 6.37486 2.71025 6.4366 2.66223 6.5052C2.66223 6.5052 2.66223 6.51207 2.66223 6.51893Z" fill="white"/>
<path d="M3.40999 7.08146C3.45801 7.08146 3.50602 7.08146 3.55405 7.08146C3.55405 6.98541 3.55405 6.89623 3.55405 6.80018C3.60207 6.80018 3.65011 6.80018 3.69813 6.80018C3.69813 6.711 3.69813 6.61496 3.69813 6.51891C3.65011 6.51891 3.60207 6.51891 3.55405 6.51891C3.55405 6.42287 3.55405 6.33368 3.55405 6.23764C3.50602 6.23764 3.45801 6.23764 3.40999 6.23764C3.40999 6.33368 3.40999 6.42287 3.40999 6.51205C3.3551 6.51205 3.31394 6.51205 3.25906 6.51205C3.25906 6.6081 3.25906 6.69728 3.25906 6.79333C3.30708 6.79333 3.3551 6.79333 3.40999 6.79333C3.40999 6.89623 3.40999 6.98541 3.40999 7.08146Z" fill="white"/>
<path d="M5.18689 6.23764C5.13887 6.23764 5.09086 6.23764 5.04283 6.23764C5.04283 6.33368 5.04283 6.42287 5.04283 6.51205C4.99481 6.51205 4.94679 6.51205 4.89191 6.51205C4.89191 6.60124 4.89191 6.69728 4.89191 6.78646C4.93993 6.78646 4.98795 6.78646 5.04283 6.78646C5.04283 6.88251 5.04283 6.97169 5.04283 7.06773C5.09086 7.06773 5.13887 7.06773 5.18689 7.06773C5.18689 6.97169 5.18689 6.88251 5.18689 6.78646C5.23492 6.78646 5.28294 6.78646 5.33782 6.78646C5.33782 6.69728 5.33782 6.60124 5.33782 6.51205C5.2898 6.51205 5.24178 6.51205 5.18689 6.51205C5.18689 6.42287 5.18689 6.33368 5.18689 6.23764Z" fill="white"/>
<path d="M5.33776 9.32546C5.24172 9.32546 5.13882 9.32546 5.04277 9.32546C5.04277 9.09215 5.04277 8.85885 5.04277 8.62555C4.93987 8.62555 4.84383 8.62555 4.74779 8.62555C4.74093 8.39225 4.75464 8.15894 4.74092 7.92564C4.64488 7.92564 4.54198 7.92564 4.44593 7.92564C4.44593 7.69233 4.44593 7.45903 4.44593 7.22573C4.34303 7.22573 4.24698 7.22573 4.14408 7.22573C4.14408 7.45903 4.14408 7.69233 4.14408 7.92564C4.04804 7.92564 3.94514 7.92564 3.84909 7.92564C3.84909 8.15894 3.84909 8.39225 3.84909 8.62555C3.74619 8.62555 3.65013 8.62555 3.55409 8.62555C3.55409 8.85885 3.55409 9.09215 3.55409 9.32546C3.45118 9.32546 3.35516 9.32546 3.25225 9.32546C3.25225 9.55876 3.25225 9.79206 3.25225 10.0254C3.15621 10.0254 3.06016 10.0254 2.96411 10.0254C2.96411 9.79206 2.96411 9.55876 2.96411 9.32546C2.86807 9.32546 2.76516 9.32546 2.66226 9.32546C2.66226 9.09215 2.66226 8.85885 2.66226 8.62555C2.56621 8.62555 2.46331 8.62555 2.36727 8.62555C2.36727 8.39225 2.36727 8.15894 2.36727 7.92564C2.27123 7.92564 2.16833 7.92564 2.07228 7.92564C2.07228 7.76095 2.07228 7.59627 2.07228 7.43159C1.85276 7.80213 1.66066 8.18639 1.46858 8.57065C1.46858 8.59124 1.46858 8.60496 1.46858 8.62555C1.46172 8.62555 1.45485 8.62555 1.44113 8.62555C1.34509 8.82454 1.25591 9.0304 1.17359 9.23625C1.17359 9.2637 1.17359 9.29801 1.17359 9.32546C1.15987 9.32546 1.14614 9.32546 1.13928 9.32546C1.04323 9.5519 0.960905 9.77834 0.878582 10.0048C0.878582 10.0116 0.878582 10.0185 0.878582 10.0254H0.871736C0.789412 10.2587 0.713931 10.492 0.638468 10.7321C0.720791 10.7321 0.796259 10.7321 0.878582 10.7321C0.878582 10.9654 0.878582 11.1987 0.878582 11.432C0.974626 11.432 1.07755 11.432 1.17359 11.432C1.17359 11.6653 1.17359 11.8987 1.17359 12.132C1.26963 12.132 1.37253 12.132 1.46858 12.132C1.46858 12.3653 1.46858 12.5986 1.46858 12.8319C1.56462 12.8319 1.66753 12.8319 1.77043 12.8319C1.77043 12.5986 1.77043 12.3653 1.77043 12.132C1.87333 12.132 1.96937 12.132 2.06542 12.132C2.06542 11.8987 2.06542 11.6653 2.06542 11.432C2.16832 11.432 2.26436 11.432 2.3604 11.432C2.3604 11.1987 2.3604 10.9654 2.3604 10.7321C2.26436 10.7321 2.16832 10.7321 2.06542 10.7321C2.06542 10.7253 2.05855 10.7116 2.05855 10.7047C2.06541 10.5331 2.05855 10.3616 2.05855 10.19C2.05855 10.1008 2.05855 10.0185 2.05855 9.9293C2.05855 9.91558 2.05855 9.90185 2.05855 9.88813C2.15459 9.88813 2.25065 9.88813 2.34669 9.88813C2.36041 9.99792 2.34669 10.1077 2.34669 10.2175C2.35355 10.293 2.33983 10.3753 2.34669 10.4508C2.44273 10.4508 2.53877 10.4508 2.64168 10.4508C2.64168 10.8282 2.64168 11.1987 2.64168 11.5761C2.6897 11.5761 2.73772 11.5761 2.7926 11.5761C2.79947 11.8026 2.79947 12.0359 2.79947 12.2623C2.64855 12.2761 2.50446 12.2692 2.35354 12.2761C2.35354 12.4613 2.3604 12.6466 2.35354 12.8387C2.25063 12.8387 2.15461 12.8387 2.0517 12.8387C2.0517 12.976 2.0517 13.1201 2.0517 13.2573C1.9488 13.2573 1.85274 13.2573 1.7567 13.2573C1.7567 13.4906 1.7567 13.7239 1.7567 13.9572C1.66065 13.9572 1.55775 13.9572 1.46171 13.9572C1.46171 13.7239 1.46171 13.4906 1.46171 13.2573C1.36567 13.2573 1.26277 13.2573 1.16672 13.2573C1.16672 13.1132 1.16672 12.976 1.16672 12.8387C1.06382 12.8387 0.967773 12.8387 0.864869 12.8387C0.864869 12.7015 0.864869 12.5574 0.864869 12.4202C0.761965 12.4202 0.665919 12.4202 0.563015 12.4202V13.6827C0.659059 13.6827 0.761958 13.6827 0.858002 13.6827C0.858002 13.868 0.858002 14.0533 0.858002 14.2454C0.954046 14.2523 1.05694 14.2454 1.15299 14.2454C1.15299 14.4101 1.15299 14.5748 1.15299 14.7395C1.24903 14.7395 1.35195 14.7395 1.448 14.7395C1.448 14.9247 1.448 15.11 1.448 15.2953C1.35195 15.2953 1.24903 15.2953 1.15299 15.2953C1.15299 15.46 1.15299 15.6178 1.15299 15.7825C1.05694 15.7825 0.954046 15.7825 0.858002 15.7825C0.858002 15.9677 0.858002 16.153 0.858002 16.3383C0.761958 16.3383 0.659059 16.3383 0.563015 16.3383V17.6008C0.665919 17.6008 0.761965 17.6008 0.864869 17.6008C0.864869 17.4636 0.864869 17.3195 0.864869 17.1823C0.960913 17.1823 1.06382 17.1823 1.16672 17.1823C1.16672 17.045 1.16672 16.9009 1.16672 16.7637C1.26277 16.7637 1.36567 16.7637 1.46171 16.7637C1.46171 16.5304 1.46171 16.2971 1.46171 16.0638C1.55775 16.0638 1.65379 16.0638 1.7567 16.0638C1.7567 16.2971 1.7567 16.5304 1.7567 16.7637C1.85274 16.7637 1.95566 16.7637 2.0517 16.7637C2.0517 16.9009 2.0517 17.045 2.0517 17.1823C2.14775 17.1823 2.25063 17.1823 2.35354 17.1823C2.36726 17.3675 2.35354 17.5597 2.3604 17.7449C2.51133 17.7518 2.65539 17.7518 2.80632 17.7518C2.80632 17.9851 2.81319 18.2116 2.79947 18.4449C2.75145 18.4449 2.70341 18.4449 2.65539 18.4449C2.65539 18.8154 2.65539 19.1928 2.65539 19.5633C2.55935 19.5633 2.46331 19.5633 2.3604 19.5633C2.3604 19.7486 2.3604 19.9339 2.3604 20.1191C2.26436 20.1191 2.16146 20.1191 2.06542 20.1191C2.06542 19.975 2.06542 19.831 2.06542 19.6937C2.06542 19.5565 2.06542 19.4192 2.06542 19.282C2.16832 19.282 2.26436 19.282 2.3604 19.282C2.3604 19.0487 2.3604 18.8154 2.3604 18.5821C2.26436 18.5821 2.16146 18.5821 2.06542 18.5821C2.06542 18.3488 2.06542 18.1155 2.06542 17.8822C1.96937 17.8753 1.86647 17.8822 1.77043 17.8822C1.76357 17.6489 1.77728 17.4156 1.76356 17.1754C1.66066 17.1754 1.56462 17.1754 1.46858 17.1754C1.46858 17.4087 1.46858 17.642 1.46858 17.8753C1.37253 17.8753 1.26963 17.8753 1.17359 17.8753C1.17359 18.1086 1.17359 18.3419 1.17359 18.5752C1.07755 18.5752 0.974626 18.5752 0.878582 18.5752C0.878582 18.8085 0.878582 19.0418 0.878582 19.2751C0.809979 19.2751 0.734518 19.2751 0.665915 19.2751C0.748238 19.5428 0.823712 19.8104 0.912896 20.0711C0.988359 20.277 1.07753 20.476 1.15986 20.6818C1.16672 20.6818 1.17359 20.6818 1.17359 20.6818C1.17359 20.6955 1.17359 20.7093 1.17359 20.723C1.26277 20.9494 1.35881 21.169 1.46171 21.3817H1.46858C1.46858 21.3886 1.46858 21.3954 1.46858 21.4023C1.6538 21.7934 1.85276 22.1708 2.07228 22.5414C2.07228 22.3904 2.07228 22.2326 2.07228 22.0816C2.16833 22.0816 2.27123 22.0816 2.36727 22.0816C2.36727 21.8483 2.36727 21.615 2.36727 21.3817C2.47018 21.3817 2.56621 21.3817 2.66226 21.3817C2.66226 21.1484 2.66226 20.9151 2.66226 20.675C2.7583 20.675 2.86121 20.675 2.96411 20.675C2.96411 20.4417 2.96411 20.2083 2.96411 19.975C3.06016 19.975 3.15621 19.975 3.25225 19.975C3.25225 20.2083 3.25225 20.4417 3.25225 20.675C3.3483 20.675 3.45118 20.675 3.55409 20.675C3.55409 20.9083 3.55409 21.1416 3.55409 21.3817C3.65013 21.3817 3.75305 21.3817 3.84909 21.3817C3.84909 21.615 3.84909 21.8483 3.84909 22.0816C3.94514 22.0816 4.04804 22.0816 4.14408 22.0816C4.14408 22.1228 4.14408 22.1571 4.14408 22.1983C4.14408 22.2395 4.14408 22.2806 4.14408 22.3218C4.14408 22.4659 4.14408 22.61 4.14408 22.761C4.13722 22.7815 4.16466 22.7884 4.18524 22.7884C4.27442 22.7884 4.36361 22.7884 4.44593 22.7884C4.44593 22.5551 4.44593 22.3218 4.44593 22.0816C4.54198 22.0816 4.64488 22.0816 4.74779 22.0816C4.74779 21.8483 4.74779 21.615 4.74779 21.3817C4.84383 21.3817 4.94673 21.3817 5.04277 21.3817C5.04277 21.1484 5.04277 20.9151 5.04277 20.675C5.13882 20.675 5.24172 20.675 5.33776 20.675C5.33776 20.4417 5.33776 20.2083 5.33776 19.975C5.43381 19.975 5.53673 19.975 5.63277 19.975V19.2683C5.53673 19.2683 5.43381 19.2683 5.33776 19.2683C5.33776 19.035 5.33776 18.8017 5.33776 18.5684C5.24172 18.5684 5.13882 18.5684 5.04277 18.5684C5.04277 18.3351 5.04277 18.1018 5.04277 17.8685C4.93987 17.8616 4.84383 17.8685 4.74779 17.8685C4.74779 17.6352 4.74779 17.4019 4.74779 17.1617C4.64488 17.1617 4.54198 17.1617 4.44593 17.1617C4.44593 17.395 4.44593 17.6283 4.44593 17.8685C4.34989 17.8685 4.24699 17.8685 4.15095 17.8685C4.15095 18.1018 4.15095 18.3351 4.15095 18.5684C4.0549 18.5684 3.95198 18.5684 3.85594 18.5684C3.85594 18.8017 3.85594 19.035 3.85594 19.2683C3.95198 19.2683 4.0549 19.2683 4.15095 19.2683C4.15095 19.5496 4.15095 19.8309 4.15095 20.1054C4.0549 20.1054 3.95198 20.1054 3.85594 20.1054C3.85594 19.9201 3.85594 19.7349 3.85594 19.5496C3.7599 19.5496 3.657 19.5496 3.56095 19.5496C3.56095 19.1791 3.56095 18.8017 3.56095 18.4311C3.51293 18.4311 3.46491 18.4311 3.41689 18.4311C3.41689 18.1978 3.41689 17.9645 3.41689 17.7312C3.56782 17.7312 3.71188 17.7312 3.86281 17.7312C3.86281 17.546 3.86281 17.3607 3.86281 17.1685C3.95885 17.1685 4.06175 17.1685 4.15779 17.1685C4.15779 17.0313 4.15779 16.8872 4.15779 16.75C4.25384 16.75 4.35676 16.75 4.4528 16.75C4.4528 16.5167 4.4528 16.2834 4.4528 16.0501C4.54884 16.0501 4.65174 16.0501 4.74779 16.0501C4.74779 16.2834 4.74779 16.5167 4.74779 16.75C4.84383 16.75 4.94673 16.75 5.04277 16.75C5.04277 16.8872 5.04277 17.0313 5.04277 17.1685C5.13882 17.1685 5.24172 17.1685 5.33776 17.1685C5.33776 17.3058 5.33776 17.4499 5.33776 17.5871C5.44067 17.5871 5.53671 17.5871 5.63962 17.5871V16.3245C5.54357 16.3245 5.44067 16.3245 5.34463 16.3245C5.34463 16.1393 5.34463 15.954 5.34463 15.7687C5.24858 15.7687 5.14569 15.7687 5.04964 15.7687C5.04964 15.604 5.04964 15.4462 5.04964 15.2815C4.94674 15.2815 4.85068 15.2815 4.75463 15.2815C4.75463 15.0963 4.75463 14.911 4.75463 14.7257C4.85068 14.7257 4.94673 14.7257 5.04277 14.7257C5.04277 14.7257 5.04964 14.7189 5.04964 14.712C5.04964 14.5542 5.04964 14.3895 5.04964 14.2317C5.15255 14.2317 5.24858 14.2317 5.34463 14.2317C5.34463 14.0464 5.34463 13.8611 5.34463 13.669C5.44067 13.669 5.54357 13.669 5.63962 13.669V12.4064C5.53671 12.4064 5.44067 12.3996 5.33776 12.4064C5.33776 12.5437 5.33776 12.6878 5.33776 12.825C5.24172 12.825 5.13882 12.825 5.04277 12.825C5.04277 12.9622 5.04277 13.1063 5.04277 13.2436C4.94673 13.2436 4.84383 13.2436 4.74779 13.2436C4.74779 13.4769 4.74779 13.7102 4.74779 13.9435C4.65174 13.9435 4.55571 13.9435 4.4528 13.9435C4.4528 13.7102 4.4528 13.4769 4.4528 13.2436C4.35676 13.2436 4.25384 13.2436 4.15779 13.2436C4.15779 13.0995 4.15779 12.9622 4.15779 12.825C4.06175 12.825 3.95885 12.825 3.86281 12.825C3.86281 12.6397 3.86281 12.4545 3.86281 12.2623C3.71188 12.2623 3.56782 12.2623 3.41689 12.2623C3.41689 12.029 3.41689 11.7957 3.41689 11.5624C3.46491 11.5624 3.51293 11.5624 3.56095 11.5624C3.56095 11.185 3.56095 10.8145 3.56095 10.4371C3.657 10.4371 3.7599 10.4371 3.85594 10.4371C3.84908 10.341 3.85595 10.2381 3.84909 10.142C3.84909 10.0528 3.84222 9.96361 3.85594 9.87441C3.95198 9.87441 4.0549 9.87441 4.14408 9.87441C4.14408 10.1557 4.14408 10.4371 4.14408 10.7184C4.04804 10.7184 3.94514 10.7184 3.84909 10.7184C3.84223 10.9517 3.84909 11.185 3.84909 11.4183C3.94514 11.4183 4.04804 11.4183 4.14408 11.4183C4.14408 11.6516 4.14408 11.8849 4.14408 12.1182C4.24012 12.1182 4.34302 12.1182 4.43907 12.1182C4.43907 12.3515 4.43907 12.5848 4.43907 12.8181C4.54197 12.8181 4.64488 12.8181 4.74092 12.8181C4.74092 12.5848 4.74092 12.3515 4.74092 12.1182C4.83696 12.1182 4.93986 12.1182 5.03591 12.1182C5.03591 11.8849 5.03591 11.6516 5.03591 11.4183C5.13881 11.4183 5.23487 11.4183 5.33092 11.4183C5.33092 11.185 5.33092 10.9517 5.33092 10.7253C5.42696 10.7253 5.52986 10.7253 5.6259 10.7253V10.0185C5.52986 10.0185 5.42696 10.0185 5.33092 10.0185C5.33778 9.7852 5.33776 9.5519 5.33776 9.32546ZM3.84909 13.669C3.84909 13.717 3.84909 13.7651 3.84909 13.8131C3.84909 13.9023 3.84909 13.9984 3.84909 14.0876C3.84909 14.1356 3.84909 14.1836 3.84909 14.2317C3.94514 14.2385 4.04804 14.2317 4.14408 14.2317C4.14408 14.3758 4.14408 14.5199 4.14408 14.6708C4.14408 14.6914 4.14409 14.7051 4.15095 14.7257C4.24699 14.7257 4.34302 14.7257 4.43907 14.7257C4.43907 14.8012 4.43907 14.8698 4.43907 14.9453C4.43907 15.0071 4.43907 15.0688 4.43907 15.1306C4.43907 15.1855 4.43907 15.2335 4.43907 15.2815C4.34302 15.2815 4.24012 15.2815 4.13721 15.2815C4.14407 15.357 4.13036 15.4256 4.14408 15.5011C4.13722 15.5903 4.14408 15.6795 4.14408 15.7687C4.04804 15.7687 3.94514 15.7687 3.84909 15.7687C3.85595 15.9403 3.84223 16.1187 3.84909 16.2971C3.84909 16.304 3.84909 16.3245 3.84223 16.3314C3.6913 16.3314 3.54724 16.3314 3.39631 16.3314C3.39631 16.551 3.39631 16.7774 3.39631 16.997C3.34829 16.997 3.29341 16.997 3.24539 16.997C3.24539 17.0999 3.24539 17.2029 3.24539 17.3126C3.14934 17.3126 3.0533 17.3126 2.9504 17.3126C2.9504 17.2097 2.9504 17.0999 2.9504 16.997C2.90238 16.9901 2.85435 16.9901 2.79947 16.9901C2.79947 16.8117 2.79947 16.6333 2.79947 16.4618C2.79947 16.4206 2.79947 16.3726 2.7926 16.3314C2.64168 16.3314 2.4976 16.3314 2.35354 16.3314C2.35354 16.1461 2.35354 15.9609 2.35354 15.7756C2.25749 15.7756 2.15459 15.7756 2.05855 15.7756C2.05855 15.6109 2.05855 15.4531 2.05855 15.2884C1.96251 15.2815 1.85961 15.2884 1.76356 15.2884C1.76356 15.1031 1.76356 14.9179 1.76356 14.7326C1.86647 14.7326 1.96251 14.7326 2.05855 14.7326C2.05855 14.5679 2.05855 14.4032 2.05855 14.2385C2.15459 14.2385 2.25749 14.2385 2.35354 14.2385C2.35354 14.0533 2.35354 13.8611 2.35354 13.6759C2.50446 13.6759 2.64855 13.6759 2.79947 13.6759C2.79947 13.4563 2.79947 13.2367 2.79947 13.0171C2.84749 13.0171 2.89552 13.0171 2.9504 13.0171C2.9504 12.9073 2.9504 12.7976 2.9504 12.6946C3.04644 12.6946 3.14247 12.6946 3.23852 12.6946C3.23852 12.7976 3.23852 12.9005 3.23852 13.0103C3.28654 13.0171 3.34142 13.0171 3.38945 13.0171C3.38945 13.2367 3.38945 13.4563 3.38945 13.6759C3.54723 13.669 3.69817 13.669 3.84909 13.669Z" fill="#CC0001"/>
<path d="M2.9504 8.05601C2.9504 8.33728 2.9504 8.61855 2.9504 8.89982C3.05331 8.89982 3.14935 8.89982 3.25226 8.89982C3.25226 8.65971 3.25226 8.42646 3.25226 8.18635C3.25226 8.14519 3.25911 8.09717 3.24539 8.05601C3.14934 8.06287 3.05331 8.05601 2.9504 8.05601Z" fill="#CC0001"/>
<path d="M5.33778 8.89982C5.44069 8.89982 5.53673 8.89982 5.63964 8.89982V8.05601C5.53673 8.05601 5.44069 8.05601 5.33778 8.05601C5.33778 8.33728 5.33778 8.61855 5.33778 8.89982Z" fill="#CC0001"/>
<path d="M0.871758 11.5689C0.871758 11.7541 0.871758 11.9393 0.871758 12.1246C0.768854 12.1246 0.672808 12.1246 0.569904 12.1246V12.4058C0.672808 12.4058 0.768854 12.4058 0.871758 12.4058C0.871758 12.543 0.871758 12.6871 0.871758 12.8243C0.967802 12.8243 1.07071 12.8243 1.17361 12.8243C1.17361 12.9615 1.17361 13.1056 1.17361 13.2428C1.26966 13.2428 1.37256 13.2428 1.4686 13.2428C1.4686 13.476 1.4686 13.7093 1.4686 13.9425C1.56464 13.9425 1.66754 13.9425 1.76359 13.9425C1.76359 13.7093 1.76359 13.476 1.76359 13.2428C1.85963 13.2428 1.96253 13.2428 2.05857 13.2428C2.05857 13.0987 2.05857 12.9615 2.05857 12.8243C2.16148 12.8243 2.25752 12.8243 2.36043 12.8243C2.36729 12.6391 2.36043 12.4538 2.36043 12.2618C2.51135 12.2549 2.65541 12.2686 2.80634 12.248C2.80634 12.0216 2.81322 11.7884 2.79949 11.562C2.75147 11.562 2.70345 11.562 2.64857 11.562C2.64857 11.1847 2.64857 10.8142 2.64857 10.4369C2.55252 10.4369 2.45646 10.4369 2.35356 10.4369C2.3467 10.3615 2.36042 10.2791 2.35356 10.2037C2.35356 10.0939 2.36042 9.98415 2.35356 9.87438C2.25752 9.87438 2.16148 9.87438 2.06544 9.87438C2.06544 9.8881 2.06544 9.90182 2.06544 9.91554C2.06544 10.0047 2.06544 10.0871 2.06544 10.1762C2.06544 10.3477 2.0723 10.5192 2.06544 10.6908C2.06544 10.6976 2.07231 10.7113 2.07231 10.7182C2.16835 10.7182 2.27125 10.7182 2.36729 10.7182C2.36729 10.9514 2.36729 11.1847 2.36729 11.4179C2.27125 11.4179 2.16835 11.4179 2.07231 11.4179C2.07231 11.6512 2.07231 11.8844 2.07231 12.1177C1.97626 12.1177 1.87334 12.1177 1.7773 12.1177C1.7773 12.3509 1.7773 12.5842 1.7773 12.8174C1.67439 12.8174 1.57149 12.8174 1.47544 12.8174C1.47544 12.5842 1.47544 12.3509 1.47544 12.1177C1.3794 12.1177 1.2765 12.1177 1.18046 12.1177C1.18046 11.8844 1.18046 11.6512 1.18046 11.4179C1.07755 11.4179 0.981515 11.4179 0.885471 11.4179C0.885471 11.1847 0.885471 10.9514 0.885471 10.7182C0.810008 10.7182 0.727681 10.7182 0.645357 10.7182C0.624776 10.7868 0.611065 10.8554 0.590484 10.924V11.5551C0.672808 11.5689 0.775714 11.5689 0.871758 11.5689Z" fill="white"/>
<path d="M5.33773 11.4248C5.24168 11.4248 5.13878 11.4248 5.04274 11.4248C5.04274 11.6581 5.04274 11.8913 5.04274 12.1246C4.93984 12.1246 4.8438 12.1246 4.74775 12.1246C4.74775 12.3578 4.74775 12.5911 4.74775 12.8243C4.64485 12.8243 4.54194 12.8243 4.4459 12.8243C4.4459 12.5911 4.4459 12.3578 4.4459 12.1246C4.34986 12.1246 4.24696 12.1246 4.15091 12.1246C4.15091 11.8913 4.15091 11.6581 4.15091 11.4248C4.05487 11.4248 3.95195 11.4248 3.8559 11.4248C3.8559 11.1916 3.84904 10.9583 3.8559 10.7251C3.95195 10.7251 4.05487 10.7251 4.15091 10.7251C4.15091 10.4438 4.15091 10.1625 4.15091 9.88127C4.05487 9.88127 3.95882 9.88127 3.86277 9.88127C3.85591 9.97045 3.86277 10.0596 3.8559 10.1488C3.8559 10.2449 3.84905 10.3409 3.86277 10.4438C3.75987 10.4438 3.66383 10.4438 3.56779 10.4438C3.56779 10.8211 3.56779 11.1916 3.56779 11.5689C3.51976 11.5689 3.47175 11.5689 3.42373 11.5689C3.42373 11.8021 3.42373 12.0354 3.42373 12.2686C3.57465 12.2686 3.71871 12.2686 3.86964 12.2686C3.86964 12.4539 3.86964 12.6391 3.86964 12.8312C3.96568 12.8312 4.06858 12.8312 4.16463 12.8312C4.16463 12.9684 4.16463 13.1125 4.16463 13.2497C4.26067 13.2497 4.36357 13.2497 4.45961 13.2497C4.45961 13.4829 4.45961 13.7162 4.45961 13.9494C4.55566 13.9494 4.65856 13.9494 4.7546 13.9494C4.7546 13.7162 4.7546 13.4829 4.7546 13.2497C4.85064 13.2497 4.95356 13.2497 5.04961 13.2497C5.04961 13.1056 5.04961 12.9684 5.04961 12.8312C5.14565 12.8312 5.24855 12.8312 5.34459 12.8312C5.34459 12.694 5.34459 12.5499 5.34459 12.4127C5.4475 12.4058 5.54354 12.4127 5.64645 12.4127V12.1314C5.54354 12.1314 5.4475 12.1314 5.34459 12.1314C5.34459 11.9462 5.34459 11.7541 5.34459 11.5758C5.4475 11.5758 5.54354 11.5758 5.64645 11.5758V10.7388C5.5504 10.7388 5.44751 10.7388 5.35146 10.7388C5.33774 10.9583 5.33773 11.1916 5.33773 11.4248Z" fill="white"/>
<path d="M0.871758 11.5693C0.768854 11.5693 0.672808 11.5693 0.569904 11.5693V12.1318C0.672808 12.1318 0.768854 12.1318 0.871758 12.1318C0.871758 11.9397 0.871758 11.7545 0.871758 11.5693Z" fill="#CC0001"/>
<path d="M5.33778 12.1249C5.44069 12.1249 5.53673 12.1249 5.63964 12.1249V11.5624C5.53673 11.5624 5.44069 11.5624 5.33778 11.5624C5.33778 11.7545 5.33778 11.9397 5.33778 12.1249Z" fill="#CC0001"/>
<path d="M3.39631 13.0034C3.34829 13.0034 3.29341 13.0034 3.24539 12.9966C3.24539 12.8936 3.24539 12.7907 3.24539 12.6809C3.14934 12.6809 3.05329 12.6809 2.95725 12.6809C2.95725 12.7838 2.95725 12.8936 2.95725 13.0034C2.90922 13.0034 2.8612 13.0034 2.80632 13.0034C2.80632 13.223 2.80632 13.4426 2.80632 13.6621C2.65539 13.6621 2.51133 13.6621 2.36041 13.6621C2.36041 13.8474 2.36041 14.0327 2.36041 14.2248C2.26436 14.2248 2.16146 14.2248 2.06542 14.2248C2.06542 14.3895 2.06542 14.5542 2.06542 14.7189C1.96937 14.7189 1.86648 14.7189 1.77043 14.7189C1.77043 14.9041 1.77043 15.0894 1.77043 15.2747C1.87334 15.2747 1.96937 15.2747 2.06542 15.2747C2.06542 15.4394 2.06542 15.5972 2.06542 15.7619C2.16832 15.7619 2.26436 15.7619 2.36041 15.7619C2.36041 15.9471 2.36041 16.1324 2.36041 16.3177C2.50447 16.3177 2.65541 16.3177 2.79947 16.3177C2.80633 16.3589 2.80632 16.4069 2.80632 16.4481C2.80632 16.6265 2.80632 16.8049 2.80632 16.9764C2.85434 16.9764 2.90922 16.9764 2.95725 16.9833C2.95725 17.0862 2.95725 17.196 2.95725 17.2989C3.05329 17.2989 3.14935 17.2989 3.25225 17.2989C3.25225 17.196 3.25225 17.0931 3.25225 16.9833C3.30028 16.9833 3.3483 16.9833 3.40318 16.9833C3.40318 16.7637 3.40318 16.5373 3.40318 16.3177C3.55411 16.3177 3.69817 16.3177 3.84909 16.3177C3.84909 16.3108 3.85594 16.2902 3.85594 16.2834C3.84908 16.105 3.85594 15.9334 3.85594 15.755C3.95198 15.755 4.0549 15.755 4.15095 15.755C4.15095 15.6658 4.14409 15.5766 4.15095 15.4874C4.14409 15.4188 4.15094 15.3433 4.14408 15.2678C4.24699 15.261 4.34303 15.2678 4.44594 15.2678C4.44594 15.2198 4.44594 15.1649 4.44594 15.1169C4.44594 15.0551 4.44594 14.9933 4.44594 14.9316C4.44594 14.8561 4.44594 14.7875 4.44594 14.712C4.34989 14.712 4.25384 14.712 4.15779 14.712C4.15093 14.6914 4.15095 14.6777 4.15095 14.6571C4.15095 14.513 4.15095 14.3621 4.15095 14.218C4.0549 14.218 3.95198 14.218 3.85594 14.218C3.85594 14.1699 3.85594 14.1219 3.85594 14.0739C3.85594 13.9847 3.85594 13.8886 3.85594 13.7994C3.85594 13.7514 3.85594 13.7033 3.85594 13.6553C3.70501 13.6553 3.56095 13.6553 3.41003 13.6553C3.39631 13.4494 3.39631 13.223 3.39631 13.0034ZM2.9504 13.621C2.9504 13.5867 2.94353 13.5524 2.95725 13.518C3.04643 13.518 3.13562 13.518 3.22481 13.518C3.23853 13.518 3.25225 13.5318 3.25225 13.5455C3.25225 13.7719 3.25225 13.9984 3.25225 14.2248C3.14935 14.2317 3.04644 14.2248 2.9504 14.2248C2.9504 14.0258 2.9504 13.8268 2.9504 13.621ZM2.20948 15.4188C2.20948 15.1374 2.20948 14.8561 2.20948 14.5748C2.31238 14.5816 2.41529 14.5679 2.51133 14.5816C2.51133 14.863 2.51133 15.1374 2.51133 15.4188C2.40843 15.4188 2.31238 15.4188 2.20948 15.4188ZM3.2591 16.352C3.2591 16.3932 3.26597 16.4275 3.25225 16.4686C3.15621 16.4686 3.06015 16.4686 2.95725 16.4686C2.95039 16.4275 2.9504 16.3932 2.9504 16.352C2.9504 16.1599 2.9504 15.9609 2.9504 15.7687C3.0533 15.7687 3.14935 15.7687 3.25225 15.7687C3.25911 15.9677 3.2591 16.1599 3.2591 16.352ZM4.00002 14.5748C4.00002 14.8561 4.00002 15.1374 4.00002 15.4188C3.89712 15.4188 3.79421 15.4188 3.69817 15.4188C3.69817 15.1443 3.69817 14.863 3.69817 14.5816C3.79421 14.5679 3.89712 14.5816 4.00002 14.5748ZM3.70501 14.0876C3.70501 14.2317 3.70501 14.3689 3.70501 14.5062C3.65699 14.5062 3.60897 14.5062 3.55409 14.5062C3.55409 14.5748 3.55409 14.6434 3.55409 14.7189C3.50606 14.7189 3.45805 14.7189 3.41003 14.7189C3.41003 14.9041 3.40317 15.0894 3.41003 15.2747C3.45805 15.2747 3.50606 15.2747 3.55409 15.2747C3.55409 15.3433 3.55409 15.4119 3.55409 15.4874C3.60211 15.4874 3.65013 15.4737 3.70501 15.4874C3.70501 15.6246 3.70501 15.7687 3.70501 15.906C3.60211 15.906 3.49922 15.9128 3.40318 15.8991C3.40318 15.8099 3.40318 15.7138 3.40318 15.6246C3.35516 15.6246 3.30714 15.6246 3.25225 15.6246C3.25225 15.556 3.25225 15.4874 3.25225 15.4119C3.15621 15.4119 3.06016 15.4119 2.96411 15.4119C2.96411 15.4805 2.96411 15.5492 2.96411 15.6246C2.91609 15.6246 2.86807 15.6246 2.81319 15.6246C2.81319 15.7138 2.81319 15.8099 2.81319 15.8991C2.71028 15.9128 2.60737 15.906 2.50447 15.8991C2.50447 15.7619 2.50447 15.6246 2.50447 15.4874C2.55249 15.4737 2.60051 15.4805 2.65539 15.4874C2.66225 15.4188 2.65539 15.3433 2.65539 15.2747C2.70341 15.2747 2.75145 15.2747 2.79947 15.2747C2.79947 15.0894 2.79947 14.9041 2.79947 14.7189C2.75145 14.7189 2.70341 14.7189 2.65539 14.7189C2.64853 14.6503 2.65539 14.5748 2.65539 14.5062C2.60737 14.5062 2.55935 14.5062 2.51133 14.5062C2.49761 14.465 2.50447 14.4169 2.50447 14.3758C2.50447 14.2797 2.50447 14.1836 2.50447 14.0807C2.60737 14.0807 2.70341 14.0807 2.80632 14.0807C2.80632 14.1699 2.80632 14.266 2.80632 14.3552C2.85434 14.3552 2.90922 14.3552 2.95725 14.3552C2.95725 14.4238 2.95725 14.4924 2.95725 14.5679C3.05329 14.5679 3.14934 14.5679 3.24539 14.5679C3.24539 14.4993 3.24539 14.4307 3.24539 14.3552C3.29341 14.3552 3.34829 14.3552 3.39631 14.3552C3.39631 14.2591 3.39631 14.1699 3.39631 14.0807C3.49922 14.0876 3.60211 14.0876 3.70501 14.0876Z" fill="white"/>
<path d="M3.25913 13.5524C3.26599 13.5386 3.24543 13.5249 3.23171 13.5249C3.14252 13.5249 3.05333 13.5249 2.96415 13.5249C2.95042 13.5592 2.95728 13.5935 2.95728 13.6278C2.95728 13.8268 2.95728 14.0326 2.95728 14.2315C3.06018 14.2315 3.15623 14.2384 3.25913 14.2315C3.25913 13.9983 3.25913 13.7719 3.25913 13.5524Z" fill="#CC0001"/>
<path d="M0.864891 15.7682C0.960935 15.7682 1.06383 15.7682 1.15988 15.7682C1.15988 15.6036 1.15988 15.4458 1.15988 15.2812C1.26278 15.2812 1.35882 15.2812 1.45486 15.2812C1.45486 15.0959 1.45486 14.9107 1.45486 14.7255C1.35882 14.7255 1.25592 14.7255 1.15988 14.7255C1.15988 14.5608 1.15988 14.3962 1.15988 14.2315C1.05697 14.2315 0.960935 14.2315 0.864891 14.2315C0.864891 14.0463 0.864891 13.8611 0.864891 13.669C0.768847 13.669 0.665948 13.669 0.569904 13.669V14.5745C0.672808 14.5745 0.768854 14.5745 0.871758 14.5745C0.871758 14.8558 0.871758 15.1371 0.871758 15.4184C0.768854 15.4184 0.672808 15.4184 0.569904 15.4184V16.3239C0.665948 16.3239 0.768847 16.3239 0.864891 16.3239C0.864891 16.1387 0.864891 15.9535 0.864891 15.7682Z" fill="white"/>
<path d="M5.33778 14.2247C5.24173 14.2316 5.13883 14.2247 5.04279 14.2247C5.04279 14.3825 5.04279 14.5471 5.04279 14.7049C5.04279 14.7049 5.03592 14.7118 5.03592 14.7186C4.93988 14.7186 4.84385 14.7186 4.7478 14.7186C4.7478 14.9039 4.7478 15.0891 4.7478 15.2743C4.84385 15.2743 4.94675 15.2743 5.04279 15.2743C5.04279 15.439 5.04279 15.5968 5.04279 15.7614C5.13883 15.7614 5.24173 15.7614 5.33778 15.7614C5.33778 15.9466 5.33778 16.1319 5.33778 16.3171C5.43382 16.3171 5.53674 16.3171 5.63278 16.3171V15.4115C5.52988 15.4115 5.43383 15.4115 5.33093 15.4115C5.33093 15.1303 5.33093 14.849 5.33093 14.5677C5.43383 14.5677 5.52988 14.5677 5.63278 14.5677V13.6622C5.53674 13.6622 5.43382 13.6622 5.33778 13.6622C5.33778 13.8542 5.33778 14.0395 5.33778 14.2247Z" fill="white"/>
<path d="M3.39637 14.362C3.34835 14.362 3.30032 14.362 3.24544 14.362C3.24544 14.4306 3.24544 14.4992 3.24544 14.5747C3.1494 14.5747 3.05335 14.5747 2.9573 14.5747C2.9573 14.5061 2.9573 14.4375 2.9573 14.362C2.90928 14.362 2.86126 14.362 2.80637 14.362C2.80637 14.2659 2.80637 14.1768 2.80637 14.0876C2.70347 14.0876 2.60742 14.0876 2.50452 14.0876C2.50452 14.1836 2.50452 14.2865 2.50452 14.3826C2.50452 14.4237 2.50453 14.4718 2.51139 14.5129C2.55941 14.5129 2.60743 14.5129 2.65545 14.5129C2.65545 14.5815 2.65545 14.6501 2.65545 14.7256C2.70347 14.7256 2.75151 14.7256 2.79953 14.7256C2.79953 14.9108 2.79953 15.096 2.79953 15.2813C2.75151 15.2813 2.70347 15.2813 2.65545 15.2813C2.65545 15.3499 2.65545 15.4253 2.65545 15.4939C2.60743 15.4871 2.55254 15.4802 2.50452 15.4939C2.50452 15.6311 2.50452 15.7683 2.50452 15.9056C2.60742 15.9124 2.71034 15.9124 2.81324 15.9056C2.81324 15.8164 2.81324 15.7203 2.81324 15.6311C2.86126 15.6311 2.91615 15.6311 2.96417 15.6311C2.96417 15.5625 2.96417 15.4939 2.96417 15.4185C3.06021 15.4185 3.15627 15.4185 3.25231 15.4185C3.25231 15.4871 3.25231 15.5557 3.25231 15.6311C3.30033 15.6311 3.35521 15.6311 3.40324 15.6311C3.40324 15.7203 3.40324 15.8164 3.40324 15.9056C3.50614 15.9193 3.60902 15.9056 3.70507 15.9124C3.70507 15.7752 3.70507 15.6311 3.70507 15.4939C3.65705 15.4802 3.60902 15.4939 3.55414 15.4939C3.54728 15.4253 3.55414 15.3499 3.55414 15.2813C3.50612 15.2813 3.4581 15.2813 3.41008 15.2813C3.40322 15.096 3.41008 14.9108 3.41008 14.7256C3.4581 14.7256 3.50612 14.7256 3.55414 14.7256C3.55414 14.657 3.55414 14.5815 3.55414 14.5129C3.60216 14.5129 3.65705 14.5129 3.70507 14.5129C3.70507 14.3757 3.70507 14.2316 3.70507 14.0944C3.60216 14.0944 3.50614 14.0944 3.40324 14.0944C3.39638 14.1768 3.39637 14.2728 3.39637 14.362Z" fill="#CC0001"/>
<path d="M0.871758 14.5748C0.768854 14.5748 0.672808 14.5748 0.569904 14.5748V15.4186C0.672808 15.4186 0.768854 15.4186 0.871758 15.4186C0.871758 15.1373 0.871758 14.8561 0.871758 14.5748Z" fill="#CC0001"/>
<path d="M2.51138 14.5817C2.41534 14.5679 2.31243 14.5817 2.20953 14.5748C2.20953 14.8561 2.20953 15.1373 2.20953 15.4186C2.31243 15.4186 2.40848 15.4186 2.51138 15.4186C2.51138 15.1373 2.51138 14.8629 2.51138 14.5817Z" fill="#CC0001"/>
<path d="M3.69816 15.4186C3.80107 15.4186 3.89711 15.4186 4.00002 15.4186C4.00002 15.1373 4.00002 14.8561 4.00002 14.5748C3.89711 14.5817 3.79421 14.5679 3.69816 14.5817C3.69816 14.8629 3.69816 15.1373 3.69816 15.4186Z" fill="#CC0001"/>
<path d="M5.33778 15.4186C5.44069 15.4186 5.53673 15.4186 5.63964 15.4186V14.5748C5.53673 14.5748 5.44069 14.5748 5.33778 14.5748C5.33778 14.8561 5.33778 15.1373 5.33778 15.4186Z" fill="#CC0001"/>
<path d="M2.9504 16.3519C2.9504 16.393 2.95039 16.4273 2.95725 16.4685C3.05329 16.4685 3.14935 16.4685 3.25226 16.4685C3.25912 16.4273 3.2591 16.393 3.2591 16.3519C3.2591 16.1598 3.2591 15.9608 3.2591 15.7688C3.1562 15.7688 3.05329 15.7688 2.95725 15.7688C2.95039 15.9608 2.9504 16.1598 2.9504 16.3519Z" fill="#CC0001"/>
<path d="M0.864914 19.2675C0.864914 19.0343 0.864914 18.801 0.864914 18.5678C0.960958 18.5678 1.06386 18.5678 1.1599 18.5678C1.1599 18.3345 1.1599 18.1013 1.1599 17.868C1.2628 17.868 1.35884 17.868 1.45489 17.868C1.45489 17.6348 1.45489 17.4015 1.45489 17.1683C1.55093 17.1683 1.65385 17.1683 1.7499 17.1683C1.76362 17.4015 1.74988 17.6348 1.75674 17.8749C1.85965 17.8749 1.95571 17.8749 2.05175 17.8749C2.05175 18.1081 2.05175 18.3414 2.05175 18.5747C2.15465 18.5747 2.25069 18.5747 2.34674 18.5747C2.34674 18.8079 2.34674 19.0412 2.34674 19.2744C2.25069 19.2744 2.14779 19.2744 2.05175 19.2744C2.05175 19.4116 2.05175 19.5488 2.05175 19.686C2.05175 19.8301 2.05175 19.9742 2.05175 20.1114C2.15465 20.1114 2.25069 20.1114 2.34674 20.1114C2.34674 19.9261 2.34674 19.7409 2.34674 19.5557C2.44278 19.5557 2.54568 19.5557 2.64172 19.5557C2.64172 19.1852 2.64172 18.8079 2.64172 18.4374C2.68974 18.4374 2.73776 18.4374 2.78578 18.4374C2.7995 18.2042 2.79265 17.9778 2.79265 17.7446C2.64172 17.7446 2.49766 17.7446 2.34674 17.7377C2.33988 17.5525 2.35359 17.3672 2.33987 17.1752C2.23697 17.1752 2.14092 17.1752 2.03802 17.1752C2.03802 17.0379 2.03802 16.8939 2.03802 16.7567C1.94197 16.7567 1.83907 16.7567 1.74303 16.7567C1.74303 16.5234 1.74303 16.2902 1.74303 16.0569C1.64698 16.0569 1.54409 16.0569 1.44804 16.0569C1.44804 16.2902 1.44804 16.5234 1.44804 16.7567C1.352 16.7567 1.24908 16.7567 1.15303 16.7567C1.15303 16.8939 1.15303 17.0379 1.15303 17.1752C1.05013 17.1752 0.954105 17.1752 0.851201 17.1752C0.851201 17.3124 0.851201 17.4564 0.851201 17.5936C0.748297 17.5936 0.652251 17.5936 0.549347 17.5936V17.8749C0.652251 17.8749 0.748297 17.8749 0.851201 17.8749C0.851201 18.0601 0.851201 18.2454 0.851201 18.4306C0.748297 18.4306 0.652251 18.4306 0.549347 18.4306V19.0137C0.576788 19.1029 0.604226 19.1852 0.631667 19.2675C0.727711 19.2675 0.796311 19.2675 0.864914 19.2675Z" fill="white"/>
<path d="M5.33781 17.1683C5.24177 17.1683 5.13887 17.1683 5.04282 17.1683C5.04282 17.0311 5.04282 16.887 5.04282 16.7498C4.94678 16.7498 4.84388 16.7498 4.74784 16.7498C4.74784 16.5166 4.74784 16.2833 4.74784 16.0501C4.65179 16.0501 4.5489 16.0501 4.45285 16.0501C4.45285 16.2833 4.45285 16.5166 4.45285 16.7498C4.35681 16.7498 4.25389 16.7498 4.15784 16.7498C4.15784 16.887 4.15784 17.0311 4.15784 17.1683C4.0618 17.1683 3.9589 17.1683 3.86286 17.1683C3.86286 17.3535 3.86286 17.5388 3.86286 17.7309C3.71193 17.7309 3.56787 17.7309 3.41694 17.7309C3.41694 17.9641 3.41694 18.1974 3.41694 18.4306C3.46496 18.4306 3.51298 18.4306 3.561 18.4306C3.561 18.8011 3.561 19.1784 3.561 19.5488C3.65705 19.5488 3.75309 19.5488 3.85599 19.5488C3.85599 19.7341 3.85599 19.9193 3.85599 20.1045C3.95203 20.1045 4.05495 20.1045 4.151 20.1045C4.151 19.8232 4.151 19.5488 4.151 19.2676C4.05495 19.2676 3.95203 19.2676 3.85599 19.2676C3.85599 19.0343 3.85599 18.8011 3.85599 18.5678C3.95203 18.5678 4.05495 18.5678 4.151 18.5678C4.151 18.3346 4.151 18.1013 4.151 17.8681C4.24704 17.8612 4.34994 17.8681 4.44598 17.8681C4.45284 17.6348 4.44598 17.4016 4.44598 17.1615C4.54889 17.1615 4.65179 17.1615 4.74784 17.1615C4.74784 17.3947 4.74784 17.628 4.74784 17.8681C4.85074 17.8681 4.94678 17.8681 5.04282 17.8681C5.04282 18.1013 5.04282 18.3346 5.04282 18.5678C5.13887 18.5678 5.24177 18.5678 5.33781 18.5678C5.33781 18.8011 5.33781 19.0343 5.33781 19.2676C5.43386 19.2676 5.53678 19.2676 5.63282 19.2676V18.4306C5.53678 18.4306 5.44072 18.4306 5.33781 18.4306C5.32409 18.4169 5.33097 18.4032 5.33097 18.3894C5.33097 18.2179 5.33097 18.0464 5.33097 17.8749C5.43387 17.8749 5.52992 17.8749 5.63282 17.8749V17.5937C5.52992 17.5937 5.43387 17.5937 5.33097 17.5937C5.33783 17.4496 5.33781 17.3055 5.33781 17.1683Z" fill="white"/>
<path d="M0.871758 18.431C0.871758 18.2458 0.871758 18.0605 0.871758 17.8753C0.768854 17.8753 0.672808 17.8753 0.569904 17.8753V18.4378C0.672808 18.431 0.775714 18.431 0.871758 18.431Z" fill="#CC0001"/>
<path d="M5.33778 18.3898C5.33778 18.4036 5.33779 18.4241 5.34465 18.431C5.44069 18.431 5.54359 18.431 5.63964 18.431V17.8685C5.53673 17.8685 5.44069 17.8685 5.33778 17.8685C5.33778 18.0468 5.33778 18.2183 5.33778 18.3898Z" fill="#CC0001"/>
<path d="M5.33774 25.5743C5.33774 25.293 5.33774 25.0117 5.33774 24.7303C5.43379 24.7303 5.53669 24.7303 5.6396 24.7303V23.6187C5.59158 23.6187 5.53669 23.6187 5.48867 23.6187C5.48867 23.7628 5.48867 23.9 5.48867 24.0441C5.44065 24.0373 5.38577 24.0373 5.33774 24.0441C5.33774 24.1814 5.33774 24.3255 5.33774 24.4627C5.18682 24.4627 5.0359 24.4627 4.89183 24.4627C4.89183 24.3186 4.89183 24.1814 4.89183 24.0373C4.84381 24.0304 4.78893 24.051 4.74777 24.0373C4.74777 23.9 4.74777 23.7628 4.74777 23.6256C4.69975 23.6256 4.65173 23.6256 4.59684 23.6256C4.59684 23.4403 4.59684 23.2482 4.59684 23.0629C4.64487 23.0629 4.69975 23.0629 4.74777 23.0629C4.74777 22.9257 4.74777 22.7884 4.74777 22.6443C4.79579 22.6375 4.85068 22.6375 4.8987 22.6375C4.8987 22.5002 4.8987 22.363 4.8987 22.2189C5.04962 22.2189 5.20055 22.2189 5.34461 22.2189C5.34461 22.3561 5.34461 22.5002 5.34461 22.6375C5.39263 22.6375 5.44066 22.6375 5.49554 22.6375C5.49554 22.7816 5.49554 22.9188 5.49554 23.056C5.54356 23.056 5.59844 23.056 5.64646 23.056V21.9375C5.54356 21.9375 5.44752 21.9375 5.34461 21.9375C5.34461 21.6562 5.34461 21.3749 5.34461 21.0935C5.44752 21.0935 5.54356 21.0935 5.64646 21.0935V19.9751C5.55042 19.9751 5.44752 19.9751 5.35148 19.9751C5.35148 20.2084 5.35148 20.4417 5.35148 20.675C5.25543 20.675 5.15251 20.675 5.05647 20.675C5.05647 20.9083 5.05647 21.1416 5.05647 21.3817C4.95357 21.3817 4.85753 21.3817 4.76148 21.3817C4.76148 21.615 4.76148 21.8483 4.76148 22.0817C4.65858 22.0817 4.56253 22.0817 4.45963 22.0817C4.45963 22.315 4.45963 22.5483 4.45963 22.7884C4.37045 22.7884 4.28126 22.7884 4.19894 22.7884C4.17835 22.7884 4.15778 22.7816 4.15778 22.761C4.15778 22.6169 4.15778 22.4728 4.15778 22.3218C4.15778 22.2807 4.15778 22.2395 4.15778 22.1983C4.15778 22.164 4.15778 22.1228 4.15778 22.0817C4.06173 22.0817 3.95883 22.0817 3.86279 22.0817C3.86279 21.8483 3.86279 21.615 3.86279 21.3817C3.75988 21.3817 3.66385 21.3817 3.5678 21.3817C3.5678 21.1484 3.5678 20.9151 3.5678 20.675C3.4649 20.675 3.36885 20.675 3.26595 20.675C3.26595 20.4417 3.26595 20.2084 3.26595 19.9751C3.1699 19.9751 3.07385 19.9751 2.97781 19.9751C2.97781 20.2084 2.97781 20.4417 2.97781 20.675C2.88176 20.675 2.77886 20.675 2.67595 20.675C2.67595 20.9083 2.67595 21.1416 2.67595 21.3817C2.57991 21.3817 2.47701 21.3817 2.38097 21.3817C2.38097 21.615 2.38097 21.8483 2.38097 22.0817C2.28492 22.0817 2.18202 22.0817 2.08598 22.0817C2.08598 22.2326 2.08598 22.3836 2.08598 22.5414C2.18202 22.7061 2.27806 22.8776 2.38097 23.0354C2.38783 22.9531 2.38097 22.8639 2.38783 22.7816C2.38783 22.7335 2.38097 22.6855 2.38783 22.6375C2.43586 22.6375 2.48387 22.6375 2.53189 22.6375C2.53189 22.5002 2.53189 22.363 2.53189 22.2257C2.53189 22.2257 2.53877 22.2189 2.54563 22.2189C2.66911 22.212 2.78574 22.2189 2.90922 22.2189C2.93666 22.2189 2.96409 22.2189 2.98467 22.2257C2.98467 22.363 2.98467 22.5002 2.98467 22.6375C3.08072 22.6375 3.17677 22.6375 3.27281 22.6375C3.27281 22.5002 3.27281 22.363 3.27281 22.2257C3.34828 22.212 3.43058 22.2189 3.51291 22.2189C3.58837 22.2189 3.65697 22.212 3.72557 22.2257C3.72557 22.363 3.72557 22.5002 3.72557 22.6375C3.7736 22.6375 3.82162 22.6375 3.8765 22.6375C3.8765 22.7747 3.8765 22.9188 3.8765 23.056C3.92452 23.056 3.97256 23.056 4.02058 23.056C4.02058 23.2413 4.02058 23.4266 4.02058 23.6187C3.97256 23.6187 3.92452 23.6187 3.8765 23.6187C3.8765 23.7559 3.8765 23.9 3.8765 24.0373C3.82848 24.0373 3.7736 24.0373 3.72557 24.0373C3.72557 24.1745 3.72557 24.3186 3.72557 24.4558C3.62267 24.4558 3.51978 24.4558 3.41687 24.4558C3.56094 24.6343 3.71186 24.8127 3.86279 24.9842C3.86279 24.8538 3.86279 24.7235 3.86279 24.5931C3.95883 24.5931 4.06173 24.5931 4.15778 24.5931C4.15778 24.3598 4.15778 24.1265 4.15778 23.8932C4.26068 23.8863 4.36359 23.8932 4.45963 23.8932C4.45963 24.1265 4.45963 24.3598 4.45963 24.5931C4.55567 24.5931 4.65858 24.5931 4.76148 24.5931C4.76148 24.8264 4.76148 25.0597 4.76148 25.293C4.85753 25.293 4.96043 25.293 5.05647 25.293C5.05647 25.5263 5.05647 25.7596 5.05647 25.9929C5.15251 25.9929 5.25543 25.9929 5.35148 25.9929C5.35148 26.137 5.35148 26.288 5.35148 26.4389C5.44752 26.5213 5.55042 26.5968 5.64646 26.6722V25.5743C5.5367 25.5743 5.43379 25.5743 5.33774 25.5743ZM3.25908 21.9307C3.15618 21.9307 3.06013 21.9307 2.95723 21.9307C2.95723 21.6494 2.95723 21.368 2.95723 21.0867C3.06013 21.0867 3.15618 21.0867 3.25908 21.0867C3.25908 21.3749 3.25908 21.6562 3.25908 21.9307Z" fill="white"/>
<path d="M3.06018 24.0373C3.12192 24.1196 3.19052 24.1951 3.25226 24.2705C3.25226 24.1951 3.25226 24.1127 3.25226 24.0373C3.19052 24.0373 3.12192 24.0373 3.06018 24.0373Z" fill="white"/>
<path d="M1.45488 21.3748C1.45488 21.3814 1.46147 21.388 1.46147 21.3946C1.46147 21.388 1.46147 21.3814 1.46147 21.3748H1.45488Z" fill="white"/>
<path d="M1.14611 20.675C1.15297 20.6887 1.15983 20.7024 1.16669 20.7161C1.16669 20.7024 1.16669 20.6887 1.16669 20.675C1.15983 20.675 1.15297 20.675 1.14611 20.675Z" fill="white"/>
<path d="M2.9504 21.9305C3.05331 21.9305 3.14935 21.9305 3.25226 21.9305C3.25226 21.6492 3.25226 21.3679 3.25226 21.0867C3.14935 21.0867 3.05331 21.0867 2.9504 21.0867C2.9504 21.3748 2.9504 21.6561 2.9504 21.9305Z" fill="#CC0001"/>
<path d="M5.33778 21.9305C5.44069 21.9305 5.53673 21.9305 5.63964 21.9305V21.0867C5.53673 21.0867 5.44069 21.0867 5.33778 21.0867C5.33778 21.3748 5.33778 21.6561 5.33778 21.9305Z" fill="#CC0001"/>
<path d="M2.51136 23.193C2.55938 23.193 2.60741 23.193 2.66229 23.193C2.66229 23.097 2.66229 23.0078 2.66229 22.9118C2.71031 22.9118 2.75833 22.9118 2.80635 22.9118C2.80635 23.0009 2.80635 23.097 2.80635 23.1862C2.85437 23.193 2.90239 23.193 2.95728 23.193C2.95728 23.2822 2.95728 23.3783 2.95728 23.4675C2.90925 23.4675 2.85437 23.4675 2.80635 23.4675C2.80635 23.5361 2.80635 23.6047 2.80635 23.6733C2.88867 23.7899 2.97101 23.9134 3.0602 24.03C3.12194 24.03 3.19054 24.03 3.25228 24.03C3.25228 24.1055 3.25228 24.1878 3.25228 24.2632C3.30031 24.325 3.34833 24.3867 3.40321 24.4485C3.50611 24.4485 3.60901 24.4485 3.71191 24.4485C3.71191 24.3044 3.71191 24.1672 3.71191 24.03C3.75993 24.03 3.80796 24.03 3.86284 24.03C3.86284 23.8928 3.86284 23.7487 3.86284 23.6115C3.91086 23.6115 3.95888 23.6115 4.0069 23.6115C4.0069 23.4263 4.0069 23.2411 4.0069 23.049C3.95888 23.049 3.91086 23.049 3.86284 23.049C3.86284 22.9118 3.86284 22.7677 3.86284 22.6305C3.81482 22.6305 3.75993 22.6305 3.71191 22.6305C3.71191 22.4933 3.71191 22.3561 3.71191 22.2189C3.64331 22.2052 3.56785 22.2189 3.49924 22.212C3.41692 22.2189 3.34145 22.2052 3.25913 22.2189C3.25913 22.3561 3.25913 22.4933 3.25913 22.6305C3.16309 22.6305 3.06705 22.6305 2.97101 22.6305C2.97101 22.4933 2.97101 22.3561 2.97101 22.2189C2.94357 22.212 2.92298 22.212 2.89554 22.212C2.77205 22.212 2.65543 22.212 2.53194 22.212C2.53194 22.212 2.52509 22.2189 2.51823 22.2189C2.51823 22.3561 2.51823 22.4933 2.51823 22.6305C2.47021 22.6305 2.42219 22.6305 2.37417 22.6305C2.36731 22.6785 2.37417 22.7265 2.37417 22.7746C2.37417 22.8569 2.37416 22.9461 2.3673 23.0284C2.41532 23.1039 2.47021 23.1793 2.51823 23.2548C2.51137 23.2342 2.51136 23.2136 2.51136 23.193ZM3.25913 23.193C3.31401 23.193 3.35517 23.193 3.41006 23.193C3.41006 23.1039 3.41006 23.0078 3.41006 22.9118C3.45808 22.9118 3.50609 22.9118 3.55412 22.9118C3.55412 23.0009 3.55412 23.097 3.55412 23.193C3.60214 23.193 3.65016 23.193 3.70504 23.193C3.70504 23.2822 3.70504 23.3783 3.70504 23.4675C3.65702 23.4675 3.609 23.4675 3.55412 23.4675C3.55412 23.5635 3.55412 23.6527 3.55412 23.7419C3.50609 23.7419 3.45808 23.7419 3.41006 23.7419C3.41006 23.6527 3.41006 23.5566 3.41006 23.4675C3.35517 23.4675 3.31401 23.4675 3.25913 23.4675C3.25913 23.3783 3.25913 23.2891 3.25913 23.193Z" fill="#CC0001"/>
<path d="M5.48185 22.6305C5.43383 22.6305 5.38581 22.6305 5.33093 22.6305C5.33093 22.4933 5.33093 22.3492 5.33093 22.212C5.18 22.212 5.02906 22.212 4.88499 22.212C4.88499 22.3492 4.88499 22.4864 4.88499 22.6305C4.83697 22.6305 4.78209 22.6305 4.73406 22.6374C4.73406 22.7746 4.73406 22.9118 4.73406 23.0558C4.68604 23.0558 4.63802 23.0558 4.58314 23.0558C4.58314 23.2411 4.58314 23.4332 4.58314 23.6184C4.63116 23.6184 4.68604 23.6184 4.73406 23.6184C4.73406 23.7556 4.73406 23.8928 4.73406 24.03C4.78209 24.0437 4.83012 24.03 4.87815 24.03C4.87815 24.1741 4.87815 24.3113 4.87815 24.4553C5.02907 24.4553 5.17999 24.4553 5.32406 24.4553C5.32406 24.3181 5.32406 24.1809 5.32406 24.0369C5.37208 24.03 5.4201 24.03 5.47499 24.0369C5.47499 23.8997 5.47499 23.7556 5.47499 23.6115C5.52301 23.6115 5.57789 23.6115 5.62591 23.6115V23.049C5.57789 23.049 5.52301 23.049 5.47499 23.049C5.48185 22.9118 5.48185 22.7746 5.48185 22.6305ZM5.33093 23.4743C5.2829 23.4743 5.23488 23.4743 5.18 23.4743C5.18 23.5635 5.18 23.6595 5.18 23.7556C5.13198 23.7556 5.08394 23.7556 5.03592 23.7556C5.03592 23.6664 5.03592 23.5704 5.03592 23.4743C4.9879 23.4743 4.93987 23.4743 4.88499 23.4743C4.88499 23.3851 4.88499 23.2891 4.88499 23.1999C4.93301 23.1999 4.98104 23.1999 5.03592 23.1999C5.03592 23.1107 5.03592 23.0147 5.03592 22.9186C5.08394 22.9186 5.13198 22.9186 5.18 22.9186C5.18 23.0147 5.18 23.1039 5.18 23.1999C5.22802 23.1999 5.27604 23.1999 5.33093 23.1999C5.33093 23.2891 5.33093 23.3851 5.33093 23.4743Z" fill="#CC0001"/>
<path d="M2.95046 23.4745C2.95046 23.3784 2.95046 23.2892 2.95046 23.2001C2.90243 23.2001 2.84755 23.2 2.79953 23.1932C2.79953 23.104 2.79953 23.008 2.79953 22.9188C2.75151 22.9188 2.70347 22.9188 2.65545 22.9188C2.65545 23.008 2.65545 23.104 2.65545 23.2001C2.60743 23.2001 2.5594 23.2001 2.50452 23.2001C2.50452 23.2206 2.50452 23.2412 2.50452 23.2549C2.60056 23.399 2.69662 23.5362 2.79953 23.6803C2.79953 23.6117 2.79953 23.5431 2.79953 23.4745C2.85441 23.4745 2.90243 23.4745 2.95046 23.4745Z" fill="white"/>
<path d="M3.40999 23.7489C3.45801 23.7489 3.50602 23.7489 3.55405 23.7489C3.55405 23.6597 3.55405 23.5636 3.55405 23.4745C3.60207 23.4745 3.65009 23.4745 3.70497 23.4745C3.70497 23.3784 3.70497 23.2892 3.70497 23.2001C3.65695 23.2001 3.60893 23.2001 3.55405 23.2001C3.55405 23.104 3.55405 23.0148 3.55405 22.9188C3.50602 22.9188 3.45801 22.9188 3.40999 22.9188C3.40999 23.008 3.40999 23.104 3.40999 23.2001C3.3551 23.2069 3.31394 23.2001 3.25906 23.2001C3.25906 23.2892 3.25906 23.3853 3.25906 23.4745C3.31394 23.4745 3.3551 23.4745 3.40999 23.4745C3.40999 23.5636 3.40999 23.6597 3.40999 23.7489Z" fill="white"/>
<path d="M5.18689 22.9188C5.13887 22.9188 5.09086 22.9188 5.04283 22.9188C5.04283 23.0148 5.04283 23.104 5.04283 23.2001C4.99481 23.2001 4.94679 23.2001 4.89191 23.2001C4.89191 23.2892 4.89191 23.3853 4.89191 23.4745C4.93993 23.4745 4.98795 23.4745 5.04283 23.4745C5.04283 23.5636 5.04283 23.6597 5.04283 23.7557C5.09086 23.7557 5.13887 23.7557 5.18689 23.7557C5.18689 23.6597 5.18689 23.5636 5.18689 23.4745C5.23492 23.4745 5.28294 23.4745 5.33782 23.4745C5.33782 23.3784 5.33782 23.2892 5.33782 23.1932C5.2898 23.1932 5.24178 23.1932 5.18689 23.1932C5.18689 23.104 5.18689 23.008 5.18689 22.9188Z" fill="white"/>
<path d="M4.1509 25.2995C4.24695 25.2995 4.34298 25.2995 4.43902 25.2995C4.43902 25.4093 4.43902 25.5122 4.43902 25.6219C4.72715 25.9101 5.029 26.1776 5.33772 26.4383C5.33772 26.2874 5.33772 26.1433 5.33772 25.9924C5.24167 25.9924 5.13877 25.9924 5.04273 25.9924C5.04273 25.7591 5.04273 25.5259 5.04273 25.2926C4.93983 25.2926 4.84379 25.2926 4.74774 25.2926C4.74774 25.0594 4.74774 24.8261 4.74774 24.5929C4.64484 24.5929 4.54879 24.5929 4.44589 24.5929C4.44589 24.3596 4.44589 24.1264 4.44589 23.8931C4.34299 23.8931 4.24694 23.8931 4.14404 23.8931C4.14404 24.1264 4.14404 24.3528 4.14404 24.5929C4.04799 24.5929 3.94509 24.5929 3.84905 24.5929C3.84905 24.7232 3.84905 24.8536 3.84905 24.9839C3.95195 25.0937 4.05486 25.2035 4.1509 25.3132C4.1509 25.3064 4.1509 25.2995 4.1509 25.2995Z" fill="#CC0001"/>
<path d="M5.33778 25.5741C5.44069 25.5741 5.53673 25.5741 5.63964 25.5741V24.7303C5.53673 24.7303 5.44069 24.7303 5.33778 24.7303C5.33778 25.0116 5.33778 25.2929 5.33778 25.5741Z" fill="#CC0001"/>
<path d="M4.15092 25.2999C4.15092 25.2999 4.15092 25.3067 4.15092 25.3136C4.24697 25.4165 4.343 25.5263 4.43904 25.6223C4.43904 25.5125 4.43904 25.4096 4.43904 25.2999C4.343 25.2999 4.24697 25.2999 4.15092 25.2999Z" fill="white"/>
</svg>
