<svg width="30" height="30" viewBox="0 0 30 30" fill="none" xmlns="http://www.w3.org/2000/svg">
<path d="M0 15.0001C0 19.9063 2.35361 24.2636 5.99725 27.0015V2.99871C2.35361 5.73659 0 10.0939 0 15.0001Z" fill="#E31937"/>
<path d="M29.9999 15.0001C29.9999 10.0939 27.6395 5.73659 23.9958 2.99871V27.0015C27.6463 24.2636 29.9999 19.9063 29.9999 15.0001Z" fill="#E31937"/>
<path d="M5.99747 2.99872V27.0015C8.50891 28.8816 11.6242 30.0001 15.0002 30.0001C18.3762 30.0001 21.4915 28.8816 23.9961 27.0015V2.99872C21.4915 1.11172 18.3762 9.91821e-05 15.0002 9.91821e-05C11.6242 9.91821e-05 8.50891 1.11858 5.99747 2.99872Z" fill="#F1F4FB"/>
<path d="M14.9999 23.7421H15.3087L15.2126 19.6593C15.2126 19.5221 15.3842 19.4123 15.5008 19.4123C16.784 19.5632 17.9299 19.7005 19.2062 19.8583L18.8837 18.7398C18.8288 18.5408 18.9043 18.3281 19.0553 18.2115L22.7744 15.055L21.999 14.6776C21.6628 14.5472 21.7589 14.3482 21.8755 13.8748L22.445 11.7133L20.2836 12.1868C20.0708 12.2211 19.9336 12.077 19.8993 11.9466L19.618 10.931L17.9094 12.9347C17.6692 13.2503 17.1751 13.2503 17.3261 12.5093L18.0603 8.46077L17.0791 8.98913C16.8046 9.14695 16.5301 9.1744 16.3723 8.88621L14.9999 6.25126L13.6276 8.88621C13.4697 9.1744 13.1953 9.14695 12.9208 8.98913L11.9395 8.46077L12.6669 12.5093C12.8179 13.2503 12.3307 13.2503 12.0836 12.9347L10.375 10.931L10.1006 11.9466C10.0663 12.077 9.92903 12.2211 9.71632 12.1868L7.55484 11.7133L8.12436 13.8748C8.24787 14.3551 8.34395 14.5541 8.00085 14.6776L7.22546 15.055L10.9446 18.2115C11.0887 18.3281 11.1641 18.5477 11.1161 18.7398L10.7936 19.8583C12.0699 19.7005 13.2227 19.5632 14.499 19.4123C14.6157 19.4123 14.7872 19.5221 14.7872 19.6593L14.6912 23.7421H14.9999Z" fill="#E31937"/>
</svg>
