<svg width="30" height="30" viewBox="0 0 30 30" fill="none" xmlns="http://www.w3.org/2000/svg">
<g clip-path="url(#clip0_1_13576)">
<path d="M47.4998 0.0010376H-12.5002V30.001H47.4998V0.0010376Z" fill="#008000"/>
<path d="M17.5002 21.251C20.9519 21.251 23.7502 18.4528 23.7502 15.001C23.7502 11.5493 20.9519 8.75104 17.5002 8.75104C14.0484 8.75104 11.2502 11.5493 11.2502 15.001C11.2502 18.4528 14.0484 21.251 17.5002 21.251Z" fill="#FFE000"/>
<path d="M19.4491 20.144C22.2895 20.144 24.592 17.8415 24.592 15.0011C24.592 12.1608 22.2895 9.85828 19.4491 9.85828C16.6088 9.85828 14.3063 12.1608 14.3063 15.0011C14.3063 17.8415 16.6088 20.144 19.4491 20.144Z" fill="#008000"/>
<path d="M2.7974 15.2985C6.41355 15.2985 9.34502 12.3671 9.34502 8.75093C9.34502 5.13478 6.41355 2.20331 2.7974 2.20331C-0.818745 2.20331 -3.75021 5.13478 -3.75021 8.75093C-3.75021 12.3671 -0.818745 15.2985 2.7974 15.2985Z" fill="#FFE000"/>
<path d="M2.34579 13.688H3.98074C3.98074 13.688 4.05453 13.5381 3.96427 13.4632C3.87401 13.3882 3.52243 13.3718 3.61742 13.1067C3.8127 12.5617 3.83995 12.7297 3.96257 11.4354C4.08519 10.1411 4.14422 8.11108 4.14422 8.11108H3.90807C3.90807 8.11108 3.95348 8.74233 3.81724 9.56436C3.681 10.3864 3.64013 10.459 3.49026 11.0903C3.34039 11.7215 3.31769 11.776 3.18145 12.1439C3.0452 12.5117 3.03158 12.5299 2.81813 12.8705C2.60468 13.2111 2.68189 13.0839 2.56381 13.2883C2.50477 13.3905 2.43211 13.3632 2.39237 13.4376C2.35263 13.512 2.34582 13.6879 2.34582 13.6879L2.34579 13.688Z" fill="#802000" stroke="#7B3100" stroke-width="0.138887"/>
<path d="M3.59373 3.98078C3.60732 4.23472 3.58179 4.57089 3.47654 4.84447C3.36983 5.14933 3.25379 5.45322 3.25953 5.76894C3.08988 5.82664 2.91503 5.40181 2.75172 5.65175C2.87448 5.99708 3.15791 6.2705 3.35208 6.58163C3.38483 6.67809 3.66421 6.92995 3.50256 6.98852C3.09454 6.84888 2.99565 6.33191 2.74256 6.01799C2.44863 5.48967 1.90066 5.11626 1.29018 5.09049C1.06087 5.09649 0.3153 5.03365 0.509289 5.42631C0.794985 5.62055 1.14703 5.74721 1.42911 5.96522C1.63929 5.98489 2.02024 6.33575 1.99803 6.46832C1.62838 6.3186 1.45536 6.13916 1.05708 5.98166C0.51745 5.77325 -0.228991 5.89861 -0.527741 6.43417C-0.583439 6.57365 -0.665669 6.98019 -0.49051 7.01892C-0.285844 6.69937 0.00692403 6.34213 0.440739 6.43797C0.781477 6.46457 0.0605195 7.07273 0.336311 6.95037C0.423698 6.91159 0.625495 6.77913 0.765489 6.7653C0.905478 6.75146 0.983662 6.85626 1.08988 6.87076C1.30231 6.89976 1.3608 6.98881 1.34111 7.04062C1.31788 7.10175 1.25039 7.04956 1.03444 7.11803C0.926465 7.15226 0.870067 7.24715 0.744121 7.29058C0.61818 7.33402 0.356186 7.3371 0.258281 7.29858C-0.0842602 7.14979 -0.645826 7.17569 -0.752612 7.60494C-0.752707 7.79369 -0.920683 7.58408 -0.998314 7.66563C-1.05653 7.8716 -1.07158 8.08308 -1.37708 8.06438C-1.56253 8.25892 -1.75244 8.46037 -1.98792 8.59879C-1.84973 8.91595 -1.3022 8.28024 -1.3278 8.54829C-1.56714 8.87467 -1.20465 8.94335 -1.04596 8.69213C-0.777582 8.40856 -0.445189 8.06338 -0.0447131 8.34917C0.146025 8.52875 0.256859 8.25422 0.394912 8.26893C0.481888 8.49199 0.591329 8.2799 0.690049 8.21684C0.851656 8.19671 0.806186 8.41869 0.99821 8.28195C1.38091 8.02867 1.85172 8.2415 2.22559 7.99506C2.62352 7.81376 2.28146 8.14109 2.17163 8.26904C1.99679 8.60815 2.14841 9.05332 1.76917 9.26392C1.61683 9.66806 1.94915 10.2008 1.6102 10.4998C1.56089 10.6873 2.04612 10.6658 2.1823 10.7429C2.42093 10.7523 2.17204 10.1967 2.40881 10.1222C2.72634 10.3187 2.71147 9.77072 2.6459 9.60169C2.67668 9.21745 2.69837 8.79734 2.88931 8.44931C3.09229 8.02275 3.28017 8.62303 3.05294 8.79191C2.92386 9.18415 2.73598 9.67501 3.02948 10.0398C3.11407 10.0587 3.18352 10.2637 3.29304 10.3267C3.40257 10.3898 3.55216 10.3108 3.57946 10.1242C3.71994 9.56251 3.64917 8.95846 3.84979 8.41215C3.99138 8.24293 4.18671 8.38487 4.27452 8.54048C4.55565 8.86687 4.75327 9.27488 5.09362 9.54381C5.40352 9.68882 5.67759 9.90816 5.82041 10.2272C5.8185 10.4734 6.51952 10.5111 6.31004 10.2375C6.10904 9.97113 6.24166 9.70472 6.44525 9.5276C6.55429 9.5545 6.52206 9.35922 6.43657 9.43646C6.29969 9.40417 6.29094 9.15365 6.48119 9.27273C6.80165 9.37618 6.45621 9.04081 6.34039 9.03053C6.06944 8.86258 5.75813 8.66936 5.62491 8.37743C5.97763 8.38103 6.34378 8.57127 6.7042 8.45327C6.99312 8.30483 7.28616 8.46565 7.38706 8.72031C7.61039 8.68467 7.51517 8.46071 7.38706 8.38611C7.55041 8.3187 7.66338 8.17894 7.46531 8.05566C7.36071 7.91915 7.60559 7.68631 7.30459 7.69601C7.31442 7.46609 7.2239 7.25569 6.97328 7.17626C6.72222 6.96366 5.98549 7.48947 6.00685 7.01025C5.93262 6.74943 6.30613 6.9754 6.4105 6.84532C6.51834 6.57036 5.89659 6.59719 6.10175 6.38401C6.23574 6.29774 6.86454 6.17381 6.37142 6.08151C6.12531 6.14915 5.91409 6.09906 5.72041 5.97727C5.54388 6.27252 5.03982 5.81692 5.12963 6.34186C5.06067 6.53965 4.61011 7.05358 4.4882 6.65985C4.5919 6.35125 5.1257 6.25034 4.96017 5.83425C4.93476 5.57452 4.71942 5.87942 4.61797 5.86006C4.56659 5.69838 4.77334 5.50781 4.91744 5.46943C5.20338 5.68936 5.21204 5.19197 5.48398 5.23243C5.68252 5.18832 5.41987 5.10316 5.36449 5.06579C5.4189 4.92046 5.72369 4.84619 5.42482 4.71999C5.16112 4.52433 4.96567 4.91475 4.74816 4.93558C4.53939 4.69989 4.93769 4.5866 5.04763 4.46249C5.05354 4.36997 4.81539 4.43457 4.88704 4.35398C4.94928 4.24273 5.37098 4.23445 5.1735 4.06752C4.87609 3.96542 4.49231 3.99088 4.20696 4.12315C4.02718 4.18135 3.97428 4.58785 3.81932 4.57099C3.74647 4.39005 3.84305 4.03306 3.59363 3.98071L3.59373 3.98078ZM4.99999 7.95215C5.2266 7.91378 5.0048 8.29631 4.89582 8.29069C4.90545 8.15324 4.56805 8.16647 4.77738 8.04672C4.84527 8.00288 4.92091 7.96944 4.99999 7.95215Z" fill="#008000"/>
<path d="M27.0891 22.858L27.5023 24.1428L28.7644 23.6648L28.0176 24.789L29.1782 25.4777L27.8337 25.5947L28.0188 26.9315L27.0891 25.9533L26.1593 26.9315L26.3445 25.5947L24.9999 25.4777L26.1606 24.789L25.4137 23.6648L26.6758 24.1428L27.0891 22.858Z" fill="#FFE000"/>
<path d="M19.5889 10.9833L20.0021 12.2681L21.2642 11.7901L20.5174 12.9143L21.678 13.603L20.3335 13.72L20.5186 15.0568L19.5889 14.0786L18.6591 15.0568L18.8443 13.72L17.4998 13.603L18.6604 12.9143L17.9135 11.7901L19.1757 12.2681L19.5889 10.9833Z" fill="#FFE000"/>
<path d="M27.0891 2.85822L27.5023 4.14301L28.7644 3.66502L28.0176 4.78915L29.1782 5.4779L27.8337 5.59487L28.0188 6.93172L27.0891 5.95345L26.1593 6.93172L26.3445 5.59487L24.9999 5.4779L26.1606 4.78915L25.4137 3.66502L26.6758 4.14301L27.0891 2.85822Z" fill="#FFE000"/>
<path d="M30.089 15.0011L30.4155 15.8016L31.2778 15.8648L30.6173 16.4228L30.8237 17.2624L30.089 16.8067L29.3542 17.2624L29.5606 16.4228L28.9001 15.8648L29.7624 15.8016L30.089 15.0011Z" fill="#FFE000"/>
</g>
<defs>
<clipPath id="clip0_1_13576">
<rect y="0.0010376" width="30" height="30" rx="15" fill="white"/>
</clipPath>
</defs>
</svg>
