<svg width="30" height="30" viewBox="0 0 30 30" fill="none" xmlns="http://www.w3.org/2000/svg">
<path d="M15.0006 30.0001C23.2829 30.0001 30.0006 23.2823 30.0006 15.0001C30.0006 13.8404 29.8566 12.7151 29.6095 11.6309L4.06287 25.2448C6.80075 28.168 10.6777 30.0001 15.0006 30.0001Z" fill="#00A3DD"/>
<path d="M15.0009 0.000106812C6.7118 0.000106812 0.000915527 6.71786 0.000915527 15.0001C0.000915527 16.1598 0.144984 17.292 0.398873 18.3761L25.9456 4.76222C23.2009 1.83907 19.3239 0.000106812 15.0009 0.000106812Z" fill="#00A3DD"/>
<path d="M4.06324 25.2448L29.6099 11.6309C29.5207 11.2329 29.4178 10.8349 29.2943 10.4507L3.26038 24.3253C3.51426 24.641 3.78191 24.9498 4.06324 25.2448Z" fill="#F7D618"/>
<path d="M3.26005 24.3253L29.294 10.4507C28.7381 8.69403 27.8598 7.08836 26.7413 5.68168L0.707458 19.5563C1.26327 21.3061 2.14157 22.9187 3.26005 24.3253Z" fill="#CE1021"/>
<path d="M0.391785 18.3761C0.480989 18.7741 0.58389 19.1721 0.707403 19.5563L26.7412 5.68167C26.4873 5.35916 26.2198 5.05723 25.9384 4.76217L0.391785 18.3761Z" fill="#F7D618"/>
<path d="M4.38586 10.8349L6.36894 9.40078L8.34516 10.8349L7.59037 8.50874L9.56659 7.07461H7.12373L6.36894 4.74844L5.61416 7.07461H3.16443L5.14751 8.50874L4.38586 10.8349Z" fill="#F7D618"/>
</svg>
