<svg width="30" height="30" viewBox="0 0 30 30" fill="none" xmlns="http://www.w3.org/2000/svg">
<path d="M2.01787 22.4949H27.9762C29.2525 20.2859 30.0005 17.7339 30.0005 14.9967H0.000488281C0.000488281 17.7339 0.74157 20.2859 2.01787 22.4949Z" fill="#289728"/>
<path d="M15.0007 29.9932C20.5519 29.9932 25.3826 26.9747 27.9764 22.4949H2.01807C4.61871 26.9747 9.44944 29.9932 15.0007 29.9932Z" fill="#FFCE00"/>
<path d="M0.000488281 14.9966H30.0005C30.0005 12.2593 29.2594 9.70727 27.9762 7.49826H2.01787C0.74157 9.70727 0.000488281 12.2662 0.000488281 14.9966Z" fill="white"/>
<path d="M15.0008 9.91821e-05C9.44959 9.91821e-05 4.61882 3.01862 2.02504 7.49838H27.9766C25.3828 3.02548 20.5452 9.91821e-05 15.0008 9.91821e-05Z" fill="#003082"/>
<path d="M15.0009 9.91821e-05C13.704 9.91821e-05 12.4482 0.185328 11.2543 0.49404V29.5062C12.4551 29.8149 13.704 30.0001 15.0009 30.0001C16.2977 30.0001 17.5535 29.8149 18.7474 29.5062V0.49404C17.5466 0.185328 16.2977 9.91821e-05 15.0009 9.91821e-05Z" fill="#D21034"/>
</svg>
