<svg width="30" height="30" viewBox="0 0 30 30" fill="none" xmlns="http://www.w3.org/2000/svg">
<path d="M15.0007 9.91821e-05C6.71842 9.91821e-05 0.000671387 6.71784 0.000671387 15.0001C0.000671387 17.0381 0.412382 18.9868 1.15346 20.7572L20.7234 1.1323C18.96 0.404944 17.0318 9.91821e-05 15.0007 9.91821e-05Z" fill="#009543"/>
<path d="M15.0007 30.0001C23.2829 30.0001 30.0007 23.2824 30.0007 15.0001C30.0007 12.9347 29.5821 10.9722 28.8273 9.18126L9.21613 28.8405C11.0002 29.5884 12.9558 30.0001 15.0007 30.0001Z" fill="#DC241F"/>
<path d="M20.7234 1.13917L1.15344 20.7641C2.66991 24.4077 5.57933 27.324 9.22297 28.8473L28.8341 9.18812C27.2971 5.54448 24.3739 2.64191 20.7234 1.13917Z" fill="#FBDE4A"/>
</svg>
