<svg width="30" height="30" viewBox="0 0 30 30" fill="none" xmlns="http://www.w3.org/2000/svg">
<path d="M0.000671387 15.0001C0.000671387 21.0522 3.58942 26.2672 8.74953 28.6346V1.3656C3.58942 3.73294 0.000671387 8.94794 0.000671387 15.0001Z" fill="#F77F00"/>
<path d="M30.0006 15.0001C30.0006 8.94794 26.4119 3.73294 21.2518 1.3656V28.6346C26.4119 26.2672 30.0006 21.0522 30.0006 15.0001Z" fill="#009E60"/>
<path d="M15.0007 9.91821e-05C12.7706 9.91821e-05 10.6503 0.494146 8.74957 1.3656V28.6346C10.6503 29.506 12.7706 30.0001 15.0007 30.0001C17.2308 30.0001 19.3511 29.5129 21.2519 28.6346V1.3656C19.3443 0.487284 17.2308 9.91821e-05 15.0007 9.91821e-05Z" fill="#F1F4FB"/>
</svg>
