<svg width="30" height="30" viewBox="0 0 30 30" fill="none" xmlns="http://www.w3.org/2000/svg">
<g clip-path="url(#clip0_1_13590)">
<mask id="mask0_1_13590" style="mask-type:luminance" maskUnits="userSpaceOnUse" x="-15" y="0" width="60" height="31">
<path d="M-15 0.0010376H45V30.001H-15V0.0010376Z" fill="white"/>
</mask>
<g mask="url(#mask0_1_13590)">
<path d="M-15 0.0010376H45V30.001H-15V0.0010376Z" fill="#012169"/>
<path d="M-15 0.0010376L15 15.001L-15 0.0010376ZM-15 15.001L15 0.0010376L-15 15.001Z" fill="#012169"/>
<path d="M-15 0.0010376L15 15.001M-15 15.001L15 0.0010376" stroke="white" stroke-width="3"/>
<mask id="mask1_1_13590" style="mask-type:luminance" maskUnits="userSpaceOnUse" x="-25" y="0" width="50" height="21">
<path d="M-15 0.0010376V7.50104H25V20.001L-15 0.0010376ZM15 0.0010376H0V20.001H-25L15 0.0010376Z" fill="white"/>
</mask>
<g mask="url(#mask1_1_13590)">
<path d="M-15 0.0010376L15 15.001L-15 0.0010376ZM-15 15.001L15 0.0010376L-15 15.001Z" fill="#012169"/>
<path d="M-15 0.0010376L15 15.001M-15 15.001L15 0.0010376" stroke="#C8102E" stroke-width="2"/>
</g>
<path d="M0 0.0010376V20.001V0.0010376ZM-15 7.50104H20H-15Z" fill="#012169"/>
<path d="M0 0.0010376V20.001M-15 7.50104H20" stroke="white" stroke-width="5"/>
<path d="M0 0.0010376V20.001V0.0010376ZM-15 7.50104H20H-15Z" fill="#012169"/>
<path d="M0 0.0010376V20.001M-15 7.50104H20" stroke="#C8102E" stroke-width="3"/>
<path d="M-15 15.001H15V0.0010376H45V30.001H-15V15.001Z" fill="#012169"/>
</g>
<path d="M30.0002 2.55103L30.5064 4.10728H32.1377L30.8189 5.06353L31.3252 6.61978L30.0002 5.66353L28.6752 6.61978L29.1814 5.06353L27.8627 4.10728H29.4939L30.0002 2.55103Z" fill="white"/>
<path d="M32.5879 27.179L31.7692 25.762L30.1736 26.1012L31.2647 24.8917L30.4459 23.4747L31.9408 24.1345L33.038 22.9237L32.8664 24.5512L34.3551 25.2124L32.7595 25.5515L32.5879 27.179Z" fill="white"/>
<path d="M27.4115 27.1791L27.2399 25.5516L25.6443 25.2124L27.133 24.5512L26.9614 22.9237L28.0587 24.1346L29.5535 23.4747L28.7348 24.8917L29.8259 26.1012L28.2303 25.7621L27.4115 27.1791Z" fill="white"/>
<path d="M22.6822 25.0734L23.1874 23.5168L21.8677 22.558L23.4967 22.5595L24.0018 21.0029L24.5117 22.5553L26.1457 22.5605L24.8214 23.522L25.3262 25.0707L24.0065 24.1119L22.6822 25.0734Z" fill="white"/>
<path d="M19.218 21.2261L20.3126 20.0096L19.497 18.5969L20.9845 19.2608L22.0791 18.0443L21.9135 19.6699L23.4041 20.3392L21.8033 20.6789L21.6345 22.2991L20.8189 20.8864L19.218 21.2261Z" fill="white"/>
<path d="M17.6182 16.3025L19.1131 15.6363L18.9425 14.014L20.0314 15.2256L21.5262 14.5595L20.7137 15.9771L21.8032 17.1949L20.2026 16.8541L19.3894 18.2656L19.2189 16.6433L17.6182 16.3025Z" fill="white"/>
<path d="M18.1594 11.1538L19.7959 11.1532L20.3 9.60179L20.802 11.1515L22.4385 11.1509L21.1196 12.1156L21.6196 13.6712L20.2959 12.7088L18.979 13.6676L19.4831 12.1161L18.1594 11.1538Z" fill="white"/>
<path d="M20.7478 6.67044L22.243 7.33556L23.3346 6.1233L23.1628 7.74318L24.658 8.4083L23.0608 8.75311L22.8848 10.3776L22.0671 8.96008L20.474 9.30025L21.5655 8.08799L20.7478 6.67044Z" fill="white"/>
<path d="M24.936 3.62749L26.0314 4.84328L27.5217 4.17979L26.7059 5.58975L27.8013 6.80555L26.2019 6.4709L25.3804 7.8834L25.2099 6.25579L23.6163 5.91859L25.1065 5.2551L24.936 3.62749Z" fill="white"/>
</g>
<defs>
<clipPath id="clip0_1_13590">
<rect y="0.0010376" width="30" height="30" rx="15" fill="white"/>
</clipPath>
</defs>
</svg>
