<svg width="30" height="30" viewBox="0 0 30 30" fill="none" xmlns="http://www.w3.org/2000/svg">
<path d="M15.0005 30.0001C23.2827 30.0001 30.0005 23.2823 30.0005 15.0001H0.000488281C0.000488281 23.2823 6.71823 30.0001 15.0005 30.0001Z" fill="#D42E12"/>
<path d="M15.0005 9.15527e-05C6.71823 9.15527e-05 0.000488281 6.71785 0.000488281 15.0001H30.0005C30.0005 6.71785 23.2827 9.15527e-05 15.0005 9.15527e-05Z" fill="#F1F4FB"/>
<path d="M13.5115 15.0001V0.0755463C5.92913 0.823488 0.000488281 7.21873 0.000488281 15.0001H13.5115Z" fill="#0035AD"/>
<path d="M6.78689 4.85132L7.67896 7.60293H10.5746L8.23477 9.30466L9.12681 12.0563L6.78689 10.3545L4.44702 12.0563L5.33905 9.30466L2.99918 7.60293H5.89486L6.78689 4.85132Z" fill="white"/>
</svg>
