<svg width="30" height="30" viewBox="0 0 30 30" fill="none" xmlns="http://www.w3.org/2000/svg">
<path d="M-0.00012207 15.0001C-0.00012207 21.0522 3.58862 26.2672 8.74873 28.6346V1.36557C3.58862 3.7329 -0.00012207 8.94792 -0.00012207 15.0001Z" fill="#007A5E"/>
<path d="M29.9997 15.0001C29.9997 8.94792 26.4109 3.7329 21.2508 1.36557V28.6346C26.4109 26.2672 29.9997 21.0522 29.9997 15.0001Z" fill="#FCD116"/>
<path d="M15 6.10352e-05C12.7699 6.10352e-05 10.6496 0.487246 8.7489 1.36556V28.6345C10.6496 29.506 12.7699 30.0001 15 30.0001C17.2301 30.0001 19.3436 29.506 21.2512 28.6345V1.36556C19.3436 0.487246 17.2301 6.10352e-05 15 6.10352e-05Z" fill="#CE1126"/>
<path d="M14.9994 11.3495L15.9052 14.1423H18.8352L16.461 15.8577L17.3668 18.6505L14.9994 16.9282L12.6252 18.6505L13.531 15.8577L11.1636 14.1423H14.0937L14.9994 11.3495Z" fill="#FCD116"/>
</svg>
