<svg width="30" height="30" viewBox="0 0 30 30" fill="none" xmlns="http://www.w3.org/2000/svg">
<path d="M30.0005 15.0001C30.0005 23.2824 23.2827 30.0001 15.0005 30.0001C6.71823 30.0001 0.000488281 23.2824 0.000488281 15.0001C0.000488281 6.71785 6.71823 9.15527e-05 15.0005 9.15527e-05C23.2827 9.15527e-05 30.0005 6.71785 30.0005 15.0001Z" fill="#DE2910"/>
<path d="M6.69093 5.92867L7.65844 8.91357H10.808L8.26228 10.7663L9.22978 13.758L6.69093 11.9053L4.14517 13.758L5.11954 10.7663L2.57382 8.91357H5.72339L6.69093 5.92867Z" fill="#FFDE00"/>
<path d="M14.8844 4.36414L14.8158 5.40027L15.7764 5.78453L14.7746 6.03842L14.706 7.0677L14.157 6.19625L13.1552 6.45013L13.8139 5.65416L13.265 4.78271L14.2257 5.1601L14.8844 4.36414Z" fill="#FFDE00"/>
<path d="M18.4183 7.71954L17.9449 8.63902L18.6722 9.37324L17.6498 9.20856L17.1763 10.128L17.0185 9.10563L15.9961 8.94095L16.9225 8.47434L16.7646 7.45193L17.492 8.18614L18.4183 7.71954Z" fill="#FFDE00"/>
<path d="M17.3548 11.9122L17.6704 12.8934H18.7065L17.8694 13.5041L18.1851 14.4854L17.3548 13.8815L16.5108 14.4854L16.8333 13.5041L15.9961 12.8934H17.0322L17.3548 11.9122Z" fill="#FFDE00"/>
<path d="M14.8775 15.0686L14.8088 16.0979L15.7695 16.4822L14.7677 16.7361L14.6991 17.7722L14.1501 16.8939L13.1483 17.1546L13.807 16.3587L13.2581 15.4803L14.2187 15.8646L14.8775 15.0686Z" fill="#FFDE00"/>
</svg>
