<svg width="30" height="30" viewBox="0 0 30 30" fill="none" xmlns="http://www.w3.org/2000/svg">
<path d="M29.1775 19.9633H0.823914C1.46878 21.8289 2.46352 23.5292 3.73268 24.9817H26.2618C27.5378 23.5292 28.5326 21.8358 29.1775 19.9633Z" fill="white"/>
<path d="M26.2618 24.9818H3.7326C6.12684 27.7147 9.48837 29.5665 13.2752 30.0001H16.7123C20.5128 29.5665 23.8744 27.7147 26.2618 24.9818Z" fill="#002B7F"/>
<path d="M15.0041 9.91821e-05C10.6135 9.91821e-05 6.66202 1.89318 3.91791 4.91521H26.0903C23.3462 1.90006 19.3947 9.91821e-05 15.0041 9.91821e-05Z" fill="#002B7F"/>
<path d="M26.0906 4.91515H3.91129C2.60097 6.36076 1.56507 8.06109 0.892761 9.93351H29.1022C28.4299 8.06109 27.4009 6.36076 26.0906 4.91515Z" fill="white"/>
<path d="M30.0007 15.0483C30.0007 13.2516 29.6851 11.5306 29.1088 9.93358H0.892505C0.316241 11.5306 0.000671387 13.2516 0.000671387 15.0483C0.000671387 16.7693 0.295661 18.4214 0.823903 19.9634H29.1706C29.7057 18.4283 30.0007 16.7693 30.0007 15.0483Z" fill="#CE1126"/>
</svg>
