<svg width="30" height="30" viewBox="0 0 30 30" fill="none" xmlns="http://www.w3.org/2000/svg">
<path d="M6.84589 23.996H26.9968C28.3068 22.2531 29.2464 20.2152 29.6923 17.9988H14.6785L6.84589 23.996Z" fill="#F1F4FB"/>
<path d="M26.9966 23.9959H6.84568L4.55487 25.7526C7.2572 28.3806 10.9403 30 15.0007 30C19.9047 29.9932 24.26 27.6396 26.9966 23.9959Z" fill="#002A8F"/>
<path d="M18.6016 14.9932L14.6852 17.9918H29.699C29.891 17.0243 30.0007 16.0156 30.0007 14.9932C30.0007 13.9639 29.8979 12.9621 29.699 11.9946H14.6852L18.6016 14.9932Z" fill="#002A8F"/>
<path d="M26.9966 5.99736C24.26 2.35372 19.9047 9.15527e-05 15.0007 9.15527e-05C10.9403 9.15527e-05 7.25034 1.61949 4.55487 4.24758L6.84568 6.00421H26.9966V5.99736Z" fill="#002A8F"/>
<path d="M14.6785 11.9947H29.6923C29.2396 9.77833 28.2999 7.74037 26.9968 5.99746H6.84589L14.6785 11.9947Z" fill="#F1F4FB"/>
<path d="M14.6783 17.9919L18.5947 14.9933L14.6783 11.9947L6.83881 5.99743L4.548 4.2408C1.74279 6.96495 0.000671387 10.7733 0.000671387 14.9933C0.000671387 19.2133 1.74279 23.0217 4.548 25.7458L6.83881 23.9892L14.6783 17.9919ZM2.22975 14.2522H4.74004L5.51508 11.8643L6.29012 14.2522H8.80041L6.77022 15.7275L7.54525 18.1154L5.51508 16.6401L3.48491 18.1154L4.25993 15.7275L2.22975 14.2522Z" fill="#CF142B"/>
<path d="M3.47797 18.1153L5.50814 16.64L7.53831 18.1153L6.7633 15.7342L8.79347 14.2521H6.28318L5.50814 11.871L4.7331 14.2521H2.22968L4.25985 15.7342L3.47797 18.1153Z" fill="white"/>
</svg>
