<svg width="30" height="30" viewBox="0 0 30 30" fill="none" xmlns="http://www.w3.org/2000/svg">
<path d="M29.9932 15.0001C29.9932 23.2823 23.2769 30.0001 14.9966 30.0001C6.71621 30.0001 0 23.2823 0 15.0001C0 6.71785 6.71621 9.91821e-05 14.9966 9.91821e-05C23.2838 9.91821e-05 29.9932 6.71785 29.9932 15.0001Z" fill="#003893"/>
<path d="M29.7672 17.5452C29.9113 16.722 30.0005 15.8782 30.0005 15.0138H0.00732422C0.00732422 15.8782 0.0965263 16.722 0.240592 17.5452H29.7672Z" fill="white"/>
<path d="M0.905714 20.0841H29.0946C29.3896 19.2678 29.616 18.4239 29.7601 17.5527H0.233398C0.384325 18.4239 0.610721 19.2678 0.905714 20.0841Z" fill="#CE1126"/>
<path d="M2.09209 22.6162H27.9005C28.3738 21.8136 28.7717 20.9697 29.0942 20.0848H0.905273C1.22085 20.9697 1.61873 21.8136 2.09209 22.6162Z" fill="white"/>
<path d="M7.16956 12.1935L6.8677 13.1196H5.89355L6.68248 13.689L6.38063 14.6152L7.16271 14.0458L7.95164 14.6152L7.64979 13.689L8.43871 13.1196H7.46457L7.16956 12.1935Z" fill="#FCD116"/>
<path d="M4.73989 15.5423L4.43804 16.4615H3.46387L4.2528 17.0309L3.95094 17.9571L4.73989 17.3877L5.52195 17.9571L5.2201 17.0309L6.00903 16.4615H5.03488L4.73989 15.5423Z" fill="#FCD116"/>
<path d="M4.73989 19.6731L4.43804 20.5992H3.46387L4.2528 21.1686L3.95094 22.0948L4.73989 21.5254L5.52195 22.0948L5.2201 21.1686L6.00903 20.5992H5.03488L4.73989 19.6731Z" fill="#FCD116"/>
<path d="M7.16956 23.0147L6.8677 23.9408H5.89355L6.68248 24.5102L6.38063 25.4364L7.16271 24.867L7.95164 25.4364L7.64979 24.5102L8.43871 23.9408H7.46457L7.16956 23.0147Z" fill="#FCD116"/>
<path d="M11.1002 10.9174L10.7984 11.8435H9.82424L10.6063 12.4129L10.3044 13.3391L11.0934 12.7697L11.8755 13.3391L11.5736 12.4129L12.3625 11.8435H11.3952L11.1002 10.9174Z" fill="#FCD116"/>
<path d="M11.1002 24.2911L10.7984 25.2172H9.82422L10.6063 25.7866L10.3044 26.7128L11.0934 26.1434L11.8754 26.7128L11.5736 25.7866L12.3625 25.2172H11.3952L11.1002 24.2911Z" fill="#FCD116"/>
<path d="M15.0241 23.0147L14.7222 23.9408H13.748L14.537 24.5102L14.2351 25.4364L15.0172 24.867L15.8061 25.4364L15.5043 24.5102L16.2932 23.9408H15.3191L15.0241 23.0147Z" fill="#FCD116"/>
<path d="M17.4596 15.5423L17.1577 16.4615H16.1836L16.9725 17.0309L16.6707 17.9571L17.4528 17.3877L18.2417 17.9571L17.9398 17.0309L18.7219 16.4615H17.7477L17.4596 15.5423Z" fill="#FCD116"/>
<path d="M17.4596 19.6731L17.1577 20.5992H16.1836L16.9725 21.1686L16.6707 22.0948L17.4528 21.5254L18.2417 22.0948L17.9398 21.1686L18.7219 20.5992H17.7477L17.4596 19.6731Z" fill="#FCD116"/>
<path d="M15.0241 12.1935L14.7222 13.1196H13.748L14.537 13.689L14.2351 14.6152L15.0172 14.0458L15.8061 14.6152L15.5043 13.689L16.2932 13.1196H15.3191L15.0241 12.1935Z" fill="#FCD116"/>
</svg>
