<svg width="30" height="30" viewBox="0 0 30 30" fill="none" xmlns="http://www.w3.org/2000/svg">
<g clip-path="url(#clip0_1_13626)">
<path d="M37.5 0.0010376H-7.5V30.001H37.5V0.0010376Z" fill="#002B7F"/>
<path d="M-7.5 18.751H37.5V22.501H-7.5V18.751Z" fill="#F9E814"/>
<path d="M2.5 6.6676L1.46994 9.83779L3.05504 10.3528L2.5 6.6676Z" fill="white"/>
<path d="M1.521 0.487305L2.55105 3.65749L0.965959 4.17252L1.521 0.487305Z" fill="white"/>
<path d="M5.67017 8.97083H2.33683V10.6375L5.67017 8.97083Z" fill="white"/>
<path d="M11.2457 6.13007L8.549 8.08935L7.56936 6.74099L11.2457 6.13007Z" fill="white"/>
<path d="M-0.670044 8.97089L2.02668 10.9302L3.00632 9.58181L-0.670044 8.97089Z" fill="white"/>
<path d="M4.45935 12.6978L3.42929 9.52757L1.8442 10.0426L4.45935 12.6978Z" fill="white"/>
<path d="M8.88379 17.1224L6.18707 15.1631L7.16671 13.8147L8.88379 17.1224Z" fill="white"/>
<path d="M0.540894 12.6978L3.23762 10.7385L2.25797 9.39011L0.540894 12.6978Z" fill="white"/>
<path d="M-2.30029 18.2731L-1.27024 15.1029L0.314858 15.618L-2.30029 18.2731Z" fill="white"/>
<path d="M4.05908 2.09802L2.03654 3.56749L1.30181 2.55621L4.05908 2.09802Z" fill="white"/>
<path d="M2.28821 10.3421L0.265666 8.87264L1.0004 7.86137L2.28821 10.3421Z" fill="white"/>
</g>
<defs>
<clipPath id="clip0_1_13626">
<rect y="0.0010376" width="30" height="30" rx="15" fill="white"/>
</clipPath>
</defs>
</svg>
