<svg width="30" height="30" viewBox="0 0 30 30" fill="none" xmlns="http://www.w3.org/2000/svg">
<g clip-path="url(#clip0_1_13666)">
<path d="M-15 0.0010376H45V30.001H-15V0.0010376Z" fill="#012169"/>
<path d="M-15 0.0010376H45V30.001L-15 0.0010376Z" fill="#0DB02B"/>
<path d="M14.9999 20.419C17.9922 20.419 20.4179 17.9933 20.4179 15.001C20.4179 12.0087 17.9922 9.58301 14.9999 9.58301C12.0076 9.58301 9.58191 12.0087 9.58191 15.001C9.58191 17.9933 12.0076 20.419 14.9999 20.419Z" fill="#F7D116"/>
<path d="M11.6879 12.565C12.0599 13.075 12.6179 13.927 13.0739 13.705C13.4279 13.705 13.6079 13.729 13.6559 13.963C14.4899 14.107 15.8879 13.753 16.7519 12.619C16.7519 12.619 16.8239 12.631 16.7999 12.199C16.8059 12.013 17.0579 12.049 17.0639 12.109C17.0999 12.205 17.0939 12.271 17.1419 12.277C17.2499 12.241 17.3939 12.001 17.5199 11.851C17.5559 11.785 17.5379 11.713 17.5439 11.629C17.6099 11.467 17.7719 11.503 17.8019 11.587C17.8319 11.641 17.8319 11.683 17.8619 11.737C18.0239 11.845 18.3239 11.743 18.3419 11.743C18.3719 11.611 18.4559 11.623 18.4559 11.623C18.5639 11.599 18.5219 11.611 18.5939 11.647C18.5279 12.367 18.7379 12.397 18.7199 12.769C18.7259 13.183 18.5939 13.297 18.5939 13.453C18.6359 13.645 19.2419 13.651 19.0319 13.813C18.8459 13.915 19.0319 14.101 18.7499 14.173C17.9279 14.593 17.7659 14.947 17.7659 14.947C17.7659 14.947 17.5619 15.337 17.5379 15.337C17.3999 15.595 17.2259 15.457 17.1299 15.583C17.0819 15.745 17.0279 16.099 17.1239 16.279C17.1719 16.531 17.1179 16.669 17.0579 16.921C17.0039 17.449 16.7939 17.527 16.7699 17.713C16.6739 17.911 16.7879 18.841 16.6979 18.841C16.0859 18.853 15.6119 18.721 15.3719 18.673C15.6059 17.653 15.5159 16.759 15.5159 16.669C15.4559 15.943 14.4239 16.117 14.2679 16.021C14.1359 15.991 14.0579 15.889 14.0099 15.841C13.8659 15.823 13.8119 15.793 13.6619 15.775C13.5899 15.811 13.6319 15.847 13.4699 15.901C13.0559 15.949 12.8759 15.541 12.8759 15.541C12.8939 15.403 11.9519 15.571 11.4359 15.451C11.2259 15.571 11.1359 15.913 10.9619 15.955C10.9559 16.063 10.6799 15.865 10.6199 15.763C10.6079 15.457 10.8899 15.319 10.8899 15.319C11.1119 15.163 11.2439 15.139 11.3519 15.031C11.4059 14.761 11.3759 14.563 11.4899 14.365C11.5859 14.209 11.7299 14.281 11.8259 14.215C11.9279 14.149 11.9759 13.693 11.8799 13.573L11.4419 13.177C11.3099 12.787 11.6039 12.541 11.6879 12.565Z" fill="#0DB02B"/>
<path d="M2.46359 13.63L1.94579 13.1272L1.42395 13.6258L1.48058 12.8906L0.78479 12.7722L1.37136 12.3581L1.02346 11.7159L1.69903 11.9356L1.96197 11.251L2.21683 11.9398L2.8924 11.7285L2.53641 12.3666L3.11489 12.7891L2.41505 12.8948L2.46359 13.63ZM4.29207 19.7402L3.73382 19.3515L3.19175 19.7613L3.38188 19.1021L2.83172 18.7049L3.50728 18.688L3.70955 18.0331L3.93608 18.6796L4.61165 18.6711L4.07767 19.0895L4.29207 19.7402ZM2.56472 25.001L2.04692 24.4982L1.52508 24.9926L1.58171 24.2573L0.885922 24.139L1.47249 23.7249L1.1246 23.0826L1.80016 23.3024L2.06311 22.6178L2.31796 23.3066L2.99353 23.0953L2.63754 23.7334L3.21602 24.1559L2.51618 24.2616L2.56472 25.001ZM-2.0712 18.8402L-2.589 18.3373L-3.11084 18.8317L-3.05421 18.0965L-3.75 17.9781L-3.16343 17.564L-3.51133 16.9217L-2.83576 17.1415L-2.57282 16.4569L-2.31796 17.1457L-1.6424 16.9344L-1.99838 17.5725L-1.4199 17.995L-2.11974 18.1007L-2.0712 18.8402ZM6.84871 17.226L6.3309 16.7189L5.80906 17.2175L5.86569 16.4823L5.1699 16.364L5.75647 15.9499L5.40858 15.3076L6.08414 15.5273L6.34709 14.8428L6.60194 15.5315L7.27751 15.3203L6.92152 15.9583L7.5 16.3809L6.80016 16.4865L6.84871 17.226Z" fill="white"/>
<path d="M29.8683 10.4846C29.7585 10.4202 29.6832 10.4717 29.5358 10.4202C29.4134 10.3783 29.4354 10.3332 29.3287 10.2978C29.2033 10.256 29.1437 10.3107 28.9272 10.3332C28.8519 10.3397 28.7327 10.3493 28.6637 10.3397C28.3846 10.301 28.165 9.85669 28.074 9.51859C27.9517 9.08068 28.0364 8.78123 27.9799 8.15013C27.9674 8.00845 27.936 7.80237 27.8607 7.57376C27.8074 7.40954 27.7008 7.15195 27.1832 6.53372C26.6092 5.8511 26.1512 5.47115 26.0289 5.37133C25.8344 5.21033 25.6619 5.08798 25.5364 5.00104C25.5552 5.20067 25.5991 5.49691 25.7058 5.835C25.8281 6.22783 25.9787 6.50796 26.123 6.77522C26.3645 7.21957 26.973 8.324 26.8883 8.64599C26.8821 8.66531 26.8632 8.73293 26.8444 8.83275C26.8193 8.96477 26.813 9.07424 26.8099 9.1483C26.7315 9.12254 26.6123 9.07746 26.4711 9.00663C26.2108 8.87461 26.0414 8.73615 25.9567 8.66853C25.7246 8.48822 25.4987 8.40772 25.0502 8.24028C24.4542 8.01811 23.8959 7.93117 23.4473 7.90219C23.7296 8.324 24.0056 8.60735 24.2095 8.78445C24.5891 9.11932 24.9906 9.34794 25.1882 9.46063C25.4297 9.59909 25.5301 9.63773 25.7811 9.80195C26.1669 10.0563 26.3143 10.2205 26.4084 10.3493C26.5245 10.5071 26.6311 10.652 26.6562 10.8645C26.6813 11.0706 26.6248 11.2928 26.4555 11.5697C25.9661 12.365 25.0282 12.8029 24.7428 12.9285C24.3852 13.0863 23.8237 13.331 22.9862 13.4533C22.3526 13.5467 21.3457 13.5982 20.1161 13.2569C20.2447 13.3149 20.389 13.3728 20.5458 13.4244C20.7152 13.4791 20.872 13.5177 21.0163 13.5467C21.0257 13.5499 20.8156 13.5564 20.6023 13.5081C20.345 13.4501 20.1412 13.3471 20 13.2601C20.1066 13.3471 20.2729 13.4662 20.4862 13.5628C20.7622 13.6884 21.0445 13.7464 21.8789 13.7496C22.3808 13.7528 22.6317 13.7528 22.8795 13.727C23.5885 13.653 24.1186 13.4759 24.6205 13.2988C25.0439 13.1507 25.4046 13.0251 25.872 12.7772C26.5464 12.4165 26.8664 12.1074 27.6161 11.7951C27.8513 11.6985 27.9705 11.647 28.1211 11.6019C28.5665 11.4666 28.7359 11.5021 29.0433 11.325C29.3193 11.1672 29.4072 11.0062 29.4322 10.9579C29.473 10.8806 29.4793 10.8323 29.5232 10.7744C29.6393 10.623 29.8432 10.6166 30 10.6359C29.9812 10.594 29.9373 10.5296 29.8683 10.4846ZM29.266 10.6327C29.2472 10.6584 29.2127 10.6681 29.1844 10.6617C29.1437 10.6488 29.1154 10.6037 29.1186 10.549L29.0245 10.4975H29.266C29.2942 10.5393 29.2911 10.5973 29.266 10.6327Z" fill="#F7D116"/>
</g>
<defs>
<clipPath id="clip0_1_13666">
<rect y="0.0010376" width="30" height="30" rx="15" fill="white"/>
</clipPath>
</defs>
</svg>
