<svg width="30" height="30" viewBox="0 0 30 30" fill="none" xmlns="http://www.w3.org/2000/svg">
<path d="M30.0007 15.0001C30.0007 23.2823 23.2829 30.0001 15.0007 30.0001C6.71841 30.0001 0.000671387 23.2823 0.000671387 15.0001C0.000671387 6.71783 6.71841 9.15527e-05 15.0007 9.15527e-05C23.2898 9.15527e-05 30.0007 6.71783 30.0007 15.0001Z" fill="#F1F4FB"/>
<path d="M24.1818 7.14327C24.669 7.157 25.0944 6.8894 25.4993 6.66296C25.4238 6.82078 25.417 7.00605 25.3277 7.15701C25.1836 7.22563 25.0121 7.18445 24.8749 7.27365C24.6621 7.41089 24.4288 7.53441 24.2298 7.69223C24.0514 7.82947 24.072 8.13138 23.8319 8.2C23.5025 8.28921 23.2966 8.57054 23.0908 8.81757C22.8026 8.87246 22.5624 9.04402 22.2879 9.15381C22.0821 9.23615 21.9311 9.41456 21.7596 9.55866C21.588 9.70962 21.4028 9.85372 21.3273 10.0802C21.2792 10.19 21.2655 10.3546 21.142 10.4164C20.9705 10.5262 20.7577 10.4507 20.5725 10.4576C20.3529 10.5125 20.0853 10.636 20.0922 10.8967C19.7971 11.13 19.7971 11.5417 19.8383 11.8711C19.9 12.1936 20.147 12.4269 20.3598 12.6465C20.4695 12.7494 20.4901 12.8935 20.5588 13.017C20.6891 13.1886 20.9293 13.2503 21.0185 13.4562C21.0734 13.6003 21.2038 13.6826 21.2792 13.8061C21.341 13.9228 21.3204 14.0669 21.341 14.1904C21.0665 14.012 20.7303 13.9434 20.4147 13.9091C20.2637 14.0051 20.0784 14.0189 19.9069 14.0189C19.9549 14.2247 19.7628 14.3962 19.5638 14.3276C19.3511 14.2178 19.1864 14.0051 18.9394 13.9914C18.5551 13.9571 18.0885 13.9228 17.8209 14.259C17.6288 14.5472 17.7111 14.9109 17.6836 15.2403C17.5327 15.3363 17.4435 15.4942 17.3955 15.6657C17.2514 15.6451 17.1072 15.5971 16.97 15.6451C16.7985 15.6931 16.6955 15.8647 16.5789 16.0019C16.2976 16.05 16.0025 16.1323 15.8035 16.345C15.6663 16.3862 15.5359 16.4411 15.4261 16.5234C15.3163 16.544 15.2202 16.5921 15.1379 16.6607C15.0007 16.6332 14.8497 16.6195 14.7056 16.6469C14.5821 16.8597 14.3076 16.8665 14.0949 16.7979C13.7655 16.7087 13.4087 16.7636 13.1205 16.9351C12.798 17.0312 12.5304 17.2714 12.3932 17.5802C12.2971 17.834 12.4824 18.0605 12.6196 18.2526C12.3657 18.2252 12.0981 18.2183 11.8442 18.184C11.9334 17.8135 11.6521 17.5047 11.3913 17.2851C11.1512 17.1136 10.8492 17.3125 10.5816 17.2302C10.4032 17.3263 10.2248 17.4566 10.0052 17.4017C9.95034 17.4292 9.89545 17.4566 9.84055 17.4841C9.60725 17.4017 9.36709 17.3057 9.13378 17.2233C8.97596 17.1684 8.90047 17.0038 8.76324 16.9351C8.61228 16.894 8.44073 16.9283 8.31035 16.8254C8.17312 16.8116 8.00845 16.8185 7.93983 16.6813C7.80945 16.4891 7.58985 16.4136 7.40458 16.2901C7.37027 16.0911 7.28794 15.9127 7.26049 15.7137C7.23304 15.6108 7.22618 15.4736 7.1507 15.3844C7.05463 15.302 6.93799 15.2608 6.83506 15.1854C6.78016 15.055 6.73899 14.9178 6.64293 14.8148C6.75272 14.6639 6.6498 14.5129 6.60863 14.3619C6.60863 14.1767 6.65665 13.9845 6.59489 13.8061C6.49196 13.6346 6.35474 13.4836 6.3067 13.2915C6.28612 13.1337 6.35474 12.9827 6.4165 12.8386C6.53315 13.0856 6.78017 13.2297 6.9723 13.4219C7.17816 13.5042 7.4389 13.4974 7.62417 13.3738C7.80258 13.2572 7.98786 13.1337 8.15254 12.9964C8.29664 12.818 8.30349 12.571 8.44073 12.3857C8.49562 12.3103 8.56426 12.2416 8.62601 12.173C8.9348 12.125 9.19554 11.9054 9.51804 11.9329C9.99151 11.974 10.4101 12.2348 10.8355 12.4269C10.9727 12.5024 11.11 12.4201 11.2335 12.3514C11.4599 12.2142 11.6727 12.0015 11.7276 11.727C11.803 11.3702 11.803 11.0065 11.803 10.6428C11.8099 10.3821 11.7276 10.1351 11.7207 9.88116C12.1187 10.0527 12.5304 10.1899 12.9627 10.286C13.1136 10.2997 13.2577 10.2448 13.4156 10.238C13.5322 10.238 13.6351 10.2997 13.7518 10.3135C13.8479 10.2929 13.9371 10.2586 14.0331 10.238C14.1566 10.2586 14.2527 10.3683 14.3762 10.4095C14.6027 10.4164 14.8291 10.3546 15.0418 10.4164C15.3026 10.4919 15.5702 10.4507 15.8378 10.5056C16.3319 10.4576 16.8534 10.4713 17.32 10.2654C17.5327 10.1968 17.7728 10.286 17.9787 10.1831C18.212 10.0733 18.3835 9.86745 18.6031 9.73707C18.7404 9.63414 18.9051 9.73705 19.0629 9.71647C19.6736 9.68902 20.2362 9.4077 20.7646 9.13323C21.0048 9.00971 21.2244 8.83815 21.492 8.75581C21.8145 8.68719 21.9654 8.35783 22.1644 8.13825C22.5487 8.20687 22.8575 7.9667 23.2006 7.83633C23.4133 7.74712 23.5093 7.52068 23.6878 7.38344C23.825 7.33541 23.9691 7.32855 24.1132 7.3011C24.1269 7.24621 24.1544 7.19131 24.1818 7.14327Z" fill="#ED8000"/>
<path d="M9.94369 18.7329C10.2731 19.0005 10.4377 19.4259 10.4926 19.8376C10.5269 20.0297 10.4926 20.2288 10.4172 20.414C10.1496 20.2356 9.99173 19.9405 9.92998 19.6318C9.86822 19.3367 9.84763 19.0279 9.94369 18.7329Z" fill="#006651"/>
<path d="M19.5503 19.5632C19.6395 19.2544 19.7836 18.9456 20.0375 18.7397C20.161 19.1377 20.1061 19.57 19.9483 19.9474C19.8728 20.1464 19.7287 20.3042 19.5571 20.4209C19.4405 20.1396 19.4679 19.8376 19.5503 19.5632Z" fill="#006651"/>
<path d="M8.46155 19.0211C8.85954 19.0691 9.22321 19.2956 9.51141 19.57C9.70354 19.7484 9.84079 19.9886 9.84765 20.2493C9.21636 20.119 8.55075 19.7141 8.46155 19.0211Z" fill="#006651"/>
<path d="M20.5727 19.4877C20.8471 19.2544 21.1697 19.0691 21.5333 19.0279C21.4373 19.7141 20.7648 20.119 20.1404 20.2562C20.1472 19.9406 20.3394 19.6798 20.5727 19.4877Z" fill="#006651"/>
<path d="M10.671 19.8856C10.6573 19.7209 10.7259 19.57 10.8014 19.4259C11.1925 19.8239 11.467 20.4689 11.1582 20.9904C10.8906 20.6885 10.6916 20.3042 10.671 19.8856Z" fill="#006651"/>
<path d="M18.8297 20.9904C18.521 20.4689 18.7954 19.8239 19.1866 19.4259C19.2826 19.5837 19.3375 19.7553 19.3169 19.9405C19.2826 20.3385 19.0905 20.7022 18.8297 20.9904Z" fill="#006651"/>
<path d="M11.5836 19.9748C11.913 20.2493 12.16 20.6473 12.1943 21.0796C12.2149 21.2512 12.1532 21.4227 12.0777 21.5737C11.6042 21.2031 11.4464 20.5375 11.5836 19.9748Z" fill="#006651"/>
<path d="M17.7868 21.0796C17.8279 20.6542 18.0681 20.2493 18.4044 19.9817C18.5485 20.5444 18.3838 21.2169 17.9103 21.5805C17.8348 21.4227 17.773 21.2512 17.7868 21.0796Z" fill="#006651"/>
<path d="M8.64679 20.5238C9.25063 20.3934 9.95053 20.4826 10.4171 20.9149C10.1838 21.107 9.86819 21.1619 9.57999 21.0933C9.22317 21.0041 8.86637 20.8257 8.64679 20.5238Z" fill="#006651"/>
<path d="M12.3797 20.4003C12.6748 20.6747 12.9492 20.9972 13.059 21.3952C13.1139 21.5942 13.0796 21.8001 12.9904 21.9853C12.6267 21.7177 12.4346 21.2923 12.3523 20.86C12.3248 20.7022 12.3454 20.5512 12.3797 20.4003Z" fill="#006651"/>
<path d="M16.9565 21.2992C17.0869 20.9423 17.3339 20.6473 17.6084 20.3934C17.7045 20.7502 17.5878 21.1139 17.4368 21.4295C17.3339 21.6423 17.1761 21.8344 16.9908 21.9785C16.8879 21.7726 16.8742 21.5256 16.9565 21.2992Z" fill="#006651"/>
<path d="M19.5709 20.9149C20.0375 20.4895 20.7374 20.4003 21.3413 20.5238C21.1217 20.8326 20.758 21.0041 20.4012 21.0865C20.1199 21.1551 19.8042 21.1071 19.5709 20.9149Z" fill="#006651"/>
<path d="M13.2374 20.7091C13.8275 20.9836 14.0883 21.6972 13.9785 22.3148C13.5256 21.9305 13.1551 21.3335 13.2374 20.7091Z" fill="#006651"/>
<path d="M16.0027 22.3148C15.8929 21.6972 16.1537 20.9836 16.7507 20.7091C16.833 21.3335 16.4625 21.9305 16.0027 22.3148Z" fill="#006651"/>
<path d="M9.53198 21.5119C9.66922 21.3816 9.82705 21.2581 10.0329 21.2375C10.3897 21.1963 10.7397 21.3267 11.0828 21.409C10.87 21.6698 10.5201 21.7178 10.2045 21.7178C9.96429 21.7247 9.72411 21.656 9.53198 21.5119Z" fill="#006651"/>
<path d="M18.9052 21.4159C19.2483 21.3335 19.5983 21.2031 19.9619 21.2443C20.1541 21.258 20.3188 21.3884 20.4491 21.5188C20.1335 21.7658 19.7012 21.7658 19.3238 21.6766C19.166 21.6354 19.0219 21.5462 18.9052 21.4159Z" fill="#006651"/>
<path d="M10.4651 22.3147C10.7945 21.8275 11.5013 21.5668 12.0434 21.855C11.6454 22.2461 11.0278 22.5137 10.4651 22.3147Z" fill="#006651"/>
<path d="M17.9858 21.8344C18.5211 21.5805 19.2004 21.8344 19.5229 22.3147C19.0288 22.5 18.4936 22.301 18.0956 21.9922C18.0476 21.9442 17.9721 21.903 17.9858 21.8344Z" fill="#006651"/>
<path d="M11.371 22.747C11.7553 22.3353 12.3797 22.1501 12.9218 22.3353C12.812 22.5069 12.6885 22.6715 12.4964 22.7608C12.1533 22.946 11.7278 22.8911 11.371 22.747Z" fill="#006651"/>
<path d="M17.0663 22.3353C17.6015 22.1501 18.2259 22.3353 18.6102 22.747C18.2534 22.8843 17.8348 22.9392 17.4848 22.7608C17.3064 22.6715 17.1761 22.5069 17.0663 22.3353Z" fill="#006651"/>
<path d="M13.4501 22.3353C13.9648 22.452 14.4725 22.6167 14.9941 22.6784C15.5156 22.6167 16.0233 22.452 16.538 22.3422C16.14 22.4932 15.7351 22.6373 15.3166 22.7676C15.5704 22.8362 15.8175 22.9598 16.037 23.1039C15.6802 23.0421 15.344 22.9254 14.9872 22.8637C14.6304 22.9186 14.2941 23.0421 13.9442 23.1039C14.1638 22.9529 14.4039 22.8362 14.6578 22.7676C14.2598 22.6304 13.8481 22.4931 13.4501 22.3353Z" fill="#006651"/>
<path d="M12.2561 23.3235C12.5855 22.85 13.155 22.5481 13.7314 22.5892C13.601 22.8363 13.4432 23.0902 13.1756 23.2137C12.8943 23.3578 12.5649 23.3509 12.2561 23.3235Z" fill="#006651"/>
<path d="M16.2566 22.5961C16.833 22.5549 17.4094 22.8568 17.7319 23.3303C17.3957 23.3509 17.0251 23.3646 16.7301 23.1793C16.5036 23.0421 16.3732 22.8157 16.2566 22.5961Z" fill="#006651"/>
</svg>
