<svg width="30" height="30" viewBox="0 0 30 30" fill="none" xmlns="http://www.w3.org/2000/svg">
<path d="M15 29.9999C21.0522 29.9999 26.2672 26.4112 28.6345 21.2511H1.36554C3.73288 26.4112 8.94788 29.9999 15 29.9999Z" fill="#FFD900"/>
<path d="M15 0.000152588C8.94788 0.000152588 3.73288 3.5889 1.36554 8.74901H28.6345C26.2603 3.5889 21.0522 0.000152588 15 0.000152588Z" fill="black"/>
<path d="M0 15.0001C0 17.2302 0.494047 19.3437 1.3655 21.2513H28.6345C29.506 19.3506 30 17.2302 30 15.0001C30 12.77 29.5128 10.6566 28.6345 8.74899H1.3655C0.487185 10.6497 0 12.77 0 15.0001Z" fill="#ED1C24"/>
</svg>
