<svg width="30" height="30" viewBox="0 0 30 30" fill="none" xmlns="http://www.w3.org/2000/svg">
<path d="M30 14.9993C30 23.2839 23.2852 29.9986 15.0007 29.9986C6.71476 29.9986 0 23.2839 0 14.9993C0 6.71613 6.71476 0 15.0007 0C23.2839 0 30 6.71476 30 14.9993Z" fill="#4694D6"/>
<path d="M13.9883 12.6994C13.7979 13.9281 11.8103 13.8349 11.3377 14.9705C10.9583 16.0115 11.7172 17.243 12.4747 17.8101C14.5568 19.1347 16.3526 18.095 16.3526 21.4072C16.3526 23.1098 14.839 26.5165 17.0156 27.3672C18.8141 28.0302 21.8428 25.2865 22.6934 24.2454C23.355 23.2989 23.544 22.7304 24.4906 21.9743C25.6261 21.0277 26.0056 20.9332 24.7741 20.0826C23.8276 19.4196 23.166 19.7031 22.7865 18.3785C22.5961 17.7156 23.2591 16.6759 23.0715 15.9184C22.7865 14.1198 20.5154 13.8363 18.9059 13.0774C17.2019 12.3213 16.1622 12.3213 14.3636 12.3213L13.9883 12.6994Z" fill="#86CE4E"/>
<path d="M25.0964 3.9021C24.0594 4.43906 22.4417 4.68015 21.5582 4.97465C19.0967 5.92256 20.4213 5.82667 20.2336 7.90877C20.8952 8.0978 21.4637 7.81425 21.8417 7.24578C22.5047 9.14022 20.1391 8.76078 19.2871 8.76078C18.8131 8.76078 18.4337 8.57175 17.9611 8.76078C17.2036 9.14022 18.1515 10.4648 17.1104 9.51828C16.6365 9.23473 17.0159 8.38272 16.3529 7.91014C16.0694 7.7211 14.5558 7.62522 14.2708 7.81562C13.1353 8.57175 14.6503 9.80183 15.5023 10.4648C16.1639 11.0333 15.8804 11.2223 16.9214 11.4127C17.4871 11.5059 18.057 11.0333 18.6254 11.2223C19.7596 11.5059 20.2336 12.6428 21.4637 13.0209C22.9773 13.4934 23.7348 13.3989 24.3978 14.9139C24.7759 15.8591 24.8717 16.9001 25.4388 17.9412C26.3854 19.3603 27.6154 20.3055 28.5606 18.5083C28.9757 17.5933 28.7373 16.607 29.8948 16.7673C29.9619 16.1865 30.0016 15.5975 30.0016 14.9989C30.0016 10.6018 28.1099 6.64581 25.0964 3.9021Z" fill="#86CE4E"/>
<path d="M6.38991 21.9647C6.10637 21.6812 5.91734 20.4511 5.63379 20.073C5.53927 19.7895 5.06532 19.7895 4.87629 19.5991C4.68588 19.3155 4.9708 18.7471 4.59137 18.558C4.02564 18.18 3.45717 18.369 2.89008 18.18C1.94217 17.8964 2.41613 18.2759 1.66 17.4239C1.09016 16.8554 0.688806 15.7376 0.00390625 15.1705C0.0600681 20.0991 2.49147 24.4537 6.20773 27.1481C6.67484 26.6029 7.24056 26.1125 7.8104 25.6564C8.66242 24.9002 10.0829 24.8043 9.41992 23.3852C8.85145 21.8702 7.14878 22.6291 6.38991 21.9647Z" fill="#86CE4E"/>
<path d="M6.40747 6.65589C5.49108 5.97099 4.7144 5.25458 3.78431 5.04089C1.84878 7.21888 0.53925 9.96396 0.133789 12.9981C0.991284 12.994 0.666642 14.5911 1.86522 14.0391C2.15014 13.9432 2.81038 12.5241 3.0953 12.1447C3.66377 11.5776 7.25949 10.253 5.65135 9.40097C5.84038 9.11605 6.03078 9.02153 6.40885 8.92702C6.59788 9.49548 6.88143 9.87355 7.44989 9.96807C7.82796 8.26403 7.82796 7.60242 6.40747 6.65589Z" fill="#86CE4E"/>
<path d="M5.6473 4.96932C5.8377 4.96932 7.25544 3.64472 7.25544 3.55158C7.25544 3.07489 7.00066 2.74339 6.63218 2.54614C5.8692 3.05845 5.15828 3.64198 4.50488 4.28442C4.86514 4.60358 5.11855 4.96932 5.6473 4.96932Z" fill="#86CE4E"/>
<path d="M14.686 0.00708008C12.7093 0.0481741 10.8259 0.467332 9.10812 1.20155C9.241 1.2851 9.37387 1.36729 9.50674 1.43441C8.86704 2.50012 8.51226 2.71107 9.22182 3.99046C9.72043 5.0548 10.4985 4.91097 11.4217 5.76298C12.1326 4.9822 11.5628 4.69865 11.7751 3.99046C11.919 3.27953 12.5573 2.92475 13.1956 2.64121C14.1887 2.21657 15.964 2.71244 15.7503 1.22346C15.6845 0.705678 15.2763 0.298848 14.686 0.00708008Z" fill="#86CE4E"/>
<path d="M13.7818 3.38346C14.5625 3.241 14.6338 4.02179 15.4146 3.80947C15.9118 5.08749 12.7887 4.80394 13.7818 3.45332V3.38346Z" fill="#86CE4E"/>
<g opacity="0.13">
<path d="M17.7336 0.252075C22.3854 2.7999 25.5401 7.73941 25.5401 13.4159C25.5401 21.7004 18.8253 28.4152 10.5408 28.4152C9.60519 28.4152 8.6929 28.3248 7.80664 28.1618C9.94079 29.3329 12.3927 29.9987 15.0008 29.9987C23.284 29.9987 30.0001 23.2839 30.0001 14.9993C30.0001 7.649 24.7127 1.53832 17.7336 0.252075Z" fill="black"/>
</g>
</svg>
