<svg width="30" height="30" viewBox="0 0 30 30" fill="none" xmlns="http://www.w3.org/2000/svg">
<path d="M30 15.0001C30 6.71787 23.2823 0.00012207 15 0.00012207C9.79186 0.00012207 5.20814 2.65565 2.5183 6.67669L15 15.0001H30Z" fill="#6AB2E7"/>
<path d="M30 15.0001H15L2.5183 23.3236C5.20814 27.3515 9.79186 30.0002 15 30.0002C23.2823 30.0002 30 23.2824 30 15.0001Z" fill="#12AD2B"/>
<path d="M2.51829 6.67671C0.926338 9.05777 0 11.9192 0 15.0001C0 18.0811 0.926338 20.9425 2.51829 23.3236L15 15.0001L2.51829 6.67671Z" fill="#F1F4FB"/>
<path d="M5.49628 12.7151L6.06583 14.458H7.89793L6.41579 15.5353L6.97847 17.2851L5.49628 16.2009L4.01414 17.2851L4.58369 15.5353L3.09464 14.458H4.93365L5.49628 12.7151Z" fill="#FF0000"/>
</svg>
