<svg width="30" height="30" viewBox="0 0 30 30" fill="none" xmlns="http://www.w3.org/2000/svg">
<path d="M0.164551 17.2508C1.02209 22.9667 5.10395 27.6191 10.4961 29.314V17.2508H0.164551Z" fill="#D00C33"/>
<path d="M10.4961 0.68634C5.10395 2.38122 1.02895 7.0404 0.164551 12.7495H10.4961V0.68634Z" fill="#D00C33"/>
<path d="M14.9966 30.0001H15.024C22.5292 29.9864 28.7377 24.4558 29.8217 17.2508H14.9897V30.0001H14.9966Z" fill="#D00C33"/>
<path d="M14.9965 12.7494H29.8285C28.7445 5.53764 22.5291 0.00699918 15.0171 0.000137329H14.9965V12.7494Z" fill="#D00C33"/>
<path d="M14.9966 17.2508H29.8285C29.9383 16.5166 30 15.7687 30 15.0001C30 14.2385 29.9451 13.4837 29.8285 12.7494H14.9966V0.000137329C13.4324 0.000137329 11.9163 0.240302 10.4962 0.686322V12.7494H0.16464C0.0548756 13.4837 0 14.2385 0 15.0001C0 15.7618 0.0617358 16.5166 0.16464 17.2508H10.4962V29.314C11.9163 29.76 13.4256 30.0001 14.9966 30.0001V17.2508Z" fill="#F1F4FB"/>
</svg>
