<svg width="30" height="30" viewBox="0 0 30 30" fill="none" xmlns="http://www.w3.org/2000/svg">
<path d="M11.0038 0.555923C5.94094 1.95574 1.962 5.93561 0.5625 10.9997H11.0038V0.555923Z" fill="#009543"/>
<path d="M19.0029 29.4443C24.0658 28.0445 28.0448 24.0646 29.4443 19.0006H19.0029V29.4443Z" fill="#009543"/>
<path d="M0.5625 19.0006C1.962 24.0646 5.94094 28.0445 11.0038 29.4443V19.0006H0.5625Z" fill="#009543"/>
<path d="M29.4443 10.9997C28.0448 5.93561 24.0658 1.95574 19.0029 0.555923V10.9997H29.4443Z" fill="#009543"/>
<path d="M11.0039 19.0006V29.4443C11.8614 29.6845 12.7533 29.8492 13.6726 29.9315V19.0006H11.0039Z" fill="#FFCE00"/>
<path d="M13.6724 19.0006V29.9315C14.1114 29.9727 14.5573 30.0001 15.0033 30.0001C15.456 30.0001 15.8951 29.9727 16.3342 29.9315V19.0006H13.6724Z" fill="black"/>
<path d="M16.3344 10.9997V0.0687391C15.8953 0.027568 15.4494 0.000137329 15.0035 0.000137329C14.5507 0.000137329 14.1116 0.027568 13.6726 0.0687391V10.9997H16.3344Z" fill="black"/>
<path d="M16.3345 10.9997H19.0031V0.555962C18.1456 0.315798 17.2538 0.151098 16.3345 0.0687561V10.9997Z" fill="white"/>
<path d="M29.4446 10.9997H13.6728V0.0687561C12.7604 0.151098 11.8685 0.32266 11.0041 0.555962V10.9997H0.562779C0.322669 11.8643 0.158007 12.7495 0.0756836 13.6689H29.9385C29.8561 12.7495 29.6847 11.8643 29.4446 10.9997Z" fill="#FFCE00"/>
<path d="M29.9314 13.6689H0.0685861C0.0274244 14.1081 0 14.5541 0 15.0001C0 15.453 0.0274244 15.8922 0.0685861 16.3313H29.9314C29.9726 15.8922 30 15.4462 30 15.0001C30 14.5472 29.9726 14.1081 29.9314 13.6689Z" fill="black"/>
<path d="M0.0756836 16.3382C0.158007 17.2577 0.329529 18.1429 0.562779 19.0074H16.3346V29.9384C17.2538 29.856 18.1388 29.6845 19.0032 29.4512V19.0074H29.4445C29.6847 18.1429 29.8562 17.2577 29.9316 16.3382H0.0756836Z" fill="white"/>
<path d="M23.3252 15.0002C23.3252 19.5976 19.6 23.3236 15.0037 23.3236C10.4073 23.3236 6.68213 19.5976 6.68213 15.0002C6.68213 10.4027 10.4073 6.67673 15.0037 6.67673C19.6 6.67673 23.3252 10.4027 23.3252 15.0002Z" fill="#EA0437"/>
<path d="M15.0031 7.67189L15.257 8.45413H16.0733L15.4079 8.93447L15.6686 9.71671L15.0031 9.22952L14.3377 9.71671L14.5915 8.93447L13.9329 8.45413H14.7493L15.0031 7.67189Z" fill="#009543"/>
<path d="M15.0034 9.26372L14.2899 9.78521L14.5643 8.94122L13.8509 8.42658H14.7359L14.9828 7.67177L15.0103 7.58943L15.2847 8.42658H16.1697L15.4562 8.94122L15.7306 9.78521L15.0034 9.26372ZM15.614 9.64112L15.3807 8.92748L15.9913 8.48146H15.2366L15.0103 7.76783L14.777 8.48146H14.0224L14.6329 8.92748L14.4066 9.64112L15.0171 9.20195L15.614 9.64112Z" fill="black"/>
<path d="M10.7021 9.07855L11.3607 9.55889L12.0262 9.07855L11.7723 9.85394L12.4309 10.3343H11.6146L11.3607 11.1097L11.1069 10.3343H10.2905L10.956 9.85394L10.7021 9.07855Z" fill="#009543"/>
<path d="M11.0861 10.3617H10.2012L10.9146 9.8402L10.6677 9.08539L10.6402 9.00305L11.3537 9.52454L12.074 9.00305L11.7996 9.8402L12.5131 10.3617H11.6281L11.3537 11.2057L11.0861 10.3617ZM10.9833 9.86763L10.3727 10.3068H11.1204L11.3537 11.0273L11.5869 10.3068H12.3416L11.731 9.86763L11.9643 9.14714L11.3537 9.59316L10.75 9.14714L10.9833 9.86763Z" fill="black"/>
<path d="M8.04004 12.7358H8.85641L9.11024 11.9604L9.36407 12.7358H10.1804L9.52188 13.2161L9.77571 13.9984L9.11024 13.518L8.44481 13.9984L8.69864 13.2161L8.04004 12.7358Z" fill="#009543"/>
<path d="M9.11053 13.5525L8.39708 14.074L8.67146 13.23L8.02664 12.7565L7.95801 12.7085H8.84297L9.1174 11.8713L9.39183 12.7085H10.2768L9.56333 13.23L9.83772 14.074L9.11053 13.5525ZM9.72111 13.923L9.48784 13.2025L10.0984 12.7633H9.3438L9.11053 12.0429L8.8773 12.7633H8.12265L8.73322 13.2025L8.49996 13.923L9.11053 13.477L9.72111 13.923Z" fill="black"/>
<path d="M8.04004 17.2648L8.69864 16.7845L8.44481 16.0091L9.11024 16.4894L9.77571 16.0091L9.52188 16.7845L10.1804 17.2648H9.36407L9.11024 18.0402L8.85641 17.2648H8.04004Z" fill="#009543"/>
<path d="M8.83614 17.2921H8.04033H7.95801L8.67146 16.7775L8.39708 15.9335L9.11053 16.455L9.82403 15.9335L9.5496 16.7775L10.2631 17.299H9.37809L9.10366 18.1362L8.83614 17.2921ZM8.8773 17.2373L9.11053 17.9577L9.3438 17.2373H10.0984L9.48784 16.7981L9.72111 16.0776L9.11053 16.5236L8.49996 16.0776L8.73322 16.7981L8.12265 17.2373H8.8773Z" fill="black"/>
<path d="M10.7021 20.9289L10.956 20.1467L10.2905 19.6663H11.1069L11.3607 18.891L11.6146 19.6663H12.4309L11.7723 20.1467L12.0262 20.9289L11.3607 20.4486L10.7021 20.9289Z" fill="#009543"/>
<path d="M11.3606 20.4761L10.7157 20.9496L10.6471 20.9976L10.9146 20.1604L10.2012 19.639H11.0861L11.3606 18.7949L11.6349 19.639H12.52L11.8065 20.1604L12.0809 20.9976L11.3606 20.4761ZM10.9833 20.133L10.75 20.8535L11.3537 20.4075L11.9643 20.8535L11.731 20.133L12.3416 19.6938H11.5869L11.3537 18.9802L11.1204 19.6938H10.3727L10.9833 20.133Z" fill="black"/>
<path d="M15.0033 22.3287L14.7495 21.5464H13.9331L14.5917 21.073L14.3378 20.2838L15.0033 20.771L15.6687 20.2838L15.408 21.073L16.0735 21.5464H15.2571L15.0033 22.3287Z" fill="#009543"/>
<path d="M14.7292 21.574H13.8442L14.5577 21.0525L14.2901 20.2085L15.0036 20.73L15.7171 20.2085L15.4427 21.0525L16.1562 21.574H15.2712L15.0242 22.3288L14.9968 22.4111L14.7292 21.574ZM14.6263 21.073L14.0157 21.5191H14.7704L15.0036 22.2327L15.23 21.5191H15.9846L15.3741 21.073L15.6073 20.3594L14.9968 20.7986L14.3862 20.3594L14.6263 21.073Z" fill="black"/>
<path d="M19.3049 20.9289L18.6464 20.4486L17.9809 20.9289L18.2347 20.1467L17.5762 19.6663H18.3925L18.6464 18.891L18.9002 19.6663H19.7166L19.0511 20.1467L19.3049 20.9289Z" fill="#009543"/>
<path d="M18.6462 20.4761L17.9259 20.9976L18.2003 20.1604L17.4868 19.639H18.3718L18.6462 18.7949L18.9275 19.639H19.8125L19.0921 20.1604L19.3391 20.9152L19.3665 20.9976L18.6462 20.4761ZM18.2689 20.133L18.0356 20.8535L18.6393 20.4075L19.2499 20.8466L19.0235 20.133L19.6341 19.6938H18.8794L18.6462 18.9802L18.4198 19.6938H17.6652L18.2689 20.133Z" fill="black"/>
<path d="M21.9666 17.2648H21.1502L20.8964 18.0402L20.6494 17.2648H19.8262L20.4848 16.7845L20.2309 16.0091L20.8964 16.4895L21.555 16.0091L21.308 16.7845L21.9666 17.2648Z" fill="#009543"/>
<path d="M20.6218 17.2922H19.7368L20.4503 16.7707L20.1759 15.9267L20.8894 16.4482L21.6028 15.9267L21.3284 16.7707L21.9733 17.2373L22.0419 17.2853H21.1569L20.8825 18.1293L20.6218 17.2922ZM20.5258 16.7981L19.9152 17.2373H20.6698L20.9031 17.9578L21.1363 17.2373H21.891L21.2804 16.7981L21.5136 16.0776L20.9031 16.5237L20.2925 16.0776L20.5258 16.7981Z" fill="black"/>
<path d="M21.9666 12.7358L21.308 13.2161L21.555 13.9984L20.8964 13.518L20.2309 13.9984L20.4848 13.2161L19.8262 12.7358H20.6494L20.8964 11.9604L21.1502 12.7358H21.9666Z" fill="#009543"/>
<path d="M20.8962 13.5525L20.1827 14.074L20.4571 13.23L19.7437 12.7085H20.6287L20.903 11.8713L21.1775 12.7085H21.9801H22.0624L21.349 13.23L21.6234 14.074L20.8962 13.5525ZM21.5067 13.923L21.2735 13.2025L21.8841 12.7633H21.1294L20.8962 12.0429L20.6629 12.7633H19.9083L20.5189 13.2025L20.2856 13.923L20.8962 13.477L21.5067 13.923Z" fill="black"/>
<path d="M19.3049 9.07855L19.0511 9.85394L19.7166 10.3343H18.9002L18.6464 11.1097L18.3925 10.3343H17.5762L18.2347 9.85394L17.9809 9.07855L18.6464 9.55889L19.3049 9.07855Z" fill="#009543"/>
<path d="M18.3718 10.3617H17.4868L18.2003 9.8402L17.9259 9.00305L18.6462 9.52454L19.2911 9.05794L19.3597 9.00305L19.0853 9.8402L19.8056 10.3617H18.9206L18.6462 11.2057L18.3718 10.3617ZM18.2689 9.86763L17.6583 10.3068H18.4129L18.6462 11.0273L18.8794 10.3068H19.6341L19.0235 9.86763L19.2499 9.14714L18.6462 9.59316L18.0356 9.14714L18.2689 9.86763Z" fill="black"/>
<path d="M14.6125 10.4165H14.6948C14.9006 10.4234 15.1064 10.4783 15.2848 10.5881C15.4357 10.691 15.5729 10.8145 15.717 10.938C15.8336 11.0409 15.9434 11.1438 16.06 11.2399C16.1972 11.3497 16.3344 11.4526 16.4991 11.5144C16.5197 11.5144 16.5403 11.5281 16.554 11.535C16.4785 11.5419 16.3962 11.5624 16.3139 11.5693C16.2521 11.5762 16.1904 11.5693 16.1218 11.5693C16.2247 11.631 16.3276 11.6928 16.4373 11.7271C16.4785 11.734 16.5196 11.734 16.5608 11.734C16.5265 11.7751 16.4922 11.8163 16.4579 11.8506C16.4236 11.8918 16.3756 11.9261 16.3276 11.9604C16.4373 12.0359 16.5471 12.1114 16.6775 12.1526C16.7186 12.1663 16.7735 12.1663 16.8215 12.1663C16.7529 12.2623 16.6637 12.3515 16.5608 12.4133C16.65 12.4682 16.7392 12.5162 16.8352 12.5437C16.8695 12.5505 16.9039 12.5505 16.945 12.5574C16.8696 12.6603 16.7735 12.7564 16.6569 12.8182C16.7392 12.8662 16.8215 12.9142 16.9176 12.9417C16.9587 12.9485 17.0067 12.9485 17.0479 12.9485C16.9793 13.0377 16.9039 13.1269 16.8078 13.1818C16.698 13.2504 16.5677 13.2779 16.4373 13.271C16.3481 13.2642 16.259 13.2367 16.1766 13.2024C16.4922 13.6278 16.7461 14.1013 16.945 14.5885C17.1097 15.0002 17.24 15.4256 17.3086 15.8717C17.336 16.0569 17.3497 16.2422 17.336 16.4343C17.3292 16.5167 17.3154 16.599 17.2949 16.6745C17.288 16.6951 17.2949 16.7088 17.3017 16.7294C17.3429 16.8872 17.3635 17.0588 17.3566 17.2234C17.3566 17.2578 17.3498 17.2921 17.3566 17.3332C17.3841 17.4499 17.4047 17.5665 17.4047 17.6832V17.7724C17.3978 17.9371 17.3772 18.1018 17.3566 18.2596C17.2812 18.1018 17.2126 17.9371 17.1371 17.7793C17.1371 17.889 17.1302 17.992 17.1234 18.1018C17.1851 18.1429 17.2263 18.2047 17.24 18.2733C17.2606 18.3762 17.2332 18.4792 17.1577 18.5478C17.1303 18.5752 17.0959 18.5958 17.0616 18.6096C17.0342 18.7537 17.0068 18.8909 16.945 19.0281C16.9176 19.0899 16.8833 19.1516 16.8284 19.1928C16.8009 19.2134 16.7666 19.2203 16.7392 19.2271C16.7186 19.3163 16.698 19.4055 16.6637 19.481C16.6432 19.5222 16.6157 19.5633 16.5745 19.5908C16.5471 19.6114 16.4991 19.6045 16.4717 19.5839C16.4374 19.5565 16.4031 19.5222 16.3825 19.481C16.3345 19.4055 16.307 19.3163 16.2796 19.234C16.2247 19.2408 16.1698 19.2134 16.1423 19.1722C16.0875 19.1173 16.0532 19.0487 16.0189 18.9801C15.9503 18.9938 15.8748 18.9801 15.8062 18.9595C15.7239 19.0007 15.6278 18.9801 15.5386 18.9595C15.4838 19.0007 15.4152 19.0007 15.3534 18.9938C15.326 18.9938 15.2986 18.9801 15.2642 18.9732C15.2437 18.9664 15.2299 18.9801 15.2094 18.9869C15.1408 19.0007 15.0653 18.9938 15.0036 18.9732C14.8526 18.9321 14.7086 18.836 14.6125 18.7056C14.5096 18.7056 14.4067 18.7056 14.2969 18.7056C14.2489 18.7056 14.194 18.6987 14.146 18.7056C13.9677 18.7056 13.7893 18.6988 13.604 18.6988C13.4188 18.6919 13.2405 18.685 13.0621 18.6644C13.0278 18.6576 12.9935 18.6576 12.966 18.637C12.9249 18.6027 12.8975 18.5684 12.8632 18.5272C12.7945 18.4311 12.7328 18.3213 12.6779 18.2184C12.6642 18.1773 12.6436 18.1429 12.6299 18.1018V18.0675C12.7122 18.0675 12.7945 18.0675 12.8768 18.0537C12.9043 18.0469 12.9454 18.04 12.9592 18.0057C12.9729 17.9714 12.9798 17.9371 12.9866 17.9028C13.0141 17.8273 13.0484 17.7587 13.0964 17.6969C13.1513 17.6283 13.2336 17.5871 13.3228 17.5871C13.4874 17.5871 13.6315 17.6901 13.7207 17.8273C13.7481 17.8822 13.7687 17.9439 13.7755 18.0057C13.7824 18.0332 13.7824 18.0675 13.7961 18.088C13.8099 18.1086 13.8305 18.1018 13.851 18.1018C14.1117 18.0949 14.3656 18.0812 14.6262 18.0743C14.6949 17.9851 14.784 17.9096 14.8801 17.8547C14.8046 17.7381 14.7703 17.6009 14.7497 17.4636C14.688 17.4568 14.6331 17.4087 14.5988 17.3538C14.5439 17.2715 14.5096 17.1686 14.489 17.0656C14.4616 16.9421 14.4547 16.8117 14.4822 16.6814C14.4822 16.6677 14.4753 16.6539 14.4684 16.6471C14.4547 16.599 14.441 16.5578 14.4204 16.5167C14.4135 16.503 14.4136 16.4961 14.3998 16.4824C14.0911 16.1461 13.8441 15.755 13.6932 15.3159C13.5835 15.0071 13.5286 14.6777 13.5217 14.3483C13.508 14.1288 13.5217 13.9092 13.5354 13.6896C13.5835 13.2436 13.6795 12.7907 13.8853 12.3927C13.899 12.3653 13.9196 12.3378 13.9196 12.3104C13.9196 12.2349 13.9539 12.1663 14.0088 12.1182C14.0157 12.0702 14.0294 12.0222 14.05 11.9879C14.0705 11.9604 14.0911 11.9398 14.1186 11.9124C14.1186 11.8643 14.1323 11.8163 14.1597 11.7751C14.1529 11.7751 14.1391 11.7614 14.1323 11.7614C14.05 11.8232 13.9539 11.8575 13.8579 11.8643C13.7824 11.8712 13.7001 11.8644 13.6384 11.8163C13.5835 11.9124 13.5492 12.0222 13.5217 12.1251C13.4462 11.9536 13.3777 11.782 13.3639 11.5967C13.3571 11.487 13.364 11.3703 13.4257 11.2742C13.4806 11.1919 13.5697 11.137 13.6589 11.1096C13.7069 11.0958 13.755 11.0821 13.803 11.0752C13.8304 10.9037 13.9128 10.739 14.05 10.6361C14.2009 10.4783 14.4067 10.4234 14.6125 10.4165Z" fill="#000100"/>
<path d="M14.2212 10.5469C14.4132 10.4715 14.6259 10.4509 14.8317 10.4783C14.9758 10.4989 15.1267 10.5469 15.2502 10.6293C15.3874 10.7185 15.5109 10.8351 15.6344 10.9449C15.8265 11.1165 16.0254 11.2949 16.2381 11.4458C16.2724 11.4664 16.3135 11.487 16.3547 11.5076C16.2175 11.5213 16.0734 11.5145 15.9431 11.4664C15.8951 11.4527 15.847 11.4321 15.8059 11.4115C15.6755 11.5007 15.5452 11.5968 15.3943 11.6586C15.2982 11.6997 15.1953 11.7203 15.0924 11.7409C14.9415 11.7683 14.7837 11.7889 14.6259 11.7821C14.4681 11.7752 14.3035 11.7546 14.1594 11.686C14.1525 11.686 14.1457 11.6791 14.1526 11.6723C14.1937 11.6242 14.228 11.5693 14.2212 11.5007C14.2143 11.4252 14.1525 11.3704 14.0908 11.3566C14.1045 11.3155 14.1183 11.2606 14.1045 11.2194C14.0977 11.1576 14.0702 11.0959 14.0154 11.0616C13.9605 11.0204 13.885 11.0204 13.8232 11.0341C13.8438 10.9175 13.8987 10.794 13.9811 10.7116C14.0565 10.6293 14.1388 10.5881 14.2212 10.5469Z" fill="#96239A"/>
<path d="M14.5574 10.8694C14.6329 10.8626 14.7221 10.8763 14.7975 10.9174C14.8318 10.9449 14.8661 10.9861 14.8661 11.0341C14.8593 11.0821 14.825 11.1233 14.7907 11.1439C14.7289 11.1782 14.6466 11.1919 14.5711 11.1851C14.5094 11.1782 14.4476 11.1576 14.3996 11.1233C14.3722 11.0959 14.3447 11.0616 14.3447 11.0204C14.3447 10.9792 14.3653 10.9449 14.3996 10.9243C14.4408 10.89 14.5025 10.8763 14.5574 10.8694Z" fill="#000100"/>
<path d="M14.537 10.9243C14.6125 10.9106 14.688 10.9175 14.7497 10.9518C14.7703 10.9655 14.7977 10.9861 14.8045 11.0135C14.8183 11.041 14.7977 11.0684 14.7703 11.0821C14.7222 11.1165 14.6605 11.1233 14.6056 11.1302C14.5439 11.1233 14.4821 11.1165 14.4272 11.0821C14.4067 11.0616 14.3861 11.041 14.3929 11.0135C14.3929 10.9929 14.4067 10.9724 14.4272 10.9586C14.4615 10.9449 14.5027 10.938 14.537 10.9243Z" fill="#EA0337"/>
<path d="M14.5644 10.9518C14.6124 10.938 14.6741 10.9723 14.6741 11.0272C14.6741 11.0821 14.6055 11.1096 14.5575 11.089C14.5232 11.0753 14.4957 11.041 14.5095 11.0067C14.5163 10.9792 14.5369 10.9586 14.5644 10.9518Z" fill="#000100"/>
<path d="M13.6657 11.1233C13.7411 11.0959 13.8234 11.0753 13.9058 11.0753C13.9538 11.0753 14.0087 11.0959 14.0293 11.1439C14.0567 11.1919 14.0704 11.2468 14.0567 11.3017C14.0361 11.3704 13.9881 11.4321 13.9264 11.4595C13.8852 11.4801 13.8372 11.487 13.8029 11.5145C13.6451 11.5968 13.5422 11.7615 13.4873 11.9261C13.4393 11.8026 13.3981 11.6723 13.3844 11.5419C13.3776 11.4458 13.3913 11.336 13.453 11.2537C13.501 11.1851 13.5833 11.137 13.6657 11.1233Z" fill="#FECE00"/>
<path d="M13.8233 11.1988C13.8439 11.1919 13.8645 11.1988 13.8782 11.2125C13.9056 11.24 13.8988 11.2949 13.8644 11.3155C13.8301 11.3292 13.789 11.3086 13.7821 11.2743C13.7684 11.24 13.789 11.2057 13.8233 11.1988Z" fill="#000100"/>
<path d="M14.0704 11.3978C14.1116 11.4047 14.1596 11.4321 14.1733 11.4733C14.187 11.5213 14.1733 11.5693 14.139 11.6036C14.0841 11.686 13.9949 11.734 13.9057 11.7546C13.8165 11.7752 13.7205 11.7821 13.645 11.7272C13.7068 11.6311 13.796 11.5625 13.8989 11.5213C13.9675 11.5007 14.0292 11.4596 14.0704 11.3978Z" fill="#FECE00"/>
<path d="M15.8063 11.4801C15.82 11.4733 15.8268 11.4801 15.8405 11.4801C15.8749 11.4939 15.916 11.5144 15.9572 11.5282C15.9709 11.535 15.9915 11.535 16.0052 11.5488C16.0875 11.6036 16.163 11.6586 16.2522 11.7066C16.3139 11.7478 16.3894 11.7683 16.458 11.7821C16.3757 11.8781 16.2728 11.9536 16.1493 11.9811C16.0395 12.0154 15.9092 12.0016 15.7994 11.9605C15.6416 11.9124 15.5044 11.8232 15.3672 11.7272C15.525 11.6723 15.669 11.5762 15.8063 11.4801Z" fill="#96239A"/>
<path d="M15.2368 11.7752C15.2574 11.7683 15.2849 11.7615 15.3054 11.7615C15.3123 11.7615 15.3191 11.7615 15.3191 11.7683C15.4632 11.8781 15.621 11.9811 15.7925 12.0291C15.9503 12.0771 16.1218 12.0771 16.2727 12.0016C16.4099 12.0908 16.5471 12.1869 16.7049 12.2212C16.7049 12.2281 16.7049 12.2349 16.6981 12.2349C16.6295 12.3104 16.554 12.3653 16.4717 12.3996C16.3688 12.4408 16.2521 12.4477 16.1424 12.4339C16.0189 12.4065 15.8954 12.3516 15.7857 12.283C15.6347 12.1869 15.4906 12.0634 15.3603 11.9399C15.3123 11.8919 15.2711 11.8369 15.2368 11.7752Z" fill="#96239A"/>
<path d="M14.1598 11.9536C14.1323 11.8918 14.1461 11.8095 14.1872 11.7546C14.3176 11.8026 14.4616 11.8301 14.6057 11.837C14.6126 11.885 14.6126 11.933 14.592 11.9742C14.5577 12.0497 14.4754 12.1046 14.3862 12.1046C14.2833 12.1046 14.1941 12.0428 14.1598 11.9536Z" fill="#009543"/>
<path d="M14.9967 11.8164C15.0653 11.8026 15.1202 11.7958 15.1819 11.782C15.2025 11.8301 15.2299 11.8781 15.2711 11.9193C15.2642 11.9467 15.2574 11.9673 15.2574 11.9948C15.1819 12.0634 15.0584 12.0771 14.9692 12.0359C15.0104 11.9673 15.0172 11.885 14.9967 11.8164Z" fill="#009543"/>
<path d="M14.6604 11.8438C14.7565 11.8438 14.8525 11.8369 14.9485 11.8232C14.976 11.9193 14.9348 12.0222 14.8525 12.0771C14.777 12.1251 14.6604 12.1251 14.585 12.0702C14.6398 12.0085 14.6673 11.9193 14.6604 11.8438Z" fill="#009543"/>
<path d="M14.0774 11.9536C14.0843 11.9468 14.0912 11.9467 14.098 11.9467C14.1118 12.0154 14.1598 12.084 14.2284 12.1183C14.3107 12.1663 14.4068 12.1663 14.496 12.132C14.4754 12.2006 14.4274 12.2624 14.3656 12.2898C14.2696 12.331 14.1529 12.3036 14.0843 12.2212C14.0226 12.1526 14.0226 12.0291 14.0774 11.9536Z" fill="#009543"/>
<path d="M15.319 11.9605C15.4905 12.1251 15.6689 12.2898 15.8884 12.3928C16.0119 12.4545 16.1422 12.4888 16.2794 12.4888C16.3549 12.4888 16.4235 12.4751 16.4852 12.4476C16.4989 12.4408 16.5195 12.4545 16.5333 12.4614C16.6224 12.5231 16.7253 12.578 16.8282 12.5917C16.7459 12.6878 16.6362 12.7702 16.5058 12.7976C16.3823 12.8319 16.2451 12.8045 16.1285 12.7633C15.9364 12.6878 15.7649 12.5712 15.614 12.4339C15.566 12.3928 15.5179 12.3447 15.4699 12.3036C15.4013 12.2555 15.3533 12.18 15.319 12.0977C15.319 12.0565 15.3121 12.0085 15.319 11.9605Z" fill="#96239A"/>
<path d="M15.2095 12.0839C15.2301 12.0771 15.2506 12.0633 15.2644 12.0565C15.2849 12.1388 15.3261 12.2143 15.3741 12.2761C15.3535 12.3241 15.3467 12.3721 15.3536 12.4202C15.3055 12.4339 15.2575 12.4339 15.2095 12.4202C15.2438 12.3653 15.2712 12.3104 15.2644 12.2418C15.2712 12.1937 15.2438 12.132 15.2095 12.0839Z" fill="#009543"/>
<path d="M14.839 12.1457C14.8733 12.1251 14.9076 12.1046 14.935 12.0771C15.0036 12.1114 15.0791 12.1183 15.1477 12.1114C15.1957 12.1595 15.2231 12.2349 15.2026 12.3104C15.182 12.3996 15.0997 12.4682 15.0105 12.482C14.9419 12.4957 14.8664 12.4682 14.8115 12.4271C14.8184 12.3996 14.839 12.3722 14.8458 12.3516C14.8801 12.283 14.8733 12.2075 14.839 12.1457Z" fill="#009543"/>
<path d="M14.5508 12.1114C14.6194 12.1595 14.7086 12.1801 14.7841 12.1595C14.8115 12.2006 14.8184 12.2487 14.8115 12.2967C14.7978 12.3653 14.7566 12.4202 14.6949 12.4545C14.6057 12.5094 14.4891 12.5026 14.3999 12.4477C14.4273 12.4065 14.4479 12.3653 14.4548 12.3036C14.4548 12.2898 14.4685 12.2761 14.4822 12.2624C14.5234 12.2281 14.5439 12.1663 14.5508 12.1114Z" fill="#009543"/>
<path d="M13.9881 12.4133C13.9264 12.3379 13.9264 12.2281 13.9813 12.1457C14.0019 12.2212 14.0567 12.2898 14.1253 12.3241C14.2076 12.3722 14.3174 12.3722 14.3997 12.3241C14.3792 12.3996 14.3243 12.4614 14.2488 12.4888C14.1596 12.53 14.0498 12.4957 13.9881 12.4133Z" fill="#009543"/>
<path d="M15.408 12.331C15.4217 12.331 15.4354 12.3447 15.4423 12.3516C15.6138 12.5163 15.799 12.6741 16.0117 12.7701C16.1626 12.8456 16.3341 12.8868 16.4988 12.8525C16.5262 12.8456 16.5605 12.8388 16.588 12.8319C16.6909 12.8937 16.8006 12.9623 16.9241 12.9829C16.8555 13.0652 16.7663 13.1338 16.6634 13.1681C16.5605 13.2093 16.4439 13.2093 16.3341 13.1819C16.1969 13.1544 16.0734 13.0927 15.9568 13.0103C15.8196 12.9211 15.6961 12.8113 15.5726 12.6947C15.4972 12.6398 15.4423 12.5574 15.4148 12.4682C15.4011 12.4339 15.408 12.379 15.408 12.331Z" fill="#96239A"/>
<path d="M13.7482 12.7701C13.7963 12.6398 13.8443 12.5025 13.9129 12.379C13.9472 12.4613 14.0227 12.53 14.1119 12.5505C14.201 12.5711 14.3039 12.5505 14.3794 12.4888C14.4205 12.5162 14.4686 12.5368 14.5235 12.5437C14.5578 12.5437 14.5921 12.5437 14.6264 12.5368C14.6127 12.6192 14.6401 12.7015 14.695 12.7633C14.7361 12.8113 14.791 12.8319 14.8459 12.8525C14.791 13.1132 14.8116 13.3877 14.8459 13.6553C14.839 13.9572 14.8939 14.2592 14.9762 14.5542C15.086 14.9385 15.2369 15.3159 15.4153 15.6727C15.3261 15.7276 15.2781 15.8236 15.2507 15.9197C15.1889 16.1187 15.1683 16.3383 15.2164 16.5373C15.2164 16.5579 15.2095 16.5716 15.2026 16.5853C15.1615 16.7363 15.1478 16.8941 15.1683 17.0451C14.8185 16.8186 14.5097 16.5373 14.249 16.2148C13.9472 15.8305 13.7208 15.3776 13.6179 14.8973C13.5767 14.7189 13.563 14.5405 13.5493 14.3621C13.5493 14.218 13.5493 14.0739 13.5493 13.9298C13.563 13.5387 13.6179 13.1475 13.7482 12.7701Z" fill="#96239A"/>
<path d="M14.6811 12.53C14.7154 12.5094 14.7565 12.4957 14.784 12.4613C14.8526 12.5231 14.9486 12.5437 15.0378 12.53C14.9418 12.5917 14.8869 12.7015 14.8526 12.8044C14.7908 12.7907 14.736 12.7564 14.7085 12.7015C14.6742 12.6535 14.6605 12.5849 14.6811 12.53Z" fill="#009543"/>
<path d="M15.168 12.4682C15.1748 12.4682 15.1885 12.4751 15.2023 12.4751C15.1885 12.4751 15.1817 12.4751 15.168 12.482C15.168 12.4751 15.168 12.4682 15.168 12.4682Z" fill="#009543"/>
<path d="M15.312 12.4888C15.3326 12.4888 15.3463 12.4819 15.3669 12.4751C15.3737 12.4888 15.3737 12.4888 15.3806 12.5025C15.3532 12.4957 15.3326 12.4888 15.312 12.4888Z" fill="#009543"/>
<path d="M15.1682 12.5368C15.2437 12.5231 15.326 12.5437 15.4015 12.5711C15.4289 12.6192 15.4632 12.6672 15.5044 12.7084C15.5936 12.7839 15.6759 12.8731 15.7651 12.9417C15.7925 12.9691 15.8337 12.9897 15.8611 13.0172C15.8543 13.024 15.8474 13.0309 15.8405 13.0377C15.9091 13.1544 15.9778 13.2779 16.0326 13.4014C16.0807 13.5112 16.1287 13.621 16.163 13.7308C16.1767 13.7925 16.1904 13.8543 16.1904 13.9161C16.1904 13.9298 16.1835 13.9435 16.1767 13.9572C16.1355 13.9641 16.0944 13.9298 16.0601 13.9092C15.9572 13.8269 15.8748 13.7239 15.7925 13.621C15.7719 13.5935 15.7445 13.573 15.7377 13.5455C15.7445 13.4495 15.7239 13.3534 15.6896 13.2642C15.6347 13.0926 15.5593 12.928 15.477 12.777C15.4564 12.7839 15.4427 12.7907 15.4289 12.8044C15.4975 12.9279 15.5524 13.0515 15.6073 13.1887C15.6416 13.2711 15.669 13.3602 15.6828 13.4494C15.6828 13.4769 15.6896 13.5044 15.6828 13.5318C15.6759 13.5455 15.6622 13.5387 15.6553 13.5318C15.6142 13.5044 15.5798 13.47 15.5455 13.4357C15.4221 13.2916 15.3329 13.1338 15.2506 12.976C15.2368 12.9828 15.2163 12.9897 15.2025 13.0034C15.2574 13.0995 15.3123 13.1887 15.374 13.2848C15.3878 13.3053 15.4083 13.3328 15.4221 13.3603C15.4495 13.4357 15.4769 13.5112 15.4907 13.5936C15.4975 13.6141 15.4907 13.6279 15.4838 13.6484C15.4495 13.6484 15.4221 13.6279 15.4015 13.6073C15.3329 13.5455 15.278 13.47 15.2163 13.3946C15.1545 13.3122 15.0996 13.2299 15.0448 13.1407C15.031 13.1475 15.0105 13.1613 14.9967 13.1681C15.0585 13.2848 15.1408 13.3946 15.2231 13.4975C15.2437 13.5249 15.2711 13.5455 15.2917 13.5798C15.3123 13.6347 15.3398 13.7033 15.3466 13.7582C15.3535 13.7994 15.3603 13.8337 15.3466 13.868C15.2986 13.8543 15.2711 13.8268 15.2368 13.7994C15.1065 13.669 15.0036 13.5181 14.9075 13.3603C14.9007 13.3671 14.887 13.374 14.8801 13.3808C14.8664 13.2299 14.8664 13.0789 14.8938 12.928C14.9144 12.825 14.9419 12.7152 15.0036 12.6397C15.0379 12.5917 15.0996 12.5505 15.1682 12.5368Z" fill="#009543"/>
<path d="M15.9092 13.0515C15.9572 13.0789 15.9983 13.1064 16.0464 13.1338C16.0601 13.1407 16.0738 13.1544 16.0807 13.1681C16.3825 13.5524 16.6227 13.9847 16.8147 14.4238C17 14.8493 17.144 15.2816 17.2263 15.7345C17.2606 15.9266 17.2881 16.1256 17.2744 16.3246C17.2538 16.0569 17.1509 15.7962 17.0205 15.5629C17.048 15.4668 17.0274 15.3639 16.9999 15.2679C16.9519 15.0826 16.8696 14.911 16.7461 14.7532C16.705 14.5542 16.6364 14.3552 16.5472 14.17C16.458 13.9847 16.3482 13.8063 16.2042 13.6484C16.1904 13.6279 16.163 13.6141 16.163 13.5867C16.1013 13.4083 16.0052 13.223 15.9092 13.0515Z" fill="#009543"/>
<path d="M14.8662 13.4289C14.9074 13.4975 14.9623 13.573 15.0034 13.6416C15.0103 13.6485 15.0171 13.6622 15.0171 13.669C15.0514 13.7926 15.0995 13.9092 15.1612 14.019C15.2092 14.1082 15.271 14.1974 15.3533 14.2729C15.3945 14.3072 15.4425 14.3346 15.4973 14.3278C15.5248 14.3278 15.5523 14.3072 15.5728 14.2866C15.6071 14.417 15.6414 14.5474 15.6552 14.6846C15.6552 14.7258 15.662 14.7738 15.6414 14.8218C15.6346 14.8356 15.6209 14.8493 15.6071 14.8424C15.566 14.8287 15.5317 14.7944 15.5042 14.7669C15.4425 14.6915 15.3876 14.616 15.3396 14.5336C15.2504 14.3827 15.1749 14.218 15.1132 14.067C15.0926 14.0739 15.0789 14.0739 15.0651 14.0876C15.1269 14.2455 15.2024 14.4033 15.2847 14.5542C15.2778 14.5885 15.271 14.6229 15.271 14.664C15.271 14.8081 15.3053 14.9522 15.3464 15.0895C15.415 15.2884 15.5042 15.4737 15.6277 15.6384C15.6894 15.7207 15.7649 15.7962 15.8541 15.8374C15.8815 15.9129 15.9021 15.9884 15.9433 16.057C16.0256 16.2354 16.1422 16.4001 16.2726 16.5442C16.3206 16.5991 16.3755 16.6608 16.4166 16.7226C16.3 16.6265 16.204 16.5167 16.1079 16.4001C15.9639 16.2285 15.8404 16.0432 15.7237 15.8511C15.5797 15.6247 15.4631 15.3845 15.3533 15.1443C15.2367 14.8767 15.1269 14.5954 15.0446 14.3141C14.9691 14.0465 14.9005 13.772 14.8731 13.4975C14.8662 13.4632 14.8662 13.4426 14.8662 13.4289Z" fill="#009543"/>
<path d="M15.5044 13.4769C15.5387 13.5181 15.5799 13.5524 15.6279 13.5799C15.6485 13.5936 15.6691 13.5867 15.6965 13.5867C15.7514 13.6691 15.8131 13.7446 15.8817 13.82C15.8886 13.8338 15.9023 13.8406 15.9023 13.8544C15.9092 13.9093 15.916 13.971 15.9092 14.0259C15.9023 14.0602 15.8955 14.0877 15.868 14.1014C15.8337 14.1151 15.7994 14.1014 15.7788 14.0877C15.7102 14.0465 15.6553 13.9779 15.6073 13.9092C15.5867 13.8818 15.5799 13.8475 15.573 13.82C15.5524 13.772 15.5387 13.7308 15.525 13.6828C15.525 13.6691 15.5318 13.6554 15.5318 13.6348C15.5318 13.5799 15.5181 13.525 15.5044 13.4769Z" fill="#009543"/>
<path d="M15.3603 13.6622C15.3877 13.6896 15.4289 13.7102 15.4769 13.7102C15.5249 13.8269 15.5593 13.9573 15.5661 14.0877C15.573 14.1425 15.5729 14.1974 15.5386 14.2455C15.5249 14.2729 15.4838 14.2798 15.4563 14.266C15.3809 14.2386 15.3328 14.1768 15.2917 14.1151C15.2094 14.0122 15.1545 13.8955 15.1064 13.772C15.1545 13.8269 15.2025 13.8749 15.2643 13.9092C15.2848 13.923 15.3191 13.9367 15.3466 13.923C15.374 13.9092 15.3877 13.8818 15.3877 13.8544C15.4015 13.7926 15.3809 13.724 15.3603 13.6622Z" fill="#009543"/>
<path d="M16.2179 13.7446C16.3688 13.9161 16.4786 14.1219 16.5678 14.3347C16.6432 14.5131 16.6981 14.6983 16.7187 14.8905C16.7187 14.9659 16.7256 15.0483 16.6844 15.1169C16.657 15.1512 16.6089 15.1512 16.5746 15.1375C16.506 15.1101 16.4443 15.0552 16.3894 15.0003C16.3825 14.9934 16.3757 14.9797 16.3688 14.966C16.3277 14.8081 16.2591 14.6572 16.1836 14.5199C16.211 14.5131 16.2385 14.5062 16.2591 14.4856C16.2865 14.4513 16.3002 14.4033 16.3071 14.3621C16.3139 14.2386 16.2728 14.1151 16.2316 13.9984C16.2179 13.9779 16.2454 13.9573 16.2454 13.9367C16.2454 13.8749 16.2316 13.8063 16.2179 13.7446Z" fill="#009543"/>
<path d="M15.9709 13.9024C16.0258 13.9504 16.0875 14.0053 16.163 14.0122C16.2042 14.1082 16.2316 14.2043 16.2453 14.3072C16.2453 14.3552 16.2522 14.4033 16.2247 14.4445C16.211 14.465 16.1767 14.4719 16.1493 14.465C16.0944 14.4445 16.0532 14.4101 16.0121 14.3758C15.9915 14.3552 15.9709 14.3415 15.964 14.3141C15.9503 14.2592 15.9298 14.2043 15.9092 14.1494C15.9778 14.0808 15.9709 13.9847 15.9709 13.9024Z" fill="#009543"/>
<path d="M15.6143 14.0122C15.6623 14.0602 15.7103 14.1151 15.7721 14.1494C15.7995 14.1631 15.8269 14.17 15.8544 14.1631C15.9024 14.2729 15.9367 14.3896 15.9436 14.5062C15.9436 14.5611 15.9504 14.6229 15.923 14.664C15.9092 14.6846 15.8818 14.6984 15.8475 14.6846C15.7926 14.6709 15.7446 14.6229 15.7034 14.5817C15.6897 14.568 15.6897 14.5543 15.6897 14.5405C15.6692 14.4239 15.6349 14.321 15.6074 14.2112C15.628 14.1425 15.628 14.0808 15.6143 14.0122Z" fill="#009543"/>
<path d="M14.9214 14.0464C14.9351 14.0945 14.9488 14.1356 14.9557 14.1837C15.038 14.4719 15.1409 14.7532 15.2575 15.0277C15.4428 15.4737 15.6829 15.9129 15.9779 16.2971C16.1288 16.4961 16.3003 16.6814 16.4992 16.8324C16.5267 16.8598 16.5678 16.8735 16.5884 16.9078C16.5061 16.9078 16.4375 16.8735 16.3689 16.8324C16.2248 16.7432 16.1082 16.6196 15.9985 16.4893C15.8818 16.3452 15.772 16.1942 15.6691 16.0364C15.5251 15.8031 15.4016 15.556 15.2918 15.3022C15.1683 15.0277 15.0723 14.7326 14.9968 14.4444C14.9694 14.3141 14.9351 14.1837 14.9214 14.0464Z" fill="#EA0337"/>
<path d="M15.9983 14.4239C16.0258 14.4513 16.0532 14.4719 16.0807 14.4856C16.0944 14.4925 16.115 14.4993 16.1218 14.5199C16.1836 14.6228 16.2316 14.7326 16.2727 14.8493C16.3208 14.9728 16.3551 15.0963 16.3619 15.2267C16.3619 15.2885 16.3619 15.3571 16.3345 15.412C16.3276 15.4394 16.3002 15.46 16.2659 15.46C16.2247 15.46 16.1835 15.4325 16.1424 15.4051C16.1081 15.3777 16.0806 15.3502 16.0532 15.3159C16.0463 15.309 16.0395 15.2953 16.0326 15.2885C15.9778 15.0895 15.8954 14.8905 15.7788 14.7121C15.82 14.7258 15.8611 14.7395 15.8954 14.7258C15.9366 14.7121 15.964 14.6846 15.9777 14.6434C16.012 14.5817 16.0052 14.5062 15.9983 14.4239Z" fill="#009543"/>
<path d="M15.3398 14.6091C15.3878 14.6915 15.4427 14.7669 15.5113 14.8356C15.5387 14.863 15.5799 14.8973 15.6279 14.8973C15.6553 14.8973 15.6828 14.8767 15.6965 14.8493C15.7171 14.8013 15.7171 14.7532 15.7171 14.7052C15.8474 14.8973 15.9435 15.1238 15.9984 15.3502C16.0258 15.46 16.0464 15.5766 16.0189 15.6933C16.0052 15.7276 15.9915 15.7756 15.9503 15.7825C15.916 15.7962 15.8749 15.7756 15.8474 15.7619C15.772 15.7139 15.7171 15.6384 15.6622 15.5698C15.5936 15.4669 15.5319 15.3639 15.477 15.2473C15.429 15.1306 15.3809 15.0071 15.3535 14.8836C15.3466 14.7875 15.3329 14.6983 15.3398 14.6091Z" fill="#009543"/>
<path d="M16.7668 14.8699C16.8422 14.9797 16.8971 15.1032 16.9383 15.2267C16.9657 15.3159 16.9863 15.3983 16.9794 15.4943C16.904 15.3708 16.8148 15.2542 16.7188 15.1375C16.7736 15.062 16.7736 14.9591 16.7668 14.8699Z" fill="#009543"/>
<path d="M16.396 15.0894C16.4509 15.1375 16.5058 15.1787 16.5744 15.1992C16.6087 15.2061 16.6499 15.1992 16.6842 15.1855C16.8076 15.3365 16.9174 15.4874 17.0066 15.659C17.0958 15.8168 17.1644 15.9883 17.1987 16.1736C17.2261 16.2971 17.233 16.4206 17.2261 16.5442C17.1575 16.3726 17.0683 16.2079 16.9654 16.0638C16.8831 15.9403 16.7939 15.8305 16.7047 15.7207C16.6087 15.5904 16.5126 15.4669 16.4235 15.3296C16.4166 15.3159 16.4166 15.2953 16.4166 15.2816C16.4166 15.2061 16.4097 15.1512 16.396 15.0894Z" fill="#009543"/>
<path d="M16.4098 15.3914C16.4578 15.4669 16.5127 15.5423 16.5676 15.6178C16.6705 15.7619 16.7871 15.8923 16.89 16.0364C17.0615 16.2766 17.2056 16.551 17.2605 16.8392C17.281 16.9353 17.2947 17.0382 17.2947 17.1412C17.2124 16.9147 17.0821 16.702 16.938 16.5099C16.8489 16.3864 16.7459 16.2766 16.6499 16.1599C16.4921 15.9609 16.348 15.7413 16.2383 15.5149C16.2726 15.5149 16.3069 15.5149 16.3343 15.5012C16.3755 15.4806 16.3892 15.4326 16.4098 15.3914Z" fill="#009543"/>
<path d="M16.0738 15.412C16.1012 15.4394 16.1355 15.46 16.163 15.4874C16.3139 15.8099 16.5197 16.0981 16.7461 16.3657C16.9176 16.5647 17.0617 16.7775 17.1783 17.0108C17.2743 17.2235 17.3361 17.4568 17.3429 17.6832C17.3429 17.8067 17.3361 17.9234 17.3155 18.04C17.2126 17.8067 17.1097 17.5803 16.9725 17.3676C16.7667 17.0314 16.5197 16.7294 16.2727 16.4344C16.1287 16.256 15.9983 16.057 15.9229 15.8374C15.9572 15.8374 15.9846 15.8305 16.0052 15.8168C16.0532 15.7825 16.0669 15.7276 16.0738 15.6658C16.0944 15.5835 16.0807 15.4943 16.0738 15.412Z" fill="#009543"/>
<path d="M15.3534 15.81C15.374 15.7757 15.4014 15.7414 15.4357 15.7276C15.4906 15.8306 15.5523 15.9403 15.6141 16.0433C15.6278 16.057 15.6415 16.0776 15.6346 16.0982C15.6346 16.2148 15.6278 16.3383 15.5935 16.4481C15.5729 16.5305 15.5455 16.606 15.4837 16.6746C15.4563 16.702 15.4151 16.7295 15.3808 16.7157C15.3328 16.6883 15.3053 16.6334 15.2848 16.5854C15.2299 16.4344 15.2299 16.2697 15.2505 16.1119C15.2642 16.009 15.2916 15.8992 15.3534 15.81Z" fill="#009543"/>
<path d="M15.6897 16.1668C15.7651 16.2834 15.8543 16.4001 15.9435 16.5099C15.9298 16.6197 15.9023 16.7294 15.8474 16.8255C15.82 16.8667 15.7926 16.9147 15.7377 16.9284C15.7034 16.9422 15.6622 16.9216 15.6416 16.8941C15.5936 16.8324 15.5799 16.7638 15.5593 16.6951C15.5593 16.6814 15.5456 16.6608 15.5593 16.6471C15.6554 16.503 15.6828 16.3315 15.6897 16.1668Z" fill="#009543"/>
<path d="M14.4683 16.5579C14.5437 16.6334 14.6123 16.702 14.6878 16.7638C14.6535 16.7844 14.6055 16.7638 14.578 16.7363C14.5232 16.6883 14.4957 16.6197 14.4683 16.5579Z" fill="#009543"/>
<path d="M15.9912 16.5647C16.0804 16.6608 16.1627 16.7569 16.2724 16.8324C16.2518 16.949 16.2244 17.0657 16.1627 17.1686C16.1352 17.2098 16.1009 17.2509 16.0529 17.2578C16.0186 17.2647 15.9775 17.2304 15.9569 17.196C15.9157 17.1343 15.8951 17.0519 15.8882 16.9765C15.8814 16.9421 15.8745 16.9078 15.8745 16.8667C15.8814 16.8529 15.8883 16.8392 15.902 16.8255C15.9431 16.75 15.9706 16.6608 15.9912 16.5647Z" fill="#009543"/>
<path d="M15.2369 16.6334C15.2575 16.6951 15.3055 16.75 15.3673 16.7637C15.4222 16.7775 15.4771 16.75 15.5114 16.7088C15.5182 16.75 15.5319 16.7912 15.5457 16.8324C15.5525 16.8461 15.5525 16.8598 15.5525 16.8735C15.5457 16.949 15.5457 17.0245 15.5525 17.1C15.5594 17.1205 15.5456 17.148 15.5388 17.1617C15.5113 17.2166 15.4771 17.2715 15.429 17.3058C15.4016 17.3264 15.3673 17.3264 15.333 17.3127C15.2918 17.2852 15.2712 17.2441 15.2507 17.196C15.2164 17.1068 15.2026 17.0108 15.2026 16.9147C15.2026 16.8255 15.2095 16.7294 15.2369 16.6334Z" fill="#009543"/>
<path d="M14.4891 16.7226C14.5234 16.7706 14.5646 16.8187 14.6263 16.8255C14.6606 16.8324 14.7017 16.8187 14.7292 16.7981C14.7635 16.8255 14.7978 16.853 14.8321 16.8804C14.8458 16.8873 14.8389 16.901 14.8458 16.9147C14.8527 16.9765 14.8664 17.0451 14.8801 17.1069C14.8801 17.1206 14.887 17.1412 14.887 17.1618C14.8733 17.2235 14.8527 17.2853 14.8115 17.3333C14.7909 17.3608 14.7498 17.3813 14.7155 17.3745C14.6675 17.3607 14.6263 17.3127 14.5988 17.2784C14.544 17.1892 14.5165 17.1 14.5028 17.0039C14.4891 16.9079 14.4754 16.8118 14.4891 16.7226Z" fill="#009543"/>
<path d="M16.3206 16.8735C16.3961 16.9147 16.4647 16.949 16.547 16.9627C16.547 17.0314 16.5333 17.1068 16.5195 17.1823C16.4921 17.2715 16.4715 17.3607 16.4167 17.4293C16.3892 17.4637 16.3618 17.498 16.3206 17.498C16.2863 17.498 16.2589 17.4774 16.2383 17.4499C16.204 17.4088 16.1903 17.347 16.1697 17.2921C16.1697 17.2784 16.1628 17.2647 16.1765 17.2509C16.2314 17.1892 16.2657 17.1137 16.2863 17.0245C16.3 16.9765 16.3137 16.9216 16.3206 16.8735Z" fill="#009543"/>
<path d="M15.6074 16.9353C15.6417 16.9628 15.676 16.9902 15.724 16.9902C15.7651 16.9902 15.7994 16.9628 15.8337 16.949C15.8406 17.052 15.8612 17.1549 15.9229 17.2441C15.9298 17.251 15.9229 17.2647 15.9229 17.2784C15.9023 17.3333 15.8681 17.3813 15.82 17.4156C15.7926 17.4294 15.7583 17.4362 15.7309 17.4156C15.6828 17.3813 15.6622 17.3264 15.6417 17.2715C15.6074 17.1618 15.6005 17.0451 15.6074 16.9353Z" fill="#009543"/>
<path d="M14.9004 16.949C14.9278 16.9696 14.9553 16.9764 14.9758 16.997C15.0376 17.0382 15.0993 17.0794 15.168 17.1205C15.1817 17.1892 15.2091 17.2509 15.2434 17.3058C15.2297 17.347 15.2023 17.3813 15.1748 17.4087C15.1405 17.4225 15.1062 17.4087 15.0788 17.3882C15.0307 17.347 15.0033 17.2852 14.9758 17.2303C14.9415 17.1343 14.9141 17.0451 14.9004 16.949Z" fill="#009543"/>
<path d="M16.5951 16.9628C16.6019 16.9628 16.6156 16.9628 16.6225 16.9628C16.6568 17.0108 16.6979 17.0588 16.7322 17.1137C16.7391 17.1618 16.7322 17.2098 16.7391 17.2578C16.7528 17.5117 16.7528 17.7587 16.7528 18.0126C16.5264 18.0058 16.3069 18.0058 16.0874 18.0058C16.108 17.9852 16.1217 17.9577 16.1286 17.9234C16.1286 17.9028 16.1217 17.8823 16.1354 17.8617C16.1903 17.7587 16.2177 17.6421 16.2246 17.5254C16.2589 17.546 16.2932 17.5529 16.3275 17.546C16.3961 17.5323 16.4373 17.4774 16.4716 17.4294C16.5333 17.3264 16.5607 17.2166 16.5745 17.1C16.595 17.052 16.5951 17.0108 16.5951 16.9628Z" fill="#009543"/>
<path d="M16.7939 17.196C16.8968 17.347 16.9929 17.4911 17.0752 17.6558C17.0752 17.7244 17.0752 17.7862 17.0752 17.8479C17.0683 17.9165 17.0684 17.9852 17.0615 18.0538C16.986 18.0263 16.9037 18.0263 16.8214 18.0195C16.8145 17.7381 16.8077 17.4637 16.7939 17.196Z" fill="#009543"/>
<path d="M15.3874 17.3813C15.4766 17.3676 15.5315 17.2921 15.5726 17.2235C15.5864 17.299 15.6138 17.3813 15.6755 17.4431C15.703 17.4774 15.7441 17.4842 15.799 17.4842C15.7784 17.6009 15.7441 17.7176 15.6687 17.8136C15.6412 17.8479 15.5932 17.8891 15.5452 17.8754C15.4972 17.8617 15.4697 17.8136 15.4491 17.7725C15.3874 17.6421 15.3805 17.5117 15.3874 17.3813Z" fill="#009543"/>
<path d="M14.9209 17.2372C14.9552 17.3058 14.9895 17.3882 15.065 17.4362C15.0993 17.4636 15.1473 17.4637 15.1885 17.4568C15.1885 17.5597 15.1816 17.6626 15.1473 17.7587C15.1267 17.8067 15.0993 17.8548 15.0513 17.8754C15.017 17.8959 14.9758 17.8754 14.9484 17.8548C14.8935 17.8067 14.8592 17.7381 14.8317 17.6695C14.7974 17.594 14.7837 17.5117 14.7769 17.4293C14.8523 17.4019 14.8935 17.3127 14.9209 17.2372Z" fill="#009543"/>
<path d="M15.964 17.2921C15.9914 17.299 16.012 17.3127 16.0395 17.3127C16.0669 17.3127 16.0943 17.3058 16.1149 17.299C16.1286 17.3607 16.1492 17.4225 16.1835 17.4705C16.1767 17.594 16.1492 17.7038 16.1012 17.8205C16.0806 17.8685 16.0463 17.9234 15.9914 17.9577C15.964 17.9714 15.9228 17.9783 15.9023 17.9646C15.8542 17.9371 15.8268 17.8891 15.8131 17.8342C15.7925 17.793 15.7856 17.7587 15.7856 17.7175C15.8199 17.6352 15.8405 17.5529 15.8474 17.4637C15.8474 17.4499 15.8611 17.4431 15.868 17.4362C15.9091 17.4019 15.9434 17.347 15.964 17.2921Z" fill="#009543"/>
<path d="M15.2848 17.347C15.3054 17.3607 15.326 17.3676 15.3397 17.3744C15.3397 17.4637 15.3397 17.5597 15.3534 17.6489C15.374 17.7381 15.4014 17.8273 15.47 17.8891C15.4426 17.9028 15.4151 17.9234 15.3808 17.9097C15.3122 17.8822 15.2779 17.8136 15.2436 17.7519C15.2368 17.7244 15.2162 17.7038 15.2231 17.6695C15.2368 17.5872 15.2436 17.5048 15.2368 17.4088C15.2573 17.395 15.2711 17.3745 15.2848 17.347Z" fill="#009543"/>
<path d="M13.1237 17.6969C13.1854 17.6283 13.2746 17.6009 13.3569 17.6146C13.4735 17.6352 13.5696 17.7107 13.6382 17.8067C13.6725 17.8548 13.693 17.9165 13.6999 17.9783C13.7068 18.0195 13.7068 18.0675 13.7342 18.1018C13.7616 18.1292 13.796 18.1361 13.8303 18.1361C14.0772 18.1224 14.3242 18.1155 14.5643 18.1087C14.5369 18.1636 14.5094 18.2185 14.4957 18.2802C14.4683 18.4037 14.5094 18.5272 14.5712 18.637C14.3928 18.637 14.2213 18.637 14.0498 18.6302C13.9675 18.6302 13.8852 18.637 13.8097 18.6302C13.6382 18.6302 13.4667 18.6233 13.2952 18.6164C13.206 18.6096 13.1099 18.6096 13.0139 18.5958C12.9796 18.589 12.9659 18.5547 12.9384 18.5341C12.8561 18.438 12.8012 18.3351 12.7395 18.2253C12.7189 18.1842 12.6915 18.143 12.6777 18.1018C12.7463 18.1018 12.8081 18.1018 12.8767 18.0881C12.911 18.0812 12.9453 18.0675 12.9659 18.04C12.9933 18.0126 13.0002 17.9783 13.007 17.944C13.0207 17.8411 13.0688 17.7587 13.1237 17.6969Z" fill="#AA5600"/>
<path d="M15.1409 17.8754C15.1683 17.8616 15.1958 17.8479 15.2301 17.8411C15.2438 17.8616 15.2643 17.8891 15.278 17.9028C15.1477 18.0057 15.0448 18.1636 15.038 18.3351C15.0311 18.4792 15.1066 18.6302 15.2095 18.7331C15.2849 18.8086 15.3672 18.8703 15.4633 18.9115C15.4015 18.9321 15.3261 18.9184 15.2644 18.8978C15.1409 18.8566 15.0311 18.7811 14.9419 18.6851C14.8596 18.5959 14.8047 18.4723 14.8047 18.3488C14.8115 18.2116 14.887 18.0812 14.9899 17.9852C15.0242 17.9646 15.0448 17.9303 15.0791 17.9165C15.0997 17.9097 15.1203 17.8891 15.1409 17.8754Z" fill="#FECE00"/>
<path d="M15.5385 17.9852C15.6071 17.9234 15.6825 17.8754 15.758 17.8411C15.7786 17.9028 15.806 17.9577 15.854 17.992C15.8952 18.0195 15.9432 18.0332 15.9775 18.0195C15.9021 18.0538 15.8266 18.0812 15.7511 18.1293C15.71 18.1567 15.6688 18.1841 15.6482 18.2322C15.6002 18.3282 15.6071 18.4586 15.6963 18.5341C15.7855 18.6164 15.9089 18.6439 16.0118 18.7056C16.0461 18.7331 16.0736 18.7674 16.0804 18.8086C16.0873 18.8429 16.0735 18.8772 16.0461 18.8909C15.9981 18.9184 15.9501 18.9115 15.9021 18.9046C15.7854 18.8841 15.6757 18.8292 15.5865 18.7537C15.4904 18.6782 15.415 18.5753 15.3807 18.4586C15.367 18.4106 15.3601 18.3626 15.3669 18.3145C15.3807 18.1842 15.4493 18.0744 15.5385 17.9852Z" fill="#FECE00"/>
<path d="M14.6949 18.0057C14.7498 17.9508 14.8115 17.9097 14.8801 17.8754C14.9007 17.8959 14.935 17.9234 14.9693 17.9371C14.8664 18.0263 14.7841 18.1498 14.7566 18.2802C14.7292 18.39 14.7566 18.5066 14.8046 18.6027C14.8801 18.7468 15.0104 18.8566 15.1545 18.9252C15.079 18.9321 15.0036 18.9115 14.935 18.884C14.8184 18.836 14.7223 18.7605 14.6469 18.6645C14.5783 18.5753 14.5371 18.4723 14.5371 18.3625C14.544 18.2184 14.6057 18.0949 14.6949 18.0057Z" fill="#FECE00"/>
<path d="M15.5042 17.9303C15.5111 17.9234 15.5248 17.9234 15.5316 17.9234C15.4562 17.992 15.3876 18.0812 15.3464 18.1704C15.319 18.2459 15.2984 18.3351 15.3122 18.4175C15.3259 18.5478 15.3945 18.6645 15.4837 18.7537C15.5523 18.8223 15.6277 18.8704 15.71 18.9115C15.6826 18.9252 15.6483 18.9115 15.6208 18.9115C15.5042 18.8909 15.4013 18.836 15.3122 18.7674C15.2092 18.6851 15.1269 18.5684 15.0995 18.4312C15.072 18.3214 15.1132 18.1979 15.1749 18.1087C15.2161 18.0469 15.2641 17.992 15.3258 17.944C15.3601 17.9646 15.4013 17.9783 15.4425 17.9646C15.4631 17.9577 15.4836 17.944 15.5042 17.9303Z" fill="#FECE00"/>
<path d="M16.0392 18.0606C16.2999 18.0606 16.5537 18.0538 16.8144 18.0744C16.7527 18.1087 16.6978 18.1704 16.6772 18.2459C16.6497 18.342 16.6772 18.4517 16.7526 18.5341C16.7664 18.5547 16.7938 18.5684 16.8144 18.5821C16.5743 18.6027 16.341 18.6096 16.1009 18.6164C16.0529 18.6164 16.0049 18.6233 15.95 18.6164C15.9157 18.6027 15.8814 18.5821 15.8402 18.5684C15.7922 18.5478 15.7442 18.5204 15.7099 18.4792C15.6687 18.4243 15.6687 18.3557 15.6893 18.2939C15.703 18.2459 15.7373 18.2116 15.7854 18.1841C15.8471 18.143 15.9226 18.1224 15.9912 18.0949C16.0049 18.0744 16.0186 18.0606 16.0392 18.0606Z" fill="#AA5600"/>
<path d="M16.9106 18.095C17.0204 18.0744 17.1302 18.1361 17.1645 18.2391C17.2056 18.3488 17.1645 18.4724 17.0616 18.5341C16.9793 18.589 16.8626 18.5753 16.7872 18.5067C16.7117 18.4381 16.6911 18.3214 16.7323 18.2391C16.7666 18.1567 16.8352 18.1087 16.9106 18.095Z" fill="#AA5600"/>
<path d="M16.801 18.637C16.8628 18.6302 16.9313 18.6233 16.9931 18.6164C16.9656 18.7605 16.9313 18.9046 16.8627 19.035C16.8353 19.0831 16.801 19.1448 16.7393 19.1585C16.7736 18.987 16.7873 18.8086 16.801 18.637Z" fill="#009543"/>
<path d="M16.1836 18.6645C16.3757 18.6576 16.5541 18.6508 16.7461 18.6439C16.7324 18.8154 16.7187 18.9801 16.6912 19.1517C16.6775 19.234 16.657 19.3164 16.6295 19.3987C16.6158 19.4399 16.5952 19.4879 16.5609 19.5154C16.5472 19.5291 16.5198 19.5359 16.506 19.5222C16.4717 19.5016 16.4443 19.4673 16.4237 19.433C16.3757 19.3369 16.3414 19.2409 16.3071 19.1379C16.2522 18.9801 16.2179 18.8292 16.1836 18.6645Z" fill="#009543"/>
<path d="M16.0464 18.6713C16.0738 18.6713 16.1013 18.6713 16.1356 18.6713C16.1699 18.836 16.2111 19.0007 16.2591 19.1654C16.2111 19.1585 16.1767 19.1174 16.1424 19.0831C16.115 19.035 16.0876 19.0007 16.067 18.9527C16.1013 18.9321 16.1287 18.8978 16.1356 18.8566C16.1356 18.7811 16.1013 18.7125 16.0464 18.6713Z" fill="#009543"/>
</svg>
