<svg width="30" height="30" viewBox="0 0 30 30" fill="none" xmlns="http://www.w3.org/2000/svg">
<path d="M30 15C30 6.71776 23.2838 1.03117e-05 15.0034 1.03117e-05V30C23.2838 30 30 23.2891 30 15Z" fill="#F1F4FB"/>
<path d="M0 15C0 23.2823 6.71621 30 14.9966 30V1.04904e-05C6.71621 1.04904e-05 0 6.71776 0 15Z" fill="#008638"/>
<path d="M19.1608 11.624L19.0647 14.204L21.4864 15.0961L19.003 15.796L18.9001 18.376L17.4663 16.2351L14.9828 16.9351L16.5813 14.9039L15.1406 12.763L17.5692 13.6551L19.1608 11.624Z" fill="#ED0000"/>
<path d="M16.5058 21.3747C12.9865 21.3747 10.1326 18.5201 10.1326 15C10.1326 11.4799 12.9865 8.62535 16.5058 8.62535C18.5227 8.62535 20.3133 9.56543 21.4795 11.027C20.1555 8.91355 17.8093 7.50001 15.1269 7.50001C10.9902 7.50001 7.62862 10.8555 7.62862 15C7.62862 19.1446 10.9902 22.5 15.1269 22.5C17.8024 22.5 20.1555 21.0865 21.4795 18.973C20.3201 20.4346 18.5227 21.3747 16.5058 21.3747Z" fill="#ED0000"/>
</svg>
