<svg width="30" height="30" viewBox="0 0 30 30" fill="none" xmlns="http://www.w3.org/2000/svg">
<path d="M14.9997 30.0002C21.0518 30.0002 26.2668 26.4115 28.6342 21.2513H1.36517C3.73251 26.4115 8.94751 30.0002 14.9997 30.0002Z" fill="#F1F4FB"/>
<path d="M14.9997 0.000137329C8.94751 0.000137329 3.73251 3.58888 1.36517 8.74899H28.6342C26.2668 3.58888 21.0518 0.000137329 14.9997 0.000137329Z" fill="#007CC2"/>
<path d="M0 15.0003C0 17.2304 0.487184 19.3507 1.3655 21.2514H28.6345C29.506 19.3507 30 17.2304 30 15.0003C30 12.7702 29.506 10.6567 28.6345 8.74913H1.3655C0.487184 10.6499 0 12.7702 0 15.0003Z" fill="black"/>
</svg>
