<svg width="30" height="30" viewBox="0 0 30 30" fill="none" xmlns="http://www.w3.org/2000/svg">
<path d="M14.9966 30.0001C21.0474 30.0001 26.2612 26.4114 28.628 21.2513H1.3584C3.73206 26.4114 8.94587 30.0001 14.9966 30.0001Z" fill="black"/>
<path d="M14.9965 0.000137329C8.94569 0.000137329 3.73188 3.58888 1.36508 8.74899H28.6347C26.2542 3.58888 21.0472 0.000137329 14.9965 0.000137329Z" fill="#CE1126"/>
<path d="M0 15.0001C0 17.2302 0.487073 19.3437 1.36519 21.2513H28.6348C29.5061 19.3505 30 17.2302 30 15.0001C30 12.77 29.5061 10.6566 28.6348 8.74898H1.36519C0.487073 10.6566 0 12.77 0 15.0001Z" fill="#F1F4FB"/>
<path d="M11.8529 20.8052C11.6334 20.7571 11.5853 20.6542 11.5853 20.5376C11.5853 20.4895 11.5922 20.4415 11.6059 20.4003C11.2904 20.2768 11.6403 20.0641 11.1943 19.9474L11.2011 19.9063C11.6265 19.8925 11.455 19.6867 11.6471 19.6661C11.6676 19.6661 11.6882 19.6661 11.6814 19.6935C11.6814 19.4122 11.9009 19.275 12.141 19.275C12.2164 19.275 12.2851 19.2887 12.3606 19.3093C12.8545 19.474 14.3843 19.4877 14.8577 19.4877C14.9537 19.4877 15.0017 19.4877 15.0017 19.4877V19.5289C15.0017 19.5289 14.9469 19.5289 14.8577 19.5289C14.3775 19.5289 12.8613 19.5151 12.3468 19.3504C12.2782 19.3299 12.2096 19.3161 12.141 19.3161C11.9146 19.3161 11.7294 19.4328 11.702 19.7141C11.6814 19.7073 11.6676 19.7073 11.6471 19.7073C11.5304 19.6867 11.6265 19.8994 11.2972 19.9406C11.6333 20.0847 11.3726 20.2974 11.6333 20.3797C11.6333 20.4346 11.6265 20.4895 11.6265 20.5376C11.6265 20.6473 11.6471 20.716 11.8598 20.764C12.5595 20.9287 15.0017 20.9973 15.0017 20.9973V21.0385C15.0017 21.0385 12.5595 20.9698 11.8529 20.8052Z" fill="#FCD116"/>
<path d="M15.0029 20.9973C15.0029 20.9973 17.4451 20.9287 18.1517 20.764C18.3644 20.7091 18.3782 20.6473 18.3782 20.5307C18.3782 20.4827 18.3713 20.4346 18.3851 20.3591C18.6389 20.2905 18.3713 20.0778 18.7075 19.9406C18.3782 19.8994 18.4674 19.6936 18.3576 19.7073C18.3439 19.7073 18.3233 19.7073 18.2821 19.6935C18.2821 19.4328 18.0901 19.3161 17.8637 19.3161C17.7951 19.3161 17.7264 19.3299 17.6578 19.3504C17.1433 19.5151 15.6272 19.5289 15.1469 19.5289C15.0578 19.5289 15.0029 19.5289 15.0029 19.5289V19.4877C15.0029 19.4877 15.0578 19.4877 15.1469 19.4877C15.6272 19.4877 17.1502 19.474 17.651 19.3093C17.7196 19.2887 17.7951 19.275 17.8705 19.275C18.1038 19.275 18.3302 19.4122 18.3027 19.673C18.3233 19.6661 18.3439 19.6661 18.3645 19.6661C18.5565 19.6867 18.3851 19.8925 18.8173 19.9063L18.8241 19.9474C18.3713 20.0641 18.728 20.2768 18.4262 20.3797C18.4262 20.4346 18.433 20.4827 18.433 20.5307C18.4399 20.6542 18.3919 20.7571 18.1723 20.8052C17.4657 20.9698 15.0235 21.0385 15.0166 21.0385L15.0029 20.9973Z" fill="#FCD116"/>
<path d="M12.8213 20.0504C12.8076 20.0779 12.8008 20.1053 12.787 20.1396C12.8076 20.1671 12.8213 20.1876 12.8282 20.2288C12.7939 20.2219 12.7595 20.2151 12.7252 20.2082C12.6841 20.1945 12.6566 20.2082 12.6498 20.1602C12.6498 20.1053 12.6361 20.0573 12.6018 20.0092C12.5949 20.0367 12.5812 20.0641 12.5743 20.0916C12.5949 20.119 12.6087 20.1465 12.6155 20.1808C12.5538 20.167 12.3823 20.1671 12.3548 20.0984C12.3205 20.0024 12.3136 19.8789 12.2999 19.7828C12.2793 19.8102 12.2588 19.8514 12.2725 19.8857C12.2245 19.9063 12.1833 19.9132 12.1559 19.9612C12.1216 20.0161 12.0941 20.0504 12.1559 20.0778C12.2245 20.1122 12.245 20.1122 12.2999 20.0573C12.3136 20.1876 12.3617 20.2288 12.4851 20.2563C12.6086 20.2837 12.7458 20.3112 12.8761 20.3386C12.8761 20.27 12.8831 20.1945 12.8625 20.1328C12.8488 20.0984 12.835 20.071 12.8213 20.0504ZM12.2588 20.0024C12.2451 20.0092 12.1833 19.9886 12.2107 19.9749C12.2313 19.9543 12.2587 19.9543 12.2793 19.9406C12.2862 19.9818 12.2999 19.9955 12.2588 20.0024ZM15.6958 20.0298C15.7644 20.0641 15.7575 20.0435 15.7918 19.9886C15.7506 19.9681 15.7369 19.9406 15.7094 19.9886C15.7094 20.023 15.6889 20.0298 15.6683 20.0024C15.6203 19.9818 15.6203 20.023 15.5997 20.0573C15.6272 20.071 15.6478 20.0779 15.6752 20.0916C15.6752 20.071 15.6821 20.0504 15.6958 20.0298ZM13.6308 20.1122C13.6651 20.1259 13.672 20.0573 13.672 20.0298C13.6239 20.0092 13.6239 19.9681 13.5896 19.9543C13.5759 19.9749 13.569 19.9955 13.5622 20.0161C13.5485 20.0641 13.5759 20.0641 13.5828 20.1122C13.5965 20.1877 13.6103 20.27 13.624 20.3455C13.5622 20.3386 13.4661 20.3455 13.4113 20.3112C13.3907 20.3043 13.4593 20.2082 13.4044 20.1533C13.3495 20.1122 13.2466 20.0984 13.226 20.1739C13.2054 20.2631 13.2604 20.2082 13.2947 20.2768C13.281 20.2837 13.2055 20.2974 13.2055 20.2768C13.2055 20.222 13.1849 20.1671 13.1506 20.1259C13.1437 20.1465 13.1368 20.1671 13.1368 20.1876C13.13 20.2357 13.1437 20.2357 13.1643 20.2768C13.1849 20.318 13.178 20.3386 13.1368 20.3729C13.0477 20.4484 12.9722 20.469 12.883 20.3866C12.8487 20.4278 12.9996 20.517 13.0477 20.5239C13.1094 20.5376 13.2055 20.4484 13.2055 20.3866C13.2535 20.3935 13.3084 20.3935 13.3427 20.3523C13.3907 20.4484 13.5828 20.4415 13.672 20.4484C13.672 20.3729 13.6651 20.2974 13.6514 20.222C13.6445 20.1945 13.6377 20.1533 13.6308 20.1122ZM13.3358 20.222C13.3221 20.222 13.3083 20.2082 13.3083 20.1945C13.3083 20.1808 13.3221 20.1739 13.3358 20.1739C13.3495 20.1739 13.3633 20.2014 13.3633 20.2151C13.3633 20.222 13.3495 20.222 13.3358 20.222ZM12.2519 19.7073C12.2725 19.721 12.2862 19.7348 12.3068 19.7485C12.3205 19.7279 12.3343 19.7073 12.348 19.6867C12.3274 19.673 12.2999 19.6524 12.2793 19.6387C12.2724 19.6524 12.2588 19.673 12.2451 19.6867C12.2245 19.673 12.2107 19.6593 12.1901 19.6456C12.1764 19.6661 12.1627 19.6867 12.149 19.7073C12.1696 19.721 12.197 19.7416 12.2176 19.7622C12.2313 19.7416 12.2451 19.721 12.2519 19.7073ZM12.6979 20.4209C12.7253 20.4484 12.7527 20.469 12.787 20.4896C12.8008 20.4621 12.8144 20.4415 12.835 20.4141C12.8076 20.3935 12.7733 20.3661 12.7458 20.3455C12.7253 20.3661 12.7116 20.3935 12.6979 20.4209ZM12.5469 20.3592C12.5263 20.3455 12.5126 20.3317 12.492 20.318C12.4714 20.3523 12.4371 20.3729 12.4783 20.4004C12.492 20.4141 12.5126 20.421 12.5263 20.4347C12.5401 20.4141 12.5469 20.4004 12.5537 20.3798C12.5743 20.3935 12.5949 20.4072 12.6087 20.4209C12.6224 20.4004 12.6429 20.3729 12.6498 20.3523C12.6292 20.3317 12.6018 20.318 12.5812 20.2974C12.5675 20.3249 12.5537 20.3386 12.5469 20.3592ZM13.7269 20.2425C13.7338 20.2906 13.7405 20.3386 13.7405 20.3866C13.7405 20.4278 13.72 20.4758 13.7543 20.4964C13.7749 20.4553 13.7955 20.4141 13.7955 20.3661C13.7955 20.2425 13.768 20.1259 13.7543 20.0092C13.6925 20.0916 13.7132 20.1396 13.7269 20.2425ZM16.0457 20.2288C16.0388 20.2631 16.0251 20.2974 16.0113 20.3249C16.0319 20.3455 16.0525 20.366 16.0525 20.4004C16.0113 20.4004 15.8261 20.4484 15.7986 20.4072C15.7506 20.3386 15.7506 20.1808 15.7369 20.0916C15.7163 20.1259 15.7164 20.2014 15.6889 20.222C15.634 20.2563 15.5997 20.2906 15.5723 20.3523C15.5517 20.4004 15.5311 20.4278 15.5929 20.4347C15.6683 20.4484 15.6889 20.4347 15.7369 20.3729C15.7438 20.4141 15.7507 20.4758 15.785 20.5101C15.8193 20.5445 15.9153 20.5239 15.9565 20.517C16.0114 20.5102 16.0937 20.5307 16.0937 20.469C16.0937 20.4141 16.1005 20.3523 16.0799 20.2974C16.0799 20.27 16.0594 20.2494 16.0457 20.2288ZM15.7027 20.3317C15.6958 20.3386 15.6477 20.3455 15.6477 20.3249C15.6477 20.2974 15.7026 20.27 15.7232 20.2631C15.73 20.2974 15.737 20.3111 15.7027 20.3317ZM16.3612 20.3249C16.3818 20.3386 16.3955 20.3661 16.4023 20.3866C16.4161 20.4278 16.3681 20.4758 16.3406 20.4964C16.3063 20.5307 16.2652 20.5719 16.2172 20.5788C16.1692 20.5856 16.128 20.5307 16.0937 20.5719C16.1485 20.6062 16.2309 20.6611 16.2926 20.6337C16.3475 20.6062 16.4298 20.5239 16.4298 20.4621C16.4298 20.3729 16.4436 20.2768 16.375 20.2082C16.375 20.2563 16.3681 20.2906 16.3612 20.3249ZM17.8362 20.0641C17.7745 20.0435 17.7402 19.9749 17.6716 19.9543C17.5892 19.9338 17.5411 20.0161 17.5137 20.0778C17.5892 20.0435 17.6509 20.0641 17.7127 20.1122C17.6304 20.1328 17.548 20.1533 17.4657 20.1739C17.4657 20.1465 17.4314 20.0298 17.3903 20.0367C17.3354 20.0435 17.3011 20.1259 17.2805 20.1671C17.2462 20.2631 17.0541 20.2494 16.9649 20.2837C17.013 20.2494 17.0404 20.2014 17.0404 20.1396C17.0404 20.0916 17.0129 20.0024 16.9581 20.0641C16.9238 20.1053 16.9032 20.1602 16.8895 20.2082C16.862 20.2768 16.8552 20.2906 16.7797 20.2974C16.7797 20.2357 16.7316 20.0641 16.6562 20.1808C16.6081 20.2631 16.5808 20.4415 16.7248 20.4004C16.6905 20.4484 16.6425 20.5033 16.5876 20.517C16.567 20.5239 16.5396 20.5307 16.5121 20.5239C16.471 20.517 16.4572 20.4758 16.4298 20.5239C16.4847 20.5582 16.5602 20.6199 16.6356 20.5925C16.6837 20.5719 16.7179 20.5307 16.7454 20.4896C16.7522 20.4758 16.766 20.4484 16.7728 20.4347C16.7865 20.3935 16.8003 20.4072 16.8483 20.4004C16.8483 20.4621 16.9031 20.6199 16.9923 20.5582C17.0472 20.5239 17.0815 20.4004 17.0129 20.3729C17.0815 20.3523 17.1501 20.3523 17.2119 20.3317C17.2462 20.318 17.2668 20.2974 17.2873 20.2631C17.3354 20.2769 17.3902 20.2837 17.4382 20.27C17.5343 20.2494 17.6304 20.222 17.7264 20.2082C17.7744 20.1945 17.8293 20.1808 17.8773 20.1739C17.8773 20.1465 17.8773 20.1259 17.8773 20.1053C17.8842 20.0435 17.8774 20.0779 17.8362 20.0641ZM16.7317 20.3112C16.6288 20.3249 16.7248 20.1876 16.7454 20.3112C16.7385 20.3112 16.7317 20.3112 16.7317 20.3112ZM16.9443 20.1876C16.958 20.1602 16.9855 20.1533 16.9855 20.1945C16.9855 20.2288 16.9306 20.2494 16.91 20.2631C16.9237 20.2357 16.9306 20.2151 16.9443 20.1876ZM16.9923 20.4621C16.9512 20.469 16.9032 20.4415 16.8963 20.4004C16.9238 20.4004 16.9512 20.4072 16.9787 20.4209C16.9855 20.4209 17.0266 20.4552 16.9923 20.4621ZM17.3285 20.1739C17.356 20.0779 17.404 20.1808 17.3971 20.1808C17.3765 20.1876 17.3491 20.1739 17.3285 20.1739ZM17.6029 20.3661C17.6303 20.3729 17.6646 20.3798 17.6921 20.3935C17.7127 20.3592 17.7264 20.3249 17.7401 20.2974C17.7058 20.2906 17.6784 20.2837 17.651 20.27C17.6372 20.2974 17.6235 20.3317 17.6029 20.3661ZM16.0045 20.5651C15.9976 20.5994 15.9839 20.6062 15.9633 20.5856C15.9152 20.5651 15.9153 20.6131 15.9016 20.6474C15.9427 20.668 15.9633 20.7023 15.9839 20.6474C15.9907 20.6131 16.0045 20.6062 16.0251 20.6268C16.0731 20.6474 16.0731 20.5925 16.0937 20.5582C16.0456 20.5445 16.0251 20.517 16.0045 20.5651ZM15.1332 20.4209C15.1195 20.4347 15.0098 20.4553 15.0098 20.4347C15.0098 20.3935 15.0097 20.3523 14.9892 20.3112C14.9274 20.1876 14.7765 20.3317 14.7079 20.3798C14.6736 20.4004 14.6187 20.4484 14.5776 20.4278C14.5227 20.4072 14.5912 20.3317 14.5295 20.318C14.5226 20.3798 14.4952 20.4278 14.4266 20.4278C14.3786 20.4278 14.406 20.4141 14.3923 20.3729C14.3855 20.3386 14.3648 20.3112 14.3374 20.2837C14.3374 20.3043 14.3306 20.3317 14.3237 20.3523C14.3169 20.4004 14.3305 20.3935 14.3511 20.4347C14.3717 20.4827 14.358 20.5033 14.3237 20.5376C14.2414 20.6131 14.1659 20.6474 14.0767 20.5719C14.0424 20.6131 14.1179 20.6405 14.1522 20.6611C14.1797 20.6817 14.2208 20.7023 14.2619 20.6886C14.3168 20.6748 14.4061 20.5994 14.3992 20.5307C14.4541 20.5307 14.4883 20.5239 14.5226 20.4827C14.5501 20.5582 14.6393 20.5445 14.7079 20.5445C14.7971 20.5445 14.8862 20.5445 14.9686 20.5513C15.0234 20.5513 15.0852 20.565 15.1263 20.5239C15.1538 20.4964 15.1606 20.5101 15.1949 20.5239C15.2361 20.5376 15.2773 20.5445 15.3184 20.5445C15.3184 20.4759 15.3184 20.4141 15.291 20.3455C15.243 20.2151 15.1881 20.366 15.1332 20.4209ZM14.8314 20.4415C14.7971 20.4415 14.7628 20.4415 14.7285 20.4415C14.7834 20.4004 14.852 20.3523 14.9274 20.3798C15.0303 20.4141 14.852 20.4415 14.8314 20.4415ZM15.1881 20.4141C15.2156 20.3249 15.2636 20.4347 15.2567 20.4347C15.2361 20.4347 15.2087 20.421 15.1881 20.4141Z" fill="#FCD116"/>
<path d="M10.6191 19.2201C10.6191 19.2132 10.8524 13.909 10.9278 12.0975C10.9484 11.5279 11.2091 11.3152 11.5521 11.3152C11.8677 11.3152 12.2587 11.4936 12.588 11.6926C12.8556 11.8573 13.1437 11.9053 13.4456 11.9053C13.9258 11.9053 14.4472 11.775 15.0029 11.775C15.5586 11.775 16.0731 11.9053 16.5533 11.9053C16.8483 11.9053 17.1364 11.8504 17.404 11.6926C17.7401 11.4936 18.1243 11.3152 18.4399 11.3152C18.776 11.3152 19.0435 11.5211 19.0572 12.0975C19.1327 13.909 19.366 19.2132 19.366 19.2201H19.3454V19.2407L10.6191 19.2201ZM19.3248 19.1995C19.3111 18.8358 19.0916 13.8472 19.0161 12.0975C18.9887 11.5348 18.7554 11.3564 18.433 11.3564C18.1312 11.3564 17.747 11.5279 17.4177 11.7338C17.1364 11.9053 16.8483 11.9534 16.5464 11.9534C16.0594 11.9534 15.5448 11.823 14.996 11.823C14.4472 11.823 13.9326 11.9534 13.4387 11.9534C13.1369 11.9534 12.8418 11.8985 12.5606 11.7338C12.2244 11.5348 11.8471 11.3564 11.5453 11.3564C11.2297 11.3564 10.9965 11.5348 10.9622 12.0975C10.8867 13.909 10.6603 19.1926 10.6329 19.1995H19.3248Z" fill="#FCD116"/>
<path d="M15.6968 12.0562C15.9369 12.2003 16.3417 12.2003 16.3417 12.2003C16.3417 12.2003 15.6899 11.2945 15.8546 10.5466C16.081 9.54478 15.834 9.14678 15.4086 9.03699C15.0725 8.95465 14.9353 8.99583 14.7775 9.05073C14.6266 9.10562 14.4414 9.29774 14.4414 9.29774C14.4414 9.29774 14.2218 9.1811 14.0434 9.15365C13.8788 9.1262 13.6318 9.15364 13.6318 9.50359L13.6867 9.44871C13.6867 9.44871 13.9406 9.49673 14.0846 9.61338C14.1944 9.70259 14.3247 10.0937 14.3727 10.4437C14.4825 11.1916 13.6318 12.1934 13.6318 12.1934C13.6318 12.1934 14.0435 12.1935 14.2836 12.0494C14.1876 12.1935 14.1395 12.2483 14.0434 12.3444C14.3384 12.2895 14.7363 11.9533 14.7363 11.9533L14.9902 12.2964L15.244 11.9533C15.244 11.9533 15.6419 12.2964 15.9369 12.3444C15.8408 12.2552 15.7997 12.1934 15.6968 12.0562Z" fill="#F1F4FB"/>
<path d="M15.937 12.3651C15.642 12.3102 15.2647 11.9877 15.2578 11.9603L14.9902 12.3239L14.9765 12.3033L14.7501 11.9671C14.7501 11.9671 14.3522 12.3102 14.0504 12.3651L13.9887 12.372L14.0366 12.3239C14.1395 12.2279 14.1739 12.173 14.3042 12.0632C14.0572 12.2073 13.6456 12.2073 13.6456 12.2073H13.5977L13.625 12.173C13.625 12.173 14.3728 11.2878 14.3728 10.5741C14.3728 10.5261 14.3729 10.485 14.366 10.4369C14.318 10.087 14.1808 9.69584 14.0847 9.62036C13.9544 9.51743 13.7211 9.46254 13.7142 9.45568L13.625 9.54487V9.49685C13.625 9.19493 13.8034 9.11259 13.9612 9.11259C13.9955 9.11259 14.0298 9.11257 14.0572 9.11944C14.2287 9.15374 14.4346 9.25667 14.4346 9.2704C14.4552 9.24981 14.6335 9.07141 14.7776 9.01651C14.8736 8.9822 14.9628 8.95476 15.0863 8.95476C15.1755 8.95476 15.2784 8.96849 15.4156 9.0028C15.738 9.08514 15.9644 9.33216 15.9644 9.86053C15.9644 10.0458 15.937 10.2722 15.8752 10.5398C15.8547 10.6222 15.8478 10.7114 15.8478 10.7937C15.8478 11.4662 16.3554 12.173 16.3554 12.173L16.376 12.2073H16.3349C16.3349 12.2073 15.9987 12.2073 15.7517 12.0975C15.8203 12.1935 15.8615 12.2416 15.9438 12.3239L15.9919 12.372L15.937 12.3651ZM14.1122 12.3102C14.3866 12.2279 14.7296 11.9397 14.757 11.9397L14.9971 12.2622L15.2647 11.9397C15.2647 11.9397 15.6008 12.2279 15.8821 12.3102C15.8135 12.2416 15.7655 12.1798 15.69 12.0632L15.7106 12.0495L15.7175 12.0289C15.9095 12.1455 16.2114 12.1661 16.3143 12.1661C16.2183 12.0151 15.8204 11.3976 15.8204 10.7937C15.8204 10.7045 15.8272 10.6153 15.8478 10.5261C15.9095 10.2654 15.937 10.0389 15.937 9.86053C15.937 9.34589 15.7311 9.11944 15.4224 9.0371C15.2852 9.00279 15.1823 8.98906 15.1 8.98906C14.9765 8.98906 14.8942 9.01652 14.805 9.05083C14.6609 9.10573 14.4689 9.29099 14.4483 9.29785C14.4483 9.29785 14.2287 9.18807 14.0572 9.15376C14.0298 9.1469 13.9955 9.14689 13.9681 9.14689C13.8308 9.14689 13.6937 9.20178 13.6731 9.44194L13.7142 9.40764C13.7142 9.40764 13.968 9.45568 14.119 9.57919C14.2356 9.68212 14.366 10.0664 14.414 10.4232C14.4208 10.4712 14.4209 10.5193 14.4209 10.5673C14.4209 11.2192 13.8308 11.9877 13.6936 12.1592C13.8034 12.1524 14.1121 12.1387 14.3179 12.0495C14.2288 12.1798 14.1808 12.2416 14.1122 12.3102Z" fill="#FCD116"/>
<path d="M15.8399 9.3527C15.7164 9.14685 15.6272 9.14 15.5037 9.06452C15.2499 8.91356 14.9205 9.00962 14.7627 9.06452C14.6118 9.11941 14.4609 9.29782 14.4609 9.29782C14.4609 9.29782 14.7216 9.29096 14.8246 9.42819C14.9275 9.56543 15.0441 9.44191 15.1401 9.37329C15.2361 9.30467 15.3253 9.24293 15.4488 9.22235C15.5723 9.20862 15.8399 9.3527 15.8399 9.3527Z" fill="#FCD116"/>
<path d="M14.804 9.44881C14.7149 9.33216 14.4747 9.3253 14.4542 9.3253V9.30472L14.4404 9.29098C14.4404 9.29098 14.5914 9.10573 14.7561 9.05084C14.8521 9.01653 15.0099 8.96848 15.1814 8.96848C15.2912 8.96848 15.4078 8.98908 15.5175 9.05084C15.641 9.11945 15.7371 9.14003 15.8606 9.34589L15.84 9.35961L15.8331 9.37332C15.8331 9.37332 15.7782 9.33902 15.7028 9.31157C15.6273 9.28412 15.5381 9.24981 15.4763 9.24981C15.4695 9.24981 15.4626 9.24981 15.4557 9.24981C15.3323 9.2704 15.25 9.33216 15.1539 9.40078C15.0922 9.44195 15.0168 9.51744 14.9276 9.51744C14.8795 9.51744 14.8383 9.49685 14.804 9.44881ZM14.8315 9.42136C14.8658 9.46253 14.8933 9.47627 14.9207 9.47627C14.9824 9.47627 15.0578 9.41451 15.1196 9.36647C15.2156 9.29786 15.3049 9.23609 15.4352 9.20864C15.4421 9.20864 15.4557 9.20864 15.4626 9.20864C15.5586 9.20864 15.689 9.26355 15.7714 9.30472C15.6685 9.16748 15.593 9.15375 15.4832 9.08514C15.3872 9.03024 15.2774 9.0028 15.1677 9.0028C15.003 9.0028 14.8521 9.05083 14.7561 9.08514C14.6394 9.12631 14.5159 9.25669 14.461 9.28414C14.5296 9.28414 14.7355 9.29785 14.8315 9.42136Z" fill="#FCD116"/>
<path d="M14.9418 9.26353C14.9418 9.29784 14.9144 9.32528 14.8869 9.32528C14.8526 9.32528 14.8252 9.29784 14.8252 9.26353C14.8252 9.22922 14.8526 9.20862 14.8869 9.20862C14.9144 9.20176 14.9418 9.22922 14.9418 9.26353Z" fill="#F1F4FB"/>
<path d="M13.665 9.40761C13.665 9.40761 13.9532 9.32526 14.255 9.48309C14.5294 9.62718 14.6803 9.84676 14.6803 9.84676C14.6803 9.84676 14.5569 9.70268 14.4609 9.77816C14.3168 9.88109 14.3373 10.1418 14.3373 10.1418C14.3373 10.1418 14.3168 9.81245 14.159 9.67522C14.0013 9.5517 13.665 9.40761 13.665 9.40761Z" fill="#FFCC00"/>
<path d="M14.2354 12.0975C14.2354 12.0975 14.5715 11.6789 14.5715 11.1986C14.5715 11.1437 14.5646 11.0888 14.5578 11.0339L14.5989 11.027C14.6057 11.0819 14.6126 11.1437 14.6126 11.1986C14.6126 11.6995 14.2696 12.1249 14.2696 12.1249L14.2354 12.0975Z" fill="#FCD116"/>
<path d="M15.374 11.2054C15.374 11.1505 15.3809 11.0888 15.3878 11.027L15.429 11.0339C15.4152 11.0888 15.4152 11.1505 15.4152 11.2054C15.4152 11.6858 15.7514 12.0906 15.7514 12.0906L15.717 12.118C15.717 12.118 15.374 11.6995 15.374 11.2054Z" fill="#FCD116"/>
<path d="M14.6953 11.9739C14.709 11.9534 14.86 11.5966 14.86 11.2535C14.86 11.1848 14.86 11.1231 14.8463 11.0613L14.8874 11.0545C14.9011 11.1162 14.9012 11.1848 14.9012 11.2535C14.9012 11.6103 14.7571 11.9602 14.7296 12.0014L14.6953 11.9739Z" fill="#FCD116"/>
<path d="M15.0654 11.2329C15.0654 11.1711 15.0723 11.1025 15.0792 11.0407L15.1203 11.0476C15.1134 11.1093 15.1065 11.1711 15.1065 11.2329C15.1065 11.5828 15.2507 11.9465 15.2713 11.9602L15.2369 11.9877C15.2095 11.9534 15.0654 11.5965 15.0654 11.2329Z" fill="#FCD116"/>
<path d="M13.5905 16.2352L13.1377 16.7292L13.3435 13.1748L13.7551 13.1267L13.5905 16.2352Z" fill="#FCD116"/>
<path d="M11.1002 18.6574L10.6406 19.1515L10.9356 11.9946L11.3952 11.8162L11.1002 18.6574Z" fill="#FCD116"/>
<path d="M11.7789 18.0329L11.3193 18.527L11.6211 11.9259L12.074 12.3788L11.7789 18.0329Z" fill="#FCD116"/>
<path d="M12.4586 17.4086L12.0059 17.8957L12.246 12.5023L12.6507 12.8317L12.4586 17.4086Z" fill="#FCD116"/>
<path d="M13.0417 16.8047L12.582 17.2988L12.8084 12.9552L13.2063 13.1267L13.0417 16.8047Z" fill="#FCD116"/>
<path d="M16.3961 16.2352L16.8558 16.7292L16.6432 13.1748L16.2246 13.1267L16.3961 16.2352Z" fill="#FCD116"/>
<path d="M18.8936 18.6574L19.3464 19.1514L19.0514 11.9945L18.5918 11.8161L18.8936 18.6574Z" fill="#FCD116"/>
<path d="M18.2071 18.0329L18.6667 18.527L18.3717 11.9259L17.9121 12.3788L18.2071 18.0329Z" fill="#FCD116"/>
<path d="M17.5211 17.4086L17.9808 17.8957L17.7407 12.5023L17.3291 12.8317L17.5211 17.4086Z" fill="#FCD116"/>
<path d="M16.9449 16.8047L17.4046 17.2988L17.1781 12.9552L16.7803 13.1267L16.9449 16.8047Z" fill="#FCD116"/>
<path d="M15.0931 16.2625L15.2577 18.8769L14.997 19.2131L14.7363 18.8838L14.901 16.2625H15.0931Z" fill="#FCD116"/>
<path d="M15.1814 16.2625L15.9497 18.7397L15.7851 19.1377L15.4488 18.8975L14.9893 16.3174L15.1814 16.2625Z" fill="#FCD116"/>
<path d="M14.8045 16.2626L14.0361 18.7398L14.2076 19.1378L14.5301 18.8976L14.9966 16.3175L14.8045 16.2626Z" fill="#FCD116"/>
<path d="M13.7684 19.5562L12.1494 18.9935L13.5215 15.1372L14.8867 16.0086L13.7684 19.5562Z" fill="#F1F4FB"/>
<path d="M12.1289 18.9868L13.5078 15.103L14.9074 16.0156L13.7891 19.5632L13.7685 19.5563L13.7617 19.5769L12.1289 18.9868ZM12.1564 18.973L13.7548 19.5289L14.8799 16.0224L13.5353 15.1647L12.1564 18.973Z" fill="#FCD116"/>
<path d="M13.2612 16.6605L13.1172 16.235L13.1514 16.2213L13.2887 16.6125L13.7003 16.2145L13.7278 16.2419L13.275 16.6879L13.2612 16.6605Z" fill="#FCD116"/>
<path d="M13.624 15.542L13.6651 15.5352L13.8504 16.9418L14.2826 16.3723L14.3169 16.3929L13.8229 17.0516L13.624 15.542Z" fill="#FCD116"/>
<path d="M14.1797 16.5781L14.214 16.5575L14.5227 17.1271L14.4885 17.1477L14.1797 16.5781Z" fill="#FCD116"/>
<path d="M13.6662 17.1751L13.3507 17.6349L13.337 17.5937L13.2272 17.0379L12.7882 17.2849L12.7676 17.2506L13.234 17.0173L13.3644 17.5388L13.6868 17.079L13.8858 17.9505L14.3385 17.6143L14.366 17.6417L13.8583 18.0191L13.6662 17.1751Z" fill="#FCD116"/>
<path d="M13.8924 18.1907L13.4121 18.6916L13.2681 18.0329L12.8153 18.4583L12.5752 17.8339L12.6164 17.8133L12.8359 18.3828L13.2956 17.9574L13.4396 18.6024L13.9129 18.1083L14.0433 18.7191L14.0021 18.7259L13.8924 18.1907Z" fill="#FCD116"/>
<path d="M13.4124 19.3846L13.3369 18.87L12.891 19.2062L12.7607 18.623L12.2599 19.0347L12.2324 19.0072L12.7813 18.5475L12.9116 19.1376L13.3644 18.8014L13.3713 18.8288L13.4536 19.3366L13.975 18.8563L14.0023 18.8837L13.4192 19.4189L13.4124 19.3846Z" fill="#FCD116"/>
<path d="M16.2246 19.5631L17.8369 19.0073L16.4648 15.1441L15.0996 16.0156L16.2246 19.5631Z" fill="#F1F4FB"/>
<path d="M16.2179 19.5631L16.1973 19.57L15.0859 16.0018L16.4785 15.1167L17.8438 19.0279L16.2247 19.5837L16.2179 19.5631ZM15.1202 16.0087L16.2384 19.5357L17.8232 19.0073L16.458 15.1716L15.1202 16.0087Z" fill="#FCD116"/>
<path d="M16.2656 16.2557L16.2931 16.2214L16.6978 16.6194L16.835 16.2282L16.8762 16.2419L16.7184 16.7017L16.2656 16.2557Z" fill="#FCD116"/>
<path d="M15.6758 16.4066L15.7032 16.3792L16.1354 16.9556L16.3206 15.5489L16.3618 15.5558L16.1697 17.0585L15.6758 16.4066Z" fill="#FCD116"/>
<path d="M15.4639 17.1408L15.7726 16.5713L15.8069 16.585L15.5051 17.1546L15.4639 17.1408Z" fill="#FCD116"/>
<path d="M15.6279 17.6555L15.6485 17.6212L16.1013 17.9574L16.3003 17.0928L16.6227 17.5526L16.7599 17.0036L17.2264 17.2644L17.2058 17.2987L16.7874 17.0654L16.6433 17.6486L16.3208 17.1889L16.1288 18.026L15.6279 17.6555Z" fill="#FCD116"/>
<path d="M15.9434 18.726L16.0805 18.1153L16.5539 18.6162L16.698 17.9712L17.1576 18.3966L17.3771 17.8271L17.4183 17.8408L17.1713 18.4652L16.7254 18.0467L16.5745 18.6985L16.1011 18.1976L15.9845 18.7328L15.9434 18.726Z" fill="#FCD116"/>
<path d="M15.9912 18.8975L16.0187 18.8701L16.5401 19.3504L16.6293 18.8083L17.0752 19.1445L17.2055 18.5613L17.7612 19.0142L17.7337 19.0485L17.233 18.6367L17.1026 19.2132L16.6566 18.8838L16.5675 19.4259L15.9912 18.8975Z" fill="#FCD116"/>
<path d="M16.6845 19.2062C16.2797 19.2611 15.8268 19.3023 15.4907 19.2611C15.2849 19.2611 15.134 19.6042 15.5319 19.6522C15.8886 19.7003 16.4375 19.6522 16.7324 19.6042C16.9863 19.5562 17.5351 19.4601 17.885 19.3572C18.2349 19.2062 17.981 18.9043 17.7821 18.9523C17.4802 19.0553 17.0824 19.1513 16.6845 19.2062Z" fill="#F1F4FB"/>
<path d="M15.5321 19.6729C15.3469 19.6523 15.2645 19.5562 15.2645 19.4602C15.2645 19.3504 15.3674 19.2406 15.4978 19.2406C15.5938 19.2543 15.6968 19.2612 15.8134 19.2612C16.0878 19.2612 16.4033 19.2269 16.6914 19.1857C17.0893 19.1308 17.4804 19.0348 17.7891 18.9318C17.8029 18.925 17.8166 18.925 17.8371 18.925C17.9606 18.925 18.0841 19.0279 18.091 19.1583C18.091 19.2406 18.0361 19.3229 17.8989 19.3778C17.5421 19.4808 16.9933 19.5768 16.7395 19.6249C16.5268 19.6592 16.1907 19.6935 15.882 19.6935C15.7516 19.6935 15.635 19.6866 15.5321 19.6729ZM15.3057 19.4602C15.3057 19.5357 15.3606 19.6111 15.539 19.6317C15.6419 19.6455 15.7585 19.6523 15.882 19.6523C16.1838 19.6523 16.52 19.618 16.7326 19.5837C16.9865 19.5357 17.5353 19.4396 17.8852 19.3367C18.0087 19.2818 18.0498 19.2132 18.0498 19.1583C18.0498 19.0622 17.94 18.9661 17.8371 18.9661C17.8234 18.9661 17.8097 18.9661 17.8028 18.973C17.4941 19.0759 17.0962 19.172 16.6983 19.2269C16.4102 19.2612 16.0947 19.2955 15.8134 19.2955C15.7036 19.2955 15.5938 19.2886 15.4978 19.2749C15.388 19.2818 15.3057 19.371 15.3057 19.4602Z" fill="#FCD116"/>
<path d="M15.5321 19.6729C15.3469 19.6523 15.2645 19.5562 15.2645 19.4533C15.2645 19.3435 15.3606 19.2406 15.4772 19.2406C15.4841 19.2406 15.4909 19.2406 15.4909 19.2406C15.532 19.2406 15.587 19.2406 15.6419 19.2406C16.0192 19.2406 16.6298 19.1857 16.6778 19.1857C16.6778 19.1857 17.4667 19.021 17.7754 18.9318C17.7891 18.925 17.8097 18.925 17.8234 18.925C17.9469 18.925 18.0772 19.0416 18.0772 19.1651C18.0772 19.2475 18.0224 19.3298 17.8852 19.3778C17.5353 19.5014 16.7258 19.6249 16.7258 19.6249C16.7258 19.6249 16.1701 19.6866 15.7722 19.6866C15.683 19.6866 15.6007 19.6866 15.5321 19.6729ZM15.3057 19.4533C15.3057 19.5288 15.3606 19.6111 15.539 19.6317C15.6076 19.6386 15.6899 19.6454 15.779 19.6454C16.1769 19.6454 16.7326 19.5837 16.7326 19.5837C16.7326 19.5837 17.5422 19.4602 17.8852 19.3367C18.0087 19.2886 18.0498 19.2269 18.0498 19.1651C18.0498 19.0691 17.94 18.9661 17.8371 18.9661C17.8234 18.9661 17.8097 18.9661 17.796 18.973C17.4873 19.0622 16.6914 19.2269 16.6914 19.2269L16.6847 19.2063V19.2269C16.6847 19.2269 16.0398 19.2818 15.6419 19.2818C15.5801 19.2818 15.5253 19.2818 15.4841 19.2749H15.4772C15.3812 19.2818 15.3057 19.371 15.3057 19.4533Z" fill="#FCD116"/>
<path d="M16.9306 19.5494C16.9443 19.6866 16.8072 19.968 16.8072 19.968C16.8072 19.968 16.5739 19.7209 16.5602 19.5837C16.5465 19.4533 16.6219 19.3298 16.7248 19.3229C16.8209 19.3092 16.9169 19.4122 16.9306 19.5494Z" fill="#F1F4FB"/>
<path d="M16.787 19.9816C16.787 19.9816 16.5538 19.7414 16.5332 19.5836C16.5332 19.5767 16.5332 19.563 16.5332 19.5493C16.5332 19.4189 16.6087 19.3091 16.7116 19.2954C16.7184 19.2954 16.7253 19.2954 16.7322 19.2954C16.8419 19.2954 16.9311 19.4052 16.9517 19.5356C16.9517 19.5424 16.9517 19.5493 16.9517 19.5562C16.9517 19.7071 16.8281 19.961 16.8281 19.961L16.8145 19.9884L16.787 19.9816ZM16.7322 19.3434C16.7322 19.3434 16.7253 19.3434 16.7184 19.3434C16.643 19.3503 16.5743 19.4395 16.5743 19.5562C16.5743 19.563 16.5743 19.5767 16.5743 19.5836C16.588 19.6865 16.739 19.8718 16.8008 19.9336C16.8351 19.8649 16.9105 19.6728 16.9105 19.5699C16.9105 19.563 16.9105 19.5562 16.9105 19.5493C16.8967 19.4258 16.8145 19.3434 16.7322 19.3434Z" fill="#FCD116"/>
<path d="M15.4975 19.6591C15.4769 19.7963 15.3603 19.7208 15.2574 20.009C15.127 19.8512 15.1064 19.7414 15.127 19.6042C15.1407 19.4669 15.2437 19.3709 15.3397 19.3846C15.4495 19.3983 15.5181 19.5218 15.4975 19.6591Z" fill="#F1F4FB"/>
<path d="M15.2436 20.0228C15.1407 19.8993 15.0996 19.7964 15.0996 19.6934C15.0996 19.666 15.0995 19.6385 15.1064 19.6111C15.127 19.4739 15.2162 19.3778 15.326 19.3709C15.3328 19.3709 15.3397 19.3709 15.3466 19.3709C15.4563 19.3846 15.5181 19.4945 15.5181 19.618C15.5181 19.6317 15.5181 19.6454 15.5181 19.666C15.4906 19.8238 15.3739 19.7415 15.2779 20.0228L15.2642 20.0571L15.2436 20.0228ZM15.1545 19.6111C15.1476 19.6385 15.1476 19.666 15.1476 19.6934C15.1476 19.7826 15.1751 19.865 15.2574 19.9679C15.3603 19.714 15.4769 19.7689 15.4837 19.6523C15.4837 19.6385 15.4837 19.6248 15.4837 19.6111C15.4837 19.5013 15.4289 19.4121 15.3466 19.4052C15.3397 19.4052 15.3397 19.4052 15.3328 19.4052C15.2505 19.4052 15.1682 19.4876 15.1545 19.6111Z" fill="#FCD116"/>
<path d="M17.9192 19.3641C17.9879 19.4808 18.0702 19.371 18.2691 19.5974C18.3309 19.3984 18.3034 19.2955 18.2417 19.1788C18.1731 19.0622 18.0427 19.0073 17.9535 19.0622C17.8712 19.1102 17.8575 19.2475 17.9192 19.3641Z" fill="#F1F4FB"/>
<path d="M18.2553 19.6111C18.0633 19.3915 17.9878 19.5081 17.9055 19.3778L17.9261 19.3641L17.9466 19.3572C17.9946 19.4533 18.077 19.3641 18.2691 19.5562C18.2897 19.4944 18.2965 19.4464 18.2965 19.3984C18.2965 19.316 18.269 19.2543 18.2347 19.1856C18.1867 19.1033 18.1112 19.0553 18.0426 19.0553C18.0152 19.0553 17.9946 19.0621 17.9809 19.0759C17.9398 19.1033 17.9123 19.1513 17.9123 19.2131C17.9123 19.2543 17.926 19.3092 17.9534 19.3572L17.9329 19.3641L17.9123 19.3778C17.878 19.3229 17.8643 19.268 17.8643 19.2131C17.8643 19.1376 17.8917 19.0759 17.9466 19.0416C17.974 19.0278 18.0015 19.021 18.0358 19.021C18.1249 19.021 18.2073 19.0759 18.2622 19.1719C18.3034 19.2405 18.3308 19.316 18.3308 19.4052C18.3308 19.467 18.317 19.5287 18.2965 19.6111L18.2827 19.6454L18.2553 19.6111Z" fill="#FCD116"/>
<path d="M15.7236 19.4944V19.4532H15.9912V19.4944H15.7236Z" fill="#FCD116"/>
<path d="M16.1426 19.4395L16.3964 19.4258V19.4738L16.1426 19.4807V19.4395Z" fill="#FCD116"/>
<path d="M17.0273 19.3366L17.2743 19.2817L17.2812 19.3229L17.0342 19.3778L17.0273 19.3366Z" fill="#FCD116"/>
<path d="M17.4189 19.2474L17.659 19.1925L17.6728 19.2405L17.4257 19.2886L17.4189 19.2474Z" fill="#FCD116"/>
<path d="M13.323 19.2062C13.7277 19.2611 14.1805 19.3022 14.5235 19.261C14.7293 19.261 14.8734 19.6041 14.4755 19.6522C14.1256 19.7002 13.5699 19.6522 13.2749 19.6041C13.0211 19.5561 12.4723 19.4601 12.1224 19.3571C11.7726 19.2062 12.0264 18.9042 12.2185 18.9523C12.5272 19.0552 12.9251 19.1513 13.323 19.2062Z" fill="#F1F4FB"/>
<path d="M13.2753 19.6248C13.0214 19.5768 12.4726 19.4807 12.1159 19.3778C11.9856 19.3229 11.9307 19.2405 11.9307 19.1582C11.9307 19.0347 12.0541 18.9249 12.1845 18.9249C12.1982 18.9249 12.2119 18.9249 12.2325 18.9318C12.5412 19.0347 12.9323 19.1308 13.3302 19.1856C13.6183 19.2268 13.927 19.2611 14.2082 19.2611C14.318 19.2611 14.4278 19.2543 14.5239 19.2405C14.6474 19.2405 14.7502 19.3503 14.7502 19.4601C14.7502 19.5562 14.6679 19.6522 14.4827 19.6728C14.3798 19.6866 14.2631 19.6934 14.1328 19.6934C13.8241 19.6934 13.4811 19.6591 13.2753 19.6248ZM11.965 19.1582C11.965 19.22 12.0061 19.2886 12.1228 19.3366C12.4726 19.4327 13.0214 19.5356 13.2753 19.5836C13.4879 19.6179 13.8241 19.6523 14.1259 19.6523C14.2494 19.6523 14.366 19.6454 14.4689 19.6317C14.6473 19.6111 14.7022 19.5287 14.7022 19.4601C14.7022 19.3709 14.6199 19.2817 14.517 19.2817C14.4141 19.2954 14.3112 19.3023 14.1946 19.3023C13.9133 19.3023 13.5977 19.268 13.3096 19.2337C12.9117 19.1788 12.5138 19.0827 12.2051 18.9798C12.1914 18.9798 12.1776 18.9729 12.1708 18.9729C12.0747 18.9729 11.965 19.0621 11.965 19.1582Z" fill="#FCD116"/>
<path d="M13.2743 19.6249C13.2743 19.6249 12.4648 19.5082 12.115 19.3778C11.9778 19.3298 11.9229 19.2475 11.9229 19.1651C11.9229 19.0416 12.0463 18.925 12.1767 18.925C12.1904 18.925 12.211 18.925 12.2247 18.9318C12.5335 19.0142 13.3224 19.1857 13.3224 19.1857C13.3635 19.1926 13.9741 19.2406 14.3583 19.2406C14.4132 19.2406 14.468 19.2406 14.5161 19.2406C14.5161 19.2406 14.5229 19.2406 14.5298 19.2406C14.6464 19.2406 14.7424 19.3435 14.7424 19.4533C14.7424 19.5494 14.6601 19.6523 14.4749 19.6729C14.4063 19.6798 14.3239 19.6866 14.2279 19.6866C13.83 19.6866 13.2743 19.6249 13.2743 19.6249ZM11.9641 19.1651C11.9641 19.2269 12.0052 19.2886 12.1287 19.3367C12.4717 19.4602 13.2812 19.5837 13.2812 19.5837C13.2812 19.5837 13.8369 19.6454 14.2348 19.6454C14.3308 19.6454 14.4131 19.6455 14.4749 19.6317C14.6532 19.6111 14.7082 19.5288 14.7082 19.4533C14.7082 19.3641 14.6258 19.2749 14.5367 19.2749H14.5298C14.4818 19.2749 14.4337 19.2818 14.3719 19.2818C13.974 19.2818 13.3292 19.2269 13.3292 19.2269C13.3292 19.2269 12.5403 19.0553 12.2247 18.973C12.211 18.973 12.1973 18.9661 12.1835 18.9661C12.0738 18.9661 11.9641 19.0691 11.9641 19.1651Z" fill="#FCD116"/>
<path d="M13.083 19.5493C13.0693 19.6865 13.2065 19.9678 13.2065 19.9678C13.2065 19.9678 13.4398 19.7208 13.4535 19.5836C13.4672 19.4532 13.3917 19.3297 13.2957 19.3228C13.1859 19.3091 13.0967 19.412 13.083 19.5493Z" fill="#F1F4FB"/>
<path d="M13.1861 19.9748C13.1861 19.9748 13.0557 19.7209 13.0557 19.57C13.0557 19.5631 13.0557 19.5562 13.0557 19.5494C13.0694 19.4121 13.1586 19.3092 13.2684 19.3092C13.2752 19.3092 13.2821 19.3092 13.289 19.3092C13.3919 19.3161 13.4673 19.4327 13.4673 19.5562C13.4673 19.57 13.4673 19.5768 13.4673 19.5905C13.4536 19.7415 13.2135 19.9817 13.2135 19.9885L13.1929 20.0091L13.1861 19.9748ZM13.0969 19.57C13.0969 19.6729 13.1792 19.865 13.2067 19.9336C13.2615 19.8719 13.4193 19.6866 13.4261 19.5837C13.4261 19.57 13.4261 19.5631 13.4261 19.5494C13.4261 19.4396 13.3644 19.3504 13.2821 19.3435C13.2752 19.3435 13.2752 19.3435 13.2684 19.3435C13.186 19.3435 13.1037 19.4327 13.09 19.5494C13.0969 19.5562 13.0969 19.5631 13.0969 19.57Z" fill="#FCD116"/>
<path d="M14.5095 19.6591C14.5301 19.7964 14.6468 19.7209 14.7497 20.0091C14.88 19.8512 14.9006 19.7415 14.88 19.6042C14.8594 19.467 14.7634 19.3709 14.6605 19.3847C14.5576 19.3984 14.4889 19.5219 14.5095 19.6591Z" fill="#F1F4FB"/>
<path d="M14.7294 20.016C14.6333 19.7347 14.5167 19.8239 14.4893 19.6592C14.4893 19.6386 14.4824 19.6249 14.4824 19.6112C14.4824 19.4876 14.551 19.3847 14.6539 19.371C14.6608 19.371 14.6676 19.371 14.6813 19.371C14.7911 19.371 14.8803 19.4739 14.9078 19.6112C14.9078 19.6386 14.9146 19.666 14.9146 19.6935C14.9146 19.7964 14.8803 19.8994 14.7705 20.0297L14.75 20.0572L14.7294 20.016ZM14.7568 19.968C14.8392 19.8582 14.8666 19.7759 14.8666 19.6866C14.8666 19.6592 14.8665 19.6317 14.8597 19.6112C14.8391 19.4876 14.7569 19.4053 14.6745 19.4053C14.6677 19.4053 14.6608 19.4053 14.6608 19.4053C14.5853 19.4122 14.5235 19.5014 14.5235 19.6043C14.5235 19.618 14.5235 19.6317 14.5304 19.6523L14.5098 19.6592H14.5304C14.5373 19.7621 14.6539 19.7141 14.7568 19.968Z" fill="#FCD116"/>
<path d="M12.0888 19.3641C12.0202 19.4808 11.9379 19.371 11.739 19.5974C11.6772 19.3984 11.6977 19.2955 11.7663 19.1788C11.8349 19.0622 11.9653 19.0073 12.0545 19.0622C12.1437 19.1102 12.1574 19.2475 12.0888 19.3641Z" fill="#F1F4FB"/>
<path d="M11.718 19.6042C11.6905 19.5219 11.6768 19.4601 11.6768 19.3984C11.6768 19.3092 11.7043 19.2406 11.7454 19.1651C11.8003 19.069 11.8895 19.0141 11.9787 19.0141C12.0061 19.0141 12.0335 19.021 12.061 19.0347C12.1227 19.069 12.1502 19.1376 12.1502 19.2063C12.1502 19.2612 12.1364 19.316 12.109 19.3709C12.0198 19.5013 11.9512 19.3847 11.7523 19.6042L11.7248 19.6317L11.718 19.6042ZM11.7865 19.1857C11.7454 19.2543 11.7248 19.316 11.7248 19.3984C11.7248 19.4464 11.7317 19.4945 11.7523 19.5562C11.9444 19.3572 12.0267 19.4464 12.0747 19.3572C12.1021 19.3092 12.1158 19.2612 12.1158 19.2131C12.1158 19.1514 12.0884 19.0965 12.0472 19.0759C12.0267 19.0622 12.0061 19.0553 11.9855 19.0553C11.9101 19.0553 11.8346 19.1033 11.7865 19.1857Z" fill="#FCD116"/>
<path d="M14.0225 19.4944V19.4533H14.29V19.4944H14.0225Z" fill="#FCD116"/>
<path d="M13.6113 19.4739L13.6182 19.4259L13.8652 19.4396V19.4808L13.6113 19.4739Z" fill="#FCD116"/>
<path d="M12.7266 19.3229L12.7403 19.2818L12.9804 19.3367L12.9735 19.3778L12.7266 19.3229Z" fill="#FCD116"/>
<path d="M12.3418 19.2406L12.3487 19.1926L12.5956 19.2475L12.5819 19.2886L12.3418 19.2406Z" fill="#FCD116"/>
<path d="M15.0029 12.6051C15.5105 12.9963 16.1554 13.1952 16.9032 13.1541C16.8483 14.9038 16.3543 16.0978 15.0029 17.0036C13.6514 16.1047 13.1506 14.9038 13.1025 13.1541C13.8503 13.1952 14.5089 12.9963 15.0029 12.6051Z" fill="#F1F4FB"/>
<path d="M13.1025 13.1336C13.1711 13.1404 13.2329 13.1405 13.3015 13.1405C13.967 13.1405 14.5432 12.9483 14.9891 12.5915L15.0029 12.6052L15.0166 12.5915C15.4762 12.9483 16.0456 13.1405 16.7111 13.1405C16.7728 13.1405 16.8414 13.1404 16.9306 13.1542C16.8757 14.9039 16.3818 16.1116 14.996 17.0174C13.6376 16.1116 13.13 14.9039 13.1025 13.1336ZM14.9891 16.9831C16.3337 16.0842 16.8277 14.8971 16.9032 13.1748C16.8346 13.1816 16.7659 13.1816 16.7042 13.1816C16.0387 13.1816 15.4625 12.9895 15.0029 12.6327C14.5501 12.9895 13.967 13.1816 13.3015 13.1816C13.2398 13.1816 13.1712 13.1816 13.1231 13.1542C13.178 14.8971 13.6719 16.0842 14.9891 16.9831Z" fill="#FCD116"/>
<path d="M15.5794 13.113C15.3668 13.0375 15.1815 12.9346 15.0306 12.7973C14.8522 12.9346 14.6533 13.0375 14.4337 13.1198C14.0907 13.2434 13.7066 13.2982 13.2812 13.2982C13.3636 14.5608 13.7546 15.5695 14.4337 16.2831C14.6121 16.4753 14.811 16.6468 15.0306 16.7978C15.2364 16.6605 15.4148 16.5027 15.5794 16.3312C16.286 15.6107 16.6908 14.5883 16.732 13.2982C16.3272 13.2982 15.9224 13.2433 15.5794 13.113Z" fill="#FCD116"/>
<path d="M14.4132 16.3037C13.734 15.5832 13.3361 14.5676 13.2812 13.2707C13.7066 13.2707 14.0838 13.2158 14.4269 13.0923C14.6464 13.0168 14.8386 12.9139 15.0169 12.7767L15.0306 12.7629L15.0443 12.7767C15.1952 12.9071 15.3805 13.01 15.5863 13.0854L15.5794 13.1129L15.5726 13.1335C15.3668 13.058 15.1815 12.962 15.0306 12.8247C14.8522 12.962 14.6601 13.058 14.4406 13.1404C14.0976 13.2639 13.7065 13.3188 13.3086 13.2913C13.3841 14.547 13.782 15.5489 14.4543 16.2625C14.6327 16.4546 14.8248 16.6262 15.0169 16.7771C15.2159 16.6467 15.401 16.4821 15.5657 16.3105C16.2654 15.5969 16.6702 14.5813 16.7388 13.3187C16.334 13.3187 15.9293 13.2639 15.5794 13.1335L15.5863 13.1129L15.5932 13.0854C15.9362 13.2158 16.3409 13.2707 16.7594 13.2913C16.7182 14.5882 16.3135 15.6243 15.6 16.3448C15.4285 16.5164 15.2502 16.6811 15.0169 16.8183C14.7905 16.6742 14.5916 16.4958 14.4132 16.3037Z" fill="#FCD116"/>
<path d="M15.0304 12.8041C14.8521 12.9413 14.6531 13.0442 14.4336 13.1266V16.2899C14.612 16.482 14.8109 16.6536 15.0304 16.8045C15.2362 16.6673 15.4146 16.5095 15.5793 16.3379V13.1197C15.3666 13.0374 15.1745 12.9345 15.0304 12.8041Z" fill="#F1F4FB"/>
<path d="M13.2812 13.2981C13.3636 14.5607 13.7546 15.5694 14.4337 16.2831V13.1198C14.0907 13.2433 13.7066 13.2981 13.2812 13.2981Z" fill="#FCD116"/>
<path d="M15.5801 13.1129V16.3311C16.2867 15.6106 16.6915 14.5882 16.7326 13.2981C16.3279 13.2981 15.9231 13.2432 15.5801 13.1129Z" fill="#FCD116"/>
</svg>
