<svg width="30" height="30" viewBox="0 0 30 30" fill="none" xmlns="http://www.w3.org/2000/svg">
<path d="M2.36792 23.0568C5.03032 27.2288 9.68955 30.001 15.0075 30.001C21.5125 30.001 27.0294 25.8564 29.1086 20.0719H4.60489L2.36792 23.0568Z" fill="#008000"/>
<path d="M8.40574 15.001L4.60425 20.0719H29.1079C29.6775 18.4868 30 16.7851 30 15.001C30 13.2169 29.6775 11.522 29.1079 9.93695H4.60425L8.40574 15.001Z" fill="white"/>
<path d="M29.1145 9.93699C27.0354 4.14558 21.5116 0.0010376 15.0134 0.0010376C9.69547 0.0010376 5.03624 2.77322 2.37384 6.94523L4.61768 9.93012H29.1145V9.93699Z" fill="black"/>
<path d="M4.60428 9.93698L2.36048 6.95209C1.7635 7.8853 1.2763 8.88025 0.898901 9.93698C0.329367 11.5221 0 13.2238 0 15.001C0 16.7851 0.329367 18.4869 0.898901 20.0719C1.28316 21.1287 1.77036 22.1305 2.36048 23.0568L4.60428 20.0719L8.40577 15.001L4.60428 9.93698Z" fill="#CC0000"/>
<path d="M14.233 15.001C14.233 13.0248 15.6809 11.3849 17.5747 11.0898C17.3071 11.0349 17.0326 11.0006 16.7444 11.0006C14.5349 11.0006 12.744 12.7915 12.744 15.001C12.744 17.2106 14.5349 19.0015 16.7444 19.0015C17.0326 19.0015 17.3071 18.9672 17.5747 18.9123C15.6809 18.6173 14.233 16.9773 14.233 15.001Z" fill="#CC0000"/>
<path d="M17.7181 12.3798L18.3699 14.3834H20.4765L18.7748 15.6255L19.4198 17.6223L17.7181 16.3871L16.0163 17.6223L16.6682 15.6255L14.9665 14.3834H17.0731L17.7181 12.3798Z" fill="#CC0000"/>
</svg>
