<svg width="30" height="30" viewBox="0 0 30 30" fill="none" xmlns="http://www.w3.org/2000/svg">
<path d="M30 15.0001C30 6.71788 23.2822 0.000137329 15 0.000137329C9.79181 0.000137329 5.20809 2.65568 2.51825 6.67672L15 15.0001H30Z" fill="#12AD2B"/>
<path d="M30 15H15L2.51825 23.3234C5.20809 27.3513 9.79181 30 15 30C23.2822 30 30 23.2822 30 15Z" fill="#4189DD"/>
<path d="M2.5183 6.67674C0.926348 9.0578 0 11.9192 0 15.0001C0 18.0811 0.926348 20.9425 2.5183 23.3236L29.9931 15.0001L2.5183 6.67674Z" fill="#EA0437"/>
<path d="M9.6411 10.2997C9.66168 10.3066 9.68912 10.3203 9.70971 10.334C9.99104 10.5193 10.2518 10.7251 10.4851 10.9653C10.6978 11.178 10.89 11.425 11.0341 11.6995C11.0478 11.7201 11.0684 11.7338 11.0821 11.7475C11.233 11.8573 11.3634 11.9808 11.4732 12.1249C11.583 12.269 11.6653 12.4337 11.7477 12.6053C11.7477 12.4955 11.7477 12.3857 11.734 12.2759C11.734 12.2004 11.7202 12.1181 11.7065 12.0426C11.6722 11.8505 11.631 11.6583 11.5281 11.4937C11.5007 11.4456 11.4663 11.4113 11.432 11.377C11.5761 11.3701 11.7202 11.4387 11.8163 11.5485C11.9192 11.6721 11.9878 11.823 12.0427 11.974C12.1594 12.3171 12.2074 12.6739 12.2417 13.0307C12.2486 13.1405 12.2555 13.2571 12.2692 13.3601C12.3035 13.3601 12.3172 13.3189 12.3241 13.2915C12.3721 13.1611 12.379 13.017 12.3927 12.8729C12.3996 12.6808 12.3996 12.4955 12.3584 12.3102C12.3515 12.2896 12.3515 12.2759 12.3515 12.2553C12.5574 12.468 12.6878 12.7425 12.7495 13.0239C12.7564 13.0582 12.7632 13.0925 12.7632 13.1268L12.7701 13.1336C12.777 13.2022 12.7838 13.264 12.7907 13.3326C12.8113 13.7443 12.7358 14.1492 12.626 14.5403C12.578 14.7119 12.5231 14.8834 12.4682 15.0481C12.4545 15.0893 12.4339 15.1373 12.427 15.1785C12.4682 15.1647 12.5025 15.1304 12.5299 15.103C12.6191 15.0069 12.6809 14.8903 12.7289 14.7667C12.7838 14.6364 12.8181 14.4923 12.8181 14.3482C12.8181 14.3207 12.8181 14.2933 12.8181 14.2658C12.8662 14.307 12.9073 14.355 12.9416 14.4099C13.0514 14.5678 13.0995 14.7599 13.0926 14.952C13.0789 15.1991 12.9897 15.4392 12.873 15.6588C12.6672 16.0636 12.3858 16.4205 12.1388 16.8047C12.1319 16.8184 12.1251 16.8253 12.1182 16.8322C12.228 16.7773 12.3241 16.7018 12.4201 16.6263C12.7427 16.3518 13.0309 16.0087 13.1818 15.6039C13.1818 15.6039 13.1887 15.6039 13.1955 15.597C13.2298 15.7274 13.223 15.8715 13.2093 16.0019C13.1749 16.2077 13.0926 16.3999 12.9828 16.5714C12.8867 16.7292 12.7701 16.8733 12.6397 17.0106C12.379 17.2851 12.077 17.5183 11.7614 17.7242C11.6242 17.8134 11.4869 17.8958 11.3428 17.9644C11.3634 17.9712 11.3909 17.9712 11.4115 17.9712C11.583 17.9644 11.7477 17.9026 11.9192 17.8957C11.9947 17.8957 12.077 17.9026 12.1457 17.9369C12.029 18.0879 11.8643 18.1977 11.6997 18.2937C11.5075 18.3967 11.3085 18.4927 11.1095 18.5682C10.6566 18.7398 10.1832 18.8633 9.70971 18.9388C9.35289 19.0005 8.99608 19.028 8.6324 19.0417C8.74905 19.0829 8.8657 19.1378 8.96177 19.2201C9.0647 19.3024 9.14704 19.4191 9.18135 19.5563C9.19508 19.6044 9.18821 19.6524 9.18821 19.7004C8.59809 19.7004 8.00797 19.7004 7.41785 19.7004C7.41099 19.5563 7.47275 19.4122 7.56881 19.3024C7.6786 19.1789 7.8227 19.0966 7.97366 19.0554C7.5894 19.0348 7.20514 19.0074 6.82773 18.9456C6.48464 18.8839 6.13469 18.7946 5.83277 18.6231C5.67495 18.5339 5.53085 18.4172 5.41419 18.28C5.38675 18.2457 5.34557 18.2251 5.3044 18.1977C4.99562 18.0193 4.65253 17.9232 4.30258 17.8477C4.36434 17.7654 4.46726 17.7242 4.56332 17.7105C4.72114 17.6899 4.87897 17.7242 5.02993 17.7722C5.16031 17.8134 5.29068 17.8683 5.41419 17.9232C5.46223 17.9438 5.5034 17.9712 5.55143 17.985C5.4485 17.8683 5.31127 17.7928 5.18089 17.7174C4.87211 17.5389 4.54961 17.3605 4.28199 17.1204C4.01438 16.8802 3.7948 16.5714 3.69187 16.2215C3.6507 16.0774 3.63012 15.9333 3.61639 15.7823C3.62326 15.7823 3.63012 15.7823 3.63698 15.7823C3.7056 15.8852 3.78108 15.9882 3.86342 16.0842C4.10359 16.3793 4.36434 16.6538 4.67998 16.8665C4.73488 16.9008 4.77605 16.942 4.8378 16.9557C4.59764 16.64 4.35748 16.3312 4.16534 15.9882C4.00752 15.7137 3.87714 15.4255 3.82911 15.1167C3.80852 14.9932 3.81539 14.8628 3.82225 14.7393C3.84284 14.5884 3.88401 14.4374 3.95949 14.3139C3.97321 14.3482 3.97321 14.3825 3.98693 14.4168C4.04869 14.6707 4.1722 14.9108 4.28199 15.151C4.28886 15.1441 4.29572 15.1304 4.30258 15.1236C4.30258 15.1373 4.30944 15.151 4.30944 15.1647C4.3163 15.1304 4.30943 15.103 4.29571 15.0755C4.23395 14.8285 4.20651 14.5678 4.17906 14.3139C4.17906 14.307 4.18592 14.3001 4.19279 14.2933C4.16534 14.259 4.17221 14.2041 4.16534 14.1629C4.16534 14.0943 4.15162 14.0257 4.15162 13.9502C4.13789 13.7718 4.14475 13.6002 4.14475 13.415C4.15847 13.1817 4.17906 12.9415 4.24081 12.7151C4.26826 12.619 4.30943 12.5161 4.39178 12.4474C4.41922 12.4817 4.43982 12.5229 4.45354 12.5641C4.53588 12.7631 4.56333 12.9827 4.59078 13.1954C4.61136 13.4356 4.59764 13.6757 4.6045 13.909C4.65253 13.8198 4.65253 13.7238 4.66626 13.6208C4.67312 13.5659 4.67311 13.511 4.67311 13.4561C4.68684 13.3326 4.67312 13.2091 4.68684 13.0856C4.68684 12.9964 4.68684 12.9072 4.6937 12.8249C4.70056 12.7425 4.68684 12.6602 4.70057 12.5778C4.70057 12.5023 4.72115 12.4269 4.71428 12.3514C4.71428 12.3651 4.72115 12.3788 4.72115 12.3926C4.74174 12.2073 4.7829 12.0152 4.84466 11.8367C4.92014 11.6309 5.04365 11.425 5.22892 11.3084C5.29068 11.2672 5.35243 11.2329 5.42105 11.2192C5.37988 11.3839 5.33872 11.5486 5.31127 11.7132C5.28382 11.8642 5.25637 12.0083 5.22892 12.1524C5.20147 12.2896 5.16717 12.42 5.13286 12.5572C5.16717 12.5229 5.18776 12.468 5.21521 12.4269C5.31127 12.2622 5.43478 12.1044 5.59947 12.0014C5.62005 11.9877 5.6475 11.9808 5.66122 11.9603C5.81218 11.6789 6.01117 11.425 6.21703 11.1849C6.4023 10.979 6.60816 10.7732 6.84146 10.6222C6.96497 10.5467 7.10907 10.4712 7.26003 10.5124C7.26003 10.5261 7.26003 10.5399 7.24631 10.5467C7.09535 10.7526 6.92381 10.9447 6.73854 11.1231C6.72481 11.1368 6.71108 11.1506 6.71108 11.1711C6.95125 11.0202 7.19828 10.8898 7.46589 10.7869C7.74037 10.6771 8.02856 10.5947 8.32362 10.5879C8.47458 10.5879 8.63927 10.6085 8.76278 10.7045C8.63927 10.8006 8.48831 10.8761 8.34421 10.9241C8.02856 11.0339 7.69233 11.0888 7.38354 11.2054C7.32865 11.226 7.27376 11.2535 7.21886 11.2741C7.2669 11.2947 7.32179 11.3015 7.37668 11.3152C7.62371 11.3495 7.8776 11.3358 8.11091 11.2672C8.15894 11.2535 8.2001 11.2329 8.255 11.226C8.19324 11.3907 8.03542 11.5005 7.87074 11.5485C7.66488 11.6103 7.4453 11.5966 7.23258 11.5966C7.09534 11.6034 6.94439 11.6103 6.82088 11.6789C6.76598 11.7064 6.73167 11.7475 6.6905 11.7956C6.89635 11.8367 7.11593 11.8299 7.32179 11.7681C7.33551 11.7613 7.34924 11.7613 7.3561 11.7613C7.32865 11.8093 7.28748 11.8573 7.23945 11.8916C7.11594 11.9808 6.97184 12.0151 6.82088 12.022C6.62874 12.022 6.42975 12.0357 6.24448 12.0769C5.97687 12.1387 5.72298 12.2759 5.54457 12.4886C5.4142 12.6396 5.32499 12.8248 5.25638 13.0101C5.24265 13.0581 5.22893 13.1062 5.21521 13.1611C5.24952 13.1336 5.27696 13.0925 5.3044 13.0582C5.44164 12.8935 5.55829 12.7151 5.70239 12.5504C5.75042 12.5024 5.7916 12.4543 5.84649 12.4131C5.85336 12.4063 5.86708 12.4063 5.88081 12.4063C5.90825 12.468 5.93569 12.5367 5.93569 12.6053C5.94255 12.7425 5.88766 12.8797 5.81904 12.9964C5.74356 13.1268 5.64064 13.2434 5.5034 13.312C5.43478 13.3532 5.37303 13.4013 5.31127 13.4493C5.17403 13.5728 5.05051 13.7169 4.96131 13.8816C4.89269 14.0051 4.84467 14.1423 4.85153 14.2796C4.85839 14.2796 4.85838 14.2796 4.86524 14.2796C4.95445 14.1766 5.02993 14.06 5.07796 13.9365C5.09855 13.8884 5.11914 13.8335 5.16031 13.7992C5.19462 13.8953 5.20148 13.9982 5.18775 14.1011C5.16031 14.2796 5.08482 14.4511 5.00248 14.6089C4.95445 14.6981 4.927 14.8011 4.89956 14.8971C4.87897 15.0275 4.85839 15.151 4.85153 15.2814C4.84467 15.3912 4.82407 15.4941 4.81035 15.6039C4.83093 15.5833 4.84467 15.5559 4.85153 15.5353C4.94073 15.3363 4.98876 15.1236 5.03679 14.9177C5.06424 14.8079 5.08483 14.6981 5.11914 14.5952C5.13286 14.7187 5.15344 14.8422 5.18775 14.9657C5.23579 15.1853 5.31127 15.3912 5.35244 15.6108C5.37989 15.7343 5.35244 15.8646 5.3044 15.9882C5.25637 16.1048 5.1809 16.2146 5.16031 16.345C5.15345 16.4685 5.16717 16.592 5.21521 16.7018C5.24265 16.7773 5.27009 16.8528 5.3044 16.9351C5.31126 16.9351 5.31813 16.9351 5.31813 16.942C5.32499 16.7292 5.33872 16.5028 5.29069 16.2901C5.28382 16.2558 5.27696 16.2283 5.26323 16.2009C5.32499 16.2489 5.36617 16.3107 5.40734 16.3724C5.51713 16.5302 5.59947 16.7155 5.67495 16.8939C5.71612 16.9969 5.75729 17.0929 5.7916 17.1958C5.81905 17.1684 5.81905 17.1272 5.82591 17.0861C5.82591 17.0037 5.83277 16.9214 5.85335 16.839C5.86021 16.839 5.86708 16.8322 5.87394 16.8322C5.99059 17.1958 6.17586 17.5389 6.41603 17.834C6.62875 18.0947 6.88949 18.3212 7.20514 18.4378C7.31493 18.479 7.43844 18.5065 7.55509 18.5133C7.65115 18.5202 7.74036 18.5408 7.82957 18.5888C7.93936 18.6437 8.05601 18.6917 8.17952 18.7055C8.17952 18.6163 8.16579 18.5339 8.16579 18.4447C8.15893 18.3692 8.1658 18.2937 8.15208 18.2183C8.15208 18.1565 8.15207 18.0947 8.13835 18.033C8.13835 17.9575 8.12462 17.8752 8.12462 17.7997C8.11776 17.7379 8.11777 17.6693 8.11091 17.6007C8.10404 17.5458 8.1109 17.4909 8.10404 17.436C8.09718 17.3605 8.10404 17.285 8.09031 17.2096C8.09031 17.1204 8.0766 17.038 8.0766 16.9488C8.03542 16.9625 7.99425 16.99 7.95308 17.0037C7.80898 17.0517 7.65802 17.0792 7.50706 17.0723C7.31493 17.0792 7.1228 17.0312 6.95811 16.9282C6.8346 16.8459 6.73167 16.7224 6.68364 16.5851C6.63561 16.4548 6.60816 16.3175 6.61502 16.1803C6.66305 16.2009 6.6905 16.2489 6.73167 16.2764C6.86204 16.393 7.01301 16.5028 7.18455 16.544C7.27376 16.5645 7.3561 16.5851 7.44531 16.5783C7.28748 16.4959 7.13652 16.3999 6.99928 16.2832C6.88263 16.1872 6.77284 16.0636 6.69736 15.9333C6.64246 15.8372 6.61502 15.7274 6.62875 15.6176C6.78657 15.7274 6.94438 15.8441 7.11593 15.9333C7.18455 15.9676 7.25317 16.0019 7.32179 16.0225C7.20514 15.8784 7.08848 15.7206 7.01986 15.549C6.98556 15.4667 6.97869 15.3706 6.98555 15.2814C6.99928 15.2814 7.01301 15.2814 7.02673 15.2883C7.17083 15.3569 7.3012 15.4598 7.41785 15.5696C7.60312 15.7343 7.76095 15.9264 7.91191 16.1254C7.91191 16.0842 7.91191 16.0362 7.90505 15.995C7.89819 15.9195 7.90504 15.8372 7.89818 15.7617C7.89132 15.6725 7.89818 15.5833 7.89132 15.501C7.8776 15.3363 7.89132 15.1647 7.8776 15C7.8776 14.8559 7.8776 14.7119 7.87074 14.5609C7.83643 14.5609 7.80212 14.5815 7.76095 14.5884C7.60312 14.6364 7.43158 14.6501 7.28062 14.5815C7.14338 14.5197 7.05417 14.3893 6.99928 14.2521C6.9238 14.0668 6.89636 13.8747 6.87577 13.6826C6.8895 13.6894 6.90322 13.6963 6.91008 13.71C6.95125 13.7787 6.99928 13.8473 7.05418 13.909C7.08849 13.9433 7.12966 13.9845 7.1777 14.0051C7.21887 14.0188 7.26004 14.0051 7.29435 13.9776C7.30121 13.9708 7.29434 13.957 7.28748 13.9502C7.15024 13.7718 7.08848 13.5453 7.06103 13.3189C7.04731 13.2297 7.05418 13.1336 7.05418 13.0444C7.05418 12.9552 7.06791 12.866 7.08163 12.7699C7.14339 13.0032 7.2669 13.2228 7.42472 13.4081C7.47962 13.4767 7.54823 13.5453 7.61685 13.5934C7.62371 13.6002 7.62371 13.6071 7.63057 13.614C7.63057 13.6071 7.62371 13.6002 7.62371 13.5865C7.53451 13.463 7.45903 13.3326 7.43158 13.1817C7.42472 13.1268 7.42471 13.065 7.45902 13.0239C7.48647 12.9895 7.54137 12.9827 7.58254 12.9964C7.63744 13.017 7.68547 13.0582 7.71978 13.0993C7.79526 13.1817 7.86388 13.2709 7.90505 13.3669C7.94622 13.4561 7.96681 13.5522 7.98053 13.6551C7.98739 13.7581 7.98739 13.861 7.98739 13.9708C8.0217 13.9433 8.04228 13.9022 8.06973 13.8678C8.17952 13.7032 8.28245 13.5316 8.33048 13.3395C8.35793 13.2434 8.35107 13.1405 8.34421 13.0444C8.33048 12.9415 8.30303 12.8386 8.26186 12.7425L8.255 12.7356C8.11776 12.7562 7.9668 12.7494 7.84328 12.6808C7.69919 12.6053 7.59627 12.4749 7.52079 12.3308C7.58941 12.3445 7.65116 12.372 7.71292 12.3857C7.81585 12.4131 7.93936 12.4337 8.04228 12.3857C8.11776 12.3514 8.15893 12.269 8.18638 12.1936C8.18638 12.1936 8.17952 12.1936 8.17266 12.1936C8.02856 12.2622 7.86388 12.3033 7.71292 12.2622C7.58254 12.2347 7.47275 12.1524 7.37668 12.0563C7.37668 12.0495 7.37668 12.0426 7.37668 12.0426C7.47275 11.9671 7.58941 11.9191 7.71292 11.9191C7.8776 11.9122 8.03542 11.9602 8.17952 12.0426C8.19324 12.0495 8.21383 12.0563 8.23442 12.0632C8.22069 11.9877 8.20011 11.9191 8.19325 11.8436C8.18638 11.727 8.19324 11.6103 8.2001 11.4937C8.255 11.4937 8.30989 11.5142 8.35792 11.5348C8.4883 11.5897 8.59123 11.7064 8.6324 11.8436C8.6873 12.0495 8.62554 12.269 8.4883 12.4337C8.46771 12.4612 8.48144 12.5023 8.48144 12.5366C8.50203 12.7356 8.57064 12.9209 8.59809 13.1199C8.60495 13.1199 8.61181 13.1199 8.61868 13.1268C8.67357 12.9346 8.75591 12.7494 8.90687 12.6121C9.05783 12.4612 9.28428 12.4131 9.49013 12.4612C9.38034 12.5092 9.29801 12.5984 9.25683 12.7013C9.20194 12.818 9.17449 12.9484 9.12646 13.065C9.24997 13.0513 9.38034 13.0033 9.46268 12.9072C9.52444 12.8386 9.56561 12.7562 9.61364 12.6808C9.63423 12.6945 9.6411 12.7219 9.65482 12.7425C9.67541 12.7905 9.69599 12.8454 9.69599 12.9072C9.69599 12.9621 9.70285 13.0238 9.68227 13.0787C9.64109 13.2297 9.53816 13.3463 9.42151 13.4355C9.32545 13.5179 9.20879 13.5934 9.099 13.6551C9.25683 13.6689 9.42838 13.6414 9.56562 13.5522C9.61365 13.5248 9.64795 13.4767 9.68912 13.4355C9.69599 13.4355 9.70285 13.4355 9.70971 13.4355C9.70971 13.5248 9.71658 13.614 9.67541 13.6963C9.62737 13.813 9.53131 13.909 9.41465 13.9571C9.29114 14.0188 9.14704 14.0463 9.00981 14.0463C8.86571 14.0463 8.73533 13.9982 8.59809 13.9639C8.53634 13.9502 8.46086 13.9365 8.40596 13.9708C8.3442 14.0119 8.31675 14.0874 8.29617 14.1629C8.26186 14.2864 8.23442 14.4099 8.21383 14.5334C8.18638 14.6638 8.17952 14.7942 8.16579 14.9246C8.16579 14.9726 8.15893 15.0275 8.16579 15.0755C8.17265 15.0618 8.17952 15.0481 8.18638 15.0275C8.24127 14.8148 8.30303 14.5952 8.39223 14.3962C8.41968 14.3345 8.454 14.2727 8.49517 14.2109C8.51575 14.1766 8.5432 14.1423 8.57065 14.1217C8.56379 14.1835 8.5432 14.2453 8.5432 14.307L8.53634 14.3139C8.53634 14.3413 8.53633 14.3756 8.52947 14.4031C8.51575 14.5815 8.53634 14.7667 8.57751 14.9383C8.59123 14.9383 8.61182 14.9452 8.62555 14.9314C8.76278 14.856 8.87257 14.753 8.96864 14.6295C9.07157 14.4923 9.14018 14.3276 9.1539 14.1561C9.16076 14.1629 9.17449 14.1629 9.18135 14.1698C9.2637 14.2315 9.33231 14.3139 9.35976 14.4099C9.40093 14.5472 9.35976 14.6913 9.298 14.8217C9.20194 15.0138 9.05783 15.1716 8.88629 15.2951C9.07842 15.3432 9.28428 15.3432 9.47641 15.2745C9.5862 15.2334 9.68227 15.1647 9.75775 15.0755H9.77147C9.77833 15.2196 9.75775 15.3774 9.67541 15.4941C9.59307 15.6039 9.46955 15.6725 9.33917 15.7C9.14018 15.748 8.92746 15.7343 8.72847 15.6931C8.68044 15.6862 8.63927 15.6656 8.59123 15.6656C8.48144 15.6656 8.37165 15.7 8.28931 15.7754C8.255 15.8097 8.22755 15.8509 8.21383 15.8989C8.20697 15.9401 8.20697 15.9813 8.20697 16.0225C8.21383 16.1048 8.255 16.1803 8.27558 16.2558C8.37165 16.5577 8.39223 16.8802 8.46772 17.189C8.48144 17.2507 8.49516 17.3056 8.52261 17.3605C8.55692 17.1615 8.59809 16.9557 8.65299 16.7567C8.68044 16.6606 8.71474 16.5714 8.75591 16.4822C8.80394 16.393 8.87257 16.3175 8.94118 16.2489C8.99608 16.2009 9.0647 16.146 9.14018 16.146C9.18822 16.1391 9.22252 16.1872 9.22938 16.2283C9.2431 16.3656 9.19508 16.4959 9.14018 16.6126C9.13332 16.6263 9.13332 16.64 9.13332 16.6538C9.35976 16.5165 9.53131 16.2969 9.65482 16.0636C9.66168 16.0636 9.66168 16.0636 9.66854 16.0636C9.68912 16.1254 9.70971 16.1872 9.70971 16.2558C9.73029 16.3793 9.69599 16.5097 9.6411 16.6195C9.53817 16.8253 9.36662 16.9831 9.22938 17.1615C9.33917 17.1615 9.4421 17.0929 9.51758 17.0174C9.59992 16.9351 9.66168 16.8322 9.68912 16.7224C9.72343 16.7704 9.73716 16.8322 9.74402 16.8871C9.77147 17.0037 9.75088 17.1204 9.70971 17.2301C9.63423 17.4086 9.47641 17.5321 9.31173 17.6144C9.17449 17.6762 9.02353 17.7242 8.8657 17.7105C8.83139 17.7105 8.79022 17.7174 8.75591 17.7379C8.69416 17.7791 8.65299 17.8477 8.61868 17.9163C8.55006 18.0604 8.50889 18.2251 8.49517 18.383C8.47458 18.4859 8.4883 18.5957 8.4883 18.7055C8.50202 18.7055 8.52261 18.7055 8.53634 18.6986C8.79709 18.5888 9.05097 18.479 9.32545 18.4035C9.49699 18.3555 9.68226 18.3143 9.86067 18.2732C9.97732 18.2526 10.094 18.2045 10.19 18.129C10.2861 18.0536 10.3547 17.9507 10.4028 17.8409C10.4645 17.7105 10.492 17.5664 10.5469 17.436C10.6017 17.3194 10.6841 17.2302 10.7664 17.1341C10.8694 17.0243 10.9792 16.9145 11.0821 16.7979C11.1095 16.7704 11.1301 16.7361 11.1438 16.7018C11.1507 16.7018 11.1576 16.7018 11.1644 16.7018C11.1644 16.743 11.1713 16.791 11.1713 16.8322C11.1644 16.9351 11.1576 17.0312 11.137 17.1341C11.1301 17.1547 11.1301 17.1821 11.1233 17.2096C11.1507 17.189 11.1782 17.1615 11.1987 17.1341C11.2879 17.0243 11.3566 16.9008 11.384 16.7567C11.4114 16.6194 11.3771 16.4754 11.4115 16.3381C11.4389 16.2352 11.5418 16.1734 11.5624 16.0705C11.5899 15.9607 11.583 15.8372 11.5693 15.7206C11.5487 15.6176 11.5212 15.5147 11.4732 15.4255C11.432 15.35 11.4183 15.2608 11.4183 15.1785C11.4115 15.0069 11.4595 14.8285 11.5693 14.6981C11.6104 14.6501 11.6653 14.6021 11.734 14.5884C11.734 14.6501 11.7202 14.705 11.7202 14.7667C11.7202 15.0412 11.7957 15.3226 11.933 15.5559C11.9741 15.6313 12.029 15.6931 12.0908 15.7549C12.0976 15.7549 12.1045 15.7549 12.1045 15.7617C12.1114 15.7206 12.1182 15.6794 12.1182 15.6382C12.1182 15.5559 12.1251 15.4735 12.1045 15.3912C12.0839 15.199 12.0016 15.0206 11.9055 14.856C11.8232 14.705 11.7614 14.5472 11.7202 14.3825C11.6996 14.307 11.6928 14.2247 11.6791 14.1492C11.6653 14.0668 11.6653 13.9914 11.6585 13.9159C11.6516 13.8679 11.6585 13.8198 11.6516 13.7718C11.631 13.7443 11.5967 13.7238 11.5693 13.7032C11.4183 13.5865 11.2879 13.4493 11.1713 13.2983C11.0409 13.1199 10.9243 12.914 10.9037 12.6876C10.9037 12.6121 10.8968 12.5298 10.9174 12.4543C10.9243 12.4131 10.9448 12.372 10.9586 12.3308C10.9654 12.3239 10.9723 12.3171 10.9792 12.3171C11.0615 12.372 11.137 12.4337 11.1987 12.5092C11.2536 12.5778 11.2948 12.6533 11.336 12.7356C11.3771 12.8111 11.4115 12.8935 11.4664 12.9621C11.5281 13.0444 11.6379 13.0787 11.734 13.0582C11.6379 12.9141 11.5555 12.7562 11.4595 12.6121C11.3703 12.468 11.2673 12.3308 11.1576 12.2004C11.1232 12.1593 11.0546 12.1661 11.0066 12.1798C10.8831 12.2141 10.7664 12.2553 10.6429 12.2759C10.4851 12.2896 10.3273 12.2828 10.1832 12.2347C10.0665 12.1936 9.97046 12.1318 9.88125 12.0495C9.82636 12.0014 9.77147 11.9534 9.72343 11.8985C9.88812 11.9122 10.0528 11.9259 10.2106 11.9122C10.2998 11.9054 10.389 11.9054 10.4782 11.8779C10.4508 11.8573 10.4233 11.8436 10.389 11.8299C10.1077 11.6926 9.79206 11.6309 9.48328 11.6583C9.38721 11.6652 9.298 11.6858 9.20194 11.6995C9.03039 11.7132 8.85884 11.6652 8.70788 11.5829C8.56379 11.5005 8.44027 11.3907 8.33048 11.2672C8.31676 11.2535 8.30989 11.2329 8.29617 11.2192C8.41968 11.2741 8.54319 11.3358 8.68043 11.3427C8.71474 11.3427 8.75592 11.3358 8.78336 11.3221C8.76964 11.2878 8.74219 11.2603 8.71474 11.2329C8.6324 11.1643 8.52948 11.1094 8.49517 11.0065C8.57751 11.0339 8.66671 11.0476 8.75591 11.0476C8.87943 11.0476 8.99608 11.0065 9.11273 10.9653C9.22252 10.9241 9.34603 10.883 9.46268 10.9173C9.58619 10.9516 9.68912 11.0408 9.78519 11.13C9.88812 11.226 9.98419 11.329 10.1008 11.4182C10.1763 11.4731 10.2587 11.528 10.3479 11.5348C10.2312 11.4593 10.1352 11.3701 10.0391 11.2741C9.90185 11.1368 9.79205 10.9721 9.73029 10.78C9.68226 10.6016 9.66168 10.4507 9.6411 10.2997Z" fill="#FEC726"/>
</svg>
