<svg width="30" height="30" viewBox="0 0 30 30" fill="none" xmlns="http://www.w3.org/2000/svg">
<path d="M2.53291 23.3372H27.4757C28.1619 22.3079 28.7108 21.1895 29.1363 20.0024H0.879181C1.29775 21.1826 1.84673 22.3079 2.53291 23.3372Z" fill="#FBEA0E"/>
<path d="M0.878794 20.0024H29.1359C29.5133 18.9388 29.7809 17.8272 29.9113 16.6676H0.103401C0.226915 17.8272 0.501392 18.9388 0.878794 20.0024Z" fill="#DC080D"/>
<path d="M0.000488281 15.0001C0.000488281 15.5627 0.0348076 16.1185 0.0965643 16.6675H29.9045C29.9662 16.1185 30.0005 15.5627 30.0005 15.0001C30.0005 14.4374 29.9662 13.8816 29.9045 13.3326H0.0965643C0.0416695 13.8816 0.000488281 14.4374 0.000488281 15.0001Z" fill="#FBEA0E"/>
<path d="M15.0008 30.0001C18.5689 30.0001 21.842 28.7513 24.4221 26.6653H5.58633C8.15952 28.7513 11.4326 30.0001 15.0008 30.0001Z" fill="#FBEA0E"/>
<path d="M5.5862 26.6652H24.422C25.6022 25.7114 26.6315 24.5929 27.4755 23.3304H2.53267C3.37668 24.5929 4.40596 25.7183 5.5862 26.6652Z" fill="#DC080D"/>
<path d="M2.53267 6.66975H27.4755C26.6315 5.40717 25.6022 4.28869 24.422 3.33489H5.5862C4.40596 4.28869 3.37668 5.40717 2.53267 6.66975Z" fill="#DC080D"/>
<path d="M5.58633 3.33495H24.4221C21.8489 1.25581 18.5758 9.15527e-05 15.0008 9.15527e-05C11.4326 9.15527e-05 8.15952 1.25581 5.58633 3.33495Z" fill="#FBEA0E"/>
<path d="M0.879181 10.0047H29.1363C28.7177 8.81758 28.1619 7.6991 27.4757 6.66982H2.53291C1.84673 7.69224 1.29775 8.81758 0.879181 10.0047Z" fill="#FBEA0E"/>
<path d="M0.103401 13.3327H29.9113C29.7809 12.173 29.5133 11.0614 29.1359 9.99782H0.878794C0.501392 11.0614 0.226915 12.1799 0.103401 13.3327Z" fill="#DC080D"/>
</svg>
