<svg width="30" height="30" viewBox="0 0 30 30" fill="none" xmlns="http://www.w3.org/2000/svg">
<path d="M15 30.0001C21.0522 30.0001 26.2672 26.4114 28.6345 21.2513H1.36554C3.73288 26.4114 8.94788 30.0001 15 30.0001Z" fill="#E23D28"/>
<path d="M15 0.000137329C8.94788 0.000137329 3.73288 3.58888 1.36554 8.74899H28.6345C26.2672 3.58888 21.0522 0.000137329 15 0.000137329Z" fill="#006B3F"/>
<path d="M0 15.0001C0 17.2302 0.487184 19.3505 1.3655 21.2512H28.6345C29.5059 19.3505 30 17.2302 30 15.0001C30 12.77 29.5059 10.6566 28.6345 8.74896H1.3655C0.494046 10.6566 0 12.77 0 15.0001Z" fill="#F9DD16"/>
<path d="M22.603 15C22.603 19.1994 19.1995 22.6029 15.0001 22.6029C10.8006 22.6029 7.39716 19.1994 7.39716 15C7.39716 10.8005 10.8006 7.39703 15.0001 7.39703C19.1995 7.39703 22.603 10.8005 22.603 15Z" fill="#00A5DB"/>
<path d="M14.7329 9.7164L15.0005 8.87926L16.3729 13.0993H19.6186L18.9187 13.6139H14.1977L14.3555 13.1267L14.3761 13.1062H15.8308L14.7329 9.7164ZM11.3088 10.1556L13.2439 12.8248L13.4635 12.6807L11.5216 9.99774L11.3088 10.1556ZM16.5376 12.6807L16.7503 12.8317L18.6853 10.1624L18.4795 10.0046L16.5376 12.6807ZM14.6231 10.0115C14.6094 10.0869 13.6282 13.0993 13.6282 13.0993H9.18854L9.88159 13.6139H13.4566L13.0037 15.0138L13.436 15.3294L14.8976 10.8349L14.6231 10.0115ZM17.6355 14.7805L17.0454 15.199L16.5993 13.8061H16.0573L17.512 18.2937L18.2187 18.8015L17.2169 15.7137L20.8057 13.0993H19.9342L17.6355 14.7805ZM10.1561 13.8061L12.7773 15.7137L11.4049 19.9337L12.1117 19.419L13.2233 16.0293L14.4104 16.887L14.8427 16.5645L11.0275 13.7923H10.1561V13.8061ZM12.64 18.4035L12.3724 19.2269L15.0005 17.3262L18.5961 19.9337L18.3285 19.1103L15.4466 17.0106L16.6268 16.146L16.4621 15.6313L12.64 18.4035ZM9.15424 16.7772L9.22286 17.0174L12.3724 16.0019L12.297 15.7548L9.15424 16.7772ZM17.6972 15.7548L17.6149 16.0019L20.7645 17.0174L20.84 16.7772L17.6972 15.7548ZM14.8701 21.1208H15.1309V17.8065H14.8701V21.1208Z" fill="#F9DD17"/>
</svg>
