<svg width="30" height="30" viewBox="0 0 30 30" fill="none" xmlns="http://www.w3.org/2000/svg">
<path d="M15 30.0001C23.2843 30.0001 30 23.2844 30 15.0001C30 6.71586 23.2843 0.000137329 15 0.000137329C6.71572 0.000137329 0 6.71586 0 15.0001C0 23.2844 6.71572 30.0001 15 30.0001Z" fill="#003399"/>
<path d="M15.0035 5.00005L15.2985 5.9058H16.2524L15.477 6.46848L15.772 7.37426L15.0035 6.81158L14.2349 7.37426L14.53 6.46848L13.7615 5.9058H14.7153L15.0035 5.00005Z" fill="#FFCC00"/>
<path d="M10.5704 6.18698L10.8654 7.09276H11.8124L11.0507 7.65544L11.3389 8.56122L10.5704 8.00538L9.80184 8.56807L10.0969 7.65544L9.32837 7.09276H10.2822L10.5704 6.18698Z" fill="#FFCC00"/>
<path d="M7.33164 9.44649L7.61985 10.3523H8.57364L7.80511 10.9149L8.10017 11.8207L7.33164 11.258L6.56311 11.8207L6.85816 10.9149L6.08276 10.3523H7.03658L7.33164 9.44649Z" fill="#FFCC00"/>
<path d="M19.4291 6.20084L19.7242 7.10659H20.6711L19.9095 7.66927L20.2045 8.58192L19.436 8.01924L18.6606 8.58192L18.9557 7.66927L18.1871 7.11346L19.1409 7.10659L19.4291 6.20084Z" fill="#FFCC00"/>
<path d="M23.7866 10.2837L23.018 10.8463L23.3131 11.7521L22.5377 11.1894L21.7692 11.7521L22.0642 10.8463L21.2957 10.2837H22.2427L22.5377 9.37103L22.8328 10.2837H23.7866Z" fill="#FFCC00"/>
<path d="M25.0082 14.7575L24.2328 15.3133L24.521 16.226L23.7593 15.6564L22.9839 16.2123L23.2859 15.3065L22.5173 14.7438L23.4711 14.7507L23.7662 13.838L24.0544 14.7507L25.0082 14.7575Z" fill="#FFCC00"/>
<path d="M23.3819 20.5147L22.6134 19.952L21.8448 20.5147L22.1399 19.6089L21.3645 19.0463H22.3183L22.6134 18.1405L22.9084 19.0463H23.8554L23.0868 19.6089L23.3819 20.5147Z" fill="#FFCC00"/>
<path d="M14.317 24.9954L14.6052 24.0897L13.8367 23.527H14.7905L15.0787 22.6144L15.3737 23.527L16.3207 23.5201L15.559 24.0828L15.8541 24.9954L15.0855 24.4328L14.317 24.9954Z" fill="#FFCC00"/>
<path d="M9.87748 23.8152L10.1726 22.9094L9.39716 22.3468H10.351L10.646 21.4341L10.9342 22.3468H11.888L11.1195 22.9094L11.4146 23.8152L10.646 23.2525L9.87748 23.8152Z" fill="#FFCC00"/>
<path d="M20.1359 23.7947L19.3742 23.232L18.5988 23.7878L18.9007 22.882L18.1322 22.3194H19.086L19.3811 21.4136L19.6693 22.3262H20.6231L19.8477 22.882L20.1359 23.7947Z" fill="#FFCC00"/>
<path d="M5.00562 14.7714H5.95943L6.24764 13.8588L6.5427 14.7646H7.48965L6.72796 15.3273L7.02302 16.2399L6.25449 15.6772L5.48596 16.2399L5.77417 15.3341L5.00562 14.7714Z" fill="#FFCC00"/>
<path d="M6.63192 20.5078L6.92698 19.602L6.15845 19.0393H7.10539L7.40045 18.1335L7.69551 19.0393H8.64246L7.87393 19.602L8.16898 20.5078L7.40045 19.9519L6.63192 20.5078Z" fill="#FFCC00"/>
</svg>
