<svg width="30" height="30" viewBox="0 0 30 30" fill="none" xmlns="http://www.w3.org/2000/svg">
<path d="M0.473633 18.7495C1.48919 22.6873 4.06237 26.0008 7.50016 27.9834V18.7495H0.473633Z" fill="#F1F4FB"/>
<path d="M7.50016 2.01729C4.06237 4.00677 1.48919 7.31342 0.473633 11.2512H7.50016V2.01729Z" fill="#F1F4FB"/>
<path d="M15.0003 11.251H29.5268C27.8662 4.78864 22.0062 0.0138884 15.0277 0.000167847H15.0003V11.251Z" fill="#F1F4FB"/>
<path d="M15.0005 30.0004H15.0211C21.9996 29.9935 27.8664 25.2119 29.527 18.7563H15.0005V30.0004Z" fill="#F1F4FB"/>
<path d="M15 18.7493H29.5265C29.8353 17.5488 30 16.2933 30 14.9967C30 13.7002 29.8353 12.4447 29.5265 11.251H15V0.000167847C12.269 0.000167847 9.70952 0.734213 7.5 2.01022V11.2442H0.47347C0.164686 12.4447 0 13.7001 0 14.9899C0 16.2865 0.164686 17.5419 0.47347 18.7425H7.5V27.9764C9.70265 29.2524 12.2552 29.9864 14.9794 29.9864H15V18.7493Z" fill="#005596"/>
</svg>
