<svg width="30" height="30" viewBox="0 0 30 30" fill="none" xmlns="http://www.w3.org/2000/svg">
<path d="M30.0001 15.0035C30.0001 23.2838 23.2839 30.0001 15.0035 30.0001C6.72316 30.0001 0.00695801 23.2838 0.00695801 15.0035C0.00695801 6.72312 6.72316 0.00691223 15.0035 0.00691223C23.2839 0.00691223 30.0001 6.72312 30.0001 15.0035Z" fill="#5B97B1"/>
<path d="M17.7066 0.260739C16.8285 0.102953 15.9229 0.00691223 14.9968 0.00691223C6.71639 0.00691223 0.000183105 6.72312 0.000183105 15.0035H17.7066V0.260739Z" fill="#01247D"/>
<path d="M7.77289 10.1122V15.0035H8.71274V10.7364L7.77289 10.1122Z" fill="white"/>
<path d="M12.4172 9.75532H17.7064V8.81546H11.0108L12.4172 9.75532Z" fill="white"/>
<path d="M4.2124 10.7364V15.0035H5.15226V10.1122L4.2124 10.7364Z" fill="white"/>
<path d="M8.71282 4.28092V1.38588C8.39724 1.53681 8.08164 1.68771 7.77979 1.85922V4.90519L8.71282 4.28092Z" fill="white"/>
<path d="M1.33782 8.81546C1.2555 8.99383 1.18002 9.17219 1.10455 9.35056L1.90033 8.81546H1.33782Z" fill="white"/>
<path d="M17.7067 5.25499H12.438L11.0316 6.19484H17.7067V5.25499Z" fill="white"/>
<path d="M5.15251 3.70453C4.89182 3.93092 4.63796 4.16418 4.39099 4.40429L5.15251 4.90508V3.70453Z" fill="white"/>
<path d="M11.0109 8.81546H7.77289V10.1121L8.71274 10.7363L15.1065 15.0034H17.7066V14.9623L9.88582 9.75532H11.6627L17.7066 13.7755V13.2815L12.4173 9.75532L11.0109 8.81546Z" fill="white"/>
<path d="M5.15247 4.90524L4.39094 4.40445C3.84212 4.96013 3.32762 5.55697 2.86798 6.19497H5.15247V4.90524Z" fill="white"/>
<path d="M7.77289 4.90522V6.18811H11.0315L12.4379 5.24823L17.7066 1.73577V0.247103C17.6105 0.226522 17.5145 0.21279 17.4116 0.192209L9.81037 5.24823H8.69901V4.80232L15.8749 0.0275691C15.621 0.0138485 15.3672 0.00698235 15.1065 0.00012207L8.69214 4.27409L7.77289 4.90522Z" fill="white"/>
<path d="M5.15234 10.1121V8.81546H1.9074L1.11162 9.35056C0.830351 10.0434 0.597102 10.7569 0.425595 11.4978L3.04623 9.75532H4.21248V10.1601L0.158034 12.8562C0.130592 13.0688 0.0963011 13.2815 0.0825806 13.4942L4.21248 10.7432L5.15234 10.1121Z" fill="white"/>
<path d="M5.15233 8.81559V10.1122V15.0036H7.77979V10.1122V8.81559H11.0179H17.7135V6.18811H11.0384H7.77979V4.90522V1.85925C6.83993 2.38063 5.96184 2.99808 5.15233 3.69782V4.90522V6.18811H2.86784C2.27786 7.00448 1.76335 7.88259 1.33801 8.81559H1.90739H5.15233Z" fill="#E31937"/>
<path d="M9.88599 9.75552L17.7067 14.9625V13.7757L11.6628 9.75552H9.88599Z" fill="#E31937"/>
<path d="M8.71271 5.25516H9.82407L17.4252 0.19914C16.9244 0.116817 16.4099 0.0619412 15.8954 0.0345001L8.71953 4.80925V5.25516H8.71271Z" fill="#E31937"/>
<path d="M4.21232 9.75552H3.04606L0.425428 11.498C0.315663 11.944 0.226476 12.3967 0.164734 12.8564L4.21914 10.1603V9.75552H4.21232Z" fill="#E31937"/>
<path d="M27.297 12.1291C27.297 12.1291 27.297 16.7804 27.297 18.0975C27.297 19.4147 25.5888 20.7387 23.7091 21.5208C21.8294 20.7319 20.1212 19.4147 20.1212 18.0975C20.1212 16.7804 20.1212 12.1291 20.1212 12.1291H27.297Z" fill="#D21034" stroke="black" stroke-width="0.0329"/>
<path d="M23.037 21.219C21.4385 20.4232 20.1213 19.2638 20.1213 18.1045H23.037V21.219Z" fill="white" stroke="black" stroke-width="0.0329"/>
<path d="M20.1213 16.753C20.1213 16.0532 20.1213 15.2711 20.1213 14.5645H23.037V16.753H20.1213Z" fill="white" stroke="black" stroke-width="0.0329"/>
<path d="M24.3817 21.219C25.9802 20.4232 27.2973 19.2638 27.2973 18.1045H24.3817V21.219Z" fill="white" stroke="black" stroke-width="0.0329"/>
<path d="M27.2973 16.753C27.2973 16.0532 27.2973 15.2711 27.2973 14.5645H24.3817V16.753H27.2973Z" fill="white" stroke="black" stroke-width="0.0329"/>
<path d="M27.0159 13.8236C26.9473 13.7619 26.913 13.6727 26.8855 13.5835C26.8649 13.5355 26.8649 13.4806 26.8306 13.4326C26.7895 13.3846 26.7277 13.3708 26.666 13.3708C26.5082 13.3777 26.3573 13.4394 26.1995 13.4532C26.0966 13.46 25.9937 13.4395 25.9182 13.3708C25.8359 13.3022 25.7878 13.2062 25.7055 13.1376C25.8084 13.1513 25.9114 13.117 25.9868 13.0484C26.0829 12.973 26.1446 12.8563 26.2064 12.7534C26.2269 12.7122 26.2681 12.6917 26.3092 12.6917C26.3984 12.6917 26.4945 12.7671 26.5013 12.8632C26.5356 12.822 26.5494 12.7671 26.5425 12.7122C26.5356 12.6574 26.5013 12.6093 26.4533 12.5819C26.3916 12.5476 26.3161 12.5407 26.2543 12.5613C26.2543 12.5202 26.2338 12.4859 26.2064 12.4653C26.1858 12.4447 26.1515 12.4378 26.1446 12.4104C26.1377 12.3692 26.1583 12.3212 26.1789 12.2869C26.124 12.2938 26.0691 12.3144 26.0417 12.3624C26.0211 12.4035 26.0211 12.4516 26.0348 12.4927C25.9662 12.4378 25.8839 12.3967 25.7947 12.3761C25.6644 12.3487 25.5271 12.3624 25.3968 12.3898C25.0606 12.4584 24.7382 12.6093 24.3884 12.6299C24.2512 12.6368 24.1071 12.6231 23.9836 12.5682C23.9767 12.527 23.9699 12.4859 23.9356 12.4584C23.8944 12.4104 23.8258 12.4104 23.7641 12.4173C23.6063 12.4378 23.4622 12.5064 23.3044 12.527C23.2564 12.5339 23.2015 12.5339 23.1741 12.4859C23.1466 12.4378 23.1604 12.383 23.1672 12.3281C23.1055 12.3624 23.0438 12.4447 23.0712 12.5202C23.0986 12.6025 23.1741 12.6574 23.2427 12.6917C23.2221 12.7191 23.1947 12.7397 23.1878 12.774C23.1741 12.822 23.1878 12.87 23.2152 12.9112C23.2495 12.9592 23.3113 12.9935 23.3662 13.0072C23.3525 12.9729 23.3319 12.9455 23.325 12.9112C23.3182 12.8632 23.325 12.8083 23.3662 12.7809C23.4005 12.7534 23.4485 12.7465 23.4897 12.7534C23.5994 12.774 23.7023 12.7946 23.8121 12.8014C23.8464 12.8014 23.8876 12.8014 23.9219 12.7877C23.9493 12.774 23.9562 12.7466 23.9562 12.7191C24.1757 12.774 24.4089 12.7603 24.6353 12.726C24.8137 12.6917 24.9852 12.6437 25.1636 12.5956C25.3145 12.5545 25.4723 12.5133 25.6301 12.4996C25.733 12.4996 25.8359 12.5202 25.9113 12.5819C25.9662 12.6231 26.0074 12.6848 26.0142 12.7534C26.0142 12.8289 25.9662 12.8906 25.9113 12.9386C25.8153 13.0073 25.6918 13.0415 25.5752 13.0347C25.5546 13.0347 25.5409 13.021 25.5203 13.0072C25.3763 12.9181 25.2047 12.87 25.0332 12.8838C24.848 12.8906 24.6697 12.9524 24.4913 13.0141C24.2169 13.117 23.9493 13.2268 23.6612 13.2885C23.4416 13.3297 23.2152 13.3434 22.9957 13.3022C23.0163 13.2817 23.03 13.2542 23.0369 13.2199C22.9477 13.2268 22.8585 13.2268 22.7762 13.1993C22.6596 13.165 22.5567 13.0896 22.5087 12.9729C22.5635 12.9386 22.5841 12.8563 22.5429 12.8083C22.6047 12.7534 22.6802 12.7054 22.7625 12.678C22.7831 12.6711 22.7968 12.6642 22.8105 12.6574C22.8174 12.6437 22.8174 12.6299 22.8036 12.6231C22.7762 12.6025 22.7351 12.6094 22.6939 12.6162C22.687 12.5819 22.6527 12.5545 22.6115 12.5682C22.5841 12.5819 22.5772 12.6162 22.5772 12.6436C22.5292 12.6299 22.488 12.5888 22.4812 12.5339C22.5086 12.5408 22.5361 12.5476 22.5567 12.5202C22.5841 12.4927 22.5772 12.4516 22.5429 12.431C22.5498 12.4173 22.5635 12.3967 22.5567 12.383C22.5498 12.3487 22.5087 12.3212 22.4744 12.3418C22.4606 12.3487 22.4537 12.3624 22.44 12.3692C22.4126 12.3555 22.3646 12.3692 22.3577 12.4035C22.3508 12.431 22.3646 12.4584 22.3852 12.4721C22.3371 12.4927 22.2754 12.479 22.2411 12.4378C22.2685 12.431 22.296 12.4104 22.296 12.3761C22.2891 12.3418 22.2548 12.3144 22.2137 12.3281C22.2068 12.2869 22.1931 12.2526 22.1588 12.232H22.1313C22.1108 12.2526 22.1245 12.2869 22.1245 12.3144C22.1382 12.3967 22.1245 12.479 22.1107 12.5545C22.0353 12.5339 21.9667 12.6162 21.9873 12.678C21.9941 12.6985 22.001 12.7123 22.0079 12.726C21.9804 12.7466 21.9667 12.7809 21.9324 12.7877C21.8912 12.7946 21.8638 12.8152 21.8226 12.822C21.7952 12.8289 21.7677 12.8014 21.7403 12.7877C21.7334 12.8426 21.754 12.9043 21.802 12.9318C21.7609 12.9455 21.7266 12.9798 21.6785 12.9867C21.6511 12.9935 21.6168 12.9935 21.5894 12.9798C21.507 12.9524 21.4316 12.9112 21.3561 12.8632C21.2807 12.8152 21.1915 12.7809 21.1023 12.7671C21.0543 12.7603 21.0063 12.7603 20.9651 12.7877C20.9171 12.822 20.869 12.8563 20.821 12.8838C20.8004 12.8975 20.7799 12.9112 20.7524 12.9043C20.7044 12.8906 20.6495 12.87 20.6015 12.8906C20.5329 12.9181 20.4711 12.9661 20.4506 13.0415C20.4368 13.0827 20.4505 13.1239 20.4711 13.1582C20.3819 13.2816 20.3271 13.4257 20.3271 13.5835C20.3271 13.6864 20.3545 13.7825 20.3957 13.8716C20.4163 13.9059 20.43 13.9334 20.4506 13.9608C20.4231 13.9471 20.4094 13.9128 20.3957 13.8854C20.3682 13.9334 20.3888 13.9883 20.3957 14.0363C20.4163 14.1049 20.4849 14.1392 20.5466 14.146C20.5809 14.1529 20.6083 14.1392 20.6426 14.1392C20.6701 14.1461 20.6838 14.1666 20.7044 14.1804C20.7524 14.2078 20.8142 14.2146 20.869 14.2078C20.9514 14.2078 21.02 14.249 21.0954 14.2695C21.1709 14.297 21.2532 14.3107 21.3355 14.2901C21.3836 14.2833 21.4247 14.2558 21.4659 14.2284C21.5482 14.1735 21.6237 14.1186 21.706 14.0706C21.706 14.0843 21.706 14.0912 21.706 14.1049C21.7335 14.1049 21.7403 14.0706 21.7677 14.0569C21.8501 14.0089 21.953 13.9677 21.9941 13.8785C22.0147 13.9608 22.0765 14.0226 22.1313 14.0912C22.1313 14.0569 22.1313 14.0294 22.145 13.9951C22.1725 13.9334 22.2205 13.8785 22.248 13.8168C22.296 13.9059 22.392 13.9402 22.4675 13.9951C22.5224 14.0294 22.5635 14.0706 22.5978 14.1186C22.6047 14.0775 22.6047 14.0363 22.5978 13.9951C22.7625 14.05 22.9477 14.0226 23.1124 13.9745C23.4005 13.8854 23.6681 13.7413 23.9356 13.6041C24.0797 13.5286 24.2237 13.4463 24.3746 13.3777C24.4775 13.3297 24.5805 13.2817 24.6902 13.2542C24.7451 13.2405 24.8137 13.2336 24.8686 13.2611C24.9166 13.2885 24.9646 13.3297 24.9852 13.3846C24.9921 13.3983 24.9783 13.412 24.9715 13.4189C24.9303 13.4463 24.8823 13.4463 24.8343 13.4463C24.7863 13.4463 24.7383 13.4532 24.704 13.4875C24.6765 13.508 24.6696 13.5423 24.6559 13.5766C24.6353 13.611 24.601 13.6453 24.5599 13.6658C24.5599 13.6727 24.5599 13.6796 24.5599 13.6864C24.6148 13.7001 24.6696 13.6933 24.7245 13.6727C24.6971 13.7344 24.6971 13.8099 24.7245 13.8716C24.7451 13.9197 24.7794 13.9608 24.8206 13.9951C24.7451 14.0363 24.6559 14.0637 24.5736 14.0637C24.5256 14.0637 24.4776 14.05 24.4364 14.0226C24.3952 13.9951 24.3746 13.9471 24.3403 13.9197C24.2855 13.8785 24.1963 13.8511 24.1345 13.8922C24.1071 13.9128 24.0659 13.906 24.0316 13.9265C24.0248 13.9334 24.011 13.9402 24.0042 13.954C24.0179 13.954 24.0316 13.9608 24.0453 13.9608C24.011 13.9745 23.9836 13.9883 23.9699 14.0226C23.915 14.05 23.8807 14.098 23.8738 14.1598C23.9081 14.1392 23.9424 14.1118 23.9836 14.098C23.9904 14.1186 24.0042 14.1461 24.0179 14.1598C24.0111 14.1735 24.0111 14.1872 24.0111 14.2078C23.9836 14.2215 23.9561 14.2352 23.9424 14.2627C23.9287 14.297 23.9356 14.3381 23.9356 14.3793C23.963 14.3381 24.0042 14.297 24.0659 14.2901C24.0934 14.3176 24.1277 14.345 24.1757 14.3381C24.2306 14.3381 24.2717 14.2901 24.3129 14.2558C24.3541 14.2215 24.4089 14.2352 24.4569 14.249C24.5804 14.2764 24.7108 14.2627 24.8274 14.2284C24.9715 14.1872 25.1087 14.1118 25.2185 14.0089C25.1636 13.9677 25.1019 13.9128 25.095 13.8373C25.0881 13.7687 25.1293 13.7001 25.191 13.6727C25.2596 13.6521 25.3282 13.6315 25.3762 13.5835C25.39 13.5698 25.3968 13.5561 25.4174 13.5424C25.4791 13.5972 25.5066 13.6864 25.4997 13.7687C25.5546 13.7207 25.5889 13.659 25.6095 13.5835C25.6507 13.6384 25.7124 13.6727 25.7742 13.6795C25.8222 13.6933 25.8839 13.6864 25.9251 13.7276C25.9319 13.6933 25.9319 13.6658 25.9319 13.6315C25.9868 13.6658 26.0486 13.6796 26.1172 13.6864C26.2132 13.7001 26.3092 13.6727 26.3984 13.659C26.4533 13.6521 26.515 13.6315 26.5699 13.659C26.6317 13.6933 26.7003 13.7413 26.7346 13.803C26.7551 13.8442 26.7826 13.8854 26.7895 13.9265C26.7895 13.9677 26.762 14.0089 26.7346 14.0294C26.6934 14.0569 26.6317 14.0294 26.5905 14.0569C26.5699 14.0294 26.5425 14.0088 26.5013 14.002C26.467 13.9951 26.4327 14.0226 26.4122 14.0431C26.3847 14.0088 26.3367 13.9746 26.2887 13.9883C26.1926 14.0089 26.1583 14.1598 26.2338 14.2215C26.2201 14.2421 26.2063 14.2695 26.2132 14.297C26.2132 14.3519 26.2543 14.393 26.3024 14.4067C26.2955 14.3587 26.2955 14.3038 26.323 14.2627C26.3367 14.2695 26.3504 14.2764 26.3641 14.2833C26.3504 14.3656 26.4121 14.4411 26.4876 14.4616C26.4739 14.4067 26.4739 14.3519 26.4876 14.297C26.515 14.3038 26.5356 14.3107 26.5631 14.3107C26.5699 14.393 26.6522 14.4548 26.7346 14.4616C26.7208 14.4479 26.7003 14.4342 26.6934 14.4067C26.6797 14.3724 26.6797 14.3313 26.6797 14.2901C26.7072 14.297 26.7346 14.3038 26.7552 14.2833C26.8032 14.2421 26.7826 14.1735 26.8306 14.1323C26.8855 14.0843 26.9541 14.0637 27.009 14.0226C27.0433 13.9951 27.0639 13.9608 27.0707 13.9197V13.8785C27.057 13.8648 27.0364 13.8442 27.0159 13.8236ZM21.5757 13.8991C21.5071 13.9471 21.4453 14.0088 21.3698 14.0431C21.3218 14.0637 21.2807 14.0706 21.2258 14.0775C21.1915 14.0843 21.1434 14.0843 21.116 14.0637C21.0886 14.0363 21.0543 14.0157 21.02 13.9951C21.0337 13.9471 21.0337 13.8922 20.9994 13.8579C21.0543 13.7413 21.0817 13.6109 21.0611 13.4806C21.0474 13.3571 20.9925 13.2474 20.9239 13.1513C20.9376 13.1376 20.9445 13.1239 20.9514 13.1102C20.9651 13.069 20.9376 13.0278 20.9445 12.9935C20.9513 12.9729 20.9651 12.9661 20.9856 12.9661C21.0199 12.9661 21.0474 12.9661 21.0817 12.9729C21.1297 12.9798 21.1778 12.9935 21.2189 13.021C21.2944 13.0759 21.363 13.1376 21.4453 13.1856C21.3836 13.2199 21.3149 13.2268 21.2463 13.2199C21.3081 13.3228 21.4247 13.3777 21.5413 13.3777C21.4864 13.4257 21.411 13.46 21.3355 13.46C21.3973 13.5492 21.5139 13.5766 21.6168 13.5492C21.5551 13.6247 21.5414 13.7276 21.4796 13.803C21.459 13.8305 21.4247 13.851 21.3904 13.8648C21.4453 13.8922 21.5139 13.9059 21.5757 13.8991Z" fill="black"/>
<path d="M22.1659 12.2458C22.2071 12.2732 22.2071 12.3213 22.2071 12.3624C22.2208 12.3556 22.2276 12.3487 22.2413 12.3487C22.2551 12.3418 22.2825 12.3556 22.2825 12.3693C22.2894 12.3899 22.2619 12.4036 22.2482 12.4036C22.2345 12.4036 22.2208 12.3967 22.2139 12.3967C22.2345 12.4516 22.2825 12.4996 22.3443 12.4996C22.3923 12.5065 22.4334 12.4791 22.4677 12.4448C22.4472 12.4448 22.4197 12.4516 22.406 12.4242C22.3923 12.4036 22.406 12.3762 22.4335 12.3762C22.4472 12.3693 22.4609 12.383 22.4677 12.3967C22.4883 12.3899 22.4815 12.3624 22.502 12.3487C22.5158 12.335 22.5501 12.3487 22.5501 12.3693C22.5501 12.3899 22.5364 12.3967 22.5226 12.4104C22.5226 12.4173 22.5226 12.4242 22.5226 12.4242C22.5364 12.431 22.5569 12.4379 22.5569 12.4516C22.5638 12.4722 22.55 12.4928 22.5295 12.4928C22.502 12.4996 22.4952 12.4653 22.4814 12.4516C22.4677 12.4928 22.4677 12.5339 22.4883 12.5682C22.5157 12.63 22.5844 12.6574 22.6461 12.6506C22.6324 12.6368 22.6118 12.6163 22.6187 12.5957C22.6187 12.5751 22.6461 12.5614 22.6598 12.5751C22.6804 12.5888 22.6735 12.6163 22.6735 12.6368C22.7147 12.6163 22.7559 12.6025 22.797 12.6163C22.7696 12.63 22.7422 12.6368 22.7147 12.6506C22.6392 12.6849 22.5707 12.7329 22.5089 12.7878C22.502 12.7946 22.4952 12.8015 22.4883 12.8015C22.454 12.7672 22.4266 12.7329 22.3923 12.7055C22.3237 12.6506 22.2345 12.6163 22.1522 12.5957C22.1796 12.5065 22.1933 12.4105 22.1865 12.3144C22.1727 12.2938 22.1659 12.2732 22.1659 12.2458Z" fill="#FED101"/>
<path d="M26.0552 12.3692C26.0689 12.3417 26.0964 12.3212 26.1238 12.3143C26.117 12.3555 26.1032 12.3966 26.1238 12.4309C26.1376 12.4584 26.1787 12.4652 26.1993 12.4858C26.2199 12.5064 26.2336 12.5338 26.2198 12.5681C26.213 12.5819 26.2267 12.6024 26.2404 12.5887C26.3022 12.5544 26.3776 12.5544 26.4394 12.5956C26.5011 12.6299 26.5423 12.7053 26.5148 12.7739C26.5148 12.7877 26.5011 12.774 26.5011 12.7671C26.4737 12.7191 26.4188 12.6848 26.3639 12.6642C26.3159 12.6505 26.261 12.6573 26.2267 12.6848C26.1993 12.7054 26.1787 12.7465 26.165 12.7808C26.1101 12.8837 26.0484 12.9798 25.9455 13.0484C25.87 13.1033 25.7671 13.1238 25.671 13.1032C25.6573 13.0964 25.6299 13.1032 25.6436 13.1238C25.6642 13.1375 25.6847 13.1444 25.7053 13.165C25.7739 13.2267 25.8151 13.3022 25.8768 13.3639C25.9454 13.4325 26.0415 13.4737 26.1444 13.4806C26.3228 13.4874 26.4943 13.4051 26.6726 13.3982C26.7207 13.3982 26.7756 13.4051 26.8099 13.4394C26.851 13.4806 26.851 13.5355 26.8716 13.5835C26.899 13.6795 26.9402 13.7755 27.0157 13.8441C27.0294 13.8647 27.0568 13.8853 27.0568 13.9128C27.0568 13.9471 27.05 13.9814 27.0225 14.0088C26.9608 14.0705 26.8716 14.0843 26.8167 14.1529C26.7824 14.194 26.7893 14.2489 26.755 14.2901C26.7275 14.3038 26.707 14.2832 26.6795 14.2763C26.6727 14.2901 26.6726 14.3038 26.6658 14.3175C26.6658 14.3038 26.6658 14.2969 26.6658 14.2832C26.6589 14.3312 26.6589 14.3793 26.6658 14.4273C26.6589 14.4204 26.6452 14.4204 26.6384 14.4136C26.6178 14.393 26.5971 14.3655 26.5971 14.3312C26.5971 14.3175 26.604 14.2969 26.604 14.2832C26.5834 14.2901 26.5697 14.3107 26.5492 14.3038C26.5286 14.3038 26.508 14.2901 26.4943 14.2763C26.4531 14.3175 26.46 14.3861 26.46 14.4341C26.4325 14.4136 26.4051 14.3861 26.3982 14.3518C26.3914 14.3244 26.3982 14.3038 26.3982 14.2763C26.3708 14.2763 26.3502 14.2695 26.3296 14.2421C26.2816 14.2626 26.2679 14.3244 26.2679 14.3792C26.2404 14.3518 26.2199 14.3106 26.2404 14.2763C26.2473 14.2558 26.2679 14.2489 26.2679 14.2352C26.2541 14.2283 26.2404 14.2215 26.2336 14.2077C26.1924 14.146 26.2267 14.0568 26.2953 14.0362C26.3365 14.0225 26.3776 14.0568 26.3982 14.0911C26.3914 14.1254 26.3845 14.1666 26.3982 14.2009C26.4051 14.2009 26.412 14.194 26.4188 14.194C26.412 14.1529 26.4119 14.098 26.4462 14.0637C26.4874 14.0294 26.5629 14.0568 26.5697 14.1048C26.5629 14.1391 26.5629 14.1666 26.5835 14.194C26.5903 14.2009 26.604 14.194 26.604 14.1803C26.5972 14.1529 26.5903 14.1117 26.6109 14.0911C26.6315 14.0705 26.6658 14.0843 26.6863 14.0774C26.7481 14.0774 26.803 14.0225 26.8167 13.9608C26.8235 13.9059 26.7961 13.8579 26.7687 13.8099C26.7275 13.7344 26.6521 13.6726 26.5766 13.6383C26.508 13.6178 26.4394 13.6384 26.3708 13.6452C26.2747 13.6658 26.165 13.6864 26.0621 13.6589C25.9866 13.6383 25.918 13.5972 25.8631 13.5423C25.8563 13.5492 25.8494 13.556 25.8494 13.5629C25.87 13.5766 25.8837 13.5972 25.8974 13.6109C25.9249 13.6246 25.9111 13.6658 25.918 13.6864C25.87 13.6727 25.822 13.6726 25.7739 13.6589C25.7122 13.6452 25.6573 13.604 25.623 13.5492C25.6161 13.5149 25.6024 13.4737 25.575 13.4463C25.5681 13.4325 25.5475 13.4325 25.5475 13.4463C25.575 13.4737 25.6024 13.5149 25.5956 13.556C25.5956 13.6109 25.5681 13.6658 25.5338 13.7001C25.527 13.6383 25.5064 13.5766 25.4584 13.5286C25.4103 13.4806 25.3555 13.4531 25.2937 13.4188C25.2937 13.3914 25.3006 13.3502 25.2731 13.3296C25.2731 13.3296 25.2663 13.3365 25.2594 13.3365C25.2731 13.3845 25.2731 13.4394 25.2388 13.4737C25.1771 13.5423 25.0811 13.5629 24.9919 13.556C25.0262 13.5149 25.0605 13.4668 25.0605 13.412C25.0605 13.3365 24.9987 13.2748 24.937 13.2336C24.8752 13.1924 24.7998 13.1993 24.7312 13.213C24.5871 13.2473 24.4499 13.3159 24.3127 13.3845C24.0314 13.5286 23.7639 13.6864 23.4757 13.8099C23.3179 13.8785 23.167 13.9402 23.0024 13.9676C22.8789 13.9882 22.7486 13.9951 22.6319 13.9539C22.6251 13.9196 22.6251 13.8853 22.6251 13.851C22.6868 13.8853 22.7623 13.9059 22.8309 13.9059C22.9132 13.9128 22.9955 13.9059 23.071 13.8853C23.023 13.7893 22.9543 13.7138 22.872 13.6452C22.9338 13.6589 23.0024 13.6658 23.0641 13.6452C23.1396 13.6246 23.2082 13.5697 23.2356 13.5011C23.1808 13.508 23.119 13.508 23.0779 13.4668C23.023 13.4188 22.975 13.3571 22.8995 13.3365C22.9269 13.3228 22.9544 13.3159 22.9818 13.2953C23.1533 13.3228 23.3317 13.3296 23.51 13.309C23.8462 13.2747 24.1549 13.1444 24.4636 13.0278C24.6488 12.9592 24.8272 12.8906 25.0262 12.8769C25.1702 12.87 25.3212 12.8974 25.4584 12.966C25.4927 12.9798 25.5201 13.0072 25.5613 13.0278C25.6642 13.0415 25.774 13.0278 25.8631 12.9798C25.9317 12.9455 26.0003 12.8906 26.0346 12.8151C26.0689 12.7534 26.0621 12.6711 26.0209 12.6162C25.966 12.5338 25.8769 12.479 25.7808 12.4584C25.6642 12.4309 25.5407 12.4515 25.4241 12.479C25.2663 12.5133 25.1085 12.5613 24.9507 12.6024C24.7723 12.6505 24.5871 12.6916 24.4019 12.6985C24.251 12.7054 24.1 12.6916 23.956 12.6573C23.956 12.6848 23.956 12.7122 23.9354 12.7328C23.908 12.7534 23.8668 12.7465 23.8325 12.7465C23.7296 12.7397 23.6335 12.7122 23.5375 12.6985C23.4826 12.6848 23.414 12.6916 23.366 12.7396C23.318 12.7877 23.3179 12.87 23.3385 12.9317C23.2905 12.9043 23.2425 12.8631 23.2288 12.8083C23.2219 12.7602 23.2425 12.7191 23.2768 12.6916C23.2905 12.6779 23.3042 12.6711 23.3111 12.6573C23.2356 12.6299 23.1601 12.5819 23.1258 12.5064C23.0984 12.4584 23.119 12.3966 23.1533 12.3623C23.1533 12.4104 23.1533 12.4652 23.1945 12.4927C23.2356 12.527 23.2974 12.5201 23.3454 12.5133C23.4963 12.4858 23.6335 12.4172 23.7913 12.4035C23.8393 12.3966 23.8942 12.4035 23.9354 12.4378C23.9628 12.4652 23.9697 12.5133 23.9766 12.5476C24.1343 12.623 24.3196 12.6299 24.4911 12.6093C24.7998 12.575 25.0879 12.4515 25.3898 12.3829C25.5407 12.3486 25.7053 12.328 25.8563 12.3829C25.9317 12.4035 26.0072 12.4515 26.0621 12.5064C26.0689 12.5064 26.0895 12.4995 26.0758 12.4858C26.0415 12.4652 26.0346 12.4172 26.0552 12.3692Z" fill="#FED101"/>
<path d="M22.1725 12.5409C22.2274 12.5477 22.2754 12.5683 22.3234 12.5958C22.3988 12.6301 22.4675 12.6849 22.5224 12.7467V12.7535C22.5224 12.7604 22.5086 12.7604 22.5086 12.7673C22.4675 12.733 22.4332 12.6918 22.392 12.6575C22.3303 12.6095 22.2548 12.582 22.1793 12.5614C22.1656 12.5614 22.1656 12.5477 22.1725 12.5409Z" fill="black"/>
<path d="M22.0287 12.6574C22.0218 12.6094 22.0698 12.5545 22.1247 12.5682C22.1179 12.5888 22.111 12.6094 22.1178 12.6231C22.1864 12.6368 22.255 12.6574 22.3168 12.6986C22.3785 12.7329 22.4197 12.7877 22.4677 12.8358C22.4883 12.8495 22.502 12.8221 22.5226 12.8083C22.5569 12.8426 22.5363 12.8975 22.502 12.925C22.4814 12.9455 22.4403 12.9387 22.4197 12.9318C22.3991 13.0073 22.3717 13.0896 22.3031 13.1308C22.2551 13.1582 22.1933 13.1719 22.1521 13.22C22.1247 13.2405 22.1179 13.2817 22.0904 13.2885C22.0698 13.2954 22.0492 13.2886 22.0287 13.2748C22.0698 13.2337 22.0973 13.1788 22.1178 13.1308C22.1453 13.1445 22.1659 13.1582 22.1933 13.1514C22.1933 13.1445 22.1933 13.1376 22.1933 13.1308C22.1727 13.1308 22.1453 13.1308 22.1316 13.1102C22.111 13.0759 22.1315 13.0347 22.1453 13.0073C22.1727 13.0141 22.207 13.021 22.2208 12.9936C22.2276 12.9798 22.2139 12.973 22.2139 12.9661C22.1865 13.0004 22.1453 12.9798 22.1247 12.9524C22.1179 12.9387 22.1384 12.9112 22.111 12.9044C22.0835 12.9318 22.0973 12.973 22.1247 12.9936C22.111 13.0279 22.0767 13.0553 22.0355 13.0485C22.0149 13.0485 22.0081 13.0279 21.9944 13.0141C21.9875 13.0141 21.9806 13.0141 21.9738 13.0141C21.9738 13.0416 22.0012 13.0622 22.0287 13.0759C22.0012 13.1239 21.9601 13.1651 21.9463 13.22C21.912 13.2131 21.8915 13.1719 21.9052 13.1445C21.9189 13.117 21.9395 13.0896 21.9395 13.0553C21.9532 13.0004 21.9326 12.9387 21.9463 12.8769C21.9601 12.8083 22.0149 12.7534 22.0629 12.7123C22.0492 12.6986 22.0287 12.678 22.0287 12.6574Z" fill="#FED101"/>
<path d="M22.0903 12.7465C22.0972 12.7397 22.104 12.7328 22.1109 12.7328C22.1452 12.7534 22.2001 12.7465 22.2275 12.7739C22.2344 12.7877 22.2207 12.7877 22.2069 12.7945C22.1932 12.8082 22.1864 12.8288 22.1658 12.822C22.1589 12.8014 22.1795 12.7945 22.1795 12.7739C22.1658 12.7739 22.152 12.7671 22.1383 12.7671C22.1315 12.7808 22.1315 12.8014 22.1178 12.8014L22.1109 12.7945C22.1109 12.7808 22.1177 12.7602 22.0972 12.7534L22.0903 12.7465Z" fill="black"/>
<path d="M21.0198 12.7877C21.061 12.774 21.109 12.774 21.1502 12.7808C21.2256 12.7945 21.3011 12.822 21.3697 12.8631C21.4451 12.9043 21.5206 12.9523 21.6029 12.9798C21.6098 12.9798 21.6167 12.9935 21.6167 13.0004C21.6235 13.0209 21.6304 13.0415 21.6441 13.0552C21.5961 13.0964 21.5481 13.1376 21.4863 13.165C21.404 13.117 21.3354 13.0552 21.2599 13.0072C21.1982 12.9592 21.1159 12.9455 21.0472 12.9318C21.0129 12.9318 20.9786 12.9249 20.9512 12.9523C20.9238 12.9798 20.9375 13.0278 20.9375 13.0621C20.9443 13.0827 20.9443 13.1101 20.9238 13.1238C20.9032 13.1444 20.8757 13.1376 20.8551 13.1376C20.8483 13.1581 20.8414 13.1787 20.8277 13.1993C20.8209 13.1787 20.8208 13.1581 20.814 13.1376C20.8003 13.1307 20.7797 13.1376 20.766 13.1376C20.7522 13.117 20.7454 13.0895 20.7523 13.069C20.7591 13.0484 20.7728 13.0415 20.7934 13.0278C20.7866 13.0209 20.7866 13.0141 20.7866 13.0072C20.7248 13.0209 20.7111 13.0964 20.7454 13.1444C20.7385 13.1513 20.7248 13.1513 20.7248 13.1581C20.7179 13.165 20.7111 13.1719 20.7042 13.1787C20.7042 13.1719 20.6974 13.1581 20.6974 13.1513C20.6974 13.1513 20.6905 13.1444 20.6836 13.1444C20.6288 13.117 20.6288 13.0346 20.6631 12.9866C20.6768 12.9798 20.6768 12.9661 20.6631 12.9592C20.6013 12.9935 20.6013 13.0758 20.6288 13.1307C20.6151 13.1376 20.6013 13.1513 20.5876 13.1581C20.5602 13.1581 20.5396 13.1376 20.5327 13.117C20.5121 13.0621 20.5327 12.9935 20.5808 12.9523C20.6219 12.918 20.6699 12.8906 20.718 12.8975C20.766 12.9043 20.8071 12.9318 20.8551 12.9112C20.8963 12.8769 20.9512 12.822 21.0198 12.7877Z" fill="#FED101"/>
<path d="M21.7882 12.8221C21.8431 12.8495 21.898 12.8083 21.9528 12.7946C21.9323 12.8289 21.9186 12.8632 21.9186 12.9044C21.9117 12.9593 21.9254 13.0073 21.9117 13.0622C21.9048 13.1033 21.8705 13.1308 21.8774 13.1719C21.8774 13.2062 21.9117 13.2337 21.9391 13.2474C21.946 13.2611 21.9528 13.268 21.9665 13.2748C21.9803 13.2886 22.0008 13.2817 22.0146 13.2886C22.042 13.3091 22.0695 13.316 22.1038 13.3023C22.1449 13.2886 22.1518 13.2474 22.1792 13.22C22.2273 13.1719 22.2959 13.1651 22.3439 13.1239C22.3919 13.0828 22.4194 13.021 22.4331 12.9593C22.4331 12.9456 22.4468 12.9456 22.4536 12.9524C22.4536 13.069 22.4948 13.1857 22.5566 13.2817C22.5634 13.2886 22.5634 13.2954 22.5702 13.3023C22.5428 13.3023 22.5085 13.2954 22.4879 13.2817C22.4673 13.2749 22.4537 13.2474 22.4331 13.2337C22.4194 13.2954 22.4056 13.3503 22.4262 13.4121C22.4331 13.4326 22.4331 13.4601 22.4331 13.4806C22.3851 13.4258 22.3027 13.4258 22.2616 13.364C22.2547 13.364 22.2478 13.364 22.241 13.3709C22.2341 13.4532 22.1792 13.5287 22.1929 13.6179C22.1449 13.6041 22.1038 13.5767 22.0763 13.5424C22.042 13.4944 22.0352 13.4395 22.0352 13.3915C22.0283 13.3915 22.0146 13.3915 22.0077 13.3846C21.9597 13.4738 21.8705 13.5355 21.7745 13.5355C21.7951 13.4669 21.7882 13.3983 21.8019 13.3297C21.8088 13.316 21.8225 13.2954 21.8294 13.2817C21.7951 13.2954 21.7607 13.3092 21.7264 13.3023C21.6784 13.2954 21.6235 13.2817 21.5892 13.2406C21.6373 13.2268 21.6716 13.1857 21.7059 13.1514C21.7265 13.1308 21.747 13.1171 21.7745 13.0965C21.7745 13.0896 21.7745 13.0828 21.7745 13.0759C21.747 13.0759 21.7196 13.0828 21.6922 13.069C21.6579 13.0553 21.6304 13.021 21.6167 12.9867C21.6647 12.9867 21.7196 12.9867 21.7607 12.9524C21.7882 12.9318 21.8225 12.9181 21.8568 12.9113C21.8568 12.9044 21.8568 12.8975 21.8568 12.8907C21.8362 12.8907 21.8019 12.8632 21.7882 12.8221Z" fill="#FED101"/>
<path d="M22.289 12.8082C22.3301 12.8151 22.3507 12.8562 22.3782 12.8905C22.3782 12.8974 22.385 12.8974 22.3782 12.9111C22.3713 12.9111 22.3644 12.918 22.3576 12.9111C22.3438 12.918 22.3164 12.9317 22.3233 12.9042C22.3301 12.8974 22.337 12.8905 22.3439 12.8837C22.337 12.8699 22.3233 12.8562 22.3095 12.8425C22.3027 12.8562 22.2958 12.8837 22.2684 12.8837C22.2821 12.8631 22.289 12.8357 22.289 12.8082Z" fill="black"/>
<path d="M22.6255 13.3296C22.5363 13.2336 22.4814 13.0964 22.4814 12.966C22.5363 13.0895 22.6529 13.1787 22.7832 13.2061C22.8518 13.2267 22.9273 13.2267 23.0028 13.2267C22.9616 13.2885 22.893 13.3296 22.8176 13.3365C22.8176 13.3365 22.8176 13.3502 22.8176 13.3571C22.8587 13.3639 22.9067 13.3776 22.941 13.4051C22.9891 13.4394 23.0233 13.5011 23.0851 13.5286C23.1125 13.5423 23.14 13.5423 23.1743 13.5491C23.1262 13.6246 23.0302 13.6589 22.941 13.652C22.8793 13.652 22.8244 13.6315 22.7695 13.6109C22.7627 13.6177 22.7627 13.6246 22.7627 13.6315C22.8724 13.6863 22.9479 13.7824 23.0165 13.8853V13.8922C22.8999 13.9127 22.7764 13.9127 22.6666 13.8716C22.6254 13.8579 22.598 13.8304 22.5706 13.7961C22.5774 13.8785 22.598 13.9676 22.598 14.05C22.5294 13.9814 22.4334 13.9402 22.3579 13.8784C22.3236 13.851 22.2893 13.8167 22.2893 13.7687C22.2824 13.7687 22.2756 13.7687 22.2687 13.7687C22.2413 13.8579 22.1658 13.9265 22.1452 14.0156C22.1178 13.9813 22.0904 13.9471 22.0698 13.9059C22.0492 13.8716 22.0492 13.8236 22.056 13.7824C22.0492 13.7824 22.0355 13.7824 22.0286 13.7824C22.0217 13.8441 21.9943 13.899 21.9463 13.9333C21.8914 13.9745 21.8297 14.0019 21.7679 14.0431C21.7679 13.9539 21.7679 13.8579 21.7953 13.7687C21.7336 13.7961 21.6856 13.8373 21.6238 13.851C21.569 13.8716 21.5072 13.8716 21.4592 13.851C21.4798 13.8373 21.5004 13.8167 21.521 13.7961C21.5758 13.7275 21.5964 13.6246 21.6444 13.556C21.665 13.5286 21.6924 13.508 21.7199 13.4943C21.7199 13.4874 21.7131 13.4806 21.7062 13.4737C21.6513 13.5011 21.5964 13.5217 21.5347 13.5149C21.4867 13.508 21.4318 13.4943 21.3975 13.46C21.4524 13.4462 21.5072 13.4257 21.5484 13.3914C21.569 13.3708 21.5896 13.3571 21.6033 13.3296C21.521 13.3433 21.4386 13.3296 21.37 13.2816C21.3494 13.2679 21.322 13.2473 21.3083 13.2267C21.4386 13.2199 21.5553 13.1444 21.6582 13.0621C21.6788 13.0827 21.7062 13.0895 21.7336 13.0964C21.6993 13.1238 21.6719 13.165 21.6307 13.1924C21.6101 13.2061 21.5827 13.2061 21.5621 13.1993C21.5758 13.2404 21.6101 13.2679 21.6444 13.2816C21.6925 13.309 21.7405 13.3159 21.7953 13.3159C21.7679 13.3776 21.7885 13.4462 21.7679 13.508C21.7611 13.5286 21.7405 13.5354 21.7199 13.5491C21.8365 13.5766 21.96 13.5217 22.0217 13.4257C22.0286 13.4805 22.0492 13.5354 22.0835 13.5766C22.1247 13.6178 22.1795 13.6383 22.2344 13.652C22.2344 13.6246 22.2207 13.5972 22.2275 13.5766C22.2344 13.5217 22.255 13.4737 22.2687 13.4257C22.2756 13.4257 22.2824 13.4325 22.2893 13.4325C22.3305 13.46 22.3716 13.4668 22.4059 13.4943C22.4265 13.508 22.4334 13.5286 22.4539 13.5491C22.4677 13.5148 22.4677 13.4805 22.4608 13.4462C22.4471 13.3982 22.4471 13.3433 22.4539 13.2953C22.502 13.3296 22.5706 13.3502 22.6255 13.3296Z" fill="#FED101"/>
<path d="M22.0493 13.0897C22.063 13.076 22.0836 13.0691 22.0973 13.0622C22.0973 13.0828 22.1042 13.1034 22.0905 13.1171C22.063 13.1651 22.0493 13.22 22.0013 13.2543C21.9876 13.268 21.967 13.2612 21.9601 13.2474C21.9533 13.2337 21.9601 13.2132 21.9669 13.1994C21.9944 13.1583 22.0219 13.124 22.0493 13.0897Z" fill="#FED101"/>
<path d="M20.622 13.1651C20.622 13.1445 20.6426 13.1651 20.6494 13.1651C20.6632 13.2063 20.6975 13.2406 20.7386 13.2474C20.7318 13.22 20.718 13.1926 20.7249 13.172C20.7386 13.1651 20.7592 13.1582 20.7798 13.1582C20.7867 13.1857 20.7867 13.2131 20.7798 13.2406C20.7935 13.2406 20.8072 13.2269 20.821 13.22C20.8758 13.4121 20.8827 13.6247 20.8416 13.8237C20.8347 13.8374 20.8209 13.8511 20.8141 13.8717C20.7935 13.858 20.773 13.8443 20.7524 13.8374C20.7524 13.8168 20.7455 13.8031 20.7455 13.7825C20.7455 13.7688 20.7592 13.7551 20.7592 13.7414C20.7387 13.7482 20.7112 13.7551 20.6975 13.7688C20.6769 13.7825 20.67 13.81 20.6632 13.8306C20.6495 13.8168 20.6357 13.8031 20.6152 13.7963C20.6083 13.7688 20.6014 13.7414 20.6083 13.7139C20.6014 13.7139 20.5946 13.7071 20.5877 13.7002C20.5809 13.7071 20.574 13.7208 20.5671 13.7277C20.5465 13.5561 20.5534 13.3778 20.6083 13.2131C20.622 13.2131 20.6357 13.2131 20.6426 13.2063C20.6357 13.1994 20.6152 13.1857 20.622 13.1651Z" fill="white"/>
<path d="M20.3818 13.5699C20.3818 13.4258 20.4367 13.2886 20.519 13.1651C20.5328 13.172 20.5397 13.172 20.5465 13.1788C20.5602 13.1925 20.5671 13.1994 20.5808 13.2131C20.5328 13.3915 20.5122 13.5836 20.5465 13.7619C20.5534 13.7894 20.5534 13.8168 20.5328 13.8305C20.5053 13.858 20.5122 13.906 20.519 13.9472C20.5122 13.9472 20.5054 13.9403 20.4985 13.9334C20.4299 13.8237 20.3818 13.7002 20.3818 13.5699Z" fill="white"/>
<path d="M20.8417 13.2131C20.8349 13.1925 20.8554 13.1788 20.8554 13.1651C20.8691 13.1651 20.8829 13.1582 20.8966 13.1582C20.9858 13.2817 21.0475 13.4395 21.0407 13.5973C21.0407 13.6864 21.0132 13.7688 20.9789 13.8442C20.9721 13.8442 20.9583 13.8442 20.9583 13.8305C20.9446 13.7825 20.9241 13.7345 20.8829 13.7207C20.9035 13.5424 20.8898 13.3709 20.8417 13.2131Z" fill="white"/>
<path d="M24.9305 13.4668C24.9648 13.4668 24.9923 13.4531 25.0197 13.4394C25.0129 13.5011 24.9649 13.5492 24.9168 13.5903C25.006 13.604 25.1021 13.6041 25.1775 13.5629C25.2187 13.5423 25.253 13.508 25.2667 13.4668C25.3079 13.4874 25.349 13.508 25.3833 13.5354C25.3422 13.604 25.253 13.6246 25.1844 13.6521C25.1089 13.6795 25.0471 13.7481 25.054 13.8304C25.054 13.9059 25.1089 13.9608 25.1638 14.0088C25.1569 14.0157 25.1501 14.0225 25.1432 14.0294C25.0197 14.1323 24.8756 14.194 24.7179 14.2283C24.6287 14.2421 24.5327 14.2489 24.4435 14.2283C24.4023 14.2146 24.3612 14.2078 24.32 14.2215C24.2651 14.2421 24.2377 14.3038 24.1759 14.3175C24.1348 14.3312 24.0936 14.3038 24.0662 14.2695C24.025 14.2626 23.9838 14.2901 23.9495 14.3175C23.9564 14.3038 23.9564 14.2832 23.9701 14.2695C23.9838 14.2489 24.0113 14.2421 24.0318 14.2283C24.0318 14.194 24.0456 14.1597 24.0799 14.1392C24.121 14.1117 24.1759 14.1186 24.2239 14.1254C24.2239 14.1186 24.2239 14.1117 24.2308 14.1048C24.1759 14.0911 24.1073 14.0843 24.0593 14.1254C24.0524 14.1323 24.0456 14.146 24.0318 14.1392C24.0181 14.1186 24.0113 14.098 24.0044 14.0774C23.977 14.0774 23.9564 14.0911 23.929 14.098C23.9427 14.0706 23.9701 14.0568 23.9907 14.05C23.9975 14.0157 24.0319 13.9951 24.0662 13.9951C24.1005 13.9882 24.1347 13.9951 24.169 14.0019C24.1828 14.0088 24.1965 13.9882 24.1828 13.9814C24.1416 13.9676 24.1005 13.9676 24.0662 13.9471C24.0867 13.9402 24.1142 13.9402 24.1416 13.9333C24.1965 13.8922 24.2719 13.9059 24.3268 13.9471C24.3748 13.9745 24.3954 14.0294 24.4366 14.0568C24.4846 14.0911 24.5532 14.1048 24.615 14.1048C24.7042 14.1048 24.7933 14.0705 24.8688 14.0225C24.8757 14.0225 24.8894 14.0088 24.8757 14.0019C24.8208 13.9608 24.7659 13.9128 24.7522 13.8373C24.7453 13.7824 24.7453 13.7275 24.7728 13.6795C24.7796 13.6726 24.7933 13.6589 24.7796 13.6452C24.7659 13.6384 24.7591 13.6452 24.7453 13.6521C24.711 13.6726 24.6699 13.6795 24.6219 13.6795C24.6493 13.6589 24.6767 13.6315 24.6904 13.6041C24.711 13.5766 24.711 13.5354 24.7453 13.5149C24.8002 13.46 24.8756 13.4737 24.9305 13.4668Z" fill="#FED101"/>
<path d="M20.5808 13.7618C20.5808 13.7824 20.5876 13.7961 20.5945 13.8167C20.6082 13.8236 20.6288 13.8236 20.6357 13.8441C20.6288 13.8579 20.6219 13.8785 20.6219 13.899C20.6219 13.9333 20.6425 13.9814 20.6768 13.9882C20.6974 13.9814 20.6837 13.9608 20.67 13.9608C20.6425 13.9333 20.6357 13.8853 20.6631 13.8579C20.67 13.8579 20.6837 13.8579 20.6905 13.8579C20.6905 13.8304 20.7043 13.8098 20.718 13.7893C20.7249 13.8098 20.7248 13.8373 20.7317 13.8579C20.766 13.8647 20.7934 13.8785 20.814 13.9059C20.8209 13.9128 20.8278 13.9333 20.8415 13.9196C20.8415 13.899 20.8346 13.8784 20.8483 13.8647C20.8552 13.851 20.8689 13.8441 20.8826 13.8304C20.8964 13.8098 20.8963 13.7824 20.8963 13.755C20.9306 13.7687 20.9306 13.8167 20.9375 13.851C20.9375 13.8441 20.9375 13.8373 20.9375 13.8373L20.9444 13.851C20.9649 13.851 20.9855 13.8579 20.9924 13.8716C21.013 13.9059 21.0061 13.9539 20.9993 13.9882C21.0198 14.0157 21.0473 14.0294 21.0747 14.0431C21.1021 14.0568 21.1227 14.0843 21.157 14.0911C21.2119 14.098 21.2737 14.0843 21.3285 14.0705C21.4246 14.05 21.5001 13.9814 21.5755 13.9196C21.603 13.899 21.6235 13.8716 21.651 13.8647C21.6716 13.8579 21.6921 13.8442 21.7127 13.8373C21.7196 13.8373 21.7333 13.8304 21.7402 13.8304C21.7402 13.8716 21.7333 13.9059 21.7333 13.9402C21.7333 13.9745 21.7402 14.0088 21.7264 14.0362C21.6373 14.0842 21.5549 14.146 21.4726 14.2009C21.4177 14.2421 21.3423 14.2695 21.2737 14.2626C21.1914 14.2558 21.109 14.2283 21.0335 14.2009C20.9855 14.1803 20.9307 14.1666 20.8826 14.1734C20.8278 14.1734 20.766 14.1666 20.7248 14.1254C20.7042 14.1048 20.6768 14.0911 20.6494 14.098C20.5808 14.1186 20.4985 14.0911 20.4573 14.0294C20.4436 14.0019 20.4504 13.9745 20.4367 13.9471C20.4641 13.9745 20.4985 13.9539 20.5328 13.9676C20.5533 13.9951 20.5808 14.0157 20.6082 14.0294C20.6219 14.0294 20.6219 14.0157 20.6219 14.0088C20.5808 13.9882 20.5465 13.9608 20.5396 13.9127C20.5259 13.8784 20.5465 13.8441 20.5739 13.8236C20.5739 13.803 20.5739 13.7824 20.5808 13.7618Z" fill="#FED101"/>
<path d="M24.9169 14.6743C24.9924 14.688 25.061 14.736 25.1159 14.7909C25.1159 14.7497 25.1158 14.7086 25.1021 14.6743C25.1639 14.7017 25.2188 14.7498 25.2531 14.8046C25.2462 14.7635 25.2325 14.7292 25.2188 14.6949C25.2805 14.7292 25.3285 14.7772 25.3628 14.8321C25.3628 14.7909 25.356 14.7497 25.3423 14.7086C25.4109 14.7566 25.4657 14.8184 25.5069 14.887C25.5069 14.8938 25.5137 14.9281 25.5275 14.9075C25.5206 14.8664 25.5137 14.8252 25.5 14.7841C25.5618 14.8046 25.5961 14.8732 25.6304 14.9212C25.6578 14.9281 25.6852 14.935 25.7058 14.9418C25.6852 14.8938 25.6647 14.8458 25.6304 14.8115C25.6304 14.8046 25.6372 14.7978 25.6441 14.7909C25.6853 14.8046 25.7196 14.8321 25.7539 14.8595C25.7607 14.8046 25.7607 14.7497 25.7401 14.7017C25.7881 14.7292 25.8293 14.7703 25.8568 14.8183C25.8842 14.7635 25.9185 14.6949 25.9803 14.6674C25.9665 14.7292 25.9528 14.7909 25.9597 14.8595C26.0077 14.8389 26.0557 14.8183 26.1106 14.8183C26.0557 14.8732 26.0146 14.935 25.9871 15.0104C26.0763 14.9212 26.1929 14.8664 26.2958 14.8115C26.337 14.784 26.385 14.7635 26.4261 14.7292C26.4467 14.7154 26.4468 14.688 26.4605 14.6674C26.4673 14.6949 26.4674 14.7292 26.4674 14.7566C26.5154 14.7154 26.5839 14.6811 26.6457 14.7017C26.6182 14.7292 26.5977 14.7566 26.584 14.7909C26.6731 14.7429 26.776 14.7154 26.8721 14.736C26.8378 14.7635 26.8035 14.7909 26.7829 14.8252C26.8584 14.7978 26.9476 14.8046 27.0162 14.8389C26.9681 14.8526 26.9201 14.8664 26.8858 14.9007C26.975 14.9007 27.0573 14.9624 27.0985 15.0379C27.0299 15.031 26.9613 15.0242 26.8995 15.031C26.9475 15.079 26.9681 15.1476 26.9681 15.2162C26.9064 15.1751 26.8446 15.1339 26.776 15.1065C26.7966 15.1408 26.8104 15.1751 26.8104 15.2162L26.8172 15.2231C26.8103 15.2231 26.8035 15.2231 26.8035 15.2231C26.7486 15.1545 26.6663 15.1133 26.584 15.0928C26.5771 15.079 26.5702 15.0859 26.5634 15.0859C26.6045 15.1065 26.6251 15.1545 26.632 15.1957C26.5428 15.1545 26.4536 15.0996 26.3507 15.1133C26.3781 15.1339 26.4124 15.1545 26.433 15.1888C26.4193 15.1957 26.4056 15.1957 26.385 15.1957C26.3438 15.1957 26.3027 15.2094 26.2615 15.2094V15.2162C26.3233 15.2231 26.3781 15.2505 26.433 15.2711C26.5496 15.3191 26.6663 15.4015 26.7212 15.525C26.7761 15.6347 26.7623 15.7651 26.728 15.8748C26.7211 15.8748 26.7074 15.8748 26.7006 15.8748C26.6869 15.7994 26.6731 15.7239 26.6525 15.6484C26.6457 15.7102 26.6251 15.7856 26.5565 15.7994C26.5634 15.7376 26.5634 15.6827 26.5497 15.6279C26.5359 15.6622 26.5153 15.7033 26.481 15.7239C26.4742 15.669 26.4673 15.6141 26.4399 15.5661C26.433 15.5524 26.4262 15.5387 26.4125 15.5318C26.4125 15.5867 26.3987 15.6553 26.337 15.6759C26.3301 15.621 26.3301 15.5524 26.289 15.5181C26.2821 15.5524 26.2615 15.5936 26.2341 15.6141C26.3095 15.6965 26.3781 15.7994 26.3987 15.9091C26.4056 15.9983 26.4124 16.0806 26.3919 16.1698C26.3781 16.2316 26.3507 16.2865 26.2958 16.3276C26.3027 16.2727 26.2958 16.2247 26.289 16.1698C26.2615 16.211 26.2272 16.2521 26.1723 16.2727C26.1792 16.2453 26.1929 16.2247 26.1998 16.1973C26.2066 16.1767 26.2135 16.1492 26.2203 16.1218C26.2272 16.1149 26.2272 16.1012 26.2135 16.1012C26.1929 16.1492 26.1586 16.1835 26.1106 16.211C26.1175 16.1287 26.138 16.0532 26.1449 15.9709C26.1449 15.9571 26.1518 15.9434 26.1518 15.9366C26.1243 15.9777 26.09 16.0189 26.042 16.0395C26.0557 15.964 26.0832 15.8817 26.0694 15.8062C26.0489 15.8474 26.0283 15.8817 25.9871 15.9023C26.0008 15.8199 25.994 15.7376 25.946 15.669C25.9391 15.6896 25.9322 15.7033 25.9322 15.7239C25.9322 15.9091 25.9391 16.0944 25.9597 16.2796C25.9734 16.3894 25.994 16.506 26.042 16.6089V16.6157C25.9871 16.602 25.9254 16.5746 25.8911 16.5265C25.8705 16.5677 25.843 16.6089 25.8087 16.6363C25.795 16.602 25.7882 16.5677 25.7813 16.5334C25.7333 16.554 25.6853 16.5883 25.6304 16.5883C25.7058 16.4374 25.7539 16.2727 25.7676 16.1081C25.7813 15.9983 25.7744 15.8954 25.7676 15.7856C25.7607 15.8131 25.7538 15.8405 25.7401 15.8748C25.7401 15.8748 25.7333 15.8817 25.7264 15.8817C25.7058 15.8405 25.6921 15.7994 25.6784 15.7651C25.6784 15.7994 25.6647 15.8405 25.651 15.8817C25.6373 15.9297 25.6235 15.9777 25.5892 16.012C25.5755 15.9777 25.5618 15.9366 25.5549 15.9023C25.5481 15.9846 25.5275 16.0601 25.5069 16.1355C25.5 16.163 25.5 16.1904 25.5069 16.2178C25.4657 16.1767 25.4314 16.1218 25.4108 16.0601C25.3903 16.1355 25.3628 16.211 25.3491 16.2865C25.3217 16.2522 25.3079 16.2178 25.2874 16.1835C25.2599 16.2247 25.2462 16.2659 25.2256 16.307C25.2187 16.307 25.2119 16.3002 25.205 16.3002C25.1845 16.1492 25.1982 15.9983 25.2531 15.8611C25.3285 15.669 25.4794 15.5181 25.6578 15.4221C25.6098 15.4152 25.5618 15.4358 25.5275 15.4632C25.5069 15.4769 25.5 15.5044 25.4795 15.5181C25.4726 15.4838 25.4726 15.4426 25.4657 15.4083C25.4314 15.4495 25.404 15.5044 25.3834 15.5524C25.3766 15.5524 25.3697 15.5524 25.3628 15.5524C25.356 15.5181 25.3423 15.4769 25.3423 15.4426C25.3491 15.4358 25.3354 15.4358 25.3354 15.4289L25.3423 15.4426C25.308 15.4975 25.2805 15.5593 25.2668 15.6141C25.2599 15.6141 25.2531 15.6141 25.2462 15.6141C25.2325 15.573 25.2188 15.5318 25.2188 15.4838C25.1982 15.5387 25.1844 15.5936 25.1844 15.6484C25.1433 15.621 25.1296 15.5661 25.109 15.525C25.0884 15.5936 25.061 15.6622 25.061 15.7376C24.9992 15.7102 24.9855 15.6347 24.9786 15.5798C24.9375 15.6278 24.8963 15.6827 24.8689 15.7376C24.8552 15.7513 24.8551 15.7719 24.8414 15.7856C24.8208 15.6965 24.8209 15.6073 24.8483 15.525C24.8689 15.4632 24.9032 15.4083 24.9512 15.3672C24.9718 15.3466 24.9924 15.3329 25.0061 15.3123C25.013 15.3123 25.0198 15.3123 25.0198 15.3123C25.0267 15.2986 25.0404 15.2917 25.0541 15.2848C25.0953 15.2574 25.1433 15.2368 25.1913 15.2231C25.1776 15.1819 25.1776 15.1408 25.1844 15.0996C25.1158 15.1545 25.0472 15.2163 25.0198 15.2986C25.0129 15.2986 25.0061 15.2986 24.9992 15.2986C24.9924 15.2437 24.9855 15.1957 24.9992 15.1408C24.9444 15.1819 24.8895 15.2368 24.8689 15.3054C24.8483 15.2231 24.8552 15.1339 24.8963 15.0516C24.8003 15.1133 24.718 15.2162 24.6837 15.326C24.6562 15.2437 24.6699 15.1545 24.6905 15.0722C24.6974 15.0379 24.7111 15.0104 24.7317 14.983C24.6837 14.9898 24.6425 14.9899 24.6013 15.0173C24.5739 15.0104 24.5945 14.983 24.6013 14.9693C24.6562 14.8938 24.7522 14.8458 24.8414 14.8389C24.814 14.8046 24.7866 14.7635 24.7454 14.7429C24.7454 14.736 24.7454 14.7292 24.7454 14.7223C24.8277 14.7223 24.9032 14.7635 24.9649 14.8115C24.9649 14.7772 24.9512 14.7154 24.9169 14.6743Z" fill="black"/>
<path d="M24.9718 14.7223C25.0336 14.7498 25.0885 14.7909 25.1296 14.8527C25.1434 14.8115 25.1365 14.7635 25.1365 14.7223C25.1845 14.7566 25.2257 14.7978 25.2531 14.8458C25.26 14.8596 25.2737 14.8664 25.2805 14.8595C25.2805 14.8252 25.2668 14.7909 25.2668 14.7498C25.308 14.7841 25.3423 14.839 25.3697 14.887C25.3766 14.8801 25.3835 14.8801 25.3903 14.8733C25.3903 14.839 25.3903 14.8047 25.3903 14.7704C25.4521 14.8321 25.5069 14.9076 25.5344 14.9899C25.5412 14.9693 25.5412 14.9419 25.5481 14.9213C25.555 14.8938 25.5412 14.8733 25.5481 14.8458C25.6098 14.9213 25.651 15.0105 25.699 15.0997C25.7127 15.1202 25.7059 15.1477 25.7196 15.1683C25.6167 15.0859 25.5001 15.0242 25.3766 14.983C25.2531 14.9419 25.1159 14.9213 24.9787 14.935C24.9787 14.9419 24.9787 14.9487 24.9787 14.9624C25.1228 14.9487 25.2668 14.9762 25.3972 15.0242C25.5206 15.0722 25.6442 15.134 25.7333 15.23C25.699 15.2232 25.6647 15.2026 25.6304 15.1889C25.5618 15.1614 25.5001 15.1271 25.4246 15.134C25.3903 15.134 25.3629 15.1614 25.3354 15.1751C25.3354 15.1545 25.3354 15.134 25.3354 15.1065C25.3423 15.0928 25.356 15.0791 25.3629 15.0653C25.2943 15.0722 25.2462 15.1408 25.1914 15.182C25.1845 15.1477 25.1982 15.1134 25.1982 15.0791C25.1776 15.0654 25.1639 15.0859 25.1502 15.0997C25.0885 15.1477 25.0336 15.2094 24.9924 15.2712C24.9924 15.23 24.9856 15.1957 24.9993 15.1545C25.0061 15.1408 25.0061 15.1271 25.013 15.1065C24.965 15.134 24.9238 15.1614 24.8895 15.2026C24.8826 15.2094 24.8758 15.2163 24.8621 15.2231C24.8552 15.1751 24.8689 15.134 24.8826 15.0928C24.8964 15.0654 24.9101 15.0448 24.9238 15.0242C24.8209 15.0585 24.7454 15.1408 24.6837 15.23H24.6768C24.67 15.1614 24.6906 15.0997 24.718 15.0379C24.7249 15.0173 24.7454 14.9968 24.7592 14.983C24.7111 14.9762 24.6563 14.9899 24.6151 14.9899C24.6631 14.935 24.7386 14.9007 24.8072 14.887C24.8278 14.8801 24.8552 14.887 24.8758 14.8938C24.8552 14.8527 24.8278 14.8184 24.8003 14.7772C24.8621 14.7841 24.9101 14.8253 24.9581 14.8664C24.9581 14.8664 24.9718 14.8733 24.9718 14.8801C24.9855 14.8252 24.9855 14.7704 24.9718 14.7223Z" fill="#00AA39"/>
<path d="M26.4674 14.791C26.5086 14.7635 26.5428 14.7292 26.5977 14.7292C26.5771 14.7635 26.5497 14.7979 26.5566 14.8459C26.584 14.8322 26.6046 14.8184 26.6252 14.8047C26.6801 14.7773 26.7487 14.7567 26.8104 14.7636C26.7761 14.7979 26.735 14.839 26.7212 14.887C26.7555 14.8733 26.7898 14.8459 26.831 14.839C26.8653 14.8322 26.9064 14.8322 26.9476 14.8459C26.9064 14.8665 26.8722 14.8939 26.8447 14.9351C26.9202 14.9282 27.0094 14.9556 27.0505 15.0174C26.9819 15.0174 26.9133 15.0037 26.8516 15.0242C26.8722 15.0448 26.8996 15.0654 26.9133 15.0928C26.927 15.1134 26.9339 15.1409 26.9407 15.1683C26.8653 15.1272 26.7898 15.0791 26.7006 15.0723C26.7281 15.0997 26.7624 15.1272 26.7692 15.1683C26.6869 15.1066 26.584 15.0585 26.4811 15.0654C26.488 15.0791 26.5085 15.086 26.5223 15.0928C26.5428 15.1066 26.5634 15.1272 26.5772 15.1477C26.5086 15.1203 26.4399 15.086 26.3576 15.086C26.3302 15.086 26.3027 15.0929 26.2822 15.1066C26.3165 15.1272 26.3508 15.1409 26.3714 15.1683C26.3165 15.1752 26.2616 15.182 26.2067 15.2026C26.1587 15.2026 26.1107 15.2026 26.0695 15.2095C26.0352 15.2163 26.0009 15.2232 25.9666 15.2438C25.9872 15.2712 26.0146 15.2438 26.0352 15.2369C26.0969 15.2232 26.1655 15.2163 26.2341 15.2369C26.3508 15.2712 26.4742 15.3124 26.5634 15.3878C26.6046 15.4153 26.6389 15.4564 26.6595 15.4976C26.7144 15.5936 26.7281 15.7103 26.6938 15.82C26.6732 15.7308 26.6663 15.6348 26.6046 15.5662C26.6046 15.6142 26.6046 15.6554 26.5909 15.6966C26.584 15.7103 26.5771 15.7377 26.5566 15.7446C26.5566 15.6897 26.5497 15.6348 26.5291 15.5868C26.5291 15.5799 26.5154 15.5662 26.5154 15.5799C26.5017 15.6074 26.5017 15.6417 26.4674 15.6554C26.4537 15.6279 26.4468 15.6005 26.4331 15.5731C26.4125 15.5319 26.385 15.4976 26.3439 15.477C26.3507 15.5319 26.3576 15.5937 26.3233 15.6417C26.3096 15.6074 26.3096 15.5662 26.289 15.5388C26.2822 15.5182 26.2616 15.5182 26.2547 15.5045C26.2478 15.477 26.241 15.4496 26.2204 15.4221C26.2135 15.4084 26.1998 15.4153 26.1861 15.4221C26.2067 15.4496 26.241 15.4839 26.2273 15.5182C26.2204 15.5388 26.2136 15.5662 26.193 15.5731C26.1655 15.5045 26.1038 15.4496 26.0283 15.4221C25.9872 15.4084 25.946 15.4153 25.9049 15.4221C25.9049 15.429 25.9048 15.4359 25.9117 15.4359C26.0146 15.4839 26.1038 15.5593 26.1861 15.6348C26.2616 15.7103 26.3302 15.8132 26.3439 15.9229C26.3439 15.9984 26.3507 16.067 26.3439 16.1425C26.337 16.1836 26.3233 16.2316 26.2959 16.2659C26.2959 16.2316 26.2959 16.1974 26.289 16.1699C26.2822 16.1219 26.3028 16.0739 26.2959 16.019L26.289 16.0121H26.2822C26.2753 16.0396 26.2753 16.067 26.2684 16.0944C26.2547 16.1356 26.2273 16.1768 26.1998 16.2111C26.2067 16.1699 26.2204 16.1287 26.2273 16.0807C26.2341 16.019 26.2547 15.9641 26.2547 15.9024C26.2616 15.8886 26.241 15.8749 26.2341 15.8886C26.2273 15.9229 26.2273 15.9573 26.2204 15.9847C26.2067 16.0327 26.193 16.0739 26.1587 16.115C26.1518 16.1219 26.1449 16.1288 26.1312 16.1356C26.1312 16.0807 26.145 16.0327 26.1518 15.9778C26.1587 15.9298 26.1587 15.8749 26.1587 15.8269C26.1587 15.7995 26.1587 15.772 26.1587 15.7446C26.1518 15.7446 26.1449 15.7446 26.1381 15.7446C26.1381 15.7926 26.1449 15.8406 26.1381 15.8886C26.1175 15.9229 26.0969 15.9573 26.0695 15.9847C26.0695 15.9435 26.0832 15.9024 26.0832 15.8543C26.0901 15.7926 26.0695 15.7309 26.0489 15.676C26.0489 15.6622 26.0352 15.6485 26.0215 15.6623C26.0215 15.6966 26.042 15.724 26.042 15.7514C26.0352 15.7789 26.0215 15.8132 26.0077 15.8338C26.0077 15.7652 25.994 15.6966 25.9529 15.6417C25.9597 15.6142 25.9734 15.5868 25.9666 15.5593C25.9597 15.5593 25.9529 15.5593 25.946 15.5593C25.9392 15.5936 25.9323 15.6211 25.9117 15.6554C25.9117 15.6691 25.898 15.6691 25.8911 15.6691C25.8843 15.6279 25.8911 15.5731 25.8637 15.5388C25.8363 15.5388 25.8431 15.5662 25.8431 15.5799C25.8431 15.6074 25.8363 15.6279 25.8225 15.6485C25.8157 15.5936 25.8019 15.5388 25.7539 15.5045C25.7608 15.6074 25.7471 15.7103 25.7128 15.8063C25.6922 15.7652 25.6853 15.7103 25.6716 15.6691C25.6647 15.6691 25.6579 15.6691 25.651 15.6691C25.651 15.6965 25.651 15.7308 25.6373 15.7583C25.6236 15.82 25.6167 15.8749 25.5893 15.9298C25.5618 15.8818 25.5481 15.8269 25.5412 15.772C25.5344 15.772 25.5275 15.772 25.5138 15.7652C25.507 15.82 25.5138 15.8818 25.5001 15.9435C25.4864 16.0053 25.4726 16.067 25.4521 16.1288C25.4246 16.0807 25.404 16.0396 25.3972 15.9847C25.3903 15.9298 25.3972 15.8818 25.4109 15.8338C25.404 15.8338 25.3972 15.8338 25.3835 15.8338C25.3766 15.8681 25.3697 15.9024 25.3697 15.9367C25.3697 15.9778 25.3766 16.0258 25.3629 16.067C25.3423 16.1082 25.3423 16.163 25.3148 16.2042C25.3011 16.1905 25.2943 16.1699 25.2874 16.1493C25.308 16.0876 25.3148 16.0258 25.3217 15.971C25.3286 15.9572 25.308 15.9572 25.2943 15.9572C25.2874 16.019 25.2806 16.0807 25.26 16.1356C25.2394 16.1768 25.2188 16.2111 25.1982 16.2522C25.1845 16.115 25.2051 15.971 25.26 15.8406C25.3217 15.7034 25.4315 15.5799 25.555 15.4976C25.5961 15.4702 25.6373 15.4565 25.6785 15.429C25.6442 15.3947 25.5893 15.4016 25.5481 15.4153C25.5207 15.4221 25.5001 15.4427 25.4795 15.4564C25.4727 15.4564 25.4727 15.4564 25.4727 15.4564C25.4727 15.429 25.4658 15.4084 25.4727 15.3878C25.4727 15.3604 25.5138 15.3467 25.5001 15.3261C25.4864 15.3192 25.4795 15.333 25.4727 15.3398C25.4521 15.3673 25.4383 15.4016 25.4109 15.429C25.3903 15.4565 25.3766 15.4907 25.356 15.5182C25.3491 15.4839 25.3492 15.4496 25.3492 15.4153C25.356 15.3878 25.3766 15.3673 25.3903 15.3398C25.3903 15.3261 25.3697 15.3261 25.3629 15.333C25.3148 15.4084 25.2668 15.4839 25.2394 15.5731C25.2188 15.525 25.212 15.477 25.2188 15.429C25.2257 15.4153 25.2394 15.4015 25.2463 15.3878C25.2463 15.3672 25.2257 15.3741 25.2188 15.3878C25.1983 15.4084 25.1982 15.4427 25.1845 15.4702C25.1639 15.5113 25.1502 15.5594 25.1365 15.6005C25.1091 15.5594 25.0953 15.5113 25.1159 15.4633C25.1228 15.4427 25.1365 15.4221 25.1502 15.4016C25.1433 15.4016 25.1296 15.3947 25.1228 15.4016C25.0953 15.4359 25.0885 15.4702 25.0747 15.5113C25.0473 15.5731 25.0336 15.6417 25.0199 15.7034C24.9856 15.6623 24.9787 15.6074 24.9718 15.5593C24.965 15.5182 24.9993 15.4839 25.0062 15.4427C24.9993 15.4427 24.9856 15.4427 24.9787 15.4496C24.965 15.477 24.9581 15.5113 24.9513 15.5388C24.9513 15.5593 24.9376 15.5662 24.9238 15.5799C24.8895 15.6211 24.8621 15.6623 24.8347 15.7034C24.8209 15.6897 24.8209 15.6691 24.8209 15.6554C24.8209 15.5319 24.8964 15.4084 24.9993 15.3398C25.0405 15.3055 25.0885 15.2849 25.1433 15.2643C25.3354 15.1957 25.5413 15.2095 25.7334 15.2506C25.7539 15.2575 25.7608 15.2849 25.7882 15.2849C25.8019 15.2712 25.7814 15.2575 25.7745 15.2506C25.7265 15.1889 25.7333 15.1134 25.7128 15.0448C25.7059 15.0174 25.6922 14.9968 25.6853 14.9694C25.7059 14.9762 25.7196 14.9968 25.7402 14.9899C25.7265 14.9419 25.699 14.8939 25.6785 14.8527C25.7128 14.8733 25.7402 14.9076 25.7676 14.9351C25.7814 14.887 25.7745 14.8322 25.7745 14.7773C25.8225 14.8047 25.8431 14.8596 25.8568 14.9076C25.8774 14.8527 25.898 14.791 25.9392 14.743C25.9392 14.7773 25.9391 14.8116 25.9323 14.8459C25.9323 14.8665 25.9392 14.887 25.9392 14.9076C25.9735 14.8939 26.0009 14.8733 26.042 14.8665C25.9871 14.9488 25.9391 15.0448 25.9254 15.1409C25.9254 15.1615 25.9186 15.1889 25.9254 15.2095C25.9323 15.2095 25.9392 15.2095 25.946 15.2095C25.946 15.1615 25.946 15.1134 25.9666 15.0723C26.0215 14.9968 26.0969 14.9488 26.1792 14.9008C26.241 14.8665 26.3027 14.8322 26.3576 14.8047C26.3851 14.791 26.4056 14.7704 26.4399 14.7567C26.4468 14.791 26.4125 14.8116 26.4056 14.839C26.4125 14.839 26.4194 14.8459 26.4194 14.8459C26.44 14.8322 26.4468 14.8116 26.4674 14.791Z" fill="#00AA39"/>
<path d="M26.2817 14.9763C26.4257 14.9214 26.5904 14.9077 26.7344 14.9557C26.7344 14.9557 26.7344 14.9695 26.7276 14.9763C26.6452 14.9626 26.5561 14.942 26.4669 14.9557C26.268 14.9763 26.0896 15.0861 25.9592 15.237C25.9524 15.2507 25.9386 15.2438 25.9249 15.237C26.0278 15.1204 26.1445 15.0312 26.2817 14.9763Z" fill="black"/>
<path d="M25.2117 15.23C25.2391 15.182 25.2803 15.1476 25.3214 15.1133C25.3214 15.1476 25.3214 15.1751 25.3283 15.2094C25.2871 15.2163 25.246 15.2231 25.2117 15.23Z" fill="white"/>
<path d="M25.3556 15.2095C25.383 15.1752 25.4174 15.1546 25.4585 15.1546C25.5271 15.1546 25.5889 15.1889 25.6506 15.2164C25.6438 15.2164 25.6369 15.2164 25.63 15.2095C25.5408 15.2027 25.4448 15.2027 25.3556 15.2095Z" fill="white"/>
<path d="M25.9868 15.4497C26.0828 15.4497 26.1651 15.5183 26.1994 15.6075C26.1308 15.5526 26.0622 15.4977 25.9868 15.4497Z" fill="white"/>
<path d="M25.8701 15.6553C25.877 15.6896 25.8633 15.7308 25.8633 15.7651C25.877 15.7582 25.8976 15.7514 25.9045 15.7376C25.9045 15.8268 25.8976 15.916 25.9113 15.9983C25.9182 16.115 25.9251 16.2316 25.9456 16.3551C25.9594 16.4305 25.973 16.5128 26.0005 16.5883C25.973 16.5814 25.9525 16.5609 25.9319 16.5471C25.9113 16.5334 25.9045 16.506 25.8907 16.4923C25.877 16.5334 25.8496 16.5746 25.8222 16.6089C25.8016 16.5609 25.8015 16.506 25.7947 16.4511C25.7878 16.4511 25.781 16.4511 25.7741 16.4511C25.7741 16.4717 25.7741 16.4991 25.7741 16.5197C25.7398 16.5403 25.7055 16.5609 25.6712 16.5677C25.7467 16.4031 25.7878 16.2247 25.7947 16.0395C25.8015 15.9366 25.7879 15.8405 25.781 15.7376C25.781 15.7102 25.7878 15.6828 25.7878 15.6553C25.7878 15.669 25.7947 15.6759 25.7947 15.6896C25.7947 15.6759 25.781 15.6485 25.8084 15.6553C25.8153 15.6828 25.8221 15.7171 25.8153 15.7445C25.8359 15.7376 25.8496 15.7171 25.8564 15.7033C25.8633 15.6896 25.8701 15.6759 25.8701 15.6553Z" fill="#C1510E"/>
<path d="M22.1385 14.7978C22.1934 14.7772 22.2482 14.7635 22.31 14.7567C22.3306 14.7567 22.3512 14.7498 22.358 14.7772C22.358 14.7978 22.3443 14.8115 22.3306 14.8184C22.2277 14.9007 22.0905 14.935 21.9738 15.0036C21.919 15.0379 21.871 15.0928 21.8367 15.1545C21.7886 15.23 21.7474 15.3192 21.7131 15.4015C21.7612 15.3604 21.8161 15.3123 21.8778 15.2918C21.9053 15.2849 21.9395 15.2849 21.967 15.3055C22.0013 15.3398 22.0081 15.3809 22.015 15.4221C22.0287 15.4976 22.0219 15.5799 22.015 15.6553C22.0081 15.6965 22.0013 15.7377 22.0219 15.772C22.0356 15.8063 22.0767 15.82 22.1042 15.8406C22.0424 15.8474 21.967 15.8543 21.9121 15.8131C21.8572 15.772 21.8435 15.7034 21.8435 15.6416C21.8435 15.6211 21.8435 15.5936 21.8229 15.5799C21.8092 15.573 21.7886 15.5867 21.7749 15.5936C21.7406 15.6142 21.7132 15.6554 21.6857 15.6828C21.6926 15.8886 21.7063 16.0944 21.7063 16.3002C21.7132 16.3277 21.6926 16.3551 21.6652 16.3688C21.624 16.3894 21.5691 16.3894 21.5211 16.3688C21.5005 16.362 21.4731 16.3414 21.4799 16.3139C21.4868 16.0601 21.4937 15.8063 21.4937 15.5524C21.4868 15.5113 21.4799 15.4701 21.4524 15.429C21.4387 15.4084 21.425 15.4358 21.4113 15.4427C21.3838 15.4838 21.3496 15.525 21.3633 15.5799C21.3907 15.6828 21.3976 15.7994 21.3701 15.9023C21.3633 15.9297 21.3495 15.9572 21.329 15.9778C21.3221 15.9846 21.3153 15.9915 21.3084 15.9915C21.2878 15.916 21.2604 15.8406 21.2261 15.772C21.1986 15.7034 21.1643 15.6348 21.1712 15.5662C21.1849 15.477 21.2261 15.4015 21.2741 15.3329C21.3016 15.2849 21.3427 15.2369 21.4045 15.23C21.4662 15.23 21.4936 15.2918 21.5211 15.3398C21.5211 15.2849 21.5142 15.23 21.5005 15.1751C21.4868 15.134 21.4731 15.0928 21.4319 15.0654C21.3839 15.0379 21.3358 15.0242 21.2878 14.9968C21.1849 14.9487 21.0957 14.8733 20.9928 14.8184C20.9722 14.8047 20.9516 14.8047 20.9379 14.7841C21.0271 14.7704 21.1163 14.7635 21.2124 14.7567C21.2741 14.7567 21.3427 14.7635 21.3976 14.7909C21.4525 14.8115 21.5005 14.8527 21.5485 14.887C21.5828 14.9144 21.624 14.9419 21.6514 14.9899C21.6651 15.0173 21.672 15.0448 21.672 15.0722C21.6583 15.0859 21.6651 15.0928 21.6788 15.0928V15.0791C21.72 14.983 21.8092 14.9213 21.8984 14.8801C21.967 14.8527 22.0493 14.8253 22.1385 14.7978Z" fill="black"/>
<path d="M22.1864 14.8114C22.2345 14.7977 22.2825 14.784 22.3305 14.784C22.3168 14.8183 22.2757 14.832 22.2482 14.8458C22.1453 14.9075 22.015 14.9418 21.9189 15.0173C21.8572 15.0653 21.816 15.1339 21.7748 15.2025C21.7337 15.2779 21.6994 15.3534 21.6651 15.4289C21.6582 15.4426 21.6582 15.4495 21.6582 15.4632C21.6788 15.47 21.6925 15.4494 21.7063 15.4357C21.7474 15.3946 21.7954 15.3534 21.8503 15.326C21.8777 15.3122 21.9052 15.3054 21.9326 15.3191C21.9669 15.3466 21.9806 15.3946 21.9806 15.4357C21.9875 15.5043 21.9806 15.5729 21.9806 15.6347C21.9738 15.6758 21.9669 15.7239 21.9738 15.765C21.9806 15.7856 22.0012 15.8062 22.0149 15.8199C21.9738 15.8268 21.9326 15.813 21.9052 15.7856C21.8709 15.7513 21.8572 15.7033 21.8503 15.6621C21.8503 15.6347 21.8503 15.5935 21.8297 15.5729C21.816 15.5524 21.7817 15.5592 21.7611 15.5661C21.7062 15.6004 21.6651 15.6553 21.6239 15.7101C21.617 15.7239 21.5965 15.7239 21.5827 15.7239C21.5279 15.669 21.521 15.5935 21.4936 15.518C21.4867 15.4769 21.473 15.4426 21.4456 15.4083C21.425 15.3946 21.3975 15.4083 21.3838 15.4289C21.3564 15.4769 21.3084 15.5318 21.3221 15.5935C21.3495 15.7033 21.3564 15.8199 21.3221 15.9228C21.3152 15.9297 21.3083 15.9434 21.3015 15.9365C21.2946 15.9228 21.2878 15.9091 21.2878 15.8954C21.2603 15.8062 21.2123 15.7239 21.1849 15.6347C21.1712 15.5661 21.1917 15.4975 21.226 15.4357C21.2535 15.3808 21.2809 15.326 21.3289 15.2848C21.3426 15.2711 21.3632 15.2574 21.3907 15.2574C21.425 15.2574 21.4455 15.2917 21.4661 15.3122C21.4867 15.3465 21.4936 15.3877 21.5142 15.422C21.521 15.422 21.5279 15.422 21.5348 15.422C21.5348 15.3946 21.5348 15.374 21.5348 15.3534C21.521 15.2642 21.5279 15.1613 21.473 15.0859C21.4387 15.0378 21.377 15.0241 21.3221 14.9967C21.2055 14.9487 21.1094 14.8663 20.9996 14.8046C21.0888 14.7909 21.1849 14.784 21.2741 14.7909C21.3838 14.7977 21.473 14.8732 21.5553 14.9418C21.5828 14.9624 21.617 14.9967 21.6239 15.031C21.6376 15.1202 21.6102 15.2025 21.6102 15.2917C21.6171 15.2917 21.6239 15.2917 21.6308 15.2917C21.6376 15.2025 21.6582 15.1133 21.7063 15.0447C21.7543 14.9761 21.8366 14.9281 21.9121 14.8938C22.0081 14.8595 22.0973 14.832 22.1864 14.8114Z" fill="#00AA39"/>
<path d="M21.5069 15.6828C21.5069 15.6622 21.5069 15.6484 21.5137 15.6279C21.5137 15.6416 21.5137 15.6485 21.5206 15.6622C21.5412 15.6896 21.548 15.7239 21.5755 15.7376C21.6029 15.7514 21.6372 15.7445 21.6509 15.7239C21.6509 15.7925 21.6578 15.868 21.6578 15.9366C21.6647 16.0326 21.6647 16.1218 21.6647 16.2179C21.6647 16.259 21.6647 16.2933 21.6578 16.3276C21.6372 16.3619 21.5961 16.3619 21.5618 16.3619C21.5274 16.3619 21.5 16.3482 21.4794 16.3276C21.4863 16.2384 21.4863 16.1561 21.4932 16.0669C21.5069 15.9366 21.5069 15.8131 21.5069 15.6828Z" fill="#C1510E"/>
<path d="M21.8639 14.7635C21.8845 14.7841 21.9051 14.8116 21.9325 14.8253C21.9942 14.8596 22.0629 14.8802 22.1315 14.8939C22.1864 14.9076 22.2412 14.9008 22.2892 14.9351C22.351 14.9762 22.3853 15.0448 22.399 15.1203C22.4607 15.086 22.5225 15.0517 22.5911 15.0311C22.6323 15.0174 22.6803 15.0174 22.7215 15.038C22.7626 15.0585 22.7832 15.0997 22.8038 15.1477C22.8312 15.2232 22.8381 15.3124 22.8381 15.3947C22.7489 15.3741 22.6734 15.3261 22.6117 15.2575C22.5499 15.3124 22.4951 15.3741 22.4333 15.429C22.4196 15.4427 22.399 15.4564 22.3922 15.477C22.3853 15.4976 22.3853 15.525 22.3853 15.5525C22.4402 15.5045 22.5019 15.4496 22.5774 15.4427C22.646 15.4427 22.694 15.4976 22.7283 15.5593C22.7832 15.6691 22.8038 15.7994 22.8175 15.9229C22.7283 15.8612 22.6529 15.7789 22.5637 15.7103C22.55 15.7034 22.5294 15.6897 22.5157 15.7034C22.4882 15.724 22.4676 15.7514 22.447 15.7857C22.495 15.82 22.5431 15.8612 22.5637 15.9161C22.5843 15.9778 22.5774 16.0464 22.5568 16.1082C22.5294 16.1905 22.4882 16.2728 22.5019 16.362C22.4608 16.362 22.4127 16.3483 22.399 16.3071C22.3647 16.2454 22.3784 16.1699 22.3853 16.1082C22.3922 16.0601 22.3853 16.0052 22.3441 15.9709C22.3236 15.9572 22.2892 15.9709 22.2755 15.9915C22.2618 16.0121 22.2481 16.0396 22.2412 16.0601C22.1726 16.2179 22.104 16.3757 22.0354 16.5266C22.0286 16.5472 22.0148 16.5678 21.9943 16.5678C21.96 16.5815 21.9188 16.5678 21.8845 16.5472C21.857 16.5335 21.8227 16.5061 21.809 16.4718V16.4512C21.9119 16.2522 22.0217 16.0601 22.1177 15.8612C22.1246 15.7994 22.1246 15.7308 22.1246 15.6691C22.1246 15.5799 22.1177 15.4839 22.1452 15.3947C22.1589 15.3467 22.1864 15.2987 22.2138 15.2575C22.2069 15.23 22.1863 15.1957 22.1658 15.1751C22.1315 15.1477 22.0835 15.1409 22.0492 15.1203C21.9257 15.0448 21.8502 14.9076 21.8639 14.7635Z" fill="black"/>
<path d="M21.8915 14.8251C21.9807 14.8869 22.0904 14.9143 22.2002 14.928C22.3031 14.9349 22.3854 15.0378 22.3854 15.1407C22.3374 15.1682 22.2894 15.2025 22.2482 15.2436C22.2345 15.2162 22.2208 15.1819 22.1933 15.1682C22.1522 15.1339 22.0973 15.127 22.0561 15.0996C21.9601 15.031 21.8915 14.9349 21.8915 14.8251Z" fill="#00AA39"/>
<path d="M22.4129 15.1477C22.4815 15.1134 22.5501 15.0723 22.6187 15.0585C22.653 15.0517 22.6941 15.0517 22.7216 15.0722C22.7627 15.0997 22.7833 15.1477 22.7902 15.1889C22.8039 15.2438 22.8108 15.3055 22.8176 15.3604C22.7696 15.3535 22.7353 15.3261 22.6941 15.2986C22.6667 15.2781 22.6392 15.2506 22.6187 15.2232C22.6049 15.2232 22.5981 15.23 22.5912 15.2369C22.502 15.3261 22.406 15.4084 22.3237 15.5044C22.2962 15.525 22.31 15.5662 22.3031 15.5936C22.2962 15.6417 22.2962 15.6897 22.2756 15.7377C22.2688 15.7514 22.2551 15.7514 22.2482 15.7583C22.2139 15.772 22.1933 15.7994 22.1659 15.8269H22.1522C22.1522 15.7171 22.1522 15.6142 22.1522 15.5044C22.1522 15.4427 22.1659 15.381 22.1933 15.3261C22.2482 15.2438 22.3305 15.1889 22.4129 15.1477Z" fill="#00AA39"/>
<path d="M22.5226 15.4769C22.5638 15.4563 22.6118 15.4563 22.6461 15.4838C22.6804 15.5112 22.7079 15.5524 22.7216 15.5936C22.7559 15.6759 22.7764 15.765 22.7902 15.8611C22.7216 15.8062 22.6598 15.7445 22.5912 15.6965C22.5707 15.6827 22.5501 15.6622 22.5226 15.6759C22.4815 15.6965 22.4678 15.7376 22.4335 15.7651C22.4197 15.7651 22.4128 15.7582 22.3991 15.7513C22.3717 15.7376 22.3374 15.7376 22.3099 15.7376C22.3374 15.6896 22.358 15.6347 22.3991 15.5936C22.4266 15.5387 22.4746 15.5044 22.5226 15.4769Z" fill="#00AA39"/>
<path d="M22.3645 15.5043C22.3645 15.5317 22.3645 15.5523 22.3645 15.5798C22.3507 15.6003 22.337 15.6209 22.3233 15.6415C22.3233 15.6072 22.3302 15.5798 22.3302 15.5455C22.337 15.5317 22.3507 15.518 22.3645 15.5043Z" fill="#00AA39"/>
<path d="M22.2551 15.7787C22.2962 15.7581 22.3442 15.7512 22.3854 15.765C22.4471 15.7855 22.4951 15.8267 22.5294 15.8747C22.5637 15.9227 22.5638 15.9845 22.5569 16.0394C22.5295 16.1354 22.4814 16.2314 22.4814 16.3343C22.4608 16.3275 22.4403 16.3206 22.4266 16.3001C22.4128 16.2795 22.406 16.252 22.406 16.2314C22.406 16.1903 22.406 16.156 22.4128 16.1148C22.4265 16.0668 22.4128 16.0188 22.3923 15.9776C22.3785 15.957 22.3442 15.9365 22.3168 15.9433C22.2825 15.9502 22.2688 15.9776 22.2482 15.9982C22.2345 16.0051 22.2276 15.9982 22.2139 15.9913C22.1865 15.9708 22.159 15.957 22.1453 15.9227C22.1658 15.861 22.207 15.813 22.2551 15.7787Z" fill="#00AA39"/>
<path d="M21.85 16.4374C21.946 16.2728 22.0283 16.1013 22.1175 15.9366C22.1381 15.9847 22.1861 16.0052 22.2273 16.0258C22.1998 16.0876 22.1724 16.1493 22.1449 16.211C22.1038 16.3139 22.0558 16.41 22.0146 16.5129C22.0077 16.5335 21.994 16.5472 21.9734 16.5472C21.9254 16.5472 21.8774 16.5197 21.85 16.4854C21.8362 16.4649 21.8431 16.4511 21.85 16.4374Z" fill="#C1510E"/>
<path d="M21.1779 14.9005C21.3083 14.8594 21.4386 14.8182 21.5621 14.7702C21.5758 14.7702 21.5827 14.7908 21.569 14.7976C21.4729 14.9143 21.3494 15.0103 21.2191 15.0926C21.1917 15.1132 21.1711 15.1475 21.1505 15.175C21.0956 15.2641 21.0613 15.3671 21.0407 15.4631C21.0339 15.5043 21.027 15.5385 21.0339 15.5797C21.1162 15.813 21.1917 16.0394 21.2603 16.2795C21.2671 16.3138 21.2877 16.3549 21.274 16.3961C21.2603 16.4578 21.1917 16.4921 21.1299 16.4921C21.0956 16.4921 21.0613 16.4647 21.0545 16.4304C21.0064 16.2383 20.9516 16.0531 20.8898 15.861C20.8555 15.8541 20.8281 15.861 20.8006 15.8816C20.7526 15.9159 20.7183 15.9708 20.684 16.0188C20.6222 16.1491 20.5948 16.2863 20.5742 16.4304C20.4919 16.3549 20.4301 16.252 20.4233 16.1354C20.4233 16.0325 20.4439 15.9296 20.5056 15.8473C20.5674 15.7649 20.6634 15.7032 20.7663 15.7032C20.7183 15.6689 20.6565 15.6483 20.5948 15.6483C20.5399 15.6483 20.4919 15.6826 20.4645 15.7306C20.437 15.7992 20.4439 15.8816 20.4233 15.957C20.389 15.8884 20.341 15.8267 20.3135 15.7581C20.2861 15.7032 20.2998 15.6415 20.3341 15.5934C20.389 15.518 20.4576 15.4494 20.5536 15.4425C20.6497 15.4357 20.732 15.4974 20.7938 15.5591C20.7732 15.4288 20.7252 15.2916 20.6291 15.2093C20.6017 15.175 20.5399 15.1681 20.5193 15.2093C20.4713 15.2779 20.4645 15.3602 20.437 15.4357C20.3959 15.3739 20.3479 15.319 20.3341 15.2436C20.3204 15.175 20.341 15.1132 20.3753 15.0515C20.4027 14.9966 20.437 14.9417 20.4919 14.9143C20.5331 14.8868 20.588 14.8937 20.6291 14.9143C20.6909 14.9486 20.732 15.0034 20.78 15.0652C20.8349 15.1407 20.8829 15.2299 20.8966 15.319C20.9035 15.2093 20.931 15.0926 21.0133 15.0103C21.0613 14.9486 21.1162 14.9211 21.1779 14.9005Z" fill="black"/>
<path d="M21.1988 14.9214C21.3085 14.8871 21.4252 14.8528 21.535 14.8116C21.4458 14.9145 21.336 14.9968 21.2194 15.0654C21.1713 15.0997 21.1507 15.1478 21.1164 15.1889C21.0684 15.2781 21.0341 15.3742 21.0204 15.4771C21.0067 15.5319 21.0204 15.5868 21.0136 15.6417C21.0067 15.676 20.9998 15.7103 20.9793 15.7446L20.9724 15.7515C20.9381 15.7377 20.9107 15.724 20.8832 15.7172C20.8558 15.7103 20.8283 15.7103 20.8078 15.6966C20.7529 15.6554 20.6843 15.628 20.6157 15.628C20.5608 15.628 20.5059 15.6554 20.4716 15.7035C20.451 15.7515 20.4373 15.8064 20.4304 15.8544C20.4098 15.8613 20.403 15.8407 20.3961 15.8269C20.3687 15.7789 20.3275 15.724 20.3412 15.6623C20.3549 15.6074 20.3893 15.5663 20.4304 15.532C20.4784 15.4839 20.5402 15.4496 20.6088 15.4565C20.6774 15.4702 20.7323 15.5114 20.7803 15.5594C20.8009 15.58 20.8146 15.6006 20.8352 15.6143C20.842 15.5663 20.8214 15.5182 20.8146 15.4702C20.794 15.3948 20.7666 15.3124 20.7186 15.2507C20.6911 15.2095 20.6637 15.1752 20.6225 15.1546C20.5882 15.134 20.5333 15.1409 20.5127 15.1752C20.4716 15.2301 20.4647 15.2987 20.4373 15.3605C20.3893 15.2987 20.3481 15.2301 20.3618 15.1546C20.3824 15.0723 20.4167 14.9969 20.4784 14.9351C20.5127 14.9008 20.5745 14.894 20.6157 14.9145C20.6843 14.9488 20.7254 15.0106 20.7666 15.0723C20.8557 15.1889 20.8969 15.333 20.8901 15.4771C20.8832 15.4976 20.9106 15.5045 20.9106 15.4839C20.9106 15.4359 20.9106 15.381 20.9175 15.3399C20.9244 15.2232 20.9449 15.0929 21.0273 15.0106C21.0753 14.9694 21.1302 14.9351 21.1988 14.9214Z" fill="#00AA39"/>
<path d="M21.034 15.6416C21.082 15.7651 21.1232 15.8955 21.1643 16.0258C21.1986 16.1287 21.2261 16.2385 21.2604 16.3482C21.281 16.4168 21.1986 16.4786 21.13 16.458C21.1026 16.458 21.0889 16.4374 21.0889 16.4168C21.0408 16.2316 20.986 16.0532 20.9311 15.8749C20.9654 15.8955 21.0065 15.9229 21.0546 15.916C21.0683 15.916 21.082 15.9023 21.0957 15.8955C21.0957 15.868 21.0957 15.8406 21.082 15.8131C21.0614 15.7926 21.034 15.772 21.0065 15.7582C21.0203 15.7239 21.034 15.6828 21.034 15.6416Z" fill="#C1510E"/>
<path d="M20.5812 15.813C20.636 15.7513 20.7252 15.717 20.8007 15.7239C20.8967 15.7239 20.9791 15.7719 21.0545 15.8336C21.0682 15.8473 21.0682 15.8679 21.0682 15.8885C21.0202 15.9091 20.979 15.8816 20.9379 15.8542C20.9036 15.8268 20.8487 15.8268 20.8144 15.8473C20.7526 15.8816 20.7115 15.9365 20.684 15.9983C20.6223 16.1149 20.588 16.2452 20.5743 16.3824C20.4988 16.3138 20.4645 16.2178 20.4714 16.1217C20.4645 16.0051 20.4988 15.8885 20.5812 15.813Z" fill="#00AA39"/>
<path d="M25.8977 15.6075C25.9457 15.5937 26.0006 15.6075 26.0281 15.6486C26.0555 15.6898 26.0555 15.7515 26.0212 15.7927C25.9732 15.8476 25.8703 15.8339 25.836 15.7721C25.7948 15.7104 25.8291 15.6212 25.8977 15.6075Z" fill="black"/>
<path d="M25.9049 15.6349C25.9323 15.628 25.9666 15.6349 25.9941 15.6555C26.0352 15.6898 26.0284 15.7652 25.9803 15.7927C25.9598 15.8064 25.9323 15.8064 25.9049 15.7995C25.8774 15.7927 25.8569 15.7721 25.8431 15.7446C25.8294 15.6966 25.8569 15.6417 25.9049 15.6349Z" fill="#C1510E"/>
<path d="M22.3581 18.4612C22.3787 18.4475 22.3925 18.4201 22.4199 18.4201C22.4405 18.4201 22.4405 18.4406 22.4405 18.4544C22.4473 18.5024 22.4199 18.5504 22.3787 18.5916C22.3925 18.5916 22.413 18.5916 22.413 18.6121C22.4062 18.667 22.3787 18.715 22.3444 18.7562C22.4748 18.7356 22.6051 18.6945 22.7149 18.619C22.756 18.5916 22.7972 18.5573 22.8315 18.523C22.8452 18.5024 22.8795 18.5024 22.8933 18.523C22.907 18.5435 22.8933 18.5641 22.8933 18.5916C22.8658 18.6464 22.8315 18.7013 22.7903 18.7494C22.8109 18.7425 22.8521 18.7493 22.8452 18.7768C22.8384 18.8248 22.7972 18.8591 22.7698 18.8866C22.7904 18.9003 22.7904 18.9209 22.7766 18.9414C22.7423 19.0032 22.6943 19.0512 22.6463 19.0924C22.66 19.1061 22.6532 19.1335 22.6394 19.1404C22.5983 19.1815 22.564 19.2227 22.5091 19.2501C22.5159 19.257 22.5228 19.257 22.5228 19.2639C22.5297 19.3119 22.4748 19.3393 22.4405 19.353C22.4267 19.3942 22.3924 19.4148 22.3581 19.4354C22.413 19.4903 22.4336 19.5589 22.4611 19.6275C22.5022 19.7372 22.5365 19.8401 22.6051 19.9362C22.6532 20.0048 22.7217 20.0665 22.8041 20.1008C22.8384 20.1146 22.8727 20.1214 22.9001 20.142C22.9138 20.1557 22.9275 20.1694 22.9207 20.19C22.9138 20.2243 22.8864 20.2449 22.8658 20.2586C22.8658 20.3204 22.7835 20.3684 22.7355 20.3272C22.7218 20.3409 22.708 20.3615 22.6806 20.3615C22.66 20.3615 22.6463 20.3409 22.6257 20.3478C22.5983 20.3547 22.5571 20.3547 22.5296 20.3341C22.4953 20.3066 22.4885 20.2655 22.4748 20.2312C22.4473 20.1626 22.4062 20.094 22.3513 20.0391C22.2896 19.9842 22.2141 19.9568 22.1386 19.9293C22.1043 19.9156 22.07 19.9087 22.0357 19.9225C22.0014 19.9362 21.9877 19.9705 21.974 19.9979C21.9671 19.9979 21.9603 19.9979 21.9534 19.9911C21.9534 19.9705 21.9534 19.9293 21.9259 19.9293C21.8916 19.9362 21.8779 19.9773 21.8573 19.9979C21.8505 19.9705 21.8505 19.9362 21.8299 19.9087C21.8093 19.9156 21.8024 19.9362 21.7956 19.9568C21.7819 19.9499 21.7888 19.9362 21.7888 19.9225C21.7888 19.8744 21.8093 19.8333 21.8436 19.7921C21.8162 19.7784 21.7887 19.7578 21.7682 19.7372C21.7407 19.7578 21.7133 19.7784 21.7064 19.8127C21.7064 19.8264 21.6996 19.8401 21.6927 19.847C21.6721 19.8127 21.6653 19.7784 21.6584 19.7372C21.6378 19.751 21.6104 19.7647 21.6035 19.7921C21.5967 19.799 21.5966 19.8127 21.5829 19.8058C21.5692 19.7715 21.5624 19.7372 21.5624 19.7098C21.5486 19.7098 21.5349 19.7098 21.5281 19.7098C21.5143 19.7235 21.5075 19.7441 21.5006 19.7578C21.4937 19.7167 21.4938 19.6755 21.5143 19.6412C21.5349 19.6069 21.5692 19.5932 21.5967 19.5863C21.5349 19.4834 21.5075 19.3599 21.5281 19.2364C21.5418 19.1335 21.5692 19.0375 21.5486 18.9346C21.5418 18.8728 21.5006 18.8111 21.4457 18.7768C21.4114 18.7699 21.3703 18.7768 21.336 18.7768C21.3085 18.8111 21.2811 18.8523 21.2468 18.9003C21.2948 18.9346 21.3291 18.9757 21.3566 19.0238C21.3703 19.0512 21.3909 19.0787 21.3909 19.113C21.3909 19.1816 21.3428 19.2364 21.3497 19.305C21.3497 19.3325 21.3634 19.3599 21.3771 19.3874C21.3085 19.3874 21.2468 19.3531 21.2056 19.305C21.1645 19.3805 21.1096 19.4422 21.0478 19.4971C21.0204 19.5177 20.9998 19.5383 20.9724 19.552C20.9587 19.5108 20.9587 19.4697 20.9587 19.4285C20.9655 19.3462 20.9792 19.2639 21.0135 19.1884C20.9724 19.1953 20.9244 19.2021 20.8832 19.1884C20.8832 19.161 20.8969 19.1267 20.9038 19.0992C20.8283 19.1198 20.7529 19.1267 20.6705 19.1061C20.6774 19.0581 20.7048 19.0169 20.7323 18.9826C20.6362 18.9963 20.547 18.9552 20.4716 18.9071C20.5196 18.8523 20.5813 18.818 20.6499 18.8042C20.5745 18.7562 20.5127 18.6876 20.4853 18.6053C20.4853 18.5916 20.4716 18.571 20.4784 18.5573C20.5264 18.5436 20.5814 18.5504 20.6294 18.571C20.6774 18.5847 20.7254 18.6053 20.7665 18.6396C20.7665 18.5847 20.7871 18.5298 20.8146 18.4818C20.8214 18.4955 20.8215 18.5161 20.8352 18.5298C20.8763 18.5573 20.9175 18.5778 20.9518 18.6053C20.9792 18.6259 20.9998 18.6602 21.0135 18.6876C21.0273 18.6396 21.0273 18.5847 21.0135 18.5435C21.0478 18.5573 21.0753 18.5778 21.0959 18.6053C21.137 18.6533 21.1713 18.7082 21.1987 18.7631C21.2262 18.7288 21.2468 18.6876 21.2605 18.6464C21.2948 18.6464 21.3291 18.6464 21.3703 18.6464C21.3771 18.5778 21.432 18.523 21.5006 18.5161C21.5898 18.4955 21.6653 18.5641 21.7476 18.5573C21.7819 18.5573 21.8025 18.5367 21.8299 18.5161C21.8368 18.5779 21.8093 18.6396 21.7613 18.6739C21.7956 18.6945 21.8299 18.7288 21.8436 18.7631C21.8711 18.818 21.8711 18.8866 21.9054 18.9346C21.9465 18.9826 22.0083 19.0032 22.0631 19.0443C22.07 18.9963 22.0289 18.9552 22.0014 18.9277C21.9465 18.8866 21.9191 18.8248 21.9191 18.7631C21.9191 18.7082 21.9603 18.6533 22.0014 18.6259C22.0495 18.5984 22.1043 18.5847 22.1523 18.5641C22.2141 18.5298 22.2895 18.5024 22.3581 18.4612Z" fill="black"/>
<path d="M22.3515 18.4954C22.379 18.4817 22.3995 18.4611 22.4201 18.4405C22.4338 18.516 22.3789 18.5777 22.324 18.6189C22.2897 18.6326 22.2486 18.6326 22.2212 18.6601C22.228 18.6669 22.2349 18.6738 22.2417 18.6807C22.2692 18.6532 22.3035 18.6532 22.3378 18.6395C22.3652 18.6326 22.3789 18.6258 22.3995 18.612C22.3858 18.6669 22.3583 18.715 22.3172 18.7493C22.276 18.7561 22.228 18.7493 22.1868 18.7698C22.1251 18.7973 22.0908 18.859 22.0908 18.9208C22.084 18.9619 22.0977 19.0099 22.0771 19.0511C22.0771 19.0237 22.0839 19.0031 22.0771 18.9825C22.0634 18.9413 22.0222 18.907 21.9879 18.8796C21.9399 18.8384 21.9193 18.763 21.9467 18.7012C21.9742 18.6532 22.0222 18.6189 22.0702 18.6052C22.1594 18.5777 22.2623 18.5434 22.3515 18.4954Z" fill="white"/>
<path d="M21.398 18.5778C21.4323 18.5229 21.5077 18.5092 21.5695 18.5298C21.6381 18.5503 21.7135 18.5846 21.7821 18.5572C21.7753 18.5915 21.7615 18.6258 21.7341 18.6395C21.7204 18.6532 21.6998 18.6532 21.6861 18.667C21.7272 18.6807 21.7684 18.6944 21.789 18.7356C21.8302 18.7973 21.8233 18.8865 21.8782 18.9482C21.9193 19.0031 21.9879 19.0168 22.036 19.0649C22.0428 19.0717 22.0566 19.0786 22.0497 19.0923C22.0291 19.1197 22.0016 19.1472 21.9673 19.1678C21.9742 19.1746 21.9742 19.1815 21.9811 19.1883C22.0497 19.154 22.0977 19.0854 22.0977 19.01C22.0977 18.9551 22.0977 18.9002 22.1251 18.8522C22.1526 18.811 22.2006 18.7905 22.2486 18.7905C22.3927 18.7836 22.5299 18.7493 22.6534 18.6876C22.7151 18.6533 22.7837 18.6121 22.8317 18.5572C22.8386 18.5503 22.8523 18.5366 22.8592 18.5366C22.8661 18.5709 22.8455 18.5984 22.8317 18.6258C22.8043 18.6738 22.77 18.715 22.7425 18.763C22.6877 18.7904 22.6259 18.8248 22.5573 18.811C22.5573 18.8179 22.5505 18.8248 22.5505 18.8316C22.6122 18.8522 22.6671 18.8247 22.722 18.8042C22.7494 18.7904 22.7837 18.7767 22.8112 18.7836C22.7975 18.8179 22.77 18.8522 22.7425 18.8796C22.7082 18.9139 22.674 18.9482 22.6259 18.962C22.5985 18.9688 22.5642 18.9688 22.5367 18.9757C22.5367 18.9825 22.5367 18.9963 22.5367 18.9963C22.5985 18.9963 22.6534 18.9825 22.7014 18.9482C22.7151 18.9345 22.7288 18.9277 22.7494 18.9208C22.7494 18.9414 22.7426 18.9551 22.7289 18.9688C22.7014 19.0168 22.6602 19.0511 22.6191 19.0923C22.6122 19.0923 22.6054 19.106 22.5985 19.106C22.5573 19.106 22.5093 19.1266 22.4682 19.1335C22.4682 19.1403 22.4682 19.1472 22.4682 19.154C22.523 19.154 22.571 19.1266 22.6259 19.1335C22.5848 19.1746 22.5436 19.2295 22.4819 19.2501C22.4544 19.2638 22.4338 19.2501 22.4133 19.2501C22.4133 19.2569 22.4133 19.2638 22.4133 19.2707C22.4407 19.2775 22.4681 19.2912 22.4956 19.2981C22.475 19.3393 22.427 19.353 22.379 19.3598C22.379 19.3667 22.379 19.3736 22.379 19.3804C22.3858 19.3804 22.3995 19.3804 22.4064 19.3804C22.379 19.4147 22.3447 19.4353 22.3035 19.4559C22.3721 19.4971 22.3996 19.5794 22.427 19.6548C22.4682 19.7715 22.5093 19.895 22.5916 19.991C22.6465 20.0665 22.7288 20.1282 22.8112 20.1556C22.8386 20.1694 22.8729 20.1762 22.8866 20.2037C22.8798 20.2242 22.8592 20.2448 22.8386 20.2585C22.8112 20.2174 22.7563 20.19 22.7151 20.1625C22.7014 20.1488 22.6808 20.1762 22.7014 20.1831C22.7425 20.2105 22.7906 20.2311 22.818 20.2723C22.8318 20.286 22.8318 20.3066 22.818 20.3203C22.8043 20.3409 22.77 20.3614 22.7425 20.3477C22.722 20.3409 22.7288 20.3066 22.7151 20.2929C22.6808 20.2448 22.6397 20.2105 22.5985 20.1694C22.5985 20.1762 22.5848 20.1831 22.5848 20.1899C22.6191 20.238 22.6739 20.2654 22.7014 20.3203C22.7151 20.3477 22.6877 20.3683 22.6671 20.3752C22.6397 20.3683 22.6191 20.3409 22.6054 20.3134C22.5848 20.2791 22.5711 20.2517 22.5505 20.2174C22.5436 20.2242 22.5367 20.2242 22.5299 20.2242C22.5573 20.2723 22.5848 20.3134 22.6122 20.3546C22.5848 20.3546 22.5505 20.3614 22.5367 20.3409C22.5093 20.3134 22.5024 20.2723 22.4887 20.2448C22.4681 20.1831 22.4339 20.1282 22.3927 20.0802C22.3378 20.0253 22.2692 19.9841 22.1937 19.9567C22.1526 19.943 22.1114 19.9224 22.0634 19.9224C22.0222 19.9224 21.9811 19.943 21.9673 19.9841C21.9536 19.9636 21.9468 19.943 21.9262 19.9361C21.8987 19.9361 21.8782 19.9498 21.8645 19.9704C21.8576 19.9567 21.8507 19.9361 21.837 19.9293C21.8302 19.9224 21.8164 19.9293 21.8027 19.9293C21.8164 19.9018 21.8301 19.8675 21.8507 19.8469C21.885 19.8538 21.9193 19.8675 21.9605 19.8607V19.8469V19.8401C21.8713 19.8469 21.789 19.792 21.7272 19.7234C21.7067 19.7372 21.7204 19.7509 21.7341 19.7646C21.7135 19.7783 21.6929 19.8058 21.6792 19.8263C21.6723 19.7989 21.6655 19.7646 21.6655 19.7372C21.6312 19.7509 21.6038 19.7783 21.5763 19.7989C21.5763 19.7715 21.5695 19.7509 21.5763 19.7303C21.5557 19.7234 21.5283 19.7234 21.5077 19.7234C21.5214 19.6891 21.5557 19.6548 21.5969 19.6548C21.6106 19.6686 21.6175 19.696 21.638 19.7097C21.6449 19.7097 21.6518 19.7029 21.6518 19.7029C21.5626 19.5862 21.5077 19.4422 21.5283 19.2981C21.542 19.1883 21.5694 19.0786 21.5557 18.9688C21.542 18.9002 21.5009 18.8385 21.4391 18.7973C21.4048 18.7904 21.3705 18.7973 21.3362 18.7905C21.3088 18.7836 21.2882 18.8042 21.2607 18.811C21.2813 18.7562 21.3293 18.7287 21.3774 18.7013C21.3705 18.6327 21.3774 18.6052 21.398 18.5778Z" fill="white"/>
<path d="M20.7871 18.5436C20.8008 18.5367 20.8145 18.5504 20.8214 18.5573C20.8831 18.5916 20.9449 18.6396 20.9723 18.7082C20.9792 18.7219 20.9792 18.7425 20.9997 18.7494C21.0203 18.7014 21.0272 18.6396 21.0204 18.5916C21.0547 18.6122 21.0752 18.6396 21.0958 18.667C21.1301 18.7082 21.1575 18.7562 21.1644 18.8042C21.185 18.7974 21.1918 18.7768 21.2055 18.7631C21.2261 18.7356 21.2399 18.7013 21.2536 18.667C21.2742 18.6533 21.3016 18.6602 21.3222 18.6602C21.281 18.6945 21.2262 18.7288 21.2262 18.7905C21.2399 18.7905 21.2467 18.7974 21.2536 18.8042C21.233 18.8386 21.2056 18.8728 21.185 18.9071C21.2467 18.9552 21.3016 19.0169 21.3359 19.0855C21.3565 19.1473 21.3222 19.2021 21.3085 19.257C21.2948 19.2913 21.3016 19.3325 21.3153 19.3668C21.2605 19.3531 21.2193 19.3188 21.185 19.2776H21.1781C21.1301 19.3668 21.0683 19.4422 20.9929 19.504C20.986 19.5109 20.9792 19.5109 20.9723 19.5109C20.9723 19.4628 20.9723 19.4148 20.9723 19.3737C20.9792 19.3188 20.9929 19.2639 21.0135 19.2159C21.0203 19.1953 21.034 19.1816 21.034 19.161C21.034 19.161 21.0272 19.1541 21.0204 19.1541C20.9792 19.1679 20.9312 19.1747 20.89 19.1678C20.8969 19.1404 20.9037 19.1198 20.9174 19.0992C20.9243 19.0924 20.9312 19.0787 20.9174 19.0718C20.8831 19.0718 20.8625 19.0855 20.8282 19.0924C20.7802 19.0993 20.7322 19.0992 20.6842 19.0855C20.691 19.0444 20.7254 19.0032 20.7597 18.9758C20.7665 18.9689 20.7734 18.9483 20.7597 18.9483C20.7322 18.9552 20.7048 18.962 20.6773 18.962C20.6156 18.9552 20.5607 18.9346 20.5127 18.9071C20.4989 18.9003 20.5127 18.8934 20.5195 18.8866C20.5607 18.8523 20.6156 18.8317 20.6773 18.8248C20.6911 18.8248 20.691 18.8111 20.691 18.7974C20.6361 18.7768 20.595 18.7288 20.5538 18.6876C20.5332 18.6533 20.5058 18.619 20.499 18.571C20.595 18.5641 20.691 18.6122 20.7733 18.667C20.7733 18.667 20.7871 18.6602 20.7939 18.6602C20.7596 18.6259 20.7734 18.5779 20.7871 18.5436Z" fill="#00AA39"/>
<path d="M21.4733 18.619C21.4868 18.6054 21.5071 18.6122 21.5139 18.6325C21.5139 18.6528 21.4868 18.6664 21.4665 18.6528C21.4597 18.6393 21.4597 18.6257 21.4733 18.619Z" fill="black"/>
<path d="M22.3241 18.8316C22.331 18.8247 22.331 18.8179 22.3379 18.811C22.3585 18.8247 22.3722 18.8453 22.379 18.8659C22.3859 18.9071 22.3653 18.9414 22.3447 18.9688C22.3859 19.01 22.3859 19.0854 22.3447 19.1266C22.331 19.1472 22.2967 19.1472 22.2693 19.154C22.2555 19.1746 22.2419 19.2021 22.2213 19.2158C22.187 19.2364 22.1389 19.2364 22.1046 19.2158C22.1046 19.2089 22.1115 19.2021 22.1115 19.1952C22.1389 19.2021 22.1595 19.2158 22.1869 19.2021C22.2144 19.1952 22.235 19.1677 22.2487 19.1403C22.2418 19.1403 22.2281 19.1334 22.2281 19.1266C22.235 19.0923 22.2624 19.1197 22.283 19.1197C22.331 19.1266 22.3653 19.0786 22.3584 19.0374C22.3584 19.0168 22.3447 19.0031 22.331 18.9825C22.3242 18.9894 22.3104 18.9894 22.3036 18.9962C22.3036 18.9894 22.2967 18.9825 22.2967 18.9757C22.331 18.9551 22.3584 18.9208 22.3584 18.8796C22.3584 18.859 22.3447 18.8453 22.3241 18.8316Z" fill="black"/>
<path d="M26.3161 18.4338C26.4396 18.4064 26.5631 18.4064 26.6797 18.4132C26.7277 18.4132 26.7757 18.427 26.8032 18.4613C26.8375 18.5024 26.8375 18.5573 26.8306 18.6053C26.8237 18.6396 26.81 18.6739 26.7757 18.6877C26.7414 18.6945 26.7208 18.6671 26.6934 18.6602C26.6248 18.6328 26.5425 18.6259 26.467 18.6259C26.3573 18.6328 26.2543 18.6533 26.1583 18.7151C26.1514 18.7288 26.1514 18.7494 26.1514 18.7631C26.1789 18.7494 26.2269 18.7494 26.2543 18.77C26.2886 18.7974 26.2955 18.8454 26.2886 18.8866C26.3092 18.8797 26.3367 18.8729 26.3641 18.8866C26.4053 18.9072 26.419 18.9483 26.419 18.9895C26.467 18.9964 26.5082 19.0512 26.5013 19.0993C26.5219 19.113 26.5493 19.1336 26.5493 19.161C26.5631 19.2159 26.5424 19.2708 26.515 19.3188C26.4464 19.4354 26.3641 19.5452 26.2475 19.6138C26.2475 19.6481 26.2269 19.6824 26.2063 19.7098C26.1583 19.7716 26.0897 19.8196 26.028 19.8608C25.9662 19.9088 25.8976 19.9568 25.8222 19.9774C25.8222 20.0048 25.8153 20.0254 25.7947 20.046C25.7535 20.1009 25.6918 20.142 25.6369 20.1832C25.5889 20.2175 25.5409 20.2518 25.4791 20.2518C25.4448 20.2587 25.4105 20.2312 25.3968 20.1969C25.3693 20.2038 25.3419 20.2175 25.3213 20.1969C25.3076 20.1832 25.3076 20.1695 25.3008 20.1558C25.2733 20.1763 25.2321 20.1969 25.191 20.19C25.1704 20.2175 25.1498 20.2449 25.143 20.2792C25.143 20.3135 25.1498 20.3478 25.1567 20.3821C25.1635 20.4164 25.1567 20.4507 25.1773 20.4782C25.191 20.4988 25.2047 20.5193 25.2047 20.5399C25.1498 20.5811 25.1087 20.6291 25.0812 20.6909C25.0469 20.6703 25.0264 20.6428 24.9989 20.6154C24.9715 20.6428 24.9235 20.6634 24.9166 20.7114C24.8754 20.6977 24.8411 20.6703 24.8137 20.636C24.7519 20.684 24.6696 20.7114 24.5873 20.7183H24.5736L24.5667 20.7114C24.6079 20.6497 24.6422 20.5742 24.6559 20.4919C24.6628 20.4439 24.6902 20.4027 24.7314 20.389C24.8 20.3547 24.8891 20.341 24.9372 20.2724C24.9783 20.2106 25.0126 20.1352 25.0606 20.0734C25.0126 20.0597 25.0057 19.998 25.0126 19.95C24.992 19.95 24.9715 19.9431 24.9646 19.9225C24.944 19.8882 24.9509 19.847 24.9578 19.8059C24.9715 19.703 25.0058 19.6001 25.0401 19.504C25.0607 19.4491 25.0812 19.3805 25.1498 19.3668C25.1567 19.2708 25.1773 19.1747 25.2184 19.0856C25.2527 19.0101 25.2871 18.9415 25.3488 18.8798C25.3831 18.8454 25.4243 18.8248 25.4723 18.8386C25.4929 18.77 25.5203 18.7082 25.5615 18.6465C25.5889 18.6053 25.6163 18.5642 25.6506 18.5299C25.6849 18.4887 25.7261 18.4407 25.781 18.427C25.8359 18.4201 25.8839 18.475 25.8839 18.5299C25.9113 18.5161 25.9388 18.4956 25.9731 18.5024C26.0005 18.5024 26.0211 18.5299 26.0416 18.5504C26.1171 18.4956 26.2132 18.4613 26.3161 18.4338Z" fill="black"/>
<path d="M26.0418 18.5847C26.1927 18.4681 26.3917 18.4406 26.5838 18.4406C26.6318 18.4406 26.6798 18.4407 26.7278 18.4475C26.7141 18.475 26.6935 18.5024 26.6935 18.5298C26.6935 18.5641 26.6935 18.5984 26.6935 18.6327C26.6592 18.6121 26.6181 18.6053 26.5838 18.6053C26.4397 18.5916 26.2819 18.6122 26.1516 18.6876C26.131 18.6465 26.083 18.6259 26.035 18.6396C26.0418 18.619 26.0418 18.6053 26.0418 18.5847Z" fill="#C1510E"/>
<path d="M25.7266 18.4956C25.7472 18.475 25.7815 18.4544 25.8089 18.4613C25.857 18.475 25.8775 18.5505 25.8364 18.5848C25.7952 18.6259 25.7678 18.6739 25.7266 18.7151C25.6786 18.77 25.6443 18.8386 25.6237 18.9072C25.5963 18.9072 25.5688 18.9072 25.5414 18.9141C25.5345 18.8866 25.5208 18.866 25.4933 18.8523C25.5139 18.7837 25.5414 18.7151 25.5894 18.6534C25.6374 18.6053 25.6717 18.5436 25.7266 18.4956Z" fill="#FED101"/>
<path d="M26.7556 18.4682C26.7694 18.4614 26.7831 18.4682 26.7899 18.4751C26.8174 18.5094 26.8174 18.5643 26.8105 18.6054C26.8037 18.626 26.7968 18.6603 26.7625 18.6534C26.7419 18.6534 26.735 18.6329 26.7282 18.6191C26.7145 18.5643 26.7213 18.5094 26.7556 18.4682Z" fill="#C1510E"/>
<path d="M25.8981 18.5573C25.9186 18.5367 25.9529 18.523 25.9804 18.5436C26.0215 18.5641 26.0284 18.619 26.0078 18.6602C25.9392 18.7151 25.8912 18.7905 25.8363 18.8592C25.7951 18.9072 25.7609 18.962 25.7334 19.0101C25.7197 19.0101 25.706 19.0032 25.6923 19.0032C25.6854 18.9689 25.6717 18.9415 25.6442 18.9209C25.6648 18.8523 25.6991 18.7837 25.7471 18.7357C25.7951 18.6739 25.8363 18.6053 25.8981 18.5573Z" fill="#FED101"/>
<path d="M25.9324 18.7699C25.9667 18.7287 26.001 18.6807 26.049 18.6601C26.0902 18.6464 26.1382 18.6807 26.1313 18.7287C26.1176 18.7904 26.0764 18.8316 26.0421 18.8796C25.9804 18.9482 25.9324 19.0237 25.8638 19.0786C25.8364 19.0786 25.8021 19.0854 25.7815 19.0991C25.7815 19.0648 25.7746 19.0374 25.754 19.0168C25.8021 18.9276 25.8707 18.8522 25.9324 18.7699Z" fill="#FED101"/>
<path d="M26.1312 18.8112C26.145 18.7838 26.1793 18.7769 26.2067 18.7701C26.2479 18.7701 26.2753 18.8112 26.2685 18.8524C26.2685 18.8936 26.2479 18.9347 26.2273 18.969C26.1655 19.0582 26.0901 19.1337 26.0078 19.2023C25.9872 19.216 25.9666 19.216 25.946 19.2229C25.9529 19.1954 25.9598 19.168 25.946 19.1405C25.9392 19.1199 25.9186 19.1062 25.898 19.0925C25.9529 19.0376 26.0009 18.9759 26.0489 18.9141C26.0764 18.8798 26.1038 18.8455 26.1312 18.8112Z" fill="#FED101"/>
<path d="M25.411 18.8798C25.4522 18.8523 25.5208 18.8798 25.5208 18.9346C25.4522 18.9895 25.411 19.065 25.3699 19.1404C25.3218 19.2365 25.2876 19.3394 25.267 19.4492C25.2601 19.4492 25.2464 19.4492 25.2395 19.4492C25.2395 19.408 25.2052 19.3806 25.1778 19.3668C25.1778 19.2365 25.2327 19.1061 25.3013 18.9964C25.3287 18.9552 25.3561 18.9072 25.411 18.8798Z" fill="#FED101"/>
<path d="M26.2549 18.962C26.2686 18.9414 26.2686 18.9071 26.3029 18.9003C26.3372 18.8865 26.3715 18.9071 26.3852 18.9414C26.399 18.9757 26.3853 19.01 26.3715 19.0375C26.3372 19.0992 26.2892 19.1541 26.2412 19.209C26.2 19.257 26.152 19.2981 26.0971 19.3324C26.0971 19.3119 26.0971 19.2913 26.0903 19.2776C26.0765 19.2501 26.0491 19.2364 26.0217 19.2227C26.1109 19.1404 26.1932 19.0649 26.2549 18.962Z" fill="#FED101"/>
<path d="M25.5619 18.9346C25.61 18.9141 25.6648 18.9484 25.6648 19.0032C25.5962 19.0375 25.5688 19.1061 25.5345 19.1679C25.4864 19.2708 25.4316 19.3668 25.3836 19.4697C25.3767 19.4903 25.3767 19.5109 25.363 19.5315C25.3561 19.5383 25.3424 19.5384 25.3355 19.5452C25.3355 19.5109 25.3149 19.4766 25.2806 19.456C25.3081 19.3188 25.3561 19.1885 25.4247 19.0719C25.4659 19.017 25.5071 18.9621 25.5619 18.9346Z" fill="#FED101"/>
<path d="M26.4125 19.01C26.4468 19.0168 26.4742 19.0443 26.4742 19.0786C26.481 19.1335 26.4399 19.1815 26.4125 19.2295C26.3576 19.305 26.289 19.3736 26.2067 19.4285C26.1861 19.3942 26.1449 19.3667 26.0969 19.3736C26.1517 19.3393 26.1998 19.2981 26.2478 19.2501C26.3096 19.1746 26.3781 19.0992 26.4125 19.01Z" fill="#FED101"/>
<path d="M25.6857 19.0237C25.72 19.0169 25.768 19.0512 25.7611 19.0855C25.768 19.1403 25.7268 19.1747 25.7062 19.2158C25.6445 19.3462 25.5553 19.4559 25.4935 19.5794C25.473 19.552 25.4387 19.5314 25.4044 19.5314C25.4249 19.4422 25.473 19.3667 25.5141 19.2913C25.5484 19.2227 25.5759 19.1541 25.617 19.0923C25.6307 19.0649 25.6514 19.0374 25.6857 19.0237Z" fill="#FED101"/>
<path d="M25.8158 19.113C25.8501 19.0924 25.8981 19.113 25.9118 19.1542C25.9255 19.2159 25.8844 19.2708 25.8569 19.3188C25.7815 19.4286 25.7128 19.5521 25.6237 19.655C25.6031 19.6481 25.5894 19.6275 25.5688 19.6275C25.5413 19.6207 25.5139 19.6481 25.4865 19.6618C25.4865 19.6413 25.4865 19.6207 25.4933 19.607C25.5413 19.5178 25.6031 19.4286 25.658 19.3463C25.6923 19.2914 25.7197 19.2228 25.7609 19.1679C25.7815 19.1473 25.7952 19.1267 25.8158 19.113Z" fill="#FED101"/>
<path d="M26.495 19.1198C26.5156 19.1404 26.5362 19.161 26.5293 19.1953C26.5225 19.257 26.495 19.3119 26.4607 19.3668C26.4059 19.456 26.3304 19.5383 26.2412 19.5932C26.2275 19.5726 26.2137 19.5451 26.1794 19.5383C26.1932 19.5108 26.2069 19.4834 26.2069 19.4491C26.2549 19.4148 26.3029 19.3805 26.3441 19.3325C26.4058 19.2639 26.4676 19.2021 26.495 19.1198Z" fill="#FED101"/>
<path d="M25.9665 19.2364C26.0077 19.2295 26.0489 19.2501 26.0694 19.2844C26.0832 19.3118 26.0694 19.3461 26.0488 19.3736C26.0145 19.4353 25.9665 19.4833 25.9185 19.5382C25.8567 19.6068 25.8019 19.6823 25.7333 19.744C25.7196 19.7646 25.699 19.7783 25.6715 19.792C25.6578 19.792 25.6441 19.7852 25.6304 19.7783C25.651 19.744 25.651 19.7029 25.6372 19.6617C25.6921 19.5931 25.7401 19.5245 25.7881 19.449C25.8293 19.3873 25.8705 19.3256 25.9048 19.2638C25.9254 19.2569 25.9459 19.2432 25.9665 19.2364Z" fill="#FED101"/>
<path d="M26.0902 19.3942C26.1245 19.3805 26.1657 19.4079 26.1794 19.4422C26.1862 19.4834 26.1588 19.5177 26.1451 19.5451C26.1039 19.6 26.0559 19.6549 26.001 19.6961C25.9187 19.7647 25.8433 19.847 25.7335 19.8744C25.7266 19.8538 25.7129 19.8401 25.6992 19.8196C25.8226 19.7166 25.9187 19.5863 26.0216 19.4628C26.0422 19.4422 26.0559 19.4011 26.0902 19.3942Z" fill="#FED101"/>
<path d="M25.102 19.4422C25.1157 19.4217 25.1363 19.3942 25.1637 19.4011C25.1912 19.4011 25.2118 19.4354 25.2118 19.4628C25.1569 19.504 25.1363 19.5657 25.1157 19.6275C25.0814 19.7304 25.0402 19.8264 25.0265 19.9293C24.9922 19.9362 24.9854 19.895 24.9854 19.8676C24.9854 19.7853 25.0128 19.7029 25.0402 19.6206C25.054 19.5589 25.0677 19.4903 25.102 19.4422Z" fill="#FED101"/>
<path d="M25.2259 19.4833C25.2396 19.4764 25.2671 19.4764 25.2808 19.4833C25.3083 19.497 25.3151 19.5382 25.3083 19.5657C25.2534 19.6274 25.2259 19.7028 25.1848 19.7715C25.1436 19.8538 25.1093 19.943 25.0956 20.0321C25.0819 20.0527 25.0476 20.0527 25.0407 20.0321C25.027 19.9841 25.0407 19.9361 25.0476 19.8949C25.0682 19.8057 25.1025 19.7234 25.1299 19.6411C25.1573 19.5794 25.1779 19.5176 25.2259 19.4833Z" fill="#FED101"/>
<path d="M25.3767 19.5588C25.4179 19.552 25.4727 19.5794 25.4727 19.6275C25.4727 19.6823 25.4453 19.7304 25.4179 19.7784C25.3698 19.8676 25.3218 19.9636 25.2601 20.0459C25.2326 20.0734 25.2121 20.1077 25.1709 20.1214C25.1366 20.1351 25.1229 20.0871 25.1229 20.0597C25.1297 19.9705 25.164 19.8881 25.1983 19.8127C25.2326 19.7509 25.2601 19.6823 25.3012 19.6206C25.3218 19.5931 25.3424 19.5657 25.3767 19.5588Z" fill="#FED101"/>
<path d="M26.1654 19.5521C26.1928 19.5521 26.2202 19.5864 26.2202 19.6138C26.2202 19.655 26.1928 19.6825 26.1585 19.7168C26.1174 19.7648 26.0625 19.7991 26.0144 19.8402C25.9527 19.8883 25.8841 19.9294 25.8086 19.9569C25.7881 19.9294 25.7606 19.9157 25.7263 19.9157C25.7263 19.9088 25.7263 19.902 25.7263 19.902C25.8155 19.8883 25.8909 19.8265 25.9595 19.7716C26.035 19.703 26.1105 19.6344 26.1654 19.5521Z" fill="#FED101"/>
<path d="M25.5483 19.6619C25.5826 19.6481 25.6169 19.6756 25.6238 19.703C25.6306 19.7305 25.6238 19.7648 25.6101 19.7922C25.5758 19.854 25.5209 19.9157 25.4729 19.9637C25.4248 20.0186 25.37 20.0735 25.3082 20.1146C25.2808 20.1352 25.2533 20.1558 25.2122 20.1558C25.1984 20.1558 25.1916 20.1421 25.1847 20.1352C25.2396 20.1078 25.2739 20.0598 25.3082 20.0117C25.3631 19.9363 25.4042 19.8471 25.4523 19.7648C25.466 19.7236 25.5003 19.6824 25.5483 19.6619Z" fill="#FED101"/>
<path d="M25.3353 20.1351C25.445 20.0391 25.5411 19.9362 25.6234 19.8195C25.6577 19.8127 25.6783 19.8401 25.6989 19.8676C25.7126 19.895 25.6989 19.9224 25.6852 19.943C25.644 19.9979 25.5822 20.0322 25.5342 20.0802C25.4862 20.1214 25.4382 20.1557 25.3833 20.1831C25.3696 20.19 25.349 20.19 25.3353 20.1831C25.3284 20.1626 25.3284 20.1488 25.3353 20.1351Z" fill="#FED101"/>
<path d="M25.7128 19.95C25.7471 19.9363 25.7882 19.95 25.7882 19.9912C25.7814 20.0392 25.7402 20.0666 25.7059 20.1009C25.6442 20.1489 25.5893 20.197 25.5139 20.2175C25.4864 20.2313 25.4453 20.2313 25.4247 20.2038C25.4178 20.197 25.4178 20.1832 25.4315 20.1764C25.4796 20.1489 25.5207 20.1146 25.5619 20.0803C25.603 20.046 25.6442 20.0186 25.6785 19.9774C25.6991 19.9637 25.7059 19.95 25.7128 19.95Z" fill="#FED101"/>
<path d="M24.9858 20.2518C25.0269 20.19 25.0544 20.1214 25.1024 20.0665C25.1024 20.0871 25.1024 20.1077 25.1161 20.1283C25.1298 20.142 25.1504 20.1489 25.1641 20.1489C25.171 20.1557 25.1779 20.1695 25.1641 20.1763C25.1298 20.2175 25.1093 20.2724 25.123 20.3272C25.1367 20.3753 25.123 20.4301 25.1504 20.4782C25.1573 20.4919 25.171 20.5056 25.1779 20.5262C25.1299 20.5605 25.1024 20.6016 25.0681 20.6497C25.0475 20.636 25.0201 20.6085 25.0132 20.5811C25.0201 20.5399 25.0338 20.5056 25.0338 20.4713C25.0338 20.4713 25.0201 20.4713 25.0132 20.4713C25.0063 20.5125 24.9926 20.5536 24.9858 20.5948C24.9652 20.6154 24.9446 20.6291 24.924 20.6497C24.9103 20.6565 24.9103 20.6771 24.8966 20.684C24.8691 20.6702 24.8486 20.6497 24.828 20.6291C24.8349 20.6017 24.8348 20.5673 24.8417 20.5399C24.8348 20.533 24.828 20.5262 24.8143 20.533C24.8143 20.5536 24.8143 20.5811 24.8074 20.6016C24.8005 20.6222 24.7868 20.636 24.7662 20.6497C24.7182 20.6771 24.6633 20.6977 24.6085 20.7045C24.629 20.6634 24.6496 20.6222 24.6634 20.5811C24.6771 20.533 24.6702 20.4782 24.7113 20.4439C24.7594 20.4096 24.8211 20.4027 24.876 20.3684C24.9309 20.3341 24.9652 20.2929 24.9858 20.2518Z" fill="#C1510E"/>
</svg>
