<svg width="30" height="30" viewBox="0 0 30 30" fill="none" xmlns="http://www.w3.org/2000/svg">
<path d="M30 15.0004C30 23.2827 23.2823 30.0004 15 30.0004C6.71774 30.0004 0 23.2827 0 15.0004C0 6.71817 6.71774 0.000427246 15 0.000427246C23.2823 0.000427246 30 6.71131 30 15.0004Z" fill="#75B2DD"/>
<path d="M7.52043 12.7498L8.47423 14.177L10.1279 13.7104L9.06434 15.0622L10.0182 16.4963L8.40563 15.8925L7.34201 17.2443L7.41066 15.5288L5.7981 14.9318L7.45869 14.4652L7.52043 12.7498Z" fill="white"/>
<path d="M22.4797 12.7497L21.526 14.1769L19.8654 13.7103L20.9358 15.0621L19.982 16.4962L21.5877 15.8924L22.6581 17.2442L22.5895 15.5287L24.2021 14.9318L22.5484 14.4652L22.4797 12.7497Z" fill="white"/>
<path d="M15.0004 5.63394L15.5287 7.27389H17.2511L15.8581 8.28261L16.3933 9.91573L15.0004 8.90702L13.6143 9.91573L14.1427 8.28261L12.7497 7.27389H14.472L15.0004 5.63394Z" fill="white"/>
<path d="M15.0004 24.3599L15.5287 22.7268H17.2511L15.8581 21.7181L16.3933 20.0781L15.0004 21.0868L13.6143 20.0781L14.1427 21.7181L12.7497 22.7268H14.472L15.0004 24.3599Z" fill="white"/>
</svg>
