<svg width="30" height="30" viewBox="0 0 30 30" fill="none" xmlns="http://www.w3.org/2000/svg">
<path d="M0.123657 16.8803C0.205981 17.5185 0.322612 18.1429 0.473538 18.7536H7.49846V27.9897C8.09531 28.3396 8.72644 28.6415 9.37131 28.9092V16.8803H0.123657Z" fill="#0072C6"/>
<path d="M29.5269 18.7536C29.6847 18.1429 29.8013 17.5185 29.8768 16.8803H13.124V29.8835C13.7414 29.959 14.3657 30.0002 14.9968 30.0002V18.7536H29.5269Z" fill="#0072C6"/>
<path d="M29.5268 11.2536C27.8598 4.78284 21.9874 0.000137329 15.0036 0.000137329V11.2536H29.5268Z" fill="#F1F4FB"/>
<path d="M0.473389 18.7535C1.48871 22.6922 4.06131 25.9996 7.49831 27.9895V18.7535H0.473389Z" fill="#F1F4FB"/>
<path d="M7.49831 2.01752C4.06131 4.00745 1.48871 7.31486 0.473389 11.2536H7.49831V2.01752Z" fill="#F1F4FB"/>
<path d="M29.5268 18.7535H15.0036V30.0001C21.9874 30.0069 27.8598 25.2242 29.5268 18.7535Z" fill="#F1F4FB"/>
<path d="M9.37826 1.09801C8.72653 1.35876 8.10226 1.66754 7.50542 2.01749V11.2535H0.480496C0.32271 11.8642 0.206078 12.4887 0.130615 13.1268H9.38513V1.09801H9.37826Z" fill="#0072C6"/>
<path d="M29.8768 13.1338C29.7945 12.4956 29.6847 11.8712 29.5269 11.2605H15.0037V0.00706482C14.3657 0.00706482 13.7414 0.0482309 13.1309 0.130573V13.1338H29.8768Z" fill="#0072C6"/>
<path d="M29.8765 16.8802C29.952 16.2627 30 15.6382 30 15.007C30 14.3688 29.952 13.7444 29.8765 13.1337H13.1237V0.130478C11.8134 0.295162 10.558 0.62454 9.37799 1.10487V13.1337H0.12348C0.0480169 13.7513 0 14.3757 0 15.007C0 15.6451 0.0411567 16.2695 0.12348 16.8802H9.37799V28.9091C10.558 29.3894 11.8203 29.7188 13.1237 29.8835V16.8802H29.8765Z" fill="#EF2B2D"/>
</svg>
