<svg width="30" height="30" viewBox="0 0 30 30" fill="none" xmlns="http://www.w3.org/2000/svg">
<path d="M0 15.0001C0 21.0522 3.58875 26.2672 8.74886 28.6346V1.36557C3.58875 3.73291 0 8.94791 0 15.0001Z" fill="#002F66"/>
<path d="M30 15.0001C30 8.94791 26.4113 3.73291 21.2511 1.36557V28.6346C26.4113 26.2672 30 21.0522 30 15.0001Z" fill="#EF4135"/>
<path d="M15.0001 0.000152588C12.77 0.000152588 10.6497 0.487337 8.74901 1.36565V28.6347C10.6497 29.5061 12.77 30.0002 15.0001 30.0002C17.2302 30.0002 19.3437 29.5061 21.2513 28.6347V1.36565C19.3437 0.494199 17.2302 0.000152588 15.0001 0.000152588Z" fill="#F1F4FB"/>
</svg>
