<svg width="30" height="30" viewBox="0 0 30 30" fill="none" xmlns="http://www.w3.org/2000/svg">
<path d="M15 30.0001C21.0522 30.0001 26.2603 26.4114 28.6345 21.2513H1.36553C3.73287 26.4114 8.94788 30.0001 15 30.0001Z" fill="#3A75C4"/>
<path d="M15 0.000152588C8.94788 0.000152588 3.73287 3.5889 1.36553 8.74901H28.6345C26.2672 3.5889 21.0522 0.000152588 15 0.000152588Z" fill="#009E60"/>
<path d="M0 15.0001C0 17.2302 0.494047 19.3505 1.3655 21.2513H28.6345C29.506 19.3505 30 17.2302 30 15.0001C30 12.77 29.506 10.6566 28.6345 8.74898H1.3655C0.494047 10.6566 0 12.77 0 15.0001Z" fill="#FCD116"/>
</svg>
