<svg width="30" height="30" viewBox="0 0 30 30" fill="none" xmlns="http://www.w3.org/2000/svg">
<path d="M29.767 12.372C28.6762 6.18945 23.8054 1.3244 17.6312 0.233368V12.372H29.767Z" fill="#F1F4FB"/>
<path d="M12.3831 0.233368C6.20197 1.3244 1.33803 6.19632 0.240387 12.372H12.3831V0.233368Z" fill="#F1F4FB"/>
<path d="M0.240234 17.6282C1.33102 23.8039 6.20182 28.6758 12.3829 29.7668V17.6282H0.240234Z" fill="#F1F4FB"/>
<path d="M17.6313 29.7668C23.8056 28.6758 28.6764 23.8039 29.7672 17.6282H17.6313V29.7668Z" fill="#F1F4FB"/>
<path d="M17.6309 17.6282H29.7667C29.9177 16.7774 30 15.899 30 15.0001C30 14.1012 29.9177 13.2298 29.7667 12.372H17.6309V0.233438C16.7802 0.082477 15.9021 0.000137329 15.0034 0.000137329C14.1047 0.000137329 13.2335 0.082477 12.3759 0.233438V12.372H0.23325C0.0823234 13.2229 0 14.1012 0 15.0001C0 15.899 0.0823234 16.7705 0.23325 17.6282H12.3759V29.7668C13.2266 29.9178 14.1047 30.0001 15.0034 30.0001C15.8953 30.0001 16.7734 29.9178 17.6309 29.7668V17.6282Z" fill="#CF142B"/>
</svg>
