<svg width="32" height="32" viewBox="0 0 32 32" fill="none" xmlns="http://www.w3.org/2000/svg">
<path d="M30.7666 13.3727C29.6756 7.19013 24.8037 2.32507 18.6281 1.23404V13.3727H30.7666Z" fill="#F1F4FB"/>
<path d="M13.3789 1.23404C7.1964 2.32507 2.32443 7.19699 1.2334 13.3727H13.3789V1.23404Z" fill="#F1F4FB"/>
<path d="M1.24048 18.622C2.33151 24.8045 7.20348 29.6696 13.386 30.7606V18.622H1.24048Z" fill="#F1F4FB"/>
<path d="M18.6281 30.7675C24.8037 29.6765 29.6756 24.8045 30.7666 18.6289H18.6281V30.7675Z" fill="#F1F4FB"/>
<path d="M18.6281 18.622H30.7667C30.9177 17.7711 31 16.8928 31 15.9939C31 15.095 30.9177 14.2167 30.7667 13.3658H18.6281V1.23404C17.7773 1.08308 16.8989 1.00076 16.0069 1.00076C15.108 1.00076 14.2365 1.08308 13.3788 1.23404V13.3727H1.23328C1.08232 14.2235 1 15.1019 1 16.0008C1 16.8997 1.08232 17.7711 1.23328 18.6289H13.3788V30.7675C14.2297 30.9184 15.108 31.0008 16.0069 31.0008C16.8989 31.0008 17.7773 30.9184 18.6281 30.7675V18.622Z" fill="#CE1124" stroke="black" stroke-width="0.0315"/>
<path d="M16.0066 9.4751L17.873 12.7139H21.6059L19.7395 15.9458L21.6059 19.1778H17.873L16.0066 22.4097L14.1402 19.1778H10.4073L12.2738 15.9458L10.4073 12.7139H14.1402L16.0066 9.4751Z" fill="#F1F4FB" stroke="black" stroke-width="0.0328"/>
<path d="M16.9258 18.8004C16.9258 18.8004 16.7749 18.8759 16.5553 18.8896C16.3357 18.9034 16.0338 18.821 15.8005 18.8279C15.8005 18.8279 15.3887 18.8553 15.2378 18.9033C15.0868 18.9514 14.9222 18.9171 14.8604 18.821C14.7987 18.7249 14.881 17.7368 14.8467 17.6408C14.8055 17.5378 14.5448 17.2084 14.5036 17.0095C14.4624 16.8105 14.4555 15.9116 14.4555 15.7675C14.4555 15.6234 14.5173 15.1774 14.5242 15.0195C14.5242 14.8617 14.5104 13.8805 14.5036 13.7981C14.4967 13.7158 14.4761 13.2012 14.73 13.1806C14.9839 13.16 15.0319 13.4688 15.0594 13.853C15.0594 13.853 14.9701 12.8306 15.1348 12.6385C15.2995 12.4463 15.4642 12.4738 15.5671 12.5904C15.5671 12.5904 15.6975 12.6865 15.7044 13.2149C15.7044 13.2149 15.6975 12.7002 15.7318 12.5424C15.7592 12.3915 15.876 12.1307 16.0612 12.1376C16.2465 12.1513 16.3837 12.2268 16.3837 12.8237C16.3837 12.8237 16.4455 12.5149 16.6582 12.5149C16.8709 12.5149 16.9601 12.7482 16.9876 12.8923C17.015 13.0433 17.0493 13.6746 17.0493 13.7775C17.0493 13.8805 17.1385 14.697 17.1454 14.9097C17.1522 15.1224 17.166 15.644 17.1316 15.8292C17.1316 15.8292 17.4061 15.7606 17.5022 15.6851C17.5983 15.6096 17.9002 15.2803 17.9962 15.2185C18.0923 15.1568 18.2707 15.0813 18.3531 15.095C18.4354 15.1087 18.6001 15.2048 18.5795 15.3695C18.5589 15.5342 18.3187 15.7675 18.2227 15.8498C18.1266 15.9321 17.8864 16.1861 17.8041 16.3164C17.7218 16.4468 17.6051 16.6321 17.5502 16.7556C17.4953 16.8791 17.4335 17.0781 17.3581 17.1604C17.2826 17.2428 17.0974 17.4692 17.0013 17.5378C17.0013 17.5378 16.9327 17.9839 16.9258 18.1142C16.9121 18.2378 16.8984 18.622 16.9258 18.8004Z" fill="#CE1124" stroke="black" stroke-width="0.0328"/>
<path d="M15.053 14.8L15.0393 13.8462H15.0667L15.0804 14.8H15.053Z" fill="black"/>
<path d="M15.7043 14.6765C15.7043 14.6765 15.7043 13.2835 15.6906 13.208L15.7112 13.2011C15.7317 13.2835 15.7317 14.6696 15.7317 14.6696H15.7043V14.6765Z" fill="black"/>
<path d="M16.3975 14.6147C16.3975 14.6147 16.4112 14.203 16.4112 13.9903C16.4112 13.9354 16.4112 13.8873 16.4112 13.8736C16.4043 13.7913 16.3563 13.112 16.3563 12.8718C16.3563 12.8444 16.3563 12.8238 16.3563 12.81L16.3769 12.8169C16.3769 12.8306 16.3769 12.8512 16.3769 12.8718C16.3769 13.112 16.418 13.7913 16.4249 13.8736C16.4249 13.8873 16.4249 13.9354 16.4249 13.9903C16.4249 14.203 16.4112 14.6147 16.4112 14.6216L16.3975 14.6147Z" fill="black"/>
<path d="M16.0072 7.75967C16.3846 7.2862 17.3865 7.3411 17.6884 7.63616C17.9972 7.92436 18.8961 7.54007 19.2598 8.26057L18.6903 9.47513L16.0072 8.92619L13.3175 9.47513L12.7479 8.26057C13.1115 7.54007 14.0173 7.92436 14.3193 7.63616C14.628 7.3411 15.6298 7.27934 16.0072 7.75967Z" fill="#CE1124" stroke="black" stroke-width="0.0328"/>
<path d="M16.0074 6.26377H16.3505C16.2544 6.08536 16.2133 5.75598 16.1927 5.60501C16.3436 5.61188 16.4946 5.67366 16.6112 5.76287V5.04921C16.474 5.15213 16.3574 5.19333 16.1927 5.20706C16.1995 5.04237 16.2613 4.89824 16.3505 4.78845H16.0074H15.6574C15.7398 4.89824 15.8015 5.04237 15.8152 5.20706C15.6505 5.19333 15.5339 5.15213 15.3967 5.04921V5.76287C15.5133 5.67366 15.6643 5.61874 15.8152 5.60501C15.8015 5.75598 15.7535 6.0785 15.6574 6.26377H16.0074Z" fill="#F7D917" stroke="black" stroke-width="0.0328"/>
<path d="M16.0072 6.62744C15.568 6.62744 15.568 7.28619 16.0072 7.28619C16.4395 7.28619 16.4463 6.62744 16.0072 6.62744Z" fill="#F7D917" stroke="black" stroke-width="0.0328"/>
<path d="M16 10.7583C16.3431 10.7583 16.8852 10.772 17.4822 10.8338C18.0723 10.8955 18.4908 11.0191 18.4908 11.0191C18.6143 11.0396 18.7104 10.875 18.7516 10.724C18.7928 10.573 18.6144 10.4426 18.6144 10.4426C18.7653 10.278 18.7859 9.60552 18.7859 9.60552C18.8889 9.60552 19.0261 9.11831 19.0261 9.11831C19.1016 9.1389 19.1565 9.09774 19.2251 9.00854C19.2937 8.91934 19.2114 8.78896 19.2114 8.78896C19.28 8.74778 19.4652 8.50762 19.4378 8.40469C19.4103 8.30177 18.9849 8.00669 18.9849 8.00669C18.9849 8.00669 18.9094 8.08219 18.9369 8.24002C18.9643 8.39784 18.9643 8.61054 18.9643 8.61054C18.9163 8.52134 18.6693 8.43898 18.5938 8.68601C18.5183 8.93304 18.7859 8.98111 18.7859 8.98111C18.7859 9.07717 18.5252 9.46826 18.1615 9.24182C17.7978 9.01538 17.9213 8.78896 17.9213 8.78896C18.1066 8.89875 18.2987 8.75465 18.2644 8.53507C18.2301 8.31549 17.9282 8.37726 17.9282 8.37726C17.9282 8.37726 17.99 8.28804 18.0105 8.18511C18.0311 8.08218 17.8733 7.93809 17.8184 7.93122C17.7635 7.92436 17.6468 7.95181 17.5714 8.0616C17.4959 8.17139 17.5576 8.30862 17.5576 8.30862C17.3929 8.19197 17.2488 8.26746 17.1871 8.36352C17.1253 8.45959 17.1734 8.62429 17.242 8.67918C17.3106 8.73408 17.4342 8.69975 17.4342 8.69975C17.3587 8.98108 17.1184 9.15264 16.6724 9.04971C16.2264 8.94678 16.2059 8.54194 16.2059 8.54194C16.2059 8.54194 16.3088 8.60371 16.3843 8.59685C16.4598 8.58998 16.5421 8.45958 16.549 8.39783C16.5558 8.33607 16.5283 8.18512 16.4323 8.15081C16.3362 8.1165 16.1921 8.17137 16.1921 8.17137C16.1921 8.17137 16.2951 7.9518 16.2059 7.79398C16.1372 7.6636 16.0411 7.63617 15.9931 7.63617C15.9451 7.63617 15.8559 7.6636 15.7804 7.79398C15.6981 7.9518 15.7942 8.17137 15.7942 8.17137C15.7942 8.17137 15.6501 8.1165 15.554 8.15081C15.458 8.18512 15.4305 8.33607 15.4373 8.39783C15.4442 8.45958 15.5265 8.58998 15.602 8.59685C15.6775 8.60371 15.7804 8.54194 15.7804 8.54194C15.7804 8.54194 15.7598 8.94678 15.3138 9.04971C14.8678 9.15264 14.6276 8.98108 14.5521 8.69975C14.5521 8.69975 14.6757 8.73408 14.7443 8.67918C14.8129 8.62429 14.8609 8.45959 14.7992 8.36352C14.7374 8.26746 14.5934 8.19197 14.4287 8.30862C14.4287 8.30862 14.4904 8.17139 14.4149 8.0616C14.3395 7.95181 14.2228 7.92436 14.1679 7.93122C14.113 7.93809 13.9552 8.08218 13.9758 8.18511C13.9963 8.28804 14.0581 8.37726 14.0581 8.37726C14.0581 8.37726 13.7562 8.31549 13.7219 8.53507C13.6876 8.75465 13.8797 8.89875 14.065 8.78896C14.065 8.78896 14.1885 9.01538 13.8248 9.24182C13.4611 9.4614 13.2004 9.07717 13.2004 8.98111C13.2004 8.98111 13.468 8.93304 13.3925 8.68601C13.317 8.43898 13.0769 8.52134 13.022 8.61054C13.022 8.61054 13.022 8.39784 13.0494 8.24002C13.0769 8.08219 13.0014 8.00669 13.0014 8.00669C13.0014 8.00669 12.576 8.30177 12.5485 8.40469C12.5211 8.50762 12.7063 8.74778 12.7749 8.78896C12.7749 8.78896 12.6926 8.91934 12.7612 9.00854C12.8298 9.09774 12.8847 9.1389 12.9602 9.11831C12.9602 9.11831 13.0974 9.60552 13.2004 9.60552C13.2004 9.60552 13.221 10.278 13.3719 10.4426C13.3719 10.4426 13.1935 10.573 13.2347 10.724C13.2759 10.875 13.372 11.0396 13.4955 11.0191C13.4955 11.0191 13.9209 10.9024 14.511 10.8338C15.108 10.772 15.6569 10.7583 16 10.7583Z" fill="#F7D917" stroke="black" stroke-width="0.0328"/>
<path d="M16.0072 7.14896C15.568 7.14896 15.568 7.80771 16.0072 7.80771C16.4395 7.80085 16.4463 7.14896 16.0072 7.14896Z" fill="#F7D917" stroke="black" stroke-width="0.0328"/>
<path d="M16.0073 6.98427C14.6623 6.98427 13.2694 7.76651 12.6449 8.34977C12.3979 8.53504 12.1097 8.26743 12.4048 7.96551C13.0429 7.38225 14.628 6.52454 16.0073 6.52454C17.3865 6.52454 18.9647 7.38225 19.6097 7.96551C19.9048 8.26743 19.6166 8.53504 19.3696 8.34977C18.7383 7.76651 17.3522 6.98427 16.0073 6.98427Z" fill="#F7D917" stroke="black" stroke-width="0.0328"/>
<path d="M16.0142 9.38592C14.587 9.38592 13.2627 9.61238 13.2146 9.61924L13.2078 9.59864C13.2078 9.59864 14.5595 9.36536 16.0074 9.36536C17.4346 9.36536 18.7796 9.59864 18.7796 9.59864L18.7727 9.61924C18.7796 9.61924 17.4415 9.38592 16.0142 9.38592Z" fill="black"/>
<path d="M16.0141 10.2437C14.5937 10.2437 13.4341 10.4426 13.386 10.4495L13.3792 10.4221C13.3792 10.4221 14.5594 10.2094 16.0072 10.2094C17.4345 10.2094 18.6079 10.4221 18.6079 10.4221L18.601 10.4426C18.6079 10.4564 17.4413 10.2437 16.0141 10.2437Z" fill="black"/>
<path d="M14.4018 9.66044C13.942 9.74278 14.0244 10.2368 14.4841 10.1545C14.9507 10.0721 14.8684 9.57809 14.4018 9.66044Z" fill="#CE1124" stroke="black" stroke-width="0.0328"/>
<path d="M16.0082 10.0447C16.2896 10.0447 16.5229 10.1065 16.5229 9.80453C16.5229 9.50261 16.2896 9.56438 16.0082 9.56438C15.7269 9.56438 15.4936 9.50261 15.4936 9.80453C15.4936 10.1065 15.7269 10.0447 16.0082 10.0447Z" fill="#CE1124" stroke="black" stroke-width="0.0328"/>
<path d="M17.6271 9.66044C18.0868 9.74278 18.0045 10.2368 17.5379 10.1545C17.0781 10.0721 17.1605 9.57809 17.6271 9.66044Z" fill="#CE1124" stroke="black" stroke-width="0.0328"/>
<path d="M18.4235 10.031C18.6225 10.2712 18.8078 10.4359 18.8696 10.1408C18.9176 9.80458 18.6774 9.91435 18.4235 10.031Z" fill="#CE1124" stroke="black" stroke-width="0.0328"/>
<path d="M13.1464 10.1408C13.2081 10.4358 13.3933 10.2711 13.5923 10.031C13.3316 9.91432 13.0915 9.80455 13.1464 10.1408Z" fill="#CE1124" stroke="black" stroke-width="0.0328"/>
<path d="M12.4116 7.57442C11.9381 7.56756 11.9313 8.27435 12.4047 8.28121C12.8851 8.28807 12.8988 7.58128 12.4116 7.57442Z" fill="#F1F4FB" stroke="black" stroke-width="0.0328"/>
<path d="M13.0428 7.12152C12.5694 7.12152 12.5625 7.82828 13.036 7.83514C13.5163 7.83514 13.53 7.12152 13.0428 7.12152Z" fill="#F1F4FB" stroke="black" stroke-width="0.0328"/>
<path d="M13.7295 6.77847C13.2561 6.77847 13.2492 7.48522 13.7227 7.48522C14.203 7.49208 14.2099 6.78533 13.7295 6.77847Z" fill="#F1F4FB" stroke="black" stroke-width="0.0328"/>
<path d="M14.4429 6.49026C13.9695 6.49026 13.9627 7.19701 14.4361 7.19701C14.9096 7.20388 14.9233 6.49713 14.4429 6.49026Z" fill="#F1F4FB" stroke="black" stroke-width="0.0328"/>
<path d="M15.1632 6.27753C14.6898 6.27753 14.6829 6.98428 15.1564 6.98428C15.6367 6.98428 15.6504 6.27753 15.1632 6.27753Z" fill="#F1F4FB" stroke="black" stroke-width="0.0328"/>
<path d="M16.0073 6.08539C15.4241 6.08539 15.4241 6.95686 16.0073 6.95686C16.5906 6.95686 16.5974 6.08539 16.0073 6.08539Z" fill="#F1F4FB" stroke="black" stroke-width="0.0328"/>
<path d="M19.5957 7.57439C20.0691 7.56753 20.076 8.27432 19.6025 8.28118C19.1222 8.28804 19.1153 7.58125 19.5957 7.57439Z" fill="#F1F4FB" stroke="black" stroke-width="0.0328"/>
<path d="M18.9648 7.12152C19.4382 7.12152 19.4451 7.82828 18.9716 7.83514C18.4982 7.83514 18.4844 7.12152 18.9648 7.12152Z" fill="#F1F4FB" stroke="black" stroke-width="0.0328"/>
<path d="M18.2851 6.77847C18.7586 6.77847 18.7655 7.48522 18.292 7.48522C17.8117 7.49208 17.798 6.78533 18.2851 6.77847Z" fill="#F1F4FB" stroke="black" stroke-width="0.0328"/>
<path d="M17.5718 6.49026C18.0452 6.49026 18.0521 7.19701 17.5786 7.19701C17.0983 7.20388 17.0846 6.49713 17.5718 6.49026Z" fill="#F1F4FB" stroke="black" stroke-width="0.0328"/>
<path d="M16.8443 6.27753C17.3178 6.27753 17.3247 6.98428 16.8512 6.98428C16.3777 6.98428 16.364 6.27753 16.8443 6.27753Z" fill="#F1F4FB" stroke="black" stroke-width="0.0328"/>
</svg>
