<svg width="30" height="30" viewBox="0 0 30 30" fill="none" xmlns="http://www.w3.org/2000/svg">
<path d="M1.1049 9.34894C0.391268 11.0922 0.000152588 13.0071 0.000152588 15.0044C0.000152588 17.0085 0.39813 18.9165 1.1049 20.6598L9.59301 15.0044L1.1049 9.34894Z" fill="#0079C1"/>
<path d="M25.5605 4.3524C22.8501 1.66194 19.1172 0.000976562 15.0001 0.000976562C10.8761 0.000976562 7.15012 1.66194 4.43283 4.3524L15.0001 11.3942L25.5605 4.3524Z" fill="#0079C1"/>
<path d="M28.8954 20.6598C29.6091 18.9165 30.0002 17.0016 30.0002 15.0044C30.0002 13.0003 29.6022 11.0922 28.8954 9.34894L20.4073 15.0044L28.8954 20.6598Z" fill="#0079C1"/>
<path d="M15.0001 18.6077L4.43283 25.6495C7.14326 28.34 10.8761 30.001 15.0001 30.001C19.1241 30.001 22.8501 28.34 25.5605 25.6495L15.0001 18.6077Z" fill="#0079C1"/>
<path d="M25.5606 25.6564C26.981 24.2426 28.12 22.5473 28.8886 20.6599L20.4005 15.0044L28.8886 9.34897C28.12 7.46153 26.981 5.76625 25.5606 4.35925L15.0002 11.4011L4.43292 4.35925C3.01251 5.77312 1.87346 7.46839 1.10493 9.34897L9.59304 15.0044L1.10493 20.6599C1.87346 22.5473 3.01251 24.2426 4.43292 25.6564L15.0002 18.6146L25.5606 25.6564Z" fill="#F1F4FB"/>
</svg>
