<svg width="29675" height="16706" viewBox="0 0 29675 16706" fill="none" xmlns="http://www.w3.org/2000/svg">
<path d="M14316 30.001C14324.3 30.001 14331 23.2833 14331 15.001H14301C14301 23.2833 14307.7 30.001 14316 30.001Z" fill="#007900"/>
<path d="M14316 0.0010376C14307.7 0.0010376 14301 6.71878 14301 15.001H14331C14331 6.71192 14324.3 0.0010376 14316 0.0010376Z" fill="#F1F4FB"/>
<path d="M14327 11.9681C14326.9 11.5358 14326.9 11.0967 14326.9 10.6575C14326.8 10.1909 14326.8 9.71741 14326.9 9.25766C14326.9 9.23022 14326.9 9.16846 14326.9 9.16846C14326.8 9.2508 14326.7 9.35374 14326.6 9.44295C14326.1 10.1566 14325.4 10.8153 14324.7 11.4672C14324.6 11.5975 14324.5 11.7142 14324.3 11.8515C14324.4 11.8926 14324.4 11.8926 14324.5 11.9063C14324.8 11.9612 14325.2 11.9201 14325.5 11.8789C14325.5 11.8721 14325.6 11.8789 14325.6 11.8446C14325.6 11.8583 14325.6 11.8721 14325.6 11.8789C14325.5 11.9132 14325.5 11.975 14325.5 12.023C14325.4 12.1877 14325.3 12.3592 14325.3 12.517C14324.8 12.2288 14324.2 12.1259 14323.6 12.2906C14323.3 12.3798 14323 12.5514 14322.8 12.8121C14322.7 12.9974 14322.7 13.2375 14322.7 13.4571C14322.7 13.7247 14322.9 13.9924 14323.1 14.157C14323.3 14.3423 14323.7 14.3834 14324 14.3834C14324.2 14.3834 14324.5 14.3355 14324.8 14.2806C14324.8 14.4453 14324.6 14.5825 14324.5 14.6579C14324.2 14.7883 14324 14.8226 14323.7 14.8364C14323.3 14.8501 14323 14.8226 14322.6 14.7678C14322.5 14.7472 14322.3 14.6854 14322.2 14.6511C14321.5 14.4864 14320.8 14.5139 14320.1 14.5207C14320.3 14.2325 14320.5 14.0404 14320.8 13.91C14321.2 13.7591 14321.5 13.6835 14321.9 13.7727C14321.9 13.7796 14322 13.8002 14322 13.7522C14321.9 13.6836 14321.9 13.6287 14321.8 13.5601C14321.7 13.3473 14321.6 13.0798 14321.6 12.819C14321.6 12.4347 14321.8 12.0642 14322 11.7691C14322.3 11.3437 14322.8 11.0281 14323.3 10.8359C14323.4 10.8016 14323.5 10.7879 14323.5 10.7536C14323.5 10.7467 14323.5 10.7261 14323.5 10.7192C14323.3 10.6369 14323.1 10.5408 14322.9 10.3418C14322.8 10.2046 14322.8 10.0193 14322.9 9.86151C14323 9.62135 14323.1 9.41546 14323.3 9.23019C14323.7 8.86651 14324 8.55778 14324.5 8.25586C14324.5 8.24214 14324.5 8.21471 14324.5 8.18726C14324.4 8.18726 14324.4 8.22153 14324.3 8.23525C14323.8 8.4617 14323.3 8.67438 14322.7 8.8871C14322.2 9.10668 14321.7 9.32627 14321.1 9.50468C14321 9.53899 14320.9 9.587 14320.8 9.56641C14320.6 9.53897 14320.4 9.47037 14320.3 9.33313C14320.2 9.16845 14320.2 8.94889 14320.2 8.74989C14320.3 8.43425 14320.4 8.13229 14320.5 7.85782C14320.5 7.83723 14320.5 7.8098 14320.5 7.78235H14320.5C14318.9 8.6538 14317.4 9.63504 14316 10.7741C14315.7 10.9731 14315.5 11.1515 14315.3 11.4054C14315.1 11.5907 14315 11.8172 14315 12.0505C14315 12.3318 14315 12.6131 14315 12.8945C14315 13.2307 14314.9 13.5944 14314.7 13.8345C14314.5 13.8894 14314.2 13.9237 14314 13.9718C14313.7 14.0335 14313.4 14.1021 14313 14.1639C14313 14.0198 14312.9 13.8826 14312.9 13.7385C14312.9 13.6218 14313 13.5257 14313.1 13.512C14313.3 13.4845 14313.4 13.5463 14313.6 13.5738C14313.6 13.464 14313.6 13.3405 14313.5 13.2513C14313.4 13.1278 14313.2 13.066 14313.1 13.0111C14313 12.963 14312.9 12.8602 14312.9 12.7161C14312.9 12.6337 14312.8 12.5514 14312.9 12.4759C14312.9 12.4004 14313 12.3866 14313.1 12.4004C14313.3 12.4347 14313.5 12.5719 14313.7 12.6886C14313.8 12.716 14313.8 12.6474 14313.8 12.62C14313.7 12.3867 14313.6 12.1328 14313.4 11.9955C14313.4 11.9338 14313.2 11.9201 14313.2 11.8515C14313 11.7623 14313 11.6044 14313 11.4672C14313.1 11.378 14313.1 11.2888 14313.2 11.2956C14313.5 11.3025 14313.6 11.5084 14313.9 11.4946C14313.9 11.2682 14313.8 11.0486 14313.6 10.8839C14313.5 10.7467 14313.3 10.7467 14313.2 10.6369C14313.2 10.6095 14313.2 10.5545 14313.2 10.5271C14313.2 10.4722 14313.3 10.4516 14313.4 10.4448C14313.5 10.4173 14313.7 10.431 14313.8 10.4448C14313.8 10.3761 14313.8 10.3144 14313.7 10.2595C14313.6 10.0742 14313.3 9.98499 14313.1 9.90951C14313.1 9.84089 14313 9.75171 14313 9.67623C14312.9 9.58016 14312.9 9.4978 14312.9 9.40174C14312.9 9.27822 14312.9 9.18218 14313 9.08612C14313.2 8.9626 14313.4 8.84593 14313.5 8.72242C14313.6 8.68811 14313.6 8.66751 14313.7 8.62634C14313.7 8.61948 14313.7 8.60581 14313.7 8.59895C14313.6 8.57151 14313.5 8.57833 14313.5 8.56461C14313.5 8.33817 14313.5 8.1186 14313.6 7.89216C14313.6 7.86471 14313.5 7.84415 14313.5 7.82356C14313.5 7.87845 14313.4 7.94707 14313.4 7.99511C14313.2 8.07745 14313.1 8.10488 14312.9 8.14605C14312.9 8.16663 14312.8 8.20093 14312.7 8.21465C14312.5 8.26268 14312.3 8.33135 14312.1 8.43427C14312 8.48231 14311.9 8.53722 14311.9 8.61956C14311.3 8.60583 14310.7 8.55772 14310.1 8.53714C14309.9 8.55772 14309.7 8.60577 14309.6 8.72242C14309.5 8.7979 14309.4 8.9214 14309.4 9.05177C14309 9.08608 14308.6 9.09296 14308.3 9.15472C14308 9.20961 14307.7 9.29887 14307.4 9.46355C14307.3 9.56648 14307.2 9.68994 14307 9.83404C14307 9.85462 14307 9.88207 14307 9.91637C14307.1 9.9301 14307.1 9.91637 14307.2 9.91637C14307.6 9.8752 14308 9.81348 14308.3 9.86151C14308.5 9.87523 14308.7 9.95756 14308.7 10.1017C14308.8 10.1634 14308.8 10.2389 14308.8 10.3075C14308.9 10.335 14308.9 10.3282 14309 10.335C14309 10.3693 14309.1 10.3967 14309.2 10.431C14309.2 10.431 14309.2 10.3419 14309.2 10.3075C14309.3 10.335 14309.3 10.3624 14309.4 10.383C14309.4 10.3281 14309.4 10.2801 14309.4 10.2252C14309.5 10.2389 14309.5 10.2732 14309.6 10.2869C14309.6 10.2183 14309.6 10.1634 14309.6 10.1085C14309.6 10.136 14309.7 10.1771 14309.8 10.1977C14309.8 10.1497 14309.8 10.0124 14309.8 9.91637C14310 9.9301 14310.2 9.98503 14310.4 10.1223C14310.5 10.1703 14310.5 10.2252 14310.6 10.2938C14310.1 10.3762 14309.7 10.4242 14309.2 10.4654L14309.1 10.4722C14308.4 10.5203 14307.7 10.5409 14307 10.486C14307.1 10.4105 14307.2 10.3487 14307.4 10.2732C14307.4 10.2663 14307.4 10.2321 14307.4 10.2183C14307.3 10.184 14307.2 10.1772 14307.1 10.1566C14306.6 10.0468 14306.1 9.90955 14305.7 9.60763C14305.6 9.56645 14305.5 9.5116 14305.5 9.47729C14305.4 9.46357 14305.4 9.5047 14305.4 9.52529C14305.5 9.69683 14305.6 9.85463 14305.7 10.0125C14305.8 10.3075 14306.1 10.5683 14306.3 10.8153C14306.5 10.9937 14306.7 11.1584 14306.9 11.2956C14306.9 11.3368 14307 11.4054 14307.1 11.3848C14307.1 11.378 14307.1 11.3574 14307.1 11.3506C14307.1 11.227 14307 11.1035 14306.9 10.98C14307.6 11.0074 14308.2 11.0349 14308.9 11.0692C14308.9 11.2819 14308.9 11.5358 14309.1 11.7142C14309.1 11.8446 14309 11.9818 14309.1 12.1053C14309.1 12.1671 14309.2 12.2288 14309.2 12.2632C14309.3 12.27 14309.3 12.2357 14309.3 12.2083C14309.4 11.9956 14309.5 11.7828 14309.5 11.5701C14309.6 11.6593 14309.6 11.7554 14309.7 11.8377C14309.7 11.8652 14309.8 11.8583 14309.8 11.824C14309.8 11.625 14309.9 11.4397 14310.1 11.3162C14310.2 11.2064 14310.4 11.131 14310.6 11.0967C14310.6 11.1996 14310.6 11.2888 14310.7 11.3917C14310.5 11.4534 14310.4 11.5907 14310.4 11.7417C14310.3 11.8652 14310.3 12.0092 14310.3 12.1396C14310.2 12.2288 14310.1 12.3936 14310 12.5514C14310 12.6475 14310 12.7435 14310 12.8395C14309.9 12.9493 14309.7 13.0591 14309.7 13.2101C14309.6 13.3473 14309.6 13.5052 14309.6 13.6493C14309.5 13.6973 14309.4 13.8208 14309.4 13.9375C14309.3 14.1639 14309.3 14.4109 14309.3 14.6511C14309 14.9942 14309 15.6186 14309.4 15.948C14309.3 16.0372 14309.2 16.1401 14309.2 16.2773C14309 16.2636 14308.9 16.2773 14308.9 16.3528C14308.8 16.2567 14308.6 16.1676 14308.5 16.147C14308.4 16.1333 14308.4 16.1538 14308.3 16.1812C14308.2 15.9548 14308 15.8108 14307.7 15.8039C14307.7 15.6461 14307.7 15.4814 14307.5 15.3785C14307.5 15.3236 14307.4 15.2824 14307.3 15.2549C14307.3 14.9393 14307.3 14.6305 14307.2 14.3286C14307.1 14.2119 14307.1 14.0953 14307 13.9924C14306.9 13.91 14307 13.7865 14307 13.7041C14307.1 13.5394 14307.4 13.5121 14307.5 13.3336C14307.5 13.1964 14307.5 13.0454 14307.5 12.9013C14307.6 12.7847 14307.6 12.668 14307.6 12.5445C14307.6 12.3936 14307.5 12.2494 14307.4 12.1877C14307.4 12.1877 14307.3 12.1877 14307.3 12.1877C14307.3 12.3867 14307.3 12.6062 14307.2 12.7435C14307.1 12.7572 14307.1 12.7641 14307 12.7915C14307 12.8396 14306.9 12.9013 14306.9 12.9562C14306.9 12.8396 14306.9 12.7435 14307 12.6406C14307 12.5171 14307 12.3867 14307 12.2632C14306.9 12.1877 14306.9 12.1191 14306.8 12.0505C14306.7 11.8789 14306.6 11.721 14306.4 11.6387C14306.3 11.5975 14306.2 11.5632 14306.1 11.577C14306.1 11.6044 14306.1 11.6387 14306.1 11.6593C14306.3 11.776 14306.4 11.9956 14306.4 12.2083C14306.4 12.4416 14306.3 12.6817 14306.3 12.9287C14306.3 13.0454 14306.3 13.162 14306.3 13.2718C14306.2 13.0797 14306.1 12.8807 14306.1 12.6886C14306 12.6131 14306 12.517 14305.9 12.4827C14305.8 12.4415 14305.8 12.3661 14305.7 12.318C14305.5 12.1739 14305.3 12.1603 14305.1 12.2152C14305.1 12.2289 14305.1 12.2426 14305.1 12.2563C14305.1 12.2837 14305.2 12.3043 14305.2 12.3524C14305.3 12.4278 14305.4 12.5445 14305.4 12.6542C14305.4 12.6954 14305.4 12.7366 14305.4 12.7984C14305.4 12.9219 14305.4 13.0248 14305.5 13.1278C14305.5 13.2375 14305.5 13.3473 14305.5 13.4434C14305.6 13.6081 14305.8 13.7247 14306 13.7933C14305.9 14.2394 14305.9 14.6854 14305.8 15.1315C14305.7 15.2344 14305.6 15.447 14305.5 15.5911C14305.4 15.6598 14305.3 15.7284 14305.2 15.8588C14305.2 15.9205 14305.3 15.9617 14305.4 15.9892C14305.3 16.099 14305.3 16.2087 14305.2 16.2773C14305.1 16.3597 14305 16.3734 14304.8 16.394V16.4351C14305 16.5312 14305.2 16.545 14305.4 16.4626C14305.5 16.4214 14305.5 16.3528 14305.6 16.2842C14305.7 16.2636 14305.8 16.2499 14305.8 16.195C14306 16.044 14305.9 15.797 14306 15.6461C14306.1 15.5432 14306.2 15.4196 14306.2 15.2961C14306.3 15.5637 14306.4 15.8176 14306.5 16.0647C14306.7 16.4489 14307 16.8057 14307.4 17.0596C14307.5 17.1282 14307.5 17.2174 14307.6 17.2997C14307.9 17.6017 14308.1 17.9105 14308.3 18.2673C14308.5 18.5623 14308.6 18.8917 14308.6 19.228C14308.6 19.3034 14308.6 19.372 14308.6 19.4475C14308.7 19.4681 14308.7 19.4201 14308.7 19.3995C14309 19.1319 14309.1 18.7819 14309.2 18.4388C14309.6 18.3085 14310.1 18.281 14310.5 18.2948C14310.4 18.4183 14310.4 18.5555 14310.4 18.6927C14310.3 18.7407 14310.2 18.8162 14310.2 18.9397C14310.1 19.0495 14310.1 19.173 14310.2 19.2828C14310.1 19.372 14309.9 19.475 14309.9 19.6259C14309.8 19.7632 14309.8 19.9072 14309.8 20.0445C14309.7 20.1611 14309.7 20.2641 14309.5 20.367C14309.4 20.5386 14309.2 20.6895 14308.9 20.7238C14308.7 20.7512 14308.4 20.6827 14308.2 20.6072C14308 20.5111 14307.9 20.4013 14307.7 20.3738C14307.6 20.3601 14307.5 20.4082 14307.5 20.367C14307.3 20.2847 14307.2 20.2366 14307 20.2984C14306.9 20.3464 14306.8 20.4768 14306.8 20.6072C14306.8 20.6346 14306.8 20.6552 14306.8 20.6758C14306.9 20.6209 14306.9 20.5591 14307 20.5522C14307.1 20.5454 14307.2 20.6072 14307.3 20.6621C14307.2 20.7101 14307.2 20.7513 14307.2 20.7993C14307.2 20.8405 14307.3 20.861 14307.3 20.8885C14307.3 20.9296 14307.2 20.9709 14307.2 21.0189C14307 20.9914 14306.8 20.9914 14306.6 21.0738C14306.5 21.1424 14306.4 21.2728 14306.4 21.4237C14306.4 21.4512 14306.4 21.4855 14306.4 21.4581C14306.6 21.3689 14306.7 21.3414 14306.9 21.362C14307 21.3757 14307.2 21.4238 14307.3 21.4787C14307.3 21.5198 14307.3 21.5747 14307.3 21.6227C14307.2 21.6296 14307 21.712 14306.9 21.8286C14306.9 21.959 14306.8 22.1099 14306.8 22.2677H14306.9C14307 22.1373 14307.1 22.007 14307.3 21.9727C14307.4 21.9658 14307.4 21.9521 14307.5 22.0002C14307.6 22.0825 14307.7 22.1099 14307.8 22.1099C14308 22.1099 14308.2 22.0276 14308.4 21.9041C14308.5 21.8629 14308.5 21.808 14308.6 21.7805C14308.7 21.7257 14308.8 21.6914 14309 21.7051C14309.1 21.7188 14309.2 21.7737 14309.4 21.7599C14309.4 21.7531 14309.5 21.7051 14309.6 21.6571C14309.7 21.5816 14309.8 21.5404 14309.9 21.561C14310.1 21.5816 14310.2 21.6639 14310.3 21.7668C14310.4 21.7943 14310.4 21.8354 14310.5 21.8491C14310.6 21.8903 14310.7 21.9246 14310.8 21.9384C14310.9 21.9521 14311.1 21.9246 14311.2 21.8491C14311.3 21.7805 14311.4 21.7668 14311.5 21.7943C14311.6 21.8217 14311.7 21.8835 14311.7 21.9452C14311.7 21.9384 14311.8 21.9315 14311.8 21.9246C14311.8 21.8011 14311.7 21.6776 14311.7 21.5815C14311.6 21.4649 14311.4 21.41 14311.3 21.3963C14311.2 21.3963 14311.2 21.3414 14311.1 21.3071C14310.9 21.2454 14310.6 21.2727 14310.3 21.1492C14310.4 20.7787 14310.6 20.415 14310.8 20.1199C14311 19.8866 14311.2 19.674 14311.5 19.4612C14311.7 19.2348 14311.9 19.0015 14312.1 18.7476C14312.1 19.0975 14312.3 19.4063 14312.5 19.7151C14312.5 19.77 14312.5 19.8455 14312.6 19.8867C14312.7 19.7632 14312.7 19.6259 14312.8 19.4887C14312.9 19.324 14312.9 19.1456 14312.9 18.9741C14313.1 18.8711 14313.3 18.7682 14313.5 18.631C14313.6 18.6996 14313.8 18.6927 14313.9 18.6378C14314.2 18.5418 14314.5 18.3633 14314.7 18.1712C14314.7 18.1575 14314.7 18.13 14314.8 18.1506C14314.9 18.2124 14315.1 18.2055 14315.3 18.1506C14315.3 18.3221 14315.3 18.5074 14315.4 18.6584C14315.5 18.8779 14315.7 19.0152 14316 19.0975C14316 19.2416 14316.1 19.372 14316.2 19.4338C14316.5 19.5504 14316.7 19.5505 14317 19.5573C14317 19.6877 14317.1 19.7563 14317.3 19.7906C14317.1 19.8592 14317 20.0033 14317 20.168C14316.9 20.1749 14316.8 20.1817 14316.8 20.2229C14316.7 20.2709 14316.6 20.3738 14316.6 20.4768C14316.3 20.4836 14316 20.5043 14315.8 20.6278C14315.7 20.6621 14315.7 20.6347 14315.6 20.6278C14315.3 20.566 14315.1 20.4356 14314.9 20.216C14314.8 20.1337 14314.7 20.0514 14314.6 20.0102C14314.6 19.9828 14314.5 19.9004 14314.4 19.8935C14314.3 19.8798 14314.3 19.9347 14314.2 19.9896C14314.1 19.9347 14313.9 19.9279 14313.8 19.9965C14313.6 20.0651 14313.5 20.2092 14313.5 20.3533C14313.5 20.4013 14313.6 20.3739 14313.6 20.3602C14313.7 20.2984 14313.8 20.2366 14313.9 20.2298C14314 20.2229 14314 20.2709 14314.1 20.319C14314.1 20.3807 14314.1 20.4425 14314.1 20.4768C14314.3 20.5797 14314.5 20.6072 14314.6 20.6483C14314.8 20.7032 14315 20.8199 14315 20.9845C14314.9 21.0257 14314.6 21.012 14314.5 20.9297C14314.4 20.8954 14314.3 20.8268 14314.3 20.7925C14314.1 20.7239 14313.9 20.7307 14313.8 20.813C14313.6 20.7512 14313.4 20.8268 14313.3 20.9434C14313.2 21.0463 14313.1 21.1973 14313.1 21.3551C14313.1 21.362 14313.1 21.362 14313.1 21.3689C14313.2 21.2659 14313.4 21.1287 14313.6 21.1767C14313.6 21.211 14313.6 21.2522 14313.6 21.2865C14313.7 21.362 14313.8 21.4374 14314 21.5129C14313.9 21.5472 14313.8 21.5884 14313.7 21.6707C14313.6 21.7874 14313.7 21.9384 14313.7 22.0619C14313.7 22.0894 14313.7 22.1305 14313.7 22.0962C14313.8 22.0344 14313.8 21.9658 14313.9 21.9246C14314 21.856 14314.1 21.8423 14314.3 21.8835C14314.3 21.9041 14314.3 21.959 14314.4 21.959C14314.5 21.959 14314.5 21.8629 14314.6 21.8286C14314.8 21.6777 14315.1 21.6364 14315.4 21.6021C14315.6 21.5815 14315.8 21.5335 14316 21.5747C14316.1 21.5884 14316.1 21.6228 14316.2 21.6502C14316.3 21.5953 14316.5 21.5198 14316.6 21.5404C14316.7 21.5473 14316.8 21.6296 14316.9 21.6707C14317.1 21.7394 14317.2 21.8423 14317.3 21.911C14317.4 21.959 14317.6 21.9727 14317.7 21.9521C14317.8 21.9384 14317.8 21.8629 14317.9 21.8423C14318.1 21.8148 14318.2 21.8972 14318.3 22.007C14318.3 22.0207 14318.4 22.0619 14318.4 22.0413C14318.4 21.8972 14318.4 21.7463 14318.3 21.6571C14318.1 21.561 14318 21.5198 14317.8 21.4855C14317.7 21.4512 14317.6 21.3757 14317.6 21.3345C14317.4 21.3071 14317.2 21.3277 14317 21.2796C14317.5 21.1355 14318 20.9091 14318.4 20.5866C14318.8 20.2778 14319.2 19.8798 14319.4 19.4475C14319.6 19.5093 14319.8 19.6054 14320.1 19.6534C14320.2 19.6946 14320.3 19.7563 14320.4 19.7701C14320.4 19.523 14320.4 19.2486 14320.2 19.0839C14320 18.9261 14319.7 18.8848 14319.5 18.8574C14319.2 18.7613 14319 18.6447 14318.7 18.5418C14318.6 18.528 14318.6 18.5143 14318.6 18.48C14318.4 18.2879 14318.4 18.0134 14318.5 17.7939C14318.5 17.6498 14318.7 17.5742 14318.8 17.4782C14318.9 17.4027 14318.9 17.2998 14319 17.1969C14319.2 17.2106 14319.3 17.3615 14319.5 17.3821C14319.6 17.4987 14319.7 17.5879 14319.8 17.6566C14320 17.7664 14320.2 17.8349 14320.5 17.8006C14320.7 18.0202 14321.1 18.034 14321.5 17.9311C14321.7 18.1232 14322 18.1918 14322.3 18.0957C14322.3 18.0889 14322.3 18.0545 14322.4 18.082C14322.5 18.1849 14322.7 18.2124 14322.9 18.1849C14323 18.3222 14323.1 18.4457 14323.2 18.5143C14323.2 18.5898 14323.2 18.6721 14323.2 18.7544C14323.2 18.9191 14323.2 19.0907 14323.3 19.2417C14323.2 19.4132 14323.2 19.6053 14323.3 19.7837C14323.2 19.8523 14323.1 19.9278 14323 20.0445C14323 20.1405 14323 20.2435 14323.1 20.3327C14323.1 20.3602 14323.1 20.3807 14323 20.4013C14322.9 20.566 14322.8 20.717 14322.6 20.7993C14322.5 20.8611 14322.3 20.8542 14322.1 20.8061C14322 20.7718 14321.9 20.6963 14321.8 20.6346C14321.7 20.5797 14321.6 20.5385 14321.6 20.4699C14321.4 20.3464 14321.3 20.2229 14321.2 20.0994C14321.1 20.0445 14321.1 20.017 14321 20.0445C14320.9 20.0582 14320.9 20.1062 14320.9 20.1406C14320.7 20.1337 14320.6 20.1269 14320.5 20.1886C14320.4 20.2435 14320.3 20.3808 14320.3 20.5249C14320.3 20.5454 14320.3 20.5591 14320.3 20.566C14320.4 20.5385 14320.4 20.4974 14320.4 20.4768C14320.6 20.4287 14320.7 20.4631 14320.8 20.518C14320.8 20.5729 14320.8 20.6415 14320.8 20.6895C14320.9 20.7307 14321 20.7582 14321.1 20.7925C14320.9 20.7993 14320.8 20.7787 14320.7 20.8336C14320.6 20.8611 14320.6 20.9228 14320.5 20.9434C14320.4 20.9915 14320.3 21.0532 14320.2 21.1698C14320.1 21.2659 14320 21.3963 14320.1 21.5267C14320.1 21.5335 14320.1 21.5404 14320.1 21.5404C14320.1 21.4786 14320.2 21.4032 14320.3 21.3689C14320.4 21.3071 14320.5 21.3276 14320.6 21.3276C14320.6 21.3482 14320.6 21.3963 14320.7 21.3895C14320.9 21.4032 14321.2 21.41 14321.4 21.4237C14321.4 21.4717 14321.3 21.4718 14321.2 21.5267C14321.2 21.5747 14321.1 21.6159 14321.1 21.6982C14321 21.7188 14320.9 21.7394 14320.9 21.7874C14320.7 21.8835 14320.7 22.0482 14320.6 22.206C14320.6 22.2334 14320.6 22.2952 14320.6 22.2883C14320.7 22.2266 14320.9 22.1648 14321 22.1236C14321.1 22.0619 14321.3 22.007 14321.5 22.0688C14321.6 21.9933 14321.7 21.9178 14321.8 21.8423C14321.9 21.8011 14321.9 21.7463 14322 21.7188C14322.2 21.6708 14322.3 21.6364 14322.5 21.6845C14322.5 21.6982 14322.6 21.7531 14322.6 21.7805C14322.8 21.856 14323 21.856 14323.2 21.7805C14323.3 21.7051 14323.5 21.6502 14323.6 21.6365C14323.8 21.6159 14324 21.657 14324.2 21.7462C14324.3 21.8217 14324.4 21.9178 14324.6 21.9864C14324.6 21.9727 14324.7 21.9041 14324.7 21.8972C14324.9 21.8629 14325.1 21.9315 14325.3 22.0688C14325.3 22.0962 14325.3 22.1511 14325.3 22.0962C14325.3 21.8423 14325.2 21.5747 14324.9 21.5129C14324.8 21.5061 14324.8 21.4306 14324.7 21.41C14324.5 21.3414 14324.4 21.2797 14324.2 21.2179C14324.2 21.1013 14324.1 20.9915 14324 20.8611C14324 20.7856 14324.1 20.7238 14324.1 20.6621C14324.2 20.5729 14324.2 20.4836 14324.2 20.3944C14324.3 19.9072 14324.4 19.42 14324.4 18.9191C14324.4 18.576 14324.3 18.233 14324.2 17.9104C14324.4 17.9997 14324.5 18.1437 14324.7 18.2467C14324.8 18.3702 14325.1 18.432 14325.3 18.3496C14325.3 18.3428 14325.3 18.2947 14325.3 18.2673C14325.2 18.13 14325.1 18.0409 14325 17.9448C14324.9 17.7938 14324.7 17.6703 14324.5 17.5468C14323.9 17.1762 14323.3 16.8537 14322.7 16.5175C14323.2 16.4763 14323.6 16.3734 14324 16.2087C14324.6 16.0029 14325.1 15.701 14325.5 15.2755C14325.8 15.0148 14326 14.706 14326.1 14.3561C14326.2 13.9718 14326.1 13.5532 14325.9 13.2032C14326 12.8052 14326.2 12.4004 14326.3 11.9955C14326.5 12.2563 14326.7 12.4759 14326.9 12.6269C14327 12.6818 14327.2 12.7435 14327.3 12.7709V12.7161C14327.1 12.4279 14327 12.1945 14327 11.9681ZM14324.5 13.6287C14324.3 13.711 14324 13.7316 14323.8 13.6904C14323.7 13.6629 14323.6 13.6081 14323.5 13.4846C14323.5 13.416 14323.6 13.3542 14323.6 13.3062C14323.7 13.1758 14324 13.1347 14324.1 13.1621C14324.3 13.1895 14324.5 13.2925 14324.7 13.416C14324.7 13.5258 14324.6 13.5944 14324.5 13.6287Z" fill="black"/>
<path d="M14320.4 7.89905C14320.3 8.02942 14320.2 8.13234 14320 8.23527C14319.5 8.60581 14319 8.96261 14318.5 9.33315C14317.9 9.7929 14317.3 10.2664 14316.7 10.8153C14316.5 11.0281 14316.3 11.2614 14316.2 11.5084C14316 11.776 14315.8 12.0711 14315.7 12.3867C14315.6 12.7298 14315.4 13.066 14315.2 13.3611C14315.1 13.5257 14315 13.6836 14314.8 13.7796C14315 13.5257 14315 13.1895 14315 12.867C14315 12.5582 14315 12.2426 14315.1 11.9338C14315.1 11.6182 14315.3 11.3574 14315.6 11.1447C14317.1 9.9027 14318.7 8.83912 14320.4 7.89905Z" fill="#FE0000" stroke="#FE0000" stroke-width="0.003775" stroke-miterlimit="10"/>
<path d="M14312.9 8.20094C14313.1 8.14604 14313.3 8.1186 14313.4 7.95392C14313.4 8.16664 14313.4 8.37939 14313.4 8.59211C14313.4 8.62642 14313.5 8.61272 14313.5 8.61958C14313.3 8.75682 14313.1 8.88031 14312.9 9.02441C14312.9 9.14792 14312.7 9.29202 14312.8 9.44984C14312.5 9.59394 14312.2 9.59392 14311.9 9.51844C14311.9 9.51158 14311.8 9.49786 14311.8 9.52531C14311.8 9.55276 14311.8 9.57331 14311.8 9.58017C14311.9 9.60076 14312 9.60766 14312 9.62139C14312 9.71059 14311.9 9.79293 14311.9 9.87527C14311.8 9.90272 14311.9 9.92326 14311.9 9.9164C14312 9.92326 14312.1 9.97821 14312.2 10.0606C14312.1 10.1223 14312 10.1841 14311.9 10.2458C14311.9 10.2664 14311.9 10.2801 14311.9 10.3144C14311.9 10.3282 14312 10.335 14312 10.3418C14312.1 10.3693 14312.2 10.4379 14312.3 10.5409C14312.2 10.5546 14312.1 10.5477 14312 10.5683C14311.9 10.5752 14312 10.6095 14312 10.6232C14312 10.7398 14312 10.8634 14312.1 10.98C14312 10.9251 14311.9 10.8496 14311.8 10.7947C14311.8 10.7741 14311.7 10.7948 14311.7 10.8153C14311.7 10.9183 14311.6 11.028 14311.5 11.131C14311.5 11.0623 14311.5 10.98 14311.4 10.9114C14311.4 10.8908 14311.4 10.9251 14311.4 10.9388C14311.3 11.0417 14311.2 11.1447 14311.1 11.2408C14311.1 11.2408 14311.1 11.2408 14311.1 11.2408C14311 10.932 14310.8 10.6232 14310.6 10.3144C14310.6 10.1909 14310.5 10.0742 14310.4 9.99874C14310.2 9.87522 14309.9 9.82041 14309.7 9.82041C14309.5 9.95764 14309.3 10.0743 14309.1 10.1429C14309 10.1772 14308.9 10.2046 14308.8 10.1909C14308.8 10.0605 14308.7 9.93701 14308.6 9.86153C14308.7 9.8135 14308.8 9.7723 14308.8 9.65564C14308.8 9.5733 14308.9 9.49784 14308.9 9.4155C14308.9 9.4155 14308.8 9.4155 14308.8 9.4155C14308.8 9.51156 14308.8 9.60766 14308.7 9.70372C14308.7 9.75862 14308.6 9.79982 14308.5 9.82041C14308.5 9.79296 14308.4 9.75859 14308.3 9.75859C14307.9 9.70369 14307.5 9.78609 14307.1 9.81354C14307.1 9.7312 14307.2 9.64879 14307.3 9.58017C14307.5 9.40863 14307.8 9.29196 14308 9.22334C14308.3 9.15473 14308.6 9.12733 14308.8 9.10675C14308.9 9.10675 14308.9 9.09302 14309 9.09988C14309.1 9.20967 14309.1 9.31946 14309.2 9.44984C14309.2 9.56649 14309.1 9.66937 14309 9.74485C14309.1 9.75171 14309.1 9.77234 14309.1 9.78606C14309.2 9.71744 14309.3 9.58021 14309.2 9.44984C14309.2 9.31946 14309.1 9.20279 14309 9.08614C14309.2 9.07928 14309.3 9.07925 14309.4 9.05867C14309.4 8.94888 14309.5 8.83227 14309.5 8.75679C14309.7 8.61955 14309.9 8.57835 14310.1 8.55776C14310.7 8.58521 14311.2 8.61266 14311.7 8.6401C14311.7 8.75676 14311.7 8.85974 14311.6 8.95581C14311.6 8.95581 14311.6 8.96947 14311.6 8.97633C14311.7 8.88712 14311.8 8.76362 14311.8 8.64697C14311.8 8.64011 14311.8 8.65382 14311.9 8.63324C14312 8.46169 14312.2 8.37937 14312.4 8.31762C14312.6 8.27645 14312.7 8.26269 14312.9 8.20094Z" fill="#FE0000" stroke="#FE0000" stroke-width="0.003775" stroke-miterlimit="10"/>
<path d="M14319.4 8.72244C14319.7 8.50286 14320 8.29015 14320.3 8.04999C14320.2 8.32446 14320.1 8.6264 14320.1 8.92832C14320.1 9.1136 14320.2 9.29885 14320.3 9.42923C14320.4 9.54588 14320.6 9.60079 14320.7 9.62138C14320.1 9.88899 14319.4 10.136 14318.8 10.3968C14318.1 10.6712 14317.4 10.9457 14316.7 11.2476C14316.5 11.3163 14316.4 11.378 14316.2 11.4534C14316.6 10.9388 14317.1 10.4928 14317.6 10.0811C14318.2 9.6076 14318.8 9.16159 14319.4 8.72244Z" fill="#FE0000" stroke="#FE0000" stroke-width="0.003775" stroke-miterlimit="10"/>
<path d="M14322.5 9.12729C14323.1 8.86654 14323.6 8.59892 14324.2 8.34503C14323.8 8.64009 14323.4 8.9557 14323.1 9.33997C14322.9 9.5321 14322.8 9.75853 14322.8 10.0124C14322.7 10.2114 14322.8 10.4035 14323 10.5202C14323.1 10.6025 14323.2 10.6437 14323.3 10.7055C14323 10.7261 14322.7 10.7672 14322.5 10.8084C14321.7 10.9182 14321 11.0486 14320.2 11.179C14319.4 11.3231 14318.6 11.474 14317.8 11.6387C14317.5 11.6936 14317.2 11.7553 14317 11.824C14317 11.8308 14316.9 11.8446 14316.9 11.8514C14316.9 11.824 14317 11.8239 14317 11.8102C14317.6 11.5083 14318.1 11.2338 14318.7 10.9525C14320 10.3349 14321.2 9.73114 14322.5 9.12729Z" fill="#FE0000" stroke="#FE0000" stroke-width="0.003775" stroke-miterlimit="10"/>
<path d="M14312.9 8.52348C14313 8.47544 14313 8.40682 14313.1 8.35193C14313.1 8.35879 14313.1 8.37246 14313.1 8.37932C14313 8.4548 14313 8.50285 14312.9 8.57147C14312.8 8.66068 14312.6 8.76362 14312.5 8.84596C14312.3 8.90772 14312.2 8.9626 14312.1 9.09298C14312 9.13415 14312.1 9.23021 14312.1 9.25766C14312.2 9.31941 14312.3 9.2988 14312.4 9.31939C14312.4 9.31939 14312.4 9.35375 14312.4 9.36747C14312.3 9.36061 14312.2 9.34687 14312 9.27139C14312 9.2165 14312 9.11352 14312.1 9.05177C14312.2 8.92825 14312.3 8.86651 14312.5 8.80475C14312.5 8.75672 14312.6 8.69497 14312.7 8.64007C14312.7 8.61263 14312.8 8.59204 14312.8 8.55773C14312.7 8.55773 14312.7 8.53717 14312.6 8.57834C14312.6 8.59206 14312.5 8.65386 14312.5 8.61955C14312.5 8.57838 14312.6 8.56459 14312.6 8.55087C14312.7 8.50283 14312.8 8.50975 14312.9 8.52348Z" fill="black"/>
<path d="M14323.1 8.77735C14323.1 8.76363 14323.2 8.77736 14323.1 8.79109C14323.1 8.81853 14323.1 8.82535 14323 8.83221C14321.8 9.42233 14320.5 10.0056 14319.3 10.6025C14318.7 10.9045 14318 11.2064 14317.4 11.5221C14317.2 11.625 14317 11.7279 14316.8 11.8514C14316.8 11.872 14316.7 11.8857 14316.7 11.9269C14316.8 11.9475 14316.9 11.9063 14316.9 11.8926C14317.8 11.6799 14318.6 11.5289 14319.4 11.3711C14320.6 11.1515 14321.8 10.9525 14323 10.7878C14323 10.7741 14323.1 10.7672 14323.1 10.7741C14323.1 10.781 14323.1 10.7947 14323 10.8016C14323 10.7947 14323 10.8153 14322.9 10.8222C14321.5 11.1584 14320 11.5083 14318.6 11.8926C14318 12.0504 14317.4 12.2014 14316.8 12.4003C14316.7 12.4552 14316.5 12.5033 14316.4 12.5925C14316.4 12.5994 14316.4 12.6611 14316.4 12.6542C14317.2 12.6405 14318 12.7229 14318.8 12.8326C14319.2 12.9013 14319.7 12.9836 14320.2 13.0865C14320.5 13.1757 14320.9 13.2719 14321.3 13.4091C14321.5 13.4709 14321.6 13.5394 14321.8 13.6355C14321.1 13.4914 14320.4 13.3885 14319.7 13.2924C14318.9 13.1895 14318.1 13.1003 14317.3 13.0729C14317 13.0729 14316.6 13.0523 14316.3 13.1346L14316.3 13.1483C14316.3 13.1552 14316.3 13.1689 14316.3 13.1757C14316.6 13.2649 14316.9 13.4228 14317.2 13.5669C14317.8 13.9237 14318.4 14.3217 14319 14.7471C14319.3 14.953 14319.6 15.1519 14319.9 15.4058C14319.6 15.2206 14319.3 15.0765 14319 14.9255C14318.3 14.6099 14317.6 14.3217 14316.9 14.0609C14316.6 13.9512 14316.3 13.8345 14316 13.7659C14316 13.7591 14315.9 13.7384 14315.9 13.7933C14315.9 13.8345 14316 13.8551 14316 13.8894C14316.2 14.0678 14316.4 14.2874 14316.6 14.5138C14316.9 14.802 14317.1 15.1108 14317.3 15.4333C14317.5 15.7352 14317.7 16.0372 14317.8 16.3803C14317.3 15.8382 14316.9 15.3304 14316.4 14.8295C14316.2 14.6167 14315.9 14.3971 14315.7 14.1981C14315.6 14.1501 14315.6 14.0815 14315.5 14.0541C14315.5 14.0404 14315.4 14.0678 14315.4 14.0884C14315.5 14.2257 14315.5 14.3835 14315.6 14.5345C14315.7 15.1452 14315.8 15.7696 14315.9 16.394C14315.9 16.5861 14315.9 16.7782 14315.9 16.9704C14315.8 16.5724 14315.7 16.1881 14315.5 15.797C14315.4 15.3647 14315.3 14.9255 14315.1 14.5001C14315.1 14.4658 14315 14.4041 14315 14.4384C14314.9 14.4933 14314.9 14.5756 14314.9 14.6511C14314.7 14.9461 14314.6 15.2549 14314.5 15.5569C14314.3 16.0303 14314.2 16.5038 14314.1 16.9978C14314 16.4077 14314.1 15.8175 14314.2 15.2343C14314.2 15.0902 14314.2 14.9392 14314.3 14.8089C14314.3 14.7677 14314.4 14.7814 14314.4 14.7265C14314.3 14.6991 14314.2 14.7609 14314.2 14.7815C14314 14.9324 14313.8 15.1314 14313.6 15.3372C14313.3 15.7009 14313 16.0852 14312.7 16.5038C14312.8 16.195 14313 15.8999 14313.1 15.6117C14313.2 15.2961 14313.4 14.9942 14313.6 14.6854C14313.6 14.6648 14313.6 14.6237 14313.5 14.6237C14313.5 14.6237 14313.4 14.6442 14313.3 14.6648C14313 14.7265 14312.7 14.8364 14312.5 14.953C14312.1 15.1246 14311.8 15.3167 14311.4 15.5363C14311.1 15.7147 14310.9 15.8931 14310.6 16.1126C14310.8 15.8656 14310.9 15.6529 14311.1 15.4539C14311.4 15.1657 14311.7 14.905 14312.1 14.6785C14312.3 14.507 14312.6 14.3423 14312.9 14.26C14313.5 14.1364 14314.1 14.0267 14314.6 13.91C14314.8 13.862 14314.9 13.8208 14315 13.7385C14315.2 13.5532 14315.3 13.2993 14315.5 13.0385C14315.6 12.8327 14315.7 12.6268 14315.7 12.4141C14315.8 12.1122 14316 11.8377 14316.2 11.577C14316.2 11.5152 14316.3 11.4809 14316.4 11.426C14317 11.1447 14317.6 10.9045 14318.2 10.6644C14319.1 10.3419 14319.9 10.0331 14320.7 9.71055C14320.8 9.66252 14320.9 9.60757 14321.1 9.57326C14321.6 9.38113 14322.2 9.14099 14322.8 8.91455C14322.9 8.87338 14323 8.83224 14323.1 8.77735Z" fill="#FE0000" stroke="#FE0000" stroke-width="0.003775" stroke-miterlimit="10"/>
<path d="M14309.7 9.18214C14309.8 9.14784 14310 9.12042 14310.1 9.12728C14310.2 9.12728 14310.2 9.16155 14310.3 9.17528C14310.4 9.19586 14310.5 9.21642 14310.7 9.23701C14310.7 9.2576 14310.8 9.29194 14310.9 9.27135C14311.1 9.2439 14311.2 9.21641 14311.4 9.14093C14311.4 9.1478 14311.4 9.17528 14311.4 9.18214C14311.2 9.27135 14311.1 9.29191 14310.9 9.32622C14310.8 9.3468 14310.7 9.2851 14310.7 9.29883C14310.6 9.42234 14310.5 9.54586 14310.3 9.55958C14310.1 9.56644 14309.9 9.38801 14309.9 9.19588C14309.8 9.20274 14309.8 9.21642 14309.7 9.23014C14309.7 9.22328 14309.7 9.19587 14309.7 9.18214Z" fill="black"/>
<path d="M14310 9.18909C14310 9.18909 14310 9.18223 14310.1 9.19596C14310.1 9.27144 14310.1 9.36059 14310.2 9.3949C14310.3 9.4292 14310.3 9.4018 14310.4 9.35377C14310.4 9.32632 14310.5 9.28515 14310.5 9.26456C14310.5 9.26456 14310.6 9.2783 14310.6 9.28517C14310.6 9.38123 14310.5 9.46354 14310.4 9.50471C14310.2 9.55274 14310 9.38122 14310 9.18909Z" fill="#FE0000" stroke="#FE0000" stroke-width="0.003775" stroke-miterlimit="10"/>
<path d="M14324.4 11.824C14325.3 11.028 14326.1 10.2114 14326.8 9.3125C14326.8 9.7448 14326.8 10.1702 14326.8 10.6025C14326.8 11.0486 14326.8 11.4946 14326.9 11.9338C14327 12.1602 14327 12.3798 14327.1 12.5925C14326.8 12.4415 14326.4 12.1739 14326.3 11.8308C14326.3 11.6318 14326.4 11.426 14326.4 11.2132C14326.4 11.0623 14326.4 10.9114 14326.4 10.7604C14326.4 10.7604 14326.4 10.7672 14326.4 10.7672C14326.3 11.0005 14326.3 11.2338 14326.3 11.4671C14326.3 11.5975 14326.3 11.7348 14326.2 11.8514C14326.1 12.2494 14325.9 12.6474 14325.8 13.0523C14325.7 12.8533 14325.5 12.6955 14325.3 12.5651C14325.4 12.3112 14325.5 12.0573 14325.7 11.8102C14325.8 11.5014 14325.9 11.1858 14326 10.877C14326 10.8496 14326 10.7947 14326 10.8084C14325.9 10.8427 14325.9 10.8839 14325.9 10.9251C14325.8 11.2064 14325.7 11.4809 14325.6 11.7622C14325.6 11.776 14325.6 11.8034 14325.6 11.8034C14325.2 11.8445 14324.8 11.9063 14324.4 11.824Z" fill="#FE0000" stroke="#FE0000" stroke-width="0.003775" stroke-miterlimit="10"/>
<path d="M14312.1 9.62825C14312.3 9.6557 14312.6 9.62135 14312.8 9.5047C14312.9 9.6488 14313 9.79977 14313.1 9.94387C14313.3 10.0262 14313.6 10.1223 14313.7 10.3487C14313.6 10.3487 14313.4 10.335 14313.3 10.3762C14313.2 10.3968 14313.1 10.4516 14313.1 10.5477C14313.1 10.6095 14313.1 10.6643 14313.2 10.6918C14313.3 10.7604 14313.4 10.7879 14313.5 10.8428C14313.7 10.98 14313.8 11.1859 14313.8 11.4054C14313.6 11.3711 14313.4 11.227 14313.2 11.2064C14313.2 11.1927 14313 11.2476 14313 11.3368C14312.9 11.4741 14312.9 11.6662 14313 11.7897C14313.1 11.8858 14313.2 11.9406 14313.3 11.9749C14313.5 12.0779 14313.6 12.3386 14313.7 12.5788C14313.5 12.4827 14313.3 12.3798 14313.1 12.3318C14313 12.3112 14312.9 12.3044 14312.9 12.3524C14312.8 12.3936 14312.8 12.4759 14312.8 12.5445C14312.8 12.6681 14312.8 12.7984 14312.8 12.9014C14312.9 12.9768 14313 13.0317 14313.1 13.066C14313.2 13.1209 14313.3 13.1827 14313.4 13.2993C14313.5 13.3542 14313.5 13.4229 14313.5 13.4915C14313.3 13.4503 14313.2 13.416 14313 13.464C14312.9 13.5052 14312.8 13.6218 14312.8 13.7454C14312.9 13.8963 14312.9 14.0472 14313 14.1982C14312.7 14.2394 14312.5 14.3629 14312.3 14.4795C14312.3 14.4658 14312.2 14.4246 14312.2 14.3903C14312.1 14.26 14312.1 14.1227 14312 13.9786C14311.8 13.5669 14311.7 13.1346 14311.6 12.6955C14311.6 12.2357 14311.6 11.7622 14311.6 11.2888C14311.6 11.2407 14311.6 11.1859 14311.6 11.1378C14311.7 11.0486 14311.7 10.9663 14311.8 10.8771C14311.9 10.932 14312 11.0212 14312.1 11.0898C14312.2 11.1104 14312.2 11.0898 14312.2 11.0624C14312.2 10.9183 14312.1 10.7742 14312.1 10.6301C14312.2 10.6232 14312.3 10.6232 14312.4 10.6026C14312.3 10.4448 14312.2 10.3419 14312 10.287C14312.1 10.2183 14312.2 10.1703 14312.3 10.1085C14312.3 10.0948 14312.3 10.0674 14312.3 10.0468C14312.2 9.95761 14312.1 9.88212 14312 9.8684C14312 9.77919 14312.1 9.70373 14312.1 9.62825Z" fill="#FE0000" stroke="#FE0000" stroke-width="0.003775" stroke-miterlimit="10"/>
<path d="M14305.5 9.58014C14305.5 9.60072 14305.6 9.62138 14305.6 9.64882C14305.9 9.82037 14306.2 9.95071 14306.5 10.0399C14306.7 10.1223 14307 10.1772 14307.3 10.2321C14307 10.3281 14306.8 10.4653 14306.6 10.5271C14306.6 10.678 14306.8 10.8015 14306.8 10.9525C14306.9 11.0623 14306.9 11.1653 14307 11.2751C14306.9 11.2202 14306.8 11.1447 14306.7 11.0761C14306.5 10.9114 14306.3 10.7192 14306.1 10.5271C14305.9 10.2457 14305.6 9.93696 14305.5 9.58014Z" fill="#FE0000" stroke="#FE0000" stroke-width="0.003775" stroke-miterlimit="10"/>
<path d="M14309.6 10.0056C14309.6 9.97811 14309.6 9.95067 14309.7 9.92322C14309.7 9.97811 14309.7 10.033 14309.7 10.0879C14309.6 10.0536 14309.6 10.0261 14309.6 10.0056Z" fill="#FE0000" stroke="#FE0000" stroke-width="0.003775" stroke-miterlimit="10"/>
<path d="M14309.4 10.1085C14309.4 10.0811 14309.5 10.0674 14309.5 10.0468C14309.5 10.088 14309.5 10.1292 14309.5 10.1635C14309.5 10.1498 14309.4 10.136 14309.4 10.1085Z" fill="#FE0000" stroke="#FE0000" stroke-width="0.003775" stroke-miterlimit="10"/>
<path d="M14309.2 10.1977C14309.3 10.1771 14309.3 10.1566 14309.3 10.136C14309.3 10.1772 14309.3 10.2183 14309.3 10.2595C14309.3 10.2595 14309.2 10.2183 14309.2 10.1977Z" fill="#FE0000" stroke="#FE0000" stroke-width="0.003775" stroke-miterlimit="10"/>
<path d="M14309 10.2526C14309.1 10.2389 14309.1 10.2252 14309.2 10.2115C14309.2 10.2527 14309.1 10.2939 14309.1 10.335C14309.1 10.3282 14309 10.2801 14309 10.2526Z" fill="#FE0000" stroke="#FE0000" stroke-width="0.003775" stroke-miterlimit="10"/>
<path d="M14310.5 10.335C14310.6 10.335 14310.6 10.3143 14310.6 10.3486C14310.7 10.4653 14310.7 10.5819 14310.8 10.6986C14310.7 10.6917 14310.7 10.6917 14310.6 10.6917C14310.6 10.6368 14310.5 10.5751 14310.5 10.5339C14310.5 10.5819 14310.4 10.6437 14310.4 10.6986C14310.4 10.678 14310.3 10.5888 14310.2 10.5888C14310.2 10.6437 14310.2 10.7054 14310.2 10.7672C14310.1 10.7329 14310.1 10.6643 14310 10.6368L14310 10.6437C14310 10.7123 14310 10.781 14310 10.8496C14309.9 10.8016 14309.9 10.7329 14309.8 10.6781C14309.8 10.6712 14309.8 10.7055 14309.8 10.726C14309.7 10.7947 14309.7 10.8565 14309.6 10.9251C14309.6 10.877 14309.6 10.8152 14309.6 10.7809H14309.5C14309.5 10.8289 14309.5 10.8976 14309.5 10.9593C14309.4 10.9593 14309.4 10.9593 14309.4 10.9593C14309.4 10.9182 14309.4 10.8359 14309.3 10.829C14309.3 10.8702 14309.2 10.9182 14309.2 10.9593C14309.1 10.9662 14309.1 10.8221 14309 10.8084C14309 10.8564 14309 10.925 14309 10.9799C14308.3 10.9456 14307.6 10.9182 14306.9 10.8839C14306.8 10.7741 14306.7 10.678 14306.7 10.5614C14306.7 10.5476 14306.8 10.5202 14306.8 10.5133C14307.5 10.5682 14308.2 10.5613 14308.8 10.527C14309.4 10.4927 14310 10.4379 14310.5 10.335Z" fill="#FE0000" stroke="#FE0000" stroke-width="0.003775" stroke-miterlimit="10"/>
<path d="M14310.5 10.6369C14310.5 10.6575 14310.5 10.6781 14310.5 10.7055C14310.5 10.7124 14310.5 10.7124 14310.5 10.7192C14310.5 10.6918 14310.5 10.6643 14310.5 10.6369Z" fill="#FE0000" stroke="#FE0000" stroke-width="0.003775" stroke-miterlimit="10"/>
<path d="M14310.3 10.6575C14310.3 10.6849 14310.3 10.7124 14310.4 10.7398C14310.3 10.7535 14310.3 10.7672 14310.2 10.7809C14310.2 10.7398 14310.3 10.6986 14310.3 10.6575Z" fill="#FE0000" stroke="#FE0000" stroke-width="0.003775" stroke-miterlimit="10"/>
<path d="M14310.1 10.7261C14310.1 10.7535 14310.1 10.7878 14310.1 10.8153C14310.1 10.8359 14310.1 10.8496 14310 10.8701C14310 10.8221 14310 10.7741 14310.1 10.7261Z" fill="#FE0000" stroke="#FE0000" stroke-width="0.003775" stroke-miterlimit="10"/>
<path d="M14310.1 10.9182C14310.3 10.8221 14310.5 10.7329 14310.8 10.7535C14310.8 10.7604 14310.8 10.7535 14310.8 10.7878C14310.9 10.8564 14310.9 10.9319 14310.9 11.0006C14310.8 11.0006 14310.7 10.9937 14310.5 11.0006C14310.2 11.0692 14309.8 11.3299 14309.7 11.7073C14309.6 11.625 14309.6 11.5083 14309.5 11.426C14309.5 11.426 14309.5 11.4329 14309.5 11.4329C14309.4 11.673 14309.3 11.9131 14309.2 12.1533C14309.2 12.167 14309.2 12.1328 14309.2 12.1259C14309.1 12.0298 14309.1 11.8995 14309.1 11.7828C14309.1 11.7348 14309.2 11.6798 14309.1 11.6455C14309 11.474 14309 11.2475 14308.9 11.0485C14309.2 11.0417 14309.4 11.0348 14309.7 11.0348C14309.8 11.0279 14309.9 10.9662 14310.1 10.9182Z" fill="#FE0000" stroke="#FE0000" stroke-width="0.003775" stroke-miterlimit="10"/>
<path d="M14309.8 10.7604C14309.8 10.8016 14309.9 10.8496 14309.9 10.9045C14309.9 10.9388 14309.8 10.9731 14309.7 10.9662C14309.7 10.8976 14309.8 10.8291 14309.8 10.7604Z" fill="#FE0000" stroke="#FE0000" stroke-width="0.003775" stroke-miterlimit="10"/>
<path d="M14320 11.5839C14321 11.3163 14322.1 11.0624 14323.2 10.8085C14322.7 11.0212 14322.2 11.3369 14321.9 11.7691C14321.7 12.0573 14321.5 12.4141 14321.5 12.7847C14321.5 13.0592 14321.6 13.3268 14321.7 13.5532C14321.5 13.4023 14321.2 13.3131 14320.9 13.2239C14320.1 13.0043 14319.4 12.8601 14318.6 12.7572C14317.9 12.668 14317.2 12.5994 14316.5 12.6063C14316.8 12.4759 14317.1 12.3936 14317.3 12.3044C14318.2 12.0299 14319.1 11.8034 14320 11.5839Z" fill="#FE0000" stroke="#FE0000" stroke-width="0.003775" stroke-miterlimit="10"/>
<path d="M14309.5 10.9731C14309.5 10.9388 14309.5 10.9045 14309.6 10.8702C14309.6 10.9045 14309.6 10.9388 14309.6 10.9731C14309.6 10.9731 14309.5 10.9731 14309.5 10.9731Z" fill="#FE0000" stroke="#FE0000" stroke-width="0.003775" stroke-miterlimit="10"/>
<path d="M14309.2 10.98C14309.3 10.9525 14309.3 10.9251 14309.3 10.8976C14309.3 10.9251 14309.4 10.9457 14309.4 10.9731C14309.3 10.98 14309.3 10.98 14309.2 10.98Z" fill="#FE0000" stroke="#FE0000" stroke-width="0.003775" stroke-miterlimit="10"/>
<path d="M14309 10.9045C14309.1 10.9251 14309.1 10.9526 14309.1 10.98C14309.1 10.98 14309 10.98 14309 10.98C14309 10.9526 14309 10.932 14309 10.9045Z" fill="#FE0000" stroke="#FE0000" stroke-width="0.003775" stroke-miterlimit="10"/>
<path d="M14311.4 11.0074C14311.5 11.0692 14311.5 11.1378 14311.5 11.2064C14311.5 11.2338 14311.5 11.2613 14311.5 11.2819C14311.4 11.3848 14311.4 11.4946 14311.3 11.6044C14311.3 11.625 14311.2 11.6113 14311.2 11.6044C14311 11.5701 14310.9 11.4809 14310.8 11.3643C14310.7 11.2613 14310.7 11.1515 14310.6 11.0486C14310.7 11.0486 14310.9 11.0486 14311 11.0486C14311 11.1309 14311.1 11.2132 14311.1 11.2956C14311.1 11.3162 14311.1 11.3574 14311.2 11.3505C14311.2 11.33 14311.2 11.3093 14311.2 11.2819C14311.3 11.1926 14311.3 11.0967 14311.4 11.0074Z" fill="#FE0000" stroke="#FE0000" stroke-width="0.003775" stroke-miterlimit="10"/>
<path d="M14311.2 12.222C14311.3 11.9064 14311.4 11.5975 14311.5 11.3093C14311.5 11.5907 14311.5 11.872 14311.5 12.1533C14311.5 12.1808 14311.5 12.2219 14311.5 12.2494C14311.5 12.3112 14311.4 12.3729 14311.3 12.4209C14311.3 12.3523 14311.2 12.2838 14311.2 12.222Z" fill="#FE0000" stroke="#FE0000" stroke-width="0.003775" stroke-miterlimit="10"/>
<path d="M14310.6 11.4467C14310.7 11.4329 14310.7 11.3986 14310.7 11.4329C14310.9 11.577 14311.1 11.6868 14311.3 11.6731C14311.2 11.9064 14311.2 12.1534 14311.1 12.4004L14311.1 12.4073C14310.9 12.3935 14310.6 12.3318 14310.4 12.174C14310.3 12.0916 14310.3 11.9613 14310.4 11.8515C14310.4 11.6868 14310.5 11.5359 14310.6 11.4467Z" fill="#FE0000" stroke="#FE0000" stroke-width="0.003775" stroke-miterlimit="10"/>
<path d="M14306.2 11.6249C14306.5 11.673 14306.6 11.8651 14306.8 12.0847C14306.7 12.1396 14306.6 12.2014 14306.5 12.2151C14306.5 12.222 14306.5 12.1534 14306.5 12.1191C14306.4 11.9269 14306.3 11.7485 14306.2 11.6249Z" fill="#FE0000" stroke="#FE0000" stroke-width="0.003775" stroke-miterlimit="10"/>
<path d="M14306.4 12.2494C14306.6 12.2974 14306.7 12.1946 14306.8 12.1328C14306.9 12.2357 14306.9 12.3798 14306.9 12.5102C14306.9 12.668 14306.7 12.8053 14306.8 12.9699C14306.7 13.1689 14306.7 13.3748 14306.7 13.5875C14306.7 13.6904 14306.8 13.807 14306.8 13.8619C14306.9 13.8757 14306.9 13.9237 14306.9 13.958C14307 14.1296 14307.1 14.3491 14307.1 14.555C14307.2 14.7746 14307.2 14.9942 14307.2 15.2138C14307.1 15.303 14307.1 15.4745 14307.1 15.6186C14307.2 15.9274 14307.4 16.1881 14307.6 16.4009C14308.1 16.8537 14308.8 17.0733 14309.4 17.1213C14309.4 17.3958 14309.5 17.6703 14309.7 17.883C14309.8 18.0066 14309.9 18.1026 14310 18.1918C14309.7 18.2055 14309.4 18.2467 14309.1 18.3496C14309 18.6035 14309 18.8642 14308.8 19.0975C14308.8 19.1593 14308.7 19.2416 14308.7 19.2897C14308.6 18.8986 14308.5 18.5143 14308.3 18.1712C14308.1 17.7801 14307.8 17.4369 14307.5 17.1144C14307.5 17.0664 14307.4 17.0115 14307.4 16.9704C14307 16.7302 14306.8 16.3871 14306.6 16.0166C14306.4 15.7421 14306.3 15.4402 14306.2 15.1383L14306.2 15.1314C14306.2 15.1314 14306.2 15.1383 14306.2 15.1383C14306.1 15.2961 14306.1 15.4607 14305.9 15.5843C14305.8 15.7215 14305.8 15.9273 14305.8 16.0852C14305.7 16.1401 14305.7 16.1744 14305.6 16.1881C14305.6 16.044 14305.5 15.9411 14305.4 15.9068C14305.3 15.8931 14305.3 15.893 14305.3 15.845C14305.3 15.7901 14305.3 15.749 14305.4 15.7078C14305.4 15.6529 14305.5 15.6324 14305.5 15.5637C14305.6 15.4471 14305.7 15.3167 14305.7 15.2069C14305.8 15.1726 14305.8 15.1657 14305.8 15.152C14305.8 15.1108 14305.9 15.0765 14305.9 15.0354C14305.9 14.6168 14305.9 14.1913 14306 13.7727C14306 13.7453 14306 13.711 14306 13.7041C14305.8 13.6355 14305.7 13.5326 14305.6 13.3816C14305.5 13.2856 14305.5 13.1758 14305.5 13.066C14305.5 12.9699 14305.4 12.8738 14305.4 12.764C14305.4 12.7297 14305.4 12.6611 14305.5 12.6817C14305.6 12.716 14305.7 12.6543 14305.8 12.5651C14305.8 12.5445 14305.8 12.517 14305.8 12.5102C14305.9 12.5513 14305.9 12.6268 14306 12.6954C14306.1 12.9493 14306.2 13.2169 14306.3 13.4571C14306.3 13.4846 14306.3 13.5326 14306.4 13.512C14306.4 13.5051 14306.4 13.4846 14306.4 13.4777C14306.3 13.3199 14306.3 13.1552 14306.3 12.9905C14306.3 12.7367 14306.4 12.4896 14306.4 12.2494Z" fill="#FE0000" stroke="#FE0000" stroke-width="0.003775" stroke-miterlimit="10"/>
<path d="M14310.1 12.4895C14310.1 12.3592 14310.2 12.2288 14310.3 12.1533C14310.5 12.366 14310.8 12.4347 14311.1 12.4622C14311 12.7092 14311 12.9562 14310.9 13.2032C14310.6 13.2444 14310.3 13.066 14310.1 12.819C14310 12.7161 14310.1 12.5925 14310.1 12.4895Z" fill="#FE0000" stroke="#FE0000" stroke-width="0.003775" stroke-miterlimit="10"/>
<path d="M14305.2 12.222C14305.3 12.222 14305.4 12.222 14305.5 12.27C14305.6 12.3181 14305.7 12.4072 14305.8 12.4896C14305.7 12.5857 14305.6 12.6612 14305.5 12.6337C14305.4 12.4691 14305.3 12.3112 14305.2 12.222Z" fill="#FE0000" stroke="#FE0000" stroke-width="0.003775" stroke-miterlimit="10"/>
<path d="M14307.4 12.2426C14307.4 12.2974 14307.5 12.3661 14307.5 12.4553C14307.5 12.6131 14307.5 12.7572 14307.4 12.9013C14307.4 12.9219 14307.3 12.9287 14307.3 12.915C14307.2 12.8876 14307.2 12.8258 14307.2 12.7709C14307.3 12.6268 14307.4 12.4415 14307.4 12.2426Z" fill="#FE0000" stroke="#FE0000" stroke-width="0.003775" stroke-miterlimit="10"/>
<path d="M14323.6 12.373C14324 12.2426 14324.4 12.27 14324.8 12.4141C14325.1 12.5034 14325.4 12.6406 14325.6 12.8327C14325.7 12.9356 14325.7 13.0454 14325.8 13.1758C14325.9 13.3679 14325.9 13.5738 14326 13.7865C14326 14.1296 14325.9 14.4796 14325.7 14.7678C14325.5 15.0766 14325.3 15.3373 14325 15.5501C14324.4 15.948 14323.7 16.2019 14323 16.3186C14322.9 16.346 14322.7 16.3666 14322.5 16.3803C14322.5 16.3872 14322.4 16.346 14322.4 16.3255C14322 15.9824 14321.7 15.5569 14321.3 15.2481C14321.2 15.1452 14321 15.056 14320.8 15.0697C14320.8 15.0834 14320.8 15.1109 14320.8 15.1246C14321 15.1109 14321.2 15.2138 14321.3 15.3167C14321.6 15.4951 14321.8 15.7147 14321.9 15.9343C14322.1 16.1058 14322.3 16.2911 14322.4 16.4283C14322.8 16.6273 14323.2 16.8332 14323.6 17.0459C14324 17.2861 14324.4 17.5262 14324.8 17.8213C14324.9 17.9311 14325.1 18.0478 14325.1 18.2193C14325 18.2468 14324.9 18.2536 14324.8 18.1987C14324.5 18.0889 14324.4 17.8693 14324.1 17.7527C14324.1 17.739 14324.1 17.7184 14324 17.739C14324 17.7664 14324 17.7938 14324.1 17.8213C14324.2 18.1644 14324.3 18.5281 14324.2 18.8918C14324.2 19.3927 14324.1 19.8799 14324 20.3671C14324 20.4289 14324 20.4905 14324 20.5523C14323.9 20.6209 14323.9 20.6964 14323.9 20.7788C14323.9 20.9366 14324 21.0532 14324.1 21.1836C14324.3 21.2591 14324.4 21.3209 14324.6 21.3895C14324.6 21.4032 14324.7 21.4101 14324.7 21.4375C14324.6 21.4855 14324.6 21.5336 14324.6 21.5953C14324.5 21.6639 14324.6 21.7326 14324.6 21.7943C14324.5 21.8081 14324.5 21.8286 14324.5 21.8423C14324.4 21.76 14324.2 21.6777 14324.1 21.6022C14323.8 21.4649 14323.5 21.465 14323.2 21.5611C14323.1 21.5954 14323 21.6845 14322.9 21.6914C14322.8 21.7051 14322.6 21.6776 14322.5 21.5884C14322.4 21.4787 14322.1 21.5199 14322 21.5679C14321.8 21.5954 14321.8 21.6776 14321.6 21.7463C14321.6 21.8011 14321.5 21.8561 14321.4 21.911C14321.4 21.911 14321.4 21.911 14321.3 21.911C14321.3 21.8561 14321.3 21.7943 14321.3 21.7463C14321.2 21.6776 14321.1 21.6434 14321.1 21.609C14321.1 21.5542 14321.2 21.513 14321.2 21.4718C14321.4 21.3964 14321.6 21.4101 14321.7 21.362C14321.8 21.3552 14321.8 21.3209 14321.8 21.3003C14321.4 21.2797 14321 21.2591 14320.6 21.2453C14320.7 21.1218 14320.7 20.9709 14320.6 20.8749C14320.7 20.7719 14320.8 20.7788 14320.9 20.7857C14321 20.7857 14321.1 20.8268 14321.2 20.8611C14321.4 20.9503 14321.7 21.0395 14321.9 21.1219C14322 21.1425 14322 21.1699 14322.1 21.1767C14322.1 21.1424 14322.1 21.1219 14322.1 21.1081C14321.6 20.9366 14321.2 20.7582 14320.8 20.5729C14320.8 20.5523 14320.8 20.4905 14320.8 20.4631C14320.9 20.4082 14321 20.3396 14321 20.2367C14321 20.1749 14320.9 20.1338 14320.9 20.0926C14320.9 20.0103 14321 20.0171 14321.1 20.072C14321.2 20.1887 14321.3 20.3122 14321.4 20.4288C14321.5 20.5386 14321.7 20.6004 14321.8 20.6896C14322 20.8405 14322.3 20.8954 14322.5 20.8062C14322.8 20.7238 14322.9 20.5455 14323.1 20.3534C14323.2 20.4014 14323.3 20.4425 14323.4 20.3945C14323.5 20.3396 14323.6 20.1886 14323.6 20.0514C14323.7 19.7563 14323.7 19.4407 14323.8 19.1319C14323.8 19.0084 14323.8 18.878 14323.8 18.7545C14323.7 18.384 14323.6 17.9929 14323.4 17.6841C14323.2 17.4371 14322.9 17.2998 14322.7 17.2174C14322.2 17.0871 14321.8 17.0185 14321.4 16.9087C14321.2 16.8812 14321.1 16.8332 14321 16.8195C14320.7 16.7646 14320.3 16.6479 14320.1 16.4352C14319.8 16.2225 14319.6 15.9 14319.6 15.5501C14319.7 15.5295 14319.9 15.5432 14320.1 15.5226C14319.9 15.3442 14319.8 15.1246 14319.9 14.905C14319.9 14.7815 14320 14.658 14320.1 14.5756C14320.4 14.5688 14320.7 14.5688 14321 14.5688C14321.5 14.5756 14322 14.6374 14322.4 14.7884C14322.7 14.8433 14323 14.8707 14323.3 14.8913C14323.6 14.8981 14323.9 14.8913 14324.1 14.8364C14324.3 14.7952 14324.5 14.7197 14324.7 14.5756C14324.8 14.4864 14324.8 14.3767 14324.9 14.26C14324.9 14.1914 14324.9 14.1091 14324.9 14.0199C14324.9 13.8003 14324.8 13.5876 14324.7 13.3954C14324.6 13.2582 14324.4 13.1552 14324.2 13.1141C14324 13.0729 14323.8 13.1072 14323.6 13.217C14323.6 13.2719 14323.5 13.3474 14323.5 13.4366C14323.5 13.5669 14323.6 13.6561 14323.7 13.6973C14323.9 13.7728 14324.1 13.766 14324.4 13.7248C14324.5 13.6905 14324.7 13.6287 14324.7 13.4778C14324.8 13.6356 14324.9 13.8003 14324.9 13.9718C14324.9 14.0473 14324.9 14.1297 14324.8 14.1914C14324.5 14.2463 14324.3 14.3012 14324 14.308C14323.7 14.3149 14323.3 14.2806 14323.1 14.0954C14322.9 13.9444 14322.8 13.6836 14322.8 13.4366C14322.7 13.2307 14322.8 13.0111 14322.9 12.8396C14323 12.6131 14323.3 12.4554 14323.6 12.373Z" fill="#FE0000" stroke="#FE0000" stroke-width="0.003775" stroke-miterlimit="10"/>
<path d="M14311.2 12.3044C14311.2 12.3044 14311.2 12.3112 14311.2 12.3112C14311.2 12.3592 14311.3 12.4004 14311.3 12.4553C14311.3 12.4759 14311.2 12.4896 14311.2 12.5033C14311.2 12.5102 14311.1 12.5308 14311.1 12.4965C14311.1 12.4278 14311.2 12.3661 14311.2 12.3044Z" fill="#FE0000" stroke="#FE0000" stroke-width="0.003775" stroke-miterlimit="10"/>
<path d="M14311.4 12.4759C14311.4 12.421 14311.5 12.3661 14311.5 12.3044C14311.5 12.373 14311.6 12.4416 14311.6 12.5102C14311.6 12.5376 14311.5 12.5582 14311.5 12.5719C14311.5 12.6337 14311.4 12.6954 14311.4 12.7435C14311.4 12.6611 14311.3 12.5651 14311.4 12.4759Z" fill="#FE0000" stroke="#FE0000" stroke-width="0.003775" stroke-miterlimit="10"/>
<path d="M14311.1 12.5651C14311.2 12.572 14311.2 12.5513 14311.3 12.517C14311.3 12.6131 14311.3 12.7023 14311.3 12.7915C14311.2 12.8944 14311.1 12.9974 14311 13.0797C14311 12.9151 14311.1 12.7435 14311.1 12.5651Z" fill="#FE0000" stroke="#FE0000" stroke-width="0.003775" stroke-miterlimit="10"/>
<path d="M14311.3 12.9425C14311.4 12.8395 14311.5 12.7297 14311.6 12.6131C14311.6 12.6954 14311.6 12.7709 14311.6 12.8532C14311.6 12.9768 14311.5 13.0797 14311.4 13.1895C14311.4 13.1071 14311.3 13.0317 14311.3 12.9425Z" fill="#FE0000" stroke="#FE0000" stroke-width="0.003775" stroke-miterlimit="10"/>
<path d="M14306.8 13.0248C14306.9 12.9699 14307 12.8464 14307.1 12.7983C14307.1 12.7709 14307.1 12.8326 14307.2 12.8669C14307.2 12.9562 14307.3 13.0111 14307.4 12.963C14307.4 13.1071 14307.4 13.2718 14307.3 13.361C14307.2 13.457 14307 13.512 14306.9 13.6492C14306.9 13.6972 14306.9 13.759 14306.9 13.8139C14306.8 13.7727 14306.8 13.6835 14306.7 13.608C14306.7 13.409 14306.8 13.21 14306.8 13.0248Z" fill="#FE0000" stroke="#FE0000" stroke-width="0.003775" stroke-miterlimit="10"/>
<path d="M14310 12.8738C14310 12.8532 14310 12.8875 14310.1 12.8944C14310.3 13.1277 14310.6 13.2923 14310.9 13.258C14310.9 13.505 14310.9 13.7521 14310.8 13.9992C14310.6 13.9992 14310.3 13.9717 14310 13.8825C14309.9 13.8344 14309.8 13.7727 14309.7 13.6492C14309.7 13.4982 14309.7 13.3267 14309.7 13.1826C14309.8 13.059 14309.9 12.9561 14310 12.8738Z" fill="#FE0000" stroke="#FE0000" stroke-width="0.003775" stroke-miterlimit="10"/>
<path d="M14311.4 13.3542C14311.5 13.2238 14311.6 13.0935 14311.6 12.9562C14311.6 13.0454 14311.7 13.1415 14311.7 13.2307C14311.7 13.2993 14311.7 13.368 14311.7 13.4229C14311.6 13.5052 14311.6 13.5807 14311.5 13.6493C14311.5 13.5601 14311.4 13.4571 14311.4 13.3542Z" fill="#FE0000" stroke="#FE0000" stroke-width="0.003775" stroke-miterlimit="10"/>
<path d="M14311 13.1552C14311.1 13.1004 14311.2 13.0455 14311.2 12.9837C14311.3 13.066 14311.3 13.1484 14311.4 13.2307V13.2445C14311.3 13.3337 14311.2 13.416 14311.2 13.4983C14311.1 13.4366 14311 13.3679 14311 13.2993C14311 13.2513 14311 13.1827 14311 13.1552Z" fill="#FE0000" stroke="#FE0000" stroke-width="0.003775" stroke-miterlimit="10"/>
<path d="M14316.4 13.1484C14316.8 13.1004 14317.2 13.1141 14317.6 13.1278C14318.5 13.1758 14319.4 13.2924 14320.3 13.4297C14320.8 13.5052 14321.3 13.5739 14321.7 13.6768L14321.8 13.663C14321.8 13.6768 14321.8 13.6904 14321.8 13.6973C14321.8 13.7042 14321.7 13.6699 14321.6 13.6768C14321.3 13.6631 14320.9 13.7659 14320.6 13.9581C14320.4 14.0884 14320.2 14.2737 14320.1 14.5139C14320 14.5757 14320 14.6168 14319.9 14.6855C14319.8 14.8776 14319.8 15.1246 14319.9 15.3236C14319.6 15.0765 14319.3 14.8707 14319 14.6648C14318.5 14.2943 14318 13.9512 14317.4 13.6287C14317.1 13.4434 14316.8 13.2788 14316.4 13.1484Z" fill="#FE0000" stroke="#FE0000" stroke-width="0.003775" stroke-miterlimit="10"/>
<path d="M14311 13.361C14311 13.4159 14311.1 13.4708 14311.1 13.5326C14311.1 13.5943 14311 13.6423 14310.9 13.6835C14310.9 13.5737 14311 13.4708 14311 13.361Z" fill="#FE0000" stroke="#FE0000" stroke-width="0.003775" stroke-miterlimit="10"/>
<path d="M14311.7 13.3885C14311.8 13.4983 14311.8 13.6012 14311.8 13.711C14311.8 13.8276 14311.7 13.9374 14311.7 14.0472C14311.6 13.9854 14311.5 13.9031 14311.5 13.8139C14311.6 13.6904 14311.7 13.5532 14311.7 13.3885Z" fill="#FE0000" stroke="#FE0000" stroke-width="0.003775" stroke-miterlimit="10"/>
<path d="M14311.3 13.4091C14311.4 13.5052 14311.4 13.6012 14311.5 13.6973C14311.4 13.8071 14311.3 13.8894 14311.2 13.9855C14311.2 13.8688 14311.1 13.7453 14311.1 13.6149C14311.2 13.5463 14311.3 13.4777 14311.3 13.4091Z" fill="#FE0000" stroke="#FE0000" stroke-width="0.003775" stroke-miterlimit="10"/>
<path d="M14310.9 13.7522C14311 13.7179 14311 13.6904 14311.1 13.6561C14311.1 13.7796 14311.1 13.9032 14311.2 14.013C14311.1 14.0953 14311 14.1707 14310.9 14.2256C14310.9 14.0678 14310.9 13.91 14310.9 13.7522Z" fill="#FE0000" stroke="#FE0000" stroke-width="0.003775" stroke-miterlimit="10"/>
<path d="M14309.4 13.91C14309.5 13.814 14309.5 13.7179 14309.6 13.6768C14309.7 13.6973 14309.7 13.7385 14309.7 13.7591C14309.8 13.8757 14310 13.9375 14310.2 13.9786C14310.4 14.0267 14310.6 14.0472 14310.8 14.0541C14310.8 14.3492 14310.8 14.6374 14310.7 14.9324C14310.3 14.9942 14309.9 14.9393 14309.5 14.7197C14309.4 14.6922 14309.4 14.6717 14309.4 14.6305C14309.3 14.3903 14309.3 14.1365 14309.4 13.91Z" fill="#FE0000" stroke="#FE0000" stroke-width="0.003775" stroke-miterlimit="10"/>
<path d="M14311.9 13.7864C14311.9 13.9031 14312 14.0129 14312 14.1295C14312 14.2599 14311.9 14.3766 14311.8 14.4726C14311.8 14.3766 14311.7 14.2805 14311.7 14.1776C14311.6 14.157 14311.7 14.1364 14311.7 14.1158C14311.8 14.0129 14311.8 13.9031 14311.9 13.7864Z" fill="#FE0000" stroke="#FE0000" stroke-width="0.003775" stroke-miterlimit="10"/>
<path d="M14316 13.8071C14316.1 13.8277 14316.3 13.8895 14316.5 13.9375C14317.1 14.1708 14317.8 14.4452 14318.4 14.7334C14318.8 14.8844 14319.1 15.0422 14319.5 15.2138C14319.6 15.2961 14319.8 15.3853 14319.9 15.4882C14319.5 15.4951 14319.2 15.5431 14318.8 15.6666C14318.6 15.7558 14318.3 15.8862 14318.1 16.0715C14318 16.1744 14317.9 16.2979 14317.9 16.4489C14317.9 16.3322 14317.8 16.2224 14317.8 16.1126C14317.6 15.8244 14317.5 15.5569 14317.3 15.2961C14317.1 14.9736 14316.9 14.6579 14316.6 14.3697C14316.4 14.1638 14316.2 13.9649 14316 13.8071Z" fill="#FE0000" stroke="#FE0000" stroke-width="0.003775" stroke-miterlimit="10"/>
<path d="M14311.4 13.8688C14311.5 13.9511 14311.5 14.0404 14311.6 14.109C14311.5 14.2188 14311.4 14.3286 14311.3 14.4178C14311.3 14.3217 14311.2 14.2051 14311.2 14.1021C14311.2 14.0747 14311.2 14.0609 14311.2 14.0472C14311.3 13.9854 14311.3 13.9305 14311.4 13.8688Z" fill="#FE0000" stroke="#FE0000" stroke-width="0.003775" stroke-miterlimit="10"/>
<path d="M14310.8 14.2942C14311 14.2462 14311 14.1776 14311.1 14.109C14311.2 14.2257 14311.2 14.3423 14311.3 14.4521C14311.2 14.5139 14311.1 14.5756 14311 14.6099C14311 14.5344 14310.9 14.4658 14310.9 14.3903C14310.8 14.3628 14310.8 14.3217 14310.8 14.2942Z" fill="#FE0000" stroke="#FE0000" stroke-width="0.003775" stroke-miterlimit="10"/>
<path d="M14315.5 14.1227C14315.7 14.2119 14315.8 14.3355 14315.9 14.4521C14316.4 14.8913 14316.8 15.3578 14317.3 15.8313C14317.5 16.0509 14317.7 16.2705 14317.8 16.5107C14317.6 16.5038 14317.4 16.4832 14317.2 16.4969C14317 16.5107 14316.8 16.5243 14316.5 16.6273C14316.4 16.6822 14316.3 16.7714 14316.2 16.8674C14316.1 16.9498 14316 17.0184 14315.9 17.0527C14316 16.9017 14316 16.744 14316 16.5861C14315.9 16.1264 14315.9 15.6735 14315.8 15.2206C14315.7 14.8501 14315.7 14.4795 14315.5 14.1227Z" fill="#FE0000" stroke="#FE0000" stroke-width="0.003775" stroke-miterlimit="10"/>
<path d="M14311.8 14.5481C14311.9 14.4452 14312 14.3286 14312 14.1982C14312.1 14.308 14312.2 14.4178 14312.2 14.5001C14312.1 14.5619 14312 14.6374 14311.9 14.6992C14311.9 14.658 14311.8 14.603 14311.8 14.5481Z" fill="#FE0000" stroke="#FE0000" stroke-width="0.003775" stroke-miterlimit="10"/>
<path d="M14311.4 14.4521C14311.5 14.3767 14311.5 14.3011 14311.6 14.2119C14311.6 14.2531 14311.7 14.3012 14311.7 14.3492C14311.7 14.4041 14311.7 14.459 14311.8 14.5207C14311.7 14.6237 14311.6 14.7129 14311.5 14.7952C14311.4 14.6786 14311.4 14.5688 14311.4 14.4521Z" fill="#FE0000" stroke="#FE0000" stroke-width="0.003775" stroke-miterlimit="10"/>
<path d="M14310.8 14.4521C14310.9 14.5139 14310.9 14.5756 14310.9 14.6442C14310.9 14.6648 14310.9 14.6786 14310.8 14.6854C14310.8 14.6099 14310.8 14.5345 14310.8 14.4521Z" fill="#FE0000" stroke="#FE0000" stroke-width="0.003775" stroke-miterlimit="10"/>
<path d="M14311 14.6648C14311.1 14.6167 14311.2 14.555 14311.3 14.4932C14311.4 14.6099 14311.4 14.7265 14311.4 14.8501C14311.4 14.9049 14311.3 14.9667 14311.2 15.0147C14311.2 15.0147 14311.2 14.9804 14311.1 14.953C14311.1 14.8569 14311.1 14.7608 14311 14.6648Z" fill="#FE0000" stroke="#FE0000" stroke-width="0.003775" stroke-miterlimit="10"/>
<path d="M14315 14.5962C14315 14.5619 14315 14.5138 14315 14.4932C14315.2 14.8157 14315.3 15.1451 14315.4 15.4745C14315.5 15.8862 14315.7 16.2979 14315.8 16.7096C14315.8 16.8194 14315.8 16.9292 14315.9 17.0389C14315.6 16.8537 14315.3 16.7439 14315 16.7371C14314.8 16.7302 14314.5 16.7919 14314.3 16.9497C14314.2 17.0252 14314.1 17.1351 14314.1 17.2586C14314.1 17.1213 14314.1 16.9841 14314.1 16.8469C14314.3 16.4214 14314.4 16.0097 14314.5 15.598C14314.7 15.2686 14314.8 14.9255 14315 14.5962Z" fill="#FE0000" stroke="#FE0000" stroke-width="0.003775" stroke-miterlimit="10"/>
<path d="M14311.8 14.6031C14311.8 14.6031 14311.8 14.6031 14311.8 14.6031C14311.8 14.6511 14311.9 14.6923 14311.9 14.7403C14311.8 14.8226 14311.7 14.8913 14311.6 14.9668C14311.6 14.9256 14311.5 14.8913 14311.5 14.8432C14311.6 14.7678 14311.7 14.6854 14311.8 14.6031Z" fill="#FE0000" stroke="#FE0000" stroke-width="0.003775" stroke-miterlimit="10"/>
<path d="M14312.9 14.8226C14313.1 14.754 14313.3 14.6923 14313.5 14.6717C14313.3 15.1657 14313 15.6598 14312.8 16.1744C14312.8 16.2979 14312.7 16.4215 14312.7 16.545C14312.7 16.4832 14312.7 16.4214 14312.7 16.3528C14312.6 16.3803 14312.5 16.4283 14312.4 16.4764C14312.2 16.6067 14312 16.7645 14311.8 16.9567C14311.8 16.6822 14311.8 16.4009 14311.8 16.1264C14311.4 16.2019 14311 16.2225 14310.6 16.2087C14310.7 16.0852 14310.9 15.9892 14311 15.8931C14311.3 15.6667 14311.6 15.4677 14311.9 15.2824C14312.2 15.1109 14312.6 14.953 14312.9 14.8226Z" fill="#FE0000" stroke="#FE0000" stroke-width="0.003775" stroke-miterlimit="10"/>
<path d="M14309.2 15.5294C14309.1 15.2481 14309.1 14.905 14309.3 14.6785C14309.6 14.8707 14309.9 14.9804 14310.2 15.001C14310.4 15.0147 14310.6 15.001 14310.7 14.9873C14310.7 15.1657 14310.7 15.351 14310.7 15.5294C14310.7 15.6186 14310.7 15.7078 14310.8 15.7901C14310.4 16.0303 14309.9 16.0989 14309.4 15.9136C14309.3 15.8244 14309.2 15.6804 14309.2 15.5294Z" fill="#FE0000" stroke="#FE0000" stroke-width="0.003775" stroke-miterlimit="10"/>
<path d="M14310.8 14.754C14310.9 14.7334 14310.9 14.7128 14311 14.6923C14311 14.8226 14311.1 14.9598 14311.2 15.0559C14311 15.1451 14310.9 15.2344 14310.8 15.3098C14310.8 15.1177 14310.8 14.9324 14310.8 14.754Z" fill="#FE0000" stroke="#FE0000" stroke-width="0.003775" stroke-miterlimit="10"/>
<path d="M14313.8 15.1588C14313.9 15.0422 14314.1 14.9187 14314.2 14.8295C14314.1 15.1794 14314.1 15.5568 14314 15.9205C14314 16.2842 14314 16.6548 14314 17.0184C14314 17.1145 14314 17.2105 14314 17.3066C14313.9 17.1282 14313.6 17.0047 14313.4 16.991C14313.1 16.9841 14312.9 17.0527 14312.7 17.2242C14312.7 17.0527 14312.7 16.8743 14312.7 16.7027C14312.8 16.4832 14312.9 16.2842 14313.1 16.0852C14313.3 15.7626 14313.5 15.4539 14313.8 15.1588Z" fill="#FE0000" stroke="#FE0000" stroke-width="0.003775" stroke-miterlimit="10"/>
<path d="M14311.5 14.8843C14311.5 14.9255 14311.5 14.9667 14311.5 15.0079C14311.5 15.0902 14311.4 15.1726 14311.3 15.2549C14311.2 15.2069 14311.2 15.1657 14311.2 15.1108C14311.3 15.0422 14311.4 14.9667 14311.5 14.8843Z" fill="#FE0000" stroke="#FE0000" stroke-width="0.003775" stroke-miterlimit="10"/>
<path d="M14311 15.248C14311 15.2137 14311.1 15.1794 14311.1 15.1451C14311.1 15.1931 14311.2 15.2412 14311.2 15.2892C14311.2 15.3441 14311.1 15.4059 14311.1 15.4539C14311 15.4539 14311 15.4059 14311 15.3716C14311 15.3373 14311 15.2892 14311 15.248Z" fill="#FE0000" stroke="#FE0000" stroke-width="0.003775" stroke-miterlimit="10"/>
<path d="M14307.3 15.2824C14307.5 15.3236 14307.6 15.5431 14307.6 15.7627C14307.7 15.8588 14307.6 15.9275 14307.5 15.9961C14307.5 16.0304 14307.5 16.0852 14307.4 16.0989C14307.3 15.9617 14307.2 15.8039 14307.2 15.6392C14307.2 15.5226 14307.1 15.3716 14307.3 15.2824Z" fill="#FE0000" stroke="#FE0000" stroke-width="0.003775" stroke-miterlimit="10"/>
<path d="M14310.8 15.3716C14310.8 15.3442 14310.9 15.3167 14310.9 15.2961C14310.9 15.3785 14310.9 15.4608 14311 15.5157C14310.9 15.5843 14310.9 15.6666 14310.8 15.749L14310.8 15.7421C14310.8 15.6186 14310.8 15.4951 14310.8 15.3716Z" fill="#FE0000" stroke="#FE0000" stroke-width="0.003775" stroke-miterlimit="10"/>
<path d="M14319.2 15.6186C14319.3 15.598 14319.4 15.5774 14319.5 15.5774C14319.5 16.0028 14319.8 16.3871 14320.2 16.5998C14320.1 16.9223 14319.9 17.2243 14319.5 17.2655C14319.3 17.2586 14319.2 17.1145 14319 17.0802C14319 17.0733 14318.9 17.0253 14318.9 16.9978C14318.8 16.9224 14318.7 16.9018 14318.5 16.9155C14318.5 16.9224 14318.4 16.9567 14318.3 16.9361C14318.2 16.8881 14318 16.7439 14317.9 16.6067C14317.9 16.5724 14317.9 16.5381 14317.9 16.4969C14317.9 16.3048 14318.1 16.1538 14318.2 16.0303C14318.5 15.8176 14318.9 15.6872 14319.2 15.6186Z" fill="#FE0000" stroke="#FE0000" stroke-width="0.003775" stroke-miterlimit="10"/>
<path d="M14307.7 15.8931C14307.7 15.8794 14307.7 15.845 14307.7 15.845C14307.9 15.845 14308.1 15.9411 14308.2 16.092C14308.2 16.1332 14308.2 16.1882 14308.2 16.2431C14308.2 16.3734 14308.1 16.5107 14308.1 16.6479C14307.8 16.5244 14307.6 16.3597 14307.5 16.1676C14307.5 16.147 14307.5 16.1332 14307.5 16.1195C14307.6 16.0578 14307.6 15.9823 14307.7 15.8931Z" fill="#FE0000" stroke="#FE0000" stroke-width="0.003775" stroke-miterlimit="10"/>
<path d="M14309.4 15.9479C14309.8 16.1401 14310.3 16.0989 14310.7 15.8793C14310.6 15.996 14310.6 16.1194 14310.5 16.2567C14310.6 16.2773 14310.8 16.2636 14310.9 16.2704C14310.7 16.5037 14310.6 16.7645 14310.7 17.0389C14310.7 17.1693 14310.7 17.286 14310.8 17.3889C14310.7 17.4507 14310.5 17.5536 14310.5 17.7046C14310.4 17.8556 14310.4 18.0271 14310.5 18.178C14310.4 18.178 14310.3 18.178 14310.2 18.178C14310.1 18.1849 14310 18.1369 14310 18.1094C14309.8 17.9722 14309.6 17.7869 14309.5 17.5605C14309.5 17.4232 14309.5 17.2723 14309.5 17.1282C14309.5 17.0733 14309.4 17.039 14309.4 16.991C14309.3 16.7988 14309.2 16.5861 14309.2 16.3528C14309.2 16.2773 14309.2 16.1881 14309.2 16.1195C14309.3 16.0577 14309.3 16.0028 14309.4 15.9479Z" fill="#FE0000" stroke="#FE0000" stroke-width="0.003775" stroke-miterlimit="10"/>
<path d="M14305.4 15.9479C14305.5 15.9891 14305.6 16.0577 14305.6 16.1743C14305.5 16.2224 14305.5 16.2911 14305.4 16.3391C14305.3 16.4283 14305.1 16.442 14304.9 16.4008C14305.1 16.3734 14305.2 16.3254 14305.3 16.2224C14305.3 16.1401 14305.3 16.044 14305.4 15.9479Z" fill="#FE0000" stroke="#FE0000" stroke-width="0.003775" stroke-miterlimit="10"/>
<path d="M14308.4 16.1881C14308.5 16.1607 14308.6 16.2019 14308.7 16.2499C14308.7 16.2911 14308.8 16.3391 14308.8 16.394C14308.9 16.545 14308.9 16.7096 14308.9 16.8743C14308.9 16.9018 14308.9 16.9429 14308.8 16.9635C14308.8 16.9635 14308.8 16.9498 14308.7 16.9361C14308.5 16.8744 14308.3 16.792 14308.1 16.6754C14308.1 16.5587 14308.2 16.4489 14308.2 16.3391C14308.3 16.2774 14308.3 16.2087 14308.4 16.1881Z" fill="#FE0000" stroke="#FE0000" stroke-width="0.003775" stroke-miterlimit="10"/>
<path d="M14310.9 16.2705C14311.2 16.2705 14311.5 16.243 14311.8 16.195C14311.8 16.4901 14311.8 16.792 14311.8 17.0871C14311.8 17.0596 14311.9 17.0116 14311.9 16.9773C14312.1 16.7508 14312.4 16.5724 14312.6 16.4352C14312.6 16.5861 14312.6 16.7508 14312.6 16.9018C14312.5 16.9361 14312.5 16.9635 14312.4 16.9635C14312.3 17.0047 14312.2 17.1145 14312.2 17.2105C14312.2 17.238 14312.1 17.2449 14312.1 17.2174C14312.1 17.1968 14312 17.1557 14312 17.19C14311.9 17.2518 14311.9 17.341 14311.9 17.4302C14311.8 17.4439 14311.8 17.4714 14311.7 17.5331C14311.6 17.4851 14311.5 17.4233 14311.4 17.4508C14311.3 17.4782 14311.3 17.5742 14311.3 17.6497C14311.1 17.5948 14311 17.5193 14310.9 17.3752C14310.8 17.2449 14310.7 17.0802 14310.7 16.9155C14310.7 16.6822 14310.8 16.4695 14310.9 16.2705Z" fill="#FE0000" stroke="#FE0000" stroke-width="0.003775" stroke-miterlimit="10"/>
<path d="M14308.9 16.3871C14308.9 16.3117 14309 16.2842 14309.1 16.3117C14309.1 16.346 14309.1 16.4008 14309.1 16.442C14309.2 16.6684 14309.3 16.8743 14309.4 17.0665C14309.2 17.0527 14309.1 17.0253 14308.9 16.991C14309 16.792 14308.9 16.5861 14308.9 16.3871Z" fill="#FE0000" stroke="#FE0000" stroke-width="0.003775" stroke-miterlimit="10"/>
<path d="M14316.9 16.593C14317 16.5724 14317.1 16.5724 14317.2 16.5587C14317.4 16.5518 14317.6 16.5518 14317.8 16.5724C14317.9 16.641 14317.9 16.7165 14318 16.7851C14317.8 16.9429 14317.6 17.0459 14317.4 17.0664C14317.2 17.087 14317 17.0527 14316.8 16.9772C14316.9 16.8606 14316.9 16.7234 14316.9 16.593Z" fill="#FE0000" stroke="#FE0000" stroke-width="0.003775" stroke-miterlimit="10"/>
<path d="M14316.5 16.7096C14316.6 16.6547 14316.7 16.6067 14316.9 16.5998C14316.9 16.8262 14316.8 17.039 14316.6 17.2036C14316.4 17.4164 14316.2 17.5673 14315.9 17.6291C14315.8 17.6497 14315.7 17.6565 14315.7 17.6497C14315.7 17.4781 14315.8 17.3066 14315.9 17.1282C14315.9 17.1076 14316 17.0939 14316 17.0596C14316.2 16.9772 14316.3 16.7988 14316.5 16.7096Z" fill="#FE0000" stroke="#FE0000" stroke-width="0.003775" stroke-miterlimit="10"/>
<path d="M14320.2 16.6342C14320.4 16.7371 14320.6 16.8057 14320.8 16.8606C14320.9 16.9223 14320.8 17.0047 14320.8 17.0665C14320.7 17.2929 14320.5 17.485 14320.4 17.6703C14320.2 17.7115 14320.1 17.6703 14319.9 17.6223C14319.8 17.5605 14319.6 17.4713 14319.5 17.3272C14319.7 17.286 14319.9 17.1899 14320 17.0321C14320.1 16.9155 14320.2 16.7783 14320.2 16.6342Z" fill="#FE0000" stroke="#FE0000" stroke-width="0.003775" stroke-miterlimit="10"/>
<path d="M14314.7 16.8332C14315.1 16.744 14315.5 16.8469 14315.8 17.1008C14315.8 17.1282 14315.8 17.1557 14315.8 17.1831C14315.7 17.4645 14315.6 17.7595 14315.3 17.979C14315.3 18.0408 14315.2 18.0477 14315.1 18.0614C14315 18.0957 14314.8 18.0889 14314.7 18.0409C14314.8 17.9036 14314.9 17.7115 14314.9 17.5262C14314.9 17.2861 14314.8 17.0527 14314.7 16.8332Z" fill="#FE0000" stroke="#FE0000" stroke-width="0.003775" stroke-miterlimit="10"/>
<path d="M14318 16.8949C14318 16.8743 14318 16.8401 14318 16.8332C14318.1 16.9224 14318.3 17.0116 14318.4 16.9979C14318.5 16.9841 14318.6 16.9635 14318.7 16.9704C14318.8 16.9704 14318.8 17.0116 14318.9 17.0733C14318.8 17.1763 14318.8 17.2723 14318.7 17.3478C14318.6 17.4508 14318.4 17.54 14318.3 17.6978C14318.2 17.9585 14318.3 18.2947 14318.5 18.5006C14318.7 18.6035 14319 18.6927 14319.2 18.7888C14319.3 18.8162 14319.4 18.8643 14319.5 18.8643C14319.7 18.8849 14320 18.9535 14320.1 19.125C14320.2 19.2623 14320.3 19.4475 14320.3 19.6191C14320.1 19.5916 14320 19.5162 14319.9 19.5025C14319.7 19.4476 14319.5 19.3721 14319.4 19.3103C14319.3 19.2966 14319.3 19.3309 14319.3 19.3514C14319 19.7769 14318.7 20.1543 14318.3 20.4631C14317.9 20.7993 14317.4 21.0326 14316.8 21.1767C14316.8 21.1767 14316.8 21.211 14316.8 21.2384C14317 21.3482 14317.2 21.3139 14317.4 21.3414C14317.5 21.3688 14317.6 21.3963 14317.6 21.4443C14317.6 21.4992 14317.5 21.5473 14317.5 21.609C14317.5 21.6845 14317.5 21.7668 14317.6 21.8354C14317.5 21.8491 14317.4 21.8492 14317.3 21.8286C14317.2 21.7669 14317 21.6296 14316.9 21.561C14316.8 21.5267 14316.7 21.4718 14316.6 21.4512C14316.4 21.4032 14316.3 21.4512 14316.1 21.5267C14316.1 21.5541 14316 21.5129 14316 21.4992C14315.8 21.4169 14315.6 21.4649 14315.4 21.4923C14315 21.5266 14314.7 21.5678 14314.4 21.7462C14314.4 21.7737 14314.4 21.8629 14314.3 21.8492C14314.2 21.8286 14314.3 21.7806 14314.3 21.7394C14314.3 21.664 14314.3 21.5885 14314.2 21.5473C14314.1 21.4992 14314.1 21.4924 14314 21.4718C14314 21.4581 14313.9 21.4374 14313.9 21.4169C14314.1 21.3414 14314.2 21.2522 14314.3 21.2659C14314.4 21.2865 14314.5 21.3689 14314.6 21.3689C14314.8 21.3689 14315.1 21.2728 14315.3 21.1767C14315.4 21.1767 14315.4 21.1218 14315.4 21.115C14315.1 21.2042 14314.8 21.3209 14314.6 21.3071C14314.5 21.314 14314.4 21.2111 14314.3 21.2111C14314.2 21.1973 14314 21.2797 14313.9 21.3689C14313.9 21.3826 14313.9 21.4101 14313.8 21.3963C14313.7 21.3346 14313.6 21.2797 14313.5 21.2179C14313.6 21.1562 14313.7 21.1424 14313.7 21.0738C14313.7 21.0051 14313.7 20.9297 14313.7 20.8542C14313.8 20.7856 14314 20.7719 14314.1 20.8199C14314.2 20.8473 14314.2 20.916 14314.3 20.9572C14314.5 21.0532 14314.7 21.0738 14314.9 21.0464C14315 21.0327 14315.1 20.9571 14315.2 20.9091C14315.4 20.8267 14315.5 20.7307 14315.7 20.6758C14315.9 20.5454 14316.2 20.518 14316.5 20.518C14316.6 20.5729 14316.6 20.6346 14316.7 20.6689C14316.8 20.717 14317 20.717 14317.1 20.6552C14317.2 20.6003 14317.3 20.5043 14317.3 20.4082C14317.5 20.3464 14317.7 20.2298 14317.9 20.12C14317.9 20.0582 14318 19.9965 14318.1 19.9348C14318.3 19.8112 14318.4 19.6945 14318.5 19.5436C14318.5 19.4681 14318.6 19.3789 14318.5 19.2966C14318.5 19.2211 14318.4 19.1731 14318.4 19.1456C14318.2 19.0907 14318.1 19.077 14317.9 19.0702C14317.6 19.0564 14317.3 18.9947 14317 18.8025C14316.9 18.6447 14316.8 18.3839 14316.8 18.1437C14316.8 17.7938 14316.9 17.4507 14317.1 17.1419C14317.4 17.1557 14317.7 17.0802 14318 16.8949Z" fill="#FE0000" stroke="#FE0000" stroke-width="0.003775" stroke-miterlimit="10"/>
<path d="M14314.2 17.1008C14314.3 16.9704 14314.5 16.8881 14314.6 16.8469C14314.8 17.094 14314.8 17.3615 14314.8 17.6291C14314.8 17.7389 14314.8 17.8487 14314.7 17.9448C14314.7 18.0134 14314.6 18.0546 14314.5 18.1095C14314.3 18.2673 14314.1 18.4114 14313.9 18.5074C14313.8 18.5623 14313.6 18.5967 14313.4 18.5349C14313.4 18.5075 14313.5 18.4869 14313.5 18.4594C14313.6 18.2948 14313.6 18.1163 14313.6 17.9379C14313.6 17.6566 14313.6 17.3684 14313.6 17.0871C14313.8 17.142 14314 17.2929 14314.1 17.4713C14314.1 17.4644 14314.1 17.4576 14314.1 17.4508C14314.1 17.3273 14314.1 17.1969 14314.2 17.1008Z" fill="#FE0000" stroke="#FE0000" stroke-width="0.003775" stroke-miterlimit="10"/>
<path d="M14320.9 16.8674C14321.2 16.9155 14321.5 17.0116 14321.8 17.0665C14321.7 17.3341 14321.6 17.588 14321.4 17.7732C14321.4 17.8213 14321.3 17.8213 14321.3 17.8418C14321 17.8967 14320.7 17.8762 14320.4 17.6909C14320.6 17.5537 14320.7 17.4027 14320.8 17.2449C14320.8 17.1282 14320.9 17.0047 14320.9 16.8674Z" fill="#FE0000" stroke="#FE0000" stroke-width="0.003775" stroke-miterlimit="10"/>
<path d="M14312.4 17.0116C14312.5 17.0047 14312.6 16.9772 14312.6 16.9498C14312.6 17.0596 14312.6 17.1694 14312.7 17.2723C14312.6 17.3478 14312.6 17.4233 14312.5 17.4919C14312.4 17.5056 14312.4 17.4576 14312.3 17.4027C14312.3 17.3203 14312.3 17.2174 14312.3 17.1282C14312.3 17.0733 14312.4 17.0184 14312.4 17.0116Z" fill="#FE0000" stroke="#FE0000" stroke-width="0.003775" stroke-miterlimit="10"/>
<path d="M14316.3 17.5331C14316.5 17.4096 14316.7 17.238 14316.8 17.0321C14316.9 17.0664 14317 17.0939 14317.1 17.1077C14316.9 17.3753 14316.8 17.6497 14316.8 17.9448C14316.7 17.9379 14316.7 17.9104 14316.7 17.8967C14316.5 17.8418 14316.4 17.8281 14316.2 17.8075C14316 17.7869 14315.8 17.7664 14315.6 17.7732C14315.6 17.7458 14315.6 17.7184 14315.6 17.6978C14315.9 17.7252 14316.1 17.6429 14316.3 17.5331Z" fill="#FE0000" stroke="#FE0000" stroke-width="0.003775" stroke-miterlimit="10"/>
<path d="M14313 17.1077C14313.2 17.0528 14313.3 17.039 14313.5 17.0733C14313.6 17.4233 14313.6 17.7801 14313.5 18.1301C14313.5 18.2536 14313.5 18.3839 14313.4 18.4937C14313.2 18.6446 14313.1 18.7545 14312.9 18.8505C14312.8 18.6584 14312.7 18.4525 14312.8 18.2398C14312.8 18.1369 14312.9 18.0683 14312.9 17.9654C14313 17.6978 14313 17.3959 14313 17.1077Z" fill="#FE0000" stroke="#FE0000" stroke-width="0.003775" stroke-miterlimit="10"/>
<path d="M14321.8 17.0802C14322 17.1282 14322.3 17.1763 14322.5 17.238C14322.5 17.4233 14322.5 17.6155 14322.4 17.7939C14322.3 17.8488 14322.3 17.9105 14322.3 17.9379C14322.1 18.0134 14321.9 18.0408 14321.7 17.9859C14321.6 17.9516 14321.5 17.8967 14321.4 17.8281C14321.6 17.636 14321.8 17.3615 14321.8 17.0802Z" fill="#FE0000" stroke="#FE0000" stroke-width="0.003775" stroke-miterlimit="10"/>
<path d="M14312.8 17.1969C14312.9 17.1694 14312.9 17.1488 14313 17.1282C14313 17.3203 14313 17.5125 14312.9 17.7046C14312.9 17.835 14312.9 17.9653 14312.8 18.0751C14312.7 18.1849 14312.7 18.329 14312.7 18.4663C14312.7 18.5967 14312.7 18.727 14312.8 18.8505C14312.8 18.8917 14312.8 18.9329 14312.8 18.9741C14312.8 19.2348 14312.6 19.4887 14312.5 19.7151C14312.5 19.7151 14312.5 19.7151 14312.5 19.7151C14312.4 19.4132 14312.2 19.1319 14312.1 18.8094C14312.1 18.7408 14312.1 18.6652 14312.1 18.5898C14312.1 18.5623 14312 18.5898 14312 18.6104C14311.8 18.926 14311.5 19.2142 14311.2 19.4887C14311 19.6808 14310.8 19.8661 14310.7 20.0788C14310.4 20.3739 14310.3 20.7238 14310.2 21.0875C14310.2 21.1355 14310.2 21.1561 14310.3 21.1698C14310.5 21.2796 14310.8 21.2659 14311 21.314C14311.1 21.3346 14311.1 21.362 14311.1 21.3963C14311.1 21.513 14311 21.6433 14311.1 21.7668C14310.9 21.8697 14310.7 21.8423 14310.5 21.7874C14310.5 21.7668 14310.4 21.7531 14310.4 21.7051C14310.2 21.561 14310 21.4443 14309.8 21.4443C14309.7 21.4443 14309.5 21.506 14309.4 21.5884C14309.3 21.6776 14309.2 21.6433 14309 21.609C14308.8 21.5472 14308.6 21.5953 14308.4 21.7119C14308.3 21.8698 14308 21.9796 14307.8 21.9933C14307.7 22.0001 14307.5 21.9795 14307.5 21.8903C14307.5 21.8286 14307.5 21.7531 14307.5 21.6913C14307.4 21.6364 14307.4 21.6158 14307.3 21.5884C14307.3 21.5335 14307.3 21.4717 14307.3 21.41C14307.5 21.3139 14307.6 21.211 14307.8 21.2248C14307.9 21.2248 14307.9 21.2865 14308 21.3071C14308.1 21.3345 14308.2 21.362 14308.3 21.3551C14308.3 21.3414 14308.3 21.314 14308.3 21.3002C14308.2 21.3002 14308.1 21.2796 14308 21.2453C14307.9 21.211 14307.9 21.1698 14307.8 21.1698C14307.6 21.1561 14307.5 21.2522 14307.3 21.3551C14307.3 21.3688 14307.2 21.3414 14307.2 21.3345C14307.2 21.2865 14307.3 21.2453 14307.3 21.1904C14307.3 21.1218 14307.2 21.0669 14307.2 21.0189C14307.2 20.964 14307.3 20.9091 14307.3 20.8542C14307.5 20.8336 14307.7 20.9503 14307.8 20.9571C14308.2 20.9777 14308.4 20.8542 14308.7 20.7787C14308.8 20.7307 14309 20.7375 14309.1 20.6826C14309.4 20.5729 14309.6 20.3532 14309.8 20.1268C14309.8 20.1199 14309.8 20.0857 14309.8 20.0994C14309.8 20.1818 14309.9 20.2709 14310 20.2915C14310.1 20.3052 14310.2 20.2229 14310.2 20.1337C14310.6 19.3789 14311 18.6378 14311.4 17.8624C14311.4 17.9173 14311.4 17.9516 14311.4 17.9996C14311.5 18.0957 14311.5 18.2124 14311.6 18.2673C14311.7 18.3084 14311.8 18.2398 14311.8 18.1643C14311.8 18.0683 14311.8 17.9654 14311.8 17.8693C14311.9 17.8487 14311.9 17.7938 14312 17.7458C14312.1 17.7663 14312.1 17.7801 14312.2 17.7801C14312.2 17.7595 14312.2 17.7252 14312.2 17.6978C14312.3 17.6291 14312.3 17.5742 14312.4 17.5536C14312.5 17.5467 14312.5 17.5468 14312.5 17.5262C14312.6 17.4645 14312.6 17.3889 14312.7 17.3203C14312.7 17.2929 14312.8 17.2312 14312.8 17.1969Z" fill="#FE0000" stroke="#FE0000" stroke-width="0.003775" stroke-miterlimit="10"/>
<path d="M14312 17.2792C14312 17.2655 14312 17.2174 14312 17.2449C14312.1 17.2861 14312.2 17.3135 14312.2 17.2792C14312.3 17.3753 14312.3 17.4645 14312.4 17.5263C14312.3 17.5743 14312.2 17.6429 14312.1 17.7389C14312.1 17.7252 14312 17.6772 14312 17.6017C14311.9 17.4919 14312 17.3753 14312 17.2792Z" fill="#FE0000" stroke="#FE0000" stroke-width="0.003775" stroke-miterlimit="10"/>
<path d="M14322.5 17.2586C14322.6 17.2586 14322.7 17.286 14322.7 17.3066C14322.9 17.3615 14323 17.4302 14323.2 17.5331C14323.1 17.7184 14323 17.8967 14322.8 18.0614C14322.7 18.0888 14322.5 18.082 14322.4 17.9997C14322.4 17.9859 14322.3 17.9722 14322.4 17.9517C14322.5 17.7458 14322.5 17.4988 14322.5 17.2586Z" fill="#FE0000" stroke="#FE0000" stroke-width="0.003775" stroke-miterlimit="10"/>
<path d="M14310.5 17.8075C14310.5 17.6359 14310.7 17.4919 14310.8 17.437C14311 17.5674 14311.1 17.6566 14311.3 17.6978C14311.3 17.7389 14311.3 17.7801 14311.3 17.8144C14311.2 17.9996 14311.2 18.1781 14311.1 18.3496C14310.9 18.3496 14310.7 18.281 14310.5 18.1437C14310.5 18.0408 14310.5 17.9241 14310.5 17.8075Z" fill="#FE0000" stroke="#FE0000" stroke-width="0.003775" stroke-miterlimit="10"/>
<path d="M14311.4 17.4987C14311.5 17.485 14311.6 17.5399 14311.7 17.5742C14311.6 17.6497 14311.6 17.7458 14311.6 17.8281C14311.6 17.8624 14311.7 17.8692 14311.7 17.8967C14311.8 17.979 14311.7 18.0751 14311.7 18.1575C14311.7 18.1986 14311.7 18.2604 14311.6 18.2261C14311.5 18.1712 14311.5 18.0614 14311.5 17.9654C14311.4 17.9036 14311.4 17.7938 14311.4 17.6909C14311.4 17.6223 14311.4 17.533 14311.4 17.4987Z" fill="#FE0000" stroke="#FE0000" stroke-width="0.003775" stroke-miterlimit="10"/>
<path d="M14311.7 17.7046C14311.7 17.5948 14311.8 17.4918 14311.9 17.485C14311.9 17.5673 14311.9 17.6496 14312 17.7183C14311.9 17.7663 14311.8 17.8281 14311.7 17.8212C14311.6 17.8143 14311.6 17.7458 14311.7 17.7046Z" fill="#FE0000" stroke="#FE0000" stroke-width="0.003775" stroke-miterlimit="10"/>
<path d="M14322.9 18.0957C14323 17.9379 14323.1 17.7457 14323.2 17.5673C14323.4 17.7457 14323.5 18.0134 14323.6 18.281C14323.6 18.377 14323.5 18.4182 14323.4 18.4251C14323.2 18.4525 14323 18.2741 14322.9 18.0957Z" fill="#FE0000" stroke="#FE0000" stroke-width="0.003775" stroke-miterlimit="10"/>
<path d="M14315.5 17.835C14315.7 17.8281 14315.9 17.8419 14316.1 17.8624C14316.3 17.883 14316.5 17.8968 14316.6 17.9517C14316.7 17.9722 14316.7 17.9928 14316.8 18.0271C14316.8 18.2124 14316.8 18.4046 14316.9 18.5692C14316.9 18.6035 14316.9 18.6378 14316.9 18.6652C14316.8 18.727 14316.8 18.7682 14316.7 18.8025C14316.5 18.8917 14316.3 18.9329 14316.1 18.9741C14316 18.9809 14316 19.0084 14315.9 18.9947C14315.7 18.9261 14315.5 18.8231 14315.4 18.6652C14315.3 18.5417 14315.2 18.3702 14315.3 18.2124C14315.3 18.1438 14315.3 18.0683 14315.4 18.0271C14315.4 17.9722 14315.5 17.9036 14315.5 17.835Z" fill="#FE0000" stroke="#FE0000" stroke-width="0.003775" stroke-miterlimit="10"/>
<path d="M14310.5 18.2261C14310.7 18.3222 14310.8 18.3907 14311 18.4045C14311 18.4045 14311 18.432 14311 18.4525C14311 18.5418 14310.9 18.631 14310.9 18.7202C14310.9 18.7476 14310.8 18.7408 14310.8 18.7408C14310.7 18.7271 14310.6 18.6859 14310.5 18.6447C14310.4 18.6241 14310.4 18.5486 14310.4 18.4937C14310.4 18.3976 14310.5 18.3153 14310.5 18.2261Z" fill="#FE0000" stroke="#FE0000" stroke-width="0.003775" stroke-miterlimit="10"/>
<path d="M14323.2 18.4732C14323.3 18.4869 14323.5 18.4869 14323.6 18.3565C14323.7 18.5418 14323.7 18.7339 14323.7 18.926C14323.6 19.0838 14323.5 19.18 14323.3 19.1525C14323.2 19.0221 14323.2 18.8643 14323.2 18.7133C14323.2 18.6379 14323.2 18.5555 14323.2 18.4732Z" fill="#FE0000" stroke="#FE0000" stroke-width="0.003775" stroke-miterlimit="10"/>
<path d="M14310.2 18.9123C14310.2 18.8025 14310.3 18.7407 14310.4 18.6996C14310.5 18.6858 14310.5 18.7064 14310.5 18.7133C14310.6 18.7545 14310.7 18.7888 14310.9 18.7956C14310.8 18.9946 14310.7 19.1936 14310.6 19.3857C14310.5 19.4475 14310.5 19.4338 14310.4 19.4201C14310.3 19.3789 14310.2 19.2965 14310.2 19.1936C14310.2 19.1044 14310.1 19.0015 14310.2 18.9123Z" fill="#FE0000" stroke="#FE0000" stroke-width="0.003775" stroke-miterlimit="10"/>
<path d="M14316.6 18.8917C14316.7 18.8505 14316.8 18.7819 14316.9 18.6927C14317 18.8093 14317.1 18.9054 14317.3 18.9603C14317.3 18.974 14317.3 19.0495 14317.3 19.0906C14317.2 19.2142 14317.1 19.3034 14317 19.3857C14317 19.4132 14316.9 19.4543 14316.9 19.4475C14316.7 19.4338 14316.4 19.4338 14316.2 19.3309C14316.1 19.276 14316 19.1662 14316 19.0426C14316.2 19.0152 14316.4 18.9741 14316.6 18.8917Z" fill="#FE0000" stroke="#FE0000" stroke-width="0.003775" stroke-miterlimit="10"/>
<path d="M14317.4 19.0015C14317.6 19.0769 14317.8 19.1044 14318 19.1044C14318 19.4406 14317.6 19.6877 14317.3 19.7014C14317.2 19.6877 14317 19.6397 14317 19.5025C14317.1 19.4064 14317.2 19.3103 14317.3 19.1594C14317.4 19.1113 14317.4 19.0564 14317.4 19.0015Z" fill="#FE0000" stroke="#FE0000" stroke-width="0.003775" stroke-miterlimit="10"/>
<path d="M14323.5 19.1662C14323.6 19.1387 14323.7 19.0838 14323.7 19.0358C14323.7 19.2348 14323.7 19.4338 14323.7 19.6327C14323.7 19.7082 14323.6 19.7631 14323.5 19.7974C14323.4 19.8317 14323.3 19.8043 14323.3 19.7563C14323.2 19.5847 14323.2 19.3926 14323.3 19.2279C14323.4 19.2142 14323.5 19.2074 14323.5 19.1662Z" fill="#FE0000" stroke="#FE0000" stroke-width="0.003775" stroke-miterlimit="10"/>
<path d="M14318.1 19.1113C14318.2 19.125 14318.4 19.1456 14318.5 19.2348C14318.5 19.2897 14318.5 19.3857 14318.5 19.4544C14318.4 19.6053 14318.3 19.7289 14318.2 19.8455C14317.9 19.7769 14317.7 19.7563 14317.5 19.7289C14317.7 19.674 14317.9 19.5573 14318 19.3789C14318 19.2965 14318.1 19.2005 14318.1 19.1113Z" fill="#FE0000" stroke="#FE0000" stroke-width="0.003775" stroke-miterlimit="10"/>
<path d="M14309.9 19.5779C14310 19.4544 14310.1 19.3652 14310.2 19.2897C14310.2 19.3995 14310.4 19.4818 14310.5 19.4887C14310.4 19.6945 14310.3 19.8936 14310.2 20.1063C14310.2 20.1612 14310.1 20.2092 14310 20.2366C14310 20.2572 14309.9 20.2572 14309.9 20.216C14309.9 20.1611 14309.8 20.0857 14309.8 20.0102C14309.9 19.8661 14309.8 19.7083 14309.9 19.5779Z" fill="#FE0000" stroke="#FE0000" stroke-width="0.003775" stroke-miterlimit="10"/>
<path d="M14317.3 19.7701C14317.3 19.7564 14317.3 19.7632 14317.4 19.7632C14317.6 19.7907 14317.9 19.8181 14318.1 19.873C14318.1 19.8936 14318.1 19.9142 14318 19.9279C14317.8 20.0583 14317.6 20.1955 14317.4 20.2915C14317.4 20.3258 14317.3 20.3533 14317.2 20.2915C14317.1 20.2366 14317.1 20.1818 14317 20.1269C14317 20.0445 14317 19.9553 14317.1 19.9005C14317.1 19.8456 14317.2 19.8044 14317.3 19.7701Z" fill="#FE0000" stroke="#FE0000" stroke-width="0.003775" stroke-miterlimit="10"/>
<path d="M14323 19.9965C14323.1 19.9004 14323.1 19.8249 14323.2 19.7906C14323.3 19.818 14323.3 19.8523 14323.4 19.8592C14323.5 19.8729 14323.6 19.8386 14323.6 19.7906C14323.6 19.9759 14323.5 20.1749 14323.4 20.3052C14323.3 20.3944 14323.2 20.367 14323.1 20.3052C14323 20.2092 14323 20.1063 14323 19.9965Z" fill="#FE0000" stroke="#FE0000" stroke-width="0.003775" stroke-miterlimit="10"/>
<path d="M14314.2 19.9621C14314.3 19.9141 14314.3 19.9072 14314.4 19.9278C14314.4 19.9415 14314.4 19.9827 14314.5 20.0033C14314.5 20.0239 14314.6 20.0376 14314.6 20.065C14314.7 20.1268 14314.7 20.2092 14314.8 20.2709C14314.9 20.4219 14315.1 20.5248 14315.3 20.5934C14315.4 20.6209 14315.5 20.6277 14315.6 20.6551C14315.4 20.7443 14315.2 20.8404 14315 20.9228C14314.9 20.7238 14314.8 20.5797 14314.5 20.5317C14314.4 20.5111 14314.3 20.4768 14314.2 20.4287C14314.1 20.4013 14314.1 20.3807 14314.1 20.3189C14314.1 20.3052 14314.2 20.2503 14314.2 20.1611C14314.2 20.0993 14314.2 20.0238 14314.2 19.9621Z" fill="#FE0000" stroke="#FE0000" stroke-width="0.003775" stroke-miterlimit="10"/>
<path d="M14313.5 20.2366C14313.6 20.0994 14313.7 19.9964 14313.8 19.9758C14313.9 19.9621 14314 19.969 14314.1 20.0102C14314.2 20.0376 14314.2 20.0994 14314.2 20.1474C14314.2 20.2023 14314.1 20.2435 14314.1 20.2641C14314 20.2366 14314 20.168 14313.9 20.1474C14313.8 20.0856 14313.7 20.1611 14313.5 20.2366Z" fill="#FE0000" stroke="#FE0000" stroke-width="0.003775" stroke-miterlimit="10"/>
<path d="M14320.4 20.1887C14320.5 20.1338 14320.7 20.1337 14320.8 20.1543C14320.9 20.1612 14320.9 20.2298 14320.9 20.2915C14320.9 20.3464 14320.8 20.3808 14320.8 20.4151C14320.6 20.319 14320.4 20.2984 14320.3 20.3876C14320.3 20.2984 14320.4 20.2161 14320.4 20.1887Z" fill="#FE0000" stroke="#FE0000" stroke-width="0.003775" stroke-miterlimit="10"/>
<path d="M14316.7 20.2572C14316.8 20.1954 14316.9 20.1886 14317 20.1886C14317.1 20.2641 14317.2 20.3738 14317.3 20.3944C14317.2 20.5111 14317.1 20.6209 14317 20.6278C14316.8 20.6346 14316.7 20.5523 14316.6 20.4562C14316.6 20.3807 14316.6 20.3052 14316.7 20.2572Z" fill="#FE0000" stroke="#FE0000" stroke-width="0.003775" stroke-miterlimit="10"/>
<path d="M14306.8 20.5043C14306.8 20.4151 14306.9 20.3327 14307 20.3052C14307.2 20.2709 14307.3 20.3258 14307.5 20.4082C14307.5 20.4288 14307.5 20.4631 14307.5 20.4974C14307.5 20.5935 14307.4 20.6209 14307.3 20.6072C14307.2 20.5455 14307.1 20.47 14307 20.4563C14307 20.4288 14306.9 20.4631 14306.8 20.5043Z" fill="#FE0000" stroke="#FE0000" stroke-width="0.003775" stroke-miterlimit="10"/>
<path d="M14307.5 20.4013C14307.6 20.3945 14307.6 20.3945 14307.7 20.4013C14307.8 20.4356 14308 20.5317 14308.1 20.621C14308.3 20.6827 14308.5 20.7238 14308.6 20.7444C14308.4 20.8268 14308.1 20.9228 14307.8 20.9022C14307.7 20.8954 14307.6 20.8131 14307.4 20.7994C14307.4 20.7925 14307.3 20.8131 14307.3 20.7719C14307.2 20.7444 14307.3 20.6964 14307.3 20.6621C14307.3 20.6621 14307.4 20.6621 14307.5 20.5935C14307.5 20.5317 14307.5 20.4631 14307.5 20.4013Z" fill="#FE0000" stroke="#FE0000" stroke-width="0.003775" stroke-miterlimit="10"/>
<path d="M14313.1 21.2042C14313.1 21.0189 14313.3 20.8748 14313.5 20.8268C14313.5 20.8199 14313.6 20.8062 14313.6 20.8336C14313.7 20.9022 14313.7 21.0189 14313.6 21.0738C14313.6 21.0875 14313.6 21.115 14313.6 21.0944C14313.5 21.0601 14313.4 21.0601 14313.3 21.0875C14313.2 21.1081 14313.1 21.163 14313.1 21.2042Z" fill="#FE0000" stroke="#FE0000" stroke-width="0.003775" stroke-miterlimit="10"/>
<path d="M14320.2 21.1012C14320.3 21.0051 14320.4 20.9571 14320.5 20.9091C14320.6 20.9845 14320.6 21.0875 14320.6 21.1904C14320.5 21.1904 14320.3 21.163 14320.2 21.2179C14320.1 21.2385 14320.1 21.2865 14320 21.314C14320.1 21.2385 14320.1 21.1561 14320.2 21.1012Z" fill="#FE0000" stroke="#FE0000" stroke-width="0.003775" stroke-miterlimit="10"/>
<path d="M14306.6 21.1012C14306.7 21.012 14306.9 21.012 14307.1 21.0326C14307.1 21.0394 14307.2 21.0943 14307.2 21.1424C14307.2 21.2179 14307.2 21.2727 14307.1 21.3139C14306.9 21.2384 14306.7 21.2178 14306.5 21.2796C14306.5 21.2864 14306.4 21.3139 14306.4 21.307C14306.5 21.2316 14306.5 21.1423 14306.6 21.1012Z" fill="#FE0000" stroke="#FE0000" stroke-width="0.003775" stroke-miterlimit="10"/>
<path d="M14311.2 21.4099C14311.3 21.4031 14311.4 21.4512 14311.5 21.5541C14311.6 21.609 14311.6 21.6913 14311.6 21.7668C14311.5 21.7119 14311.5 21.6638 14311.3 21.6638C14311.3 21.657 14311.2 21.6913 14311.1 21.705C14311.1 21.6158 14311.1 21.506 14311.2 21.4099Z" fill="#FE0000" stroke="#FE0000" stroke-width="0.003775" stroke-miterlimit="10"/>
<path d="M14317.6 21.6776C14317.6 21.6021 14317.6 21.5335 14317.7 21.4786C14317.8 21.5198 14318 21.5473 14318.1 21.6502C14318.2 21.7051 14318.2 21.7805 14318.3 21.8697C14318.2 21.7737 14318 21.7051 14317.9 21.7188C14317.8 21.7256 14317.7 21.7668 14317.6 21.808C14317.6 21.7737 14317.6 21.7325 14317.6 21.6776Z" fill="#FE0000" stroke="#FE0000" stroke-width="0.003775" stroke-miterlimit="10"/>
<path d="M14324.7 21.4855C14324.9 21.4993 14325.1 21.6914 14325.2 21.9041C14325 21.7669 14324.8 21.7256 14324.6 21.7668C14324.6 21.6639 14324.6 21.5542 14324.7 21.4855Z" fill="#FE0000" stroke="#FE0000" stroke-width="0.003775" stroke-miterlimit="10"/>
<path d="M14313.7 21.6365C14313.8 21.5747 14313.9 21.5404 14314 21.5198C14314.1 21.5198 14314.2 21.5472 14314.2 21.6227C14314.2 21.6639 14314.2 21.7188 14314.2 21.7668C14314.1 21.7462 14314 21.7325 14313.9 21.7737C14313.8 21.808 14313.7 21.8697 14313.7 21.9452C14313.6 21.8354 14313.6 21.7188 14313.7 21.6365Z" fill="#FE0000" stroke="#FE0000" stroke-width="0.003775" stroke-miterlimit="10"/>
<path d="M14307 21.7394C14307.1 21.6639 14307.2 21.6159 14307.3 21.657C14307.4 21.6708 14307.4 21.6913 14307.4 21.7325C14307.4 21.7737 14307.4 21.8217 14307.4 21.856C14307.2 21.8285 14307 21.9451 14306.8 22.0892C14306.9 21.9589 14306.9 21.8286 14307 21.7394Z" fill="#FE0000" stroke="#FE0000" stroke-width="0.003775" stroke-miterlimit="10"/>
<path d="M14320.9 21.7119C14321 21.6913 14321.1 21.657 14321.1 21.705C14321.2 21.7462 14321.3 21.8148 14321.3 21.904C14321 21.904 14320.8 22.0069 14320.6 22.1099C14320.7 21.9452 14320.8 21.7805 14320.9 21.7119Z" fill="#FE0000" stroke="#FE0000" stroke-width="0.003775" stroke-miterlimit="10"/>
</svg>
