<svg width="30" height="30" viewBox="0 0 30 30" fill="none" xmlns="http://www.w3.org/2000/svg">
<path d="M5.10541 26.2536C7.74722 28.5797 11.2056 30.0001 15.007 30.0001C18.8085 30.0001 22.2669 28.5797 24.9087 26.2536H5.10541Z" fill="#CE1126"/>
<path d="M24.9018 3.74673C22.26 1.42056 18.8016 0.000167847 15.0002 0.000167847C11.2056 0.000167847 7.74718 1.42056 5.09851 3.74673H24.9018Z" fill="#CE1126"/>
<path d="M2.14776 22.7128L15 15.0001L2.14776 7.28735C0.789116 9.5449 0 12.173 0 15.0001C0 17.8272 0.795978 20.4552 2.14776 22.7128Z" fill="#007A5E"/>
<path d="M2.14777 7.28745L15 15.0002L27.8522 7.28745C27.0563 5.95625 26.0544 4.76915 24.9017 3.74673H5.10522C3.94557 4.76915 2.9506 5.96311 2.14777 7.28745Z" fill="#FCD116"/>
<path d="M27.8522 22.7129L15 15.0002L2.14777 22.7129C2.94374 24.0441 3.9387 25.2312 5.09835 26.2536H24.8948C26.0544 25.2312 27.0494 24.0372 27.8522 22.7129Z" fill="#FCD116"/>
<path d="M30.0001 15.0001C30.0001 12.1799 29.2042 9.5449 27.8524 7.28735L15.0001 15.0001L27.8524 22.7128C29.2042 20.4552 30.0001 17.8272 30.0001 15.0001Z" fill="#007A5E"/>
<path d="M13.9506 3.46533L15.0004 2.70365L16.0503 3.46533L15.6523 2.23018L16.7022 1.46853H15.4053L15.0004 0.24025L14.6024 1.46853H13.3055L14.3554 2.23018L13.9506 3.46533Z" fill="#FCD116"/>
<path d="M13.9506 29.7531L15.0004 28.9914L16.0503 29.7531L15.6523 28.5179L16.7022 27.7563H15.4053L15.0004 26.5211L14.6024 27.7563H13.3055L14.3554 28.5179L13.9506 29.7531Z" fill="#FCD116"/>
<path d="M0.933459 13.3464C1.13245 14.1355 0.652124 14.9521 0.933459 15.7343C1.13931 16.297 1.7363 16.5509 2.28524 16.647C2.1137 16.3931 1.99019 16.1186 1.92844 15.8373C1.86668 15.5697 1.84608 15.2952 1.87353 15.0276C2.12742 15.1305 2.36072 15.2952 2.55971 15.4873C2.77929 15.6932 2.98515 15.9265 3.12239 16.201C3.33511 15.6177 3.3008 14.856 2.80675 14.4169C2.26467 13.916 1.46868 13.8405 0.933459 13.3464Z" fill="#FCD116"/>
<path d="M1.92826 15.8373C2.15471 16.05 2.40172 16.2627 2.68992 16.3931C2.68306 16.0912 2.63502 15.7824 2.55954 15.4942C2.35369 15.3021 2.12725 15.1374 1.87336 15.0345C1.84591 15.2952 1.85965 15.5697 1.92826 15.8373Z" fill="#CE1126"/>
<path d="M18.7538 15.0001C18.7538 17.0724 17.0726 18.7467 15.0003 18.7467C12.9281 18.7467 11.2538 17.0724 11.2538 15.0001C11.2538 12.9278 12.9349 11.2467 15.0003 11.2467C17.0658 11.2467 18.7538 12.9278 18.7538 15.0001Z" fill="#CE1126"/>
<path d="M15 11.782L15.7411 14.067H18.1428L16.2008 15.4805L16.9419 17.7587L15 16.352L13.0581 17.7587L13.7992 15.4805L11.8573 14.067H14.2589L15 11.782Z" fill="#FCD116"/>
</svg>
