<svg width="30" height="30" viewBox="0 0 30 30" fill="none" xmlns="http://www.w3.org/2000/svg">
<path d="M29.7667 12.3788C28.6756 6.19628 23.8037 1.33122 17.628 0.240189V12.3788H29.7667Z" fill="#F1F4FB"/>
<path d="M12.3789 0.240189C6.19633 1.33122 1.33131 6.20314 0.24028 12.3788H12.3789V0.240189Z" fill="#F1F4FB"/>
<path d="M0.24028 17.6282C1.33131 23.8038 6.20319 28.6758 12.3789 29.7668V17.6282H0.24028Z" fill="#F1F4FB"/>
<path d="M17.628 29.7736C23.8106 28.6826 28.6825 23.8107 29.7667 17.635H17.628V29.7736Z" fill="#F1F4FB"/>
<path d="M17.6281 17.6283H29.7667C29.9177 16.7774 30 15.8991 30 15.0002C30 14.1013 29.9177 13.2298 29.7667 12.3721H17.6281V0.233453C16.7772 0.0824923 15.8989 0.000152588 15 0.000152588C14.1011 0.000152588 13.2296 0.0824923 12.3719 0.233453V12.3721H0.23328C0.0823188 13.2229 0 14.1013 0 15.0002C0 15.8991 0.0823188 16.7705 0.23328 17.6283H12.3719V29.7669C13.2227 29.9178 14.1011 30.0002 15 30.0002C15.892 30.0002 16.7703 29.9178 17.6281 29.7669V17.6283Z" fill="#ED1C24"/>
<path d="M6.01096 19.5015C6.66283 19.5839 7.32155 19.5839 7.9597 19.5015C7.82932 20.1808 7.75386 20.867 7.71955 21.5463C8.40574 21.512 9.09192 21.4297 9.77124 21.3062C9.6889 21.9512 9.6889 22.6099 9.77124 23.2618C9.09192 23.1314 8.40574 23.056 7.71955 23.0217C7.75386 23.7078 7.83619 24.394 7.9597 25.0665C7.31468 24.9841 6.65597 24.9841 6.01096 25.0665C6.14133 24.3872 6.22366 23.701 6.2511 23.0148C5.56492 23.056 4.87874 23.1314 4.19942 23.2618C4.28176 22.6099 4.28176 21.9581 4.19942 21.3062C4.87874 21.4366 5.56492 21.512 6.2511 21.5532C6.22366 20.867 6.14819 20.1808 6.01096 19.5015Z" fill="#E8112D"/>
<path d="M22.0401 19.5015C22.692 19.5839 23.3438 19.5839 23.9889 19.5015C23.8585 20.1808 23.783 20.867 23.7487 21.5463C24.4349 21.512 25.1279 21.4297 25.8004 21.3062C25.7181 21.9512 25.7181 22.6099 25.8004 23.2618C25.1279 23.1314 24.4349 23.056 23.7487 23.0217C23.783 23.7078 23.8653 24.394 23.9889 25.0665C23.3438 24.9841 22.6851 24.9841 22.0401 25.0665C22.1705 24.3872 22.246 23.701 22.2803 23.0148C21.5941 23.056 20.9079 23.1314 20.2286 23.2618C20.3109 22.6099 20.3109 21.9581 20.2286 21.3062C20.9079 21.4366 21.5941 21.512 22.2803 21.5532C22.246 20.867 22.1705 20.1808 22.0401 19.5015Z" fill="#E8112D"/>
<path d="M6.01096 4.9407C6.66283 5.02305 7.32155 5.02305 7.9597 4.9407C7.82932 5.62003 7.75386 6.3062 7.71955 6.98552C8.40574 6.95121 9.09192 6.86889 9.77124 6.74537C9.6889 7.39725 9.6889 8.04911 9.77124 8.70099C9.09192 8.57061 8.40574 8.49515 7.71955 8.46084C7.75386 9.14702 7.83619 9.8332 7.9597 10.5057C7.31468 10.4233 6.65597 10.4233 6.01096 10.5057C6.14133 9.82633 6.22366 9.14015 6.2511 8.45397C5.56492 8.49514 4.87874 8.57061 4.19942 8.70099C4.28176 8.04911 4.28176 7.39725 4.19942 6.74537C4.87874 6.87575 5.56492 6.95122 6.2511 6.99239C6.22366 6.30621 6.14819 5.62003 6.01096 4.9407Z" fill="#E8112D"/>
<path d="M22.0401 4.9407C22.692 5.02305 23.3438 5.02305 23.9889 4.9407C23.8585 5.62003 23.783 6.3062 23.7487 6.98552C24.4349 6.95121 25.1279 6.86889 25.8004 6.74537C25.7181 7.39725 25.7181 8.04911 25.8004 8.70099C25.1279 8.57061 24.4349 8.49515 23.7487 8.46084C23.783 9.14702 23.8653 9.8332 23.9889 10.5057C23.3438 10.4233 22.6851 10.4233 22.0401 10.5057C22.1705 9.82633 22.246 9.14015 22.2803 8.45397C21.5941 8.49514 20.9079 8.57061 20.2286 8.70099C20.3109 8.04911 20.3109 7.39725 20.2286 6.74537C20.9079 6.87575 21.5941 6.95122 22.2803 6.99239C22.246 6.30621 22.1705 5.62003 22.0401 4.9407Z" fill="#E8112D"/>
</svg>
