<svg width="30" height="30" viewBox="0 0 30 30" fill="none" xmlns="http://www.w3.org/2000/svg">
<path d="M15 30.0002C21.0522 30.0002 26.2672 26.4114 28.6345 21.2513H1.36554C3.73974 26.4114 8.94788 30.0002 15 30.0002Z" fill="#006B3F"/>
<path d="M15 0.000167847C8.94788 0.000167847 3.73288 3.58891 1.36554 8.74902H28.6345C26.2672 3.58891 21.0522 0.000167847 15 0.000167847Z" fill="#CE1126"/>
<path d="M0 15.0001C0 17.2302 0.494052 19.3505 1.36551 21.2513H28.6345C29.5059 19.3505 30 17.2302 30 15.0001C30 12.77 29.5059 10.6497 28.6345 8.74899H1.36551C0.494052 10.6497 0 12.77 0 15.0001Z" fill="#FCD116"/>
<path d="M15.0072 9.29112L16.4208 13.6552H21.0045L17.2922 16.3451L18.7126 20.7092L15.0072 18.0125L11.295 20.7092L12.7085 16.3451L9.00311 13.6552H13.5868L15.0072 9.29112Z" fill="black"/>
</svg>
