<svg width="30" height="30" viewBox="0 0 30 30" fill="none" xmlns="http://www.w3.org/2000/svg">
<path d="M30 15.0002C30 6.71793 23.2822 0.000167847 15 0.000167847C6.71775 0.000167847 0 6.71793 0 15.0002C0 16.7294 0.308782 18.3899 0.850868 19.9338H29.156C29.6912 18.3831 30 16.7294 30 15.0002Z" fill="#F1F4FB"/>
<path d="M15.0001 30.0002C21.5532 30.0002 27.1113 25.7939 29.1561 19.9338H0.851013C2.89584 25.7939 8.44708 30.0002 15.0001 30.0002Z" fill="#DA000C"/>
<path d="M16.6743 6.13466H13.3326V18.4654H16.6743V6.13466Z" fill="black"/>
<path d="M20.6542 7.09534H18.3006V18.1635H20.6542V7.09534Z" fill="black"/>
<path d="M11.6995 7.09534H9.34592V18.1635H11.6995V7.09534Z" fill="black"/>
<path d="M12.1591 18.1635H8.20671L7.3078 18.7536V19.3849H12.166V18.1635H12.1591Z" fill="#DA000C"/>
<path d="M7.27362 19.4124V18.7399L8.19311 18.136H12.1593H12.1867V19.4124H7.27362ZM7.32851 18.7673V19.3575H12.1318V18.191H8.21369L7.32851 18.7673Z" fill="black"/>
<path d="M7.28049 18.7811V18.7262H12.1867V18.7811H7.28049Z" fill="black"/>
<path d="M17.8478 19.3849H22.706V18.7536L21.8071 18.1635H17.8547V19.3849H17.8478Z" fill="#DA000C"/>
<path d="M17.8477 19.4124H17.8202V18.136H21.807L22.7264 18.7399V19.4124H17.8477ZM17.8751 19.3575H22.6784V18.7673L21.7932 18.191H17.8751V19.3575Z" fill="black"/>
<path d="M17.8202 18.7811V18.7262H22.7264V18.7811H17.8202Z" fill="black"/>
<path d="M12.1453 18.4654L11.1298 18.9595V19.6937H15.0067H18.8837V18.9595L17.8681 18.4654H15.0067H12.1453Z" fill="#DA000C"/>
<path d="M15 19.7211H11.0956V18.9457L12.1317 18.4448H12.1386H15H17.8614L18.9044 18.9526V19.728H15V19.7211ZM11.1505 18.98V19.6662H15H18.8495V18.98L17.8477 18.4929H14.9931H12.1386L11.1505 18.98Z" fill="black"/>
<path d="M11.1231 18.9869V18.932H18.877V18.9869H11.1231Z" fill="black"/>
<path d="M10.4371 15.5354C10.9929 15.5354 11.4389 16.0226 11.4389 16.6264V18.1703H12.1594V12.3309H8.20697V18.1703H9.43524V16.6264C9.43524 16.0431 9.8744 15.5354 10.4371 15.5354Z" fill="#DA000C"/>
<path d="M8.17935 18.1909V12.3035H12.1867V18.1909H11.4113V16.6264C11.4113 16.0363 10.9721 15.5628 10.4369 15.5628V15.5354V15.5079C11.0064 15.5079 11.4662 16.0089 11.4662 16.6264V18.136H12.1318V12.3515H8.23425V18.136H9.40763V16.6264C9.40763 16.0363 9.86051 15.5079 10.4369 15.5079V15.5354V15.5628C9.89482 15.5628 9.46251 16.0638 9.46251 16.6264V18.1909H8.17935Z" fill="black"/>
<path d="M12.5364 11.8575H7.82916V12.331H12.5364V11.8575Z" fill="#DA000C"/>
<path d="M7.80194 12.3515V11.8506V11.8231H12.5641V12.3446H7.80194V12.3515ZM7.85684 12.3035H12.516V11.8849H7.85684V12.3035Z" fill="black"/>
<path d="M14.6704 19.0487C14.4577 19.2408 14.4851 19.4673 14.4851 19.4673L15.0066 19.2683L15.3566 19.0213C15.4732 18.9321 15.583 18.8497 15.7203 18.7537C15.9467 18.6027 16.1869 18.4586 16.3927 18.3419C16.5986 18.2253 16.7838 18.1429 16.8525 18.1224L16.7495 17.7724C16.6123 17.8136 16.4339 17.9028 16.2143 18.0194C15.9947 18.143 15.7477 18.2939 15.5144 18.4449C15.5213 18.4517 14.8008 18.9252 14.6704 19.0487Z" fill="#F8D80E"/>
<path d="M14.4647 19.4742C14.4647 19.4742 14.4647 19.4673 14.4647 19.4467C14.4647 19.3781 14.4784 19.1928 14.6569 19.035C14.7941 18.9115 15.5077 18.438 15.5146 18.438C15.7479 18.2802 15.9949 18.1292 16.2145 18.0126C16.4341 17.8891 16.6125 17.7999 16.7566 17.7587L16.7772 17.7518L16.8938 18.143L16.8732 18.1498C16.8046 18.1704 16.6262 18.2528 16.4135 18.3625C16.2076 18.4792 15.9675 18.6233 15.741 18.7743C15.6038 18.8635 15.494 18.9527 15.3773 19.0419L15.0205 19.2957L14.4716 19.5016L14.4647 19.4742ZM14.5059 19.4399L14.9999 19.2546L15.3499 19.0076C15.4665 18.9184 15.5763 18.836 15.7136 18.7399C15.94 18.589 16.1802 18.4449 16.386 18.3282C16.5782 18.2253 16.7497 18.143 16.8321 18.1155L16.7428 17.8067C16.6056 17.8479 16.4409 17.9371 16.2351 18.0469C16.0155 18.1704 15.7685 18.3145 15.5352 18.4723C15.5352 18.4723 14.8147 18.9527 14.6843 19.0693C14.5265 19.2066 14.5059 19.3781 14.5059 19.4399Z" fill="black"/>
<path d="M12.907 25.7665V26.6037H13.4353V26.1851H14.1421V26.6037H14.7116V25.7665H12.907Z" fill="#F8D80E"/>
<path d="M14.1148 26.631V26.2125H13.456V26.631H12.8796V25.7665V25.739H14.7323V26.631H14.1148ZM14.1697 26.1576V26.5762H14.6774V25.7939H12.9277V26.5762H13.4011V26.1576H14.1697Z" fill="black"/>
<path d="M12.907 27.0016V27.8456H14.7116V27.0016H14.1421V27.4201H13.4353V27.0016H12.907Z" fill="#F8D80E"/>
<path d="M12.8796 27.873V27.0085V26.981H13.456V27.3996H14.1148V26.981H14.7323V27.873H12.8796ZM12.9345 27.8182H14.6843V27.0291H14.1765V27.4476H13.408V27.0291H12.9345V27.8182Z" fill="black"/>
<path d="M15.2266 22.2738H14.7051V28.6484H15.2266V22.2738Z" fill="#F8D80E"/>
<path d="M14.6774 28.6759V22.2738V22.2463H15.2538V28.6759H14.6774ZM14.7323 28.621H15.1989V22.3012H14.7323V28.621Z" fill="black"/>
<path d="M14.9658 20.7916L16.0705 21.4366L14.9658 22.0748L13.861 21.4366L14.9658 20.7916ZM13.4836 21.2033H13.0856V21.6631H13.4836L14.9658 22.5208L16.4479 21.6631H16.8459V21.2033H16.4479L14.9658 20.3456L13.4836 21.2033Z" fill="#F8D80E"/>
<path d="M13.4766 21.6974H13.058V21.1827H13.4766L14.9656 20.3181L16.4546 21.1827H16.8732V21.6974H16.4546L14.9656 22.562L13.4766 21.6974ZM13.1198 21.6425H13.4972L14.9725 22.5002L16.4478 21.6425H16.8252V21.2376H16.4478L14.9725 20.3799L13.504 21.2308L13.4972 21.2376H13.1198V21.6425ZM13.806 21.4366L14.9519 20.771L14.9656 20.7642L16.1253 21.4435L14.9656 22.1159L13.806 21.4366ZM13.9157 21.4366L14.9656 22.0473L16.0223 21.4366L14.9656 20.8259L13.9157 21.4366Z" fill="black"/>
<path d="M15.2266 23.0148H14.7051V28.0171H15.2266V23.0148Z" fill="#F8D80E"/>
<path d="M14.6774 28.0377V23.008V22.9805H15.2538V28.0377H14.6774ZM14.7323 27.9897H15.1989V23.0423H14.7323V27.9897Z" fill="black"/>
<path d="M14.9657 21.1759C14.7941 21.1759 14.6569 21.0386 14.6569 20.8671V19.7486C14.6569 19.5771 14.7941 19.4398 14.9657 19.4398C15.1372 19.4398 15.2745 19.5771 15.2745 19.7486V20.524L15.4803 20.6407V19.6045C15.4803 19.3918 15.247 19.2134 14.9657 19.2134C14.6775 19.2134 14.451 19.3918 14.451 19.6045V21.018C14.451 21.2308 14.6844 21.4092 14.9657 21.4092C15.2196 21.4092 15.4323 21.2719 15.4735 21.0867L15.2608 20.9632C15.2264 21.0867 15.1098 21.1759 14.9657 21.1759Z" fill="#F8D80E"/>
<path d="M14.4235 21.0112V19.5976C14.4235 19.3643 14.6705 19.1791 14.9656 19.1791C15.2606 19.1791 15.5077 19.3575 15.5077 19.5976V20.6818L15.2469 20.5309V19.7418C15.2469 19.5839 15.1234 19.4604 14.9656 19.4604C14.8078 19.4604 14.6842 19.5908 14.6842 19.7418V20.8602C14.6842 21.018 14.8078 21.1416 14.9656 21.1416V21.169V21.1965C14.7803 21.1965 14.6293 21.0455 14.6293 20.8602V19.7418C14.6293 19.5565 14.7803 19.4055 14.9656 19.4055C15.1508 19.4055 15.3018 19.5565 15.3018 19.7418V20.5034L15.4528 20.5926V19.5976C15.4528 19.4055 15.24 19.234 14.9656 19.234C14.6911 19.234 14.4784 19.4055 14.4784 19.5976V21.0112C14.4784 21.2033 14.6911 21.3749 14.9656 21.3749C15.1989 21.3749 15.391 21.2513 15.439 21.0935L15.2744 20.9975C15.2263 21.121 15.1028 21.2033 14.9656 21.2033V21.1759V21.1484C15.0959 21.1484 15.1989 21.0661 15.2401 20.9494L15.2469 20.9151L15.5008 21.0661V21.0867C15.4528 21.2857 15.2332 21.4298 14.9656 21.4298C14.6705 21.4298 14.4235 21.2513 14.4235 21.0112Z" fill="black"/>
<path d="M15.1167 19.4193C15.103 19.5154 14.9863 19.5291 14.9589 19.5222C14.8422 19.5085 14.8491 19.4605 14.8491 19.4605C14.8491 19.4605 14.7736 19.4879 14.6775 19.632C14.6432 19.6801 14.6775 19.7898 14.753 19.8516C14.8628 19.9408 15.0618 19.9408 15.2127 19.8241C15.35 19.7144 15.4941 19.5222 15.4323 19.2546C15.3843 19.035 15.3294 18.9801 15.2608 18.9184C15.1098 18.7743 14.8902 18.6508 14.6569 18.4998C14.1835 18.2116 13.6071 17.9303 13.1679 17.7656L13.0444 18.1087C13.4424 18.2528 14.0119 18.5341 14.4648 18.8086C14.6913 18.9458 14.8971 19.0693 15.0275 19.1928C15.0686 19.2409 15.1304 19.3232 15.1167 19.4193Z" fill="#F8D80E"/>
<path d="M14.7392 19.8721C14.6774 19.8241 14.6431 19.7486 14.6431 19.6869C14.6431 19.6663 14.65 19.6457 14.6637 19.6251C14.7598 19.481 14.8421 19.4467 14.8421 19.4467H14.849L14.8558 19.4673H14.8696C14.8696 19.4673 14.8696 19.4741 14.8764 19.4741C14.8833 19.481 14.9107 19.4947 14.9656 19.5016C14.9656 19.5016 14.9725 19.5016 14.9794 19.5016C15.0205 19.5016 15.096 19.481 15.1097 19.4124C15.1097 19.4055 15.1097 19.3987 15.1097 19.3849C15.1097 19.3095 15.0617 19.2477 15.0205 19.2065C14.8902 19.0899 14.6843 18.9595 14.4579 18.8223C14.005 18.5478 13.4354 18.2665 13.0375 18.1224L13.0169 18.1155L13.1541 17.7312L13.1747 17.7381C13.6139 17.8959 14.1902 18.1841 14.6637 18.4723C14.897 18.6164 15.1235 18.7399 15.2744 18.8909C15.343 18.9595 15.4048 19.0213 15.4528 19.2408C15.4666 19.2889 15.4666 19.33 15.4666 19.3781C15.4666 19.5908 15.343 19.7418 15.2264 19.8378C15.144 19.8996 15.048 19.9339 14.9588 19.9339C14.8696 19.9408 14.7941 19.9133 14.7392 19.8721ZM14.8078 19.5084C14.7804 19.529 14.7392 19.5771 14.6912 19.6457C14.6843 19.6526 14.6774 19.6663 14.6774 19.6869C14.6774 19.7349 14.7117 19.8035 14.7598 19.8378C14.8078 19.879 14.8764 19.8996 14.9519 19.8996C15.0343 19.8996 15.1235 19.8721 15.1921 19.8104C15.3019 19.7212 15.4185 19.5771 15.4185 19.3849C15.4185 19.3438 15.4117 19.3026 15.4048 19.2614C15.3568 19.0487 15.3019 19.0007 15.2401 18.9321C15.0892 18.788 14.8764 18.6644 14.6363 18.5203C14.1697 18.239 13.607 17.9577 13.1747 17.793L13.0649 18.1018C13.4629 18.2527 14.0256 18.5272 14.4716 18.7948C14.698 18.9321 14.9039 19.0556 15.0343 19.1791C15.0754 19.2203 15.1372 19.2889 15.1372 19.3849C15.1372 19.3918 15.1372 19.4055 15.1372 19.4124C15.1166 19.5153 15.0137 19.5359 14.9656 19.5359C14.9588 19.5359 14.9519 19.5359 14.9519 19.5359C14.8833 19.529 14.849 19.5084 14.8284 19.4879C14.8284 19.4947 14.8215 19.5016 14.8078 19.5084Z" fill="black"/>
<path d="M13.3394 18.2253L13.4903 17.9028L13.5315 17.9234L13.3737 18.2459L13.3394 18.2253Z" fill="black"/>
<path d="M13.6688 18.3694L13.8129 18.0743L13.8472 18.0881L13.7031 18.39L13.6688 18.3694Z" fill="black"/>
<path d="M13.9638 18.5272L14.1422 18.2184L14.1766 18.239L13.9981 18.5478L13.9638 18.5272Z" fill="black"/>
<path d="M14.2383 18.6782L14.4304 18.3831L14.4647 18.4037L14.2726 18.6988L14.2383 18.6782Z" fill="black"/>
<path d="M14.5265 18.8497L14.7324 18.5616L14.7667 18.5821L14.5608 18.8772L14.5265 18.8497Z" fill="black"/>
<path d="M14.7872 19.0007L15.0068 18.7399L15.0343 18.7674L14.8147 19.0281L14.7872 19.0007Z" fill="black"/>
<path d="M15.0274 19.2065L15.2333 18.9046L15.2676 18.932L15.0617 19.2271L15.0274 19.2065Z" fill="black"/>
<path d="M15.1303 19.3644L15.4322 19.3575V19.3987L15.1303 19.4055V19.3644Z" fill="black"/>
<path d="M15.0274 19.529L15.0617 19.5085L15.2401 19.7761L15.199 19.8035L15.0274 19.529Z" fill="black"/>
<path d="M14.7186 19.8104L14.8695 19.5153L14.9107 19.5359L14.7529 19.831L14.7186 19.8104Z" fill="black"/>
<path d="M15.2401 18.6507L15.2744 18.6301L15.4665 18.9252L15.4322 18.9526L15.2401 18.6507Z" fill="black"/>
<path d="M15.4597 18.4792L15.494 18.4586L15.6724 18.7674L15.6381 18.788L15.4597 18.4792Z" fill="black"/>
<path d="M15.7067 18.342L15.741 18.3282L15.8782 18.637L15.837 18.6507L15.7067 18.342Z" fill="black"/>
<path d="M15.94 18.1773L15.9812 18.1635L16.1184 18.4929L16.0773 18.5066L15.94 18.1773Z" fill="black"/>
<path d="M16.1802 18.0469L16.2214 18.0263L16.3518 18.3694L16.3174 18.3831L16.1802 18.0469Z" fill="black"/>
<path d="M16.434 17.9097L16.4752 17.8959L16.5918 18.2322L16.5507 18.2459L16.434 17.9097Z" fill="black"/>
<path d="M14.6225 19.1036L14.6431 19.0693L14.8078 19.1997L14.7803 19.234L14.6225 19.1036Z" fill="black"/>
<path d="M22.1774 11.8575H17.4702V12.331H22.1774V11.8575Z" fill="#DA000C"/>
<path d="M17.4429 12.3515V11.8506V11.8231H22.205V12.3446H17.4429V12.3515ZM17.4909 12.3035H22.1501V11.8849H17.4909V12.3035Z" fill="black"/>
<path d="M9.24316 7.0953V10.7664H9.87445V9.7577C9.87445 9.3803 10.1352 9.07152 10.5126 9.05093C10.5263 9.05093 10.5332 9.05093 10.5469 9.05093C10.938 9.05093 11.2537 9.36658 11.2537 9.7577V10.7664H11.8575V7.08846H9.24316V7.0953Z" fill="#DA000C"/>
<path d="M11.226 10.8007V9.76459C11.226 9.38719 10.9241 9.08525 10.5467 9.08525C10.5398 9.08525 10.5329 9.08525 10.5261 9.08525C10.5192 9.08525 10.5192 9.08525 10.5123 9.08525C10.1555 9.10584 9.90164 9.39404 9.90164 9.75772C9.90164 9.75772 9.90164 9.75773 9.90164 9.76459V10.8007H9.21545V7.10219V7.07474H11.8847V10.8076H11.226V10.8007ZM11.2809 9.76459V10.7458H11.8298V7.12278H9.26349V10.739H9.84675V9.75772V9.75085C9.84675 9.36659 10.1212 9.04409 10.5055 9.0235C10.5123 9.0235 10.5123 9.0235 10.5192 9.0235C10.5261 9.0235 10.5329 9.0235 10.5398 9.0235C10.9515 9.03036 11.2809 9.35974 11.2809 9.76459Z" fill="black"/>
<path d="M12.5365 11.3702H9.87406V10.7664H8.63892V11.3702H7.80178V10.7664H7.29401V11.8574H12.5365V11.3702Z" fill="#DA000C"/>
<path d="M7.27362 11.8849V10.7458H7.82943V11.3428H8.61854V10.7458H9.90857V11.3428H12.5435H12.571V11.8849H7.27362ZM7.32165 11.83H12.5092V11.3977H9.84681V10.8007H8.65971V11.3977H7.76766V10.8007H7.32165V11.83Z" fill="black"/>
<path d="M13.2092 6.13463V10.7732H14.1767V9.40087C14.1767 9.08523 14.3825 8.64607 15.0001 8.64607C15.6245 8.64607 15.8304 9.08523 15.8304 9.40087V10.7732H16.7979V6.13463H15.0001H13.2092ZM14.856 6.65614H15.007H15.1579V8.24122H15.007H14.856V6.65614ZM13.9914 6.96491H14.2933V8.12456H13.9914V6.96491ZM15.7069 6.96491H16.0088V8.12456H15.7069V6.96491Z" fill="#DA000C"/>
<path d="M13.1817 10.8007V6.13466V6.10721H15.0069H16.8322V10.8007H15.8098V9.40091C15.8098 9.09212 15.6176 8.66668 15.0069 8.66668C14.3962 8.66668 14.211 9.09212 14.2041 9.40091V10.8007H13.1817ZM13.2297 10.7458H14.1492V9.40091C14.1492 9.23622 14.2041 9.03723 14.3345 8.88627C14.4717 8.72845 14.6844 8.61865 15.0001 8.61865C15.3157 8.61865 15.5353 8.73531 15.6657 8.88627C15.8029 9.04409 15.851 9.23622 15.851 9.40091V10.7458H16.7636V6.16211H14.9932H13.2229V10.7458H13.2297ZM15.0001 8.26871H14.8217V6.65617V6.62872H15.0001H15.1785V8.26871H15.0001ZM14.8766 8.2138H15.0001H15.1236V6.67675H15.0001H14.8766V8.2138ZM15.6794 8.15205V6.96494V6.93751H16.0362V8.15205H15.6794ZM15.7343 8.10401H15.9813V6.99239H15.7343V8.10401ZM13.964 8.15205V6.96494V6.93751H14.3208V8.15205H13.964ZM14.0188 8.10401H14.2659V6.99239H14.0188V8.10401Z" fill="black"/>
<path d="M12.8799 5.46912V6.12785H15.0071H17.1343V5.46912H15.0071H12.8799Z" fill="#DA000C"/>
<path d="M15 6.15524H12.8454V5.46906V5.4416H15H17.1547V6.15524H15ZM12.9003 6.1072H15H17.0998V5.49651H15H12.9003V6.1072Z" fill="black"/>
<path d="M12.4749 4.70055V5.46907H15H17.5252V4.70055H16.8939V5.12598H16.1803V4.70055H15.3637V5.12598H15.0069H14.6501V4.70055H13.8335V5.12598H13.1199V4.70055H12.4749Z" fill="#DA000C"/>
<path d="M15.0001 5.49651H12.4474V4.70053V4.67308H13.1336V5.09851H13.7992V4.67308H14.6707V5.09851H15.0001H15.3294V4.67308H16.2009V5.09851H16.8596V4.67308H17.5458V5.49651H15.0001ZM12.5023 5.4416H15.0001H17.4978V4.72799H16.9145V5.15342H16.146V4.72799H15.3843V5.15342H15.0001H14.6158V4.72799H13.8541V5.15342H13.0856V4.72799H12.5023V5.4416Z" fill="black"/>
<path d="M9.01648 6.59445V7.09535H12.0631V6.59445H9.01648Z" fill="#DA000C"/>
<path d="M8.98907 7.12278V6.60127V6.57384H12.0906V7.12278H8.98907ZM9.04396 7.06789H12.0357V6.62185H9.04396V7.06789Z" fill="black"/>
<path d="M8.62567 5.64069V6.59449H12.283V5.64069H11.7204V6.12787H11.041V5.64069H10.0049V6.12787H9.32558V5.64069H8.62567Z" fill="#DA000C"/>
<path d="M8.59799 6.62187V5.64063V5.61317H9.34593V6.10038H9.97036V5.61317H11.0614V6.10038H11.6927V5.61317H12.3103V6.62187H8.59799ZM8.65289 6.56698H12.2554V5.66808H11.7476V6.15527H11.0134V5.66808H10.0253V6.15527H9.29103V5.66808H8.65289V6.56698Z" fill="black"/>
<path d="M19.5702 15.5354C19.0212 15.5354 18.5683 16.0226 18.5683 16.6264V18.1703H17.8478V12.3309H21.8003V18.1703H20.572V16.6264C20.572 16.0431 20.1328 15.5354 19.5702 15.5354Z" fill="#DA000C"/>
<path d="M20.5444 18.1909V16.6264C20.5444 16.0569 20.1121 15.5628 19.57 15.5628V15.5354V15.5079C20.1464 15.5079 20.5993 16.0294 20.5993 16.6264V18.136H21.7726V12.3515H17.8751V18.136H18.5407V16.6264C18.5407 16.0089 19.0005 15.5079 19.57 15.5079V15.5354V15.5628C19.0348 15.5628 18.5956 16.0363 18.5956 16.6264V18.1909H17.8202V12.3035H21.8275V18.1909H20.5444Z" fill="black"/>
<path d="M11.5416 12.3241V12.8044H15.0069H18.4721V12.3241H15.0069H11.5416Z" fill="#DA000C"/>
<path d="M15 12.8318H11.5074V12.324V12.2966H15H18.4927V12.825H15V12.8318ZM11.5623 12.7769H15H18.4378V12.3515H15H11.5623V12.7769Z" fill="black"/>
<path d="M17.4702 11.3702H20.1257V10.7664H21.3677V11.3702H22.2049V10.7664H22.7058V11.8574H17.4702V11.3702Z" fill="#DA000C"/>
<path d="M17.4429 11.8849V11.3703V11.3428H20.1053V10.7458H21.3953V11.3428H22.1844V10.7458H22.7402V11.8849H17.4429ZM17.4909 11.83H22.6785V10.7939H22.2325V11.3908H21.3404V10.7939H20.1533V11.3908H17.4909V11.83Z" fill="black"/>
<path d="M20.7638 7.09538V10.7665H20.1325V9.75778C20.1325 9.38038 19.8717 9.0716 19.4943 9.05101C19.4806 9.05101 19.4669 9.05101 19.46 9.05101C19.0689 9.05101 18.7533 9.36665 18.7533 9.75778V10.7665H18.1494V7.08853H20.7638V7.09538Z" fill="#DA000C"/>
<path d="M18.1222 10.8007V7.06789H20.764H20.7914V10.7939H20.1052V9.75772V9.75085C20.1052 9.38717 19.8513 9.09213 19.4945 9.0784C19.4877 9.0784 19.4877 9.0784 19.4808 9.0784C19.4739 9.0784 19.4671 9.0784 19.4534 9.0784C19.076 9.0784 18.774 9.38032 18.774 9.75772V10.7939H18.1222V10.8007ZM18.1702 10.7458H18.7191V9.76459C18.7191 9.35974 19.0485 9.03036 19.4534 9.03036C19.4602 9.03036 19.4671 9.03036 19.4808 9.03036C19.4877 9.03036 19.4877 9.03036 19.4945 9.03036C19.8788 9.05095 20.1601 9.36659 20.1533 9.75772C20.1533 9.75772 20.1533 9.75773 20.1533 9.76459V10.7458H20.7365V7.12964H18.1702V10.7458Z" fill="black"/>
<path d="M11.2537 10.7733V12.3309H15.0003H18.7468V10.7733H18.0401V11.3703H17.0931V10.7733H15.8237V11.3703H14.9934H14.17V10.7733H12.9074V11.3703H11.9605V10.7733H11.2537Z" fill="#DA000C"/>
<path d="M15.0001 12.3515H11.2261V10.7664V10.739H11.9877V11.336H12.8798V10.739H14.1973V11.336H15.0001H15.8029V10.739H17.1204V11.336H18.0124V10.739H18.7741V12.3515H15.0001ZM11.281 12.3035H15.0001H18.7192V10.8007H18.0605V11.3977H17.0655V10.8007H15.851V11.3977H14.9932H14.1424V10.8007H12.9278V11.3977H11.9328V10.8007H11.2741V12.3035H11.281Z" fill="black"/>
<path d="M20.9903 6.59445V7.09535H17.9436V6.59445H20.9903Z" fill="#DA000C"/>
<path d="M17.9164 7.12278V6.57384H20.9905H21.0179V7.12278H17.9164ZM17.9712 7.06789H20.963V6.62185H17.9712V7.06789Z" fill="black"/>
<path d="M21.3815 5.64069V6.59449H17.7241V5.64069H18.2868V6.12787H18.9661V5.64069H20.0022V6.12787H20.6815V5.64069H21.3815Z" fill="#DA000C"/>
<path d="M17.6967 6.62187V5.61317H18.3143V6.10038H18.9387V5.61317H20.0298V6.10038H20.6542V5.61317H21.3747H21.4022V6.62187H17.6967ZM17.7516 6.56698H21.3541V5.66808H20.716V6.15527H19.9817V5.66808H18.9936V6.15527H18.2594V5.66808H17.7516V6.56698Z" fill="black"/>
<path d="M12.1593 12.8044V18.4654H13.518C13.518 18.4654 13.518 17.292 13.518 16.3451C13.518 15.3501 14.163 14.8766 15.007 14.8766C15.8167 14.8766 16.496 15.3501 16.496 16.3451C16.496 17.292 16.496 18.4654 16.496 18.4654H17.8547V12.8044H15.0139H12.1593Z" fill="#DA000C"/>
<path d="M16.4891 18.4929C16.4822 18.4929 16.4754 18.486 16.4685 18.486C16.4616 18.4791 16.4616 18.4723 16.4616 18.4654C16.4616 18.4654 16.4616 17.292 16.4616 16.3451C16.4616 15.357 15.8029 14.9041 15.0001 14.9041C14.1698 14.911 13.5453 15.357 13.5385 16.3451C13.5385 17.292 13.5385 18.4654 13.5385 18.4654C13.5385 18.4723 13.5385 18.4791 13.5316 18.486C13.5248 18.486 13.5179 18.4929 13.511 18.4929H12.1524C12.1455 18.4929 12.1387 18.486 12.1318 18.486C12.1249 18.4791 12.1249 18.4723 12.1249 18.4654V12.8044C12.1249 12.7975 12.1318 12.7907 12.1318 12.7838C12.1387 12.7769 12.1455 12.7769 12.1524 12.7769H14.9932H17.834C17.8409 12.7769 17.8477 12.7769 17.8546 12.7838C17.8614 12.7907 17.8614 12.7975 17.8614 12.8044V18.4654C17.8614 18.4723 17.8614 18.4791 17.8546 18.486C17.8477 18.486 17.8409 18.4929 17.834 18.4929H16.4891ZM17.8203 18.438V12.8318H15.0069H12.1936V18.438H13.4973C13.4973 18.2595 13.4973 17.2097 13.4973 16.3451C13.4973 15.8373 13.662 15.4668 13.9365 15.2197C14.2109 14.9727 14.5883 14.8561 15.0138 14.8561C15.4255 14.8561 15.8029 14.9727 16.0774 15.2197C16.3587 15.4668 16.5234 15.8442 16.5234 16.3451C16.5234 17.2097 16.5234 18.2595 16.5234 18.438H17.8203Z" fill="black"/>
</svg>
