<svg width="30" height="30" viewBox="0 0 30 30" fill="none" xmlns="http://www.w3.org/2000/svg">
<path d="M15.0001 30.0001C23.2824 30.0001 30.0001 23.2824 30.0001 15.0002H0.00012207C0.00012207 23.2824 6.71786 30.0001 15.0001 30.0001Z" fill="#D00C33"/>
<path d="M15 0.000167847C6.71774 0.000167847 0 6.71793 0 15.0002H30C30 6.71107 23.2822 0.000167847 15 0.000167847Z" fill="#F1F4FB"/>
<path d="M13.0104 22.4658C17.1344 22.4658 20.4761 19.1241 20.4761 15.0001H5.54474C5.54474 19.1241 8.88646 22.4658 13.0104 22.4658Z" fill="#F1F4FB"/>
<path d="M13.0102 7.53445C8.88622 7.53445 5.54449 10.8762 5.54449 15.0001H20.4759C20.4759 10.8762 17.1342 7.53445 13.0102 7.53445Z" fill="#D00C33"/>
</svg>
