<svg width="30" height="30" viewBox="0 0 30 30" fill="none" xmlns="http://www.w3.org/2000/svg">
<path d="M15.0105 30C21.2287 30 26.5616 26.2192 28.8402 20.8257H1.18066C3.45245 26.2192 8.78534 30 15.0105 30Z" fill="#3A7728"/>
<path d="M0 15.0001C0 16.496 0.226523 17.9438 0.631464 19.3093H29.3686C29.7735 17.9438 30 16.5028 30 15.0001C30 13.5042 29.7735 12.0563 29.3686 10.6908H0.631464C0.226523 12.0563 0 13.5042 0 15.0001Z" fill="#0C1C8C"/>
<path d="M15.0106 0.000167847C8.79231 0.000167847 3.45256 3.78104 1.18077 9.17445H28.8403C26.5617 3.78104 21.2288 0.000167847 15.0106 0.000167847Z" fill="#CE1126"/>
<path d="M29.115 9.9362C29.0257 9.68225 28.9434 9.42143 28.8404 9.17435H1.18087C1.07792 9.42143 0.995573 9.68225 0.899485 9.9362C0.810261 10.1901 0.714169 10.4372 0.638672 10.698H29.3758C29.3003 10.4372 29.2042 10.1833 29.115 9.9362Z" fill="white"/>
<path d="M0.638672 19.3095C0.714169 19.5703 0.810261 19.8174 0.899485 20.0713C0.988709 20.3253 1.07105 20.5861 1.18087 20.8332H28.8404C28.9434 20.5861 29.0257 20.3253 29.115 20.0713C29.2042 19.8174 29.3003 19.5703 29.3758 19.3095H0.638672Z" fill="white"/>
</svg>
