<svg width="30" height="30" viewBox="0 0 30 30" fill="none" xmlns="http://www.w3.org/2000/svg">
<path d="M0 15.0001C0 21.0522 3.58793 26.2672 8.74686 28.6346V1.36559C3.58793 3.73292 0 8.94794 0 15.0001Z" fill="#CE1126"/>
<path d="M30.0003 15.0001C30.0003 8.94794 26.4124 3.73292 21.2535 1.36559V28.6346C26.4124 26.2604 30.0003 21.0522 30.0003 15.0001Z" fill="#009460"/>
<path d="M14.997 0.000167847C12.7674 0.000167847 10.6545 0.494214 8.74731 1.36567V28.6347C10.6476 29.5061 12.7606 30.0002 14.997 30.0002C17.2266 30.0002 19.3464 29.5061 21.2467 28.6347V1.36567C19.3464 0.487352 17.2335 0.000167847 14.997 0.000167847Z" fill="#FCD116"/>
</svg>
