<svg width="30" height="30" viewBox="0 0 30 30" fill="none" xmlns="http://www.w3.org/2000/svg">
<path d="M1.8252 22.1844C4.37094 26.8436 9.31147 30.0001 14.9931 30.0001C21.4981 30.0001 27.015 25.8555 29.0942 20.0641H3.9455L1.8252 22.1844Z" fill="#E32118"/>
<path d="M9.0304 15.0002L3.95264 20.0711H29.1013C29.6708 18.486 30.0002 16.7842 30.0002 15.007C30.0002 13.2229 29.6708 11.5281 29.1013 9.93613H3.95264L9.0304 15.0002Z" fill="white"/>
<path d="M29.1011 9.93609C27.0219 4.15155 21.4981 0.00012207 15 0.00012207C9.31837 0.00012207 4.37784 3.15656 1.83209 7.81576L3.95241 9.93609H29.1011Z" fill="#3E9A00"/>
<path d="M3.95243 9.93591L1.83211 7.81558C1.46157 8.48804 1.15965 9.20169 0.898901 9.93591C0.329367 11.521 0 13.2227 0 15.0068C0 16.7909 0.329367 18.4858 0.898901 20.0709C1.15965 20.8051 1.46843 21.5118 1.83211 22.1912L3.95243 20.0709L9.03019 14.9999L3.95243 9.93591Z" fill="#0073CE"/>
<path d="M14.9798 18.0265C14.9798 18.0265 15.0621 17.7795 15.3023 17.656C15.5356 17.5324 15.7346 17.6079 16.1874 17.6011C16.6403 17.5873 16.7227 17.5736 16.9422 17.3952C17.1618 17.2168 17.1412 16.9355 17.1412 16.9355V12.0773H12.8251V16.9355C12.8251 16.9355 12.8045 17.2168 13.031 17.3952C13.2506 17.5736 13.3329 17.5873 13.7789 17.6011C14.2318 17.6148 14.4308 17.5324 14.6641 17.656C14.8906 17.7726 14.9798 18.0265 14.9798 18.0265Z" fill="#CCCCCC"/>
<path d="M14.952 18.0334C14.952 18.0334 14.9452 18.0196 14.9383 17.9922C14.9246 17.9648 14.9108 17.9373 14.8834 17.8961C14.8354 17.8206 14.7599 17.7314 14.6432 17.6697C14.5403 17.6148 14.4442 17.6011 14.3276 17.6011C14.2109 17.6011 14.0668 17.6148 13.8747 17.6148C13.8404 17.6148 13.8061 17.6148 13.7718 17.6148C13.3258 17.6079 13.2297 17.5805 13.0033 17.4021C12.8043 17.2442 12.7905 17.0041 12.7905 16.9355C12.7905 16.9217 12.7905 16.9218 12.7905 16.9218V12.0293H17.1615V16.9149C17.1615 16.9149 17.1615 16.9217 17.1615 16.9355C17.1615 17.0041 17.1478 17.2442 16.9488 17.4021C16.7292 17.5805 16.6332 17.6011 16.1803 17.6148C16.146 17.6148 16.1117 17.6148 16.0774 17.6148C15.8852 17.6148 15.7411 17.6011 15.6245 17.6011C15.5078 17.6011 15.4118 17.6148 15.3088 17.6697C15.1373 17.7589 15.0549 17.9167 15.0206 17.9922C15.0138 18.0196 15.0069 18.0334 15.0069 18.0334L14.9795 18.1088L14.952 18.0334ZM14.6707 17.6285C14.8422 17.7246 14.9383 17.8755 14.9795 17.9579C15.0206 17.8755 15.1167 17.7246 15.2882 17.6285C15.398 17.5668 15.5078 17.553 15.6313 17.553C15.7548 17.553 15.8921 17.5668 16.0842 17.5668C16.1185 17.5668 16.146 17.5668 16.1872 17.5668C16.64 17.553 16.7018 17.5393 16.9214 17.3678C17.0998 17.2237 17.1135 17.0041 17.1135 16.9423C17.1135 16.9286 17.1135 16.9286 17.1135 16.9286V12.091H12.8523V16.9286C12.8523 16.9286 12.8523 16.9355 12.8523 16.9423C12.8523 17.0041 12.866 17.2237 13.0444 17.3678C13.264 17.5393 13.3258 17.553 13.7786 17.5668C13.8129 17.5668 13.8473 17.5668 13.8816 17.5668C14.0737 17.5668 14.2109 17.553 14.3344 17.553C14.4511 17.553 14.554 17.5668 14.6707 17.6285Z" fill="black"/>
<path d="M11.2398 15.9198C11.3153 15.9815 11.3976 16.0364 11.4731 16.0913C11.6309 16.1943 11.7887 16.2972 11.9328 16.4138C12.0358 16.4962 12.1456 16.5785 12.2279 16.6746C12.2759 16.7295 12.324 16.7912 12.324 16.8667C12.324 16.9216 12.2828 16.9628 12.2416 16.9903C12.1936 17.0177 12.1318 17.0383 12.0769 17.0246C12.0152 17.0108 11.974 16.9559 11.9191 16.9285C11.878 16.9079 11.8368 16.9285 11.8025 16.9491C11.7682 16.9696 11.7544 17.004 11.7407 17.0314C11.7201 17.0657 11.727 17.1 11.727 17.1412C11.7407 17.2441 11.7819 17.3402 11.8299 17.4225C11.8985 17.5392 11.9809 17.6421 12.0769 17.7245C12.324 17.944 12.6533 18.0607 12.9827 18.0607C13.2778 18.0607 13.5728 18.0264 13.861 17.9578C13.9983 17.9303 14.1355 17.8823 14.2659 17.848C14.3208 17.8343 14.3825 17.8137 14.4443 17.8205C14.4717 17.8205 14.4992 17.848 14.506 17.8823C14.5129 17.9235 14.4992 17.9715 14.4786 18.0058C14.3825 18.1293 14.2384 18.2117 14.1218 18.3146C14.0875 18.3489 14.0463 18.3832 14.0257 18.4312C14.0188 18.4449 14.012 18.4724 14.0189 18.4861C14.0532 18.5067 14.0875 18.5204 14.1218 18.5273C14.2384 18.5547 14.3551 18.5685 14.4786 18.5753C14.808 18.5959 15.1305 18.5959 15.4598 18.5753C15.5696 18.5685 15.6726 18.5548 15.7755 18.5342C15.8304 18.5204 15.8853 18.5067 15.9333 18.4793C15.9196 18.3969 15.8578 18.3489 15.7961 18.294C15.6863 18.1979 15.5559 18.1225 15.4667 17.9989L15.4598 17.9921C15.4392 17.9509 15.4187 17.896 15.4461 17.848C15.4736 17.8068 15.5285 17.8137 15.5765 17.8205C15.6931 17.848 15.8098 17.8891 15.9333 17.9166C16.2627 18.0058 16.6126 18.0607 16.9557 18.0538C17.2851 18.0538 17.6076 17.9372 17.8615 17.7176C17.9713 17.6215 18.0673 17.5049 18.1428 17.3745C18.1909 17.2784 18.2389 17.1687 18.2183 17.052C18.2046 17.004 18.1771 16.9491 18.1222 16.9285C18.0879 16.9079 18.0399 16.901 18.0056 16.9285C17.9576 16.9559 17.9164 17.004 17.8546 17.0177C17.7997 17.0314 17.7448 17.0108 17.6968 16.9834C17.6899 16.9765 17.6831 16.9697 17.6694 16.9628C17.6899 16.9422 17.6694 16.9216 17.6625 16.901C17.6488 16.8667 17.6625 16.8187 17.6831 16.7844C17.7242 16.702 17.7929 16.6403 17.8546 16.5785C18.0056 16.4413 18.1771 16.3246 18.3418 16.208C18.4791 16.1188 18.6163 16.0296 18.7398 15.9267V16.9628C18.7329 17.0383 18.6986 17.1138 18.6506 17.1618C18.582 17.2373 18.4928 17.299 18.3898 17.3265C18.4447 17.5255 18.4653 17.7313 18.4585 17.9372C18.4516 18.0813 18.3693 18.2048 18.2732 18.3077C18.1703 18.4106 18.033 18.4861 17.8958 18.541C17.7174 18.6165 17.5253 18.6577 17.3331 18.6783C17.1547 18.6988 16.9763 18.6988 16.7979 18.6988C16.5303 18.6988 16.2558 18.6988 15.9882 18.6988C15.9882 18.8773 15.9882 19.0557 15.9882 19.2409C15.9882 19.2684 15.9745 19.2821 15.9608 19.3027C15.9196 19.337 15.8715 19.3439 15.8235 19.3576C15.6039 19.3987 15.3775 19.4125 15.1511 19.4193H14.808C14.5884 19.4125 14.3688 19.3988 14.1561 19.3644C14.1012 19.3507 14.0532 19.3439 13.9983 19.3164C13.9708 19.3027 13.9502 19.2752 13.9502 19.2478C13.9502 19.0694 13.9502 18.891 13.9502 18.7057C13.7307 18.7057 13.5042 18.7057 13.2778 18.7057C13.0994 18.7057 12.9141 18.7126 12.7357 18.6988C12.4749 18.6783 12.2073 18.6302 11.9672 18.5204C11.8368 18.4587 11.7133 18.3763 11.6172 18.2665C11.5349 18.1773 11.48 18.0538 11.48 17.9372C11.4731 17.7313 11.4937 17.5255 11.5486 17.3333C11.4457 17.2922 11.3427 17.2235 11.281 17.1275C11.2535 17.0863 11.2329 17.0383 11.2261 16.9834V15.9198H11.2398Z" fill="#020101"/>
<path d="M18.6988 16.0365C18.6988 16.3385 18.6988 16.6335 18.6988 16.9354C18.6988 16.9903 18.6714 17.0452 18.6371 17.0933C18.5753 17.1756 18.4793 17.2374 18.3832 17.2648C18.3558 17.1825 18.3214 17.107 18.2871 17.0315C18.2665 16.9972 18.2597 16.956 18.2597 16.9149C18.2597 16.9149 18.246 16.908 18.2391 16.9011C18.2254 16.9011 18.2117 16.908 18.1979 16.8943C18.1499 16.86 18.095 16.8325 18.0332 16.8462C17.9578 16.86 17.9166 16.9354 17.8411 16.956C17.8068 16.9354 17.7725 16.9217 17.745 16.8943C17.7176 16.86 17.7313 16.8188 17.7519 16.7914C17.7999 16.709 17.8686 16.6404 17.944 16.5786C18.1705 16.3796 18.4381 16.215 18.6988 16.0365Z" fill="#CCCCCC"/>
<path d="M11.2949 16.0365C11.5487 16.215 11.8095 16.3728 12.0428 16.5718C12.1114 16.6335 12.18 16.6953 12.2349 16.7708C12.2555 16.8051 12.2761 16.8463 12.2624 16.8806C12.2487 16.908 12.2212 16.9217 12.2006 16.9354C12.1663 16.956 12.1251 16.9697 12.084 16.9492C12.0291 16.9217 11.9879 16.8668 11.9261 16.8531C11.8575 16.8394 11.7821 16.8806 11.734 16.9217C11.6928 16.956 11.686 17.0109 11.6654 17.0521C11.6311 17.1139 11.6036 17.1825 11.5831 17.2442C11.4939 17.2099 11.4115 17.155 11.3566 17.0727C11.3292 17.0315 11.3017 16.9766 11.3017 16.9217C11.2949 16.6335 11.2949 16.3385 11.2949 16.0365Z" fill="#CCCCCC"/>
<path d="M15.2336 12.7565C15.2817 12.7428 15.3297 12.7634 15.3777 12.784C15.4052 12.7977 15.4189 12.832 15.4326 12.8663C15.4669 12.88 15.515 12.8663 15.5493 12.8869C15.5699 12.9006 15.5973 12.9143 15.6248 12.9212C15.6453 12.9281 15.6522 12.9418 15.6591 12.9555C15.6728 12.9624 15.6865 12.9624 15.6934 12.9761C15.7071 13.0036 15.7346 13.0036 15.7483 13.0173C15.7689 13.0241 15.7826 13.0447 15.8032 13.0516C15.8238 13.0584 15.8443 13.0516 15.8649 13.0516C15.8649 13.0379 15.8718 13.0241 15.8718 13.0173C15.8855 13.0104 15.9061 13.0036 15.913 12.9898C15.9198 12.9624 15.9473 12.9349 15.9747 12.9281C16.0159 12.9144 16.0639 12.9143 16.0982 12.9418C16.112 12.9555 16.1188 12.9692 16.1257 12.9898C16.1668 13.0036 16.1806 13.0585 16.1737 13.1065C16.1943 13.1339 16.2217 13.1682 16.2012 13.2025C16.2012 13.2094 16.2012 13.2231 16.2012 13.23C16.2355 13.2437 16.2766 13.2574 16.3109 13.2712C16.3453 13.2849 16.3864 13.2986 16.4207 13.2918C16.455 13.2918 16.4962 13.2918 16.5305 13.3123C16.558 13.3329 16.558 13.3604 16.5786 13.381C16.5991 13.3947 16.6266 13.4015 16.654 13.4153C16.6815 13.4359 16.7158 13.4633 16.7501 13.4702C16.7776 13.4976 16.8119 13.5251 16.8324 13.5594C16.8462 13.5937 16.853 13.628 16.8668 13.6692C16.8668 13.7378 16.8668 13.8133 16.853 13.8819C16.8462 13.8956 16.8393 13.9162 16.8324 13.9299C16.8256 13.9711 16.7913 14.0054 16.7707 14.0397C16.757 14.0671 16.7432 14.0946 16.7227 14.1152C16.7295 14.1495 16.7364 14.1769 16.7364 14.2112C16.7089 14.2593 16.654 14.273 16.6129 14.3073C16.5854 14.321 16.5854 14.3622 16.5648 14.3828C16.5511 14.4034 16.5168 14.3965 16.4962 14.3965C16.4276 14.3965 16.3658 14.4102 16.3041 14.4034C16.3178 14.4034 16.3315 14.4034 16.3453 14.3965C16.3453 14.3897 16.3521 14.3759 16.3521 14.3691C16.3453 14.3622 16.3315 14.3553 16.3247 14.3416C16.3864 14.3348 16.455 14.3279 16.5237 14.3348C16.5374 14.3073 16.5511 14.273 16.5786 14.2524C16.606 14.225 16.6472 14.2112 16.6815 14.1907C16.6815 14.1701 16.6815 14.1426 16.6746 14.122C16.6815 14.1152 16.6952 14.1152 16.7021 14.1083C16.7021 14.0877 16.6952 14.0672 16.6952 14.0534C16.6952 14.0534 16.6952 14.0397 16.7021 14.0397C16.7227 14.0054 16.7432 13.978 16.7638 13.9436C16.7981 13.8819 16.805 13.8064 16.805 13.7378C16.805 13.6829 16.7981 13.628 16.7707 13.58C16.7501 13.5525 16.7158 13.5251 16.6815 13.5113C16.6334 13.4839 16.5923 13.4496 16.5374 13.4358C16.5443 13.429 16.5511 13.4221 16.558 13.4084C16.558 13.4016 16.5511 13.3878 16.5511 13.381C16.5374 13.381 16.5237 13.3741 16.5031 13.3741C16.455 13.3329 16.3933 13.3604 16.3384 13.3398C16.2698 13.3192 16.208 13.2918 16.1394 13.2643C16.1325 13.23 16.1325 13.1957 16.1325 13.1614C16.1188 13.1339 16.0845 13.1202 16.0639 13.1065C16.0776 13.0996 16.0982 13.0859 16.112 13.0722C16.112 13.0653 16.1051 13.0516 16.0982 13.0447C16.0845 13.0447 16.0639 13.0379 16.0433 13.0379C16.0502 13.0173 16.0502 13.0036 16.0502 12.983C16.0227 12.983 15.9816 12.9692 15.961 13.0035C15.9335 13.0447 15.9061 13.1065 15.8443 13.1202C15.8375 13.1202 15.8306 13.1271 15.8306 13.1271C15.8238 13.1202 15.8169 13.1133 15.81 13.0996C15.7894 13.0928 15.762 13.0859 15.7414 13.1065C15.7071 13.079 15.6659 13.0585 15.6248 13.0447C15.6248 13.0379 15.6179 13.031 15.611 13.0242C15.5973 13.0242 15.5767 13.0242 15.563 13.0242C15.563 13.0104 15.563 12.9967 15.563 12.983C15.515 12.9692 15.4738 12.9281 15.4189 12.9349C15.4189 12.9144 15.4258 12.8938 15.4052 12.8869C15.3846 12.8732 15.364 12.9006 15.3503 12.9075C15.3366 12.88 15.3228 12.8526 15.2954 12.8389C15.2679 12.8251 15.2268 12.8114 15.1993 12.832C15.1582 12.8663 15.1033 12.8457 15.0621 12.8389C15.0003 12.8251 14.9386 12.8389 14.8974 12.8869C14.8768 12.9006 14.8562 12.9418 14.8219 12.9281C14.7533 12.9212 14.6915 12.9075 14.6229 12.9075C14.6023 12.9281 14.5886 12.9487 14.568 12.9761C14.5406 13.0104 14.4857 13.0104 14.4445 13.031C14.4308 13.0585 14.4102 13.0859 14.3896 13.0996C14.3553 13.1133 14.3347 13.1408 14.3073 13.1682C14.2936 13.182 14.2798 13.1957 14.2661 13.2094C14.2661 13.2231 14.2661 13.23 14.273 13.2369C14.2661 13.2369 14.2593 13.2369 14.2593 13.2369C14.2524 13.2643 14.2593 13.2918 14.2387 13.3192C14.2181 13.3398 14.1838 13.3398 14.1632 13.3604C14.1495 13.3947 14.1701 13.4358 14.1701 13.477C14.1563 13.4976 14.1426 13.5182 14.122 13.5388C14.1014 13.5388 14.074 13.5388 14.0534 13.5319C14.0397 13.5251 14.0259 13.5182 14.0122 13.5113C14.0122 13.5662 14.0328 13.6348 13.9916 13.676C13.9916 13.6897 13.9848 13.6966 13.9779 13.7103C13.9573 13.7103 13.9436 13.7103 13.9299 13.7103C13.8887 13.7035 13.8475 13.7103 13.8064 13.7035C13.7515 13.7103 13.7309 13.7721 13.6897 13.7927C13.6691 13.8133 13.6348 13.7927 13.6074 13.7927C13.5662 13.7927 13.5319 13.7995 13.4839 13.7995C13.4564 13.827 13.4427 13.8613 13.4358 13.8956C13.3947 13.8956 13.3466 13.8956 13.3055 13.8956C13.2917 13.9093 13.2849 13.9162 13.2712 13.9299C13.2712 13.9505 13.2917 13.9779 13.2712 13.9917C13.23 14.0122 13.1888 13.9779 13.1476 13.9985C13.127 14.0191 13.1133 14.0397 13.1065 14.0671C13.1065 14.0877 13.1202 14.1083 13.127 14.1289C13.1545 14.1426 13.1888 14.1564 13.2163 14.1769C13.1888 14.1838 13.1751 14.1975 13.1682 14.2181C13.1476 14.2044 13.1202 14.1975 13.0996 14.1838C13.0859 14.1769 13.079 14.1563 13.0722 14.1426C13.0584 14.1083 13.0447 14.0671 13.0516 14.0328C13.0722 14.0122 13.079 13.9917 13.0927 13.9779C13.1133 13.9505 13.1476 13.9368 13.1819 13.9368C13.1888 13.923 13.1888 13.9093 13.1888 13.8956C13.2025 13.8887 13.2231 13.8887 13.2368 13.8819C13.2574 13.875 13.2643 13.8544 13.278 13.8407C13.3123 13.8407 13.3466 13.8407 13.3878 13.8407C13.4084 13.7995 13.4358 13.7446 13.4907 13.7446C13.5319 13.7446 13.5662 13.7446 13.6074 13.7378C13.6348 13.724 13.6829 13.7515 13.6966 13.7172C13.7034 13.7035 13.7103 13.6897 13.724 13.6829C13.7652 13.676 13.8064 13.628 13.8544 13.6554C13.8887 13.6417 13.923 13.6554 13.9573 13.6623C13.9642 13.6417 13.9711 13.6143 13.9642 13.5868C13.9573 13.5525 13.9573 13.5182 13.9642 13.4839C13.9779 13.477 13.9916 13.4633 14.0054 13.4633C14.0328 13.4633 14.0603 13.477 14.0877 13.4839C14.0946 13.477 14.1014 13.4702 14.1083 13.4633C14.1014 13.4221 14.0946 13.3741 14.1152 13.3329C14.1289 13.3055 14.1632 13.2918 14.1906 13.278C14.1906 13.2437 14.1906 13.2094 14.2044 13.182C14.2181 13.182 14.2318 13.182 14.2455 13.182C14.2593 13.1271 14.3073 13.0859 14.3553 13.0585C14.3896 13.0447 14.3896 13.0036 14.4171 12.9898C14.4514 12.9692 14.4857 12.9693 14.52 12.9555C14.5543 12.9281 14.568 12.8869 14.6092 12.8663C14.6847 12.8526 14.7533 12.8732 14.8288 12.88C14.8562 12.8526 14.8905 12.8183 14.9317 12.8046C14.9729 12.7908 15.0141 12.784 15.0552 12.7908C15.0827 12.7977 15.1101 12.8114 15.1444 12.8046C15.1925 12.784 15.2131 12.7634 15.2336 12.7565Z" fill="#020101"/>
<path d="M15.2336 12.8252C15.2611 12.7978 15.3022 12.8183 15.3297 12.8321C15.3571 12.8458 15.3708 12.8801 15.3846 12.9007C15.3983 12.9487 15.3571 12.9899 15.3228 13.0173C15.2679 13.0448 15.2542 13.1134 15.213 13.1546C15.1924 13.1889 15.1513 13.2095 15.117 13.2301C15.1238 13.2506 15.1307 13.2644 15.1375 13.2849C15.165 13.2781 15.1993 13.2644 15.213 13.2438C15.2542 13.2026 15.2885 13.1546 15.316 13.1065C15.3365 13.0722 15.3708 13.0585 15.3983 13.0311C15.4189 12.9967 15.4395 12.9624 15.4463 12.9281C15.5012 12.9213 15.5424 12.9624 15.5904 12.9762C15.5904 12.9899 15.5904 13.0036 15.5904 13.0173C15.6041 13.0173 15.6179 13.0173 15.6385 13.0173C15.6385 13.0242 15.6453 13.0311 15.6522 13.0379C15.6933 13.0516 15.7345 13.0722 15.7688 13.0997C15.7551 13.1477 15.7345 13.1889 15.7277 13.2369C15.7208 13.2987 15.7208 13.3673 15.7688 13.4085C15.7894 13.4359 15.8169 13.4496 15.8443 13.4634C15.858 13.4496 15.8718 13.4291 15.8718 13.4085C15.8512 13.381 15.8169 13.3673 15.7963 13.3398C15.7826 13.2712 15.7894 13.2026 15.8237 13.1477C15.8306 13.1271 15.8512 13.1271 15.8718 13.1203C15.9267 13.1065 15.9541 13.0516 15.9884 13.0036C16.009 12.9693 16.0502 12.9899 16.0776 12.983C16.0776 13.0036 16.0707 13.0173 16.0707 13.0379C16.0913 13.0448 16.1051 13.0448 16.1256 13.0448C16.1256 13.0517 16.1325 13.0585 16.1394 13.0722C16.1256 13.0859 16.1051 13.0928 16.0913 13.1065C16.1188 13.1203 16.1462 13.134 16.16 13.1614C16.16 13.1957 16.16 13.23 16.1668 13.2644C16.2354 13.2918 16.2972 13.3193 16.3658 13.3398C16.4207 13.3536 16.4825 13.333 16.5305 13.3741C16.5099 13.3947 16.4825 13.4222 16.455 13.4428C16.4276 13.4634 16.407 13.4908 16.3795 13.4977C16.3178 13.5114 16.256 13.4908 16.1943 13.5045C16.1943 13.5182 16.1874 13.5388 16.1943 13.5594C16.2149 13.5663 16.2423 13.5663 16.2629 13.5663C16.3041 13.5663 16.3521 13.5663 16.3864 13.5594C16.4207 13.5526 16.4482 13.5251 16.4756 13.5045C16.5031 13.4839 16.5305 13.4634 16.5511 13.4359C16.606 13.4496 16.654 13.4839 16.6952 13.5114C16.7364 13.5251 16.7638 13.5526 16.7844 13.58C16.7912 13.628 16.805 13.6761 16.805 13.731C16.805 13.8202 16.7981 13.9094 16.7363 13.978C16.7226 13.9986 16.7158 14.0192 16.7089 14.0397C16.7089 14.0397 16.702 14.0466 16.702 14.0535C16.6472 14.0672 16.5923 14.0946 16.5305 14.0809C16.4687 14.0741 16.4276 14.026 16.3795 13.9917C16.3727 14.0123 16.3658 14.026 16.359 14.0466C16.4139 14.0947 16.4825 14.1427 16.5579 14.1427C16.5991 14.1427 16.6403 14.1358 16.6815 14.1221C16.6815 14.1427 16.6883 14.1701 16.6883 14.1907C16.654 14.2182 16.6197 14.2319 16.5854 14.2525C16.5579 14.2731 16.5442 14.3005 16.5305 14.3348C16.4619 14.3348 16.4001 14.3348 16.3315 14.3417C16.3041 14.3142 16.2835 14.2936 16.256 14.2662C16.2286 14.2456 16.2011 14.225 16.1805 14.1976C16.1531 14.1564 16.1531 14.1084 16.1462 14.0603C16.1325 14.0535 16.1119 14.0466 16.0982 14.0329C16.0776 14.0878 16.0913 14.1495 16.1119 14.2113C16.1257 14.2456 16.1668 14.2731 16.1805 14.3074C16.1531 14.3074 16.1257 14.3005 16.0982 14.2936C16.0502 14.2799 16.0021 14.3005 15.9541 14.2936C15.9267 14.2868 15.8992 14.2662 15.8649 14.2662C15.81 14.2662 15.7483 14.2799 15.6934 14.2662C15.6865 14.2593 15.6796 14.2456 15.6796 14.2387C15.7345 14.2319 15.7894 14.2044 15.8374 14.1838C15.858 14.177 15.8649 14.1495 15.8786 14.129C15.8923 14.1015 15.8992 14.0672 15.8992 14.0397C15.8786 14.0397 15.858 14.0397 15.8443 14.0397C15.8306 14.0672 15.8306 14.0946 15.81 14.1221C15.7963 14.1427 15.7688 14.1495 15.7483 14.1564C15.6934 14.1839 15.6316 14.1701 15.5767 14.1907C15.5149 14.1976 15.4463 14.1907 15.3846 14.1838C15.3434 14.177 15.316 14.129 15.2748 14.1152C15.2473 14.1084 15.2267 14.1152 15.1993 14.1084C15.1719 14.0946 15.1513 14.0672 15.117 14.0535C15.0895 14.0329 15.0483 14.0192 15.0278 13.9917C15.0209 13.9711 15.0209 13.9505 15.014 13.93C14.9934 13.9025 14.9797 13.8751 14.9591 13.8407C14.9385 13.7996 14.9385 13.7584 14.9385 13.7172C14.918 13.7172 14.8974 13.7172 14.8768 13.7172C14.8768 13.7653 14.8837 13.8202 14.9042 13.8682C14.918 13.8888 14.918 13.9094 14.918 13.93C14.8699 13.9437 14.8219 13.9437 14.7739 13.9437C14.7258 13.9437 14.6847 13.9094 14.6366 13.9094C14.6092 13.9094 14.5817 13.9162 14.5611 13.93C14.5268 13.9437 14.4857 13.9506 14.4514 13.9643C14.417 13.978 14.3965 14.0123 14.369 14.026C14.3416 14.0398 14.3141 14.0466 14.2867 14.0603C14.2524 14.0741 14.2112 14.0741 14.1769 14.0672C14.1357 14.0603 14.122 14.0192 14.0877 14.0123C14.0602 14.0054 14.0396 14.0123 14.0191 14.0123C14.0534 14.0466 14.0808 14.0809 14.122 14.1152C14.1494 14.129 14.1906 14.1289 14.2181 14.1427C14.1975 14.1838 14.1975 14.225 14.2043 14.273C14.2043 14.3005 14.1837 14.3142 14.1632 14.328C14.1357 14.3417 14.1083 14.3623 14.0808 14.3485C14.0465 14.3348 14.0053 14.3211 13.971 14.3211C13.9161 14.3142 13.8612 14.2868 13.8132 14.2662C13.8132 14.2662 13.8132 14.2593 13.8132 14.2525C13.8681 14.2456 13.923 14.2387 13.971 14.2044C14.0191 14.1701 14.0465 14.1084 14.0534 14.0535C14.0328 14.0535 14.0122 14.0466 13.9985 14.0466C13.9779 14.0878 13.971 14.1358 13.9299 14.1564C13.875 14.1839 13.8201 14.177 13.7652 14.1976C13.724 14.2113 13.676 14.2044 13.6348 14.2182C13.6142 14.225 13.5868 14.2319 13.5799 14.2525C13.573 14.2662 13.5662 14.2868 13.5593 14.3074C13.5319 14.3211 13.4976 14.3417 13.4633 14.3211C13.4221 14.3005 13.3672 14.2936 13.3397 14.2525C13.3329 14.2387 13.3329 14.2319 13.326 14.225C13.374 14.2113 13.4221 14.2044 13.4633 14.177C13.4976 14.1495 13.5319 14.129 13.573 14.1084C13.5593 14.0878 13.5456 14.0672 13.5319 14.0535C13.4976 14.0809 13.4632 14.1152 13.4221 14.1358C13.3672 14.1564 13.3123 14.1701 13.2505 14.1701C13.2231 14.1495 13.1956 14.1358 13.1613 14.1221C13.1476 14.1084 13.1407 14.0809 13.1407 14.0603C13.1476 14.0329 13.1613 14.0123 13.1819 13.9917C13.2231 13.978 13.2711 14.0123 13.3054 13.9849C13.326 13.9711 13.3123 13.9437 13.3054 13.9231C13.3191 13.9094 13.326 13.9025 13.3397 13.8888C13.3809 13.8888 13.4221 13.8888 13.4701 13.8888C13.477 13.8545 13.4907 13.8202 13.5182 13.7927C13.5593 13.7927 13.6005 13.7927 13.6417 13.7859C13.6691 13.7859 13.7034 13.8064 13.724 13.7859C13.772 13.7653 13.7926 13.7035 13.8406 13.6967C13.8818 13.7035 13.923 13.6898 13.9642 13.7035C14.0259 13.7241 14.1014 13.7378 14.17 13.731C14.2112 13.7241 14.2386 13.6898 14.2729 13.6829C14.2935 13.6829 14.3073 13.6898 14.3278 13.6898C14.369 13.7035 14.4102 13.7104 14.4582 13.7241C14.4651 13.7104 14.4788 13.6898 14.4925 13.6692C14.4582 13.6486 14.417 13.6486 14.3827 13.6418C14.3416 13.6349 14.3004 13.6143 14.2661 13.6212C14.2318 13.628 14.2043 13.6555 14.17 13.6692C14.1357 13.6761 14.0945 13.6692 14.0602 13.6692C14.0671 13.6212 14.074 13.5731 14.0602 13.5251C14.0671 13.5251 14.0808 13.5251 14.0945 13.532C14.1151 13.5388 14.1426 13.5388 14.1632 13.5388C14.1769 13.5183 14.1906 13.4977 14.2112 13.4771C14.2112 13.4428 14.1975 13.4016 14.2043 13.3604C14.2249 13.3398 14.2592 13.3398 14.2798 13.3193C14.2935 13.2987 14.2935 13.2644 14.2935 13.2369C14.2935 13.2369 14.3073 13.2369 14.3141 13.2369C14.3484 13.2369 14.3896 13.2438 14.4239 13.2575C14.4582 13.2644 14.4582 13.3055 14.4857 13.3193C14.52 13.333 14.5611 13.3261 14.5955 13.3398C14.616 13.3467 14.6298 13.3604 14.6504 13.3741C14.6641 13.3604 14.6778 13.3467 14.6915 13.333C14.6778 13.3124 14.6572 13.2918 14.6366 13.2849C14.6023 13.2712 14.568 13.2644 14.5337 13.2644C14.52 13.2438 14.5063 13.2163 14.4788 13.2026C14.4445 13.1889 14.3965 13.1957 14.3622 13.1683C14.3896 13.1409 14.417 13.1203 14.4445 13.0997C14.4719 13.086 14.4857 13.0585 14.4994 13.0311C14.5406 13.0173 14.5955 13.0105 14.6229 12.9762C14.6435 12.9556 14.6572 12.9281 14.6778 12.9075C14.7464 12.9075 14.8082 12.9213 14.8768 12.9281C14.9111 12.935 14.9317 12.9007 14.9523 12.887C14.9934 12.8458 15.0621 12.8252 15.117 12.8389C15.1375 12.8389 15.1924 12.8527 15.2336 12.8252Z" fill="#009301"/>
<path d="M15.3845 12.9006C15.3982 12.8869 15.4188 12.8663 15.4394 12.88C15.4599 12.8869 15.4531 12.9143 15.4531 12.9281C15.4394 12.9624 15.4256 13.0035 15.4051 13.031C15.3845 13.0584 15.3433 13.0722 15.3227 13.1065C15.2953 13.1545 15.261 13.2025 15.2198 13.2437C15.1992 13.2643 15.1649 13.278 15.1443 13.2849C15.1374 13.2712 15.1306 13.2506 15.1237 13.23C15.158 13.2163 15.1992 13.1888 15.2198 13.1545C15.261 13.1133 15.2747 13.0447 15.3296 13.0173C15.357 12.9898 15.3913 12.9486 15.3845 12.9006Z" fill="#016601"/>
<path d="M15.7688 13.0996C15.7894 13.0858 15.8168 13.0927 15.8374 13.0927C15.8442 13.0995 15.8443 13.1133 15.8511 13.1201C15.8511 13.1201 15.8648 13.1201 15.8648 13.1133C15.8511 13.1201 15.8305 13.1201 15.8168 13.1407C15.7825 13.1956 15.7756 13.2711 15.7894 13.3329C15.8099 13.3603 15.8443 13.3809 15.8648 13.4015C15.8717 13.4221 15.8511 13.4426 15.8374 13.4564C15.8099 13.4426 15.7825 13.4289 15.7619 13.4015C15.7139 13.3603 15.7207 13.2917 15.7207 13.2299C15.7345 13.1888 15.7619 13.1476 15.7688 13.0996Z" fill="#016601"/>
<path d="M14.2935 13.1957C14.3072 13.182 14.3209 13.1683 14.3346 13.1545C14.369 13.182 14.417 13.1751 14.4513 13.1889C14.4787 13.2026 14.4856 13.23 14.5062 13.2506C14.5405 13.2575 14.5817 13.2575 14.6091 13.2712C14.6366 13.2849 14.6503 13.3055 14.664 13.3192C14.6503 13.333 14.6434 13.3467 14.6228 13.3604C14.6091 13.3467 14.5885 13.3329 14.568 13.3261C14.5337 13.3124 14.4925 13.3192 14.4582 13.3055C14.4307 13.2918 14.4307 13.2506 14.3964 13.2437C14.3621 13.23 14.3278 13.23 14.2866 13.2232C14.3003 13.2163 14.2935 13.2095 14.2935 13.1957Z" fill="#016601"/>
<path d="M14.8627 13.4083C14.849 13.3808 14.9039 13.3602 14.9176 13.3877C14.9588 13.4563 14.9519 13.5455 15.0137 13.5935C15.0617 13.6278 15.1097 13.6621 15.1646 13.6896C15.1921 13.7033 15.2195 13.7239 15.2538 13.7308C15.3087 13.7376 15.3568 13.7376 15.4117 13.7445C15.4117 13.7582 15.4117 13.7788 15.4117 13.7994C15.3636 13.8062 15.3156 13.7925 15.2676 13.7925C15.2264 13.7925 15.1921 13.7719 15.1578 13.7513C15.1303 13.7308 15.096 13.717 15.0686 13.6964C15.0205 13.6621 14.9588 13.6278 14.9313 13.5729C14.8902 13.5318 14.8833 13.47 14.8627 13.4083Z" fill="#016601"/>
<path d="M16.5166 13.374C16.5303 13.374 16.5441 13.374 16.5646 13.3808C16.5646 13.3877 16.5715 13.4014 16.5715 13.4083C16.5647 13.4151 16.5578 13.422 16.5509 13.4357C16.5303 13.4632 16.5029 13.4769 16.4754 13.5043C16.448 13.5249 16.4206 13.5524 16.3862 13.5592C16.3451 13.573 16.3039 13.5661 16.2627 13.5661C16.2421 13.5661 16.2147 13.5661 16.1941 13.5592C16.1872 13.5455 16.1872 13.5249 16.1941 13.5043C16.2559 13.4906 16.3176 13.5112 16.3794 13.4975C16.4068 13.4837 16.4343 13.4563 16.4549 13.4426C16.4755 13.422 16.496 13.4014 16.5166 13.374Z" fill="#016601"/>
<path d="M14.3895 13.5181C14.4787 13.4769 14.5679 13.4289 14.6709 13.4357C14.6777 13.4495 14.6846 13.4769 14.6914 13.4906C14.6434 13.4975 14.5885 13.4906 14.5405 13.5112C14.4993 13.5318 14.4582 13.5455 14.417 13.5593C14.4033 13.5524 14.3964 13.5387 14.3895 13.5181Z" fill="#016601"/>
<path d="M14.0463 13.5043C14.06 13.5112 14.0737 13.5181 14.0875 13.5249C14.0806 13.5249 14.0669 13.5249 14.0532 13.518C14.0669 13.5661 14.06 13.6141 14.0532 13.6622C14.0875 13.6622 14.1286 13.669 14.1629 13.6622C14.1972 13.6484 14.2178 13.621 14.259 13.6141C14.3002 13.6073 14.3414 13.6278 14.3757 13.6347C14.4168 13.6416 14.458 13.6416 14.4854 13.6622C14.4786 13.6827 14.4649 13.6965 14.4511 13.717C14.4031 13.7033 14.3619 13.6965 14.3208 13.6827C14.3002 13.6759 14.2796 13.6759 14.2659 13.6759C14.2247 13.6896 14.1972 13.7239 14.1629 13.7239C14.0943 13.7308 14.0257 13.717 13.9571 13.6965C13.9708 13.6965 13.9914 13.6965 14.0051 13.6965C14.0051 13.6896 14.012 13.6759 14.0188 13.6622C14.0737 13.6279 14.0532 13.5592 14.0463 13.5043Z" fill="#016601"/>
<path d="M16.784 13.5867C16.8115 13.6347 16.8183 13.6897 16.8183 13.7445C16.8183 13.8132 16.8115 13.8886 16.7772 13.9504C16.7566 13.9847 16.7291 14.0122 16.7154 14.0465C16.7223 14.0259 16.7291 13.9984 16.7428 13.9847C16.7977 13.9161 16.8115 13.8269 16.8115 13.7377C16.8115 13.6828 16.7909 13.6347 16.784 13.5867Z" fill="#016601"/>
<path d="M15.714 13.7241C15.714 13.7103 15.714 13.6829 15.7346 13.676C15.7757 13.676 15.8169 13.6966 15.8581 13.7103C15.913 13.7172 15.961 13.7378 16.0228 13.7446C16.0845 13.7515 16.1257 13.8133 16.1875 13.8133C16.2286 13.8133 16.2629 13.7858 16.3041 13.7789C16.3247 13.7789 16.3453 13.7927 16.359 13.8064C16.3247 13.8407 16.2767 13.8476 16.2355 13.8613C16.1943 13.8819 16.1531 13.875 16.112 13.8544C16.0777 13.8407 16.0571 13.8201 16.0228 13.8064C15.9267 13.779 15.8101 13.7721 15.714 13.7241Z" fill="#016601"/>
<path d="M14.8972 13.724C14.9177 13.724 14.9383 13.724 14.9589 13.724C14.9589 13.7652 14.9589 13.8132 14.9795 13.8475C14.9932 13.8818 15.0138 13.9093 15.0344 13.9367C15.0138 13.9436 15.0001 13.9505 14.9795 13.9573C14.9726 13.9505 14.9658 13.9367 14.9589 13.9299C14.9589 13.9299 14.952 13.9299 14.9452 13.9299C14.9452 13.9093 14.9383 13.8887 14.9315 13.8681C14.904 13.8269 14.8972 13.772 14.8972 13.724Z" fill="#016601"/>
<path d="M14.4236 13.8131C14.4991 13.7994 14.5746 13.7788 14.6432 13.7376C14.657 13.7513 14.6638 13.7719 14.6638 13.7925C14.5952 13.8337 14.5197 13.868 14.4374 13.868C14.4374 13.8474 14.4305 13.8268 14.4236 13.8131Z" fill="#016601"/>
<path d="M14.5815 13.9368C14.6089 13.93 14.6295 13.9162 14.6569 13.9162C14.705 13.9162 14.7461 13.9505 14.7942 13.9505C14.8422 13.9505 14.8902 13.9574 14.9383 13.9368C14.9383 13.9368 14.9451 13.9368 14.952 13.9368C14.9589 13.9437 14.9657 13.9505 14.9726 13.9643C14.9932 13.9574 15.0138 13.9505 15.0275 13.9437C15.0343 13.9643 15.0343 13.9849 15.0412 14.0054C15.0618 14.0329 15.0961 14.0466 15.1304 14.0672C15.1579 14.0809 15.1853 14.1084 15.2127 14.1221C15.2402 14.1289 15.2608 14.1221 15.2882 14.1289C15.3294 14.1427 15.35 14.1838 15.398 14.1976C15.4598 14.2113 15.5284 14.2113 15.5901 14.2044C15.597 14.225 15.6039 14.2387 15.6107 14.2525C15.6313 14.2525 15.6519 14.2525 15.6725 14.2525C15.6862 14.2593 15.6931 14.273 15.7068 14.2799C15.7686 14.2868 15.8234 14.2799 15.8783 14.2799C15.9058 14.2799 15.9401 14.3005 15.9676 14.3074C16.0156 14.3142 16.0636 14.2936 16.1117 14.3074C16.1391 14.3142 16.1665 14.3211 16.194 14.3211C16.2489 14.3211 16.2695 14.376 16.3038 14.4034C16.2626 14.3828 16.2146 14.376 16.1734 14.3828C16.1391 14.3897 16.1185 14.3622 16.0911 14.3622C16.0362 14.3622 15.9881 14.3691 15.9401 14.3691C15.9058 14.3348 15.8578 14.3417 15.8166 14.3485C15.7548 14.3485 15.6862 14.3622 15.6519 14.3142C15.6245 14.273 15.5764 14.2662 15.5353 14.273C15.5078 14.273 15.4735 14.2662 15.4529 14.2868C15.3431 14.3554 15.2539 14.4583 15.199 14.575C15.1716 14.6299 15.1853 14.6916 15.1784 14.7534C15.1784 15.1376 15.2059 15.515 15.2676 15.8924C15.3225 16.215 15.398 16.5443 15.5284 16.8462C15.5696 16.9423 15.6107 17.0315 15.6656 17.1207C15.6931 17.1619 15.6999 17.2099 15.6862 17.2511C15.6656 17.3128 15.6039 17.3471 15.549 17.3609C15.5215 17.3677 15.4872 17.3677 15.4666 17.354C15.4255 17.3334 15.4049 17.2991 15.3774 17.2648C15.3637 17.306 15.35 17.354 15.3157 17.3815C15.2814 17.4089 15.2333 17.4089 15.1922 17.3883C15.151 17.354 15.1235 17.306 15.103 17.2579C15.0618 17.306 15.0069 17.3609 14.9383 17.3677C14.8902 17.3677 14.8559 17.3197 14.8422 17.2785C14.8148 17.3128 14.7667 17.3334 14.7256 17.3266C14.6707 17.3128 14.6089 17.2923 14.5677 17.2442C14.5334 17.2031 14.5403 17.155 14.554 17.107C14.7942 16.4688 14.9314 15.7827 14.8971 15.0965C14.8902 14.9524 14.8765 14.8014 14.8765 14.6573C14.8765 14.6161 14.8628 14.5681 14.8422 14.5338C14.801 14.4583 14.7256 14.4034 14.6707 14.3348C14.6295 14.2936 14.5677 14.2868 14.5128 14.2868C14.4442 14.2799 14.3756 14.2868 14.3138 14.2662C14.3138 14.225 14.3138 14.1838 14.3207 14.1427C14.3276 14.1221 14.3276 14.0946 14.3138 14.0741C14.3413 14.0672 14.3687 14.0535 14.3962 14.0397C14.4305 14.026 14.4442 13.9917 14.4785 13.978C14.506 13.9505 14.5471 13.9505 14.5815 13.9368Z" fill="#020101"/>
<path d="M14.5471 14.0055C14.5814 13.9986 14.6157 13.9849 14.65 13.9711C14.6912 13.9711 14.7186 13.9986 14.7529 13.9986C14.7872 14.0055 14.8215 14.0055 14.8559 14.0055C14.8559 14.0809 14.8627 14.1564 14.8627 14.2388C14.8215 14.1976 14.7804 14.1564 14.7392 14.1221C14.6637 14.0535 14.5608 14.0466 14.4647 14.0466C14.4853 14.0192 14.5196 14.0123 14.5471 14.0055Z" fill="#CCCCCC"/>
<path d="M14.9245 14.0053C14.9382 13.9985 14.9588 13.9916 14.9726 13.9847C14.9794 14.0259 15.0137 14.0602 15.0549 14.0877C15.0549 14.218 15.0549 14.3484 15.0549 14.4719C15.0823 14.4513 15.0961 14.4239 15.1098 14.3965C15.1647 14.321 15.2264 14.2523 15.2951 14.1906C15.3157 14.2112 15.3431 14.2318 15.3774 14.2386C15.2676 14.3278 15.1716 14.4308 15.1304 14.568C15.1098 14.6229 15.1167 14.6846 15.1167 14.7464C15.1167 14.8287 15.1098 14.9111 15.1235 15.0003C15.1372 15.3365 15.1647 15.6796 15.2333 16.0158C15.2402 16.0776 15.2539 16.1393 15.2676 16.2011C15.247 16.2011 15.2264 16.2011 15.2127 16.2011C15.2127 16.256 15.2127 16.304 15.2196 16.3589C15.2264 16.4001 15.2265 16.4413 15.2333 16.4893C15.2402 16.5442 15.2402 16.6128 15.199 16.6609C15.151 16.7158 15.1441 16.7844 15.1372 16.853C15.1853 16.8873 15.2127 16.9353 15.2539 16.9765C15.2813 17.0177 15.3225 17.0588 15.3225 17.1069C15.3088 17.1412 15.3294 17.1755 15.3225 17.2098C15.3156 17.2441 15.3088 17.2921 15.2813 17.3196C15.2608 17.347 15.2264 17.3265 15.2127 17.3127C15.1715 17.2647 15.151 17.2029 15.1372 17.1343C15.1441 17.1275 15.151 17.1206 15.1578 17.1206C15.151 17.0863 15.1578 17.0451 15.1372 17.0108C15.1235 16.9765 15.0961 16.9422 15.0961 16.901C15.0961 16.8599 15.0892 16.8118 15.1029 16.7707C15.1167 16.7158 15.1235 16.654 15.1304 16.5991C15.1372 16.5579 15.1647 16.5236 15.1784 16.4824C15.2059 16.4138 15.1784 16.3383 15.1784 16.2629C15.1716 16.1462 15.1784 16.0296 15.1715 15.9061C15.1715 15.8512 15.1578 15.7963 15.1441 15.7345C15.1235 15.7345 15.1029 15.7414 15.0824 15.7414C15.0961 15.81 15.1098 15.8786 15.1098 15.9472C15.1098 16.0364 15.1098 16.1325 15.1098 16.2217C15.1098 16.2903 15.1235 16.3658 15.1167 16.4413C15.1098 16.4893 15.0618 16.5236 15.0618 16.5717C15.0549 16.6334 15.0412 16.6952 15.0275 16.7501C15.0206 16.7981 15.0206 16.853 15.0206 16.901C15.0206 16.9491 15.0549 16.9902 15.0755 17.0314C15.0755 17.0657 15.0892 17.1 15.0892 17.1343C15.0549 17.1892 15.0137 17.2441 14.9451 17.2716C14.9177 17.2853 14.8971 17.2441 14.8902 17.2167C14.8765 17.1618 14.8902 17.1 14.8765 17.0383C14.8559 16.9696 14.8834 16.8942 14.8559 16.8255C14.8422 16.7912 14.8422 16.7501 14.8559 16.7089C14.8902 16.6471 14.9382 16.5854 14.9451 16.5099C14.952 16.4344 14.9657 16.3589 14.9726 16.2835C14.9726 16.2492 14.9863 16.2148 14.9931 16.1805C15 16.1188 14.9931 16.0501 15.0206 15.9884C15.0412 15.9335 15.0343 15.8717 15.048 15.8168C15.0618 15.7757 15.0618 15.7345 15.0618 15.6933C15.0618 15.6179 15.0618 15.5424 15.0618 15.4669C15.0412 15.4669 15.0274 15.4669 15 15.4669C14.9931 15.5836 15.0137 15.7071 14.9794 15.8237C14.9657 15.8717 14.9794 15.9198 14.9657 15.9678C14.9245 16.0433 14.9451 16.1325 14.9245 16.2148C14.9108 16.2697 14.9108 16.3315 14.8971 16.3932C14.8902 16.4413 14.8834 16.4962 14.8765 16.5442C14.8559 16.5922 14.8285 16.6403 14.801 16.6814C14.7873 16.7089 14.7873 16.7432 14.7873 16.7707C14.7873 16.8118 14.8079 16.853 14.8147 16.8942C14.8147 16.9422 14.8079 16.9902 14.8216 17.0383C14.8353 17.0931 14.8216 17.1549 14.7873 17.203C14.7736 17.2167 14.7461 17.2304 14.7255 17.2235C14.6775 17.2098 14.6295 17.1892 14.602 17.148C14.602 17.1275 14.602 17.1137 14.6089 17.0932C14.8353 16.4825 14.9726 15.8374 14.9588 15.1856C14.9588 14.9934 14.9314 14.7944 14.9314 14.6023C14.9245 14.5268 14.8971 14.4651 14.849 14.4102C14.8147 14.3553 14.7598 14.3141 14.7187 14.2661C14.6638 14.2043 14.5746 14.1906 14.4991 14.1906C14.4579 14.1906 14.4099 14.1974 14.3687 14.1837C14.3756 14.1563 14.3756 14.1288 14.3756 14.1014C14.4716 14.0877 14.5814 14.0877 14.6706 14.1288C14.7324 14.17 14.7804 14.218 14.8285 14.2729C14.8696 14.3072 14.8971 14.3553 14.9314 14.3827C14.9314 14.2729 14.9245 14.1357 14.9245 14.0053Z" fill="#672800"/>
<path d="M14.0392 14.0123C14.0667 14.0123 14.0873 14.0054 14.1079 14.0123C14.1422 14.0192 14.1559 14.0603 14.1971 14.0672C14.2314 14.0741 14.2725 14.0741 14.3069 14.0603C14.3137 14.0809 14.3137 14.1084 14.3137 14.129H14.3069C14.2863 14.129 14.2588 14.129 14.2382 14.129V14.1358C14.2108 14.129 14.1696 14.1221 14.1422 14.1084C14.101 14.0878 14.0736 14.0466 14.0392 14.0123Z" fill="#016601"/>
<path d="M16.3586 14.0535C16.3655 14.0329 16.3724 14.0192 16.3792 13.9986C16.4273 14.0329 16.4684 14.0741 16.5302 14.0878C16.5919 14.0947 16.6468 14.0741 16.7017 14.0604C16.7017 14.0741 16.7017 14.0947 16.7086 14.1153C16.6949 14.1221 16.688 14.1221 16.6811 14.129C16.64 14.1427 16.5988 14.1496 16.5576 14.1496C16.4822 14.1496 16.4135 14.1084 16.3586 14.0535Z" fill="#016601"/>
<path d="M13.4218 14.1289C13.4629 14.1084 13.4972 14.074 13.5316 14.0466C13.5453 14.0603 13.559 14.0809 13.5727 14.1015C13.5384 14.1221 13.5041 14.1427 13.4629 14.1701C13.4218 14.1976 13.3737 14.2044 13.3257 14.2181C13.3257 14.225 13.3326 14.2387 13.3394 14.2456C13.3326 14.2319 13.3188 14.225 13.312 14.2181C13.2845 14.2181 13.2639 14.2182 13.2434 14.225C13.2228 14.225 13.2159 14.2113 13.209 14.1976C13.2228 14.177 13.2365 14.1633 13.2571 14.1564C13.3051 14.1633 13.3669 14.1495 13.4218 14.1289Z" fill="#016601"/>
<path d="M13.9365 14.1564C13.9776 14.1358 13.9914 14.0878 14.0051 14.0466C14.0257 14.0466 14.0394 14.0535 14.06 14.0535C14.0463 14.1084 14.0257 14.1632 13.9777 14.2044C13.9296 14.2387 13.8747 14.2387 13.8198 14.2524C13.8198 14.2524 13.8198 14.2593 13.8198 14.2662C13.8061 14.2593 13.7855 14.2593 13.7718 14.2662C13.7375 14.2799 13.7032 14.2799 13.6689 14.2799C13.6689 14.2662 13.662 14.2456 13.662 14.225C13.6551 14.225 13.6483 14.225 13.6414 14.225C13.6826 14.2113 13.7306 14.2113 13.7718 14.2044C13.8198 14.1838 13.8816 14.1838 13.9365 14.1564Z" fill="#016601"/>
<path d="M15.851 14.0533C15.8716 14.0533 15.8922 14.0533 15.9059 14.0533C15.9059 14.0876 15.899 14.115 15.8853 14.1425C15.8784 14.163 15.8647 14.1905 15.8441 14.1974C15.7961 14.2248 15.7412 14.2454 15.6863 14.2522C15.6932 14.2591 15.7 14.2728 15.7 14.2797C15.6863 14.2728 15.6794 14.2591 15.6657 14.2522C15.6451 14.2522 15.6245 14.2522 15.604 14.2522C15.5971 14.2385 15.5902 14.2179 15.5834 14.2042C15.6383 14.1836 15.7 14.1974 15.7549 14.1699C15.7755 14.1562 15.803 14.1562 15.8167 14.1356C15.8373 14.1082 15.8373 14.0739 15.851 14.0533Z" fill="#016601"/>
<path d="M16.1253 14.2181C16.1047 14.1632 16.091 14.1014 16.1116 14.0397C16.1253 14.0465 16.139 14.0534 16.1596 14.0671C16.1596 14.1152 16.1665 14.1632 16.1939 14.2044C16.2145 14.2318 16.2419 14.2524 16.2694 14.273C16.2968 14.2936 16.3243 14.321 16.3449 14.3485C16.3517 14.3553 16.3586 14.369 16.3723 14.3759C16.3723 14.3828 16.3654 14.3965 16.3654 14.4034C16.3517 14.4102 16.338 14.4102 16.3243 14.4102C16.3174 14.4102 16.3106 14.4034 16.3106 14.4034C16.2762 14.3759 16.2488 14.321 16.2008 14.321C16.1733 14.2798 16.139 14.2593 16.1253 14.2181Z" fill="#016601"/>
<path d="M14.2385 14.1289C14.2591 14.1289 14.2866 14.1289 14.3071 14.1289C14.2866 14.1632 14.2728 14.2044 14.2797 14.2387C14.2865 14.2867 14.2591 14.3416 14.2111 14.3622C14.1836 14.3759 14.1562 14.3965 14.1287 14.3965C14.1082 14.3965 14.0807 14.3965 14.0601 14.3897C13.9984 14.3622 13.9297 14.3691 13.868 14.3416C13.8268 14.321 13.7856 14.2867 13.7376 14.273C13.7102 14.2661 13.6759 14.2661 13.6415 14.273C13.6415 14.2867 13.6415 14.3142 13.6278 14.321C13.5798 14.3553 13.5317 14.3691 13.4769 14.3828C13.4357 14.3553 13.3877 14.3348 13.3396 14.321C13.3328 14.3142 13.3259 14.3073 13.319 14.3005C13.2916 14.273 13.2641 14.2456 13.2367 14.2181C13.2641 14.2181 13.2847 14.2112 13.3053 14.2112C13.319 14.2181 13.3259 14.225 13.3328 14.2387C13.3602 14.273 13.4151 14.2867 13.4563 14.3073C13.4906 14.3279 13.5249 14.3073 13.5523 14.2936C13.5592 14.273 13.5661 14.2593 13.5729 14.2387C13.5866 14.2181 13.6072 14.2112 13.6278 14.2044C13.6347 14.2044 13.6415 14.2044 13.6484 14.2044C13.6484 14.225 13.6553 14.2387 13.6553 14.2593C13.6896 14.2593 13.7239 14.2524 13.7582 14.2456C13.7719 14.2387 13.7925 14.2387 13.8062 14.2456C13.8611 14.2662 13.9092 14.2936 13.964 14.3005C14.0052 14.3073 14.0395 14.321 14.0738 14.3279C14.1013 14.3348 14.1356 14.321 14.1562 14.3073C14.1768 14.3005 14.1973 14.2799 14.1973 14.2524C14.1973 14.2112 14.1905 14.1632 14.2111 14.122C14.2385 14.1426 14.2385 14.1358 14.2385 14.1289Z" fill="#020101"/>
<path d="M15.1099 14.122C15.1442 14.1426 15.1716 14.1769 15.2128 14.1838C15.1785 14.225 15.1373 14.2593 15.1099 14.3005C15.1099 14.2387 15.1099 14.1769 15.1099 14.122Z" fill="#CCCCCC"/>
<path d="M15.2746 16.4207C15.2678 16.3521 15.254 16.2835 15.2609 16.2149C15.3364 16.5305 15.4324 16.8462 15.5971 17.1275C15.6108 17.1549 15.6246 17.1824 15.6177 17.2098C15.6108 17.2647 15.5491 17.2922 15.5011 17.2922C15.4805 17.2922 15.4599 17.2785 15.4462 17.2647C15.4187 17.2304 15.3981 17.1961 15.3775 17.1549C15.3707 17.1344 15.3775 17.1138 15.3775 17.0932C15.3638 17.0314 15.3226 16.9765 15.2883 16.9285C15.2609 16.8942 15.2334 16.8667 15.1991 16.8324C15.1854 16.8256 15.1923 16.8119 15.1923 16.7981C15.1991 16.7707 15.206 16.7501 15.2128 16.7295C15.2266 16.7021 15.2472 16.6815 15.2609 16.654C15.2677 16.6334 15.2746 16.606 15.2815 16.5854C15.2952 16.5305 15.2746 16.4756 15.2746 16.4207Z" fill="#672800"/>
<path d="M11.8093 16.9354C11.8437 16.9148 11.8848 16.9011 11.926 16.9148C11.9809 16.9423 12.0221 16.9903 12.0838 17.0109C12.1387 17.0315 12.2005 17.0109 12.2485 16.9766C12.2416 17.0383 12.2211 17.0932 12.2142 17.155C12.173 17.3403 12.1387 17.5255 12.0907 17.7108C11.9946 17.6216 11.9054 17.5187 11.8437 17.4089C11.7956 17.3197 11.7476 17.2236 11.7407 17.1275C11.7407 17.0932 11.7339 17.0521 11.7544 17.0177C11.7682 16.9972 11.775 16.956 11.8093 16.9354Z" fill="#CCCCCC"/>
<path d="M18.0123 16.9218C18.0466 16.9012 18.0947 16.9081 18.129 16.9218C18.1839 16.9424 18.2044 16.9973 18.225 17.0453C18.2456 17.1551 18.1976 17.2649 18.1496 17.3678C18.0809 17.4982 17.978 17.6148 17.8682 17.7109C17.8133 17.4639 17.7584 17.2237 17.7104 16.9767C17.7584 17.011 17.8133 17.0247 17.8682 17.011C17.9231 17.0041 17.9643 16.9561 18.0123 16.9218Z" fill="#CCCCCC"/>
<path d="M18.6643 17.1551C18.7124 17.1002 18.7535 17.0315 18.7535 16.9561V19.4126H15.3638C15.4461 19.3989 15.5285 19.3989 15.6108 19.3852C15.6863 19.3783 15.7618 19.3714 15.8304 19.344C15.8784 19.3303 15.9264 19.3165 15.9676 19.2891C15.9813 19.2754 15.9951 19.2548 15.9951 19.2273C15.9951 19.0489 15.9951 18.8705 15.9951 18.6853C16.2627 18.6853 16.5372 18.6853 16.8048 18.6853C16.9832 18.6853 17.1616 18.6852 17.34 18.6646C17.5321 18.6441 17.7243 18.6029 17.9027 18.5274C18.0399 18.4725 18.1771 18.3971 18.2801 18.2941C18.3761 18.1981 18.4585 18.0677 18.4653 17.9236C18.4722 17.7177 18.4585 17.5119 18.3967 17.3129C18.4996 17.2923 18.5888 17.2305 18.6643 17.1551Z" fill="white"/>
<path d="M11.2399 16.9561C11.2468 17.0109 11.2674 17.059 11.2948 17.1001C11.3566 17.1962 11.4595 17.2648 11.5624 17.306C11.5007 17.505 11.487 17.7109 11.4938 17.9099C11.5007 18.0334 11.5556 18.15 11.6311 18.2392C11.7271 18.349 11.8506 18.4313 11.981 18.4931C12.2212 18.6029 12.4888 18.6509 12.7495 18.6715C12.9279 18.6852 13.1132 18.6784 13.2916 18.6784C13.5181 18.6784 13.7376 18.6784 13.9641 18.6784C13.9641 18.8568 13.9641 19.0352 13.9641 19.2205C13.9572 19.2548 13.9847 19.2754 14.0121 19.2891C14.0601 19.3165 14.115 19.3303 14.1699 19.3371C14.2591 19.3646 14.3483 19.3714 14.4444 19.3783C14.4924 19.3851 14.5405 19.3851 14.5885 19.3989H11.2468V16.9561H11.2399Z" fill="white"/>
<path d="M11.5485 17.7794C11.5485 17.5667 11.5897 17.3609 11.6789 17.1619C11.6995 17.2854 11.7543 17.4089 11.8298 17.5118C11.8847 17.5873 11.9396 17.6559 12.0082 17.7177C11.9396 17.7726 11.871 17.8343 11.7955 17.8892C11.7406 17.9373 11.6789 17.9784 11.6377 18.0402C11.624 18.0676 11.6171 18.0951 11.6171 18.1294C11.6034 18.0951 11.5828 18.0676 11.5691 18.0265C11.5416 17.951 11.5416 17.8618 11.5485 17.7794Z" fill="#CCCCCC"/>
<path d="M18.28 17.1619C18.3006 17.2236 18.328 17.2854 18.3418 17.3471C18.3967 17.5256 18.4104 17.7177 18.4035 17.903C18.4035 17.9716 18.3829 18.0402 18.3486 18.102C18.2182 18.0127 18.0947 17.9235 17.9644 17.8343C17.9506 17.8275 17.9369 17.8137 17.9232 17.8069C17.9095 17.8137 17.8957 17.8206 17.882 17.8275C17.9644 17.9784 18.0536 18.1363 18.129 18.2872C18.1428 18.2804 18.1565 18.2735 18.1702 18.2666C18.1428 18.2186 18.1153 18.1706 18.0947 18.1294C18.129 18.1088 18.1702 18.0814 18.2045 18.0608C18.2457 18.0882 18.28 18.1157 18.3212 18.1431C18.2526 18.2392 18.1565 18.3215 18.0536 18.3833C17.9026 18.4794 17.7242 18.5342 17.5526 18.5686C17.3468 18.6097 17.1409 18.6234 16.9282 18.6234C16.6126 18.6234 16.3038 18.6234 15.9881 18.6234C15.9881 18.5685 15.9881 18.5137 15.9881 18.4588C15.9881 18.397 15.947 18.349 15.9127 18.3078C15.8235 18.2117 15.7137 18.1363 15.6107 18.0539C15.5764 18.0196 15.5353 17.9853 15.5078 17.9441C15.4941 17.9167 15.4804 17.8892 15.4941 17.8618C15.5558 17.8618 15.6176 17.8824 15.6725 17.8961C15.8715 17.951 16.0636 18.0127 16.2626 18.047C16.4959 18.0882 16.7361 18.1088 16.9762 18.1088C17.3193 18.1019 17.6556 17.9716 17.9095 17.7383C18.0947 17.5873 18.2388 17.3883 18.28 17.1619Z" fill="#CCCCCC"/>
<path d="M11.7613 17.9783C11.8505 17.9028 11.9466 17.8274 12.0358 17.7519C12.077 17.793 12.1318 17.8274 12.173 17.8617C12.1044 17.9166 12.0289 17.9783 11.9603 18.0332C11.9191 18.0744 11.8711 18.1087 11.8231 18.1361C11.7956 18.1499 11.7613 18.1567 11.7339 18.143C11.7064 18.1293 11.679 18.1087 11.6858 18.0744C11.6927 18.0401 11.7339 18.0126 11.7613 17.9783Z" fill="#CCCCCC"/>
<path d="M14.2589 17.9028C14.307 17.8891 14.355 17.8754 14.4099 17.8685C14.4236 17.8685 14.4442 17.8616 14.4511 17.8822C14.4579 17.9303 14.4236 17.9783 14.3893 18.0126C14.3001 18.1087 14.1835 18.1773 14.0874 18.2596C14.0325 18.3145 13.9708 18.3694 13.957 18.4517C13.9502 18.5135 13.957 18.5753 13.957 18.6302C13.8404 18.6302 13.7306 18.6302 13.6208 18.6302C13.662 18.6233 13.7031 18.589 13.7237 18.5478C13.758 18.4723 13.7649 18.3831 13.758 18.3008C13.7512 18.239 13.7443 18.1773 13.6963 18.1361C13.6757 18.1087 13.6414 18.0949 13.6139 18.0949C13.559 18.0949 13.511 18.0949 13.4561 18.0949C13.4561 18.2733 13.4561 18.4517 13.4561 18.6302C13.4424 18.6302 13.4287 18.6302 13.4149 18.6302C13.3669 18.4586 13.312 18.2802 13.264 18.1086C13.4492 18.0949 13.6277 18.0675 13.8061 18.0263C13.957 17.992 14.108 17.9508 14.2589 17.9028Z" fill="#CCCCCC"/>
<path d="M17.9509 17.8756C18.0195 17.9305 18.095 17.9785 18.1636 18.0334C18.1361 18.054 18.1018 18.0677 18.0744 18.0883C18.0332 18.0128 17.992 17.9442 17.9509 17.8756Z" fill="#CCCCCC"/>
<path d="M11.9123 18.1431C12.0152 18.0608 12.1113 17.9716 12.2142 17.8961C12.2897 17.9373 12.3583 17.9853 12.4406 18.0128C12.3651 18.1363 12.2828 18.2529 12.2073 18.3764C12.2211 18.2255 12.2485 18.0814 12.2759 17.9304C12.2622 17.9236 12.2485 17.9167 12.2279 17.9098C12.125 18.0677 12.0221 18.2255 11.926 18.3833C11.9397 18.3902 11.9534 18.397 11.9672 18.4039C12.0426 18.2804 12.125 18.1637 12.2073 18.0333C12.1867 18.1843 12.1662 18.3284 12.1387 18.4794C12.1524 18.4862 12.1662 18.4931 12.1867 18.4999C12.2897 18.3421 12.3857 18.1912 12.4887 18.0333C12.5298 18.0333 12.6396 18.0745 12.6396 18.0745C12.6396 18.0745 12.7014 18.0882 12.7357 18.0951C12.7288 18.2735 12.722 18.445 12.7151 18.6235C12.6465 18.6166 12.571 18.6097 12.5024 18.596C12.5367 18.4245 12.5779 18.2529 12.619 18.0814C12.6053 18.0677 12.5847 18.0676 12.571 18.0676C12.5298 18.2392 12.4955 18.4176 12.4544 18.5892C12.2897 18.5617 12.1318 18.5137 11.9809 18.4451C11.8574 18.3833 11.7339 18.301 11.6447 18.1843C11.6721 18.2049 11.6996 18.2186 11.727 18.2186C11.8025 18.2186 11.8642 18.1774 11.9123 18.1431Z" fill="#CCCCCC"/>
<path d="M17.7794 17.9304C17.7656 17.903 17.8 17.903 17.8137 17.8961C17.9029 18.0402 17.9852 18.1774 18.0676 18.3215C18.0538 18.3284 18.0333 18.3353 18.0195 18.3421C17.9441 18.198 17.8617 18.0677 17.7794 17.9304Z" fill="#020101"/>
<path d="M17.5389 18.0745C17.5526 18.0197 17.6075 17.9785 17.6693 17.9785C17.731 17.9785 17.7859 18.0196 17.8271 18.0677C17.8134 18.0745 17.8065 18.0883 17.7928 18.0951C17.7722 18.0814 17.7585 18.0608 17.7379 18.0471C17.6899 18.0196 17.6213 18.0334 17.6007 18.0814C17.5801 18.1226 17.6007 18.1775 17.6144 18.2186C17.635 18.2735 17.6693 18.3216 17.7105 18.3628C17.7516 18.3971 17.8134 18.4039 17.8546 18.3696C17.8889 18.3353 17.882 18.2873 17.8683 18.2392C17.8889 18.2392 17.9026 18.2392 17.9232 18.2392C17.93 18.2873 17.9438 18.3353 17.9163 18.3833C17.8889 18.4314 17.834 18.4451 17.7859 18.4451C17.7448 18.4451 17.7105 18.4245 17.683 18.3971C17.6281 18.349 17.5938 18.2941 17.5664 18.2255C17.5321 18.1775 17.5252 18.1226 17.5389 18.0745Z" fill="#020101"/>
<path d="M15.4735 17.9921C15.5627 18.1087 15.6931 18.1911 15.8029 18.2871C15.8578 18.3352 15.9264 18.3901 15.9401 18.4724C15.8921 18.5067 15.8372 18.5136 15.7823 18.5273C15.6794 18.5479 15.5696 18.5547 15.4667 18.5685C15.4735 18.5136 15.4735 18.4518 15.4735 18.3969C15.4735 18.2597 15.4735 18.1225 15.4735 17.9921Z" fill="#CCCCCC"/>
<path d="M14.1287 18.3078C14.2454 18.2049 14.3895 18.1225 14.4855 17.999C14.4924 18.0676 14.4855 18.1431 14.4855 18.2186C14.4855 18.3352 14.4855 18.4519 14.4855 18.5685C14.362 18.5548 14.2454 18.5479 14.1287 18.5205C14.0944 18.5068 14.0532 18.4999 14.0258 18.4793C14.0189 18.4656 14.0258 18.4382 14.0327 18.4244C14.0532 18.3764 14.0876 18.3421 14.1287 18.3078Z" fill="#CCCCCC"/>
<path d="M17.3947 18.0813C17.4084 18.0813 17.4222 18.0744 17.4359 18.0675C17.4908 18.2185 17.5457 18.3695 17.6006 18.5204C17.5868 18.5204 17.5731 18.5273 17.5525 18.5342C17.5114 18.4244 17.4702 18.3146 17.4359 18.2116C17.4222 18.1705 17.4016 18.1293 17.3947 18.0813Z" fill="#020101"/>
<path d="M17.0657 18.1225C17.1687 18.1156 17.2647 18.1088 17.3608 18.1019C17.3608 18.1156 17.3608 18.1362 17.3676 18.1568C17.3265 18.1637 17.2853 18.1637 17.2441 18.1705C17.2579 18.3078 17.2716 18.445 17.2853 18.5822C17.2647 18.5822 17.251 18.5822 17.2304 18.5822C17.2167 18.445 17.203 18.3078 17.1892 18.1637C17.1481 18.1705 17.1069 18.1705 17.0657 18.1705C17.0726 18.1637 17.0726 18.1431 17.0657 18.1225Z" fill="#020101"/>
<path d="M12.9552 18.1155C13.0375 18.1155 13.1199 18.1155 13.2022 18.1155C13.1542 18.2871 13.1061 18.4655 13.065 18.637C13.0101 18.637 12.9552 18.637 12.8934 18.6302C12.9415 18.6302 12.9758 18.589 12.9964 18.5478C13.0307 18.4792 13.0375 18.39 13.0375 18.3145C13.0307 18.239 13.0169 18.1567 12.9552 18.1155Z" fill="#CCCCCC"/>
<path d="M16.1805 18.1155C16.1943 18.1155 16.2149 18.1155 16.2286 18.1155C16.2286 18.2253 16.2286 18.3351 16.2286 18.4449C16.2286 18.4792 16.2286 18.5204 16.208 18.5478C16.1806 18.6096 16.0845 18.6164 16.0433 18.5615C16.0227 18.5341 16.0227 18.4929 16.0159 18.4586C16.0296 18.4586 16.0433 18.4518 16.0639 18.4449C16.0639 18.4792 16.0639 18.5135 16.0982 18.5341C16.1188 18.541 16.1462 18.541 16.16 18.5272C16.1805 18.5067 16.1805 18.4792 16.1805 18.4517C16.1805 18.3351 16.1805 18.2253 16.1805 18.1155Z" fill="#020101"/>
<path d="M16.3862 18.1294C16.4068 18.1294 16.4205 18.1294 16.4411 18.1294C16.4343 18.198 16.4343 18.2735 16.4274 18.3421C16.4274 18.3901 16.4205 18.4382 16.4274 18.4862C16.4343 18.5274 16.4617 18.5548 16.5029 18.5548C16.5372 18.5548 16.5784 18.548 16.5989 18.5205C16.6264 18.4656 16.6195 18.4039 16.6264 18.349C16.6333 18.2803 16.6333 18.2117 16.6401 18.1431C16.6538 18.1431 16.6744 18.1431 16.6882 18.1431C16.6813 18.246 16.6744 18.349 16.6676 18.4588C16.6607 18.5137 16.6401 18.5754 16.5921 18.6028C16.5441 18.6303 16.4754 18.6234 16.4343 18.596C16.3862 18.5617 16.3794 18.4999 16.3794 18.4519C16.3725 18.3352 16.3794 18.2323 16.3862 18.1294Z" fill="#020101"/>
<path d="M16.8459 18.1498C16.9008 18.1223 16.9694 18.1292 17.0106 18.1704C17.0449 18.1978 17.0517 18.239 17.0586 18.2733C17.0449 18.2733 17.0243 18.2733 17.0106 18.2802C17.0037 18.2527 16.9969 18.2253 16.9763 18.2047C16.9488 18.1841 16.9077 18.1841 16.8733 18.1978C16.8322 18.2184 16.8184 18.2802 16.8528 18.3076C16.9076 18.3419 16.9763 18.3419 17.0243 18.3762C17.0998 18.438 17.0792 18.5752 16.99 18.6095C16.9214 18.6439 16.8322 18.6164 16.7979 18.5478C16.7841 18.5203 16.7773 18.4929 16.7773 18.4586C16.791 18.4586 16.8116 18.4586 16.8253 18.4517C16.8322 18.4792 16.8322 18.5066 16.8528 18.5272C16.8939 18.5615 16.9488 18.5684 16.99 18.5409C17.0312 18.5203 17.038 18.4517 17.0037 18.4243C16.9557 18.3831 16.8802 18.39 16.8322 18.3488C16.7567 18.3008 16.7704 18.1841 16.8459 18.1498Z" fill="#020101"/>
<path d="M12.7839 18.1568C12.8251 18.1568 12.8663 18.1568 12.9074 18.1637C12.9623 18.1774 12.9761 18.246 12.9829 18.2941C12.9829 18.3696 12.9829 18.4588 12.9417 18.5274C12.9006 18.5823 12.832 18.5617 12.7702 18.5617C12.7702 18.4313 12.7839 18.2941 12.7839 18.1568Z" fill="#CCCCCC"/>
<path d="M13.1749 18.4107C13.1955 18.3284 13.223 18.246 13.2367 18.1568C13.2573 18.2392 13.2847 18.3284 13.2984 18.4107C13.2573 18.4107 13.2161 18.4107 13.1749 18.4107Z" fill="#CCCCCC"/>
<path d="M13.5045 18.1568C13.5456 18.1568 13.5937 18.1568 13.6348 18.1637C13.676 18.1774 13.6966 18.2254 13.7034 18.2598C13.7172 18.3284 13.7172 18.397 13.7034 18.4656C13.6966 18.4999 13.6829 18.5411 13.6417 18.5548C13.6005 18.5754 13.5525 18.5617 13.5045 18.5685C13.5045 18.4313 13.5045 18.2941 13.5045 18.1568Z" fill="#CCCCCC"/>
<path d="M13.1612 18.4725C13.2161 18.4725 13.2641 18.4725 13.319 18.4725C13.3327 18.5274 13.3464 18.5823 13.3602 18.6372C13.2847 18.6372 13.2023 18.6372 13.12 18.6372C13.1269 18.5754 13.1474 18.5205 13.1612 18.4725Z" fill="#CCCCCC"/>
<path d="M14.019 18.541C14.1494 18.5959 14.3003 18.6028 14.4376 18.6234C14.6914 18.6439 14.9522 18.6439 15.2129 18.6439C15.3913 18.6371 15.5766 18.6302 15.755 18.5959C15.8168 18.5822 15.8785 18.5753 15.9403 18.5479C15.9403 18.7812 15.9403 19.0145 15.9403 19.2478C15.8785 19.289 15.7962 19.2958 15.7276 19.3095C15.4943 19.3438 15.2541 19.3507 15.0208 19.3576C14.8012 19.3576 14.5748 19.3507 14.3552 19.3301C14.266 19.3164 14.1699 19.3096 14.0807 19.2821C14.0602 19.2752 14.0327 19.2684 14.019 19.2478C14.019 19.0008 14.019 18.7743 14.019 18.541Z" fill="#CCCCCC"/>
<path d="M14.5132 18.7058C14.5681 18.7058 14.6299 18.7058 14.6848 18.7058C14.7191 18.7058 14.7534 18.7263 14.774 18.7538C14.8083 18.8155 14.8083 18.891 14.7808 18.9528C14.7671 18.9871 14.7328 19.0145 14.6916 19.0214C14.6504 19.0214 14.6093 19.0214 14.5612 19.0214C14.5612 19.09 14.5612 19.1655 14.5612 19.2341C14.5407 19.2341 14.5269 19.2341 14.5063 19.2341C14.5132 19.0626 14.5132 18.8842 14.5132 18.7058Z" fill="#020101"/>
<path d="M14.9657 18.7058C14.9794 18.7058 15 18.7058 15.0206 18.7058C15.0686 18.8842 15.1235 19.0626 15.1715 19.241C15.1509 19.241 15.1304 19.241 15.1098 19.241C15.096 19.1861 15.0823 19.1312 15.0686 19.0832C15.0206 19.0832 14.9657 19.0832 14.9176 19.0832C14.9039 19.1381 14.8902 19.1861 14.8765 19.2478C14.8627 19.2478 14.8422 19.2478 14.8284 19.2478C14.8696 19.0626 14.9176 18.8842 14.9657 18.7058Z" fill="#020101"/>
<path d="M15.1989 18.7058C15.2881 18.7058 15.3773 18.7058 15.4665 18.7058C15.4665 18.7332 15.4734 18.7675 15.4597 18.795C15.3842 18.9253 15.3156 19.0557 15.2401 19.1792C15.3156 19.1792 15.3979 19.1792 15.4734 19.1792C15.4734 19.1998 15.4734 19.2204 15.4734 19.241C15.3773 19.241 15.2744 19.241 15.1783 19.241C15.1783 19.2067 15.1715 19.1792 15.1921 19.1518C15.2675 19.0283 15.3293 18.8979 15.4048 18.7675C15.3362 18.7675 15.2675 18.7675 15.1921 18.7675C15.1989 18.7469 15.1989 18.7332 15.1989 18.7058Z" fill="#020101"/>
<path d="M14.5613 18.7743C14.6025 18.7743 14.6505 18.7743 14.6917 18.7743C14.7328 18.7812 14.7466 18.8292 14.7466 18.8635C14.7534 18.8978 14.7397 18.939 14.6985 18.9596C14.6573 18.9733 14.6093 18.9596 14.5613 18.9664C14.5613 18.8978 14.5613 18.836 14.5613 18.7743Z" fill="#CCCCCC"/>
<path d="M14.993 18.7674C15.0067 18.8497 15.0342 18.9389 15.0548 19.0212C15.0136 19.0212 14.9724 19.0212 14.9244 19.0212C14.9518 18.9389 14.9724 18.8566 14.993 18.7674Z" fill="#CCCCCC"/>
<path d="M15.158 19.4058C15.3844 19.3989 15.6108 19.3852 15.8304 19.344C15.7618 19.3715 15.6863 19.3715 15.6108 19.3852C15.5285 19.3989 15.4461 19.3989 15.3638 19.4126H15.158V19.4058Z" fill="#CCCCCC"/>
<path d="M14.1561 19.3507C14.3688 19.3919 14.5884 19.3987 14.8079 19.4056H14.5746C14.5266 19.3919 14.4786 19.3987 14.4305 19.385C14.3413 19.3782 14.2453 19.3781 14.1561 19.3507Z" fill="#CCCCCC"/>
<path d="M14.4443 10.6499L14.5815 10.8832H14.8491L14.7119 11.1165L14.8491 11.3499H14.5815L14.4443 11.5832L14.307 11.3499H14.0394L14.1767 11.1165L14.0394 10.8832H14.307L14.4443 10.6499Z" fill="#FED101"/>
<path d="M14.2933 11.3772H13.9913L14.1423 11.1165L13.9913 10.8557H14.2933L14.4168 10.6362L14.4442 10.595L14.5952 10.8557H14.8971L14.7461 11.1165L14.8971 11.3772H14.5952L14.4442 11.638L14.2933 11.3772ZM14.2041 11.1165L14.0874 11.3223H14.3207L14.4374 11.5282L14.554 11.3223H14.7942L14.6775 11.1165L14.7942 10.9106H14.554L14.4374 10.7048L14.3207 10.9106H14.0874L14.2041 11.1165Z" fill="black"/>
<path d="M13.2709 10.8492L13.4424 11.0619L13.71 11.0276L13.6071 11.2746L13.7718 11.4873L13.5042 11.5216L13.4012 11.7755L13.2365 11.5628L12.9689 11.5971L13.0719 11.3501L12.9072 11.1374L13.1748 11.0962L13.2709 10.8492Z" fill="#FED101"/>
<path d="M13.223 11.59L12.9279 11.6312L13.0377 11.3499L12.8524 11.1097L13.1475 11.0685L13.2435 10.8352L13.2641 10.7872L13.4494 11.0274L13.7444 10.9862L13.6347 11.2607L13.8199 11.5008L13.518 11.542L13.4082 11.8233L13.223 11.59ZM13.3945 11.7136L13.4837 11.494L13.717 11.4596L13.5729 11.2744L13.6621 11.0548L13.4288 11.0891L13.2847 10.9038L13.1955 11.1234L12.9622 11.1577L13.1063 11.343L13.0171 11.5626L13.2504 11.5283L13.3945 11.7136Z" fill="black"/>
<path d="M12.0841 11.1578L12.2831 11.3431L12.537 11.2676L12.4752 11.5283L12.6673 11.7136L12.4134 11.7891L12.3448 12.0498L12.1527 11.8646L11.8919 11.94L11.9537 11.6793L11.7684 11.4871L12.0223 11.4185L12.0841 11.1578Z" fill="#FED101"/>
<path d="M12.1458 11.8988L11.8576 11.9811L11.9262 11.6861L11.7135 11.4733L12.0017 11.391L12.0635 11.144L12.0772 11.0959L12.2968 11.3087L12.585 11.2263L12.5095 11.5214L12.7222 11.7341L12.434 11.8164L12.3585 12.1115L12.1458 11.8988ZM12.3311 11.9949L12.386 11.7615L12.6124 11.6998L12.4409 11.5351L12.4958 11.3087L12.2693 11.3704L12.1046 11.2057L12.0497 11.4322L11.8233 11.5008L11.9948 11.6655L11.9399 11.8919L12.1664 11.8233L12.3311 11.9949Z" fill="black"/>
<path d="M16.6813 10.849L16.5166 11.0617L16.249 11.0274L16.3451 11.2744L16.1873 11.4872L16.448 11.5215L16.5509 11.7754L16.7156 11.5627L16.9832 11.597L16.8803 11.3499L17.045 11.1372L16.7774 11.096L16.6813 10.849Z" fill="#FED101"/>
<path d="M16.4277 11.5489L16.1257 11.5077L16.311 11.2676L16.2012 10.9931L16.4963 11.0343L16.6541 10.8353L16.6884 10.7941L16.7982 11.0754L17.1001 11.1166L16.9149 11.3568L17.0315 11.6381L16.7296 11.597L16.5443 11.8303L16.4277 11.5489ZM16.3796 11.2813L16.2355 11.4666L16.4688 11.5009L16.558 11.7205L16.7021 11.5352L16.9354 11.5695L16.8462 11.3499L16.9903 11.1647L16.757 11.1304L16.6678 10.9108L16.5237 11.096L16.2904 11.0617L16.3796 11.2813Z" fill="black"/>
<path d="M17.8682 11.1578L17.6692 11.3431L17.4153 11.2676L17.477 11.5283L17.2849 11.7136L17.5457 11.7891L17.6074 12.0498L17.8064 11.8646L18.0603 11.94L17.9986 11.6793L18.1907 11.4871L17.9299 11.4185L17.8682 11.1578Z" fill="#FED101"/>
<path d="M17.5187 11.8164L17.2236 11.7341L17.4432 11.5214L17.3746 11.2263L17.6628 11.3087L17.8412 11.1303L17.8824 11.0959L17.951 11.391L18.2392 11.4733L18.0196 11.6861L18.0882 11.9811L17.8 11.8988L17.5805 12.1115L17.5187 11.8164ZM17.5118 11.5351L17.3403 11.6998L17.5667 11.7615L17.6285 11.9949L17.8 11.8302L18.0265 11.8988L17.9716 11.6723L18.1431 11.5076L17.9167 11.439L17.8618 11.2126L17.6902 11.3773L17.4638 11.3155L17.5118 11.5351Z" fill="black"/>
<path d="M15.5078 10.6499L15.645 10.8832H15.9126L15.7823 11.1165L15.9126 11.3499H15.645L15.5078 11.5832L15.3774 11.3499H15.1098L15.2402 11.1165L15.1098 10.8832H15.3774L15.5078 10.6499Z" fill="#FED101"/>
<path d="M15.357 11.3772H15.0551L15.206 11.1165L15.0551 10.8557H15.357L15.4874 10.6362L15.5148 10.595L15.6658 10.8557H15.9677L15.8167 11.1165L15.9677 11.3772H15.6658L15.5148 11.638L15.357 11.3772ZM15.2746 11.1165L15.158 11.3223H15.3981L15.5148 11.5282L15.6314 11.3223H15.8648L15.7481 11.1165L15.8648 10.9106H15.6314L15.5148 10.7048L15.3981 10.9106H15.158L15.2746 11.1165Z" fill="black"/>
</svg>
