<svg width="30" height="30" viewBox="0 0 30 30" fill="none" xmlns="http://www.w3.org/2000/svg">
<path d="M27.4695 23.3324H2.53809C3.38171 24.5944 4.41052 25.7124 5.58336 26.6657H24.4242C25.5902 25.7192 26.6259 24.5944 27.4695 23.3324Z" fill="white"/>
<path d="M29.8968 16.6711H9.99969H6.66635H0.0957031C0.226019 17.8233 0.479791 18.9413 0.857021 20.0044H29.1286C29.5127 18.9413 29.7665 17.8233 29.8968 16.6711Z" fill="white"/>
<path d="M16.6665 13.3362H29.9038C29.7735 12.184 29.5197 11.066 29.1425 10.0029H16.6734V13.3362H16.6665Z" fill="white"/>
<path d="M16.6665 6.66796H27.469C26.6254 5.41282 25.5966 4.288 24.4237 3.33464H16.6665V6.66796Z" fill="white"/>
<path d="M5.57617 26.6665C8.14819 28.7516 11.4267 29.9998 14.9932 29.9998C18.5597 29.9998 21.8382 28.7516 24.4102 26.6665H5.57617Z" fill="#0061AA"/>
<path d="M29.1359 20.0051H0.864258C1.28264 21.1916 1.84506 22.3096 2.53779 23.3384H27.4692C28.1551 22.3096 28.7175 21.1916 29.1359 20.0051Z" fill="#0061AA"/>
<path d="M6.66667 10.0029H0.857339C0.301783 11.567 0 13.2478 0 15.004C0 15.5666 0.0342931 16.1223 0.0960216 16.6711H6.66667V10.0029Z" fill="#0061AA"/>
<path d="M16.6665 10.002H29.1356C28.7173 8.81544 28.1548 7.69746 27.469 6.66866H16.6665V10.002Z" fill="#0061AA"/>
<path d="M16.6666 10.0029H10.0068V16.6711H29.904C29.9657 16.1223 30 15.5666 30 15.004C30 14.4415 29.9657 13.8858 29.904 13.337H16.6666V10.0029Z" fill="#0061AA"/>
<path d="M10.0004 6.66869H16.6602V3.33461H24.4174C21.8454 1.24908 18.5669 0.00050354 14.9935 0.00050354C13.2377 0.00050354 11.5573 0.302356 9.99353 0.858038V6.66869H10.0004Z" fill="#0061AA"/>
<path d="M6.66706 2.53197C5.03469 3.62936 3.62179 5.0354 2.53125 6.66777H6.66706V2.53197Z" fill="#0061AA"/>
<path d="M6.66684 16.6708H10.0002V10.0027H16.66V6.66855H10.0002V0.857895C8.81362 1.27637 7.69565 1.83893 6.66684 2.52496V6.6617H2.53103C1.84516 7.69075 1.28275 8.80896 0.857513 9.99579H6.66684V16.6708Z" fill="white"/>
</svg>
