<svg width="30" height="30" viewBox="0 0 30 30" fill="none" xmlns="http://www.w3.org/2000/svg">
<g clip-path="url(#clip0_1_14042)">
<path d="M-15 0.0010376H45V30.001H-15V0.0010376Z" fill="#012169"/>
<path d="M-15 0.0010376V1.67808L11.6458 15.001H14.9998V13.324L-11.646 0.0011176H-15V0.0010376ZM14.9998 0.0010376V1.678L-11.646 15.001H-15V13.3241L11.6458 0.0010376H14.9998Z" fill="white"/>
<path d="M-2.5 0.0010376V15.001H2.49992V0.0010376H-2.50008H-2.5ZM-15 5.00104V10.001H14.9998V5.00104H-15Z" fill="white"/>
<path d="M-15 6.00104V9.00104H14.9998V6.00104H-15ZM-1.5 0.0010376V15.001H1.49992V0.0010376H-1.50008H-1.5ZM-15 15.001L-5 10.001H-2.764L-12.764 15.001H-15ZM-15 0.0010376L-5 5.00104H-7.236L-15 1.11912V0.0010376ZM2.76392 5.00104L12.7639 0.0010376H14.9999L4.99992 5.00104H2.76392ZM14.9999 15.001L4.99992 10.001H7.23592L14.9999 13.883V15.001V15.001Z" fill="#C8102E"/>
<path d="M28.178 21.2459C28.178 21.2459 28.0115 21.6851 27.9167 21.6851C27.8218 21.6851 27.4775 21.4953 27.4775 21.4953C27.4775 21.4953 27.2281 21.8992 27.0975 21.9225C26.9668 21.9464 26.6225 21.8634 26.6225 21.8634C26.6225 21.8634 26.2901 21.8634 26.2782 21.8158C26.2663 21.7686 26.2902 21.6737 26.2902 21.6737C26.2902 21.6737 25.8153 22.0532 25.7084 22.0294C25.6016 22.006 25.2454 21.555 25.2454 21.555L25.186 21.7924L24.5094 21.7686L23.9158 21.3886C23.9158 21.3886 23.5833 21.9345 23.5715 21.9226C23.5596 21.9106 22.9897 22.0532 22.9897 22.0532L22.9541 21.9464L22.5742 21.7208C22.5742 21.7208 22.871 21.3055 22.871 21.2936C22.871 21.2817 22.7286 21.234 22.7286 21.234L22.5148 21.4124L22.0756 21.697L21.6364 21.4953L21.8263 21.1391L21.85 20.8778L22.1944 20.3557L26.4089 16.2595L28.4865 20.0943L28.178 21.2459Z" fill="#6A4C2D" stroke="black" stroke-width="0.06624"/>
<path d="M31.1723 21.4943L32.2693 21.4546L31.8022 21.2241L35.9823 21.0666L35.3917 20.8415L34.8685 20.1326L32.7025 19.9696C32.7025 19.9696 32.5395 19.8459 32.2747 19.9075C32.2637 19.7391 32.0611 19.5195 32.0611 19.5195L30.7277 19.4182L29.895 19.9865L30.4574 21.4267L31.1723 21.4943Z" fill="white" stroke="black" stroke-width="0.06624"/>
<path d="M26.9037 9.20939L27.014 8.83381C27.014 8.83381 27.2072 8.50791 27.2072 8.36384C27.2072 8.22027 27.3513 8.04937 27.3513 8.04937C27.3513 8.04937 27.793 7.92219 27.8869 8.19294C28.3623 7.47457 28.9202 8.15966 28.9202 8.15966L29.0747 7.97733L29.3897 7.59082C29.3897 7.59082 29.8373 8.01062 29.8428 8.08216C29.8482 8.15419 29.9198 8.10451 29.9198 8.10451L30.4061 8.06576C30.4061 8.06576 30.6366 8.2466 30.5885 8.59038C30.7598 8.69173 30.9144 9.2864 30.9144 9.2864L26.9037 9.20939Z" fill="url(#paint0_linear_1_14042)" stroke="black" stroke-width="0.06624"/>
<path d="M31.173 13.6787C31.257 13.6275 31.5212 13.5435 31.489 13.157C31.4567 12.7705 31.1218 12.7252 30.9351 12.7382C30.7477 12.7511 30.5803 12.912 30.5803 12.912L29.9618 12.5191C29.9618 12.5191 30.2714 10.5667 30.5997 10.4444C30.9117 10.2194 30.9669 10.122 30.9669 10.0708C30.9669 10.0192 30.8511 9.89003 30.8511 9.89003L28.8341 9.65155L26.9269 9.87715C26.9269 9.87715 26.7788 10.1027 26.7982 10.1931C26.8175 10.283 26.824 10.3799 27.1654 10.6441C27.5434 10.9348 27.8032 12.603 27.8032 12.603C27.8032 12.603 27.2687 12.8668 27.2363 12.8345C27.2041 12.8028 27.0432 12.7705 26.9592 12.7833C26.8757 12.7963 26.5985 12.9379 26.5985 13.305C26.5985 13.6727 26.8757 13.8852 26.8757 13.8852C26.8757 13.8852 28.6989 13.6727 28.9697 14.1748C29.234 13.5692 30.9668 13.782 31.173 13.6786V13.6787Z" fill="#656263" stroke="black" stroke-width="0.06624"/>
<path d="M25.9893 27.1161C25.9893 27.1161 26.3917 25.9526 26.6357 25.9382C26.8801 25.9238 25.9893 22.0607 24.0507 22.0319C23.0023 22.1183 23.9645 23.2381 24.6539 22.8933C24.5677 23.1954 24.2231 23.6261 24.2231 23.6261C24.2231 23.6261 25.5874 24.2148 25.9893 27.1161Z" fill="#FFBB00" stroke="black" stroke-width="0.06624"/>
<path d="M27.7676 19.8494C27.7627 19.84 27.2862 19.9989 27.5947 20.5176C27.6181 20.3168 27.8327 20.1952 27.8327 20.1952C27.8327 20.1952 27.5058 20.5832 27.8516 20.91C27.8938 20.6015 28.09 20.5036 28.09 20.5036C28.09 20.5036 27.8472 21.2185 28.0945 21.3631C28.1228 21.078 28.3047 20.9523 28.3047 20.9523C28.3047 20.9523 28.0851 21.5921 28.2813 21.7367C28.3047 21.4943 28.4681 21.3864 28.4681 21.3864C28.4681 21.3864 28.3703 22.0502 28.6271 22.0968C28.632 21.8629 28.8188 21.6344 28.8188 21.6344C28.8188 21.6344 28.7344 22.1759 29.1363 22.1997C29.1413 21.9941 29.2158 21.7605 29.2158 21.7605C29.2158 21.7605 29.3982 22.3349 29.6644 22.2415C29.66 22.0735 29.6689 21.7556 29.6644 21.7556C29.6595 21.7556 29.8324 22.302 30.1503 22.1997C30.1036 22.0452 30.1687 21.8629 30.1687 21.8629C30.1687 21.8629 30.3371 22.2042 30.6407 22.0919C30.6923 21.9891 30.6267 21.7884 30.6267 21.7884C30.6267 21.7884 31.0704 22.2464 31.206 21.9708C31.3416 21.6951 30.8508 21.6016 30.8508 21.6016H31.1826C31.1826 21.6016 31.0754 21.3214 30.6267 21.2603C30.7807 21.1902 30.9397 21.2419 30.9397 21.2419C30.9397 21.2419 30.8463 20.8912 30.3883 20.8539C30.5661 20.7933 30.7624 20.8355 30.7624 20.8355C30.7624 20.8355 30.7012 20.5036 30.197 20.4103C30.2764 20.3213 30.4911 20.3496 30.4911 20.3496C30.4911 20.3496 30.2904 20.0367 30.0613 20.055C29.8324 20.0739 27.7627 19.8449 27.7676 19.8494Z" fill="#00713D" stroke="black" stroke-width="0.06624"/>
<path d="M29.8094 21.536C29.8094 21.536 29.9917 21.6249 29.9872 21.7045M29.9171 21.3915C29.9171 21.3915 30.1507 21.5549 30.1462 21.6761M30.1223 21.307C30.1223 21.307 30.3096 21.4237 30.3186 21.6061M30.4353 21.382C30.4353 21.382 30.5292 21.5828 30.4964 21.62M30.6227 21.4893C30.6365 21.6483 30.6083 21.6621 30.6083 21.6621M28.319 20.4848C28.319 20.4848 28.5386 20.6249 28.5202 20.8211M28.3051 20.6532C28.3051 20.6532 28.4079 20.7511 28.3846 20.8166M28.5763 20.4897C28.5763 20.4897 28.7209 20.6905 28.6742 20.8305M28.8237 20.6204C28.8237 20.6204 28.8893 20.7466 28.8287 20.8166M28.9405 20.6811C28.9405 20.6811 29.0199 20.8072 28.9499 20.8494M28.8521 21.0969C28.8521 21.0969 29.0572 21.1436 29.0855 21.2976M28.9732 20.9568C28.9732 20.9568 29.1884 20.9706 29.2117 21.1997M29.2584 20.8773C29.2629 20.8773 29.403 21.1252 29.3796 21.2041M29.5341 20.9006C29.5341 20.9006 29.5898 21.139 29.548 21.2136M29.7115 20.994C29.7115 20.9989 29.7159 21.2697 29.7159 21.2697M29.4407 20.6204C29.4407 20.6204 29.5759 20.6716 29.5664 20.8028M29.5665 20.4987C29.5665 20.4987 29.7393 20.5971 29.7209 20.7839M29.7676 20.4197C29.7676 20.4197 29.9172 20.5971 29.8611 20.7933M30.0289 20.4614C30.0289 20.4614 29.9733 20.681 29.9961 20.77M30.1879 20.6109C30.1879 20.6109 30.09 20.686 30.1412 20.7794M29.3379 21.4659C29.3379 21.4659 29.3702 21.6344 29.3379 21.6622M29.1228 21.3681C29.1228 21.3681 29.23 21.5549 29.1928 21.6483M28.8937 21.3587C28.8937 21.3587 29.0155 21.4987 29.0105 21.611M28.707 21.3865C28.707 21.3865 28.8192 21.4943 28.8098 21.5549M28.6091 21.5499C28.6091 21.5499 28.7164 21.6622 28.7115 21.6856" stroke="#3EC26D" stroke-width="0.0621" stroke-linecap="round"/>
<path d="M26.2848 13.8803C26.8 13.8708 27.3152 13.8619 27.8304 13.8525C27.8304 13.8525 28.8512 13.8525 28.9616 14.1839C29.1548 13.7422 30.0376 13.77 30.0376 13.77L31.6378 13.7148C31.6473 15.0026 31.6562 16.2903 31.6657 17.578C31.3531 19.0768 30.2677 20.135 29.0718 20.5856C27.646 20.1256 26.7449 18.9208 26.4507 17.5502C26.3951 16.327 26.3399 15.1034 26.2848 13.8803Z" fill="white" stroke="black" stroke-width="0.06624"/>
<path d="M26.8353 13.8659L29.0863 19.8643L31.1197 13.7352C30.4888 13.776 29.1355 13.6359 28.9676 14.2112C28.7072 13.6965 27.2834 13.9041 26.8353 13.8659Z" fill="#006B00" stroke="black" stroke-width="0.06624"/>
<path d="M28.3673 17.1135C28.4543 17.1587 28.4518 15.4855 28.5656 15.4338C28.5979 15.2952 28.6143 15.2346 28.655 15.0876C28.5572 14.9142 28.119 14.9226 27.9565 15.0702C28.0296 15.3037 28.0618 15.3817 28.0618 15.3817C28.2814 15.7369 28.2377 17.1513 28.3673 17.1135Z" fill="#FFC900" stroke="#006B00" stroke-width="0.0342295" stroke-linecap="round"/>
<path d="M27.7642 4.18116C27.7642 4.18116 27.9237 4.00044 27.9306 3.95716C27.9381 3.91372 28.6535 3.88484 29.0798 3.0898C29.3182 2.6706 29.0798 2.91636 29.0798 2.91636L29.0654 2.71396C29.0654 2.71396 29.362 2.43212 29.2537 2.28028C29.1449 2.12852 29.1811 2.47548 29.0077 2.46828C28.8344 2.46108 28.9282 2.09236 28.9282 2.09236C28.9282 2.09236 28.9138 2.049 28.8632 2.02732C28.7906 2.03452 28.8125 2.16468 28.7474 2.17908C28.6824 2.19356 28.6247 1.87556 28.6247 1.87556C28.6247 1.87556 28.5164 1.731 28.422 2.18636C28.4727 2.6706 28.7837 2.5766 28.7837 2.89468C28.7837 3.21268 28.5089 3.45844 28.4295 3.46564C28.35 3.47284 28.3788 3.1982 28.3788 3.1982C28.3788 3.1982 28.3356 3.06812 28.3068 3.06812C28.278 3.06812 28.4657 3.03924 28.4369 2.6778C28.3718 2.2442 28.3212 2.779 28.2054 2.75732C28.0897 2.73572 28.1766 2.3598 28.2198 2.31652C28.263 2.27324 28.1692 2.09236 27.9163 2.55492C27.8944 2.779 27.8656 2.49716 27.815 2.51156C27.7286 2.69236 27.743 2.82236 27.8656 2.9886C28.0464 3.15484 28.1622 3.32108 28.1548 3.4078C28.1478 3.4946 28.0534 3.68972 27.9237 3.68972C27.7936 3.68972 27.9307 3.45116 27.9237 3.37164C27.9163 3.2922 27.6998 3.00308 27.6998 3.00308C27.6998 3.00308 27.5477 2.75732 27.5621 2.75012C27.5765 2.74292 27.5477 2.70676 27.4757 2.95972C27.4031 3.21268 27.3161 2.79348 27.3161 2.79348C27.3161 2.79348 27.2153 3.1042 27.4319 3.2922C27.266 3.27052 27.2516 3.33556 27.2516 3.33556C27.2516 3.42228 27.4756 3.45844 27.5044 3.6102C27.5332 3.76196 27.2729 3.84868 27.2729 3.84868C27.2729 3.84868 27.3818 4.00044 27.6848 3.7042C27.6922 3.89204 27.5696 4.0222 27.5696 4.0222C27.6704 4.06796 27.7498 4.06308 27.7642 4.18116Z" fill="#CDAD56" stroke="black" stroke-width="0.0621" stroke-linejoin="round"/>
<path d="M26.7731 4.18121C26.7731 4.18121 26.638 3.98065 26.6321 3.94121C26.6256 3.90177 25.9673 3.99105 25.6559 3.18817C25.4534 2.80665 25.6559 3.03033 25.6559 3.03033L25.6683 2.84617C25.6683 2.84617 25.4526 2.58241 25.5447 2.44433C25.6368 2.30625 25.5989 2.62193 25.7173 2.62249C25.8645 2.61593 25.7848 2.28049 25.7848 2.28049C25.7848 2.28049 25.797 2.24105 25.84 2.22129C25.9013 2.22793 25.9266 2.42577 25.9818 2.43889C26.037 2.45201 26.1511 2.20609 26.1869 2.15553C26.2376 2.14833 26.2357 1.95169 26.3156 2.36601C26.2729 2.80665 25.9077 2.72121 25.9077 3.01057C25.9077 3.29993 26.1407 3.52353 26.2083 3.53009C26.2758 3.53665 26.2515 3.28681 26.2515 3.28681C26.2515 3.28681 26.2883 3.16841 26.3126 3.16841C26.3374 3.16841 26.098 3.21433 26.1228 2.88553C26.178 2.57769 26.3002 2.90537 26.3986 2.88553C26.497 2.86585 26.3871 2.56001 26.4155 2.51329C26.4219 2.46665 26.5665 2.26609 26.6226 2.70865C26.641 2.91257 26.7523 2.53321 26.7951 2.54633C26.8691 2.71073 26.7627 2.93033 26.6584 3.08161C26.5048 3.23281 26.4353 3.39857 26.4418 3.47753C26.4478 3.55641 26.484 3.65449 26.5948 3.65449C26.7051 3.65449 26.6321 3.51689 26.638 3.44465C26.6439 3.37241 26.8283 3.13809 26.8283 3.13809C26.8646 3.08033 26.8342 2.97233 26.8725 2.92241C26.9326 2.92305 26.9575 2.83961 27.0186 3.06977C27.0802 3.29993 27.1538 2.91849 27.1538 2.91849C27.1538 2.91849 27.2396 3.20129 27.0554 3.37233C27.1964 3.35257 27.2088 3.41177 27.2088 3.41177C27.2088 3.49065 27.1418 3.52353 27.117 3.66161C27.0922 3.79969 27.1905 3.87865 27.1905 3.87865C27.1905 3.87865 27.0985 4.01681 26.8407 3.74713C26.8343 3.91809 26.9391 4.03649 26.9391 4.03649C26.8526 4.07817 26.7855 4.07369 26.7731 4.18121Z" fill="#CDAD56" stroke="black" stroke-width="0.0545983" stroke-linejoin="round"/>
<path d="M30.7441 14.7606C30.6095 14.6385 30.5935 14.7453 30.5275 14.7179C30.4947 14.7046 30.4694 14.6742 30.4411 14.6464C30.4167 14.621 30.3875 14.6106 30.3551 14.5972C30.3427 14.6335 30.3307 14.6692 30.3183 14.7055C30.3059 14.7418 30.3527 14.8019 30.3516 14.8561C30.3422 14.9366 30.3094 15.0036 30.208 15.031C30.2368 14.9738 30.2533 14.9714 30.2443 14.9013C30.2403 14.8665 30.1425 14.8044 30.1544 14.7717C30.1723 14.7185 30.2031 14.6573 30.1803 14.6042C30.139 14.6325 30.0843 14.6176 30.0431 14.635C30.0079 14.6504 30.0059 14.7154 29.9571 14.7423C29.9075 14.7657 29.7977 14.7542 29.7058 14.7021C29.7619 14.6598 29.8082 14.6882 29.8643 14.6459C29.8921 14.6246 29.8911 14.5337 29.9189 14.5123C29.9472 14.4909 30.0143 14.4686 30.0421 14.4472C30.0168 14.4184 30.0183 14.3732 29.993 14.3444C29.9681 14.3156 29.8563 14.3215 29.831 14.2932C29.7803 14.2356 29.7902 14.1601 29.7395 14.1029C29.8703 14.1496 29.8514 14.2133 29.8842 14.2082C29.9458 14.1784 30.0074 14.173 30.0396 14.1864C30.0724 14.2003 30.134 14.2808 30.1663 14.2942C30.1787 14.2579 30.1967 14.2122 30.2086 14.1759C30.221 14.1397 30.1539 14.0771 30.1659 14.0408C30.1907 13.9688 30.2513 13.9047 30.2756 13.8322C30.2846 13.9022 30.296 13.9608 30.3049 14.0304C30.3094 14.0651 30.3779 14.0835 30.3825 14.1183C30.3869 14.1535 30.3467 14.2341 30.3507 14.2694C30.3884 14.2619 30.4426 14.2669 30.4798 14.2594C30.5175 14.2519 30.5424 14.165 30.5797 14.1576C30.6547 14.1426 30.7088 14.1472 30.7848 14.1616C30.7287 14.2137 30.6855 14.2102 30.6502 14.2579C30.6224 14.2793 30.6611 14.3494 30.5802 14.3985C30.5498 14.4164 30.4699 14.395 30.4415 14.4164C30.4669 14.4452 30.4923 14.4735 30.5175 14.5023C30.5423 14.5311 30.6557 14.5446 30.681 14.5734C30.7312 14.6305 30.758 14.699 30.7441 14.7606ZM27.2829 14.8198C27.4176 14.6976 27.4335 14.8044 27.5 14.777C27.5323 14.7632 27.5576 14.7329 27.5859 14.7055C27.6103 14.6802 27.6396 14.6698 27.6719 14.6559C27.6844 14.6922 27.6967 14.7284 27.7087 14.7647C27.7211 14.801 27.6749 14.8606 27.6759 14.9147C27.6848 14.9957 27.7176 15.0622 27.819 15.0901C27.7902 15.033 27.7737 15.0299 27.7827 14.9604C27.7871 14.9256 27.8845 14.8635 27.8726 14.8302C27.8547 14.7776 27.8239 14.716 27.8467 14.6628C27.8885 14.6916 27.9427 14.6767 27.9843 14.6936C28.0191 14.7095 28.0216 14.7746 28.0699 14.8014C28.12 14.8248 28.2299 14.8134 28.3212 14.7612C28.2651 14.7185 28.2188 14.7473 28.1627 14.7046C28.1349 14.6837 28.1364 14.5922 28.1081 14.5714C28.0803 14.55 28.0132 14.5272 27.9849 14.5058C28.0102 14.4775 28.0087 14.4318 28.034 14.403C28.0594 14.3746 28.1712 14.3806 28.196 14.3518C28.2467 14.2947 28.2372 14.2192 28.2875 14.1615C28.1567 14.2082 28.1762 14.2718 28.1434 14.2674C28.0812 14.2375 28.0196 14.2316 27.9874 14.2455C27.9551 14.2589 27.893 14.3394 27.8607 14.3533C27.8483 14.317 27.8309 14.2714 27.8184 14.235C27.8059 14.1987 27.8736 14.1362 27.8611 14.0999C27.8368 14.0274 27.7757 13.9638 27.7514 13.8913C27.7424 13.9609 27.731 14.0194 27.7221 14.0895C27.7176 14.1242 27.6491 14.1426 27.6445 14.1774C27.6406 14.2122 27.6808 14.2932 27.6763 14.328C27.6386 14.3205 27.5844 14.3255 27.5472 14.3186C27.5099 14.3106 27.4851 14.2236 27.4473 14.2162C27.3723 14.2013 27.3187 14.2058 27.2422 14.2202C27.2983 14.2728 27.3415 14.2689 27.3768 14.317C27.4046 14.3384 27.3659 14.4085 27.4468 14.4576C27.4772 14.4755 27.5576 14.4542 27.5855 14.4755C27.5601 14.5038 27.5347 14.5326 27.5099 14.5614C27.4846 14.5902 27.3713 14.6037 27.3465 14.632C27.2958 14.6896 27.269 14.7582 27.2829 14.8198Z" fill="#FFC900"/>
<path d="M30.6233 15.1471C30.5011 15.242 29.7137 15.4412 29.7052 16.1253C29.6972 16.8095 29.8433 16.9654 29.6972 16.9828C29.4131 16.9828 29.3724 16.2207 29.3804 15.8828C29.3888 15.5451 29.3967 15.5972 29.3967 15.5972C29.3967 15.5972 29.5915 15.6489 29.5756 15.8139C29.5592 15.9783 29.7703 15.4064 29.6973 15.251C29.8269 15.3806 29.9979 15.329 29.9979 15.32C29.9979 15.3115 29.9004 15.2077 29.8597 15.1298C29.819 15.0519 30.0058 15.173 30.0058 15.173C30.0058 15.173 30.0138 15.0428 29.8513 15.0518C29.6401 15.0518 29.8841 14.9822 29.8841 14.9822C29.8841 14.9822 30.0058 15.095 30.0873 14.9738C29.9979 14.8783 29.8677 14.8262 29.8677 14.8262C29.8677 14.8262 29.7539 14.6101 29.5999 14.5669C29.4211 14.5231 29.4455 14.6443 29.2423 14.6275C29.202 14.705 29.202 14.7139 29.2829 14.7398C29.1448 14.8351 29.2179 15.0254 29.2179 15.0254C29.2179 15.0254 29.4375 14.9305 29.4291 15.086C29.4211 15.242 29.2993 15.2162 29.2179 15.1208C29.1448 15.0776 29.1205 15.164 29.1205 15.164L29.2343 15.2852C29.2343 15.2852 29.0152 15.2768 28.958 15.4239C29.0798 15.4154 29.1448 15.4502 29.1448 15.4502C29.1448 15.4502 28.893 15.5624 28.8686 15.6231C28.8442 15.6837 28.8364 15.554 28.8284 15.554C28.82 15.554 28.5844 15.4671 28.5844 15.4671L28.503 15.8416C28.503 15.8416 28.666 16.0041 28.7548 15.952C28.8443 15.9003 29.0068 15.7443 29.1041 15.7875C28.82 16.0041 28.5358 16.3155 28.3812 16.3593C28.341 16.3246 28.2028 16.1859 28.1458 16.255C28.0892 16.3246 28.1299 16.411 28.2029 16.4026C28.276 16.3936 27.9674 16.4716 28.032 16.6018C28.0971 16.7314 28.0892 16.723 28.1458 16.6882C28.2029 16.6535 28.0971 16.645 28.3082 16.5843C28.5193 16.5237 28.5114 16.4631 28.5114 16.4631C28.5114 16.4631 28.4707 16.558 28.3569 16.5843C28.2432 16.6102 28.1542 16.6102 28.1785 16.645C28.2029 16.6793 28.2516 16.7399 28.2352 16.7746C28.2189 16.8093 28.4707 16.5928 28.5358 16.7662C28.7062 16.7572 28.82 16.5496 28.739 16.4283C28.7469 16.558 28.8284 16.6018 28.7792 16.6623C28.7305 16.723 29.1612 16.4631 28.9501 16.3071C29.0068 16.4368 29.0152 16.5411 29.0152 16.5411C29.0152 16.5411 29.1125 16.5322 29.1369 16.4975C29.1612 16.4631 29.0882 16.5928 29.1205 16.6187C29.1528 16.645 29.3073 16.792 29.2422 16.8959C29.202 16.8352 29.1936 16.7399 29.1448 16.7488C29.0961 16.7572 28.893 16.9048 28.7712 16.9132C28.6495 16.9216 28.9173 17.3639 28.9173 17.3639C28.9173 17.3639 28.7305 17.3375 28.7061 17.3549C28.6817 17.3723 28.5601 17.1989 28.5357 17.3032C28.495 17.4329 28.5765 17.3807 28.5765 17.3807C28.5765 17.3807 28.4707 17.3291 28.4141 17.3897C28.3569 17.4503 28.3003 17.5109 28.341 17.5367C28.3812 17.5626 28.5601 17.5626 28.5844 17.5541C28.6088 17.5456 28.3812 17.5715 28.3654 17.5973C28.349 17.6232 28.3167 17.7186 28.3654 17.7533C28.4141 17.788 28.5358 17.7359 28.5437 17.7101C28.5521 17.6838 28.5601 17.805 28.5601 17.805C28.5601 17.805 28.7713 17.8224 28.7713 17.6063C28.7713 17.3897 28.7876 17.7618 28.7876 17.7618C28.7876 17.7618 28.9988 17.7966 29.0068 17.5799C29.0152 17.3639 29.0311 17.7275 29.0311 17.7275C29.0311 17.7275 29.1692 17.6838 29.1692 17.6495C29.1692 17.6147 29.1612 18.0823 29.0639 18.2124C28.9093 18.108 28.812 18.2815 28.812 18.2815C28.812 18.2815 28.82 18.5323 28.8036 18.5929C28.7876 18.6535 28.9093 18.5587 28.9173 18.5323C28.9257 18.5065 29.0718 18.4375 29.0797 18.42C29.0882 18.4027 29.1285 18.3162 29.1285 18.3162C29.1285 18.3162 29.0961 18.4375 29.0396 18.4548C28.9824 18.4717 28.9257 18.5323 28.9501 18.5844C28.9745 18.6365 29.0639 18.6709 29.0961 18.7231C29.1284 18.7747 29.2422 18.42 29.2422 18.42L29.2507 18.498C29.2507 18.498 29.3967 18.4633 29.4131 18.3942C29.4291 18.3247 29.2587 18.264 29.3967 18.1518C29.5348 18.039 29.3967 18.2556 29.3967 18.2556C29.3967 18.2556 29.4455 18.42 29.4777 18.42C29.5105 18.42 29.5915 18.108 29.5105 18.0306C29.429 17.9526 29.6322 18.1255 29.6322 18.1255C29.6322 18.1255 29.746 17.805 29.6242 17.7618C29.502 17.7186 29.4454 17.7011 29.4454 17.7011C29.4454 17.7011 29.5105 17.6147 29.4777 17.6063C29.4454 17.5974 29.6486 17.7966 29.6809 17.7444C29.7137 17.6927 29.7624 17.5367 29.5269 17.4503C29.2909 17.3639 29.5184 17.1209 29.5184 17.1209C29.5184 17.1209 29.665 17.2943 29.7703 17.1989C29.8756 17.104 29.7624 17.104 29.7624 17.104C29.7624 17.104 30.0624 16.9132 30.0708 16.8179C30.0137 16.8095 29.9164 16.8268 29.9164 16.8268C29.9164 16.8268 30.0872 16.714 30.0465 16.5322C29.9815 16.6276 29.892 16.6276 29.892 16.6276C29.892 16.6276 30.0386 16.4806 30.0137 16.3419C29.9248 16.411 29.9328 16.4631 29.8756 16.4458C29.819 16.4283 29.7216 15.8829 29.9492 15.8482C30.1762 15.8138 30.0545 16.1169 30.0624 16.1169C30.0708 16.1169 30.4037 15.9783 30.0624 15.7532C30.1439 15.7268 30.3143 15.8828 30.3143 15.8828C30.3143 15.8828 30.2412 15.5019 29.8756 15.7359C29.9651 15.6404 30.0222 15.5799 30.0952 15.5972C30.1683 15.6146 30.428 15.5883 30.428 15.5108C30.3635 15.4587 30.2254 15.5367 30.1519 15.5108C30.0788 15.4844 30.672 15.4412 30.6233 15.1471Z" fill="#FFC900" stroke="#006B00" stroke-width="0.0342295" stroke-linecap="round" stroke-linejoin="round"/>
<path d="M28.0487 15.3718C28.0487 15.3718 28.3737 15.19 28.536 15.4154M28.666 15.7615C28.6578 15.7615 28.5522 15.8741 28.5278 15.8741M28.8854 16.1252C28.8854 16.1252 29.1857 16.1512 29.3807 15.8308" stroke="#006B00" stroke-width="0.0342385" stroke-linecap="round"/>
<path d="M29.2102 16.0299C29.2102 16.0299 29.2346 16.2033 29.2834 16.2033C29.332 16.2033 29.2023 16.2465 29.1534 16.2118C29.2102 16.2898 29.2428 16.4284 29.1534 16.4802" stroke="#006B00" stroke-width="0.0342385" stroke-linecap="round"/>
<path d="M29.0558 18.2122C29.0558 18.2122 28.9502 18.3332 28.8202 18.342L29.0558 18.2122Z" fill="#E80000"/>
<path d="M29.0558 18.2122C29.0558 18.2122 28.9502 18.3332 28.8202 18.342" stroke="#006B00" stroke-width="0.0342385" stroke-linecap="round"/>
<path d="M29.1778 17.6579C29.1778 17.6579 29.1128 17.3117 29.1534 17.2249C29.1778 17.1123 29.2833 17.0691 29.3645 16.922" stroke="#006B00" stroke-width="0.0342385" stroke-linecap="round"/>
<path d="M29.1452 17.4066C29.1452 17.4066 29.064 17.6145 28.7067 17.5452M29.2428 16.8871C29.2428 16.8871 29.2669 17.1643 28.9422 17.0605M28.8446 15.6404C28.8446 15.6404 28.7146 15.7615 28.7634 15.9261" stroke="#006B00" stroke-width="0.0342385" stroke-linecap="round"/>
<path d="M29.3317 15.3373C29.3317 15.3373 29.5022 15.268 29.5349 15.2333C29.5672 15.1987 29.6242 15.1295 29.6405 15.0774C29.6566 15.0256 29.5266 14.9475 29.5917 14.835C29.6322 14.7831 29.6889 14.7744 29.7866 14.835C29.8839 14.8955 29.6972 14.6446 29.5998 14.6359C29.5022 14.6272 29.4372 14.7051 29.4131 14.6879C29.3887 14.6705 29.4211 14.7571 29.3805 14.7571C29.3398 14.7571 29.4616 14.8264 29.4537 14.8698C29.4454 14.9131 29.5834 15.0602 29.5754 15.0949C29.5672 15.1295 29.3722 15.3285 29.3317 15.3373Z" fill="#006B00"/>
<path d="M29.4537 14.7658C29.5277 14.7478 29.5397 14.7678 29.5267 14.8351C29.4919 14.8164 29.4792 14.8006 29.4537 14.7658Z" fill="#FFC900" stroke="#FFC900" stroke-width="0.0342385" stroke-linecap="round" stroke-linejoin="round"/>
<path d="M28.935 18.6236C28.935 18.6236 28.9077 18.8049 28.9746 18.8199C28.9711 18.7497 28.9889 18.7019 29.0053 18.6833C28.991 18.6762 28.9382 18.6247 28.935 18.6236ZM28.7843 18.4004C28.7228 18.3911 28.6191 18.4454 28.6488 18.511C28.6989 18.4652 28.7451 18.5147 28.7801 18.468C28.7907 18.455 28.7878 18.4168 28.7843 18.4004ZM28.7838 18.2709C28.7838 18.2709 28.687 18.2545 28.6735 18.3261C28.7403 18.317 28.7602 18.3094 28.7825 18.3244C28.7889 18.3091 28.7828 18.2746 28.7838 18.2709Z" fill="#E80000" stroke="#006B00" stroke-width="0.0342385" stroke-linejoin="round"/>
<path d="M28.3732 17.2497C28.3732 17.2497 28.4313 17.2729 28.4477 17.3363C28.4939 17.3057 28.5159 17.1714 28.3732 17.2497ZM28.2294 17.4039C28.2318 17.4027 28.3511 17.3255 28.3633 17.3993C28.3381 17.4262 28.327 17.4437 28.3074 17.4497C28.292 17.4497 28.2612 17.3993 28.2294 17.4039ZM28.2174 17.6541C28.2196 17.653 28.2941 17.5829 28.3228 17.6295C28.3511 17.6765 28.2997 17.6739 28.2997 17.6739C28.2997 17.6739 28.2734 17.6612 28.2174 17.6541ZM28.1121 16.2604C28.1111 16.2604 28.0166 16.2217 27.9771 16.2918C28.0397 16.3 28.0617 16.3235 28.0901 16.347C28.0824 16.3176 28.0694 16.2732 28.1121 16.2604ZM27.9291 16.7853C27.9291 16.7853 27.9333 16.6674 27.9858 16.6193C28.0156 16.6369 28.0243 16.6649 28.0442 16.6999C28.0047 16.7093 27.9519 16.7118 27.9291 16.7853ZM28.1811 16.7011C28.1811 16.7011 28.0771 16.7525 28.1111 16.8088C28.145 16.7701 28.1824 16.7819 28.1824 16.7808C28.1824 16.7797 28.1824 16.7025 28.1811 16.7011Z" fill="#E80000" stroke="#006B00" stroke-width="0.036521" stroke-linejoin="round"/>
<path d="M28.031 15.5715C27.9936 15.6162 28.0772 15.7132 28.1647 15.6991C28.1867 15.5939 28.053 15.539 28.031 15.5715Z" fill="#FFC900" stroke="#006B00" stroke-width="0.036521" stroke-linejoin="round"/>
<path d="M28.1281 15.4909C28.1281 15.4909 28.1445 15.5741 28.2201 15.5517C28.2082 15.4875 28.1554 15.4395 28.1554 15.4395C28.1522 15.4584 28.1663 15.4875 28.1281 15.4909ZM28.1785 15.7319C28.1785 15.7319 28.2201 15.7797 28.3023 15.6815C28.2652 15.6931 28.1994 15.6581 28.1994 15.6581C28.1994 15.6581 28.1994 15.7259 28.1785 15.7319Z" fill="#E80000" stroke="#006B00" stroke-width="0.036521" stroke-linejoin="round"/>
<path d="M28.0266 15.3809C27.9894 15.4253 28.0422 15.4872 28.1298 15.4734C28.1518 15.3681 28.0486 15.3483 28.0266 15.3809Z" fill="#FFC900" stroke="#006B00" stroke-width="0.036521" stroke-linejoin="round"/>
<path d="M28.0613 14.9653C28.0613 14.9653 28.4111 14.8654 28.5969 15.0155C28.7822 15.165 28.7822 15.0294 28.7822 15.0294C28.7822 15.0294 29.0534 15.1292 29.1319 15.1079C29.2104 15.0865 29.0748 15.1153 29.1816 15.0507C29.2889 14.9867 28.9675 15.0652 28.9392 14.9295C28.889 14.8441 28.9461 14.7368 28.8323 14.7725C28.7538 14.6727 28.882 14.6016 28.8537 14.4943C28.7752 14.5515 28.732 14.473 28.6679 14.6155C28.5184 14.5872 28.6465 14.3801 28.4826 14.3587C28.4826 14.5087 28.3614 14.5157 28.3539 14.6016C28.2829 14.6513 27.9689 14.8371 28.0613 14.9653Z" fill="url(#paint1_linear_1_14042)"/>
<path d="M24.0375 26.34C24.2644 26.2854 25.4935 26.6118 25.9674 27.1195C25.8666 26.2148 25.616 25.5218 25.616 25.5218C25.616 25.5218 24.8836 25.3127 24.7831 25.4135C24.6356 25.5685 24.1927 26.034 24.0375 26.34ZM23.6628 22.161C23.5767 22.1754 23.4905 22.233 23.4044 22.3766C23.3038 22.6205 23.232 23.238 23.0884 23.3816C22.9447 23.5252 22.8156 23.5395 22.8156 23.6692C22.8156 23.7984 22.83 24.0999 23.2176 24.2147C23.6054 24.2291 24.223 23.5971 24.223 23.5971C24.223 23.5971 24.539 23.2524 24.6681 22.8793C23.9214 23.1377 23.39 22.4481 23.6628 22.1609V22.161Z" fill="#C01500" stroke="black" stroke-width="0.06624"/>
<path d="M23.2324 25.5506C23.2324 25.5506 24.0079 26.0816 24.0223 26.326C26.1049 23.238 31.4187 22.2757 34.4487 26.1105C34.8511 25.5789 35.2674 25.407 35.2674 25.407C32.0794 21.2418 25.7313 21.759 23.2324 25.5505V25.5506Z" fill="#FFBB00" stroke="black" stroke-width="0.06624"/>
<path d="M31.1328 13.7363L31.4363 13.7288L30.8942 14.4154L31.5446 15.1744L30.2653 16.7861L31.4725 18.2388C31.3399 18.5641 31.1859 18.8602 30.9807 19.128L30.2871 18.3615L31.5445 16.7935L30.5113 15.6226L31.1327 13.7362L31.1328 13.7363ZM26.7961 13.8733L26.4708 13.8808L27.0778 14.538L26.4349 15.3404L27.7719 16.7936L26.666 18.275C26.7986 18.6004 26.9889 18.9616 27.1936 19.2288L27.8513 18.3976L26.5001 16.8944L27.4902 15.637L26.7961 13.8733Z" fill="#1E5AA6" stroke="black" stroke-width="0.06624"/>
<path d="M28.2999 17.7762L27.823 18.412L29.5285 20.3853C29.8295 20.2333 30.0661 20.06 30.3239 19.8508L29.4346 18.8244L29.7963 17.7617L30.3164 18.3614L28.6904 20.436C28.4182 20.3203 28.1171 20.1394 27.8448 19.9153L28.7048 18.8244L28.2999 17.7761V17.7762ZM27.7723 16.786L28.0833 17.1764L27.8806 16.6489L27.7723 16.786Z" fill="#1E5AA6" stroke="black" stroke-width="0.06624"/>
<path d="M29.998 17.1314C30.0044 17.1238 30.2489 16.7985 30.2489 16.7985L30.154 16.6689L29.998 17.1314Z" fill="#1E5AA6" stroke="black" stroke-width="0.0641369"/>
<path d="M27.5618 11.4355C27.5618 11.4355 26.7773 12.1162 26.3327 11.8986C26.0018 12.0973 25.6143 11.7475 25.6143 11.7475C25.6143 11.7475 26.0679 13.4207 27.6944 12.2106C27.6661 11.8419 27.5807 11.4639 27.5618 11.4355Z" fill="white" stroke="black" stroke-width="0.06624"/>
<path d="M26.3226 11.8703C26.3886 11.5205 26.6629 11.3501 26.8805 11.681C27.1736 11.7381 27.4667 10.5373 26.4264 10.7356C26.7195 9.1662 25.8404 8.57996 25.8404 8.57996C25.8404 8.57996 25.5284 10.3197 25.6702 10.6412C25.8121 10.9626 25.4622 10.0455 24.3371 9.79012C24.3182 11.1047 25.5946 11.7192 25.5946 11.7192C25.5946 11.7192 25.9539 12.0501 26.3226 11.8703Z" fill="#0000FF" stroke="black" stroke-width="0.06624"/>
<path d="M26.4265 10.7261C26.4265 10.7261 25.9352 11.1424 26.0485 11.7098M25.6798 10.6694C25.6798 10.6694 25.5664 11.0758 25.8122 11.6526" stroke="black" stroke-width="0.06624"/>
<path d="M25.6045 11.7854C25.6045 11.7854 25.8315 11.4167 26.3231 11.8892" stroke="black" stroke-width="0.06624"/>
<path d="M25.699 9.23233C25.699 9.22289 24.9521 9.23233 25.3965 9.98889C25.0656 10.0927 24.3281 9.61089 24.8387 8.96753C23.1651 8.92977 22.4844 8.12641 22.4844 7.38865C22.9761 7.89937 24.1485 7.69121 24.5645 8.00321C24.0539 7.53073 24.1579 6.87793 24.1579 6.87793C24.1579 6.87793 25.5857 7.30369 25.8409 8.57057C25.7557 8.81649 25.718 9.25121 25.699 9.23233Z" fill="white" stroke="black" stroke-width="0.06624"/>
<path d="M24.5502 7.97034C24.8257 8.25058 25.5336 8.3345 25.8929 8.6465" stroke="black" stroke-width="0.06624"/>
<path d="M24.8761 8.79757C24.8761 8.79757 25.4622 8.72205 25.6321 8.92973C25.4027 8.92973 25.3263 8.87309 24.9951 8.99629C25.0885 8.94861 25.063 8.86365 25.1139 8.86365C25.1649 8.86365 24.9016 8.79757 24.8761 8.79757Z" fill="#CCCCCD" stroke="#CCCCCC" stroke-width="0.0470966"/>
<path d="M27.7979 4.21186C27.7979 4.21186 28.1193 3.92818 28.4691 4.18346C28.311 4.65578 27.7413 4.47658 27.7413 4.47658C27.7413 4.47658 27.7601 4.71298 27.7035 4.82642C27.8173 4.91218 27.9111 5.19522 27.9111 5.19522C27.9111 5.19522 28.4973 5.05338 28.6205 5.30866C28.8451 5.27762 29.0081 5.30866 29.0081 5.30866C29.0081 5.30866 29.4621 5.19522 29.6226 5.19522C29.7836 5.19522 30.2938 5.32754 30.341 5.4221C30.3887 5.51658 30.5586 6.1501 30.6724 6.14066C30.7856 6.13122 30.3981 6.29186 30.2938 6.13122C30.19 5.97042 30.2183 6.33922 30.2183 6.33922C30.2183 6.33922 30.5397 6.67954 30.5775 6.75522C30.6152 6.83066 30.3793 7.44522 30.5585 7.87098C30.4011 7.88538 30.3887 8.05034 30.3887 8.05034C30.3797 8.23762 30.1428 8.28682 30.1428 8.28682L30.0861 8.03146L29.9252 8.12634L29.9913 7.92762C29.9913 7.92762 30.2089 7.39802 30.2277 7.2281C30.2466 7.0577 30.029 6.75522 29.8591 6.75522C29.6887 6.75522 29.566 7.29418 29.566 7.29418C29.566 7.29418 29.481 7.70058 29.5093 7.73834C29.5377 7.7761 29.3956 7.60618 29.3956 7.60618C29.3956 7.60618 29.3201 7.8521 29.2634 7.92762C29.2068 8.00314 29.0836 8.03146 29.0836 8.03146C29.0836 8.03146 28.9986 7.78554 29.0269 7.69114C29.0553 7.59674 29.4905 7.2281 29.4527 6.96338C29.4145 6.69858 29.4527 6.76466 29.4428 6.75522C29.4333 6.74578 29.2162 6.55666 29.2068 6.45266C29.1973 6.34866 28.9231 6.58506 28.5639 6.50938C28.4537 6.70154 28.4407 7.18042 28.4407 7.18042C28.4407 7.18042 28.4029 7.75722 28.4785 7.82378C28.5545 7.88986 28.2897 8.03146 28.2897 8.03146L28.1004 8.28682C28.1004 8.28682 28.0343 8.12634 28.0343 8.13578C28.0343 8.14522 27.9017 8.23018 27.9017 8.23018L27.9777 8.0409C27.9727 7.89786 28.1615 7.50682 28.1615 7.17594C28.1615 6.84506 28.1853 6.4905 28.1853 6.4905C28.1853 6.4905 27.8356 6.47154 27.845 6.83066C27.8545 7.19042 27.7601 7.2093 27.779 7.31306C27.7979 7.41682 27.8922 7.71002 27.8639 7.79546C27.8356 7.88042 27.7223 7.90874 27.7223 7.90874L27.6941 7.95594C27.6941 7.95594 27.3443 8.1169 27.3537 8.18298C27.3632 8.24906 27.3443 7.9937 27.3443 7.9937L27.3249 7.71946C27.3249 7.71946 27.5331 7.5873 27.5331 7.25642C27.5331 6.92554 27.4853 6.87842 27.4948 6.80282C27.5042 6.72682 27.552 6.45266 27.5425 6.42434C27.5331 6.39594 27.3443 6.49994 27.2872 6.49994C27.2305 6.49994 27.3915 6.30138 27.4104 6.15954C27.4293 6.0177 27.2211 6.29194 27.0512 6.13122C27.1301 5.95666 27.2494 5.90426 27.2683 5.77194C27.2872 5.63962 27.1361 5.88538 27.0035 5.79082C27.0144 5.66394 27.1456 5.5545 27.1456 5.5545C27.1456 5.5545 27.0377 5.54122 26.9941 5.5545C26.9091 5.5261 27.0889 5.3937 27.0984 5.20466C27.1078 5.01562 26.9941 4.93986 26.9941 4.93042C26.9941 4.92098 26.8053 4.76026 26.7769 4.6941C26.7486 4.62794 26.7486 4.55226 26.7486 4.55226C26.7486 4.55226 26.4361 4.77914 26.0675 4.29698C26.4053 4.00866 26.7675 4.2213 26.7675 4.2213C26.7675 4.2213 26.8619 3.9565 27.2966 3.97546C27.7318 3.99442 27.8167 4.24026 27.7979 4.21186Z" fill="#923F00" stroke="black" stroke-width="0.06624"/>
<path d="M29.4044 8.98426C29.4044 8.98426 30.3965 8.9769 30.3413 9.40962C30.2861 9.84282 30.0343 9.75634 30.0343 9.75634L29.5539 9.71658L29.4043 8.98434L29.4044 8.98426Z" fill="#FFFEFF" stroke="black" stroke-width="0.06624"/>
<path d="M28.8452 8.93701L29.42 8.98421C29.42 8.98421 29.7663 9.03141 29.7509 9.36237C29.735 9.69317 29.3962 9.70117 29.3962 9.70117L28.8373 9.66933L28.8453 8.93709L28.8452 8.93701Z" fill="#0000FF" stroke="black" stroke-width="0.06624"/>
<path d="M27.4991 9.1026C27.4911 9.1026 26.6958 9.12644 26.6878 9.55172C26.6803 9.97652 26.9323 9.86668 26.9402 9.86668C26.9481 9.86668 27.5229 9.79564 27.5229 9.79564L27.4991 9.1026Z" fill="white" stroke="black" stroke-width="0.06624"/>
<path d="M28.2707 8.98426C28.2707 8.98426 27.2787 8.9769 27.3338 9.40962C27.389 9.84282 27.6408 9.75634 27.6408 9.75634L28.1212 9.71658L28.2708 8.98434L28.2707 8.98426Z" fill="#0000FF" stroke="black" stroke-width="0.06624"/>
<path d="M28.8304 8.93701L28.2556 8.98421C28.2556 8.98421 27.9088 9.03141 27.9247 9.36237C27.9406 9.69333 28.279 9.70117 28.279 9.70117L28.8378 9.66933L28.8304 8.93701Z" fill="white" stroke="black" stroke-width="0.06624"/>
<path d="M30.3692 13.7179C30.3692 13.7179 30.7826 13.1088 30.957 13.1739C31.109 13.2245 30.9932 13.696 30.9207 13.7397L30.3692 13.7179ZM27.536 13.8267C27.4059 13.6453 27.2171 13.1451 27.0432 13.2827C26.8907 13.3333 27.0069 13.8048 27.0795 13.8485L27.536 13.8267Z" fill="#5E0043" stroke="black" stroke-width="0.06624"/>
<path d="M27.8094 12.6219C27.8094 12.6219 28.6148 13.1182 28.879 13.1312C29.1433 13.1441 29.981 12.4868 29.981 12.4868" stroke="black" stroke-width="0.06624"/>
<path d="M27.8868 10.6764L28.0412 10.4832L28.8148 10.8762L29.6007 10.5279L29.7552 10.6894L28.8789 11.3079L27.8867 10.6764H27.8868Z" fill="#5E0043" stroke="black" stroke-width="0.06624"/>
<path d="M27.2732 10.666C27.3358 10.745 27.8356 11.3526 27.926 11.8553C28.016 12.3581 27.8744 11.1657 27.8744 11.1657C27.8744 11.1657 28.4928 11.4688 28.5122 11.6621C28.5316 11.8554 28.8078 11.6491 28.8212 11.6158L27.0303 10.4529L27.2732 10.666ZM30.329 10.6312C30.329 10.6312 29.6782 11.4882 29.7557 12.4222C29.6216 11.975 29.7299 11.2368 29.7299 11.2368L29.5883 11.3272C29.5883 11.3272 29.4403 11.9586 29.253 12.055C29.2216 11.98 29.2276 11.9522 29.2276 11.9522C29.2276 11.9522 29.0279 12.2095 28.9892 12.2354C28.9506 12.2612 29.002 13.1053 29.002 13.1053C29.002 13.1053 29.0692 13.7173 29.1461 13.7109C29.0582 13.7536 28.9504 13.8206 28.9504 13.8206L28.8704 12.1872L29.0532 12.0034C29.0532 12.0034 29.2982 11.7073 29.3176 11.4171C29.2112 11.5075 29.092 11.5334 29.092 11.5334C29.092 11.5334 29.0597 11.9458 28.9633 12.0034C28.8665 12.0615 28.864 12.1693 28.864 12.1693L28.8412 11.6302L30.329 10.6312Z" fill="#474747" stroke="#474747" stroke-width="0.0621" stroke-linejoin="round"/>
<path d="M28.8403 11.6234L28.9666 14.2003" stroke="black" stroke-width="0.0621" stroke-linecap="round"/>
<path d="M27.2559 12.8539C27.2559 12.8539 27.552 13.0283 27.6618 13.5564C28.628 13.4853 28.9311 13.8272 28.9311 13.8272C28.9311 13.8272 29.7235 13.4472 30.0911 13.5176C30.2198 13.2474 30.5869 12.8992 30.5869 12.8992" stroke="black" stroke-width="0.06624"/>
<path d="M26.8511 10.3282L28.8403 11.6298L30.6318 10.425C30.6318 10.425 31.0054 10.2189 30.9731 10.0708C30.9412 9.92229 30.8121 9.98045 30.7475 10.0063C30.6835 10.0321 28.8726 11.3143 28.8726 11.3143L26.946 10.0962C26.946 10.0962 26.8044 10.0514 26.7786 10.1414C26.7527 10.2318 26.8317 10.283 26.8511 10.3282Z" fill="#B4B6B9" stroke="black" stroke-width="0.06624"/>
<path d="M30.4089 9.99036C30.4089 9.99036 29.8997 9.77428 29.8997 9.96156C29.8997 10.1484 29.9141 10.1677 29.9961 10.288C30.0776 10.4076 29.9335 10.4847 29.9335 10.4847C29.9335 10.4847 29.9141 10.432 29.8853 10.35C29.8565 10.2686 29.5828 10.2109 29.5589 10.1151C29.5351 10.0187 29.6165 9.86516 29.4531 9.84628C29.2901 9.82692 29.1316 9.9134 29.0979 10.1007C29.0641 10.288 28.853 10.7247 28.853 10.7247L28.8818 9.73108C29.2404 9.75636 29.9062 9.83484 30.4184 9.89396C30.2648 9.87012 30.476 9.90396 30.4716 9.9566C30.4572 9.9998 30.404 10.0043 30.4089 9.99036ZM28.608 9.74044C28.5172 9.74044 28.0606 9.79316 27.9453 9.86068C27.8301 9.9278 28.1326 10.0331 28.0944 10.1245C28.0561 10.216 28.0512 10.3982 27.9071 10.36C27.763 10.3212 27.2781 10.0813 27.2637 9.9998C27.2493 9.91828 27.1484 9.9134 27.1484 9.9134C27.1484 9.9134 28.541 9.72604 28.608 9.74044Z" fill="#474747" stroke="#474747" stroke-width="0.0621" stroke-linejoin="round"/>
<path d="M28.8276 9.62622L28.8241 10.8473M27.8872 8.1875C27.8872 8.1875 27.3292 9.0931 27.3184 9.12102" stroke="black" stroke-width="0.06624"/>
<path d="M28.9154 8.1651C28.9154 8.1651 29.1583 8.49647 29.1305 8.59036C29.2299 8.66786 29.3407 8.97737 29.3407 8.97737" fill="url(#paint2_linear_1_14042)"/>
<path d="M28.9154 8.1651C28.9154 8.1651 29.1583 8.49647 29.1305 8.59036C29.2299 8.66786 29.3407 8.97737 29.3407 8.97737" stroke="black" stroke-width="0.06624"/>
<path d="M29.8543 8.10992C29.8543 8.10992 29.3297 8.85016 29.3461 8.90528" stroke="black" stroke-width="0.06624"/>
<path d="M27.1661 4.59016C27.1542 4.63152 27.0873 4.64752 27.0168 4.62592C26.9462 4.60432 26.8985 4.5532 26.9104 4.51184C26.9224 4.4704 26.9892 4.4544 27.0598 4.476C27.1305 4.4976 27.178 4.5488 27.1661 4.59016ZM27.3782 4.57552C27.3901 4.61688 27.4569 4.63296 27.5276 4.61128C27.5982 4.5896 27.6457 4.53864 27.6339 4.4972C27.622 4.45584 27.5551 4.43976 27.4845 4.46144C27.414 4.48312 27.3664 4.53416 27.3782 4.57552Z" fill="black"/>
<path d="M25.1035 17.8979L21.8268 21.151M26.5639 17.9218L23.9044 21.4242M26.4452 17.0076L22.8953 21.3055M22.7884 21.2459L23.1327 20.8424M27.1218 19.1683L25.7445 21.068M25.6852 21.3174L25.7209 22.0412M27.7508 19.833L26.2906 21.6617M27.4899 21.5191L28.0836 20.5454M27.7154 20.3556L27.0031 21.1628M27.5018 19.5959L27.015 20.1891M26.8724 18.7291C26.8724 18.7291 25.3884 20.9015 25.4121 21.0799M26.7179 18.4444C26.6827 18.4678 25.4359 20.1181 25.4359 20.1181M25.3647 20.6403L25.1391 20.9135M24.8541 21.3293L24.5099 21.7804" stroke="black" stroke-width="0.06624"/>
<path d="M24.9413 12.8976C24.9413 12.8976 24.8407 13.2136 24.9413 13.3715C25.0417 13.5295 25.6736 14.8078 25.6736 14.8078C25.6736 14.8078 26.1047 14.2762 26.2627 14.2618C26.4206 14.2479 26.3486 15.641 26.3486 15.641C26.3486 15.641 26.0902 15.8849 25.9323 15.8705C25.7742 15.8561 26.3198 16.4164 26.3054 16.8904C26.291 17.3644 25.5875 19.7197 25.329 19.7624C25.0705 19.8056 25.4439 19.3317 25.4295 19.2025C25.4151 19.0733 25.3433 19.1593 25.2859 19.0157C25.2285 18.8721 25.3721 18.6565 25.3433 18.513C25.3146 18.3694 25.1853 18.3982 25.171 18.2978C25.1566 18.197 25.2572 18.1686 25.2428 18.0534C25.2284 17.9386 25.0705 17.9674 25.0849 17.8666C25.0993 17.7662 25.1136 17.8094 25.0993 17.6226C25.0849 17.4358 25.0561 17.7518 24.8981 17.7662C24.7401 17.7806 24.6109 18.1398 24.6109 18.1398C24.6109 18.1398 24.2949 18.585 23.9789 18.3838C24.1657 18.7862 24.0221 18.9586 23.9503 18.9725C23.8785 18.9869 24.0077 19.2885 23.8353 19.3029C23.663 19.3173 23.9646 19.978 23.7636 20.0357C23.9789 20.136 23.8066 20.2651 23.8066 20.2651C23.8066 20.2651 23.3088 20.3069 23.4188 20.9547C21.954 20.4375 21.2359 19.5473 21.2502 18.6426C21.2646 17.7374 21.5518 16.9192 22.2556 16.6176C22.4566 15.8704 22.8013 15.0662 22.8013 15.0662C22.8013 15.0662 22.7439 14.7358 22.7869 14.5206C22.8301 14.305 23.0311 14.0899 23.0311 14.0899C23.0311 14.0899 23.0023 13.5727 23.0168 13.3144C23.0312 13.0556 23.1317 12.9408 23.146 12.7973C23.1603 12.6538 23.1029 11.9209 23.2465 11.7917C23.3901 11.6625 23.663 11.677 23.8066 11.591C23.9503 11.5046 24.137 11.3466 24.3236 11.361C24.5103 11.3754 24.6683 11.5046 24.6683 11.5046C24.6683 11.5046 25.3721 11.5046 25.4152 11.7774C25.4582 12.0506 25.2716 12.151 25.2716 12.151C25.2716 12.151 25.3721 12.539 24.9412 12.8976H24.9413Z" fill="#8A9396" stroke="#2B2B2B" stroke-width="0.06624"/>
<path d="M24.3162 11.9027C24.3388 11.9443 24.2874 12.0157 24.2016 12.0622C24.1158 12.1087 24.0278 12.1126 24.0053 12.071C23.9828 12.0293 24.0341 11.9579 24.12 11.9114C24.2059 11.8649 24.2938 11.861 24.3162 11.9026V11.9027Z" fill="#CECFCF" stroke="#2B2B2B" stroke-width="0.06624"/>
<path d="M24.1975 11.9751C24.1975 12.0015 24.1736 12.0227 24.1442 12.0227C24.1147 12.0227 24.0908 12.0015 24.0908 11.9751C24.0908 11.9489 24.1147 11.9276 24.1442 11.9276C24.1736 11.9276 24.1975 11.9489 24.1975 11.9751Z" fill="black"/>
<path d="M25.2472 12.4505C25.2472 12.4505 25.4216 13.2295 25.213 13.767M25.3008 12.1097C25.3008 12.1097 25.6412 12.5598 25.5973 13.1197M25.3337 12.0109C25.3448 12.0109 25.6192 12.2523 25.6081 12.4168M25.3996 11.912C25.3996 11.912 25.5863 12.0437 25.6301 12.1753" stroke="#2B2B2B" stroke-width="0.03105"/>
<path d="M25.3121 11.835C25.3121 11.835 24.6425 12.9219 24.7302 13.6026" stroke="black" stroke-width="0.06624"/>
<path d="M25.3556 11.8022C25.3556 11.8022 24.4664 12.3293 24.3018 14.0527" stroke="#2B2B2B" stroke-width="0.03105"/>
<path d="M25.2575 12.1207L24.9062 12.3839" stroke="black" stroke-width="0.06624"/>
<path d="M23.9728 14.1515C23.9728 14.1515 24.4668 12.0987 25.345 11.8022" stroke="#2B2B2B" stroke-width="0.03105"/>
<path d="M25.6853 14.8431C25.6853 14.8431 26.1576 14.2504 26.2673 14.2723C26.3771 14.2941 26.3439 15.6444 26.3439 15.6444C26.3439 15.6444 25.9927 15.9077 25.9161 15.8968C25.8391 15.8859 26.3111 16.5337 26.3001 16.7752C26.2891 17.0167 26.2783 17.0166 26.2783 17.0166C26.2783 17.0166 26.2783 16.874 26.1685 16.6435C26.0588 16.4129 26.1243 16.1491 25.4109 15.5675C25.2352 15.2052 25.7622 15.787 25.8719 15.6991C25.9817 15.6116 25.6744 14.854 25.6853 14.8431Z" fill="#2B2B2B" stroke="#2B2B2B" stroke-width="0.06624"/>
<path d="M24.8462 11.5046C24.8462 11.5046 24.6478 11.5587 24.6206 11.6398C24.5936 11.7212 24.4764 11.8022 24.4133 11.7748C24.3501 11.748 24.2328 11.6487 24.2328 11.6487" stroke="#2B2B2B" stroke-width="0.06624"/>
<path d="M23.7183 12.1992C23.7183 12.1992 23.4206 12.4968 23.5649 12.533C23.7093 12.5688 23.8626 12.2985 23.8626 12.2985C23.8626 12.2985 23.8626 12.7585 23.9889 12.686C24.1153 12.614 24.485 12.3527 24.485 12.3527C24.485 12.3527 24.6113 12.3432 24.6384 12.3527C24.6655 12.3616 24.9812 12.6319 25.1886 12.533C25.0714 12.8395 24.9361 12.8758 24.9361 12.8758C24.9361 12.8758 24.7196 13.1555 24.44 13.0919C24.1603 13.0288 24.0881 12.9116 24.0881 12.9116C24.0881 12.9116 23.8536 12.93 23.7814 12.8216C23.7093 12.7133 23.6822 12.6502 23.6822 12.6502C23.6822 12.6502 23.5469 12.7854 23.5108 12.7222C23.4748 12.6592 23.5108 12.2891 23.7183 12.1992Z" fill="#2B2B2B" stroke="#2B2B2B" stroke-width="0.0621" stroke-linejoin="round"/>
<path d="M25.4056 11.7843C25.4056 11.7843 24.8554 11.6219 24.666 11.8926C24.4765 12.1628 24.5216 12.3164 24.6208 12.3432" stroke="#2B2B2B" stroke-width="0.06624"/>
<path d="M25.49 11.7689C25.49 11.8337 25.4436 11.8864 25.3863 11.8864C25.3289 11.8864 25.2826 11.8338 25.2826 11.7689C25.2826 11.704 25.329 11.6515 25.3863 11.6515C25.4435 11.6515 25.49 11.704 25.49 11.7689Z" fill="black"/>
<path d="M23.8885 13.1729C23.8885 13.1729 24.1129 13.5181 24.3805 13.613C24.648 13.7079 24.1949 13.7899 23.9273 13.609C23.7332 13.3458 23.7849 13.156 23.7849 13.156C23.7849 13.156 23.8367 13.1038 23.8885 13.1729ZM25.8087 15.2097C25.8087 15.2097 25.1787 14.3339 24.9975 14.2862C24.8162 14.239 25.1355 14.2003 25.3297 14.3856C25.5239 14.5709 25.278 14.0835 25.278 14.0835L25.8087 15.2097Z" fill="#2B2B2B" stroke="#2B2B2B" stroke-width="0.06624"/>
<path d="M23.8283 20.2712C24.0699 20.2066 25.1227 20.8752 25.3601 21.0436C25.5974 21.2116 26.0938 21.1038 26.0938 21.1038C26.0938 21.1038 25.8647 21.2419 25.7226 21.2766C25.5802 21.311 26.1454 21.311 26.1454 21.311C26.1454 21.311 24.7992 21.682 23.4314 20.9617C23.3062 20.4008 23.7247 20.2756 23.8283 20.2712Z" fill="#2B2B2B" stroke="#2B2B2B" stroke-width="0.0621" stroke-linejoin="round"/>
<path d="M25.3689 15.4254C25.3689 15.4254 25.192 15.3911 25.1014 15.2873C25.0108 15.1839 24.8814 14.9291 24.7475 14.8213C24.6138 14.7135 23.945 14.3469 23.7034 14.3726C23.4618 14.3984 23.3883 14.3469 23.3581 14.3166C23.3278 14.2862 23.2287 14.3294 23.2459 14.4546C23.2632 14.5798 23.0603 14.8561 23.1338 14.9852C23.2071 15.1149 23.5523 15.641 23.6214 15.6584C23.6904 15.6758 23.6473 15.965 23.6473 15.965C23.6473 15.965 23.9536 16.2754 24.0313 16.2928C24.1089 16.3102 24.1866 16.3664 24.178 16.4394C24.1694 16.513 23.8414 16.9143 23.8414 16.9143C23.8414 16.9143 23.4876 17.0996 23.4833 17.2034C23.479 17.3068 23.5695 17.5224 23.8501 17.5914C24.1305 17.6605 24.8856 17.6044 24.9245 17.5398C24.9633 17.4752 25.0237 17.0867 24.9978 17.0479C24.9718 17.0091 24.7863 16.8925 24.6914 16.9098C24.5966 16.9272 24.5102 17.0047 24.5188 17.0221C24.5274 17.0395 24.3851 17.1125 24.3851 17.0434C24.3851 16.9744 24.6655 16.6639 24.6914 16.6898C24.7174 16.7156 25.1143 16.7543 25.1877 16.953C25.261 17.1513 25.261 17.2938 25.4681 17.2725C25.6753 17.2506 25.9642 17.0609 25.9901 16.6639C26.0159 16.267 25.7573 15.9992 25.6925 15.9605C25.6277 15.9218 25.412 15.792 25.3948 15.7319C25.3775 15.6713 25.3344 15.4731 25.3689 15.4254Z" fill="#2B2B2B" stroke="#2B2B2B" stroke-width="0.06624"/>
<path d="M21.6363 17.1776C21.6363 17.1776 22.3051 17.0048 22.4777 17.0092C22.6503 17.0132 23.3018 17.3152 23.4918 17.501C23.6816 17.6863 24.0699 18.1265 24.3246 18.0877C24.5791 18.0489 24.6525 17.9973 24.6525 17.9973L24.5532 18.1871C24.5532 18.1871 24.3461 18.2433 24.2426 18.2174C24.139 18.1916 23.9362 18.1265 23.7334 17.9282C23.5306 17.7295 22.9049 17.1945 22.3742 17.2333C21.8434 17.2725 21.537 17.7946 21.537 17.7946C21.537 17.7946 21.5414 17.5397 21.563 17.4837C21.5846 17.4276 21.4508 17.6044 21.4508 17.6044L21.6363 17.1776Z" fill="#2B2B2B" stroke="#2B2B2B" stroke-width="0.06624"/>
<path d="M24.0997 17.6953C24.1041 17.6993 24.268 17.7425 24.5441 17.7425C24.8203 17.7425 24.967 17.6217 24.967 17.6217L24.9497 17.514L24.9929 17.3629C24.9929 17.3629 25.2043 17.5786 25.2 17.6218C25.1957 17.665 25.1138 17.6824 25.1138 17.6824L25.0835 17.5786L25.0102 17.6695C25.0102 17.6695 24.6089 17.9884 24.3889 17.9412C24.1688 17.8936 23.966 17.7515 24.0221 17.7167C24.0781 17.6824 24.1084 17.6953 24.0997 17.6953ZM23.1245 18.2607C23.1245 18.2607 22.8829 18.2562 22.775 18.3079C22.6672 18.3596 22.6283 18.4247 22.555 18.4156C22.4817 18.4072 22.4255 18.3124 22.447 18.2736C22.4773 18.213 22.6197 18.1355 22.8915 18.1568C23.1633 18.1787 23.1245 18.2607 23.1245 18.2607H23.1245ZM23.9703 18.9164C23.9703 18.9036 23.953 18.5628 23.8193 18.4246C23.6855 18.2865 23.5215 18.2865 23.4481 18.3034C23.3748 18.3208 23.72 18.4718 23.7545 18.5712C23.7891 18.6705 23.9013 18.9468 23.871 19.0158C23.8408 19.0844 23.7847 18.8216 23.5733 18.748C23.3618 18.6745 23.0685 18.7137 23.1289 18.8087C23.1893 18.9036 23.4266 18.8171 23.5474 19.0198C23.6682 19.2225 23.7589 19.4386 23.7589 19.4386L23.7977 19.2916L23.9056 19.2617L23.9185 18.981L23.9703 18.9164Z" fill="#2B2B2B" stroke="#2B2B2B" stroke-width="0.06624"/>
<path d="M23.7983 20.0207L23.5783 19.5805C23.5783 19.5805 23.5092 19.3003 23.3237 19.2224C23.1382 19.1448 22.8922 19.1577 22.8878 19.2526C22.8835 19.3475 23.2849 19.4682 23.3107 19.5205C23.3366 19.5721 23.3237 19.6585 23.2891 19.6625C23.2547 19.6669 23.0778 19.5979 22.9871 19.6193C22.8965 19.6412 22.8447 19.7574 22.711 19.7231C22.5772 19.6883 22.465 19.2616 22.5168 19.2183C22.5686 19.1751 22.4176 19.2959 22.3874 19.1836C22.3571 19.0713 22.4306 18.7221 22.3787 18.6788C22.327 18.6356 22.0767 18.4846 22.0723 18.4543C22.0681 18.4245 22.0853 16.7373 23.4963 18.1353C22.8922 17.4189 22.6549 17.4965 22.5427 17.4925C22.4607 17.4925 21.9127 17.5397 21.7746 18.2387C21.6366 18.9377 21.4726 18.502 21.4726 18.502C21.4726 18.502 21.4424 18.8041 21.5891 18.8905C21.7358 18.9765 21.52 19.2268 21.52 19.2268C21.52 19.2268 21.2568 18.584 21.2957 18.3033C21.2439 18.5278 21.2482 19.0842 21.5805 19.6929C21.9688 20.1027 22.3356 20.4827 23.3107 20.9095C23.8242 20.1245 23.7983 20.0297 23.7983 20.0207Z" fill="#2B2B2B" stroke="#2B2B2B" stroke-width="0.0621" stroke-linejoin="round"/>
<path d="M22.8746 20.0252C22.8746 20.0252 23.1594 20.0595 23.237 20.2066C23.3147 20.3531 23.3493 20.5776 23.3493 20.5776C23.3967 20.4828 23.4182 20.4008 23.5133 20.3317C23.6083 20.2626 23.6773 20.2537 23.6729 20.2021C23.6685 20.1505 23.3708 19.8355 23.2198 19.8181C23.0689 19.8008 22.8056 19.982 22.8056 19.982C22.8056 19.982 22.7581 20.0511 22.8746 20.0252Z" fill="#8A9396" stroke="#2B2B2B" stroke-width="0.0621" stroke-linejoin="round"/>
<path d="M23.5254 20.7675C23.5254 20.7675 24.2634 21.1038 25.479 21.1256" stroke="#8A9396" stroke-width="0.0621" stroke-linecap="round"/>
<path d="M25.9887 17.3415C25.9887 17.3415 25.9257 17.961 25.4492 19.1831" stroke="#2B2B2B" stroke-width="0.0621" stroke-linecap="round"/>
<path d="M25.894 17.7226C25.894 17.7226 25.751 18.1672 25.354 18.5005" stroke="#2B2B2B" stroke-width="0.06624"/>
<path d="M23.7368 25.4116L23.8646 25.267L23.9055 25.3032L23.8943 25.3159C23.888 25.3229 23.8844 25.3277 23.8835 25.3301C23.8819 25.3348 23.8819 25.3392 23.8835 25.3434C23.885 25.3475 23.8889 25.3523 23.8952 25.3578L24.0642 25.5072C24.071 25.5132 24.0754 25.5166 24.0775 25.5174C24.0796 25.5181 24.0821 25.5179 24.0848 25.5168C24.0875 25.5156 24.0913 25.5121 24.0963 25.5064C24.113 25.4875 24.1239 25.4701 24.1291 25.4543C24.1344 25.4383 24.1357 25.4209 24.1329 25.4021C24.1301 25.3831 24.1223 25.362 24.1093 25.3387L24.1571 25.3115L24.2321 25.4472L24.0326 25.6729L23.9916 25.6368L24.0042 25.6225C24.0093 25.6168 24.0124 25.6117 24.0135 25.6073C24.0145 25.603 24.0144 25.599 24.013 25.5956C24.0115 25.5918 24.0075 25.587 24.001 25.5813L23.8335 25.4333C23.8265 25.427 23.8208 25.4232 23.8164 25.4219C23.8121 25.4204 23.8082 25.4203 23.8046 25.4217C23.801 25.4228 23.7967 25.4262 23.7915 25.4321L23.7777 25.4477L23.7368 25.4116ZM24.0169 25.0986L24.2511 24.8669L24.3707 24.9241L24.3473 24.9731C24.3268 24.9647 24.308 24.9602 24.291 24.9596C24.274 24.9588 24.2591 24.962 24.2463 24.9692C24.2335 24.9761 24.2204 24.9861 24.2071 24.9992L24.1643 25.0416L24.2335 25.1116L24.2476 25.0977C24.2582 25.0872 24.2645 25.0794 24.2667 25.0743C24.2689 25.069 24.2691 25.0639 24.2675 25.0591C24.2659 25.0542 24.2602 25.0468 24.2505 25.037L24.2399 25.0264L24.2758 24.9909L24.3932 25.1096L24.3574 25.145L24.3454 25.133C24.3374 25.1248 24.3305 25.1198 24.3247 25.1181C24.3191 25.1161 24.314 25.1162 24.3093 25.1181C24.3046 25.1201 24.2965 25.1268 24.285 25.1382L24.2723 25.1508L24.336 25.2151C24.3428 25.2219 24.3472 25.2258 24.3494 25.2266C24.3515 25.2274 24.3539 25.2273 24.3566 25.2262C24.3594 25.225 24.364 25.2213 24.3704 25.2149L24.3939 25.1917C24.4115 25.1743 24.4239 25.1571 24.4311 25.1402C24.438 25.1232 24.4407 25.1044 24.4391 25.0841C24.4375 25.0634 24.4316 25.0428 24.4215 25.0223L24.4708 24.9985L24.5371 25.1392L24.2945 25.3792L24.2561 25.3404L24.2631 25.3333C24.2725 25.3241 24.2782 25.3172 24.2801 25.3127C24.282 25.3082 24.2819 25.3036 24.2799 25.2989C24.2786 25.2962 24.2733 25.2902 24.264 25.2808L24.1128 25.1279C24.1045 25.1196 24.0986 25.1148 24.0949 25.1134C24.0913 25.1119 24.0877 25.1118 24.0841 25.1129C24.0804 25.114 24.0749 25.1181 24.0678 25.1251L24.0553 25.1374L24.0169 25.0986ZM24.5107 24.6258C24.5582 24.5851 24.609 24.5667 24.6632 24.5705C24.7175 24.5742 24.7641 24.5988 24.8029 24.6442C24.829 24.6747 24.8455 24.7076 24.8523 24.7428C24.859 24.778 24.856 24.8122 24.8432 24.8454C24.8305 24.8784 24.8073 24.9093 24.7738 24.938C24.7295 24.9758 24.6828 24.9947 24.6338 24.9945C24.5745 24.9942 24.5239 24.9696 24.4818 24.9204C24.4427 24.8747 24.4256 24.8245 24.4306 24.7699C24.4356 24.7152 24.4623 24.6672 24.5106 24.6259L24.5107 24.6258ZM24.5523 24.6729C24.5295 24.6923 24.5187 24.7164 24.5198 24.7449C24.5212 24.7809 24.5365 24.8159 24.5655 24.8499C24.5946 24.8839 24.6255 24.904 24.6582 24.9103C24.6863 24.9155 24.7115 24.9086 24.7339 24.8895C24.7564 24.8702 24.7671 24.8464 24.7661 24.818C24.7647 24.7841 24.7496 24.7503 24.7207 24.7165C24.7003 24.6927 24.6797 24.6756 24.6591 24.6653C24.6384 24.6549 24.6189 24.6506 24.6004 24.6525C24.582 24.6544 24.5659 24.6612 24.5523 24.6729ZM24.9395 24.277L24.9702 24.2557L24.9811 24.2644L25.1639 24.1373L25.1603 24.1237L25.1911 24.1021L25.3103 24.1877L25.2775 24.2329C25.2548 24.2207 25.2394 24.2132 25.2312 24.2104C25.2152 24.2048 25.1995 24.2024 25.1843 24.2033C25.1728 24.204 25.1631 24.207 25.1552 24.2125C25.1515 24.2152 25.1496 24.2179 25.1495 24.2207C25.1492 24.2234 25.1514 24.2279 25.1559 24.2342L25.2854 24.4205C25.293 24.4315 25.2982 24.4381 25.3009 24.4404C25.3036 24.4426 25.3064 24.444 25.3095 24.4444C25.3125 24.4446 25.3158 24.444 25.3195 24.4423C25.323 24.4405 25.3319 24.4347 25.3459 24.4249L25.3771 24.4697L25.2191 24.5796L25.1879 24.5348L25.1975 24.5281C25.208 24.5208 25.2143 24.5154 25.2164 24.5121C25.2184 24.5087 25.219 24.5049 25.2183 24.5005C25.2175 24.4961 25.2134 24.4886 25.2061 24.4781L25.0736 24.2876C25.0699 24.2821 25.0669 24.2792 25.0647 24.2786C25.0625 24.2781 25.0593 24.2792 25.0553 24.2821C25.0473 24.2877 25.0404 24.2969 25.0347 24.3098C25.0289 24.3227 25.026 24.3374 25.0259 24.3538C25.0259 24.3603 25.0277 24.377 25.0315 24.404L24.9786 24.4184L24.9395 24.277ZM25.2985 24.0473L25.5802 23.8766L25.6834 23.9601L25.649 24.0023C25.6311 23.9894 25.6139 23.9806 25.5974 23.9761C25.5811 23.9714 25.5659 23.971 25.5518 23.9749C25.5376 23.9786 25.5226 23.9853 25.5067 23.9949L25.4551 24.0261L25.5061 24.1104L25.5231 24.1001C25.5358 24.0924 25.5438 24.0863 25.5471 24.0819C25.5504 24.0773 25.5519 24.0724 25.5515 24.0673C25.5509 24.0622 25.5471 24.0537 25.54 24.0419L25.5323 24.0291L25.5753 24.0029L25.6618 24.1457L25.6187 24.1718L25.6099 24.1573C25.604 24.1475 25.5984 24.141 25.5933 24.138C25.5883 24.1348 25.5833 24.1336 25.5783 24.1345C25.5732 24.1353 25.5638 24.14 25.5499 24.1484L25.5347 24.1576L25.5816 24.235C25.5866 24.2432 25.59 24.248 25.5919 24.2493C25.5938 24.2506 25.5962 24.251 25.599 24.2506C25.602 24.2501 25.6073 24.2475 25.6151 24.2429L25.6434 24.2257C25.6645 24.2129 25.6806 24.1991 25.6915 24.1844C25.7023 24.1694 25.7093 24.1518 25.7124 24.1316C25.7157 24.1111 25.7148 24.0897 25.7097 24.0675L25.7632 24.0559L25.7948 24.2081L25.503 24.3849L25.4747 24.3381L25.4831 24.333C25.4944 24.3262 25.5015 24.3208 25.5044 24.3168C25.5073 24.3128 25.5083 24.3083 25.5075 24.3033C25.5069 24.3005 25.5032 24.2934 25.4963 24.2821L25.3849 24.0981C25.3788 24.0881 25.3741 24.082 25.3708 24.0798C25.3677 24.0776 25.3642 24.0766 25.3604 24.0769C25.3565 24.077 25.3503 24.0797 25.3418 24.0849L25.3268 24.094L25.2985 24.0473ZM25.6977 23.8084L25.9136 23.6961C25.9275 23.6889 25.9433 23.6822 25.961 23.6762C25.9788 23.6701 25.9966 23.6679 26.0143 23.6696C26.0321 23.6712 26.0481 23.6766 26.0623 23.6857C26.0764 23.6949 26.0878 23.7077 26.0963 23.7241C26.1101 23.7508 26.1118 23.7774 26.1013 23.8038C26.0909 23.8301 26.0741 23.8525 26.0507 23.871L26.1664 23.9173L26.1714 23.9195C26.179 23.9228 26.1855 23.9248 26.1908 23.9257C26.196 23.9264 26.2009 23.9263 26.2054 23.9254C26.2099 23.9246 26.2155 23.9224 26.2223 23.9189L26.2375 23.911L26.2626 23.9594L26.1504 24.0178L25.9595 23.9254L25.9304 23.9406L25.9667 24.0103C25.973 24.0224 25.9776 24.0297 25.9807 24.0324C25.9836 24.0349 25.987 24.0362 25.9907 24.0364C25.9945 24.0364 26.0009 24.0341 26.0098 24.0294L26.0258 24.021L26.051 24.0695L25.8798 24.1585L25.8546 24.1101L25.8702 24.102C25.8784 24.0977 25.8837 24.0939 25.8862 24.0905C25.8887 24.0868 25.8899 24.0828 25.8898 24.0784C25.8896 24.0759 25.8867 24.0694 25.8813 24.0589L25.7788 23.8618C25.7748 23.8541 25.7713 23.8491 25.7683 23.8466C25.7654 23.8438 25.7623 23.8427 25.7589 23.8432C25.7539 23.8434 25.7488 23.8449 25.7437 23.8476L25.7367 23.8516L25.7237 23.8583L25.6977 23.8084ZM25.8567 23.7988L25.9038 23.8893L25.9558 23.8624C25.9761 23.8517 25.9904 23.842 25.9985 23.8331C26.0067 23.8239 26.0115 23.8145 26.0129 23.8049C26.0144 23.7952 26.0126 23.7853 26.0073 23.7753C26.0025 23.766 25.996 23.7594 25.9878 23.7554C25.9796 23.7512 25.9703 23.7497 25.9598 23.7512C25.9494 23.7525 25.9343 23.7584 25.9143 23.7688L25.8567 23.7988ZM26.1438 23.5801L26.3666 23.4824C26.381 23.4761 26.3972 23.4705 26.4152 23.4657C26.4335 23.4608 26.4513 23.4597 26.4688 23.4625C26.4865 23.4653 26.5021 23.4718 26.5156 23.4819C26.5291 23.492 26.5396 23.5056 26.547 23.5225C26.559 23.55 26.5589 23.5766 26.5467 23.6023C26.5346 23.6278 26.5163 23.649 26.4919 23.666L26.6042 23.7199L26.609 23.7225C26.6164 23.7262 26.6227 23.7286 26.628 23.7298C26.6332 23.7309 26.638 23.7312 26.6425 23.7306C26.647 23.7301 26.6528 23.7282 26.6599 23.7251L26.6755 23.7183L26.6974 23.7683L26.5815 23.8191L26.3971 23.7143L26.3671 23.7274L26.3987 23.7994C26.4041 23.8119 26.4083 23.8196 26.4112 23.8224C26.414 23.825 26.4173 23.8266 26.421 23.8271C26.4248 23.8273 26.4312 23.8253 26.4404 23.8213L26.457 23.8141L26.4789 23.8641L26.3022 23.9416L26.2803 23.8915L26.2963 23.8845C26.3048 23.8807 26.3104 23.8773 26.3131 23.8741C26.3159 23.8706 26.3174 23.8666 26.3175 23.8622C26.3175 23.8598 26.3151 23.8531 26.3103 23.8422L26.2211 23.6388C26.2176 23.6308 26.2144 23.6255 26.2116 23.6229C26.2089 23.6199 26.2058 23.6186 26.2024 23.6189C26.1975 23.6188 26.1923 23.62 26.187 23.6223L26.1798 23.6257L26.1663 23.6316L26.1437 23.5801H26.1438ZM26.303 23.581L26.3439 23.6746L26.3975 23.651C26.4187 23.6418 26.4336 23.633 26.4423 23.6246C26.4511 23.6161 26.4565 23.607 26.4585 23.5974C26.4606 23.5878 26.4594 23.5778 26.4549 23.5675C26.4507 23.558 26.4447 23.551 26.4367 23.5465C26.4288 23.5417 26.4196 23.5396 26.4091 23.5404C26.3986 23.541 26.3831 23.5458 26.3626 23.5549L26.303 23.581ZM26.7375 23.333L26.8207 23.3027L27.0365 23.5483C27.0481 23.5614 27.0568 23.5688 27.0627 23.5707C27.0688 23.5725 27.0781 23.571 27.0906 23.5662L27.1093 23.6176L26.9339 23.6816L26.9151 23.6302L26.9257 23.6261C26.9355 23.6226 26.9418 23.6188 26.9448 23.6149C26.9478 23.6108 26.9485 23.6069 26.9472 23.6033C26.946 23.6001 26.942 23.5941 26.935 23.5854L26.9118 23.5556L26.7987 23.5969L26.7986 23.6393C26.7987 23.6484 26.7992 23.6542 26.8001 23.6566C26.8012 23.6594 26.8031 23.6617 26.8059 23.6633C26.8088 23.6648 26.8128 23.6652 26.8178 23.6646C26.821 23.6642 26.8295 23.6615 26.8431 23.6566L26.8619 23.7078L26.7183 23.7602L26.6996 23.7089C26.7088 23.7056 26.7153 23.7023 26.7189 23.6992C26.7226 23.696 26.7252 23.6923 26.7267 23.6882C26.7284 23.684 26.7293 23.6769 26.7295 23.667L26.7375 23.3331V23.333ZM26.7989 23.5369L26.8731 23.5098L26.7996 23.4209L26.7988 23.5369L26.7989 23.5369ZM27.0454 23.2222L27.217 23.1729L27.3492 23.3847L27.351 23.1343L27.5255 23.084L27.5407 23.1365L27.5219 23.1419C27.5118 23.1448 27.5053 23.149 27.5026 23.1545C27.5 23.1598 27.5004 23.1683 27.5038 23.1801L27.5658 23.3954C27.5684 23.4049 27.5707 23.4106 27.5725 23.4126C27.5752 23.4158 27.5782 23.4177 27.5815 23.4182C27.586 23.4193 27.5916 23.4189 27.5982 23.417L27.6196 23.4109L27.6348 23.4633L27.4523 23.5158L27.4371 23.4633L27.4513 23.4593C27.4616 23.4563 27.4684 23.4534 27.4715 23.4508C27.4747 23.4481 27.4767 23.4449 27.4773 23.4412C27.4782 23.4372 27.4773 23.4307 27.4747 23.4217L27.4075 23.1884L27.4055 23.5293L27.3531 23.5444L27.176 23.2659L27.2424 23.4965C27.2439 23.5017 27.246 23.5055 27.2487 23.5079C27.2515 23.5102 27.2548 23.5117 27.2587 23.5124C27.2628 23.5128 27.2687 23.5118 27.2765 23.5096L27.2947 23.5044L27.3099 23.5569L27.1546 23.6015L27.1395 23.549L27.1547 23.5446C27.1643 23.5418 27.1706 23.5392 27.1735 23.5366C27.1767 23.5337 27.1786 23.5302 27.1791 23.5261C27.1798 23.5218 27.1788 23.5147 27.1759 23.5047L27.1147 23.2921C27.1118 23.2823 27.1094 23.2762 27.1073 23.2737C27.1045 23.2701 27.1012 23.2679 27.0975 23.267C27.0937 23.2661 27.0882 23.2667 27.0811 23.2688L27.0605 23.2747L27.0454 23.2222ZM27.8342 23.015L28.0391 22.9768C28.0651 22.9719 28.0871 22.9706 28.1051 22.9728C28.1234 22.9748 28.1396 22.98 28.1539 22.9885C28.1683 22.9969 28.1803 23.0079 28.1897 23.0215C28.1991 23.0348 28.2053 23.0498 28.2084 23.0663C28.2146 23.0995 28.207 23.1297 28.1856 23.1569C28.1644 23.1841 28.1314 23.2019 28.0865 23.2103L28.0203 23.2226L28.0339 23.2953C28.0356 23.3043 28.0373 23.3099 28.0391 23.3121C28.0413 23.3153 28.0443 23.3174 28.048 23.3185C28.0519 23.3195 28.0579 23.3193 28.066 23.3177L28.0858 23.3141L28.0958 23.3677L27.9067 23.403L27.8966 23.3494L27.9097 23.3469C27.9212 23.3448 27.9286 23.3425 27.9321 23.3401C27.9355 23.3378 27.9376 23.3347 27.9387 23.3309C27.9396 23.3269 27.939 23.3192 27.9369 23.3079L27.8971 23.0945C27.8949 23.0827 27.8927 23.075 27.8905 23.0716C27.8883 23.068 27.8853 23.0656 27.8817 23.0646C27.8782 23.0633 27.8719 23.0636 27.8628 23.0653L27.8442 23.0687L27.8342 23.0151V23.015ZM27.9884 23.0518L28.009 23.162L28.0421 23.1558C28.0623 23.1521 28.0768 23.1473 28.0855 23.1414C28.0941 23.1354 28.1005 23.1276 28.1047 23.118C28.1088 23.1082 28.1097 23.0973 28.1075 23.0854C28.1042 23.0677 28.0947 23.0549 28.0791 23.047C28.0674 23.0412 28.0515 23.0401 28.0315 23.0438L27.9884 23.0518ZM28.2531 22.9385L28.4944 22.9084C28.51 22.9064 28.5271 22.9057 28.5458 22.9062C28.5647 22.9068 28.5821 22.9109 28.5981 22.9185C28.6143 22.9262 28.6273 22.9368 28.6374 22.9504C28.6474 22.9639 28.6536 22.9799 28.6559 22.9983C28.6597 23.0281 28.652 23.0535 28.633 23.0747C28.6141 23.0957 28.5905 23.1108 28.5622 23.12L28.6544 23.2037L28.6584 23.2075C28.6644 23.2132 28.6697 23.2174 28.6744 23.2201C28.6791 23.2225 28.6837 23.2241 28.6882 23.2249C28.6927 23.2257 28.6987 23.2256 28.7064 23.2246L28.7232 23.2225L28.73 23.2768L28.6044 23.2924L28.4577 23.1393L28.4251 23.1433L28.4348 23.2214C28.4365 23.2349 28.4384 23.2434 28.4403 23.247C28.4423 23.2504 28.4449 23.2528 28.4483 23.2542C28.4519 23.2555 28.4587 23.2555 28.4686 23.2543L28.4866 23.2521L28.4933 23.3062L28.3019 23.3301L28.2951 23.2759L28.3125 23.2737C28.3217 23.2726 28.328 23.2709 28.3315 23.2685C28.3352 23.266 28.3377 23.2626 28.3391 23.2585C28.3397 23.2561 28.3393 23.249 28.3379 23.2373L28.3104 23.0169C28.3094 23.0082 28.3078 23.0022 28.3059 22.9989C28.3041 22.9953 28.3015 22.9932 28.2982 22.9925C28.2934 22.9909 28.2882 22.9905 28.2824 22.9913L28.2746 22.9925L28.2599 22.9943L28.2531 22.9385ZM28.4053 22.9848L28.4179 23.0861L28.4761 23.0789C28.4989 23.076 28.5157 23.0718 28.5264 23.0663C28.5373 23.0606 28.545 23.0534 28.5496 23.0449C28.5545 23.0363 28.5562 23.0264 28.5548 23.0152C28.5535 23.0049 28.5497 22.9964 28.5434 22.9897C28.5372 22.9829 28.5289 22.9784 28.5186 22.9761C28.5084 22.9737 28.4921 22.9739 28.4699 22.9767L28.4053 22.9847V22.9848ZM28.9631 22.8603C29.0256 22.8568 29.0773 22.8729 29.1181 22.9088C29.1591 22.9446 29.1812 22.9924 29.1846 23.052C29.1869 23.0921 29.18 23.1282 29.1641 23.1603C29.1482 23.1924 29.1251 23.2178 29.0948 23.2365C29.0647 23.2551 29.0276 23.2656 28.9835 23.2681C28.9253 23.2714 28.8767 23.2581 28.8379 23.2282C28.7908 23.1922 28.7655 23.1418 28.7619 23.0773C28.7584 23.0172 28.7752 22.9669 28.8122 22.9265C28.8493 22.886 28.8997 22.8639 28.9631 22.8603ZM28.9679 22.9229C28.9379 22.9246 28.9147 22.9372 28.8983 22.9607C28.8777 22.9902 28.8686 23.0273 28.8711 23.0719C28.8737 23.1165 28.8861 23.1513 28.9083 23.1761C28.9275 23.1972 28.9517 23.207 28.9811 23.2053C29.0106 23.2036 29.0336 23.1912 29.0501 23.168C29.0695 23.1402 29.0779 23.1041 29.0754 23.0597C29.0736 23.0284 29.0675 23.0024 29.0573 22.9817C29.0473 22.9609 29.0343 22.9456 29.0184 22.936C29.0025 22.9263 28.9857 22.922 28.9679 22.923V22.9229ZM29.264 22.8538L29.4725 22.855C29.499 22.8552 29.5208 22.8581 29.5381 22.8637C29.5556 22.869 29.5706 22.8772 29.5829 22.8882C29.5955 22.8993 29.6052 22.9123 29.6119 22.9274C29.6186 22.9424 29.6219 22.9582 29.6218 22.975C29.6216 23.0088 29.6084 23.037 29.5822 23.0597C29.5562 23.0823 29.5204 23.0935 29.4747 23.0933L29.4075 23.0929L29.407 23.1667C29.4069 23.176 29.4075 23.1818 29.4088 23.1843C29.4105 23.1879 29.4131 23.1905 29.4164 23.1923C29.42 23.194 29.4259 23.1949 29.4343 23.1949H29.4543L29.454 23.2496L29.2616 23.2485L29.2619 23.1938L29.2752 23.194C29.287 23.194 29.2947 23.1932 29.2984 23.1916C29.3021 23.19 29.3049 23.1873 29.3067 23.1837C29.3084 23.1799 29.3093 23.1723 29.3094 23.1608L29.3107 22.9437C29.3107 22.9317 29.31 22.9238 29.3086 22.92C29.3071 22.916 29.3047 22.9132 29.3013 22.9114C29.2981 22.9096 29.2919 22.9086 29.2827 22.9085L29.2637 22.9084L29.264 22.8538ZM29.4085 22.9192L29.4078 23.0312L29.4415 23.0314C29.462 23.0315 29.4772 23.0295 29.4868 23.0254C29.4964 23.0212 29.5042 23.0147 29.5101 23.0061C29.516 22.9972 29.5189 22.9868 29.5191 22.9747C29.5192 22.9566 29.5123 22.9422 29.4984 22.9316C29.4881 22.9236 29.4727 22.9195 29.4523 22.9194L29.4085 22.9192ZM29.6915 22.8583L29.9342 22.8751C29.9498 22.8762 29.9667 22.8787 29.985 22.8828C30.0034 22.8869 30.0197 22.8942 30.0339 22.9049C30.0483 22.9155 30.0592 22.9285 30.0664 22.9437C30.0737 22.959 30.0767 22.9758 30.0754 22.9942C30.0734 23.0241 30.0609 23.0477 30.0382 23.0649C30.0157 23.0818 29.9896 23.0921 29.96 23.0957L30.0346 23.1957L30.0377 23.2001C30.0425 23.2068 30.047 23.212 30.0511 23.2155C30.0552 23.2188 30.0593 23.2213 30.0636 23.2229C30.0679 23.2245 30.0739 23.2255 30.0815 23.2261L30.0985 23.2273L30.0947 23.2817L29.9686 23.273L29.8538 23.0946L29.821 23.0925L29.8156 23.1709C29.8147 23.1845 29.8149 23.1932 29.8161 23.197C29.8173 23.2008 29.8195 23.2037 29.8225 23.2057C29.8258 23.2077 29.8325 23.209 29.8425 23.2097L29.8605 23.2109L29.8567 23.2653L29.6643 23.2521L29.668 23.1977L29.6855 23.1988C29.6947 23.1994 29.7012 23.1989 29.7051 23.1973C29.7092 23.1955 29.7124 23.1927 29.7146 23.1889C29.7156 23.1867 29.7166 23.1797 29.7174 23.1678L29.7327 22.9462C29.7333 22.9376 29.733 22.9314 29.7317 22.9277C29.7306 22.9239 29.7285 22.9213 29.7255 22.9199C29.7211 22.9176 29.716 22.9162 29.7101 22.9157L29.7022 22.9155L29.6875 22.9145L29.6914 22.8583H29.6915ZM29.832 22.9329L29.825 23.0349L29.8834 23.0389C29.9064 23.0405 29.9236 23.0396 29.9352 23.0362C29.947 23.0327 29.956 23.0272 29.9622 23.0197C29.9686 23.0121 29.9722 23.0027 29.9729 22.9914C29.9736 22.9811 29.9715 22.9721 29.9665 22.9644C29.9618 22.9565 29.9546 22.9504 29.9449 22.9461C29.9353 22.9419 29.9193 22.939 29.8969 22.9374L29.8321 22.9329H29.832ZM30.1793 22.8966L30.3703 22.9198L30.3637 22.9741L30.3463 22.9719C30.3361 22.9707 30.3293 22.9708 30.3257 22.9723C30.3223 22.9736 30.3196 22.9761 30.3174 22.9798C30.3154 22.9834 30.3138 22.9906 30.3125 23.0014L30.2861 23.2182C30.2847 23.2301 30.2844 23.2377 30.2853 23.2413C30.2862 23.2448 30.2882 23.2475 30.2912 23.2494C30.2948 23.2521 30.3006 23.2539 30.3085 23.2549L30.3293 23.2574L30.3227 23.3117L30.1317 23.2885L30.1383 23.2342L30.1537 23.2361C30.1647 23.2375 30.172 23.2376 30.1756 23.2365C30.1792 23.2353 30.1819 23.233 30.1839 23.2298C30.186 23.2265 30.1877 23.2196 30.1889 23.2093L30.2153 22.9917C30.2168 22.9795 30.2169 22.9714 30.2157 22.9675C30.2146 22.9634 30.2124 22.9601 30.2089 22.9575C30.2064 22.9557 30.2002 22.9542 30.1901 22.9529L30.1727 22.9509L30.1793 22.8966ZM30.5895 22.9536L30.6767 22.9686L30.7418 23.2891C30.7453 23.3062 30.7492 23.317 30.7534 23.3215C30.7578 23.3261 30.7666 23.3294 30.7798 23.3315L30.7705 23.3853L30.5865 23.3536L30.5958 23.2997L30.607 23.3014C30.6172 23.3032 30.6246 23.3031 30.6291 23.3013C30.6337 23.2991 30.6364 23.2961 30.6371 23.2922C30.6376 23.2889 30.637 23.2817 30.6353 23.2707L30.6299 23.2333L30.5115 23.2129L30.4902 23.2497C30.4858 23.2575 30.4833 23.2627 30.4829 23.2653C30.4824 23.2683 30.4829 23.2712 30.4845 23.274C30.4864 23.2768 30.4896 23.2791 30.4943 23.2811C30.4973 23.2824 30.506 23.2842 30.5203 23.2867L30.511 23.3405L30.3604 23.3145L30.3697 23.2608C30.3793 23.2624 30.3865 23.2628 30.3913 23.2619C30.3961 23.261 30.4001 23.2591 30.4035 23.2563C30.407 23.2534 30.4114 23.2477 30.4165 23.2393L30.5895 22.9536ZM30.5414 23.1609L30.6192 23.1743L30.5998 23.0607L30.5414 23.1609ZM30.9161 23.011L31.0893 23.0545L31.0971 23.3041L31.2246 23.0885L31.4007 23.1328L31.3875 23.1857L31.3685 23.1809C31.3583 23.1784 31.3506 23.1788 31.3455 23.1821C31.3405 23.1854 31.3366 23.193 31.3336 23.2049L31.2791 23.4222C31.2767 23.4317 31.2757 23.4378 31.2762 23.4405C31.2769 23.4445 31.2786 23.4476 31.2811 23.4498C31.2846 23.453 31.2896 23.4555 31.2962 23.4572L31.3179 23.4626L31.3046 23.5156L31.1204 23.4693L31.1338 23.4163L31.148 23.4199C31.1585 23.4226 31.1657 23.4235 31.1698 23.4228C31.1738 23.422 31.1771 23.4202 31.1796 23.4173C31.1823 23.4144 31.1848 23.4083 31.1871 23.3991L31.2463 23.1637L31.0732 23.4574L31.0203 23.4441L31.0071 23.1144L30.9487 23.3471C30.9474 23.3524 30.9472 23.3568 30.9483 23.3601C30.9496 23.3636 30.9518 23.3665 30.9548 23.3691C30.9581 23.3714 30.9637 23.3736 30.9716 23.3756L30.99 23.3802L30.9767 23.4332L30.82 23.3938L30.8333 23.3409L30.8487 23.3447C30.8584 23.3472 30.8652 23.348 30.8691 23.3473C30.8732 23.3463 30.8765 23.3442 30.8791 23.341C30.8818 23.3376 30.8845 23.3309 30.8871 23.3209L30.9409 23.1062C30.9434 23.0964 30.9444 23.0898 30.9439 23.0865C30.9432 23.0821 30.9415 23.0786 30.9387 23.0759C30.9358 23.0732 30.9308 23.071 30.9237 23.0693L30.9029 23.064L30.9161 23.011ZM31.7079 23.2318L31.9038 23.3033C31.9286 23.3124 31.9482 23.3225 31.9626 23.3336C31.9772 23.3446 31.9886 23.3573 31.9965 23.3719C32.0046 23.3865 32.0093 23.4021 32.0105 23.4185C32.0117 23.4349 32.0095 23.451 32.0037 23.4667C31.9921 23.4984 31.9702 23.5206 31.9379 23.5331C31.9058 23.5456 31.8683 23.544 31.8255 23.5283L31.7623 23.5053L31.7368 23.5746C31.7336 23.5833 31.7322 23.589 31.7327 23.5917C31.733 23.5957 31.7345 23.5991 31.7371 23.6018C31.7399 23.6046 31.7452 23.6075 31.753 23.6104L31.7719 23.6173L31.7531 23.6685L31.5724 23.6025L31.5911 23.5513L31.6036 23.5557C31.6146 23.5598 31.6222 23.5617 31.6263 23.5613C31.6304 23.561 31.6339 23.5595 31.6367 23.5567C31.6396 23.5538 31.643 23.5469 31.647 23.5361L31.7215 23.3322C31.7256 23.3209 31.7276 23.3132 31.7275 23.3091C31.7275 23.3049 31.7262 23.3014 31.7235 23.2987C31.7212 23.2958 31.7157 23.2927 31.707 23.2896L31.6891 23.2831L31.7079 23.2317V23.2318ZM31.8219 23.3421L31.7834 23.4473L31.815 23.4589C31.8343 23.466 31.8492 23.4692 31.8596 23.4686C31.8702 23.4678 31.8797 23.4644 31.8881 23.4582C31.8966 23.4519 31.903 23.443 31.9071 23.4317C31.9134 23.4147 31.9118 23.3988 31.9023 23.3841C31.8952 23.3732 31.8821 23.3642 31.8631 23.3572L31.8219 23.3421ZM32.1111 23.381L32.3336 23.4794C32.348 23.4858 32.363 23.494 32.3787 23.504C32.3947 23.5141 32.4075 23.5266 32.4172 23.5415C32.4271 23.5564 32.4329 23.5723 32.4346 23.589C32.4362 23.6059 32.4332 23.6227 32.4258 23.6396C32.4137 23.667 32.394 23.685 32.3667 23.6933C32.3398 23.7016 32.3118 23.7024 32.2827 23.6957L32.3187 23.815L32.3202 23.8203C32.3224 23.8283 32.3249 23.8346 32.3275 23.8393C32.3303 23.8439 32.3333 23.8476 32.3368 23.8505C32.3402 23.8535 32.3455 23.8566 32.3526 23.8597L32.3681 23.8665L32.346 23.9165L32.2303 23.8653L32.1832 23.6585L32.1532 23.6453L32.1214 23.7172C32.1159 23.7296 32.1131 23.7378 32.1129 23.7419C32.1128 23.7458 32.1139 23.7493 32.1161 23.7523C32.1185 23.7552 32.1243 23.7586 32.1334 23.7627L32.1499 23.7701L32.1279 23.82L31.9514 23.7419L31.9735 23.692L31.9895 23.6991C31.998 23.7028 32.0044 23.7046 32.0086 23.7044C32.013 23.7041 32.0169 23.7025 32.0203 23.6996C32.022 23.698 32.0253 23.6917 32.0301 23.6808L32.1199 23.4777C32.1235 23.4697 32.1253 23.4638 32.1254 23.46C32.1256 23.456 32.1246 23.4528 32.1222 23.4505C32.1188 23.4467 32.1145 23.4437 32.1091 23.4413L32.1018 23.4384L32.0883 23.4325L32.1111 23.3809V23.381ZM32.2179 23.499L32.1766 23.5925L32.2302 23.6161C32.2512 23.6255 32.2677 23.6305 32.2798 23.6313C32.292 23.632 32.3024 23.6298 32.3107 23.6249C32.3193 23.62 32.3258 23.6124 32.3304 23.6021C32.3346 23.5926 32.3357 23.5833 32.3336 23.5744C32.3319 23.5654 32.3271 23.5572 32.3195 23.5499C32.312 23.5426 32.298 23.5345 32.2774 23.5254L32.2179 23.499ZM32.7633 23.6824C32.8186 23.7118 32.8543 23.7524 32.8705 23.8042C32.8869 23.8561 32.8811 23.9084 32.8531 23.9612C32.8342 23.9966 32.8096 24.024 32.7793 24.0431C32.7491 24.0623 32.7161 24.072 32.6805 24.0722C32.6451 24.0724 32.608 24.0622 32.569 24.0414C32.5175 24.0141 32.4829 23.9775 32.4652 23.9317C32.4437 23.8765 32.4482 23.8203 32.4786 23.7633C32.5068 23.7101 32.5473 23.6759 32.5999 23.6605C32.6527 23.6452 32.7072 23.6525 32.7633 23.6824ZM32.7347 23.7384C32.7083 23.7242 32.682 23.7229 32.6558 23.7344C32.6228 23.7489 32.5958 23.776 32.5748 23.8154C32.5539 23.8549 32.5464 23.891 32.5524 23.9237C32.5578 23.9518 32.5735 23.9727 32.5995 23.9865C32.6257 24.0004 32.6518 24.0017 32.6779 23.9904C32.7089 23.9768 32.7348 23.9503 32.7557 23.911C32.7704 23.8834 32.7788 23.858 32.7808 23.8349C32.783 23.812 32.7798 23.7923 32.7712 23.7757C32.7627 23.7592 32.7506 23.7467 32.7347 23.7383V23.7384ZM33.0566 23.8381L33.0883 23.8578L33.0847 23.8713L33.2736 23.989L33.2847 23.9802L33.3167 24.0002L33.285 24.1434L33.2306 24.1313C33.2329 24.1056 33.2337 24.0884 33.233 24.0797C33.2318 24.0628 33.2278 24.0475 33.221 24.0339C33.2159 24.0236 33.2092 24.0158 33.201 24.0108C33.1971 24.0084 33.1939 24.0077 33.1913 24.0087C33.1887 24.0096 33.1854 24.0133 33.1814 24.0199L33.0614 24.2125C33.0542 24.2238 33.0502 24.2312 33.0492 24.2345C33.0482 24.238 33.0481 24.2411 33.049 24.2441C33.0499 24.2469 33.0518 24.2497 33.0548 24.2524C33.0579 24.2549 33.0667 24.2608 33.0812 24.2698L33.0523 24.3162L32.8891 24.2144L32.9179 24.1681L32.9278 24.1742C32.9387 24.181 32.946 24.1847 32.9499 24.1853C32.9538 24.1858 32.9576 24.1848 32.9613 24.1825C32.9651 24.18 32.9704 24.1732 32.9772 24.1623L33.0999 23.9655C33.1034 23.9598 33.105 23.9559 33.1046 23.9537C33.1042 23.9514 33.1019 23.949 33.0978 23.9465C33.0895 23.9412 33.0782 23.9386 33.0641 23.9385C33.05 23.9383 33.0353 23.9414 33.0203 23.9478C33.0143 23.9503 32.9996 23.9586 32.9763 23.9728L32.9421 23.9297L33.0566 23.8381ZM33.4099 24.0775L33.6777 24.2692L33.6417 24.3968L33.5894 24.382C33.5942 24.3603 33.5954 24.341 33.5931 24.3241C33.591 24.3073 33.5853 24.2932 33.5762 24.2817C33.5673 24.2702 33.5552 24.259 33.54 24.2481L33.491 24.2131L33.4337 24.2932L33.4498 24.3047C33.4619 24.3134 33.4706 24.3184 33.476 24.3197C33.4816 24.3209 33.4867 24.3203 33.4911 24.3179C33.4957 24.3154 33.502 24.3085 33.51 24.2973L33.5188 24.2852L33.5597 24.3145L33.4626 24.4502L33.4216 24.4209L33.4315 24.4071C33.4382 24.3978 33.4419 24.3901 33.4427 24.3841C33.4436 24.3783 33.4427 24.3732 33.4399 24.3689C33.4373 24.3647 33.4293 24.3578 33.4161 24.3484L33.4016 24.338L33.3488 24.4117C33.3433 24.4195 33.3403 24.4245 33.3399 24.4268C33.3394 24.429 33.3399 24.4314 33.3415 24.4338C33.3431 24.4364 33.3475 24.4403 33.3549 24.4456L33.3819 24.4648C33.4019 24.4792 33.4209 24.4885 33.4387 24.4927C33.4568 24.4968 33.4757 24.4962 33.4955 24.4912C33.5156 24.4861 33.5349 24.4768 33.5534 24.4633L33.5851 24.508L33.4577 24.597L33.1802 24.3985L33.212 24.3541L33.22 24.3598C33.2308 24.3675 33.2386 24.3719 33.2433 24.373C33.2481 24.3741 33.2526 24.3733 33.2569 24.3705C33.2593 24.3688 33.2644 24.3625 33.2721 24.3518L33.3972 24.1769C33.404 24.1674 33.4077 24.1607 33.4084 24.1568C33.4093 24.153 33.4089 24.1495 33.4071 24.1461C33.4054 24.1426 33.4005 24.138 33.3924 24.1321L33.3782 24.1219L33.4099 24.0775ZM33.8509 24.641L33.9999 24.7632L33.9649 24.8058L33.9537 24.7967C33.9464 24.7907 33.9409 24.7873 33.937 24.7863C33.9333 24.7854 33.9296 24.7859 33.9259 24.7877C33.9223 24.7894 33.9172 24.7943 33.9107 24.8023L33.8323 24.8979L33.7875 24.8611L33.7938 24.8297C33.7726 24.8276 33.7528 24.8227 33.7344 24.8151C33.716 24.8075 33.6988 24.7972 33.6829 24.7842C33.6551 24.7613 33.6352 24.7337 33.6235 24.7014C33.6117 24.669 33.6091 24.6352 33.6157 24.5998C33.6224 24.5646 33.6381 24.5319 33.6629 24.5017C33.6874 24.4718 33.716 24.4504 33.7485 24.4376C33.7811 24.4248 33.8148 24.4214 33.8495 24.4272C33.8846 24.433 33.9159 24.4473 33.9436 24.47C33.9571 24.481 33.969 24.4937 33.9794 24.5081C33.99 24.5225 33.9978 24.5364 34.0026 24.5498L34.0218 24.5429L34.0524 24.5681L33.9971 24.6917L33.946 24.6718C33.9505 24.6384 33.952 24.6144 33.9506 24.5998C33.9493 24.5853 33.9453 24.5716 33.9387 24.5585C33.9321 24.5456 33.924 24.5352 33.9143 24.5272C33.9004 24.5158 33.8841 24.5092 33.8655 24.5072C33.8469 24.5054 33.8279 24.5094 33.8082 24.5192C33.7886 24.5287 33.7698 24.5444 33.7519 24.5663C33.7321 24.5904 33.7188 24.6143 33.7119 24.6382C33.7051 24.6622 33.7044 24.6836 33.7098 24.7023C33.7153 24.721 33.7255 24.7364 33.7403 24.7485C33.7508 24.7572 33.7624 24.7632 33.7752 24.7666C33.7882 24.7702 33.7986 24.7708 33.8064 24.7684C33.8142 24.766 33.8217 24.7604 33.8291 24.7515L33.8382 24.7403C33.8446 24.7326 33.8481 24.7273 33.8487 24.7244C33.8495 24.7202 33.849 24.7163 33.8473 24.7127C33.8458 24.7092 33.8411 24.7043 33.8332 24.6978L33.8159 24.6836L33.8509 24.6409V24.641ZM34.2768 24.7685L34.3415 24.8289L34.2202 25.1325C34.2138 25.1488 34.2111 25.1599 34.2121 25.1661C34.2132 25.1723 34.2187 25.1799 34.2287 25.1889L34.1914 25.2288L34.055 25.1013L34.0922 25.0614L34.1007 25.0689C34.1082 25.076 34.1144 25.08 34.1193 25.0809C34.1243 25.0817 34.1281 25.0806 34.1308 25.0777C34.1331 25.0752 34.1366 25.0689 34.1412 25.0588L34.1572 25.0246L34.0694 24.9425L34.0314 24.9617C34.0234 24.9658 34.0185 24.9688 34.0167 24.9707C34.0146 24.9729 34.0135 24.9757 34.0133 24.9789C34.0133 24.9822 34.0147 24.986 34.0175 24.9901C34.0194 24.9928 34.0256 24.9992 34.0362 25.0091L33.9989 25.049L33.8872 24.9447L33.9245 24.9048C33.9317 24.9115 33.9375 24.9158 33.9419 24.9176C33.9464 24.9194 33.9508 24.9201 33.9552 24.9196C33.9598 24.9192 33.9665 24.9168 33.9755 24.9125L34.2768 24.7685ZM34.1229 24.9154L34.1805 24.9693L34.2266 24.8637L34.1229 24.9154ZM34.5363 24.9988L34.5621 25.0258L34.5552 25.0378L34.7087 25.1992L34.7216 25.1936L34.7476 25.2208L34.6811 25.3516L34.6315 25.3261C34.6401 25.3018 34.6452 25.2854 34.6467 25.2769C34.6498 25.2602 34.6497 25.2444 34.6465 25.2295C34.6441 25.2182 34.6396 25.2091 34.6329 25.2021C34.6298 25.1988 34.6269 25.1973 34.6241 25.1977C34.6214 25.1979 34.6173 25.2006 34.6116 25.206L34.4473 25.3625C34.4376 25.3717 34.4318 25.3778 34.43 25.3809C34.4282 25.3838 34.4273 25.3869 34.4274 25.39C34.4276 25.3929 34.4288 25.3961 34.431 25.3994C34.4333 25.4027 34.4403 25.4105 34.4522 25.423L34.4127 25.4606L34.28 25.3213L34.3195 25.2837L34.3275 25.292C34.3364 25.3013 34.3426 25.3068 34.3462 25.3083C34.3499 25.3097 34.3538 25.3098 34.3579 25.3084C34.3623 25.3069 34.3691 25.3017 34.3783 25.2929L34.5464 25.1329C34.5512 25.1284 34.5537 25.125 34.5539 25.1227C34.5541 25.1205 34.5525 25.1176 34.5491 25.114C34.5423 25.1069 34.5322 25.1015 34.5185 25.0978C34.5048 25.0941 34.4899 25.0935 34.4737 25.0959C34.4673 25.0968 34.451 25.1012 34.4249 25.1091L34.4025 25.0589L34.5363 24.9988Z" fill="black"/>
</g>
<defs>
<linearGradient id="paint0_linear_1_14042" x1="31.0921" y1="8.79474" x2="31.1145" y2="7.33534" gradientUnits="userSpaceOnUse">
<stop stop-color="#474747"/>
<stop offset="1" stop-color="#FF5500"/>
</linearGradient>
<linearGradient id="paint1_linear_1_14042" x1="30.5926" y1="14.2828" x2="30.5954" y2="15.1107" gradientUnits="userSpaceOnUse">
<stop stop-color="#B50000"/>
<stop offset="1" stop-color="#FFC500"/>
</linearGradient>
<linearGradient id="paint2_linear_1_14042" x1="30.8338" y1="8.51775" x2="31.3174" y2="8.51775" gradientUnits="userSpaceOnUse">
<stop stop-color="#474747"/>
<stop offset="1" stop-color="#FF5500"/>
</linearGradient>
<clipPath id="clip0_1_14042">
<rect y="0.0010376" width="30" height="30" rx="15" fill="white"/>
</clipPath>
</defs>
</svg>
