<svg width="30" height="30" viewBox="0 0 30 30" fill="none" xmlns="http://www.w3.org/2000/svg">
<g clip-path="url(#clip0_1_14165)">
<path fill-rule="evenodd" clip-rule="evenodd" d="M0 0.0010376H30V30.001H0V0.0010376Z" fill="#00297B"/>
<path fill-rule="evenodd" clip-rule="evenodd" d="M15.4711 7.27063C15.4711 7.27063 10.3009 11.0377 10.3009 14.9506C10.3009 18.8643 15.4711 22.7315 15.4711 22.7315C15.4711 22.7315 20.6086 19.1465 20.6086 14.9506C20.6086 10.7561 15.4711 7.27063 15.4711 7.27063Z" fill="#92DBFC"/>
<path fill-rule="evenodd" clip-rule="evenodd" d="M10.873 17.3396C12.219 20.2987 15.4712 22.7314 15.4712 22.7314C15.4712 22.7314 18.7821 20.4207 20.0871 17.3389" fill="#008CE7"/>
<path fill-rule="evenodd" clip-rule="evenodd" d="M20.1051 16.4854C19.3081 17.0077 14.8231 16.7568 14.8231 16.7568L14.5721 17.3418L19.9128 17.3568C19.9346 17.2763 19.9878 17.1808 20.0069 17.1004L20.1051 16.4854Z" fill="#CCCCCC"/>
<path fill-rule="evenodd" clip-rule="evenodd" d="M12.0801 18.9051C12.3071 18.9119 12.5335 18.9562 12.7367 19.0551C13.1001 19.2303 13.3101 19.229 13.7014 19.2344C14.1112 19.2399 14.433 19.516 14.8755 19.5276C15.691 19.5481 16.0346 19.9197 15.4005 19.9197C15.1005 19.9197 14.4583 19.7356 14.148 19.7738C13.6762 19.8174 13.4035 19.8501 13.0544 20.1044C12.7066 19.7239 12.3813 19.3235 12.0801 18.9051ZM13.6939 20.7672C13.8958 20.641 14.0349 20.5422 14.2312 20.536C14.613 20.5258 14.7426 20.3097 15.1837 20.3097C15.6848 20.3935 16.3633 20.2551 16.7614 20.1733C17.4664 20.0247 17.1324 19.5733 16.7049 19.409C16.3599 19.2733 15.7128 19.4022 15.3112 19.2679C15.0078 19.1588 15.2581 18.9863 15.4217 18.9494C15.586 18.9215 15.7626 18.9713 15.9685 19.002C16.3519 19.0246 16.7365 19.0086 17.1167 18.9542C17.7814 18.8608 17.7542 18.6822 18.0753 18.6781C18.3092 18.6686 18.4878 18.6045 18.648 18.5001C18.8349 18.3856 19.0305 18.1504 19.2576 18.1592L19.3912 18.1647C17.9887 20.6492 15.4701 22.2801 15.4701 22.2801C15.4701 22.2801 14.656 21.7094 13.6939 20.7672Z" fill="#FFDE52"/>
<path fill-rule="evenodd" clip-rule="evenodd" d="M14.0054 16.2849C14.0245 16.259 14.0436 16.2706 14.0627 16.2849L14.1036 18.1845H13.9673L14.0054 16.2849Z" fill="#8C4200"/>
<path fill-rule="evenodd" clip-rule="evenodd" d="M12.3525 18.1204C12.3525 18.1204 14.0741 18.2404 15.1302 18.0331C15.1302 18.0331 15.2189 18.0876 15.0921 18.224C14.9646 18.3604 14.6421 18.3897 14.4648 18.419C14.4648 18.419 14.4218 18.5063 14.4252 18.5519C14.4293 18.5976 14.5371 18.5929 14.5902 18.5826L14.6434 18.5731C14.6434 18.5731 14.6182 18.7436 13.9663 18.7661C13.7523 18.7736 13.0473 18.7872 12.8979 18.5956C12.8979 18.5956 13.0275 18.6051 13.0609 18.5956C13.095 18.5861 13.0698 18.4627 13.0575 18.4449C13.0452 18.4272 12.6007 18.4449 12.3661 18.2472C12.3081 18.1906 12.2809 18.1299 12.2809 18.1088C12.2809 18.1068 12.3525 18.1204 12.3525 18.1204ZM13.2498 18.451C13.2498 18.451 13.7209 18.5062 14.263 18.451C14.263 18.451 14.2773 18.5451 14.2527 18.5806C14.2281 18.6167 13.6023 18.644 13.2866 18.5943C13.2361 18.5793 13.2341 18.5227 13.2498 18.451Z" fill="#8C4200"/>
<path fill-rule="evenodd" clip-rule="evenodd" d="M12.665 17.9915C12.665 17.9915 13.2105 17.307 13.0353 16.1234C13.8787 16.5924 14.5953 17.2995 14.7903 17.9561C14.0253 17.7788 13.3496 17.9015 12.665 17.9915Z" fill="#FDF9FF"/>
<path fill-rule="evenodd" clip-rule="evenodd" d="M15.4723 6.81921C15.4723 6.81921 10 10.5494 10 14.9479C10 19.3469 15.4723 23.1829 15.4723 23.1829C15.4723 23.1829 20.9091 19.6633 20.9091 14.9479C20.9091 10.2331 15.4723 6.81921 15.4723 6.81921ZM15.4702 7.72194C15.4702 7.72194 10.602 11.0404 10.602 14.954C10.602 18.8676 15.4702 22.2801 15.4702 22.2801C15.4702 22.2801 20.307 19.1492 20.307 14.954C20.307 10.7588 15.4702 7.72194 15.4702 7.72194Z" fill="#C62139"/>
<path fill-rule="evenodd" clip-rule="evenodd" d="M16.9177 18.9475C17.005 19.2556 17.0971 19.3606 17.4509 19.4397C17.8 19.5188 18.3332 19.2079 18.0032 18.9066C17.6882 18.6256 17.3568 18.5541 17.0746 18.3011C16.6375 17.9043 16.0375 17.0834 15.7525 16.3075C15.4409 15.4586 15.4948 13.0702 15.5091 11.86C15.5091 11.8463 15.5466 11.8375 15.5514 11.832C15.5718 11.8047 15.5909 11.8402 15.5589 11.6629C15.5507 11.6172 15.5112 11.5702 15.5112 11.5245C15.5118 11.4427 15.2023 11.6138 15.1212 11.7604C15.1021 11.7938 15.1805 11.8893 15.1805 11.9077C15.1907 13.0688 15.0543 15.3611 15.3912 16.3988C15.5991 17.0411 15.9796 17.5375 16.3232 17.9963C16.5298 18.2902 16.8277 18.6079 16.9177 18.9475Z" fill="#8C4200" stroke="black" stroke-width="0.0106534"/>
<path fill-rule="evenodd" clip-rule="evenodd" d="M12.2575 11.517C12.28 11.5443 12.2766 11.6643 12.2766 11.6643C12.2943 11.6738 12.5861 11.4365 12.5861 11.4474C12.5861 11.4972 12.593 11.6002 12.593 11.6002C12.593 11.6002 12.895 11.3377 12.9073 11.3649C12.9209 11.3963 12.9059 11.549 12.9059 11.549L13.1439 11.309C13.1705 11.2831 13.1664 11.3424 13.1684 11.4372C13.1691 11.4543 13.4977 11.2156 13.5175 11.2115C13.5605 11.2027 13.5734 11.3356 13.5714 11.3684C13.5693 11.3929 13.8748 11.2095 13.8611 11.2334L13.8836 11.3745C13.9689 11.3643 14.1714 11.2947 14.2927 11.3131C14.3323 11.3186 14.3302 11.3363 14.2955 11.3499C13.7084 11.5674 13.2564 11.8954 12.9932 12.3522C12.9039 12.5084 12.8766 12.644 12.9005 12.6781C12.9005 12.6781 13.0055 12.4702 13.1248 12.4374C13.1405 12.4334 13.1514 12.5711 13.1677 12.5629C13.1677 12.5629 13.2577 12.3549 13.3225 12.2779C13.3402 12.2574 13.3689 12.387 13.388 12.3679C13.388 12.3679 13.4343 12.2288 13.5264 12.1313C13.5393 12.1177 13.5632 12.2636 13.5775 12.2513C13.673 12.1709 13.7616 11.9697 13.797 11.9547C13.8223 11.937 13.8264 12.1218 13.8502 12.1061C13.8502 12.1061 13.9859 11.8565 14.0664 11.8115C14.1189 11.7822 14.1168 11.9479 14.1168 11.9479C14.2198 11.8545 14.3336 11.6997 14.3875 11.6329C14.4127 11.6015 14.3991 11.8361 14.425 11.8456C14.4591 11.8572 14.682 11.6656 14.7066 11.6615C14.7236 11.6595 14.7427 11.7161 14.6998 11.7624L14.4243 12.0529C14.4775 12.0624 14.498 12.0488 14.5355 12.0577C14.6486 12.0849 14.3241 12.2554 14.3302 12.2868C14.3302 12.2868 14.4864 12.284 14.4339 12.312C14.3964 12.3324 14.1898 12.5752 14.1898 12.5663C14.1898 12.5622 14.2934 12.5684 14.2927 12.5956C14.292 12.6461 14.1216 12.9059 14.1195 12.9045C14.1107 12.8963 14.2116 12.8936 14.2252 12.9188C14.2505 12.9665 14.05 13.1765 14.0889 13.212C14.0943 13.2174 14.2034 13.214 14.2518 13.2236C14.275 13.2284 14.3405 13.6054 14.3241 13.5904C14.3514 13.4344 14.3899 13.2806 14.4393 13.1302C14.4666 13.0661 14.5545 13.2277 14.5614 13.2134C14.558 13.2134 14.5436 12.9836 14.5559 12.8786C14.5593 12.8493 14.6227 12.9093 14.6214 12.8813C14.6193 12.8179 14.6139 12.7497 14.6282 12.6877C14.6384 12.6413 14.6923 12.7722 14.7134 12.7368C14.7134 12.7368 14.648 12.509 14.6752 12.4449C14.693 12.4027 14.7366 12.5472 14.7652 12.5527C14.7652 12.5527 14.7489 12.3754 14.7789 12.3304L14.8695 12.419C14.8893 12.3904 14.8852 12.1143 14.9036 12.089C14.9186 12.0672 15.0127 12.192 15.0264 12.1729C15.0393 12.1545 14.9868 11.9499 14.9991 11.9343C15.0155 11.9104 15.1184 11.9909 15.1205 11.9888C15.162 11.9506 15.1614 11.8538 15.1784 11.8184C15.2261 11.7215 15.4975 11.7093 15.5295 11.7774C15.5452 11.8115 15.5343 11.8545 15.5282 11.907C15.5302 11.9084 15.6645 11.9172 15.6645 11.9077C15.6645 11.9077 15.6489 12.0222 15.6584 12.1477C15.6598 12.1647 15.7941 12.1436 15.7961 12.1606C15.8077 12.2786 15.7784 12.2902 15.7784 12.2902C15.7798 12.2984 15.8691 12.2765 15.8705 12.2861C15.8763 12.3551 15.8585 12.4241 15.82 12.4818C15.8132 12.4913 15.9475 12.4722 15.9495 12.4838C15.9659 12.5724 15.9686 12.6434 15.9523 12.7688C15.9509 12.7784 16.0832 12.6802 16.0852 12.6904C16.1057 12.7954 16.0818 12.9093 16.0941 13.019C16.0968 13.0443 16.1814 12.9434 16.1895 12.9727C16.1964 13.0013 16.1705 13.2099 16.1827 13.2222C16.1827 13.2222 16.3252 13.2154 16.3375 13.2263C16.45 13.3231 16.4289 13.4922 16.4289 13.4922C16.4595 13.4711 16.448 13.2672 16.4166 13.0818C16.4132 13.062 16.5257 13.0695 16.5223 13.0511C16.5223 13.0511 16.3995 12.9829 16.3586 12.794C16.3498 12.7538 16.4773 12.762 16.4773 12.762C16.4418 12.6877 16.3798 12.6734 16.3273 12.6018C16.3102 12.5786 16.4595 12.5677 16.4595 12.5609C16.4595 12.4899 16.3334 12.4559 16.268 12.3815C16.24 12.3502 16.4043 12.3481 16.4043 12.3481C16.3566 12.2868 16.197 12.2595 16.1159 12.179C16.0723 12.1347 16.2775 12.0911 16.2748 12.0836C16.2523 12.0188 16.0593 11.9984 15.9652 11.9247C15.9461 11.9097 16.088 11.8586 16.088 11.8586C16.0736 11.8313 15.7648 11.6452 15.9216 11.6622C15.9884 11.669 16.1227 11.7556 16.133 11.7427C16.133 11.7427 16.1275 11.6336 16.1411 11.6213C16.193 11.5722 16.3709 11.8293 16.4309 11.819C16.4309 11.819 16.4534 11.6349 16.4807 11.6295C16.5461 11.6186 16.6252 11.8981 16.6893 11.8981C16.6982 11.8981 16.703 11.7365 16.7357 11.7277C16.7732 11.7174 16.8155 11.909 16.8625 11.9513C16.9061 11.9902 16.9068 11.8013 16.9327 11.8374C16.9764 11.8954 16.9873 12.0161 17.0466 12.0693C17.0855 12.1034 17.0923 11.9029 17.1352 11.9295C17.1857 11.9609 17.1741 12.0645 17.23 12.1156C17.2573 12.1402 17.275 11.9834 17.305 12.0065C17.3323 12.027 17.3507 12.2179 17.38 12.2486C17.4168 12.2874 17.4598 12.1477 17.498 12.1695C17.5252 12.1859 17.5191 12.3515 17.545 12.3877C17.5975 12.4613 17.6248 12.2984 17.6595 12.3236C17.6841 12.3406 17.7366 12.5309 17.7584 12.5459C17.8068 12.5799 17.8334 12.4593 17.8709 12.4763C17.8982 12.4886 17.952 12.734 17.9745 12.7279C17.9882 12.7238 18.025 12.1681 17.7911 11.9336C17.4114 11.5518 16.7302 11.3315 16.1745 11.3261C16.1745 11.3261 16.4541 11.2749 16.4609 11.2327C16.4759 11.1481 16.6143 11.1577 16.7111 11.1781C16.7282 11.1809 16.7193 11.0281 16.7214 11.0281C16.808 11.0254 16.885 11.0724 16.9682 11.1181C16.9934 11.1331 16.9157 10.9654 16.943 10.9797C17.0493 11.0363 17.168 11.0527 17.2389 11.1209C17.258 11.1386 17.2177 10.992 17.2177 10.992C17.2702 10.9804 17.3745 11.0499 17.4161 11.1161C17.4366 11.1481 17.4148 10.9449 17.4305 10.9811C17.4305 10.9811 17.6159 11.0384 17.635 11.1093C17.635 11.1093 17.6507 10.9804 17.6759 10.9872C17.7495 11.0049 17.815 11.1195 17.873 11.1365C17.873 11.1365 17.8484 11.0213 17.8675 11.0254C18.0066 11.0581 18.158 11.1365 18.158 11.1365C18.0795 10.9565 17.7816 10.7684 17.258 10.7179C16.9848 10.6987 16.7103 10.7143 16.4411 10.7643C16.1705 10.8215 15.957 10.8543 16.0007 10.8154C16.1793 10.6545 16.4691 10.6347 16.5489 10.5972C16.6055 10.5706 16.3566 10.4827 16.4057 10.4704C16.4555 10.4595 16.6777 10.4431 16.6777 10.4431C16.7255 10.4084 16.5161 10.3409 16.5475 10.2904C16.6102 10.1902 16.9811 10.2815 17.0132 10.2427C17.0234 10.2304 16.8536 10.1384 16.8605 10.1247C16.8877 10.0743 17.2177 10.1629 17.2259 10.1179C17.2259 10.1179 17.1257 10.0497 17.0541 9.99381C17.0459 9.98699 17.3493 9.91199 17.3493 9.91199C17.3118 9.88658 17.2709 9.86639 17.228 9.85199C17.1639 9.82949 17.4939 9.75108 17.4939 9.75108C17.0759 9.57585 15.9905 10.0736 15.775 10.5904C15.7191 10.7138 15.717 10.5795 15.7293 10.4752C15.7402 10.3627 15.7559 10.2638 15.743 10.1615C15.7382 10.1309 15.6543 10.2427 15.6475 10.2127C15.6264 10.1036 15.6905 9.9829 15.6611 9.86085C15.6516 9.81994 15.5391 9.98153 15.5248 9.94062C15.4832 9.82812 15.5548 9.66994 15.5261 9.51449C15.5145 9.45381 15.4082 9.64403 15.3727 9.59017C15.3311 9.52744 15.3489 9.29426 15.3291 9.25881C15.3134 9.23017 15.2186 9.37062 15.2105 9.34403C15.0823 8.91653 15.2527 8.86335 15.0059 9.10403C14.9977 9.1129 14.9432 8.85176 14.9336 8.85994C14.8327 9.05767 14.6677 8.71949 14.6105 8.75085C14.5682 8.77471 14.7264 8.90631 14.7277 8.96494C14.7284 8.99358 14.5825 8.99562 14.5825 8.99562C14.5859 9.04403 14.86 9.18108 14.8689 9.23426C14.8757 9.27858 14.6752 9.26835 14.6752 9.26835C14.6814 9.32767 14.9098 9.38426 14.922 9.44835C14.9289 9.48244 14.815 9.49062 14.8191 9.52676C14.8252 9.58131 15.04 9.68903 15.0468 9.74494C15.0516 9.78312 14.9098 9.79949 14.9064 9.83494C14.9023 9.87858 15.1914 10.0252 15.192 10.0668C15.192 10.124 15.0761 10.094 15.0243 10.1234C14.95 10.1643 15.2609 10.3306 15.2745 10.3784C15.2848 10.4193 15.1498 10.3831 15.145 10.4206C15.1395 10.4704 15.2977 10.5454 15.3339 10.6306C15.37 10.7145 15.3332 10.7363 15.2814 10.7029C15.177 10.6354 14.757 10.227 14.6452 10.1179C14.4174 9.91236 14.1265 9.79045 13.8202 9.77221C13.7861 9.78176 13.9989 9.91949 14.0002 9.96926C14.0002 9.98221 13.9048 10.0013 13.9089 10.0047C13.9675 10.0593 14.1509 10.1227 14.1509 10.1227L14.0984 10.2093C14.1107 10.2345 14.1973 10.2413 14.3357 10.2836C14.3357 10.2836 14.232 10.3422 14.2402 10.3477C14.3132 10.4022 14.4557 10.4411 14.4557 10.4411L14.3152 10.4847C14.307 10.5093 14.6316 10.6279 14.6316 10.6279C14.6316 10.6279 14.53 10.7084 14.5348 10.7124C14.5593 10.7349 14.7973 10.7854 14.7973 10.7854C14.8014 10.7888 14.6295 10.8379 14.6302 10.8393C14.693 10.8965 14.8655 10.9149 14.9057 11.0097C14.9057 11.0097 14.9289 11.0636 14.8607 11.0534C14.5927 10.964 14.1775 10.7799 13.3723 10.8522C12.5486 10.9504 11.9214 11.6056 11.9323 11.6704C11.9323 11.6704 12.2268 11.4774 12.2575 11.517Z" fill="#109421" stroke="black" stroke-width="0.0106534"/>
<path d="M15.2027 11.7059C15.3104 11.7059 15.3977 11.6186 15.3977 11.5109C15.3977 11.4032 15.3104 11.3159 15.2027 11.3159C15.095 11.3159 15.0077 11.4032 15.0077 11.5109C15.0077 11.6186 15.095 11.7059 15.2027 11.7059Z" fill="#8C4200" stroke="black" stroke-width="0.0106534" stroke-miterlimit="33" stroke-linecap="round" stroke-linejoin="round"/>
<path d="M15.1852 12.0256C15.2929 12.0256 15.3802 11.9383 15.3802 11.8306C15.3802 11.7229 15.2929 11.6356 15.1852 11.6356C15.0775 11.6356 14.9902 11.7229 14.9902 11.8306C14.9902 11.9383 15.0775 12.0256 15.1852 12.0256Z" fill="#8C4200" stroke="black" stroke-width="0.0106534" stroke-miterlimit="33" stroke-linecap="round" stroke-linejoin="round"/>
<path d="M15.4529 11.6329C15.5606 11.6329 15.6479 11.5456 15.6479 11.4379C15.6479 11.3302 15.5606 11.2429 15.4529 11.2429C15.3452 11.2429 15.2579 11.3302 15.2579 11.4379C15.2579 11.5456 15.3452 11.6329 15.4529 11.6329Z" fill="#8C4200" stroke="black" stroke-width="0.0106534" stroke-miterlimit="33" stroke-linecap="round" stroke-linejoin="round"/>
<path d="M15.4822 11.9043C15.5899 11.9043 15.6772 11.817 15.6772 11.7093C15.6772 11.6016 15.5899 11.5143 15.4822 11.5143C15.3745 11.5143 15.2872 11.6016 15.2872 11.7093C15.2872 11.817 15.3745 11.9043 15.4822 11.9043Z" fill="#8C4200" stroke="black" stroke-width="0.0106534" stroke-miterlimit="33" stroke-linecap="round" stroke-linejoin="round"/>
<path fill-rule="evenodd" clip-rule="evenodd" d="M13.1295 15.1162L13.1111 15.1278L13.1042 15.1557H13.0838V14.8761H13.1042C13.1065 14.9002 13.1149 14.9123 13.1295 14.9123H13.6258V14.9361C13.6077 14.9375 13.5986 14.9489 13.5986 14.9703V15.3016L13.602 15.3255L13.619 15.3357H13.6272V15.3596C13.4749 15.4551 13.2945 15.5028 13.0858 15.5028C13.0154 15.5028 12.9472 15.493 12.8813 15.4735C12.8158 15.4521 12.7579 15.4194 12.7074 15.3753C12.6574 15.3317 12.6165 15.2764 12.5847 15.2096C12.5547 15.1414 12.5397 15.0623 12.5397 14.9723C12.5397 14.8823 12.5547 14.8037 12.5847 14.7364C12.6165 14.6687 12.6574 14.6128 12.7074 14.5687C12.7579 14.5233 12.8156 14.4901 12.8806 14.4692C12.947 14.4464 13.0154 14.4351 13.0858 14.4351C13.114 14.4351 13.1388 14.4357 13.1602 14.4371C13.181 14.4385 13.2015 14.4412 13.2215 14.4452C13.242 14.4493 13.2629 14.4546 13.2842 14.461C13.3056 14.4664 13.3308 14.4739 13.3599 14.4834C13.3881 14.4925 13.414 14.5039 13.4376 14.5175C13.4608 14.5294 13.4826 14.5353 13.4826 14.5353L13.5065 14.5189L13.5269 14.5271L13.4172 14.7903L13.3967 14.7766L13.4001 14.7548C13.4001 14.7548 13.3906 14.7356 13.3715 14.7247C13.3524 14.7125 13.3283 14.7018 13.2992 14.6927C13.2701 14.6835 13.2371 14.6756 13.2003 14.6688C13.164 14.662 13.1285 14.6585 13.094 14.6585C13.054 14.6585 13.0153 14.6654 12.978 14.679C12.9421 14.6908 12.9096 14.7099 12.8806 14.7362C12.8528 14.763 12.8305 14.7964 12.8137 14.8364C12.7969 14.8751 12.7885 14.9217 12.7885 14.9762C12.7885 15.0294 12.7985 15.076 12.8185 15.116C12.8385 15.1546 12.8638 15.1865 12.8942 15.2114C12.9256 15.2369 12.9603 15.2555 12.9985 15.2674C13.0367 15.2792 13.0742 15.2851 13.111 15.2851C13.1583 15.2851 13.2003 15.2819 13.2372 15.2756C13.2753 15.2688 13.3117 15.2594 13.3462 15.2477V15.1161L13.1295 15.1162Z" fill="#BD0728"/>
<path fill-rule="evenodd" clip-rule="evenodd" d="M14.6948 14.4965L14.6866 14.474C14.6866 14.474 14.6704 14.4624 14.6504 14.4597V14.4351H14.9763V14.4597C14.9563 14.4624 14.9388 14.4733 14.9388 14.4733L14.932 14.4957V15.0371C14.932 15.1257 14.9206 15.2003 14.8979 15.2607C14.8751 15.3216 14.8438 15.3701 14.8038 15.406C14.7647 15.4423 14.7183 15.468 14.6647 15.483C14.612 15.4966 14.5554 15.5034 14.4949 15.5034C14.4349 15.5034 14.3781 15.4966 14.3245 15.483C14.2713 15.468 14.2247 15.4423 14.1847 15.406C14.1456 15.3696 14.1145 15.3212 14.0913 15.2607C14.0691 15.2003 14.058 15.1258 14.058 15.0371V14.4958L14.0505 14.474C14.0505 14.474 14.0337 14.4624 14.0137 14.4596V14.4351H14.3403V14.4596C14.3202 14.4624 14.3021 14.4732 14.3021 14.4732L14.2953 14.4957V15.0371C14.2953 15.1148 14.3128 15.1705 14.3478 15.2041C14.3828 15.2378 14.4319 15.2546 14.495 15.2546C14.5587 15.2546 14.6078 15.2378 14.6423 15.2041C14.6769 15.1705 14.6944 15.1148 14.6948 15.0371L14.6948 14.4965Z" fill="#BD0728"/>
<path fill-rule="evenodd" clip-rule="evenodd" d="M15.9547 15.4585C15.9547 15.4653 15.9565 15.4708 15.9602 15.4748C15.9647 15.4776 15.9738 15.4789 15.9874 15.4789V15.5035H15.6683V15.4783C15.682 15.4755 15.6915 15.4714 15.697 15.466C15.7033 15.4591 15.7095 15.4478 15.7154 15.4319L15.7331 15.3767C15.7427 15.3471 15.7554 15.3099 15.7713 15.2649L15.8231 15.1128L15.8811 14.9444L15.937 14.776L15.9875 14.6274C16.002 14.5842 16.0134 14.5489 16.0216 14.5217L16.0359 14.4794C16.0359 14.4726 16.0318 14.4678 16.0236 14.4651C16.0163 14.4624 16.0084 14.4603 15.9998 14.459V14.4344H16.4702V14.459C16.4611 14.4603 16.4534 14.4624 16.447 14.4651C16.4411 14.4678 16.4381 14.4746 16.4381 14.4855C16.4381 14.4883 16.4434 14.5058 16.4538 14.538C16.4661 14.5708 16.4813 14.6135 16.4995 14.6662L16.5609 14.8428L16.6345 15.0439L16.7068 15.2424L16.7716 15.4176C16.7807 15.4417 16.7885 15.4578 16.7948 15.466C16.8021 15.4742 16.8112 15.4783 16.8221 15.4783V15.5028H16.4669V15.4782C16.4896 15.4768 16.501 15.4687 16.501 15.4537L16.4921 15.4271L16.4717 15.3705L16.4512 15.3091C16.4448 15.291 16.4408 15.2782 16.4395 15.271H16.0126C16.0004 15.3073 15.9908 15.3371 15.984 15.3603L15.9656 15.4148L15.9567 15.4455L15.9547 15.4585ZM16.3931 15.1094L16.2179 14.626L16.0577 15.1094H16.3931Z" fill="#BD0728"/>
<path fill-rule="evenodd" clip-rule="evenodd" d="M18.0664 15.4865C18.0882 15.4838 18.1016 15.4799 18.1066 15.475C18.1121 15.4681 18.1148 15.4599 18.1148 15.4504V14.7031L17.8025 15.4865L17.4977 14.6908L17.4943 15.4504C17.4943 15.4595 17.4966 15.4676 17.5012 15.475C17.5071 15.48 17.5209 15.4838 17.5428 15.4865V15.5111H17.2373V15.4865C17.2596 15.4838 17.273 15.4799 17.2775 15.475C17.2834 15.4681 17.2864 15.4599 17.2864 15.4504V14.5033C17.2864 14.4942 17.2834 14.4867 17.2775 14.4809C17.273 14.4745 17.2596 14.47 17.2373 14.4672V14.4427H17.69V14.4672C17.6627 14.4686 17.6491 14.4806 17.6491 14.5033L17.6586 14.5361L17.6852 14.6111L17.7214 14.7086C17.735 14.7422 17.7477 14.7754 17.7596 14.8081C17.7723 14.8391 17.7832 14.8668 17.7923 14.8913C17.8014 14.9158 17.8078 14.932 17.8114 14.9397C17.831 14.8884 17.8514 14.8384 17.8728 14.7897C17.8942 14.7411 17.9124 14.6966 17.9273 14.6561C17.9451 14.6152 17.9592 14.5811 17.9696 14.5538C17.9796 14.527 17.9846 14.5102 17.9846 14.5033C17.9846 14.4806 17.971 14.4686 17.9437 14.4672V14.4427H18.4135V14.4672C18.3912 14.4699 18.3774 14.4745 18.3719 14.4809C18.3673 14.4864 18.3651 14.4938 18.3651 14.5033V15.4497C18.3651 15.4588 18.3673 15.467 18.3719 15.4742C18.3774 15.4792 18.391 15.4831 18.4128 15.4858V15.5104H18.0665L18.0664 15.4865Z" fill="#BD0728"/>
</g>
<rect x="0.3125" y="0.313538" width="29.375" height="29.375" rx="14.6875" stroke="#C62139" stroke-width="0.625"/>
<defs>
<clipPath id="clip0_1_14165">
<rect y="0.0010376" width="30" height="30" rx="15" fill="white"/>
</clipPath>
</defs>
</svg>
