<svg width="30" height="30" viewBox="0 0 30 30" fill="none" xmlns="http://www.w3.org/2000/svg">
<path d="M15.0005 30.0001C23.2827 30.0001 30.0005 23.2824 30.0005 15.0001H0.000488281C0.000488281 23.2824 6.71137 30.0001 15.0005 30.0001Z" fill="#009E49"/>
<path d="M15.0004 0.000152588C6.71811 0.000152588 0.000366211 6.71792 0.000366211 15.0002H30.0004C30.0004 6.71792 23.2826 0.000152588 15.0004 0.000152588Z" fill="#FCD116"/>
<path d="M0.000488281 15.0001C0.000488281 22.7815 5.92913 29.1767 13.5115 29.9247V0.0756073C5.92227 0.823549 0.000488281 7.2188 0.000488281 15.0001Z" fill="#CE1126"/>
<path d="M6.75257 11.3977L7.65147 14.1493H10.5403L8.20041 15.851L9.09248 18.6026L6.75257 16.9009L4.41269 18.6026L5.31159 15.851L2.97168 14.1493H5.86053L6.75257 11.3977Z" fill="black"/>
</svg>
