<svg width="30" height="30" viewBox="0 0 30 30" fill="none" xmlns="http://www.w3.org/2000/svg">
<path d="M15.0005 30.0001C22.2192 30.0001 28.2439 24.9018 29.6711 18.1086L5.14001 26.2879C7.77497 28.5935 11.2196 30.0001 15.0005 30.0001Z" fill="#009E49"/>
<path d="M15.0005 0.00012207C11.2196 0.00012207 7.77497 1.4068 5.14001 3.71239L29.6711 11.8917C28.2439 5.09849 22.2192 0.00012207 15.0005 0.00012207Z" fill="#009E49"/>
<path d="M5.14003 26.2879L29.6712 18.1086C29.7741 17.6282 29.8495 17.1342 29.9044 16.6401L4.06958 25.2517C4.41267 25.6154 4.76263 25.9585 5.14003 26.2879Z" fill="white"/>
<path d="M4.06958 4.74853L29.9044 13.3601C29.8495 12.8661 29.7741 12.3721 29.6712 11.8917L5.14003 3.71239C4.76263 4.04176 4.41267 4.38486 4.06958 4.74853Z" fill="white"/>
<path d="M2.5188 6.67671L15.0005 15.0001L2.5188 23.3167C2.97854 24.0029 3.50691 24.6479 4.06958 25.2518L29.9044 16.6401C29.9662 16.098 30.0005 15.556 30.0005 15.0001C30.0005 14.4443 29.9662 13.9022 29.9044 13.3602L4.06958 4.74854C3.50691 5.35238 2.97854 5.99053 2.5188 6.67671Z" fill="#FCD116"/>
<path d="M2.51881 6.67671C2.23061 7.10901 1.96984 7.55502 1.72968 8.01476L12.2009 14.9933L1.72968 21.9718C1.9767 22.4315 2.23747 22.8775 2.51881 23.3098L15.0005 14.9933L2.51881 6.67671Z" fill="black"/>
<path d="M1.72965 8.02162C0.63175 10.1076 0.000488281 12.4818 0.000488281 15.0001C0.000488281 17.5184 0.63175 19.8926 1.72965 21.9786L12.2008 15.0001L1.72965 8.02162Z" fill="#CE1126"/>
</svg>
