<svg width="30" height="30" viewBox="0 0 30 30" fill="none" xmlns="http://www.w3.org/2000/svg">
<path d="M30 15.0002C30 23.2825 23.2823 30.0002 15 30.0002C6.71774 30.0002 0 23.2825 0 15.0002C0 6.71798 6.71774 0.000213623 15 0.000213623C23.2823 0.000213623 30 6.71112 30 15.0002Z" fill="#FF0000"/>
<path d="M14.5953 14.9247C14.7189 14.9247 14.8081 15.0208 14.8081 15.1374C14.8081 15.2541 14.712 15.3501 14.5953 15.3501C14.4787 15.3501 14.3827 15.2541 14.3827 15.1374C14.3827 15.0208 14.4787 14.9247 14.5953 14.9247Z" fill="#FF0000"/>
<path d="M14.5952 15.1374C12.5572 14.314 11.5898 11.7408 12.4338 9.71656C12.9004 8.60494 14.6159 7.07476 16.7293 7.60312C15.9128 8.01483 15.3638 8.5775 15.899 9.38034C16.4822 10.2587 16.2078 11.583 15.0756 12.1182C14.1904 12.5299 13.4218 14.0601 14.5952 15.1374Z" fill="white"/>
<path d="M14.5607 15.1786C14.1353 14.8287 13.4423 14.4581 13.2707 13.0583C13.2501 12.9005 13.2432 12.7495 13.2432 12.6123C13.2432 11.487 13.7922 10.842 13.7922 10.8351C13.8128 10.8145 13.8402 10.8076 13.8608 10.8282C13.8814 10.8488 13.8814 10.8763 13.8677 10.8968C13.8677 10.8968 13.7373 11.0478 13.6001 11.336C13.4697 11.6311 13.3393 12.0565 13.3393 12.6054C13.3393 12.7427 13.3462 12.8868 13.3668 13.0377C13.5383 14.4032 14.1765 14.7257 14.6156 15.0894C14.6362 15.11 14.6431 15.1375 14.6225 15.1581C14.6156 15.1718 14.5951 15.1786 14.5814 15.1786C14.5814 15.1855 14.5745 15.1855 14.5607 15.1786Z" fill="#FF0000"/>
<path d="M13.9501 9.64111L14.3001 9.94988L14.7049 9.70972L14.5196 10.142L14.8696 10.4577L14.403 10.4096L14.2108 10.8351L14.1148 10.3822L13.6482 10.3341L14.053 10.094L13.9501 9.64111Z" fill="#FF0000"/>
<path d="M14.5954 15.1374C14.7532 12.9416 16.9079 11.233 19.0968 11.4183C20.2976 11.5212 22.2738 12.6877 22.4248 14.8561C21.7866 14.2042 21.0799 13.8543 20.4829 14.6091C19.8242 15.4325 18.4792 15.5766 17.6215 14.6639C16.9559 13.9572 15.261 13.6896 14.5954 15.1374Z" fill="white"/>
<path d="M14.5477 15.1237C14.7467 14.6022 14.8908 13.8337 16.1671 13.2435C16.3112 13.1749 16.4484 13.12 16.5857 13.0788C17.663 12.7358 18.4384 13.0583 18.4453 13.0583C18.4727 13.0651 18.4864 13.0994 18.4727 13.12C18.4589 13.1475 18.4315 13.1612 18.4041 13.1475C18.4041 13.1475 18.2188 13.072 17.9032 13.0308C17.5875 12.9965 17.1346 12.9965 16.6131 13.1681C16.4827 13.2092 16.3455 13.2641 16.2083 13.3259C14.9594 13.9091 14.8496 14.6159 14.6369 15.1443C14.63 15.1717 14.5958 15.1855 14.5683 15.1717C14.5546 15.1649 14.5408 15.158 14.5408 15.1443C14.5477 15.1443 14.5477 15.1306 14.5477 15.1237Z" fill="#FF0000"/>
<path d="M19.6324 12.8387L19.4471 13.2641L19.7971 13.5798L19.3236 13.5317L19.1384 13.964L19.0423 13.5043L18.5688 13.4563L18.9805 13.2161L18.8776 12.7632L19.2275 13.072L19.6324 12.8387Z" fill="#FF0000"/>
<path d="M14.5954 15.1374C16.7294 14.6159 19.0213 16.1324 19.5154 18.2733C19.783 19.4467 19.282 21.6905 17.2647 22.4933C17.6901 21.6905 17.8068 20.9083 16.901 20.572C15.9129 20.1946 15.3639 18.9595 15.9678 17.8685C16.4481 17.0176 16.1805 15.3227 14.5954 15.1374Z" fill="white"/>
<path d="M14.6025 15.0894C15.1515 15.1237 15.9338 15.0208 16.8876 16.0569C16.9974 16.1736 17.0865 16.2902 17.1689 16.4C17.8276 17.3195 17.7591 18.1635 17.7591 18.1635C17.7591 18.191 17.7316 18.2115 17.7041 18.2115C17.6767 18.2115 17.6561 18.1841 17.663 18.1566C17.663 18.1566 17.6767 17.9576 17.6149 17.642C17.5532 17.3264 17.409 16.9009 17.0865 16.4549C17.0042 16.3451 16.9151 16.2353 16.8121 16.1187C15.8721 15.11 15.1652 15.2198 14.5957 15.1855C14.5682 15.1855 14.5477 15.1649 14.5477 15.1306C14.5477 15.1169 14.5546 15.1031 14.5683 15.0894C14.5752 15.0894 14.5888 15.0894 14.6025 15.0894Z" fill="#FF0000"/>
<path d="M18.3285 19.2271L17.8688 19.1791L17.6767 19.6045L17.5738 19.1448L17.114 19.0967L17.5188 18.8634L17.4159 18.4037L17.7659 18.7193L18.1707 18.486L17.9855 18.9115L18.3285 19.2271Z" fill="#FF0000"/>
<path d="M14.5952 15.1374C15.748 17.0107 15.007 19.6525 13.12 20.7847C12.0839 21.4023 9.79887 21.615 8.41278 19.9339C9.31168 20.0917 10.087 19.9613 10.135 19.0006C10.1899 17.9508 11.1987 17.045 12.4201 17.2852C13.3739 17.4773 14.904 16.7019 14.5952 15.1374Z" fill="white"/>
<path d="M14.644 15.1237C14.7813 15.6589 15.1175 16.3657 14.4244 17.594C14.3489 17.7312 14.2666 17.8547 14.1843 17.9713C13.5118 18.8771 12.6953 19.0761 12.6884 19.0761C12.661 19.083 12.6335 19.0624 12.6266 19.0418C12.6197 19.0143 12.6404 18.9869 12.6609 18.98C12.6609 18.98 12.8531 18.9389 13.1345 18.7742C13.4158 18.6164 13.7794 18.3487 14.1019 17.9096C14.1843 17.7998 14.2598 17.6763 14.3353 17.5459C15.0077 16.3451 14.6852 15.7001 14.548 15.1511C14.5411 15.1237 14.5549 15.0962 14.5823 15.0894C14.596 15.0825 14.6097 15.0894 14.6234 15.0962C14.6372 15.1031 14.644 15.1168 14.644 15.1237Z" fill="#FF0000"/>
<path d="M11.8511 19.9476L11.7551 19.4878L11.2885 19.4398L11.6933 19.2065L11.5972 18.7467L11.9472 19.0624L12.3521 18.8291L12.16 19.2545L12.5099 19.5702L12.0433 19.5153L11.8511 19.9476Z" fill="#FF0000"/>
<path d="M14.5953 15.1374C13.168 16.8049 10.4164 16.9078 8.7696 15.46C7.86383 14.6708 6.96498 12.5505 8.13149 10.7184C8.255 11.6242 8.61864 12.3172 9.54499 12.0702C10.5605 11.7957 11.7339 12.4819 11.878 13.7239C11.9947 14.6914 13.2023 15.9128 14.5953 15.1374Z" fill="white"/>
<path d="M14.6224 15.1786C14.1558 15.4737 13.5862 16.0089 12.207 15.7276C12.0492 15.7001 11.9119 15.6589 11.7747 15.6109C10.7043 15.2541 10.2651 14.5268 10.2651 14.5268C10.2514 14.4993 10.2583 14.4719 10.2857 14.4581C10.3132 14.4444 10.3406 14.4513 10.3543 14.4718C10.3543 14.4718 10.4573 14.6434 10.6906 14.863C10.9307 15.0826 11.2944 15.3433 11.809 15.5149C11.9394 15.556 12.0766 15.5972 12.2276 15.6247C13.5794 15.8991 14.0872 15.3982 14.5744 15.0894C14.595 15.0757 14.6293 15.0826 14.643 15.1031C14.6567 15.1169 14.6567 15.1306 14.6499 15.1443C14.643 15.1649 14.6361 15.1718 14.6224 15.1786Z" fill="#FF0000"/>
<path d="M9.17404 13.9984L9.58574 13.772L9.48966 13.3054L9.83275 13.6279L10.2444 13.3946L10.0455 13.82L10.3954 14.1356L9.92883 14.0808L9.73668 14.513L9.6406 14.0533L9.17404 13.9984Z" fill="#FF0000"/>
</svg>
