<svg width="30" height="30" viewBox="0 0 30 30" fill="none" xmlns="http://www.w3.org/2000/svg">
<path d="M14.9999 30.0003C21.0521 30.0003 26.2602 26.4115 28.6344 21.2514H1.36543C3.73277 26.4184 8.94778 30.0003 14.9999 30.0003Z" fill="#0047BA"/>
<path d="M14.9999 0.000244141C8.94778 0.000244141 3.73277 3.58899 1.36543 8.74911H28.6344C26.2671 3.58899 21.0521 0.000244141 14.9999 0.000244141Z" fill="#0047BA"/>
<path d="M3.85644e-05 15.0002C3.85644e-05 17.2303 0.494085 19.3506 1.36554 21.2514H28.6345C29.506 19.3506 30 17.2303 30 15.0002C30 12.7701 29.5129 10.6498 28.6345 8.74908H1.36554C0.494085 10.6567 3.85644e-05 12.7701 3.85644e-05 15.0002Z" fill="#F1F4FB"/>
<path d="M15.0001 13.7651L15.3089 14.712H16.3039L15.4942 15.2953L15.803 16.2422L15.0001 15.6521L14.1973 16.2422L14.5061 15.2953L13.7032 14.712H14.6982L15.0001 13.7651Z" fill="#0047BA"/>
<path d="M21.7041 11.2262L22.0129 12.1663H23.001L22.1982 12.7495L22.507 13.6965L21.7041 13.1132L20.9013 13.6965L21.2032 12.7495L20.4004 12.1663H21.3954L21.7041 11.2262Z" fill="#0047BA"/>
<path d="M21.7041 16.3108L22.0129 17.2578H23.001L22.1982 17.841L22.507 18.7811L21.7041 18.1978L20.9013 18.7811L21.2032 17.841L20.4004 17.2578H21.3954L21.7041 16.3108Z" fill="#0047BA"/>
<path d="M8.29593 11.2263L8.60473 12.1663H9.5997L8.79684 12.7496L9.09876 13.6965L8.29593 13.1133L7.49998 13.6965L7.8019 12.7496L6.99903 12.1663H7.99401L8.29593 11.2263Z" fill="#0047BA"/>
<path d="M8.29611 16.3108L8.6049 17.2578H9.59987L8.79701 17.841L9.09893 18.7811L8.29611 18.1978L7.50015 18.7811L7.80207 17.841L6.99921 17.2578H7.99418L8.29611 16.3108Z" fill="#0047BA"/>
</svg>
