<svg width="30" height="30" viewBox="0 0 30 30" fill="none" xmlns="http://www.w3.org/2000/svg">
<path d="M15.0006 30.0001C21.0528 30.0001 26.2678 26.4113 28.6351 21.2512H1.36615C3.73349 26.4113 8.94849 30.0001 15.0006 30.0001Z" fill="#00209F"/>
<path d="M15.0006 9.15527e-05C8.94849 9.15527e-05 3.73349 3.58884 1.36615 8.74895H28.6351C26.2678 3.58884 21.0528 9.15527e-05 15.0006 9.15527e-05Z" fill="#D61517"/>
<path d="M0.000671387 15.0001C0.000671387 17.2302 0.487856 19.3436 1.36617 21.2512H28.6352C29.5066 19.3505 30.0007 17.2302 30.0007 15.0001C30.0007 12.77 29.5066 10.6565 28.6352 8.74893H1.36617C0.487856 10.6565 0.000671387 12.77 0.000671387 15.0001Z" fill="#F1F4FB"/>
<path d="M14.9936 23.0695H14.9798C14.0192 23.0215 13.0517 22.8087 12.3106 22.4794C11.3774 22.0608 10.5402 21.457 9.86778 20.7159C9.46294 20.263 9.1267 19.769 8.87281 19.2543C8.58461 18.6711 8.39935 18.0398 8.32387 17.381C8.31014 17.2506 8.30328 17.0722 8.30328 16.935C8.30328 16.8458 8.30328 16.7772 8.30328 16.7566V9.12622V8.74883H8.68068H14.9936H21.3065H21.5878H21.6839V9.12622V16.7566C21.6839 16.7772 21.6839 16.8458 21.6839 16.935C21.6839 17.0722 21.6839 17.2506 21.6633 17.381C21.5878 18.0398 21.4025 18.6711 21.1143 19.2543C20.8605 19.769 20.5242 20.263 20.1194 20.7159C19.4538 21.4501 18.6098 22.0608 17.6766 22.4794C16.9355 22.8087 15.968 23.0215 15.0073 23.0695H14.9936ZM8.49541 9.12622V16.7566C8.49541 16.7772 8.49541 16.8458 8.49541 16.9281C8.49541 17.0585 8.49541 17.2369 8.50913 17.3536C8.58461 17.9917 8.76302 18.6024 9.04435 19.1651C9.29138 19.666 9.61389 20.1464 10.0119 20.5855C10.6569 21.2991 11.4803 21.8961 12.3861 22.301C13.0928 22.6166 14.0466 22.8293 14.9867 22.8774H15.0004H15.0073C15.9474 22.8293 16.9012 22.6166 17.6079 22.301C18.5137 21.8961 19.3371 21.2991 19.9821 20.5855C20.3733 20.1464 20.7026 19.666 20.9497 19.1651C21.2241 18.6024 21.4025 17.9917 21.4849 17.3536C21.4986 17.2369 21.4986 17.0585 21.4986 16.9281C21.4986 16.8389 21.4986 16.7703 21.4986 16.7497V9.11935V8.92722H21.3133H15.0004H8.68755H8.49541V9.12622Z" fill="#D61516"/>
<path d="M15.0005 22.8363H14.9937C14.0605 22.7882 13.1204 22.5824 12.4067 22.2667C11.5078 21.8619 10.6913 21.2718 10.0463 20.5581C9.65513 20.1258 9.33263 19.6524 9.08561 19.1515C8.81113 18.5888 8.63273 17.9849 8.55725 17.3537C8.5298 17.1547 8.54353 16.7704 8.54353 16.7567V9.1263V8.98221H8.68763H15.0005H21.3134H21.4507V9.1263V16.7567C21.4507 16.7704 21.4575 17.1547 21.4369 17.3468C21.3615 17.9781 21.1831 18.5819 20.9086 19.1446C20.6684 19.6455 20.339 20.119 19.9479 20.5513C19.3029 21.2649 18.4932 21.855 17.5874 22.2599C16.8807 22.5755 15.9406 22.7814 15.0005 22.8294V22.8363Z" fill="#D61516"/>
<path d="M18.7472 9.23607H16.2495V11.9053H18.7472V9.23607Z" fill="white"/>
<path d="M16.2494 11.8985H13.7517V14.5746H16.2494V11.8985Z" fill="white"/>
<path d="M21.2037 11.8985H18.7403V14.5746H21.2037V11.8985Z" fill="white"/>
<path d="M11.254 11.8985H8.79059V14.5746H11.254V11.8985Z" fill="white"/>
<path d="M16.2494 17.2438H13.7517V19.92H16.2494V17.2438Z" fill="white"/>
<path d="M18.7403 19.92H20.1538C20.3597 19.6386 20.5381 19.3436 20.6891 19.0417C20.9498 18.5064 21.1213 17.93 21.1968 17.3262C21.1968 17.3056 21.2037 17.2781 21.2037 17.2507H18.7403V19.92Z" fill="white"/>
<path d="M11.2608 17.2438H8.80426C8.80426 17.2713 8.80427 17.2987 8.81113 17.3193C8.87975 17.9232 9.0513 18.4995 9.31205 19.0348C9.46301 19.3367 9.64142 19.6318 9.84727 19.9131H11.2608V17.2438Z" fill="white"/>
<path d="M13.7586 9.23607H11.2609V11.9053H13.7586V9.23607Z" fill="white"/>
<path d="M18.7472 14.5746H16.2495V17.2438H18.7472V14.5746Z" fill="white"/>
<path d="M13.7586 14.5746H11.2609V17.2438H13.7586V14.5746Z" fill="white"/>
<path d="M16.2495 19.92V22.4246C16.7023 22.3285 17.1278 22.1981 17.4914 22.0403C17.9375 21.8413 18.356 21.5943 18.7472 21.3129V19.92H16.2495Z" fill="white"/>
<path d="M11.2609 19.92V21.3129C11.652 21.5943 12.0706 21.8413 12.5097 22.0403C12.8734 22.205 13.2988 22.3353 13.7517 22.4246V19.92H11.2609Z" fill="white"/>
<path d="M21.3134 9.12631V16.7567C21.3134 16.7567 21.3203 17.1409 21.2997 17.3331C21.2242 17.9438 21.0527 18.5339 20.7851 19.0897C20.538 19.5906 20.2155 20.0504 19.845 20.4621C19.2 21.1757 18.404 21.7452 17.5325 22.1364C16.7777 22.4726 15.8308 22.651 15.0005 22.699C14.1702 22.6579 13.2233 22.4795 12.4685 22.1364C11.5902 21.7452 10.7942 21.1757 10.156 20.4621C9.7855 20.0504 9.463 19.5906 9.21597 19.0897C8.94836 18.5408 8.76995 17.9438 8.70133 17.3331C8.68075 17.1409 8.68762 16.7567 8.68762 16.7567V9.12631H15.0005H21.3134ZM21.5948 8.84497H21.3134H15.0005H8.68762H8.39941V9.12631V16.7567C8.39941 16.8116 8.39256 17.1684 8.41315 17.3674C8.48863 18.0193 8.67388 18.6368 8.95522 19.2132C9.20911 19.721 9.53849 20.2082 9.93648 20.6542C10.5952 21.3816 11.4255 21.9854 12.345 22.3971C13.0655 22.7196 14.0261 22.9323 14.9799 22.9804H14.9937H15.0074C15.9612 22.9323 16.915 22.7196 17.6423 22.3971C18.5618 21.9854 19.3921 21.3816 20.0508 20.6542C20.4557 20.2082 20.785 19.7279 21.0321 19.2132C21.3134 18.6368 21.4987 18.0193 21.5742 17.3674C21.5948 17.1684 21.5879 16.8116 21.5879 16.7567V9.12631V8.84497H21.5948Z" fill="white"/>
<path d="M22.1164 2.99871L22.0752 3.01929C22.0752 3.01929 21.9448 3.07419 21.7527 3.14967C21.4576 3.27318 21.0185 3.45159 20.6548 3.60255C20.4695 3.67803 20.3048 3.74665 20.1813 3.79468C20.1196 3.81527 20.0715 3.83584 20.0372 3.84957C20.0304 3.85643 20.0235 3.85644 20.0166 3.85644C19.9137 3.75351 19.5569 3.36238 19.2207 2.99184C19.056 2.80657 18.8913 2.63503 18.7746 2.50465C18.7129 2.4429 18.6648 2.38799 18.6305 2.34682C18.6168 2.32624 18.6031 2.31251 18.5894 2.30565C18.5825 2.29879 18.5825 2.2988 18.5756 2.29194V2.28507L18.5482 2.25077L16.6818 3.38297L14.932 2.0449L13.2851 3.36238L11.357 2.25077L9.95716 3.91819L7.85057 3.01242L6.69092 5.09156L8.37893 8.48818L8.42696 8.47445C10.4581 7.75395 12.7156 7.36285 14.9183 7.35598C14.932 7.35598 14.9526 7.35598 14.9732 7.35598C17.1621 7.35598 19.3922 7.69906 21.5949 8.49503L21.6429 8.50877L23.3378 5.09156L22.1164 2.99871Z" fill="#D61517"/>
<path d="M8.39254 8.4263C10.4374 7.69894 12.6949 7.30781 14.9044 7.30095C17.1139 7.29408 19.3715 7.64404 21.5947 8.44001L23.2553 5.09143L22.0888 3.06033C22.0888 3.06033 20.0096 3.91119 19.9891 3.91119C19.9685 3.91119 18.5206 2.31924 18.5206 2.31924L16.6611 3.44459L14.9113 2.10652L13.2713 3.42401L11.35 2.31239L9.95017 3.97294L7.85045 3.07404L6.7251 5.08456L8.39254 8.4263Z" fill="white"/>
<path d="M18.493 2.61433C18.9664 3.12897 19.4399 3.64361 19.9134 4.15825V4.1651C19.8928 4.22685 19.8791 4.28176 19.8585 4.34351C19.5566 5.39337 19.2546 6.44324 18.9527 7.4931C18.6371 7.42448 18.3214 7.36272 18.0058 7.31468C17.4568 7.22548 16.901 7.17059 16.3452 7.12942V7.12255C16.4481 5.96976 16.5511 4.81698 16.654 3.65733C17.2716 3.31424 17.8823 2.96429 18.493 2.61433Z" fill="#393E90"/>
<path d="M17.6903 4.25441C17.752 4.24754 17.8206 4.24756 17.8824 4.24756C17.903 4.24756 17.9304 4.24754 17.951 4.25441C17.9853 4.26127 18.0059 4.28873 18.0402 4.28873C18.0677 4.28873 18.0882 4.28871 18.1088 4.29558C18.1637 4.30244 18.2186 4.3299 18.2735 4.35048C18.3216 4.36421 18.3627 4.37791 18.4108 4.37791C18.4725 4.38478 18.5343 4.38478 18.5892 4.35733C18.6098 4.35047 18.6303 4.33675 18.6509 4.32303C18.6715 4.32303 18.699 4.32303 18.7264 4.32303C18.7264 4.33675 18.7264 4.35734 18.7264 4.37107C18.6784 4.40538 18.6303 4.46027 18.5686 4.47399C18.5274 4.48771 18.4862 4.5083 18.4451 4.51516C18.3902 4.52888 18.3353 4.52203 18.2804 4.52203C18.2461 4.52203 18.2118 4.51516 18.1843 4.51516C18.1912 4.52202 18.1912 4.53575 18.198 4.54261C18.2461 4.55634 18.2941 4.57005 18.3353 4.5975C18.3833 4.61808 18.4245 4.64553 18.4725 4.65925C18.5205 4.67298 18.5754 4.67298 18.6303 4.67984C18.7127 4.67984 18.795 4.67984 18.8774 4.65925C18.898 4.65239 18.9185 4.64554 18.9391 4.64554C18.9597 4.64554 18.9803 4.64554 19.0009 4.64554C19.0009 4.65926 19.0009 4.67298 19.0009 4.68671C18.9117 4.73474 18.8225 4.78277 18.7264 4.81021C18.6372 4.83766 18.548 4.83766 18.4519 4.8308C18.3353 4.82394 18.2186 4.79649 18.102 4.76904C18.0539 4.75532 18.0128 4.72788 17.9716 4.70729C17.9098 4.67298 17.8344 4.6524 17.7657 4.64554C17.7108 4.63867 17.6559 4.63868 17.6148 4.67299C17.4913 4.59065 17.3678 4.50829 17.2511 4.42595C17.2923 4.38478 17.3334 4.33676 17.3883 4.30931C17.4844 4.28187 17.5873 4.26813 17.6903 4.25441Z" fill="#D61516"/>
<path d="M17.6903 4.26815C17.704 4.26815 17.7178 4.26128 17.7315 4.26128C17.7383 4.29559 17.7589 4.33677 17.7589 4.37108C17.7589 4.39852 17.7589 4.42597 17.7589 4.45341C17.7521 4.45341 17.7452 4.43969 17.7452 4.43283C17.7383 4.39852 17.7383 4.37106 17.7246 4.33675C17.7246 4.32303 17.704 4.2956 17.6903 4.26815Z" fill="#8E3836"/>
<path d="M18.006 4.47398C17.9991 4.41222 17.9922 4.35046 17.9922 4.28185C18.006 4.28871 18.0197 4.2887 18.0334 4.29556C18.0266 4.34359 18.0266 4.38477 18.0197 4.42594C18.0128 4.44652 18.0128 4.46025 18.006 4.47398Z" fill="#8E3836"/>
<path d="M17.3198 4.39167C17.3404 4.37794 17.361 4.36421 17.3816 4.34363C17.4159 4.36421 17.4502 4.38481 17.4708 4.41912C17.4845 4.43284 17.4845 4.45342 17.4845 4.474C17.4571 4.46028 17.4433 4.43969 17.4159 4.42597C17.3885 4.41224 17.3541 4.40539 17.3198 4.39167Z" fill="#8E3836"/>
<path d="M18.2324 4.3848C18.253 4.3848 18.2667 4.39167 18.2736 4.41226C18.2873 4.44657 18.2804 4.48773 18.2873 4.5289C18.2804 4.5289 18.2736 4.52891 18.2667 4.52205C18.2461 4.48088 18.2461 4.43284 18.2324 4.3848Z" fill="#8E3836"/>
<path d="M18.4862 4.41225C18.5 4.41225 18.5068 4.41225 18.5205 4.41225C18.5205 4.43284 18.5205 4.46028 18.5205 4.48772C18.5068 4.48772 18.4931 4.4946 18.4794 4.50146C18.4794 4.46715 18.4862 4.4397 18.4862 4.41225Z" fill="#8E3836"/>
<path d="M16.8189 4.50829C16.8258 4.48085 16.8395 4.46713 16.8601 4.44654C16.9356 4.48771 17.011 4.52889 17.0865 4.5632C17.1071 4.54948 17.1208 4.52889 17.1346 4.51516C17.162 4.48772 17.2032 4.46714 17.2375 4.46028C17.361 4.54262 17.4845 4.61809 17.6012 4.70729C17.608 4.71416 17.6218 4.71416 17.6355 4.71416C17.7178 4.71416 17.807 4.70729 17.8894 4.70729C17.8688 4.75533 17.8413 4.80336 17.8002 4.83767C17.7315 4.89943 17.6423 4.92688 17.56 4.95433C17.6012 5.03667 17.656 5.11214 17.7315 5.1739C17.7521 5.18762 17.7658 5.2082 17.7933 5.21506C17.8207 5.22193 17.8413 5.2288 17.8688 5.2288C17.9168 5.2288 17.958 5.22879 18.006 5.24252C18.0266 5.24938 18.0472 5.25624 18.0678 5.2631C18.0883 5.2631 18.1021 5.24938 18.1227 5.24252C18.1638 5.23566 18.1981 5.2288 18.2393 5.2288C18.2599 5.2288 18.2736 5.2288 18.2942 5.2288C18.3285 5.23566 18.3628 5.22879 18.3971 5.21506C18.4177 5.2082 18.4383 5.18763 18.4658 5.18763C18.4932 5.18763 18.5206 5.18076 18.5481 5.19448C18.5687 5.2082 18.5961 5.20822 18.6236 5.20822C18.6579 5.20822 18.6922 5.19448 18.7265 5.19448C18.7608 5.19448 18.802 5.19448 18.8431 5.19448C18.8775 5.20134 18.9118 5.20822 18.9461 5.20822C18.9735 5.20822 19.0078 5.20135 19.0284 5.18076C19.0559 5.16018 19.0902 5.13959 19.1176 5.11214C19.1313 5.09842 19.1519 5.07784 19.1794 5.07784C19.2 5.07784 19.2137 5.09842 19.2206 5.11214C19.2343 5.13959 19.2343 5.16704 19.2343 5.20135C19.2343 5.24252 19.2343 5.28369 19.2343 5.32486C19.2411 5.37289 19.1863 5.40721 19.1794 5.44839C19.1794 5.46897 19.2 5.47582 19.2068 5.4964C19.2068 5.52385 19.2068 5.54445 19.2 5.57189C19.2 5.58562 19.1931 5.59934 19.1794 5.61306C19.1519 5.64737 19.1245 5.68168 19.097 5.72286C19.0833 5.74344 19.0764 5.76402 19.0764 5.78461C19.0696 5.8395 19.0627 5.88752 19.0696 5.94242C19.0696 5.963 19.0833 5.97673 19.0902 5.99046C19.0833 6.00418 19.0696 6.02476 19.0559 6.03163C19.049 6.0728 19.049 6.12083 19.0559 6.162C19.0559 6.18259 19.0833 6.1826 19.0902 6.19632C19.0902 6.2375 19.0902 6.28553 19.0833 6.3267C19.0833 6.34043 19.0696 6.34727 19.0627 6.35413C19.001 6.40217 18.9324 6.45021 18.8912 6.51883C18.8775 6.53256 18.8637 6.55313 18.8637 6.57372C18.8637 6.60803 18.8637 6.6492 18.8569 6.68351C18.8157 6.71782 18.7745 6.74527 18.7402 6.77272C18.6785 6.74527 18.6167 6.72468 18.5481 6.70409C18.555 6.69037 18.5687 6.66978 18.5755 6.65606C18.6099 6.60802 18.6442 6.55313 18.6716 6.5051C18.6853 6.48451 18.6922 6.45707 18.6922 6.42963C18.699 6.37473 18.6991 6.31297 18.6991 6.25808C18.6991 6.24436 18.6922 6.23748 18.6853 6.22376C18.6579 6.18259 18.6167 6.15515 18.5687 6.14829C18.5138 6.21004 18.4589 6.27181 18.3903 6.3267C18.3765 6.34043 18.3628 6.34728 18.3491 6.361C18.3354 6.38845 18.3354 6.42961 18.3148 6.45706C18.2942 6.4845 18.2599 6.49137 18.2325 6.5051C18.2256 6.53254 18.2119 6.55314 18.205 6.58059C18.1432 6.56686 18.0815 6.55313 18.0197 6.53255C18.0335 6.51196 18.0472 6.49139 18.0609 6.47766C18.0746 6.45708 18.0746 6.43647 18.0746 6.41589C18.0746 6.3953 18.0883 6.38159 18.0952 6.36787C18.1364 6.29925 18.1844 6.23064 18.2256 6.15516C18.1844 6.16202 18.1432 6.16886 18.0952 6.162C18.0746 6.162 18.0609 6.14142 18.0472 6.12083C18.0129 6.14142 17.9785 6.16886 17.9374 6.162C17.9168 6.162 17.9031 6.14829 17.8962 6.13457C17.8756 6.15516 17.855 6.17574 17.8207 6.17574C17.7933 6.1826 17.7727 6.17574 17.7452 6.17574C17.7384 6.2375 17.6972 6.29238 17.6561 6.34042C17.6286 6.37473 17.6012 6.40904 17.5806 6.45021C17.5668 6.48452 17.5669 6.51882 17.5669 6.55313C17.56 6.60803 17.56 6.65607 17.5531 6.71096C17.5394 6.73155 17.512 6.73841 17.4982 6.75213C17.4845 6.75899 17.4708 6.77958 17.4571 6.7933H17.4502C17.4365 6.7933 17.4227 6.78643 17.409 6.78643C17.361 6.77271 17.313 6.75899 17.2649 6.74526C17.2718 6.69037 17.2924 6.62861 17.3267 6.58743C17.3404 6.56685 17.3678 6.54628 17.361 6.51883C17.361 6.45021 17.361 6.3816 17.361 6.30612C17.361 6.2375 17.4022 6.17572 17.4227 6.11396C17.4022 6.10024 17.3747 6.08653 17.3541 6.07966C17.3198 6.0728 17.2855 6.08653 17.2512 6.10025C17.2375 6.10711 17.2238 6.11397 17.2238 6.12083C17.1826 6.20318 17.1345 6.27865 17.0796 6.35413C17.0728 6.36786 17.0728 6.37473 17.0728 6.38846C17.0728 6.42276 17.0728 6.45706 17.0522 6.48451C17.0385 6.49823 17.0316 6.51882 17.0179 6.53255C16.9493 6.51196 16.8738 6.49825 16.8052 6.47766C16.812 6.43649 16.8258 6.40218 16.8395 6.36787C16.8601 6.3267 16.8944 6.29925 16.9218 6.25808C16.9493 6.20318 16.9699 6.14141 17.0248 6.11396C17.0316 6.07279 17.0248 6.0385 17.0316 5.99733C17.0316 5.97674 17.0453 5.95615 17.0453 5.9287C17.0316 5.87381 17.0248 5.81204 17.0453 5.75029C17.0248 5.75029 17.011 5.75716 16.9905 5.74344C16.9767 5.72972 16.9699 5.70227 16.9767 5.68169C16.9836 5.6611 16.9973 5.64737 17.011 5.62678C16.9905 5.62678 16.9699 5.61991 16.963 5.59933C16.9561 5.56502 16.9767 5.53073 16.9973 5.51014C17.0522 5.44838 17.114 5.40035 17.1689 5.33859C17.1414 5.33859 17.114 5.33859 17.0865 5.31801C17.0797 5.31115 17.0797 5.30429 17.0865 5.29742C17.0934 5.2837 17.1002 5.26996 17.1071 5.25623C17.0865 5.24937 17.0591 5.24939 17.0591 5.2288C17.0522 5.20135 17.0659 5.17391 17.0728 5.14646C17.0042 5.15332 16.9356 5.16704 16.8738 5.16018C16.8464 5.16018 16.8258 5.13959 16.8189 5.11214C16.8121 5.07783 16.812 5.03666 16.8326 5.00235C16.8532 4.96118 16.8807 4.92001 16.8944 4.87884C16.915 4.82395 16.9356 4.77592 16.9493 4.71416C16.9013 4.67985 16.8601 4.63869 16.8258 4.59065C16.8189 4.57693 16.8052 4.5426 16.8189 4.50829Z" fill="#544B20"/>
<path d="M16.8257 4.52202C16.8257 4.49457 16.8463 4.48085 16.86 4.46027C16.9355 4.50144 17.0179 4.53573 17.0933 4.57691C17.1277 4.5426 17.162 4.50144 17.21 4.48085C17.2237 4.47399 17.2374 4.46712 17.2512 4.47398C17.3747 4.55632 17.4982 4.63866 17.6217 4.721C17.7109 4.71414 17.7932 4.71415 17.8825 4.71415C17.8619 4.76218 17.8275 4.80335 17.7864 4.83766C17.7178 4.89255 17.6354 4.92 17.5531 4.94058C17.608 5.04351 17.6766 5.13959 17.7727 5.20821C17.8001 5.22193 17.8276 5.22878 17.855 5.23564C17.9099 5.2425 17.9648 5.23564 18.0128 5.25622C18.0334 5.26308 18.0609 5.28368 18.0815 5.26996C18.1295 5.24251 18.1912 5.2425 18.2461 5.23564C18.2736 5.23564 18.3079 5.24251 18.3353 5.24251C18.3628 5.24251 18.3902 5.23564 18.4108 5.22192C18.4245 5.21506 18.4451 5.20134 18.4657 5.20134C18.4932 5.20134 18.5206 5.19448 18.5412 5.20821C18.5686 5.22193 18.603 5.22192 18.6373 5.22192C18.6647 5.22192 18.6922 5.20821 18.7196 5.20821C18.7539 5.20821 18.7951 5.20821 18.8294 5.20821C18.8706 5.21507 18.9117 5.22192 18.9529 5.22192C18.9803 5.21506 19.0078 5.21505 19.0284 5.19447C19.0627 5.16702 19.097 5.14644 19.1313 5.11213C19.145 5.10527 19.1588 5.09154 19.1725 5.09154C19.1931 5.09841 19.1999 5.12587 19.2068 5.14645C19.2136 5.18762 19.2068 5.22192 19.2137 5.26309C19.2137 5.29054 19.2137 5.32485 19.2137 5.3523C19.1999 5.38661 19.1725 5.4072 19.1587 5.44151C19.145 5.46895 19.1725 5.48267 19.1862 5.50326C19.1793 5.53071 19.1862 5.56502 19.1794 5.59247C19.1382 5.65422 19.0833 5.70911 19.0627 5.77773C19.0558 5.83262 19.049 5.88751 19.049 5.94241C19.049 5.96299 19.0627 5.97673 19.0696 5.99731C19.0627 6.01104 19.049 6.01789 19.0352 6.03161C19.0284 6.06592 19.0284 6.10025 19.0284 6.13456C19.0284 6.14828 19.0284 6.16885 19.0421 6.18258C19.049 6.18944 19.0627 6.1963 19.0764 6.20316C19.0764 6.24433 19.0696 6.29237 19.0696 6.33354C19.0009 6.38843 18.9323 6.43647 18.8843 6.50508C18.8706 6.51881 18.8568 6.5394 18.8568 6.55312C18.8568 6.59429 18.85 6.63547 18.85 6.66978C18.8157 6.69723 18.7745 6.72467 18.7402 6.75212C18.6853 6.73154 18.6235 6.71095 18.5686 6.69037C18.5755 6.67664 18.5824 6.66292 18.5892 6.6492C18.6235 6.60116 18.651 6.54627 18.6853 6.49824C18.699 6.47765 18.7059 6.4502 18.7059 6.42961C18.7127 6.36786 18.7127 6.30609 18.7127 6.24433C18.7127 6.23061 18.7059 6.21688 18.6921 6.20316C18.6647 6.16199 18.6167 6.13455 18.5686 6.12769C18.5137 6.18945 18.452 6.2512 18.3902 6.31295C18.3765 6.32668 18.3559 6.3404 18.3422 6.35412C18.3285 6.38843 18.3353 6.42275 18.3079 6.4502C18.2873 6.47078 18.253 6.47764 18.2255 6.49137C18.2187 6.51881 18.205 6.5394 18.1981 6.55999C18.1432 6.54627 18.0883 6.53254 18.0334 6.51882C18.054 6.49823 18.0815 6.47764 18.0815 6.44333C18.0883 6.42274 18.0814 6.40216 18.0952 6.38158C18.1501 6.29923 18.1981 6.21689 18.253 6.12769C18.2118 6.13455 18.1706 6.14141 18.1295 6.14141C18.1157 6.14141 18.0952 6.14142 18.0815 6.13456C18.0677 6.12084 18.0677 6.1071 18.054 6.10024C18.0197 6.12082 17.9854 6.15513 17.9373 6.14141C17.9168 6.13454 17.9099 6.12082 17.903 6.10024C17.8825 6.12082 17.855 6.14828 17.8276 6.15514C17.8001 6.16201 17.7727 6.15514 17.7452 6.15514C17.7452 6.22376 17.6972 6.27866 17.656 6.32669C17.6217 6.36786 17.5805 6.41588 17.5737 6.46391C17.5668 6.53939 17.5599 6.61489 17.5599 6.69037C17.5394 6.71095 17.5119 6.7178 17.4913 6.73838C17.4845 6.74525 17.4708 6.75898 17.4639 6.77271C17.4021 6.75898 17.3472 6.73839 17.2855 6.72467C17.2923 6.67663 17.3061 6.6286 17.3335 6.59429C17.3472 6.57371 17.3678 6.55998 17.3747 6.53254C17.3815 6.51881 17.3815 6.49822 17.3815 6.4845C17.3815 6.42274 17.3815 6.35412 17.3815 6.29237C17.3815 6.22375 17.4296 6.16199 17.4502 6.10024C17.4227 6.08651 17.3884 6.05907 17.3541 6.05907C17.3129 6.05907 17.2717 6.07965 17.2306 6.10024C17.1894 6.18944 17.1277 6.27178 17.0728 6.35412C17.0728 6.38843 17.0796 6.42274 17.0659 6.45705C17.059 6.47763 17.0384 6.49822 17.0247 6.52567C16.9561 6.51194 16.8943 6.49137 16.8257 6.47765C16.8326 6.43648 16.8532 6.3953 16.8738 6.36099C16.8943 6.32668 16.9287 6.29922 16.9424 6.26491C16.963 6.23061 16.9767 6.19631 16.9973 6.16886C17.011 6.14827 17.0247 6.14141 17.0384 6.12769C17.0453 6.08652 17.0385 6.03848 17.0522 5.99044C17.0522 5.97672 17.0659 5.95614 17.0659 5.93556C17.059 5.89439 17.0522 5.85322 17.0522 5.81205C17.0522 5.7846 17.059 5.75715 17.0728 5.73656C17.0522 5.74342 17.0316 5.75029 17.011 5.74343C16.9973 5.7297 16.9904 5.70911 16.9973 5.68852C17.011 5.66107 17.0316 5.64051 17.0522 5.61992C17.0385 5.61992 17.0179 5.61991 17.0041 5.61305C16.9904 5.60619 16.9836 5.59245 16.9836 5.57873C16.9904 5.55128 17.0041 5.52385 17.0247 5.50326C17.0865 5.4415 17.1482 5.38662 17.2031 5.318C17.1688 5.318 17.1345 5.32485 17.1071 5.30426C17.1071 5.27681 17.1277 5.25623 17.1345 5.24251C17.1139 5.23564 17.0796 5.2425 17.0728 5.21505C17.0728 5.18761 17.0865 5.16016 17.0933 5.13271C17.0247 5.13271 16.9492 5.15331 16.8806 5.14645C16.86 5.14645 16.8463 5.13271 16.8395 5.11213C16.8326 5.08468 16.8326 5.05038 16.8463 5.02979C16.8669 4.98862 16.8943 4.94745 16.9149 4.90628C16.9424 4.84453 16.9698 4.78277 16.9836 4.71415C16.9424 4.67984 16.8944 4.63866 16.86 4.59749C16.8326 4.58377 16.8189 4.54947 16.8257 4.52202Z" fill="#F9F704"/>
<path d="M17.8893 4.46716C17.9236 4.4946 17.9442 4.52891 17.9579 4.57008C17.9647 4.61125 17.9442 4.64557 17.9167 4.66615C17.9236 4.63871 17.9236 4.61126 17.9236 4.58382C17.9167 4.54264 17.903 4.50833 17.8893 4.46716Z" fill="#8E3836"/>
<path d="M17.5462 4.48088C17.5874 4.48774 17.6217 4.51517 17.6423 4.54948C17.656 4.57693 17.656 4.60439 17.656 4.63184C17.6423 4.6387 17.6354 4.64555 17.6217 4.65927C17.6217 4.6181 17.6011 4.58381 17.5874 4.54263C17.5805 4.52205 17.5668 4.50147 17.5462 4.48088Z" fill="#8E3836"/>
<path d="M18.2187 4.57007C18.2255 4.57007 18.2324 4.57694 18.2324 4.58381C18.2461 4.61125 18.253 4.64555 18.253 4.67986C18.253 4.69358 18.2393 4.70731 18.2255 4.72103C18.205 4.73475 18.1912 4.74163 18.1707 4.75535C18.1707 4.74849 18.1775 4.74163 18.1844 4.73477C18.2324 4.68673 18.2255 4.6181 18.2187 4.57007Z" fill="#8E3836"/>
<path d="M18.4588 4.67297C18.4725 4.67984 18.4931 4.67983 18.5068 4.68669C18.5274 4.70728 18.548 4.74158 18.5411 4.76903C18.5411 4.78961 18.5274 4.8102 18.5206 4.83078C18.5068 4.83078 18.4931 4.8308 18.4725 4.82394C18.4862 4.79649 18.5068 4.76902 18.5 4.74158C18.4931 4.71413 18.4725 4.69356 18.4588 4.67297Z" fill="#8E3836"/>
<path d="M18.7128 4.69359C18.7265 4.69359 18.7402 4.69359 18.7539 4.69359C18.7539 4.7279 18.7539 4.7622 18.7608 4.78964C18.7471 4.79651 18.7334 4.80337 18.7196 4.81023C18.7196 4.76906 18.7128 4.7279 18.7128 4.69359Z" fill="#8E3836"/>
<path d="M17.5599 4.7828C17.6286 4.76908 17.7109 4.76221 17.7864 4.76221C17.7589 4.7828 17.7315 4.80337 17.704 4.83082C17.6834 4.84454 17.6629 4.85141 17.6423 4.86514C17.6286 4.87886 17.608 4.89257 17.5874 4.89257C17.5462 4.88571 17.5119 4.86514 17.4776 4.84455C17.4845 4.79652 17.5256 4.78966 17.5599 4.7828Z" fill="#544B20"/>
<path d="M17.1345 4.81024C17.1826 4.80338 17.2237 4.77594 17.2717 4.77594C17.3129 4.77594 17.3404 4.81024 17.3884 4.81024C17.361 4.82396 17.3404 4.83769 17.3129 4.85141C17.2992 4.85827 17.2855 4.872 17.2717 4.87886C17.2512 4.87886 17.2374 4.85827 17.2169 4.85141C17.1894 4.83769 17.162 4.82396 17.1345 4.81024Z" fill="#544B20"/>
<path d="M19.1656 5.1259C19.1656 5.1259 19.193 5.25627 19.1381 5.29058C19.1175 5.31116 19.0764 5.31802 19.0626 5.30429C19.0489 5.29743 19.0352 5.27684 19.042 5.25626C19.0626 5.17391 19.1656 5.1259 19.1656 5.1259Z" fill="#544B20"/>
<path d="M18.5137 5.41407C18.5275 5.40035 18.548 5.41408 18.5617 5.42094C18.5686 5.48956 18.5755 5.55817 18.5961 5.62679C18.5961 5.64051 18.6029 5.65423 18.6029 5.66796C18.6029 5.68168 18.5755 5.68168 18.5755 5.66796C18.5686 5.61993 18.5686 5.56504 18.548 5.52387C18.5343 5.48956 18.5137 5.45524 18.5137 5.41407Z" fill="#544B20"/>
<path d="M17.2306 5.42091C17.2443 5.40719 17.258 5.4209 17.2718 5.42776C17.2786 5.49638 17.2924 5.56501 17.3061 5.63363C17.3061 5.64735 17.313 5.66108 17.313 5.6748C17.313 5.68852 17.2855 5.68852 17.2855 5.6748C17.2786 5.62677 17.2786 5.57188 17.258 5.53071C17.2512 5.4964 17.2306 5.46209 17.2306 5.42091Z" fill="#544B20"/>
<path d="M17.4364 5.88067C17.4501 5.86695 17.4707 5.88068 17.4776 5.88754C17.4913 5.95616 17.4981 6.02477 17.5119 6.09339C17.5119 6.10711 17.5187 6.12085 17.5187 6.13458C17.5187 6.1483 17.4913 6.1483 17.4913 6.13458C17.4844 6.08655 17.4776 6.03164 17.4639 5.99046C17.457 5.95616 17.4364 5.92184 17.4364 5.88067Z" fill="#544B20"/>
<path d="M18.6509 5.84639C18.6647 5.83266 18.6852 5.84639 18.6921 5.85325C18.7058 5.92187 18.7127 5.99049 18.7264 6.06597C18.7264 6.07969 18.7333 6.09342 18.7333 6.10714C18.7333 6.12086 18.7058 6.12086 18.7058 6.10714C18.699 6.05911 18.6921 6.01108 18.6784 5.96305C18.6715 5.91501 18.6509 5.88069 18.6509 5.84639Z" fill="#544B20"/>
<path d="M17.6766 5.47579C17.6834 5.46893 17.6903 5.47579 17.704 5.47579C17.7246 5.52382 17.7383 5.57187 17.7589 5.6199C17.7658 5.64049 17.7795 5.6542 17.7726 5.67479C17.7589 5.68851 17.7383 5.68166 17.7246 5.68166C17.704 5.62676 17.6972 5.565 17.6766 5.50324C17.6766 5.48952 17.6766 5.48265 17.6766 5.47579Z" fill="#544B20"/>
<path d="M18.2392 5.36604C18.2461 5.35918 18.2598 5.36604 18.2667 5.36604C18.2804 5.41407 18.301 5.46212 18.3216 5.51015C18.3284 5.53074 18.3421 5.54445 18.3353 5.56504C18.3215 5.57876 18.301 5.57191 18.2872 5.57191C18.2666 5.51701 18.2598 5.45525 18.2461 5.39349C18.2392 5.38663 18.2392 5.3729 18.2392 5.36604Z" fill="#544B20"/>
<path d="M17.9579 5.40033C17.9648 5.39347 17.9717 5.40033 17.9854 5.40033C18.006 5.44836 18.0197 5.50325 18.0403 5.54442C18.0472 5.55814 18.0609 5.57872 18.054 5.59931C18.0403 5.61303 18.0197 5.60617 18.006 5.60617C17.9854 5.54442 17.9785 5.48265 17.9648 5.42776C17.958 5.4209 17.9579 5.40719 17.9579 5.40033Z" fill="#544B20"/>
<path d="M18.7471 5.54445C18.7402 5.53072 18.7402 5.52387 18.7471 5.51015C18.7608 5.53759 18.7677 5.55817 18.7814 5.58562C18.802 5.62679 18.8157 5.66797 18.8431 5.70228C18.8775 5.75031 18.9255 5.79148 18.9735 5.82579C18.9804 5.83265 18.9872 5.83951 18.9941 5.84637C18.9529 5.85323 18.9118 5.83952 18.8706 5.85324C18.8569 5.8601 18.8432 5.87381 18.8294 5.88067C18.8226 5.83264 18.8157 5.77774 18.802 5.72971C18.7883 5.66795 18.7677 5.6062 18.7471 5.54445Z" fill="#544B20"/>
<path d="M18.2393 5.60622C18.2599 5.6817 18.253 5.76404 18.2256 5.83952C18.2119 5.87383 18.205 5.90815 18.1844 5.9356C18.1776 5.92874 18.1776 5.91501 18.1776 5.90815C18.1844 5.86698 18.1981 5.82581 18.205 5.78464C18.2187 5.72974 18.2256 5.66798 18.2393 5.60622Z" fill="#544B20"/>
<path d="M17.9236 5.68852H17.9304C17.9442 5.764 17.9373 5.84634 17.9167 5.92182C17.903 5.95613 17.8893 5.99045 17.8687 6.0179C17.8618 6.01104 17.8618 6.00417 17.8618 5.99045C17.8687 5.94927 17.8824 5.90811 17.8893 5.86694C17.903 5.81204 17.9098 5.75028 17.9236 5.68852Z" fill="#544B20"/>
<path d="M16.8051 6.50507C16.8737 6.5188 16.9423 6.53253 17.0178 6.55311C17.0178 6.58056 17.0178 6.60113 17.0178 6.62858C17.0109 6.65603 16.9904 6.68348 16.9698 6.6972C16.9492 6.70407 16.9218 6.71779 16.9012 6.71779C16.8394 6.71779 16.7776 6.72466 16.7227 6.72466C16.7227 6.69035 16.7159 6.65603 16.7159 6.62858C16.7365 6.58055 16.7708 6.54624 16.8051 6.50507Z" fill="#D61516"/>
<path d="M17.9167 6.64235C17.9441 6.60804 17.9784 6.58059 18.0059 6.55314C18.0677 6.56686 18.1363 6.58059 18.198 6.60118C18.198 6.62862 18.198 6.65606 18.1843 6.67665C18.1774 6.69037 18.1706 6.70409 18.1569 6.71782C18.1363 6.73154 18.1088 6.73842 18.0814 6.73155C18.0265 6.72469 17.9716 6.72468 17.9167 6.72468C17.9167 6.69724 17.9167 6.66979 17.9167 6.64235Z" fill="#D61516"/>
<path d="M18.4246 6.80705C18.4589 6.7796 18.4932 6.74529 18.5344 6.71784C18.5961 6.73843 18.6579 6.75901 18.7196 6.7796C18.7196 6.80018 18.7196 6.81392 18.7128 6.8345C18.6991 6.88254 18.651 6.91684 18.603 6.91684C18.5412 6.90998 18.4795 6.90999 18.4177 6.90313C18.4246 6.86882 18.4246 6.8345 18.4246 6.80705Z" fill="#D61516"/>
<path d="M17.1757 6.84134C17.2031 6.81389 17.2306 6.79329 17.258 6.76585C17.3129 6.77271 17.3609 6.77958 17.4158 6.7933C17.4296 6.7933 17.4433 6.80015 17.457 6.80015C17.457 6.84132 17.4433 6.88251 17.4158 6.90309C17.3952 6.91682 17.3747 6.92368 17.3472 6.92368C17.2923 6.92368 17.2306 6.92368 17.1757 6.92368C17.1757 6.89623 17.1757 6.86878 17.1757 6.84134Z" fill="#D61516"/>
<path d="M11.4116 2.59372C11.4939 2.64175 11.5831 2.68978 11.6655 2.73781C12.1938 3.03973 12.7291 3.34166 13.2574 3.64358C13.2643 3.65044 13.278 3.65044 13.2849 3.6573C12.8457 3.6573 12.4066 3.66416 11.9674 3.70534C11.7478 3.72592 11.5351 3.76022 11.3224 3.80139C10.8901 3.89059 10.348 4.09645 10.0598 4.22682C10.0598 4.23368 10.9656 3.13581 11.4116 2.59372Z" fill="#393E90"/>
<path d="M11.9467 3.71218C12.3859 3.67101 12.825 3.66416 13.2642 3.66416C13.271 3.66416 13.2779 3.66416 13.2848 3.66416C13.3122 3.95236 13.3328 4.24741 13.3603 4.53561C13.3054 4.54247 13.2505 4.53561 13.1956 4.53561C13.0927 4.53561 12.9966 4.53562 12.8937 4.54248C12.6672 4.54934 12.4476 4.56306 12.2281 4.58365C11.9879 4.60423 11.7477 4.63853 11.5075 4.6797C11.2537 4.72087 10.9929 4.76892 10.7459 4.8444C10.5881 4.89243 10.4234 4.95418 10.2724 5.00908C10.2244 4.82381 10.1695 4.63169 10.1215 4.43955C10.1215 4.43269 10.1215 4.42582 10.1215 4.4121C10.1077 4.35034 10.0871 4.29544 10.0734 4.23369C10.4714 4.04155 10.8831 3.89746 11.3154 3.80825C11.5144 3.76022 11.7271 3.73276 11.9467 3.71218Z" fill="#D61516"/>
<path d="M12.8937 4.54249C12.9898 4.54249 13.0927 4.54248 13.1957 4.53562C13.2506 4.53562 13.3054 4.53562 13.3603 4.53562C13.3603 4.58365 13.3672 4.62483 13.3741 4.67287C13.3946 4.89931 13.4152 5.1326 13.4358 5.3659C12.8869 5.33159 12.3311 5.33846 11.789 5.42081C11.3429 5.48942 10.9038 5.59921 10.4715 5.74331C10.4646 5.75018 10.4715 5.75704 10.4715 5.7639C10.5264 5.97662 10.5813 6.18246 10.6362 6.39518V6.40205C10.6293 6.38832 10.6293 6.37459 10.6225 6.35401C10.499 5.90113 10.3823 5.4551 10.2588 5.00222C10.4166 4.94733 10.5744 4.88558 10.7322 4.83754C10.9793 4.76206 11.24 4.71404 11.4939 4.67287C11.7341 4.6317 11.9742 4.60424 12.2144 4.57679C12.4477 4.56307 12.6673 4.54935 12.8937 4.54249Z" fill="#393E90"/>
<path d="M11.7889 5.41392C12.331 5.33158 12.8868 5.32472 13.4357 5.35903H13.4426C13.4701 5.65409 13.4975 5.94914 13.5249 6.2442L13.5181 6.25107C13.0995 6.27851 12.6809 6.30596 12.2624 6.36086C11.7409 6.42948 11.2262 6.51869 10.7116 6.64906H10.7047C10.6841 6.56672 10.6636 6.49124 10.643 6.4089L10.6361 6.40203V6.39516C10.5812 6.18244 10.5195 5.9766 10.4714 5.76388C10.4714 5.75702 10.4646 5.75016 10.4714 5.7433C10.8969 5.5992 11.3429 5.48254 11.7889 5.41392Z" fill="#D61516"/>
<path d="M12.2624 6.36088C12.6809 6.30598 13.0995 6.27853 13.5181 6.25108C13.5455 6.54614 13.573 6.83434 13.6004 7.1294V7.14312C13.0378 7.18429 12.4751 7.24606 11.9193 7.33527C11.5899 7.3833 11.2605 7.44505 10.9312 7.49994C10.8351 7.13627 10.7322 6.76572 10.6361 6.40204C10.6361 6.40204 10.6361 6.40891 10.643 6.40891C10.6636 6.49126 10.6841 6.56674 10.7047 6.64908H10.7116C11.2194 6.52557 11.7409 6.42949 12.2624 6.36088Z" fill="#393E90"/>
<path d="M7.93947 3.33482C8.63251 3.63674 9.32556 3.93866 10.0186 4.23372C10.3137 5.32475 10.6019 6.40893 10.8969 7.49996V7.50683C10.6293 7.56173 10.3617 7.62348 10.1009 7.69209C9.83333 7.76071 9.57943 7.8362 9.31868 7.93226C9.02362 8.03519 8.72858 8.14498 8.43352 8.25477C7.93261 7.19805 7.43854 6.1413 6.93762 5.08458C7.26699 4.50132 7.60324 3.91121 7.93947 3.33482Z" fill="#3B75D9"/>
<path d="M10.0184 5.81184C10.039 5.78439 10.0596 5.75694 10.0802 5.72263C10.1214 5.92849 10.1351 6.14806 10.0733 6.35391C10.0253 6.51173 9.92922 6.64897 9.81257 6.75876C9.73709 6.82738 9.65476 6.88914 9.56555 6.93717C9.52438 6.96462 9.47634 6.97834 9.42831 6.99893C9.21559 7.07441 8.97544 7.095 8.75586 7.04696C8.58432 7.01266 8.41276 6.93718 8.27552 6.82053C8.16573 6.73133 8.08339 6.62154 8.01477 6.49803C8.24121 6.5392 8.47452 6.56663 8.70782 6.55291C8.89309 6.53919 9.07151 6.50488 9.24992 6.44999C9.4146 6.38137 9.57241 6.28529 9.70965 6.16178C9.8263 6.07258 9.92924 5.94222 10.0184 5.81184Z" fill="white"/>
<path d="M8.9617 4.32282L8.89995 4.70022L9.24304 4.97471L8.85878 5.13252L8.76957 5.50993L8.47452 5.29035L8.0971 5.46189L8.14514 5.05018L7.7746 4.78942L8.19318 4.61103L8.24122 4.20616L8.59116 4.46007L8.9617 4.32282Z" fill="#FEC502"/>
<path d="M8.94799 4.32969L8.89308 4.70021L8.51569 4.86491L8.94799 4.32969Z" fill="#FAFC12"/>
<path d="M8.24811 4.23362L8.54318 4.46007L8.51573 4.86492L8.24811 4.23362Z" fill="#FAFC12"/>
<path d="M8.12463 5.44131L8.46086 5.27663L8.51576 4.86491L8.12463 5.44131Z" fill="#FAFC12"/>
<path d="M7.82269 4.80318L8.13148 5.01589L8.51575 4.86493L7.82269 4.80318Z" fill="#FAFC12"/>
<path d="M9.21559 4.97471L8.84504 5.1188L8.7627 5.48248L8.51569 4.86491L9.21559 4.97471Z" fill="#FAFC12"/>
<path d="M14.9248 2.39474C15.4875 2.82017 16.0433 3.2456 16.606 3.67103V3.69162C16.5099 4.83754 16.407 5.98349 16.3109 7.13628H16.256C15.9198 7.11569 15.5767 7.10882 15.2405 7.10195C14.7052 7.09509 14.17 7.11569 13.6348 7.13628C13.525 5.98349 13.4221 4.83756 13.3192 3.68477V3.6779C13.8544 3.2456 14.3896 2.82017 14.9248 2.39474Z" fill="#3B75D9"/>
<path d="M14.1494 3.87687C14.1974 3.89745 14.2455 3.92491 14.2935 3.94549C14.2935 3.9798 14.2935 4.02095 14.3004 4.05526C14.3209 4.05526 14.3484 4.05526 14.369 4.05526C14.3621 4.02782 14.3484 4.00037 14.3484 3.97292C14.3484 3.96606 14.3484 3.9592 14.3552 3.95234C14.3896 3.93175 14.4307 3.95235 14.4582 3.92491C14.4719 3.91118 14.4856 3.90431 14.4994 3.89059C14.5337 3.89059 14.5611 3.89059 14.5954 3.89059C14.6023 3.91117 14.6023 3.93175 14.6091 3.95234C14.5817 3.99351 14.5474 4.0347 14.5199 4.07587C14.5131 4.11018 14.5199 4.14448 14.5199 4.17192C14.5474 4.18565 14.5748 4.19936 14.6023 4.20622C14.6091 4.26112 14.6229 4.31603 14.6297 4.37092C14.6709 4.41209 14.7121 4.45326 14.7532 4.49443C14.7601 4.52188 14.7601 4.5562 14.767 4.59051C14.7738 4.61109 14.8013 4.62481 14.8081 4.65226C14.815 4.67971 14.8218 4.70715 14.8287 4.7346C14.8013 4.7346 14.7807 4.73459 14.7532 4.72773C14.7601 4.77576 14.7601 4.83066 14.767 4.87869C14.7395 4.87869 14.7121 4.87869 14.6777 4.87869C14.6709 4.92673 14.6709 4.9679 14.664 5.00907C14.6091 5.00907 14.5611 5.00908 14.5062 5.01594C14.5062 5.03652 14.5062 5.06396 14.4994 5.09141C14.4856 5.11199 14.4719 5.13945 14.4582 5.16003C14.3621 5.17376 14.2592 5.18061 14.1631 5.19433C14.1288 5.19433 14.0945 5.1669 14.0533 5.1669C14.0122 5.1669 13.9778 5.1669 13.9367 5.1669C13.9367 5.15318 13.9367 5.13259 13.9298 5.11886C13.9092 5.09828 13.8887 5.08455 13.8612 5.07082C13.8475 5.0571 13.8338 5.04337 13.8132 5.04337C13.7789 5.03651 13.7377 5.03652 13.7034 5.02965C13.6965 4.99535 13.6897 4.96104 13.6828 4.92673C13.6553 4.91987 13.6347 4.91986 13.6073 4.91299C13.6004 4.88555 13.5936 4.86497 13.5799 4.83752C13.573 4.81694 13.5593 4.79636 13.5455 4.78264C13.5593 4.74833 13.573 4.714 13.5799 4.67969C13.5661 4.66597 13.5455 4.65226 13.525 4.63168C13.5524 4.58364 13.5799 4.52874 13.6142 4.47385C13.6485 4.46698 13.6897 4.46012 13.724 4.45326C13.724 4.39837 13.724 4.34348 13.724 4.28858C13.7514 4.28172 13.7857 4.27486 13.8132 4.268C13.8132 4.24055 13.82 4.21996 13.82 4.19251C13.7857 4.14448 13.7446 4.09645 13.7102 4.04842C13.7034 4.02097 13.7102 3.98666 13.7102 3.95921C13.7377 3.95921 13.772 3.9592 13.7994 3.97292C13.8269 3.98665 13.8543 3.99352 13.8818 4.00725C13.8955 4.01411 13.8955 4.02097 13.9024 4.02783C13.9161 4.04842 13.9367 4.07587 13.9504 4.09645C13.9641 4.08959 13.9847 4.08958 13.9984 4.08272C13.9984 4.04841 14.0053 4.02097 14.0053 3.98666C14.0602 3.93177 14.1082 3.90432 14.1494 3.87687Z" fill="#544B20"/>
<path d="M14.1359 3.9111C14.1427 3.9111 14.1496 3.90425 14.1496 3.89738C14.1564 3.89738 14.1633 3.90425 14.1702 3.90425C14.1702 3.92484 14.177 3.95227 14.177 3.97285C14.2113 3.97285 14.2456 3.97285 14.2731 3.97285C14.2731 3.99344 14.2731 4.01402 14.2731 4.03461C14.2456 4.02775 14.2182 4.02089 14.1907 4.02089C14.1839 4.00717 14.177 3.99345 14.1702 3.97972C14.1564 3.97972 14.1427 3.97972 14.129 3.97972C14.1221 3.99345 14.1221 4.00717 14.1153 4.02089C14.0878 4.02089 14.0535 4.02776 14.0261 4.02776C14.0261 4.01404 14.0261 4.00032 14.0261 3.98659C14.0535 3.97973 14.0878 3.97972 14.1221 3.97285C14.1358 3.95227 14.1359 3.93169 14.1359 3.9111Z" fill="#F8F604"/>
<path d="M14.3966 4.0552C14.4584 4.00717 14.5201 3.95914 14.5819 3.91111C14.5819 3.92483 14.5887 3.93171 14.5887 3.94543C14.5613 3.97974 14.5407 4.01403 14.5133 4.0552C14.5064 4.06206 14.4995 4.06893 14.4995 4.08266C14.4995 4.1101 14.4995 4.14442 14.5064 4.17873C14.4995 4.18559 14.4927 4.19244 14.4858 4.20616C14.4515 4.20616 14.4172 4.21303 14.3897 4.20616C14.2457 4.17872 14.1016 4.19245 13.9643 4.24049C13.9437 4.24735 13.9231 4.26106 13.8957 4.2542C13.882 4.2542 13.8614 4.25422 13.8408 4.24735C13.8477 4.21991 13.8477 4.19245 13.8477 4.17186C13.8065 4.12383 13.7722 4.0758 13.731 4.0209C13.731 4.00032 13.731 3.9866 13.731 3.96602C13.7722 4.00719 13.8134 4.04836 13.8545 4.09639C13.882 4.09639 13.9163 4.09639 13.9437 4.09639C13.9437 4.09639 13.9506 4.10325 13.9506 4.11011C13.9849 4.10325 14.0123 4.08952 14.0467 4.08952C14.1153 4.08952 14.1908 4.08266 14.2594 4.08266C14.3005 4.08266 14.3486 4.08952 14.3897 4.08266C14.3966 4.06893 14.3966 4.06206 14.3966 4.0552Z" fill="#F8F604"/>
<path d="M13.9576 4.26107C14.0673 4.2199 14.1909 4.19931 14.3075 4.21303C14.3418 4.2199 14.3693 4.21989 14.3967 4.22675C14.4173 4.26106 14.4379 4.28852 14.4653 4.32283C14.4859 4.35027 14.4722 4.38459 14.4791 4.41203C14.4585 4.4189 14.4379 4.41889 14.4173 4.42575C14.3899 4.42575 14.3693 4.42575 14.3418 4.42575C14.2938 4.41889 14.2526 4.42576 14.2046 4.4189C14.2046 4.39146 14.2046 4.36399 14.2046 4.33654C14.232 4.31596 14.2595 4.30224 14.2869 4.28166C14.232 4.28166 14.184 4.28166 14.1291 4.28166C14.1154 4.28166 14.1017 4.28853 14.0879 4.28853C14.1085 4.30911 14.136 4.31596 14.1565 4.32283C14.1565 4.35714 14.1565 4.39144 14.1565 4.42575C14.0811 4.42575 13.9987 4.42575 13.9232 4.42575C13.9095 4.40516 13.8958 4.39145 13.8889 4.37086C13.8821 4.35714 13.8821 4.33655 13.8821 4.32283C13.9095 4.29538 13.9301 4.26793 13.9576 4.26107Z" fill="#F8F604"/>
<path d="M14.4173 4.48752C14.4379 4.46007 14.4722 4.44635 14.4996 4.42577C14.5065 4.43263 14.5134 4.43264 14.5202 4.4395C14.5202 4.50812 14.5134 4.56986 14.5134 4.63848C14.4859 4.63848 14.4516 4.63849 14.4242 4.65222C14.4173 4.69339 14.4173 4.73455 14.4173 4.76886C14.3967 4.78944 14.3761 4.81003 14.3555 4.83748C14.3144 4.83062 14.2663 4.82376 14.2252 4.8169C14.2252 4.79631 14.2252 4.7826 14.2252 4.76201C14.2458 4.74829 14.2801 4.74827 14.2938 4.72082C14.3006 4.7071 14.3075 4.69337 14.3075 4.67965C14.2869 4.69337 14.2595 4.7071 14.232 4.7071C14.2046 4.7071 14.1771 4.71397 14.1497 4.7071C14.1222 4.70024 14.0948 4.70025 14.0673 4.69339C14.0811 4.70711 14.1017 4.72768 14.1154 4.74141C14.136 4.74827 14.1565 4.74828 14.1771 4.75514C14.1771 4.77573 14.1771 4.79631 14.1771 4.8169C14.1565 4.83062 14.1291 4.84434 14.1085 4.85807C14.1016 4.8512 14.0879 4.8512 14.0811 4.8512C14.0742 4.82375 14.0673 4.78946 14.0605 4.76201C14.0399 4.74829 14.0193 4.73455 13.9987 4.72769C13.9987 4.7071 13.9987 4.69339 13.9919 4.6728C13.9713 4.66594 13.9507 4.65221 13.9232 4.64535C13.9232 4.63163 13.9164 4.61104 13.9164 4.59731C13.9027 4.59045 13.8958 4.58359 13.8821 4.57673C13.8821 4.53556 13.8821 4.50126 13.8821 4.46009C13.8958 4.46009 13.9027 4.45322 13.9164 4.45322C13.9301 4.4738 13.937 4.49439 13.9507 4.51497C13.985 4.54928 14.0124 4.58359 14.0468 4.6179C14.0605 4.6179 14.0811 4.62477 14.0948 4.62477C14.1017 4.6179 14.1016 4.61104 14.1085 4.60418C14.1222 4.56301 14.1428 4.5287 14.1565 4.49439C14.184 4.49439 14.2114 4.49438 14.2389 4.48752C14.2663 4.52869 14.3006 4.56301 14.3281 4.60418C14.3418 4.60418 14.3555 4.59731 14.3693 4.59731C14.3761 4.55614 14.3967 4.52183 14.4173 4.48752Z" fill="#F8F604"/>
<path d="M14.6231 4.57673C14.6643 4.57673 14.7054 4.56988 14.7466 4.56302C14.7466 4.60419 14.7809 4.61792 14.7946 4.65223C14.8015 4.66595 14.8015 4.68652 14.8083 4.70024C14.7946 4.70024 14.7741 4.70026 14.7603 4.6934C14.7466 4.67281 14.7329 4.65223 14.7192 4.63164C14.7123 4.6385 14.7054 4.6385 14.6986 4.64536C14.7123 4.66594 14.726 4.68653 14.7397 4.70711C14.7466 4.75514 14.7466 4.79632 14.7535 4.83749C14.7329 4.83749 14.7123 4.83749 14.6917 4.83749C14.6848 4.81004 14.678 4.78259 14.6643 4.74828C14.6574 4.75514 14.6505 4.75515 14.6437 4.75515C14.6505 4.7826 14.6643 4.81004 14.6643 4.83749C14.6643 4.87866 14.6574 4.91983 14.6505 4.96787C14.6299 4.96787 14.6094 4.96787 14.5888 4.96787C14.5751 4.93356 14.5545 4.9061 14.5339 4.87179C14.5339 4.86493 14.5339 4.85122 14.5339 4.84436C14.5339 4.79632 14.5339 4.74143 14.5339 4.6934C14.5339 4.68653 14.5339 4.67967 14.5407 4.67281C14.5682 4.65223 14.6025 4.61791 14.6231 4.57673Z" fill="#F8F604"/>
<path d="M13.6351 4.6522C13.6694 4.6522 13.6968 4.6522 13.7311 4.6522C13.738 4.68651 13.7449 4.72768 13.7517 4.76199C13.7174 4.80316 13.6762 4.83746 13.6351 4.87863C13.6419 4.87863 13.6419 4.8855 13.6488 4.8855C13.6419 4.8855 13.6351 4.88549 13.6351 4.87863C13.6351 4.86491 13.6282 4.85118 13.6213 4.83746C13.6351 4.79629 13.6556 4.75512 13.6694 4.71395C13.6625 4.70023 13.6488 4.67965 13.6351 4.6522Z" fill="#F8F604"/>
<path d="M13.7173 4.9061C13.7311 4.85807 13.7517 4.8169 13.7723 4.77573C13.7791 4.78259 13.786 4.78945 13.7997 4.79631C13.7997 4.86493 13.8066 4.94041 13.8066 5.00903C13.7791 5.00216 13.7585 5.00217 13.7379 4.99531C13.7242 4.96786 13.7173 4.93355 13.7173 4.9061Z" fill="#F8F604"/>
<path d="M14.1222 4.89237C14.1496 4.87865 14.1702 4.86494 14.1977 4.84435C14.2457 4.85808 14.2937 4.86493 14.3418 4.87865C14.3349 4.89924 14.3349 4.92668 14.3143 4.94041C14.3006 4.95413 14.2869 4.97473 14.2732 4.99531C14.2457 4.99531 14.2114 4.99531 14.1839 4.99531C14.1634 4.98159 14.1496 4.96099 14.1291 4.94041C14.1291 4.92668 14.1222 4.91296 14.1222 4.89237Z" fill="#F8F604"/>
<path d="M14.376 4.97472C14.4103 4.95414 14.4446 4.93354 14.4858 4.91982C14.4995 4.94726 14.5133 4.96786 14.527 4.99531C14.5133 4.99531 14.5064 4.99531 14.4927 4.99531C14.4927 5.02275 14.4927 5.05705 14.4858 5.08449C14.4789 5.09822 14.4652 5.11881 14.4584 5.13253C14.4447 5.11881 14.4241 5.10508 14.4103 5.09136C14.4035 5.0845 14.3966 5.07764 14.3966 5.07078C14.3898 5.02961 14.3829 5.00217 14.376 4.97472Z" fill="#F8F604"/>
<path d="M13.8752 4.94724C13.9027 4.94724 13.9301 4.94724 13.9576 4.94038C13.9644 4.99527 13.9713 5.0433 13.9713 5.09134C13.9644 5.0982 13.9644 5.09821 13.9576 5.10507C13.9576 5.09821 13.9576 5.09134 13.9576 5.09134C13.9233 5.07075 13.8958 5.05016 13.8615 5.02272C13.8684 5.00213 13.8752 4.97469 13.8752 4.94724Z" fill="#F8F604"/>
<path d="M14.2457 5.0845C14.2594 5.07764 14.28 5.07079 14.2937 5.07079C14.3074 5.09823 14.328 5.12569 14.3486 5.14628C14.3074 5.15314 14.2663 5.15999 14.2251 5.15999C14.232 5.13941 14.2388 5.11195 14.2457 5.0845Z" fill="#F8F604"/>
<path d="M14.129 5.11192C14.1496 5.11192 14.1633 5.10507 14.1839 5.10507C14.1908 5.12566 14.2045 5.13937 14.2183 5.15996C14.2045 5.15996 14.1839 5.16683 14.1702 5.16683C14.1496 5.15996 14.129 5.1531 14.1085 5.14624C14.1085 5.13252 14.1153 5.12564 14.129 5.11192Z" fill="#F8F604"/>
<path d="M14.081 4.50126C14.081 4.52185 14.0604 4.53556 14.0398 4.53556C14.0192 4.53556 13.9987 4.52185 13.9987 4.50126C13.9987 4.48068 14.0192 4.46694 14.0398 4.46694C14.0673 4.4738 14.081 4.48754 14.081 4.50126Z" fill="#F8F604"/>
<path d="M14.3761 4.50126C14.3761 4.52185 14.3555 4.53556 14.3281 4.53556C14.3075 4.53556 14.28 4.52185 14.28 4.50126C14.28 4.48068 14.3006 4.46694 14.3281 4.46694C14.3555 4.4738 14.3761 4.48754 14.3761 4.50126Z" fill="#F8F604"/>
<path d="M15.6661 3.87682C15.7141 3.89741 15.7622 3.92486 15.8102 3.94545C15.8102 3.97976 15.8102 4.02091 15.8171 4.05522C15.8377 4.05522 15.8651 4.05522 15.8857 4.05522C15.8788 4.02777 15.8651 4.00033 15.872 3.97288C15.872 3.96602 15.872 3.95916 15.872 3.95229C15.9063 3.93171 15.9475 3.95231 15.9749 3.92486C15.9886 3.91114 16.0024 3.90426 16.0229 3.89054C16.0573 3.89054 16.0847 3.89054 16.119 3.89054C16.119 3.91113 16.1259 3.93171 16.1259 3.95229C16.0984 3.99346 16.0641 4.03465 16.0367 4.07582C16.0298 4.11013 16.0367 4.14443 16.0367 4.17188C16.0641 4.1856 16.0916 4.19932 16.119 4.20618C16.1259 4.26107 16.1396 4.31598 16.1465 4.37088C16.1876 4.41205 16.2288 4.45321 16.27 4.49439C16.2768 4.52183 16.2768 4.55615 16.2768 4.59046C16.2906 4.61105 16.3111 4.62477 16.3249 4.65222C16.3317 4.67966 16.3386 4.70711 16.3455 4.73455C16.318 4.73455 16.2974 4.73455 16.27 4.72769C16.27 4.77572 16.2768 4.83061 16.2837 4.87865C16.2562 4.87865 16.2288 4.87865 16.1945 4.87865C16.1876 4.92668 16.1876 4.96785 16.1808 5.00902C16.1259 5.00902 16.0778 5.00903 16.0229 5.01589C16.0229 5.03648 16.0229 5.06392 16.0161 5.09136C16.0024 5.11195 15.9886 5.1394 15.9749 5.15999C15.8788 5.17371 15.7759 5.18056 15.6799 5.19429C15.6455 5.19429 15.6112 5.16685 15.5701 5.16685C15.5289 5.16685 15.4946 5.16685 15.4534 5.16685C15.4534 5.15313 15.4534 5.13254 15.4466 5.11882C15.426 5.09823 15.4054 5.0845 15.3848 5.07078C15.3642 5.05705 15.3505 5.04332 15.3299 5.04332C15.2956 5.03646 15.2544 5.03647 15.2201 5.02961C15.2132 4.9953 15.2064 4.96099 15.1995 4.92669C15.1721 4.91982 15.1515 4.91981 15.124 4.91295C15.1172 4.8855 15.1103 4.86493 15.1035 4.83748C15.0966 4.81689 15.0829 4.79632 15.0691 4.78259C15.0829 4.74828 15.0966 4.71396 15.1035 4.67965C15.0897 4.66592 15.0691 4.65222 15.0554 4.63163C15.0829 4.5836 15.1103 4.5287 15.1378 4.4738C15.1721 4.46694 15.2064 4.46008 15.2476 4.45322C15.2476 4.39832 15.2475 4.34343 15.2407 4.28854C15.2681 4.28168 15.3024 4.27482 15.3368 4.26795C15.3368 4.24051 15.3436 4.21991 15.3436 4.19246C15.3093 4.14443 15.2681 4.0964 15.2338 4.04837C15.2338 4.02092 15.2338 3.98661 15.2338 3.95916C15.2613 3.95916 15.2956 3.95915 15.323 3.97288C15.3505 3.9866 15.3779 3.99348 15.4122 4.0072C15.4191 4.01406 15.426 4.02092 15.4328 4.02778C15.4465 4.04837 15.4671 4.07582 15.4809 4.09641C15.4946 4.08955 15.5083 4.08953 15.5289 4.08267C15.5289 4.04836 15.5357 4.02092 15.5357 3.98662C15.5769 3.93172 15.6249 3.90427 15.6661 3.87682Z" fill="#544B20"/>
<path d="M15.6525 3.91106C15.6594 3.91106 15.6663 3.9042 15.6663 3.89734C15.6731 3.89734 15.68 3.90421 15.68 3.90421C15.68 3.92479 15.6869 3.95222 15.6869 3.97281C15.7212 3.97281 15.7486 3.97281 15.7829 3.97281C15.7829 3.99339 15.7829 4.01398 15.7829 4.03456C15.7555 4.0277 15.728 4.02085 15.7006 4.02085C15.6937 4.00712 15.6869 3.9934 15.68 3.97968C15.6663 3.97968 15.6526 3.97968 15.6388 3.97968C15.632 3.9934 15.632 4.00712 15.6251 4.02085C15.5976 4.02085 15.5633 4.02772 15.5359 4.02772C15.5359 4.01399 15.5359 4.00027 15.5359 3.98655C15.5633 3.97968 15.5977 3.97967 15.632 3.97281C15.6457 3.95222 15.6457 3.93164 15.6525 3.91106Z" fill="#F8F604"/>
<path d="M15.9134 4.05516C15.9751 4.00712 16.0437 3.9591 16.1055 3.91106C16.1055 3.92479 16.1124 3.93166 16.1124 3.94539C16.0849 3.9797 16.0575 4.01399 16.0369 4.05516C16.03 4.06202 16.0232 4.06889 16.0232 4.08261C16.0232 4.11006 16.0231 4.14438 16.03 4.17869C16.0231 4.18555 16.0163 4.19239 16.0094 4.20612C15.9751 4.20612 15.9408 4.21298 15.9134 4.20612C15.7693 4.17867 15.6252 4.19241 15.4879 4.24044C15.4674 4.2473 15.4468 4.26102 15.4193 4.25416C15.4056 4.25416 15.385 4.25417 15.3644 4.24731C15.3644 4.21986 15.3713 4.1924 15.3713 4.17182C15.3301 4.12378 15.2958 4.07575 15.2546 4.02086C15.2546 4.00027 15.2546 3.98656 15.2546 3.96597C15.2958 4.00714 15.337 4.04831 15.3713 4.09635C15.3987 4.09635 15.433 4.09635 15.4605 4.09635C15.4605 4.09635 15.4674 4.1032 15.4674 4.11006C15.5017 4.1032 15.5291 4.08948 15.5634 4.08948C15.632 4.08948 15.7075 4.08261 15.7761 4.08261C15.8173 4.08261 15.8653 4.08947 15.9065 4.08261C15.9134 4.06889 15.9134 4.06202 15.9134 4.05516Z" fill="#F8F604"/>
<path d="M15.4741 4.26103C15.5839 4.21986 15.7074 4.19927 15.8241 4.21299C15.8584 4.21985 15.8859 4.21984 15.9202 4.22671C15.9407 4.26101 15.9613 4.28847 15.9819 4.32278C16.0025 4.35023 15.9888 4.38454 15.9956 4.41199C15.975 4.41885 15.9545 4.41884 15.9339 4.4257C15.9064 4.4257 15.8858 4.4257 15.8584 4.4257C15.8104 4.41884 15.7692 4.42572 15.7212 4.41886C15.7212 4.39141 15.7212 4.36394 15.7212 4.3365C15.7486 4.31591 15.776 4.3022 15.7966 4.28161C15.7417 4.28161 15.6937 4.28161 15.6388 4.28161C15.6251 4.28161 15.6114 4.28848 15.5977 4.28848C15.6114 4.30907 15.6457 4.31592 15.6663 4.32278C15.6663 4.35709 15.6663 4.3914 15.6663 4.4257C15.5908 4.4257 15.5084 4.4257 15.433 4.4257C15.4192 4.40512 15.4055 4.3914 15.3987 4.37082C15.3918 4.3571 15.3918 4.3365 15.3918 4.32278C15.4261 4.29533 15.4398 4.26789 15.4741 4.26103Z" fill="#F8F604"/>
<path d="M15.9339 4.48747C15.9614 4.46003 15.9888 4.44631 16.0163 4.42572C16.0231 4.43258 16.03 4.4326 16.0368 4.43946C16.0368 4.50808 16.03 4.56982 16.03 4.63844C16.0025 4.63844 15.9682 4.63845 15.9408 4.65217C15.9339 4.69334 15.9339 4.7345 15.9339 4.76881C15.9133 4.7894 15.8928 4.80999 15.8722 4.83744C15.8241 4.83057 15.783 4.82371 15.7349 4.81685C15.7349 4.79627 15.7349 4.78255 15.7349 4.76196C15.7555 4.74824 15.7898 4.74822 15.8035 4.72077C15.8104 4.70705 15.8173 4.69333 15.8173 4.67961C15.7967 4.69333 15.7692 4.70706 15.7418 4.70706C15.7143 4.70706 15.6869 4.71392 15.6595 4.70706C15.632 4.7002 15.6046 4.7002 15.5771 4.69334C15.5908 4.70707 15.6045 4.72764 15.6251 4.74136C15.6457 4.74822 15.6663 4.74823 15.6869 4.7551C15.6869 4.77568 15.6869 4.79627 15.6869 4.81685C15.6663 4.83057 15.6389 4.8443 15.6183 4.85802C15.6114 4.85116 15.5977 4.85115 15.5908 4.85115C15.584 4.8237 15.5771 4.78941 15.5702 4.76196C15.5497 4.74824 15.5222 4.73451 15.5016 4.72764C15.5016 4.70706 15.4948 4.69334 15.4948 4.67276C15.4742 4.6659 15.4536 4.65217 15.4262 4.6453C15.4262 4.63158 15.4193 4.61099 15.4124 4.59727C15.4056 4.5904 15.3918 4.58354 15.3781 4.57668C15.3781 4.53551 15.3781 4.50121 15.3781 4.46004C15.3918 4.46004 15.4056 4.45317 15.4193 4.45317C15.433 4.47376 15.4399 4.49434 15.4536 4.51493C15.4879 4.54924 15.5153 4.58354 15.5497 4.61785C15.5634 4.61785 15.584 4.62472 15.5977 4.62472C15.6046 4.61786 15.6046 4.611 15.6114 4.60413C15.6251 4.56296 15.6389 4.52865 15.6526 4.49434C15.68 4.49434 15.7075 4.49434 15.7349 4.48747C15.7624 4.52865 15.7898 4.56296 15.8241 4.60413C15.8379 4.60413 15.8516 4.59727 15.8653 4.59727C15.8927 4.5561 15.9133 4.52178 15.9339 4.48747Z" fill="#F8F604"/>
<path d="M16.1397 4.57669C16.1809 4.57669 16.2221 4.56983 16.2633 4.56297C16.2633 4.60414 16.2976 4.61787 16.3113 4.65218C16.3181 4.6659 16.325 4.68647 16.325 4.7002C16.3044 4.7002 16.2907 4.70021 16.2701 4.69335C16.2564 4.67276 16.2427 4.65218 16.2289 4.6316C16.2221 4.63846 16.2152 4.63845 16.2084 4.64531C16.2221 4.6659 16.2358 4.68648 16.2495 4.70707C16.2564 4.7551 16.2564 4.79627 16.2564 4.83744C16.2358 4.83744 16.2152 4.83744 16.1946 4.83744C16.1878 4.81 16.1809 4.78254 16.174 4.74824C16.1672 4.7551 16.1603 4.7551 16.1535 4.7551C16.1603 4.78255 16.174 4.81 16.174 4.83744C16.174 4.87861 16.1672 4.91979 16.1603 4.96782C16.1397 4.96782 16.1191 4.96782 16.0986 4.96782C16.0848 4.93351 16.0574 4.90605 16.0437 4.87174C16.0368 4.86488 16.0437 4.85117 16.0368 4.84431C16.0368 4.79628 16.0368 4.74138 16.0368 4.69335C16.0368 4.68649 16.0437 4.67963 16.0437 4.67277C16.0848 4.65218 16.1123 4.61786 16.1397 4.57669Z" fill="#F8F604"/>
<path d="M15.1517 4.65215C15.186 4.65215 15.2134 4.65215 15.2477 4.65215C15.2546 4.68646 15.2615 4.72764 15.2683 4.76195C15.2271 4.80312 15.1928 4.83741 15.1517 4.87858C15.1585 4.87858 15.1654 4.88545 15.1654 4.88545C15.1585 4.88545 15.1517 4.88545 15.1517 4.87858C15.1517 4.86486 15.1448 4.85114 15.1379 4.83742C15.1517 4.79624 15.1723 4.75508 15.186 4.71391C15.1723 4.70018 15.1585 4.6796 15.1517 4.65215Z" fill="#F8F604"/>
<path d="M15.2272 4.90606C15.2409 4.85802 15.2615 4.81685 15.2821 4.77568C15.2958 4.78254 15.3026 4.7894 15.3095 4.79627C15.3095 4.86488 15.3164 4.94036 15.3164 5.00898C15.2958 5.00212 15.2683 5.00213 15.2409 4.99526C15.2409 4.96782 15.2272 4.9335 15.2272 4.90606Z" fill="#F8F604"/>
<path d="M15.6388 4.89232C15.6662 4.8786 15.6868 4.86489 15.7143 4.84431C15.7623 4.85803 15.8103 4.86488 15.8584 4.87861C15.8515 4.89919 15.8515 4.92664 15.8309 4.94036C15.8172 4.95409 15.8035 4.97468 15.7898 4.99527C15.7623 4.99527 15.728 4.99527 15.7005 4.99527C15.68 4.98154 15.6662 4.96095 15.6456 4.94036C15.6456 4.92664 15.6388 4.91291 15.6388 4.89232Z" fill="#F8F604"/>
<path d="M15.8928 4.97468C15.9271 4.95409 15.9682 4.93349 15.9957 4.91977C16.0094 4.94722 16.03 4.96781 16.0437 4.99526C16.03 4.99526 16.0231 4.99526 16.0094 4.99526C16.0094 5.02271 16.0094 5.057 16.0026 5.08445C15.9957 5.09817 15.982 5.11876 15.9751 5.13248C15.9614 5.11876 15.9408 5.10504 15.9271 5.09132C15.9202 5.08445 15.9133 5.07759 15.9133 5.07073C15.9065 5.02956 15.8996 5.00212 15.8928 4.97468Z" fill="#F8F604"/>
<path d="M15.3919 4.9472C15.4193 4.9472 15.4468 4.94719 15.4742 4.94033C15.4811 4.99523 15.4879 5.04326 15.4948 5.09129C15.4879 5.09815 15.4811 5.09817 15.4811 5.10503C15.4811 5.09817 15.4811 5.09129 15.4811 5.09129C15.4468 5.07071 15.4193 5.05012 15.385 5.02267C15.385 5.00208 15.385 4.97465 15.3919 4.9472Z" fill="#F8F604"/>
<path d="M15.7624 5.08446C15.7761 5.07759 15.7967 5.07074 15.8104 5.07074C15.8241 5.09819 15.8447 5.12565 15.8584 5.14623C15.8173 5.15309 15.7761 5.15995 15.7349 5.15995C15.7486 5.13936 15.7555 5.1119 15.7624 5.08446Z" fill="#F8F604"/>
<path d="M15.6389 5.11187C15.6595 5.11187 15.6732 5.10503 15.6938 5.10503C15.7075 5.12561 15.7143 5.13933 15.7281 5.15991C15.7075 5.15991 15.6938 5.16678 15.68 5.16678C15.6595 5.15992 15.6389 5.15306 15.6183 5.1462C15.6251 5.13247 15.632 5.1256 15.6389 5.11187Z" fill="#F8F604"/>
<path d="M15.5977 4.50122C15.5977 4.5218 15.5771 4.53552 15.5565 4.53552C15.5291 4.53552 15.5085 4.5218 15.5085 4.50122C15.5085 4.48063 15.5291 4.4669 15.5565 4.4669C15.5771 4.47376 15.5977 4.48749 15.5977 4.50122Z" fill="#F8F604"/>
<path d="M15.8858 4.50122C15.8858 4.5218 15.8652 4.53552 15.8378 4.53552C15.8104 4.53552 15.7966 4.5218 15.7966 4.50122C15.7966 4.48063 15.8172 4.4669 15.8378 4.4669C15.8652 4.47376 15.8858 4.48749 15.8858 4.50122Z" fill="#F8F604"/>
<path d="M14.9113 5.19426C14.9593 5.21485 15.0074 5.2423 15.0623 5.26288C15.0623 5.29719 15.0623 5.33837 15.0691 5.37267C15.0897 5.37267 15.1172 5.37267 15.1377 5.37267C15.1309 5.34523 15.1172 5.31778 15.1172 5.29034C15.1172 5.28347 15.1172 5.27661 15.124 5.26975C15.1583 5.25603 15.1995 5.26974 15.227 5.2423C15.2407 5.22857 15.2544 5.21486 15.275 5.208C15.3093 5.208 15.3367 5.208 15.371 5.208C15.3779 5.22858 15.3779 5.24917 15.3848 5.26975C15.3573 5.31092 15.323 5.35209 15.2956 5.39326C15.2887 5.42757 15.2956 5.46189 15.2956 5.48934C15.323 5.50306 15.3436 5.51677 15.371 5.52364C15.3779 5.57853 15.3916 5.63342 15.3985 5.68831C15.4397 5.72948 15.4808 5.77067 15.522 5.81184C15.5289 5.83929 15.5289 5.87358 15.5357 5.90103C15.5426 5.92161 15.5701 5.94222 15.5769 5.9628C15.5838 5.99025 15.5906 6.0177 15.5975 6.04514C15.5701 6.04514 15.5495 6.03827 15.522 6.03827C15.5289 6.08631 15.5289 6.1412 15.5289 6.18924C15.5014 6.18924 15.474 6.18924 15.4465 6.18924C15.4397 6.23041 15.4397 6.27844 15.4328 6.31961C15.3779 6.31961 15.323 6.31962 15.275 6.32648C15.275 6.35393 15.275 6.3745 15.2681 6.40195C15.2544 6.4294 15.2407 6.44999 15.227 6.47057C15.1309 6.4843 15.028 6.49115 14.9319 6.50488C14.8907 6.50488 14.8564 6.47744 14.8221 6.47744C14.7809 6.47744 14.7466 6.47744 14.7054 6.47057C14.7054 6.45685 14.6986 6.43626 14.6986 6.42254C14.678 6.40195 14.6574 6.38822 14.6368 6.3745C14.6231 6.36077 14.6025 6.34707 14.5888 6.34707C14.5545 6.3402 14.5133 6.34019 14.479 6.33333C14.4722 6.29902 14.4653 6.26471 14.4584 6.23041C14.431 6.23041 14.4104 6.22355 14.3829 6.21669C14.3761 6.18924 14.3692 6.16178 14.3555 6.1412C14.3486 6.12061 14.3349 6.10003 14.3143 6.07944C14.328 6.04513 14.3418 6.01083 14.3486 5.97652C14.3349 5.9628 14.3143 5.94221 14.3006 5.92848C14.328 5.87359 14.3555 5.82555 14.3829 5.77065C14.4172 5.76379 14.4584 5.75693 14.4927 5.75007C14.4927 5.69517 14.4927 5.64028 14.4927 5.58539C14.5202 5.57853 14.5545 5.57166 14.5819 5.55794C14.5819 5.53735 14.5888 5.50991 14.5888 5.48247C14.5545 5.43443 14.5133 5.38641 14.479 5.33837C14.4722 5.31093 14.479 5.27661 14.479 5.24917C14.5065 5.24917 14.5408 5.24916 14.5682 5.26288C14.5957 5.27661 14.6231 5.28348 14.6574 5.2972C14.6711 5.30407 14.6711 5.31093 14.678 5.31779C14.6917 5.33837 14.7123 5.36581 14.726 5.38639C14.7398 5.37953 14.7603 5.37954 14.7741 5.37267C14.7741 5.33837 14.7809 5.31093 14.7809 5.27662C14.8221 5.25603 14.8633 5.22857 14.9113 5.19426Z" fill="#544B20"/>
<path d="M14.8978 5.22857C14.9046 5.2217 14.9115 5.22169 14.9115 5.21483C14.9184 5.22169 14.9252 5.2217 14.9252 5.2217C14.9321 5.24228 14.9321 5.26287 14.9321 5.29032C14.9664 5.29032 14.9938 5.29031 15.0281 5.28345C15.0281 5.30404 15.0281 5.32462 15.0281 5.34521C15.0007 5.33834 14.9733 5.33835 14.9458 5.33149C14.9389 5.31777 14.9321 5.30405 14.9252 5.29719C14.9115 5.29719 14.8978 5.29719 14.8841 5.29719C14.8841 5.31091 14.8772 5.32463 14.8703 5.33149C14.8429 5.33149 14.8154 5.33836 14.7811 5.33836C14.7811 5.32463 14.7811 5.31091 14.7811 5.29719C14.8154 5.29033 14.8429 5.29031 14.8772 5.28345C14.8909 5.27659 14.8909 5.24915 14.8978 5.22857Z" fill="#F8F604"/>
<path d="M15.1586 5.3727C15.2204 5.32467 15.2821 5.27664 15.3507 5.22861C15.3507 5.24233 15.3507 5.24918 15.3576 5.26291C15.3302 5.29722 15.3096 5.33152 15.2821 5.36583C15.2753 5.37269 15.2684 5.37956 15.2684 5.39328C15.2684 5.42759 15.2753 5.45505 15.2753 5.48936C15.2684 5.49622 15.2615 5.50307 15.2547 5.51679C15.2204 5.51679 15.1861 5.53052 15.1586 5.52366C15.0145 5.49621 14.8704 5.50993 14.7332 5.55796C14.7126 5.56482 14.692 5.57856 14.6646 5.5717C14.6508 5.5717 14.6303 5.56483 14.6097 5.56483C14.6097 5.53738 14.6165 5.50995 14.6165 5.48936C14.5753 5.44133 14.541 5.39329 14.4999 5.3384C14.4999 5.31781 14.4999 5.30408 14.4999 5.28349C14.541 5.32466 14.5822 5.36584 14.6165 5.41387C14.644 5.41387 14.6783 5.41387 14.7057 5.41387C14.7057 5.41387 14.7126 5.42072 14.7126 5.42759C14.7469 5.42072 14.7743 5.407 14.8086 5.407C14.8841 5.407 14.9527 5.40015 15.0214 5.40015C15.0625 5.40015 15.1106 5.40702 15.1517 5.40015C15.1586 5.38643 15.1586 5.37956 15.1586 5.3727Z" fill="#F8F604"/>
<path d="M14.7194 5.57856C14.8292 5.53739 14.9527 5.51682 15.0693 5.53054C15.0968 5.53054 15.1311 5.5374 15.1585 5.54426C15.1791 5.57857 15.2066 5.60602 15.2272 5.64033C15.2477 5.66778 15.234 5.70207 15.2409 5.72952C15.2203 5.72952 15.1997 5.7364 15.1791 5.74326C15.1517 5.74326 15.1311 5.74326 15.1036 5.74326C15.0556 5.74326 15.0144 5.74326 14.9664 5.74326C14.9664 5.71581 14.9664 5.68836 14.9664 5.65405C14.9938 5.64033 15.0213 5.61974 15.0419 5.60601C14.987 5.60601 14.939 5.60601 14.8841 5.60601C14.8703 5.60601 14.8566 5.61288 14.8429 5.61288C14.8635 5.63347 14.8909 5.64032 14.9115 5.64718C14.9115 5.68149 14.9115 5.7158 14.9115 5.75011C14.836 5.75011 14.7537 5.75012 14.6782 5.74326C14.6645 5.72953 14.6508 5.70894 14.6439 5.68835C14.637 5.66777 14.637 5.65406 14.637 5.64033C14.6645 5.61975 14.6851 5.58542 14.7194 5.57856Z" fill="#F8F604"/>
<path d="M15.1791 5.80496C15.2066 5.77752 15.234 5.7638 15.2615 5.74321C15.2683 5.75007 15.2752 5.75006 15.2821 5.75693C15.2821 5.81868 15.2752 5.8873 15.2752 5.94906C15.2478 5.95592 15.2134 5.95593 15.186 5.96279C15.1791 6.00397 15.1791 6.04512 15.1791 6.07943C15.1585 6.10002 15.138 6.1206 15.1174 6.14119C15.0693 6.13433 15.0282 6.13433 14.9801 6.12747C14.9801 6.10689 14.9801 6.08629 14.9801 6.07257C15.0007 6.05884 15.035 6.05884 15.0488 6.0314C15.0556 6.01767 15.0556 6.00395 15.0625 5.99023C15.0419 6.00395 15.0144 6.01768 14.987 6.01768C14.9596 6.01768 14.9252 6.02454 14.8978 6.01768C14.8703 6.01082 14.8429 6.01083 14.8155 6.00396C14.8292 6.01769 14.8498 6.03826 14.8635 6.05198C14.8841 6.05884 14.9047 6.05886 14.9252 6.06572C14.9252 6.0863 14.9252 6.10689 14.9252 6.12747C14.9047 6.1412 14.8772 6.15492 14.8566 6.16864C14.8498 6.16864 14.8429 6.16177 14.8292 6.16177C14.8223 6.13433 14.8154 6.10688 14.8086 6.07943C14.788 6.06571 14.7606 6.05199 14.74 6.03826C14.74 6.01768 14.74 6.00396 14.7331 5.98338C14.7125 5.96966 14.6919 5.96279 14.6645 5.95593C14.6645 5.9422 14.6576 5.92161 14.6508 5.90789C14.6439 5.89416 14.6302 5.89416 14.6165 5.8873C14.6165 5.84613 14.6165 5.81181 14.6165 5.77064C14.6302 5.77064 14.6439 5.76379 14.6508 5.76379C14.6645 5.78438 14.6714 5.81182 14.6851 5.82555C14.7194 5.85986 14.7468 5.89416 14.7812 5.92847C14.7949 5.92847 14.8154 5.93534 14.8292 5.93534C14.836 5.92848 14.836 5.92161 14.8429 5.90789C14.8566 5.87358 14.8704 5.8324 14.8841 5.7981C14.9115 5.7981 14.939 5.79811 14.9664 5.79125C14.9939 5.83242 15.0282 5.86672 15.0556 5.90789C15.0693 5.90789 15.0831 5.90788 15.0968 5.90102C15.138 5.87357 15.1585 5.83927 15.1791 5.80496Z" fill="#F8F604"/>
<path d="M15.385 5.90101C15.4262 5.89415 15.4674 5.89416 15.5086 5.8873C15.5086 5.92161 15.5428 5.94906 15.5566 5.97651C15.5634 5.99023 15.5634 6.01082 15.5703 6.02454C15.5497 6.02454 15.536 6.02454 15.5223 6.01768C15.5085 5.99709 15.4948 5.97651 15.4811 5.96279C15.4742 5.96965 15.4674 5.96964 15.4605 5.97651C15.4742 5.99709 15.488 6.01767 15.5017 6.03826C15.5085 6.07943 15.5086 6.12747 15.5086 6.16864C15.488 6.16864 15.4674 6.16864 15.4468 6.16864C15.4399 6.14119 15.4331 6.11374 15.4262 6.07943C15.4194 6.07943 15.4125 6.0863 15.4056 6.0863C15.4125 6.11375 15.4262 6.14119 15.4262 6.16864C15.4262 6.20981 15.4193 6.25784 15.4125 6.29901C15.3919 6.29901 15.3713 6.29901 15.3507 6.29901C15.337 6.2647 15.3164 6.23725 15.2958 6.20294C15.289 6.19608 15.2958 6.18237 15.2958 6.17551C15.2958 6.12747 15.2958 6.07944 15.2958 6.02454C15.2958 6.01768 15.2958 6.01082 15.3027 6.00396C15.3301 5.96965 15.3576 5.93532 15.385 5.90101Z" fill="#F8F604"/>
<path d="M14.3969 5.96966C14.4312 5.96966 14.4587 5.96968 14.493 5.96281C14.4998 5.99712 14.5067 6.03141 14.5136 6.07259C14.4792 6.11376 14.4381 6.14807 14.3969 6.18925C14.4038 6.18925 14.4038 6.1961 14.4106 6.20296C14.4038 6.20296 14.3969 6.19611 14.3969 6.19611C14.3901 6.18239 14.39 6.17552 14.3832 6.16179C14.3969 6.12062 14.4175 6.07946 14.4312 6.03828C14.4175 6.0177 14.4038 5.99711 14.3969 5.96966Z" fill="#F8F604"/>
<path d="M14.4724 6.22356C14.4861 6.17553 14.5067 6.13437 14.5273 6.08633C14.5342 6.0932 14.541 6.10004 14.5548 6.11377C14.5548 6.18239 14.5616 6.25102 14.5616 6.3265C14.5342 6.3265 14.5136 6.31963 14.4861 6.31277C14.4861 6.28532 14.4724 6.25787 14.4724 6.22356Z" fill="#F8F604"/>
<path d="M14.884 6.2098C14.9046 6.19608 14.9321 6.18236 14.9595 6.16863C15.0075 6.18236 15.0556 6.18921 15.1036 6.20293C15.0968 6.22352 15.0967 6.25096 15.0762 6.26469C15.0624 6.28527 15.0487 6.29901 15.035 6.31959C15.0007 6.31959 14.9732 6.3196 14.9458 6.32646C14.9252 6.31274 14.9115 6.29214 14.8909 6.27156C14.884 6.24411 14.884 6.23039 14.884 6.2098Z" fill="#F8F604"/>
<path d="M15.138 6.29214C15.1723 6.27156 15.2135 6.25784 15.2478 6.23726C15.2615 6.26471 15.2821 6.29214 15.289 6.31273C15.2752 6.31273 15.2684 6.31273 15.2547 6.31273C15.2547 6.34018 15.2547 6.37449 15.2478 6.40194C15.2409 6.41566 15.2272 6.43625 15.2203 6.44997C15.1998 6.43625 15.186 6.41566 15.1723 6.40194C15.1654 6.39507 15.1586 6.38821 15.1586 6.38135C15.1449 6.3539 15.1449 6.31959 15.138 6.29214Z" fill="#F8F604"/>
<path d="M14.637 6.26472C14.6645 6.26472 14.6919 6.25787 14.7194 6.25787C14.7262 6.30591 14.7331 6.3608 14.74 6.40884C14.7331 6.4157 14.7262 6.41569 14.7262 6.42255C14.7262 6.41569 14.7262 6.40884 14.7262 6.40884C14.6919 6.38825 14.6645 6.36767 14.6302 6.34708C14.6233 6.31963 14.6302 6.29217 14.637 6.26472Z" fill="#F8F604"/>
<path d="M15.0076 6.40881C15.0213 6.40195 15.0419 6.39509 15.0557 6.38823C15.0694 6.41568 15.09 6.44312 15.1037 6.47057C15.0625 6.47743 15.0213 6.47742 14.9802 6.48428C14.987 6.45684 14.9939 6.4294 15.0076 6.40881Z" fill="#F8F604"/>
<path d="M14.8841 6.42938C14.9047 6.42938 14.9184 6.42252 14.939 6.42252C14.9527 6.4431 14.9596 6.4637 14.9733 6.47742C14.9596 6.47742 14.939 6.48427 14.9253 6.48427C14.9047 6.48427 14.8841 6.47055 14.8635 6.46369C14.8704 6.45682 14.8772 6.44311 14.8841 6.42938Z" fill="#F8F604"/>
<path d="M14.843 5.82558C14.843 5.8393 14.8224 5.85988 14.8018 5.85988C14.7812 5.85988 14.7606 5.84616 14.7606 5.82558C14.7606 5.80499 14.7812 5.79128 14.8018 5.79128C14.8224 5.79128 14.843 5.80499 14.843 5.82558Z" fill="#F8F604"/>
<path d="M15.1311 5.82558C15.1311 5.8393 15.1105 5.85988 15.0831 5.85988C15.0556 5.85988 15.0419 5.84616 15.0419 5.82558C15.0419 5.80499 15.0625 5.79128 15.0831 5.79128C15.1105 5.79128 15.1311 5.80499 15.1311 5.82558Z" fill="#F8F604"/>
<path d="M19.5291 5.66096C19.879 5.7433 20.229 5.83249 20.5789 5.92856C20.9769 6.04521 21.3681 6.1756 21.7592 6.32656C21.9582 6.40204 22.1572 6.47752 22.3493 6.55986C22.2532 6.74513 22.164 6.93038 22.0748 7.12251C22.0131 7.23916 21.9582 7.34895 21.9033 7.46561C21.4641 7.29406 21.0181 7.13625 20.5652 6.98529C20.1604 6.85491 19.7555 6.73139 19.3369 6.63533C19.3095 6.62847 19.2889 6.62161 19.2615 6.62161C19.2683 6.60789 19.2752 6.59417 19.2752 6.58044C19.2958 6.4981 19.3232 6.41576 19.3438 6.32656V6.31969C19.3507 6.30597 19.3507 6.29224 19.3575 6.27852C19.4124 6.07266 19.4742 5.86681 19.5291 5.66096Z" fill="#D61516"/>
<path d="M19.1518 6.99214L19.2547 6.6216C19.2547 6.6216 20.0507 6.75882 20.7026 6.97154C21.3476 7.19112 21.9034 7.46559 21.9034 7.46559L21.7318 7.80868L19.1518 6.99214Z" fill="white"/>
<path d="M19.5291 5.66093L19.632 5.29038C19.632 5.29038 20.428 5.42763 21.0798 5.64034C21.7249 5.85306 22.5208 6.21674 22.5208 6.21674L22.3493 6.55983L19.5291 5.66093Z" fill="white"/>
<path d="M19.9477 4.17191C19.9477 4.17191 21.2995 3.62295 21.9788 3.34848C22.3151 3.91115 22.6444 4.47384 22.9807 5.03651C23.0013 5.07082 23.0218 5.11199 23.0493 5.1463C23.0356 5.16689 23.0218 5.19432 23.0081 5.22177C22.8434 5.55114 22.6856 5.88738 22.5209 6.21675C22.1298 6.05206 21.7387 5.88736 21.3338 5.75013C20.778 5.558 20.2085 5.40705 19.6321 5.2904L19.9477 4.17191Z" fill="#3B75D9"/>
<path d="M19.1586 6.96467C19.1586 6.96467 19.8036 7.16366 20.1261 7.25972C20.3319 7.32148 20.5378 7.3901 20.7437 7.45872C21.073 7.56851 21.7386 7.80181 21.7386 7.80181C21.7386 7.80181 21.6769 7.93904 21.5122 8.28213C21.4161 8.24096 21.3132 8.1998 21.2171 8.16549C20.8809 8.03512 20.5378 7.9116 20.1878 7.81553C19.7967 7.70574 19.3988 7.60968 19.0076 7.52048V7.51361C19.0694 7.2803 19.1586 6.96467 19.1586 6.96467Z" fill="#3B75D9"/>
<path d="M21.6975 4.1033L21.7661 4.48072L22.1778 4.63168L21.8621 4.90615L21.9033 5.29041L21.5534 5.17375L21.2514 5.46196L21.1622 5.05711L20.7231 4.92673L21.0662 4.61794L20.9838 4.21996L21.3955 4.35034L21.6975 4.1033Z" fill="#FEC502"/>
<path d="M21.6975 4.11703L21.7524 4.48755L21.4504 4.76204L21.6975 4.11703Z" fill="#FAFC12"/>
<path d="M20.9976 4.24739L21.3544 4.36403L21.4505 4.76203L20.9976 4.24739Z" fill="#FAFC12"/>
<path d="M21.272 5.42763L21.5327 5.16689L21.4504 4.76205L21.272 5.42763Z" fill="#FAFC12"/>
<path d="M20.7849 4.92672L21.1417 5.02965L21.4505 4.76205L20.7849 4.92672Z" fill="#FAFC12"/>
<path d="M22.1503 4.63853L21.8484 4.89241L21.8827 5.26983L21.4504 4.76206L22.1503 4.63853Z" fill="#FAFC12"/>
<path d="M19.7487 5.98347C19.8379 5.98347 19.9202 5.98347 20.0094 5.98347C20.0094 6.01778 20.0094 6.04521 20.0163 6.07952C20.0643 6.10011 20.1055 6.13441 20.1535 6.16186C20.2221 6.19617 20.3045 6.22362 20.3731 6.25107C20.38 6.25793 20.3937 6.25794 20.4006 6.25794C20.579 6.27166 20.7574 6.29225 20.9358 6.30597C21.0181 6.3197 21.1005 6.34714 21.1759 6.38145C21.2308 6.40889 21.272 6.45692 21.3063 6.50495C21.3132 6.51182 21.32 6.53241 21.3338 6.53241C21.5328 6.60103 21.7455 6.6216 21.9582 6.62846C21.9925 6.63532 22.0337 6.62162 22.068 6.64907C22.0817 6.65593 22.0954 6.68337 22.0817 6.70395C22.0611 6.74512 22.02 6.76571 21.9788 6.78629C21.8964 6.8206 21.8072 6.81373 21.7249 6.80001C21.6563 6.78628 21.5877 6.76571 21.5259 6.75199C21.4847 6.73827 21.4436 6.72454 21.3955 6.72454C21.4024 6.74512 21.4093 6.76571 21.423 6.78629C21.4573 6.82746 21.4984 6.86864 21.5465 6.89608C21.5602 6.90295 21.5739 6.90981 21.5877 6.91667C21.5877 6.99901 21.5877 7.08136 21.5808 7.16371C21.5671 7.18429 21.5465 7.198 21.5328 7.21172C21.5122 7.198 21.4916 7.19115 21.4779 7.17742C21.4916 7.1637 21.4985 7.14312 21.5053 7.11567C21.5122 7.08136 21.5053 7.04705 21.4984 7.01274C21.4916 6.9853 21.4779 6.96471 21.4573 6.94412C21.4436 6.92354 21.423 6.91667 21.4024 6.91667C21.3269 6.90981 21.2514 6.88237 21.1897 6.8412C21.1691 6.82747 21.1554 6.81374 21.1348 6.80688C21.121 6.80688 21.1142 6.80688 21.1005 6.81374C21.0799 6.85492 21.0456 6.88921 20.9975 6.9098C20.9701 6.9098 20.9495 6.90295 20.9221 6.90295C20.8877 6.90295 20.8466 6.88923 20.8191 6.88237C20.7574 6.86864 20.6956 6.85492 20.6339 6.8412C20.6339 6.82747 20.627 6.80002 20.6407 6.79316C20.6613 6.7863 20.6888 6.79315 20.7093 6.78629C20.7368 6.78629 20.7642 6.79316 20.7985 6.79316C20.8329 6.80002 20.8672 6.80001 20.8946 6.80001C20.8946 6.77256 20.8946 6.74512 20.8878 6.71767C20.8054 6.71081 20.7231 6.70395 20.6476 6.6765C20.5721 6.64905 20.5035 6.62161 20.428 6.59416C20.4074 6.5873 20.38 6.57358 20.3594 6.57358C20.2427 6.55985 20.1261 6.55985 20.0094 6.57358C19.9751 6.58044 19.9408 6.5873 19.9065 6.59416C19.8516 6.60102 19.8036 6.6216 19.7487 6.62846C19.7212 6.63532 19.7006 6.62848 19.6732 6.62161C19.6595 6.61475 19.6458 6.61475 19.6458 6.60103C19.6458 6.58731 19.6457 6.57357 19.6526 6.56671C19.7555 6.55298 19.8653 6.55299 19.9545 6.50495C19.9477 6.48437 19.9408 6.47065 19.9271 6.45007C19.8722 6.45007 19.8173 6.45007 19.7624 6.45007C19.7212 6.45007 19.6732 6.45692 19.6389 6.4432C19.6046 6.42948 19.5703 6.42262 19.536 6.4089C19.5291 6.40204 19.5222 6.40202 19.5222 6.39516C19.5222 6.38144 19.5154 6.36086 19.5154 6.34028C19.536 6.34028 19.5565 6.34713 19.5771 6.35399C19.6252 6.36772 19.6801 6.36773 19.735 6.36773C19.783 6.36773 19.831 6.36772 19.8791 6.35399C19.8791 6.33341 19.8859 6.31282 19.8791 6.28537C19.8791 6.26478 19.8653 6.24421 19.8516 6.23048C19.783 6.21676 19.7212 6.21676 19.6526 6.2099C19.6252 6.2099 19.5977 6.19618 19.5909 6.16873C19.584 6.14814 19.584 6.12756 19.5909 6.10698C19.6252 6.08639 19.6663 6.07267 19.7006 6.04522C19.7212 6.02464 19.735 6.00405 19.7487 5.98347Z" fill="#31120A"/>
<path d="M19.7555 5.9903C19.8379 5.9903 19.9202 5.9903 20.0026 5.9903C20.0026 6.01775 20.0026 6.05207 20.0026 6.08638C20.0575 6.11383 20.1055 6.14814 20.1535 6.17559C20.2153 6.20303 20.277 6.22361 20.3388 6.25106C20.3594 6.25792 20.3731 6.27164 20.3937 6.27164C20.5721 6.29223 20.7505 6.30596 20.9289 6.31968C20.9907 6.32654 21.0456 6.34713 21.1005 6.36085C21.1828 6.3883 21.2514 6.43633 21.2995 6.51181C21.3132 6.52553 21.3132 6.54611 21.3338 6.54611C21.5533 6.62159 21.7935 6.64219 22.02 6.64906C22.0405 6.64906 22.0611 6.65592 22.0748 6.66964C22.0817 6.6765 22.0817 6.68336 22.0817 6.69022C22.0748 6.71081 22.0543 6.73139 22.0337 6.74511C21.9719 6.79314 21.8896 6.8 21.8141 6.8C21.718 6.79313 21.622 6.76569 21.5259 6.73824C21.4779 6.72452 21.4298 6.7108 21.3818 6.71766C21.3818 6.73824 21.3887 6.75884 21.3955 6.77256C21.4367 6.84118 21.4985 6.89606 21.5739 6.93037C21.5739 6.98527 21.5739 7.04016 21.5739 7.10192C21.5739 7.1225 21.5739 7.14996 21.5671 7.17054C21.5602 7.18427 21.5396 7.19114 21.5328 7.20486C21.519 7.198 21.5053 7.19113 21.4916 7.17741C21.4985 7.15682 21.5053 7.13624 21.5122 7.11566C21.519 7.08135 21.5122 7.04704 21.5053 7.01273C21.4985 6.97842 21.4779 6.95782 21.4573 6.93037C21.4367 6.90979 21.4024 6.90294 21.3749 6.90294C21.2926 6.88922 21.2103 6.84803 21.1416 6.8C21.1279 6.78627 21.1005 6.79313 21.0799 6.8C21.0593 6.84117 21.0318 6.86862 20.9907 6.8892C20.9495 6.8892 20.9083 6.88922 20.8672 6.88236C20.7917 6.86177 20.7093 6.84803 20.6339 6.82745C20.6339 6.81373 20.6339 6.80686 20.6339 6.8C20.6613 6.79313 20.6888 6.79313 20.7231 6.8C20.778 6.81372 20.8397 6.81373 20.8946 6.81373C20.8946 6.77942 20.8946 6.75197 20.8946 6.71766C20.9495 6.71766 21.0044 6.71081 21.0593 6.71081C21.0456 6.65591 21.0319 6.60101 20.9975 6.55298C20.9701 6.51867 20.9289 6.49808 20.8878 6.48436C20.8534 6.47063 20.8191 6.47751 20.778 6.47751C20.6407 6.48437 20.4966 6.48436 20.3525 6.49123C20.3525 6.51181 20.3525 6.53239 20.3594 6.55298C20.2908 6.54612 20.229 6.54613 20.1672 6.53926C20.1055 6.54613 20.0437 6.54612 19.9889 6.55298C19.9477 6.55984 19.9134 6.57356 19.8791 6.57356C19.8242 6.58043 19.7761 6.601 19.7212 6.60787C19.6938 6.601 19.6663 6.59416 19.6389 6.58043C19.6389 6.57357 19.6389 6.56671 19.6458 6.55985C19.7281 6.55299 19.8104 6.54611 19.8859 6.52553C19.9134 6.51866 19.9339 6.50496 19.9545 6.49809C19.9545 6.47065 19.9477 6.44319 19.9202 6.4226C19.9065 6.41574 19.8928 6.41573 19.8791 6.41573C19.8173 6.41573 19.7555 6.41573 19.6869 6.41573C19.6526 6.41573 19.6183 6.40201 19.584 6.39515C19.5634 6.38829 19.5428 6.38143 19.5291 6.37456C19.5154 6.3677 19.5154 6.34712 19.5154 6.3334C19.5566 6.34026 19.5977 6.36085 19.6458 6.36085C19.6869 6.36085 19.735 6.36771 19.7761 6.36085C19.8104 6.36085 19.8516 6.35399 19.8859 6.34026C19.8859 6.30595 19.8928 6.2785 19.8859 6.24419C19.8791 6.2236 19.8653 6.19616 19.8447 6.1893C19.783 6.18244 19.7281 6.17559 19.6663 6.17559C19.6458 6.17559 19.6183 6.16872 19.6046 6.14813C19.5977 6.13441 19.5977 6.11381 19.5977 6.09323C19.632 6.07264 19.6663 6.05893 19.7006 6.03834C19.7212 6.03834 19.7418 6.01775 19.7555 5.9903Z" fill="#502D17"/>
<path d="M20.38 6.51178C20.531 6.51178 20.6751 6.50492 20.8192 6.49806C20.8672 6.4912 20.9221 6.50492 20.9701 6.53923C21.025 6.57354 21.0387 6.64901 21.0525 6.70391C20.9976 6.70391 20.9427 6.71078 20.8946 6.71078C20.8054 6.70391 20.7094 6.69704 20.627 6.65587C20.5515 6.62156 20.4692 6.59411 20.3937 6.56666C20.38 6.54608 20.38 6.5255 20.38 6.51178Z" fill="#FEFEFE"/>
</svg>
