<svg width="30" height="30" viewBox="0 0 30 30" fill="none" xmlns="http://www.w3.org/2000/svg">
<path d="M14.9967 30.0002C21.0475 30.0002 26.2613 26.4115 28.6281 21.2513H1.35848C3.73214 26.4115 8.94595 30.0002 14.9967 30.0002Z" fill="#008D46"/>
<path d="M14.9967 0.000183105C8.94595 0.000183105 3.73214 3.58893 1.35848 8.74904H28.6281C26.2613 3.58893 21.0475 0.000183105 14.9967 0.000183105Z" fill="#D2232C"/>
<path d="M7.62939e-05 15.0002C7.62939e-05 17.2303 0.487191 19.3437 1.36531 21.2513H28.6349C29.5061 19.3506 30.0001 17.2303 30.0001 15.0002C30.0001 12.7701 29.513 10.6498 28.6349 8.74902H1.36531C0.494051 10.6498 7.62939e-05 12.7701 7.62939e-05 15.0002Z" fill="#F1F4FB"/>
</svg>
