<svg width="30" height="30" viewBox="0 0 30 30" fill="none" xmlns="http://www.w3.org/2000/svg">
<path d="M0 15.0002C0 21.0524 3.58875 26.2605 8.74886 28.6347V1.36575C3.58875 3.73309 0 8.94809 0 15.0002Z" fill="#009A63"/>
<path d="M30.0002 15.0002C30.0002 8.94809 26.4115 3.73309 21.2514 1.36575V28.6347C26.4115 26.2605 30.0002 21.0524 30.0002 15.0002Z" fill="#FF823D"/>
<path d="M14.9999 0.000213623C12.7698 0.000213623 10.6495 0.487419 8.74881 1.36574V28.6347C10.6495 29.5062 12.7698 30.0002 14.9999 30.0002C17.23 30.0002 19.3435 29.5062 21.2511 28.6347V1.36574C19.3504 0.487419 17.23 0.000213623 14.9999 0.000213623Z" fill="#F1F4FB"/>
</svg>
