<svg width="30" height="30" viewBox="0 0 30 30" fill="none" xmlns="http://www.w3.org/2000/svg">
<path d="M18.173 13.8775L18.7767 12.8348H17.5762L18.173 13.8775Z" fill="#F1F4FB"/>
<path d="M17.5693 17.1652H18.7767L18.173 16.1292L17.5693 17.1652Z" fill="#F1F4FB"/>
<path d="M13.7345 12.8348L12.4859 15.0036L13.7345 17.1656H16.2728L17.5282 15.0036L16.2728 12.8348H13.7345Z" fill="#F1F4FB"/>
<path d="M6.07812 27.0559C8.56841 28.909 11.6624 30.0003 15.0033 30.0003C18.3443 30.0003 21.4383 28.9021 23.9286 27.0559H6.07812Z" fill="#F1F4FB"/>
<path d="M30.0002 15.0036C30.0002 12.2445 29.2524 9.66388 27.9558 7.44699H2.04455C0.747961 9.66388 0.000183105 12.2445 0.000183105 15.0036C0.000183105 17.7627 0.747961 20.3365 2.04455 22.5603H27.9558C29.2593 20.3365 30.0002 17.7559 30.0002 15.0036ZM15.0036 21.62L13.0827 18.2912H10.2563H9.28214L11.1824 15.0036L9.76921 12.5534L9.28214 11.7092H13.0759L14.9968 8.38043L16.9176 11.7092H20.7114L18.8111 14.9968L20.7114 18.2912H16.9108L15.0036 21.62Z" fill="#F1F4FB"/>
<path d="M15.0036 10.6316L14.3862 11.7087H15.6279L15.0036 10.6316Z" fill="#F1F4FB"/>
<path d="M15.0033 0.000213623C11.6555 0.000213623 8.56841 1.09837 6.07812 2.94463H23.9286C21.4383 1.0915 18.3511 0.000213623 15.0033 0.000213623Z" fill="#F1F4FB"/>
<path d="M11.8342 13.8775L12.4379 12.8348H11.2374L11.8342 13.8775Z" fill="#F1F4FB"/>
<path d="M11.2374 17.1652H12.4379L11.8342 16.1292L11.2374 17.1652Z" fill="#F1F4FB"/>
<path d="M15.0036 19.3683L15.6279 18.2912H14.3862L15.0036 19.3683Z" fill="#F1F4FB"/>
<path d="M23.9288 2.94461H6.07833C4.44558 4.15257 3.07351 5.68998 2.05133 7.44701H27.9626C26.9336 5.68998 25.5615 4.15257 23.9288 2.94461Z" fill="#0148C8"/>
<path d="M27.9626 22.5603H2.05133C3.08037 24.3173 4.45245 25.8547 6.07833 27.0627H23.9288C25.5615 25.8478 26.9336 24.3173 27.9626 22.5603Z" fill="#0148C8"/>
<path d="M18.8248 15.0036L20.7251 11.7161H16.9313L15.0105 8.3873L13.0896 11.7161H9.29584L9.78293 12.5603L11.1961 15.0105L9.29584 18.2981H10.27H13.0964L15.0173 21.6269L16.9382 18.2981H20.7388L18.8248 15.0036ZM15.0036 10.6316L15.621 11.7092H14.3793L15.0036 10.6316ZM11.2373 17.1656L11.841 16.1224L12.4379 17.1656H11.2373ZM11.8341 13.878L11.2304 12.8348H12.431L11.8341 13.878ZM15.0036 19.3688L14.3793 18.2912H15.621L15.0036 19.3688ZM16.2727 17.1656H13.7344L12.4859 15.0036L13.7344 12.8348H16.2727L17.5213 15.0036L16.2727 17.1656ZM17.5694 17.1656L18.173 16.1224L18.7767 17.1656H17.5694ZM18.173 13.878L17.5762 12.8348H18.7767L18.173 13.878Z" fill="#0148C8"/>
</svg>
