<svg width="30" height="30" viewBox="0 0 30 30" fill="none" xmlns="http://www.w3.org/2000/svg">
<g clip-path="url(#clip0_1_14187)">
<path d="M45 0.0010376H-15V30.001H45V0.0010376Z" fill="#CF142B"/>
<path d="M7.59636 12.6357C7.61829 12.6582 7.88208 12.8175 7.88667 12.8087C7.89125 12.7999 8.57699 12.6417 8.57241 12.6505C8.56783 12.6593 8.1882 13.1106 8.20585 13.1198C8.22342 13.1289 8.60257 13.5828 8.61139 13.5874C8.62014 13.5919 7.89343 13.5277 7.89343 13.5277L7.41271 13.9152L7.30505 13.4122C7.30505 13.4122 6.70034 13.1988 6.69151 13.1943C6.68276 13.1897 7.20903 13.0158 7.20903 13.0158L7.36614 12.6055C7.36614 12.6055 7.56966 12.6441 7.59636 12.6357Z" fill="#F9DD16" stroke="black" stroke-width="0.1"/>
<path d="M16.446 13.6214C16.4474 13.1974 15.6125 11.279 15.4751 10.9841C15.2193 10.664 14.9487 10.1571 14.8324 9.71934C14.7571 9.27742 14.5207 8.93084 14.1876 8.81332C13.803 8.60919 13.4275 8.68923 13.0661 8.72065C12.8889 8.7583 12.7372 8.85403 12.6516 8.99506C12.4565 9.27424 12.3504 9.25294 12.2153 9.37328C11.104 9.54647 10.0531 10.1199 9.25349 10.5108C8.83011 10.8047 8.47071 10.9754 8.30422 11.0114C7.85281 11.013 7.5245 10.7991 7.36768 10.6854C6.85646 10.2205 6.34528 9.75558 5.83406 9.29074C5.39093 8.96003 5.28135 9.43744 5.36644 9.51036C5.51439 9.8283 5.19408 10.0218 6.41019 11.1674C6.56376 11.4829 6.71729 11.7984 6.87085 12.1138C6.87085 12.1138 6.8453 12.3726 6.8667 12.3837C7.08874 12.9126 7.44146 12.7808 7.60792 12.6325C7.72834 12.5227 7.84883 12.413 7.96925 12.3033C7.96925 12.3033 8.68531 12.0767 8.69643 12.0552C9.46429 12.1695 11.4429 11.7926 11.7692 11.6378C12.0632 11.4731 12.0819 11.6126 12.3367 11.4051C12.5496 11.2641 12.4325 11.3763 12.8259 11.0168C12.947 10.9127 13.0428 11.0813 13.0654 11.1993C13.0873 12.3162 13.2242 13.0299 13.326 14.1435L14.9993 15.0009L16.446 13.6214Z" fill="white" stroke="black" stroke-width="0.13"/>
<path d="M6.78312 10.2292C6.7984 10.2428 6.50668 11.1923 6.50668 11.1923C6.50668 11.1923 6.23784 10.9242 6.24013 10.9198L6.42838 9.92212L6.78312 10.2292Z" fill="#F9DD16"/>
<path d="M6.79181 10.194C6.77852 10.2581 6.722 10.5444 6.6957 10.6226C6.67367 10.7093 6.65401 10.7966 6.63938 10.8834C6.61239 10.9781 6.60066 11.0402 6.57063 11.1376C6.56105 11.2212 6.54349 11.2996 6.52221 11.3832M6.33712 9.75854C6.34306 9.77081 6.36459 9.85701 6.36779 9.91257C6.35761 9.97073 6.34142 10.1793 6.31914 10.2498C6.3014 10.3282 6.28601 10.4074 6.27552 10.4861C6.25326 10.5718 6.24453 10.628 6.21942 10.716C6.2137 10.7921 6.19998 10.8631 6.18286 10.9387" stroke="black" stroke-width="0.113"/>
<path d="M11.2219 9.66455C11.5797 10.0627 11.6907 10.7099 11.6259 11.0723" stroke="black" stroke-width="0.1"/>
<path d="M9.83781 12.0233C9.83999 12.0191 9.84213 12.0149 9.84427 12.0108C9.82403 12.0498 9.83971 12.0276 9.80141 11.9411C9.76076 11.8963 9.73222 11.6786 9.7947 11.5582C9.81864 11.4969 9.85875 11.4044 9.88894 11.3463C9.89754 11.3297 9.92185 11.3133 9.93048 11.2967" stroke="black" stroke-width="0.1"/>
<path d="M7.27893 10.679C7.27679 10.6831 7.27465 10.6872 7.27247 10.6914C7.28111 10.6748 7.25523 10.7246 7.24663 10.7412C7.2131 10.8057 7.16796 10.8646 7.1372 10.9215C7.10487 10.9838 7.05489 11.0369 7.02256 11.0992C6.98104 11.1574 6.94461 11.2346 6.9016 11.2948C6.86129 11.3665 6.81652 11.4175 6.77713 11.4934M6.77713 11.4934C6.74305 11.5534 6.71573 11.581 6.68054 11.6488L6.77713 11.4934Z" stroke="black" stroke-width="0.1"/>
<path d="M5.97995 9.46686C5.98619 9.47854 6.01032 9.55975 6.01539 9.6117C6.00739 9.66567 5.99868 9.85984 5.97921 9.92493C5.96451 9.99746 5.95213 10.0708 5.94452 10.144C5.9256 10.2232 5.91898 10.2755 5.89736 10.3567C5.89435 10.4276 5.88333 10.4934 5.86914 10.5633" stroke="black" stroke-width="0.1"/>
<path d="M7.53855 11.7566C7.45457 11.6683 7.4052 11.7006 7.35128 11.6966C7.29149 11.7072 7.18281 11.7572 7.07254 11.8681C7.03229 11.912 6.99844 11.9443 6.94513 11.9917C6.9212 12.0289 6.90144 12.0431 6.875 12.0659" stroke="black" stroke-width="0.1"/>
<path d="M13.8468 8.77709C13.8447 8.78121 13.8425 8.7854 13.8403 8.78953C13.8606 8.75047 13.8459 8.77259 13.8643 8.86523C13.8885 8.92913 13.8914 8.97353 13.9182 9.03543" stroke="black" stroke-width="0.1"/>
<path d="M12.5415 9.1228C12.5372 9.13112 12.5263 10.0346 12.5637 10.1511C12.5748 10.2256 12.595 10.2881 12.6054 10.3772C12.6055 10.4309 12.6181 10.4759 12.6219 10.5281C12.6525 10.5858 12.659 10.6437 12.6903 10.69C12.7055 10.7538 12.7566 10.7563 12.7841 10.8159C12.8223 10.8571 12.8851 10.9298 12.9228 10.9624" stroke="black" stroke-width="0.1"/>
<path d="M11.9131 11.5963C11.8854 11.5869 11.814 11.5304 11.753 11.5001C11.6843 11.4613 11.5148 11.259 11.5067 11.1166" stroke="black" stroke-width="0.1"/>
<path d="M12.59 10.314C12.5878 10.3182 12.4958 10.4088 12.3451 10.5618C12.1525 10.7402 11.6282 11.0471 11.5652 11.0718C11.5048 11.0991 11.4294 11.1649 11.3698 11.1742C11.3012 11.2015 11.233 11.2122 11.1681 11.2276C11.0891 11.2443 11.022 11.2587 10.9606 11.2621C10.7763 11.3423 9.80519 11.311 9.75509 11.3002C9.70316 11.2998 9.63251 11.2959 9.58578 11.2913C9.53961 11.3024 9.4849 11.2978 9.42245 11.3014C9.34702 11.2953 9.30368 11.3098 9.24018 11.3175C9.19013 11.3438 9.10691 11.3711 9.05057 11.4087C8.9734 11.4399 8.92654 11.4824 8.87333 11.5064C8.81788 11.5522 8.0623 11.9931 8.02573 12.0127C7.94643 12.0477 7.66169 12.1323 7.59042 11.9321C7.57208 11.8533 7.53581 11.7722 7.53359 11.7119C7.51071 11.6398 7.52372 11.5627 7.52745 11.4954C7.59359 11.1544 7.70308 11.02 7.73327 10.9619C7.74405 10.9411 7.75483 10.9204 7.76561 10.8996" stroke="black" stroke-width="0.1"/>
<path d="M14.7872 9.64484C14.7851 9.64896 14.7829 9.65316 14.7808 9.65728C14.7982 9.62365 14.7901 9.64128 14.7424 9.70066C14.6938 9.73994 14.6338 9.80212 14.5897 9.84263C14.5452 9.88682 14.5024 9.94926 14.4623 9.96618C14.4221 10.0188 14.3714 10.0354 14.3164 10.0644C14.2422 10.0921 14.191 10.1162 14.1268 10.1556C14.0448 10.1992 13.9937 10.2408 13.9177 10.2842C13.8709 10.344 13.8232 10.3812 13.7835 10.4516C13.744 10.5169 13.7047 10.5729 13.6676 10.6444M13.6676 10.6444C13.6374 10.7026 13.6072 10.7606 13.577 10.8188L13.6676 10.6444Z" stroke="black" stroke-width="0.1"/>
<path d="M14.156 14.4234C14.1603 14.4151 14.1646 14.4068 14.169 14.3985C14.145 14.4445 14.1534 14.4324 14.1759 14.3547C14.1761 14.2614 14.1982 14.1486 14.1992 14.0663C14.2132 13.9792 14.2274 13.8851 14.2283 13.7969C14.223 13.6937 14.2232 13.6012 14.2078 13.5017C14.2066 13.4101 14.1959 13.3151 14.1931 13.2253C14.1915 13.1364 14.1848 13.0602 14.1655 12.9739C14.1638 12.9093 14.1598 12.8206 14.144 12.7414C14.1525 12.679 14.1347 12.6216 14.1215 12.5716C14.0973 12.4754 14.0879 12.4193 14.0626 12.3197C14.0473 12.2663 14.0322 12.1981 14.0092 12.1181C14.0009 12.0423 13.9603 11.9439 13.9438 11.8786C13.9213 11.8306 13.8986 11.7655 13.8899 11.7084C13.8663 11.6557 13.8327 11.5913 13.8235 11.5316C13.7987 11.4861 13.7722 11.4154 13.7448 11.3484C13.7211 11.2934 13.7037 11.2256 13.6785 11.1717C13.653 11.1036 13.622 11.0455 13.6061 10.9761C13.5818 10.9525 13.5763 10.9267 13.5632 10.9064" stroke="black" stroke-width="0.1"/>
<path d="M13.9883 9.17464C13.9038 9.36784 13.6861 9.65003 13.6829 9.65625C13.6828 9.65632 13.4757 10.0704 13.4757 10.0704C13.3845 10.2971 13.4427 10.3879 13.4825 10.4534C13.565 10.5989 13.5795 10.6776 13.6405 10.7884C13.6635 10.9267 13.4181 10.9733 13.4148 10.9795C12.9038 11.1568 12.6446 10.6665 12.6419 10.6414C12.5725 10.3841 12.5816 10.3413 12.7382 10.2883C12.9177 10.2471 12.9899 10.2451 13.0787 10.1805C13.2469 10.0545 13.3657 9.67347 13.369 9.66718C13.3722 9.66096 13.3942 9.4511 13.3942 9.4511C13.4073 9.34982 13.3605 9.25704 13.4122 9.09684C13.4794 8.942 13.5198 8.89972 13.6789 8.88749C13.8863 8.86871 14.0472 9.01546 13.9883 9.17464Z" fill="#F9DD16" stroke="black" stroke-width="0.1"/>
<path d="M20.7495 9.77265C20.7191 9.78039 20.4492 9.92916 20.4545 9.93754C20.4599 9.94592 20.254 10.6189 20.2486 10.6105C20.2433 10.6021 20.0423 10.0477 20.0255 10.0584C20.0089 10.0691 19.4262 10.1705 19.4178 10.1758C19.4095 10.1811 19.8285 9.58391 19.8285 9.58391L19.7332 8.97382L20.2227 9.13211C20.2227 9.13211 20.7098 8.71508 20.7182 8.70973C20.7265 8.70442 20.614 9.24715 20.614 9.24715L20.8908 9.58837C20.8908 9.58837 20.7556 9.7453 20.7495 9.77265Z" fill="#F9DD16" stroke="black" stroke-width="0.1"/>
<path d="M15.471 16.9437C15.8375 17.1569 17.9163 17.3931 18.2405 17.4215C18.6456 17.3601 19.2198 17.3792 19.6571 17.4973C20.0775 17.653 20.4958 17.6216 20.7641 17.3919C21.1332 17.1609 21.2516 16.7957 21.4051 16.467C21.4611 16.2947 21.454 16.1155 21.3747 15.9708C21.2305 15.6622 21.302 15.581 21.2653 15.4039C21.671 14.3548 21.6998 13.158 21.7611 12.2701C21.7183 11.7565 21.7501 11.3599 21.8023 11.1977C22.0266 10.806 22.3759 10.6286 22.5529 10.5496C23.211 10.3393 23.8693 10.1291 24.5274 9.91881C25.0354 9.70039 24.6767 9.36679 24.5711 9.40402C24.2217 9.37318 24.2143 8.99901 22.6141 9.47941C22.2642 9.45468 21.9142 9.42989 21.5642 9.40517C21.5642 9.40517 21.3529 9.25364 21.3325 9.26662C20.7634 9.19444 20.7012 9.56582 20.7465 9.78415C20.7813 9.94331 20.8161 10.1025 20.8509 10.2617C20.8509 10.2617 20.6891 10.9951 20.7021 11.0154C20.2192 11.6233 19.5564 13.5253 19.5273 13.8852C19.5229 14.2222 19.3927 14.1687 19.4451 14.4931C19.4607 14.7479 19.4221 14.5904 19.5367 15.1109C19.5663 15.2678 19.3724 15.2665 19.2589 15.2271C18.2807 14.6876 17.5942 14.4493 16.5789 13.9806L14.9997 15.001L15.471 16.9437Z" fill="white" stroke="black" stroke-width="0.13"/>
<path d="M23.2401 10.2717C23.2207 10.2781 22.5443 9.5507 22.5443 9.5507C22.5443 9.5507 22.9109 9.45194 22.9136 9.45613L23.6835 10.118L23.2401 10.2717Z" fill="#F9DD16"/>
<path d="M23.2662 10.2965C23.2173 10.2529 22.9976 10.0608 22.943 9.99891C22.879 9.93652 22.8132 9.87579 22.7454 9.81977C22.6768 9.749 22.6289 9.70782 22.5595 9.63309C22.492 9.58303 22.4329 9.52862 22.3711 9.46838M23.8706 10.1204C23.857 10.1194 23.7716 10.095 23.7219 10.07C23.6766 10.0321 23.5041 9.91376 23.4542 9.8592C23.3952 9.80464 23.3343 9.75174 23.2713 9.70328C23.2083 9.64116 23.1639 9.60547 23.1003 9.53975C23.0373 9.49675 22.9826 9.44936 22.9257 9.39674" stroke="black" stroke-width="0.113"/>
<path d="M21.5094 14.3981C20.9857 14.5089 20.3697 14.2814 20.0883 14.044" stroke="black" stroke-width="0.1"/>
<path d="M20.1593 12.0199C20.1618 12.0239 20.1643 12.0278 20.1668 12.0317C20.1432 11.9947 20.1546 12.0194 20.2486 12.0295C20.3077 12.0167 20.5106 12.1008 20.5836 12.2151C20.6247 12.2665 20.6847 12.3475 20.72 12.4027C20.73 12.4184 20.7321 12.4477 20.7422 12.4634" stroke="black" stroke-width="0.1"/>
<path d="M22.6024 10.476C22.5999 10.4721 22.5974 10.4682 22.5949 10.4642C22.605 10.48 22.5747 10.4327 22.5647 10.417C22.5255 10.3556 22.4972 10.2871 22.4632 10.232C22.4255 10.1729 22.4045 10.1031 22.3667 10.0439C22.337 9.97884 22.2884 9.90868 22.2577 9.84132C22.2158 9.7706 22.194 9.70631 22.148 9.63426M22.148 9.63426C22.1131 9.57476 22.1028 9.53725 22.0617 9.4729L22.148 9.63426Z" stroke="black" stroke-width="0.1"/>
<path d="M24.3019 9.95692C24.2887 9.95649 24.2063 9.93678 24.1587 9.9152C24.116 9.88129 23.9522 9.77665 23.9056 9.72724C23.8501 9.67825 23.7928 9.63085 23.7332 9.58767C23.674 9.53166 23.6321 9.49982 23.5726 9.44049C23.5127 9.40244 23.4612 9.35999 23.4077 9.31273" stroke="black" stroke-width="0.1"/>
<path d="M21.5397 10.1622C21.6581 10.1336 21.6549 10.0747 21.6853 10.03C21.706 9.97293 21.717 9.8538 21.6761 9.70287C21.6582 9.64605 21.6472 9.6006 21.6328 9.53076C21.6126 9.49141 21.6102 9.46722 21.6036 9.43291" stroke="black" stroke-width="0.1"/>
<path d="M20.9657 17.1151C20.9632 17.1112 20.9607 17.1072 20.9582 17.1033C20.9819 17.1404 20.9701 17.1166 20.8806 17.0862C20.8132 17.0752 20.7733 17.0555 20.7063 17.0477" stroke="black" stroke-width="0.1"/>
<path d="M21.319 15.8115C21.3139 15.8036 20.537 15.3424 20.4174 15.3166C20.3472 15.2889 20.283 15.2751 20.2007 15.2396C20.1541 15.2129 20.1089 15.2012 20.0617 15.1785C19.9965 15.1761 19.9431 15.1528 19.8873 15.1567C19.8245 15.1381 19.7967 15.181 19.7315 15.175C19.6766 15.1875 19.5823 15.2056 19.5352 15.2219" stroke="black" stroke-width="0.1"/>
<path d="M19.4912 14.031C19.5132 14.0117 19.5979 13.9782 19.6546 13.9405C19.7226 13.9004 19.9825 13.8547 20.1099 13.9189" stroke="black" stroke-width="0.1"/>
<path d="M20.2637 15.2577C20.2611 15.2537 20.2287 15.1287 20.1714 14.9217C20.1133 14.6656 20.1097 14.0582 20.1198 13.9912C20.1263 13.9253 20.107 13.8271 20.1288 13.7708C20.1394 13.6978 20.1643 13.6334 20.1833 13.5695C20.2084 13.4926 20.2295 13.4274 20.2573 13.3725C20.28 13.1728 20.7926 12.3474 20.827 12.3095C20.8533 12.2647 20.892 12.2054 20.9194 12.1673C20.9328 12.1217 20.9642 12.0767 20.9923 12.0208C21.0353 11.9585 21.0444 11.9137 21.0695 11.8549C21.0717 11.7984 21.0897 11.7126 21.0853 11.645C21.0968 11.5626 21.0835 11.5008 21.0893 11.4427C21.0774 11.3718 21.0734 10.497 21.0746 10.4555C21.084 10.3694 21.1531 10.0805 21.3621 10.1188C21.4395 10.1423 21.5279 10.1515 21.5812 10.1797C21.6551 10.196 21.7154 10.2458 21.7718 10.2827C22.0341 10.5104 22.0956 10.6724 22.1309 10.7277C22.1435 10.7474 22.1561 10.7671 22.1687 10.7868" stroke="black" stroke-width="0.1"/>
<path d="M19.7438 17.4958C19.7413 17.4919 19.7388 17.4879 19.7363 17.484C19.7567 17.5159 19.7455 17.5 19.7179 17.4291C19.7082 17.3673 19.6843 17.2843 19.6713 17.2258C19.6553 17.1652 19.6226 17.0969 19.628 17.0537C19.6025 16.9926 19.6135 16.9404 19.6159 16.8783C19.629 16.8001 19.6338 16.7438 19.6317 16.6685C19.635 16.5757 19.6245 16.5106 19.6248 16.4231C19.5965 16.3526 19.5881 16.2928 19.547 16.2231C19.5102 16.1563 19.4814 16.0943 19.438 16.0263M19.438 16.0263C19.4027 15.9711 19.3675 15.916 19.3323 15.8607L19.438 16.0263Z" stroke="black" stroke-width="0.1"/>
<path d="M15.9211 14.5597C15.9262 14.5676 15.9312 14.5755 15.9363 14.5834C15.9083 14.5397 15.9146 14.553 15.9707 14.6113C16.0514 14.6581 16.138 14.7337 16.2088 14.7757C16.2772 14.8314 16.3516 14.8907 16.4275 14.9356C16.5195 14.9826 16.5995 15.029 16.6935 15.0654C16.7734 15.1102 16.8611 15.1484 16.9401 15.1909C17.018 15.2339 17.0873 15.2663 17.1716 15.2927C17.2285 15.3235 17.3073 15.3644 17.3838 15.3904C17.4336 15.4289 17.4922 15.4422 17.5421 15.4557C17.6375 15.4829 17.6907 15.5028 17.7897 15.5307C17.8436 15.5441 17.9102 15.5652 17.991 15.5853C18.0608 15.616 18.1663 15.63 18.2311 15.6484C18.2839 15.6529 18.3516 15.6658 18.4055 15.6868C18.4629 15.6927 18.5355 15.6958 18.5917 15.7177C18.6436 15.7189 18.718 15.7314 18.7898 15.7411C18.8493 15.7481 18.9167 15.7669 18.9759 15.772C19.0476 15.784 19.1135 15.7862 19.1815 15.8072C19.2141 15.7979 19.2392 15.806 19.2633 15.8049" stroke="black" stroke-width="0.1"/>
<path d="M20.5509 17.0387C20.4259 16.8689 20.2903 16.5393 20.2866 16.5334C20.2865 16.5333 20.0314 16.1469 20.0314 16.1469C19.8807 15.9546 19.7731 15.9596 19.6964 15.9613C19.5291 15.96 19.4537 15.9332 19.3273 15.9307C19.196 15.8814 19.2784 15.6456 19.2746 15.6397C19.3766 15.1085 19.9308 15.1291 19.9539 15.1393C20.2114 15.2079 20.2439 15.2372 20.2115 15.3993C20.1574 15.5754 20.1231 15.6389 20.1346 15.7481C20.1596 15.9568 20.4302 16.2501 20.4341 16.2561C20.4378 16.262 20.6086 16.386 20.6086 16.386C20.6897 16.448 20.7935 16.4538 20.9064 16.5787C21.0069 16.7143 21.0233 16.7704 20.9543 16.9144C20.8669 17.1033 20.6593 17.1694 20.5509 17.0387Z" fill="#F9DD16" stroke="black" stroke-width="0.1"/>
<path d="M16.6522 22.5951C16.6607 22.5648 16.6668 22.2567 16.6569 22.2571C16.6469 22.2576 16.1671 21.7428 16.177 21.7423C16.1869 21.7419 16.7675 21.845 16.7667 21.8252C16.7658 21.8054 16.9693 21.2501 16.9689 21.2401C16.9684 21.2303 17.2761 21.8918 17.2761 21.8918L17.8521 22.1143L17.4703 22.4591C17.4703 22.4591 17.5879 23.0894 17.5883 23.0994C17.5888 23.1092 17.175 22.7404 17.175 22.7404L16.7411 22.8095C16.7411 22.8095 16.6728 22.6139 16.6522 22.5951Z" fill="#F9DD16" stroke="black" stroke-width="0.1"/>
<path d="M13.0811 14.4381C12.7131 14.6489 11.4692 16.3311 11.2825 16.5977C11.1332 16.9792 10.8295 17.467 10.5085 17.7866C10.1635 18.0728 9.98153 18.4508 10.0463 18.7981C10.0618 19.2331 10.3189 19.5183 10.5268 19.8156C10.648 19.9503 10.8068 20.0337 10.9717 20.0373C11.3111 20.0668 11.3457 20.1693 11.5174 20.2261C12.223 21.1019 13.2452 21.7253 13.9834 22.2223C14.4497 22.442 14.7772 22.6679 14.8916 22.7942C15.1187 23.1843 15.0976 23.5755 15.0775 23.7682C14.9305 24.4434 14.7835 25.1185 14.6365 25.7937C14.5717 26.3428 15.04 26.199 15.0606 26.0889C15.2619 25.8018 15.5897 25.9824 15.9737 24.3564C16.1701 24.0657 16.3666 23.775 16.563 23.4843C16.563 23.4843 16.7999 23.377 16.7988 23.3529C17.1459 22.8962 16.8553 22.6566 16.6436 22.5866C16.4884 22.5372 16.3331 22.4877 16.1779 22.4383C16.1779 22.4383 15.6236 21.9315 15.5995 21.9326C15.3145 21.2104 13.9988 19.6854 13.7016 19.4802C13.412 19.3079 13.5234 19.222 13.2163 19.1051C12.9878 18.9912 13.1435 19.0365 12.6354 18.8755C12.4847 18.8227 12.5828 18.6554 12.6737 18.5769C13.63 17.9995 14.1797 17.5241 15.0932 16.8791L14.9991 15.0013L13.0811 14.4381Z" fill="white" stroke="black" stroke-width="0.13"/>
<path d="M14.9746 24.5023C14.9787 24.4823 15.9469 24.2602 15.9469 24.2602C15.9469 24.2602 15.8491 24.6271 15.8441 24.6273L14.886 24.9631L14.9746 24.5023Z" fill="#F9DD16"/>
<path d="M14.9398 24.5129C15.002 24.4923 15.2782 24.3981 15.3591 24.3818C15.4451 24.3575 15.5306 24.3309 15.613 24.3002C15.7086 24.2761 15.7682 24.2553 15.8676 24.2326C15.9448 24.1991 16.0214 24.1751 16.1045 24.1517M14.7901 25.1243C14.7977 25.1131 14.8616 25.0513 14.9081 25.0208C14.9636 25.0005 15.1523 24.9102 15.2245 24.8943C15.3013 24.8705 15.3775 24.8442 15.4509 24.8139C15.5363 24.7904 15.5894 24.7698 15.6781 24.7475C15.7468 24.7145 15.8152 24.6908 15.8892 24.6679" stroke="black" stroke-width="0.113"/>
<path d="M12.2659 20.9406C12.4318 20.4317 12.9368 20.012 13.283 19.8869" stroke="black" stroke-width="0.1"/>
<path d="M15.0007 20.9601C14.996 20.9603 14.9914 20.9605 14.9867 20.9608C15.0306 20.9588 15.0035 20.9563 14.9478 21.0327C14.9293 21.0903 14.755 21.2239 14.6195 21.23C14.5545 21.2399 14.4543 21.2514 14.3889 21.2543C14.3702 21.2552 14.3439 21.2423 14.3252 21.2432" stroke="black" stroke-width="0.1"/>
<path d="M15.1161 23.8482C15.1207 23.848 15.1254 23.8478 15.1301 23.8476C15.1114 23.8484 15.1675 23.8459 15.1861 23.845C15.2588 23.8418 15.3323 23.8515 15.397 23.8496C15.4671 23.8465 15.5381 23.8632 15.6082 23.8601C15.6794 23.8669 15.7645 23.8599 15.8381 23.867C15.9203 23.8661 15.9869 23.8794 16.0723 23.8755M16.0723 23.8755C16.1413 23.8751 16.1789 23.8849 16.2552 23.8815L16.0723 23.8755Z" stroke="black" stroke-width="0.1"/>
<path d="M14.716 25.5795C14.723 25.5683 14.7812 25.5068 14.8237 25.4764C14.8744 25.4563 15.0469 25.3668 15.113 25.3511C15.1832 25.3276 15.2529 25.3016 15.3201 25.2716C15.3982 25.2484 15.4467 25.228 15.5279 25.2061C15.5908 25.1733 15.6533 25.1499 15.7209 25.1272" stroke="black" stroke-width="0.1"/>
<path d="M15.9196 23.0845C15.8851 23.2014 15.9377 23.228 15.9612 23.2767C16.0003 23.3232 16.098 23.3923 16.2491 23.4324C16.3073 23.4453 16.3522 23.4584 16.4198 23.4809C16.4641 23.483 16.4862 23.4931 16.5192 23.5046" stroke="black" stroke-width="0.1"/>
<path d="M10.1853 19.1111C10.1899 19.1109 10.1947 19.1107 10.1993 19.1105C10.1553 19.1125 10.1818 19.1141 10.2529 19.0519C10.2961 18.999 10.3331 18.9742 10.3733 18.9201" stroke="black" stroke-width="0.1"/>
<path d="M11.1373 20.069C11.1467 20.0686 11.9346 19.6263 12.0167 19.5356C12.0757 19.4887 12.1198 19.44 12.1917 19.3864C12.2382 19.3595 12.2708 19.3261 12.3141 19.2967C12.3488 19.2414 12.3957 19.2068 12.4202 19.1565C12.4678 19.1114 12.4445 19.0659 12.4823 19.0124C12.4989 18.9586 12.5304 18.8679 12.5398 18.8189" stroke="black" stroke-width="0.1"/>
<path d="M13.5933 19.3759C13.599 19.4046 13.5857 19.4947 13.59 19.5626C13.5907 19.6416 13.5003 19.8895 13.381 19.9677" stroke="black" stroke-width="0.1"/>
<path d="M12.145 19.4316C12.1497 19.4313 12.2742 19.4657 12.4821 19.5197C12.7329 19.5973 13.2608 19.8979 13.3137 19.9402C13.3676 19.9788 13.4623 20.0112 13.5001 20.0582C13.558 20.1039 13.6014 20.1576 13.6472 20.2061C13.7012 20.2662 13.7472 20.3171 13.7808 20.3686C13.9424 20.4881 14.4009 21.3447 14.4165 21.3935C14.4422 21.4387 14.4742 21.5018 14.4935 21.5446C14.5262 21.579 14.5496 21.6287 14.5839 21.681C14.6163 21.7494 14.6506 21.7797 14.689 21.8308C14.7368 21.861 14.8021 21.9194 14.8628 21.9494C14.9284 22.0006 14.9887 22.02 15.036 22.0541C15.1034 22.0792 15.863 22.5131 15.8983 22.5349C15.9682 22.5861 16.1838 22.7904 16.0461 22.9523C15.9871 23.0075 15.9349 23.0795 15.8838 23.1116C15.8328 23.1674 15.7596 23.1947 15.6994 23.2251C15.371 23.3384 15.1999 23.3107 15.1345 23.3136C15.1111 23.3147 15.0878 23.3157 15.0644 23.3168" stroke="black" stroke-width="0.1"/>
<path d="M10.4665 17.8627C10.4712 17.8625 10.4759 17.8623 10.4805 17.8621C10.4427 17.8637 10.462 17.862 10.5372 17.8736C10.5956 17.8961 10.6794 17.9169 10.7366 17.9349C10.7971 17.9513 10.8726 17.9572 10.9073 17.9834C10.9729 17.9919 11.0127 18.0275 11.0652 18.0606C11.1264 18.1111 11.1728 18.1433 11.2391 18.1792C11.3178 18.2285 11.3794 18.2519 11.455 18.296C11.5302 18.3066 11.5862 18.3293 11.6671 18.3286C11.7433 18.3301 11.8115 18.3361 11.892 18.3325M11.892 18.3325C11.9575 18.3296 12.0228 18.3267 12.0883 18.3238L11.892 18.3325Z" stroke="black" stroke-width="0.1"/>
<path d="M14.9207 16.02C14.9113 16.0204 14.9019 16.0209 14.8926 16.0213C14.9444 16.019 14.9298 16.0177 14.8512 16.0372C14.7703 16.0836 14.6615 16.1209 14.5898 16.1612C14.5074 16.1926 14.4188 16.2273 14.3419 16.2707C14.2552 16.3268 14.1751 16.3729 14.0966 16.4361C14.0178 16.4829 13.9409 16.5397 13.8645 16.5869C13.7884 16.6328 13.7257 16.6766 13.6606 16.7365C13.6055 16.7704 13.5307 16.8182 13.47 16.8714C13.4117 16.8953 13.3709 16.9394 13.3343 16.9758C13.263 17.0449 13.2191 17.081 13.1455 17.1528C13.1069 17.1927 13.0553 17.2399 12.9976 17.2998C12.9361 17.3449 12.8712 17.4292 12.8229 17.4762C12.7926 17.5197 12.7476 17.5719 12.7025 17.608C12.6686 17.6548 12.6296 17.7161 12.5825 17.7538C12.5556 17.7981 12.5075 17.8564 12.4633 17.9137C12.4275 17.9617 12.3775 18.0107 12.3434 18.0594C12.2972 18.1155 12.2623 18.1715 12.2101 18.2199C12.2019 18.2527 12.1823 18.2704 12.1713 18.2919" stroke="black" stroke-width="0.1"/>
<path d="M10.4586 18.7898C10.6682 18.7664 11.0214 18.8138 11.0284 18.8135C11.0285 18.8135 11.4906 18.7858 11.4906 18.7858C11.7326 18.7515 11.7821 18.6557 11.8189 18.5885C11.9037 18.4443 11.9646 18.3924 12.03 18.2841C12.1383 18.195 12.3014 18.3843 12.3084 18.384C12.7174 18.7379 12.4224 19.2075 12.402 19.2225C12.2139 19.4112 12.1723 19.4247 12.0481 19.3156C11.9226 19.1807 11.8848 19.1193 11.7845 19.0746C11.5912 18.9919 11.2019 19.0796 11.1948 19.0799C11.1878 19.0802 10.995 19.1661 10.995 19.1661C10.9008 19.2054 10.8438 19.2923 10.6792 19.3276C10.5116 19.3469 10.4548 19.333 10.3646 19.2013C10.2447 19.0311 10.2913 18.8184 10.4586 18.7898Z" fill="#F9DD16" stroke="black" stroke-width="0.1"/>
<path d="M15.4611 16.9381C15.2837 16.8478 15.1483 16.8298 15.0837 16.8735C14.9809 16.2989 14.8905 15.7236 14.7585 15.1508C13.6689 14.6971 13.4387 14.5935 13.0812 14.4381C13.2481 14.3296 13.3313 14.2214 13.3258 14.1435C13.8748 14.3418 14.4182 14.5512 14.9803 14.7233C15.918 14.0065 16.1229 13.8589 16.4362 13.627C16.4467 13.8258 16.4988 13.952 16.5689 13.9861C16.1227 14.3624 15.6697 14.7284 15.2396 15.1291C15.3915 16.2995 15.4169 16.5508 15.4611 16.9381Z" fill="#F9DD16" stroke="black" stroke-width="0.13"/>
</g>
<defs>
<clipPath id="clip0_1_14187">
<rect y="0.0010376" width="30" height="30" rx="15" fill="white"/>
</clipPath>
</defs>
</svg>
