<svg width="30" height="30" viewBox="0 0 30 30" fill="none" xmlns="http://www.w3.org/2000/svg">
<path d="M15.0002 30.0002C21.0523 30.0002 26.2673 26.4115 28.6347 21.2514H1.36569C3.73989 26.4115 8.94804 30.0002 15.0002 30.0002Z" fill="#138808"/>
<path d="M15.0002 0.000213623C8.94804 0.000213623 3.73303 3.58896 1.36569 8.74907H28.6347C26.2673 3.58896 21.0592 0.000213623 15.0002 0.000213623Z" fill="#FF9933"/>
<path d="M0.000183105 15.0002C0.000183105 17.2303 0.494235 19.3506 1.36569 21.2514H28.6347C29.5061 19.3506 30.0002 17.2303 30.0002 15.0002C30.0002 12.7701 29.5061 10.6566 28.6347 8.74905H1.36569C0.494235 10.6498 0.000183105 12.7701 0.000183105 15.0002Z" fill="#F1F4FB"/>
<path d="M19.3503 13.3945C19.2336 13.422 19.1101 13.3534 19.0758 13.2367C19.0415 13.1201 19.1101 12.9966 19.2337 12.9691C19.3572 12.9417 19.4738 13.0103 19.5013 13.1269C19.5356 13.2436 19.467 13.3602 19.3503 13.3945Z" fill="#000066"/>
<path d="M19.618 14.5748C19.4944 14.5748 19.3984 14.4787 19.3984 14.3552C19.3984 14.2317 19.4944 14.1356 19.618 14.1356C19.7415 14.1356 19.8375 14.2317 19.8375 14.3552C19.8375 14.4787 19.7346 14.5748 19.618 14.5748Z" fill="#000066"/>
<path d="M19.57 15.7824C19.4464 15.7481 19.3847 15.6315 19.4121 15.5148C19.4396 15.3982 19.5631 15.3296 19.6798 15.357C19.7964 15.3845 19.865 15.508 19.8376 15.6246C19.8033 15.7481 19.6866 15.8168 19.57 15.7824Z" fill="#000066"/>
<path d="M19.2132 16.9352C19.1102 16.8735 19.0691 16.7431 19.1308 16.6333C19.1926 16.5304 19.3298 16.4892 19.4327 16.5579C19.5357 16.6196 19.5768 16.7569 19.5151 16.8598C19.4465 16.9627 19.3161 16.997 19.2132 16.9352Z" fill="#000066"/>
<path d="M19.3503 13.3945C19.2336 13.422 19.1101 13.3534 19.0758 13.2367C19.0415 13.1201 19.1101 12.9966 19.2337 12.9691C19.3572 12.9417 19.4738 13.0103 19.5013 13.1269C19.5356 13.2436 19.467 13.3602 19.3503 13.3945Z" fill="#000066"/>
<path d="M19.618 14.5748C19.4944 14.5748 19.3984 14.4787 19.3984 14.3552C19.3984 14.2317 19.4944 14.1356 19.618 14.1356C19.7415 14.1356 19.8375 14.2317 19.8375 14.3552C19.8375 14.4787 19.7346 14.5748 19.618 14.5748Z" fill="#000066"/>
<path d="M19.57 15.7824C19.4464 15.7481 19.3847 15.6315 19.4121 15.5148C19.4396 15.3982 19.5631 15.3296 19.6798 15.357C19.7964 15.3845 19.865 15.508 19.8376 15.6246C19.8033 15.7481 19.6866 15.8168 19.57 15.7824Z" fill="#000066"/>
<path d="M19.2132 16.9352C19.1102 16.8735 19.0691 16.7431 19.1308 16.6333C19.1926 16.5304 19.3298 16.4892 19.4327 16.5579C19.5357 16.6196 19.5768 16.7569 19.5151 16.8598C19.4465 16.9627 19.3161 16.997 19.2132 16.9352Z" fill="#000066"/>
<path d="M14.5813 10.3822C14.5813 10.5057 14.4853 10.6017 14.3618 10.6017C14.2382 10.6017 14.1422 10.5057 14.1422 10.3822C14.1422 10.2586 14.2451 10.1626 14.3618 10.1626C14.4784 10.1626 14.5813 10.2586 14.5813 10.3822Z" fill="#000066"/>
<path d="M15.7891 10.4302C15.7548 10.5468 15.6313 10.6155 15.5215 10.588C15.4048 10.5537 15.3362 10.4371 15.3636 10.3204C15.3911 10.2037 15.5146 10.1283 15.6313 10.1626C15.7479 10.1969 15.8165 10.3135 15.7891 10.4302Z" fill="#000066"/>
<path d="M16.9419 10.787C16.8801 10.8968 16.7429 10.9311 16.64 10.8694C16.537 10.8076 16.4959 10.6772 16.5576 10.5674C16.6194 10.4645 16.7497 10.4233 16.8595 10.4851C16.9693 10.5469 17.0036 10.6841 16.9419 10.787Z" fill="#000066"/>
<path d="M17.9646 11.439C17.8822 11.5282 17.7381 11.5282 17.6558 11.439C17.5666 11.3498 17.5666 11.2125 17.6558 11.1233C17.745 11.0341 17.8822 11.0341 17.9646 11.1233C18.0538 11.2125 18.0538 11.3498 17.9646 11.439Z" fill="#000066"/>
<path d="M18.7877 12.3241C18.6779 12.3858 18.5475 12.3447 18.4858 12.2418C18.424 12.1388 18.4583 12.0016 18.5681 11.9398C18.6779 11.8781 18.8083 11.9124 18.87 12.0222C18.9318 12.1251 18.8906 12.2623 18.7877 12.3241Z" fill="#000066"/>
<path d="M18.568 17.9645C18.4788 17.8753 18.4788 17.7381 18.568 17.6489C18.6504 17.5597 18.7945 17.5597 18.8768 17.6489C18.966 17.7381 18.966 17.8754 18.8768 17.9577C18.7876 18.0469 18.6504 18.0469 18.568 17.9645Z" fill="#000066"/>
<path d="M17.676 18.7811C17.6143 18.6713 17.6486 18.5409 17.7584 18.4791C17.8613 18.4174 17.9985 18.4517 18.0603 18.5615C18.1221 18.6644 18.0877 18.8016 17.978 18.8634C17.8682 18.9252 17.7378 18.884 17.676 18.7811Z" fill="#000066"/>
<path d="M16.6056 19.3438C16.5713 19.2202 16.6468 19.1036 16.7634 19.0761C16.8801 19.0418 17.0036 19.1105 17.0379 19.234C17.0722 19.3506 16.9967 19.4742 16.8801 19.5016C16.7566 19.5291 16.6399 19.4604 16.6056 19.3438Z" fill="#000066"/>
<path d="M15.4253 19.6114C15.4253 19.4879 15.5283 19.3918 15.6449 19.3918C15.7684 19.3918 15.8714 19.4879 15.8714 19.6114C15.8714 19.7349 15.7684 19.831 15.6449 19.831C15.5214 19.831 15.4253 19.7349 15.4253 19.6114Z" fill="#000066"/>
<path d="M14.2176 19.5633C14.2519 19.4398 14.3755 19.378 14.4852 19.4055C14.6019 19.4398 14.6705 19.5565 14.6431 19.6731C14.6088 19.7898 14.4921 19.8584 14.3755 19.8309C14.2519 19.8035 14.1833 19.6799 14.2176 19.5633Z" fill="#000066"/>
<path d="M13.058 19.2065C13.1197 19.1036 13.257 19.0693 13.3599 19.131C13.4697 19.1928 13.504 19.3232 13.4422 19.433C13.3805 19.5359 13.2501 19.5702 13.1403 19.5153C13.0374 19.4467 13.0031 19.3094 13.058 19.2065Z" fill="#000066"/>
<path d="M12.0356 18.5615C12.1248 18.4723 12.262 18.4723 12.3512 18.5615C12.4405 18.6438 12.4405 18.788 12.3512 18.8703C12.262 18.9595 12.1248 18.9595 12.0356 18.8703C11.9533 18.7811 11.9533 18.6438 12.0356 18.5615Z" fill="#000066"/>
<path d="M11.2191 17.6694C11.322 17.6077 11.4592 17.642 11.521 17.7518C11.5827 17.8547 11.5484 17.9919 11.4386 18.0537C11.3357 18.1155 11.1985 18.0743 11.1367 17.9714C11.075 17.8684 11.1093 17.7312 11.2191 17.6694Z" fill="#000066"/>
<path d="M10.6564 16.599C10.7731 16.5647 10.8966 16.6402 10.9309 16.7568C10.9652 16.8735 10.8897 16.997 10.7731 17.0244C10.6564 17.0519 10.5398 16.9833 10.5055 16.8666C10.4712 16.75 10.5398 16.6333 10.6564 16.599Z" fill="#000066"/>
<path d="M10.3887 15.4188C10.5122 15.4188 10.6083 15.5217 10.6083 15.6383C10.6083 15.7619 10.5122 15.8579 10.3887 15.8579C10.2652 15.8579 10.1691 15.7619 10.1691 15.6383C10.1691 15.5217 10.2652 15.4188 10.3887 15.4188Z" fill="#000066"/>
<path d="M10.4368 14.2111C10.5534 14.2454 10.622 14.3689 10.5946 14.4856C10.5671 14.6022 10.4436 14.6708 10.327 14.6434C10.2103 14.6091 10.1417 14.4924 10.1691 14.3758C10.1966 14.2523 10.3201 14.1836 10.4368 14.2111Z" fill="#000066"/>
<path d="M10.7936 13.0583C10.9034 13.1201 10.9377 13.2573 10.8759 13.3602C10.8142 13.47 10.677 13.5043 10.574 13.4426C10.4711 13.3808 10.4368 13.2504 10.4917 13.1406C10.5534 13.0308 10.6907 12.9965 10.7936 13.0583Z" fill="#000066"/>
<path d="M11.4386 12.0359C11.5278 12.1251 11.5278 12.2623 11.4386 12.3515C11.3563 12.4407 11.2122 12.4407 11.123 12.3515C11.0406 12.2623 11.0406 12.1251 11.123 12.0427C11.2122 11.9467 11.3563 11.9466 11.4386 12.0359Z" fill="#000066"/>
<path d="M12.3307 11.2125C12.3925 11.3222 12.3582 11.4526 12.2552 11.5144C12.1523 11.5761 12.0151 11.5418 11.9533 11.432C11.8916 11.3222 11.9259 11.1918 12.0357 11.1301C12.1386 11.0752 12.269 11.1095 12.3307 11.2125Z" fill="#000066"/>
<path d="M13.4011 10.6498C13.4354 10.7664 13.36 10.8899 13.2433 10.9174C13.1267 10.9517 13.0031 10.8762 12.9757 10.7596C12.9414 10.6429 13.01 10.5263 13.1335 10.492C13.2502 10.4645 13.3668 10.5331 13.4011 10.6498Z" fill="#000066"/>
<path d="M14.9039 14.9865L15.0343 13.1407L14.8902 10.3616L14.7667 13.1407L14.9039 14.9865Z" fill="#000066"/>
<path d="M14.9039 14.9865L15.5077 13.2367L16.091 10.5126L15.2469 13.1681L14.9039 14.9865Z" fill="#000066"/>
<path d="M14.9039 14.9865L15.94 13.4494L17.2094 10.9723L15.7067 13.3191L14.9039 14.9865Z" fill="#000066"/>
<path d="M14.9039 14.9865L16.3037 13.7719L18.1632 11.7065L16.1115 13.5798L14.9039 14.9865Z" fill="#000066"/>
<path d="M14.9039 14.9865L16.5644 14.1768L18.9043 12.6603L16.434 13.9366L14.9039 14.9865Z" fill="#000066"/>
<path d="M14.9039 14.9865L16.7222 14.6365L19.3641 13.7719L16.6468 14.3689L14.9039 14.9865Z" fill="#000066"/>
<path d="M14.9039 14.9865L16.7497 15.1169L19.5287 14.9728L16.7497 14.8424L14.9039 14.9865Z" fill="#000066"/>
<path d="M14.9039 14.9865L16.6536 15.5903L19.3778 16.1667L16.7222 15.3227L14.9039 14.9865Z" fill="#000066"/>
<path d="M14.9039 14.9865L16.4409 16.0226L18.918 17.2852L16.5713 15.7824L14.9039 14.9865Z" fill="#000066"/>
<path d="M14.9039 14.9865L16.1184 16.3794L18.1838 18.2459L16.3105 16.1873L14.9039 14.9865Z" fill="#000066"/>
<path d="M14.9039 14.9865L15.7136 16.647L17.23 18.9801L15.9537 16.5098L14.9039 14.9865Z" fill="#000066"/>
<path d="M14.9039 14.9865L15.2538 16.798L16.1184 19.4467L15.5214 16.7294L14.9039 14.9865Z" fill="#000066"/>
<path d="M14.9039 14.9865L14.7735 16.8323L14.9176 19.6045L15.048 16.8323L14.9039 14.9865Z" fill="#000066"/>
<path d="M14.9038 14.9865L14.3 16.7294L13.7236 19.4536L14.5676 16.8048L14.9038 14.9865Z" fill="#000066"/>
<path d="M14.9039 14.9865L13.8677 16.5167L12.6051 18.9938L14.1079 16.6539L14.9039 14.9865Z" fill="#000066"/>
<path d="M14.9039 14.9865L13.511 16.1942L11.6514 18.2596L13.7031 16.3863L14.9039 14.9865Z" fill="#000066"/>
<path d="M14.9038 14.9865L13.2433 15.7962L10.9102 17.3058L13.3805 16.0295L14.9038 14.9865Z" fill="#000066"/>
<path d="M14.9039 14.9865L13.0924 15.3364L10.4437 16.1942L13.161 15.5972L14.9039 14.9865Z" fill="#000066"/>
<path d="M14.9039 14.9865L13.0581 14.8493L10.279 15.0002L13.0581 15.1237L14.9039 14.9865Z" fill="#000066"/>
<path d="M14.9039 14.9865L13.1541 14.3758L10.4368 13.7994L13.0855 14.6434L14.9039 14.9865Z" fill="#000066"/>
<path d="M14.9039 14.9865L13.3737 13.9504L10.8966 12.6878L13.2365 14.1837L14.9039 14.9865Z" fill="#000066"/>
<path d="M14.9039 14.9865L13.6963 13.5867L11.6308 11.7271L13.5041 13.7788L14.9039 14.9865Z" fill="#000066"/>
<path d="M14.9039 14.9865L14.0942 13.319L12.5846 10.986L13.8609 13.4563L14.9039 14.9865Z" fill="#000066"/>
<path d="M14.9039 14.9865L14.554 13.1681L13.6963 10.5194L14.2932 13.2367L14.9039 14.9865Z" fill="#000066"/>
<path d="M16.3588 9.9293C13.5592 9.18136 10.6772 10.8419 9.92925 13.6416C9.18131 16.4412 10.8419 19.3163 13.6415 20.0711C16.4411 20.8191 19.3163 19.1585 20.0711 16.3589C20.8259 13.5592 19.1584 10.6772 16.3588 9.9293ZM13.7993 19.4879C11.3222 18.8223 9.84691 16.2697 10.5125 13.7925C11.1781 11.3085 13.7239 9.84011 16.2078 10.5057C18.685 11.1713 20.1603 13.717 19.4947 16.201C18.8291 18.685 16.2765 20.1535 13.7993 19.4879Z" fill="#000066"/>
<path d="M15.9057 15.2404C15.7753 15.7413 15.2607 16.0364 14.7597 15.8991C14.2588 15.7687 13.9638 15.2541 14.101 14.7532C14.2382 14.2523 14.746 13.9572 15.2469 14.0944C15.7479 14.2317 16.036 14.7395 15.9057 15.2404Z" fill="#000066"/>
<path d="M16.9419 10.787C16.8801 10.8968 16.7429 10.9311 16.64 10.8694C16.537 10.8076 16.4959 10.6772 16.5576 10.5674C16.6194 10.4645 16.7497 10.4233 16.8595 10.4851C16.9693 10.5469 17.0036 10.6841 16.9419 10.787Z" fill="#000066"/>
<path d="M17.9646 11.439C17.8822 11.5282 17.7381 11.5282 17.6558 11.439C17.5666 11.3498 17.5666 11.2125 17.6558 11.1233C17.745 11.0341 17.8822 11.0341 17.9646 11.1233C18.0538 11.2125 18.0538 11.3498 17.9646 11.439Z" fill="#000066"/>
<path d="M18.7877 12.3241C18.6779 12.3858 18.5475 12.3447 18.4858 12.2418C18.424 12.1388 18.4583 12.0016 18.5681 11.9398C18.6779 11.8781 18.8083 11.9124 18.87 12.0222C18.9318 12.1251 18.8906 12.2623 18.7877 12.3241Z" fill="#000066"/>
<path d="M18.568 17.9645C18.4788 17.8753 18.4788 17.7381 18.568 17.6489C18.6504 17.5597 18.7945 17.5597 18.8768 17.6489C18.966 17.7381 18.966 17.8754 18.8768 17.9577C18.7876 18.0469 18.6504 18.0469 18.568 17.9645Z" fill="#000066"/>
<path d="M17.676 18.7811C17.6143 18.6713 17.6486 18.5409 17.7584 18.4791C17.8613 18.4174 17.9985 18.4517 18.0603 18.5615C18.1221 18.6644 18.0877 18.8016 17.978 18.8634C17.8682 18.9252 17.7378 18.884 17.676 18.7811Z" fill="#000066"/>
<path d="M16.6056 19.3438C16.5713 19.2202 16.6468 19.1036 16.7634 19.0761C16.8801 19.0418 17.0036 19.1105 17.0379 19.234C17.0722 19.3506 16.9967 19.4742 16.8801 19.5016C16.7566 19.5291 16.6399 19.4604 16.6056 19.3438Z" fill="#000066"/>
<path d="M15.4253 19.6114C15.4253 19.4879 15.5283 19.3918 15.6449 19.3918C15.7684 19.3918 15.8714 19.4879 15.8714 19.6114C15.8714 19.7349 15.7684 19.831 15.6449 19.831C15.5214 19.831 15.4253 19.7349 15.4253 19.6114Z" fill="#000066"/>
<path d="M14.2176 19.5633C14.2519 19.4398 14.3755 19.378 14.4852 19.4055C14.6019 19.4398 14.6705 19.5565 14.6431 19.6731C14.6088 19.7898 14.4921 19.8584 14.3755 19.8309C14.2519 19.8035 14.1833 19.6799 14.2176 19.5633Z" fill="#000066"/>
<path d="M13.058 19.2065C13.1197 19.1036 13.257 19.0693 13.3599 19.131C13.4697 19.1928 13.504 19.3232 13.4422 19.433C13.3805 19.5359 13.2501 19.5702 13.1403 19.5153C13.0374 19.4467 13.0031 19.3094 13.058 19.2065Z" fill="#000066"/>
<path d="M12.0356 18.5615C12.1248 18.4723 12.262 18.4723 12.3512 18.5615C12.4405 18.6438 12.4405 18.788 12.3512 18.8703C12.262 18.9595 12.1248 18.9595 12.0356 18.8703C11.9533 18.7811 11.9533 18.6438 12.0356 18.5615Z" fill="#000066"/>
<path d="M11.2191 17.6694C11.322 17.6077 11.4592 17.642 11.521 17.7518C11.5827 17.8547 11.5484 17.9919 11.4386 18.0537C11.3357 18.1155 11.1985 18.0743 11.1367 17.9714C11.075 17.8684 11.1093 17.7312 11.2191 17.6694Z" fill="#000066"/>
<path d="M10.6564 16.599C10.7731 16.5647 10.8966 16.6402 10.9309 16.7568C10.9652 16.8735 10.8897 16.997 10.7731 17.0244C10.6564 17.0519 10.5398 16.9833 10.5055 16.8666C10.4712 16.75 10.5398 16.6333 10.6564 16.599Z" fill="#000066"/>
<path d="M10.3887 15.4188C10.5122 15.4188 10.6083 15.5217 10.6083 15.6383C10.6083 15.7619 10.5122 15.8579 10.3887 15.8579C10.2652 15.8579 10.1691 15.7619 10.1691 15.6383C10.1691 15.5217 10.2652 15.4188 10.3887 15.4188Z" fill="#000066"/>
<path d="M10.4368 14.2111C10.5534 14.2454 10.622 14.3689 10.5946 14.4856C10.5671 14.6022 10.4436 14.6708 10.327 14.6434C10.2103 14.6091 10.1417 14.4924 10.1691 14.3758C10.1966 14.2523 10.3201 14.1836 10.4368 14.2111Z" fill="#000066"/>
<path d="M10.7936 13.0583C10.9034 13.1201 10.9377 13.2573 10.8759 13.3602C10.8142 13.47 10.677 13.5043 10.574 13.4426C10.4711 13.3808 10.4368 13.2504 10.4917 13.1406C10.5534 13.0308 10.6907 12.9965 10.7936 13.0583Z" fill="#000066"/>
<path d="M11.4386 12.0359C11.5278 12.1251 11.5278 12.2623 11.4386 12.3515C11.3563 12.4407 11.2122 12.4407 11.123 12.3515C11.0406 12.2623 11.0406 12.1251 11.123 12.0427C11.2122 11.9467 11.3563 11.9466 11.4386 12.0359Z" fill="#000066"/>
<path d="M12.3307 11.2125C12.3925 11.3222 12.3582 11.4526 12.2552 11.5144C12.1523 11.5761 12.0151 11.5418 11.9533 11.432C11.8916 11.3222 11.9259 11.1918 12.0357 11.1301C12.1386 11.0752 12.269 11.1095 12.3307 11.2125Z" fill="#000066"/>
<path d="M13.4011 10.6498C13.4354 10.7664 13.36 10.8899 13.2433 10.9174C13.1267 10.9517 13.0031 10.8762 12.9757 10.7596C12.9414 10.6429 13.01 10.5263 13.1335 10.492C13.2502 10.4645 13.3668 10.5331 13.4011 10.6498Z" fill="#000066"/>
<path d="M14.5813 10.3822C14.5813 10.5057 14.4853 10.6017 14.3618 10.6017C14.2451 10.6017 14.1422 10.5057 14.1422 10.3822C14.1422 10.2586 14.2451 10.1626 14.3618 10.1626C14.4784 10.1626 14.5813 10.2655 14.5813 10.3822Z" fill="#000066"/>
</svg>
