<svg width="30" height="30" viewBox="0 0 30 30" fill="none" xmlns="http://www.w3.org/2000/svg">
<path d="M15.0001 30.0002C21.0523 30.0002 26.2673 26.4115 28.6347 21.2513H1.36566C3.733 26.4115 8.948 30.0002 15.0001 30.0002Z" fill="black"/>
<path d="M15.0001 0.000183105C8.948 0.000183105 3.733 3.58893 1.36566 8.74904H28.6347C26.2673 3.58893 21.0523 0.000183105 15.0001 0.000183105Z" fill="#CE1126"/>
<path d="M0.000152588 15.0002C0.000152588 17.2303 0.487337 19.3437 1.36565 21.2513H28.6347C29.5061 19.3506 30.0002 17.2303 30.0002 15.0002C30.0002 12.7701 29.5061 10.6498 28.6347 8.74902H1.36565C0.487337 10.6498 0.000152588 12.7701 0.000152588 15.0002Z" fill="#F1F4FB"/>
<path d="M22.6852 11.8438C22.5549 11.8644 21.9236 12.53 21.9236 12.5987C21.9236 12.729 22.1226 12.7427 22.1226 12.8457C22.1226 13.0172 22.1226 13.1888 22.1226 13.3603C22.1226 14.17 22.1226 14.9797 22.1226 15.7826C22.1226 16.1874 22.2941 16.5236 21.8412 16.5099C21.4227 16.4962 21.5599 16.3315 21.5599 15.9129C21.5599 15.4532 21.7863 13.0309 21.5256 12.8868C21.3746 12.8045 20.7159 13.7103 20.7434 13.7103C20.9218 13.7103 20.9012 14.0397 20.9012 14.1289C20.9286 14.8699 20.908 15.6179 20.908 16.3658C20.908 16.5991 20.6816 16.503 20.4826 16.503C20.215 16.503 20.3385 16.0776 20.3385 15.8512C20.3385 15.5836 20.3522 13.9093 20.3042 13.9093C20.1669 13.9093 19.3778 14.719 19.5631 14.7807C19.769 14.8493 19.6866 15.3022 19.666 15.4669C18.8014 15.3434 18.5064 15.8649 18.4789 16.6334C18.4721 16.805 18.4652 16.9765 18.4583 17.1481C18.8426 17.1481 22.7607 17.2922 22.7607 17.1481C22.7744 16.6266 22.7196 11.837 22.6852 11.8438ZM19.1308 16.4413C19.1308 16.0639 19.7758 15.7208 19.6935 16.2492C19.8033 16.702 19.1308 16.5099 19.1308 16.4413Z" fill="#009E49"/>
<path d="M23.2205 15.0552C23.2205 14.8356 23.0352 13.0653 23.2685 12.9212C23.3234 12.8869 24.2292 13.5525 23.9753 13.772C23.7145 13.9985 23.8723 14.918 23.8723 15.1924C23.8723 15.6179 23.8723 16.0433 23.8723 16.4688C23.8723 16.7021 25.0045 16.3315 24.9977 16.3178C25.0388 16.3589 24.8604 16.8461 24.8536 16.9079C24.6889 17.1618 24.8604 17.1343 24.4281 17.1343C24.0302 17.1412 23.6253 17.1481 23.2273 17.1549C23.2205 16.455 23.2205 15.7551 23.2205 15.0552Z" fill="#009E49"/>
<path d="M20.0366 12.8525C19.9131 12.8457 19.8513 12.7976 19.8444 12.7084C20.0503 12.6673 20.2356 12.7839 20.4483 12.6741C20.5306 12.6329 20.6679 12.4271 20.7639 12.3996C20.8051 12.3859 21.0727 12.5026 21.1139 12.5163C21.3472 12.5575 21.3883 12.132 21.4432 12.1389C21.7589 12.1938 21.4707 12.7221 21.2168 12.7221C20.8257 12.7221 20.4071 12.9829 20.0366 12.8525Z" fill="#009E49"/>
<path d="M20.5238 12.1869C20.4346 12.132 20.0366 11.5762 20.2836 11.5419C20.5856 11.4939 20.5718 12.2144 20.5238 12.1869Z" fill="#009E49"/>
<path d="M5.49643 18.1841C5.31116 18.1155 5.07786 17.9027 5.00238 17.7243C5.19451 18.1635 6.08655 17.6969 6.15517 17.3264C6.21692 16.9558 5.59935 16.4755 5.97675 16.304C6.45022 16.0981 6.38848 15.5423 6.65609 16.3588C6.75902 16.6745 7.20502 16.551 7.49321 16.551C7.39715 16.3108 7.15013 16.1187 7.39716 15.9403C7.52067 15.8579 7.97355 15.261 8.06276 15.261C8.31665 15.261 7.71281 16.551 8.41272 16.551C9.14008 16.551 9.86743 16.551 10.5948 16.551C11.1575 16.551 11.727 16.551 12.2897 16.551C13.216 16.551 13.1405 16.6196 13.1405 15.6795C13.1405 15.4119 13.3258 14.5336 12.8592 14.5336C12.3857 14.5267 12.5778 15.7207 12.5778 16.002C12.5778 16.1736 8.3441 16.0157 8.3441 16.0569C8.3441 15.5903 9.44198 14.5611 9.75077 14.1493C9.99779 13.82 10.2517 13.4906 10.4919 13.1612C10.684 12.9005 11.4182 11.5555 11.7407 11.5144C11.6995 11.5144 12.2073 12.427 11.8093 12.4407C11.6858 12.4407 11.5349 12.7015 11.4731 12.777C10.8693 13.5318 9.86742 14.4856 9.51747 15.3913C9.64784 15.0894 11.6309 15.707 11.9328 15.4256C12.125 15.2472 11.775 14.6708 12.0358 14.4444C12.2142 14.2934 12.7563 13.7651 12.9896 13.916C13.861 14.4924 13.7924 14.6983 13.7924 15.7207C13.7924 15.9609 13.8679 17.2029 13.7307 17.2029C12.4612 17.2029 11.1918 17.2029 9.92231 17.2029C9.044 17.2029 8.16569 17.2029 7.29423 17.2029C7.08152 17.2029 6.8139 17.1068 6.75214 17.3332C6.5806 17.9096 6.18948 18.438 5.49643 18.1841Z" fill="#009E49"/>
<path d="M14.2314 15.0963C14.2314 14.8767 14.0461 13.1201 14.2726 12.976C14.348 12.9279 15.2126 13.6004 14.9725 13.8337C14.7186 14.0739 14.8764 14.959 14.8764 15.2404C14.8764 15.6315 14.8764 16.0226 14.8764 16.4137C14.8764 16.798 15.7478 16.4275 15.9674 16.3794C15.988 16.3726 15.8576 16.9078 15.8508 16.9558C15.6792 17.2097 15.8577 17.1754 15.4254 17.1823C15.0274 17.1891 14.6294 17.196 14.2314 17.196C14.2314 16.4961 14.2314 15.7962 14.2314 15.0963Z" fill="#009E49"/>
<path d="M7.89106 18.0675C7.89106 18.3008 7.69892 18.4998 7.45876 18.4998C7.21859 18.4998 7.02646 18.3076 7.02646 18.0675C7.02646 17.8273 7.21859 17.6352 7.45876 17.6352C7.69892 17.6352 7.89106 17.8273 7.89106 18.0675Z" fill="#009E49"/>
</svg>
