<svg width="30" height="30" viewBox="0 0 30 30" fill="none" xmlns="http://www.w3.org/2000/svg">
<path d="M27.4178 20.4875H25.5428V20.0688H25.3368V20.4875H23.4618V20.0688H23.2557V20.4875H21.3807V20.0688H21.1747V20.4875H19.2997V20.0688H19.0936V20.4875H17.2186V20.0688H17.0126V20.4875H15.1376V20.0688H14.9315V20.4875H13.0566V20.0688H12.8436V20.4875H10.9686V20.0688H10.7626V20.4875H8.88759V20.0688H8.68155V20.4875H6.80655V20.0688H6.60051V20.4875H4.7255V20.0688H4.51947V20.4875H2.64446V20.0688H2.41095V20.4875H1.05792C1.08539 20.5561 1.106 20.6247 1.13347 20.6934H3.24886V20.8993H1.22276C1.25023 20.9679 1.29144 21.0366 1.32578 21.1052H1.58677V21.5239H2.21177V21.3111H1.79282V21.1052H2.41095V21.7298H1.61424C4.08677 26.6302 9.14859 30.0002 15.014 30.0002C20.9137 30.0002 26.003 26.5891 28.4618 21.6405V21.3111H27.8368V21.5239H28.2557V21.7298H27.6307V21.1052H28.4686V20.6865H28.6747V21.2081C28.7434 21.0571 28.8189 20.913 28.8807 20.762V20.6865H28.9082C28.9357 20.6179 28.9563 20.5492 28.9838 20.4806H27.6307V20.062H27.4247V20.4875H27.4178ZM4.49885 21.7366H3.4549V21.318H2.8299V21.5307H3.24886V21.7366H2.62386V21.1121H3.4549V20.6934H3.66095V21.5239H3.86699V20.6934H4.07303V21.5239H4.27908V20.6934H4.49199V21.7366H4.49885ZM4.7049 20.6934H7.41095V20.8993H4.7049V20.6934ZM5.3299 21.7366H5.12386V21.5307H5.3299V21.7366ZM6.57991 21.7366H5.54281V21.318H4.91781V21.7366H4.71177V21.1121H5.75572V21.5307H6.38073V21.318H5.96177V21.1121H6.58677V21.7366H6.57991ZM8.66095 21.7366H7.61699V21.318H6.99199V21.5307H7.41095V21.7366H6.78594V21.1121H7.62386V20.6934H7.8299V21.5239H8.04281V20.6934H8.24886V21.5239H8.4549V20.6934H8.66095V21.7366ZM8.87386 20.6934H11.5799V20.8993H8.87386V20.6934ZM9.49886 21.7366H9.29282V21.5307H9.49886V21.7366ZM10.7489 21.7366H9.7049V21.318H9.07991V21.7366H8.87386V21.1121H9.91781V21.5307H10.5428V21.318H10.1239V21.1121H10.7489V21.7366ZM12.8299 21.7366H11.7928V21.318H11.1678V21.5307H11.5799V21.7366H10.9549V21.1121H11.7928V20.6934H11.9989V21.5239H12.2049V20.6934H12.4109V21.5239H12.617V20.6934H12.823V21.7366H12.8299ZM13.661 21.7366H13.4549V21.5307H13.661V21.7366ZM14.9178 21.7366H13.8739V21.318H13.2489V21.7366H13.0428V21.1121H14.0868V21.5307H14.7118V21.318H14.2997V21.1121H14.9247V21.7366H14.9178ZM13.0428 20.9061V20.7002H15.7489V20.9061H13.0428ZM16.9989 21.7366H15.9549V21.318H15.3299V21.5307H15.7489V21.7366H15.1239V21.1121H15.9618V20.6934H16.1678V21.5239H16.3739V20.6934H16.5799V21.5239H16.7859V20.6934H16.992V21.7366H16.9989ZM17.2118 20.6934H19.9247V20.8993H17.2118V20.6934ZM17.8368 21.7366H17.6307V21.5307H17.8368V21.7366ZM19.0868 21.7366H18.0428V21.318H17.4178V21.7366H17.2118V21.1121H18.2557V21.5307H18.8807V21.318H18.4618V21.1121H19.0868V21.7366ZM21.1678 21.7366H20.1239V21.318H19.4989V21.5307H19.9178V21.7366H19.2928V21.1121H20.1307V20.6934H20.3368V21.5239H20.5428V20.6934H20.7489V21.5239H20.9549V20.6934H21.1609V21.7366H21.1678ZM21.3739 20.6934H24.0868V20.8993H21.3739V20.6934ZM21.9989 21.7366H21.7928V21.5307H21.9989V21.7366ZM23.2489 21.7366H22.2049V21.318H21.5799V21.7366H21.3739V21.1121H22.4178V21.5307H23.0428V21.318H22.6239V21.1121H23.2489V21.7366ZM25.3368 21.7366H24.2928V21.318H23.6678V21.5307H24.0868V21.7366H23.4618V21.1121H24.2997V20.6934H24.5057V21.5239H24.7118V20.6934H24.9247V21.5239H25.1307V20.6934H25.3368V21.7366ZM26.1747 21.7366H25.9686V21.5307H26.1747V21.7366ZM27.4178 21.7366H26.3739V21.318H25.7489V21.7366H25.5428V21.1121H26.5868V21.5307H27.2118V21.318H26.7928V21.1121H27.4178V21.7366ZM28.2557 20.6934V20.8993H25.5428V20.6934H28.2557Z" fill="#DA0000"/>
<path d="M0.899907 20.0689H2.41089H2.61694H4.49194H4.69798H6.57298H6.77903H8.65402H8.86007H10.7351H10.9411H12.8161H13.029H14.904H15.1101H16.9851H17.1911H19.0661H19.2722H21.1472H21.3532H23.2282H23.4342H25.3092H25.5153H27.3903H27.5963H29.1005C29.6705 18.4834 30.0002 16.7813 30.0002 15.0037C30.0002 13.2192 29.6705 11.517 29.1005 9.93845H0.899907C0.329852 11.5239 0.000183105 13.226 0.000183105 15.0037C0.00705124 16.7881 0.329852 18.4834 0.899907 20.0689Z" fill="#F1F4FB"/>
<path d="M29.1348 9.93155H27.6306V9.51289H28.9837C28.9562 9.44426 28.9356 9.36877 28.9081 9.307H28.4686V8.88832H27.8436V9.09421H28.2556V9.30013H27.6306V8.67556H28.4617V8.35297C26.0098 3.40445 20.9136 0.000183105 15.0139 0.000183105C9.1485 0.000183105 4.07981 3.37014 1.61415 8.27062H3.24191V8.47651H1.51114C1.47679 8.54515 1.44245 8.61379 1.40811 8.68243H1.56608V9.10108H2.19107V8.89519H1.77213V8.68243H2.41086V9.307H1.3669V8.88832H1.31195C1.26388 8.99814 1.20207 9.10794 1.15399 9.22462V9.307H1.12652C1.09905 9.37563 1.07844 9.44426 1.05097 9.51289H2.41086V9.93155H0.899872H29.1348ZM4.49877 9.93155H2.62377V9.51289H4.49877V9.93155ZM4.49877 9.307H3.45482V8.88832H2.82982V9.09421H3.24877V9.30013H2.62377V8.67556H3.45482V8.25688H3.66086V9.08737H3.8669V8.25688H4.07295V9.08737H4.27899V8.25688H4.4919V9.307H4.49877ZM21.3738 8.26375H24.0867V8.46966H21.3738V8.26375ZM17.2117 8.26375H19.9246V8.46966H17.2117V8.26375ZM13.0427 8.26375H15.7556V8.46966H13.0427V8.26375ZM8.87377 8.26375H11.5867V8.46966H8.87377V8.26375ZM4.70481 8.27062H7.41772V8.47651H4.70481V8.27062ZM6.57982 9.93155H4.70481V9.51289H6.57982V9.93155ZM5.12377 9.307V9.10108H5.32982V9.307H5.12377ZM6.57982 9.307H5.54273V8.88832H4.91772V9.307H4.71169V8.68243H5.75564V9.10108H6.38064V8.89519H5.96168V8.68243H6.58669V9.307H6.57982ZM8.66086 9.93155H6.78586V9.51289H8.66086V9.93155ZM8.66086 9.307H7.61691V8.88832H6.9919V9.09421H7.41086V9.30013H6.78586V8.67556H7.62377V8.25688H7.82982V9.08737H8.04273V8.25688H8.24877V9.08737H8.45482V8.25003H8.66086V9.307ZM10.7488 9.93155H8.87377V9.51289H10.7488V9.93155ZM9.29273 9.307V9.10108H9.49878V9.307H9.29273ZM10.7488 9.307H9.70481V8.88832H9.07982V9.307H8.87377V8.68243H9.91772V9.10108H10.5427V8.89519H10.1238V8.68243H10.7488V9.307ZM12.8298 9.93155H10.9548V9.51289H12.8298V9.93155ZM12.8298 9.307H11.7927V8.88832H11.1677V9.09421H11.5867V9.30013H10.9617V8.67556H11.7996V8.25688H12.0056V9.08737H12.2117V8.25688H12.4177V9.08737H12.6238V8.25688H12.8298V9.307ZM14.9177 9.93155H13.0427V9.51289H14.9177V9.93155ZM13.4548 9.307V9.10108H13.6609V9.307H13.4548ZM14.9177 9.307H13.8738V8.88832H13.2488V9.307H13.0427V8.68243H14.0867V9.10108H14.7117V8.89519H14.2996V8.68243H14.9246V9.307H14.9177ZM16.9988 9.93155H15.1238V9.51289H16.9988V9.93155ZM16.9988 9.307H15.9548V8.88832H15.3298V9.09421H15.7488V9.30013H15.1238V8.67556H15.9617V8.25688H16.1677V9.08737H16.3738V8.25688H16.5798V9.08737H16.7859V8.25688H16.9919V9.307H16.9988ZM19.0867 9.93155H17.2117V9.51289H19.0867V9.93155ZM17.6238 9.307V9.10108H17.8367V9.307H17.6238ZM19.0867 9.307H18.0427V8.88832H17.4177V9.307H17.2117V8.68243H18.2556V9.10108H18.8806V8.89519H18.4617V8.68243H19.0867V9.307ZM21.1677 9.93155H19.2927V9.51289H21.1677V9.93155ZM21.1677 9.307H20.1238V8.88832H19.4988V9.09421H19.9177V9.30013H19.2927V8.67556H20.1306V8.25688H20.3367V9.08737H20.5427V8.25688H20.7488V9.08737H20.9548V8.25688H21.1609V9.307H21.1677ZM23.2488 9.93155H21.3738V9.51289H23.2488V9.93155ZM21.7927 9.307V9.10108H21.9988V9.307H21.7927ZM23.2488 9.307H22.2048V8.88832H21.5798V9.307H21.3738V8.68243H22.4177V9.10108H23.0427V8.89519H22.6238V8.68243H23.2488V9.307ZM25.3367 9.93155H23.4617V9.51289H25.3367V9.93155ZM25.3367 9.307H24.2927V8.88832H23.6677V9.09421H24.0867V9.30013H23.4617V8.67556H24.2927V8.25688H24.4988V9.08737H24.7048V8.25688H24.9177V9.08737H25.1238V8.25688H25.3298V9.307H25.3367ZM25.5427 8.26375H28.2488V8.46966H25.5427V8.26375ZM27.4177 9.93155H25.5427V9.51289H27.4177V9.93155ZM25.9617 9.307V9.10108H26.1677V9.307H25.9617ZM27.4177 9.307H26.3738V8.88832H25.7488V9.307H25.5427V8.68243H26.5867V9.10108H27.2117V8.89519H26.7927V8.68243H27.4177V9.307Z" fill="#239F40"/>
<path d="M12.6238 21.5313H12.4178V20.6934H12.2049V21.5313H11.9988V20.6934H11.7928V21.1124H10.9549V21.7374H11.5799V21.5313H11.1609V21.3184H11.7928V21.7374H12.8299V20.6934H12.6238V21.5313Z" fill="#DA0000"/>
<path d="M4.28593 21.5313H4.07988V20.6934H3.86697V21.5313H3.66093V20.6934H3.45489V21.1124H2.61697V21.7374H3.24198V21.5313H2.82988V21.3184H3.45489V21.7374H4.49884V20.6934H4.28593V21.5313Z" fill="#DA0000"/>
<path d="M6.57987 20.0688H4.70486V20.4878H6.57987V20.0688Z" fill="#DA0000"/>
<path d="M5.32302 21.5308H5.11697V21.7368H5.32302V21.5308Z" fill="#DA0000"/>
<path d="M4.49197 20.0688H2.61697V20.4878H4.49197V20.0688Z" fill="#DA0000"/>
<path d="M9.49883 21.5308H9.29279V21.7368H9.49883V21.5308Z" fill="#DA0000"/>
<path d="M11.5799 20.6934H8.87387V20.8995H11.5799V20.6934Z" fill="#DA0000"/>
<path d="M8.45491 21.5313H8.24887V20.6934H8.03595V21.5313H7.82991V20.6934H7.62386V21.1124H6.78595V21.7374H7.41095V21.5313H6.99886V21.3184H7.62386V21.7374H8.66096V20.6934H8.45491V21.5313Z" fill="#DA0000"/>
<path d="M5.95487 21.3181H6.37383V21.531H5.74882V21.1121H4.70486V21.7371H4.91091V21.3181H5.53591V21.7371H6.57987V21.1121H5.95487V21.3181Z" fill="#DA0000"/>
<path d="M7.41091 20.6934H4.70486V20.8995H7.41091V20.6934Z" fill="#DA0000"/>
<path d="M23.2488 20.0688H21.3738V20.4878H23.2488V20.0688Z" fill="#DA0000"/>
<path d="M8.66096 20.0688H6.78595V20.4878H8.66096V20.0688Z" fill="#DA0000"/>
<path d="M19.0867 20.0688H17.2117V20.4878H19.0867V20.0688Z" fill="#DA0000"/>
<path d="M25.3367 20.0688H23.4617V20.4878H25.3367V20.0688Z" fill="#DA0000"/>
<path d="M27.4178 20.0688H25.5428V20.4878H27.4178V20.0688Z" fill="#DA0000"/>
<path d="M21.1678 20.0688H19.2928V20.4878H21.1678V20.0688Z" fill="#DA0000"/>
<path d="M12.8299 20.0688H10.9549V20.4878H12.8299V20.0688Z" fill="#DA0000"/>
<path d="M10.7489 20.0688H8.87387V20.4878H10.7489V20.0688Z" fill="#DA0000"/>
<path d="M14.9178 20.0688H13.0428V20.4878H14.9178V20.0688Z" fill="#DA0000"/>
<path d="M16.9988 20.0688H15.1238V20.4878H16.9988V20.0688Z" fill="#DA0000"/>
<path d="M10.1239 21.3181H10.5428V21.531H9.91782V21.1121H8.87387V21.7371H9.07992V21.3181H9.70491V21.7371H10.7489V21.1121H10.1239V21.3181Z" fill="#DA0000"/>
<path d="M24.0868 20.6934H21.3738V20.8995H24.0868V20.6934Z" fill="#DA0000"/>
<path d="M25.1307 21.5313H24.9178V20.6934H24.7117V21.5313H24.5057V20.6934H24.2928V21.1124H23.4617V21.7374H24.0867V21.5313H23.6678V21.3184H24.2928V21.7374H25.3367V20.6934H25.1307V21.5313Z" fill="#DA0000"/>
<path d="M22.6307 21.3181H23.0428V21.531H22.4178V21.1121H21.3738V21.7371H21.5868V21.3181H22.2118V21.7371H23.2488V21.1121H22.6307V21.3181Z" fill="#DA0000"/>
<path d="M21.9988 21.5308H21.7928V21.7368H21.9988V21.5308Z" fill="#DA0000"/>
<path d="M26.1678 21.5308H25.9618V21.7368H26.1678V21.5308Z" fill="#DA0000"/>
<path d="M26.7928 21.3181H27.2117V21.531H26.5867V21.1121H25.5428V21.7371H25.7557V21.3181H26.3807V21.7371H27.4178V21.1121H26.7928V21.3181Z" fill="#DA0000"/>
<path d="M28.2557 20.6934H25.5428V20.8995H28.2557V20.6934Z" fill="#DA0000"/>
<path d="M13.6609 21.5308H13.4549V21.7368H13.6609V21.5308Z" fill="#DA0000"/>
<path d="M16.7928 21.5313H16.5868V20.6934H16.3738V21.5313H16.1678V20.6934H15.9618V21.1124H15.1238V21.7374H15.7488V21.5313H15.3299V21.3184H15.9618V21.7374H16.9988V20.6934H16.7928V21.5313Z" fill="#DA0000"/>
<path d="M15.7488 20.6934H13.0428V20.8995H15.7488V20.6934Z" fill="#DA0000"/>
<path d="M14.2928 21.3181H14.7048V21.531H14.0867V21.1121H13.0428V21.7371H13.2488V21.3181H13.8738V21.7371H14.9178V21.1121H14.2928V21.3181Z" fill="#DA0000"/>
<path d="M19.9246 20.6934H17.2117V20.8995H19.9246V20.6934Z" fill="#DA0000"/>
<path d="M20.9617 21.5313H20.7488V20.6934H20.5427V21.5313H20.3367V20.6934H20.1238V21.1124H19.2928V21.7374H19.9178V21.5313H19.4988V21.3184H20.1238V21.7374H21.1678V20.6934H20.9617V21.5313Z" fill="#DA0000"/>
<path d="M18.4617 21.3181H18.8738V21.531H18.2488V21.1121H17.2117V21.7371H17.4178V21.3181H18.0428V21.7371H19.0867V21.1121H18.4617V21.3181Z" fill="#DA0000"/>
<path d="M17.8299 21.5308H17.6239V21.7368H17.8299V21.5308Z" fill="#DA0000"/>
<path d="M10.1239 8.89534H10.5428V9.10138H9.91782V8.68243H8.87387V9.30744H9.07992V8.89534H9.70491V9.30744H10.7489V8.68243H10.1239V8.89534Z" fill="#239F40"/>
<path d="M9.49883 9.1011H9.29279V9.30716H9.49883V9.1011Z" fill="#239F40"/>
<path d="M8.66096 9.51978H6.78595V9.93872H8.66096V9.51978Z" fill="#239F40"/>
<path d="M8.45491 9.10168H8.24887V8.27064H8.03595V9.10168H7.82991V8.27064H7.62386V8.68273H6.78595V9.30773H7.41095V9.10168H6.99886V8.89564H7.62386V9.30773H8.66096V8.26376H8.45491V9.10168Z" fill="#239F40"/>
<path d="M10.7489 9.51978H8.87387V9.93872H10.7489V9.51978Z" fill="#239F40"/>
<path d="M12.8299 9.51978H10.9549V9.93872H12.8299V9.51978Z" fill="#239F40"/>
<path d="M14.9178 9.51978H13.0428V9.93872H14.9178V9.51978Z" fill="#239F40"/>
<path d="M12.6238 9.10168H12.4178V8.26376H12.2049V9.10168H11.9988V8.26376H11.7928V8.68273H10.9549V9.30773H11.5799V9.10168H11.1609V8.89564H11.7928V9.30773H12.8299V8.26376H12.6238V9.10168Z" fill="#239F40"/>
<path d="M14.2928 8.89534H14.7048V9.10138H14.0867V8.68243H13.0428V9.30744H13.2488V8.89534H13.8738V9.30744H14.9178V8.68243H14.2928V8.89534Z" fill="#239F40"/>
<path d="M13.6609 9.1011H13.4549V9.30716H13.6609V9.1011Z" fill="#239F40"/>
<path d="M24.0868 8.26376H21.3738V8.46982H24.0868V8.26376Z" fill="#239F40"/>
<path d="M4.28593 9.10167H4.07988V8.27063H3.86697V9.10167H3.66093V8.27063H3.45489V8.68272H2.61697V9.30772H3.24884V9.10167H2.82988V8.89563H3.45489V9.30772H4.49884V8.27063H4.28593V9.10167Z" fill="#239F40"/>
<path d="M4.49197 9.51978H2.61697V9.93872H4.49197V9.51978Z" fill="#239F40"/>
<path d="M5.32992 9.1011H5.12387V9.30716H5.32992V9.1011Z" fill="#239F40"/>
<path d="M19.9246 8.26376H17.2117V8.46982H19.9246V8.26376Z" fill="#239F40"/>
<path d="M15.7557 8.26376H13.0428V8.46982H15.7557V8.26376Z" fill="#239F40"/>
<path d="M6.57987 9.51978H4.70486V9.93872H6.57987V9.51978Z" fill="#239F40"/>
<path d="M7.41777 8.27063H4.70486V8.47667H7.41777V8.27063Z" fill="#239F40"/>
<path d="M11.5868 8.26376H8.87387V8.46982H11.5868V8.26376Z" fill="#239F40"/>
<path d="M5.95487 8.89534H6.37383V9.10138H5.74882V8.68243H4.70486V9.30744H4.91091V8.89534H5.53591V9.30744H6.57987V8.68243H5.95487V8.89534Z" fill="#239F40"/>
<path d="M28.2488 8.26376H25.5428V8.46982H28.2488V8.26376Z" fill="#239F40"/>
<path d="M16.9988 9.51978H15.1238V9.93872H16.9988V9.51978Z" fill="#239F40"/>
<path d="M25.3367 9.51291H23.4617V9.93185H25.3367V9.51291Z" fill="#239F40"/>
<path d="M27.4178 9.51291H25.5428V9.93185H27.4178V9.51291Z" fill="#239F40"/>
<path d="M22.6307 8.88847H23.0428V9.10138H22.4178V8.68243H21.3738V9.30744H21.5868V8.89534L22.2118 8.88847V9.30744H23.2488V8.68243H22.6307V8.88847Z" fill="#239F40"/>
<path d="M26.1678 9.1011H25.9618V9.30716H26.1678V9.1011Z" fill="#239F40"/>
<path d="M26.7928 8.88847H27.2117V9.10138H26.5867V8.68243H25.5428V9.30744H25.7557V8.88847H26.3807V9.30744H27.4178V8.68243H26.7928V8.88847Z" fill="#239F40"/>
<path d="M25.1307 9.10168H24.9178V8.26376H24.7117V9.10168H24.5057V8.26376H24.2928V8.68273H23.4617V9.30773H24.0867V9.10168H23.6678V8.88877H24.2928V9.30773H25.3367V8.26376H25.1307V9.10168Z" fill="#239F40"/>
<path d="M17.8368 9.1011H17.6239V9.30716H17.8368V9.1011Z" fill="#239F40"/>
<path d="M19.0867 9.51978H17.2117V9.93872H19.0867V9.51978Z" fill="#239F40"/>
<path d="M21.9988 9.1011H21.7928V9.30716H21.9988V9.1011Z" fill="#239F40"/>
<path d="M16.7928 9.10168H16.5868V8.26376H16.3738V9.10168H16.1678V8.26376H15.9618V8.68273H15.1238V9.30773H15.7488V9.10168H15.3299V8.89564H15.9618V9.30773H16.9988V8.26376H16.7928V9.10168Z" fill="#239F40"/>
<path d="M18.4617 8.89534H18.8738V9.10138H18.2488V8.68243H17.2117V9.30744H17.4178V8.89534H18.0428V9.30744H19.0867V8.68243H18.4617V8.89534Z" fill="#239F40"/>
<path d="M23.2488 9.51291H21.3738V9.93185H23.2488V9.51291Z" fill="#239F40"/>
<path d="M21.1678 9.51978H19.2928V9.93872H21.1678V9.51978Z" fill="#239F40"/>
<path d="M20.9617 9.10168H20.7488V8.26376H20.5427V9.10168H20.3367V8.26376H20.1238V8.68273H19.2928V9.30773H19.9178V9.10168H19.4988V8.89564H20.1238V9.30773H21.1678V8.26376H20.9617V9.10168Z" fill="#239F40"/>
<path d="M4.28593 9.10167H4.07988V8.27063H3.86697V9.10167H3.66093V8.27063H3.45489V8.68272H2.61697V9.30772H3.24884V9.10167H2.82988V8.89563H3.45489V9.30772H4.49884V8.27063H4.28593V9.10167Z" fill="#F1F4FB"/>
<path d="M3.24884 8.27063H1.62109C1.58675 8.33931 1.55241 8.40798 1.51807 8.47667H3.24884V8.27063Z" fill="#F1F4FB"/>
<path d="M1.16089 9.22461C1.14715 9.25208 1.14029 9.27957 1.13342 9.30704H1.16089V9.22461Z" fill="#F1F4FB"/>
<path d="M1.36692 9.30744H2.41088V8.68243H1.78588V8.89534H2.20483V9.10138H1.57983V8.68243H1.42187C1.38752 8.75112 1.35319 8.8198 1.31885 8.89534H1.37379V9.30744H1.36692Z" fill="#F1F4FB"/>
<path d="M7.41777 8.27063H4.70486V8.47667H7.41777V8.27063Z" fill="#F1F4FB"/>
<path d="M8.45491 9.10168H8.24887V8.27064H8.03595V9.10168H7.82991V8.27064H7.62386V8.68273H6.78595V9.30773H7.41095V9.10168H6.99886V8.89564H7.62386V9.30773H8.66096V8.26376H8.45491V9.10168Z" fill="#F1F4FB"/>
<path d="M4.91091 8.89534H5.53591V9.30744H6.57987V8.68243H5.95487V8.89534H6.37383V9.10138H5.74882V8.68243H4.70486V9.30744H4.91091V8.89534Z" fill="#F1F4FB"/>
<path d="M5.32992 9.1011H5.12387V9.30716H5.32992V9.1011Z" fill="#F1F4FB"/>
<path d="M11.5868 8.26376H8.87387V8.46982H11.5868V8.26376Z" fill="#F1F4FB"/>
<path d="M9.49883 9.1011H9.29279V9.30716H9.49883V9.1011Z" fill="#F1F4FB"/>
<path d="M9.07992 8.89534H9.70491V9.30744H10.7489V8.68243H10.1239V8.89534H10.5428V9.10138H9.91782V8.68243H8.87387V9.30744H9.07992V8.89534Z" fill="#F1F4FB"/>
<path d="M12.6238 9.10168H12.4178V8.26376H12.2049V9.10168H11.9988V8.26376H11.7928V8.68273H10.9549V9.30773H11.5799V9.10168H11.1609V8.89564H11.7928V9.30773H12.8299V8.26376H12.6238V9.10168Z" fill="#F1F4FB"/>
<path d="M13.6609 9.1011H13.4549V9.30716H13.6609V9.1011Z" fill="#F1F4FB"/>
<path d="M13.2488 8.89534H13.8738V9.30744H14.9178V8.68243H14.2928V8.89534H14.7048V9.10138H14.0867V8.68243H13.0428V9.30744H13.2488V8.89534Z" fill="#F1F4FB"/>
<path d="M16.7928 9.10168H16.5868V8.26376H16.3738V9.10168H16.1678V8.26376H15.9618V8.68273H15.1238V9.30773H15.7488V9.10168H15.3299V8.89564H15.9618V9.30773H16.9988V8.26376H16.7928V9.10168Z" fill="#F1F4FB"/>
<path d="M15.7557 8.26376H13.0428V8.46982H15.7557V8.26376Z" fill="#F1F4FB"/>
<path d="M17.8368 9.1011H17.6239V9.30716H17.8368V9.1011Z" fill="#F1F4FB"/>
<path d="M17.4178 8.89534H18.0428V9.30744H19.0867V8.68243H18.4617V8.89534H18.8738V9.10138H18.2488V8.68243H17.2117V9.30744H17.4178V8.89534Z" fill="#F1F4FB"/>
<path d="M20.9617 9.10168H20.7488V8.26376H20.5427V9.10168H20.3367V8.26376H20.1238V8.68273H19.2928V9.30773H19.9178V9.10168H19.4988V8.89564H20.1238V9.30773H21.1678V8.26376H20.9617V9.10168Z" fill="#F1F4FB"/>
<path d="M19.9246 8.26376H17.2117V8.46982H19.9246V8.26376Z" fill="#F1F4FB"/>
<path d="M21.5868 8.89534L22.2118 8.88847V9.30744H23.2488V8.68243H22.6307V8.88847H23.0428V9.10138H22.4178V8.68243H21.3738V9.30744H21.5868V8.89534Z" fill="#F1F4FB"/>
<path d="M25.1307 9.10168H24.9178V8.26376H24.7117V9.10168H24.5057V8.26376H24.2928V8.68273H23.4617V9.30773H24.0867V9.10168H23.6678V8.88877H24.2928V9.30773H25.3367V8.26376H25.1307V9.10168Z" fill="#F1F4FB"/>
<path d="M21.9988 9.1011H21.7928V9.30716H21.9988V9.1011Z" fill="#F1F4FB"/>
<path d="M24.0868 8.26376H21.3738V8.46982H24.0868V8.26376Z" fill="#F1F4FB"/>
<path d="M26.1678 9.1011H25.9618V9.30716H26.1678V9.1011Z" fill="#F1F4FB"/>
<path d="M28.2488 8.26376H25.5428V8.46982H28.2488V8.26376Z" fill="#F1F4FB"/>
<path d="M27.6307 8.68271V9.30771H28.2557V9.10166H27.8436V8.89562H28.4687V9.31457H28.9082C28.8807 9.24588 28.8533 9.17721 28.8258 9.10853H28.6747V8.79946C28.606 8.65523 28.5373 8.51099 28.4687 8.36676V8.68956H27.6307V8.68271Z" fill="#F1F4FB"/>
<path d="M25.7557 8.88847H26.3807V9.30744H27.4178V8.68243H26.7928V8.88847H27.2117V9.10138H26.5867V8.68243H25.5428V9.30744H25.7557V8.88847Z" fill="#F1F4FB"/>
<path d="M4.49197 9.51978H2.61697V9.93872H4.49197V9.51978Z" fill="#F1F4FB"/>
<path d="M2.41095 9.51978H1.05793C1.00298 9.65714 0.954907 9.79449 0.90683 9.93872H2.41782V9.51978H2.41095Z" fill="#F1F4FB"/>
<path d="M6.57987 9.51978H4.70486V9.93872H6.57987V9.51978Z" fill="#F1F4FB"/>
<path d="M8.66096 9.51978H6.78595V9.93872H8.66096V9.51978Z" fill="#F1F4FB"/>
<path d="M12.8299 9.51978H10.9549V9.93872H12.8299V9.51978Z" fill="#F1F4FB"/>
<path d="M10.7489 9.51978H8.87387V9.93872H10.7489V9.51978Z" fill="#F1F4FB"/>
<path d="M16.9988 9.51978H15.1238V9.93872H16.9988V9.51978Z" fill="#F1F4FB"/>
<path d="M14.9178 9.51978H13.0428V9.93872H14.9178V9.51978Z" fill="#F1F4FB"/>
<path d="M19.0867 9.51978H17.2117V9.93872H19.0867V9.51978Z" fill="#F1F4FB"/>
<path d="M21.1678 9.51978H19.2928V9.93872H21.1678V9.51978Z" fill="#F1F4FB"/>
<path d="M23.2488 9.51291H21.3738V9.93185H23.2488V9.51291Z" fill="#F1F4FB"/>
<path d="M25.3367 9.51291H23.4617V9.93185H25.3367V9.51291Z" fill="#F1F4FB"/>
<path d="M27.4178 9.51291H25.5428V9.93185H27.4178V9.51291Z" fill="#F1F4FB"/>
<path d="M27.6307 9.93185H29.1349C29.0868 9.79449 29.0387 9.65027 28.9838 9.51291H27.6307V9.93185Z" fill="#F1F4FB"/>
<path d="M4.28593 21.5313H4.07988V20.6934H3.86697V21.5313H3.66093V20.6934H3.45489V21.1124H2.61697V21.7374H3.24198V21.5313H2.82988V21.3184H3.45489V21.7374H4.49884V20.6934H4.28593V21.5313Z" fill="#F1F4FB"/>
<path d="M2.41088 21.1121H1.78588V21.3181H2.20483V21.531H1.57983V21.1121H1.31885C1.415 21.325 1.51803 21.531 1.62105 21.7371H2.41088V21.1121Z" fill="#F1F4FB"/>
<path d="M3.242 20.6934H1.12662C1.15409 20.7621 1.18156 20.8308 1.20903 20.8995H3.23513V20.6934H3.242Z" fill="#F1F4FB"/>
<path d="M5.95487 21.3181H6.37383V21.531H5.74882V21.1121H4.70486V21.7371H4.91091V21.3181H5.53591V21.7371H6.57987V21.1121H5.95487V21.3181Z" fill="#F1F4FB"/>
<path d="M5.32302 21.5308H5.11697V21.7368H5.32302V21.5308Z" fill="#F1F4FB"/>
<path d="M7.41091 20.6934H4.70486V20.8995H7.41091V20.6934Z" fill="#F1F4FB"/>
<path d="M8.45491 21.5313H8.24887V20.6934H8.03595V21.5313H7.82991V20.6934H7.62386V21.1124H6.78595V21.7374H7.41095V21.5313H6.99886V21.3184H7.62386V21.7374H8.66096V20.6934H8.45491V21.5313Z" fill="#F1F4FB"/>
<path d="M11.5799 20.6934H8.87387V20.8995H11.5799V20.6934Z" fill="#F1F4FB"/>
<path d="M10.1239 21.3181H10.5428V21.531H9.91782V21.1121H8.87387V21.7371H9.07992V21.3181H9.70491V21.7371H10.7489V21.1121H10.1239V21.3181Z" fill="#F1F4FB"/>
<path d="M12.6238 21.5313H12.4178V20.6934H12.2049V21.5313H11.9988V20.6934H11.7928V21.1124H10.9549V21.7374H11.5799V21.5313H11.1609V21.3184H11.7928V21.7374H12.8299V20.6934H12.6238V21.5313Z" fill="#F1F4FB"/>
<path d="M9.49883 21.5308H9.29279V21.7368H9.49883V21.5308Z" fill="#F1F4FB"/>
<path d="M14.2928 21.3181H14.7048V21.531H14.0867V21.1121H13.0428V21.7371H13.2488V21.3181H13.8738V21.7371H14.9178V21.1121H14.2928V21.3181Z" fill="#F1F4FB"/>
<path d="M15.7488 20.6934H13.0428V20.8995H15.7488V20.6934Z" fill="#F1F4FB"/>
<path d="M16.7928 21.5313H16.5868V20.6934H16.3738V21.5313H16.1678V20.6934H15.9618V21.1124H15.1238V21.7374H15.7488V21.5313H15.3299V21.3184H15.9618V21.7374H16.9988V20.6934H16.7928V21.5313Z" fill="#F1F4FB"/>
<path d="M13.6609 21.5308H13.4549V21.7368H13.6609V21.5308Z" fill="#F1F4FB"/>
<path d="M18.4617 21.3181H18.8738V21.531H18.2488V21.1121H17.2117V21.7371H17.4178V21.3181H18.0428V21.7371H19.0867V21.1121H18.4617V21.3181Z" fill="#F1F4FB"/>
<path d="M20.9617 21.5313H20.7488V20.6934H20.5427V21.5313H20.3367V20.6934H20.1238V21.1124H19.2928V21.7374H19.9178V21.5313H19.4988V21.3184H20.1238V21.7374H21.1678V20.6934H20.9617V21.5313Z" fill="#F1F4FB"/>
<path d="M19.9246 20.6934H17.2117V20.8995H19.9246V20.6934Z" fill="#F1F4FB"/>
<path d="M17.8299 21.5308H17.6239V21.7368H17.8299V21.5308Z" fill="#F1F4FB"/>
<path d="M21.9988 21.5308H21.7928V21.7368H21.9988V21.5308Z" fill="#F1F4FB"/>
<path d="M24.0868 20.6934H21.3738V20.8995H24.0868V20.6934Z" fill="#F1F4FB"/>
<path d="M25.1307 21.5313H24.9178V20.6934H24.7117V21.5313H24.5057V20.6934H24.2928V21.1124H23.4617V21.7374H24.0867V21.5313H23.6678V21.3184H24.2928V21.7374H25.3367V20.6934H25.1307V21.5313Z" fill="#F1F4FB"/>
<path d="M22.6307 21.3181H23.0428V21.531H22.4178V21.1121H21.3738V21.7371H21.5868V21.3181H22.2118V21.7371H23.2488V21.1121H22.6307V21.3181Z" fill="#F1F4FB"/>
<path d="M28.8807 20.769C28.8876 20.7415 28.8944 20.7209 28.9082 20.6934H28.8807V20.769Z" fill="#F1F4FB"/>
<path d="M26.7928 21.3181H27.2117V21.531H26.5867V21.1121H25.5428V21.7371H25.7557V21.3181H26.3807V21.7371H27.4178V21.1121H26.7928V21.3181Z" fill="#F1F4FB"/>
<path d="M28.6747 20.6934H28.4687V21.1124H27.6307V21.7374H28.2557V21.5313H27.8368V21.3184H28.4618V21.6481C28.5305 21.5038 28.606 21.3596 28.6678 21.2154V20.6934H28.6747Z" fill="#F1F4FB"/>
<path d="M26.1678 21.5308H25.9618V21.7368H26.1678V21.5308Z" fill="#F1F4FB"/>
<path d="M28.2557 20.6934H25.5428V20.8995H28.2557V20.6934Z" fill="#F1F4FB"/>
<path d="M4.49197 20.0688H2.61697V20.4878H4.49197V20.0688Z" fill="#F1F4FB"/>
<path d="M2.41092 20.0688H0.899933C0.94801 20.2062 0.996088 20.3504 1.05103 20.4878H2.41092V20.0688Z" fill="#F1F4FB"/>
<path d="M6.57987 20.0688H4.70486V20.4878H6.57987V20.0688Z" fill="#F1F4FB"/>
<path d="M8.66096 20.0688H6.78595V20.4878H8.66096V20.0688Z" fill="#F1F4FB"/>
<path d="M10.7489 20.0688H8.87387V20.4878H10.7489V20.0688Z" fill="#F1F4FB"/>
<path d="M12.8299 20.0688H10.9549V20.4878H12.8299V20.0688Z" fill="#F1F4FB"/>
<path d="M16.9988 20.0688H15.1238V20.4878H16.9988V20.0688Z" fill="#F1F4FB"/>
<path d="M14.9178 20.0688H13.0428V20.4878H14.9178V20.0688Z" fill="#F1F4FB"/>
<path d="M21.1678 20.0688H19.2928V20.4878H21.1678V20.0688Z" fill="#F1F4FB"/>
<path d="M19.0867 20.0688H17.2117V20.4878H19.0867V20.0688Z" fill="#F1F4FB"/>
<path d="M23.2488 20.0688H21.3738V20.4878H23.2488V20.0688Z" fill="#F1F4FB"/>
<path d="M25.3367 20.0688H23.4617V20.4878H25.3367V20.0688Z" fill="#F1F4FB"/>
<path d="M27.6307 20.0688V20.4878H28.9838C29.0387 20.3504 29.0868 20.2131 29.1349 20.0688H27.6307Z" fill="#F1F4FB"/>
<path d="M27.4178 20.0688H25.5428V20.4878H27.4178V20.0688Z" fill="#F1F4FB"/>
<path d="M16.1199 10.563C16.1199 10.563 16.1337 10.618 16.1337 10.6454C16.1611 10.8721 16.065 11.1125 15.8795 11.243C15.7422 11.346 15.5636 11.3941 15.3919 11.3666C15.2477 11.346 15.1172 11.2773 15.0142 11.1812C14.918 11.2842 14.7806 11.3529 14.6364 11.3666C14.4716 11.3872 14.2999 11.346 14.1625 11.2498C13.9427 11.0987 13.8397 10.8103 13.9084 10.5562C13.9427 10.6042 13.9771 10.6523 14.0183 10.6935C14.1488 10.824 14.3205 10.8996 14.4991 10.9064C14.6776 10.9202 14.8631 10.8652 15.0073 10.7553C15.076 10.8034 15.1653 10.8446 15.2477 10.8721C15.4331 10.927 15.6392 10.9064 15.804 10.824C15.9414 10.7828 16.0513 10.6798 16.1199 10.563Z" fill="#DA0000"/>
<path d="M14.4716 11.7641C14.657 11.6131 14.8424 11.469 15.021 11.318C15.2065 11.469 15.3919 11.6131 15.5773 11.7641C15.5636 12.3613 15.5636 12.9446 15.5499 13.5418C15.5499 13.7957 15.543 14.0497 15.5361 14.3036C15.5293 14.9831 15.5155 15.6626 15.5087 16.3421C15.5018 16.6097 15.5018 16.8774 15.4949 17.1382C15.4949 17.351 15.4949 17.5568 15.488 17.7696C15.5499 17.7284 15.6048 17.6804 15.6529 17.6392C15.9688 17.3784 16.2504 17.0696 16.4839 16.7333C16.8617 16.1773 17.1158 15.539 17.2188 14.8733C17.3424 14.0702 17.2394 13.2261 16.9235 12.4779C16.793 12.1554 16.6144 11.8465 16.4084 11.5651C16.8273 11.8945 17.1845 12.3132 17.4386 12.7799C17.7889 13.4114 17.9743 14.132 17.9606 14.8458C17.9537 15.8822 17.5348 16.9048 16.8205 17.6529C16.5251 17.9618 16.1817 18.2226 15.804 18.4354C16.4359 18.655 17.1158 18.7236 17.782 18.6481C17.5279 18.7511 17.26 18.8266 16.9922 18.8747C16.4908 18.9707 15.9757 18.9639 15.4743 18.8747C15.4743 18.8952 15.4743 18.9227 15.4537 18.9364C15.3095 19.1011 15.1653 19.2659 15.021 19.4375C14.8768 19.2659 14.7257 19.1011 14.5815 18.9295C14.5677 18.9158 14.5746 18.8952 14.5677 18.8747C14.5128 18.8815 14.4647 18.8952 14.4098 18.9021C13.6886 19.0119 12.9331 18.9227 12.26 18.6481C12.5622 18.6825 12.8713 18.6825 13.1666 18.6619C13.5306 18.6276 13.8878 18.5521 14.2312 18.4354C14.1419 18.3805 14.0526 18.3324 13.9633 18.2775C13.3864 17.9069 12.9056 17.3853 12.576 16.7813C12.2257 16.1362 12.0471 15.388 12.0746 14.6536C12.0952 13.9947 12.2806 13.3359 12.6034 12.7662C12.8644 12.3063 13.2147 11.8945 13.6268 11.5651C13.5924 11.62 13.5512 11.6749 13.5169 11.7298C13.1048 12.3407 12.8507 13.0545 12.782 13.7889C12.7065 14.6193 12.8644 15.4704 13.2353 16.2116C13.5375 16.8225 13.9908 17.3647 14.5334 17.7765C14.5334 17.598 14.5334 17.4196 14.5334 17.2412C14.5196 17.0078 14.5265 16.7744 14.5196 16.5411C14.5128 15.8547 14.499 15.1684 14.4922 14.482C14.4922 14.2281 14.4784 13.9673 14.4784 13.7134C14.4853 13.0682 14.4784 12.4162 14.4716 11.7641Z" fill="#DA0000"/>
<path d="M11.5457 12.3407C11.9784 11.9014 12.5347 11.5857 13.1254 11.421C13.0773 11.4553 13.0361 11.4896 12.988 11.5239C12.4935 11.9151 12.0814 12.4093 11.7861 12.9652C11.4839 13.5418 11.3122 14.1869 11.2847 14.8321C11.2435 15.6626 11.4427 16.5067 11.8548 17.2274C11.999 17.4814 12.1707 17.7216 12.3562 17.9412C12.26 17.8931 12.1707 17.8382 12.0814 17.7833C11.4977 17.3921 11.0306 16.8225 10.7628 16.1773C10.5979 15.7792 10.5086 15.3537 10.5018 14.9282V14.736C10.5086 14.4477 10.5567 14.1526 10.6323 13.8712C10.804 13.3015 11.113 12.7662 11.5457 12.3407Z" fill="#DA0000"/>
<path d="M16.9097 11.4278C16.9646 11.4416 17.0196 11.4621 17.0814 11.4759C17.4454 11.5925 17.7888 11.771 18.0979 11.9975C18.5649 12.3407 18.9427 12.8005 19.1899 13.3221C19.4097 13.7682 19.5265 14.2624 19.5402 14.7634V14.935C19.5333 15.086 19.5196 15.2439 19.499 15.3949C19.4372 15.793 19.3067 16.1842 19.1075 16.5411C18.7847 17.145 18.2765 17.6461 17.6789 17.9687C18.0498 17.5363 18.3383 17.0352 18.5237 16.493C18.7092 15.9577 18.7916 15.3949 18.7641 14.8321C18.7298 14.1801 18.5512 13.5349 18.249 12.9515C17.9193 12.3475 17.4591 11.819 16.9097 11.4278Z" fill="#DA0000"/>
</svg>
