<svg width="30" height="30" viewBox="0 0 30 30" fill="none" xmlns="http://www.w3.org/2000/svg">
<path d="M7.50513 2.01715C4.06813 4.00663 1.49553 7.3133 0.480209 11.2511H7.50513V2.01715Z" fill="#00529B"/>
<path d="M15.0034 11.2511H29.5267C27.8665 4.78871 21.9941 0.0070739 15.0103 0.000213623H15.0034V11.2511Z" fill="#00529B"/>
<path d="M15.0034 30.0002H15.0103C21.9941 29.9934 27.8596 25.2186 29.5267 18.7494H15.0034V30.0002Z" fill="#00529B"/>
<path d="M0.473328 18.7494C1.48865 22.6872 4.06125 26.0007 7.49825 27.9833V18.7494H0.473328Z" fill="#00529B"/>
<path d="M15.0034 18.7494H29.5266C29.6844 18.1388 29.8011 17.5145 29.8765 16.8765H13.1237V29.8768C13.7343 29.9522 14.3654 30.0002 14.9965 30.0002V18.7494H15.0034Z" fill="white"/>
<path d="M0.12355 16.8765C0.205874 17.5145 0.315645 18.1388 0.473432 18.7494H7.49835V27.9833C8.10206 28.3332 8.72633 28.635 9.3712 28.9026V16.8765H0.12355Z" fill="white"/>
<path d="M29.8766 13.1308C29.7942 12.4928 29.6845 11.8685 29.5267 11.2579H15.0034V0.00708008C14.3654 0.00708008 13.7411 0.0482368 13.1306 0.13056V13.1308H29.8766Z" fill="white"/>
<path d="M9.37808 1.09784C8.72635 1.35853 8.10208 1.66724 7.50524 2.01711V11.2511H0.480313C0.322527 11.8616 0.205895 12.4859 0.130432 13.1239H9.38495V1.09784H9.37808Z" fill="white"/>
<path d="M29.8766 16.8765C29.952 16.2591 30 15.6348 30 15.0037C30 14.3657 29.9589 13.7414 29.8766 13.1308H13.1237V0.130585C11.8134 0.295231 10.558 0.624534 9.37804 1.10475V13.1308H0.123522C0.0480588 13.7414 0 14.3725 0 15.0037C0 15.6348 0.0411985 16.266 0.123522 16.8765H9.37804V28.9026C10.558 29.3828 11.8203 29.7121 13.1237 29.8768V16.8765H29.8766Z" fill="#EE3424"/>
</svg>
