<svg width="30" height="30" viewBox="0 0 30 30" fill="none" xmlns="http://www.w3.org/2000/svg">
<path d="M0 15.0002C0 21.0524 3.58793 26.2605 8.74686 28.6347V1.36575C3.58793 3.73309 0 8.94809 0 15.0002Z" fill="#008D46"/>
<path d="M30.0003 15.0002C30.0003 8.94809 26.4123 3.73309 21.2534 1.36575V28.6347C26.4123 26.2605 30.0003 21.0524 30.0003 15.0002Z" fill="#D2232C"/>
<path d="M14.997 0.000213623C12.7674 0.000213623 10.6545 0.487419 8.74731 1.36574V28.6347C10.6476 29.5062 12.7674 30.0002 14.997 30.0002C17.2266 30.0002 19.3464 29.5062 21.2467 28.6347V1.36574C19.3464 0.487419 17.2335 0.000213623 14.997 0.000213623Z" fill="#F1F4FB"/>
</svg>
