<svg width="30" height="30" viewBox="0 0 30 30" fill="none" xmlns="http://www.w3.org/2000/svg">
<path d="M28.5941 21.3475C29.493 19.4193 30.0007 17.2715 30.0007 15.0002C30.0007 12.8045 29.5204 10.7185 28.6695 8.83832L19.2208 15.1169L28.5941 21.3475Z" fill="black"/>
<path d="M26.1099 4.92699C23.3651 1.90091 19.4058 0.000183105 15.0005 0.000183105C10.5952 0.000183105 6.62905 1.90091 3.89117 4.92699L15.0005 12.3103L26.1099 4.92699Z" fill="#308A2A"/>
<path d="M1.3247 8.83832C0.473829 10.7185 0.000366211 12.8045 0.000366211 15.0002C0.000366211 17.2715 0.508135 19.4193 1.40704 21.3475L10.7734 15.1238L1.3247 8.83832Z" fill="black"/>
<path d="M25.9728 25.2244L15.0008 17.9302L4.02179 25.2244C6.75967 28.1613 10.6641 30.0002 15.0008 30.0002C19.3306 30.0071 23.235 28.1613 25.9728 25.2244Z" fill="#308A2A"/>
<path d="M25.9726 25.2244C27.0361 24.0853 27.9213 22.7747 28.5938 21.3474L19.2274 15.1237L28.6761 8.84511C28.0311 7.40412 27.1597 6.08666 26.1167 4.93387L15.0073 12.3172L3.88426 4.927C2.83439 6.07979 1.96981 7.39728 1.31793 8.83827L10.7667 15.1169L1.40027 21.3405C2.06587 22.7678 2.95791 24.0716 4.01464 25.2175L14.9936 17.9234L25.9726 25.2244Z" fill="#F9DA00"/>
</svg>
