<svg width="30" height="30" viewBox="0 0 30 30" fill="none" xmlns="http://www.w3.org/2000/svg">
<path d="M2.52612 23.3168C5.21597 27.3447 9.79969 30.0002 15.0078 30.0002C21.5129 30.0002 27.0298 25.8556 29.1158 20.0642H7.41176L2.52612 23.3168Z" fill="#007A3D"/>
<path d="M15.0079 15.0002L7.40491 20.0642H29.1089C29.6785 18.4791 30.001 16.7774 30.001 15.0002C30.001 13.2161 29.6716 11.5212 29.1089 9.92926H7.40491L15.0079 15.0002Z" fill="#F1F4FB"/>
<path d="M29.1089 9.92929C27.0298 4.14474 21.506 0.000183105 15.0078 0.000183105C9.79969 0.000183105 5.21597 2.65573 2.52612 6.67677L7.40489 9.92929H29.1089Z" fill="black"/>
<path d="M7.40484 9.9293L2.52607 6.67679C1.85361 7.67862 1.31839 8.77651 0.899817 9.9293C0.330283 11.5144 0.000915527 13.2161 0.000915527 15.0002C0.000915527 16.7774 0.330283 18.4792 0.899817 20.0643C1.31839 21.2171 1.85361 22.315 2.52607 23.3168L7.40484 20.0643L15.0078 15.0002L7.40484 9.9293Z" fill="#CE1126"/>
<path d="M5.46287 13.2436L5.84031 14.3071L6.90389 13.9366L6.31378 14.8973L7.26068 15.5011L6.14223 15.6315L6.25887 16.7568L5.46287 15.9609L4.66005 16.7568L4.77669 15.6315L3.6582 15.5011L4.61201 14.8973L4.01503 13.9366L5.08548 14.3071L5.46287 13.2436Z" fill="white"/>
</svg>
