<svg width="30" height="30" viewBox="0 0 30 30" fill="none" xmlns="http://www.w3.org/2000/svg">
<path d="M28.8615 20.7504H18.532C18.4909 20.8259 18.4497 20.9082 18.4016 20.9906L20.9823 25.2655L20.6185 25.4645L18.1683 21.4023C17.3241 22.8227 16.1093 24.3597 15.2102 24.5862C15.1347 24.6068 15.066 24.6205 15.0043 24.6205C14.9356 24.6205 14.867 24.6068 14.7915 24.5862C13.8924 24.3666 12.6775 22.8296 11.8333 21.4023L9.38313 25.4645L9.01935 25.2655L11.6 20.9906C11.552 20.9082 11.5108 20.8328 11.4696 20.7504H1.14703C3.4051 26.1781 8.75856 30.0002 15.0043 30.0002C21.25 30.0002 26.6034 26.1781 28.8615 20.7504Z" fill="#006600"/>
<path d="M19.1771 19.2477H29.383C29.781 17.9028 30.0007 16.4755 30.0007 15.0002C30.0007 13.5249 29.781 12.0976 29.383 10.7527H19.1771C20.186 13.621 20.186 16.3794 19.1771 19.2477Z" fill="#BB0000"/>
<path d="M10.8175 10.7458H0.611647C0.213569 12.0907 0.000793457 13.518 0.000793457 14.9933C0.000793457 16.4686 0.220433 17.8959 0.611647 19.2408H10.8175C9.80862 16.3794 9.80862 13.6209 10.8175 10.7458Z" fill="#BB0000"/>
<path d="M11.2294 19.2477C11.7442 17.8273 12.0736 16.4137 12.0736 15.0002C12.0736 13.5867 11.7442 12.1663 11.2363 10.7527C12.2315 13.621 12.2315 16.3726 11.2294 19.2477Z" fill="#BB0000"/>
<path d="M18.7723 10.7458C18.2576 12.1594 17.9281 13.5798 17.9281 14.9933C17.9281 16.4068 18.2576 17.8273 18.7655 19.2408C17.7703 16.3725 17.7703 13.6209 18.7723 10.7458Z" fill="#BB0000"/>
<path d="M9.64392 8.07659C9.43115 7.72664 8.23001 4.54274 8.23001 4.54274C8.23001 4.54274 10.5155 7.12966 10.7283 7.47962C11.044 8.00112 11.3597 8.52261 11.2019 9.0647L11.3117 9.24996H11.4627C12.2863 7.69232 13.7482 5.67495 14.7846 5.42106C14.8601 5.40734 14.9287 5.38674 14.9974 5.38674C15.066 5.38674 15.1346 5.40048 15.2033 5.42106C16.2396 5.67495 17.7015 7.69232 18.5251 9.24996H18.6762L18.7928 9.0647C18.635 8.51575 18.9507 8.00112 19.2664 7.47962C19.4792 7.13652 21.7647 4.54274 21.7647 4.54274C21.7647 4.54274 20.5636 7.7335 20.3577 8.07659C20.0488 8.58437 19.74 9.09214 19.1909 9.24996H28.8546C26.5965 3.82224 21.2431 0.000183105 14.9974 0.000183105C8.75167 0.000183105 3.3982 3.82224 1.14014 9.24996H10.8038C10.2547 9.09214 9.94591 8.58437 9.64392 8.07659Z" fill="black"/>
<path d="M11.2293 10.746C11.1606 10.5607 11.0919 10.3753 11.0233 10.19C11.0988 10.3822 11.1606 10.5607 11.2293 10.746Z" fill="white"/>
<path d="M11.0235 10.1971C11.0715 10.0804 11.1196 9.9569 11.1814 9.82649L10.8382 9.26369C10.8245 9.26369 10.8176 9.25683 10.8038 9.24997H1.14019C0.934288 9.73727 0.762689 10.2383 0.611694 10.7531H10.8176C10.8794 10.5609 10.948 10.3824 11.0235 10.1971Z" fill="white"/>
<path d="M18.7722 10.746C18.8409 10.5607 18.9026 10.3753 18.9781 10.19C18.9026 10.3822 18.834 10.5607 18.7722 10.746Z" fill="white"/>
<path d="M18.6829 9.24997H18.5319C18.5525 9.29801 18.58 9.3392 18.6006 9.38725L18.6829 9.24997Z" fill="white"/>
<path d="M19.1565 9.25684L18.8134 9.81965C18.8751 9.95005 18.93 10.0736 18.9712 10.1903C19.0398 10.3756 19.1085 10.5609 19.1771 10.7462H29.383C29.232 10.2314 29.0536 9.73041 28.8545 9.2431H19.1908C19.1771 9.24997 19.1703 9.25684 19.1565 9.25684Z" fill="white"/>
<path d="M11.4696 9.24997H11.3185L11.4009 9.38725C11.4215 9.3392 11.4421 9.29115 11.4696 9.24997Z" fill="white"/>
<path d="M11.0235 19.8036C10.948 19.6183 10.8794 19.433 10.8176 19.2477H0.611694C0.762689 19.7624 0.941152 20.2635 1.14019 20.7508H11.4628C11.2843 20.4007 11.1333 20.0782 11.0235 19.8036Z" fill="white"/>
<path d="M18.7722 19.2477C18.8409 19.433 18.9095 19.6183 18.9781 19.8036C18.9026 19.6183 18.834 19.433 18.7722 19.2477Z" fill="white"/>
<path d="M18.9781 19.8036C18.8682 20.0782 18.7172 20.4007 18.5319 20.7508H28.8614C29.0604 20.2635 29.2389 19.7624 29.3898 19.2477H19.184C19.1153 19.433 19.0467 19.6183 18.9781 19.8036Z" fill="white"/>
<path d="M20.6185 25.4576L20.9822 25.2587L18.4015 20.9837C18.326 21.1209 18.2506 21.2513 18.1682 21.3954L20.6185 25.4576Z" fill="white"/>
<path d="M9.01935 25.2587L9.38313 25.4576L11.8333 21.3954C11.751 21.2582 11.6686 21.1209 11.6 20.9837L9.01935 25.2587Z" fill="white"/>
<path d="M18.8202 9.82636L19.1634 9.26369C19.1771 9.26369 19.184 9.25683 19.1977 9.24997C19.7468 9.09215 20.0556 8.58438 20.3645 8.0766C20.5704 7.73351 21.7715 4.54276 21.7715 4.54276C21.7715 4.54276 19.486 7.12967 19.2732 7.47962C18.9575 8.00113 18.6418 8.52262 18.7996 9.06471L18.6829 9.24997L18.6006 9.38722C18.6829 9.53818 18.7516 9.68227 18.8202 9.82636Z" fill="white"/>
<path d="M11.3116 9.24997L11.2018 9.06471C11.3596 8.51576 11.0439 8.00113 10.7282 7.47962C10.5223 7.13653 8.22992 4.54276 8.22992 4.54276C8.22992 4.54276 9.43106 7.73351 9.64382 8.0766C9.95268 8.58438 10.2615 9.09215 10.8106 9.24997C10.8243 9.24997 10.8312 9.25683 10.8449 9.26369L11.1881 9.82636C11.2499 9.68913 11.3254 9.53818 11.4009 9.38722L11.3116 9.24997Z" fill="white"/>
<path d="M18.9781 19.8035C18.9094 19.6182 18.8408 19.4329 18.7722 19.2477C18.2643 17.8273 17.9348 16.4137 17.9348 15.0002C17.9348 13.5866 18.2643 12.1662 18.7722 10.7527C18.8408 10.5674 18.9094 10.3822 18.9781 10.1969C18.93 10.0802 18.882 9.95671 18.8202 9.82634C18.7584 9.6891 18.6829 9.53815 18.6006 9.38719C18.58 9.33916 18.5525 9.29798 18.5319 9.24994C17.7083 7.6923 16.2464 5.67493 15.2101 5.42104C16.4043 7.89131 16.4043 11.3565 15.2101 13.8268C15.2101 11.0203 15.2101 8.22067 15.2101 5.42104C15.1346 5.40732 15.0659 5.38672 15.0042 5.38672C14.9355 5.38672 14.8669 5.40046 14.7914 5.42104C14.7914 8.22067 14.7914 11.0272 14.7914 13.8268C13.5972 11.3565 13.5972 7.88444 14.7914 5.42104C13.755 5.67493 12.2931 7.6923 11.4695 9.24994C11.4489 9.29798 11.4215 9.33916 11.4009 9.38719C11.3254 9.53815 11.2499 9.6891 11.1881 9.82634C11.1263 9.95671 11.0783 10.0802 11.0302 10.1969C11.1057 10.3822 11.1743 10.5674 11.2361 10.7527C11.744 12.1662 12.0735 13.5866 12.0735 15.0002C12.0735 16.4137 11.744 17.8341 11.2361 19.2477C11.1675 19.4329 11.0988 19.6182 11.0302 19.8035C11.14 20.0779 11.291 20.4005 11.4764 20.7504C11.5175 20.8259 11.5587 20.9082 11.6068 20.9906C11.6823 21.1278 11.7577 21.2651 11.8401 21.4023C12.6843 22.8227 13.8991 24.3597 14.7982 24.5862C13.604 22.1159 13.604 18.6507 14.7982 16.1804C14.7982 18.98 14.7982 21.7865 14.7982 24.5862C14.8737 24.6067 14.9424 24.6205 15.011 24.6205C15.0796 24.6205 15.1483 24.6067 15.2169 24.5862C15.2169 21.7865 15.2169 18.98 15.2169 16.1804C16.4112 18.6507 16.4112 22.1159 15.2169 24.5862C16.116 24.3666 17.3309 22.8296 18.1751 21.4023C18.2574 21.2651 18.3329 21.1278 18.4084 20.9906C18.4496 20.9082 18.4976 20.8328 18.5388 20.7504C18.7172 20.4005 18.8682 20.0779 18.9781 19.8035ZM15.0042 16.201C13.8717 16.201 13.8717 13.7994 15.0042 13.7994C16.1298 13.7994 16.1298 16.201 15.0042 16.201Z" fill="#BB0000"/>
<path d="M18.7722 19.2477C18.8409 19.433 18.9026 19.6182 18.9781 19.8035C19.0468 19.6182 19.1154 19.433 19.184 19.2477C20.1929 16.3794 20.1929 13.621 19.184 10.7458C19.1223 10.5606 19.0536 10.3753 18.9781 10.19C18.9026 10.3753 18.8409 10.5606 18.7722 10.7458C17.7702 13.621 17.7702 16.3726 18.7722 19.2477Z" fill="black"/>
<path d="M11.2293 10.7458C11.1675 10.5606 11.0988 10.3753 11.0233 10.19C10.9478 10.3753 10.8792 10.5606 10.8174 10.7458C9.8085 13.6141 9.8085 16.3726 10.8174 19.2477C10.8792 19.433 10.9478 19.6182 11.0233 19.8035C11.0988 19.6182 11.1675 19.433 11.2293 19.2477C12.2313 16.3726 12.2313 13.621 11.2293 10.7458Z" fill="black"/>
<path d="M15.0042 13.7994C13.8717 13.7994 13.8717 16.2016 15.0042 16.2016C16.1298 16.2016 16.1298 13.7994 15.0042 13.7994Z" fill="white"/>
<path d="M15.21 16.1667C15.21 18.9664 15.21 21.7728 15.21 24.5725C16.4043 22.1091 16.4043 18.637 15.21 16.1667Z" fill="white"/>
<path d="M14.7915 13.8268C14.7915 11.0203 14.7915 8.22072 14.7915 5.42108C13.5973 7.89135 13.5973 11.3566 14.7915 13.8268Z" fill="white"/>
<path d="M14.7915 16.1667C13.5973 18.637 13.5973 22.1022 14.7915 24.5725C14.7915 21.7728 14.7915 18.9732 14.7915 16.1667Z" fill="white"/>
<path d="M15.21 13.8268C16.4043 11.3566 16.4043 7.88448 15.21 5.42108C15.21 8.22072 15.21 11.0272 15.21 13.8268Z" fill="white"/>
</svg>
