<svg width="30" height="30" viewBox="0 0 30 30" fill="none" xmlns="http://www.w3.org/2000/svg">
<path d="M30 15.0003C30 23.2825 23.2822 30.0003 15 30.0003C6.71775 30.0003 0 23.2825 0 15.0003C0 6.71803 6.71775 0.000244141 15 0.000244141C23.2822 0.000244141 30 6.71116 30 15.0003Z" fill="#006A4E"/>
<path d="M30 15.0003C30 23.2825 23.2822 30.0003 15 30.0003C6.71775 30.0003 0 23.2825 0 15.0003C0 6.71803 6.71775 0.000244141 15 0.000244141C23.2822 0.000244141 30 6.71116 30 15.0003Z" fill="#E8112D"/>
<path d="M15.007 8.2002C15.2129 8.3786 15.3021 8.65994 15.309 8.92755C15.3158 9.0991 15.3158 9.27751 15.2952 9.44906C15.2678 9.7647 15.2266 10.0735 15.2266 10.3891C15.2404 10.5607 15.2404 10.7528 15.3296 10.9106C15.3158 10.9175 15.2953 10.9312 15.2815 10.9244C15.1237 10.9106 14.9659 10.9106 14.8149 10.9175C14.7669 10.9175 14.712 10.9381 14.6777 10.9038C14.6708 10.8077 14.6502 10.7185 14.6502 10.6224C14.6502 10.2999 14.7394 9.98429 14.8286 9.66864C14.9384 9.28438 15.0619 8.9001 15.0482 8.49525C15.0414 8.39918 15.0208 8.30312 15.007 8.2002Z" fill="#F9D616"/>
<path d="M14.005 8.48158C13.9913 8.41296 13.957 8.35118 13.9433 8.28256C14.1491 8.41294 14.2727 8.63254 14.3344 8.86584C14.4305 9.2158 14.4236 9.57948 14.4511 9.94316C14.4648 10.2108 14.4922 10.4715 14.5883 10.7254C14.6089 10.794 14.6501 10.8558 14.6706 10.9244C14.2521 10.9518 13.8472 11.0616 13.4561 11.2057C13.4424 11.192 13.4286 11.1783 13.4149 11.1714C13.2571 10.8901 13.2091 10.5607 13.1953 10.2519C13.1748 10.0872 13.1885 9.92256 13.1748 9.75788C13.1748 9.61378 13.161 9.46968 13.1473 9.33244C13.1199 9.05111 13.0444 8.76978 12.9003 8.52275C13.1404 8.62568 13.312 8.84526 13.4081 9.08543C13.6208 9.59321 13.6345 10.1696 13.8472 10.6773C13.8952 10.7871 13.9501 10.9038 14.0394 10.9999C13.9433 10.746 13.9227 10.4715 13.9433 10.2039C13.9639 9.85392 14.0325 9.51085 14.0531 9.15403C14.0737 8.93445 14.0599 8.70802 14.005 8.48158Z" fill="#F9D616"/>
<path d="M16.0639 8.2963C16.1051 8.31002 16.1256 8.3512 16.1462 8.39237C16.2286 8.53647 16.2629 8.70116 16.2629 8.86584C16.2697 9.18149 16.1805 9.48338 16.1051 9.7853C16.0158 10.1215 15.9198 10.4578 15.9266 10.8077C15.9266 10.8695 15.9335 10.9381 15.9541 10.9999C15.9815 10.8352 16.0227 10.6705 16.0913 10.5264C16.2972 10.0804 16.6197 9.70984 16.853 9.2844C16.9765 9.0511 17.0794 8.79719 17.1 8.52957C17.2098 8.70798 17.2373 8.93443 17.2098 9.14029C17.1755 9.39418 17.0794 9.63434 16.9765 9.86764C16.853 10.149 16.7226 10.4235 16.6334 10.7117C16.5854 10.8764 16.5511 11.041 16.5648 11.2126C16.6197 10.9793 16.7501 10.7666 16.8942 10.5813C17.1961 10.1902 17.5872 9.86765 17.8617 9.44908C17.9646 9.29126 18.0401 9.11972 18.0881 8.94131C18.143 9.07855 18.1499 9.23638 18.1362 9.38048C18.1018 9.5932 18.0126 9.79902 17.9029 9.99115C17.7382 10.2793 17.546 10.5401 17.3882 10.8283C17.299 10.993 17.2167 11.1645 17.1686 11.343C17.1549 11.391 17.1481 11.439 17.1481 11.4871C17.2167 11.3567 17.2922 11.2263 17.3951 11.1165C17.7245 10.746 18.1636 10.4921 18.5273 10.149C18.7263 9.97059 18.891 9.75101 19.0076 9.50399C19.0488 9.69612 19.0213 9.89512 18.939 10.0667C18.8292 10.3137 18.6577 10.5195 18.4861 10.7185C18.2459 10.9998 17.9783 11.2606 17.7931 11.5831C17.745 11.6792 17.6901 11.7752 17.6764 11.885C17.8068 11.6792 17.9989 11.5145 18.1979 11.3841C18.6028 11.1165 19.0556 10.9313 19.4399 10.6293C19.5909 10.5058 19.7212 10.3617 19.8242 10.2039C19.8448 10.4578 19.7281 10.7048 19.5634 10.8969C19.2341 11.288 18.788 11.5488 18.4381 11.9125C18.3077 12.0429 18.191 12.1938 18.1156 12.3585C17.944 12.1732 17.7725 11.988 17.5666 11.8302C16.9353 11.3155 16.1462 10.9999 15.3365 10.945C15.3022 10.7185 15.3571 10.4852 15.4326 10.2656C15.6179 9.74414 15.9335 9.27067 16.0433 8.72173C16.0707 8.57077 16.0639 8.43353 16.0639 8.2963Z" fill="#F9D616"/>
<path d="M11.9121 8.93442C12.1729 8.98931 12.3719 9.19517 12.5022 9.40789C12.7767 9.86077 12.8865 10.3891 13.1473 10.8489C13.2227 10.9792 13.3119 11.1028 13.4286 11.2057L13.3874 11.2194C13.4011 11.2194 13.4286 11.2194 13.4423 11.2194C13.4149 11.2263 13.3943 11.2469 13.3737 11.2537C13.0032 11.4115 12.6601 11.6311 12.3513 11.8919C12.1248 11.6997 11.9807 11.439 11.8709 11.1714C11.7337 10.842 11.6376 10.4989 11.4867 10.1695C11.37 9.91565 11.2191 9.6755 11.0063 9.49709C11.274 9.51768 11.5004 9.68236 11.6651 9.87449C11.9945 10.2656 12.1866 10.7459 12.4954 11.1508C12.5983 11.2812 12.7149 11.4115 12.8522 11.5007C12.811 11.4458 12.7698 11.391 12.7355 11.3361C12.6257 11.1508 12.5571 10.9518 12.5091 10.746C12.4199 10.4029 12.3787 10.0529 12.2827 9.70981C12.214 9.42847 12.1042 9.154 11.9121 8.93442Z" fill="#F9D616"/>
<path d="M10.1899 10.1902C10.4506 10.1628 10.6908 10.2863 10.8898 10.451C11.2878 10.7941 11.5554 11.2606 11.9465 11.6175C12.0632 11.7273 12.2004 11.8233 12.3514 11.892C12.0289 12.1664 11.7475 12.4958 11.5211 12.8595C11.3221 12.7909 11.1574 12.6536 11.0133 12.5095C10.7114 12.2076 10.4849 11.8439 10.1967 11.5283C9.99774 11.3087 9.7713 11.1097 9.49683 10.9999C9.74385 10.9382 10.0046 11.0137 10.2242 11.144C10.7114 11.4391 11.0613 11.8988 11.5485 12.1939C11.6515 12.2556 11.7612 12.3037 11.8779 12.338C11.8093 12.29 11.7475 12.2419 11.6858 12.187C11.5142 12.036 11.3907 11.8439 11.274 11.6518C11.0339 11.2538 10.8486 10.8215 10.533 10.4784C10.4369 10.3618 10.3203 10.2657 10.1899 10.1902Z" fill="#F9D616"/>
<path d="M20.1602 11.2949C20.2906 11.2126 20.3935 11.1165 20.4965 11.0067C20.4896 11.1988 20.3935 11.3772 20.27 11.5145C20.071 11.7341 19.8103 11.885 19.5633 12.036C19.2476 12.2213 18.9251 12.3928 18.6575 12.6467C18.6026 12.7016 18.5408 12.7633 18.5065 12.8319C18.6438 12.7359 18.7879 12.6467 18.9457 12.5987C19.5015 12.3928 20.1122 12.3928 20.6612 12.1595C20.8052 12.0977 20.9356 12.0085 21.0591 11.9125C21.0111 12.1046 20.8807 12.2761 20.7298 12.3996C20.5239 12.5643 20.2769 12.6673 20.0299 12.7633C19.7691 12.8663 19.4946 12.9623 19.2407 13.0927C19.0692 13.1819 18.9045 13.2848 18.781 13.4289C19.0006 13.2985 19.2476 13.2368 19.5084 13.2093C19.8171 13.175 20.1191 13.1819 20.4279 13.1613C20.7092 13.1407 20.9974 13.1064 21.265 12.9966C21.3336 12.9692 21.4022 12.9349 21.4708 12.9006C21.4022 13.0721 21.265 13.2094 21.1072 13.3054C20.8876 13.4358 20.6337 13.5044 20.3867 13.5662C20.0642 13.6416 19.7348 13.6965 19.426 13.8063C19.2682 13.8612 19.1241 13.9298 18.9937 14.0396C19.1035 14.0053 19.2133 13.971 19.33 13.9573C19.824 13.8955 20.3112 14.0191 20.7984 14.0534C21.0523 14.0671 21.313 14.0671 21.5601 13.9916C21.6149 13.9779 21.6698 13.9573 21.7179 13.9436C21.6218 14.0945 21.4709 14.2112 21.3062 14.2798C21.0866 14.3759 20.8464 14.4033 20.6131 14.4239C20.2837 14.4513 19.9475 14.4513 19.6181 14.4994C19.4329 14.5268 19.2476 14.5817 19.0829 14.6709C19.2133 14.6572 19.3437 14.6298 19.4741 14.6435C19.9201 14.6709 20.3386 14.8356 20.7641 14.9385C20.9974 14.9934 21.2307 15.0415 21.4708 15.0346C21.5806 15.0415 21.6904 15.014 21.7934 15.0003C21.6698 15.1376 21.5052 15.2267 21.3268 15.2679C21.0386 15.3365 20.7435 15.3091 20.4484 15.2816C20.1259 15.2473 19.7966 15.2061 19.4741 15.2267C19.3368 15.2336 19.1996 15.2679 19.0692 15.3091C19.0692 15.1718 19.0898 15.0277 19.0761 14.8905C19.0623 13.9642 18.7055 13.0447 18.1017 12.3379C18.2732 12.1389 18.4997 12.0017 18.733 11.8987C19.2064 11.6929 19.7211 11.5762 20.1602 11.2949Z" fill="#F9D616"/>
<path d="M13.0101 12.0086C13.6414 11.5488 14.4374 11.3224 15.2196 11.3773C15.8578 11.4116 16.4753 11.6381 16.9968 12.0155C16.345 12.0429 15.7 12.1802 15.0961 12.4203C15.0687 12.434 15.0412 12.4478 15.0069 12.4546C14.952 12.4478 14.904 12.4203 14.8628 12.3997C14.5609 12.2831 14.2521 12.187 13.9296 12.1253C13.6208 12.0567 13.3189 12.0292 13.0101 12.0086Z" fill="#F9D616"/>
<path d="M8.94122 11.9056C9.11963 11.8301 9.31863 11.8301 9.5039 11.8781C9.75093 11.9399 9.97737 12.0703 10.1901 12.2075C10.4508 12.3722 10.7047 12.5437 10.9723 12.6878C11.1439 12.7702 11.3223 12.8457 11.5144 12.8594C11.5007 12.8868 11.4938 12.9211 11.4732 12.9485C11.3772 13.0995 11.3017 13.2642 11.2331 13.4289C11.1096 13.4083 10.9929 13.3534 10.8763 13.2985C10.6361 13.1681 10.4371 12.9829 10.2313 12.7976C10.0117 12.5918 9.7921 12.379 9.54507 12.2006C9.3598 12.0634 9.1608 11.9605 8.94122 11.9056Z" fill="#F9D616"/>
<path d="M12.5777 12.386C12.6257 12.3311 12.6738 12.2899 12.7218 12.2419C13.0923 12.2556 13.4629 12.3036 13.8265 12.3997C14.0873 12.4614 14.3412 12.5506 14.5951 12.6467C14.5265 12.6879 14.4578 12.7291 14.3892 12.7634C14.3549 12.784 14.3137 12.7634 14.2863 12.7497C13.7374 12.5301 13.161 12.4134 12.5777 12.386Z" fill="#F9D616"/>
<path d="M16.1869 12.3928C16.5438 12.3036 16.9074 12.2625 17.2711 12.2419C17.3191 12.2899 17.374 12.3311 17.4152 12.3791C16.832 12.4134 16.2487 12.5301 15.6998 12.7497C15.6723 12.7634 15.638 12.7771 15.6105 12.7565C15.5351 12.7222 15.4733 12.6811 15.3978 12.6399C15.6654 12.5438 15.9262 12.4546 16.1869 12.3928Z" fill="#F9D616"/>
<path d="M12.372 12.6124C12.3789 12.6124 12.3926 12.6055 12.3995 12.6055C12.9622 12.6467 13.5111 12.7702 14.0326 12.9898C13.9708 13.031 13.9022 13.079 13.8405 13.127C13.3464 12.9143 12.818 12.7839 12.2828 12.7428C12.3034 12.6879 12.3377 12.6536 12.372 12.6124Z" fill="#F9D616"/>
<path d="M17.5254 12.6055C17.5597 12.6055 17.5872 12.5986 17.6215 12.6055C17.6627 12.6398 17.6901 12.6878 17.7244 12.7358C17.2029 12.777 16.6951 12.9005 16.2079 13.0995C16.1874 13.1064 16.1599 13.1201 16.1393 13.0995C16.0776 13.0652 16.0227 13.0172 15.9678 12.9829C16.4618 12.777 16.9902 12.6466 17.5254 12.6055Z" fill="#F9D616"/>
<path d="M8.52944 12.8869C8.64609 12.8252 8.78334 12.7771 8.91371 12.7771C9.0784 12.7703 9.24994 12.7977 9.40777 12.8458C9.88809 12.9899 10.3204 13.2712 10.8144 13.3878C10.9448 13.4222 11.0889 13.4359 11.2262 13.429C11.0821 13.7858 10.986 14.1564 10.9448 14.5406C10.9174 14.7602 10.9242 14.9798 10.9242 15.2063C10.9448 15.5837 11.0134 15.9611 11.1369 16.3247C11.1644 16.4071 11.1918 16.4757 11.2193 16.558C11.0615 16.6678 10.8693 16.7227 10.6841 16.757C10.3616 16.8119 10.0322 16.8119 9.70968 16.8256C9.39403 16.8394 9.07153 16.8668 8.77647 16.9835C8.69412 17.0109 8.61865 17.059 8.53631 17.1001C8.61179 16.9217 8.75588 16.7776 8.92743 16.6815C9.16759 16.5443 9.44207 16.4825 9.70968 16.4208C9.99101 16.359 10.2724 16.311 10.5468 16.2149C10.7115 16.16 10.8762 16.0777 11.0203 15.9748C10.8968 16.0091 10.7733 16.0503 10.6429 16.064C10.0047 16.1257 9.38031 15.9062 8.74902 15.9679C8.5912 15.9816 8.44024 16.0228 8.28928 16.0777C8.40593 15.8787 8.61864 15.7552 8.83136 15.6934C9.18818 15.5905 9.56558 15.5905 9.93612 15.563C10.2655 15.5425 10.6154 15.5082 10.9105 15.3435C10.7801 15.3572 10.6498 15.3847 10.5194 15.3709C10.1763 15.3503 9.84006 15.2406 9.51069 15.1513C9.18818 15.0553 8.85195 14.9661 8.50885 14.9798C8.40593 14.9798 8.303 15.0004 8.20007 15.0141C8.36476 14.8288 8.60492 14.7328 8.85195 14.7122C9.29797 14.6641 9.73713 14.7671 10.1831 14.7808C10.4233 14.7877 10.6772 14.7946 10.9105 14.6985C10.6841 14.7053 10.4576 14.6641 10.2449 14.5818C9.81947 14.4308 9.43521 14.1976 9.00978 14.0535C8.77647 13.978 8.53631 13.9368 8.28928 13.9437C8.46769 13.7996 8.70099 13.7378 8.92743 13.7447C9.29111 13.7515 9.64107 13.8682 9.98416 13.9574C10.3204 14.0466 10.6841 14.129 11.034 14.0603C10.9105 14.0398 10.7939 14.0191 10.6841 13.978C10.3478 13.8544 10.0459 13.6417 9.75086 13.4428C9.46266 13.2506 9.1676 13.0585 8.8245 12.9624C8.72158 12.9144 8.6255 12.9075 8.52944 12.8869Z" fill="#F9D616"/>
<path d="M14.767 12.9692C14.8425 12.9212 14.9111 12.8663 15.0072 12.8457C15.0895 12.8732 15.165 12.9212 15.2336 12.9692C15.1513 13.0104 15.0826 13.0516 15.0003 13.0928C14.9248 13.0516 14.8425 13.0104 14.767 12.9692Z" fill="#F9D616"/>
<path d="M11.8711 13.4427C11.9397 13.2712 12.0358 13.0997 12.1387 12.9418C12.6327 12.9967 13.1199 13.1339 13.5728 13.3329C12.9621 13.8476 12.4543 14.4789 12.1044 15.1994C11.9877 15.4395 11.8848 15.6797 11.8093 15.9336C11.6927 15.6317 11.6309 15.3092 11.6103 14.9867C11.5691 14.4583 11.6584 13.9231 11.8711 13.4427Z" fill="#F9D616"/>
<path d="M16.4274 13.326C16.8803 13.1202 17.3675 12.9898 17.8616 12.9349C18.1772 13.4221 18.3556 13.9916 18.3899 14.5749C18.3899 14.7602 18.3968 14.9523 18.3762 15.1375C18.3487 15.4051 18.287 15.6659 18.1978 15.9198C18.1086 15.6934 18.0262 15.4601 17.9164 15.2405C17.5665 14.5063 17.0519 13.8475 16.4274 13.326Z" fill="#F9D616"/>
<path d="M14.245 13.3124C14.2931 13.2506 14.3685 13.2231 14.4234 13.1751H14.4372C14.5126 13.2163 14.5881 13.2575 14.6636 13.3055C14.595 13.3467 14.5332 13.4016 14.4646 13.4427C14.396 13.4016 14.3205 13.3604 14.245 13.3124Z" fill="#F9D616"/>
<path d="M15.3365 13.3055C15.412 13.2575 15.4943 13.2163 15.5698 13.1751C15.6384 13.2163 15.7001 13.2643 15.7619 13.3124C15.6864 13.3535 15.6041 13.4016 15.5286 13.4496C15.4668 13.4016 15.3982 13.3535 15.3365 13.3055Z" fill="#F9D616"/>
<path d="M13.7031 13.7652C13.7854 13.6829 13.8746 13.6074 13.9638 13.532C14.0393 13.5731 14.1079 13.6212 14.1834 13.6623C14.1834 13.6692 14.1834 13.6829 14.1834 13.6898C14.0873 13.7652 14.0118 13.8476 13.9226 13.93C13.5384 14.3074 13.209 14.7465 12.962 15.2268C12.9002 15.3366 12.8453 15.4464 12.7973 15.563C12.7973 15.5562 12.7973 15.5425 12.7973 15.5356C12.7836 15.5768 12.7699 15.6179 12.7493 15.6591C12.5709 16.0708 12.4611 16.51 12.3925 16.9491C12.3033 16.8462 12.2278 16.7433 12.1523 16.6335C12.1386 16.6129 12.1317 16.5923 12.1386 16.5717C12.3582 15.5013 12.914 14.5132 13.7031 13.7652Z" fill="#F9D616"/>
<path d="M14.8011 13.6692C14.8698 13.628 14.9247 13.5594 15.0001 13.532C15.0688 13.5731 15.1237 13.6212 15.1854 13.6692C15.1237 13.7241 15.055 13.7652 14.9933 13.8201C14.9315 13.7652 14.8698 13.7172 14.8011 13.6692Z" fill="#F9D616"/>
<path d="M15.81 13.6623C15.8854 13.6211 15.9609 13.5731 16.0364 13.525C16.8667 14.2181 17.4774 15.165 17.7724 16.2149C17.8067 16.3384 17.8342 16.4687 17.8685 16.5922C17.7862 16.7158 17.7038 16.8393 17.6009 16.9491C17.4499 15.8718 16.9559 14.8425 16.2011 14.0603C16.0913 13.9162 15.9403 13.7995 15.81 13.6623Z" fill="#F9D616"/>
<path d="M14.4101 14.0054C14.4444 13.9711 14.4787 13.9299 14.5199 13.9093C14.5954 13.9505 14.6503 14.0122 14.7189 14.0671C13.9092 14.8151 13.3602 15.8375 13.1887 16.9286C13.1475 17.155 13.1338 17.3883 13.1201 17.6147C13.0171 17.5461 12.9142 17.4706 12.8181 17.3952C12.8593 16.7845 13.0034 16.1737 13.2573 15.6179C13.5386 15.0072 13.9298 14.4583 14.4101 14.0054Z" fill="#F9D616"/>
<path d="M15.2746 14.0603C15.3432 14.0123 15.405 13.9368 15.4874 13.9093C15.6452 14.0672 15.803 14.2181 15.9471 14.3828C16.6676 15.2199 17.1067 16.2904 17.1685 17.3952C17.0656 17.4706 16.9832 17.553 16.8666 17.6079C16.8529 16.9972 16.7293 16.3865 16.496 15.8169C16.2216 15.1513 15.803 14.5475 15.2746 14.0603Z" fill="#F9D616"/>
<path d="M14.9794 14.3416C14.9931 14.321 15.0206 14.3278 15.0274 14.3484C15.8028 15.1375 16.2969 16.2011 16.3861 17.3059C16.4067 17.45 16.393 17.601 16.4067 17.7451C16.4067 17.7931 16.3998 17.8343 16.393 17.8754C15.8234 18.1293 15.1921 18.2254 14.5746 18.1499C14.2315 18.1087 13.9021 18.0127 13.5865 17.8754C13.5659 17.2167 13.6757 16.558 13.9227 15.9473C14.108 15.4806 14.3618 15.0415 14.6844 14.6572C14.7804 14.5474 14.8765 14.4376 14.9794 14.3416Z" fill="#F9D616"/>
<path d="M18.973 15.9404C19.021 15.7346 19.0553 15.5218 19.0759 15.316C19.2612 15.3091 19.4533 15.3297 19.6386 15.3846C20.0983 15.5219 20.5032 15.7826 20.956 15.9404C21.2031 16.0296 21.4638 16.0777 21.7246 16.0639C21.5256 16.2218 21.2648 16.2766 21.0109 16.256C20.4277 16.2149 19.8856 15.9473 19.2955 15.9198C19.1857 15.913 19.0759 15.9336 18.973 15.9404Z" fill="#F9D616"/>
<path d="M18.9524 16.0022C18.9592 15.9885 18.9592 15.961 18.973 15.9542C19.1925 15.9747 19.3984 16.0503 19.5905 16.1532C20.0709 16.4071 20.4894 16.7913 20.9972 16.9972C21.1413 17.0589 21.2991 17.0932 21.457 17.1069C21.2374 17.2442 20.9629 17.2442 20.7159 17.1893C20.3385 17.1001 19.9885 16.9148 19.6317 16.7639C19.3572 16.6541 19.0622 16.5512 18.7671 16.5717C18.8495 16.3796 18.9112 16.1875 18.9524 16.0022Z" fill="#F9D616"/>
<path d="M10.8282 16.8599C10.9792 16.7776 11.1096 16.6747 11.2262 16.558C11.3154 16.757 11.4115 16.9423 11.5213 17.1276C11.4458 17.1825 11.3703 17.2373 11.2811 17.2854C11.0204 17.4295 10.7322 17.4912 10.444 17.553C10.094 17.6216 9.74406 17.6765 9.41469 17.8069C9.24315 17.8755 9.07846 17.9647 8.94122 18.0814C8.97553 17.903 9.09218 17.752 9.22942 17.6353C9.40783 17.4844 9.62741 17.3814 9.84012 17.2854C10.1764 17.1413 10.5194 17.0315 10.8282 16.8599Z" fill="#F9D616"/>
<path d="M18.7675 16.5648C18.9527 16.5923 19.1311 16.6952 19.2889 16.7981C19.6115 17.0177 19.8722 17.3059 20.1604 17.5598C20.4212 17.7931 20.7231 18.0058 21.0662 18.0882C20.9221 18.1431 20.7642 18.1636 20.6133 18.1362C20.3937 18.1019 20.1947 18.0058 20.0094 17.9029C19.6732 17.7108 19.3576 17.4706 19.0076 17.299C18.8429 17.2236 18.6714 17.155 18.4861 17.1412C18.5822 16.9491 18.692 16.7638 18.7675 16.5648Z" fill="#F9D616"/>
<path d="M18.1017 17.649C18.2389 17.4843 18.3624 17.3059 18.4791 17.1275C18.6849 17.203 18.8565 17.3471 19.0074 17.498C19.2751 17.7725 19.4878 18.0882 19.7348 18.3832C19.9475 18.6303 20.1945 18.8636 20.4965 18.9871C20.27 19.042 20.0299 18.9871 19.8309 18.8773C19.5495 18.7194 19.3094 18.493 19.0692 18.2803C18.8977 18.1225 18.7261 17.9715 18.5271 17.8411C18.4036 17.7656 18.2595 17.6833 18.1017 17.649Z" fill="#F9D616"/>
<path d="M11.3701 17.3128C11.425 17.2579 11.473 17.1893 11.521 17.1275C12.07 18.0264 12.9689 18.6989 13.9913 18.9459C14.005 18.9528 14.0325 18.9459 14.0393 18.9665C14.0256 19.1929 13.9433 19.3988 13.8403 19.5978C13.6139 20.03 13.2845 20.3938 13.0718 20.8329C12.9757 21.0319 12.914 21.2377 12.8934 21.4573C12.7836 21.2721 12.7562 21.0525 12.7905 20.8397C12.8385 20.531 12.9689 20.2359 13.0992 19.9477C13.2228 19.6595 13.3531 19.3782 13.4149 19.0694C13.4286 18.9802 13.4492 18.8773 13.4217 18.7881C13.3737 19.0145 13.2433 19.2135 13.1061 19.3988C12.7767 19.8242 12.3444 20.1673 12.0768 20.6408C12.0014 20.7643 11.9533 20.9084 11.9053 21.0456C11.8778 20.9564 11.8573 20.8672 11.8504 20.778C11.8435 20.5447 11.919 20.3251 12.0219 20.1193C12.1729 19.8242 12.3719 19.5497 12.5503 19.2615C12.6875 19.0214 12.8248 18.7675 12.8522 18.493C12.8042 18.5753 12.7699 18.6577 12.715 18.7332C12.5434 18.9734 12.317 19.1586 12.0905 19.337C11.8984 19.488 11.7063 19.6321 11.5279 19.7899C11.3632 19.9409 11.2122 20.0987 11.0956 20.2908C11.0544 20.3526 11.0338 20.4212 10.9927 20.4761C10.9515 20.284 10.9858 20.0781 11.0681 19.8997C11.1436 19.7281 11.2534 19.5772 11.3769 19.4331C11.5828 19.1792 11.8161 18.9527 12.0151 18.6989C12.1523 18.5204 12.2758 18.3283 12.3307 18.1156C12.2141 18.294 12.0562 18.445 11.8778 18.5685C11.4798 18.8429 11.027 19.0282 10.6427 19.3164C10.4712 19.4399 10.3133 19.5978 10.1967 19.7762C10.183 19.7968 10.1761 19.7556 10.183 19.7487C10.1898 19.5978 10.2241 19.4537 10.2996 19.3233C10.4163 19.1174 10.5878 18.939 10.7662 18.7881C11.0201 18.5685 11.2946 18.3695 11.5347 18.1293C11.6651 17.9921 11.7955 17.848 11.871 17.6696C11.7269 17.8205 11.5553 17.9441 11.3701 18.0333C10.8829 18.2734 10.3339 18.3832 9.86732 18.6714C9.73008 18.7606 9.5997 18.8636 9.48991 18.9871C9.50364 18.7675 9.62029 18.5754 9.77125 18.4175C9.97025 18.2185 10.2104 18.0813 10.4506 17.9372C10.7799 17.7519 11.1093 17.5804 11.3701 17.3128Z" fill="#F9D616"/>
<path d="M15.4874 19.0488C16.4892 18.9322 17.443 18.4244 18.0949 17.6559C18.2252 17.7108 18.3282 17.8206 18.4242 17.9166C18.685 18.2117 18.8565 18.5753 19.0555 18.9184C19.2477 19.2547 19.4741 19.5978 19.8103 19.8036C19.5976 19.8242 19.378 19.7419 19.2065 19.6184C18.9526 19.44 18.7673 19.1998 18.5752 18.9665C18.4311 18.7812 18.2801 18.6028 18.1155 18.4381C17.9851 18.3146 17.8478 18.1911 17.6763 18.1294C17.8135 18.2597 17.9233 18.4038 18.0125 18.5685C18.2184 18.9596 18.3282 19.3988 18.5066 19.8036C18.6232 20.0644 18.7811 20.3183 19.0006 20.5104C18.7673 20.4967 18.5683 20.3663 18.4037 20.2016C18.1566 19.9409 17.9988 19.6252 17.8135 19.3164C17.6351 19.0145 17.443 18.6989 17.1479 18.4999C17.2715 18.6577 17.3675 18.8361 17.4293 19.0283C17.5665 19.4537 17.6077 19.9066 17.7312 20.3388C17.8067 20.5996 17.9165 20.8535 18.0949 21.0593C17.8822 21.0113 17.7037 20.8672 17.5734 20.6888C17.395 20.4418 17.2852 20.1467 17.1754 19.8654C17.093 19.6595 17.0176 19.4537 16.9215 19.2547C16.8323 19.0831 16.7294 18.9116 16.5784 18.7812C16.7843 19.138 16.8048 19.5566 16.8186 19.9615C16.8323 20.1124 16.8186 20.2771 16.8391 20.4281C16.8597 20.7849 16.9215 21.1485 17.1068 21.4573C16.8872 21.3681 16.7294 21.176 16.6264 20.9633C16.4549 20.5859 16.4 20.1673 16.3039 19.7693C16.2353 19.4948 16.153 19.2135 15.9746 18.9871C15.9951 19.09 16.0363 19.186 16.05 19.2958C16.1118 19.7144 16.0226 20.1261 15.9814 20.5447C15.954 20.7574 15.9471 20.9701 15.954 21.1828C15.9677 21.3681 16.002 21.5465 16.0706 21.7181C15.8716 21.6014 15.7481 21.3887 15.6795 21.1691C15.5903 20.8604 15.5766 20.5379 15.5628 20.2222C15.5491 19.9752 15.5354 19.7281 15.4805 19.4811C15.4462 19.3439 15.4119 19.2066 15.3295 19.09C15.3707 19.0488 15.4325 19.0557 15.4874 19.0488Z" fill="#F9D616"/>
<path d="M14.0599 18.9733C14.0942 18.9665 14.1285 18.987 14.1628 18.9939C14.451 19.0557 14.7461 19.0831 15.0343 19.0763C15.1235 19.0763 15.2195 19.0763 15.3156 19.0625C15.3499 19.1655 15.3568 19.2752 15.3568 19.385C15.3636 19.5977 15.3156 19.8105 15.2676 20.0095C15.1852 20.3183 15.0823 20.6133 15.0205 20.9221C14.9588 21.2035 14.9313 21.5053 15 21.7935C14.8421 21.6632 14.7529 21.471 14.7186 21.272C14.6637 20.977 14.6912 20.6751 14.7186 20.38C14.7461 20.1261 14.7804 19.8722 14.7735 19.6184C14.7804 19.4331 14.7461 19.2547 14.6912 19.0763C14.6912 19.2547 14.6706 19.4331 14.6226 19.5977C14.4785 20.0918 14.1971 20.5241 14.0393 21.0113C13.9638 21.2377 13.9227 21.471 13.9432 21.7112C13.8129 21.5534 13.7442 21.3407 13.7442 21.1348C13.7374 20.8329 13.8197 20.5378 13.8952 20.2428C13.9844 19.9065 14.0805 19.5703 14.0873 19.2272C14.0873 19.1449 14.0667 19.0694 14.0667 18.9939C14.053 18.987 14.053 18.9802 14.0599 18.9733Z" fill="#F9D616"/>
</svg>
