<svg width="30" height="30" viewBox="0 0 30 30" fill="none" xmlns="http://www.w3.org/2000/svg">
<path d="M15 6.10352e-05C10.0938 6.10352e-05 5.73647 2.35367 2.9986 5.99731H27.0013C24.2635 2.36053 19.9062 6.10352e-05 15 6.10352e-05Z" fill="#000099"/>
<path d="M15 30C19.9062 30 24.2635 27.6464 27.0013 24.0028H2.9986C5.73647 27.6464 10.0938 30 15 30Z" fill="#000099"/>
<path d="M27.0013 6.0042H2.9985C1.11836 8.50878 -0.00012207 11.6241 -0.00012207 15.0069C-0.00012207 18.383 1.11836 21.4982 2.9985 24.0097H27.0013C28.8814 21.5051 29.9999 18.383 29.9999 15.0069C29.9999 11.6241 28.8814 8.50878 27.0013 6.0042Z" fill="#CC0000"/>
<path d="M14.8353 8.39893C14.8696 8.30287 14.9588 8.23425 15.048 8.18622C15.1304 8.23425 15.2127 8.30287 15.247 8.39893C15.2676 8.48128 15.2607 8.56362 15.2333 8.64596C15.1098 8.64596 14.9794 8.64596 14.849 8.6391C14.8216 8.56362 14.801 8.47441 14.8353 8.39893Z" fill="white"/>
<path d="M14.7802 8.92728C14.7802 8.85866 14.7802 8.79004 14.7802 8.72142C14.9518 8.72142 15.1165 8.72142 15.2811 8.72142C15.2811 8.79004 15.2811 8.85866 15.2811 8.92728C15.1233 8.92728 14.9518 8.92728 14.7802 8.92728Z" fill="white"/>
<path d="M14.6773 9.00962C14.9106 9.00962 15.1508 9.00962 15.3841 9.00962C15.3841 9.0851 15.3841 9.15372 15.3841 9.2292C15.1508 9.2292 14.9106 9.2292 14.6773 9.2292C14.6773 9.15372 14.6773 9.0851 14.6773 9.00962Z" fill="white"/>
<path d="M14.5883 9.30474C14.8833 9.3116 15.1852 9.3116 15.4803 9.30474C15.4803 9.38708 15.4803 9.46256 15.4803 9.5449C15.1852 9.55176 14.8902 9.55176 14.5951 9.5449C14.5883 9.46256 14.5883 9.38022 14.5883 9.30474Z" fill="white"/>
<path d="M14.3755 9.46257C14.451 9.49688 14.5128 9.55864 14.5677 9.61353C14.8765 9.61353 15.1853 9.61353 15.494 9.61353C15.5558 9.55864 15.6107 9.49688 15.693 9.46257C15.6793 9.54491 15.597 9.58609 15.5283 9.62726C15.5283 9.7096 15.5283 9.79194 15.5283 9.87429C15.4323 9.86742 15.3293 9.88114 15.2264 9.86742C15.1578 9.83311 15.1029 9.77821 15.0274 9.77135C14.9588 9.79194 14.9039 9.83311 14.849 9.86742C14.7461 9.87428 14.6432 9.86742 14.5471 9.87429C14.5471 9.79194 14.5471 9.7096 14.5471 9.63412C14.4716 9.59295 14.3893 9.55177 14.3755 9.46257Z" fill="white"/>
<path d="M14.2316 9.80556C14.3345 9.81242 14.41 9.89477 14.4923 9.94966C14.5884 9.94966 14.6776 9.94966 14.7736 9.94966C14.7325 9.99769 14.705 10.0526 14.6776 10.1075C14.609 10.0869 14.506 10.0526 14.458 10.1349C14.4306 10.0869 14.4374 10.0183 14.4374 9.96338C14.3482 9.92221 14.2727 9.87418 14.2316 9.80556Z" fill="white"/>
<path d="M15.583 9.94966C15.6585 9.88791 15.7409 9.833 15.8301 9.79183C15.8232 9.80556 15.8232 9.833 15.8163 9.84673C15.7614 9.89476 15.7065 9.92907 15.6448 9.95652C15.6379 10.0663 15.6242 10.183 15.6311 10.2996C15.5762 10.2996 15.5281 10.2996 15.4732 10.2996C15.5144 10.2516 15.5624 10.1967 15.6105 10.1555C15.6242 10.1006 15.5624 10.0869 15.5144 10.0732C15.4801 10.0869 15.4389 10.1006 15.3978 10.1075C15.3703 10.0526 15.336 9.99769 15.3017 9.94966C15.3909 9.94966 15.487 9.94966 15.583 9.94966Z" fill="white"/>
<path d="M14.7116 10.2311C14.7459 10.0664 14.8695 9.92229 15.0273 9.85368C15.1988 9.90171 15.3223 10.0595 15.3567 10.2311C15.4047 10.2036 15.4459 10.1693 15.4939 10.1487C15.4527 10.1968 15.4115 10.2448 15.3772 10.2928C15.2743 10.2311 15.1645 10.1625 15.041 10.135C14.9106 10.1487 14.8008 10.2242 14.6911 10.2928C14.6499 10.2448 14.6087 10.2036 14.5744 10.1487C14.6224 10.1762 14.6636 10.2036 14.7116 10.2311Z" fill="white"/>
<path d="M7.49327 10.0184C7.50013 10.0115 7.50699 9.99091 7.51386 9.98405C7.63051 10.2173 7.7403 10.4507 7.78147 10.7114C7.79519 10.8143 7.80205 10.9379 7.7403 11.0339C7.66482 11.0133 7.58247 10.9859 7.50013 10.979C7.41779 10.9927 7.33545 11.0133 7.25997 11.0408C7.2188 10.9378 7.22566 10.8212 7.23939 10.7114C7.28742 10.4644 7.39034 10.2379 7.49327 10.0184Z" fill="white"/>
<path d="M22.239 10.629C22.2939 10.4026 22.3968 10.1898 22.4929 9.97712C22.5135 10.0252 22.5409 10.0732 22.5684 10.1212C22.6782 10.3682 22.788 10.629 22.7742 10.9035C22.7605 10.9446 22.7468 10.9858 22.7331 11.027C22.6576 11.0064 22.5752 10.9858 22.4929 10.9721C22.4106 10.9789 22.3282 11.0133 22.2459 11.027C22.1841 10.9035 22.2116 10.7594 22.239 10.629Z" fill="white"/>
<path d="M14.4304 10.1556C14.4373 10.1556 14.4579 10.1556 14.4647 10.1556C14.5059 10.2105 14.5539 10.2585 14.602 10.3066C14.5471 10.3066 14.4922 10.3066 14.4304 10.3066C14.4373 10.2517 14.4373 10.2036 14.4304 10.1556Z" fill="white"/>
<path d="M14.0871 10.1693C14.1832 10.1968 14.2655 10.2585 14.3479 10.3203C14.3547 10.3409 14.3616 10.3546 14.3684 10.3752C14.4508 10.3752 14.5263 10.3752 14.6086 10.3752C14.5811 10.4095 14.5537 10.4438 14.5331 10.4781C14.4645 10.4507 14.3959 10.4369 14.3273 10.4369C14.3204 10.4095 14.3135 10.3958 14.3135 10.3683C14.2243 10.3203 14.1008 10.2791 14.0871 10.1693Z" fill="white"/>
<path d="M15.7067 10.3271C15.789 10.2653 15.8782 10.1761 15.988 10.1761C15.9468 10.2791 15.8439 10.3271 15.7478 10.3683C15.7478 10.3888 15.7478 10.4163 15.7478 10.4369C15.6792 10.4369 15.6106 10.4575 15.542 10.478C15.5145 10.4437 15.4939 10.4094 15.4665 10.3751C15.5488 10.3751 15.6243 10.3751 15.7067 10.3751C15.7067 10.3614 15.7067 10.3408 15.7067 10.3271Z" fill="white"/>
<path d="M14.5677 10.5809C14.6363 10.3957 14.8147 10.279 14.9931 10.2241C15.0412 10.2035 15.096 10.231 15.1509 10.2516C15.3019 10.3133 15.446 10.43 15.5078 10.5878C15.5695 10.5535 15.6381 10.526 15.7067 10.5123C15.6519 10.5603 15.5901 10.6084 15.5352 10.6564C15.5146 10.6701 15.494 10.6839 15.4666 10.677C15.398 10.677 15.3294 10.6839 15.2607 10.6701C15.1853 10.6427 15.1166 10.5947 15.0343 10.5878C14.9588 10.6015 14.8902 10.6495 14.8147 10.6701C14.7324 10.677 14.6569 10.6701 14.5745 10.6701C14.5128 10.6152 14.4442 10.5604 14.3755 10.5055C14.4373 10.526 14.5059 10.5535 14.5677 10.5809Z" fill="white"/>
<path d="M14.3275 10.5742C14.3687 10.6085 14.4167 10.6428 14.4579 10.684C14.4099 10.684 14.3687 10.684 14.3275 10.684C14.3275 10.6496 14.3275 10.6085 14.3275 10.5742Z" fill="white"/>
<path d="M13.8882 10.5742C14.0323 10.581 14.1421 10.684 14.2656 10.7526C14.4097 10.7594 14.5606 10.7526 14.7047 10.7526C14.5949 10.8281 14.5195 10.931 14.4577 11.0476C14.3685 11.0065 14.2656 10.9653 14.1695 11.0065C14.1695 10.931 14.1695 10.8486 14.1695 10.7732C14.0666 10.7251 13.9225 10.6977 13.8882 10.5742Z" fill="white"/>
<path d="M15.8027 10.7525C15.9263 10.6839 16.036 10.581 16.1801 10.5672C16.1458 10.6908 16.0017 10.7182 15.8988 10.7731C15.8988 10.8486 15.8988 10.9309 15.8988 11.0064C15.7959 10.9721 15.6998 11.0064 15.6106 11.0476C15.5489 10.9309 15.4734 10.828 15.3636 10.7525C15.5077 10.7594 15.6586 10.7662 15.8027 10.7525Z" fill="white"/>
<path d="M15.611 10.6771C15.659 10.6428 15.7002 10.6085 15.7482 10.5742C15.7482 10.6016 15.7482 10.6565 15.7482 10.684C15.7002 10.684 15.6521 10.684 15.611 10.6771Z" fill="white"/>
<path d="M14.938 10.6976C14.9792 10.6839 15.0203 10.6565 15.0615 10.6771C15.2879 10.7525 15.4938 10.9309 15.5624 11.1642C15.6379 11.1093 15.7202 11.0682 15.8163 11.0613C15.734 11.1437 15.6448 11.2329 15.5487 11.3015C15.4732 11.3083 15.3909 11.3083 15.3154 11.3015C15.2262 11.2603 15.137 11.2054 15.0341 11.1848C14.9243 11.1986 14.8282 11.2672 14.7253 11.3083C14.6498 11.3083 14.5674 11.3221 14.492 11.3015C14.4028 11.226 14.3204 11.1437 14.2449 11.0613C14.3341 11.0682 14.4165 11.1093 14.492 11.1642C14.5674 10.9515 14.739 10.7868 14.938 10.6976Z" fill="white"/>
<path d="M13.5864 11.0271C13.5521 10.9928 13.5658 10.9447 13.5658 10.9036C13.7031 10.931 13.8197 11.0133 13.9295 11.0888C13.9844 11.1231 14.0324 11.178 14.101 11.1918C14.101 11.2192 14.101 11.2466 14.101 11.2741C14.1765 11.2741 14.252 11.2741 14.3275 11.2741C14.3961 11.2672 14.4304 11.3427 14.4784 11.377C14.5265 11.377 14.5745 11.377 14.6225 11.377C14.6157 11.3839 14.6088 11.3976 14.6088 11.4045C14.5059 11.4868 14.4236 11.5966 14.3481 11.6995C14.204 11.7132 14.0599 11.6584 13.9226 11.6995C13.9158 11.5348 13.9226 11.3702 13.9158 11.2055C13.7991 11.1643 13.6687 11.1231 13.5864 11.0271Z" fill="white"/>
<path d="M16.0569 11.1642C16.1667 11.0819 16.2765 10.9927 16.4068 10.9378C16.4411 10.9241 16.4755 10.9104 16.5166 10.9241C16.5098 10.9584 16.5166 10.9996 16.4892 11.027C16.4 11.1231 16.2833 11.1711 16.1667 11.2123C16.1667 11.377 16.1667 11.5416 16.1598 11.7063C16.0912 11.6926 16.0226 11.6789 15.9539 11.6926C15.8853 11.7063 15.8236 11.7132 15.755 11.7063C15.7206 11.7132 15.7069 11.672 15.6932 11.6514C15.6314 11.5485 15.5422 11.4593 15.4462 11.3838C15.4942 11.3838 15.5491 11.3838 15.5971 11.3838C15.6383 11.3564 15.6657 11.3152 15.7069 11.2878C15.7961 11.274 15.8853 11.2878 15.9745 11.2809C15.9745 11.2534 15.9745 11.226 15.9745 11.1986C16.002 11.1917 16.0294 11.178 16.0569 11.1642Z" fill="white"/>
<path d="M7.36262 11.0819C7.43124 11.0613 7.49986 11.0339 7.57534 11.0613C7.77433 11.1162 8.00078 11.1848 8.11743 11.3701C8.19291 11.3495 8.27525 11.3221 8.35073 11.3152C8.26839 11.3495 8.19291 11.4044 8.1037 11.4387C8.02136 11.4456 7.93902 11.4387 7.84982 11.4387C7.7812 11.2878 7.65768 11.1642 7.493 11.1231C7.34204 11.1711 7.21166 11.2877 7.14991 11.4318C7.06756 11.4318 6.98522 11.4387 6.90288 11.4318C6.82054 11.3975 6.7382 11.3426 6.66272 11.3083C6.74506 11.3083 6.81367 11.3426 6.88915 11.3564C7.0058 11.2123 7.18421 11.1299 7.36262 11.0819Z" fill="white"/>
<path d="M21.8823 11.3701C21.9989 11.1917 22.2117 11.1162 22.4107 11.0613C22.4999 11.027 22.5891 11.0682 22.6714 11.0888C22.8361 11.1437 23.0076 11.2123 23.0968 11.3633C23.1723 11.3358 23.2478 11.3152 23.3301 11.3084C23.2547 11.3427 23.1792 11.3907 23.0968 11.4319C23.0076 11.4456 22.9253 11.4387 22.8361 11.4387C22.7743 11.2878 22.644 11.178 22.4861 11.1231C22.3283 11.178 22.1979 11.2878 22.1362 11.4387C22.047 11.4387 21.9646 11.4456 21.8823 11.4387C21.7999 11.4044 21.7313 11.3495 21.649 11.3152C21.7313 11.3221 21.8068 11.3427 21.8823 11.3701Z" fill="white"/>
<path d="M14.1766 11.2054C14.1766 11.1711 14.1766 11.1368 14.1766 11.1024C14.2109 11.1368 14.2521 11.1711 14.2864 11.2054C14.2453 11.2054 14.2109 11.2054 14.1766 11.2054Z" fill="white"/>
<path d="M15.7891 11.2054C15.8234 11.1711 15.8645 11.1368 15.8989 11.1024C15.8989 11.1368 15.8989 11.1711 15.8989 11.2054C15.8577 11.2054 15.8234 11.2054 15.7891 11.2054Z" fill="white"/>
<path d="M7.45858 11.2329C7.5272 11.1986 7.58896 11.2535 7.64385 11.2878C7.71933 11.3496 7.79482 11.4388 7.78796 11.5417C7.69189 11.5074 7.60268 11.4594 7.49975 11.4525C7.40368 11.4662 7.31448 11.5074 7.22528 11.5417C7.22528 11.3976 7.34879 11.2947 7.45858 11.2329Z" fill="white"/>
<path d="M22.4452 11.2261C22.507 11.1918 22.5619 11.2398 22.6099 11.2741C22.6923 11.3359 22.7746 11.4319 22.7746 11.5417C22.6854 11.5074 22.5893 11.4594 22.4933 11.4525C22.3903 11.4594 22.3011 11.5074 22.2051 11.5417C22.2119 11.3976 22.3286 11.2878 22.4452 11.2261Z" fill="white"/>
<path d="M14.9379 11.2946C14.9791 11.2808 15.0203 11.2534 15.0683 11.274C15.3565 11.3769 15.6173 11.5896 15.7133 11.8847C15.8094 11.8229 15.9192 11.7612 16.0358 11.768C15.926 11.8778 15.8094 11.9808 15.6996 12.0906C15.6447 12.0906 15.5761 12.1043 15.5281 12.0631C15.3908 11.9602 15.233 11.8847 15.0683 11.8367C15.0271 11.8229 14.986 11.8435 14.9448 11.8572C14.787 11.9121 14.636 11.9876 14.5056 12.0906C14.4576 12.0906 14.4164 12.0906 14.3753 12.0906C14.2655 11.9808 14.1488 11.8778 14.0322 11.768C14.1557 11.7612 14.2655 11.8229 14.3615 11.8847C14.4507 11.6102 14.6772 11.4044 14.9379 11.2946Z" fill="white"/>
<path d="M13.2568 11.521C13.3872 11.4936 13.5039 11.5759 13.6137 11.6308C13.7303 11.6788 13.8195 11.7818 13.9499 11.7955C14.0803 11.919 14.2106 12.0425 14.341 12.166C14.3685 12.166 14.389 12.1729 14.4165 12.1729C14.3204 12.2621 14.2449 12.365 14.1832 12.4748C14.0322 12.4199 13.8538 12.3444 13.7029 12.4474C13.696 12.4542 13.6891 12.4748 13.6891 12.4885C13.6823 12.2484 13.6823 12.0082 13.6823 11.7681C13.5588 11.7406 13.4421 11.7132 13.3323 11.6514C13.2843 11.6102 13.2363 11.5759 13.2568 11.521Z" fill="white"/>
<path d="M16.6608 11.5348C16.7088 11.5142 16.7705 11.5074 16.8186 11.5211C16.8323 11.576 16.7843 11.6172 16.7431 11.6446C16.6333 11.7064 16.5098 11.7338 16.3931 11.7544C16.3931 11.9946 16.3932 12.2416 16.3863 12.4818C16.3794 12.4749 16.3726 12.4543 16.3726 12.4406C16.3245 12.4131 16.2696 12.3857 16.2079 12.3857C16.0981 12.3857 15.9952 12.4337 15.8922 12.4749C15.8305 12.3582 15.755 12.2553 15.6589 12.1661C15.6795 12.1661 15.707 12.1593 15.7344 12.1593C15.8648 12.0357 15.9952 11.9122 16.1255 11.7887C16.1736 11.7819 16.2147 11.7818 16.2559 11.7544C16.3794 11.6721 16.5098 11.5897 16.6608 11.5348Z" fill="white"/>
<path d="M21.8959 11.8984C22.0263 11.6857 22.2596 11.5828 22.4929 11.521C22.7056 11.5759 22.9252 11.6788 23.0624 11.8641C23.1173 11.9259 23.083 12.0082 23.083 12.0837C22.9252 11.9259 22.7125 11.8161 22.4929 11.7749C22.2665 11.8161 22.0538 11.9259 21.8959 12.0905C21.8959 12.0219 21.8891 11.9602 21.8959 11.8984Z" fill="white"/>
<path d="M6.90271 11.9121C7.02622 11.7131 7.23894 11.5965 7.45852 11.5347C7.54086 11.5142 7.62321 11.5553 7.69869 11.5828C7.86337 11.6514 8.02806 11.7543 8.1104 11.919C8.1104 11.9739 8.09668 12.0219 8.09668 12.0768C7.93885 11.9121 7.72613 11.8023 7.49969 11.768C7.28011 11.8161 7.07426 11.9121 6.92329 12.0768C6.91643 12.0219 6.90957 11.967 6.90271 11.9121Z" fill="white"/>
<path d="M6.90271 12.2278C7.02622 12.0288 7.23894 11.9121 7.45852 11.8504C7.52714 11.8298 7.58889 11.8573 7.65065 11.8778C7.8222 11.9465 8.00061 12.0425 8.09668 12.2072C8.1104 12.269 8.09668 12.3307 8.09668 12.3925C8.03492 12.3925 7.9663 12.3925 7.90454 12.3925C7.80848 12.269 7.69182 12.166 7.55458 12.0974C7.534 12.0906 7.51342 12.07 7.48597 12.0837C7.33501 12.1523 7.2115 12.269 7.10171 12.3993C7.03995 12.3993 6.9782 12.3993 6.90958 12.3993C6.91644 12.3444 6.90957 12.2827 6.90271 12.2278Z" fill="white"/>
<path d="M21.9237 12.1729C22.0472 12.0082 22.2394 11.9122 22.4315 11.8573C22.507 11.8298 22.5756 11.8641 22.6442 11.8916C22.8158 11.9533 22.9873 12.0563 23.0834 12.221C23.104 12.2827 23.0834 12.3445 23.0834 12.3994C23.0148 12.3994 22.953 12.3994 22.8844 12.3994C22.7883 12.2827 22.6717 12.1729 22.5413 12.1043C22.5207 12.0974 22.5001 12.0769 22.4727 12.0906C22.3217 12.1523 22.1982 12.2758 22.0953 12.3994C22.0335 12.4131 21.9649 12.3994 21.8963 12.4062C21.9031 12.3239 21.8688 12.2347 21.9237 12.1729Z" fill="white"/>
<path d="M14.2245 12.5916C14.348 12.2416 14.6842 12.0083 15.0273 11.9122C15.192 11.9466 15.343 12.0289 15.4802 12.125C15.6449 12.2416 15.7821 12.4063 15.8507 12.5984C15.9743 12.5298 16.1115 12.4612 16.2487 12.4749C16.1183 12.6053 15.9742 12.7219 15.837 12.8455C15.7135 12.8455 15.59 12.8523 15.4665 12.8386C15.3292 12.7631 15.192 12.667 15.0342 12.6396C14.8832 12.6808 14.746 12.7563 14.6225 12.8455C14.4989 12.8523 14.3686 12.8455 14.2382 12.8455C14.1078 12.7288 13.9774 12.6122 13.8402 12.5024C13.8402 12.4955 13.8402 12.4818 13.8402 12.4749C13.9774 12.4612 14.101 12.5229 14.2245 12.5916Z" fill="white"/>
<path d="M6.91003 13.0307C6.97865 12.6808 7.1845 12.3377 7.50014 12.173C7.55504 12.1798 7.59621 12.221 7.64424 12.2485C7.88441 12.4406 8.05595 12.7288 8.10399 13.0307C8.11085 13.0307 8.11771 13.0307 8.12457 13.0307C8.20691 12.9484 8.29612 12.8523 8.41964 12.866C8.30985 13.0307 8.20005 13.1954 8.0834 13.3532C8.07654 13.3395 8.06968 13.3189 8.06968 13.3052C7.95302 13.0582 7.76776 12.8386 7.51387 12.7151H7.49328C7.23253 12.8386 7.03354 13.0787 6.92375 13.3395C6.91002 13.3326 6.90316 13.3258 6.88944 13.3121C6.79337 13.1611 6.68359 13.017 6.58752 12.8592C6.69045 12.8454 6.77279 12.9141 6.84141 12.9758C6.86886 13.0033 6.88258 13.0307 6.91003 13.0307Z" fill="white"/>
<path d="M8.17902 12.173C8.18588 12.1867 8.19274 12.2073 8.19274 12.221C8.24764 12.2759 8.28195 12.3377 8.30254 12.4132C8.42605 12.3583 8.54956 12.2896 8.69366 12.3034C8.56328 12.4131 8.43291 12.5161 8.30254 12.6259C8.2545 12.6259 8.1996 12.6327 8.15843 12.6259C8.08981 12.5847 8.02119 12.5367 7.95258 12.4886C8.02806 12.4818 8.09668 12.4818 8.17216 12.4818C8.17902 12.372 8.18588 12.2759 8.17902 12.173Z" fill="white"/>
<path d="M21.8894 13.0376C21.958 12.6807 22.1639 12.3308 22.4933 12.1592C22.8226 12.3308 23.0216 12.6807 23.0971 13.0376C23.1795 12.9552 23.2755 12.8454 23.4128 12.866C23.2961 13.0238 23.1863 13.1885 23.0834 13.3463C22.9667 13.0787 22.7678 12.8317 22.4933 12.7013C22.2188 12.8248 22.0267 13.0719 21.9032 13.3463C21.7934 13.1885 21.6836 13.0238 21.5738 12.8591C21.7042 12.8454 21.8071 12.9552 21.8894 13.0376Z" fill="white"/>
<path d="M12.9346 12.2072C12.9689 12.1661 13.0307 12.1866 13.0719 12.1935C13.264 12.2553 13.4355 12.3719 13.6002 12.4817C13.6002 12.4954 13.6002 12.5229 13.6002 12.5435C13.6826 12.5572 13.7786 12.5229 13.8335 12.5915C13.957 12.7013 14.0737 12.8042 14.1972 12.914C14.2384 12.914 14.2727 12.914 14.3139 12.914C14.3413 12.9483 14.3687 12.9826 14.3893 13.0101C14.3413 13.0581 14.3001 13.113 14.2521 13.1679C13.9776 13.1679 13.6963 13.1679 13.415 13.1679C13.415 12.962 13.4149 12.7562 13.4081 12.5503C13.2708 12.516 13.1336 12.4611 13.017 12.3856C12.9827 12.3445 12.914 12.2827 12.9346 12.2072Z" fill="white"/>
<path d="M17.0038 12.1935C17.0449 12.1866 17.0998 12.1661 17.1273 12.2072C17.1547 12.2827 17.0792 12.3376 17.0243 12.3788C16.9077 12.4542 16.7705 12.5023 16.6332 12.5435C16.6264 12.7493 16.6401 12.9552 16.6195 13.161C16.345 13.161 16.0705 13.161 15.7892 13.161C15.748 13.0993 15.7 13.0444 15.652 12.9895C15.6794 12.962 15.7069 12.9277 15.7412 12.9071C15.7892 12.9003 15.851 12.9209 15.8853 12.8797C16.0088 12.7699 16.1392 12.667 16.2627 12.5503C16.3244 12.5435 16.3931 12.5435 16.4617 12.5435C16.4617 12.5229 16.4617 12.5023 16.4617 12.4817C16.6332 12.3719 16.8116 12.2553 17.0038 12.1935Z" fill="white"/>
<path d="M6.73137 12.4062C6.75195 12.3444 6.78626 12.2827 6.82743 12.2278C6.84802 12.3101 6.84803 12.3925 6.85489 12.4748C6.92351 12.4748 6.98526 12.4748 7.05388 12.4748C7.05388 12.4817 7.04701 12.5023 7.04015 12.5091C6.99212 12.5434 6.94408 12.5846 6.88919 12.612C6.84116 12.6258 6.79313 12.612 6.73824 12.612C6.60786 12.5022 6.47748 12.3993 6.34711 12.2964C6.47748 12.2827 6.60786 12.3513 6.73137 12.4062Z" fill="white"/>
<path d="M12.4132 13.71C12.4132 13.2434 12.3995 12.7836 12.4063 12.3239C12.4544 12.4748 12.5504 12.6533 12.722 12.6807C12.9347 12.6876 13.1406 12.6807 13.3464 12.6876C13.3464 12.8385 13.3533 12.9895 13.3464 13.1473C13.1543 13.0375 12.9553 12.9346 12.7426 12.866C12.6602 12.8454 12.5642 12.8179 12.4818 12.866C12.4269 12.8934 12.4063 12.9689 12.4269 13.0307C12.4612 13.0993 12.5299 13.1404 12.5985 13.1748C12.7288 13.2365 12.8798 13.264 13.0239 13.2983C13.0239 13.5933 13.0239 13.8952 13.0308 14.1903C13.4493 14.1903 13.8679 14.1903 14.2865 14.1903C14.211 14.2795 14.1493 14.3893 14.1012 14.4991C13.9914 14.4373 13.8748 14.3756 13.7375 14.3824C13.6758 14.3824 13.6209 14.4236 13.566 14.4579C13.6003 14.4854 13.6346 14.5197 13.6621 14.5471C13.2435 14.554 12.8318 14.5471 12.4132 14.5471C12.4132 14.2727 12.4063 13.9982 12.4063 13.7237L12.4132 13.71Z" fill="white"/>
<path d="M17.6622 12.3171C17.6691 12.5847 17.6554 12.8454 17.6622 13.1131C17.6554 13.2846 17.6622 13.4561 17.6485 13.6208C17.6485 13.9296 17.6416 14.2315 17.6416 14.5403C17.2231 14.5403 16.8113 14.5403 16.3928 14.5403C16.4202 14.5129 16.4477 14.4923 16.4683 14.4648C16.482 14.4237 16.4202 14.4099 16.3928 14.3962C16.2418 14.3413 16.0908 14.4237 15.9536 14.4923C15.9056 14.3825 15.8438 14.2796 15.7752 14.1835C16.1938 14.1835 16.6124 14.1835 17.0309 14.1835C17.0309 13.8884 17.0378 13.5865 17.0378 13.2915C17.1887 13.2571 17.3466 13.2228 17.4907 13.1542C17.5456 13.1268 17.6005 13.0856 17.6279 13.0307C17.6691 12.9621 17.6279 12.866 17.5524 12.8454C17.4838 12.818 17.4083 12.8386 17.3397 12.8592C17.1133 12.9209 16.9143 13.0376 16.7084 13.1405C16.7016 12.9895 16.7221 12.8317 16.7153 12.6808C16.928 12.6808 17.1338 12.6808 17.3466 12.6739C17.5181 12.6464 17.6142 12.468 17.6622 12.3171Z" fill="white"/>
<path d="M21.6903 12.5435C21.7178 12.4611 21.7727 12.3925 21.8207 12.3239C21.8276 12.3788 21.8344 12.4268 21.8413 12.4748C21.9099 12.4748 21.9785 12.4748 22.0403 12.4748C21.9648 12.564 21.9511 12.6876 21.8481 12.7493C21.8001 12.7562 21.7452 12.7562 21.6972 12.7493C21.5599 12.6464 21.4364 12.5366 21.2992 12.4337C21.4433 12.42 21.5668 12.4817 21.6903 12.5435Z" fill="white"/>
<path d="M23.1722 12.3444C23.2065 12.4062 23.2477 12.4748 23.2751 12.5434C23.3987 12.4817 23.5222 12.4199 23.6663 12.4336C23.529 12.5365 23.4055 12.6463 23.2683 12.7493C23.2203 12.763 23.1654 12.7561 23.1173 12.7561C23.0487 12.6738 23.0144 12.564 22.9526 12.4748C23.0213 12.4748 23.0899 12.4748 23.1516 12.4748C23.1516 12.4336 23.1654 12.3924 23.1722 12.3444Z" fill="white"/>
<path d="M8.06238 12.6395C8.131 12.6876 8.19275 12.7425 8.26137 12.7974C8.26137 12.8042 8.26137 12.8111 8.26137 12.8179C8.23392 12.8385 8.20648 12.8523 8.17903 12.866C8.17217 12.8728 8.17216 12.8866 8.1653 12.8934C8.12413 12.8111 8.09669 12.7219 8.06238 12.6395Z" fill="white"/>
<path d="M6.75873 12.818C6.81362 12.7631 6.87537 12.715 6.94399 12.667C6.90968 12.7425 6.88224 12.818 6.85479 12.9003C6.85479 12.8934 6.84793 12.8797 6.84107 12.8729C6.81362 12.8591 6.78618 12.8385 6.75873 12.818Z" fill="white"/>
<path d="M14.1493 13.5659C14.2728 13.1611 14.6159 12.8454 15.007 12.7082C15.055 12.6944 15.1031 12.7219 15.1511 12.7425C15.4942 12.8934 15.7961 13.1816 15.9059 13.5522C15.9265 13.559 15.9471 13.5385 15.9677 13.5247C16.0843 13.4493 16.2216 13.3738 16.3657 13.4149C16.2078 13.5728 16.05 13.7306 15.899 13.8884C15.7687 13.8884 15.6452 13.8884 15.5148 13.8884C15.4805 13.8953 15.453 13.8678 15.4256 13.8541C15.3158 13.7855 15.1991 13.7237 15.0756 13.6826C15.0482 13.6688 15.0139 13.6688 14.9796 13.6826C14.8423 13.7374 14.7051 13.7992 14.5884 13.8884C14.4512 13.8884 14.3071 13.8884 14.1699 13.8884C14.0189 13.7374 13.8611 13.5865 13.717 13.4287C13.717 13.4218 13.717 13.4149 13.717 13.4081C13.8817 13.3944 14.0258 13.4767 14.1493 13.5659Z" fill="white"/>
<path d="M7.46539 12.818C7.50656 12.7836 7.5546 12.8111 7.59577 12.8454C7.87024 13.0307 8.05551 13.3463 8.11041 13.6688C8.20647 13.5934 8.29567 13.4767 8.42605 13.4973C8.31626 13.662 8.20647 13.8198 8.09668 13.9845C8.08296 13.9845 8.06237 13.9845 8.04864 13.9845C7.94571 13.7512 7.78789 13.5316 7.57517 13.3806C7.54772 13.3669 7.51342 13.3395 7.47911 13.36C7.2458 13.5041 7.08799 13.7374 6.97134 13.9776C6.9233 13.9982 6.90272 13.9433 6.87527 13.9159C6.77921 13.7718 6.67628 13.6414 6.59393 13.4973C6.70372 13.4836 6.79292 13.559 6.8684 13.6345C6.88213 13.6414 6.89586 13.6688 6.90958 13.6551C6.9782 13.3257 7.16347 13.0032 7.46539 12.818Z" fill="white"/>
<path d="M22.2942 12.9347C22.356 12.8866 22.4177 12.8249 22.4932 12.8043C22.6441 12.866 22.7608 12.9964 22.8637 13.1199C22.9735 13.2778 23.0627 13.4562 23.0833 13.6483C23.0902 13.6483 23.1039 13.6483 23.1176 13.6483C23.1931 13.566 23.2892 13.4768 23.4058 13.4905C23.3029 13.6552 23.1862 13.813 23.0764 13.9708C23.0559 13.9708 23.0353 13.9708 23.0147 13.9708C23.0078 13.9571 23.0078 13.9365 23.001 13.9228C22.9049 13.7375 22.7883 13.5591 22.6167 13.4219C22.5755 13.3944 22.5344 13.3532 22.4863 13.3395C22.4246 13.3601 22.3697 13.4081 22.3216 13.4493C22.1501 13.5934 22.0403 13.7787 21.9442 13.9708C21.9305 13.9708 21.9099 13.9708 21.8962 13.9708C21.7864 13.813 21.6766 13.6483 21.5668 13.4905C21.6972 13.4699 21.8001 13.5797 21.8825 13.6689C21.8893 13.6414 21.8893 13.6071 21.8962 13.5797C21.9717 13.3395 22.1021 13.1062 22.2942 12.9347Z" fill="white"/>
<path d="M12.5024 12.9346C12.5984 12.8866 12.7014 12.9278 12.7974 12.9552C13.0033 13.0307 13.1954 13.1336 13.3807 13.2434C13.662 13.2503 13.9434 13.2434 14.2178 13.2434C14.1767 13.3052 14.1424 13.3738 14.1081 13.4424C14.0051 13.3807 13.8885 13.3258 13.765 13.3258C13.6963 13.3258 13.6346 13.3601 13.5797 13.4012C13.7718 13.5865 13.9502 13.7786 14.1355 13.9639C14.1767 13.9639 14.2178 13.9639 14.259 13.9639C14.2933 14.0051 14.3208 14.0531 14.3482 14.1011C13.9296 14.1011 13.5179 14.1011 13.0994 14.1011C13.0994 13.8061 13.0856 13.5179 13.0856 13.2228C12.9004 13.1885 12.7082 13.1542 12.5504 13.0513C12.5161 13.0307 12.5024 12.9827 12.5024 12.9346Z" fill="white"/>
<path d="M17.2714 12.9552C17.3674 12.9278 17.4704 12.8866 17.5664 12.9346C17.5733 13.017 17.4978 13.065 17.4361 13.0925C17.292 13.1611 17.1273 13.1954 16.9694 13.216C16.9557 13.5179 16.9557 13.8061 16.9557 14.1011C16.5372 14.1011 16.1186 14.1011 15.7 14.1011C15.7343 14.0531 15.7618 14.0119 15.7961 13.9708C15.8441 13.9708 15.8853 13.9708 15.9333 13.9708C16.1186 13.7786 16.3039 13.6002 16.4823 13.4081C16.4342 13.3669 16.3725 13.3326 16.3038 13.3326C16.1803 13.3326 16.0637 13.3875 15.9608 13.4493C15.9264 13.3807 15.8921 13.312 15.851 13.2503C16.1323 13.2503 16.4136 13.2503 16.6881 13.2503C16.8734 13.1268 17.0655 13.0307 17.2714 12.9552Z" fill="white"/>
<path d="M8.42619 13.0032C8.48109 13.0787 8.52912 13.161 8.55657 13.2502C8.71439 13.161 8.89279 13.0718 9.07806 13.1061C8.96827 13.209 8.85849 13.3051 8.74184 13.3943C8.6595 13.4355 8.57029 13.4355 8.48109 13.4561C8.3713 13.3737 8.25465 13.4698 8.13799 13.5041C8.13799 13.4767 8.13113 13.4561 8.12427 13.4355C8.23406 13.2914 8.33012 13.1473 8.42619 13.0032Z" fill="white"/>
<path d="M6.4846 13.2502C6.51205 13.1679 6.55322 13.0924 6.60125 13.0169C6.69732 13.1473 6.78653 13.2914 6.88259 13.4218C6.88259 13.4286 6.88259 13.4492 6.88945 13.4561C6.64242 13.4149 6.3954 13.36 6.1621 13.2571C6.07975 13.2228 6.01799 13.161 5.95624 13.0993C6.14837 13.0718 6.32678 13.161 6.4846 13.2502Z" fill="white"/>
<path d="M21.4432 13.3875C21.4844 13.2709 21.5393 13.1611 21.6285 13.0788C21.7039 13.1885 21.7794 13.2983 21.8549 13.4081C21.8824 13.4424 21.8549 13.4836 21.8549 13.5248C21.7794 13.4767 21.7108 13.4219 21.6147 13.4219C21.5598 13.4219 21.5187 13.463 21.4844 13.5042C21.5324 13.5728 21.5804 13.6483 21.6285 13.7169C21.5736 13.71 21.5049 13.7306 21.4569 13.7032C21.2716 13.5522 21.1001 13.3944 20.9217 13.2434C21.1001 13.2091 21.2854 13.2915 21.4432 13.3875Z" fill="white"/>
<path d="M23.3437 13.0993C23.3643 13.0993 23.3712 13.1267 23.3918 13.1405C23.4467 13.2159 23.4878 13.2983 23.5153 13.3875C23.68 13.2983 23.8584 13.1954 24.0505 13.2434C23.8584 13.3875 23.6868 13.559 23.4947 13.71C23.4467 13.7237 23.3986 13.7169 23.3506 13.7169C23.3986 13.6482 23.4467 13.5728 23.5016 13.5041C23.4673 13.4698 23.4261 13.4287 23.3712 13.4287C23.2751 13.4218 23.1996 13.4767 23.131 13.5247C23.1242 13.4973 23.1104 13.463 23.1036 13.4355C23.1928 13.3326 23.2614 13.2091 23.3437 13.0993Z" fill="white"/>
<path d="M5.94225 13.2159C6.1138 13.3463 6.31965 13.4081 6.51865 13.463C6.51179 13.4767 6.50492 13.4973 6.50492 13.511C6.62157 13.6825 6.73823 13.8541 6.85488 14.0256C6.86861 14.0599 6.90977 14.0668 6.93722 14.0737C6.89605 14.156 6.87546 14.2452 6.84801 14.3344C6.82743 14.4168 6.82057 14.4991 6.82743 14.5746C6.75195 14.5403 6.66275 14.4991 6.57354 14.5266C6.53923 14.5403 6.51178 14.5609 6.48434 14.5883C6.60785 14.7187 6.71764 14.8491 6.84115 14.9726C6.53923 14.9726 6.23045 14.9726 5.92853 14.9726C5.92853 14.8628 5.92852 14.7461 5.93539 14.6295C5.94225 14.156 5.94225 13.6825 5.94225 13.2159Z" fill="white"/>
<path d="M20.7774 13.2159C20.997 13.4149 21.2166 13.5933 21.4362 13.7923C21.5185 13.7992 21.6009 13.7923 21.6832 13.7992C21.745 13.8884 21.8067 13.9776 21.8616 14.0668C21.8753 14.0668 21.9028 14.0668 21.9165 14.0668C21.9097 14.0737 21.9028 14.0942 21.9028 14.1011C21.8479 14.2521 21.793 14.4099 21.8067 14.5746C21.7312 14.5471 21.6626 14.506 21.5803 14.5197C21.5322 14.5197 21.4979 14.554 21.4636 14.5814C21.5803 14.705 21.6969 14.8422 21.8204 14.9657C21.4636 14.9657 21.1068 14.9657 20.75 14.9657C20.75 14.7736 20.75 14.5814 20.75 14.3893C20.7774 13.9982 20.7706 13.6071 20.7774 13.2159Z" fill="white"/>
<path d="M8.49478 13.5316C8.75553 13.4836 9.03686 13.4355 9.24957 13.2571C9.24957 13.312 9.24958 13.3738 9.24272 13.4287C9.22899 13.6345 9.23585 13.8472 9.22899 14.0531C9.2084 14.2658 9.21527 14.4854 9.20841 14.705C9.20154 14.7942 9.20154 14.8834 9.19468 14.9726C8.85159 14.9726 8.50849 14.9726 8.1654 14.9726C8.28205 14.8491 8.39185 14.7256 8.50164 14.602C8.5085 14.5952 8.50849 14.5746 8.50849 14.5677C8.41243 14.4854 8.28206 14.5266 8.17227 14.5677C8.19972 14.3962 8.13109 14.2246 8.06934 14.0668C8.08306 14.0668 8.11051 14.0668 8.12423 14.06C8.25461 13.8884 8.37813 13.71 8.49478 13.5316Z" fill="white"/>
<path d="M23.5222 13.7924C23.7075 13.6345 23.8928 13.4699 24.0781 13.312C24.0781 13.5865 24.0712 13.861 24.0575 14.1355C24.0575 14.4168 24.0369 14.6913 24.03 14.9726C23.7418 14.9726 23.4468 14.9726 23.1517 14.9657C23.2752 14.8422 23.3919 14.705 23.5085 14.5815C23.4193 14.4786 23.2752 14.5197 23.1654 14.5746C23.186 14.3962 23.1174 14.2315 23.0625 14.0737C23.0762 14.0737 23.1037 14.0668 23.1174 14.06C23.186 13.9776 23.2409 13.8816 23.3027 13.7992C23.3713 13.7924 23.4468 13.7924 23.5222 13.7924Z" fill="white"/>
<path d="M21.9647 14.156C22.0676 13.8678 22.2323 13.5934 22.493 13.4287C22.7332 13.5865 22.8979 13.8404 23.0008 14.1149C23.042 14.2384 23.0969 14.3619 23.09 14.4923C22.9665 14.259 22.7538 14.0737 22.5136 13.9845C22.4793 13.9708 22.4519 13.9913 22.4244 14.0051C22.198 14.1011 22.0058 14.2727 21.896 14.4923C21.8892 14.3756 21.9372 14.2658 21.9647 14.156Z" fill="white"/>
<path d="M6.97172 14.1903C7.07465 13.9021 7.23247 13.614 7.49322 13.4424H7.5138C7.77455 13.614 7.93238 13.8953 8.03531 14.1835C8.06962 14.2864 8.10393 14.3962 8.11079 14.506C7.98042 14.2727 7.77456 14.0874 7.52067 13.9914C7.4795 13.9776 7.43832 14.0119 7.39715 14.0257C7.18443 14.1217 7.00603 14.3001 6.89624 14.4991C6.9031 14.3893 6.94427 14.2864 6.97172 14.1903Z" fill="white"/>
<path d="M14.8766 13.8129C14.9315 13.7854 14.9864 13.7511 15.0413 13.7511C15.3021 13.8335 15.5422 14.005 15.7138 14.2177C15.803 14.3344 15.8785 14.4579 15.9196 14.602C16.0569 14.5265 16.2078 14.4236 16.3725 14.4579C16.2216 14.6157 16.0569 14.7667 15.9128 14.9314C15.3364 14.9382 14.7531 14.9382 14.1767 14.9314C14.0258 14.7667 13.8611 14.6157 13.717 14.4579C13.8748 14.4305 14.0189 14.5059 14.1424 14.5951C14.1493 14.5951 14.163 14.602 14.1699 14.602C14.2591 14.2452 14.5404 13.9639 14.8766 13.8129Z" fill="white"/>
<path d="M14.3547 13.9707C14.4028 13.9707 14.4439 13.9707 14.492 13.9707C14.4645 13.9981 14.4371 14.0187 14.4165 14.0462C14.3959 14.0119 14.3753 13.9913 14.3547 13.9707Z" fill="white"/>
<path d="M15.5763 13.9707C15.6175 13.9707 15.6586 13.9707 15.6998 13.9707C15.6861 13.9913 15.6655 14.0119 15.6518 14.0393C15.6312 14.0119 15.6037 13.9913 15.5763 13.9707Z" fill="white"/>
<path d="M7.42435 14.0943C7.46552 14.0805 7.49983 14.0531 7.541 14.0668C7.81547 14.1835 8.04192 14.4236 8.11053 14.7118C8.19974 14.6501 8.2958 14.5815 8.41245 14.5815C8.31638 14.6981 8.20659 14.8079 8.10367 14.9246C7.70568 14.9314 7.3077 14.9314 6.90971 14.9246C6.81365 14.8079 6.69699 14.6981 6.60779 14.5815C6.71758 14.5746 6.8205 14.6363 6.90284 14.7118C6.97832 14.4511 7.17046 14.2178 7.42435 14.0943Z" fill="white"/>
<path d="M21.8891 14.7187C21.9715 14.4167 22.2048 14.1629 22.493 14.0668C22.7812 14.1697 23.0145 14.4236 23.0968 14.7187C23.186 14.6501 23.2821 14.5814 23.3987 14.5883C23.3164 14.6844 23.2272 14.7667 23.1517 14.8628C23.1243 14.8902 23.0968 14.9382 23.0488 14.9314C22.6645 14.9314 22.2871 14.9314 21.9028 14.9314C21.7999 14.8147 21.697 14.7049 21.5941 14.5883C21.7038 14.5814 21.7999 14.6501 21.8891 14.7187Z" fill="white"/>
<path d="M5.22894 14.2863C5.44166 14.2863 5.64751 14.2863 5.86023 14.2863C5.86023 14.4991 5.86023 14.7186 5.86023 14.9314C5.65438 14.9314 5.44167 14.9314 5.23581 14.9314C5.22895 14.7186 5.22894 14.4991 5.22894 14.2863Z" fill="white"/>
<path d="M9.29762 14.2863C10.3132 14.2863 11.3356 14.2863 12.3511 14.2863C12.3511 14.3961 12.3511 14.5059 12.3511 14.6226C12.3786 14.6226 12.406 14.6226 12.4404 14.6226C12.4815 14.7804 12.6188 14.9108 12.7834 14.9382C11.6169 14.9382 10.4436 14.9382 9.27704 14.9382C9.27704 14.7186 9.29762 14.4991 9.29762 14.2863Z" fill="white"/>
<path d="M17.7174 14.2863C18.7055 14.2863 19.7005 14.2863 20.6817 14.2863C20.6886 14.3207 20.6886 14.3618 20.6886 14.3961C20.668 14.5745 20.6817 14.753 20.6817 14.9382C19.5495 14.9382 18.4173 14.9382 17.2783 14.9382C17.4429 14.9176 17.5802 14.7873 17.6282 14.6294C17.6557 14.6294 17.6831 14.6294 17.7106 14.6294C17.7174 14.5059 17.7174 14.3961 17.7174 14.2863Z" fill="white"/>
<path d="M24.1124 14.9314C24.1124 14.7186 24.133 14.4991 24.133 14.2863C24.3731 14.2863 24.6064 14.2863 24.8397 14.2863C24.8397 14.4991 24.8397 14.7186 24.8397 14.9314C24.5996 14.9382 24.3525 14.9382 24.1124 14.9314Z" fill="white"/>
<path d="M12.5157 14.6227C12.9275 14.6227 13.3392 14.6227 13.7509 14.6227C13.8264 14.705 13.9156 14.7805 13.991 14.8628C13.6068 14.8628 13.2294 14.8628 12.8451 14.8628C12.701 14.8628 12.5706 14.753 12.5157 14.6227Z" fill="white"/>
<path d="M16.3177 14.6227C16.7294 14.6227 17.1411 14.6227 17.5528 14.6227C17.5048 14.7599 17.3676 14.8628 17.2235 14.8628C16.8392 14.8628 16.4618 14.8628 16.0775 14.8628C16.153 14.7805 16.2353 14.6981 16.3177 14.6227Z" fill="white"/>
<path d="M9.46948 15.0068C10.636 15.0068 11.8025 15.0068 12.9622 15.0068C12.9622 15.2127 12.9622 15.4117 12.9622 15.6107C11.8025 15.6107 10.636 15.6107 9.46948 15.6107C9.46948 15.4117 9.46948 15.2127 9.46948 15.0068Z" fill="white"/>
<path d="M14.3617 15.0068C14.4303 15.0068 14.4989 15.0068 14.5676 15.0068C14.5676 15.1098 14.5676 15.2058 14.5676 15.3088C14.4989 15.2058 14.4303 15.1098 14.3617 15.0068Z" fill="white"/>
<path d="M14.6431 15.0069C14.7667 15.0137 14.8902 14.9932 15.0068 15.0206C15.1441 14.9932 15.2882 15.0137 15.4254 15.0069C15.4254 17.2782 15.4254 19.5426 15.4254 21.8138C15.295 21.8276 15.1715 21.8207 15.0411 21.8207C14.9039 21.8207 14.7735 21.8276 14.6363 21.8138C14.6432 19.5426 14.6431 17.2782 14.6431 15.0069Z" fill="white"/>
<path d="M15.5011 15.0068C15.5629 15.0068 15.6315 15.0068 15.6932 15.0068C15.6315 15.1029 15.5629 15.1852 15.5011 15.2813C15.5011 15.1921 15.5011 15.1029 15.5011 15.0068Z" fill="white"/>
<path d="M15.7957 15.0068C15.8506 15.0068 15.9055 15.0068 15.9604 15.0068C15.9604 16.0087 15.9604 17.0105 15.9604 18.0123C15.9329 18.0123 15.9055 18.0123 15.8849 18.0123C15.8849 17.4702 15.8849 16.9213 15.8849 16.3792C15.7614 16.3792 15.631 16.3792 15.5075 16.3792C15.5075 16.0567 15.5075 15.7342 15.5075 15.4117C15.5898 15.2744 15.6996 15.1509 15.7957 15.0068Z" fill="white"/>
<path d="M17.0175 15.0068C18.1566 15.0068 19.3025 15.0068 20.4416 15.0068C20.4416 15.2127 20.4416 15.4117 20.4416 15.6107C19.3025 15.6107 18.1566 15.6107 17.0175 15.6107C17.0175 15.4117 17.0175 15.2127 17.0175 15.0068Z" fill="white"/>
<path d="M20.5238 15.0138C20.5718 15.0206 20.6267 15.0206 20.6816 15.0206C20.6885 15.0275 20.6953 15.0344 20.709 15.0412C21.1208 15.0412 21.5325 15.0412 21.951 15.0412C21.951 16.0293 21.951 17.0174 21.951 18.0055C21.9373 18.0055 21.9167 18.0055 21.903 18.0055C21.903 17.4634 21.903 16.9145 21.903 16.3724C21.752 16.3724 21.6011 16.3724 21.4501 16.3724C21.4295 16.4891 21.457 16.5989 21.4433 16.7155C21.4433 16.8459 21.4364 16.9763 21.4501 17.1066C21.4501 17.1478 21.4501 17.1958 21.4501 17.2439C21.4364 17.4634 21.457 17.6762 21.4433 17.8889C21.4433 17.9301 21.4433 17.9644 21.4501 17.9987C21.1413 17.9987 20.8394 17.9987 20.5306 17.9987C20.5238 17.0106 20.5169 16.0087 20.5238 15.0138Z" fill="white"/>
<path d="M24.1195 15.0206C24.147 15.0206 24.1676 15.0206 24.2019 15.0138C24.2087 15.0206 24.2224 15.0206 24.2293 15.0275C24.2293 16.0225 24.2293 17.0106 24.2293 18.0055C24.0166 18.0055 23.8107 18.0055 23.6049 18.0055C23.6049 17.4634 23.6049 16.9214 23.6049 16.3724C23.4539 16.3724 23.303 16.3724 23.152 16.3724C23.152 16.9145 23.152 17.4566 23.152 17.9987C23.1383 17.9987 23.1108 17.9987 23.0971 17.9987C23.0971 17.0106 23.0971 16.0225 23.0971 15.0343C23.4059 15.0343 23.7215 15.0343 24.0303 15.0343C24.0578 15.0481 24.0989 15.0549 24.1195 15.0206Z" fill="white"/>
<path d="M5.40704 15.0068C5.48939 15.0068 5.56486 15.0068 5.6472 15.0068C5.6472 15.2127 5.6472 15.4117 5.6472 15.6107C5.56486 15.6107 5.48939 15.6107 5.40704 15.6107C5.40704 15.4117 5.40704 15.2127 5.40704 15.0068Z" fill="white"/>
<path d="M5.72272 18.0124C5.72272 17.0106 5.72272 16.0087 5.72272 15.0138C5.76389 15.0138 5.7982 15.0138 5.83937 15.0138C5.84623 15.0275 5.85309 15.0412 5.85995 15.0481C6.21677 15.0481 6.57359 15.0481 6.93041 15.0481C6.93041 16.0362 6.93041 17.0243 6.93041 18.0124C6.91669 18.0124 6.88924 18.0124 6.87551 18.0124C6.87551 17.4703 6.87551 16.9214 6.87551 16.3793C6.72455 16.3793 6.57359 16.3793 6.42263 16.3793C6.42263 16.9214 6.42263 17.4703 6.42263 18.0124C6.19619 18.0124 5.96288 18.0124 5.72272 18.0124Z" fill="white"/>
<path d="M9.27706 15.0068C9.31823 15.0068 9.3594 15.0068 9.39371 15.0068C9.39371 16.0087 9.39371 17.0105 9.39371 18.0055C9.12609 18.0055 8.85848 18.0055 8.584 18.0055C8.584 17.4634 8.584 16.9144 8.584 16.3723C8.43304 16.3723 8.28209 16.3723 8.13113 16.3723C8.13113 16.9144 8.13113 17.4634 8.13113 18.0055C8.11741 18.0055 8.09682 18.0055 8.07623 18.0055C8.07623 17.0174 8.07623 16.0293 8.07623 15.0411C8.47422 15.0411 8.8722 15.0411 9.27019 15.0411C9.27705 15.0411 9.27706 15.0206 9.27706 15.0068Z" fill="white"/>
<path d="M13.0377 18.0124C13.0377 17.0106 13.0377 16.0087 13.0377 15.0138C13.374 15.0138 13.7033 15.0138 14.0327 15.0138C14.0327 16.0156 14.0327 17.0174 14.0327 18.0124C14.0052 18.0124 13.9847 18.0124 13.9572 18.0124C13.9572 17.4703 13.9572 16.9214 13.9572 16.3793C13.8062 16.3793 13.6553 16.3793 13.5043 16.3793C13.5043 16.9214 13.5043 17.4703 13.5043 18.0124C13.3534 18.0124 13.1955 18.0124 13.0377 18.0124Z" fill="white"/>
<path d="M14.1078 18.0123C14.1078 17.0105 14.1078 16.0087 14.1078 15.0068C14.1627 15.0068 14.2108 15.0068 14.2657 15.0068C14.3686 15.1509 14.4647 15.295 14.5676 15.4391C14.5676 15.7479 14.5676 16.0636 14.5676 16.3723C14.4441 16.3723 14.3206 16.3723 14.1902 16.3723C14.1902 16.9144 14.1902 17.4634 14.1902 18.0055C14.1627 18.0123 14.1353 18.0123 14.1078 18.0123Z" fill="white"/>
<path d="M16.0359 18.0123C16.0359 17.0105 16.0359 16.0087 16.0359 15.0068C16.3379 15.0068 16.6398 15.0068 16.9417 15.0068C16.9417 16.0087 16.9417 17.0105 16.9417 18.0123C16.8251 18.0055 16.7084 18.0123 16.5849 18.0123C16.5849 17.4702 16.5849 16.9213 16.5849 16.3792C16.4339 16.3792 16.283 16.3792 16.132 16.3792C16.132 16.9213 16.132 17.4702 16.132 18.0123C16.1046 18.0123 16.0703 18.0123 16.0359 18.0123Z" fill="white"/>
<path d="M24.2979 15.0068C24.394 15.0068 24.4969 15.0068 24.593 15.0068C24.593 15.2127 24.593 15.4117 24.593 15.6107C24.4969 15.6107 24.394 15.6107 24.2979 15.6107C24.2979 15.4117 24.2979 15.2127 24.2979 15.0068Z" fill="white"/>
<path d="M7.01251 15.0412C7.04682 15.0412 7.08113 15.0412 7.11544 15.0412C7.11544 16.2146 7.11544 17.3811 7.11544 18.5545C7.08113 18.5545 7.04682 18.5545 7.01251 18.5545C7.01251 17.388 7.01251 16.2146 7.01251 15.0412Z" fill="white"/>
<path d="M7.19116 15.0412C7.40388 15.0412 7.6166 15.0412 7.82245 15.0412C7.82245 16.2077 7.82245 17.3811 7.82245 18.5476C7.60973 18.5476 7.39702 18.5476 7.19116 18.5476C7.19116 17.388 7.19116 16.2146 7.19116 15.0412Z" fill="white"/>
<path d="M22.0195 15.048C22.0538 15.048 22.0813 15.048 22.1156 15.048C22.1156 16.2214 22.1156 17.3879 22.1156 18.5613C22.0813 18.5613 22.047 18.5613 22.0195 18.5613C22.0195 17.3879 22.0195 16.2145 22.0195 15.048Z" fill="white"/>
<path d="M22.1912 18.5544C22.1912 17.3879 22.1912 16.2145 22.1912 15.048C22.4039 15.048 22.6167 15.048 22.8294 15.048C22.8294 16.2145 22.8294 17.3879 22.8294 18.5544C22.6167 18.5613 22.4039 18.5613 22.1912 18.5544Z" fill="white"/>
<path d="M7.9046 18.5544C7.9046 17.3879 7.9046 16.2145 7.9046 15.048C7.93891 15.048 7.97322 15.048 8.00753 15.048C8.00753 16.2145 8.00753 17.3879 8.00753 18.5613C7.97322 18.5544 7.93891 18.5544 7.9046 18.5544Z" fill="white"/>
<path d="M22.9116 18.5613C22.9116 17.3879 22.9116 16.2214 22.9116 15.048C22.9459 15.048 22.9802 15.048 23.0145 15.048C23.0145 16.2145 23.0145 17.3879 23.0145 18.5544C22.9802 18.5544 22.9459 18.5544 22.9116 18.5613Z" fill="white"/>
<path d="M5.50995 15.6863C5.55798 15.6863 5.60601 15.6863 5.64718 15.6863C5.64718 16.4617 5.64718 17.2302 5.64718 18.0056C5.59915 18.0056 5.55798 18.0056 5.50995 18.0056C5.50995 17.237 5.50995 16.4617 5.50995 15.6863Z" fill="white"/>
<path d="M9.46948 15.6863C10.636 15.6863 11.8025 15.6863 12.9622 15.6863C12.9622 16.4617 12.9622 17.2302 12.9622 18.0056C12.8867 18.0056 12.8112 18.0056 12.7426 18.0056C12.7426 17.4635 12.7426 16.9145 12.7426 16.3724C12.5916 16.3724 12.4407 16.3724 12.2897 16.3724C12.2897 16.9145 12.2897 17.4635 12.2897 18.0056C12.2142 18.0056 12.1387 18.0056 12.0633 18.0056C12.0633 17.4635 12.0633 16.9145 12.0633 16.3724C11.9123 16.3724 11.7613 16.3724 11.6104 16.3724C11.6104 16.9145 11.6104 17.4635 11.6104 18.0056C11.5623 18.0056 11.5143 18.0056 11.4663 18.0056C11.4663 17.4635 11.4663 16.9145 11.4663 16.3724C11.3085 16.3724 11.1575 16.3724 11.0065 16.3724C11.0065 16.9145 11.0065 17.4635 11.0065 18.0056C10.9585 18.0056 10.9105 18.0056 10.8624 18.0056C10.8624 17.4635 10.8624 16.9145 10.8624 16.3724C10.7115 16.3724 10.5605 16.3724 10.4096 16.3724C10.4096 16.9145 10.4096 17.4635 10.4096 18.0056C10.3341 18.0124 10.2586 18.0056 10.1831 18.0056C10.1831 17.4635 10.1831 16.9145 10.1831 16.3724C10.0321 16.3724 9.88119 16.3724 9.73023 16.3724C9.73023 16.9145 9.73023 17.4635 9.73023 18.0056C9.64788 18.0056 9.55868 18.0056 9.47634 18.0056C9.46948 17.237 9.46948 16.4617 9.46948 15.6863Z" fill="white"/>
<path d="M17.0175 15.6863C18.1566 15.6863 19.3025 15.6863 20.4416 15.6863C20.4416 16.4617 20.4416 17.2302 20.4416 18.0056C20.3935 18.0056 20.3386 18.0056 20.2838 18.0056C20.2838 17.4635 20.2838 16.9145 20.2838 16.3724C20.1328 16.3724 19.9818 16.3724 19.8309 16.3724C19.8309 16.9145 19.8309 17.4635 19.8309 18.0056C19.7554 18.0056 19.6799 18.0056 19.6044 18.0056C19.6044 17.4635 19.6044 16.9145 19.6044 16.3724C19.4535 16.3724 19.3025 16.3724 19.1516 16.3724C19.1516 16.9145 19.1516 17.4635 19.1516 18.0056C19.1035 18.0056 19.0486 18.0056 19.0006 18.0056C19.0006 17.4635 19.0006 16.9145 19.0006 16.3724C18.8496 16.3724 18.6987 16.3724 18.5477 16.3724C18.5477 16.9145 18.5477 17.4635 18.5477 18.0056C18.4997 18.0056 18.4516 18.0056 18.4036 18.0056C18.4036 17.9575 18.4036 17.9026 18.4036 17.8546C18.4036 17.7242 18.4036 17.5939 18.4036 17.4635C18.4036 17.0998 18.4036 16.7361 18.4036 16.3724C18.2527 16.3724 18.0948 16.3724 17.9439 16.3724C17.9439 16.9145 17.9439 17.4635 17.9439 18.0056C17.8684 18.0056 17.7929 18.0056 17.7243 18.0056C17.7243 17.4635 17.7243 16.9145 17.7243 16.3724C17.5733 16.3724 17.4224 16.3724 17.2714 16.3724C17.2714 16.8802 17.2714 17.3811 17.2714 17.8889C17.2714 17.9301 17.2645 17.9713 17.2577 18.0124C17.1822 18.0056 17.0999 18.0056 17.0175 18.0056C17.0175 17.237 17.0175 16.4617 17.0175 15.6863Z" fill="white"/>
<path d="M24.291 15.6931C24.3528 15.6931 24.4214 15.6931 24.4831 15.6931C24.4831 16.4685 24.4831 17.237 24.4831 18.0124C24.4214 18.0124 24.3528 18.0124 24.291 18.0124C24.291 17.8751 24.291 17.731 24.291 17.5869C24.291 16.9556 24.291 16.3175 24.291 15.6931Z" fill="white"/>
<path d="M6.50488 16.4548C6.60781 16.4548 6.70388 16.4548 6.79995 16.4548C6.79995 16.9694 6.79995 17.4909 6.79995 18.0055C6.69702 18.0055 6.60095 18.0055 6.50488 18.0055C6.50488 17.4909 6.50488 16.9694 6.50488 16.4548Z" fill="white"/>
<path d="M8.21381 16.4548C8.30987 16.4548 8.4128 16.4548 8.51573 16.4548C8.51573 16.9694 8.51573 17.4909 8.51573 18.0055C8.4128 18.0055 8.31673 18.0055 8.21381 18.0055C8.21381 17.4909 8.21381 16.9694 8.21381 16.4548Z" fill="white"/>
<path d="M10.4847 16.4548C10.5877 16.4548 10.6837 16.4548 10.7867 16.4548C10.7867 16.9694 10.7798 17.4909 10.7867 18.0055C10.6837 18.0055 10.5877 18.0055 10.4847 18.0055C10.4847 17.4909 10.4847 16.9694 10.4847 16.4548Z" fill="white"/>
<path d="M11.0819 16.4548C11.1848 16.4548 11.2878 16.4548 11.3907 16.4548C11.3907 16.9694 11.3907 17.4909 11.3907 18.0055C11.2878 18.0055 11.1848 18.0055 11.0819 18.0055C11.0819 17.4909 11.0819 16.9694 11.0819 16.4548Z" fill="white"/>
<path d="M11.6855 18.0055C11.6855 17.484 11.6855 16.9694 11.6855 16.4548C11.7816 16.4548 11.8845 16.4548 11.9806 16.4548C11.9806 16.9694 11.9806 17.4909 11.9806 18.0055C11.8845 18.0124 11.7885 18.0124 11.6855 18.0055Z" fill="white"/>
<path d="M12.3648 16.4548C12.4677 16.4548 12.5638 16.4548 12.6667 16.4548C12.6667 16.9694 12.6667 17.4909 12.6667 18.0055C12.5638 18.0055 12.4677 18.0055 12.3648 18.0055C12.3648 17.4909 12.3648 16.9694 12.3648 16.4548Z" fill="white"/>
<path d="M13.5795 16.4548C13.6824 16.4548 13.7785 16.4548 13.8814 16.4548C13.8814 16.9694 13.8814 17.4909 13.8814 18.0055C13.7785 18.0055 13.6824 18.0055 13.5795 18.0055C13.5795 17.4909 13.5795 16.9694 13.5795 16.4548Z" fill="white"/>
<path d="M14.2657 16.4548C14.3686 16.4548 14.4647 16.4548 14.5676 16.4548C14.5676 16.9694 14.5676 17.4909 14.5676 18.0055C14.4647 18.0055 14.3686 18.0055 14.2657 18.0055C14.2657 17.4909 14.2657 16.9694 14.2657 16.4548Z" fill="white"/>
<path d="M15.5011 16.4548C15.604 16.4548 15.7001 16.4548 15.803 16.4548C15.803 16.9694 15.803 17.4909 15.803 18.0055C15.7001 18.0055 15.604 18.0055 15.5011 18.0055C15.5011 17.4909 15.5011 16.9694 15.5011 16.4548Z" fill="white"/>
<path d="M16.2145 16.4548C16.3175 16.4548 16.4135 16.4548 16.5165 16.4548C16.5165 16.9694 16.5165 17.4909 16.5165 18.0055C16.4204 18.0055 16.3175 18.0055 16.2145 18.0055C16.2145 17.4909 16.2145 16.9694 16.2145 16.4548Z" fill="white"/>
<path d="M17.3396 16.4548C17.4357 16.4548 17.5386 16.4548 17.6415 16.4548C17.6415 16.9694 17.6415 17.4909 17.6415 18.0055C17.5386 18.0055 17.4425 18.0055 17.3465 18.0055C17.3465 17.9918 17.3396 17.9644 17.3396 17.9575C17.3465 17.8408 17.3396 17.7173 17.3465 17.6007C17.3465 17.5252 17.3465 17.4566 17.3465 17.388C17.3465 17.0998 17.3465 16.8116 17.3465 16.5234C17.3396 16.5028 17.3396 16.4753 17.3396 16.4548Z" fill="white"/>
<path d="M18.0194 16.4548C18.1223 16.4548 18.2253 16.4548 18.3282 16.4548C18.3282 16.9694 18.3282 17.4909 18.3282 18.0055C18.2253 18.0055 18.1223 18.0055 18.0194 18.0055C18.0194 17.4909 18.0194 16.9694 18.0194 16.4548Z" fill="white"/>
<path d="M18.623 16.4548C18.726 16.4548 18.822 16.4548 18.925 16.4548C18.925 16.9694 18.925 17.4909 18.925 18.0055C18.8289 18.0055 18.726 18.0055 18.623 18.0055C18.623 17.4909 18.623 16.9694 18.623 16.4548Z" fill="white"/>
<path d="M19.9128 16.4548C20.0089 16.4548 20.1118 16.4548 20.2079 16.4548C20.2079 16.9694 20.2079 17.4909 20.2079 18.0055C20.1118 18.0055 20.0089 18.0055 19.9128 18.0055C19.8991 17.8134 19.9197 17.6213 19.906 17.4223C19.906 17.2782 19.906 17.1341 19.9128 16.99C19.8923 16.8184 19.906 16.6332 19.9128 16.4548Z" fill="white"/>
<path d="M21.5119 16.4548C21.6148 16.4548 21.7178 16.4548 21.8207 16.4548C21.8207 16.9694 21.8207 17.4909 21.8207 18.0055C21.7178 18.0055 21.6148 18.0055 21.5119 18.0055C21.5119 17.4909 21.5119 16.9694 21.5119 16.4548Z" fill="white"/>
<path d="M23.2203 16.4548C23.3233 16.4548 23.4193 16.4548 23.5223 16.4548C23.5223 16.9694 23.5223 17.4909 23.5223 18.0055C23.4262 18.0055 23.3233 18.0055 23.2272 18.0055C23.2272 17.5252 23.2272 17.0449 23.2272 16.5645C23.2203 16.5302 23.2203 16.4891 23.2203 16.4548Z" fill="white"/>
<path d="M9.79852 18.0055C9.79852 17.484 9.79852 16.9694 9.79852 16.4548C9.90145 16.4548 9.99752 16.4548 10.1004 16.4548C10.1004 16.9694 10.1004 17.4909 10.1004 18.0055C9.99752 18.0124 9.90145 18.0124 9.79852 18.0055Z" fill="white"/>
<path d="M19.2271 16.4548C19.33 16.4548 19.4261 16.4548 19.529 16.4548C19.529 16.9694 19.529 17.4909 19.529 18.0055C19.4261 18.0055 19.33 18.0055 19.2271 18.0055C19.2271 17.4909 19.2271 16.9694 19.2271 16.4548Z" fill="white"/>
<path d="M6.64924 18.0878C6.71786 18.0878 6.78648 18.0878 6.8551 18.0878C6.83451 18.2456 6.80021 18.3966 6.77962 18.5544C6.69728 18.5544 6.61493 18.5544 6.53259 18.5544C6.57376 18.4035 6.60121 18.2388 6.64924 18.0878Z" fill="white"/>
<path d="M8.15887 18.0878C8.22063 18.0878 8.27552 18.0878 8.33728 18.0878C8.38531 18.2456 8.41277 18.4035 8.45394 18.5544C8.38532 18.5544 8.30983 18.5544 8.24121 18.5544C8.21377 18.4035 8.18632 18.2456 8.15887 18.0878Z" fill="white"/>
<path d="M5.48927 18.1016C5.53044 18.0741 5.60593 18.0947 5.65396 18.0879C5.57848 18.2457 5.49613 18.3967 5.41379 18.5545C5.37262 18.5545 5.33145 18.5545 5.29028 18.5545C5.35204 18.4035 5.41379 18.2457 5.48927 18.1016Z" fill="white"/>
<path d="M5.50299 18.5544C5.58533 18.4035 5.66081 18.2388 5.74315 18.0878C6.01762 18.0878 6.28524 18.0878 6.55971 18.0878C6.53226 18.2456 6.4911 18.4035 6.45679 18.5544C6.13428 18.5544 5.81864 18.5613 5.50299 18.5544Z" fill="white"/>
<path d="M6.91643 18.2114C6.92329 18.1702 6.92329 18.1222 6.93016 18.081C6.93702 18.2388 6.93015 18.3967 6.93701 18.5545C6.90957 18.5545 6.88212 18.5545 6.85468 18.5545C6.8684 18.4447 6.88898 18.328 6.91643 18.2114Z" fill="white"/>
<path d="M8.41962 18.0878C8.75585 18.0878 9.09207 18.0878 9.42144 18.0878C9.50378 18.2456 9.57927 18.4035 9.66161 18.5544C9.28421 18.5544 8.9068 18.5544 8.52254 18.5544C8.49509 18.4035 8.44706 18.2456 8.41962 18.0878Z" fill="white"/>
<path d="M9.51752 18.0878C10.6703 18.0878 11.8231 18.0878 12.9759 18.0878C12.8936 18.2456 12.8043 18.4035 12.722 18.5544C11.7339 18.5544 10.7458 18.5544 9.75769 18.5544C9.67534 18.3966 9.593 18.2456 9.51752 18.0878Z" fill="white"/>
<path d="M12.8111 18.5544C12.8934 18.3966 12.9826 18.2456 13.065 18.0878C13.3669 18.0878 13.6688 18.0878 13.9639 18.0878C13.9227 18.2456 13.8815 18.4035 13.8335 18.5544C13.4904 18.5544 13.1542 18.5613 12.8111 18.5544Z" fill="white"/>
<path d="M13.9502 18.4309C13.9776 18.3142 14.0119 18.2045 14.0394 18.0878C14.1423 18.0878 14.2452 18.0809 14.3482 18.0947C14.3138 18.2456 14.2933 18.4034 14.2658 18.5544C14.1492 18.5544 14.0256 18.5544 13.909 18.5544C13.9227 18.5132 13.9364 18.4721 13.9502 18.4309Z" fill="white"/>
<path d="M14.4307 18.0878C14.4787 18.0878 14.5267 18.0878 14.5679 18.0878C14.5679 18.2456 14.5679 18.4035 14.5679 18.5613C14.4924 18.5613 14.4169 18.5613 14.3483 18.5613C14.3758 18.4035 14.3964 18.2456 14.4307 18.0878Z" fill="white"/>
<path d="M15.5011 18.5613C15.5011 18.4035 15.5011 18.2456 15.5011 18.0878C15.5285 18.0878 15.5629 18.0878 15.5903 18.0947C15.6178 18.2456 15.6521 18.4035 15.6658 18.5544C15.6178 18.5544 15.556 18.5544 15.5011 18.5613Z" fill="white"/>
<path d="M15.6792 18.0878C15.7684 18.0878 15.8645 18.0878 15.9605 18.0878C16.0017 18.2456 16.0429 18.3966 16.084 18.5544C15.9743 18.5544 15.8645 18.5544 15.7547 18.5544C15.7341 18.3966 15.6998 18.2456 15.6792 18.0878Z" fill="white"/>
<path d="M16.0359 18.0878C16.3379 18.0878 16.6398 18.0878 16.9417 18.0878C17.0309 18.2456 17.1133 18.4035 17.1956 18.5544C16.8525 18.5544 16.5094 18.5544 16.1663 18.5544C16.1183 18.3966 16.0771 18.2456 16.0359 18.0878Z" fill="white"/>
<path d="M17.0245 18.0878C18.1635 18.0878 19.3026 18.0878 20.4417 18.0878C20.3662 18.2456 20.2839 18.4035 20.2084 18.5544C19.2271 18.5544 18.2527 18.5544 17.2784 18.5544C17.196 18.3966 17.1068 18.2456 17.0245 18.0878Z" fill="white"/>
<path d="M20.5305 18.0878C20.8599 18.0878 21.1892 18.0878 21.5186 18.0878C21.5255 18.0947 21.5323 18.1015 21.5392 18.1084C21.4912 18.2594 21.4569 18.4103 21.4157 18.5544C21.0383 18.5544 20.6677 18.5544 20.2903 18.5544C20.3727 18.3966 20.455 18.2456 20.5305 18.0878Z" fill="white"/>
<path d="M21.6216 18.0878C21.7039 18.0878 21.7794 18.0878 21.8617 18.0878C21.8343 18.2456 21.8068 18.4035 21.7794 18.5544C21.6833 18.5544 21.5873 18.5544 21.498 18.5544C21.5392 18.4035 21.5804 18.2456 21.6216 18.0878Z" fill="white"/>
<path d="M21.8687 18.5613C21.8824 18.3966 21.9236 18.2456 21.9373 18.0878C21.9441 18.2456 21.9441 18.4035 21.9441 18.5613C21.9167 18.5613 21.8892 18.5613 21.8687 18.5613Z" fill="white"/>
<path d="M23.1654 18.0878C23.2546 18.0878 23.3507 18.0878 23.4399 18.0878C23.4811 18.2456 23.5222 18.4035 23.5634 18.5544C23.4536 18.5544 23.3507 18.5544 23.2478 18.5544C23.2203 18.4035 23.1929 18.2456 23.1654 18.0878Z" fill="white"/>
<path d="M23.5222 18.0878C23.7555 18.0878 23.9888 18.0878 24.2221 18.0878C24.3044 18.2456 24.3867 18.3966 24.4622 18.5544C24.1878 18.5544 23.9133 18.5544 23.6457 18.5544C23.5976 18.4035 23.5565 18.2456 23.5222 18.0878Z" fill="white"/>
<path d="M24.3048 18.0878C24.3734 18.0878 24.442 18.0878 24.5107 18.0878C24.5724 18.2456 24.641 18.3966 24.7028 18.5544C24.6479 18.5544 24.593 18.5544 24.5381 18.5544C24.4695 18.4035 24.3803 18.2456 24.3048 18.0878Z" fill="white"/>
<path d="M23.0902 18.5613C23.0902 18.4035 23.0902 18.2525 23.0971 18.1016C23.1177 18.2525 23.1451 18.4103 23.1726 18.5613C23.1451 18.5544 23.1177 18.5544 23.0902 18.5613Z" fill="white"/>
<path d="M8.08309 18.1222C8.11054 18.2663 8.13112 18.4173 8.15857 18.5614C8.13112 18.5614 8.10368 18.5614 8.07623 18.5614C8.08309 18.4104 8.07623 18.2663 8.08309 18.1222Z" fill="white"/>
<path d="M21.9923 18.63C22.0266 18.63 22.0609 18.63 22.0952 18.63C22.0952 19.6935 22.0952 20.7503 22.0952 21.8138C22.0609 21.8138 22.0266 21.8138 21.9923 21.8138C21.9923 20.7503 21.9923 19.6935 21.9923 18.63Z" fill="white"/>
<path d="M22.8913 18.63C22.9187 18.6437 23.0011 18.6094 22.9942 18.6574C22.9942 19.7073 22.9942 20.7571 22.9942 21.807C22.9599 21.807 22.9256 21.807 22.8913 21.807C22.8913 20.7503 22.8913 19.6935 22.8913 18.63Z" fill="white"/>
<path d="M4.64563 18.63C5.40729 18.63 6.17582 18.63 6.93748 18.63C6.93748 18.6711 6.93748 18.7054 6.93748 18.7466C6.16896 18.7535 5.40729 18.7466 4.64563 18.7466C4.64563 18.7192 4.64563 18.6711 4.64563 18.63Z" fill="white"/>
<path d="M7.01251 21.8138C7.01251 20.7503 7.01251 19.6935 7.01251 18.63C7.04682 18.63 7.08113 18.63 7.11544 18.63C7.11544 19.6935 7.11544 20.7503 7.11544 21.807C7.08113 21.8139 7.04682 21.8138 7.01251 21.8138Z" fill="white"/>
<path d="M7.19116 21.8138C7.19116 20.7502 7.19116 19.6935 7.19116 18.6368C7.40388 18.6368 7.6166 18.6368 7.82245 18.6368C7.82245 19.7003 7.82245 20.7571 7.82245 21.8138C7.6166 21.8207 7.40388 21.8207 7.19116 21.8138Z" fill="white"/>
<path d="M7.9046 18.63C7.93891 18.63 7.97322 18.63 8.00753 18.63C8.00753 19.6935 8.00753 20.7571 8.00753 21.8207C7.97322 21.8207 7.94577 21.8207 7.91146 21.8207C7.9046 20.7571 7.9046 19.6935 7.9046 18.63Z" fill="white"/>
<path d="M8.08339 18.63C10.2449 18.63 12.4064 18.63 14.5678 18.63C14.5678 18.6711 14.5678 18.7123 14.5678 18.7466C12.4064 18.7466 10.2449 18.7466 8.08339 18.7466C8.07653 18.7192 8.07653 18.6711 8.08339 18.63Z" fill="white"/>
<path d="M15.5011 18.7534C15.5011 18.7191 15.5011 18.6711 15.5011 18.6368C17.642 18.6368 19.776 18.6368 21.9169 18.6368C21.9169 18.6779 21.9169 18.7191 21.9169 18.7534C19.7829 18.7534 17.642 18.7534 15.5011 18.7534Z" fill="white"/>
<path d="M22.1704 18.63C22.3831 18.63 22.6027 18.63 22.8085 18.63C22.8085 19.6935 22.8085 20.7503 22.8085 21.807C22.6987 21.8207 22.5821 21.807 22.4723 21.8138C22.3694 21.8138 22.2664 21.8139 22.1635 21.807C22.1772 20.7503 22.1704 19.6935 22.1704 18.63Z" fill="white"/>
<path d="M23.0625 18.7534C23.0625 18.7191 23.0625 18.6711 23.0625 18.6368C23.7967 18.6368 24.5309 18.6368 25.2652 18.6368C25.2652 18.6779 25.2652 18.7122 25.2652 18.7534C24.5378 18.7534 23.8036 18.7534 23.0625 18.7534Z" fill="white"/>
<path d="M15.5011 18.8358C17.642 18.8358 19.776 18.8358 21.9169 18.8358C21.9169 18.9867 21.9169 19.1377 21.9169 19.2887C21.7248 19.2887 21.5327 19.2887 21.3337 19.2887C20.4005 19.2887 19.4672 19.2887 18.534 19.2887C17.5253 19.2887 16.5098 19.2887 15.5011 19.2887C15.5011 19.1308 15.5011 18.9799 15.5011 18.8358Z" fill="white"/>
<path d="M4.32986 18.8358C5.20131 18.8358 6.06591 18.8358 6.93736 18.8358C6.93736 18.9867 6.93736 19.1377 6.93736 19.2887C6.64916 19.2955 6.36096 19.2887 6.0659 19.2887C5.48951 19.2887 4.90626 19.2887 4.323 19.2887C4.32986 19.1308 4.32986 18.9799 4.32986 18.8358Z" fill="white"/>
<path d="M8.08324 18.8358C10.2447 18.8358 12.4062 18.8358 14.5677 18.8358C14.5677 18.9867 14.5677 19.1377 14.5677 19.2887C13.7649 19.2887 12.9689 19.2887 12.166 19.2887C11.7269 19.2887 11.2877 19.2887 10.8554 19.2887C10.2653 19.2887 9.66833 19.2887 9.07135 19.2887C8.83119 19.2887 8.58416 19.2887 8.35086 19.2887C8.26165 19.2887 8.17931 19.2887 8.0901 19.2887C8.07638 19.1308 8.07638 18.9799 8.08324 18.8358Z" fill="white"/>
<path d="M23.0696 18.8358C23.9136 18.8358 24.7508 18.8358 25.5948 18.8358C25.6085 18.9867 25.5948 19.1377 25.6016 19.2887C25.334 19.2887 25.0733 19.2887 24.8125 19.2887C24.5792 19.2887 24.3459 19.2887 24.1057 19.2887C23.8656 19.2887 23.6391 19.2887 23.399 19.2887C23.2892 19.2887 23.1794 19.2887 23.0696 19.2887C23.0627 19.1308 23.0627 18.9799 23.0696 18.8358Z" fill="white"/>
<path d="M3.78076 19.3642C4.79632 19.3642 5.81874 19.3642 6.83429 19.3642C6.8686 19.3642 6.90291 19.371 6.93722 19.371C6.93722 19.4328 6.93722 19.4877 6.93722 19.5426C6.93722 19.6798 6.93722 19.8102 6.93722 19.9474C5.88735 19.9474 4.83062 19.9474 3.78076 19.9474C3.78076 19.8788 3.78076 19.8033 3.78076 19.7347C3.78076 19.673 3.78076 19.6181 3.78076 19.5563C3.78076 19.4945 3.78076 19.4328 3.78076 19.3642Z" fill="white"/>
<path d="M8.07623 19.3641C9.05062 19.3573 10.0181 19.3641 10.9856 19.3572C12.1796 19.3572 13.3736 19.3572 14.5675 19.3572C14.5675 19.5494 14.5675 19.7484 14.5675 19.9474C12.4061 19.9474 10.2446 19.9474 8.07623 19.9474C8.08309 19.7552 8.07623 19.5631 8.07623 19.3641Z" fill="white"/>
<path d="M15.5011 19.3642C17.642 19.3642 19.776 19.3642 21.9169 19.3642C21.9169 19.5563 21.9169 19.7553 21.9169 19.9543C19.776 19.9543 17.642 19.9543 15.5011 19.9543C15.5011 19.7553 15.5011 19.5563 15.5011 19.3642Z" fill="white"/>
<path d="M23.0695 19.9543C23.0695 19.7553 23.0695 19.5632 23.0695 19.3642C24.1262 19.3642 25.176 19.3642 26.2259 19.3642C26.2259 19.5563 26.2259 19.7553 26.2259 19.9543C25.1692 19.9543 24.1193 19.9543 23.0695 19.9543Z" fill="white"/>
<path d="M2.98468 20.0298C4.30215 20.0298 5.61963 20.0298 6.9371 20.0366C6.9371 20.318 6.9371 20.6061 6.9371 20.8875C5.61963 20.8875 4.30215 20.8875 2.98468 20.8875C2.98468 20.5993 2.98468 20.3111 2.98468 20.0298Z" fill="white"/>
<path d="M8.08325 20.0298C10.2447 20.0298 12.4062 20.0298 14.5677 20.0298C14.5677 20.318 14.5677 20.5993 14.5677 20.8875C12.4062 20.8875 10.2447 20.8875 8.08325 20.8875C8.08325 20.5993 8.07639 20.3111 8.08325 20.0298Z" fill="white"/>
<path d="M15.5011 20.0298C17.642 20.0298 19.776 20.0298 21.9169 20.0298C21.9169 20.318 21.9169 20.5993 21.9169 20.8875C19.776 20.8875 17.642 20.8875 15.5011 20.8875C15.5011 20.5993 15.5011 20.3111 15.5011 20.0298Z" fill="white"/>
<path d="M23.0696 20.0298C24.3871 20.0298 25.6977 20.0298 27.0152 20.0298C27.0152 20.318 27.0152 20.5993 27.0152 20.8875C25.6977 20.8875 24.3802 20.8875 23.0696 20.8875C23.0627 20.5993 23.0627 20.3111 23.0696 20.0298Z" fill="white"/>
<path d="M2.20243 20.9698C3.78065 20.9698 5.35887 20.9698 6.9371 20.9698C6.9371 21.2511 6.9371 21.5325 6.9371 21.8138C5.35887 21.8207 3.78064 21.8138 2.19556 21.8138C2.20242 21.5325 2.19556 21.2511 2.20243 20.9698Z" fill="white"/>
<path d="M8.08325 20.9698C10.2447 20.9698 12.4062 20.9698 14.5677 20.9698C14.5677 21.2511 14.5677 21.5325 14.5677 21.8138C12.4062 21.8138 10.2447 21.8138 8.08325 21.8138C8.08325 21.5325 8.07639 21.2511 8.08325 20.9698Z" fill="white"/>
<path d="M15.5011 20.9698C17.642 20.9698 19.776 20.9698 21.9169 20.9698C21.9169 21.2511 21.9169 21.5325 21.9169 21.8138C19.776 21.8138 17.642 21.8138 15.5011 21.8138C15.5011 21.5325 15.5011 21.2511 15.5011 20.9698Z" fill="white"/>
<path d="M23.0695 20.9698C24.6477 20.9698 26.226 20.9698 27.8042 20.9698C27.8042 21.2511 27.8042 21.5325 27.8042 21.8138C26.226 21.8138 24.6477 21.8138 23.0695 21.8138C23.0695 21.5325 23.0627 21.2511 23.0695 20.9698Z" fill="white"/>
</svg>
