<svg width="30" height="30" viewBox="0 0 30 30" fill="none" xmlns="http://www.w3.org/2000/svg">
<path d="M5.8737 18.4286C7.39703 18.4286 8.91352 17.1245 10.4369 17.1245C11.9533 17.1245 13.4767 18.4286 14.9931 18.4286C16.5096 18.4286 18.0329 17.1245 19.5563 17.1245C21.0728 17.1245 22.596 18.4286 24.1193 18.4286C25.6427 18.4286 27.1592 17.1245 28.6756 17.1245C29.053 17.1245 29.4236 17.2069 29.801 17.3236C29.9176 16.5617 30 15.793 30 15.0037C30 6.71957 23.2823 0.000274658 15 0.000274658C6.71774 0.000274658 0 6.71957 0 15.0037C0 15.793 0.0822853 16.5686 0.198937 17.3236C0.569477 17.2069 0.946882 17.1245 1.31742 17.1245C2.83389 17.1245 4.35723 18.4286 5.8737 18.4286Z" fill="#CE1126"/>
<path d="M7.86323 4.42027C8.60431 4.72912 9.38656 4.90759 10.1757 5.03799C10.9168 5.14781 11.6578 5.28507 12.3646 5.55275C12.7008 5.68315 13.0302 5.841 13.3252 6.05376C13.2498 6.05376 13.1743 6.06064 13.1057 6.04692C13.0577 6.03319 13.0164 5.99886 12.9684 5.97141C12.6802 5.79296 12.3578 5.66255 12.0147 5.64882C11.7677 5.64196 11.5206 5.7106 11.3148 5.84787C11.2736 5.87532 11.2393 5.90278 11.1981 5.91651C10.8275 5.93024 10.457 5.93709 10.0865 5.95082C9.9904 5.94395 9.92866 6.04691 9.93553 6.12927C9.94925 6.23909 10.011 6.33516 10.0933 6.41752C10.1963 6.52048 10.3267 6.60285 10.4708 6.60285C10.855 6.61658 11.2461 6.60971 11.6304 6.61657C11.9735 7.02837 12.4264 7.33036 12.9135 7.5294C13.3802 7.72157 13.8811 7.83139 14.3889 7.83826C14.7937 7.83826 15.1917 7.74904 15.5828 7.63236C15.919 7.52941 16.2553 7.399 16.5846 7.26173C16.6738 7.22742 16.7562 7.17936 16.8591 7.18622C17.065 7.19309 17.2777 7.18623 17.4767 7.19309C17.9776 7.19309 18.4716 7.1931 18.9725 7.19996C18.9794 7.13133 18.9932 7.06269 18.952 7.00092C18.8628 6.86365 18.7187 6.76069 18.5677 6.71265C18.4167 6.67833 18.2658 6.67833 18.1148 6.67147C18.4991 6.52734 18.8971 6.43125 19.302 6.34889C19.2951 6.29398 19.2882 6.23908 19.2814 6.19104C18.2315 6.17045 17.1817 6.14299 16.1318 6.1224C16.3308 5.88218 16.5297 5.6145 16.7699 5.4086C16.8591 5.31938 16.9963 5.33997 17.113 5.32624C17.957 5.25761 18.7804 5.09976 19.597 4.887C20.3449 4.69482 21.086 4.44772 21.8065 4.16632C22.2799 3.97415 22.7534 3.76826 23.2063 3.51431C23.1926 3.46627 23.1789 3.41135 23.1652 3.35645H23.1446C21.4634 3.59666 19.7823 3.86433 18.0805 3.86433C17.2983 3.87806 16.4885 3.99475 15.7955 4.37224C15.3014 4.64678 14.8966 5.05171 14.5123 5.46352C14.4712 5.5047 14.43 5.55274 14.382 5.58706C14.3545 5.54588 14.334 5.50469 14.3134 5.47037C14.1487 5.18897 13.9017 4.95563 13.6203 4.79777C13.2292 4.57127 12.7832 4.46146 12.3372 4.41342C11.6167 4.33106 10.8962 4.26927 10.1688 4.18691C9.05719 4.05651 7.94561 3.91239 6.8683 3.61726C6.84085 3.65844 6.81333 3.70647 6.79275 3.75451C6.80647 3.7751 6.8271 3.78884 6.84082 3.80943C7.12902 4.06338 7.49269 4.26241 7.86323 4.42027ZM18.1971 6.82933C18.3412 6.84306 18.4991 6.82934 18.6294 6.91856C18.6775 6.94602 18.7187 6.98719 18.753 7.02151C18.3687 7.02837 17.9776 7.02151 17.5934 7.02151C17.4561 7.02151 17.3257 7.01465 17.1885 7.00779C17.3051 6.95288 17.4218 6.89796 17.5453 6.88423C17.7649 6.85678 17.9844 6.82933 18.1971 6.82933ZM15.0338 5.14779C15.3152 4.87325 15.6308 4.63305 15.9808 4.4546C16.4748 4.21438 17.0307 4.09084 17.5796 4.04966C17.9021 4.01534 18.2246 4.02219 18.5471 4.01533C18.7118 4.01533 18.8765 3.99474 19.0412 3.99474C19.549 3.97415 20.0499 3.92611 20.5508 3.8712C20.8596 3.84375 21.1683 3.78884 21.484 3.76138C21.1546 3.83688 20.8253 3.89866 20.5028 3.96043C20.0568 4.03593 19.6038 4.10456 19.1509 4.13202C18.3344 4.14574 17.5042 4.13202 16.7219 4.39283C16.3857 4.50264 16.0632 4.66736 15.7818 4.88013C15.2192 5.29879 14.7182 5.80668 14.1281 6.18417C14.0732 6.21162 14.0663 6.30084 14.1212 6.3283C14.1624 6.35575 14.2036 6.3283 14.2379 6.30771C14.8555 5.91649 15.3633 5.38114 15.9534 4.95561C16.4817 4.58499 17.1267 4.40656 17.7717 4.35165C18.1628 4.30361 18.5609 4.31046 18.9589 4.29673C19.1579 4.30359 19.3569 4.28301 19.5627 4.26242C20.4067 4.16633 21.2438 3.98788 22.0741 3.80256C22.177 3.78197 22.2731 3.74766 22.3692 3.7408C21.731 4.02906 21.0654 4.26928 20.393 4.47519C19.5764 4.72913 18.7393 4.93504 17.8953 5.05858C17.5933 5.10662 17.2914 5.13407 16.9827 5.16153C16.914 5.16839 16.8317 5.16152 16.7699 5.19584C16.6533 5.25761 16.5641 5.35369 16.468 5.44978C16.1249 5.82727 15.8298 6.25282 15.4524 6.60285C15.2809 6.76071 15.0888 6.87739 14.8898 6.96661C14.6908 7.04897 14.478 7.10387 14.2653 7.06269C14.0938 7.02837 13.9291 6.93229 13.8194 6.79503C13.7919 6.76757 13.7644 6.72639 13.7164 6.73326C13.6547 6.72639 13.6203 6.8156 13.6615 6.86364C13.8261 7.09014 14.1007 7.23429 14.3751 7.24801C14.677 7.25488 14.9721 7.1382 15.226 6.9872C15.5142 6.81561 15.7475 6.56852 15.967 6.31458C15.9808 6.28712 16.0083 6.28025 16.0357 6.28712C16.8248 6.30084 17.607 6.32144 18.3893 6.33517C18.451 6.33517 18.5128 6.34202 18.5746 6.34889C18.1972 6.46556 17.8198 6.58911 17.4561 6.74011C16.8179 6.98719 16.2004 7.27546 15.5485 7.48137C15.1368 7.61177 14.7114 7.70098 14.2859 7.68039C13.7232 7.65294 13.1743 7.50195 12.6734 7.24114C12.3646 7.07642 12.0696 6.86366 11.8363 6.60285C11.7951 6.56167 11.7608 6.50675 11.7127 6.46557C11.6578 6.45185 11.6029 6.4587 11.548 6.4587C11.1912 6.45184 10.8344 6.45871 10.4708 6.44498C10.3747 6.44498 10.2923 6.38322 10.2237 6.32145C10.6422 6.30772 11.0609 6.32144 11.4726 6.31458C11.5343 6.32144 11.5755 6.24593 11.548 6.19789C11.5206 6.14985 11.4657 6.15671 11.4245 6.15671C10.9853 6.15671 10.5531 6.15671 10.1139 6.15671C10.1139 6.14985 10.1139 6.13614 10.1071 6.12927C10.4913 6.11555 10.8687 6.10867 11.2529 6.09494C11.2804 6.09494 11.3078 6.07436 11.3353 6.06063C11.4657 5.95082 11.6304 5.86846 11.8088 5.84787C11.7539 5.89591 11.699 5.94395 11.6852 6.01259C11.6372 6.15672 11.747 6.32831 11.898 6.34204C12.049 6.36949 12.2068 6.22536 12.1862 6.0675C12.1862 5.96455 12.1038 5.88217 12.0215 5.83413C12.3234 5.83413 12.6117 5.95769 12.8656 6.10868C12.9273 6.14986 12.989 6.1979 13.0576 6.22535C13.1262 6.23908 13.188 6.23223 13.2566 6.23909C13.4694 6.24595 13.6821 6.24594 13.8948 6.24594C13.9566 6.24594 13.9977 6.1979 14.0389 6.16358C14.382 5.841 14.6976 5.47723 15.0338 5.14779ZM7.94557 4.0222C9.0023 4.22124 10.0728 4.33791 11.1364 4.44773C11.301 4.46145 11.4657 4.47519 11.6304 4.50265C11.9323 4.51637 12.2411 4.55755 12.5361 4.60559C12.9067 4.66736 13.2772 4.77717 13.5929 4.98307C13.8673 5.16152 14.1075 5.4086 14.2379 5.71059C14.2105 5.7655 14.1624 5.79295 14.1212 5.83413C14.0526 5.8959 13.9772 5.9714 13.9017 6.0263C13.7988 6.04003 13.7027 6.0263 13.6066 6.0263C13.5448 5.75177 13.4145 5.49097 13.2086 5.29193C13.0028 5.08603 12.7351 4.95562 12.4606 4.85954C12.1313 4.74286 11.7813 4.67422 11.4314 4.61931C10.2305 4.434 9.00227 4.33106 7.82889 4.00848C7.87006 4.01534 7.9044 4.01533 7.94557 4.0222ZM7.72603 4.1526C8.8102 4.46146 9.94926 4.57127 11.0609 4.72913C11.5275 4.7909 11.9941 4.86641 12.4401 5.0174C12.7352 5.12722 13.0234 5.28506 13.2155 5.53901C13.291 5.64196 13.3527 5.76551 13.4007 5.88905C13.3733 5.87532 13.3458 5.8616 13.3115 5.84787C12.7282 5.47725 12.0764 5.25075 11.4108 5.09976C11.1089 5.02426 10.8069 4.97621 10.4982 4.9213C9.63357 4.7909 8.76213 4.61245 7.94557 4.27614C7.84951 4.23496 7.74654 4.19377 7.65048 4.13886C7.67792 4.14573 7.69858 4.14574 7.72603 4.1526Z" fill="#BD9B07"/>
<path d="M13.8743 6.23156C13.6616 6.23156 13.4488 6.23155 13.2361 6.22469C13.1675 6.22469 13.1058 6.23156 13.0372 6.21098C12.9685 6.17667 12.9136 6.12863 12.845 6.09432C12.5911 5.94336 12.3029 5.82671 12.001 5.81985C12.0834 5.87474 12.1657 5.95022 12.1657 6.05315C12.1863 6.21097 12.0284 6.35506 11.8775 6.32762C11.7265 6.31389 11.6168 6.14922 11.6648 5.99826C11.6854 5.92278 11.7402 5.87473 11.7883 5.83356C11.6167 5.85415 11.4521 5.93651 11.3148 6.0463C11.2874 6.06002 11.2668 6.0806 11.2325 6.0806C10.8551 6.09432 10.4708 6.10118 10.0865 6.1149C10.0934 6.12176 10.0934 6.13549 10.0934 6.14235C10.5257 6.14235 10.9649 6.14235 11.404 6.14235C11.4452 6.14235 11.5069 6.14235 11.5275 6.18352C11.5618 6.23156 11.5138 6.31391 11.452 6.30018C11.0403 6.30705 10.6218 6.29331 10.2032 6.30703C10.265 6.37565 10.3473 6.43056 10.4502 6.43056C10.807 6.44428 11.1707 6.43742 11.5275 6.44428C11.5824 6.44428 11.6441 6.43742 11.6922 6.45115C11.7402 6.49232 11.7746 6.5472 11.8157 6.58837C12.049 6.84912 12.3441 7.06183 12.6529 7.22652C13.1538 7.48727 13.7027 7.63824 14.2654 7.66569C14.6977 7.68627 15.1232 7.5902 15.528 7.46669C16.1799 7.26083 16.7974 6.97264 17.4355 6.72562C17.8061 6.58152 18.1766 6.458 18.554 6.33449C18.4923 6.32762 18.4305 6.32077 18.3687 6.32077C17.5865 6.30705 16.7974 6.29332 16.0152 6.27273C15.9877 6.27273 15.9603 6.27274 15.9466 6.30018C15.727 6.54721 15.4936 6.80109 15.2054 6.97263C14.9516 7.13046 14.6565 7.24711 14.3546 7.23339C14.0732 7.22652 13.8057 7.07557 13.641 6.84912C13.6067 6.80109 13.6341 6.71189 13.6959 6.71875C13.7439 6.70502 13.7714 6.75305 13.7988 6.7805C13.9155 6.91774 14.0733 7.02068 14.2449 7.04812C14.4576 7.08929 14.6702 7.03439 14.8692 6.95205C15.0751 6.85598 15.2673 6.73933 15.4319 6.58837C15.8093 6.23842 16.1044 5.81299 16.4475 5.43558C16.5367 5.33952 16.6258 5.24346 16.7494 5.1817C16.818 5.14739 16.8935 5.14738 16.9621 5.14738C17.2709 5.11993 17.5728 5.09249 17.8747 5.04445C18.7187 4.92094 19.5559 4.71508 20.3724 4.46119C21.0449 4.25534 21.7036 4.01519 22.3487 3.72699C22.2457 3.73385 22.1497 3.76816 22.0536 3.78874C21.2234 3.97401 20.3862 4.15241 19.5422 4.24848C19.3363 4.2622 19.1373 4.28966 18.9383 4.2828C18.5403 4.29652 18.1424 4.28965 17.7512 4.33768C17.1131 4.39258 16.4681 4.57099 15.9328 4.94153C15.3427 5.36696 14.8281 5.89533 14.2174 6.29332C14.1831 6.3139 14.1419 6.34135 14.1007 6.3139C14.0458 6.28645 14.0527 6.19725 14.1076 6.16981C14.7045 5.79241 15.1986 5.28463 15.7613 4.86606C16.0495 4.65334 16.3651 4.48864 16.7014 4.37885C17.4836 4.12496 18.3139 4.13182 19.1305 4.1181C19.5834 4.09065 20.0362 4.02203 20.4823 3.94655C20.8116 3.89166 21.1409 3.82305 21.4634 3.74757C21.1547 3.77502 20.839 3.82992 20.5302 3.85737C20.0293 3.91226 19.5216 3.96029 19.0207 3.98087C18.856 3.98087 18.6913 4.00146 18.5266 4.00146C18.2041 4.00832 17.8816 4.00145 17.5591 4.03576C17.0101 4.07693 16.4544 4.20044 15.9603 4.44061C15.6104 4.61902 15.2947 4.85919 15.0134 5.13366C14.6771 5.46303 14.3614 5.82672 13.9978 6.12864C13.9772 6.17667 13.936 6.23156 13.8743 6.23156ZM13.9085 7.35689C14.1762 7.36376 14.4507 7.37062 14.7183 7.33631C15.4045 7.26083 16.0563 6.98636 16.667 6.67758C16.7082 6.65699 16.7494 6.63642 16.7974 6.62269C16.8523 6.60897 16.9072 6.65698 16.8935 6.71188C16.8867 6.74619 16.866 6.77365 16.8386 6.78737C16.1936 7.10988 15.5142 7.40494 14.7869 7.49414C14.5055 7.53531 14.2311 7.52846 13.9498 7.52159C13.9086 7.52159 13.8605 7.51473 13.8399 7.47356C13.8056 7.41866 13.8468 7.34317 13.9085 7.35689Z" fill="#FDD116"/>
<path d="M12.4607 4.85919C12.7352 4.95526 12.996 5.0925 13.2087 5.29149C13.4146 5.49049 13.5449 5.75122 13.6067 6.0257C13.7028 6.0257 13.7989 6.03256 13.9018 6.0257C13.9841 5.9708 14.0527 5.89532 14.1213 5.83357C14.1625 5.79239 14.2106 5.75809 14.238 5.71006C14.1076 5.40814 13.8674 5.16111 13.5929 4.9827C13.2773 4.77685 12.9067 4.66707 12.5362 4.60531C12.2343 4.56414 11.9324 4.52297 11.6305 4.50239C11.4658 4.47494 11.3011 4.4612 11.1364 4.44748C10.066 4.33769 8.99552 4.22104 7.94566 4.02205C7.90449 4.01519 7.87015 4.01519 7.83584 4.00833C9.01608 4.33084 10.2375 4.43376 11.4383 4.61903C11.7814 4.67392 12.1314 4.74254 12.4607 4.85919Z" fill="#FDD116"/>
<path d="M10.4982 4.92096C10.8069 4.97586 11.1089 5.0239 11.4108 5.09938C12.0764 5.25034 12.7282 5.47678 13.3115 5.84732C13.339 5.86104 13.3664 5.87476 13.4007 5.88849C13.3595 5.76497 13.2979 5.64832 13.2155 5.53853C13.0234 5.28464 12.7283 5.12683 12.4401 5.01704C11.9941 4.85922 11.5275 4.79059 11.0609 4.72883C9.9424 4.57101 8.8102 4.46122 7.72603 4.15244C7.69858 4.14558 7.67792 4.1387 7.65048 4.1387C7.74654 4.1936 7.84951 4.23478 7.94557 4.27595C8.76213 4.61904 9.63357 4.79745 10.4982 4.92096Z" fill="#FDD116"/>
<path d="M14.7869 7.49488C15.5143 7.40568 16.1936 7.11062 16.8386 6.78811C16.866 6.77439 16.8935 6.74693 16.8935 6.71262C16.9073 6.65772 16.8524 6.60971 16.7975 6.62343C16.7563 6.63716 16.7151 6.65773 16.6671 6.67832C16.0495 6.9871 15.4045 7.26157 14.7183 7.33705C14.4507 7.37136 14.1762 7.3645 13.9086 7.35764C13.8468 7.35077 13.7988 7.42626 13.8331 7.4743C13.8537 7.51547 13.9017 7.52233 13.9429 7.52233C14.2311 7.5292 14.5056 7.53605 14.7869 7.49488Z" fill="#BD9B07"/>
<path d="M17.1887 7.00776C17.3259 7.01462 17.4632 7.02148 17.5936 7.02148C17.9847 7.02148 18.3689 7.02834 18.7532 7.02148C18.7189 6.98031 18.6777 6.946 18.6296 6.91855C18.4992 6.83621 18.3414 6.84993 18.1973 6.82935C17.9777 6.82935 17.7582 6.84992 17.5386 6.88423C17.422 6.89796 17.2984 6.95973 17.1887 7.00776Z" fill="#FDD116"/>
<path d="M7.3007 18.3942C7.12915 18.3187 6.95755 18.2363 6.81345 18.1196C7.16341 18.0991 7.47907 17.9481 7.781 17.7833C8.04175 17.6392 8.28876 17.4813 8.54265 17.3441C8.5701 17.3235 8.60442 17.3303 8.63873 17.3441C9.16709 17.5568 9.70228 17.7765 10.2306 17.9961C10.1826 18.0236 10.1277 18.051 10.0728 18.0716C9.76405 18.1951 9.46216 18.3187 9.16023 18.4422H9.60627C9.87388 18.3324 10.1414 18.2226 10.4091 18.1128C10.4159 18.2226 10.4297 18.3324 10.4365 18.4422H10.5943C10.512 17.6186 10.6561 16.7744 11.0335 16.0332C11.5825 14.9076 12.646 14.0359 13.8675 13.7202C14.0939 13.6653 14.3203 13.6173 14.5536 13.5967C15.3359 13.5212 16.1456 13.6516 16.8592 13.9947C17.9571 14.5026 18.8286 15.4841 19.1991 16.6372C19.3913 17.2206 19.4324 17.8383 19.3775 18.4422H19.5491C19.556 18.3324 19.5765 18.2226 19.5765 18.1128C19.8441 18.2157 20.1117 18.3324 20.3793 18.4422H20.8185C20.5921 18.353 20.3725 18.2569 20.1461 18.1677C20.0157 18.1128 19.8784 18.0716 19.7549 17.9961C20.2901 17.7765 20.8254 17.5637 21.3606 17.3372C21.4018 17.3167 21.4498 17.3235 21.4978 17.3372C21.937 17.4059 22.383 17.4745 22.7947 17.6598C22.9251 17.7216 23.0555 17.7902 23.1653 17.8863C22.8359 17.9069 22.534 18.0373 22.2526 18.1952C22.1017 18.2775 21.9644 18.3599 21.8203 18.4422H22.1497C22.1703 18.4285 22.1978 18.4148 22.2184 18.4011C22.4997 18.2501 22.7878 18.0922 23.1103 18.0579C23.2956 18.0373 23.4741 18.1128 23.6525 18.1471V18.1403C23.5633 18.0579 23.4946 17.9549 23.4054 17.8657C23.1996 17.6598 22.9319 17.5225 22.6643 17.4264C22.3555 17.3166 22.0331 17.2549 21.7106 17.2C22.0537 17.049 22.4104 16.9117 22.7604 16.7676C22.9525 16.6852 23.1447 16.6165 23.33 16.5273C22.7124 16.4999 22.0948 16.4793 21.4772 16.4587C21.5939 16.3214 21.7037 16.1842 21.8203 16.0469C21.9987 15.8273 22.184 15.6008 22.4173 15.4223C22.5477 15.3194 22.6987 15.237 22.8702 15.2096C22.9731 15.1958 23.076 15.189 23.179 15.1821C22.9868 15.0654 22.7947 14.9556 22.582 14.9007C22.0673 14.7703 21.539 14.8595 21.0312 14.9487C21.4635 14.5507 21.9027 14.1663 22.3281 13.7614C21.7311 13.9398 21.141 14.1457 20.544 14.331C20.6538 14.0291 20.7499 13.7271 20.8734 13.4388C20.9763 13.1986 21.0998 12.9584 21.2919 12.7799C21.4086 12.6701 21.5665 12.622 21.7106 12.5465C21.5459 12.5191 21.388 12.4779 21.2233 12.4779C20.894 12.4779 20.5715 12.574 20.2764 12.7113C20.05 12.8142 19.8373 12.9378 19.6246 13.0613C19.8922 12.5397 20.1735 12.0249 20.4411 11.5033C19.9402 11.8808 19.453 12.272 18.9521 12.6564C18.9521 12.3956 18.9521 12.1348 18.9521 11.8739C18.9521 11.6749 18.9658 11.469 19.007 11.27C19.0413 11.0984 19.1099 10.9268 19.2334 10.7895C19.302 10.714 19.3707 10.6522 19.4393 10.5767C19.2746 10.6042 19.0962 10.6248 18.9384 10.6866C18.657 10.7895 18.4168 10.968 18.2041 11.167C17.9983 11.3523 17.8267 11.5651 17.6483 11.771C17.7307 11.1876 17.813 10.6042 17.8885 10.0208C17.5523 10.5424 17.2298 11.0641 16.9004 11.5857C16.7769 11.2219 16.6122 10.8788 16.5161 10.5081C16.4612 10.3091 16.427 10.0963 16.4681 9.89728C16.4956 9.74628 16.5779 9.62274 16.6328 9.48547C16.475 9.58156 16.3103 9.67079 16.1799 9.79433C15.9466 10.0071 15.7819 10.2816 15.6515 10.563C15.5417 10.7895 15.4594 11.0229 15.3702 11.2494C15.2672 10.8101 15.1781 10.364 15.082 9.92474C15.0546 9.78747 15.0271 9.6502 14.9859 9.5198C14.8487 10.1238 14.7252 10.7278 14.588 11.3386C14.3753 11.0915 14.1625 10.8513 13.9635 10.5973C13.8126 10.3914 13.6616 10.1581 13.6136 9.89728C13.5861 9.75314 13.6204 9.609 13.6273 9.45801C13.5038 9.59528 13.3734 9.73255 13.2842 9.89728C13.1058 10.2267 13.0441 10.6042 13.0303 10.9748C13.0166 11.1533 13.0303 11.3317 13.0235 11.5033C12.7147 11.0091 12.399 10.515 12.0903 10.0277C12.1726 10.6454 12.2549 11.2631 12.3441 11.8877C12.0765 11.7298 11.7952 11.5857 11.5344 11.4141C11.3217 11.2768 11.109 11.119 10.9649 10.9062C10.862 10.7621 10.8414 10.5905 10.7934 10.4189C10.7385 10.5768 10.6699 10.7277 10.6424 10.8993C10.5807 11.2288 10.6356 11.5788 10.7248 11.9014C10.7865 12.1348 10.8688 12.3544 10.9512 12.5809C10.4777 12.224 10.0179 11.8533 9.55132 11.4964C9.83266 12.0524 10.1346 12.6015 10.4159 13.1574C10.0317 13.0888 9.63371 13.0407 9.25631 12.9309C9.03673 12.8623 8.81716 12.7662 8.65933 12.5946C8.59071 12.5122 8.5358 12.4161 8.46718 12.3338C8.46032 12.5122 8.44662 12.6907 8.48779 12.8691C8.54268 13.1711 8.68672 13.4457 8.85827 13.6927C9.00237 13.9055 9.1671 14.0977 9.33178 14.2899C8.77597 14.1114 8.21326 13.933 7.65745 13.7545C8.11719 14.18 8.59067 14.5919 9.04355 15.0174C8.66615 15.0723 8.28873 15.1684 7.91133 15.1958C7.71234 15.2027 7.50649 15.2096 7.32122 15.1341C7.17026 15.086 7.05365 14.9831 6.93013 14.8938C6.98503 15.0654 7.03987 15.2439 7.13594 15.3949C7.30748 15.6694 7.55451 15.889 7.82212 16.0744C8.01426 16.2116 8.21332 16.3215 8.41232 16.4381C7.82906 16.4656 7.2389 16.4862 6.65564 16.5068C7.21831 16.747 7.78096 16.9666 8.34363 17.2C8.35735 17.2068 8.40541 17.2343 8.36424 17.2411C8.06918 17.4127 7.77416 17.598 7.46538 17.749C7.21835 17.8657 6.95759 17.9618 6.68312 17.9206C6.57333 17.9 6.46355 17.8657 6.35376 17.8314V17.8383C6.40866 17.9 6.46354 17.9686 6.51844 18.0304C6.66254 18.202 6.85461 18.3256 7.0536 18.4285H7.49277C7.41729 18.4285 7.35559 18.4148 7.3007 18.3942ZM22.0673 16.644C22.232 16.644 22.3968 16.6577 22.5615 16.6646C22.4242 16.7332 22.28 16.7813 22.1428 16.8431C21.3125 17.1794 20.4823 17.5225 19.6452 17.8657C19.6246 17.8726 19.6039 17.8794 19.5833 17.8863C19.5696 17.6255 19.549 17.3715 19.4941 17.1107C19.4667 16.9186 19.3981 16.7332 19.3501 16.5411C19.5491 16.5411 19.7412 16.5548 19.9333 16.5548C20.1323 16.5754 20.3382 16.5685 20.5372 16.5822C21.0449 16.6097 21.5596 16.6234 22.0673 16.644ZM21.8684 15.0037C22.1291 14.9899 22.3899 15.0037 22.6369 15.0929C22.4654 15.1753 22.3006 15.285 22.1634 15.4155C21.8752 15.6831 21.6488 16.0057 21.388 16.3009C21.3468 16.342 21.3126 16.3969 21.2646 16.4313C21.1891 16.445 21.1067 16.4313 21.0312 16.4313C20.5165 16.4038 19.9951 16.3969 19.4736 16.3695C19.5422 16.2871 19.6245 16.2253 19.7 16.1567C20.0294 15.8547 20.3587 15.5596 20.695 15.2576C20.743 15.2164 20.7842 15.1615 20.8529 15.1547C21.1822 15.086 21.5253 15.0243 21.8684 15.0037ZM21.1616 14.3105C21.3194 14.2624 21.4772 14.2006 21.635 14.1663C21.5801 14.2281 21.5184 14.283 21.4566 14.331C21.0449 14.7154 20.6195 15.0929 20.2078 15.4704C19.8922 15.7518 19.5834 16.0469 19.2609 16.3283C19.0962 15.9028 18.8629 15.4978 18.5747 15.1409C19.4393 14.8595 20.3039 14.5919 21.1616 14.3105ZM20.6195 12.7593C20.7979 12.6976 20.9901 12.6495 21.1822 12.6564C21.0587 12.7868 20.9489 12.9241 20.8665 13.0819C20.6401 13.5006 20.5234 13.9673 20.345 14.4065C19.8715 14.5575 19.3912 14.7154 18.9178 14.8664C18.8286 14.8938 18.7393 14.9282 18.6364 14.9487C18.904 14.4409 19.1717 13.933 19.4393 13.4182C19.4667 13.3496 19.5422 13.3153 19.5971 13.2809C19.9265 13.0819 20.2627 12.8829 20.6195 12.7593ZM19.6794 12.3132C19.7618 12.2446 19.851 12.1759 19.9402 12.1142C19.8441 12.3338 19.7206 12.5397 19.6108 12.7525C19.2266 13.48 18.8423 14.2144 18.458 14.9419C18.4443 14.9693 18.4169 14.9419 18.4031 14.9282C18.1767 14.6673 17.9091 14.4409 17.6277 14.2418C17.5523 14.1869 17.4699 14.1457 17.4013 14.084C17.5454 13.9536 17.7101 13.8437 17.861 13.7202C18.4649 13.2466 19.0687 12.7799 19.6794 12.3132ZM18.2864 11.3386C18.4923 11.1396 18.7188 10.9611 18.9864 10.8582C18.9452 10.9611 18.8972 11.0572 18.8698 11.167C18.7737 11.5445 18.7943 11.9357 18.7943 12.3132C18.7943 12.4711 18.7943 12.6289 18.7943 12.7799C18.3277 13.1505 17.8473 13.5143 17.3807 13.8781C17.4356 13.3221 17.5249 12.7731 17.5935 12.2171C17.6003 12.1622 17.6072 12.1073 17.6415 12.0593C17.8473 11.819 18.0531 11.5651 18.2864 11.3386ZM17.566 10.8582C17.5866 10.8376 17.6003 10.8101 17.6209 10.7895C17.6209 10.9199 17.5866 11.0503 17.5729 11.1807C17.4425 12.1073 17.3258 13.0407 17.1954 13.9742C16.8592 13.7957 16.5092 13.6516 16.1387 13.5623C16.0632 13.5418 15.9877 13.528 15.9054 13.5074C16.0701 13.2398 16.2416 12.979 16.4063 12.7113C16.7906 12.0936 17.1817 11.4759 17.566 10.8582ZM15.4594 11.5308C15.5897 11.1601 15.7201 10.7895 15.9123 10.4463C16.0152 10.261 16.1388 10.0757 16.2966 9.93846C16.276 10.2267 16.3308 10.515 16.4269 10.7827C16.5367 11.119 16.6808 11.4415 16.7906 11.7778C16.5024 12.2377 16.2142 12.6976 15.926 13.1574C15.8917 13.2123 15.8574 13.2604 15.8231 13.3084C15.6996 12.7593 15.5829 12.2102 15.4594 11.6543C15.4456 11.6131 15.4456 11.572 15.4594 11.5308ZM14.8624 10.9062C14.9104 10.7072 14.9448 10.5081 14.9997 10.3159C15.1026 10.7277 15.1781 11.1533 15.2742 11.5651C15.4045 12.1965 15.5486 12.8211 15.6859 13.4594C15.4594 13.4388 15.233 13.4113 15.0134 13.4113C14.7801 13.4045 14.5468 13.4319 14.3204 13.4594C14.4919 12.6083 14.6771 11.7573 14.8624 10.9062ZM13.3048 10.3022C13.346 10.1787 13.3871 10.062 13.4626 9.95905C13.5244 10.261 13.6959 10.5218 13.8812 10.7552C14.087 11.016 14.3066 11.2562 14.5124 11.5102C14.5399 11.5376 14.5536 11.5788 14.5399 11.6131C14.4164 12.1759 14.2997 12.7387 14.1762 13.3015C14.1488 13.2947 14.1419 13.2672 14.1213 13.2535C13.8263 12.7799 13.5243 12.3063 13.2293 11.8328C13.195 11.7847 13.2019 11.7298 13.2019 11.6818C13.1882 11.2151 13.1813 10.7483 13.3048 10.3022ZM12.7146 11.318C13.1058 11.9426 13.4969 12.5671 13.8881 13.1917C13.9567 13.2947 14.0252 13.3976 14.087 13.5074C13.6341 13.6035 13.2018 13.7614 12.8038 13.9742C12.6872 13.1574 12.5774 12.3338 12.4676 11.5102C12.4333 11.27 12.399 11.0229 12.3715 10.7758C12.4882 10.9542 12.598 11.1396 12.7146 11.318ZM10.8071 11.5102C10.7796 11.3386 10.7728 11.1533 10.8002 10.9748C10.8688 11.0641 10.9306 11.1533 11.0129 11.2288C11.3972 11.5994 11.8981 11.8053 12.3373 12.0867C12.3716 12.1073 12.3715 12.1485 12.3784 12.1828C12.4333 12.5603 12.4814 12.9378 12.5294 13.3153C12.55 13.5074 12.5912 13.6859 12.598 13.8781C12.1657 13.5417 11.7334 13.2054 11.2943 12.8691C11.26 12.8417 11.2188 12.8142 11.1913 12.7799C11.1639 12.725 11.1433 12.6564 11.1158 12.5946C10.9992 12.2377 10.8689 11.8808 10.8071 11.5102ZM10.1003 12.2034C10.0866 12.1759 10.0797 12.1485 10.066 12.121C10.2512 12.2446 10.4159 12.3887 10.5943 12.5191C11.2325 13.0133 11.8707 13.5143 12.5157 14.0085C12.5431 14.0359 12.5843 14.0496 12.6049 14.0908C12.2961 14.283 12.0148 14.5095 11.7609 14.7634C11.6923 14.8252 11.6374 14.9076 11.5619 14.9625C11.0678 14.0428 10.5806 13.1231 10.1003 12.2034ZM8.93374 13.5143C8.80336 13.3015 8.68677 13.0819 8.6456 12.8279C8.75539 12.8966 8.85831 12.9721 8.98182 13.0201C9.45529 13.2123 9.96995 13.2398 10.464 13.3427C10.4915 13.3496 10.5189 13.3564 10.5326 13.3908C10.8071 13.9055 11.0747 14.4271 11.356 14.9419C11.2805 14.9282 11.2051 14.9007 11.1365 14.8733C10.663 14.7223 10.1895 14.5713 9.70913 14.4203C9.66796 14.4065 9.63372 14.386 9.60627 14.3585C9.36611 14.0908 9.12587 13.8163 8.93374 13.5143ZM8.48779 14.3036C8.43975 14.2624 8.39167 14.2212 8.3505 14.1663C8.41226 14.1801 8.47403 14.2006 8.53578 14.2212C9.48958 14.5301 10.4503 14.8321 11.3972 15.1409C11.2257 15.3812 11.0541 15.6213 10.9237 15.8822C10.8482 16.0263 10.7865 16.1773 10.7179 16.3214C9.96995 15.6557 9.23573 14.9762 8.48779 14.3036ZM7.77413 15.8616C7.57513 15.7106 7.38301 15.539 7.26636 15.3125C7.57514 15.4086 7.90452 15.3811 8.22016 15.34C8.53581 15.2988 8.85146 15.2233 9.1671 15.1752C9.19455 15.1684 9.21512 15.189 9.2357 15.2027C9.51704 15.4635 9.80523 15.7174 10.0866 15.9783C10.2307 16.1087 10.3816 16.2391 10.5189 16.3763C10.1895 16.3969 9.86009 16.4038 9.53759 16.4175C9.32487 16.4381 9.10534 16.4244 8.89948 16.445C8.824 16.445 8.74847 16.4587 8.67985 16.4175C8.36421 16.2459 8.05546 16.0744 7.77413 15.8616ZM7.66431 16.7744C7.58883 16.7401 7.50652 16.7126 7.43103 16.6646C7.84275 16.6371 8.24762 16.6303 8.65933 16.6166C9.02987 16.6028 9.40041 16.5822 9.77095 16.5754C9.90819 16.5754 10.0523 16.5548 10.1895 16.5548C10.3405 16.5548 10.4982 16.5342 10.6492 16.5411C10.5051 16.9803 10.4296 17.4333 10.4159 17.8932C9.49644 17.5157 8.57694 17.1451 7.66431 16.7744Z" fill="#BD9B07"/>
<path d="M15.926 13.1567C16.2142 12.6969 16.5024 12.2372 16.7906 11.7774C16.6808 11.4412 16.5298 11.1187 16.4269 10.7825C16.3308 10.508 16.276 10.2198 16.2966 9.93848C16.1388 10.0826 16.0152 10.261 15.9123 10.4462C15.727 10.7893 15.5897 11.1599 15.4594 11.5304C15.4456 11.5716 15.4456 11.6128 15.4594 11.6608C15.5829 12.2098 15.6927 12.7656 15.8231 13.3145C15.8574 13.2596 15.8917 13.2116 15.926 13.1567Z" fill="#FDD116"/>
<path d="M14.1214 13.2459C14.1351 13.2665 14.1488 13.2939 14.1763 13.2939C14.2998 12.7312 14.4233 12.1686 14.54 11.6059C14.5537 11.5716 14.5399 11.5304 14.5125 11.503C14.3066 11.2491 14.0871 11.0089 13.8813 10.7482C13.696 10.508 13.5245 10.2472 13.4627 9.95218C13.3872 10.0551 13.3461 10.1786 13.3049 10.2953C13.1814 10.7413 13.1882 11.2079 13.1951 11.6676C13.2019 11.7225 13.195 11.7774 13.2225 11.8186C13.5244 12.2989 13.8263 12.7724 14.1214 13.2459Z" fill="#FDD116"/>
<path d="M15.0066 13.4175C15.2331 13.4106 15.4527 13.4381 15.6791 13.4655C15.5487 12.8342 15.4046 12.2029 15.2674 11.5716C15.1713 11.1531 15.0958 10.7345 14.9929 10.3228C14.938 10.5149 14.9037 10.7139 14.8556 10.9129C14.6772 11.7638 14.4851 12.6146 14.3067 13.4724C14.54 13.4381 14.7733 13.4106 15.0066 13.4175Z" fill="#FDD116"/>
<path d="M12.8037 13.9734C13.2017 13.7538 13.6409 13.6029 14.0869 13.5068C14.0252 13.4039 13.9566 13.3009 13.888 13.1911C13.4968 12.5667 13.1057 11.9423 12.7145 11.3179C12.5979 11.1395 12.4881 10.9542 12.3714 10.7827C12.3989 11.0228 12.4332 11.2698 12.4675 11.5169C12.5773 12.3334 12.6871 13.15 12.8037 13.9734Z" fill="#FDD116"/>
<path d="M15.9055 13.4999C15.981 13.5205 16.0633 13.5342 16.1388 13.5548C16.5025 13.644 16.8593 13.795 17.1955 13.9665C17.3259 13.0333 17.4495 12.107 17.573 11.1738C17.5867 11.0434 17.621 10.913 17.621 10.7827C17.6004 10.8032 17.5867 10.8238 17.5661 10.8513C17.1818 11.4688 16.7907 12.0864 16.4064 12.6971C16.2417 12.9716 16.0702 13.2323 15.9055 13.4999Z" fill="#FDD116"/>
<path d="M17.3807 13.8842C17.8473 13.5137 18.3208 13.15 18.7943 12.7863C18.7943 12.6285 18.7943 12.4776 18.7943 12.3197C18.7943 11.9355 18.7737 11.5443 18.8697 11.1738C18.8903 11.064 18.9452 10.9679 18.9863 10.865C18.7187 10.9679 18.4854 11.1532 18.2864 11.3453C18.0531 11.5718 17.8542 11.8188 17.6483 12.0727C17.614 12.1139 17.6071 12.1756 17.6002 12.2305C17.5248 12.7726 17.4356 13.3284 17.3807 13.8842Z" fill="#FDD116"/>
<path d="M11.2049 12.7795C11.2324 12.8207 11.2736 12.8413 11.3079 12.8687C11.7471 13.2049 12.1794 13.5412 12.6117 13.8774C12.6048 13.6853 12.5636 13.5 12.543 13.3147C12.4881 12.9373 12.4401 12.5599 12.392 12.1825C12.3852 12.1482 12.3852 12.1071 12.3509 12.0865C11.9049 11.8051 11.4039 11.5993 11.0265 11.2287C10.9442 11.1533 10.8825 11.0641 10.8139 10.9749C10.7864 11.1533 10.7932 11.3317 10.8206 11.5101C10.8824 11.8875 11.006 12.2443 11.1363 12.5942C11.1569 12.656 11.1706 12.7246 11.2049 12.7795Z" fill="#FDD116"/>
<path d="M17.3945 14.0835C17.4631 14.1453 17.5454 14.1865 17.6209 14.2414C17.9022 14.4403 18.163 14.6668 18.3963 14.9275C18.41 14.9413 18.4375 14.9756 18.4512 14.9413C18.8355 14.2071 19.2197 13.4797 19.604 12.7523C19.7138 12.5396 19.8304 12.3338 19.9333 12.1142C19.8441 12.176 19.7618 12.2446 19.6726 12.3132C19.0687 12.7798 18.458 13.2533 17.8542 13.7199C17.7032 13.8434 17.5454 13.9532 17.3945 14.0835Z" fill="#FDD116"/>
<path d="M11.7472 14.7629C12.0011 14.5021 12.2893 14.2825 12.5912 14.0904C12.5775 14.0492 12.5363 14.0355 12.502 14.008C11.857 13.514 11.2188 13.0131 10.5807 12.519C10.4023 12.3887 10.2376 12.2445 10.0523 12.121C10.066 12.1485 10.0798 12.1759 10.0866 12.2034C10.5738 13.1229 11.0542 14.0424 11.5345 14.9618C11.6237 14.907 11.6786 14.8315 11.7472 14.7629Z" fill="#FDD116"/>
<path d="M19.446 13.4112C19.1784 13.919 18.9108 14.4268 18.6432 14.9414C18.7392 14.9208 18.8285 14.8865 18.9245 14.8591C19.398 14.7081 19.8783 14.5571 20.3518 14.3993C20.5302 13.9601 20.6468 13.5004 20.8733 13.075C20.9556 12.9171 21.0723 12.7799 21.189 12.6495C20.9968 12.6495 20.8047 12.6976 20.6263 12.7525C20.2694 12.876 19.9332 13.075 19.6107 13.2671C19.549 13.3151 19.4735 13.3426 19.446 13.4112Z" fill="#FDD116"/>
<path d="M9.7091 14.4199C10.1826 14.5709 10.6561 14.7219 11.1364 14.8728C11.205 14.9003 11.2805 14.9277 11.356 14.9414C11.0815 14.4268 10.8139 13.9053 10.5326 13.3906C10.5257 13.3632 10.4983 13.3495 10.464 13.3426C9.96992 13.2328 9.45526 13.2054 8.98179 13.0201C8.86514 12.9721 8.75536 12.8966 8.64557 12.828C8.67988 13.075 8.80333 13.3014 8.93371 13.5142C9.12584 13.8161 9.36608 14.0906 9.60624 14.3582C9.63369 14.3856 9.66793 14.4062 9.7091 14.4199Z" fill="#FDD116"/>
<path d="M19.2059 16.6372C18.8354 15.4841 17.9639 14.5026 16.866 13.9947C16.1524 13.6584 15.3427 13.528 14.5604 13.5967C14.3271 13.6173 14.1007 13.6653 13.8742 13.7202C12.6528 14.0359 11.5892 14.9007 11.0403 16.0332C10.6698 16.7744 10.5256 17.6186 10.6011 18.4422H19.3843C19.4392 17.8383 19.3912 17.2205 19.2059 16.6372Z" fill="#FDD116"/>
<path d="M10.9305 15.8818C11.0609 15.621 11.2324 15.374 11.404 15.1407C10.4502 14.8319 9.49637 14.53 8.54257 14.2212C8.48081 14.2006 8.41904 14.18 8.35729 14.1663C8.3916 14.2212 8.44654 14.2624 8.49457 14.3036C9.24252 14.976 9.97673 15.6553 10.7247 16.3209C10.7864 16.1768 10.8481 16.0259 10.9305 15.8818Z" fill="#FDD116"/>
<path d="M19.2678 16.3278C19.5903 16.0465 19.8991 15.7583 20.2147 15.4701C20.6333 15.0927 21.0519 14.7153 21.4636 14.331C21.5253 14.283 21.5871 14.2281 21.642 14.1663C21.4773 14.2006 21.3264 14.2624 21.1686 14.3104C20.3108 14.5917 19.4462 14.8594 18.5885 15.1407C18.8698 15.4975 19.1031 15.9024 19.2678 16.3278Z" fill="#FDD116"/>
<path d="M20.688 15.2644C20.3587 15.5664 20.0225 15.8683 19.6931 16.1633C19.6176 16.232 19.5353 16.2937 19.4667 16.3761C19.9882 16.4035 20.5028 16.4172 21.0243 16.4378C21.0998 16.4378 21.1821 16.4516 21.2576 16.4378C21.3056 16.4035 21.3399 16.3486 21.3811 16.3075C21.635 16.0055 21.8683 15.6899 22.1565 15.4222C22.3006 15.2919 22.4584 15.1821 22.63 15.0997C22.383 15.0105 22.1153 14.9968 21.8615 15.0106C21.5184 15.0311 21.1753 15.0929 20.839 15.1615C20.7773 15.1684 20.7361 15.2164 20.688 15.2644Z" fill="#FDD116"/>
<path d="M8.89263 16.4447C9.09848 16.431 9.3181 16.4378 9.53082 16.4172C9.86019 16.4035 10.1895 16.3967 10.512 16.3761C10.3748 16.2388 10.2238 16.1085 10.0797 15.9781C9.79152 15.7242 9.51019 15.4635 9.22885 15.2027C9.21513 15.189 9.1877 15.1684 9.16025 15.1753C8.8446 15.2164 8.52896 15.2919 8.21331 15.3399C7.89767 15.3811 7.56829 15.4086 7.2595 15.3125C7.37615 15.5321 7.57514 15.7105 7.76727 15.8614C8.04861 16.081 8.35744 16.2526 8.67308 16.4172C8.7417 16.4584 8.81715 16.4447 8.89263 16.4447Z" fill="#FDD116"/>
<path d="M10.6425 16.5411C10.4915 16.5342 10.3405 16.5548 10.1827 16.5548C10.0454 16.5548 9.90135 16.5754 9.76412 16.5754C9.39358 16.5822 9.02304 16.6028 8.6525 16.6165C8.24079 16.6303 7.83591 16.644 7.4242 16.6646C7.49968 16.7058 7.582 16.7401 7.65748 16.7744C8.57011 17.1518 9.4896 17.5155 10.4022 17.8929C10.4228 17.4331 10.4984 16.9802 10.6425 16.5411Z" fill="#FDD116"/>
<path d="M19.9332 16.5617C19.7342 16.5617 19.549 16.5479 19.35 16.5479C19.4049 16.7332 19.4666 16.9185 19.4941 17.1175C19.549 17.3714 19.5695 17.6321 19.5833 17.8929C19.6039 17.886 19.6245 17.8791 19.6451 17.8723C20.4822 17.5292 21.3124 17.1861 22.1427 16.8499C22.2868 16.7881 22.431 16.7401 22.5614 16.6715C22.3967 16.6646 22.2319 16.6509 22.0673 16.6509C21.5595 16.6303 21.0449 16.6097 20.5371 16.5891C20.3312 16.5685 20.1322 16.5823 19.9332 16.5617Z" fill="#FDD116"/>
<path d="M10.2306 18.0028C9.70224 17.7832 9.16705 17.5705 8.63869 17.3509C8.60438 17.3372 8.57006 17.3304 8.54261 17.3509C8.28186 17.4882 8.03485 17.646 7.78096 17.7901C7.47904 17.9548 7.16337 18.1058 6.81341 18.1263C6.95751 18.243 7.12912 18.3253 7.30066 18.4008C7.35556 18.4214 7.41731 18.4351 7.47221 18.4489H9.1602C9.46212 18.3254 9.77087 18.2018 10.0728 18.0783C10.1277 18.0509 10.1826 18.0303 10.2306 18.0028Z" fill="#FDD116"/>
<path d="M23.1722 17.8931C23.0624 17.7901 22.9321 17.7284 22.8017 17.6666C22.39 17.4813 21.9439 17.4196 21.5048 17.3441C21.4567 17.3372 21.4156 17.3304 21.3676 17.3441C20.8324 17.5637 20.2971 17.7832 19.7618 18.0028C19.8854 18.0783 20.0226 18.1195 20.153 18.1744C20.3795 18.2704 20.599 18.3597 20.8255 18.4489H21.8273C21.9714 18.3665 22.1155 18.2773 22.2596 18.2018C22.5409 18.044 22.8428 17.9068 23.1722 17.8931Z" fill="#FDD116"/>
<path d="M9.60621 18.4491H10.4365C10.4227 18.3393 10.409 18.2294 10.409 18.1197C10.1414 18.2226 9.87382 18.3393 9.60621 18.4491Z" fill="#FDD116"/>
<path d="M19.5491 18.4491H20.3794C20.1118 18.3393 19.8441 18.2226 19.5765 18.1197C19.5765 18.2294 19.5629 18.3393 19.5491 18.4491Z" fill="#FDD116"/>
<path d="M24.1195 20.604C22.6031 20.604 21.0798 19.3002 19.5565 19.3002C18.04 19.3002 16.5167 20.604 14.9933 20.604C13.47 20.604 11.9535 19.3002 10.4371 19.3002C8.91372 19.3002 7.39723 20.604 5.8739 20.604C4.35057 20.604 2.83408 19.3002 1.31075 19.3002C1.09117 19.3002 0.864752 19.3345 0.645173 19.3826C0.871614 20.1099 1.15979 20.8098 1.4823 21.4892C2.94387 21.5784 4.40547 22.7792 5.8739 22.7792C7.39723 22.7792 8.91372 21.4754 10.4371 21.4754C11.9535 21.4754 13.4769 22.7792 14.9933 22.7792C16.5098 22.7792 18.0331 21.4754 19.5565 21.4754C21.0729 21.4754 22.5962 22.7792 24.1195 22.7792C25.5811 22.7792 27.0427 21.5852 28.5111 21.4892C28.8405 20.8098 29.1218 20.1099 29.3483 19.3826C29.1287 19.3345 28.9023 19.3002 28.6827 19.3002C27.1594 19.3002 25.636 20.604 24.1195 20.604Z" fill="#003F87"/>
<path d="M19.5565 23.6448C18.04 23.6448 16.5167 24.9485 14.9933 24.9485C13.47 24.9485 11.9535 23.6448 10.4371 23.6448C8.91374 23.6448 7.39725 24.9485 5.87392 24.9485C4.93385 24.9485 4.00066 24.4544 3.06745 24.077C3.9389 25.223 4.97503 26.2385 6.14154 27.0963C7.57567 26.9659 9.00981 25.82 10.4439 25.82C11.9604 25.82 13.4837 27.1237 15.0002 27.1237C16.5167 27.1237 18.04 25.82 19.5634 25.82C20.9975 25.82 22.4247 26.9659 23.8588 27.0963C25.0253 26.2385 26.0547 25.223 26.933 24.077C25.9998 24.4544 25.0596 24.9485 24.1264 24.9485C22.5962 24.9485 21.0798 23.6448 19.5565 23.6448Z" fill="#003F87"/>
<path d="M15.0002 29.2862C13.4769 29.2862 11.9604 27.9824 10.4439 27.9824C9.79207 27.9824 9.14021 28.2226 8.48834 28.4971C10.4645 29.4509 12.6672 29.9998 15.0002 29.9998C17.3401 29.9998 19.5428 29.4509 21.5121 28.4971C20.8602 28.2226 20.2084 27.9824 19.5565 27.9824C18.04 27.9893 16.5167 29.2862 15.0002 29.2862Z" fill="#003F87"/>
<path d="M19.5564 21.4691C18.0399 21.4691 16.5166 22.7728 14.9933 22.7728C13.4699 22.7728 11.9535 21.4691 10.437 21.4691C8.91366 21.4691 7.39717 22.7728 5.87384 22.7728C4.41226 22.7728 2.95067 21.5789 1.48224 21.4828C1.9214 22.4023 2.45665 23.2669 3.0605 24.0629C4.00057 24.4403 4.93376 24.9343 5.86697 24.9343C7.3903 24.9343 8.90679 23.6306 10.4301 23.6306C11.9466 23.6306 13.4699 24.9343 14.9864 24.9343C16.5029 24.9343 18.0262 23.6306 19.5495 23.6306C21.066 23.6306 22.5894 24.9343 24.1127 24.9343C25.0528 24.9343 25.986 24.4403 26.9192 24.0629C27.5299 23.26 28.0582 22.3954 28.5042 21.4828C27.0426 21.572 25.5743 22.7728 24.1127 22.7728C22.5962 22.7728 21.0797 21.4691 19.5564 21.4691Z" fill="white"/>
<path d="M15.0001 27.1174C13.4768 27.1174 11.9603 25.8136 10.4438 25.8136C9.00968 25.8136 7.57554 26.9595 6.14142 27.0899C6.87563 27.632 7.65791 28.0986 8.4882 28.5034C9.14007 28.229 9.79193 27.9888 10.4438 27.9888C11.9603 27.9888 13.4836 29.2926 15.0001 29.2926C16.5166 29.2926 18.0399 27.9888 19.5632 27.9888C20.2151 27.9888 20.867 28.229 21.5188 28.5034C22.3491 28.1054 23.1313 27.632 23.8655 27.0899C22.4314 26.9595 20.9973 25.8136 19.57 25.8136C18.0398 25.8136 16.5166 27.1174 15.0001 27.1174Z" fill="white"/>
<path d="M28.6756 17.1245C27.1592 17.1245 25.6358 18.4282 24.1194 18.4282C22.6029 18.4282 21.0796 17.1245 19.5563 17.1245C18.0398 17.1245 16.5165 18.4282 14.9931 18.4282C13.4698 18.4282 11.9533 17.1245 10.4369 17.1245C8.91353 17.1245 7.39705 18.4282 5.87371 18.4282C4.35038 18.4282 2.8339 17.1245 1.31057 17.1245C0.940026 17.1245 0.562621 17.2068 0.192081 17.3235C0.253837 17.7283 0.329378 18.1263 0.425444 18.5174C0.494062 18.8056 0.562644 19.1007 0.644986 19.382C0.871427 19.334 1.09099 19.2997 1.31057 19.2997C2.8339 19.2997 4.35038 20.6034 5.87371 20.6034C7.39705 20.6034 8.91353 19.2997 10.4369 19.2997C11.9533 19.2997 13.4767 20.6034 14.9931 20.6034C16.5096 20.6034 18.033 19.2997 19.5563 19.2997C21.0728 19.2997 22.596 20.6034 24.1194 20.6034C25.6427 20.6034 27.1592 19.2997 28.6756 19.2997C28.9021 19.2997 29.1217 19.334 29.3413 19.382C29.4305 19.1007 29.4922 18.8056 29.5677 18.5174C29.6638 18.1263 29.7392 17.7283 29.801 17.3235C29.4236 17.2068 29.053 17.1245 28.6756 17.1245Z" fill="white"/>
</svg>
