<svg width="30" height="30" viewBox="0 0 30 30" fill="none" xmlns="http://www.w3.org/2000/svg">
<path d="M2.78564 6.31986L4.55565 7.50009H27.9766C25.3834 3.01931 20.547 9.91821e-05 15.0038 9.91821e-05C9.95468 9.91821e-05 5.50232 2.49781 2.78564 6.31986Z" fill="#FFC61E"/>
<path d="M27.9766 22.5001H4.55565L2.78564 23.6803C5.50232 27.4955 9.95467 30.0001 14.997 30.0001H15.0107C20.5538 30.0001 25.3834 26.9809 27.9766 22.5001Z" fill="#3A75C4"/>
<path d="M4.55615 22.5001H27.9771C29.2531 20.2906 30.0009 17.738 30.0009 15.0001H15.8069L4.55615 22.5001Z" fill="#CE1126"/>
<path d="M15.7991 15.0001H29.9931C29.9931 12.2622 29.2454 9.70961 27.9694 7.5001H4.54834L15.7991 15.0001Z" fill="white"/>
<path d="M4.54886 7.50014L2.77885 6.3199C2.5113 6.6973 2.25749 7.09529 2.02424 7.50014C0.748226 9.70965 0.000488281 12.2623 0.000488281 15.0001C0.000488281 17.738 0.741365 20.2906 2.02424 22.5001C2.25749 22.905 2.5113 23.2961 2.77885 23.6804L4.54886 22.5001L15.7997 15.0001L4.54886 7.50014Z" fill="#3D8E33"/>
<path d="M3.64339 15.0001C3.64339 13.1269 5.04291 11.5761 6.84717 11.3359C6.49729 11.233 6.12684 11.1712 5.73581 11.1712C3.62284 11.1712 1.90771 12.8867 1.90771 15.0001C1.90771 17.1136 3.62284 18.829 5.73581 18.829C6.11998 18.829 6.49043 18.7742 6.84717 18.6644C5.04291 18.4242 3.64339 16.8803 3.64339 15.0001Z" fill="white"/>
<path d="M6.8467 11.631L7.01134 12.1318H7.54647L7.12113 12.4474L7.2789 12.9551L6.8467 12.6395L6.42137 12.9551L6.58601 12.4474L6.15381 12.1318H6.68893L6.8467 11.631Z" fill="white"/>
<path d="M6.8467 13.4356L7.01134 13.9433H7.54647L7.12113 14.252L7.2789 14.7597L6.8467 14.4509L6.42137 14.7597L6.58601 14.252L6.15381 13.9433H6.68893L6.8467 13.4356Z" fill="white"/>
<path d="M6.8467 15.2404L7.01134 15.748H7.54647L7.12113 16.0636L7.2789 16.5713L6.8467 16.2557L6.42137 16.5713L6.58601 16.0636L6.15381 15.748H6.68893L6.8467 15.2404Z" fill="white"/>
<path d="M6.8467 17.045L7.01134 17.5526H7.54647L7.12113 17.8682L7.2789 18.3759L6.8467 18.0603L6.42137 18.3759L6.58601 17.8682L6.15381 17.5526H6.68893L6.8467 17.045Z" fill="white"/>
</svg>
