<svg width="30" height="30" viewBox="0 0 30 30" fill="none" xmlns="http://www.w3.org/2000/svg">
<path d="M15.0002 0.000915527C6.71799 0.000915527 0.000244141 6.71866 0.000244141 15.0009C0.000244141 15.8655 0.0894457 16.7095 0.233544 17.5398L23.0286 2.34083C20.7024 0.865532 17.9577 0.000915527 15.0002 0.000915527Z" fill="#009E49"/>
<path d="M15.0004 30.0009C23.2827 30.0009 30.0004 23.2831 30.0004 15.0009C30.0004 14.1363 29.9112 13.2855 29.7671 12.462L6.97205 27.661C9.29821 29.1363 12.0429 30.0009 15.0004 30.0009Z" fill="#CE1126"/>
<path d="M23.0219 2.34766L0.226868 17.5467C0.316072 18.0887 0.439588 18.6171 0.583687 19.1386L24.3463 3.29459C23.9277 2.94464 23.4817 2.63585 23.0219 2.34766Z" fill="#FCD116"/>
<path d="M6.97199 27.661L29.767 12.4621C29.6778 11.92 29.5543 11.3916 29.4102 10.8701L5.64764 26.7141C6.06622 27.0572 6.51224 27.366 6.97199 27.661Z" fill="#FCD116"/>
<path d="M27.4752 6.68434C26.6175 5.39432 25.5539 4.25524 24.3462 3.28772L0.583618 19.1317C1.01591 20.6414 1.66778 22.0549 2.51865 23.3243C3.37638 24.6144 4.43997 25.7534 5.6408 26.7209L29.4034 10.8769C28.9779 9.36732 28.3261 7.95378 27.4752 6.68434Z" fill="black"/>
<path d="M6.5809 15.6323L8.96196 17.5261L11.5008 15.845L10.4373 18.6995L12.8252 20.5865L9.77852 20.463L8.72181 23.3175L7.89838 20.3807L4.85858 20.2571L7.39746 18.5691L6.5809 15.6323Z" fill="white"/>
<path d="M18.8843 7.46661L21.2653 9.36049L23.8042 7.67246L22.7406 10.527L25.1285 12.4208L22.0887 12.2973L21.0251 15.1519L20.2086 12.215L17.1619 12.0846L19.7008 10.4035L18.8843 7.46661Z" fill="white"/>
</svg>
