<svg width="30" height="30" viewBox="0 0 30 30" fill="none" xmlns="http://www.w3.org/2000/svg">
<path d="M3.5409 24.6754H26.4526C26.9398 24.099 27.3721 23.4814 27.7701 22.8296H2.21652C2.62137 23.4746 3.05371 24.0921 3.5409 24.6754Z" fill="white"/>
<path d="M27.777 7.17088C27.3791 6.52587 26.9468 5.9083 26.4596 5.33191H3.54788C3.06069 5.9083 2.62836 6.52587 2.23038 7.17088H27.777Z" fill="white"/>
<path d="M14.9998 0.000244141C10.4023 0.000244141 6.2921 2.07253 3.5405 5.32505H26.4522C23.7006 2.07253 19.5972 0.000244141 14.9998 0.000244141Z" fill="#034DA2"/>
<path d="M0 15.0002C0 17.8753 0.823416 20.5514 2.22323 22.8295H27.7768C29.1766 20.5514 30 17.8753 30 15.0002C30 12.1251 29.1766 9.44894 27.7768 7.17081H2.22323C0.823416 9.44894 0 12.1251 0 15.0002Z" fill="#ED1D25"/>
<path d="M14.9998 30.0002C19.5972 30.0002 23.7006 27.9279 26.4522 24.6754H3.5405C6.2921 27.9279 10.4023 30.0002 14.9998 30.0002Z" fill="#034DA2"/>
<path d="M17.844 15.0839C17.8904 11.8592 15.3139 9.20742 12.0892 9.16098C8.86447 9.11454 6.21267 11.691 6.16623 14.9157C6.11979 18.1405 8.6963 20.7923 11.921 20.8387C15.1457 20.8851 17.7975 18.3086 17.844 15.0839Z" fill="white"/>
<path d="M11.9949 9.24316L13.2232 13.2093H17.1893L13.9779 15.6658L15.2062 19.6389L11.9949 17.1823L8.78356 19.6389L10.0118 15.6658L6.79361 13.2093H10.7666L11.9949 9.24316Z" fill="#ED1D25"/>
</svg>
