<svg width="30" height="30" viewBox="0 0 30 30" fill="none" xmlns="http://www.w3.org/2000/svg">
<path d="M30 15.0003C30 23.2825 23.2822 30.0003 15 30.0003C6.71775 30.0003 0 23.2825 0 15.0003C0 6.71803 6.71775 0.000249393 15 0.000249393C23.2891 -0.00661246 30 6.71117 30 15.0003Z" fill="#F1F4FB"/>
<path d="M20.9357 14.616C21.2307 17.896 18.8222 20.7917 15.5422 21.0867C12.2691 21.3818 9.36658 18.9733 9.07152 15.6933C8.77646 12.4202 11.185 9.51764 14.4581 9.22258C17.738 8.92752 20.6337 11.3429 20.9357 14.616Z" fill="#CE1126"/>
<path d="M9.90851 12.084C9.05764 13.4906 9.50366 15.3227 10.9103 16.1667C12.317 17.0176 14.1423 16.5716 14.9931 15.1649C15.844 13.7582 17.6693 13.3122 19.0759 14.1631C20.4826 15.0139 20.9286 16.8392 20.0778 18.2459C18.376 21.0592 14.7187 21.9513 11.9053 20.2495C9.09881 18.5478 8.20677 14.8904 9.90851 12.084Z" fill="#003F87"/>
<path d="M5.69817 5.40917L2.35542 10.3638L3.12907 10.8858L6.47183 5.93113L5.69817 5.40917Z" fill="black"/>
<path d="M6.88604 6.19179L3.53492 11.1405L4.30761 11.6637L7.65873 6.71504L6.88604 6.19179Z" fill="black"/>
<path d="M8.06874 7.03005L4.72778 11.9859L5.50159 12.5076L8.84255 7.55171L8.06874 7.03005Z" fill="black"/>
<path d="M24.4978 17.8451L22.95 20.1367L23.7234 20.659L25.2711 18.3674L24.4978 17.8451Z" fill="black"/>
<path d="M22.6946 20.4832L21.154 22.7795L21.929 23.2994L23.4695 21.003L22.6946 20.4832Z" fill="black"/>
<path d="M25.699 18.6457L24.1432 20.9402L24.9157 21.4639L26.4714 19.1694L25.699 18.6457Z" fill="black"/>
<path d="M23.9175 21.3028L22.3676 23.5931L23.1404 24.1161L24.6904 21.8259L23.9175 21.3028Z" fill="black"/>
<path d="M26.872 19.4316L25.3257 21.724L26.0993 22.2459L27.6457 19.9534L26.872 19.4316Z" fill="black"/>
<path d="M25.1017 22.0757L23.5564 24.369L24.3303 24.8905L25.8756 22.5972L25.1017 22.0757Z" fill="black"/>
<path d="M23.1254 6.21539L22.3507 6.73575L25.6833 11.697L26.458 11.1766L23.1254 6.21539Z" fill="black"/>
<path d="M24.3112 5.42243L23.5382 5.94531L25.0876 8.23581L25.8606 7.71293L24.3112 5.42243Z" fill="black"/>
<path d="M26.8919 10.8831L27.6604 10.3616L26.1165 8.06287L25.3411 8.59124L26.8919 10.8831Z" fill="black"/>
<path d="M21.9556 6.9938L21.1821 7.51584L22.7329 9.81373L23.5064 9.29169L21.9556 6.9938Z" fill="black"/>
<path d="M24.5037 12.4888L25.2791 11.9673L23.7283 9.67548L22.9598 10.197L24.5037 12.4888Z" fill="black"/>
<path d="M5.52399 17.8154L4.74924 18.3356L8.08122 23.2974L8.85597 22.7772L5.52399 17.8154Z" fill="black"/>
<path d="M3.12459 19.4184L2.35114 19.9405L5.6951 24.894L6.46854 24.3719L3.12459 19.4184Z" fill="black"/>
<path d="M4.31521 18.6192L3.54251 19.1425L5.09689 21.4378L5.86959 20.9146L4.31521 18.6192Z" fill="black"/>
<path d="M6.87597 24.1059L7.65136 23.5844L6.10058 21.2926L5.33205 21.8072L6.87597 24.1059Z" fill="black"/>
</svg>
