<svg width="30" height="30" viewBox="0 0 30 30" fill="none" xmlns="http://www.w3.org/2000/svg">
<path d="M15.0001 30.0003C21.0523 30.0003 26.2673 26.4115 28.6346 21.2514H1.36565C3.73298 26.4115 8.94798 30.0003 15.0001 30.0003Z" fill="#CE1126"/>
<path d="M15.0001 0.000244141C8.94798 0.000244141 3.73298 3.58899 1.36565 8.7491H28.6346C26.2604 3.58899 21.0523 0.000244141 15.0001 0.000244141Z" fill="#009977"/>
<path d="M0.000152588 15.0003C0.000152588 17.2304 0.487348 19.3507 1.36566 21.2514H28.6346C29.5061 19.3507 30.0002 17.2304 30.0002 15.0003C30.0002 12.7702 29.513 10.6567 28.6346 8.74908H1.36566C0.487348 10.6498 0.000152588 12.7702 0.000152588 15.0003Z" fill="#F1F4FB"/>
<path d="M0.000152588 15.0002C0.000152588 19.1448 1.68131 22.8913 4.3986 25.6018L8.74901 21.2514V8.74907L4.39174 4.39868C1.68131 7.10911 0.000152588 10.8557 0.000152588 15.0002Z" fill="black"/>
</svg>
