<svg width="30" height="30" viewBox="0 0 30 30" fill="none" xmlns="http://www.w3.org/2000/svg">
<g clip-path="url(#clip0_1_14648)">
<path d="M-15 0.0010376H45V30.001H-15V0.0010376Z" fill="#012169"/>
<path d="M-15 0.0010376L15 15.001L-15 0.0010376ZM15 0.0010376L-15 15.001L15 0.0010376Z" fill="black"/>
<path d="M-15 0.0010376L15 15.001M15 0.0010376L-15 15.001" stroke="white" stroke-width="3"/>
<mask id="mask0_1_14648" style="mask-type:luminance" maskUnits="userSpaceOnUse" x="-15" y="0" width="35" height="18">
<path d="M-15 0.0010376V7.50104H20V15.001H15L-15 0.0010376ZM15 0.0010376H0V17.501H-15V15.001L15 0.0010376Z" fill="white"/>
</mask>
<g mask="url(#mask0_1_14648)">
<path d="M-15 0.0010376L15 15.001L-15 0.0010376ZM15 0.0010376L-15 15.001L15 0.0010376Z" fill="black"/>
<path d="M-15 0.0010376L15 15.001M15 0.0010376L-15 15.001" stroke="#C8102E" stroke-width="2"/>
</g>
<path d="M0 0.0010376V17.501V0.0010376ZM-15 7.50104H20H-15Z" fill="black"/>
<path d="M2.23517e-07 0.0010376V17.501M-15 7.50104H20" stroke="white" stroke-width="5"/>
<path d="M0 0.0010376V17.501V0.0010376ZM-15 7.50104H20H-15Z" fill="black"/>
<path d="M2.23517e-07 0.0010376V17.501M-15 7.50104H20" stroke="#C8102E" stroke-width="3"/>
<path d="M-15 15.001H15V0.0010376H45V30.001H-15V15.001Z" fill="#012169"/>
<path d="M33.5423 11.6584V16.331C33.5423 20.3805 31.6254 21.7703 29.0615 22.8725C26.4975 21.7703 24.5566 20.3805 24.5566 16.331V11.6584H33.5423Z" fill="white" stroke="white" stroke-width="0.48" stroke-linejoin="round"/>
<path d="M21.7772 22.4892C21.921 22.8725 22.9513 23.3757 24.1494 22.7288C24.9641 22.2735 25.4913 21.6265 25.9945 20.4764C26.1382 20.1888 26.2101 19.8294 25.8747 19.6137C25.6111 19.4221 25.1798 19.2064 24.9881 19.0147C24.8922 18.9189 24.7964 18.847 24.7245 18.7751C24.7724 18.823 24.8204 18.8709 24.8683 18.9428C25.3475 19.5179 24.8443 20.3566 24.3172 20.8598C23.9338 21.2192 23.2389 22.1058 22.2325 21.2671C22.0168 21.0754 21.5136 21.8662 21.7772 22.4892Z" fill="#FCEA83" stroke="white" stroke-width="0.48" stroke-linejoin="round"/>
<path d="M29.0616 24.5499C30.9785 24.5499 33.9258 23.6873 35.5073 20.6681C35.7708 20.1649 35.5073 19.9013 35.1958 19.7336C34.8603 19.5898 34.4529 19.2544 34.2373 19.0387C34.6207 19.4221 34.5488 19.6857 34.2852 20.117C33.0632 22.1537 31.3858 23.1841 29.0616 23.1841C26.7373 23.1841 25.0599 22.1537 23.8379 20.117C23.5743 19.6857 23.5024 19.4221 23.8619 19.0387C23.6702 19.2544 23.2389 19.5898 22.9034 19.7336C22.5919 19.9013 22.3283 20.1649 22.5919 20.6681C24.1734 23.6873 27.1446 24.5499 29.0616 24.5499Z" fill="#FCEA83" stroke="white" stroke-width="0.48" stroke-linejoin="round"/>
<path d="M24.6287 20.5003C24.5808 20.2606 24.2693 20.3565 24.1735 20.644C24.0537 20.4763 23.9338 20.3086 23.838 20.1169C23.5505 19.6856 23.5025 19.398 23.9099 18.9907C24.1016 18.799 24.485 18.5833 24.7485 18.8229C25.2997 19.2782 25.0121 20.021 24.6287 20.5003Z" fill="#C8102E" stroke="white" stroke-width="0.48" stroke-linejoin="round"/>
<path d="M21.7773 22.4891C21.5377 22.1297 21.346 21.1952 21.298 20.9556C21.2262 20.7399 21.2022 20.5482 21.4658 20.4524C21.7294 20.3565 21.969 20.692 22.0888 20.9795C22.2086 21.2671 22.4003 21.6984 22.6159 22.2255C22.0888 21.914 21.6575 22.1297 21.7773 22.4891Z" fill="#C8102E" stroke="white" stroke-width="0.48" stroke-linejoin="round"/>
<path d="M27.2168 11.6344C26.9053 11.7063 26.6896 11.7303 26.4021 11.4667C26.2104 11.275 26.2583 10.9396 26.45 10.8197C26.6656 10.676 26.8573 10.5801 27.1209 10.652C27.3845 10.7239 28.0794 11.3709 27.9117 11.3948C27.7439 11.3948 27.4803 11.5626 27.2168 11.6344Z" fill="white" stroke="white" stroke-width="0.48" stroke-linejoin="round"/>
<path d="M27.9597 10.4843C28.0556 10.4124 28.1754 10.3645 28.4869 10.3405C28.7744 10.3165 28.9901 10.3165 29.062 10.5322C29.1578 10.7958 29.2297 11.1073 29.4214 11.251C29.3016 11.3229 28.7025 11.3948 28.4869 11.275C28.1993 11.1312 28.1275 10.5801 27.9597 10.4843Z" fill="white" stroke="white" stroke-width="0.48" stroke-linejoin="round"/>
<path d="M30.0203 10.5082C30.1161 10.4364 30.2359 10.4364 30.5474 10.4603C30.8589 10.4843 30.9787 10.5082 31.0506 10.7239C31.1225 10.9635 31.0506 11.275 31.1944 11.4907C31.0506 11.5386 30.5714 11.5386 30.4037 11.3709C30.1401 11.1792 30.164 10.628 30.0203 10.5082Z" fill="white" stroke="white" stroke-width="0.48" stroke-linejoin="round"/>
<path d="M28.99 10.4124C29.0619 10.3406 29.2056 10.3166 29.4932 10.3166C29.8047 10.3166 29.9964 10.3645 30.0922 10.5562C30.1881 10.7958 30.1641 11.1073 30.3319 11.299C30.26 11.3949 29.613 11.3949 29.4213 11.2511C29.1577 11.0834 29.1338 10.5322 28.99 10.4124Z" fill="#073163" stroke="white" stroke-width="0.48" stroke-linejoin="round"/>
<path d="M26.9532 10.6281C26.9532 10.5083 27.121 10.4843 27.5523 10.4603C27.9836 10.4124 28.0076 10.4364 28.1513 10.7479C28.2232 10.9156 28.3191 11.2031 28.5108 11.299C27.9836 11.4188 27.8159 11.4907 27.5283 11.323C27.3127 11.2031 27.0731 10.9156 27.0251 10.7958C27.0012 10.7239 27.0012 10.652 26.9532 10.6281Z" fill="#073163" stroke="white" stroke-width="0.48" stroke-linejoin="round"/>
<path d="M27.001 8.49551C26.8333 8.49551 26.6895 8.42362 26.5936 8.30381C26.4259 8.08816 25.9706 7.99231 25.7789 8.18401C25.7071 8.23193 25.6112 8.23193 25.5393 8.25589C25.4195 8.25589 25.2757 8.3757 25.3237 8.61532C25.4195 8.54343 25.4435 8.61532 25.5154 8.61532C25.5633 8.59136 25.5393 8.63928 25.5393 8.6872C25.5393 8.80701 25.8029 9.04663 26.0425 9.02267C26.3061 9.02267 26.4259 9.11851 26.4738 9.16644C26.5457 9.23832 26.4978 9.21436 26.5457 9.33417C26.6176 9.40606 26.6416 9.43002 26.5218 9.52586C26.354 9.66963 26.2342 10.0051 26.5218 10.2687C26.8333 10.5083 27.624 10.8677 28.5106 10.1728C29.3732 9.5019 30.7151 9.88529 30.8109 10.1249C30.9307 10.3645 30.9786 10.5083 31.0026 10.6281C31.0266 10.724 31.1464 10.8198 31.3141 10.7958C31.4818 10.7958 31.6735 10.8677 31.7694 10.9396C31.8892 11.0115 32.0569 10.9875 32.009 10.7719C31.9132 10.1009 31.5058 10.0051 31.4579 9.6936C31.6975 9.71756 31.8652 9.71756 31.9611 9.62171C32.033 9.52587 32.1288 9.35813 32.2247 9.31021C32.2965 9.26229 32.2965 9.21436 32.2007 9.23833C32.0809 9.26229 32.009 9.31021 31.7933 9.28625C30.6911 9.16644 27.6 8.32778 27.001 8.49551Z" fill="#059334" stroke="white" stroke-width="0.48" stroke-linejoin="round"/>
<path d="M31.8888 9.31016C31.769 9.38204 31.6492 9.50185 31.4335 9.78939C31.1939 10.1009 30.475 10.4124 29.5885 10.4124C28.7258 10.4124 28.1987 10.2686 27.8153 9.95712C27.5996 9.78939 27.4319 9.69354 27.2881 9.62166C27.0245 9.50185 26.9766 9.23827 27.0485 9.02261C26.9766 9.14242 26.9287 9.26223 26.7849 9.23827C26.6891 9.23827 26.4974 9.23827 26.5453 9.33412C26.5213 9.28619 26.5213 9.21431 26.4974 9.19035C26.4734 9.16638 26.4495 9.14242 26.4495 9.14242C26.5213 9.19035 26.6891 9.04658 26.8089 9.04658C26.9047 9.07054 27.0245 8.95073 27.0006 8.80696C26.9766 8.68715 26.9527 8.5913 26.9287 8.49546C27.1204 8.39961 29.6364 8.85488 30.1396 8.90281C30.6428 8.92677 32.0805 9.14242 31.8888 9.31016Z" fill="black" stroke="white" stroke-width="0.48" stroke-linejoin="round"/>
<path d="M27.3365 8.39961C27.5762 8.15999 27.8637 8.04019 28.1512 8.11207H28.2231C28.3669 7.99226 28.7024 7.9683 28.8941 8.06415H28.9899C29.2774 7.9683 29.8286 8.06415 30.0203 8.25584L30.0921 8.30376C30.7391 8.25584 31.1225 8.54338 31.5778 8.99865C31.6257 9.04658 31.6976 9.14242 31.8174 9.16639C31.9612 9.19035 31.9851 9.26223 31.8653 9.33412C31.7215 9.406 31.6017 9.52581 31.3621 9.78939C31.1465 10.0769 30.4516 10.3645 29.589 10.3645C28.7503 10.3645 28.2471 10.2207 27.8637 9.93316C27.6481 9.76543 27.4803 9.66958 27.3605 9.5977C27.2167 9.54977 27.025 9.35808 27.0969 9.16638C27.1449 8.97469 27.025 8.73507 26.9292 8.49545C27.0011 8.44753 27.1928 8.37565 27.2886 8.42357L27.3365 8.39961Z" fill="#059334" stroke="white" stroke-width="0.48" stroke-linejoin="round"/>
<path d="M31.5773 8.99867C31.1221 8.5434 30.7387 8.25586 30.0917 8.30378C30.0917 8.32774 30.0917 8.39963 30.0677 8.44755C30.4511 8.59132 31.0023 9.02263 31.2419 9.33414C31.3377 9.23829 31.5055 9.11848 31.5773 8.99867Z" fill="#00493D" stroke="white" stroke-width="0.48" stroke-linejoin="round"/>
<path d="M30.0197 8.25578C29.828 8.06409 29.2769 7.96824 28.9893 8.06409C28.9893 8.15994 28.9893 8.30371 28.9414 8.39956C29.1091 8.47144 29.2529 8.63917 29.3967 8.80691C29.4925 8.78294 29.7321 8.71106 29.852 8.6871C29.8999 8.59125 29.9957 8.37559 30.0197 8.25578Z" fill="#00493D" stroke="white" stroke-width="0.48" stroke-linejoin="round"/>
<path d="M28.8941 8.06415C28.7024 7.9683 28.3669 7.99226 28.2231 8.11207C28.1752 8.20792 28.1512 8.39961 28.1512 8.49546C28.2471 8.49546 28.3909 8.56734 28.4388 8.61527C28.5826 8.56734 28.7743 8.4715 28.8461 8.39961C28.8701 8.30376 28.918 8.15999 28.8941 8.06415Z" fill="#00493D" stroke="white" stroke-width="0.48" stroke-linejoin="round"/>
<path d="M27.3364 8.39963C27.576 8.16001 27.8636 8.0402 28.1511 8.11209C28.1032 8.18397 28.0792 8.32774 28.0792 8.47151C27.8157 8.44755 27.4802 8.51944 27.3364 8.61529V8.39963Z" fill="#00493D" stroke="white" stroke-width="0.48" stroke-linejoin="round"/>
<path d="M31.1458 9.38199C30.9301 9.07049 30.403 8.71106 30.0436 8.54333C30.0436 8.5673 29.9956 8.66314 29.9717 8.73503C30.1155 8.95068 30.403 9.42992 30.5228 9.6935C30.6426 9.64558 30.9781 9.5018 31.1458 9.38199Z" fill="#00493D" stroke="white" stroke-width="0.48" stroke-linejoin="round"/>
<path d="M29.3252 9.90925C29.3731 9.57378 29.3971 9.09455 29.3971 8.92682C29.5169 8.90285 29.7565 8.83097 29.8524 8.80701C29.9722 8.9987 30.2597 9.5019 30.3795 9.74152C30.092 9.8134 29.6127 9.93321 29.3252 9.90925Z" fill="#00493D" stroke="white" stroke-width="0.48" stroke-linejoin="round"/>
<path d="M28.4863 8.75903C28.6061 8.7111 28.7739 8.61526 28.8937 8.51941C28.9895 8.59129 29.1812 8.75903 29.2531 8.85487C29.2531 9.07053 29.1812 9.69353 29.1573 9.90919C28.9656 9.90919 28.6541 9.86127 28.4863 9.76542C28.5103 9.406 28.5343 8.99865 28.4863 8.75903Z" fill="#00493D" stroke="white" stroke-width="0.48" stroke-linejoin="round"/>
<path d="M27.2882 9.04656C27.3122 8.99863 27.3361 8.8309 27.3361 8.75902C27.5278 8.63921 28.0071 8.5194 28.3665 8.71109C28.3905 8.95071 28.3665 9.54975 28.3425 9.69352C28.031 9.45391 27.5278 9.11845 27.2882 9.04656Z" fill="#00493D" stroke="white" stroke-width="0.48" stroke-linejoin="round"/>
<path d="M26.0899 8.61527C26.042 8.61527 26.018 8.4715 25.9222 8.4715C25.8982 8.4715 25.8263 8.49546 25.8024 8.4715C25.8024 8.51942 25.8263 8.56734 25.8503 8.59131C25.8743 8.66319 25.9941 8.61527 26.0899 8.61527Z" fill="black"/>
<path d="M26.0896 9.02255C26.3771 9.02255 26.4251 8.66312 26.5688 8.63916" stroke="white" stroke-width="0.48" stroke-linejoin="round"/>
<path d="M26.2577 9.04657C26.4733 9.14242 26.6411 8.63922 26.8088 8.66318" stroke="white" stroke-width="0.48" stroke-linejoin="round"/>
<path d="M25.8268 8.42356C25.8987 8.42356 25.9466 8.32772 26.0664 8.44753C26.1143 8.49545 26.1862 8.51941 26.2341 8.51941" stroke="white" stroke-width="0.48" stroke-linejoin="round"/>
<path d="M26.1854 8.78296C26.0895 8.92673 25.9218 9.02258 25.8259 8.97465" stroke="white" stroke-width="0.48" stroke-linejoin="round"/>
<path d="M25.7784 8.18396C25.7066 8.23188 25.6586 8.32773 25.6107 8.39962" stroke="white" stroke-width="0.48" stroke-linejoin="round"/>
<path d="M25.5387 8.54333V8.66314" stroke="white" stroke-width="0.48" stroke-linejoin="round"/>
<path d="M28.1029 8.18396C27.5997 7.80057 27.0007 7.44115 26.4496 7.36926C26.809 7.58492 27.8154 8.37566 28.079 8.63924" fill="black"/>
<path d="M28.1029 8.18396C27.5997 7.80057 27.0007 7.44115 26.4496 7.36926C26.809 7.58492 27.8154 8.37566 28.079 8.63924" stroke="white" stroke-width="0.48" stroke-linejoin="round"/>
<path d="M28.3906 7.82449C27.7916 7.41714 27.0967 6.96186 26.4258 6.91394C26.929 7.17752 27.6718 7.80053 28.0791 8.30372" fill="black"/>
<path d="M28.3906 7.82449C27.7916 7.41714 27.0967 6.96186 26.4258 6.91394C26.929 7.17752 27.6718 7.80053 28.0791 8.30372" stroke="white" stroke-width="0.48" stroke-linejoin="round"/>
<path d="M29.1577 7.15354C29.4932 6.41072 29.8526 6.00337 30.3318 5.5481C30.0922 6.05129 29.8286 7.08165 29.7088 7.489" fill="black"/>
<path d="M29.1577 7.15354C29.4932 6.41072 29.8526 6.00337 30.3318 5.5481C30.0922 6.05129 29.8286 7.08165 29.7088 7.489" stroke="white" stroke-width="0.48" stroke-linejoin="round"/>
<path d="M29.6844 7.03377C29.9241 6.50661 30.2835 6.05134 30.9065 5.76379C30.595 6.0753 30.1158 7.0098 29.9959 7.513" fill="black"/>
<path d="M29.6844 7.03377C29.9241 6.50661 30.2835 6.05134 30.9065 5.76379C30.595 6.0753 30.1158 7.0098 29.9959 7.513" stroke="white" stroke-width="0.48" stroke-linejoin="round"/>
<path d="M29.9005 7.51299C30.1881 7.10564 30.7631 6.33887 31.7935 5.93152C31.1944 6.53056 30.3079 7.6328 30.0922 8.06411" fill="black"/>
<path d="M29.9005 7.51299C30.1881 7.10564 30.7631 6.33887 31.7935 5.93152C31.1944 6.53056 30.3079 7.6328 30.0922 8.06411" stroke="white" stroke-width="0.48" stroke-linejoin="round"/>
<path d="M30.236 8.04011C30.6673 7.80049 31.53 7.41711 32.153 7.53692C31.7696 7.68069 30.6194 8.20785 30.1162 8.68708" fill="black"/>
<path d="M30.236 8.04011C30.6673 7.80049 31.53 7.41711 32.153 7.53692C31.7696 7.68069 30.6194 8.20785 30.1162 8.68708" stroke="white" stroke-width="0.48" stroke-linejoin="round"/>
<path d="M30.1402 7.87238C30.5475 7.44107 31.2903 6.7941 32.0811 6.53052C31.506 7.08164 30.2839 8.32765 30.1162 8.51934" fill="black"/>
<path d="M30.1402 7.87238C30.5475 7.44107 31.2903 6.7941 32.0811 6.53052C31.506 7.08164 30.2839 8.32765 30.1162 8.51934" stroke="white" stroke-width="0.48" stroke-linejoin="round"/>
<path d="M28.9897 7.60888C28.7022 6.7223 28.2709 5.88364 27.6239 5.62006C27.9833 6.14722 28.4386 6.91399 28.6782 8.06416" fill="black"/>
<path d="M28.9897 7.60888C28.7022 6.7223 28.2709 5.88364 27.6239 5.62006C27.9833 6.14722 28.4386 6.91399 28.6782 8.06416" stroke="white" stroke-width="0.48" stroke-linejoin="round"/>
<path d="M28.4388 7.58492C27.9596 7.00984 27.3126 6.43475 26.5698 6.31494C27.073 6.60248 27.9117 7.44115 28.2232 8.25585" fill="black"/>
<path d="M28.4388 7.58492C27.9596 7.00984 27.3126 6.43475 26.5698 6.31494C27.073 6.60248 27.9117 7.44115 28.2232 8.25585" stroke="white" stroke-width="0.48" stroke-linejoin="round"/>
<path d="M28.7017 7.56095C28.1026 6.48267 27.6474 6.29097 27.3838 6.07532C27.5994 6.48267 28.1266 7.56095 28.4381 8.01622" fill="black"/>
<path d="M28.7017 7.56095C28.1026 6.48267 27.6474 6.29097 27.3838 6.07532C27.5994 6.48267 28.1266 7.56095 28.4381 8.01622" stroke="white" stroke-width="0.48" stroke-linejoin="round"/>
<path d="M27.5043 7.48901C27.7918 7.65675 28.2231 8.06409 28.3669 8.32767" stroke="white" stroke-width="0.48" stroke-linejoin="round"/>
<path d="M27.5043 7.99231C27.648 8.11212 27.9116 8.25589 28.1512 8.47154L27.5043 7.99231Z" fill="black"/>
<path d="M27.5043 7.99231C27.648 8.11212 27.9116 8.25589 28.1512 8.47154" stroke="white" stroke-width="0.48" stroke-linejoin="round"/>
<path d="M30.188 8.18395C30.4276 7.87245 30.9068 7.44113 31.0746 7.29736L30.188 8.18395Z" fill="black"/>
<path d="M30.188 8.18395C30.4276 7.87245 30.9068 7.44113 31.0746 7.29736" stroke="white" stroke-width="0.48" stroke-linejoin="round"/>
<path d="M30.8587 6.69836C30.643 6.93798 30.1398 7.53702 29.9481 7.82457L30.8587 6.69836Z" fill="black"/>
<path d="M30.8587 6.69836C30.643 6.93798 30.1398 7.53702 29.9481 7.82457" stroke="white" stroke-width="0.48" stroke-linejoin="round"/>
<path d="M30.2359 6.48267C30.0682 6.69832 29.7327 7.32133 29.6368 7.53699L30.2359 6.48267Z" fill="black"/>
<path d="M30.2359 6.48267C30.0682 6.69832 29.7327 7.32133 29.6368 7.53699" stroke="white" stroke-width="0.48" stroke-linejoin="round"/>
<path d="M28.3429 6.53064C28.4867 6.91403 28.7502 7.56099 28.8461 7.82457L28.3429 6.53064Z" fill="black"/>
<path d="M28.3429 6.53064C28.4867 6.91403 28.7502 7.56099 28.8461 7.82457" stroke="white" stroke-width="0.48" stroke-linejoin="round"/>
<path d="M28.1274 6.93799C28.2233 7.08176 28.415 7.41722 28.4869 7.65684L28.1274 6.93799Z" fill="black"/>
<path d="M28.1274 6.93799C28.2233 7.08176 28.415 7.41722 28.4869 7.65684" stroke="white" stroke-width="0.48" stroke-linejoin="round"/>
<path d="M28.9414 6.81819C28.9414 6.60253 29.0852 6.36292 29.2289 6.36292C29.3967 6.36292 29.5165 6.65046 29.5165 6.81819C29.5165 7.00988 29.3727 7.17762 29.2289 7.17762C29.0852 7.17762 28.9414 7.03384 28.9414 6.81819Z" fill="black" stroke="white" stroke-width="0.48" stroke-linejoin="round"/>
<path d="M28.6304 7.00984C28.6544 6.77022 28.8221 6.57853 28.9659 6.60249C29.1096 6.62645 29.1815 6.91399 29.1576 7.08173C29.1336 7.27342 28.9659 7.41719 28.8461 7.39323C28.7263 7.39323 28.6064 7.2255 28.6304 7.00984Z" fill="black" stroke="white" stroke-width="0.48" stroke-linejoin="round"/>
<path d="M29.2776 7.08173C29.2297 6.86607 29.3255 6.62646 29.4693 6.60249C29.6131 6.57853 29.7568 6.81815 29.7808 7.00984C29.8287 7.20154 29.7089 7.39323 29.5891 7.39323C29.4693 7.41719 29.3016 7.29738 29.2776 7.08173Z" fill="black" stroke="white" stroke-width="0.48" stroke-linejoin="round"/>
<path d="M28.9178 7.27339C28.9178 7.03377 29.0616 6.81812 29.2054 6.81812C29.3731 6.81812 29.4929 7.08169 29.4929 7.27339C29.4929 7.46508 29.3492 7.63282 29.2054 7.63282C29.0616 7.63282 28.9178 7.48904 28.9178 7.27339Z" fill="black" stroke="white" stroke-width="0.48" stroke-linejoin="round"/>
<path d="M28.4863 7.39326C28.4863 7.17761 28.6541 6.93799 28.7978 6.93799C28.9416 6.93799 29.0854 7.22553 29.0854 7.39326C29.0854 7.58496 28.9176 7.75269 28.7978 7.75269C28.6541 7.75269 28.4863 7.60892 28.4863 7.39326Z" fill="black" stroke="white" stroke-width="0.48" stroke-linejoin="round"/>
<path d="M29.3732 7.29731C29.3732 7.08166 29.5169 6.84204 29.6607 6.84204C29.8284 6.84204 29.9483 7.12958 29.9483 7.29731C29.9483 7.48901 29.8045 7.65674 29.6607 7.65674C29.5169 7.65674 29.3732 7.51297 29.3732 7.29731Z" fill="black" stroke="white" stroke-width="0.48" stroke-linejoin="round"/>
<path d="M29.2773 7.48909C29.2773 7.24947 29.4451 7.03381 29.5888 7.03381C29.7326 7.03381 29.8764 7.29739 29.8764 7.48909C29.8764 7.68078 29.7326 7.84851 29.5888 7.84851C29.4451 7.84851 29.2773 7.70474 29.2773 7.48909Z" fill="black" stroke="white" stroke-width="0.48" stroke-linejoin="round"/>
<path d="M28.894 7.70466C28.894 7.46505 29.0378 7.24939 29.1816 7.24939C29.3493 7.24939 29.4691 7.53693 29.4691 7.70466C29.4691 7.89636 29.3254 8.06409 29.1816 8.06409C29.0378 8.06409 28.894 7.92032 28.894 7.70466Z" fill="black" stroke="white" stroke-width="0.48" stroke-linejoin="round"/>
<path d="M28.2949 7.70466C28.2949 7.46505 28.4147 7.24939 28.5345 7.24939C28.6543 7.24939 28.7502 7.53693 28.7502 7.70466C28.7502 7.89636 28.6304 8.06409 28.5345 8.06409C28.4147 8.06409 28.2949 7.92032 28.2949 7.70466Z" fill="black" stroke="white" stroke-width="0.48" stroke-linejoin="round"/>
<path d="M29.6368 7.65678C29.6368 7.44112 29.7566 7.22546 29.8765 7.22546C29.9963 7.22546 30.1161 7.48904 30.1161 7.65678C30.1161 7.87243 29.9723 8.0162 29.8765 8.0162C29.7566 8.0162 29.6368 7.87243 29.6368 7.65678Z" fill="black" stroke="white" stroke-width="0.48" stroke-linejoin="round"/>
<path d="M29.7805 8.06416C29.8284 7.82454 29.9722 7.63285 30.0681 7.65681C30.1639 7.68077 30.1879 7.96831 30.1399 8.13605C30.116 8.3517 29.9722 8.47151 29.8764 8.44755C29.7805 8.42359 29.7326 8.25586 29.7805 8.06416Z" fill="black" stroke="white" stroke-width="0.48" stroke-linejoin="round"/>
<path d="M29.325 7.99231C29.3489 7.77665 29.4927 7.561 29.6125 7.58496C29.7563 7.58496 29.8282 7.8725 29.8042 8.04023C29.7803 8.25589 29.6605 8.39966 29.5406 8.3757C29.4208 8.3757 29.301 8.20796 29.325 7.99231Z" fill="black" stroke="white" stroke-width="0.48" stroke-linejoin="round"/>
<path d="M28.6544 8.06413C28.5825 7.82451 28.4388 7.65678 28.3429 7.68074C28.2471 7.7047 28.2231 7.99225 28.271 8.15998C28.319 8.35167 28.4627 8.47148 28.5586 8.44752C28.6305 8.42356 28.7023 8.25583 28.6544 8.06413Z" fill="black" stroke="white" stroke-width="0.48" stroke-linejoin="round"/>
<path d="M28.4863 8.01615C28.4863 7.80049 28.6061 7.58484 28.7259 7.58484C28.8697 7.58484 28.9656 7.84842 28.9656 8.01615C28.9656 8.23181 28.8458 8.37558 28.7259 8.37558C28.6301 8.37558 28.4863 8.23181 28.4863 8.01615Z" fill="black" stroke="white" stroke-width="0.48" stroke-linejoin="round"/>
<path d="M28.8458 8.11201C28.8458 7.87239 28.9896 7.65674 29.1334 7.65674C29.3011 7.65674 29.4209 7.92032 29.4209 8.11201C29.4209 8.30371 29.2771 8.47144 29.1334 8.47144C28.9896 8.47144 28.8458 8.32767 28.8458 8.11201Z" fill="black" stroke="white" stroke-width="0.48" stroke-linejoin="round"/>
<path d="M28.9658 5.47623C28.9179 5.66793 28.7502 5.83566 28.87 6.09924C28.6543 6.02735 28.4627 6.00339 28.2949 6.19508C28.5106 6.17112 28.7023 6.24301 28.7981 6.38678C28.6064 6.36282 28.5106 6.45866 28.4627 6.57847C28.6304 6.53055 28.7981 6.48263 28.87 6.50659C28.7981 6.57847 28.6783 6.69828 28.6543 6.79413C28.7981 6.67432 28.9659 6.69828 29.0617 6.6264C28.9898 6.79413 29.1336 6.96186 29.2534 7.1296C29.2294 6.88998 29.3732 6.72225 29.3013 6.60244C29.517 6.65036 29.5409 6.84205 29.8524 6.84205C29.7326 6.77017 29.6607 6.53055 29.517 6.53055C29.5889 6.50659 29.8764 6.48263 29.9243 6.53055C29.8764 6.4347 29.7087 6.33886 29.6128 6.33886C29.7087 6.24301 29.8764 6.05132 29.9962 6.00339C29.8285 6.02735 29.5649 6.05131 29.469 6.19509C29.7087 6.00339 29.6607 5.64397 29.9243 5.59604C29.7805 5.57208 29.5649 5.66793 29.3972 5.83566C29.469 5.69189 29.469 5.50019 29.5649 5.45227C29.3732 5.50019 29.1575 5.73981 29.0857 5.85962C29.0857 5.73981 29.0138 5.54812 28.9658 5.47623Z" fill="black" stroke="white" stroke-width="0.48" stroke-linejoin="round"/>
<path d="M29.0859 5.85962C29.0859 5.9315 29.0859 6.07528 29.0619 6.1232L29.0859 5.85962Z" fill="black"/>
<path d="M29.0859 5.85962C29.0859 5.9315 29.0859 6.07528 29.0619 6.1232" stroke="white" stroke-width="0.48" stroke-linejoin="round"/>
<path d="M29.3973 5.83569C29.3494 5.88362 29.2535 6.05135 29.2535 6.19512L29.3973 5.83569Z" fill="black"/>
<path d="M29.3973 5.83569C29.3494 5.88362 29.2535 6.05135 29.2535 6.19512" stroke="white" stroke-width="0.48" stroke-linejoin="round"/>
<path d="M29.5409 6.12323C29.469 6.17115 29.3971 6.24304 29.3732 6.33889" stroke="white" stroke-width="0.48" stroke-linejoin="round"/>
<path d="M21.7772 22.4892C21.921 22.8725 22.9513 23.3757 24.1494 22.7288C24.9641 22.2735 25.4913 21.6265 25.9945 20.4764C26.1382 20.1888 26.2101 19.8294 25.8747 19.6137C25.6111 19.4221 25.1798 19.2064 24.9881 19.0147C24.8922 18.9189 24.7964 18.847 24.7245 18.7751C24.7724 18.823 24.8204 18.8709 24.8683 18.9428C25.3475 19.5179 24.8443 20.3566 24.3172 20.8598C23.9338 21.2192 23.2389 22.1058 22.2325 21.2671C22.0168 21.0754 21.5136 21.8662 21.7772 22.4892Z" fill="#FCEA83" stroke="black" stroke-width="0.071885"/>
<path d="M29.0616 24.5499C30.9785 24.5499 33.9258 23.6873 35.5073 20.6681C35.7708 20.1649 35.5073 19.9013 35.1958 19.7336C34.8603 19.5898 34.4529 19.2544 34.2373 19.0387C34.6207 19.4221 34.5488 19.6857 34.2852 20.117C33.0632 22.1537 31.3858 23.1841 29.0616 23.1841C26.7373 23.1841 25.0599 22.1537 23.8379 20.117C23.5743 19.6857 23.5024 19.4221 23.8619 19.0387C23.6702 19.2544 23.2389 19.5898 22.9034 19.7336C22.5919 19.9013 22.3283 20.1649 22.5919 20.6681C24.1734 23.6873 27.1446 24.5499 29.0616 24.5499Z" fill="#FCEA83" stroke="black" stroke-width="0.071885"/>
<path d="M24.6287 20.5003C24.5808 20.2606 24.2693 20.3565 24.1735 20.644C24.0537 20.4763 23.9338 20.3086 23.838 20.1169C23.5505 19.6856 23.5025 19.398 23.9099 18.9907C24.1016 18.799 24.485 18.5833 24.7485 18.8229C25.2997 19.2782 25.0121 20.021 24.6287 20.5003Z" fill="#C8102E" stroke="black" stroke-width="0.071885"/>
<path d="M21.7773 22.4891C21.5377 22.1297 21.346 21.1952 21.298 20.9556C21.2262 20.7399 21.2022 20.5482 21.4658 20.4524C21.7294 20.3565 21.969 20.692 22.0888 20.9795C22.2086 21.2671 22.4003 21.6984 22.6159 22.2255C22.0888 21.914 21.6575 22.1297 21.7773 22.4891Z" fill="#C8102E" stroke="black" stroke-width="0.071885"/>
<path d="M27.2166 11.6344C26.9051 11.7063 26.6895 11.7303 26.4019 11.4667C26.2102 11.275 26.2582 10.9396 26.4499 10.8197C26.6655 10.676 26.8572 10.5801 27.1208 10.652C27.3844 10.7239 28.0793 11.3709 27.9115 11.3948C27.7438 11.3948 27.4802 11.5626 27.2166 11.6344Z" fill="white" stroke="black" stroke-width="0.071885"/>
<path d="M27.959 10.4843C28.0548 10.4124 28.1746 10.3645 28.4861 10.3405C28.7737 10.3165 28.9893 10.3165 29.0612 10.5322C29.1571 10.7958 29.229 11.1073 29.4207 11.251C29.3008 11.3229 28.7018 11.3948 28.4861 11.275C28.1986 11.1312 28.1267 10.5801 27.959 10.4843Z" fill="white" stroke="black" stroke-width="0.071885"/>
<path d="M30.0201 10.5082C30.116 10.4364 30.2358 10.4364 30.5473 10.4603C30.8588 10.4843 30.9786 10.5082 31.0505 10.7239C31.1224 10.9635 31.0505 11.275 31.1943 11.4907C31.0505 11.5386 30.5713 11.5386 30.4035 11.3709C30.14 11.1792 30.1639 10.628 30.0201 10.5082Z" fill="white" stroke="black" stroke-width="0.071885"/>
<path d="M28.9899 10.4124C29.0618 10.3406 29.2055 10.3166 29.4931 10.3166C29.8046 10.3166 29.9963 10.3645 30.0921 10.5562C30.188 10.7958 30.164 11.1073 30.3317 11.299C30.2598 11.3949 29.6129 11.3949 29.4212 11.2511C29.1576 11.0834 29.1336 10.5322 28.9899 10.4124Z" fill="#073163" stroke="black" stroke-width="0.071885"/>
<path d="M26.9531 10.6281C26.9531 10.5083 27.1209 10.4843 27.5522 10.4603C27.9835 10.4124 28.0074 10.4364 28.1512 10.7479C28.2231 10.9156 28.3189 11.2031 28.5106 11.299C27.9835 11.4188 27.8158 11.4907 27.5282 11.323C27.3126 11.2031 27.0729 10.9156 27.025 10.7958C27.0011 10.7239 27.001 10.652 26.9531 10.6281Z" fill="#073163" stroke="black" stroke-width="0.071885"/>
<path d="M28.1028 8.18396C27.5996 7.80057 27.0006 7.44115 26.4495 7.36926C26.8089 7.58492 27.8153 8.37566 28.0789 8.63924" fill="#F9D050"/>
<path d="M28.1028 8.18396C27.5996 7.80057 27.0006 7.44115 26.4495 7.36926C26.8089 7.58492 27.8153 8.37566 28.0789 8.63924" stroke="black" stroke-width="0.032345"/>
<path d="M28.3905 7.82449C27.7915 7.41714 27.0966 6.96186 26.4257 6.91394C26.9289 7.17752 27.6717 7.80053 28.079 8.30372" fill="#F9D050"/>
<path d="M28.3905 7.82449C27.7915 7.41714 27.0966 6.96186 26.4257 6.91394C26.9289 7.17752 27.6717 7.80053 28.079 8.30372" stroke="black" stroke-width="0.032345"/>
<path d="M29.1576 7.15354C29.4931 6.41072 29.8525 6.00337 30.3317 5.5481C30.0921 6.05129 29.8285 7.08165 29.7087 7.489" fill="#F9D050"/>
<path d="M29.1576 7.15354C29.4931 6.41072 29.8525 6.00337 30.3317 5.5481C30.0921 6.05129 29.8285 7.08165 29.7087 7.489" stroke="black" stroke-width="0.032345"/>
<path d="M29.6843 7.03377C29.9239 6.50661 30.2834 6.05134 30.9064 5.76379C30.5949 6.0753 30.1156 7.0098 29.9958 7.513" fill="#F9D050"/>
<path d="M29.6843 7.03377C29.9239 6.50661 30.2834 6.05134 30.9064 5.76379C30.5949 6.0753 30.1156 7.0098 29.9958 7.513" stroke="black" stroke-width="0.032345"/>
<path d="M29.9004 7.51299C30.1879 7.10564 30.763 6.33887 31.7934 5.93152C31.1943 6.53056 30.3077 7.6328 30.0921 8.06411" fill="#F9D050"/>
<path d="M29.9004 7.51299C30.1879 7.10564 30.763 6.33887 31.7934 5.93152C31.1943 6.53056 30.3077 7.6328 30.0921 8.06411" stroke="black" stroke-width="0.032345"/>
<path d="M28.9896 7.60888C28.7021 6.7223 28.2707 5.88364 27.6238 5.62006C27.9832 6.14722 28.4385 6.91399 28.6781 8.06416" fill="#F9D050"/>
<path d="M28.9896 7.60888C28.7021 6.7223 28.2707 5.88364 27.6238 5.62006C27.9832 6.14722 28.4385 6.91399 28.6781 8.06416" stroke="black" stroke-width="0.032345"/>
<path d="M28.4387 7.58492C27.9595 7.00984 27.3125 6.43475 26.5697 6.31494C27.0729 6.60248 27.9116 7.44115 28.2231 8.25585" fill="#F9D050"/>
<path d="M28.4387 7.58492C27.9595 7.00984 27.3125 6.43475 26.5697 6.31494C27.0729 6.60248 27.9116 7.44115 28.2231 8.25585" stroke="black" stroke-width="0.032345"/>
<path d="M28.7016 7.56095C28.1025 6.48267 27.6472 6.29097 27.3837 6.07532C27.5993 6.48267 28.1265 7.56095 28.438 8.01622" fill="#F9D050"/>
<path d="M28.7016 7.56095C28.1025 6.48267 27.6472 6.29097 27.3837 6.07532C27.5993 6.48267 28.1265 7.56095 28.438 8.01622" stroke="black" stroke-width="0.032345"/>
<path d="M27.5042 7.48901C27.7917 7.65675 28.223 8.06409 28.3668 8.32767" stroke="black" stroke-width="0.032345"/>
<path d="M27.5042 7.99231C27.6479 8.11212 27.9115 8.25589 28.1511 8.47154L27.5042 7.99231Z" fill="#F9D050"/>
<path d="M27.5042 7.99231C27.6479 8.11212 27.9115 8.25589 28.1511 8.47154" stroke="black" stroke-width="0.032345"/>
<path d="M30.8585 6.69836C30.6429 6.93798 30.1397 7.53702 29.948 7.82457L30.8585 6.69836Z" fill="#F9D050"/>
<path d="M30.8585 6.69836C30.6429 6.93798 30.1397 7.53702 29.948 7.82457" stroke="black" stroke-width="0.032345"/>
<path d="M30.2358 6.48267C30.068 6.69832 29.7326 7.32133 29.6367 7.53699L30.2358 6.48267Z" fill="#F9D050"/>
<path d="M30.2358 6.48267C30.068 6.69832 29.7326 7.32133 29.6367 7.53699" stroke="black" stroke-width="0.032345"/>
<path d="M28.3428 6.53064C28.4865 6.91403 28.7501 7.56099 28.846 7.82457L28.3428 6.53064Z" fill="#F9D050"/>
<path d="M28.3428 6.53064C28.4865 6.91403 28.7501 7.56099 28.846 7.82457" stroke="black" stroke-width="0.032345"/>
<path d="M28.1273 6.93799C28.2232 7.08176 28.4149 7.41722 28.4867 7.65684L28.1273 6.93799Z" fill="#F9D050"/>
<path d="M28.1273 6.93799C28.2232 7.08176 28.4149 7.41722 28.4867 7.65684" stroke="black" stroke-width="0.032345"/>
<path d="M28.9413 6.81819C28.9413 6.60253 29.0851 6.36292 29.2288 6.36292C29.3966 6.36292 29.5164 6.65046 29.5164 6.81819C29.5164 7.00988 29.3726 7.17762 29.2288 7.17762C29.0851 7.17762 28.9413 7.03384 28.9413 6.81819Z" fill="#F9D050" stroke="black" stroke-width="0.032345"/>
<path d="M28.6303 7.00984C28.6542 6.77022 28.822 6.57853 28.9657 6.60249C29.1095 6.62645 29.1814 6.91399 29.1574 7.08173C29.1335 7.27342 28.9657 7.41719 28.8459 7.39323C28.7261 7.39323 28.6063 7.2255 28.6303 7.00984Z" fill="#F9D050" stroke="black" stroke-width="0.032345"/>
<path d="M29.2775 7.08173C29.2296 6.86607 29.3254 6.62646 29.4692 6.60249C29.6129 6.57853 29.7567 6.81815 29.7807 7.00984C29.8286 7.20154 29.7088 7.39323 29.589 7.39323C29.4692 7.41719 29.3014 7.29738 29.2775 7.08173Z" fill="#F9D050" stroke="black" stroke-width="0.032345"/>
<path d="M28.9177 7.27339C28.9177 7.03377 29.0615 6.81812 29.2053 6.81812C29.373 6.81812 29.4928 7.08169 29.4928 7.27339C29.4928 7.46508 29.349 7.63282 29.2053 7.63282C29.0615 7.63282 28.9177 7.48904 28.9177 7.27339Z" fill="#F9D050" stroke="black" stroke-width="0.032345"/>
<path d="M28.4862 7.39326C28.4862 7.17761 28.6539 6.93799 28.7977 6.93799C28.9415 6.93799 29.0852 7.22553 29.0852 7.39326C29.0852 7.58496 28.9175 7.75269 28.7977 7.75269C28.6539 7.75269 28.4862 7.60892 28.4862 7.39326Z" fill="#F9D050" stroke="black" stroke-width="0.032345"/>
<path d="M29.373 7.29731C29.373 7.08166 29.5168 6.84204 29.6606 6.84204C29.8283 6.84204 29.9481 7.12958 29.9481 7.29731C29.9481 7.48901 29.8044 7.65674 29.6606 7.65674C29.5168 7.65674 29.373 7.51297 29.373 7.29731Z" fill="#F9D050" stroke="black" stroke-width="0.032345"/>
<path d="M29.2772 7.48909C29.2772 7.24947 29.445 7.03381 29.5887 7.03381C29.7325 7.03381 29.8763 7.29739 29.8763 7.48909C29.8763 7.68078 29.7325 7.84851 29.5887 7.84851C29.445 7.84851 29.2772 7.70474 29.2772 7.48909Z" fill="#F9D050" stroke="black" stroke-width="0.032345"/>
<path d="M28.8939 7.70466C28.8939 7.46505 29.0377 7.24939 29.1815 7.24939C29.3492 7.24939 29.469 7.53693 29.469 7.70466C29.469 7.89636 29.3252 8.06409 29.1815 8.06409C29.0377 8.06409 28.8939 7.92032 28.8939 7.70466Z" fill="#F9D050" stroke="black" stroke-width="0.032345"/>
<path d="M28.2948 7.70466C28.2948 7.46505 28.4146 7.24939 28.5344 7.24939C28.6542 7.24939 28.7501 7.53693 28.7501 7.70466C28.7501 7.89636 28.6303 8.06409 28.5344 8.06409C28.4146 8.06409 28.2948 7.92032 28.2948 7.70466Z" fill="#F9D050" stroke="black" stroke-width="0.032345"/>
<path d="M29.6367 7.65678C29.6367 7.44112 29.7565 7.22546 29.8763 7.22546C29.9961 7.22546 30.116 7.48904 30.116 7.65678C30.116 7.87243 29.9722 8.0162 29.8763 8.0162C29.7565 8.0162 29.6367 7.87243 29.6367 7.65678Z" fill="#F9D050" stroke="black" stroke-width="0.032345"/>
<path d="M29.7804 8.06416C29.8283 7.82454 29.9721 7.63285 30.0679 7.65681C30.1638 7.68077 30.1877 7.96831 30.1398 8.13605C30.1159 8.3517 29.9721 8.47151 29.8762 8.44755C29.7804 8.42359 29.7325 8.25586 29.7804 8.06416Z" fill="#F9D050" stroke="black" stroke-width="0.032345"/>
<path d="M29.3249 7.99231C29.3488 7.77665 29.4926 7.561 29.6124 7.58496C29.7562 7.58496 29.8281 7.8725 29.8041 8.04023C29.7801 8.25589 29.6603 8.39966 29.5405 8.3757C29.4207 8.3757 29.3009 8.20796 29.3249 7.99231Z" fill="#F9D050" stroke="black" stroke-width="0.032345"/>
<path d="M28.6543 8.06413C28.5824 7.82451 28.4386 7.65678 28.3428 7.68074C28.2469 7.7047 28.223 7.99225 28.2709 8.15998C28.3188 8.35167 28.4626 8.47148 28.5585 8.44752C28.6303 8.42356 28.7022 8.25583 28.6543 8.06413Z" fill="#F9D050" stroke="black" stroke-width="0.032345"/>
<path d="M28.4862 8.01615C28.4862 7.80049 28.606 7.58484 28.7258 7.58484C28.8696 7.58484 28.9654 7.84842 28.9654 8.01615C28.9654 8.23181 28.8456 8.37558 28.7258 8.37558C28.63 8.37558 28.4862 8.23181 28.4862 8.01615Z" fill="#F9D050" stroke="black" stroke-width="0.032345"/>
<path d="M28.8457 8.11201C28.8457 7.87239 28.9895 7.65674 29.1332 7.65674C29.301 7.65674 29.4208 7.92032 29.4208 8.11201C29.4208 8.30371 29.277 8.47144 29.1332 8.47144C28.9895 8.47144 28.8457 8.32767 28.8457 8.11201Z" fill="#F9D050" stroke="black" stroke-width="0.032345"/>
<path d="M28.9657 5.47623C28.9178 5.66793 28.7501 5.83566 28.8699 6.09924C28.6542 6.02735 28.4625 6.00339 28.2948 6.19508C28.5105 6.17112 28.7021 6.24301 28.798 6.38678C28.6063 6.36282 28.5105 6.45866 28.4625 6.57847C28.6303 6.53055 28.798 6.48263 28.8699 6.50659C28.798 6.57847 28.6782 6.69828 28.6542 6.79413C28.798 6.67432 28.9657 6.69828 29.0616 6.6264C28.9897 6.79413 29.1335 6.96186 29.2533 7.1296C29.2293 6.88998 29.3731 6.72225 29.3012 6.60244C29.5168 6.65036 29.5408 6.84205 29.8523 6.84205C29.7325 6.77017 29.6606 6.53055 29.5168 6.53055C29.5887 6.50659 29.8763 6.48263 29.9242 6.53055C29.8763 6.4347 29.7085 6.33886 29.6127 6.33886C29.7085 6.24301 29.8763 6.05132 29.9961 6.00339C29.8283 6.02735 29.5648 6.05131 29.4689 6.19509C29.7085 6.00339 29.6606 5.64397 29.9242 5.59604C29.7804 5.57208 29.5648 5.66793 29.397 5.83566C29.4689 5.69189 29.4689 5.50019 29.5648 5.45227C29.3731 5.50019 29.1574 5.73981 29.0855 5.85962C29.0855 5.73981 29.0136 5.54812 28.9657 5.47623Z" fill="#F9D050" stroke="black" stroke-width="0.032345"/>
<path d="M29.0857 5.85962C29.0857 5.9315 29.0857 6.07528 29.0618 6.1232L29.0857 5.85962Z" fill="#F9D050"/>
<path d="M29.0857 5.85962C29.0857 5.9315 29.0857 6.07528 29.0618 6.1232" stroke="black" stroke-width="0.032345"/>
<path d="M29.3972 5.83569C29.3493 5.88362 29.2534 6.05135 29.2534 6.19512L29.3972 5.83569Z" fill="#F9D050"/>
<path d="M29.3972 5.83569C29.3493 5.88362 29.2534 6.05135 29.2534 6.19512" stroke="black" stroke-width="0.032345"/>
<path d="M29.5408 6.12323C29.4689 6.17115 29.397 6.24304 29.373 6.33889" stroke="black" stroke-width="0.032345"/>
<path d="M27.0009 8.49551C26.8331 8.49551 26.6894 8.42362 26.5935 8.30381C26.4258 8.08816 25.9705 7.99231 25.7788 8.18401C25.7069 8.23193 25.6111 8.23193 25.5392 8.25589C25.4194 8.25589 25.2756 8.3757 25.3235 8.61532C25.4194 8.54343 25.4434 8.61532 25.5152 8.61532C25.5632 8.59136 25.5392 8.63928 25.5392 8.6872C25.5392 8.80701 25.8028 9.04663 26.0424 9.02267C26.306 9.02267 26.4258 9.11851 26.4737 9.16644C26.5456 9.23832 26.4977 9.21436 26.5456 9.33417C26.6175 9.40606 26.6414 9.43002 26.5216 9.52586C26.3539 9.66963 26.2341 10.0051 26.5216 10.2687C26.8331 10.5083 27.6239 10.8677 28.5105 10.1728C29.3731 9.5019 30.7149 9.88529 30.8108 10.1249C30.9306 10.3645 30.9785 10.5083 31.0025 10.6281C31.0264 10.724 31.1463 10.8198 31.314 10.7958C31.4817 10.7958 31.6734 10.8677 31.7693 10.9396C31.8891 11.0115 32.0568 10.9875 32.0089 10.7719C31.913 10.1009 31.5057 10.0051 31.4578 9.6936C31.6974 9.71756 31.8651 9.71756 31.961 9.62171C32.0328 9.52587 32.1287 9.35813 32.2245 9.31021C32.2964 9.26229 32.2964 9.21436 32.2006 9.23833C32.0808 9.26229 32.0089 9.31021 31.7932 9.28625C30.691 9.16644 27.5999 8.32778 27.0009 8.49551Z" fill="#059334" stroke="black" stroke-width="0.071885"/>
<path d="M31.8887 9.31016C31.7689 9.38204 31.649 9.50185 31.4334 9.78939C31.1938 10.1009 30.4749 10.4124 29.5883 10.4124C28.7257 10.4124 28.1986 10.2686 27.8152 9.95712C27.5995 9.78939 27.4318 9.69354 27.288 9.62166C27.0244 9.50185 26.9765 9.23827 27.0484 9.02261C26.9765 9.14242 26.9286 9.26223 26.7848 9.23827C26.689 9.23827 26.4973 9.23827 26.5452 9.33412C26.5212 9.28619 26.5212 9.21431 26.4973 9.19035C26.4733 9.16638 26.4493 9.14242 26.4493 9.14242C26.5212 9.19035 26.689 9.04658 26.8088 9.04658C26.9046 9.07054 27.0244 8.95073 27.0005 8.80696C26.9765 8.68715 26.9525 8.5913 26.9286 8.49546C27.1203 8.39961 29.6363 8.85488 30.1395 8.90281C30.6427 8.92677 32.0804 9.14242 31.8887 9.31016Z" fill="black" stroke="black" stroke-width="0.071885"/>
<path d="M27.3364 8.39961C27.576 8.15999 27.8636 8.04019 28.1511 8.11207H28.223C28.3668 7.99226 28.7022 7.9683 28.8939 8.06415H28.9898C29.2773 7.9683 29.8284 8.06415 30.0201 8.25584L30.092 8.30376C30.739 8.25584 31.1224 8.54338 31.5777 8.99865C31.6256 9.04658 31.6975 9.14242 31.8173 9.16639C31.961 9.19035 31.985 9.26223 31.8652 9.33412C31.7214 9.406 31.6016 9.52581 31.362 9.78939C31.1463 10.0769 30.4515 10.3645 29.5888 10.3645C28.7502 10.3645 28.247 10.2207 27.8636 9.93316C27.6479 9.76543 27.4802 9.66958 27.3604 9.5977C27.2166 9.54977 27.0249 9.35808 27.0968 9.16638C27.1447 8.97469 27.0249 8.73507 26.9291 8.49545C27.001 8.44753 27.1927 8.37565 27.2885 8.42357L27.3364 8.39961Z" fill="#059334" stroke="black" stroke-width="0.071885"/>
<path d="M30.0196 8.25578C29.8279 8.06409 29.2767 7.96824 28.9892 8.06409C28.9892 8.15994 28.9892 8.30371 28.9413 8.39956C29.109 8.47144 29.2528 8.63917 29.3966 8.80691C29.4924 8.78294 29.732 8.71106 29.8518 8.6871C29.8998 8.59125 29.9956 8.37559 30.0196 8.25578Z" fill="#00493D" stroke="black" stroke-width="0.071885"/>
<path d="M28.8939 8.06415C28.7022 7.9683 28.3668 7.99226 28.223 8.11207C28.1751 8.20792 28.1511 8.39961 28.1511 8.49546C28.247 8.49546 28.3907 8.56734 28.4387 8.61527C28.5824 8.56734 28.7741 8.4715 28.846 8.39961C28.87 8.30376 28.9179 8.15999 28.8939 8.06415Z" fill="#00493D" stroke="black" stroke-width="0.071885"/>
<path d="M27.3363 8.39963C27.5759 8.16001 27.8635 8.0402 28.151 8.11209C28.1031 8.18397 28.0791 8.32774 28.0791 8.47151C27.8155 8.44755 27.4801 8.51944 27.3363 8.61529V8.39963Z" fill="#00493D" stroke="black" stroke-width="0.071885"/>
<path d="M31.1457 9.38199C30.93 9.07049 30.4029 8.71106 30.0434 8.54333C30.0434 8.5673 29.9955 8.66314 29.9716 8.73503C30.1153 8.95068 30.4029 9.42992 30.5227 9.6935C30.6425 9.64558 30.978 9.5018 31.1457 9.38199Z" fill="#00493D" stroke="black" stroke-width="0.071885"/>
<path d="M29.3251 9.90925C29.373 9.57378 29.397 9.09455 29.397 8.92682C29.5168 8.90285 29.7564 8.83097 29.8522 8.80701C29.972 8.9987 30.2596 9.5019 30.3794 9.74152C30.0919 9.8134 29.6126 9.93321 29.3251 9.90925Z" fill="#00493D" stroke="black" stroke-width="0.071885"/>
<path d="M28.4862 8.75903C28.606 8.7111 28.7737 8.61526 28.8936 8.51941C28.9894 8.59129 29.1811 8.75903 29.253 8.85487C29.253 9.07053 29.1811 9.69353 29.1571 9.90919C28.9654 9.90919 28.6539 9.86127 28.4862 9.76542C28.5102 9.406 28.5341 8.99865 28.4862 8.75903Z" fill="#00493D" stroke="black" stroke-width="0.071885"/>
<path d="M27.2881 9.04656C27.3121 8.99863 27.336 8.8309 27.336 8.75902C27.5277 8.63921 28.0069 8.5194 28.3664 8.71109C28.3903 8.95071 28.3664 9.54975 28.3424 9.69352C28.0309 9.45391 27.5277 9.11845 27.2881 9.04656Z" fill="#00493D" stroke="black" stroke-width="0.071885"/>
<path d="M26.0898 8.61527C26.0419 8.61527 26.0179 8.4715 25.9221 8.4715C25.8981 8.4715 25.8262 8.49546 25.8022 8.4715C25.8022 8.51942 25.8262 8.56734 25.8502 8.59131C25.8741 8.66319 25.9939 8.61527 26.0898 8.61527Z" fill="black"/>
<path d="M26.0895 9.02255C26.377 9.02255 26.4249 8.66312 26.5687 8.63916" stroke="black" stroke-width="0.071885"/>
<path d="M26.2576 9.04657C26.4732 9.14242 26.641 8.63922 26.8087 8.66318" stroke="black" stroke-width="0.071885"/>
<path d="M25.8267 8.42356C25.8985 8.42356 25.9465 8.32772 26.0663 8.44753C26.1142 8.49545 26.1861 8.51941 26.234 8.51941" stroke="black" stroke-width="0.071885"/>
<path d="M26.1852 8.78296C26.0894 8.92673 25.9217 9.02258 25.8258 8.97465" stroke="black" stroke-width="0.071885"/>
<path d="M25.7783 8.18396C25.7064 8.23188 25.6585 8.32773 25.6106 8.39962" stroke="black" stroke-width="0.071885"/>
<path d="M25.5386 8.54333V8.66314" stroke="black" stroke-width="0.071885"/>
<path d="M33.5424 11.6584V16.331C33.5424 20.3805 31.6255 21.7703 29.0616 22.8725C26.4977 21.7703 24.5568 20.3805 24.5568 16.331V11.6584H33.5424Z" fill="white"/>
<path d="M29.0616 15.6121C29.2772 15.6121 29.6127 15.4204 29.9002 15.1329C30.2117 14.7974 30.7389 14.6776 31.29 15.1329C31.8411 15.5882 32.1766 15.3965 32.4641 15.1329C32.7517 14.8693 32.9913 14.7735 33.5424 14.7735V11.6584H24.5568V14.7735C25.1079 14.7735 25.3475 14.8693 25.635 15.1329C25.9226 15.3965 26.2581 15.5882 26.8092 15.1329C27.3843 14.6776 27.8875 14.7974 28.2229 15.1329C28.4865 15.4204 28.8219 15.6121 29.0616 15.6121Z" fill="#C8102E"/>
<path d="M29.0619 18.0083C29.3495 18.0083 29.9246 17.6968 30.0683 17.6249C30.5955 17.3134 30.9789 17.6009 31.2904 17.7447C31.6258 17.8885 32.2489 18.0562 32.6322 17.7447C33.0156 17.4332 33.2313 17.4572 33.4949 17.4572C33.5428 17.0977 33.5428 16.7383 33.5428 16.3309V16.0434C33.2073 15.9715 33.0396 16.0674 32.6802 16.3789C32.3207 16.6904 31.9134 16.6185 31.3862 16.4268C30.883 16.2111 30.3798 15.8277 29.8766 16.4268C29.7329 16.5945 29.3974 16.8341 29.0619 16.8341C28.7025 16.8341 28.391 16.5945 28.2472 16.4268C27.7201 15.8277 27.2408 16.2111 26.7376 16.4268C26.2105 16.6185 25.7792 16.6904 25.4198 16.3789C25.0843 16.0674 24.9166 15.9715 24.5571 16.0434V16.3309C24.5571 16.7383 24.5811 17.0977 24.629 17.4572C24.8926 17.4572 25.0843 17.4332 25.4677 17.7447C25.8511 18.0562 26.498 17.8885 26.8095 17.7447C27.145 17.6009 27.5284 17.3134 28.0555 17.6249C28.1993 17.6968 28.7504 18.0083 29.0619 18.0083Z" fill="#0B50A0"/>
<path d="M29.062 19.0385C29.4215 19.0385 29.8528 18.8948 30.2362 18.6791C30.7154 18.4155 31.0509 18.5353 31.5301 18.775C32.0333 19.0146 32.4406 18.9427 32.7282 18.775C32.872 18.6791 32.9918 18.4874 33.3033 18.5593C33.1595 19.1583 32.9438 19.6855 32.6803 20.1168C32.201 20.2366 31.9374 20.2366 31.4343 20.021C30.9311 19.7814 30.308 19.6376 29.9726 19.8532C29.6611 20.0449 29.3256 20.1408 29.062 20.1408C28.7985 20.1408 28.463 20.0449 28.1515 19.8532C27.816 19.6376 27.193 19.7814 26.6898 20.021C26.1866 20.2366 25.923 20.2366 25.4438 20.1168C25.1802 19.6855 24.9646 19.1583 24.8208 18.5593C25.1323 18.4874 25.2521 18.6791 25.3959 18.775C25.6595 18.9427 26.0908 19.0146 26.57 18.775C27.0732 18.5353 27.4087 18.4155 27.8879 18.6791C28.2713 18.8948 28.7026 19.0385 29.062 19.0385Z" fill="#0B50A0"/>
<path d="M29.0619 22.8725C30.0204 22.4651 30.907 22.0099 31.6259 21.3869C31.4342 21.315 31.3144 21.3629 31.1466 21.2431C30.9789 21.1233 30.4757 21.0754 30.0444 21.315C29.5891 21.5306 29.3974 21.5786 29.062 21.5786C28.7265 21.5786 28.5348 21.5306 28.0795 21.315C27.6482 21.0754 27.145 21.1233 26.9773 21.2431C26.8096 21.3629 26.6897 21.315 26.498 21.3869C27.2169 22.0099 28.0795 22.4651 29.0619 22.8725Z" fill="#0B50A0"/>
<path d="M28.4385 12.8325C28.4625 12.8804 28.4145 13.0002 28.4385 13.0482C28.4864 13.144 28.4864 13.1919 28.5583 13.2399H28.7261C29.2532 13.2399 29.8762 13.0242 30.4034 13.0242C30.9066 13.0242 31.2181 13.1919 31.5056 13.1919C31.6733 13.1919 31.8171 13.0721 31.8171 12.9523C31.8171 12.8325 31.6254 12.7606 31.2181 12.7606C30.643 12.7606 30.3315 12.9044 29.8523 12.9044C29.1334 12.9044 29.0136 12.6408 29.0136 12.521C29.0136 12.4012 29.1334 12.2335 29.5168 12.2335C29.6366 12.2335 29.7325 12.2095 29.7804 12.1616C29.8043 12.1137 29.8762 12.0178 30.02 11.9459C30.1877 11.8501 30.5232 11.9459 30.6909 11.8261C30.6909 11.922 30.5472 12.0657 30.4273 12.1137C30.667 12.0418 30.9305 12.0418 30.9785 12.2335C30.8587 12.1616 30.667 12.2095 30.5951 12.2335C30.4992 12.2574 30.4513 12.2814 30.3555 12.3053C30.4513 12.2814 30.4992 12.4731 30.643 12.4731C30.4992 12.5929 30.2596 12.5929 30.02 12.497C29.9481 12.4731 29.7564 12.4012 29.6366 12.4012C29.397 12.4012 29.2532 12.4491 29.2532 12.545C29.2532 12.6648 29.397 12.7367 29.8283 12.7367C30.2596 12.7367 30.4992 12.6168 31.1462 12.6168C31.0983 12.545 31.1702 12.4731 31.0743 12.4012C31.3139 12.4012 31.5775 12.4731 31.6734 12.6408C31.6494 12.4731 31.7932 12.3293 31.7452 12.1855C31.889 12.2095 32.0088 12.3533 32.0328 12.4731C32.0328 12.4012 32.1286 12.4012 32.1286 12.3293C32.2724 12.4012 32.3443 12.5689 32.3203 12.7127C32.3922 12.5929 32.4641 12.6408 32.512 12.497C32.5599 12.5929 32.536 12.8804 32.3682 12.9763C32.512 12.8804 32.7277 12.8804 32.8714 13.0482C32.7277 13.0242 32.6558 13.0961 32.5839 13.12C32.2964 13.2878 31.8171 13.3836 31.4577 13.3597C31.0743 13.3357 31.0264 13.2638 30.7868 13.2638C30.9305 13.2878 31.2181 13.5753 31.4817 13.5753C31.6494 13.5753 31.7692 13.5753 31.8411 13.5514C31.913 13.5274 32.0328 13.5514 32.1286 13.5993C32.2005 13.6712 32.3443 13.7431 32.4401 13.7191C32.4162 13.8149 32.3682 13.8629 32.2964 13.8868C32.4162 13.9587 32.3443 14.0066 32.4641 14.1025C32.4162 14.1025 32.3682 14.1504 32.2964 14.1264C32.3682 14.1983 32.3682 14.2942 32.4401 14.3421C32.4162 14.3421 32.3443 14.3661 32.2964 14.3421C32.3682 14.4379 32.2964 14.5578 32.3682 14.6057C32.4401 14.7015 32.2964 14.8213 32.1765 14.7255C32.2005 14.7974 32.1286 14.8693 32.0567 14.8453C31.9849 14.8213 31.9369 14.7494 31.9609 14.7255C31.9609 14.7015 31.9609 14.7015 31.9849 14.6776C31.9369 14.7494 31.8411 14.7494 31.7932 14.7255C31.7692 14.7015 31.7452 14.6776 31.7452 14.6536C31.5775 14.7015 31.5056 14.5578 31.5296 14.4859C31.5535 14.414 31.6973 14.39 31.7452 14.414C31.7932 14.4379 31.8411 14.4619 31.889 14.414C31.9369 14.39 31.9609 14.3421 31.9609 14.2942C31.9609 14.2223 31.889 14.0066 31.5775 14.0306C31.2181 14.0546 30.643 13.9587 30.3555 13.8629C30.3315 13.8389 30.3075 13.8389 30.2836 13.8149C30.2836 13.9108 30.1877 13.9587 30.1877 14.0546C30.1877 14.1744 30.2356 14.2702 30.3794 14.3181C30.3075 14.4379 30.1877 14.414 30.1398 14.3421C30.1398 14.414 30.044 14.4619 30.044 14.5578C30.02 14.5098 29.996 14.4859 29.9721 14.4379C29.9002 14.6057 29.7085 14.7015 29.6126 14.6536C29.4928 14.7494 29.3491 14.7255 29.3011 14.6296C29.2292 14.6776 29.1334 14.6776 29.0855 14.6296C29.0855 14.7015 29.0376 14.6776 29.0136 14.7734C29.0136 14.8213 28.9177 14.8453 28.8698 14.8213C28.8219 14.7974 28.7979 14.7015 28.8459 14.6536C28.774 14.7015 28.7021 14.7015 28.6542 14.6536C28.6542 14.6057 28.6542 14.5338 28.7021 14.5098H28.75C28.7021 14.4859 28.6302 14.5098 28.5823 14.4859C28.5344 14.4379 28.5344 14.39 28.5583 14.3421C28.5823 14.3181 28.6542 14.2702 28.7021 14.3181L28.7261 14.3421C28.7261 14.2942 28.75 14.2462 28.774 14.2462C28.8219 14.2223 28.8938 14.2223 28.9657 14.2942C29.0136 14.3661 29.0615 14.3661 29.2053 14.3421C29.3251 14.3421 29.5168 14.2223 29.6606 14.1025C29.2532 14.0306 29.4928 13.767 29.6126 13.6712C29.5168 13.6472 29.373 13.6472 29.2772 13.6951C28.774 13.9587 28.2468 14.2702 27.9114 14.1744C27.9114 14.2223 27.9353 14.2702 27.9593 14.3181C27.8874 14.3181 27.7436 14.3181 27.6957 14.2462C27.6717 14.2942 27.6238 14.414 27.6717 14.5098C27.6238 14.4619 27.48 14.414 27.4082 14.39C27.4561 14.4379 27.4082 14.5338 27.4321 14.6057C27.3602 14.5338 27.2404 14.4859 27.1925 14.5338C27.1446 14.5817 27.0487 14.6057 26.9768 14.5817C26.9289 14.6536 26.857 14.7015 26.7851 14.7255C26.7851 14.6776 26.7852 14.6057 26.7612 14.5817C26.7372 14.6536 26.6653 14.7494 26.5695 14.7974C26.5695 14.7494 26.5695 14.6776 26.5455 14.6296C26.5455 14.7255 26.3538 14.7734 26.3299 14.8453C26.3538 14.7734 26.3538 14.7015 26.3538 14.6536C26.3059 14.7255 26.234 14.7974 26.1142 14.8213C26.1382 14.7734 26.1621 14.7255 26.1382 14.6776C26.1142 14.7734 25.9705 14.8213 25.8506 14.7974C25.8506 14.8453 25.7548 14.9172 25.635 14.8453C25.5631 14.8213 25.5152 14.7494 25.5631 14.7015C25.4673 14.7015 25.3714 14.6057 25.4193 14.5338C25.4193 14.5098 25.4433 14.4859 25.4433 14.4619C25.3714 14.414 25.3474 14.3181 25.4193 14.2462C25.4433 14.2223 25.5152 14.2223 25.5631 14.2223C25.5631 14.0306 25.7308 14.0306 25.8027 14.1744C25.8506 14.2462 25.9944 14.3661 26.1142 14.3421C26.1621 14.3421 26.1861 14.3181 26.234 14.3181C26.3778 14.2702 26.6653 14.1504 26.8331 14.0066C26.857 13.9347 26.857 13.8868 26.857 13.8389C26.7612 13.8868 26.6653 13.9347 26.6174 14.0066V13.9347C26.5455 13.9347 26.4257 13.9108 26.3778 13.9108C26.4018 13.8868 26.4257 13.767 26.4736 13.7431C26.3538 13.767 26.234 13.7431 26.1382 13.7191C26.1861 13.6712 26.1861 13.5993 26.2101 13.5274C26.1621 13.5514 26.0423 13.5034 25.9465 13.5274C25.9705 13.4555 25.9944 13.3597 26.0663 13.3357C25.9705 13.3597 25.8506 13.3357 25.7308 13.2878C25.8267 13.2878 25.8746 13.168 25.9465 13.168C25.7548 13.168 25.7069 13.0721 25.611 13.0242C25.6829 13.0482 25.7308 12.9763 25.8027 12.9763C25.7308 12.9523 25.611 12.8325 25.6589 12.7606C25.635 12.7846 25.611 12.8325 25.5631 12.8565C25.5152 12.8804 25.4193 12.8565 25.3474 12.7846C25.2995 12.6887 25.3235 12.5689 25.4193 12.545C25.2995 12.521 25.2995 12.4012 25.3474 12.3533C25.3714 12.3053 25.4673 12.2335 25.5152 12.3053C25.5391 12.3293 25.5631 12.3772 25.5871 12.4012C25.5631 12.3533 25.5631 12.2574 25.5631 12.1855C25.5871 12.1137 25.635 12.1137 25.7069 12.0897C25.7788 12.0897 25.8267 12.1616 25.8267 12.2335C25.8267 12.3053 25.8506 12.3533 25.8746 12.4491C25.8746 12.4252 25.8986 12.3772 25.8986 12.3533C25.8986 12.2574 26.0184 12.2814 26.0903 12.3053C26.1621 12.3293 26.1861 12.4731 26.0903 12.545C26.0423 12.5929 26.0663 12.6648 26.1142 12.7127C26.282 12.9763 26.5695 13.1919 26.8091 13.2159C26.8091 13.12 26.857 13.0242 26.9289 12.9523C26.9289 12.9044 26.9529 12.8325 26.9768 12.7846C27.0008 12.6408 27.0727 12.5689 27.1685 12.6168C27.1446 12.5929 27.1206 12.5689 27.1206 12.545C27.0487 12.4731 26.9768 12.3533 27.0248 12.2574C27.0727 12.1616 27.2165 12.1855 27.2644 12.2335C27.2404 12.0897 27.4082 11.9699 27.4082 11.898C27.4321 11.9699 27.48 12.0657 27.4561 12.1376C27.48 12.0418 27.6478 11.922 27.7676 11.874C27.7197 11.9459 27.8634 12.0657 27.8395 12.1376C27.8874 12.0178 28.0791 11.9459 28.2229 11.9459C28.1749 11.9938 28.1749 12.0897 28.1749 12.1376C28.2468 12.1376 28.3666 12.1137 28.4146 12.0418C28.4146 12.1376 28.3666 12.2335 28.3187 12.2814C28.3427 12.2574 28.4385 12.2574 28.5104 12.2574C28.4385 12.3293 28.4625 12.4012 28.3906 12.4491C28.4864 12.4012 28.6062 12.4012 28.6302 12.497C28.6781 12.5689 28.6062 12.6887 28.5583 12.7606C28.5104 12.7846 28.4625 12.8325 28.4385 12.8325Z" fill="#F9D050" stroke="black" stroke-width="0.071885"/>
<path d="M26.9529 13.1201C26.7851 13.1919 26.7372 13.3597 26.7133 13.4555" stroke="black" stroke-width="0.071885"/>
<path d="M26.9294 13.2878C26.6898 13.4316 26.5939 13.5514 26.6419 13.815" stroke="black" stroke-width="0.071885"/>
<path d="M27.049 14.0067C27.1927 13.9588 27.2886 13.9108 27.4084 13.6952" stroke="black" stroke-width="0.071885"/>
<path d="M27.3365 13.791C27.2886 13.8869 27.3365 14.0546 27.2646 14.1265C27.3845 14.0546 27.4803 13.9587 27.5043 13.791" stroke="black" stroke-width="0.071885"/>
<path d="M27.3838 14.0546C27.4796 14.0067 27.6234 13.8629 27.6953 13.6952C27.6713 13.767 27.6953 13.8869 27.6474 13.9587C27.7672 13.8389 27.8151 13.767 27.8391 13.6472C27.8391 13.6712 27.863 13.7191 27.863 13.7431C27.9109 13.6952 27.9589 13.6472 27.9589 13.5514" stroke="black" stroke-width="0.071885"/>
<path d="M27.959 13.6233V13.7431C28.0548 13.6712 28.0788 13.5754 28.0788 13.4556" stroke="black" stroke-width="0.071885"/>
<path d="M28.0557 13.5993C28.1994 13.5035 28.2234 13.3597 28.2234 13.144" stroke="black" stroke-width="0.071885"/>
<path d="M28.2227 13.3837C28.3185 13.3118 28.3425 13.2639 28.3425 13.0482" stroke="black" stroke-width="0.071885"/>
<path d="M28.0315 12.4012C27.9836 12.4012 27.9357 12.4251 27.9357 12.497C27.9357 12.5449 27.8638 12.6168 27.8638 12.6887C27.8398 12.7846 27.7919 12.8085 27.72 12.7846C27.6481 12.7366 27.6481 12.7366 27.6481 12.6647C27.6481 12.5689 27.7679 12.5449 27.7679 12.4491C27.7919 12.4012 27.8159 12.3293 27.8398 12.3293C27.72 12.4012 27.5523 12.3532 27.5283 12.2095" stroke="black" stroke-width="0.071885"/>
<path d="M28.2465 12.4731C28.1986 12.4971 28.1507 12.4252 28.0788 12.4492C28.0548 12.4492 27.9829 12.4731 27.959 12.4492" stroke="black" stroke-width="0.071885"/>
<path d="M27.9111 12.5929C27.9351 12.6168 28.0549 12.6648 28.1747 12.6168C28.0789 12.6408 28.007 12.521 28.1028 12.4491" stroke="black" stroke-width="0.071885"/>
<path d="M27.6963 12.3533C27.6004 12.3533 27.5285 12.4252 27.5525 12.497C27.5765 12.5689 27.6723 12.5689 27.7442 12.521" stroke="black" stroke-width="0.071885"/>
<path d="M27.5283 13.5515C27.5523 13.5275 27.5762 13.4796 27.5762 13.4556C27.6242 13.4556 27.6721 13.4317 27.6961 13.4077C27.7919 13.4077 27.8638 13.3358 27.8877 13.2639C27.9357 13.2639 27.9596 13.1441 27.9836 13.0962C28.0076 13.1202 28.0555 13.0962 28.0794 13.0004C28.1274 13.0243 28.1992 13.0004 28.2232 12.9285" stroke="black" stroke-width="0.071885"/>
<path d="M27.2405 12.7606C27.2405 12.7846 27.1926 12.8325 27.1446 12.8565C27.1686 12.9044 27.1446 13.0242 27.0967 13.0482C27.1207 13.0961 27.0967 13.168 27.0728 13.2159C27.0728 13.2399 27.0967 13.3117 27.0967 13.3357" stroke="black" stroke-width="0.071885"/>
<path d="M27.3366 12.2814C27.2887 12.4012 27.3126 12.545 27.4085 12.569" stroke="black" stroke-width="0.071885"/>
<path d="M27.3848 12.6648C27.3608 12.7846 27.3608 12.9523 27.3369 13.0242C27.3129 13.0721 27.265 13.2399 27.4567 13.2878C27.6723 13.3357 27.7921 13.3118 27.912 12.9523" stroke="black" stroke-width="0.071885"/>
<path d="M28.2707 13.8868C28.2707 13.9108 28.2468 13.9587 28.1989 13.9587" stroke="black" stroke-width="0.071885"/>
<path d="M28.4386 13.8389C28.4386 13.8869 28.3907 13.9587 28.3667 13.9827" stroke="black" stroke-width="0.071885"/>
<path d="M28.6065 13.791C28.6065 13.8389 28.6065 13.9108 28.5586 13.9348" stroke="black" stroke-width="0.071885"/>
<path d="M27.1446 12.3053C27.1685 12.3053 27.1925 12.3532 27.2165 12.4011C27.1446 12.3532 27.0727 12.473 27.1206 12.5449" stroke="black" stroke-width="0.071885"/>
<path d="M27.0728 12.7128C27.0488 12.7367 27.0009 12.7607 26.9769 12.7847" stroke="black" stroke-width="0.071885"/>
<path d="M27.0012 12.9283C26.9772 12.9283 26.9533 12.9523 26.9293 12.9523" stroke="black" stroke-width="0.071885"/>
<path d="M25.8506 12.497C25.8506 12.4731 25.8506 12.4731 25.8745 12.4491" stroke="black" stroke-width="0.071885"/>
<path d="M25.6348 12.4251C25.6109 12.4251 25.6109 12.4251 25.5869 12.4011" stroke="black" stroke-width="0.071885"/>
<path d="M25.6592 12.7606H25.7071" stroke="black" stroke-width="0.071885"/>
<path d="M25.5631 12.6169C25.5152 12.5689 25.4433 12.545 25.4193 12.545" stroke="black" stroke-width="0.071885"/>
<path d="M26.8808 13.5034C26.713 13.6472 26.6411 13.767 26.6172 13.9347" stroke="black" stroke-width="0.071885"/>
<path d="M27.049 13.6232C27.0011 13.7191 26.9292 13.791 26.8573 13.8389" stroke="black" stroke-width="0.071885"/>
<path d="M26.1145 14.3421C25.9228 14.39 25.779 14.3661 25.6352 14.2702C25.6113 14.2463 25.5873 14.2463 25.5634 14.2223" stroke="black" stroke-width="0.071885"/>
<path d="M26.8332 14.0067C26.8092 14.1025 26.7852 14.2223 26.7373 14.2463C26.929 14.1504 27.0967 14.0067 27.1207 13.791" stroke="black" stroke-width="0.071885"/>
<path d="M25.4434 14.4619C25.5152 14.438 25.5871 14.4859 25.6351 14.438" stroke="black" stroke-width="0.071885"/>
<path d="M29.6124 13.6712C29.6604 13.6952 29.7322 13.7192 29.7562 13.7431C29.7802 13.6952 29.876 13.6233 29.9479 13.5994" stroke="black" stroke-width="0.071885"/>
<path d="M27.9112 14.1745C27.8872 14.0786 27.9351 13.9588 28.0789 13.9109" stroke="black" stroke-width="0.071885"/>
<path d="M26.9769 14.5817C27.0009 14.5338 27.0009 14.4619 27.0249 14.414" stroke="black" stroke-width="0.071885"/>
<path d="M25.9225 14.6536C25.8985 14.7015 25.8506 14.7494 25.8506 14.7973" stroke="black" stroke-width="0.071885"/>
<path d="M25.5634 14.7015C25.5634 14.7015 25.5634 14.6775 25.5873 14.6775C25.6352 14.6536 25.7071 14.6057 25.7311 14.5577" stroke="black" stroke-width="0.071885"/>
<path d="M28.822 14.3661C28.7741 14.3901 28.7502 14.3661 28.7262 14.3422" stroke="black" stroke-width="0.071885"/>
<path d="M28.7979 14.4859C28.7979 14.4859 28.774 14.5099 28.75 14.5099" stroke="black" stroke-width="0.071885"/>
<path d="M28.9177 14.6057C28.8937 14.6296 28.8698 14.6536 28.8458 14.6536" stroke="black" stroke-width="0.071885"/>
<path d="M29.6124 14.6536C29.6604 14.6297 29.6843 14.5817 29.7083 14.4859" stroke="black" stroke-width="0.071885"/>
<path d="M29.3011 14.6297C29.373 14.6057 29.421 14.5578 29.4928 14.4859" stroke="black" stroke-width="0.071885"/>
<path d="M29.9717 14.438C29.9717 14.39 29.9717 14.3421 29.9956 14.2942" stroke="black" stroke-width="0.071885"/>
<path d="M30.2842 13.815C29.9008 13.6473 29.9248 13.4316 29.6133 13.4556" stroke="black" stroke-width="0.071885"/>
<path d="M28.3429 13.1201C28.3429 13.168 28.4148 13.2638 28.6065 13.2638C28.5825 13.2638 28.5586 13.2399 28.5586 13.2399" stroke="black" stroke-width="0.071885"/>
<path d="M28.4386 12.8325C28.4146 12.8565 28.3907 12.8325 28.3907 12.8325C28.3427 12.7846 28.4146 12.6887 28.4865 12.6408C28.4146 12.6648 28.3667 12.6648 28.3188 12.6648C28.2709 12.8085 28.1271 12.8804 28.0312 12.7846C28.0073 12.8804 27.8875 13.0002 27.7916 12.9763C27.6958 12.9284 27.6718 12.8565 27.6958 12.7846C27.576 12.9284 27.4322 12.8325 27.3843 12.7846C27.3603 12.7367 27.3843 12.6169 27.4322 12.4731" stroke="black" stroke-width="0.071885"/>
<path d="M29.9722 13.7431C29.9003 13.791 29.8284 13.7431 29.7565 13.815C29.7086 13.8629 29.7805 13.8869 29.8284 13.8869C29.8044 13.9588 29.8044 13.9827 29.9243 13.9827C29.8763 14.0546 30.0201 14.0786 29.9961 14.1744C30.068 14.1025 30.068 14.0067 30.0441 13.9348C30.0201 13.8629 29.9003 13.815 29.9722 13.7431Z" fill="black"/>
<path d="M27.7917 12.9763C27.6958 12.9284 27.6719 12.8565 27.6958 12.7846C27.6719 12.8325 27.624 12.8565 27.576 12.8565C27.4802 13.0721 27.3604 13.2638 27.2166 13.2638C27.0489 13.2878 27.0728 13.4555 27.1926 13.4555C27.4562 13.5035 27.576 13.4076 27.7917 12.9763Z" fill="#073163"/>
<path d="M25.4198 12.4012C25.4917 12.3294 25.4437 12.2575 25.3958 12.2335C25.3239 12.2095 25.1802 12.2335 25.1083 12.3533C25.1802 12.3294 25.252 12.3294 25.276 12.3773C25.3 12.4252 25.3479 12.4731 25.4198 12.4012Z" fill="#073163"/>
<path d="M25.5392 11.97C25.7069 11.97 25.7548 11.9939 25.7788 12.0658C25.8028 12.1137 25.7548 12.1856 25.7069 12.1856C25.635 12.1856 25.5631 12.1377 25.5871 12.1137C25.6111 12.0658 25.6111 11.9939 25.5392 11.97Z" fill="#073163"/>
<path d="M26.0185 12.3533C26.1383 12.3772 26.1862 12.3053 26.1143 12.2095C26.0904 12.1376 26.0185 12.0897 25.8987 12.1137C26.0185 12.1855 25.8987 12.3053 26.0185 12.3533Z" fill="#073163"/>
<path d="M25.1321 12.7606C25.204 12.8804 25.3238 12.8804 25.3717 12.8565C25.4436 12.8325 25.4675 12.7606 25.4436 12.7127C25.3957 12.6408 25.3238 12.6168 25.2998 12.7127C25.2519 12.8085 25.18 12.7846 25.1321 12.7606Z" fill="#073163"/>
<path d="M25.4914 14.2223C25.4435 14.1264 25.2997 14.1264 25.1799 14.2223C25.2279 14.1983 25.3237 14.2223 25.3477 14.2702C25.3716 14.3181 25.4195 14.3181 25.4435 14.3181C25.4675 14.2942 25.5154 14.2702 25.4914 14.2223Z" fill="#073163"/>
<path d="M25.6831 14.0785C25.6831 13.9587 25.5154 13.9348 25.4196 13.9827C25.4675 13.9827 25.5394 14.0306 25.5394 14.0785C25.5633 14.1264 25.6112 14.1504 25.6352 14.1504C25.6831 14.1264 25.7071 14.1025 25.6831 14.0785Z" fill="#073163"/>
<path d="M25.4436 14.5099C25.2998 14.4859 25.2279 14.6536 25.2279 14.7735C25.2519 14.7016 25.3238 14.6536 25.3956 14.6776C25.4675 14.6776 25.4915 14.6536 25.4915 14.6057C25.5154 14.5578 25.4915 14.5338 25.4436 14.5099Z" fill="#073163"/>
<path d="M25.468 14.9172C25.5159 14.9411 25.5639 14.8932 25.5878 14.8213C25.5878 14.7734 25.6837 14.7734 25.7076 14.7974C25.7556 14.8213 25.7556 14.9172 25.6837 14.9651C25.6357 14.989 25.5159 15.013 25.468 14.9172Z" fill="#073163"/>
<path d="M28.7984 14.1984C28.7504 14.1744 28.6306 14.1265 28.5348 14.1984C28.6067 14.1744 28.6546 14.2223 28.6786 14.2703C28.6786 14.3182 28.7504 14.3421 28.7744 14.2942C28.7984 14.2703 28.8223 14.2223 28.7984 14.1984Z" fill="#073163"/>
<path d="M28.5828 14.3661C28.4869 14.3182 28.3671 14.438 28.3431 14.5339C28.3671 14.5099 28.4629 14.462 28.5109 14.462C28.5588 14.4859 28.6067 14.462 28.6067 14.4141C28.6307 14.3901 28.6307 14.3661 28.5828 14.3661Z" fill="#073163"/>
<path d="M28.7025 14.5577C28.6306 14.5577 28.5348 14.6536 28.5348 14.7494C28.5588 14.7015 28.6067 14.6775 28.6546 14.7015C28.7025 14.7015 28.7744 14.6775 28.7744 14.6296C28.7744 14.5817 28.7504 14.5577 28.7025 14.5577Z" fill="#073163"/>
<path d="M28.9184 14.7495C28.8705 14.7255 28.7986 14.7495 28.7986 14.8213C28.7986 14.8932 28.7986 14.9651 28.7747 14.9891C28.8226 14.9412 28.8705 14.9172 28.9184 14.8932C28.9424 14.8693 28.9664 14.7974 28.9184 14.7495Z" fill="#073163"/>
<path d="M25.611 19.1824L26.8091 15.4923L28.0072 19.1824L24.8682 16.9061H28.75L25.611 19.1824Z" fill="#F9D050"/>
<path d="M25.851 18.847L28.343 17.0259H25.2759L27.7439 18.847L26.8094 15.9236L25.851 18.847Z" fill="#024919"/>
<path d="M30.116 19.1824L31.3141 15.4923L32.5122 19.1824L29.3732 16.9061H33.255L30.116 19.1824Z" fill="#F9D050"/>
<path d="M30.3555 18.847L32.8475 17.0259H29.7804L32.2485 18.847L31.3139 15.9236L30.3555 18.847Z" fill="#024919"/>
<path d="M27.8638 21.7942L29.0619 18.1041L30.26 21.7942L27.121 19.5179H31.0028L27.8638 21.7942Z" fill="#F9D050"/>
<path d="M28.1033 21.4589L30.5953 19.6378H27.5282L29.9963 21.4589L29.0617 18.5355L28.1033 21.4589Z" fill="#024919"/>
<path d="M33.5424 11.6584V16.331C33.5424 20.3805 31.6255 21.7703 29.0616 22.8725C26.4977 21.7703 24.5568 20.3805 24.5568 16.331V11.6584H33.5424Z" stroke="black" stroke-width="0.071885"/>
<path d="M23.2155 20.4722L23.0297 20.5707C22.9901 20.5917 22.9726 20.586 22.9394 20.539L22.9192 20.5497L23.0437 20.7844L23.0638 20.7737C23.0448 20.7202 23.0494 20.7036 23.089 20.6826L23.48 20.4752C23.5204 20.4538 23.5406 20.4607 23.5695 20.5055L23.5897 20.4948L23.4652 20.2601L23.4451 20.2708C23.4666 20.3213 23.461 20.3419 23.4206 20.3634L23.2534 20.452L23.1652 20.2857L23.3324 20.197C23.3728 20.1756 23.393 20.1825 23.4227 20.2287L23.4429 20.218L23.3195 19.9854L23.2993 19.9961C23.319 20.0449 23.3135 20.0637 23.2731 20.0852L22.8821 20.2925C22.8425 20.3135 22.8265 20.3088 22.7936 20.2643L22.7734 20.275L22.8968 20.5076L22.917 20.4969C22.8968 20.4431 22.9018 20.4254 22.9414 20.4044L23.1272 20.3058L23.2155 20.4722Z" fill="#00493D"/>
<path d="M23.2716 21.1011C23.244 21.0593 23.2458 21.0404 23.2786 21.0187L23.4632 20.8967C23.5101 20.9678 23.498 21.0142 23.4147 21.0805L23.4259 21.0974L23.6838 20.9271L23.6726 20.9101C23.5807 20.9568 23.5361 20.9507 23.4908 20.8822L23.4891 20.8796L23.6661 20.7627C23.6951 20.7435 23.7076 20.7474 23.73 20.7813C23.8002 20.8876 23.7954 20.9367 23.7047 21.02L23.7154 21.0363L23.8688 20.935L23.6202 20.5588L23.6012 20.5714C23.6278 20.6184 23.6238 20.6389 23.5849 20.6646L23.2156 20.9086C23.176 20.9348 23.1615 20.9312 23.1236 20.887L23.1045 20.8996L23.3565 21.281L23.5324 21.2022L23.5203 21.184C23.4211 21.2046 23.3397 21.2041 23.2716 21.1011Z" fill="#00493D"/>
<path d="M24.0759 21.6952L23.9205 21.8369C23.8874 21.8671 23.869 21.8659 23.8252 21.8287L23.8083 21.8442L23.9874 22.0404L24.0042 22.025C23.9724 21.9779 23.9728 21.9606 24.0059 21.9304L24.3328 21.6321C24.3665 21.6013 24.3879 21.603 24.4271 21.6391L24.444 21.6237L24.2649 21.4275L24.248 21.4429C24.2815 21.4864 24.2812 21.5078 24.2474 21.5386L24.1076 21.6662L23.9807 21.5271L24.1205 21.3995C24.1543 21.3687 24.1756 21.3704 24.2159 21.4077L24.2327 21.3923L24.0552 21.1978L24.0383 21.2132C24.0696 21.2555 24.0689 21.2752 24.0352 21.306L23.7082 21.6043C23.6752 21.6345 23.6585 21.6339 23.6155 21.599L23.5986 21.6144L23.7761 21.8089L23.793 21.7935C23.76 21.7465 23.7605 21.728 23.7936 21.6978L23.9489 21.5561L24.0759 21.6952Z" fill="#00493D"/>
<path d="M24.4443 22.4408L24.442 22.4387C24.4199 22.4177 24.424 22.3952 24.4699 22.29L24.6744 21.8211L24.6585 21.806L24.1879 22.0503C24.1078 22.0916 24.0916 22.0951 24.0587 22.0752L24.043 22.0918L24.1581 22.201L24.1738 22.1844C24.1429 22.15 24.1367 22.1303 24.1531 22.1131C24.1613 22.1045 24.1815 22.0922 24.2274 22.0676L24.2605 22.0498L24.3881 22.1708C24.3583 22.2408 24.3424 22.2712 24.3286 22.2858C24.3154 22.2997 24.3017 22.2993 24.2806 22.2819C24.2778 22.2792 24.2698 22.2728 24.2606 22.2666L24.2448 22.2832L24.4285 22.4574L24.4443 22.4408ZM24.2935 22.032L24.4997 21.9213L24.4041 22.1368L24.2935 22.032Z" fill="#00493D"/>
<path d="M24.6139 22.4598C24.5708 22.512 24.5578 22.5143 24.5019 22.4764L24.4873 22.494L24.7024 22.6717L24.7169 22.6541C24.668 22.6065 24.6672 22.594 24.7115 22.5404L25.0184 22.1689C25.0901 22.2329 25.0947 22.2912 25.0356 22.3836L25.0531 22.398L25.1689 22.2553L24.8075 21.9567L24.6886 22.0969L24.7061 22.1114C24.7856 22.0359 24.8437 22.0294 24.9208 22.0883L24.6139 22.4598Z" fill="#00493D"/>
<path d="M25.3108 22.7672L25.1889 22.9386C25.163 22.9751 25.1447 22.9779 25.094 22.9508L25.0807 22.9694L25.2973 23.1233L25.3105 23.1047C25.2694 23.0654 25.2661 23.0485 25.2921 23.0119L25.5485 22.6512C25.575 22.614 25.5962 22.6111 25.6422 22.6381L25.6554 22.6195L25.4389 22.4656L25.4256 22.4842C25.4676 22.5196 25.4718 22.5406 25.4454 22.5779L25.3357 22.7322L25.1822 22.6231L25.2919 22.4688C25.3184 22.4315 25.3396 22.4286 25.3868 22.4566L25.4 22.438L25.1854 22.2854L25.1722 22.304C25.2117 22.3388 25.2152 22.3582 25.1887 22.3954L24.9323 22.7562C24.9063 22.7927 24.8899 22.7956 24.8405 22.7706L24.8273 22.7892L25.0419 22.9418L25.0551 22.9232C25.0129 22.8841 25.0095 22.866 25.0354 22.8295L25.1573 22.6581L25.3108 22.7672Z" fill="#00493D"/>
<path d="M26.1859 23.1179L26.2025 23.1268L26.2888 22.9645L25.8977 22.7563L25.887 22.7765C25.9329 22.8051 25.9395 22.8242 25.9172 22.8661L25.7092 23.2568C25.6869 23.2988 25.6725 23.3026 25.618 23.2818L25.6073 23.302L25.8556 23.4342L25.8664 23.414C25.8046 23.377 25.7974 23.3607 25.821 23.3163L25.9211 23.1282C25.9906 23.1673 26.0002 23.2107 25.96 23.3095L25.9773 23.3187L26.1225 23.0459L26.1052 23.0367C26.0439 23.1221 26.0047 23.1375 25.9357 23.1008L26.0354 22.9135C26.0513 22.8836 26.0645 22.8803 26.0997 22.8991C26.2342 22.9707 26.2112 23.0371 26.1859 23.1179Z" fill="#00493D"/>
<path d="M26.5328 23.0534C26.381 22.9931 26.2229 23.0759 26.1526 23.2527C26.0827 23.4286 26.1399 23.5959 26.2902 23.6556C26.4405 23.7153 26.5972 23.632 26.6671 23.4561C26.736 23.2827 26.6788 23.1114 26.5328 23.0534ZM26.5209 23.0812C26.6008 23.1129 26.6064 23.2342 26.5362 23.411C26.467 23.5852 26.3848 23.6608 26.3013 23.6276C26.2178 23.5944 26.2099 23.483 26.2781 23.3114C26.3511 23.1278 26.436 23.0474 26.5209 23.0812Z" fill="#00493D"/>
<path d="M26.9796 23.2813L26.9875 23.2599L26.7395 23.1691L26.7316 23.1905C26.7808 23.2154 26.7855 23.2297 26.7629 23.2916L26.6579 23.5784C26.627 23.6625 26.627 23.7102 26.658 23.7644C26.6822 23.8073 26.7235 23.84 26.7771 23.8596C26.9187 23.9115 27.0022 23.831 27.05 23.7005L27.1503 23.4266C27.1689 23.3759 27.1842 23.3659 27.2343 23.3746L27.2421 23.3531L27.0807 23.294L27.0728 23.3155C27.1282 23.3416 27.1366 23.3641 27.1136 23.4268L27.0177 23.6887C26.9712 23.8158 26.9084 23.86 26.8211 23.828C26.7463 23.8006 26.7318 23.7379 26.7745 23.6211L26.8795 23.3343C26.9044 23.2664 26.9222 23.2632 26.9796 23.2813Z" fill="#00493D"/>
<path d="M27.4098 23.3956L27.25 23.355L27.2444 23.3771C27.2595 23.381 27.269 23.3976 27.2925 23.4573L27.1857 23.8774C27.1728 23.9279 27.1583 23.9374 27.101 23.9313L27.0953 23.9535L27.2672 23.9972L27.2729 23.975C27.2166 23.9522 27.2072 23.9319 27.2233 23.869L27.3139 23.5128L27.5297 24.081L27.5509 24.0864L27.6837 23.5644C27.6966 23.5139 27.7094 23.5049 27.7608 23.5085L27.7665 23.4864L27.6037 23.4449L27.598 23.4671C27.6525 23.4876 27.6621 23.5098 27.6461 23.5728L27.5774 23.843L27.4098 23.3956Z" fill="#00493D"/>
<path d="M27.7395 24.0356C27.7325 24.0752 27.7101 24.0898 27.6651 24.0837L27.6611 24.1062L27.9043 24.1493C28.0704 24.1788 28.2033 24.0742 28.2363 23.8878C28.2692 23.7023 28.1815 23.5707 28.0037 23.5392L27.7691 23.4976L27.7651 23.5201C27.8134 23.5342 27.8256 23.5503 27.8182 23.5917L27.7395 24.0356ZM28.1001 23.8776C28.063 24.0865 27.9799 24.1302 27.8998 24.116C27.8652 24.1099 27.8573 24.0964 27.8645 24.0559L27.9465 23.5931C27.9502 23.5724 27.9675 23.5643 27.9975 23.5696C28.0668 23.5819 28.1393 23.6561 28.1001 23.8776Z" fill="#00493D"/>
<path d="M28.4446 24.1846C28.3948 24.1806 28.3809 24.1676 28.3841 24.1284L28.4018 23.9078C28.4867 23.9146 28.5158 23.9527 28.5166 24.0592L28.5369 24.0609L28.5616 23.7528L28.5414 23.7511C28.5215 23.8523 28.4892 23.8836 28.4074 23.8771L28.4043 23.8768L28.4213 23.6653C28.4241 23.6307 28.4349 23.6233 28.4754 23.6266C28.6023 23.6368 28.638 23.6708 28.6477 23.7936L28.6672 23.7952L28.6819 23.612L28.2325 23.5759L28.2307 23.5987C28.2841 23.6066 28.2978 23.6224 28.294 23.6689L28.2586 24.11C28.2547 24.1574 28.243 24.1666 28.1848 24.1692L28.183 24.192L28.6386 24.2286L28.685 24.0416L28.6632 24.0398C28.6183 24.1307 28.5677 24.1945 28.4446 24.1846Z" fill="#00493D"/>
<path d="M28.7482 24.1627C28.7462 24.2029 28.7257 24.2201 28.6804 24.2196L28.6792 24.2425L28.9258 24.2551C29.0944 24.2637 29.2132 24.1434 29.2228 23.9544C29.2325 23.7662 29.129 23.6465 28.9488 23.6373L28.7107 23.6251L28.7096 23.648C28.7592 23.656 28.7734 23.6704 28.7712 23.7124L28.7482 24.1627ZM29.0863 23.9611C29.0755 24.173 28.9984 24.2267 28.9173 24.2226C28.8822 24.2208 28.8726 24.2084 28.8747 24.1673L28.8987 23.6979C28.8998 23.6769 28.916 23.6667 28.9464 23.6683C29.0166 23.6719 29.0978 23.7365 29.0863 23.9611Z" fill="#00493D"/>
<path d="M29.6528 24.1573C29.6584 24.2027 29.6461 24.2172 29.5887 24.2308L29.5916 24.2535L29.8629 24.2195L29.8601 24.1968C29.8006 24.1997 29.7843 24.1888 29.7784 24.1416L29.7234 23.7025C29.7175 23.6553 29.7319 23.6387 29.789 23.6288L29.7861 23.6061L29.5148 23.6401L29.5176 23.6628C29.574 23.6603 29.592 23.6719 29.5978 23.7182L29.6528 24.1573Z" fill="#00493D"/>
<path d="M30.0745 24.0784C30.086 24.145 30.0793 24.1564 30.0142 24.1742L30.0181 24.1967L30.2929 24.1491L30.289 24.1266C30.2211 24.1328 30.2111 24.1253 30.1992 24.0568L30.1171 23.5819C30.2124 23.5692 30.2596 23.6037 30.2913 23.7086L30.3136 23.7048L30.2807 23.5239L29.8187 23.6039L29.8478 23.7854L29.8701 23.7815C29.8646 23.672 29.8975 23.6236 29.9923 23.6035L30.0745 24.0784Z" fill="#00493D"/>
</g>
<defs>
<clipPath id="clip0_1_14648">
<rect y="0.0010376" width="30" height="30" rx="15" fill="white"/>
</clipPath>
</defs>
</svg>
