<svg width="30" height="30" viewBox="0 0 30 30" fill="none" xmlns="http://www.w3.org/2000/svg">
<path d="M30.0007 15.0002C30.0007 23.2825 23.283 30.0002 15.0007 30.0002C6.71848 30.0002 0.000732422 23.2825 0.000732422 15.0002C0.000732422 6.71798 6.71848 0.000213623 15.0007 0.000213623C23.283 0.000213623 30.0007 6.71112 30.0007 15.0002Z" fill="#00B5CC"/>
<path d="M7.67243 13.6141C7.69301 13.5798 7.74105 13.5935 7.76164 13.6141C7.83026 13.6759 7.87141 13.7582 7.91258 13.8337C8.14588 14.2797 8.31744 14.7532 8.52329 15.2129C8.50957 15.0208 8.49585 14.8286 8.48212 14.6434C8.47526 14.4718 8.45468 14.2934 8.48212 14.1219C8.50271 14.0327 8.61248 14.0121 8.6811 14.0532C8.69483 14.1081 8.69485 14.1699 8.70171 14.2248C8.77719 14.8973 8.97615 15.556 9.27121 16.1667C9.76526 17.1891 10.5407 18.0743 11.4807 18.7056C12.4894 19.3781 13.6971 19.7417 14.9117 19.7349C15.0009 19.7143 15.0489 19.8515 14.9734 19.8927C14.8842 19.9201 14.8156 19.975 14.7744 20.0162C14.6715 20.126 14.5548 20.2289 14.4176 20.2907C14.3764 20.2221 14.3284 20.1603 14.2598 20.1123C14.102 19.9888 13.8961 19.9339 13.704 19.8996C13.4775 19.8584 13.2511 19.8241 13.0247 19.8103C12.8737 19.8035 12.7227 19.8103 12.5786 19.8035C12.5306 19.8035 12.4826 19.7829 12.4483 19.7417C12.064 19.4055 11.6866 19.0487 11.2337 18.8016C11.1514 18.7605 11.0553 18.7193 10.9592 18.7193C10.8975 18.7193 10.8288 18.733 10.7671 18.7056C10.6916 18.6713 10.6367 18.6095 10.575 18.5546C10.3142 18.3007 10.1564 17.9714 9.96426 17.6695C9.8133 17.4293 9.64175 17.2166 9.44276 17.0244C9.27121 16.8529 9.09967 16.695 8.89382 16.5715C8.88009 16.599 8.86637 16.6196 8.85265 16.647C8.77031 16.6196 8.67423 16.5921 8.58503 16.6264C8.59875 16.7431 8.62621 16.8597 8.68797 16.9627C8.72914 17.0244 8.79775 17.0519 8.84578 17.1136C8.88009 17.1617 8.8801 17.244 8.81835 17.2577C8.72914 17.2783 8.63994 17.2509 8.55759 17.2783C8.61249 17.443 8.76345 17.5459 8.90069 17.642C8.98303 17.7037 9.07908 17.7449 9.1477 17.8273C9.17515 17.8547 9.18887 17.9165 9.14083 17.9233C9.06535 17.9371 8.98303 17.9233 8.90069 17.9302C8.92813 17.9782 8.96246 18.0194 9.00363 18.0468C9.17518 18.1566 9.381 18.2115 9.56627 18.3007C9.59371 18.3145 9.62806 18.3282 9.64865 18.3556C9.66237 18.3762 9.66236 18.4105 9.64178 18.4242C9.58688 18.4517 9.52513 18.4586 9.47023 18.4791C9.53885 18.5684 9.6692 18.589 9.74468 18.6644C9.76527 18.6919 9.75156 18.7399 9.72412 18.7536C9.66236 18.7879 9.58685 18.8017 9.5251 18.8291C9.66233 18.9663 9.86822 18.9869 10.0329 19.083C10.0672 19.0967 10.0809 19.1379 10.0535 19.1722C10.0054 19.2134 9.9437 19.2271 9.89566 19.2614C9.95056 19.3232 10.026 19.3574 10.1084 19.3574C10.2044 19.3643 10.3142 19.3438 10.4034 19.3918C10.4652 19.4192 10.4652 19.5016 10.424 19.5427C10.3622 19.6045 10.2868 19.6388 10.2181 19.6937C10.376 19.7898 10.5475 19.8653 10.7122 19.9476C11.0416 20.0917 11.3709 20.2289 11.714 20.3044C12.0022 20.373 12.2973 20.3799 12.5992 20.373C12.6541 20.373 12.7159 20.3593 12.7776 20.3867C12.7914 20.4416 12.7364 20.4622 12.7021 20.4828C12.558 20.5446 12.414 20.5651 12.2561 20.572C11.8582 20.5926 11.4601 20.5103 11.0759 20.4073C10.5612 20.2701 10.0741 20.0436 9.60748 19.8035C9.55258 19.7692 9.4908 19.7417 9.45649 19.6937C9.44277 19.6663 9.44278 19.6251 9.46336 19.6113C9.51826 19.577 9.58689 19.5702 9.64865 19.5565C9.44965 19.481 9.23006 19.5015 9.03106 19.4398C8.99675 19.4261 8.94188 19.4123 8.92129 19.3643C8.89384 19.3094 8.93499 19.2545 8.98302 19.2339C9.06537 19.1928 9.16144 19.1996 9.25065 19.1722C9.1683 19.1242 9.0791 19.1173 8.98989 19.0899C8.88697 19.0624 8.7909 19.0349 8.69484 18.9801C8.65367 18.9526 8.61251 18.8977 8.61937 18.8497C8.64682 18.8085 8.69484 18.8016 8.73601 18.7948C8.85266 18.7879 8.96931 18.7948 9.0791 18.7673C9.04479 18.7467 9.01733 18.7262 8.98302 18.7124C8.79089 18.6575 8.59875 18.6575 8.41348 18.5821C8.34486 18.5546 8.26939 18.5066 8.2488 18.4311C8.24194 18.4037 8.22822 18.3694 8.2488 18.3488C8.26939 18.3145 8.31744 18.3145 8.35175 18.3076C8.50271 18.3007 8.66052 18.3419 8.81148 18.335C8.77717 18.2801 8.72912 18.239 8.66736 18.2184C8.52327 18.1704 8.38605 18.1086 8.26254 18.0331C8.05668 17.9027 7.85768 17.7587 7.69299 17.5802C7.61751 17.5048 7.54888 17.4224 7.50771 17.3195C7.49399 17.2715 7.48715 17.2097 7.53518 17.1822C7.59008 17.1479 7.65184 17.1685 7.70673 17.1822C7.93317 17.2509 8.12529 17.3812 8.33801 17.4704C7.97433 17.1479 7.59694 16.8392 7.2813 16.4755C7.16465 16.3383 7.04111 16.1941 6.99994 16.0089V15.9471C7.0068 15.9197 7.02052 15.8922 7.04111 15.8717C7.08228 15.8579 7.12348 15.8716 7.15779 15.8922C7.23327 15.9334 7.30189 15.9951 7.37051 16.05C7.60381 16.249 7.81653 16.4617 8.05669 16.6539C8.13217 16.7156 8.21452 16.7843 8.31744 16.8186C8.27627 16.7225 8.21448 16.647 8.15273 16.5578C7.89197 16.1804 7.63812 15.803 7.41168 15.4051C7.25385 15.1237 7.10973 14.8286 7.04111 14.513C7.02052 14.3895 7.0068 14.2454 7.08915 14.1356C7.16463 14.1287 7.19895 14.2042 7.23326 14.2522C7.54891 14.7189 7.79592 15.2335 8.11842 15.7001C8.18704 15.7893 8.24881 15.8854 8.34488 15.9403C8.33802 15.8854 8.32429 15.8305 8.29684 15.7756C8.11157 15.2609 7.89886 14.76 7.7479 14.2385C7.70673 14.0875 7.65868 13.9366 7.64495 13.7788C7.64495 13.7102 7.64498 13.6553 7.67243 13.6141Z" fill="#FEC91B"/>
<path d="M17.2308 20.8396C17.2583 20.7916 17.3132 20.7916 17.3612 20.7984C17.4779 20.8122 17.5808 20.8328 17.6975 20.8465C18.1641 20.8945 18.6307 20.9014 19.1041 20.922C19.2551 20.9357 19.4129 20.9288 19.5639 20.9563C19.5844 20.9631 19.6188 20.9631 19.6188 20.9906C19.6462 21.1621 19.557 21.3474 19.3992 21.4229C19.1865 21.5326 18.9394 21.5395 18.7061 21.5189C18.6993 21.6081 18.6993 21.7042 18.6444 21.7797C18.5964 21.8483 18.514 21.8757 18.4385 21.8895C18.2807 21.9169 18.1297 21.8826 17.9788 21.8346C17.9239 21.9238 17.8484 22.0198 17.7455 22.0541C17.6494 22.0816 17.5533 22.0336 17.471 21.9855C17.3612 22.0885 17.2309 22.1914 17.0662 22.2051C16.9838 22.212 16.9015 22.1845 16.826 22.1777C16.7299 22.2394 16.6407 22.3286 16.5172 22.3424C16.4211 22.3561 16.3251 22.3012 16.2564 22.2463C16.1604 22.3149 16.0575 22.3835 15.9408 22.4178H15.8379C15.7555 22.3972 15.7006 22.3286 15.6663 22.26C15.5908 22.3012 15.5154 22.3423 15.4262 22.3561C15.3233 22.3698 15.2203 22.3561 15.1311 22.3218C15.0968 22.3149 15.0556 22.2875 15.0213 22.3012C14.8978 22.3355 14.7743 22.3835 14.6439 22.3629C14.5822 22.3561 14.541 22.3081 14.4998 22.2669C14.4037 22.3218 14.3077 22.3767 14.1979 22.3767C14.1224 22.3767 14.0332 22.363 13.9783 22.3081C13.9234 22.2532 13.9303 22.1639 13.9783 22.109C14.0332 22.0336 14.1224 21.9924 14.1979 21.9306C14.3145 21.8346 14.4312 21.7316 14.5547 21.6356C14.5753 21.615 14.6096 21.6081 14.637 21.615C15.0488 21.6493 15.4673 21.6562 15.8722 21.5738C16.1055 21.5258 16.3388 21.4572 16.5515 21.3474C16.5996 21.3199 16.6476 21.2925 16.7025 21.2925C16.7985 21.2993 16.8878 21.3062 16.9838 21.3062C16.9907 21.2719 16.9975 21.2376 17.0113 21.2033C17.0387 21.1758 17.0799 21.169 17.1142 21.1484C17.1622 21.121 17.1965 21.0729 17.224 21.0249C17.224 20.97 17.2103 20.9014 17.2308 20.8396Z" fill="#FEC91B"/>
<path d="M22.501 15.604C22.6931 15.309 22.8715 15.007 22.9744 14.6708C23.0088 14.5679 23.0019 14.465 23.0019 14.362C22.995 14.314 22.9882 14.266 22.9607 14.2317C22.9401 14.2248 22.9127 14.2248 22.8921 14.2385C22.8441 14.2797 22.8029 14.3346 22.7686 14.3895C22.3843 14.9521 22.0687 15.5491 21.6638 16.0912C21.5952 16.1804 21.5335 16.2696 21.4305 16.3245C21.458 16.1941 21.5197 16.0775 21.5678 15.954C21.8011 15.3913 22.0481 14.8423 22.2402 14.266C22.2883 14.1081 22.3431 13.9503 22.3569 13.7925C22.3637 13.7307 22.35 13.6484 22.2883 13.6347C22.2196 13.6347 22.1785 13.6964 22.1441 13.7444C22.0344 13.9229 21.952 14.1081 21.8628 14.3003C21.7119 14.6296 21.5746 14.959 21.4168 15.2815C21.4168 14.9247 21.458 14.5679 21.4374 14.2111C21.4305 14.163 21.4374 14.1013 21.3962 14.067C21.3482 14.0189 21.2795 14.0258 21.2315 14.0532C21.2109 14.0875 21.2178 14.1424 21.2109 14.1836C21.1286 15.1786 20.7306 16.1393 20.1474 16.9421C19.6533 17.6351 19.022 18.2253 18.3152 18.6987C17.5261 19.2202 16.6341 19.6113 15.694 19.7417C15.5225 19.7691 15.3509 19.8241 15.1931 19.9064C14.9804 20.0162 14.7882 20.1603 14.5892 20.2907C14.4177 20.4005 14.2393 20.5171 14.0403 20.5926C13.7796 20.6818 13.512 20.7573 13.2855 20.9151C13.0865 21.0455 12.9149 21.217 12.7846 21.416C12.7228 21.5052 12.7571 21.615 12.7914 21.6973C12.812 21.7454 12.8464 21.814 12.9081 21.8071C12.9699 21.7591 12.963 21.6768 12.9973 21.6219C13.0041 21.6013 13.0316 21.6013 13.0453 21.615C13.0728 21.6356 13.0865 21.6562 13.1208 21.6699C13.2032 21.6905 13.2786 21.6356 13.3472 21.5944C13.409 21.5807 13.4776 21.5876 13.5394 21.5807C14.253 21.5464 14.9667 21.5121 15.6803 21.4915C15.8381 21.4915 16.0028 21.4572 16.14 21.368C16.1606 21.3542 16.1881 21.3337 16.1949 21.3062C16.1812 21.2719 16.14 21.2444 16.1057 21.2444C15.9959 21.2307 15.8862 21.265 15.7764 21.2582C15.248 21.2307 14.7265 21.3199 14.205 21.3062C14.1707 21.3062 14.1089 21.2856 14.1364 21.2444C14.2324 21.1072 14.3559 20.9974 14.4589 20.8671C14.3628 20.8671 14.2667 20.8602 14.1638 20.8671C14.0815 20.9014 14.006 20.9631 13.9031 20.9494C13.9511 20.8945 14.0266 20.8602 14.0883 20.819C14.3903 20.6337 14.7128 20.4828 15.0353 20.325C15.1657 20.2632 15.296 20.1877 15.4401 20.1466C15.8175 20.0299 16.2086 19.9476 16.5998 19.8858C16.8125 19.8584 17.0321 19.8378 17.2448 19.824C17.3134 19.8103 17.4026 19.8241 17.4507 19.7623C17.7663 19.4055 18.1574 19.1036 18.6103 18.9183C18.8093 18.836 19.0289 18.7742 19.2347 18.6919C19.3514 18.6164 19.4406 18.4997 19.5298 18.3899C19.6807 18.1909 19.7905 17.9713 19.9278 17.7655C20.1199 17.4498 20.3532 17.1548 20.6414 16.9284C20.7375 16.8529 20.8404 16.7774 20.9571 16.7431C20.9776 16.7842 20.9982 16.8254 21.0188 16.8666C21.0806 16.8254 21.1492 16.7705 21.2315 16.7637C21.2315 16.9695 21.0943 17.1411 21.0394 17.3332C21.0325 17.3813 21.0119 17.4498 21.0668 17.4773C21.156 17.4979 21.2452 17.4705 21.3345 17.4636C21.2727 17.6626 21.0874 17.7861 20.9433 17.9233C20.9159 17.9508 20.8747 18.0194 20.9296 18.0468C20.9982 18.0606 21.0737 18.0331 21.1492 18.0331C21.1286 18.088 21.0874 18.1292 21.0394 18.1635C20.8747 18.2801 20.6826 18.3625 20.5042 18.4585C20.4767 18.4791 20.4287 18.5066 20.4562 18.5477C20.4905 18.5821 20.5385 18.6026 20.5728 18.6369C20.4493 18.7262 20.3052 18.7811 20.1817 18.8565C20.1542 18.8771 20.1199 18.8977 20.1268 18.932C20.1336 18.98 20.1817 19.0075 20.2091 19.0418C20.0993 19.1173 19.9621 19.131 19.8454 19.1653C19.8043 19.1722 19.7631 19.1859 19.7494 19.2271C19.7494 19.282 19.7905 19.3368 19.7768 19.3986C19.7631 19.4398 19.7288 19.481 19.6876 19.4947C19.6327 19.5153 19.5709 19.4878 19.516 19.5153C19.4817 19.5427 19.4543 19.5908 19.4749 19.6319C19.5023 19.6868 19.5435 19.7348 19.5778 19.7897C19.5161 19.8103 19.4543 19.824 19.3925 19.8378C19.2553 19.8858 19.1249 19.9545 19.0014 20.0368C18.9122 20.0917 18.8161 20.1054 18.7132 20.1328C18.5554 20.1603 18.3976 20.2083 18.2398 20.2358C18.0682 20.2632 17.8898 20.2838 17.7182 20.3318C17.6908 20.3456 17.6359 20.3455 17.6359 20.3867C17.6428 20.4416 17.7045 20.4348 17.7457 20.4416C18.0819 20.4553 18.425 20.4004 18.7544 20.3524C19.1181 20.2975 19.4886 20.2289 19.8454 20.1191C20.0033 20.0711 20.1679 20.023 20.3326 19.9613C20.3875 19.9338 20.463 19.9133 20.4836 19.8446C20.4836 19.8035 20.4493 19.776 20.415 19.7623C20.3395 19.728 20.2503 19.7143 20.1679 19.68C20.2434 19.6319 20.3395 19.6319 20.4287 19.6182C20.5796 19.6045 20.7306 19.6045 20.8747 19.5427C20.9365 19.5153 20.9433 19.4261 20.8953 19.3849C20.8129 19.3232 20.7032 19.33 20.614 19.2957C20.7443 19.2408 20.8816 19.2408 21.0188 19.2065C21.1286 19.1859 21.2452 19.1585 21.3345 19.0899C21.3756 19.0555 21.3893 18.9732 21.3276 18.9526C21.2384 18.9183 21.1423 18.932 21.0463 18.8977C21.0737 18.8703 21.1012 18.8428 21.1355 18.8291C21.3002 18.7605 21.4786 18.733 21.6364 18.6369C21.6981 18.5958 21.7599 18.5272 21.753 18.4448C21.753 18.4037 21.7118 18.3762 21.6707 18.3762C21.5609 18.3625 21.458 18.3899 21.3482 18.3831C21.4099 18.3282 21.4923 18.3076 21.5609 18.2664C21.6981 18.2047 21.8148 18.1086 21.9383 18.0262C22.0687 17.9233 22.199 17.8204 22.3088 17.7037C22.3843 17.6283 22.4529 17.5528 22.4872 17.4499C22.5078 17.4018 22.5147 17.3332 22.4598 17.2989C22.4118 17.2783 22.35 17.2989 22.302 17.3195C22.1648 17.3744 22.0344 17.4567 21.904 17.5391C21.8079 17.594 21.705 17.6626 21.5952 17.6831C21.5952 17.6214 21.6501 17.5802 21.6913 17.5391C21.8834 17.3538 22.0824 17.1754 22.2745 16.9901C22.4598 16.8049 22.6451 16.6264 22.796 16.4137C22.8578 16.3245 22.9196 16.2285 22.9333 16.1187C22.9401 16.0569 22.9058 15.9814 22.8372 15.9814C22.7411 15.9883 22.6588 16.05 22.5833 16.0981C22.3226 16.2902 22.0961 16.5303 21.8354 16.7362C21.7667 16.7911 21.705 16.846 21.6158 16.8734C21.6707 16.7568 21.7599 16.6608 21.8354 16.5578C22.0549 16.2422 22.2883 15.9265 22.501 15.604ZM13.6423 21.2582C13.608 21.3199 13.5325 21.3405 13.4639 21.3611C13.4228 21.368 13.3747 21.3886 13.3404 21.3543C13.3061 21.3199 13.3129 21.2582 13.3404 21.2239C13.3747 21.1553 13.457 21.1347 13.5257 21.1209C13.5668 21.1141 13.6217 21.0935 13.656 21.1209C13.6835 21.1621 13.6697 21.217 13.6423 21.2582Z" fill="#FEC91B"/>
<path d="M15.0215 9.0372C14.8362 9.0372 14.7402 8.93428 14.7402 8.74215C14.7402 8.55001 15.0215 7.57562 15.0215 7.57562C15.0215 7.57562 15.296 8.55001 15.296 8.74215C15.3028 8.93428 15.2068 9.0372 15.0215 9.0372Z" fill="#FEC91B"/>
<path d="M14.2598 9.11268C14.0814 9.14699 13.9647 9.06465 13.9304 8.87938C13.8961 8.69411 13.9785 7.68542 13.9785 7.68542C13.9785 7.68542 14.4451 8.58432 14.4794 8.77646C14.5137 8.95486 14.445 9.07837 14.2598 9.11268Z" fill="#FEC91B"/>
<path d="M13.5256 9.33225C13.354 9.40087 13.2306 9.34598 13.1551 9.16757C13.0796 8.98917 12.9698 7.98734 12.9698 7.98734C12.9698 7.98734 13.6011 8.78331 13.6766 8.95486C13.7452 9.13327 13.704 9.26363 13.5256 9.33225Z" fill="#FEC91B"/>
<path d="M12.8531 9.69592C12.6952 9.79885 12.5649 9.76454 12.4551 9.60672C12.3453 9.44889 12.0365 8.48138 12.0365 8.48138C12.0365 8.48138 12.8119 9.13326 12.9148 9.29795C13.0246 9.44891 13.0109 9.58614 12.8531 9.69592Z" fill="#FEC91B"/>
<path d="M12.2629 10.1763C12.1257 10.3135 11.9953 10.2998 11.8581 10.1625C11.7208 10.0253 11.2336 9.14011 11.2336 9.14011C11.2336 9.14011 12.1188 9.63416 12.2561 9.76454C12.3864 9.90864 12.3933 10.0459 12.2629 10.1763Z" fill="#FEC91B"/>
<path d="M11.7758 10.7664C11.6729 10.9173 11.5357 10.9379 11.3778 10.835C11.22 10.7252 10.5613 9.9567 10.5613 9.9567C10.5613 9.9567 11.5288 10.2655 11.6866 10.3753C11.8445 10.4782 11.8788 10.6154 11.7758 10.7664Z" fill="#FEC91B"/>
<path d="M11.4121 11.4457C11.3366 11.6173 11.2062 11.6653 11.0278 11.5898C10.8494 11.5143 10.0603 10.8831 10.0603 10.8831C10.0603 10.8831 11.069 10.9997 11.2405 11.0752C11.4258 11.1438 11.4875 11.2673 11.4121 11.4457Z" fill="#FEC91B"/>
<path d="M11.1926 12.1731C11.1583 12.3583 11.0348 12.427 10.8427 12.3858C10.6574 12.3515 9.75848 11.8849 9.75848 11.8849C9.75848 11.8849 10.7672 11.8025 10.9524 11.8368C11.1446 11.878 11.2269 11.9878 11.1926 12.1731Z" fill="#FEC91B"/>
<path d="M11.1171 12.9347C11.1171 13.1268 11.0073 13.2161 10.8152 13.2161C10.623 13.2161 9.64868 12.9347 9.64868 12.9347C9.64868 12.9347 10.623 12.6602 10.8152 12.6602C11.0073 12.6602 11.1171 12.7494 11.1171 12.9347Z" fill="#FEC91B"/>
<path d="M11.1926 13.6964C11.2269 13.8817 11.1446 13.9914 10.9524 14.0257C10.7672 14.0669 9.75848 13.9846 9.75848 13.9846C9.75848 13.9846 10.6574 13.518 10.8427 13.4837C11.0279 13.4425 11.1515 13.5111 11.1926 13.6964Z" fill="#FEC91B"/>
<path d="M11.4121 14.4306C11.4807 14.6022 11.4258 14.7257 11.2474 14.8012C11.069 14.8766 10.0603 14.9864 10.0603 14.9864C10.0603 14.9864 10.8563 14.362 11.0347 14.2865C11.2062 14.211 11.3366 14.2591 11.4121 14.4306Z" fill="#FEC91B"/>
<path d="M11.769 15.103C11.8719 15.254 11.8376 15.3912 11.6798 15.4942C11.522 15.6039 10.5544 15.9128 10.5544 15.9128C10.5544 15.9128 11.2064 15.1373 11.3642 15.0344C11.5289 14.9315 11.6661 14.9521 11.769 15.103Z" fill="#FEC91B"/>
<path d="M12.2562 15.6932C12.3866 15.8236 12.3797 15.9608 12.2425 16.098C12.1053 16.2353 11.2201 16.7225 11.2201 16.7225C11.2201 16.7225 11.7141 15.8373 11.8445 15.7001C11.9817 15.5697 12.1259 15.5628 12.2562 15.6932Z" fill="#FEC91B"/>
<path d="M12.8462 16.1804C12.9971 16.2833 13.0177 16.4206 12.9079 16.5853C12.805 16.7431 12.0296 17.4018 12.0296 17.4018C12.0296 17.4018 12.3384 16.4343 12.4413 16.2765C12.5579 16.1186 12.6883 16.0775 12.8462 16.1804Z" fill="#FEC91B"/>
<path d="M13.5187 16.5441C13.6902 16.6127 13.7383 16.7431 13.6628 16.9215C13.5873 17.0999 12.956 17.889 12.956 17.889C12.956 17.889 13.0727 16.8803 13.1413 16.7019C13.2168 16.5372 13.3471 16.4686 13.5187 16.5441Z" fill="#FEC91B"/>
<path d="M14.2529 16.7705C14.4381 16.8049 14.5067 16.9284 14.4656 17.1136C14.4244 17.2989 13.9647 18.2046 13.9647 18.2046C13.9647 18.2046 13.8823 17.196 13.9166 17.0107C13.9578 16.8186 14.0676 16.7294 14.2529 16.7705Z" fill="#FEC91B"/>
<path d="M15.0146 16.846C15.1999 16.846 15.2891 16.9489 15.2891 17.141C15.2891 17.3332 15.0146 18.3076 15.0146 18.3076C15.0146 18.3076 14.7333 17.3332 14.7333 17.141C14.7333 16.9489 14.8225 16.846 15.0146 16.846Z" fill="#FEC91B"/>
<path d="M15.7763 16.7705C15.9616 16.7362 16.0713 16.8185 16.1057 17.0107C16.14 17.1959 16.0576 18.2115 16.0576 18.2115C16.0576 18.2115 15.5979 17.3126 15.5567 17.1205C15.5155 16.9215 15.591 16.8048 15.7763 16.7705Z" fill="#FEC91B"/>
<path d="M16.5036 16.5509C16.6752 16.4823 16.8055 16.544 16.8742 16.7156C16.9496 16.894 17.0594 17.9027 17.0594 17.9027C17.0594 17.9027 16.4281 17.1067 16.3526 16.9283C16.2909 16.7499 16.3321 16.6195 16.5036 16.5509Z" fill="#FEC91B"/>
<path d="M17.1829 16.1872C17.3408 16.0843 17.4712 16.1186 17.5809 16.2764C17.6907 16.4343 17.9995 17.4018 17.9995 17.4018C17.9995 17.4018 17.2241 16.7431 17.1212 16.5852C17.0045 16.4274 17.0251 16.2902 17.1829 16.1872Z" fill="#FEC91B"/>
<path d="M17.7731 15.7069C17.9035 15.5696 18.0408 15.5834 18.178 15.7206C18.3084 15.8579 18.8024 16.743 18.8024 16.743C18.8024 16.743 17.9172 16.2559 17.78 16.1186C17.6496 15.9745 17.6428 15.8373 17.7731 15.7069Z" fill="#FEC91B"/>
<path d="M18.2603 15.1099C18.3632 14.959 18.5004 14.9384 18.6583 15.0482C18.8229 15.1511 19.4748 15.9265 19.4748 15.9265C19.4748 15.9265 18.5073 15.6177 18.3495 15.5079C18.1917 15.405 18.1574 15.2678 18.2603 15.1099Z" fill="#FEC91B"/>
<path d="M18.6172 14.4375C18.6858 14.2659 18.823 14.2248 19.0014 14.2934C19.173 14.3689 19.969 15.0001 19.969 15.0001C19.969 15.0001 18.9603 14.8835 18.7887 14.8149C18.6103 14.7394 18.5486 14.6159 18.6172 14.4375Z" fill="#FEC91B"/>
<path d="M18.8435 13.7101C18.8847 13.5249 19.0014 13.4562 19.1866 13.4974C19.3719 13.5317 20.2777 13.9983 20.2777 13.9983C20.2777 13.9983 19.269 14.0807 19.0769 14.0463C18.8916 13.9983 18.8092 13.8954 18.8435 13.7101Z" fill="#FEC91B"/>
<path d="M18.919 12.9485C18.919 12.7632 19.022 12.6671 19.2141 12.6671C19.4062 12.6671 20.3806 12.9485 20.3806 12.9485C20.3806 12.9485 19.4062 13.2298 19.2141 13.2298C19.022 13.2298 18.919 13.1338 18.919 12.9485Z" fill="#FEC91B"/>
<path d="M18.8435 12.1868C18.8092 12.0015 18.8916 11.8917 19.0769 11.8574C19.269 11.8231 20.2777 11.9054 20.2777 11.9054C20.2777 11.9054 19.3788 12.372 19.1866 12.4064C19.0014 12.4407 18.8847 12.372 18.8435 12.1868Z" fill="#FEC91B"/>
<path d="M18.624 11.4525C18.5485 11.2741 18.6103 11.1575 18.7887 11.082C18.9671 11.0065 19.9689 10.8899 19.9689 10.8899C19.9689 10.8899 19.1798 11.5212 19.0014 11.5898C18.8298 11.6721 18.6995 11.6241 18.624 11.4525Z" fill="#FEC91B"/>
<path d="M18.2672 10.7801C18.1643 10.6223 18.1986 10.4919 18.3564 10.3821C18.5142 10.2723 19.4817 9.96356 19.4817 9.96356C19.4817 9.96356 18.8298 10.739 18.6652 10.8419C18.5073 10.9517 18.3701 10.9311 18.2672 10.7801Z" fill="#FEC91B"/>
<path d="M17.7799 10.1831C17.6495 10.0528 17.6564 9.90865 17.7937 9.77828C17.9309 9.64104 18.8161 9.15387 18.8161 9.15387C18.8161 9.15387 18.322 10.039 18.1916 10.1763C18.0544 10.3067 17.9103 10.3204 17.7799 10.1831Z" fill="#FEC91B"/>
<path d="M17.1899 9.69592C17.0321 9.593 17.0115 9.45577 17.1213 9.29795C17.231 9.14012 17.9996 8.48138 17.9996 8.48138C17.9996 8.48138 17.6908 9.44203 17.5879 9.60672C17.4781 9.76454 17.3477 9.80571 17.1899 9.69592Z" fill="#FEC91B"/>
<path d="M16.5174 9.33912C16.3459 9.26364 16.2979 9.13327 16.3733 8.95486C16.4488 8.77645 17.0732 7.98734 17.0732 7.98734C17.0732 7.98734 16.9566 8.99603 16.8811 9.17444C16.8125 9.34599 16.689 9.40774 16.5174 9.33912Z" fill="#FEC91B"/>
<path d="M15.7832 9.11268C15.5979 9.07837 15.5293 8.95486 15.5704 8.76959C15.6047 8.58432 16.0714 7.68542 16.0714 7.68542C16.0714 7.68542 16.1537 8.69412 16.1125 8.88625C16.0782 9.06466 15.9685 9.15385 15.7832 9.11268Z" fill="#FEC91B"/>
<path d="M18.4525 12.9416C18.4525 14.8354 16.9154 16.3725 15.0216 16.3725C13.1277 16.3725 11.5906 14.8354 11.5906 12.9416C11.5906 11.0477 13.1277 9.50378 15.0216 9.50378C16.9154 9.50378 18.4525 11.0477 18.4525 12.9416Z" fill="#FEC91B"/>
</svg>
