<svg width="30" height="30" viewBox="0 0 30 30" fill="none" xmlns="http://www.w3.org/2000/svg">
<path d="M15.0003 0.000244141C10.0941 0.000244141 5.73684 2.35386 2.99896 6.00436H27.0017C24.2638 2.35386 19.9065 0.000244141 15.0003 0.000244141Z" fill="#CE1126"/>
<path d="M15.0003 30.0003C19.9065 30.0003 24.2638 27.6467 27.0017 24.003H2.99896C5.73684 27.6398 10.0941 30.0003 15.0003 30.0003Z" fill="#CE1126"/>
<path d="M27.0014 5.99744H2.99862C1.11848 8.50201 0 11.6173 0 15.0002C0 18.3762 1.11848 21.4915 2.99862 24.0029H27.0014C28.8815 21.4915 30 18.3762 30 15.0002C30 11.6173 28.8815 8.50201 27.0014 5.99744Z" fill="#002868"/>
<path d="M21.8004 15.0002C21.8004 18.7536 18.7537 21.8003 15.0003 21.8003C11.2469 21.8003 8.20023 18.7536 8.20023 15.0002C8.20023 11.2468 11.2469 8.2001 15.0003 8.2001C18.7537 8.2001 21.8004 11.2399 21.8004 15.0002Z" fill="white"/>
</svg>
