<svg width="30" height="30" viewBox="0 0 30 30" fill="none" xmlns="http://www.w3.org/2000/svg">
<path d="M15.0001 0.000244141C10.0939 0.000244141 5.73663 2.35386 2.99875 6.00436H27.0015C24.2636 2.35386 19.9063 0.000244141 15.0001 0.000244141Z" fill="#F93F26"/>
<path d="M15.0001 30.0003C19.9063 30.0003 24.2636 27.6467 27.0015 24.003H2.99875C5.73663 27.6398 10.0939 30.0003 15.0001 30.0003Z" fill="#F93F26"/>
<path d="M27.0014 5.99756H2.99862C1.11848 8.50213 0 11.6174 0 15.0003C0 18.3763 1.11848 21.4916 2.99862 24.003H27.0014C28.8815 21.4916 30 18.3763 30 15.0003C30 11.6243 28.8884 8.50213 27.0014 5.99756Z" fill="#F1F4FB"/>
<path d="M22.953 19.6663C22.8158 19.4742 22.6306 19.3232 22.4521 19.186C22.0198 18.8635 21.5464 18.5959 21.066 18.342C20.7573 18.1704 20.4485 18.0126 20.174 17.793C20.0917 17.7175 19.9819 17.6215 20.0025 17.498C20.0436 17.395 20.1328 17.3333 20.222 17.2852C20.3593 17.2098 20.4965 17.1274 20.6543 17.0931C21.0592 17.1823 21.3611 17.4979 21.7728 17.5803C22.0061 17.6352 22.2394 17.5391 22.4659 17.5048C21.9512 17.0657 21.4091 16.654 20.9082 16.1874C20.8122 16.0982 20.7435 15.9815 20.6406 15.8992C20.4279 15.7208 20.1671 15.6041 19.8858 15.5698C19.6937 15.5423 19.4947 15.5766 19.3094 15.4943C19.2614 15.4737 19.2202 15.412 19.2408 15.3639C19.2957 15.261 19.4261 15.2336 19.529 15.2061C20.0436 15.1032 20.5651 15.1238 21.0866 15.0757C21.2856 15.0552 21.4915 15.0346 21.6836 14.9522C21.6836 14.9179 21.6836 14.8905 21.6836 14.8562C21.5876 14.7532 21.4503 14.7121 21.3199 14.6572C20.7847 14.4719 20.2426 14.3278 19.6937 14.2043C19.5358 14.1562 19.3506 14.1219 19.2408 13.9847C19.1928 13.8886 19.2682 13.7651 19.378 13.7583C19.7623 13.724 20.1397 13.8337 20.524 13.8749C20.723 13.9024 20.9357 13.9435 21.1347 13.8818C21.1278 13.7789 21.0317 13.7102 20.9562 13.6553C20.6818 13.4495 20.3661 13.3054 20.0711 13.127C19.6731 12.8799 19.282 12.6123 18.9251 12.3035C18.6026 12.0016 18.2733 11.6997 17.889 11.4801C17.7312 11.3909 17.5528 11.3292 17.4293 11.1988C17.3812 11.1507 17.395 11.0821 17.3881 11.0204C17.5459 10.8557 17.793 10.8694 17.9919 10.9106C18.1909 10.9449 18.3419 11.089 18.5409 11.1233C18.9046 11.2125 19.282 11.1988 19.6525 11.1713C19.3849 11.0959 19.1379 10.9792 18.9046 10.8283C18.5958 10.6293 18.287 10.4165 18.0057 10.1832C17.9508 10.1352 17.8822 10.0872 17.8616 10.0117C18.0331 9.97738 18.2047 9.9705 18.3762 9.99109C18.5683 9.99795 18.7605 10.0117 18.9526 10.0254C18.6644 9.79899 18.3762 9.57252 18.088 9.35294C17.7243 9.07847 17.3332 8.81085 16.8735 8.70792C16.6127 8.64617 16.3451 8.59813 16.0912 8.53638C15.9128 8.49521 15.7687 8.38545 15.6315 8.2688C15.4531 8.10411 15.2884 7.91885 15.158 7.71299C15.0002 7.48655 14.911 7.23949 14.8012 6.99246C14.7943 6.99246 14.7737 6.99246 14.7669 6.99246C14.6228 7.22577 14.4993 7.47278 14.3209 7.67178C14.1424 7.87077 13.9503 8.05606 13.7376 8.20702C13.518 8.37171 13.3053 8.54326 13.1132 8.72853C12.9759 8.86577 12.8593 9.01673 12.7358 9.16083C12.9279 9.12652 13.12 9.0716 13.3053 9.00298C13.4014 8.97553 13.5043 8.90694 13.5935 8.98928C13.5523 9.07849 13.4974 9.16081 13.422 9.22256C13.2092 9.40783 12.9691 9.57255 12.7152 9.68234C12.523 9.76468 12.3446 9.87444 12.1731 9.99796C12.0359 10.094 11.8986 10.2038 11.8025 10.341C11.8025 10.3548 11.8025 10.3822 11.8025 10.4028C11.8849 10.4234 11.9741 10.4303 12.0564 10.4097C12.1731 10.3891 12.3103 10.3479 12.4064 10.4303C12.4956 10.5332 12.5642 10.6841 12.5093 10.8145C12.3652 10.89 12.1937 10.8488 12.0496 10.9106C11.8506 10.9792 11.6653 11.1096 11.5349 11.2742C11.4457 11.384 11.4457 11.5419 11.3359 11.6379C11.1575 11.8232 10.9105 11.9056 10.6841 12.0222C10.3341 12.2006 9.99788 12.4065 9.68224 12.6466C9.59989 12.7152 9.50382 12.7839 9.44207 12.8799C9.41462 12.9211 9.44893 12.976 9.46265 13.0172C9.55872 13.0584 9.66165 13.0858 9.76457 13.0789C10.0253 13.0721 10.2724 13.0035 10.5194 12.928C10.6017 12.9074 10.6909 12.8662 10.7801 12.8594C10.8762 12.8525 10.9311 12.9554 10.9723 13.0309C11.0477 13.1887 11.1369 13.3465 11.1369 13.525C11.0477 13.7239 10.9036 13.8818 10.7733 14.0533C10.6154 14.2523 10.4165 14.4444 10.1626 14.5131C9.98416 14.5542 9.80575 14.5885 9.64107 14.6777C9.38718 14.8218 9.18132 15.0346 8.97547 15.2335C8.83823 15.3776 8.68728 15.5149 8.53632 15.6453C8.41967 15.7345 8.30987 15.8443 8.16577 15.8786C8.17263 15.8991 8.17263 15.9198 8.17949 15.9403C8.34417 16.0707 8.54316 16.1873 8.75588 16.1805C9.11956 16.105 9.42148 15.858 9.7234 15.659C9.80575 15.6178 9.90182 15.5424 9.99103 15.5972C10.1488 15.6933 10.2518 15.8648 10.2929 16.0432C10.3204 16.1668 10.3135 16.304 10.2106 16.3932C10.0734 16.5236 9.89496 16.6128 9.73027 16.702C9.24994 16.9353 8.81078 17.2509 8.41279 17.6009C8.11773 17.8616 7.86385 18.1842 7.52076 18.39C7.34235 18.4998 7.14336 18.39 6.95123 18.4175C7.03358 18.5684 7.16395 18.7056 7.33549 18.7537C7.53449 18.8292 7.74721 18.7743 7.93934 18.7262C8.4677 18.5821 8.97546 18.39 9.46265 18.143C9.67537 18.04 9.85379 17.8685 10.0734 17.7793C10.2792 17.6901 10.5194 17.6764 10.7252 17.7793C10.8282 17.8273 10.9517 17.9097 10.9311 18.0401C10.9036 18.1842 10.787 18.2802 10.6841 18.3625C10.3478 18.6096 9.97044 18.7674 9.58618 18.9115C9.01665 19.1242 8.4128 19.2546 7.85013 19.4948C7.85013 19.5085 7.85013 19.5428 7.85013 19.5565C7.8913 19.6526 7.93932 19.7555 8.04911 19.7898C8.30986 19.8928 8.59807 19.879 8.87254 19.8584C9.30484 19.831 9.7234 19.6869 10.1283 19.5222C10.6566 19.3232 11.1575 19.0762 11.6722 18.8566C11.8506 18.7949 12.0496 18.6919 12.2417 18.7674C12.475 18.8566 12.7015 18.9939 12.8456 19.1997C12.9142 19.2889 12.9485 19.3919 12.9759 19.5016C13.0102 19.7487 12.9485 19.9888 12.8524 20.2153C12.6671 20.6476 12.3789 21.025 12.0839 21.3818C11.8094 21.718 11.4389 21.9788 11.0203 22.1091C10.8488 22.1709 10.6635 22.1846 10.5125 22.2875C10.3616 22.3836 10.2312 22.5003 10.1077 22.6306C10.0185 22.7267 9.91555 22.8365 9.90869 22.9806C9.97731 22.9806 10.039 22.9806 10.1077 22.9806C10.1969 22.8914 10.2655 22.7816 10.3684 22.6992C10.5674 22.5346 10.8213 22.4316 11.0752 22.3905C11.2742 22.3699 11.48 22.3768 11.6722 22.3287C12.1182 22.2189 12.5299 21.9719 12.8593 21.6562C13.0789 21.471 13.3533 21.2926 13.6553 21.32C13.8337 21.3269 13.964 21.471 14.1356 21.4779C14.3346 21.4984 14.4993 21.3612 14.6982 21.3612C14.76 21.3612 14.8355 21.3681 14.8767 21.4229C14.959 21.5122 14.9178 21.6494 14.9796 21.7523C15.0482 21.869 15.1511 21.9513 15.2678 22.0199C15.5148 22.1709 15.7344 22.3699 15.9471 22.5689C16.0226 22.6443 16.1187 22.7061 16.2284 22.713C16.249 22.4522 15.9745 22.2807 15.9814 22.0199C16.2627 21.9993 16.5441 22.0199 16.8323 22.0542C17.0519 22.0885 17.292 22.1023 17.4704 22.2395C17.7586 22.4591 17.9302 22.7953 18.2458 22.9737C18.3693 22.9875 18.5203 23.0149 18.6164 22.9257C18.6164 22.8982 18.6164 22.8777 18.6164 22.8502C18.3213 22.5003 17.9576 22.2258 17.6145 21.9239C17.3332 21.6768 17.0381 21.4161 16.8529 21.0867C16.6333 20.6956 16.6127 20.229 16.6127 19.7898C16.6196 19.5016 16.5921 19.2134 16.6676 18.9321C16.7019 18.7949 16.7911 18.6851 16.9009 18.589C16.9833 18.5067 17.1068 18.4586 17.2234 18.4792C17.5253 18.5409 17.7861 18.7194 18.0606 18.8429C18.2664 18.9321 18.486 18.9733 18.7124 18.9733C19.282 18.9938 19.8515 18.9527 20.4142 18.9733C20.6338 18.9801 20.8533 19.0488 21.0455 19.1517C21.416 19.3575 21.766 19.5771 22.1091 19.8173C22.2669 19.9339 22.4453 20.0506 22.6511 20.078C22.7746 20.0986 22.9256 20.0575 22.9805 19.9339C23.0628 19.8585 23.0079 19.7487 22.953 19.6663ZM11.6447 15.7482C11.432 15.8374 11.2056 15.9198 10.9654 15.9472C10.8831 15.9541 10.787 15.9678 10.7252 15.906C10.6429 15.8305 10.6086 15.7207 10.5606 15.6247C10.5125 15.508 10.437 15.3914 10.437 15.261C10.6978 15.1855 10.9654 15.1649 11.233 15.1443C11.4663 15.1375 11.6996 15.1169 11.9261 15.1786C11.9947 15.1992 12.0702 15.2198 12.1251 15.2747C12.1662 15.3022 12.1525 15.3571 12.1594 15.3982C12.0221 15.5629 11.8369 15.659 11.6447 15.7482ZM11.7408 13.2985C11.6104 13.3259 11.5212 13.2162 11.4526 13.127C11.3565 12.9897 11.2467 12.8593 11.2056 12.6947C11.185 12.626 11.233 12.5506 11.3085 12.53C11.4251 12.4888 11.5487 12.4682 11.6722 12.4819C11.782 12.5025 11.8712 12.5849 11.9398 12.6741C12.0359 12.8182 12.1182 12.9829 12.2143 13.1338C12.0496 13.1887 11.8986 13.2711 11.7408 13.2985ZM15.405 10.396C15.4805 10.2862 15.6452 10.2656 15.7687 10.3067C15.8853 10.3411 15.954 10.4714 15.9265 10.5881C15.8922 10.6498 15.8167 10.6499 15.755 10.6636C15.6246 10.6773 15.4805 10.6773 15.3707 10.5881C15.3707 10.5263 15.3638 10.4508 15.405 10.396ZM15.1923 12.0496C15.2403 12.1388 15.158 12.2349 15.0894 12.2761C14.9933 12.331 14.8904 12.4133 14.7806 12.3653C14.6296 12.3173 14.4787 12.2624 14.3277 12.2144C14.5336 12.132 14.7394 12.0153 14.959 11.9742C15.0345 11.9604 15.1443 11.9673 15.1923 12.0496ZM13.6004 10.89C13.6621 10.8694 13.7239 10.89 13.7719 10.9106C13.8131 11.1164 13.6964 11.3086 13.5592 11.439C13.4219 11.5693 13.2504 11.6517 13.072 11.7134C12.9828 11.7409 12.8936 11.7409 12.8044 11.7272C12.8044 11.6654 12.7906 11.5899 12.8318 11.535C12.9142 11.384 13.0377 11.2605 13.1612 11.1507C13.2984 11.0478 13.4357 10.9449 13.6004 10.89ZM12.8112 10.1283C12.8318 10.046 12.9142 10.0186 12.9897 10.0186C13.0926 10.0117 13.2092 10.0186 13.2779 10.1078C13.2504 10.2244 13.1475 10.3067 13.0651 10.3891C12.9965 10.4508 12.9142 10.4989 12.8318 10.5401C12.7838 10.396 12.7838 10.2587 12.8112 10.1283ZM12.9759 17.5803C12.9691 17.6764 12.9485 17.8136 12.8387 17.8479C12.7701 17.8548 12.7083 17.7999 12.674 17.7518C12.5436 17.5803 12.5025 17.3607 12.4476 17.1549C12.4201 17.0657 12.4133 16.9696 12.4133 16.8735C12.5642 16.8324 12.7426 16.8461 12.8456 16.9696C12.9965 17.1412 12.9897 17.3744 12.9759 17.5803ZM12.9416 12.6535C12.8455 12.7701 12.7426 12.8868 12.6123 12.976C12.5711 13.0035 12.5299 12.9897 12.4887 12.9966C12.3995 12.8388 12.3103 12.6809 12.2966 12.4957C12.3035 12.4476 12.3172 12.3927 12.3584 12.3653C12.4819 12.283 12.6397 12.2967 12.7769 12.2967C12.8799 12.3036 13.0102 12.3035 13.0789 12.3927C13.0651 12.4888 13.0034 12.578 12.9416 12.6535ZM13.0857 14.3278C13.1132 14.218 13.2504 14.2523 13.3259 14.2866C13.4768 14.3621 13.6827 14.4856 13.6484 14.6846C13.5043 14.7601 13.3465 14.664 13.2435 14.5611C13.1749 14.4993 13.0995 14.4238 13.0857 14.3278ZM13.9229 17.7518C13.7993 17.7724 13.717 17.6627 13.6621 17.5666C13.6004 17.4499 13.5386 17.3264 13.5249 17.1892C13.6964 17.1686 13.8886 17.2441 13.9572 17.4156C13.9709 17.5254 13.9709 17.6489 13.9229 17.7518ZM14.1562 11.0204C14.1424 11.0135 14.1081 10.9929 14.0944 10.9861C14.0326 10.8763 14.0944 10.7596 14.1836 10.691C14.3071 10.5812 14.4581 10.5057 14.6022 10.4371C14.712 10.3891 14.8355 10.3342 14.959 10.3617C15.0688 10.4165 15.0551 10.5675 15.0482 10.6704C15.0413 10.7871 14.9247 10.8488 14.8286 10.89C14.609 10.9517 14.3826 11.0066 14.1562 11.0204ZM14.3071 14.5336C14.2248 14.417 14.1562 14.2523 14.2385 14.1219C14.3003 14.0327 14.4169 14.0122 14.513 14.0533C14.5816 14.2112 14.5336 14.3964 14.4238 14.5336C14.3895 14.5336 14.3483 14.5336 14.3071 14.5336ZM14.6914 17.8479C14.6571 17.7381 14.6228 17.6283 14.5953 17.5186L14.5816 17.498C14.5404 17.3401 14.4787 17.1823 14.4855 17.0108C14.712 17.0108 14.959 17.0451 15.1649 17.1617C15.0345 17.4088 14.8561 17.6283 14.6914 17.8479ZM15.4874 15.1032C15.4119 15.1718 15.309 15.1444 15.2266 15.11C15.0962 15.0483 14.9727 14.9591 14.9247 14.815C14.8767 14.616 14.9933 14.417 15.1443 14.2935C15.3364 14.417 15.453 14.6297 15.5148 14.8493C15.5354 14.9248 15.5423 15.0277 15.4874 15.1032ZM16.0294 15.1306C16.0157 15.165 16.002 15.1992 15.9951 15.2267C15.9334 15.213 15.8648 15.213 15.8305 15.1581C15.7344 15.0346 15.7275 14.863 15.7824 14.712C15.9471 14.6777 16.002 14.8699 16.0363 14.9934C16.0295 15.0414 16.0294 15.0826 16.0294 15.1306ZM16.0363 12.2624C15.9951 12.3378 15.9471 12.4133 15.8716 12.4476C15.7481 12.5094 15.6109 12.4957 15.4805 12.4819C15.4805 12.4202 15.4805 12.3584 15.5148 12.3035C15.5903 12.18 15.6726 12.0496 15.7893 11.9604C15.851 11.9124 15.954 11.885 16.002 11.9604C16.0638 12.0496 16.0295 12.1663 16.0363 12.2624ZM17.7792 13.7994C17.8273 13.6828 17.9027 13.5661 18.0331 13.5181C18.2252 13.4426 18.4997 13.573 18.4928 13.7994C18.5066 13.9573 18.3693 14.1151 18.2115 14.1151C18.0605 14.1288 17.9233 14.0464 17.8272 13.9435C17.7861 13.9023 17.7518 13.8475 17.7792 13.7994ZM16.2559 10.691C16.2628 10.5881 16.2902 10.4714 16.3863 10.4165C16.5166 10.3479 16.6745 10.3273 16.8117 10.3822C16.8117 10.444 16.8117 10.5126 16.8048 10.5675C16.8117 10.5126 16.8186 10.4577 16.8323 10.4028C16.8254 10.5263 16.8117 10.6567 16.7362 10.7596C16.6333 10.8763 16.4549 10.9037 16.3108 10.8488C16.249 10.8214 16.249 10.7459 16.2559 10.691ZM17.3401 12.8868C17.2577 12.9486 17.1479 12.9417 17.0587 12.928C16.8803 12.8937 16.7019 12.8456 16.5304 12.777C16.4686 12.7495 16.3863 12.7153 16.4 12.6329C16.4412 12.4133 16.6333 12.2555 16.8529 12.2281C17.0313 12.2075 17.2097 12.2487 17.3675 12.3447C17.4499 12.3996 17.4842 12.5094 17.4636 12.6054C17.443 12.7015 17.4293 12.8182 17.3401 12.8868ZM18.5821 16.4687C18.486 16.6334 18.3213 16.75 18.1429 16.8049C17.8753 16.8941 17.5596 16.8186 17.3812 16.6128C17.3469 16.5716 17.3675 16.5099 17.4087 16.4824C17.6008 16.3246 17.8135 16.1805 18.0606 16.1324C18.2253 16.105 18.4242 16.0913 18.5615 16.2079C18.6301 16.2765 18.6301 16.3932 18.5821 16.4687ZM19.6182 17.2715C19.4398 17.2372 19.2614 17.2304 19.083 17.1755C19.0006 17.148 18.8908 17.0931 18.9046 16.9902C18.9457 16.8804 19.0418 16.7981 19.1241 16.7157C19.2614 16.5991 19.4123 16.4893 19.577 16.4344C19.6182 16.4138 19.6731 16.4207 19.7143 16.4412C19.8584 16.4961 19.9887 16.599 20.0917 16.7226C19.9887 16.9421 19.8035 17.1206 19.6182 17.2715Z" fill="#009E3F"/>
</svg>
