<svg width="30" height="30" viewBox="0 0 30 30" fill="none" xmlns="http://www.w3.org/2000/svg">
<path d="M15.0001 30.0003C23.2824 30.0003 30.0001 23.2841 30.0001 15.0037H0.00012207C0.00012207 23.2841 6.71787 30.0003 15.0001 30.0003Z" fill="#CE1126"/>
<path d="M15 0.000274658C6.71774 0.000274658 0 6.71648 0 14.9968H30C30 6.71648 23.2823 0.000274658 15 0.000274658Z" fill="#002B7F"/>
<path d="M7.52764 4.69955C7.59626 4.7956 7.658 4.89162 7.72662 4.98081C7.74721 5.01511 7.74721 5.05629 7.72662 5.0906C7.67859 5.18664 7.63745 5.28955 7.58942 5.39245C7.62373 5.41303 7.64431 5.44046 7.67176 5.4679C7.74724 5.4336 7.82269 5.39246 7.89817 5.35816C7.93248 5.34444 7.97367 5.35127 8.00798 5.37185C8.11091 5.43359 8.20697 5.49535 8.30303 5.55709C8.30303 5.57081 8.29615 5.58452 8.28243 5.59138C8.20009 5.65999 8.10405 5.71488 8.01485 5.77662C7.9874 5.7972 7.95995 5.80404 7.92564 5.79032C7.85016 5.75601 7.78154 5.72174 7.70606 5.6943C7.67861 5.72861 7.65116 5.75605 7.61685 5.78349C7.65116 5.85209 7.69918 5.91382 7.73349 5.98242C7.74721 6.00987 7.74721 6.0373 7.73349 6.06474C7.7129 6.10591 7.69234 6.15393 7.67176 6.19509C7.77468 6.22253 7.87075 6.29115 7.92564 6.38033C7.99426 6.49696 7.99427 6.64103 7.97368 6.77137C7.95996 6.8194 7.94622 6.87426 7.91877 6.92228C7.95994 6.92228 7.99427 6.9223 8.02172 6.94288C8.0423 6.94974 8.06286 6.96345 8.07658 6.97031C8.12461 6.92914 8.16581 6.88114 8.22756 6.86056C8.28246 6.83312 8.35792 6.82625 8.41967 6.84683C8.44712 6.86055 8.4677 6.88114 8.49514 6.90172C8.5569 6.81254 8.65298 6.75077 8.76277 6.74391C8.83825 6.73704 8.91373 6.76451 8.97548 6.81253C9.01665 6.75765 9.06471 6.69589 9.12647 6.66845C9.19508 6.63415 9.27743 6.63415 9.34605 6.66845C9.38036 6.68903 9.40777 6.71646 9.44208 6.74391C9.51756 6.62728 9.68228 6.57928 9.81265 6.64103C9.85382 6.66161 9.88128 6.69591 9.90873 6.73021C9.97048 6.66847 10.0597 6.62731 10.1557 6.64103C10.2518 6.65475 10.3273 6.72334 10.3822 6.7988C10.4576 6.74392 10.5537 6.7096 10.6429 6.73704C10.7184 6.75076 10.7733 6.81251 10.8076 6.87425C10.8282 6.91541 10.8419 6.96344 10.8556 7.01147C10.9517 6.99775 11.0478 7.0046 11.1301 7.05263C11.1987 7.08693 11.2468 7.1624 11.2536 7.23787C11.2673 7.29275 11.2536 7.34763 11.2468 7.40251C11.3222 7.40251 11.4046 7.42994 11.4663 7.47796C11.5075 7.51226 11.535 7.57403 11.5281 7.62891C11.5281 7.71809 11.4801 7.8004 11.4252 7.869C11.4938 7.88958 11.5693 7.91704 11.6173 7.97192C11.6722 8.0268 11.6928 8.10913 11.6654 8.18459C11.6448 8.26691 11.5899 8.33551 11.5281 8.39039C11.5967 8.41783 11.6585 8.46583 11.6859 8.5413C11.6996 8.60304 11.6928 8.67165 11.6654 8.72654C11.6311 8.78828 11.583 8.83631 11.5212 8.86375C11.5693 8.91863 11.6173 8.98722 11.6105 9.06268C11.6173 9.15873 11.5487 9.24107 11.4732 9.29595C11.5555 9.33711 11.6379 9.37141 11.7134 9.41943C11.7683 9.45373 11.8232 9.48116 11.8712 9.52918V9.53605C11.7408 9.61151 11.6516 9.73501 11.5762 9.8585C11.4183 10.1123 11.3085 10.3867 11.1919 10.668C11.1095 10.8532 11.034 11.0453 10.9448 11.2306C10.8831 11.354 10.8213 11.4775 10.739 11.5873C10.6978 11.649 10.6223 11.6833 10.5537 11.7039C10.3822 11.7657 10.2038 11.7931 10.0185 11.8137C9.57248 11.8685 9.11957 11.8823 8.66669 11.8891L7.52077 11.9166L6.39542 11.8891C6.05233 11.8823 5.70923 11.8754 5.36614 11.848C5.1946 11.8342 5.02306 11.8137 4.85837 11.7862C4.72113 11.7588 4.59075 11.7313 4.46724 11.6833C4.41235 11.6627 4.36435 11.6284 4.33004 11.5804C4.24083 11.4638 4.17907 11.3266 4.11045 11.1962C3.96635 10.8875 3.84282 10.5651 3.70559 10.2564C3.63697 10.0986 3.55464 9.94767 3.46544 9.80361C3.39682 9.69384 3.31447 9.59092 3.19781 9.52918C3.2184 9.5086 3.239 9.49487 3.25959 9.48115C3.36938 9.40569 3.48603 9.35769 3.60268 9.29595C3.5272 9.24793 3.45858 9.15873 3.46544 9.06268C3.46544 8.98722 3.50661 8.91864 3.55464 8.87062C3.49289 8.83632 3.43798 8.78827 3.41053 8.71967C3.37622 8.65107 3.37623 8.55501 3.42427 8.49327C3.45858 8.44525 3.50661 8.41783 3.55464 8.39039C3.49289 8.33551 3.43798 8.26691 3.4174 8.18459C3.39681 8.11599 3.41054 8.03363 3.46544 7.97875C3.51347 7.91701 3.5958 7.88958 3.66442 7.869C3.60266 7.8004 3.55464 7.71809 3.55464 7.62204C3.55464 7.5603 3.58208 7.50539 3.63012 7.46423C3.69187 7.4162 3.76734 7.4025 3.83596 7.39564C3.8291 7.3339 3.81537 7.27214 3.82909 7.2104C3.84282 7.1418 3.88402 7.08006 3.94578 7.04576C4.02812 6.99774 4.12415 6.99088 4.21336 7.0046C4.22708 6.94972 4.24081 6.89485 4.26826 6.85369C4.30257 6.79195 4.36433 6.73707 4.43981 6.72335C4.52901 6.70277 4.61821 6.73705 4.68683 6.79193C4.73486 6.70961 4.81721 6.64788 4.91328 6.63416C5.00248 6.62044 5.09168 6.6616 5.16029 6.72335C5.18774 6.68904 5.21519 6.65474 5.2495 6.63416C5.37302 6.56556 5.54459 6.61355 5.62007 6.73704C5.64752 6.7096 5.68179 6.68217 5.7161 6.66159C5.77786 6.62728 5.8602 6.62728 5.92882 6.66159C5.99744 6.68903 6.0455 6.75078 6.08667 6.80567C6.14843 6.75764 6.23077 6.73018 6.29939 6.73704C6.40231 6.75076 6.49838 6.81253 6.56014 6.89485C6.59445 6.86055 6.63561 6.83309 6.68365 6.83309C6.8003 6.81937 6.90322 6.88798 6.97183 6.96344C7.01987 6.92914 7.07475 6.90855 7.12964 6.91541C7.06102 6.76449 7.04045 6.58615 7.09534 6.42836C7.13651 6.30487 7.25318 6.22253 7.36983 6.18822C7.34925 6.14706 7.32864 6.09904 7.30806 6.05788C7.29433 6.0373 7.29433 6.00987 7.30806 5.98242C7.34237 5.91382 7.38353 5.84523 7.4247 5.77662C7.39039 5.74918 7.36298 5.72174 7.33553 5.6943C7.26005 5.72174 7.18457 5.75601 7.11595 5.79032C7.0885 5.80404 7.05419 5.7972 7.02674 5.77662C6.93754 5.71488 6.84833 5.65999 6.76599 5.59825C6.75226 5.59139 6.74538 5.57082 6.74538 5.56396C6.84145 5.50221 6.93751 5.44046 7.04044 5.38558C7.07474 5.365 7.11595 5.35127 7.15712 5.37185C7.2326 5.40615 7.30805 5.44734 7.3904 5.48164C7.41098 5.4542 7.43843 5.42676 7.47274 5.39932C7.4247 5.31013 7.39039 5.20721 7.34236 5.11802C7.32864 5.09058 7.31493 5.06314 7.32179 5.02883C7.32866 5.00139 7.34925 4.97396 7.36983 4.94651C7.41787 4.86419 7.47275 4.78188 7.52764 4.69955Z" fill="black"/>
<path d="M7.52778 4.80933C7.56209 4.8505 7.58267 4.9054 7.61012 4.94657C7.63071 4.97402 7.65817 4.9946 7.66503 5.02891C7.67189 5.0495 7.66502 5.06323 7.65816 5.08382C7.61699 5.17302 7.57582 5.26224 7.53465 5.35144C7.49348 5.2691 7.45231 5.18672 7.41114 5.10438C7.39742 5.07693 7.38368 5.04952 7.39741 5.01522C7.40427 4.99463 7.41798 4.98089 7.43171 4.96031C7.46602 4.91914 7.49347 4.86422 7.52778 4.80933Z" fill="#FFD83D"/>
<path d="M7.00629 5.47498C7.04746 5.45439 7.09551 5.42695 7.14354 5.44068C7.2053 5.46126 7.2602 5.4887 7.32195 5.51615C7.30823 5.55732 7.30135 5.59848 7.30822 5.63965C7.2396 5.67396 7.17099 5.70141 7.10237 5.72199C7.06806 5.73572 7.02687 5.71514 6.99943 5.68769C6.95139 5.65338 6.91025 5.62593 6.86222 5.59162C6.8485 5.58475 6.8485 5.56418 6.86222 5.55732C6.91025 5.52301 6.95826 5.50242 7.00629 5.47498Z" fill="#FFD83D"/>
<path d="M7.91212 5.44065C7.93957 5.43379 7.97388 5.44062 8.00133 5.44748C8.05622 5.47493 8.10423 5.50241 8.15227 5.52986C8.17285 5.54359 8.20717 5.55042 8.2003 5.58473C8.15227 5.6259 8.09052 5.66024 8.03563 5.70141C8.01504 5.71513 7.98074 5.72883 7.95329 5.72197C7.88467 5.69452 7.81606 5.66708 7.74744 5.63963C7.74744 5.59846 7.74057 5.5573 7.7337 5.51613C7.79546 5.48868 7.85036 5.45438 7.91212 5.44065Z" fill="#FFD83D"/>
<path d="M7.47977 5.48183C7.55525 5.44752 7.64444 5.51612 7.64444 5.5916C7.65817 5.66022 7.6033 5.72199 7.54154 5.73572C7.47292 5.74258 7.41116 5.68766 7.4043 5.61904C7.4043 5.56414 7.43173 5.50242 7.47977 5.48183Z" fill="#FFD83D"/>
<path d="M7.41115 5.93442C7.43173 5.88639 7.44545 5.83149 7.48662 5.79718C7.51407 5.79032 7.54152 5.79718 7.57583 5.79718C7.61014 5.84521 7.63072 5.90697 7.66503 5.96872C7.67876 5.99617 7.69246 6.03049 7.6856 6.0648C7.67187 6.10597 7.64444 6.14713 7.617 6.18144C7.5621 6.18144 7.50721 6.18144 7.45232 6.18144C7.42487 6.14713 7.40426 6.10597 7.38367 6.0648C7.36309 6.01677 7.39743 5.97559 7.41115 5.93442Z" fill="#FFD83D"/>
<path d="M7.46603 6.23628C7.5072 6.22255 7.54837 6.22255 7.59641 6.23628C7.59641 6.33234 7.60328 6.43526 7.61014 6.53133C7.69935 6.54505 7.78856 6.54507 7.8709 6.55194C7.88462 6.55194 7.91207 6.55191 7.91894 6.5725C7.9258 6.62053 7.91893 6.66171 7.91207 6.70974C7.88462 6.70974 7.85718 6.70974 7.82973 6.70288C7.73366 6.68915 7.63762 6.68918 7.54841 6.68918C7.44548 6.68918 7.33568 6.68915 7.23275 6.70288C7.2053 6.70974 7.17785 6.70974 7.14354 6.70974C7.13668 6.66171 7.12982 6.61366 7.14354 6.56563C7.24647 6.54505 7.34941 6.55192 7.45234 6.5382C7.4592 6.42841 7.46603 6.33234 7.46603 6.23628Z" fill="#FFD83D"/>
<path d="M7.30823 6.30487C7.33568 6.28429 7.36313 6.27056 7.39744 6.2637C7.39744 6.33232 7.39057 6.40097 7.39057 6.46272C7.32881 6.46958 7.26021 6.46958 7.19159 6.46272C7.20531 6.40097 7.25333 6.34604 7.30823 6.30487Z" fill="#FFD83D"/>
<path d="M7.65826 6.2637C7.72688 6.27743 7.78178 6.32549 7.82981 6.38038C7.84353 6.40783 7.85726 6.43528 7.87098 6.46959C7.80236 6.48332 7.74063 6.47645 7.67887 6.46959C7.67201 6.39411 7.66513 6.33232 7.65826 6.2637Z" fill="#FFD83D"/>
<path d="M5.33893 6.68907C5.39382 6.6822 5.44874 6.69589 5.48991 6.73706C5.56539 6.81254 5.55852 6.94293 5.47617 7.00468C5.40756 7.05272 5.31835 7.05272 5.25659 7.00468C5.18797 6.94979 5.17425 6.84688 5.21542 6.7714C5.23601 6.72337 5.28403 6.68907 5.33893 6.68907Z" fill="#FFD83D"/>
<path d="M9.65493 6.68909C9.70983 6.68222 9.77161 6.68908 9.81279 6.73026C9.88827 6.79887 9.88827 6.92235 9.81279 6.99097C9.75103 7.04586 9.64808 7.05273 9.5726 6.99784C9.5177 6.9498 9.49028 6.86061 9.51773 6.79199C9.54518 6.74396 9.59318 6.69595 9.65493 6.68909Z" fill="#FFD83D"/>
<path d="M4.86539 6.7165C4.92029 6.70278 4.98203 6.70962 5.0232 6.74393C5.10554 6.80569 5.11929 6.94294 5.04381 7.01155C4.99577 7.06645 4.91345 7.07331 4.84483 7.05272C4.76249 7.02528 4.71444 6.92235 4.74188 6.84001C4.75561 6.78511 4.80363 6.73022 4.86539 6.7165Z" fill="#FFD83D"/>
<path d="M10.0942 6.7165C10.156 6.70278 10.2315 6.70964 10.2726 6.76454C10.3344 6.83316 10.3413 6.94981 10.2726 7.01842C10.2246 7.07332 10.1423 7.08018 10.0805 7.05959C10.0119 7.03901 9.9707 6.97724 9.96384 6.91548C9.95698 6.82628 10.005 6.73709 10.0942 6.7165Z" fill="#FFD83D"/>
<path d="M5.77116 6.75078C5.83291 6.73706 5.90154 6.75078 5.94957 6.79195C6.02505 6.86057 6.01819 6.99096 5.94957 7.05957C5.88781 7.11447 5.79174 7.11448 5.72312 7.07331C5.6545 7.02528 5.6339 6.92921 5.66821 6.85373C5.68194 6.79883 5.72312 6.76451 5.77116 6.75078Z" fill="#FFD83D"/>
<path d="M7.17102 6.77821C7.25336 6.75762 7.34944 6.75078 7.43864 6.75078C7.5896 6.75078 7.74059 6.7439 7.89155 6.77821C7.88469 6.82624 7.85722 6.87428 7.82977 6.91545C7.78174 6.98407 7.71314 7.03898 7.63079 7.05957C7.58276 7.06643 7.54158 7.06644 7.49355 7.06644C7.39748 7.06644 7.30142 7.01841 7.23966 6.94293C7.21222 6.88803 7.17788 6.8331 7.17102 6.77821Z" fill="#FFD83D"/>
<path d="M9.18845 6.75081C9.24334 6.74394 9.30513 6.7508 9.3463 6.78511C9.42864 6.84686 9.43547 6.99098 9.35312 7.0596C9.29137 7.11449 9.1816 7.11449 9.11984 7.0596C9.05122 7.0047 9.03752 6.88803 9.09241 6.81941C9.113 6.7851 9.14727 6.75767 9.18845 6.75081Z" fill="#FFD83D"/>
<path d="M4.42625 6.81255C4.48115 6.80568 4.5498 6.80568 4.59097 6.84685C4.67331 6.9086 4.67328 7.04585 4.5978 7.11447C4.5429 7.1625 4.46058 7.16935 4.39882 7.1419C4.30962 7.10759 4.27531 6.99092 4.31648 6.90858C4.3302 6.86741 4.37136 6.82627 4.42625 6.81255Z" fill="#FFD83D"/>
<path d="M10.5333 6.81255C10.5745 6.79883 10.6294 6.7988 10.6706 6.82625C10.7323 6.86056 10.7667 6.93604 10.7529 7.00466C10.7461 7.06642 10.7049 7.12819 10.65 7.14878C10.5882 7.16936 10.5265 7.16248 10.4716 7.12817C10.403 7.087 10.3824 6.99094 10.4098 6.91546C10.4373 6.86742 10.4785 6.82628 10.5333 6.81255Z" fill="#FFD83D"/>
<path d="M6.23787 6.82624C6.29963 6.81252 6.37512 6.82625 6.41629 6.87428C6.4849 6.9429 6.47804 7.06641 6.40942 7.13503C6.34766 7.18993 6.23789 7.1968 6.17614 7.1419C6.0938 7.08014 6.08693 6.92917 6.16927 6.86741C6.18299 6.84682 6.21042 6.8331 6.23787 6.82624Z" fill="#FFD83D"/>
<path d="M8.72861 6.82624C8.79036 6.81252 8.85899 6.82625 8.90702 6.87428C8.97564 6.9429 8.97564 7.05955 8.90702 7.12816C8.8384 7.18992 8.72862 7.19679 8.66 7.13503C8.58452 7.06641 8.58452 6.92917 8.66 6.86741C8.67373 6.84682 8.70116 6.8331 8.72861 6.82624Z" fill="#FFD83D"/>
<path d="M6.68378 6.92226C6.74554 6.90854 6.80729 6.92914 6.84846 6.97717C6.91708 7.05265 6.9102 7.17617 6.83472 7.23792C6.77296 7.28596 6.67689 7.28596 6.61514 7.24479C6.53279 7.1899 6.51908 7.05265 6.5877 6.97717C6.60829 6.94972 6.64261 6.92913 6.68378 6.92226Z" fill="#FFD83D"/>
<path d="M8.26898 6.92915C8.33073 6.90857 8.40618 6.91541 8.45422 6.95659C8.53656 7.0252 8.5297 7.16246 8.45422 7.23108C8.37874 7.29969 8.23467 7.27911 8.18664 7.18991C8.13174 7.1007 8.17291 6.96346 8.26898 6.92915Z" fill="#FFD83D"/>
<path d="M7.09549 7.00465C7.15725 6.99092 7.22588 7.00465 7.27391 7.05268C7.33567 7.11444 7.34253 7.23108 7.28078 7.2997C7.23274 7.36146 7.13668 7.37518 7.06806 7.34087C7.02003 7.32028 6.97884 7.27226 6.96512 7.21736C6.94453 7.12816 6.99943 7.01837 7.09549 7.00465Z" fill="#FFD83D"/>
<path d="M7.87089 7.00465C7.93265 6.99092 8.00814 7.00465 8.05618 7.05268C8.11107 7.11444 8.1179 7.21739 8.06987 7.28601C8.02184 7.36149 7.91207 7.37517 7.83659 7.334C7.74739 7.29283 7.71992 7.16933 7.76795 7.08699C7.78167 7.04581 7.82286 7.01151 7.87089 7.00465Z" fill="#FFD83D"/>
<path d="M10.9861 7.08691C11.0341 7.08691 11.0822 7.09378 11.1165 7.13495C11.1782 7.18985 11.1851 7.29965 11.1371 7.36827C11.0753 7.45062 10.9381 7.45745 10.8695 7.38197C10.8077 7.31335 10.8146 7.18984 10.8832 7.12808C10.9107 7.10064 10.9449 7.09378 10.9861 7.08691Z" fill="#FFD83D"/>
<path d="M3.98709 7.10066C4.04198 7.08007 4.11057 7.08005 4.16546 7.12122C4.2478 7.17612 4.25468 7.30649 4.18607 7.38198C4.11059 7.45746 3.95961 7.44374 3.91157 7.34767C3.86354 7.26533 3.89788 7.14183 3.98709 7.10066Z" fill="#FFD83D"/>
<path d="M5.00948 7.12808C5.34571 7.10063 5.67508 7.14183 6.00445 7.20359C6.34754 7.26535 6.68376 7.35455 7.01999 7.45747C7.01999 7.51923 7.01314 7.58095 6.98569 7.63585C6.64946 7.53978 6.30637 7.45059 5.95641 7.3957C5.79859 7.36825 5.64077 7.34765 5.48294 7.34079C5.27709 7.32707 5.05749 7.3408 4.85849 7.38883C4.72126 7.42314 4.59088 7.48491 4.47423 7.57411C4.33699 7.67704 4.22033 7.81426 4.16544 7.98581C4.11054 8.17108 4.11744 8.37009 4.15861 8.56222C4.20665 8.82297 4.3164 9.07001 4.42619 9.30331C4.30954 9.22783 4.17231 9.21408 4.04193 9.18663C3.98704 9.00136 3.939 8.81609 3.91155 8.62396C3.87038 8.36321 3.88414 8.08876 3.98707 7.83487C4.04882 7.69077 4.13115 7.56039 4.23408 7.44374C4.3027 7.3614 4.3919 7.29962 4.48797 7.25159C4.64579 7.17611 4.82421 7.1418 5.00948 7.12808Z" fill="#FFD83D"/>
<path d="M9.01683 7.20359C9.35992 7.14183 9.70988 7.10063 10.053 7.12808C10.1833 7.1418 10.3137 7.15555 10.4372 7.19672C10.5676 7.23789 10.698 7.3065 10.7941 7.40257C10.945 7.56725 11.0685 7.75253 11.1234 7.97211C11.1852 8.19169 11.1852 8.42498 11.1509 8.64456C11.1234 8.82983 11.0754 9.00822 11.0205 9.18663C10.8901 9.20722 10.746 9.22783 10.6363 9.30331C10.7255 9.11804 10.8009 8.93276 10.8627 8.73377C10.9176 8.52105 10.9587 8.30147 10.9176 8.08875C10.897 7.95152 10.8284 7.82115 10.7392 7.71136C10.6019 7.5604 10.4166 7.44373 10.2177 7.3957C9.92945 7.31336 9.62067 7.32709 9.31875 7.3614C8.89331 7.40943 8.4816 7.52606 8.06989 7.63585C8.04244 7.58095 8.03559 7.5192 8.04246 7.4643C8.36496 7.35451 8.68746 7.27221 9.01683 7.20359Z" fill="#FFD83D"/>
<path d="M7.47976 7.13494C7.53466 7.10749 7.61016 7.13495 7.63075 7.18985C7.66506 7.2516 7.63073 7.32707 7.56897 7.34766C7.51408 7.3751 7.43862 7.33395 7.41803 7.27906C7.39745 7.22416 7.42487 7.15553 7.47976 7.13494Z" fill="#FFD83D"/>
<path d="M5.29083 7.41623C5.332 7.41623 5.37317 7.40937 5.41434 7.41623C5.41434 7.90342 5.41434 8.39057 5.41434 8.87776C5.37317 8.88463 5.332 8.89151 5.29083 8.89837C5.29083 8.40432 5.29083 7.91028 5.29083 7.41623Z" fill="#FFD83D"/>
<path d="M5.47614 7.41626C5.51731 7.41626 5.56534 7.42309 5.60651 7.42309C5.60651 7.91714 5.60651 8.40435 5.60651 8.8984C5.56534 8.89154 5.52417 8.8778 5.47614 8.8778C5.47614 8.39747 5.47614 7.90345 5.47614 7.41626Z" fill="#FFD83D"/>
<path d="M9.45593 7.42996C9.4971 7.4231 9.53827 7.4231 9.57944 7.4231C9.57944 7.91029 9.57944 8.39748 9.57944 8.88467C9.53827 8.88467 9.4971 8.89156 9.45593 8.90528C9.45593 8.41123 9.45593 7.91716 9.45593 7.42996Z" fill="#FFD83D"/>
<path d="M9.83337 7.41626C9.8814 7.42312 9.92945 7.42995 9.97062 7.42995C9.97748 7.64267 9.97748 7.85542 9.97062 8.06128C9.96376 8.19851 9.97748 8.3426 9.97062 8.47984C9.97748 8.65825 9.97062 8.8298 9.97749 9.00135C9.92945 8.9739 9.8814 8.93959 9.83337 8.91901C9.83337 8.42495 9.82651 7.92404 9.83337 7.41626Z" fill="#FFD83D"/>
<path d="M5.08499 7.43683C5.13303 7.42997 5.17421 7.42996 5.22224 7.4231C5.22224 7.86912 5.22224 8.31514 5.22224 8.7543C5.22224 8.80919 5.22224 8.87095 5.22224 8.92584C5.17421 8.94643 5.12616 8.98073 5.07812 9.00818C5.08499 8.72685 5.07813 8.44552 5.08499 8.16419C5.08499 7.91716 5.08499 7.677 5.08499 7.43683Z" fill="#FFD83D"/>
<path d="M7.11617 7.42997C7.19165 7.42311 7.26713 7.42999 7.33575 7.45057C7.30144 7.77994 7.27398 8.10931 7.23281 8.43181C7.21222 8.58277 7.19851 8.73371 7.15734 8.87781C7.05441 8.8984 6.97204 8.96705 6.87598 9.00136C6.93087 8.83668 6.97204 8.66513 7.00635 8.48672C7.07497 8.13677 7.10244 7.77992 7.11617 7.42997Z" fill="#FFD83D"/>
<path d="M9.64819 7.41626C9.68936 7.41626 9.73053 7.41626 9.7717 7.41626C9.7717 7.91031 9.7717 8.40435 9.7717 8.8984C9.73053 8.88468 9.68936 8.88466 9.64819 8.8778C9.64819 8.3906 9.64819 7.90345 9.64819 7.41626Z" fill="#FFD83D"/>
<path d="M7.71991 7.4437C7.79539 7.42312 7.86401 7.4231 7.93263 7.4231C7.94635 7.68385 7.96692 7.94461 8.00123 8.20536C8.0424 8.47297 8.08358 8.7406 8.17964 8.99449C8.08358 8.96018 8.00121 8.89156 7.89828 8.87098C7.85025 8.71316 7.83653 8.54846 7.81594 8.39064C7.7885 8.18478 7.76793 7.97204 7.75421 7.76619C7.74049 7.66326 7.72677 7.55349 7.71991 7.4437Z" fill="#FFD83D"/>
<path d="M5.66138 7.68381C5.66138 7.60147 5.66138 7.51914 5.66138 7.4368C5.71627 7.44366 5.7643 7.45051 5.82605 7.46423C5.82605 7.64264 5.82605 7.82107 5.82605 8.00634C5.82605 8.34257 5.82605 8.67195 5.82605 9.00132C5.77116 8.97387 5.71627 8.94643 5.66138 8.91898C5.66138 8.78174 5.66138 8.63761 5.66138 8.50038C5.66138 8.2259 5.66138 7.95829 5.66138 7.68381Z" fill="#FFD83D"/>
<path d="M9.23641 7.46423C9.28444 7.45051 9.34619 7.44366 9.40109 7.4368C9.40109 7.93085 9.40109 8.42489 9.40109 8.92581C9.34619 8.94639 9.2913 8.9807 9.23641 9.00815C9.23641 8.55526 9.23641 8.10926 9.23641 7.65638C9.22955 7.58776 9.22955 7.52599 9.23641 7.46423Z" fill="#FFD83D"/>
<path d="M4.86542 7.49173C4.92031 7.47801 4.96833 7.45742 5.02323 7.45056C5.02323 7.98579 5.02323 8.52786 5.02323 9.06308C4.97519 9.11111 4.92031 9.15228 4.86542 9.18659C4.86542 8.61705 4.86542 8.0544 4.86542 7.49173Z" fill="#FFD83D"/>
<path d="M7.47977 7.44367C7.52781 7.42995 7.57585 7.42992 7.61702 7.46423C7.67191 7.50541 7.67875 7.59462 7.63758 7.64265C7.58269 7.71127 7.4592 7.7113 7.41117 7.62895C7.37 7.5672 7.40429 7.47112 7.47977 7.44367Z" fill="#FFD83D"/>
<path d="M10.0324 7.45056C10.0804 7.46429 10.1353 7.47801 10.1902 7.49173C10.1971 8.0544 10.1902 8.62392 10.1902 9.18659C10.1353 9.15228 10.0804 9.11111 10.0324 9.06308C10.0324 8.52786 10.0324 7.98579 10.0324 7.45056Z" fill="#FFD83D"/>
<path d="M5.88788 7.47797C5.93591 7.48483 5.98395 7.50541 6.02512 7.51914C6.02512 8.06808 6.02512 8.61705 6.02512 9.166C5.97709 9.12483 5.93591 9.08366 5.88788 9.04249C5.88788 8.52099 5.88788 7.99947 5.88788 7.47797Z" fill="#FFD83D"/>
<path d="M9.03052 7.51914C9.07169 7.49855 9.12659 7.48483 9.16776 7.47797C9.16776 7.94457 9.16776 8.40433 9.16776 8.86407C9.16776 8.92583 9.16776 8.98759 9.16776 9.04249C9.11973 9.08366 9.07169 9.11796 9.03052 9.166C9.03052 8.61705 9.03052 8.06808 9.03052 7.51914Z" fill="#FFD83D"/>
<path d="M3.78119 7.48483C3.83609 7.48483 3.891 7.49857 3.92531 7.54661C3.98706 7.62209 3.97335 7.7456 3.89101 7.80049C3.83611 7.8348 3.76061 7.8348 3.69885 7.80049C3.62337 7.75246 3.60281 7.64951 3.63712 7.56717C3.66457 7.51914 3.7263 7.48483 3.78119 7.48483Z" fill="#FFD83D"/>
<path d="M11.2675 7.48485C11.3292 7.47799 11.391 7.51229 11.4184 7.56719C11.4596 7.64267 11.439 7.75248 11.3635 7.80051C11.2949 7.83482 11.2057 7.8348 11.144 7.7799C11.0753 7.71815 11.0685 7.59464 11.1371 7.53289C11.1783 7.50544 11.2194 7.48485 11.2675 7.48485Z" fill="#FFD83D"/>
<path d="M4.64587 7.58091C4.6939 7.56033 4.74882 7.53972 4.79685 7.51227C4.79685 8.07494 4.79685 8.6445 4.79685 9.21404C4.74196 9.22776 4.6802 9.23459 4.62531 9.22086C4.62531 8.67878 4.62531 8.1367 4.62531 7.60148C4.62531 7.58775 4.63901 7.58777 4.64587 7.58091Z" fill="#FFD83D"/>
<path d="M10.2588 7.51227C10.3205 7.53285 10.3754 7.56033 10.4303 7.58778C10.4303 8.12987 10.4303 8.67191 10.4303 9.22086C10.3754 9.23459 10.3137 9.22776 10.2588 9.21404C10.2588 8.6445 10.2588 8.07494 10.2588 7.51227Z" fill="#FFD83D"/>
<path d="M6.09368 7.5466C6.14172 7.55346 6.19663 7.57401 6.2378 7.5946C6.2378 8.17099 6.2378 8.74739 6.2378 9.31693C6.18976 9.29634 6.14859 9.26203 6.10742 9.22772C6.08684 9.214 6.09368 9.19344 6.09368 9.17286C6.09368 8.63077 6.09368 8.08182 6.09368 7.5466Z" fill="#FFD83D"/>
<path d="M8.8179 7.5946C8.86594 7.57401 8.91398 7.55346 8.96202 7.5466C8.96202 8.09555 8.96202 8.65134 8.96202 9.20029C8.96202 9.21401 8.962 9.22772 8.94828 9.22772C8.90711 9.26203 8.86593 9.29635 8.81104 9.3238C8.81104 8.91895 8.81104 8.50726 8.81104 8.10241C8.81104 7.96517 8.8179 7.82104 8.81104 7.6838C8.8179 7.65636 8.8179 7.62204 8.8179 7.5946Z" fill="#FFD83D"/>
<path d="M6.29959 7.62204C6.35449 7.64263 6.4025 7.67006 6.45053 7.69751C6.45053 8.12981 6.45053 8.55524 6.45053 8.98067C6.45053 9.09046 6.45053 9.20711 6.45053 9.3169C6.4025 9.33748 6.34762 9.35123 6.29272 9.3375C6.29272 9.25516 6.29273 9.17283 6.29959 9.09049C6.29959 8.84346 6.29959 8.59642 6.29959 8.34939C6.29273 8.10923 6.29959 7.8622 6.29959 7.62204Z" fill="#FFD83D"/>
<path d="M8.60516 7.69751C8.65319 7.67006 8.70121 7.64263 8.7561 7.62204C8.7561 8.19844 8.7561 8.76798 8.7561 9.34437C8.70807 9.3581 8.64633 9.34435 8.60516 9.32377C8.60516 8.87088 8.60516 8.41114 8.60516 7.9514C8.60516 7.86905 8.5983 7.77985 8.60516 7.69751Z" fill="#FFD83D"/>
<path d="M4.43315 7.75242C4.46746 7.70439 4.5155 7.67005 4.56353 7.63574C4.56353 7.75926 4.56353 7.88966 4.56353 8.00631C4.56353 8.09551 4.55667 8.18473 4.56353 8.27393C4.56353 8.57585 4.56353 8.87774 4.56353 9.17966C4.50863 9.14535 4.46059 9.09734 4.42628 9.03559C4.41256 9.02186 4.41946 8.9944 4.41946 8.97381C4.41946 8.57582 4.41946 8.17784 4.41946 7.77986C4.41946 7.77986 4.42629 7.76615 4.43315 7.75242Z" fill="#FFD83D"/>
<path d="M10.4921 7.63574C10.5402 7.67005 10.5882 7.70439 10.6294 7.75242C10.6431 7.76615 10.6362 7.7867 10.6431 7.80729C10.6431 8.19841 10.6431 8.58955 10.6431 8.98068C10.6431 9.00127 10.6431 9.02187 10.6294 9.04246C10.5951 9.09735 10.547 9.14536 10.4921 9.18653C10.4921 8.66503 10.4921 8.15038 10.4921 7.63574Z" fill="#FFD83D"/>
<path d="M6.51227 7.74551C6.57403 7.77296 6.62892 7.80725 6.67695 7.84842C6.68381 7.93076 6.67695 8.01313 6.67695 8.09548C6.67695 8.23271 6.67695 8.37681 6.67695 8.52091C6.67009 8.7199 6.67694 8.91202 6.67008 9.11102C6.67008 9.12474 6.67007 9.13159 6.65634 9.13845C6.60831 9.18648 6.56029 9.23452 6.49854 9.26883C6.51226 8.76105 6.51227 8.25329 6.51227 7.74551Z" fill="#FFD83D"/>
<path d="M8.37872 7.84842C8.42676 7.80039 8.48851 7.77296 8.5434 7.73865C8.5434 8.24642 8.5434 8.76105 8.5434 9.26883C8.47478 9.23452 8.42676 9.17966 8.37872 9.13162C8.37872 8.93949 8.37872 8.75421 8.37872 8.56208C8.37872 8.32878 8.37872 8.08858 8.37872 7.84842Z" fill="#FFD83D"/>
<path d="M7.50037 7.76611C7.58957 7.74553 7.68562 7.81416 7.69248 7.91023C7.69934 7.97885 7.65133 8.04745 7.58958 8.06804C7.56213 8.0749 7.53468 8.07491 7.50037 8.07491C7.43175 8.06118 7.37686 7.99258 7.37686 7.9171C7.37 7.84848 7.42489 7.77984 7.50037 7.76611Z" fill="#FFD83D"/>
<path d="M4.26843 8.02683C4.28216 7.95821 4.3096 7.88961 4.35077 7.83472C4.35764 7.97195 4.35078 8.10917 4.35764 8.24641C4.35764 8.43854 4.35764 8.62382 4.35764 8.81596C4.35764 8.85027 4.35764 8.88459 4.35077 8.9189C4.28216 8.76794 4.25473 8.59638 4.241 8.43169C4.23414 8.29446 4.24099 8.1572 4.26843 8.02683Z" fill="#FFD83D"/>
<path d="M10.7049 7.83472C10.7803 7.93078 10.7941 8.06116 10.8078 8.18468C10.8215 8.41112 10.8009 8.64442 10.7254 8.86399C10.7186 8.88458 10.7117 8.90518 10.7049 8.9189C10.698 8.6307 10.7049 8.34249 10.698 8.04743C10.7049 7.97881 10.7049 7.9102 10.7049 7.83472Z" fill="#FFD83D"/>
<path d="M6.73871 7.89642C6.82791 7.99935 6.8897 8.12975 6.90343 8.26699C6.92401 8.41795 6.90343 8.56889 6.86226 8.71985C6.83481 8.82964 6.7936 8.94628 6.73871 9.04921C6.73871 8.66495 6.73871 8.28069 6.73871 7.89642Z" fill="#FFD83D"/>
<path d="M8.18654 8.11601C8.21399 8.03367 8.25516 7.95818 8.31692 7.89642C8.31692 7.99249 8.31006 8.08859 8.31692 8.18465C8.31692 8.31503 8.31692 8.45227 8.31692 8.57578C8.31692 8.65812 8.31692 8.73358 8.31692 8.80906C8.31692 8.8914 8.31692 8.96687 8.31692 9.04921C8.2483 8.91197 8.20025 8.76791 8.16594 8.61695C8.13849 8.45227 8.13165 8.28069 8.18654 8.11601Z" fill="#FFD83D"/>
<path d="M3.58909 7.97192C3.65085 7.95134 3.71947 7.96505 3.76751 8.00622C3.83612 8.07484 3.83612 8.20522 3.76751 8.26698C3.69202 8.3356 3.54792 8.31501 3.49988 8.21894C3.45185 8.12974 3.48616 8.00623 3.58909 7.97192Z" fill="#FFD83D"/>
<path d="M11.3841 7.96509C11.4322 7.95823 11.4871 7.96509 11.5282 8.00626C11.5969 8.06801 11.6037 8.19152 11.5351 8.26014C11.4734 8.3219 11.3704 8.32877 11.3018 8.27388C11.24 8.22585 11.2194 8.12291 11.2606 8.05429C11.2881 8.00626 11.3361 7.97195 11.3841 7.96509Z" fill="#FFD83D"/>
<path d="M7.50033 8.16401C7.53464 8.15715 7.57579 8.16403 7.6101 8.18461C7.65814 8.21206 7.69243 8.26693 7.68557 8.32869C7.68557 8.3973 7.63068 8.45908 7.56206 8.4728C7.52089 8.47966 7.47973 8.47965 7.44542 8.45906C7.39739 8.43162 7.36309 8.37675 7.36995 8.31499C7.36995 8.23265 7.43171 8.17087 7.50033 8.16401Z" fill="#FFD83D"/>
<path d="M3.59597 8.459C3.65087 8.45214 3.71262 8.45213 3.76065 8.4933C3.83613 8.55506 3.83613 8.6923 3.76065 8.75406C3.69889 8.80895 3.60282 8.80896 3.54107 8.76092C3.47931 8.71289 3.45872 8.61683 3.49303 8.54821C3.50675 8.50704 3.54794 8.47272 3.59597 8.459Z" fill="#FFD83D"/>
<path d="M11.3704 8.45897C11.4047 8.45211 11.4459 8.45211 11.4733 8.45897C11.542 8.47956 11.5831 8.55503 11.5831 8.62365C11.5831 8.66482 11.5694 8.70602 11.5419 8.73346C11.4871 8.80208 11.3704 8.80892 11.3018 8.75403C11.24 8.69913 11.2263 8.60992 11.2606 8.53444C11.2812 8.50013 11.3224 8.4727 11.3704 8.45897Z" fill="#FFD83D"/>
<path d="M7.48666 8.54818C7.53469 8.53445 7.58273 8.54134 7.61704 8.56878C7.67193 8.59623 7.69938 8.65797 7.69938 8.71972C7.69938 8.77462 7.67194 8.82952 7.62391 8.85697C7.58274 8.88442 7.53469 8.89126 7.48666 8.87753C7.42491 8.86381 7.37001 8.80895 7.35628 8.74033C7.34256 8.65799 7.40432 8.56876 7.48666 8.54818Z" fill="#FFD83D"/>
<path d="M3.69889 8.88433C3.75378 8.87747 3.8224 8.89808 3.86357 8.95297C3.9116 9.02159 3.90475 9.13136 3.83613 9.19312C3.77438 9.24115 3.68518 9.24116 3.62342 9.19999C3.54794 9.14509 3.53422 9.02845 3.58912 8.95297C3.61657 8.9118 3.65772 8.89119 3.69889 8.88433Z" fill="#FFD83D"/>
<path d="M11.3087 8.88428C11.3705 8.87742 11.4391 8.89802 11.4734 8.94606C11.5077 8.98723 11.5146 9.04896 11.5009 9.097C11.4871 9.15189 11.446 9.19996 11.3842 9.21368C11.3293 9.2274 11.2607 9.22051 11.2195 9.17934C11.1509 9.12444 11.1509 9.02154 11.1921 8.95293C11.2127 8.91862 11.2607 8.89114 11.3087 8.88428Z" fill="#FFD83D"/>
<path d="M7.03379 9.04215C7.19848 8.96667 7.37685 8.94608 7.55526 8.94608C7.73367 8.94608 7.91207 8.97351 8.0699 9.06272C8.18655 9.12447 8.28264 9.22055 8.35126 9.33721C8.41987 9.46072 8.46104 9.60479 8.47476 9.74203C8.48163 9.7832 8.4816 9.8244 8.49533 9.85871C8.52964 9.83813 8.55026 9.80382 8.57771 9.77637C8.66691 9.67345 8.75609 9.57051 8.85216 9.46758C8.96881 9.34407 9.09235 9.22055 9.22272 9.11762C9.31879 9.049 9.43543 8.98723 9.55208 8.97351C9.66873 8.95978 9.78537 8.98723 9.88144 9.05585C9.9775 9.12447 10.053 9.22741 10.1079 9.33034C10.1971 9.51561 10.2382 9.71459 10.2108 9.92045C10.2108 9.94789 10.2108 9.9685 10.2314 9.98909C10.2588 9.98909 10.2657 9.95477 10.2726 9.93418C10.3069 9.81753 10.3618 9.70772 10.4372 9.61166C10.5676 9.44697 10.7529 9.33721 10.9519 9.29604C11.144 9.25487 11.3499 9.2823 11.5214 9.36464C11.59 9.39895 11.6587 9.44011 11.7273 9.48815C11.7479 9.49501 11.7341 9.52246 11.7273 9.53618C11.6861 9.57736 11.6449 9.61852 11.6106 9.65969C11.5077 9.78321 11.4322 9.92733 11.3773 10.0714C11.2401 10.3871 11.1303 10.7096 10.9862 11.0184C10.9107 11.1762 10.8284 11.334 10.7323 11.4781C10.7186 11.4987 10.7049 11.5193 10.6774 11.5261C10.6431 11.5261 10.6088 11.5193 10.5814 11.5055C10.5608 11.4987 10.5676 11.4781 10.5676 11.4575C10.5745 11.4163 10.5882 11.3752 10.5814 11.334C10.5745 11.334 10.5608 11.3271 10.5608 11.3271C10.5264 11.3752 10.5196 11.4369 10.4853 11.485C10.4578 11.4712 10.4167 11.4781 10.3892 11.4506C10.3892 11.4163 10.4029 11.3752 10.3961 11.3409C10.3961 11.3271 10.3824 11.3272 10.3755 11.3203C10.3481 11.3546 10.3343 11.3958 10.3206 11.4438C10.2863 11.4438 10.252 11.4369 10.2177 11.4369C10.2039 11.3889 10.2314 11.3409 10.2245 11.2928C10.1765 11.3203 10.1834 11.382 10.1559 11.4163C10.1216 11.4095 10.0942 11.4095 10.0667 11.3958C10.053 11.3889 10.0599 11.3683 10.0599 11.3546C10.0599 11.3203 10.0667 11.286 10.0599 11.2516C10.0255 11.286 10.0256 11.3408 9.99125 11.3752C9.95694 11.3752 9.92949 11.3683 9.90204 11.3546C9.88832 11.3546 9.8677 11.3408 9.8677 11.3271C9.8677 11.2791 9.88146 11.2379 9.86087 11.1899C9.8197 11.2242 9.81967 11.2859 9.78536 11.3271C9.73733 11.334 9.68245 11.3134 9.63442 11.3066C9.62756 11.2517 9.64814 11.1968 9.62755 11.1419C9.57266 11.1693 9.5864 11.2448 9.56582 11.2928C9.52465 11.2928 9.48344 11.2859 9.44227 11.2791C9.42168 11.2791 9.41483 11.2517 9.41483 11.2311C9.41483 11.1899 9.41482 11.1419 9.4011 11.1007C9.39424 11.1007 9.3874 11.1075 9.38053 11.1144C9.35995 11.1624 9.37368 11.2242 9.34623 11.2723C9.31192 11.2654 9.27759 11.2654 9.23642 11.2585C9.2227 11.2585 9.20211 11.2448 9.19525 11.2311C9.18839 11.1899 9.2021 11.1487 9.18151 11.1144C9.14034 11.1487 9.16096 11.2105 9.13352 11.2516C9.09235 11.2516 9.05114 11.2516 9.00997 11.2379C8.98252 11.1967 9.00999 11.1419 8.9894 11.1007C8.98254 11.087 8.97569 11.087 8.96197 11.0801C8.94139 11.1281 8.94821 11.1831 8.92763 11.2311C8.88646 11.2311 8.8453 11.2311 8.81099 11.2242L8.80412 11.2173C8.79726 11.1762 8.79729 11.1281 8.79042 11.087C8.79042 11.0732 8.77668 11.0733 8.76982 11.0595C8.74237 11.1076 8.7561 11.1624 8.73552 11.2105C8.68748 11.2105 8.63944 11.2036 8.5914 11.2036C8.57768 11.1624 8.59143 11.1144 8.57084 11.0801C8.55025 11.0664 8.53654 11.0869 8.53654 11.1075C8.52282 11.135 8.5228 11.1693 8.5228 11.2036C8.48163 11.2105 8.44046 11.2036 8.39243 11.1967C8.38556 11.1487 8.39927 11.1007 8.37869 11.0595C8.37183 11.0595 8.35812 11.0527 8.35126 11.0527C8.33067 11.0938 8.33065 11.1419 8.33065 11.1899C8.28262 11.1968 8.22774 11.1899 8.17971 11.1899C8.17285 11.135 8.18658 11.0732 8.14541 11.0321C8.09738 11.0664 8.1111 11.135 8.10424 11.183C8.04248 11.183 7.98072 11.1968 7.92582 11.183C7.9121 11.135 7.9258 11.0801 7.89835 11.0389C7.89149 11.0321 7.88465 11.0252 7.87779 11.0252C7.85034 11.0664 7.86408 11.1213 7.85035 11.1693C7.85035 11.1762 7.83661 11.1899 7.82975 11.183C7.78858 11.183 7.74741 11.183 7.70624 11.183C7.69252 11.135 7.71308 11.0801 7.68563 11.0321C7.67877 11.0321 7.67193 11.0321 7.66507 11.0321C7.65135 11.0801 7.6582 11.135 7.6582 11.183C7.58958 11.183 7.52097 11.183 7.45235 11.183C7.45235 11.135 7.45921 11.087 7.44549 11.0321C7.43862 11.0321 7.43174 11.0321 7.42488 11.0321C7.39057 11.0732 7.41118 11.135 7.40432 11.183C7.36315 11.183 7.32198 11.183 7.28081 11.183C7.26708 11.183 7.2602 11.1762 7.2602 11.1624C7.23962 11.1144 7.26022 11.0595 7.23277 11.0184C7.22591 11.0184 7.21903 11.0183 7.21216 11.0321C7.19158 11.0664 7.1916 11.1076 7.1916 11.1487C7.1916 11.1556 7.19159 11.1693 7.18473 11.1762C7.16415 11.183 7.13671 11.183 7.10926 11.183C7.07495 11.183 7.04063 11.183 7.00632 11.1762C6.99946 11.1281 7.01319 11.0595 6.97202 11.0252C6.93085 11.0664 6.94458 11.1282 6.94458 11.183C6.89655 11.183 6.84163 11.1899 6.7936 11.183C6.7936 11.135 6.79362 11.087 6.77304 11.0458C6.76618 11.0458 6.75929 11.0458 6.74556 11.0458C6.71812 11.087 6.73186 11.135 6.725 11.183C6.68383 11.1899 6.64266 11.1968 6.60149 11.1899C6.59463 11.1487 6.60149 11.0938 6.56032 11.0664L6.54658 11.0732C6.526 11.1144 6.5397 11.1556 6.52598 11.1967C6.47795 11.2036 6.42994 11.2105 6.38191 11.2036C6.36132 11.1556 6.37505 11.0938 6.34761 11.0527C6.33388 11.0595 6.32013 11.0664 6.32013 11.0801C6.31327 11.1213 6.3133 11.1693 6.30644 11.2105C6.26527 11.2105 6.22406 11.2173 6.18289 11.2173C6.1623 11.1693 6.16917 11.1144 6.14859 11.0664C6.11428 11.0732 6.11428 11.1144 6.11428 11.1419C6.11428 11.1693 6.11427 11.1968 6.10055 11.2242C6.05938 11.2379 6.01821 11.231 5.97704 11.2379C5.96332 11.2036 5.96333 11.1624 5.94961 11.1213C5.94961 11.1075 5.93586 11.1007 5.929 11.0938C5.90842 11.1281 5.92217 11.1693 5.91531 11.2105C5.91531 11.2311 5.89472 11.2379 5.87414 11.2379C5.83297 11.2448 5.79863 11.2448 5.76432 11.2516C5.74374 11.2036 5.75061 11.1419 5.73002 11.0938C5.72316 11.0938 5.71628 11.087 5.70942 11.0801C5.69569 11.1281 5.70258 11.1693 5.69572 11.2173C5.69572 11.2311 5.6957 11.2516 5.67512 11.2516C5.63394 11.2654 5.58591 11.2722 5.54474 11.2654C5.52415 11.2174 5.53103 11.1556 5.47614 11.1281C5.46241 11.1762 5.483 11.231 5.47614 11.2791C5.4281 11.2859 5.38692 11.2997 5.33202 11.2997C5.3183 11.2997 5.31145 11.2791 5.30459 11.2723C5.29087 11.2311 5.28399 11.1899 5.24968 11.1624C5.23596 11.2105 5.24968 11.2517 5.24968 11.2997C5.24968 11.3134 5.23598 11.3271 5.22225 11.3271C5.18794 11.334 5.15362 11.3409 5.11931 11.3477C5.09186 11.3203 5.08499 11.2791 5.07127 11.2448C5.06441 11.2379 5.05756 11.2311 5.04384 11.2311C5.03698 11.2723 5.0507 11.3203 5.04384 11.3615C5.02325 11.382 4.98207 11.382 4.94776 11.3889C4.92031 11.3477 4.92032 11.2928 4.87229 11.2654C4.86543 11.3134 4.89288 11.3614 4.87916 11.4095C4.84485 11.4095 4.81739 11.4163 4.78308 11.4163C4.7625 11.3752 4.76249 11.3271 4.72818 11.2997C4.70759 11.3065 4.70761 11.3271 4.70761 11.3477C4.70761 11.3752 4.71448 11.4095 4.71448 11.4438C4.68017 11.4507 4.65272 11.4575 4.61841 11.4712C4.59096 11.4232 4.58411 11.3615 4.54294 11.3134C4.53607 11.3134 4.52919 11.3203 4.52233 11.3203C4.51547 11.3752 4.54293 11.4301 4.53607 11.4918C4.4949 11.4987 4.4606 11.5193 4.41943 11.5193C4.39198 11.5124 4.37824 11.4918 4.36452 11.4712C4.18611 11.2036 4.0626 10.9154 3.93909 10.6204C3.87047 10.4488 3.80186 10.2704 3.73324 10.1057C3.6509 9.9136 3.56167 9.72145 3.41071 9.57735C3.38327 9.54991 3.3558 9.52932 3.34894 9.48815C3.45873 9.4058 3.58226 9.33721 3.71264 9.30291C3.98711 9.22056 4.30276 9.28231 4.5292 9.46758C4.65271 9.57051 4.74879 9.70089 4.79682 9.85871C4.81054 9.89302 4.8174 9.92731 4.83799 9.96162C4.84485 9.96848 4.8517 9.97535 4.86542 9.96848C4.89287 9.93418 4.87915 9.89302 4.87229 9.85871C4.85857 9.68717 4.89288 9.5019 4.9615 9.34407C5.01639 9.22742 5.09186 9.11763 5.20165 9.04215C5.29085 8.97353 5.40752 8.94609 5.52418 8.95981C5.64083 8.96667 5.75747 9.0284 5.8604 9.10388C6.01136 9.21367 6.13489 9.34404 6.2584 9.48128C6.3476 9.57734 6.42994 9.67344 6.51228 9.76951C6.53287 9.79695 6.55345 9.83125 6.58775 9.84498C6.60834 9.81067 6.60146 9.76264 6.60832 9.72147C6.6289 9.57051 6.67009 9.41954 6.75243 9.28917C6.80047 9.18624 6.90342 9.09705 7.03379 9.04215Z" fill="#FFD83D"/>
<path d="M7.41798 9.13815C7.44542 9.12443 7.47285 9.14505 7.47971 9.1725C7.48657 9.23425 7.47971 9.29598 7.47971 9.35774C7.47971 9.37832 7.46599 9.41265 7.43854 9.41951C7.43168 9.41265 7.42484 9.39894 7.41798 9.38521C7.40425 9.32346 7.40423 9.26168 7.3905 9.19306C7.3905 9.16561 7.39739 9.14502 7.41798 9.13815Z" fill="black"/>
<path d="M7.57587 9.17929C7.57587 9.14498 7.61015 9.12439 7.6376 9.13812C7.67191 9.16557 7.65134 9.21362 7.65134 9.24793C7.63761 9.30283 7.64448 9.37144 7.61017 9.41948C7.58958 9.41262 7.57587 9.38516 7.57587 9.36457C7.57587 9.30281 7.57587 9.23418 7.57587 9.17929Z" fill="black"/>
<path d="M7.2465 9.18615C7.26022 9.17928 7.27394 9.17928 7.2808 9.18615C7.29453 9.19987 7.2945 9.22734 7.2945 9.24792C7.2945 9.29595 7.29453 9.33713 7.28767 9.38517C7.28767 9.39889 7.27391 9.42634 7.25333 9.42634C7.23274 9.42634 7.23276 9.39888 7.2259 9.3783C7.21903 9.3234 7.21216 9.27535 7.21216 9.22732C7.21216 9.20673 7.22592 9.19301 7.2465 9.18615Z" fill="black"/>
<path d="M7.768 9.22046C7.768 9.20674 7.77488 9.18616 7.79547 9.18616C7.82292 9.1793 7.84351 9.20675 7.84351 9.22733C7.84351 9.2685 7.82977 9.30968 7.82977 9.35771C7.82977 9.3783 7.8229 9.39891 7.81603 9.42635C7.80231 9.42635 7.79546 9.42635 7.78173 9.42635C7.76801 9.41263 7.76803 9.38517 7.76117 9.37145C7.76117 9.31655 7.76113 9.26164 7.768 9.22046Z" fill="black"/>
<path d="M7.04057 9.26167C7.05429 9.24108 7.08174 9.23421 7.0886 9.2548C7.10919 9.27538 7.10234 9.29595 7.10234 9.3234C7.10234 9.37829 7.10233 9.44005 7.0886 9.49495C7.08174 9.50181 7.06116 9.50182 7.0543 9.50868C7.04744 9.45379 7.04746 9.39889 7.03374 9.33714C7.03374 9.30969 7.01998 9.28225 7.04057 9.26167Z" fill="black"/>
<path d="M7.95327 9.3234C7.95327 9.29595 7.94643 9.26852 7.97388 9.24793C8.00132 9.24107 8.02878 9.26852 8.02192 9.2891C8.02192 9.30969 8.01505 9.33025 8.01505 9.35083C8.00132 9.39887 8.00131 9.44692 8.00131 9.49495C7.98759 9.48809 7.96701 9.49497 7.96701 9.47438C7.95329 9.42635 7.95327 9.37143 7.95327 9.3234Z" fill="black"/>
<path d="M5.40751 9.41947C5.39378 9.39888 5.3938 9.36458 5.42125 9.344C5.44869 9.33714 5.46242 9.35771 5.46928 9.3783C5.48987 9.41261 5.5036 9.45376 5.51732 9.48807C5.53104 9.52238 5.54478 9.54984 5.53106 9.59101C5.51733 9.59101 5.49675 9.59099 5.48989 9.57041C5.46244 9.52238 5.42809 9.47436 5.40751 9.41947Z" fill="black"/>
<path d="M5.57903 9.35767C5.59275 9.35767 5.61334 9.35081 5.62707 9.36454C5.64765 9.38512 5.65455 9.41943 5.66141 9.44688C5.67513 9.49491 5.69571 9.54296 5.69571 9.59099C5.68199 9.59099 5.6614 9.59784 5.65454 9.57725C5.63396 9.52922 5.61334 9.47435 5.5859 9.42631C5.57217 9.40573 5.57217 9.37825 5.57903 9.35767Z" fill="black"/>
<path d="M9.42857 9.36454C9.44229 9.35081 9.46288 9.35767 9.47661 9.35767C9.49719 9.39884 9.46972 9.44001 9.44913 9.48118C9.42855 9.51549 9.42171 9.56355 9.39427 9.59786C9.38054 9.59786 9.37365 9.59786 9.35992 9.59786C9.35992 9.54983 9.38054 9.50178 9.3874 9.45375C9.40112 9.41944 9.40798 9.38512 9.42857 9.36454Z" fill="black"/>
<path d="M9.56583 9.44687C9.57955 9.41256 9.58639 9.36452 9.62756 9.35079C9.66187 9.34393 9.66872 9.39198 9.66186 9.41257C9.63441 9.46746 9.60011 9.52234 9.57952 9.57038C9.57266 9.5841 9.55208 9.58412 9.53835 9.59098C9.51777 9.54295 9.54524 9.4949 9.56583 9.44687Z" fill="black"/>
<path d="M5.77799 9.46749C5.77113 9.44004 5.7711 9.4057 5.79855 9.39884C5.83286 9.39198 5.8466 9.42629 5.85346 9.44688C5.87404 9.5155 5.89463 9.59098 5.9015 9.6596C5.9015 9.6596 5.88775 9.66647 5.88089 9.67333C5.84658 9.65275 5.83974 9.61157 5.81916 9.57726C5.8123 9.54295 5.79171 9.50179 5.77799 9.46749Z" fill="black"/>
<path d="M9.20896 9.43318C9.21583 9.41259 9.23642 9.39197 9.26387 9.39884C9.29132 9.41256 9.28443 9.45373 9.27757 9.48117C9.25698 9.53607 9.23641 9.58412 9.20896 9.63216C9.20896 9.65274 9.18839 9.6596 9.17466 9.67333C9.1678 9.66646 9.15406 9.65275 9.16093 9.63903C9.16779 9.57041 9.18838 9.5018 9.20896 9.43318Z" fill="black"/>
<path d="M5.24963 9.47437C5.2565 9.45379 5.27022 9.42633 5.29767 9.41946C5.3114 9.43319 5.3251 9.44692 5.3251 9.4675C5.33883 9.5224 5.35945 9.57041 5.35945 9.61844L5.34571 9.63218C5.31826 9.61846 5.31139 9.58416 5.2908 9.55671C5.27708 9.52926 5.26336 9.50182 5.24963 9.47437Z" fill="black"/>
<path d="M9.7305 9.46058C9.73736 9.43999 9.74422 9.41255 9.77167 9.41941C9.79912 9.43313 9.81282 9.46743 9.79223 9.49488C9.77165 9.53605 9.74422 9.57722 9.72363 9.61839C9.71677 9.63211 9.69619 9.62524 9.68933 9.61152C9.69619 9.56349 9.71678 9.51547 9.7305 9.46058Z" fill="black"/>
<path d="M6.84852 9.5155C6.84166 9.49491 6.8485 9.46059 6.86909 9.45373C6.88967 9.44 6.91713 9.46057 6.91713 9.48116C6.93085 9.53605 6.93774 9.59098 6.9446 9.64588C6.95146 9.66646 6.93086 9.68702 6.92399 9.70074C6.91713 9.70074 6.91029 9.69391 6.90343 9.68705C6.88971 9.62529 6.86911 9.5704 6.84852 9.5155Z" fill="black"/>
<path d="M8.13162 9.48117C8.13162 9.46744 8.14533 9.45373 8.15905 9.44687C8.1865 9.44 8.21395 9.47433 8.20709 9.50864C8.19337 9.56354 8.17278 9.61156 8.15905 9.66645C8.15905 9.68704 8.14534 9.6939 8.13162 9.70762C8.1179 9.6939 8.10419 9.6733 8.10419 9.65271C8.11105 9.59096 8.12476 9.53606 8.13162 9.48117Z" fill="black"/>
<path d="M7.5347 9.48117C7.56214 9.48117 7.58957 9.51551 7.59643 9.54981C7.62388 9.63902 7.6376 9.74195 7.68564 9.81057C7.69936 9.83115 7.71309 9.84488 7.73367 9.85174C7.75426 9.8586 7.78173 9.85859 7.80232 9.84487C7.87094 9.81742 7.9258 9.77623 7.98069 9.73506C8.00128 9.72133 8.02188 9.72136 8.04247 9.72136C8.04247 9.75567 8.02875 9.78999 8.00816 9.81744C7.90524 9.94095 7.72681 10.1742 7.6925 10.2497C7.64447 10.3595 7.5896 10.5654 7.5896 10.7575C7.5896 10.7987 7.55527 10.8261 7.52783 10.8535C7.48666 10.833 7.45922 10.7849 7.45922 10.7438C7.45922 10.5928 7.43177 10.4144 7.37002 10.2772C7.3014 10.1193 7.18472 10.0164 7.08179 9.87917C7.04748 9.83114 7.00631 9.78999 6.99945 9.72823C7.02004 9.72137 7.04064 9.72133 7.06123 9.73506C7.11612 9.77623 7.17789 9.82429 7.24651 9.85174C7.28082 9.86546 7.32196 9.85858 7.34254 9.83113C7.37685 9.7831 7.40433 9.72821 7.41806 9.66645C7.43178 9.62528 7.44549 9.59098 7.45236 9.54295C7.47294 9.52922 7.50725 9.48117 7.5347 9.48117Z" fill="black"/>
<path d="M5.99078 9.5635C5.99078 9.54977 5.98393 9.52919 6.00452 9.52233C6.03196 9.51546 6.05939 9.53605 6.06625 9.5635C6.07997 9.61153 6.08682 9.66645 6.09368 9.71448C6.10054 9.74193 6.0731 9.75565 6.05938 9.75565C6.05252 9.74192 6.04568 9.7282 6.03882 9.70761C6.01823 9.65958 6.0045 9.61153 5.99078 9.5635Z" fill="black"/>
<path d="M8.98941 9.57725C8.99627 9.5498 9.01 9.51548 9.04431 9.52234C9.05804 9.52234 9.06488 9.53609 9.06488 9.54982C9.06488 9.58412 9.05117 9.61841 9.03745 9.65272C9.02372 9.68703 9.01686 9.72135 8.99628 9.75566C8.97569 9.75566 8.96198 9.74881 8.96198 9.72136C8.96884 9.67333 8.98255 9.62528 8.98941 9.57725Z" fill="black"/>
<path d="M5.11927 9.5498C5.13299 9.52921 5.16732 9.53607 5.18104 9.5498C5.21535 9.59783 5.2222 9.65271 5.24965 9.70761C5.26337 9.72819 5.26338 9.7488 5.26338 9.76938C5.24966 9.76938 5.2428 9.76938 5.22908 9.76938C5.19477 9.72135 5.16045 9.67329 5.13301 9.6184C5.11928 9.60467 5.10554 9.57724 5.11927 9.5498Z" fill="black"/>
<path d="M9.8746 9.5635C9.88147 9.54978 9.89519 9.53607 9.91577 9.53607C9.93636 9.53607 9.95012 9.55665 9.95012 9.57037C9.95012 9.59782 9.93637 9.61843 9.92264 9.63902C9.89519 9.68705 9.86774 9.72823 9.83343 9.77626C9.81971 9.77626 9.81286 9.77626 9.79913 9.77626C9.79913 9.75568 9.79915 9.73507 9.81287 9.71449C9.83346 9.66645 9.84716 9.61154 9.8746 9.5635Z" fill="black"/>
<path d="M3.80874 9.58408C3.82932 9.58408 3.84988 9.5841 3.8636 9.60468C3.89105 9.63899 3.91854 9.68015 3.94598 9.72132C3.95971 9.74191 3.9734 9.76934 3.95968 9.78992C3.95282 9.80365 3.9391 9.78992 3.92538 9.78305C3.88421 9.74875 3.84992 9.70759 3.81561 9.66641C3.79502 9.63897 3.80188 9.61152 3.80874 9.58408Z" fill="black"/>
<path d="M11.2058 9.59095C11.2195 9.57722 11.2332 9.58408 11.247 9.58408C11.2538 9.61153 11.2607 9.63896 11.2401 9.65955C11.2126 9.70072 11.1784 9.74192 11.1303 9.77623C11.1235 9.78309 11.1097 9.78993 11.096 9.79679C11.0754 9.74876 11.1166 9.7076 11.1441 9.67329C11.1646 9.64584 11.1783 9.61153 11.2058 9.59095Z" fill="black"/>
<path d="M4.00769 9.63211C4.03514 9.61153 4.07631 9.62524 4.09003 9.65954C4.11061 9.69385 4.11747 9.72818 4.12433 9.76249C4.13805 9.7968 4.15181 9.83796 4.15867 9.87913C4.13809 9.87913 4.11062 9.87228 4.0969 9.8517C4.06945 9.7968 4.04201 9.74188 4.01456 9.69385C4.0077 9.6664 4.00769 9.6527 4.00769 9.63211Z" fill="black"/>
<path d="M10.9862 9.63212C10.9999 9.61839 11.0274 9.62525 11.0411 9.62525C11.0411 9.63897 11.0479 9.65956 11.0342 9.67329C11.0068 9.72818 10.9793 9.78307 10.9519 9.83796C10.9381 9.85855 10.9107 9.8654 10.8901 9.8654C10.8901 9.81736 10.9176 9.76936 10.9313 9.72132C10.945 9.69388 10.9519 9.6527 10.9862 9.63212Z" fill="black"/>
<path d="M11.2401 9.78305C11.2813 9.71443 11.3499 9.6527 11.4254 9.63898C11.4391 9.63898 11.446 9.64585 11.446 9.64585C11.446 9.65271 11.4529 9.65955 11.4529 9.66641C11.446 9.68699 11.4323 9.70072 11.4185 9.70758C11.3774 9.73503 11.3362 9.76934 11.3019 9.79679C11.2882 9.80365 11.2744 9.81739 11.2607 9.81739C11.2539 9.79681 11.247 9.78991 11.2401 9.78305Z" fill="black"/>
<path d="M3.60974 9.63896C3.65778 9.6321 3.69899 9.65269 3.73329 9.68013C3.7676 9.70072 3.79505 9.73504 3.81563 9.77621C3.80877 9.78307 3.80876 9.79678 3.8019 9.80364C3.76073 9.79678 3.73327 9.76931 3.70582 9.74187C3.67837 9.72128 3.65092 9.70072 3.61661 9.68013C3.60289 9.67327 3.60974 9.65269 3.60974 9.63896Z" fill="black"/>
<path d="M6.76607 9.66639C6.77979 9.65266 6.80724 9.67327 6.8141 9.68699C6.83469 9.74875 6.84154 9.81047 6.8484 9.86537C6.8484 9.87909 6.84152 9.89971 6.8278 9.89971C6.81408 9.89285 6.7935 9.87909 6.7935 9.86537C6.78664 9.81733 6.77292 9.77616 6.7592 9.73499C6.74547 9.7144 6.73862 9.68697 6.76607 9.66639Z" fill="black"/>
<path d="M8.26203 9.67328C8.28262 9.65269 8.31007 9.66639 8.31007 9.69384C8.31693 9.72815 8.29632 9.76247 8.28946 9.78992C8.27574 9.82423 8.27575 9.85855 8.26203 9.88599C8.25517 9.89286 8.23458 9.92032 8.22086 9.89973C8.20714 9.88601 8.21399 9.87228 8.21399 9.85169C8.22085 9.80366 8.2277 9.75561 8.24142 9.70758C8.24829 9.70072 8.24831 9.68014 8.26203 9.67328Z" fill="black"/>
<path d="M4.23415 9.68701C4.25474 9.68701 4.28217 9.68011 4.30275 9.69383C4.32334 9.71442 4.32336 9.7419 4.33023 9.76934C4.33023 9.81052 4.35081 9.85855 4.33023 9.89972C4.3165 9.89972 4.30961 9.89972 4.30275 9.89972C4.28217 9.84483 4.25474 9.80363 4.23415 9.74874C4.22729 9.72815 4.22729 9.70759 4.23415 9.68701Z" fill="black"/>
<path d="M5.51036 9.74875C5.50349 9.72816 5.51036 9.70073 5.51036 9.68015C5.52408 9.68701 5.54466 9.68012 5.55153 9.70071C5.59956 9.8105 5.64758 9.91344 5.70934 10.0164C5.72306 10.0438 5.74366 10.0712 5.77111 10.085C5.78483 10.0918 5.79856 10.0781 5.81228 10.0713C5.85345 10.0438 5.86031 9.9889 5.89462 9.95459C5.90148 9.95459 5.91519 9.95459 5.92205 9.95459C5.93577 10.0164 5.89461 10.0644 5.88088 10.1261C5.84657 10.2565 5.84659 10.4006 5.85345 10.5379C5.86031 10.6477 5.87403 10.7643 5.89462 10.881C5.89462 10.9016 5.89461 10.9153 5.88775 10.929C5.86716 10.9221 5.85344 10.9016 5.84658 10.881C5.81913 10.7506 5.75739 10.6202 5.68877 10.5104C5.59957 10.3732 5.48293 10.2565 5.35942 10.1536C5.34569 10.1399 5.33194 10.1262 5.32507 10.1056C5.33194 10.0919 5.35255 10.0918 5.35942 10.0987C5.40745 10.1262 5.46233 10.1673 5.51723 10.1742C5.5584 10.181 5.56526 10.1262 5.56526 10.0987C5.57899 9.97519 5.5378 9.8654 5.51036 9.74875Z" fill="black"/>
<path d="M9.504 9.70071C9.51086 9.68012 9.52458 9.68015 9.54517 9.68015C9.55889 9.73504 9.53142 9.78993 9.52456 9.84482C9.50397 9.92717 9.48339 10.0164 9.48339 10.0987C9.48339 10.1262 9.49712 10.1742 9.53143 10.1673C9.58632 10.1536 9.63438 10.1193 9.68241 10.0918C9.69613 10.0781 9.70986 10.0918 9.72358 10.0987C9.71672 10.1193 9.703 10.133 9.68928 10.1467C9.53146 10.2771 9.38735 10.4281 9.29128 10.6133C9.25011 10.6957 9.21579 10.7849 9.1952 10.8741C9.18834 10.8947 9.18149 10.9153 9.1609 10.9221C9.14718 10.881 9.16091 10.8467 9.16777 10.8055C9.18836 10.6545 9.20893 10.5104 9.20207 10.3595C9.20207 10.2771 9.18836 10.1948 9.16777 10.1124C9.15405 10.0507 9.11288 10.0027 9.1266 9.9409C9.13346 9.9409 9.14717 9.9409 9.15403 9.9409C9.18834 9.97521 9.1952 10.0301 9.23637 10.0575C9.2501 10.0644 9.26383 10.0781 9.28441 10.0713C9.305 10.0576 9.32559 10.037 9.33932 10.0164C9.40107 9.9203 9.45596 9.8105 9.504 9.70071Z" fill="black"/>
<path d="M10.7598 9.70072C10.7735 9.68013 10.801 9.68702 10.8284 9.68702C10.8421 9.70074 10.8353 9.72129 10.8353 9.73502C10.8215 9.79677 10.7873 9.84484 10.7667 9.89974C10.7598 9.89974 10.7461 9.89974 10.7392 9.89974C10.7255 9.85857 10.7392 9.81739 10.7392 9.76936C10.7392 9.74877 10.7392 9.7213 10.7598 9.70072Z" fill="black"/>
<path d="M5.02316 9.72129C5.03002 9.7007 5.05746 9.70757 5.06432 9.72816C5.1055 9.78305 5.13984 9.83794 5.18101 9.89284C5.19473 9.90656 5.1947 9.93398 5.1947 9.95457C5.18098 9.95457 5.16726 9.9546 5.15353 9.94087C5.11236 9.8997 5.07807 9.85854 5.04376 9.81737C5.01631 9.78992 5.01629 9.74874 5.02316 9.72129Z" fill="black"/>
<path d="M9.99802 9.72129C10.0049 9.70756 10.0186 9.71442 10.0324 9.71442C10.0324 9.73501 10.0461 9.75561 10.0324 9.77619C10.0255 9.80364 10.0049 9.83108 9.98433 9.85167C9.95688 9.88597 9.92943 9.92029 9.89512 9.94774C9.88826 9.9546 9.87454 9.95457 9.86082 9.95457C9.85395 9.9134 9.88827 9.87911 9.90885 9.8448C9.94316 9.80363 9.97057 9.76246 9.99802 9.72129Z" fill="black"/>
<path d="M4.42624 9.77618C4.44683 9.78305 4.47429 9.78303 4.48115 9.80362C4.48801 9.85851 4.50175 9.91339 4.49488 9.96143C4.49488 9.97515 4.48113 9.98202 4.46741 9.97516C4.44683 9.92713 4.43314 9.87225 4.41941 9.81735C4.41255 9.81049 4.41938 9.78991 4.42624 9.77618Z" fill="black"/>
<path d="M10.5814 9.81048C10.5814 9.7899 10.6088 9.78305 10.6294 9.77618C10.6363 9.77618 10.6431 9.78302 10.65 9.78988C10.65 9.8036 10.6568 9.81733 10.65 9.83792C10.6363 9.88595 10.6225 9.94087 10.6088 9.9889C10.6019 9.9889 10.5882 9.9889 10.5814 9.9889C10.5539 9.92714 10.5745 9.86538 10.5814 9.81048Z" fill="black"/>
<path d="M4.96842 9.94085C4.98214 9.92712 5.00956 9.93398 5.02328 9.94085C5.05073 9.99574 5.09191 10.0369 5.11936 10.0849C5.13308 10.0986 5.13309 10.1192 5.13309 10.1398C5.11937 10.1398 5.09878 10.1467 5.08506 10.1261C5.04388 10.0849 4.99585 10.0438 4.95468 9.98888C4.94782 9.97516 4.94097 9.94771 4.96842 9.94085Z" fill="black"/>
<path d="M10.0324 9.94085C10.053 9.93398 10.0736 9.92712 10.0873 9.94085C10.1079 9.95457 10.101 9.98199 10.0941 9.99571C10.0598 10.0437 10.0118 10.0849 9.97064 10.133C9.95692 10.1467 9.9432 10.1398 9.92947 10.1398C9.92261 10.0987 9.95006 10.0643 9.97751 10.0369C9.9981 10.0026 10.0187 9.97516 10.0324 9.94085Z" fill="black"/>
<path d="M4.10375 10.0094C4.1312 10.0094 4.15864 10.0231 4.17922 10.0368C4.26156 10.1123 4.33019 10.1878 4.39881 10.2702C4.41939 10.2907 4.43996 10.3182 4.46741 10.3251C4.48799 10.3251 4.50859 10.325 4.52231 10.3113C4.55662 10.2702 4.55664 10.2084 4.58409 10.1535C4.59095 10.1467 4.60466 10.1466 4.61152 10.1398C4.61838 10.1604 4.63212 10.1878 4.62526 10.2084C4.6184 10.2976 4.58408 10.3868 4.57035 10.4829C4.56349 10.627 4.59779 10.7711 4.64582 10.9014C4.65955 10.9426 4.68012 10.9769 4.68012 11.0181C4.63209 11.0044 4.61154 10.9563 4.59096 10.9152C4.52234 10.8054 4.42627 10.7162 4.3302 10.627C4.22042 10.5309 4.11059 10.4486 3.99394 10.3662C3.97335 10.3594 3.95279 10.3319 3.97338 10.3113C4.06944 10.2907 4.13119 10.4005 4.22726 10.3799C4.24098 10.3799 4.25469 10.3593 4.25469 10.3456C4.25469 10.3113 4.24098 10.2839 4.22726 10.2495C4.19981 10.1809 4.15866 10.1192 4.11749 10.0574C4.11063 10.0437 4.10375 10.0231 4.10375 10.0094Z" fill="black"/>
<path d="M10.8764 10.0369C10.897 10.0163 10.9244 10.0026 10.9519 10.0026C10.9519 10.0231 10.9519 10.0369 10.945 10.0506C10.8901 10.1261 10.8421 10.2016 10.8146 10.2908C10.8078 10.3114 10.8009 10.3388 10.8146 10.3594C10.8215 10.3731 10.8421 10.3731 10.8627 10.3731C10.9381 10.3731 10.9862 10.3045 11.0617 10.3045C11.0754 10.3045 11.096 10.2976 11.096 10.3182C11.1028 10.3388 11.0754 10.3594 11.0617 10.3663C10.945 10.4555 10.8284 10.5378 10.7186 10.6407C10.6294 10.7299 10.5265 10.8191 10.4647 10.9358C10.4441 10.9701 10.4235 11.0044 10.3823 11.0181C10.3823 10.977 10.4098 10.9358 10.4167 10.9015C10.4647 10.778 10.499 10.6476 10.4921 10.5172C10.4921 10.4074 10.4441 10.3114 10.4441 10.2016C10.4441 10.181 10.451 10.1604 10.4578 10.1398C10.4647 10.1467 10.4715 10.1467 10.4784 10.1535C10.5058 10.2016 10.5059 10.2633 10.5402 10.3114C10.547 10.3319 10.5745 10.3251 10.5951 10.3251C10.6294 10.3114 10.65 10.2839 10.6706 10.2564C10.7323 10.181 10.8009 10.1055 10.8764 10.0369Z" fill="black"/>
</svg>
