<svg width="30" height="30" viewBox="0 0 30 30" fill="none" xmlns="http://www.w3.org/2000/svg">
<path d="M11.432 1.70231H21.917C19.8447 0.618388 17.4979 0.000976562 14.9933 0.000976562C12.4956 0.000976562 10.142 0.618388 8.0697 1.70231H9.52445V28.2996H8.0697C10.142 29.3836 12.4888 30.001 14.9933 30.001C17.491 30.001 19.8447 29.3836 21.917 28.2996H11.432V1.70231Z" fill="#FFCE00"/>
<path d="M30.0001 15.0044C30.0001 9.22118 26.7202 4.20631 21.9169 1.70917H11.4319V28.3065H21.9169C26.7202 25.7956 30.0001 20.7876 30.0001 15.0044Z" fill="#9C1E3D"/>
<path d="M2.88207 23.813V6.18213C1.0774 8.65869 0.00012207 11.6978 0.00012207 14.9976C0.00012207 18.2974 1.0774 21.3365 2.88207 23.813Z" fill="#007229"/>
<path d="M9.53122 1.70233H8.07651C6.01795 2.7794 4.24073 4.31612 2.88208 6.18212V23.813C4.24073 25.679 6.01795 27.2226 8.07651 28.2928H9.53122V1.70233Z" fill="#FF7300"/>
<path d="M15.0483 9.722C15.1238 9.55735 15.1993 9.38583 15.3502 9.27606C15.3433 9.31722 15.3365 9.35156 15.3296 9.39272C15.2267 9.90724 15.2061 10.4286 15.1787 10.95C15.1512 11.1009 15.1718 11.2518 15.1581 11.4028C15.1375 11.6292 15.1581 11.8624 15.1306 12.0888C15.1169 12.8297 15.1169 13.5775 15.1238 14.3115C15.1306 14.4762 15.11 14.6408 15.1375 14.8054C15.1444 14.9427 15.1443 15.0868 15.1512 15.2308C14.8561 15.368 14.5199 15.3474 14.2111 15.2651C14.218 15.2377 14.2249 15.2102 14.2317 15.1828C14.2317 15.0593 14.2592 14.9289 14.2592 14.8123C14.2866 14.6271 14.2797 14.4419 14.3072 14.2566C14.3209 14.1057 14.3278 13.9548 14.3484 13.8039C14.3484 13.6872 14.3689 13.5706 14.3758 13.4471C14.3964 13.3099 14.4032 13.1727 14.417 13.0355C14.465 12.6994 14.4924 12.3632 14.5473 12.027C14.5542 11.9379 14.568 11.8555 14.5748 11.7732C14.5954 11.6772 14.6023 11.5743 14.6229 11.4782C14.6366 11.4028 14.6503 11.3204 14.664 11.245C14.6778 11.1764 14.6915 11.1146 14.6983 11.046C14.7121 10.9706 14.7258 10.902 14.7464 10.8265C14.767 10.7167 14.7944 10.607 14.815 10.4903C14.8493 10.36 14.8836 10.2296 14.9179 10.0993C14.9385 10.0238 14.9591 9.94837 14.9865 9.87977C15.0002 9.85233 15.0071 9.83176 15.0208 9.80432C15.0277 9.77688 15.0346 9.74944 15.0483 9.722Z" fill="#FECE00"/>
<path d="M16.3586 12.5211C16.7017 12.624 17.0586 12.6445 17.4154 12.6651C17.6007 12.672 17.7791 12.6789 17.9643 12.672C18.0604 12.6446 18.1633 12.5897 18.2663 12.6308C18.4035 12.6994 18.5201 12.8024 18.6025 12.9259C18.6437 13.0082 18.6711 13.0974 18.6986 13.1866C18.6986 13.2072 18.7054 13.2484 18.7054 13.269C18.6093 13.2278 18.5201 13.1867 18.4172 13.1661C18.1908 13.1249 17.9575 13.1592 17.7379 13.2141C17.7447 13.1249 17.7447 13.0357 17.7379 12.9396C17.7242 12.9328 17.7036 12.919 17.6898 12.9053C17.4085 12.9739 17.1134 13.0288 16.8321 12.9534C16.6125 12.9122 16.4204 12.7406 16.3586 12.5211Z" fill="#FECE00"/>
<path d="M13.4838 14.9702C13.573 14.833 13.7514 14.7712 13.9092 14.7918C13.9709 14.7918 14.0258 14.8261 14.0807 14.8604C14.0807 14.9015 14.0807 14.9427 14.0739 14.9839C14.0464 15.0113 14.019 15.0457 13.9984 15.08C13.9778 15.1211 14.0259 15.1486 14.0464 15.176C14.2043 15.327 14.4238 15.3819 14.6365 15.3956C14.8767 15.3956 15.1237 15.3545 15.3227 15.2241C15.2816 15.1417 15.261 15.0525 15.2747 14.9702C15.4119 14.8055 15.6796 14.9359 15.7276 15.1211C15.7345 15.1692 15.7345 15.2172 15.7276 15.2652C15.6178 15.4711 15.3914 15.5534 15.1787 15.6015C14.7875 15.6769 14.3895 15.6632 14.0121 15.5534C13.8337 15.4985 13.6485 15.4162 13.5318 15.2652C13.4632 15.1829 13.4769 15.0663 13.4838 14.9702Z" fill="#FECE00"/>
<path d="M15.5629 15.7042C15.7207 15.6836 15.8854 15.6905 16.0295 15.7728C16.2354 15.8894 16.3383 16.1159 16.4343 16.3149C16.4892 16.4384 16.5373 16.5619 16.5922 16.6923C16.6196 16.7472 16.6402 16.8089 16.6677 16.8638C16.7431 17.0079 16.8186 17.152 16.9284 17.2687C17.1274 17.4677 17.3196 17.6941 17.4568 17.948C17.5117 18.0578 17.5117 18.1882 17.498 18.3048C17.4911 18.3185 17.4773 18.3391 17.4705 18.3529C17.3881 18.4832 17.2441 18.5656 17.0931 18.5587C16.8323 18.545 16.6196 18.3803 16.4481 18.2087C16.3177 18.0715 16.201 17.9274 16.0981 17.7696C16.0775 17.7353 16.0432 17.7147 16.0158 17.6941C16.0089 17.749 16.0089 17.8039 15.9952 17.8657C15.9815 17.9 15.9677 17.9343 15.9609 17.9686C15.906 18.0235 15.8168 18.0235 15.7482 18.0029C15.6315 17.9686 15.5149 17.9068 15.4188 17.8314C15.4188 17.8245 15.4188 17.8108 15.4188 17.8039C15.4737 17.7353 15.5286 17.6598 15.5835 17.598C15.6178 17.55 15.6521 17.5089 15.6658 17.4608C15.6658 17.4059 15.6452 17.3579 15.6315 17.3098C15.6178 17.2687 15.6109 17.2275 15.5903 17.1863C15.5354 17.0422 15.46 16.9118 15.3639 16.7883C15.4119 16.754 15.4806 16.7197 15.4874 16.658C15.4669 16.5893 15.4188 16.5344 15.3708 16.4795C15.4051 16.4521 15.4394 16.4315 15.4737 16.4041C15.4737 16.3629 15.4737 16.3217 15.4668 16.2806C15.4531 16.2394 15.4188 16.2119 15.3845 16.1776C15.4188 16.157 15.4531 16.1365 15.4943 16.109C15.5011 16.0198 15.4737 15.9375 15.4462 15.8551C15.46 15.8551 15.4737 15.8551 15.4874 15.8483C15.5149 15.8002 15.5423 15.7522 15.5629 15.7042Z" fill="#FECE00"/>
<path d="M13.8199 15.7933C13.9229 15.7453 14.0396 15.7591 14.1493 15.7728C14.314 15.8002 14.4856 15.8345 14.6571 15.8277C14.8218 15.8208 14.9865 15.7796 15.1511 15.7659C15.206 15.759 15.2541 15.7796 15.3021 15.8139C15.3021 15.8414 15.3021 15.8757 15.3021 15.91C15.1855 15.9992 15.0345 16.0129 14.8973 16.0335C14.664 16.061 14.4238 16.061 14.1905 16.0335C14.0601 16.0129 13.916 15.9855 13.8199 15.8825C13.8199 15.8482 13.8199 15.8208 13.8199 15.7933Z" fill="#FECE00"/>
<path d="M13.8542 16.1981C13.9023 16.1707 13.9503 16.1501 14.0052 16.157C14.1767 16.1707 14.3483 16.2187 14.5198 16.2187C14.712 16.2187 14.8972 16.157 15.0962 16.1638C15.1649 16.1638 15.2129 16.2118 15.2472 16.2667C15.1991 16.3148 15.1443 16.356 15.0756 16.3766C14.8217 16.452 14.561 16.4452 14.3071 16.4246C14.1493 16.4109 13.9777 16.3971 13.8611 16.2942C13.8542 16.2599 13.8542 16.2324 13.8542 16.1981Z" fill="#FECE00"/>
<path d="M14.3757 16.5754C14.6159 16.6029 14.8492 16.5343 15.0894 16.5137C15.1512 16.5068 15.2129 16.5274 15.2678 16.548C15.261 16.5548 15.2403 16.5548 15.2335 16.5548C15.2403 16.5686 15.2403 16.596 15.2403 16.6097C15.1168 16.7195 14.9522 16.7538 14.7943 16.7813C14.5816 16.8224 14.3552 16.8087 14.1425 16.7538C14.067 16.7332 13.9847 16.7058 13.9435 16.6372L13.9297 16.6303C13.9366 16.6097 13.9503 16.5823 13.9572 16.5548C14.1013 16.5205 14.2385 16.5685 14.3757 16.5754Z" fill="#FECE00"/>
<path d="M15.062 16.8361C15.1306 16.8224 15.1992 16.8155 15.2747 16.8224C15.2747 16.8498 15.2747 16.8773 15.2747 16.8979C15.2198 16.9459 15.1581 16.9871 15.0895 17.0145C14.8356 17.1037 14.568 17.1312 14.3003 17.1175C14.1768 17.1038 14.0464 17.1037 13.9504 17.0351C13.9092 17.0145 13.9229 16.9665 13.9161 16.9322C14.1082 16.8842 14.3072 16.9185 14.4994 16.9047C14.6915 16.9116 14.8767 16.8773 15.062 16.8361Z" fill="#FECE00"/>
<path d="M23.5295 17.0008C23.8177 16.8841 24.1334 16.795 24.449 16.8567C24.6206 16.891 24.7784 16.9939 24.8744 17.138C24.9156 17.2067 24.943 17.2753 24.9705 17.3508C24.9773 17.3782 24.9842 17.4056 24.9911 17.4331C24.9911 17.488 24.9911 17.5497 24.9842 17.6046C24.9774 17.6733 24.9636 17.735 24.9499 17.8037C24.895 18.0507 24.8195 18.284 24.7303 18.5173C24.7235 18.5379 24.7166 18.5584 24.7097 18.579C24.6891 18.627 24.6754 18.682 24.6686 18.7369C24.7783 18.7094 24.8607 18.6408 24.9637 18.5996C25.1146 18.531 25.293 18.5241 25.4508 18.5516C25.341 18.8535 25.0597 19.0388 24.7852 19.1897C24.7852 19.2446 24.7852 19.2927 24.7715 19.3476C24.7646 19.4231 24.7509 19.4917 24.7372 19.5603C24.7166 19.6564 24.6892 19.7455 24.6617 19.8347C24.648 19.8759 24.6343 19.9239 24.6206 19.9651C24.5519 20.1916 24.4627 20.4112 24.3872 20.6307C23.9824 20.6307 23.5707 20.6307 23.1658 20.6307C23.2207 20.5004 23.3168 20.3837 23.3374 20.2396C23.2138 20.3563 23.1315 20.5072 23.0217 20.6376C22.8776 20.6376 22.7335 20.6376 22.5894 20.6376C22.7198 20.4866 22.8433 20.3288 22.9668 20.171C22.9531 20.171 22.9325 20.171 22.9188 20.1641C22.7472 20.3494 22.5551 20.5209 22.3218 20.6239C22.2601 20.6513 22.1914 20.665 22.116 20.6719C22.116 20.6239 22.1228 20.5758 22.1228 20.5347C22.1709 20.37 22.2326 20.1984 22.3699 20.0818C22.5208 19.9514 22.7335 19.9377 22.9188 19.972C23.0629 19.9926 23.1933 20.0612 23.3305 20.0955C23.3374 20.0749 23.3442 20.0406 23.3511 20.02C23.3717 19.9445 23.3923 19.8759 23.4129 19.8004C23.4197 19.7799 23.4266 19.7592 23.4266 19.7387C23.4471 19.6632 23.4677 19.5809 23.4815 19.4985C23.4883 19.4573 23.4952 19.4093 23.5089 19.3613C23.5295 19.1966 23.5226 19.0251 23.4677 18.8672C23.4128 18.7437 23.3099 18.6545 23.2276 18.5584C23.056 18.38 22.8845 18.2016 22.7815 17.982C22.7678 17.9546 22.761 17.934 22.7472 17.9066C22.7129 17.7693 22.6924 17.6046 22.7953 17.488C23.008 17.2684 23.2619 17.1174 23.5295 17.0008Z" fill="#FECE00"/>
<path d="M13.7856 17.2477C13.8337 17.2134 13.8817 17.1723 13.9435 17.186C14.019 17.1929 14.0944 17.2066 14.163 17.234C14.2316 17.2615 14.2591 17.337 14.2934 17.3987C14.3071 17.4193 14.3208 17.433 14.3346 17.4536C14.3414 17.4536 14.3552 17.4536 14.362 17.4536C14.465 17.3644 14.5816 17.2615 14.7257 17.2409C14.8492 17.2272 14.9453 17.3301 15.0139 17.4261C15.0825 17.3713 15.1443 17.2958 15.2266 17.2546C15.2953 17.2203 15.3707 17.2134 15.4394 17.2066C15.4531 17.2134 15.4737 17.2272 15.4805 17.234C15.4942 17.2615 15.508 17.2889 15.5217 17.3164C15.5423 17.3919 15.5629 17.481 15.5286 17.5565C15.4737 17.6457 15.3776 17.6801 15.2746 17.7075C15.1374 17.735 14.9933 17.7281 14.8492 17.7075C14.959 17.7898 15.007 17.9339 14.9933 18.0712C15.0002 18.1741 14.9384 18.2702 14.9178 18.3662C14.9384 18.5309 15.1237 18.5652 15.2541 18.6064C15.2335 18.5309 15.2129 18.4623 15.1923 18.3937C15.1923 18.3457 15.1923 18.2976 15.1855 18.2564C15.2129 18.2016 15.2472 18.1398 15.3158 18.1467C15.4943 18.1467 15.6452 18.2976 15.7207 18.4554C15.7207 18.4966 15.7207 18.5378 15.7207 18.5789C15.6589 18.7024 15.5148 18.7574 15.3913 18.778C15.1992 18.8123 15.0002 18.8054 14.808 18.7916C14.808 18.8465 14.808 18.8946 14.8149 18.9426C14.9315 18.9632 15.0619 19.0112 15.1237 19.1142C15.1374 19.1416 15.1443 19.1622 15.1511 19.1828C15.0688 19.2926 14.9247 19.272 14.808 19.2377C14.8149 19.3269 14.8149 19.4092 14.8149 19.4984C14.7806 19.5259 14.7532 19.5945 14.6983 19.5808C14.6228 19.5327 14.5885 19.4573 14.561 19.3749C14.561 19.3475 14.5541 19.32 14.5541 19.2926C14.5336 19.2995 14.5061 19.32 14.4924 19.32C14.3895 19.3406 14.3071 19.272 14.2248 19.2239C14.2865 19.073 14.4718 19.0524 14.561 18.9289C14.5747 18.874 14.5816 18.826 14.5884 18.7642C14.3757 18.7917 14.1562 18.7985 13.9503 18.7505C13.8542 18.723 13.7513 18.675 13.717 18.5789C13.6896 18.5309 13.7033 18.4692 13.717 18.428C13.717 18.4143 13.7239 18.3937 13.7239 18.38C13.7582 18.3182 13.7856 18.2427 13.8405 18.1878C13.9366 18.1398 14.0601 18.1123 14.1562 18.1672C14.2385 18.2221 14.2248 18.3388 14.2179 18.428C14.2179 18.4897 14.1836 18.5378 14.1562 18.5927C14.1425 18.5995 14.1219 18.6064 14.1081 18.6133C14.3003 18.6613 14.4993 18.4966 14.4993 18.3045C14.4856 18.2496 14.4512 18.1947 14.4238 18.1467C14.4032 18.0643 14.4169 17.982 14.4375 17.8996C14.4787 17.8379 14.5267 17.7761 14.5748 17.7144C14.3552 17.7487 14.115 17.7761 13.916 17.6663C13.8337 17.6252 13.7856 17.5497 13.7445 17.4742C13.7445 17.433 13.7445 17.385 13.7445 17.3369C13.7582 17.3026 13.7719 17.2752 13.7856 17.2477Z" fill="#FECE00"/>
<path d="M18.3762 11.5745C18.3419 11.5333 18.3076 11.5127 18.2801 11.5127C18.2733 11.5127 18.2733 11.5127 18.2664 11.5127C18.2459 11.5196 18.2253 11.5333 18.2115 11.5676C18.1978 11.6019 18.1841 11.6431 18.1841 11.6911C18.1841 11.7254 18.1909 11.7665 18.1978 11.8077C18.2115 11.8763 18.2459 11.938 18.2733 11.9792C18.3076 12.0204 18.3419 12.041 18.3693 12.041C18.3762 12.041 18.3831 12.041 18.3831 12.041C18.4037 12.0341 18.4243 12.0204 18.438 11.9861C18.4517 11.9518 18.4654 11.9106 18.4654 11.8626C18.4654 11.8283 18.4585 11.7871 18.4517 11.746C18.438 11.6705 18.4105 11.6156 18.3762 11.5745ZM27.3104 18.421C27.1663 18.325 27.0976 18.1604 27.0565 18.0094C27.0496 17.8654 27.0496 17.7281 27.0565 17.5909C27.0702 17.4537 27.0976 17.3234 27.1388 17.1931C27.1457 17.1656 27.1663 17.1244 27.18 17.0901C27.1937 17.0558 27.2074 17.0284 27.2212 16.9941C27.2898 16.8363 27.3584 16.6785 27.427 16.5276C27.5231 16.3081 27.6191 16.0954 27.6946 15.869C27.7427 15.7387 27.7838 15.6014 27.8181 15.4574C27.8593 15.2653 27.8867 15.0664 27.8593 14.8743C27.8319 14.6822 27.7495 14.497 27.5985 14.3735C27.4956 14.2706 27.3584 14.2157 27.228 14.154C27.3584 14.0167 27.4682 13.8521 27.5368 13.6737C27.6397 13.4199 27.7152 13.1386 27.6535 12.8642C27.6535 12.8574 27.6466 12.8368 27.6397 12.8231C27.6054 12.7064 27.5505 12.6035 27.4682 12.5143C27.2623 12.2742 26.9535 12.1439 26.6516 12.0478C26.1507 11.9038 25.6155 11.8832 25.1008 11.9038C25.0322 11.9038 24.9705 11.9175 24.9018 11.9381C24.6617 12.0204 24.4078 12.1027 24.1471 12.1027C23.9961 12.1096 23.8588 12.041 23.7422 11.9655C23.5569 11.8489 23.406 11.6842 23.2482 11.5265C23.2276 11.5265 23.2207 11.5265 23.207 11.5265C23.2001 11.6019 23.1864 11.6774 23.1795 11.7529C23.1658 11.8352 23.1521 11.9106 23.1383 11.9929C23.0491 11.9381 22.9805 11.8557 22.9394 11.7665L22.9325 11.7597C22.9188 11.7254 22.905 11.6842 22.8913 11.6499C22.8913 11.5882 22.8913 11.5333 22.8913 11.4716C22.9256 11.3961 22.9668 11.3206 23.0148 11.252C23.0286 11.2452 23.056 11.2383 23.0629 11.2383C22.905 11.1766 22.7198 11.1148 22.5482 11.1903C22.411 11.2589 22.3081 11.3755 22.2051 11.4922C22.212 11.451 22.2188 11.403 22.2257 11.3618C22.2737 11.2658 22.3012 11.156 22.3561 11.06C22.4247 10.9365 22.5002 10.7993 22.6374 10.7444C22.7678 10.7238 22.8982 10.7787 23.0148 10.8404C23.1521 10.9159 23.2824 11.0051 23.3991 11.108C23.4128 11.108 23.4265 11.1149 23.4334 11.1149C23.4334 10.9022 23.4265 10.6895 23.4334 10.4768C23.5844 10.662 23.7147 10.861 23.8588 11.0531C23.8794 11.0737 23.9 11.0943 23.9206 11.1149C23.948 10.9365 23.9892 10.765 23.9892 10.5866C24.0029 10.5797 24.0166 10.5797 24.0304 10.5797C24.0784 10.6415 24.1196 10.7169 24.1539 10.7855C24.1607 10.8473 24.1607 10.909 24.1539 10.9639C24.1127 11.0599 24.0578 11.1491 23.9961 11.2315C24.1402 11.2315 24.298 11.2383 24.4215 11.156C24.5313 11.06 24.545 10.909 24.5725 10.7787C24.648 10.7992 24.6823 10.8679 24.7303 10.9227C24.8469 11.0668 24.9773 11.204 25.1489 11.2864C25.3067 11.3618 25.4714 11.3961 25.6429 11.4235C25.5949 11.2863 25.5057 11.1697 25.4714 11.0325C25.4782 11.0393 25.4851 11.0531 25.492 11.06C25.8762 11.252 26.2399 11.4922 26.6653 11.5813C26.8438 11.6156 27.0359 11.6156 27.18 11.499C27.2692 11.4236 27.331 11.3138 27.3172 11.1972C27.3172 10.9982 27.0702 10.8404 26.8986 10.9433C26.8094 10.9845 26.7614 11.0805 26.7271 11.1766C26.7271 11.2589 26.7202 11.3343 26.7202 11.4167C26.6105 11.3618 26.5144 11.2932 26.4115 11.2315C25.739 10.8267 25.0322 10.4631 24.2843 10.2367C23.9069 10.1201 23.502 10.0309 23.0972 10.0789C22.7815 10.1407 22.4728 10.2367 22.2051 10.4014C21.9856 10.5317 21.7934 10.717 21.6905 10.9433C21.6082 11.156 21.5875 11.3824 21.6219 11.595C21.6356 11.6705 21.6493 11.7391 21.6631 11.8146C21.5396 11.9038 21.4503 12.041 21.4229 12.1987L21.416 12.2193C21.4091 12.3154 21.4023 12.4114 21.4229 12.5006C21.4435 12.5761 21.464 12.6515 21.4983 12.7201C21.5189 12.7476 21.5327 12.775 21.5533 12.8093C21.5601 12.8093 21.5738 12.8093 21.5807 12.8093C21.6013 12.7339 21.6288 12.6584 21.6631 12.5829C21.7317 12.432 21.8277 12.2811 21.9787 12.1919C22.0336 12.1644 22.0953 12.1302 22.1571 12.1645C22.2669 12.2262 22.363 12.3154 22.4728 12.384C22.5757 12.4526 22.6923 12.5006 22.8159 12.5349C23.0629 12.6035 23.3167 12.6515 23.5638 12.6927C23.6941 12.7064 23.8177 12.6996 23.948 12.6996C24.2843 12.6927 24.6205 12.679 24.9499 12.6104C25.2106 12.5349 25.4645 12.4251 25.7253 12.3634C25.8694 12.3291 26.0272 12.288 26.1781 12.3497C26.4663 12.4389 26.7065 12.6721 26.7957 12.9602C26.8094 13.022 26.8232 13.0769 26.8232 13.1386C26.8232 13.317 26.8232 13.4885 26.8232 13.6669C26.631 13.66 26.4389 13.6463 26.2605 13.5914C26.1438 13.5571 26.0272 13.4954 25.9037 13.4542C25.7253 13.3787 25.5263 13.365 25.3341 13.3787C24.6685 13.3925 24.0235 13.5845 23.3785 13.708C23.2276 13.7355 23.0766 13.7492 22.9256 13.7903C22.4522 13.907 21.965 13.9001 21.4915 13.9961C21.3406 14.0304 21.1896 14.0579 21.0386 14.051C21.0455 14.051 21.0661 14.0373 21.0798 14.0305C21.121 13.9687 21.1553 13.907 21.1964 13.8452C21.1484 13.7492 21.121 13.6463 21.0867 13.5502C21.0592 13.5845 21.018 13.612 20.97 13.612C20.9563 13.612 20.9426 13.612 20.922 13.6051C20.8739 13.5914 20.8191 13.5159 20.7573 13.413C20.7024 13.3101 20.6406 13.1798 20.5926 13.0563C20.5171 12.8779 20.4553 12.7064 20.421 12.6172L20.3387 13.3307L19.8447 12.6241C19.879 12.7613 19.9476 13.0631 19.9476 13.1866C19.9476 13.2003 19.9476 13.2141 19.9476 13.2278C19.9476 13.2346 19.9407 13.2484 19.927 13.2553C19.927 13.2553 19.927 13.2553 19.9201 13.2553C19.8927 13.2553 19.8584 13.2347 19.8104 13.2141C19.7623 13.1867 19.7074 13.1523 19.6525 13.118C19.577 13.07 19.5016 13.022 19.4673 13.0014C19.4673 13.0769 19.4604 13.317 19.4467 13.4747C19.4398 13.5365 19.433 13.5845 19.4261 13.6051C19.4192 13.6051 19.4192 13.6188 19.4055 13.6188C19.3986 13.6188 19.3986 13.6188 19.3918 13.6188C19.378 13.612 19.3438 13.5777 19.3026 13.5296C19.2614 13.4816 19.2134 13.4199 19.1653 13.3581C19.0693 13.2415 18.9801 13.118 18.9801 13.118L19.0075 13.0974C19.0075 13.0974 19.2134 13.365 19.33 13.5022C19.3643 13.5365 19.3918 13.5708 19.4055 13.5777C19.4055 13.5777 19.4124 13.5777 19.4124 13.5708C19.4124 13.5571 19.4192 13.5297 19.4261 13.5022C19.433 13.4405 19.4398 13.365 19.4398 13.2895C19.4467 13.1318 19.4467 12.974 19.4467 12.974V12.9465L19.4673 12.9602C19.4673 12.9602 19.6937 13.1112 19.8309 13.1866C19.879 13.2072 19.9133 13.2278 19.927 13.2278C19.927 13.2209 19.927 13.2072 19.927 13.1935C19.927 13.118 19.8995 12.9603 19.8652 12.8231C19.8378 12.6858 19.8035 12.5692 19.8035 12.5692L19.8309 12.5555L20.325 13.2553L20.4073 12.5555L20.4348 12.5486C20.4348 12.5486 20.4828 12.6858 20.5514 12.8642C20.62 13.0426 20.7093 13.2552 20.7916 13.4062C20.8465 13.5022 20.9014 13.5777 20.9357 13.5845C20.9494 13.5845 20.9632 13.5914 20.97 13.5914C21.0112 13.5914 21.0455 13.5639 21.0729 13.5296C21.0729 13.5296 21.0661 13.5296 21.0592 13.5365L21.1964 12.3017C21.1484 12.2879 21.0798 12.2399 21.0112 12.1851C20.9357 12.1233 20.8396 12.0341 20.7504 11.9449C20.6132 11.8146 20.4897 11.6842 20.4348 11.6225L20.4622 12.3634L20.2015 12.1233C20.2084 12.1645 20.2152 12.2193 20.2152 12.2742C20.2152 12.3085 20.2152 12.3428 20.2015 12.3634C20.1946 12.3908 20.1809 12.4114 20.1466 12.4114C20.1191 12.4114 20.078 12.3908 20.0299 12.3634C19.9819 12.3291 19.927 12.2879 19.8721 12.2468C19.8035 12.1919 19.7349 12.137 19.7005 12.1096C19.7074 12.1644 19.7143 12.2536 19.7143 12.3291C19.7143 12.3703 19.7143 12.4183 19.7005 12.4457C19.6937 12.48 19.68 12.5075 19.6457 12.5143C19.6457 12.5143 19.6388 12.5143 19.6319 12.5143C19.5976 12.5143 19.5565 12.4937 19.5016 12.4594C19.4467 12.4251 19.3849 12.384 19.33 12.3428C19.2751 12.3017 19.2271 12.2605 19.1859 12.233C19.2134 12.2811 19.2477 12.336 19.282 12.3977C19.3506 12.5281 19.4261 12.6721 19.4261 12.7407C19.4261 12.7545 19.4261 12.7682 19.4124 12.775C19.4055 12.7819 19.3918 12.7887 19.3781 12.7887C19.3369 12.7887 19.2751 12.7544 19.1996 12.7064C19.131 12.6584 19.0487 12.5898 18.9663 12.5212C18.8085 12.3909 18.6713 12.2605 18.6713 12.2605L18.6919 12.2399C18.6919 12.2399 18.7674 12.3154 18.8703 12.4045C18.9732 12.4937 19.1036 12.6104 19.2134 12.6858C19.282 12.7339 19.3437 12.7682 19.3712 12.7682C19.3781 12.7682 19.3781 12.7682 19.3781 12.7613C19.3849 12.7613 19.3849 12.7545 19.3849 12.7407C19.3849 12.6859 19.3163 12.5349 19.2477 12.4114C19.1791 12.2811 19.1036 12.1713 19.1036 12.1713L19.1242 12.1507C19.1242 12.1507 19.1791 12.1988 19.2546 12.2536C19.33 12.3154 19.4192 12.384 19.5016 12.432C19.5565 12.4663 19.5976 12.48 19.6182 12.48H19.6251C19.6388 12.48 19.6457 12.4663 19.6594 12.4389C19.6662 12.4114 19.6662 12.3703 19.6662 12.3291C19.6662 12.2125 19.6457 12.0753 19.6457 12.0753L19.6388 12.0341L19.6662 12.0615C19.6662 12.0615 19.7211 12.1096 19.7898 12.1645C19.8584 12.2193 19.9545 12.2879 20.0231 12.336C20.0711 12.3634 20.1123 12.384 20.126 12.384C20.1328 12.384 20.1466 12.3771 20.1466 12.3566C20.1534 12.336 20.1603 12.3085 20.1603 12.2742C20.1603 12.185 20.1397 12.089 20.1397 12.089L20.1328 12.0478L20.4073 12.2948L20.3799 11.547L20.4073 11.5745C20.4073 11.5745 20.4965 11.6705 20.6201 11.794C20.7436 11.9175 20.8877 12.0615 21.0043 12.1576C21.0729 12.2193 21.1416 12.2468 21.1759 12.2605L21.2239 11.8626C21.1827 11.6774 21.1004 11.5059 20.9837 11.3549C20.9837 11.3481 20.9837 11.3412 20.9837 11.3343C21.1278 11.2657 21.2719 11.1903 21.3405 11.0531C21.3886 10.957 21.416 10.8473 21.4366 10.7375C21.4435 10.7101 21.4503 10.6895 21.4572 10.662C21.169 10.7787 20.8534 10.9502 20.5377 10.8542C20.5309 10.7718 20.5034 10.6895 20.4485 10.6278C20.3319 10.4837 20.174 10.3808 20.0368 10.2573C20.0299 10.2573 20.0093 10.2573 20.0025 10.2504C20.0025 10.3602 20.0025 10.47 20.0025 10.5797C19.9682 10.6895 19.9202 10.8404 19.7692 10.8267C19.7006 10.7238 19.6251 10.6209 19.5359 10.5317C19.4124 10.4151 19.2408 10.3533 19.0693 10.3602C19.0761 10.3808 19.0898 10.4082 19.0967 10.4288C19.1036 10.5386 19.1036 10.6415 19.0967 10.7444C19.0349 10.8884 18.9115 11.0188 18.7468 11.0119C18.6919 10.9022 18.6301 10.7855 18.534 10.7032C18.4311 10.614 18.287 10.5866 18.1635 10.6209C18.0263 10.6552 17.9234 10.7444 17.7998 10.7993C18.0057 10.8336 18.2458 10.9159 18.3419 11.1285C18.1292 11.1491 17.9302 11.1971 17.7312 11.2452C17.4636 11.3138 17.196 11.3892 16.9352 11.4716C16.8872 11.4853 16.846 11.4922 16.798 11.4922C16.8117 11.4853 16.8323 11.4784 16.846 11.4716C16.9009 11.3961 16.9489 11.3138 16.9489 11.2177C16.9078 11.1766 16.8598 11.1354 16.798 11.1217C16.6402 11.0874 16.4412 11.1011 16.3314 11.2383C16.3245 11.3412 16.3177 11.4441 16.3588 11.5333C16.4206 11.6499 16.4961 11.7597 16.5921 11.8557C16.6814 11.9449 16.7706 12.0341 16.8872 12.0821C16.997 12.0341 17.0725 11.9449 17.1823 11.9106C17.2577 12.0547 17.3332 12.2056 17.4567 12.3085C17.5734 12.4046 17.7175 12.4457 17.8616 12.48C17.8616 12.3566 17.8616 12.2399 17.8616 12.1164C17.9919 12.2399 18.1086 12.3703 18.239 12.4869C18.3419 12.5761 18.438 12.6858 18.5272 12.7887C18.5752 12.8505 18.6095 12.9191 18.6438 12.9877C18.6507 13.0151 18.6644 13.0426 18.6713 13.07C18.6781 13.0975 18.685 13.1249 18.6919 13.1523C18.6987 13.1798 18.7056 13.2072 18.7056 13.2278C18.7124 13.2621 18.7193 13.3033 18.7262 13.3376C18.5409 13.2758 18.3556 13.1935 18.1635 13.1798C17.992 13.1729 17.8273 13.2141 17.6626 13.2415C17.6626 13.1455 17.6626 13.0426 17.6626 12.9465C17.5528 12.9603 17.443 13.0014 17.3264 13.0083C17.196 13.022 17.0656 13.0288 16.9421 13.0151C16.75 12.9877 16.5647 12.9259 16.3726 12.8848C16.4343 13.0151 16.4755 13.1592 16.5167 13.2964C16.5441 13.4336 16.5853 13.5983 16.4823 13.7149C16.4069 13.7972 16.3245 13.8727 16.2422 13.955C16.352 14.0099 16.4755 13.9962 16.5853 13.9413C16.7774 13.8452 16.9352 13.6943 17.0725 13.5365C17.045 13.7629 17.0176 13.9893 16.9558 14.2088C16.9627 14.2088 16.9833 14.2088 16.997 14.2088C17.1136 14.1402 17.1823 14.0099 17.2234 13.8795C17.2372 13.8246 17.2509 13.7766 17.2577 13.7149C17.2715 13.6531 17.2715 13.5914 17.2715 13.5296C17.3332 13.5228 17.395 13.5228 17.4567 13.5296C17.4499 13.5571 17.443 13.5914 17.4361 13.6257C17.4293 13.6531 17.4224 13.6806 17.4156 13.708C17.4156 13.7492 17.4156 13.7972 17.4156 13.8384C17.4293 13.8795 17.443 13.9207 17.4567 13.9618C17.5048 14.051 17.5734 14.1265 17.6695 14.1608C17.6695 14.0647 17.6695 13.9687 17.6695 13.8727C17.6901 13.7972 17.7106 13.7217 17.7449 13.6531C17.7861 13.5777 17.8684 13.5365 17.9439 13.5159C17.9439 13.5365 17.937 13.5777 17.937 13.5983C17.9165 13.66 17.9028 13.7286 17.889 13.7903C17.8753 13.8452 17.8684 13.907 17.8547 13.9618C17.8478 13.9687 17.841 13.9893 17.8341 13.9961C17.889 13.9961 17.9508 13.9961 17.992 13.9618C18.1086 13.9001 18.1704 13.7766 18.2253 13.6669C18.2321 13.66 18.2527 13.6463 18.2596 13.6394C18.3351 13.6669 18.438 13.708 18.4311 13.8041C18.4311 13.9481 18.4174 14.0922 18.4311 14.2431C18.2047 14.3255 17.9782 14.4352 17.7792 14.5724C17.6146 14.6822 17.4499 14.8125 17.2852 14.9223C17.0176 15.1144 16.7911 15.3751 16.6676 15.6838C16.5441 15.9856 16.5304 16.3355 16.6333 16.6442C16.6333 16.658 16.6402 16.6785 16.6402 16.6854C16.647 16.7128 16.6608 16.7334 16.6676 16.7608C16.6745 16.7883 16.6882 16.8157 16.6951 16.8432C16.7568 16.9598 16.8117 17.0764 16.9009 17.1725C17.0382 17.3165 17.1822 17.4606 17.292 17.6253C17.5253 17.8242 17.7861 17.9751 18.0331 18.1535C18.0331 18.0368 18.0331 17.9203 18.0263 17.8036C18.0057 17.639 18.0194 17.4743 17.992 17.3097C17.992 17.1176 17.9645 16.9324 17.9645 16.754C17.9439 16.6579 17.9508 16.5619 17.9577 16.4727C17.9645 16.6374 18.0194 16.7951 18.0469 16.9598C18.0537 17.0833 18.0743 17.2068 18.0674 17.3303C18.0674 17.4263 18.0606 17.5223 18.0743 17.6253C18.088 17.7007 18.1086 17.7762 18.1292 17.8448C18.1566 17.9683 18.191 18.0849 18.2184 18.2084C18.239 18.2838 18.2596 18.3593 18.2801 18.4416C18.3144 18.572 18.335 18.7023 18.3625 18.8395C18.3899 19.0453 18.4036 19.258 18.3625 19.4707C18.3144 19.6216 18.2321 19.7862 18.0812 19.8617C17.9096 19.9303 17.7244 19.8617 17.546 19.896C17.4362 19.9234 17.3195 19.9097 17.2234 19.9852C17.1274 20.0607 17.0862 20.1772 17.045 20.2939C17.0382 20.335 17.0313 20.3762 17.0176 20.4174C17.0039 20.4723 16.9901 20.5272 16.9764 20.582C16.9695 20.5889 16.949 20.5957 16.9352 20.5957C17.0519 20.6163 17.1754 20.6163 17.2783 20.5614C17.4362 20.4791 17.5459 20.3282 17.6832 20.2184C17.6626 20.3145 17.6077 20.3899 17.546 20.4586C17.5391 20.4723 17.5253 20.4928 17.5185 20.5134C17.5048 20.5408 17.4979 20.5683 17.4842 20.6026C17.594 20.6095 17.7106 20.6026 17.8067 20.5546C17.9988 20.4722 18.1223 20.3076 18.2801 20.1773C18.2801 20.191 18.2801 20.2116 18.2801 20.2253C18.2733 20.2253 18.2733 20.2253 18.2664 20.2253C18.2047 20.3556 18.1223 20.4722 18.0331 20.5957C18.534 20.6026 19.035 20.5957 19.5359 20.5957C19.6319 20.6094 19.7143 20.5203 19.7555 20.438C19.7898 20.2802 19.7143 20.1224 19.6525 19.9783C19.6388 19.9303 19.6182 19.8823 19.6045 19.8411C19.5977 19.7931 19.5976 19.7451 19.5976 19.697C19.7143 19.5392 19.9133 19.5118 20.0711 19.4089C20.1809 19.3472 20.2632 19.2443 20.325 19.1277C20.3456 19.0728 20.3662 19.0042 20.3662 18.9424C20.2701 18.9561 20.1671 18.963 20.0779 18.9836C19.8241 19.0316 19.5908 19.1276 19.3575 19.2305C19.378 19.1825 19.4055 19.1277 19.4261 19.0796C19.4673 18.9836 19.5084 18.8807 19.5427 18.7846C19.5565 18.7366 19.5702 18.6954 19.5839 18.6474C19.6045 18.5582 19.6182 18.4622 19.68 18.3799C19.8653 18.1329 20.0779 17.9065 20.2495 17.6527C20.4485 17.3783 20.6132 17.0833 20.7573 16.7746C20.7573 16.7609 20.7641 16.7403 20.7641 16.7266H20.7916C20.7916 16.7128 20.7847 16.6991 20.7847 16.6854H20.8122C20.8122 16.6717 20.8122 16.6442 20.8053 16.6236L20.8259 16.6305C20.8396 16.5756 20.8533 16.5139 20.8671 16.459C20.8671 16.5002 20.8739 16.5482 20.8739 16.5893L20.8533 16.5825C20.8533 16.5962 20.8534 16.6236 20.8465 16.6305C20.8396 16.6648 20.8328 16.6923 20.8259 16.7266H20.8122C20.7916 16.802 20.7641 16.8775 20.7367 16.9529C20.7092 17.0078 20.6887 17.0695 20.6544 17.1313C20.6475 17.1519 20.6338 17.1725 20.6269 17.1931C20.5377 17.3646 20.4348 17.5361 20.3181 17.7007C20.1466 17.9545 19.9339 18.1741 19.7212 18.4005C19.7212 18.4416 19.7212 18.4759 19.7212 18.5171C19.7143 18.5239 19.6937 18.5376 19.6869 18.5445C19.8035 18.5445 19.9064 18.5102 20.0231 18.4897C20.8945 18.2976 21.7111 17.9271 22.4796 17.4743C22.6717 17.3508 22.8913 17.2616 23.0766 17.1244C23.2756 16.9941 23.4883 16.8912 23.7148 16.8226C23.9892 16.7402 24.2911 16.6854 24.5656 16.802C24.7166 16.8569 24.8332 16.9735 24.9087 17.1039C25.0665 17.2411 25.1969 17.392 25.3616 17.5155C25.4714 17.5978 25.5537 17.7007 25.6635 17.7899C25.8076 17.9202 25.9792 18.0574 26.0203 18.2564C26.0272 18.2975 26.0409 18.3387 26.0478 18.373C26.0546 18.5445 26.0478 18.716 26.0478 18.8875C26.0546 19.0522 26.0478 19.2168 26.0684 19.3815C26.0615 19.4981 26.0615 19.6216 26.0341 19.7382C26.0272 19.7588 26.0135 19.7794 26.0066 19.7999C25.9037 19.896 25.7596 19.848 25.6498 19.7931C25.4714 19.7108 25.2655 19.6422 25.0665 19.7039C24.8469 19.7725 24.7097 19.9783 24.6411 20.1841C24.6205 20.2596 24.5999 20.3282 24.5862 20.4037C24.5793 20.4654 24.5725 20.5272 24.5725 20.5889C24.6548 20.5889 24.7372 20.5889 24.8126 20.5546C24.9018 20.5134 24.9567 20.4379 25.0391 20.3899C25.0185 20.4517 24.991 20.5066 24.9704 20.5683C24.9636 20.5683 24.943 20.5752 24.9361 20.582C25.094 20.6163 25.2655 20.6163 25.4165 20.534C25.5125 20.486 25.5812 20.3968 25.6635 20.3213C25.6498 20.4174 25.6017 20.5134 25.54 20.5889C25.6155 20.6095 25.6978 20.6232 25.7733 20.6301C25.9517 20.6438 26.137 20.6644 26.3154 20.6712C26.3222 20.5889 26.3223 20.4928 26.3291 20.4105C26.432 20.438 26.5281 20.486 26.631 20.5134C26.8438 20.5751 27.077 20.5957 27.2898 20.5065C27.3584 20.4722 27.3652 20.3899 27.3858 20.3213C27.379 20.2939 27.3721 20.2596 27.3721 20.2322C27.3652 20.1704 27.3515 20.1087 27.3378 20.0538C27.3309 20.0126 27.3172 19.9715 27.3035 19.9303C27.276 19.8205 27.2555 19.7108 27.2555 19.601C27.276 19.4844 27.3309 19.3746 27.4133 19.2854C27.2692 19.2237 27.1594 19.1002 27.1182 18.9424C27.2829 18.9424 27.4476 18.9287 27.6054 18.8738C27.7838 18.8121 27.9279 18.668 28.0103 18.4965C27.7838 18.5582 27.5162 18.5651 27.3104 18.421ZM18.4997 12.0067C18.4791 12.0478 18.4449 12.0821 18.4037 12.089C18.3968 12.089 18.3831 12.089 18.3762 12.089C18.3213 12.089 18.2733 12.0547 18.2321 12.0067C18.191 11.9587 18.1635 11.89 18.1429 11.8146C18.1292 11.7734 18.1292 11.7254 18.1292 11.6911C18.1292 11.6362 18.136 11.5813 18.1566 11.5402C18.1772 11.499 18.2115 11.4647 18.2527 11.451C18.2664 11.451 18.2733 11.451 18.2801 11.451C18.335 11.451 18.3831 11.4853 18.4243 11.5333C18.4654 11.5813 18.4997 11.6499 18.5135 11.7254C18.5272 11.7665 18.5272 11.8146 18.5272 11.8557C18.5272 11.9106 18.5203 11.9655 18.4997 12.0067ZM18.3488 11.3138L18.3693 11.2932C18.3693 11.2932 18.4037 11.3275 18.4586 11.3824C18.5134 11.4373 18.5958 11.5127 18.685 11.5882C18.8771 11.7391 19.1241 11.8832 19.3506 11.8832H19.3575C19.2957 11.8146 19.1379 11.6225 19.131 11.4647C19.131 11.4578 19.131 11.4441 19.131 11.4373L19.1379 11.4167L19.1585 11.4304C19.1585 11.4304 19.282 11.5127 19.4467 11.595C19.6113 11.6774 19.8241 11.7529 19.9819 11.7529C20.0231 11.7529 20.0642 11.746 20.0985 11.7391C20.0711 11.7185 20.0231 11.6705 19.9682 11.6225C19.8927 11.547 19.8172 11.4647 19.8172 11.3961C19.8172 11.3892 19.8172 11.3892 19.8172 11.3824V11.3687H19.8309C19.8309 11.3687 19.8995 11.3755 19.9956 11.3892C20.0917 11.403 20.222 11.4098 20.3456 11.4098C20.5171 11.4098 20.6887 11.3893 20.7573 11.3275L20.7779 11.3481C20.6955 11.4235 20.524 11.4373 20.3456 11.4373C20.126 11.4373 19.8995 11.403 19.8378 11.3961C19.8447 11.4441 19.9133 11.5264 19.9819 11.595C20.0574 11.6636 20.126 11.7254 20.126 11.7254L20.1466 11.7391L20.126 11.746C20.0848 11.7666 20.0299 11.7734 19.975 11.7734C19.6731 11.7734 19.2545 11.5196 19.1516 11.4579C19.1516 11.5402 19.2065 11.6499 19.2682 11.7323C19.33 11.8146 19.3849 11.8763 19.3849 11.8763L19.4055 11.8969H19.3781C19.3643 11.8969 19.3506 11.8969 19.3438 11.8969C18.8772 11.9175 18.3488 11.3138 18.3488 11.3138ZM19.2682 14.5244C19.1722 14.4969 19.0624 14.3392 18.9801 14.1882C18.9252 14.0922 18.884 14.003 18.8497 13.9481L18.8291 14.2774H18.8016L18.8223 13.8864L18.8497 13.8795C18.8497 13.8795 18.9115 14.0236 19.0007 14.1745C19.0761 14.3049 19.1722 14.4489 19.2546 14.4901C19.2408 14.3941 19.1996 14.0167 19.1996 13.8246C19.1996 13.7766 19.1997 13.7423 19.2065 13.7217L19.2339 13.7286C19.2271 13.7423 19.2271 13.7766 19.2271 13.8246C19.2271 13.9344 19.2408 14.1059 19.2546 14.25C19.2683 14.394 19.282 14.5107 19.282 14.5107L19.2889 14.5313L19.2682 14.5244ZM21.0249 14.5038H21.0112C20.8808 14.4832 20.7298 14.2912 20.5926 14.1059C20.5445 14.0373 20.4966 13.9618 20.4622 13.9069C20.5514 14.2019 20.572 14.6067 20.572 14.6067V14.6273L20.5514 14.6204C20.2426 14.545 19.9682 14.0785 19.8858 13.9138C19.8927 14.2225 20.0711 14.4489 20.1603 14.545C20.1878 14.5793 20.2152 14.593 20.2152 14.593L20.2358 14.6136L20.2083 14.6204C20.1946 14.6273 20.174 14.6273 20.1603 14.6273C20.0848 14.6273 20.0025 14.5724 19.9133 14.497C19.8309 14.4146 19.7417 14.3117 19.6662 14.2088C19.5153 13.9961 19.3918 13.7903 19.3918 13.7903L19.4192 13.7766C19.4192 13.7766 19.4878 13.8932 19.5839 14.0373C19.68 14.1814 19.8104 14.3597 19.9339 14.4764C20.0162 14.5518 20.0986 14.5998 20.1603 14.5998C20.1672 14.5998 20.1672 14.5998 20.174 14.5998C20.0985 14.5244 19.8515 14.2637 19.8515 13.8933C19.8515 13.8795 19.8515 13.8658 19.8515 13.8521V13.7972L19.879 13.8452C19.879 13.8452 19.8996 13.8864 19.9407 13.9481C19.975 14.0099 20.0299 14.0991 20.0917 14.1814C20.2083 14.346 20.373 14.5244 20.5377 14.5724C20.5377 14.5244 20.524 14.4009 20.5034 14.25C20.476 14.0716 20.4348 13.859 20.3593 13.7286C20.3593 13.7218 20.3524 13.7149 20.3524 13.7149L20.3799 13.7011C20.3936 13.7286 20.4897 13.8933 20.6063 14.0648C20.7298 14.25 20.8945 14.4352 20.9974 14.4558C20.9974 14.4558 21.0043 14.4558 21.0112 14.4489C21.0249 14.4421 21.0318 14.4284 21.0455 14.4078C21.0729 14.3666 21.1004 14.3048 21.1004 14.2088C21.1004 14.1951 21.1004 14.1745 21.1004 14.1608L21.1278 14.154C21.1278 14.1745 21.1278 14.1882 21.1278 14.2088C21.1484 14.4352 21.0249 14.5038 21.0249 14.5038Z" fill="#FECE00"/>
<path d="M12.0427 2.39521C12.077 2.36776 12.1182 2.34031 12.1594 2.31287C12.3515 2.46383 12.5162 2.64909 12.6946 2.82064C12.8593 2.6285 13.1338 2.6079 13.3671 2.62848C13.5112 2.64907 13.6758 2.70396 13.7513 2.8412C14.0052 3.23919 14.1836 3.6715 14.3826 4.09693C14.4375 4.22044 14.4924 4.34398 14.561 4.4675C14.5679 4.48808 14.5679 4.52238 14.5747 4.54297C14.3826 4.48121 14.1768 4.46748 13.9709 4.44689C13.6278 4.41945 13.2779 4.39201 12.9416 4.28908C12.7015 4.20674 12.4339 4.06263 12.3446 3.80875C12.3309 3.65778 12.3241 3.5068 12.3515 3.35584C12.3652 3.30781 12.379 3.2598 12.3927 3.21177C12.3995 3.18432 12.4133 3.15687 12.427 3.12256C12.4544 3.07453 12.4887 3.03334 12.5025 2.97845C12.4407 2.7177 12.2143 2.56675 12.0427 2.39521Z" fill="#FECE00"/>
<path d="M12.0427 27.6073C12.077 27.6347 12.1182 27.6622 12.1594 27.6896C12.3515 27.5386 12.5162 27.3534 12.6946 27.1887C12.8593 27.374 13.1338 27.4014 13.3671 27.3739C13.5112 27.3534 13.6758 27.2985 13.7513 27.1612C14.0052 26.7632 14.1836 26.331 14.3826 25.9055C14.4375 25.782 14.4924 25.6585 14.561 25.535C14.5679 25.5144 14.5679 25.4732 14.5747 25.4526C14.3826 25.5144 14.1768 25.535 13.9709 25.5556C13.6278 25.583 13.2779 25.6105 12.9416 25.7134C12.7015 25.8026 12.4339 25.9398 12.3446 26.1937C12.3309 26.3447 12.3241 26.4956 12.3515 26.6466C12.3652 26.6946 12.379 26.7427 12.3927 26.7907C12.3995 26.8182 12.4133 26.8525 12.427 26.8799C12.4544 26.9279 12.4887 26.9691 12.5025 27.024C12.4407 27.2847 12.2143 27.4357 12.0427 27.6073Z" fill="#FECE00"/>
</svg>
