<svg width="30" height="30" viewBox="0 0 30 30" fill="none" xmlns="http://www.w3.org/2000/svg">
<path d="M3.42415 24.5451H26.5692C27.2554 23.708 27.8524 22.7885 28.3464 21.8141H1.64691C2.14783 22.7885 2.73796 23.708 3.42415 24.5451Z" fill="#D81C3F"/>
<path d="M1.64692 21.8141H28.3464C28.7856 20.9495 29.1493 20.0368 29.4169 19.083H0.576477C0.844089 20.0437 1.20777 20.9495 1.64692 21.8141Z" fill="white"/>
<path d="M15.0002 30.0003C18.2047 30.0003 21.169 28.9848 23.6049 27.2693H6.38855C8.82451 28.9848 11.7888 30.0003 15.0002 30.0003Z" fill="#D81C3F"/>
<path d="M6.38852 27.2693H23.6049C24.7096 26.4939 25.7115 25.5812 26.5692 24.5451H3.42419C4.28193 25.5812 5.28376 26.4939 6.38852 27.2693Z" fill="white"/>
<path d="M0.576496 19.0899H29.4169C29.6639 18.2116 29.8423 17.299 29.9315 16.3658H0.0687256C0.151068 17.299 0.329469 18.2116 0.576496 19.0899Z" fill="#D81C3F"/>
<path d="M0.576477 10.9106H29.4169C29.1493 9.95681 28.7856 9.05103 28.3464 8.18643H1.64692C1.20777 9.04416 0.844089 9.95681 0.576477 10.9106Z" fill="white"/>
<path d="M15.0002 0.000244141C11.7957 0.000244141 8.83137 1.01583 6.38855 2.73129H23.6049C21.169 1.01583 18.2047 0.000244141 15.0002 0.000244141Z" fill="#D81C3F"/>
<path d="M23.6049 2.7244H6.38852C5.28376 3.49979 4.28193 4.4124 3.42419 5.4554H26.5692C25.7115 4.4124 24.7096 3.49979 23.6049 2.7244Z" fill="white"/>
<path d="M0.0687256 13.6347H29.9315C29.8492 12.6946 29.6708 11.7889 29.4169 10.9037H0.576496C0.329469 11.7889 0.151068 12.6946 0.0687256 13.6347Z" fill="#D81C3F"/>
<path d="M0.00012207 15.0003C0.00012207 15.46 0.0275527 15.9129 0.0687238 16.3658H29.9315C29.9727 15.9129 30.0001 15.46 30.0001 15.0003C30.0001 14.5405 29.9727 14.0876 29.9315 13.6347H0.0687238C0.0275527 14.0876 0.00012207 14.5405 0.00012207 15.0003Z" fill="white"/>
<path d="M3.42415 5.45541C2.73796 6.29256 2.14097 7.21207 1.64691 8.17959H28.3464C27.8455 7.20521 27.2554 6.2857 26.5692 5.45541H3.42415Z" fill="#D81C3F"/>
<path d="M15.007 0.000244141C15.007 0.000244141 15.0001 0.000244141 14.9932 0.000244141C7.17072 0.000244141 0.754876 5.99064 0.0618286 13.6347H15.007V0.000244141Z" fill="#002649"/>
<path d="M8.53621 4.68002L9.31843 7.09541H11.8573L9.80564 8.58442L10.5879 10.9998L8.53621 9.51079L6.47766 10.9998L7.25988 8.58442L5.20819 7.09541H7.74708L8.53621 4.68002Z" fill="white"/>
</svg>
