<svg width="30" height="30" viewBox="0 0 30 30" fill="none" xmlns="http://www.w3.org/2000/svg">
<path d="M14.9968 30.0003C21.0475 30.0003 26.2613 26.4115 28.6281 21.2514H1.36539C3.73904 26.4115 8.946 30.0003 14.9968 30.0003Z" fill="#009543"/>
<path d="M14.9968 0.000274658C8.946 0.000274658 3.73218 3.58902 1.36539 8.74912H28.635C26.2614 3.58902 21.0544 0.000274658 14.9968 0.000274658Z" fill="#00209F"/>
<path d="M0.000183105 15.0003C0.000183105 17.2304 0.494117 19.3438 1.36537 21.2514H28.635C29.5062 19.3507 30.0002 17.2304 30.0002 15.0003C30.0002 12.7702 29.5131 10.6567 28.635 8.74911H1.37224C0.494123 10.6498 0.000183105 12.7633 0.000183105 15.0003Z" fill="white"/>
<path d="M18.5573 17.2304C18.4406 17.2784 18.3171 17.3333 18.2005 17.3882C17.4733 16.4275 16.7462 15.4531 16.0053 14.4993C16.2728 13.8886 16.4992 13.2505 16.5815 12.5849C16.6295 12.0497 16.5472 11.4801 16.2591 11.0204C16.0533 10.6842 15.6828 10.4783 15.2918 10.4234C15.2918 10.3754 15.2918 10.3068 15.2918 10.3068C15.2918 10.3068 15.1203 10.1284 14.9694 10.1284C14.8116 10.1284 14.743 10.2107 14.6332 10.3068C14.6332 10.3479 14.6332 10.3822 14.6332 10.4234C14.2971 10.4852 13.9746 10.6499 13.7619 10.9175C13.4601 11.288 13.3435 11.7821 13.3366 12.2556C13.3572 13.0447 13.6247 13.7926 13.9334 14.5062C13.954 14.5405 13.9197 14.5748 13.8992 14.6023C13.2063 15.5286 12.5134 16.4619 11.8273 17.3882C11.6833 17.3539 11.5529 17.299 11.4157 17.251C11.1756 17.7656 10.9355 18.2734 10.6954 18.788C11.8067 19.4193 13.0759 19.7555 14.345 19.8448C15.5182 19.8996 16.705 19.7761 17.8232 19.4125C18.3377 19.2409 18.8454 19.0282 19.3051 18.7331C19.0581 18.2391 18.8111 17.7313 18.5573 17.2304ZM15.2781 11.9605C15.2849 11.7958 15.2712 11.6242 15.2918 11.4596C15.2986 11.1782 15.2918 10.9038 15.2918 10.6224C15.6485 10.6773 15.9915 10.89 16.1493 11.2194C16.3757 11.6586 16.4512 12.1663 16.3757 12.6466C16.3002 13.223 16.1013 13.7789 15.8817 14.3141C15.7377 14.1288 15.6005 13.9436 15.4564 13.7583C15.4564 13.4152 15.4564 13.0652 15.4564 12.7222C15.6211 12.7153 15.7857 12.7221 15.9504 12.7153C15.7377 12.53 15.5387 12.3241 15.3329 12.132C15.2643 12.0908 15.2781 12.0154 15.2781 11.9605ZM13.5493 12.4957C13.5081 12.0428 13.5767 11.5694 13.8237 11.1782C14.002 10.8832 14.3107 10.6842 14.6469 10.6224C14.6469 11.1233 14.6606 11.6174 14.6469 12.1183C14.4548 12.3242 14.2559 12.5369 14.0569 12.7427C14.2216 12.7427 14.3793 12.7427 14.5508 12.7427C14.5508 13.0103 14.5577 13.2711 14.544 13.5387C14.5372 13.6211 14.5783 13.7103 14.5166 13.7857C14.3725 13.9779 14.2284 14.17 14.0844 14.3621C13.8237 13.772 13.6179 13.1407 13.5493 12.4957ZM11.6627 17.896C11.7039 18.0332 11.7519 18.1704 11.7999 18.3077C11.6696 18.342 11.5323 18.3626 11.402 18.3969C11.4843 18.2322 11.5667 18.0607 11.6627 17.896ZM11.4706 18.6233C11.6078 18.5753 11.7519 18.5341 11.8891 18.4861C11.9165 18.5959 11.944 18.7057 11.9714 18.8155C11.7999 18.7537 11.6352 18.6851 11.4706 18.6233ZM12.0674 17.9097C12.2527 17.9646 12.4448 18.0195 12.63 18.0813C12.7054 18.1636 12.7398 18.2802 12.7809 18.3832C12.6094 18.4243 12.4447 18.4724 12.2801 18.5204C12.2046 18.3214 12.1429 18.1156 12.0674 17.9097ZM12.4653 18.987C12.4379 18.8978 12.4105 18.8155 12.3899 18.7331C12.5477 18.6782 12.7055 18.6302 12.8632 18.5753C12.9456 18.7674 13.0485 18.9527 13.1308 19.1448C12.9113 19.0899 12.6849 19.0351 12.4653 18.987ZM13.1308 18.2185C13.3229 18.2597 13.515 18.3008 13.707 18.342C13.7619 18.4243 13.8168 18.5067 13.8717 18.589C13.7002 18.6508 13.5355 18.7194 13.3709 18.7811C13.2886 18.5959 13.2063 18.4106 13.1308 18.2185ZM13.5424 19.2066C13.515 19.138 13.4807 19.0625 13.467 18.987C13.6453 18.9321 13.8237 18.8635 14.002 18.8086C14.1049 18.9802 14.2216 19.1517 14.3314 19.3232C14.0638 19.2821 13.8031 19.2478 13.5424 19.2066ZM14.2147 18.39C14.5234 18.3969 14.8322 18.4106 15.1477 18.4312C15.1752 18.493 15.2026 18.5616 15.2301 18.6302C14.9831 18.7125 14.743 18.8086 14.496 18.8909C14.4068 18.7194 14.297 18.5547 14.2147 18.39ZM14.791 19.3438C14.7292 19.2546 14.6812 19.1654 14.6263 19.0694C14.8665 18.9802 15.1066 18.8909 15.3467 18.8017C15.4633 18.9664 15.5731 19.138 15.6897 19.3095C15.3947 19.3232 15.0928 19.3232 14.791 19.3438ZM15.5868 18.4037C15.8131 18.3832 16.0327 18.342 16.2591 18.3283C16.3071 18.3969 16.362 18.4724 16.41 18.541C16.2179 18.6439 16.0258 18.74 15.8269 18.8223C15.7514 18.6851 15.6691 18.541 15.5868 18.4037ZM16.0944 19.2478C16.0464 19.1654 16.0053 19.0899 15.9504 19.0145C16.1425 18.9252 16.3345 18.8155 16.5266 18.7331C16.6501 18.8635 16.7599 19.0076 16.8834 19.1448C16.6227 19.1654 16.362 19.2409 16.0944 19.2478ZM16.7187 18.2871C16.9245 18.2185 17.1304 18.1567 17.3362 18.0949C17.391 18.1567 17.4459 18.2116 17.5008 18.2665C17.343 18.3969 17.1784 18.5272 17.0137 18.6508C16.9108 18.5272 16.8148 18.4038 16.7187 18.2871ZM17.2538 19.0419C17.2195 18.9733 17.1715 18.8978 17.1372 18.8292C17.2881 18.7125 17.4459 18.589 17.6037 18.4861C17.6997 18.6233 17.7958 18.7537 17.8987 18.8841C17.686 18.9321 17.4733 18.9939 17.2538 19.0419ZM17.6997 17.9646C17.885 17.8891 18.0565 17.8205 18.2417 17.745C18.276 17.7999 18.3172 17.8548 18.3583 17.9097C18.2486 18.0675 18.1457 18.2254 18.0428 18.3832C17.9261 18.2459 17.8095 18.1018 17.6997 17.9646ZM18.2211 18.4929C18.3034 18.3832 18.372 18.2665 18.4544 18.1567C18.523 18.2871 18.5847 18.4243 18.6533 18.541C18.523 18.589 18.3926 18.6302 18.2623 18.6782C18.2486 18.6233 18.2348 18.5616 18.2211 18.4929Z" fill="black"/>
</svg>
