<svg width="30" height="30" viewBox="0 0 30 30" fill="none" xmlns="http://www.w3.org/2000/svg">
<path d="M14.9999 0.000244141C8.94776 0.000244141 3.73276 3.58899 1.36542 8.74911H28.6344C26.2671 3.58213 21.0521 0.000244141 14.9999 0.000244141Z" fill="#E8A60D"/>
<path d="M6.10352e-05 15.0003C6.10352e-05 17.2304 0.494108 19.3438 1.36556 21.2514H28.6346C29.506 19.3507 30.0001 17.2304 30.0001 15.0003C30.0001 12.7702 29.506 10.6567 28.6346 8.74908H1.36556C0.494108 10.6498 6.10352e-05 12.7633 6.10352e-05 15.0003Z" fill="#0E5A3F"/>
<path d="M14.9999 30.0003C21.0521 30.0003 26.2602 26.4115 28.6344 21.2514H1.36542C3.73276 26.4115 8.94776 30.0003 14.9999 30.0003Z" fill="#AB2034"/>
</svg>
