<svg width="30" height="30" viewBox="0 0 30 30" fill="none" xmlns="http://www.w3.org/2000/svg">
<path d="M15.0036 30.0003C21.0543 30.0003 26.2681 26.4115 28.6349 21.2514H1.36536C3.73901 26.4115 8.94596 30.0003 15.0036 30.0003Z" fill="#009DDC"/>
<path d="M15.0036 0.000274658C8.95282 0.000274658 3.73901 3.58902 1.36536 8.74912H28.6349C26.2613 3.58902 21.0543 0.000274658 15.0036 0.000274658Z" fill="#EF4135"/>
<path d="M6.10352e-05 15.0003C6.10352e-05 17.2304 0.487176 19.3438 1.36529 21.2514H28.6349C29.5061 19.3507 30.0001 17.2372 30.0001 15.0003C30.0001 12.7702 29.513 10.6567 28.6349 8.74911H1.36529C0.494036 10.6498 6.10352e-05 12.7702 6.10352e-05 15.0003Z" fill="#F1F4FB"/>
</svg>
