<svg width="30" height="30" viewBox="0 0 30 30" fill="none" xmlns="http://www.w3.org/2000/svg">
<path d="M15.0036 30.0003C21.761 30.0003 27.4825 25.5264 29.3485 19.3713H0.651947C2.53166 25.5264 8.24626 30.0003 15.0036 30.0003Z" fill="#A12830"/>
<path d="M15.0036 0.000274658C8.24619 0.000274658 2.52472 4.47423 0.658722 10.6293H29.3553C27.4824 4.47423 21.7678 0.000274658 15.0036 0.000274658Z" fill="#A12830"/>
<path d="M29.3484 10.6224H0.651918C0.226581 12.0085 0.000183105 13.477 0.000183105 15.0003C0.000183105 16.5236 0.226581 17.9921 0.651918 19.3782H29.3484C29.7738 17.9921 30.0002 16.5236 30.0002 15.0003C30.0002 13.477 29.7738 12.0085 29.3484 10.6224Z" fill="#F1F4FB"/>
</svg>
