<svg width="30" height="30" viewBox="0 0 30 30" fill="none" xmlns="http://www.w3.org/2000/svg">
<g clip-path="url(#clip0_1_6212)">
<path d="M27.0014 5.99759H2.99862C1.11848 8.50216 0 11.6174 0 15.0003C0 18.3764 1 21.5003 3.08203 24.0031H26.9134C29 21.5003 30 18.3764 30 15.0003C30 11.6243 28.8884 8.50216 27.0014 5.99759Z" fill="black"/>
<path d="M15 18.7503C17.0711 18.7503 18.75 17.0713 18.75 15.0003C18.75 12.9292 17.0711 11.2503 15 11.2503C12.9289 11.2503 11.25 12.9292 11.25 15.0003C11.25 17.0713 12.9289 18.7503 15 18.7503Z" fill="white"/>
<path d="M15.7583 18.2587C17.5577 18.2587 19.0165 16.8 19.0165 15.0005C19.0165 13.201 17.5577 11.7422 15.7583 11.7422C13.9588 11.7422 12.5 13.201 12.5 15.0005C12.5 16.8 13.9588 18.2587 15.7583 18.2587Z" fill="black"/>
<path d="M16.8232 15.0003L21.867 13.3615L18.7498 17.652V12.3487L21.867 16.6391L16.8232 15.0003Z" fill="white"/>
<path d="M15 0.000274658C9.66149 0.000274658 4.98171 2.79992 2.32617 6.99937H27.6738C25.0183 2.79992 20.3385 0.000274658 15 0.000274658Z" fill="#E70013"/>
<path d="M15 29.9994C20.3385 29.9994 25.3445 26.6998 28 22.5003H2C4.65553 26.6998 9.66148 29.9994 15 29.9994Z" fill="#239E46"/>
</g>
<defs>
<clipPath id="clip0_1_6212">
<rect y="0.000274658" width="30" height="30" rx="15" fill="white"/>
</clipPath>
</defs>
</svg>
