<svg width="30" height="30" viewBox="0 0 30 30" fill="none" xmlns="http://www.w3.org/2000/svg">
<path d="M30 15.0004C30 23.2827 23.2822 30.0004 15 30.0004C6.71775 30.0004 0 23.2827 0 15.0004C0 6.7182 6.71775 0.000457764 15 0.000457764C23.2822 0.000457764 30 6.71134 30 15.0004Z" fill="#E70013"/>
<path d="M13.2157 13.223H7.46552L14.0117 18.2116L14.993 17.4636L11.0268 14.4445L12.8383 14.4376L13.2157 13.223Z" fill="#008400"/>
<path d="M7.46564 13.2095H13.2159V13.2232H13.2227L12.8316 14.4447L11.0269 14.4309L14.9931 17.4707L13.9981 18.2187L7.46564 13.2095ZM14.005 18.1981L14.9862 17.4707L11.0269 14.4309H12.8316L13.209 13.2301L7.47936 13.2095L14.005 18.1981Z" fill="black"/>
<path d="M16.777 13.2231L14.993 7.50037L12.4952 15.5562L13.4765 16.3041L14.993 11.4185L15.5556 13.2231H16.777Z" fill="#008400"/>
<path d="M12.4816 15.5563L14.9999 7.49359L16.784 13.2232H16.7703V13.237L15.542 13.2301L14.9999 11.4254L13.4697 16.3179L12.4816 15.5563ZM12.5022 15.5494L13.4697 16.3042L15.0068 11.4185L15.5626 13.2163H16.7703L15.0137 7.50733L12.5022 15.5494Z" fill="black"/>
<path d="M17.875 16.7707L22.5204 13.2231H14.4303L14.0529 14.4308H18.9591L17.4976 15.5493L17.875 16.7707Z" fill="#008400"/>
<path d="M17.875 16.7708H17.8613L17.4907 15.5425L18.9592 14.4446L14.0461 14.4309L14.4303 13.2163L22.5273 13.2301L17.8819 16.7776L17.875 16.7708ZM14.0529 14.424L18.966 14.4446L17.5045 15.5563L17.875 16.7571L22.5205 13.2369L14.4441 13.2301L14.0529 14.424Z" fill="black"/>
<path d="M14.993 18.9597L19.6522 22.4935L17.1477 14.4377H15.9331L17.4496 19.3233L15.9811 18.2117L14.993 18.9597Z" fill="#008400"/>
<path d="M14.9861 18.9666L14.993 18.9598L14.9861 18.9529L15.988 18.2049L17.4427 19.3303L15.9399 14.4309L17.1682 14.4378L19.6522 22.5073L14.9861 18.9666ZM19.6385 22.5004L17.1476 14.4515L15.9399 14.4378L17.4358 19.3371L15.9811 18.2255L15.0067 18.9666L19.6385 22.5004Z" fill="black"/>
<path d="M12.1178 16.7639L10.3475 22.4935L16.8868 17.5118L16.5163 16.3041L12.5501 19.3233L13.1059 17.5187L12.1178 16.7639Z" fill="#008400"/>
<path d="M12.1042 16.764H12.1179L12.1248 16.7571L13.1129 17.5188L12.5434 19.3097L16.5301 16.2974L16.9007 17.5188L10.3407 22.4867L12.1042 16.764ZM10.3339 22.4867L16.8732 17.5188L16.5164 16.3179L12.5297 19.3234L13.0855 17.5256L12.1111 16.7845L10.3339 22.4867Z" fill="black"/>
</svg>
