<svg width="30" height="30" viewBox="0 0 30 30" fill="none" xmlns="http://www.w3.org/2000/svg">
<path d="M6.10352e-05 14.9936C6.10352e-05 21.0458 3.58885 26.2609 8.74902 28.6283V1.35898C3.58885 3.7332 6.10352e-05 8.9414 6.10352e-05 14.9936Z" fill="#0000B3"/>
<path d="M30.0001 14.9937C30.0001 8.94143 26.4113 3.73324 21.2511 1.35901V28.6283C26.4181 26.2609 30.0001 21.0527 30.0001 14.9937Z" fill="#E32110"/>
<path d="M15.0076 0.000274658C12.7775 0.000274658 10.6571 0.487465 8.75635 1.36579V28.6351C10.6571 29.5065 12.7775 30.0006 15.0076 30.0006C17.2377 30.0006 19.3512 29.5065 21.2588 28.6351V1.36579C19.3512 0.487465 17.2377 0.000274658 15.0076 0.000274658Z" fill="#F7D900"/>
<path d="M19.3239 14.5063C19.3445 14.4789 19.3445 14.4377 19.3445 14.4034C19.3651 14.4034 19.3788 14.3965 19.3994 14.3965V14.0809C19.3239 14.1358 19.2553 14.1907 19.1798 14.2387C19.1729 14.2456 19.1592 14.2524 19.1524 14.2661C19.1592 14.2867 19.1661 14.3005 19.1729 14.321C19.1455 14.3348 19.1181 14.3554 19.1112 14.3828C19.0975 14.4103 19.1112 14.4446 19.1249 14.472C19.0494 14.4652 18.9671 14.4652 18.8916 14.4652C18.871 14.4652 18.8436 14.472 18.8436 14.4926C18.8367 14.5818 18.8642 14.671 18.8504 14.7602C18.8436 14.822 18.8298 14.8837 18.7955 14.9386C18.7818 14.9661 18.7544 14.9867 18.7338 15.0072C18.7269 15.0416 18.7475 15.0759 18.7612 15.1102C18.7406 15.1239 18.72 15.1239 18.7063 15.1514C18.6995 15.1925 18.7201 15.2406 18.6926 15.2817C18.672 15.3298 18.6446 15.3709 18.624 15.4189C18.624 15.3572 18.624 15.2955 18.624 15.2337C18.624 14.2181 18.624 13.1957 18.624 12.1801C18.6308 12.0223 18.624 11.8645 18.624 11.7067C18.624 11.6037 18.5828 11.5145 18.5348 11.4253C18.4387 11.2469 18.3084 11.096 18.1711 10.9519C18.0476 10.8283 17.9172 10.7185 17.7662 10.6225C17.7525 10.6087 17.7388 10.6225 17.7251 10.6293C17.5055 10.7734 17.3202 10.9656 17.1212 11.144C17.0595 11.192 17.0046 11.2538 16.9291 11.2812C16.9291 11.4047 16.9771 11.5214 16.9771 11.6381C16.9771 11.7135 16.9771 11.789 16.9771 11.8645C16.9291 11.8645 16.8742 11.8714 16.8262 11.8851C16.6546 11.9194 16.5105 12.0292 16.3596 12.1184C16.2086 12.2144 16.0439 12.2762 15.8792 12.3242C15.7831 12.2556 15.6939 12.1664 15.6322 12.0635C15.495 11.8302 15.44 11.5626 15.44 11.295C15.4469 11.1646 15.5567 11.0754 15.5704 10.945C15.5704 10.8695 15.5636 10.7872 15.5567 10.7117C15.6048 10.7323 15.6459 10.7666 15.6802 10.8009C15.6802 10.7323 15.6734 10.6568 15.6528 10.5882C15.6459 10.5607 15.6253 10.5333 15.6048 10.5127C15.6459 10.4852 15.6939 10.4852 15.742 10.4784C15.7008 10.4029 15.6253 10.348 15.5567 10.3C15.6048 10.2519 15.6734 10.2382 15.7351 10.2245C15.5293 10.1696 15.3371 10.0941 15.145 10.0049C14.9323 9.90198 14.6921 9.86078 14.4588 9.88823C14.4039 9.89509 14.3421 9.90884 14.301 9.95687C14.2735 9.98432 14.2804 10.0324 14.2392 10.053C14.1843 10.0873 14.1157 10.0804 14.054 10.0873C13.9991 10.0873 13.9441 10.1079 13.903 10.1422C13.903 10.0735 13.903 9.99802 13.903 9.9294C13.9647 9.9294 14.0265 9.9294 14.0814 9.9294C14.1363 9.93626 14.1774 9.97744 14.198 10.0255C14.2323 9.97744 14.2461 9.91569 14.2461 9.8608C14.2461 9.79904 14.2392 9.73728 14.198 9.68925C14.1774 9.74414 14.1294 9.78533 14.0745 9.78533C14.0196 9.78533 13.9579 9.78533 13.903 9.78533C13.903 9.72357 13.903 9.6618 13.903 9.60004C13.9098 9.54515 13.951 9.51085 13.999 9.4834C13.9579 9.46281 13.9167 9.44909 13.8755 9.44223H13.7932C13.7452 9.44909 13.704 9.46282 13.6628 9.49027C13.7177 9.51085 13.7589 9.55888 13.7589 9.61378C13.7658 9.67554 13.7589 9.73044 13.7589 9.7922C13.6971 9.7922 13.6422 9.7922 13.5805 9.7922C13.5256 9.7922 13.4776 9.74415 13.4638 9.69612C13.4227 9.75788 13.4158 9.84022 13.4227 9.9157C13.4227 9.95688 13.4433 9.99804 13.4638 10.0323C13.4844 9.98431 13.5256 9.93627 13.5805 9.93627C13.6422 9.93627 13.704 9.93627 13.7589 9.93627C13.7589 10.197 13.7589 10.4578 13.7589 10.7117C13.7589 10.7734 13.7177 10.8215 13.6697 10.842C13.752 10.8695 13.8001 10.9381 13.8275 11.0136C13.8549 10.9381 13.9098 10.8626 13.9922 10.842C13.9441 10.8215 13.903 10.7803 13.903 10.7254C13.903 10.6225 13.903 10.5264 13.903 10.4303C14.0128 10.4647 14.1157 10.5196 14.198 10.6088C14.3147 10.7391 14.3559 10.9176 14.3628 11.0822C14.3696 11.3293 14.349 11.5831 14.2804 11.8233C14.2392 11.9468 14.1775 12.0772 14.0883 12.1733C14.0402 12.2282 13.9853 12.2831 13.9167 12.3174C13.752 12.2693 13.5873 12.2076 13.4364 12.1115C13.3266 12.0429 13.2237 11.9674 13.107 11.9194C13.0178 11.8782 12.9217 11.8645 12.8188 11.8576C12.8188 11.7753 12.8188 11.6861 12.8188 11.6106C12.8188 11.4939 12.86 11.3841 12.86 11.2744C12.7845 11.24 12.7227 11.1783 12.6678 11.1302C12.4688 10.945 12.2767 10.746 12.0434 10.6088C11.8033 10.7597 11.5905 10.9587 11.419 11.1851C11.3298 11.3087 11.2474 11.4322 11.1994 11.5763C11.1788 11.638 11.1788 11.6998 11.1788 11.7616C11.1788 12.2419 11.1788 12.7153 11.1788 13.1888C11.1788 13.5182 11.1788 13.8407 11.1788 14.1632C11.1514 14.1083 11.1239 14.0534 11.0827 14.0054C11.0484 14.0809 11.021 14.1495 11.0141 14.225C10.9386 14.122 10.8289 14.0534 10.7191 13.9917C10.6985 14.1152 10.6916 14.2593 10.7602 14.3691C10.7808 14.4034 10.8014 14.4308 10.822 14.4583C10.7396 14.4171 10.6504 14.3965 10.5612 14.3897C10.5749 14.4514 10.6024 14.5132 10.6299 14.5749C10.671 14.6573 10.7328 14.7328 10.8151 14.774C10.8769 14.8014 10.9386 14.8151 11.0073 14.822C10.9798 14.8425 10.9524 14.8563 10.9249 14.8631C10.87 14.87 10.8289 14.9318 10.8357 14.9867C10.8426 15.0347 10.8906 15.0758 10.9386 15.0758C11.0004 15.0758 11.0622 15.0141 11.0484 14.9523C11.0416 14.918 11.0553 14.8906 11.0827 14.87C11.1102 14.9318 11.1445 14.9935 11.1651 15.0553C11.1719 15.1033 11.1651 15.1514 11.1651 15.1994C11.0416 15.1514 10.9043 15.1376 10.7671 15.1445C10.8014 15.1994 10.8426 15.2611 10.8974 15.3023C10.8426 15.3023 10.7877 15.316 10.7396 15.3366C10.8083 15.4395 10.8975 15.5425 11.0141 15.5974C11.0622 15.6248 11.117 15.6317 11.1719 15.6385C11.1719 15.9267 11.1719 16.2149 11.1719 16.5031C11.1719 16.6815 11.1788 16.8668 11.1719 17.0453C11.1719 17.5462 11.1719 18.0402 11.1719 18.5412C11.1719 18.6372 11.1445 18.7264 11.1102 18.8156C11.1925 18.7744 11.2611 18.7058 11.3229 18.6372C11.4601 18.4862 11.5836 18.3147 11.6797 18.1363C11.6797 18.1569 11.6797 18.1843 11.6797 18.2049C11.8924 18.102 12.0365 17.9167 12.1601 17.7177C12.2081 17.7177 12.2561 17.7109 12.2973 17.6903C12.2493 17.7109 12.1943 17.7314 12.1806 17.7794C12.16 17.8412 12.2081 17.8961 12.2698 17.9167C12.2287 17.951 12.1806 17.9853 12.1601 18.0334C12.1257 18.0951 12.0983 18.1706 12.112 18.2461C12.1189 18.301 12.1532 18.3421 12.1806 18.3833C12.1875 18.3696 12.1944 18.3558 12.2012 18.3353C12.2767 18.4313 12.3522 18.5206 12.4277 18.6166C12.4689 18.6441 12.5306 18.6509 12.5718 18.6304C12.6335 18.5892 12.6815 18.5343 12.7433 18.4931C12.7433 18.5068 12.757 18.5206 12.757 18.5343C12.7365 18.6235 12.7159 18.7195 12.7021 18.8087C12.709 18.8225 12.7227 18.8225 12.7296 18.8293C12.8394 18.8842 12.9423 18.946 13.0521 19.0009C13.0795 18.8705 13.1139 18.7333 13.1344 18.6029C13.0521 18.5617 12.9698 18.5137 12.8874 18.4725C12.8737 18.4382 12.8531 18.4108 12.8463 18.3696C12.8806 18.301 12.8943 18.2186 12.9492 18.1569C13.1207 17.9167 13.2991 17.6834 13.4844 17.4501C13.4913 17.4707 13.4913 17.4981 13.4981 17.5187C13.5393 17.4501 13.5942 17.3883 13.6422 17.3334C13.7314 17.2442 13.8275 17.1619 13.9236 17.0796C13.8824 17.059 13.8481 17.0452 13.8069 17.0315C13.7246 17.1276 13.6422 17.2168 13.5462 17.2991C13.5325 17.2374 13.5187 17.1825 13.4981 17.1207C13.4501 17.1413 13.4089 17.1756 13.3609 17.1893C13.3472 17.1344 13.3403 17.0864 13.3335 17.0315C13.2854 17.0521 13.2305 17.0658 13.1756 17.0658C13.2511 16.9972 13.2991 16.9011 13.3472 16.8119C13.3197 16.7982 13.2923 16.7845 13.2648 16.7708C13.1893 16.9011 13.1276 17.0452 13.0315 17.1619C13.0658 17.1619 13.1001 17.1688 13.1344 17.1688C13.0041 17.3609 12.8737 17.5461 12.7502 17.7451C12.7365 17.7657 12.7159 17.7863 12.6884 17.8001C12.6541 17.8138 12.6129 17.8001 12.5786 17.8001C12.5649 17.7657 12.5512 17.7314 12.5306 17.6971C12.558 17.704 12.5786 17.7246 12.5992 17.7383C12.6473 17.7794 12.7365 17.7589 12.7639 17.704C12.7914 17.6559 12.7708 17.5873 12.7227 17.5667C12.6816 17.5461 12.6335 17.553 12.5992 17.5805C12.5718 17.601 12.5306 17.6148 12.4894 17.6148C12.4894 17.6079 12.4826 17.5942 12.4757 17.5873C12.5855 17.5187 12.6953 17.4295 12.7433 17.306C12.7845 17.203 12.7914 17.0864 12.7776 16.9766C12.7159 16.9972 12.661 17.0246 12.6061 17.0521C12.6061 17.004 12.6129 16.956 12.5924 16.908C12.5924 16.8943 12.5786 16.8737 12.5855 16.86C12.6404 16.6884 12.6884 16.51 12.7296 16.3316C12.709 16.2561 12.7159 16.1806 12.709 16.1051C12.6541 16.3179 12.5992 16.5306 12.5237 16.7433C12.51 16.7227 12.4963 16.6953 12.4757 16.6747C12.4002 16.7364 12.3385 16.8188 12.2904 16.9011C12.2904 16.86 12.2836 16.8119 12.2904 16.7708C12.2904 16.7365 12.311 16.709 12.311 16.6747C12.311 16.6404 12.2904 16.6198 12.2904 16.5855C12.2904 15.3366 12.2904 14.0809 12.2904 12.832C12.3591 12.8801 12.4139 12.9487 12.4825 13.0036C12.558 12.935 12.6404 12.8595 12.709 12.7909C12.7159 12.7291 12.6953 12.6742 12.6678 12.6262C12.6129 12.6673 12.5718 12.7222 12.5169 12.7634C12.5169 12.6673 12.5169 12.5644 12.5169 12.4683C12.5169 12.3654 12.5169 12.2625 12.5169 12.1595C12.5375 12.1115 12.5718 12.0704 12.5924 12.0223C12.6198 12.0566 12.6404 12.0978 12.6678 12.1321C12.7433 12.2419 12.8257 12.3517 12.9286 12.4409C12.956 12.3654 13.0178 12.3105 13.0796 12.2693C13.0933 12.2625 13.107 12.2487 13.1207 12.2487C13.1619 12.3242 13.1962 12.4066 13.2786 12.4409C13.3403 12.3654 13.4295 12.3105 13.505 12.2625C13.6148 12.3105 13.7383 12.3242 13.8618 12.3311C13.8 12.3791 13.7314 12.4134 13.6628 12.4478C13.8206 12.4478 13.9785 12.4203 14.1294 12.3654C14.2186 12.3242 14.2941 12.2625 14.3764 12.2076C14.349 12.2968 14.2941 12.3791 14.2392 12.4478C14.4313 12.434 14.6166 12.3448 14.7401 12.1939C14.7676 12.2694 14.8019 12.338 14.8499 12.3997C14.9048 12.3448 14.9323 12.2694 14.9666 12.1939C15.0833 12.3448 15.2685 12.434 15.4606 12.4478C15.4057 12.3723 15.3577 12.2968 15.3234 12.2007C15.3989 12.2556 15.4675 12.3036 15.543 12.3448C15.5979 12.3723 15.6596 12.386 15.7145 12.4066C15.8175 12.4272 15.9273 12.4478 16.0302 12.4478C15.9616 12.4134 15.8929 12.3791 15.838 12.3311C15.9547 12.3242 16.0851 12.3105 16.1949 12.2625C16.2704 12.3242 16.3596 12.3723 16.4213 12.4478C16.4899 12.4066 16.5311 12.338 16.5585 12.2693C16.5654 12.2625 16.5723 12.2419 16.5791 12.2556C16.6546 12.3036 16.7301 12.3654 16.7644 12.4478C16.9017 12.3311 17.0046 12.1802 17.0938 12.0292C17.1144 12.0704 17.1418 12.1047 17.1624 12.1458C17.1761 12.1596 17.1761 12.187 17.1761 12.2076C17.1761 12.3928 17.1761 12.585 17.1761 12.7771C17.1212 12.7291 17.0801 12.681 17.0252 12.633C16.9909 12.681 16.9771 12.7428 16.984 12.8045C17.0663 12.8732 17.135 12.9486 17.2173 13.0173C17.2791 12.9624 17.3408 12.9006 17.4026 12.8457C17.4026 13.3809 17.4026 13.9231 17.4026 14.4583C17.4026 15.3709 17.4026 16.2904 17.4026 17.2031C17.3545 17.1619 17.3271 17.107 17.2928 17.0521C17.2173 16.9148 17.1693 16.7707 17.1212 16.6266C17.0663 16.462 17.0251 16.2904 16.984 16.1257C16.984 16.2012 16.9909 16.2767 16.9703 16.3453C16.9703 16.359 16.9703 16.3659 16.9771 16.3796C17.0526 16.6541 17.1281 16.9286 17.231 17.1962C17.2722 17.3129 17.3202 17.4295 17.3751 17.5324C17.3957 17.5805 17.4094 17.6216 17.4369 17.6628C17.3888 17.6697 17.3408 17.6834 17.3065 17.7246C17.2859 17.7589 17.2928 17.8069 17.3065 17.8412C17.2722 17.8275 17.2447 17.8138 17.2104 17.8069C17.1624 17.8001 17.1144 17.8206 17.0595 17.8206C17.0183 17.8206 16.984 17.7863 16.9634 17.752C16.8468 17.553 16.7095 17.3677 16.586 17.1825C16.6203 17.1825 16.6546 17.1825 16.6821 17.1756C16.586 17.0521 16.5242 16.9149 16.4488 16.7845C16.4213 16.7982 16.4007 16.8119 16.3733 16.8257C16.4076 16.9217 16.4625 17.0109 16.538 17.0796C16.4831 17.0796 16.4282 17.0727 16.3802 17.0453C16.3733 17.0933 16.3595 17.1482 16.3527 17.1962C16.2978 17.1893 16.2566 17.155 16.2086 17.1207C16.188 17.1825 16.1743 17.2442 16.1537 17.306C16.0576 17.2236 15.9753 17.1276 15.8929 17.0384C15.8518 17.059 15.8037 17.0727 15.7626 17.0933C15.7626 17.0933 15.7694 17.0933 15.7763 17.0864C15.8449 17.1482 15.9204 17.2168 15.989 17.2785C16.0645 17.354 16.1468 17.4295 16.2017 17.5256C16.2017 17.4981 16.2086 17.4775 16.2154 17.4501C16.4007 17.6971 16.586 17.9373 16.7644 18.1912C16.7987 18.2461 16.8125 18.3147 16.8468 18.3696C16.8811 18.4245 16.9291 18.4725 16.9771 18.5205C16.9497 18.5205 16.9154 18.5274 16.8948 18.548C16.8742 18.5686 16.8879 18.596 16.8879 18.6235C16.8536 18.6166 16.8193 18.6098 16.785 18.6098C16.7713 18.6578 16.7781 18.7058 16.7781 18.7539C16.7781 18.8362 16.785 18.9186 16.785 19.0078C16.8399 18.9803 16.8811 18.946 16.936 18.9117C16.9909 18.8705 17.0595 18.8362 17.1075 18.7813C17.0869 18.7539 17.0663 18.7264 17.0389 18.699C17.0732 18.6852 17.1006 18.6578 17.0938 18.6235C17.1281 18.6578 17.1899 18.6578 17.231 18.6441C17.2653 18.6372 17.2859 18.6098 17.3065 18.5823C17.3683 18.5068 17.43 18.4245 17.4986 18.349C17.5055 18.3627 17.5124 18.3764 17.5192 18.397C17.5467 18.349 17.581 18.301 17.5947 18.2461C17.6016 18.1706 17.5741 18.102 17.5398 18.0402C17.5124 17.9853 17.4643 17.951 17.4231 17.9236C17.4712 17.9236 17.5329 17.8961 17.5535 17.8481C17.5672 17.8001 17.5398 17.752 17.5261 17.7108C17.5398 17.7177 17.5467 17.7246 17.5535 17.7383C17.6016 17.8138 17.6564 17.8892 17.7182 17.9647C17.8074 18.0677 17.9104 18.1637 18.0339 18.2186C18.0339 18.198 18.0339 18.1706 18.0339 18.1431C18.1231 18.3216 18.2466 18.4931 18.3838 18.6372C18.4456 18.7058 18.5211 18.7813 18.6034 18.8225C18.5828 18.7676 18.5622 18.7127 18.5485 18.6509C18.5279 18.5617 18.5485 18.4794 18.5416 18.3902C18.5348 17.5461 18.5348 16.709 18.5348 15.8719C18.5348 15.8375 18.5279 15.8032 18.5485 15.7689C18.624 15.6248 18.6926 15.4876 18.7681 15.3435C18.7887 15.3023 18.8436 15.2954 18.8642 15.2543C18.8642 15.2337 18.8642 15.2131 18.8642 15.1994C18.8985 15.1925 18.9259 15.1856 18.9602 15.1719C18.9671 15.1307 18.9671 15.0965 18.9808 15.0621C19.0151 15.0004 19.0632 14.9455 19.1181 14.9043C19.1798 14.8563 19.2553 14.822 19.317 14.774V14.7396C19.2759 14.6641 19.221 14.6024 19.1661 14.5338C19.2759 14.5338 19.3033 14.5269 19.3239 14.5063ZM14.3696 10.4578C14.3421 10.4715 14.3147 10.4647 14.2872 10.4647C14.1637 10.4509 14.0471 10.4029 13.9236 10.3892C13.9236 10.3617 13.9236 10.3412 13.9236 10.3137C14.054 10.2794 14.1912 10.3137 14.301 10.3823C14.3353 10.396 14.3764 10.4166 14.3696 10.4578ZM12.4277 17.7383C12.4551 17.7589 12.462 17.8 12.4825 17.8275C12.4688 17.8343 12.4483 17.8412 12.4346 17.855C12.4414 17.8206 12.4208 17.7794 12.4277 17.7383Z" fill="black"/>
<path d="M13.7516 9.50393C13.8134 9.48335 13.882 9.48335 13.9506 9.50393C13.9232 9.53138 13.8957 9.56571 13.8957 9.61375C13.8888 9.68923 13.8957 9.82647 13.8957 9.82647C13.8957 9.82647 14.033 9.83334 14.1016 9.83334C14.1496 9.83334 14.1908 9.80587 14.2251 9.77156C14.2457 9.83332 14.2457 9.90196 14.2251 9.96371C14.1908 9.9294 14.1428 9.90194 14.0947 9.90194C14.033 9.90194 13.9026 9.90194 13.9026 9.90194V10.0804C13.9026 10.0804 13.9095 10.1696 13.882 10.2039C13.8477 10.2519 13.834 10.3068 13.8202 10.3685C13.8202 10.2107 13.8202 9.90194 13.8202 9.90194C13.8202 9.90194 13.683 9.90194 13.6212 9.90194C13.5732 9.90194 13.532 9.9294 13.4977 9.96371C13.4772 9.90196 13.4772 9.83332 13.4977 9.77156C13.5252 9.79215 13.5458 9.81274 13.5732 9.8196C13.6144 9.83332 13.6624 9.82647 13.7105 9.83334C13.7448 9.83334 13.8271 9.82647 13.8271 9.82647C13.8271 9.82647 13.8271 9.69607 13.8271 9.63431C13.8134 9.58628 13.7928 9.53824 13.7516 9.50393Z" fill="#FDF701"/>
<path d="M14.4866 9.97741C14.5895 9.97054 14.6856 9.97054 14.7816 9.97741C15.0492 10.0117 15.2757 10.1764 15.5296 10.2588C15.509 10.2862 15.4815 10.3068 15.4678 10.3411C15.5296 10.3617 15.5913 10.3891 15.6188 10.4509C15.5776 10.4646 15.5296 10.4784 15.5021 10.5195C15.5707 10.5401 15.6188 10.595 15.6188 10.6636C15.5707 10.6567 15.5227 10.6293 15.4747 10.6224C15.4953 10.7322 15.509 10.842 15.509 10.9587C15.509 10.9998 15.4815 11.0342 15.4678 11.0685C15.4335 11.1302 15.3923 11.1988 15.3855 11.2743C15.3786 11.3429 15.3855 11.4047 15.3923 11.4733C15.4061 11.6654 15.4472 11.8644 15.5433 12.036C15.5913 12.1183 15.6325 12.2007 15.6874 12.2762C15.5982 12.235 15.5158 12.1801 15.4403 12.1115C15.3786 12.0566 15.3237 11.9948 15.2894 11.9193C15.2688 11.8713 15.2757 11.8164 15.2757 11.7684C15.2757 11.6037 15.2757 11.2675 15.2757 11.2675H15.2071C15.2071 11.2675 15.2071 11.6517 15.2071 11.8439C15.2071 11.885 15.2139 11.9331 15.2208 11.9742C15.2688 12.1184 15.3237 12.2556 15.3923 12.3859C15.358 12.3722 15.3237 12.3516 15.2963 12.331C15.2208 12.2761 15.1453 12.2144 15.0904 12.1389C15.0767 12.1115 15.0561 12.0909 15.0561 12.0566C15.0561 11.789 15.0561 11.2675 15.0561 11.2675H14.9943C14.9943 11.2675 14.9943 11.789 14.9943 12.0566C14.9943 12.084 15.0149 12.1184 14.9943 12.1458C14.9738 12.1801 14.9463 12.2076 14.9189 12.235C14.8846 12.2007 14.864 12.1664 14.8365 12.1252C14.8571 12.0634 14.8434 12.0017 14.8502 11.9331C14.8502 11.7066 14.8502 11.2606 14.8502 11.2606H14.7885C14.7885 11.2606 14.7885 11.7752 14.7885 12.036C14.7885 12.084 14.761 12.1252 14.7336 12.1595C14.6581 12.2556 14.5552 12.3242 14.4523 12.3859C14.5209 12.2624 14.5758 12.1252 14.6169 11.9879C14.6375 11.9399 14.6375 11.885 14.6375 11.8301C14.6375 11.6449 14.6375 11.2675 14.6375 11.2675H14.5758C14.5758 11.2675 14.5758 11.6517 14.5758 11.8439C14.5758 11.9262 14.5277 12.0017 14.4728 12.0635C14.3836 12.1595 14.2738 12.235 14.1572 12.2899C14.2189 12.2213 14.2532 12.1389 14.3013 12.0635C14.4317 11.8302 14.466 11.5557 14.4728 11.2881C14.4797 11.2057 14.4728 11.1234 14.4728 11.041C14.466 10.9244 14.4454 10.8077 14.3905 10.7048C14.3768 10.6773 14.363 10.6362 14.3836 10.6087C14.4111 10.5744 14.4591 10.5675 14.5003 10.5744C14.5757 10.6018 14.6375 10.6499 14.6993 10.6911C14.6924 10.6293 14.665 10.5744 14.6169 10.5401C14.5895 10.5195 14.5826 10.4989 14.5758 10.4646C14.6375 10.4715 14.7061 10.4852 14.761 10.4509C14.7953 10.4303 14.8228 10.3891 14.8228 10.348C14.8228 10.3068 14.7885 10.2793 14.7679 10.2519C14.8365 10.2519 14.8983 10.2313 14.9669 10.2313C15.0012 10.2313 15.0286 10.245 15.0629 10.2588C15.1384 10.2999 15.2071 10.3548 15.2825 10.396C15.31 10.4097 15.3306 10.4234 15.358 10.4234C15.2619 10.3342 15.1728 10.2313 15.0492 10.1901C14.9532 10.1558 14.8571 10.1833 14.761 10.1901C14.665 10.197 14.5963 10.1215 14.5071 10.1147C14.4591 10.1078 14.4042 10.1146 14.3562 10.1078C14.3287 10.0941 14.3425 10.0666 14.3562 10.0461C14.3768 9.99115 14.4317 9.98427 14.4866 9.97741Z" fill="#86632B"/>
<path d="M14.3696 10.2176C14.3558 10.1902 14.3833 10.1627 14.4107 10.1627C14.4519 10.1559 14.4931 10.1627 14.5343 10.1833C14.5686 10.1971 14.6029 10.2039 14.6303 10.2245C14.6029 10.2382 14.5686 10.2451 14.5411 10.2657C14.5205 10.2863 14.5068 10.3137 14.4931 10.3343C14.4382 10.3068 14.3764 10.2725 14.3696 10.2176Z" fill="#86632B"/>
<path d="M13.8821 10.2724C13.9233 10.2107 13.9919 10.1764 14.0605 10.1764C14.1428 10.1764 14.2252 10.1695 14.3075 10.1695C14.3555 10.2587 14.4379 10.3411 14.4448 10.4508C14.3212 10.2793 14.0811 10.2107 13.8821 10.2724Z" fill="#D32620"/>
<path d="M14.2118 10.2313C14.2598 10.2107 14.2941 10.2588 14.2873 10.3068C14.2598 10.3 14.2324 10.2862 14.2118 10.2656C14.2118 10.2588 14.2118 10.2382 14.2118 10.2313Z" fill="black"/>
<path d="M13.8202 10.4234C13.8133 10.3754 13.8613 10.3479 13.8957 10.3274C13.8957 10.4028 13.8957 10.4783 13.8957 10.5538C13.8957 10.6224 13.8888 10.691 13.8957 10.7528C13.9025 10.794 13.9231 10.8214 13.9506 10.8489C13.9094 10.8763 13.8751 10.9175 13.8545 10.9586C13.8339 10.9106 13.7996 10.8832 13.7653 10.8489C13.7859 10.8077 13.8202 10.7803 13.8202 10.7322C13.8202 10.6293 13.8202 10.5264 13.8202 10.4234Z" fill="#FDF701"/>
<path d="M14.1293 10.4647C14.2117 10.499 14.3078 10.5058 14.397 10.499C14.3626 10.5333 14.3352 10.5676 14.3146 10.6088C14.2391 10.5745 14.1842 10.5196 14.1293 10.4647Z" fill="#D32620"/>
<path d="M12.0294 10.8695C12.0431 10.8557 12.0568 10.8488 12.0774 10.8351C12.2009 10.9449 12.3176 11.0547 12.4479 11.1508C12.5165 11.1988 12.5783 11.2537 12.6538 11.288C12.6675 11.2949 12.6812 11.3017 12.6744 11.3155C12.6812 11.4939 12.6813 11.6723 12.6813 11.8438C12.6058 11.8095 12.5509 11.7546 12.496 11.6929C12.4548 11.6448 12.4136 11.5968 12.3725 11.5419C12.3519 11.4802 12.3725 11.4115 12.4205 11.3635C12.3999 11.3566 12.3724 11.3429 12.3519 11.3429C12.3175 11.3772 12.3039 11.4252 12.3039 11.4733C12.3107 11.5076 12.2764 11.5282 12.2627 11.5419C12.2078 11.5968 12.1597 11.6517 12.1117 11.7066C12.0499 11.6174 11.9882 11.5282 11.9333 11.4321C11.9127 11.4046 11.9264 11.3704 11.9196 11.3429C11.9196 11.288 11.9539 11.2469 11.9813 11.2126C11.9813 11.192 11.9402 11.1919 11.9196 11.1851C11.8853 11.2194 11.8578 11.2674 11.8509 11.3223C11.8441 11.3498 11.8509 11.3772 11.8441 11.4047C11.7755 11.4801 11.7 11.5488 11.6314 11.6243C11.6245 11.638 11.6108 11.6174 11.6108 11.6105C11.5833 11.5419 11.549 11.4733 11.5147 11.4047C11.501 11.3841 11.5216 11.3704 11.5353 11.3566C11.6726 11.1714 11.8441 11.0136 12.0294 10.8695Z" fill="#86632B"/>
<path d="M17.7662 10.8421C17.876 10.9107 17.9721 11.0068 18.075 11.096C18.1711 11.1852 18.2603 11.2812 18.3358 11.391C18.3083 11.4734 18.2603 11.5557 18.226 11.6312C18.1505 11.5626 18.0819 11.4802 17.9996 11.4048C17.9996 11.3636 18.0064 11.3224 17.9858 11.2881C17.9721 11.2538 17.9515 11.2263 17.9309 11.192C17.9103 11.1989 17.8829 11.2057 17.8623 11.2195C17.8966 11.2606 17.9309 11.3156 17.9309 11.3705C17.9309 11.3979 17.9378 11.4253 17.9172 11.4459C17.8555 11.542 17.8006 11.6312 17.7319 11.7204C17.6839 11.6655 17.629 11.6106 17.581 11.5557C17.5604 11.5352 17.533 11.5145 17.5398 11.4871C17.5398 11.4391 17.5192 11.391 17.4849 11.3498C17.4643 11.3567 17.4437 11.3636 17.4231 11.3773C17.4506 11.4116 17.478 11.4459 17.4712 11.4871C17.4712 11.5145 17.478 11.542 17.4574 11.5626C17.3957 11.6449 17.3271 11.7341 17.2447 11.8028C17.2173 11.8233 17.1898 11.8439 17.1555 11.8577C17.1555 11.6724 17.1555 11.494 17.1624 11.3155C17.2516 11.2744 17.3271 11.2195 17.4026 11.1577C17.5261 11.0479 17.6496 10.945 17.7662 10.8421Z" fill="#86632B"/>
<path d="M11.4256 11.5214C11.453 11.5557 11.4668 11.5969 11.4873 11.6312C11.5011 11.6655 11.5354 11.6998 11.5285 11.7409C11.5285 11.837 11.5285 11.9331 11.5285 12.0292C11.5285 12.0498 11.5148 12.0566 11.501 12.0703C11.4599 12.1047 11.4187 12.1458 11.3707 12.187C11.3707 12.0223 11.3707 11.8645 11.3707 11.6998C11.3707 11.6312 11.3981 11.5763 11.4256 11.5214Z" fill="#86632B"/>
<path d="M18.3152 11.6998C18.3426 11.638 18.377 11.5763 18.4181 11.5145C18.4456 11.5694 18.473 11.6311 18.473 11.6929C18.473 11.8576 18.473 12.0154 18.473 12.1801C18.4181 12.1389 18.3701 12.084 18.3152 12.036C18.3152 11.9262 18.3083 11.8164 18.3152 11.6998Z" fill="#86632B"/>
<path d="M17.8212 11.837C17.8761 11.7478 17.9379 11.6586 17.9996 11.5763C17.9996 11.7821 17.9996 12.0017 17.9996 12.2144C17.9379 12.1595 17.883 12.1046 17.8212 12.0497C17.8212 11.9743 17.8212 11.9056 17.8212 11.837Z" fill="#86632B"/>
<path d="M11.8447 11.5695C11.8996 11.6381 11.9407 11.7136 11.9888 11.7822C12.0025 11.8028 12.0231 11.8234 12.0231 11.8577C12.0231 11.9194 12.0231 11.9812 12.0231 12.0429C11.9613 12.0978 11.9064 12.1596 11.8447 12.2076C11.8447 11.9949 11.8447 11.7822 11.8447 11.5695Z" fill="#86632B"/>
<path d="M11.5974 11.7959C11.6592 11.7341 11.7141 11.6724 11.7758 11.6106C11.7758 11.8027 11.7758 12.0018 11.7758 12.2008C11.7141 12.1527 11.6592 12.0909 11.5974 12.036C11.5974 11.9606 11.5974 11.8782 11.5974 11.7959Z" fill="#86632B"/>
<path d="M18.0678 11.6175C18.109 11.6518 18.1365 11.6861 18.1776 11.7204C18.1982 11.7479 18.2256 11.7684 18.2462 11.7959C18.2462 11.8782 18.2462 11.9606 18.2462 12.0429C18.1845 12.0978 18.1296 12.1527 18.0678 12.2008C18.0678 12.0086 18.0678 11.8096 18.0678 11.6175Z" fill="#86632B"/>
<path d="M12.3385 11.6586C12.414 11.7684 12.4895 11.8919 12.6061 11.9606C12.5924 11.9949 12.5649 12.0223 12.5375 12.0566C12.4757 12.1184 12.4208 12.1939 12.3385 12.2282C12.3385 12.036 12.3316 11.8439 12.3385 11.6586Z" fill="#86632B"/>
<path d="M17.2447 11.9537C17.3613 11.8851 17.43 11.7684 17.5054 11.6586C17.5123 11.8439 17.5054 12.036 17.5054 12.2213C17.4231 12.1801 17.3614 12.1115 17.3065 12.0429C17.2859 12.0154 17.2584 11.988 17.2447 11.9537Z" fill="#86632B"/>
<path d="M12.1126 11.837C12.1675 11.789 12.2155 11.7341 12.2704 11.6861C12.2704 11.8576 12.2704 12.036 12.2704 12.2076C12.2087 12.1595 12.1538 12.0978 12.092 12.0429C12.092 11.988 12.092 11.9262 12.092 11.8713C12.092 11.8508 12.1057 11.8439 12.1126 11.837Z" fill="#86632B"/>
<path d="M17.5741 11.6861C17.6359 11.741 17.6976 11.7959 17.7525 11.8576C17.7525 11.9194 17.7525 11.988 17.7525 12.0498C17.6908 12.1047 17.6359 12.1595 17.5741 12.2144C17.5741 12.036 17.5741 11.8576 17.5741 11.6861Z" fill="#86632B"/>
<path d="M12.661 12.0292C12.6885 12.0635 12.7091 12.1046 12.7366 12.1389C12.812 12.2487 12.8943 12.3585 12.9973 12.4477C13.0247 12.3723 13.0865 12.3174 13.1482 12.2762C13.162 12.2693 13.1757 12.2556 13.1894 12.2556C13.2306 12.3311 13.2649 12.4134 13.3472 12.4477C13.409 12.3723 13.4982 12.3174 13.5737 12.2693C13.6835 12.3174 13.807 12.3311 13.9305 12.3379C13.8688 12.386 13.8001 12.4203 13.7315 12.4546C13.8893 12.4546 14.0471 12.4272 14.1981 12.3723C14.2873 12.3311 14.3628 12.2693 14.4452 12.2144C14.4177 12.3036 14.3628 12.386 14.3079 12.4546C14.5001 12.4409 14.6853 12.3517 14.8088 12.2007C14.8363 12.2762 14.8706 12.3448 14.9186 12.4066C14.9735 12.3517 15.001 12.2762 15.0353 12.2007C15.1519 12.3517 15.3372 12.4409 15.5293 12.4546C15.4744 12.3791 15.4264 12.3036 15.3921 12.2075C15.4676 12.2624 15.5362 12.3105 15.6117 12.3517C15.6666 12.3791 15.7283 12.3929 15.7832 12.4134C15.8861 12.434 15.9959 12.4546 16.0989 12.4546C16.0303 12.4203 15.9617 12.386 15.9068 12.3379C16.0234 12.3311 16.1538 12.3174 16.2635 12.2693C16.339 12.3311 16.4282 12.3791 16.49 12.4546C16.5586 12.4134 16.5998 12.3448 16.6273 12.2762C16.6341 12.2693 16.641 12.2487 16.6478 12.2625C16.7233 12.3105 16.7988 12.3723 16.8331 12.4546C16.9703 12.338 17.0733 12.187 17.1625 12.036C17.183 12.0772 17.2105 12.1115 17.2311 12.1527C17.2448 12.1664 17.2448 12.1938 17.2448 12.2144C17.2448 12.3997 17.2448 12.5918 17.2448 12.784C17.1899 12.7359 17.1488 12.6879 17.0939 12.6399C17.135 12.5781 17.1831 12.5301 17.238 12.482C15.6803 12.482 14.1227 12.482 12.565 12.482C12.565 12.3791 12.565 12.2762 12.565 12.1732C12.6062 12.1184 12.6405 12.0772 12.661 12.0292Z" fill="#86632B"/>
<path d="M12.8253 12.0498C12.8733 12.036 12.9282 12.036 12.9762 12.036C13.0723 12.0292 13.1684 12.0704 13.2576 12.1115C13.1546 12.1664 13.0449 12.2213 12.9694 12.3174C12.8939 12.2488 12.8733 12.139 12.8253 12.0498Z" fill="#86632B"/>
<path d="M16.5934 12.1047C16.6688 12.0704 16.758 12.0292 16.8472 12.036C16.9021 12.036 16.957 12.036 17.0119 12.0429C16.9982 12.0841 16.9845 12.1252 16.9639 12.1595C16.9364 12.2144 16.9158 12.2694 16.8678 12.3174C16.7992 12.2213 16.6894 12.1733 16.5865 12.1184C16.5933 12.1115 16.5934 12.1115 16.5934 12.1047Z" fill="#86632B"/>
<path d="M13.2646 12.1184C13.3675 12.1664 13.4636 12.2214 13.5665 12.2694C13.491 12.2831 13.4018 12.3037 13.3401 12.3586C13.3126 12.3449 13.3058 12.3174 13.2989 12.29C13.2783 12.2282 13.2714 12.1733 13.2646 12.1184Z" fill="#86632B"/>
<path d="M16.318 12.2488C16.4072 12.2076 16.4895 12.1596 16.5787 12.1184C16.5719 12.187 16.565 12.2557 16.5376 12.3174C16.5307 12.338 16.517 12.3655 16.4964 12.3517C16.4347 12.3106 16.3592 12.29 16.2837 12.2763C16.2906 12.2625 16.3043 12.2488 16.318 12.2488Z" fill="#86632B"/>
<path d="M11.3783 12.3929C11.4263 12.3449 11.4812 12.2968 11.5293 12.2488C11.5361 12.3654 11.5293 12.4821 11.5362 12.6056C11.5362 12.6605 11.5362 12.7154 11.5362 12.7703C11.4813 12.7291 11.4332 12.6811 11.3852 12.633C11.3714 12.5507 11.3783 12.4752 11.3783 12.3929Z" fill="#86632B"/>
<path d="M11.8447 12.4203C11.8996 12.3654 11.9613 12.3105 12.0231 12.2556C12.0231 12.4271 12.0231 12.5987 12.0231 12.7702C11.9545 12.7222 11.9064 12.6604 11.8447 12.6055C11.8447 12.5438 11.8447 12.482 11.8447 12.4203Z" fill="#86632B"/>
<path d="M12.092 12.2488C12.1469 12.2968 12.195 12.3449 12.2499 12.3929C12.2636 12.3998 12.2773 12.4135 12.2704 12.4272C12.2704 12.4821 12.2704 12.537 12.2704 12.5919C12.2704 12.6056 12.2567 12.6125 12.2499 12.6194C12.195 12.6674 12.1469 12.7223 12.092 12.7703C12.092 12.5987 12.092 12.4203 12.092 12.2488Z" fill="#86632B"/>
<path d="M18.0678 12.4203C18.1227 12.3654 18.1845 12.3105 18.2462 12.2556C18.2462 12.4203 18.2462 12.5987 18.2462 12.7702C18.1845 12.7222 18.1296 12.6604 18.0678 12.6055C18.0678 12.5438 18.0678 12.482 18.0678 12.4203Z" fill="#86632B"/>
<path d="M18.3151 12.2487C18.37 12.2968 18.4181 12.3448 18.473 12.3928C18.473 12.4683 18.473 12.5438 18.473 12.6262C18.4249 12.6742 18.37 12.7222 18.3151 12.7702C18.3151 12.5987 18.3151 12.4203 18.3151 12.2487Z" fill="#86632B"/>
<path d="M11.5974 12.2556C11.6454 12.2968 11.6935 12.3448 11.7484 12.386C11.7621 12.3997 11.7758 12.4066 11.7758 12.4203C11.7758 12.4821 11.7758 12.537 11.7758 12.5987C11.7552 12.6262 11.7278 12.6468 11.7004 12.6674C11.666 12.6948 11.6386 12.7291 11.5974 12.7566C11.5974 12.5987 11.5974 12.4272 11.5974 12.2556Z" fill="#86632B"/>
<path d="M12.4895 12.2899C12.4964 12.2762 12.5102 12.2693 12.517 12.2625C12.517 12.434 12.517 12.6056 12.517 12.7771C12.4621 12.7291 12.4141 12.681 12.3592 12.633C12.3523 12.6193 12.3317 12.6124 12.3386 12.5987C12.3386 12.5438 12.3386 12.4889 12.3386 12.434C12.3935 12.3929 12.4415 12.3448 12.4895 12.2899Z" fill="#86632B"/>
<path d="M17.3275 12.2556C17.3824 12.3173 17.4373 12.3791 17.4991 12.4271C17.5128 12.482 17.4991 12.5438 17.4991 12.6055C17.4373 12.6604 17.3893 12.7222 17.3207 12.7702C17.3275 12.5987 17.3275 12.4271 17.3275 12.2556Z" fill="#86632B"/>
<path d="M17.5741 12.4203C17.629 12.3654 17.6908 12.3105 17.7525 12.2556C17.7525 12.4272 17.7525 12.5987 17.7525 12.7703C17.7113 12.7359 17.6701 12.6948 17.629 12.6536C17.6084 12.633 17.5878 12.6193 17.5741 12.5987C17.5741 12.537 17.5741 12.4752 17.5741 12.4203Z" fill="#86632B"/>
<path d="M17.8212 12.2556C17.883 12.3105 17.9447 12.3654 17.9996 12.4203C17.9996 12.4821 17.9996 12.5438 17.9996 12.6056C17.9447 12.6673 17.883 12.7154 17.8212 12.7703C17.8212 12.5987 17.8212 12.4203 17.8212 12.2556Z" fill="#86632B"/>
<path d="M12.5858 12.4751C14.1435 12.4751 15.7011 12.4751 17.2588 12.4751C17.2039 12.5232 17.1558 12.5712 17.1147 12.6329C17.0804 12.681 17.0666 12.7427 17.0735 12.8045C17.0735 13.9093 17.0735 15.014 17.0735 16.1257C17.0735 16.2012 17.0804 16.2766 17.0598 16.3453C17.0255 16.4482 16.9431 16.5237 16.8608 16.5923C16.7647 16.6678 16.655 16.7295 16.552 16.7913C16.5246 16.805 16.504 16.8188 16.4765 16.8325C16.3187 16.9148 16.1609 16.9834 16.003 17.052C15.9619 17.0726 15.9138 17.0863 15.8727 17.1069C15.7286 17.1687 15.5913 17.2305 15.4541 17.2991C15.4129 17.3128 15.3786 17.3334 15.3443 17.3471C15.2688 17.3814 15.1865 17.4226 15.1247 17.4775C15.0561 17.5324 14.9943 17.5941 14.9395 17.6627C14.8983 17.6147 14.8571 17.5667 14.8091 17.5255C14.7267 17.45 14.6307 17.3952 14.5278 17.3471C14.4934 17.3334 14.4591 17.3128 14.4179 17.2991C14.2738 17.2305 14.1297 17.1687 13.9856 17.1069C13.9445 17.0863 13.9102 17.0726 13.869 17.0589C13.7112 16.9903 13.5533 16.9216 13.4024 16.8393C13.3749 16.8256 13.3475 16.8119 13.32 16.7981C13.1759 16.7227 13.0387 16.6403 12.922 16.5305C12.874 16.4825 12.8328 16.4276 12.8054 16.3658C12.7848 16.2903 12.7917 16.2149 12.7848 16.1394C12.7848 15.0278 12.7848 13.923 12.7848 12.8182C12.7917 12.7565 12.7711 12.7016 12.7436 12.6535C12.6956 12.5712 12.6476 12.5163 12.5858 12.4751Z" fill="#FDF701"/>
<path d="M12.585 12.4751C12.6467 12.5163 12.7017 12.5712 12.736 12.6329C12.6811 12.6741 12.6399 12.729 12.585 12.7702C12.5781 12.6673 12.5781 12.5712 12.585 12.4751Z" fill="#86632B"/>
<path d="M12.8322 12.585C14.2252 12.585 15.6113 12.585 16.9974 12.585C16.9837 12.6193 16.9631 12.6467 16.9562 12.6879C16.9425 12.7428 16.9494 12.8045 16.9494 12.8663C16.9494 13.4427 16.9494 14.0191 16.9494 14.5955C16.9494 14.6435 16.9494 14.6847 16.9494 14.7259C16.7161 14.6573 16.4965 14.5337 16.3112 14.3759C16.1946 14.5132 16.0299 14.5886 15.8652 14.6504C15.8103 14.671 15.7554 14.6915 15.6937 14.6984C15.6868 14.6847 15.6731 14.6641 15.6662 14.6504C15.8377 14.5955 16.0024 14.4994 16.1259 14.3622C16.2494 14.2387 16.3318 14.074 16.3661 13.9093C16.4004 13.7378 16.4004 13.5456 16.325 13.3878C16.222 13.1545 16.023 12.9829 15.824 12.8251C15.7554 12.7702 15.6799 12.7222 15.6319 12.6398C15.6044 12.7771 15.6593 12.9143 15.7074 13.0378C15.7828 13.2231 15.8652 13.4152 15.8789 13.6211C15.8858 13.772 15.8583 13.923 15.7623 14.0465C15.7074 14.122 15.6182 14.17 15.5289 14.1975C15.4878 14.2112 15.4397 14.2043 15.3986 14.2249C15.3711 14.2387 15.3505 14.2592 15.3231 14.2661C15.2476 14.2592 15.2133 14.1632 15.1379 14.1632C15.0967 14.1632 15.0555 14.1975 15.0212 14.2249C14.98 14.2592 14.9251 14.2867 14.8702 14.2661C14.8085 14.2455 14.7673 14.1769 14.7055 14.1701C14.6163 14.1563 14.582 14.273 14.4997 14.273C14.4585 14.2524 14.4242 14.2181 14.383 14.2112C14.3281 14.2044 14.2732 14.1975 14.2321 14.1769C14.1223 14.1289 14.0399 14.026 13.9988 13.9162C13.9439 13.7446 13.9507 13.5593 13.9988 13.3878C14.0331 13.2643 14.088 13.1407 14.136 13.0241C14.184 12.9074 14.232 12.7839 14.2046 12.6604C14.1772 12.7085 14.136 12.7496 14.088 12.7839C13.937 12.9075 13.7723 13.0241 13.6557 13.1819C13.5321 13.326 13.4498 13.5113 13.4498 13.7034C13.4429 13.9024 13.4978 14.1083 13.6145 14.273C13.7517 14.4651 13.9507 14.6024 14.1703 14.671C14.1634 14.6847 14.1497 14.7053 14.1429 14.719C13.9919 14.6847 13.8409 14.6229 13.7037 14.5475C13.6351 14.5063 13.5733 14.4514 13.5253 14.3965C13.34 14.5612 13.1204 14.6778 12.8803 14.7464C12.8871 14.0946 12.8803 13.4427 12.8803 12.7977C12.894 12.7085 12.8734 12.6399 12.8322 12.585Z" fill="#D32620"/>
<path d="M15.7148 13.031C15.6668 12.9075 15.6119 12.7702 15.6393 12.633C15.6805 12.7153 15.7628 12.7634 15.8314 12.8183C16.0304 12.9761 16.2295 13.1476 16.3324 13.3809C16.4079 13.5456 16.4079 13.7309 16.3736 13.9024C16.3393 14.0671 16.2569 14.2318 16.1334 14.3553C16.0099 14.4926 15.8452 14.5887 15.6736 14.6435C15.6805 14.6573 15.6873 14.6778 15.7011 14.6915C15.7628 14.6847 15.8177 14.6573 15.8726 14.6435C16.0373 14.5818 16.202 14.5063 16.3187 14.3691C16.5039 14.5337 16.7235 14.6504 16.9568 14.719C16.7372 14.8288 16.5176 14.9455 16.3187 15.0964C16.2294 14.9866 16.1059 14.9111 15.9824 14.8425C15.8932 14.7945 15.804 14.7396 15.7079 14.7053C15.7628 14.8151 15.8246 14.918 15.8795 15.0209C15.7834 15.0278 15.6874 15.0484 15.5913 15.0758C15.5021 15.1101 15.4197 15.1513 15.358 15.2268C15.2893 15.3229 15.2619 15.4464 15.2482 15.563C15.2345 15.6865 15.2413 15.81 15.2413 15.9404C15.2413 16.0777 15.2482 16.2149 15.3031 16.3453C15.3511 16.4482 15.4609 16.4894 15.5433 16.558C15.6187 16.6198 15.6187 16.757 15.5364 16.8119C15.454 16.8668 15.358 16.9011 15.2825 16.9628C15.2207 17.0177 15.159 17.0864 15.0698 17.1138C14.9737 17.1344 14.8639 17.1344 14.7679 17.107C14.6718 17.0795 14.61 16.9903 14.5277 16.9354C14.4591 16.8874 14.3699 16.8599 14.3012 16.805C14.2258 16.7433 14.2326 16.6198 14.3081 16.558C14.363 16.51 14.4316 16.4757 14.4865 16.4208C14.5346 16.3727 14.5552 16.311 14.5757 16.2492C14.5963 16.1669 14.6032 16.0845 14.61 16.0022C14.6169 15.865 14.61 15.7209 14.6032 15.5836C14.5894 15.4601 14.5689 15.3297 14.4934 15.2268C14.4522 15.1719 14.3973 15.1307 14.3355 15.1033C14.2258 15.0484 14.1023 15.0278 13.9788 15.0141C14.0337 14.9111 14.0954 14.8082 14.1503 14.6984C14.0131 14.7602 13.8827 14.8288 13.7523 14.9111C13.6768 14.9592 13.6013 15.0209 13.5396 15.0964C13.3406 14.9455 13.121 14.8288 12.9014 14.719C13.1347 14.6504 13.3612 14.5337 13.5465 14.3691C13.6013 14.4308 13.6631 14.4788 13.7248 14.52C13.8621 14.6023 14.0062 14.6572 14.164 14.6915C14.1709 14.6778 14.1846 14.6573 14.1915 14.6435C13.9719 14.5749 13.766 14.4377 13.6357 14.2455C13.519 14.0809 13.4641 13.875 13.4709 13.676C13.4709 13.4839 13.5533 13.2986 13.6768 13.1545C13.8003 12.9967 13.9582 12.88 14.1091 12.7565C14.1503 12.7222 14.1915 12.681 14.2258 12.633C14.2532 12.7565 14.2052 12.88 14.1571 12.9967C14.1091 13.1202 14.0542 13.2368 14.0199 13.3603C13.9719 13.5319 13.965 13.7172 14.0199 13.8887C14.0611 13.9985 14.1434 14.1014 14.2532 14.1495C14.3012 14.1701 14.3562 14.1769 14.4042 14.1838C14.4522 14.1906 14.4797 14.225 14.5208 14.2455C14.6032 14.2455 14.6375 14.1289 14.7267 14.1426C14.7884 14.1563 14.8296 14.225 14.8914 14.2387C14.9463 14.2661 15.0012 14.2318 15.0423 14.1975C15.0767 14.1701 15.111 14.1357 15.159 14.1357C15.2345 14.1357 15.2688 14.2318 15.3443 14.2387C15.3717 14.2318 15.3923 14.2112 15.4197 14.1975C15.4609 14.1769 15.509 14.1769 15.5501 14.1701C15.6393 14.1495 15.7285 14.0946 15.7834 14.0191C15.8795 13.8956 15.9001 13.7446 15.9001 13.5937C15.8795 13.4084 15.7971 13.2162 15.7148 13.031Z" fill="black"/>
<path d="M14.795 13.0516C14.8362 12.9349 14.8774 12.8114 14.9254 12.6948C14.9666 12.8114 15.0146 12.9281 15.0489 13.0516C15.1656 13.0036 15.2754 12.9418 15.392 12.8869C15.3577 12.9693 15.3165 13.0516 15.2753 13.1339C15.2616 13.1682 15.241 13.1957 15.2342 13.23C15.3508 13.278 15.4675 13.3124 15.5773 13.3535V13.3603C15.4675 13.4015 15.3508 13.4427 15.2342 13.4839C15.2342 13.5182 15.2548 13.5456 15.2685 13.5799C15.3028 13.6623 15.3509 13.7446 15.3852 13.8338C15.2685 13.7789 15.1587 13.724 15.0421 13.676C15.0009 13.7927 14.9597 13.9162 14.9117 14.026C14.8705 13.9093 14.8294 13.7927 14.7882 13.6691C14.6715 13.724 14.5617 13.7789 14.4451 13.8338C14.4863 13.7172 14.5549 13.6074 14.6029 13.4907C14.4862 13.4496 14.3696 13.4084 14.2529 13.3672C14.3696 13.326 14.4862 13.2849 14.6029 13.2437C14.5549 13.1271 14.4863 13.0173 14.4451 12.9006C14.5686 12.9418 14.6853 12.9967 14.795 13.0516Z" fill="black"/>
<path d="M12.5445 13.0104C12.62 12.9418 12.7023 12.8663 12.771 12.7977C12.771 13.9025 12.771 15.0072 12.771 16.1189C12.7161 16.3316 12.6612 16.5443 12.5857 16.757C12.572 16.7364 12.5582 16.709 12.5376 16.6884C12.4622 16.7502 12.4004 16.8325 12.3524 16.9149C12.3524 16.8737 12.3455 16.8257 12.3524 16.7845C12.3524 16.7502 12.373 16.7227 12.373 16.6884C12.373 16.6541 12.3524 16.6335 12.3524 16.5992C12.3524 15.3504 12.3524 14.0946 12.3524 12.8457C12.4278 12.8938 12.4828 12.9624 12.5445 13.0104Z" fill="#86632B"/>
<path d="M17.0664 12.7977C17.1487 12.8663 17.2173 12.9418 17.2997 13.0104C17.3614 12.9556 17.4232 12.8938 17.485 12.8389C17.485 13.3741 17.485 13.9162 17.485 14.4514C17.485 15.3641 17.485 16.2836 17.485 17.1962C17.4369 17.155 17.4095 17.1002 17.3752 17.0453C17.2997 16.908 17.2516 16.7639 17.2036 16.6198C17.1487 16.4551 17.1076 16.2836 17.0664 16.1189C17.0664 15.0141 17.0664 13.9025 17.0664 12.7977Z" fill="#86632B"/>
<path d="M11.8654 12.8388C11.9271 12.8937 11.982 12.9486 12.0438 13.0035C12.0507 13.0104 12.0575 13.0104 12.0644 13.0035C12.1261 12.9486 12.181 12.8869 12.2428 12.832C12.2428 13.8407 12.2428 14.8425 12.2428 15.8512C12.2153 15.8855 12.181 15.9061 12.1467 15.9335C12.1398 15.8375 12.1055 15.7551 12.0644 15.6796C12.0232 15.714 11.982 15.7483 11.9409 15.7895C11.9409 15.7346 11.9134 15.6865 11.8585 15.6728C11.8654 14.7259 11.8654 13.7789 11.8654 12.8388Z" fill="#86632B"/>
<path d="M18.2808 13.0104C18.3426 12.9556 18.4044 12.8938 18.473 12.832C18.473 13.7927 18.473 14.7602 18.473 15.7209C18.4524 15.7758 18.425 15.817 18.3975 15.8719C18.3701 15.913 18.3632 15.9679 18.3151 16.0022C18.2945 16.016 18.2808 16.0297 18.274 16.0571C18.2671 16.0777 18.274 16.1052 18.274 16.1257C18.2465 16.1326 18.2122 16.1395 18.1916 16.1738C18.1642 16.2081 18.1779 16.2561 18.1779 16.2904C18.1436 16.3042 18.1161 16.3248 18.1093 16.3591C18.1093 16.3865 18.1299 16.4071 18.1161 16.4345C18.1093 16.4483 18.1024 16.4551 18.0956 16.4688C18.0887 16.064 18.0956 15.6523 18.0956 15.2406C18.0956 14.4446 18.0956 13.6417 18.0956 12.8389C18.1093 12.8458 18.123 12.8526 18.1299 12.8663C18.1779 12.9144 18.2259 12.9624 18.2808 13.0104Z" fill="#86632B"/>
<path d="M11.3775 12.8389C11.4393 12.8938 11.5011 12.9487 11.5628 13.0104C11.6314 12.9556 11.6863 12.8869 11.7549 12.8389C11.7549 13.5525 11.7549 14.273 11.7549 14.9935C11.7412 14.9523 11.7275 14.9043 11.7069 14.8631C11.652 14.8974 11.6109 14.9455 11.5697 14.9935C11.5628 14.918 11.5354 14.8494 11.4873 14.7877C11.4736 14.7602 11.4599 14.7328 11.4324 14.7122C11.4119 14.6985 11.3913 14.6984 11.3707 14.6916C11.3775 14.074 11.3775 13.4633 11.3775 12.8389Z" fill="#86632B"/>
<path d="M17.6016 12.8389C17.6634 12.8938 17.7251 12.9555 17.7869 13.0104C17.8555 12.9555 17.9104 12.8869 17.979 12.8389C17.979 14.1152 17.979 15.3983 17.979 16.6747C17.979 16.6884 17.9721 16.7021 17.9721 16.709C17.8898 16.8599 17.8143 17.0178 17.732 17.1756C17.7045 17.2374 17.6428 17.2648 17.5947 17.2991C17.6085 17.1687 17.6016 17.0384 17.6016 16.9149C17.6016 15.5562 17.5947 14.1975 17.6016 12.8389Z" fill="#86632B"/>
<path d="M14.0682 12.88C14.0751 12.8732 14.0888 12.8663 14.0957 12.8594C14.0888 12.9212 14.0614 12.9761 14.0339 13.031C13.9447 13.2163 13.8555 13.4153 13.8487 13.6348C13.8487 13.7721 13.8761 13.9162 13.9447 14.0397C14.0065 14.1426 14.1025 14.2318 14.2192 14.2661C14.2672 14.2798 14.3152 14.2799 14.3701 14.2867C14.425 14.3005 14.4594 14.3553 14.5142 14.3553C14.5829 14.3553 14.624 14.2936 14.6858 14.2661C14.7201 14.2524 14.7544 14.2799 14.7819 14.3005C14.823 14.3348 14.8711 14.3691 14.9328 14.3622C14.9877 14.3622 15.0289 14.3279 15.0701 14.3005C15.0975 14.2799 15.125 14.2524 15.1593 14.2661C15.2142 14.2936 15.2553 14.3485 15.3171 14.3553C15.3926 14.3691 15.4337 14.2799 15.5024 14.2867C15.5573 14.2799 15.6053 14.273 15.6602 14.2593C15.77 14.2181 15.866 14.1358 15.9141 14.026C15.9827 13.8887 16.0033 13.7309 15.9896 13.5799C15.969 13.3947 15.8935 13.2231 15.818 13.0585C15.7906 12.9967 15.7631 12.9349 15.7494 12.8663C15.7562 12.8663 15.77 12.8732 15.7769 12.88C15.9141 12.9898 16.0376 13.1133 16.1337 13.2643C16.2091 13.3741 16.264 13.4976 16.2778 13.6348C16.2846 13.7995 16.2572 13.9642 16.1748 14.1152C16.0856 14.2799 15.9415 14.4102 15.7837 14.4926C15.7082 14.5337 15.6259 14.5681 15.5435 14.5887C15.5916 14.7122 15.6533 14.8357 15.7082 14.9592C15.5916 14.9798 15.4749 15.0209 15.372 15.0827C15.324 15.117 15.2897 15.1582 15.2622 15.2062C15.1936 15.3366 15.173 15.4807 15.1593 15.6248C15.1524 15.7415 15.1455 15.865 15.1524 15.9816C15.1593 16.1188 15.1455 16.2561 15.2004 16.3796C15.2347 16.4688 15.3239 16.51 15.3994 16.558C15.4406 16.5855 15.4955 16.6198 15.4955 16.6815C15.5024 16.7227 15.468 16.757 15.4406 16.7776C15.3788 16.8119 15.3171 16.8394 15.2553 16.8668C15.1799 16.908 15.125 16.9766 15.0426 17.0041C14.9671 17.0247 14.8848 17.0247 14.8093 17.0041C14.727 16.9766 14.6721 16.908 14.6035 16.8668C14.5348 16.8325 14.4594 16.8119 14.3976 16.7639C14.3633 16.7433 14.3427 16.6953 14.3564 16.661C14.3702 16.6061 14.425 16.5717 14.4662 16.5443C14.5348 16.4963 14.6103 16.4551 14.6515 16.3796C14.6995 16.2767 14.6995 16.16 14.6995 16.0502C14.6995 15.8238 14.7064 15.5905 14.6584 15.3709C14.6378 15.2886 14.6103 15.2062 14.5554 15.1445C14.5211 15.0964 14.4662 15.069 14.4113 15.0415C14.329 15.0004 14.2398 14.9729 14.1437 14.9592C14.1986 14.8357 14.2604 14.7122 14.3084 14.5887C14.1643 14.5475 14.0339 14.4788 13.9173 14.3896C13.7732 14.2798 13.6634 14.1289 13.6153 13.9574C13.5879 13.8613 13.5742 13.7584 13.581 13.6486C13.5948 13.4633 13.6908 13.2917 13.8006 13.1476C13.8692 13.0516 13.9653 12.9624 14.0682 12.88Z" fill="#FDF701"/>
<path d="M10.8215 14.1358C10.897 14.1633 10.9724 14.2044 11.0068 14.2799C11.0342 14.3554 11.0411 14.4309 11.0411 14.5064C10.9656 14.4789 10.8901 14.4309 10.8558 14.3554C10.8283 14.2936 10.8215 14.2113 10.8215 14.1358Z" fill="#025C33"/>
<path d="M11.1446 14.1769C11.1995 14.2524 11.2406 14.3416 11.2269 14.4377C11.22 14.5063 11.2063 14.575 11.172 14.6367C11.124 14.5407 11.0897 14.4308 11.1034 14.3211C11.1103 14.2662 11.124 14.2181 11.1446 14.1769Z" fill="#025C33"/>
<path d="M19.3586 14.177V14.3554L19.2077 14.2731L19.3586 14.177Z" fill="#FDF701"/>
<path d="M19.1932 14.3553C19.2549 14.3279 19.3304 14.3828 19.3167 14.4445C19.3098 14.5063 19.2206 14.52 19.1795 14.4788C19.1314 14.4514 19.1383 14.3759 19.1932 14.3553Z" fill="#FDF701"/>
<path d="M19.3444 14.4034C19.365 14.4034 19.3788 14.3965 19.3994 14.3965V14.7465C19.3582 14.671 19.3033 14.6092 19.2484 14.5406C19.2759 14.5338 19.3033 14.5269 19.3239 14.5063C19.3513 14.4789 19.3444 14.4377 19.3444 14.4034Z" fill="white"/>
<path d="M13.1071 14.7328C13.2581 14.6779 13.409 14.6024 13.5257 14.4857C13.6218 14.6024 13.759 14.671 13.9031 14.7191C13.8139 14.7671 13.7178 14.8289 13.6423 14.8906C13.6012 14.9249 13.56 14.9592 13.5257 15.0073C13.512 14.9935 13.4982 14.9798 13.4776 14.9661C13.3884 14.8975 13.2924 14.8426 13.1895 14.7877C13.1689 14.7671 13.1346 14.7534 13.1071 14.7328Z" fill="#FDF701"/>
<path d="M15.9482 14.7122C16.0855 14.6642 16.2158 14.5955 16.3188 14.4857C16.4354 14.6024 16.5864 14.6779 16.7373 14.7328C16.6207 14.7945 16.4972 14.8632 16.3874 14.9455C16.3599 14.9661 16.3394 14.9798 16.3188 15.0073C16.2227 14.8837 16.0855 14.8014 15.9482 14.7259C15.9482 14.7191 15.9482 14.7191 15.9482 14.7122Z" fill="#FDF701"/>
<path d="M10.7126 14.4995C10.7881 14.5063 10.8636 14.52 10.9254 14.5681C10.9871 14.6161 11.0214 14.6847 11.0351 14.7602C10.9528 14.7671 10.8773 14.7328 10.8224 14.671C10.7812 14.6161 10.7401 14.5612 10.7126 14.4995Z" fill="#025C33"/>
<path d="M18.8987 14.52C18.9742 14.5131 19.0497 14.52 19.1252 14.5269C19.0772 14.5406 19.0223 14.5543 18.9742 14.5749C18.9536 14.6847 18.9537 14.8013 18.9125 14.9043C18.885 14.966 18.8507 15.0278 18.8164 15.0827C18.7958 15.0621 18.7821 15.0484 18.7684 15.0278C18.8301 14.9935 18.8644 14.9317 18.8919 14.87C18.9193 14.7533 18.885 14.6366 18.8987 14.52Z" fill="#FDF701"/>
<path d="M19.0221 14.5887C19.0701 14.5681 19.1182 14.5612 19.1662 14.5475C19.1868 14.5887 19.2073 14.6367 19.2211 14.6779C19.2279 14.7053 19.2073 14.7259 19.1868 14.7396C19.1181 14.8014 19.0495 14.87 19.0015 14.9523C18.9672 15.0141 18.9398 15.0759 18.9123 15.1445C18.8917 15.1307 18.8642 15.117 18.8368 15.1033C18.878 15.0347 18.9192 14.9661 18.9466 14.8906C18.9741 14.8082 18.9877 14.719 19.0015 14.6298C19.0015 14.6161 19.0015 14.5955 19.0221 14.5887Z" fill="#FDF701"/>
<path d="M19.2142 14.5681C19.2622 14.6229 19.3103 14.6847 19.3515 14.7465C19.2691 14.822 19.1593 14.8632 19.0907 14.9455C19.0632 14.9798 19.0427 15.021 19.029 15.0621C19.0221 15.0896 19.0221 15.1239 19.0221 15.1513C19.0015 15.1445 18.9741 15.1445 18.9535 15.1376C18.9604 15.1102 18.9741 15.0758 18.9878 15.0484C19.0084 15.0072 19.0289 14.9592 19.0564 14.918C19.1113 14.8425 19.1799 14.7808 19.2485 14.719C19.2554 14.7122 19.2691 14.6985 19.2622 14.6847C19.2485 14.6573 19.2279 14.6161 19.2142 14.5681Z" fill="#FDF701"/>
<path d="M13.7453 14.918C13.8756 14.8357 14.006 14.7671 14.1433 14.7053C14.0884 14.8151 14.0266 14.9181 13.9717 15.021C14.0952 15.0347 14.2187 15.0553 14.3285 15.1102C14.3903 15.1376 14.4452 15.1788 14.4864 15.2337C14.5618 15.3366 14.5824 15.467 14.5961 15.5905C14.603 15.7277 14.603 15.8719 14.603 16.0091C14.603 16.0914 14.5893 16.1738 14.5687 16.2561C14.555 16.3179 14.5275 16.3796 14.4795 16.4277C14.4246 16.4757 14.356 16.5169 14.3011 16.5649C14.2256 16.6267 14.2187 16.757 14.2942 16.8119C14.3628 16.8668 14.452 16.8943 14.5207 16.9423C14.603 16.9972 14.6647 17.0864 14.7608 17.1139C14.8569 17.1413 14.9667 17.1413 15.0627 17.1207C15.1519 17.0933 15.2068 17.0246 15.2754 16.9697C15.3509 16.908 15.4539 16.8737 15.5293 16.8188C15.6117 16.7639 15.6117 16.6267 15.5362 16.5649C15.4539 16.4963 15.3441 16.4483 15.2961 16.3522C15.2412 16.2218 15.2343 16.0846 15.2343 15.9473C15.2343 15.8238 15.2274 15.6934 15.2411 15.5699C15.2549 15.4533 15.2823 15.3366 15.351 15.2337C15.4059 15.1582 15.495 15.1102 15.5842 15.0827C15.6734 15.0484 15.7764 15.0347 15.8724 15.0279C15.8175 14.9181 15.7558 14.8151 15.7009 14.7122C15.797 14.7534 15.8862 14.8014 15.9754 14.8494C16.092 14.9249 16.2224 14.9935 16.3116 15.1033C16.5106 14.9524 16.7302 14.8357 16.9498 14.7259C16.9498 15.22 16.9498 15.714 16.9498 16.2081C16.9566 16.2973 16.8949 16.3728 16.8331 16.4345C16.689 16.5786 16.5037 16.6678 16.3185 16.757C15.9754 16.9217 15.6254 17.0658 15.2823 17.2236C15.1519 17.2854 15.0216 17.354 14.9187 17.4638C14.8569 17.3952 14.7814 17.3403 14.6991 17.2992C14.5344 17.2099 14.356 17.1344 14.1844 17.059C13.958 16.9629 13.7384 16.8668 13.5188 16.757C13.3678 16.6884 13.2169 16.6061 13.0865 16.51C13.0179 16.4551 12.9561 16.3934 12.9149 16.3179C12.8944 16.2836 12.8875 16.2493 12.8875 16.215C12.8875 15.714 12.8875 15.22 12.8875 14.7191C13.1071 14.8289 13.3267 14.9455 13.5257 15.0965C13.5943 15.0278 13.6698 14.9729 13.7453 14.918Z" fill="#005BA4"/>
<path d="M11.4674 14.8975C11.5566 15.0073 11.5429 15.1719 11.4948 15.2955C11.4605 15.2474 11.44 15.1925 11.4262 15.1376C11.4056 15.0553 11.4262 14.973 11.4674 14.8975Z" fill="#025C33"/>
<path d="M11.22 14.9249C11.2337 14.9249 11.2474 14.9249 11.2543 14.9387C11.3092 15.0073 11.3366 15.0965 11.3778 15.1719C11.4052 15.2268 11.4464 15.2817 11.4533 15.3504C11.4464 15.3572 11.4327 15.3641 11.4258 15.3641C11.3778 15.3367 11.3572 15.2886 11.3366 15.2406C11.3023 15.1582 11.2612 15.0759 11.2269 15.0004C11.2269 14.9798 11.2063 14.9524 11.22 14.9249Z" fill="#FDF701"/>
<path d="M11.5695 15.2405C11.5901 15.165 11.6244 15.0896 11.6724 15.0209C11.7136 15.0964 11.7479 15.1787 11.7479 15.2611C11.7548 15.3366 11.7204 15.412 11.6793 15.4738C11.6587 15.4944 11.645 15.5219 11.6175 15.5424C11.5764 15.4464 11.542 15.3435 11.5695 15.2405Z" fill="#025C33"/>
<path d="M18.7818 15.165C18.8298 15.1444 18.8984 15.1856 18.8916 15.2405C18.8916 15.2543 18.8847 15.268 18.8778 15.2817C18.7955 15.3846 18.7406 15.5013 18.6857 15.6111C18.6171 15.7414 18.5553 15.8718 18.4867 16.0022C18.4798 16.0159 18.4661 16.0297 18.4524 16.0434C18.4249 16.0434 18.4044 16.0297 18.3906 16.0091C18.3838 15.9954 18.3838 15.9748 18.3906 15.9542C18.4661 15.8169 18.5347 15.6728 18.6034 15.5356C18.6514 15.4464 18.6994 15.3572 18.7337 15.2611C18.7475 15.2199 18.7475 15.1788 18.7818 15.165Z" fill="#FDF701"/>
<path d="M14.1572 15.3572L14.3287 15.1788L14.5071 15.3572L14.3356 15.5287C14.3356 15.5287 14.2189 15.4121 14.1572 15.3572Z" fill="black"/>
<path d="M15.5151 15.1788L15.6866 15.3503L15.5151 15.5287L15.3367 15.3572L15.5151 15.1788Z" fill="black"/>
<path d="M10.9113 15.1994C11.0211 15.1925 11.1378 15.2131 11.227 15.2886C11.2682 15.3229 11.3093 15.3572 11.3368 15.3984C11.227 15.3984 11.1103 15.3778 11.0211 15.3092C10.98 15.2749 10.9388 15.2406 10.9113 15.1994Z" fill="#025C33"/>
<path d="M14.2391 15.3572L14.3283 15.268L14.4176 15.3572L14.3283 15.4464C14.3283 15.4464 14.2734 15.3846 14.2391 15.3572Z" fill="#FDF701"/>
<path d="M15.5159 15.2612L15.6051 15.3572L15.5159 15.4465L15.4198 15.3504L15.5159 15.2612Z" fill="#FDF701"/>
<path d="M10.9451 15.412C11.0275 15.412 11.103 15.4258 11.1853 15.4532C11.2539 15.4807 11.3157 15.5355 11.3569 15.5904C11.2814 15.5904 11.2128 15.5904 11.1442 15.5699C11.0618 15.5561 10.9794 15.4944 10.9451 15.412Z" fill="#025C33"/>
<path d="M11.6388 15.6385C11.6868 15.5973 11.7211 15.5493 11.7554 15.4944C11.7554 15.5631 11.7554 15.6317 11.7554 15.7003C11.7348 15.714 11.7005 15.7209 11.6731 15.7209C11.6662 15.7003 11.6525 15.6728 11.6388 15.6385Z" fill="#86632B"/>
<path d="M14.171 15.5288C14.2739 15.5425 14.37 15.57 14.4798 15.5837C14.5073 15.5837 14.5278 15.618 14.5415 15.6454C14.5759 15.7278 14.5827 15.817 14.5896 15.9062C14.5896 16.016 14.5896 16.1258 14.569 16.2356C14.5347 16.3797 14.4181 16.4963 14.2808 16.5444C14.3014 16.3316 14.3083 16.1121 14.274 15.8993C14.2397 15.769 14.2191 15.6455 14.171 15.5288Z" fill="black"/>
<path d="M15.3856 15.5837C15.4816 15.5631 15.5777 15.5425 15.6738 15.5288C15.5777 15.8033 15.5434 16.0983 15.564 16.3865C15.564 16.4346 15.5708 16.4895 15.5777 16.5375C15.4542 16.4963 15.3444 16.4002 15.2964 16.2767C15.2689 16.2081 15.2689 16.1395 15.2621 16.0709C15.2483 15.968 15.2552 15.8719 15.2689 15.769C15.2758 15.7072 15.2895 15.6523 15.3307 15.6043C15.3444 15.5906 15.365 15.5906 15.3856 15.5837Z" fill="black"/>
<path d="M13.3746 15.7757C13.3884 15.6728 13.4844 15.5905 13.5874 15.5973C13.6903 15.5973 13.7863 15.6934 13.7932 15.7963C13.8344 15.7758 13.8756 15.7414 13.9236 15.7414C14.0128 15.7346 14.0951 15.7826 14.1294 15.8649C14.1569 15.9404 14.15 16.0296 14.0951 16.0845C14.0746 16.112 14.0402 16.1257 14.0128 16.1463C14.0814 16.1875 14.1294 16.2629 14.1226 16.3453C14.1157 16.4619 13.9922 16.558 13.8755 16.5306C13.8207 16.5237 13.7795 16.4894 13.7452 16.4551C13.7314 16.5237 13.6903 16.5855 13.6285 16.6129C13.553 16.6541 13.457 16.6335 13.3952 16.5717C13.3266 16.5031 13.3129 16.3865 13.3678 16.3041C13.306 16.3041 13.2511 16.2973 13.2031 16.2561C13.1345 16.2012 13.107 16.0983 13.1482 16.0159C13.1894 15.9199 13.2991 15.8718 13.3952 15.8993C13.3815 15.8649 13.3678 15.8169 13.3746 15.7757Z" fill="black"/>
<path d="M11.3776 15.6455C11.4119 15.6386 11.4393 15.6249 11.4736 15.6318C11.4942 15.6867 11.5217 15.7347 11.5422 15.7896C11.5148 15.8102 11.4873 15.8376 11.453 15.8445C11.4256 15.8513 11.3981 15.8582 11.3776 15.8788C11.3776 15.7964 11.3776 15.7209 11.3776 15.6455Z" fill="#86632B"/>
<path d="M15.3855 15.666C15.4404 15.6592 15.5021 15.6386 15.557 15.6317C15.5296 15.769 15.4952 15.8993 15.4952 16.0366C15.4815 16.1464 15.4884 16.2561 15.4816 16.3659C15.4267 16.3385 15.3854 16.2836 15.358 16.2219C15.3237 16.1395 15.3374 16.0503 15.3374 15.968C15.3374 15.865 15.3306 15.7553 15.3855 15.666Z" fill="#FDF701"/>
<path d="M14.2868 15.6317C14.3417 15.6386 14.4035 15.6523 14.4584 15.666C14.5132 15.7553 14.5064 15.865 14.5064 15.968C14.5064 16.0503 14.5133 16.1326 14.4858 16.2081C14.4584 16.2699 14.4172 16.3316 14.3554 16.3659C14.3623 16.1189 14.3486 15.8719 14.2868 15.6317Z" fill="#FDF701"/>
<path d="M13.4708 15.7415C13.512 15.6934 13.5806 15.6728 13.6355 15.6934C13.7179 15.714 13.7727 15.8169 13.7315 15.8993C13.6492 15.8718 13.5532 15.8924 13.4914 15.9542C13.4777 15.9748 13.4639 15.9404 13.4502 15.9336C13.4159 15.8787 13.4228 15.7895 13.4708 15.7415Z" fill="#FDF701"/>
<path d="M15.9341 15.8032C16.0439 15.7415 16.1743 15.7346 16.2841 15.762C16.4213 15.7963 16.538 15.8856 16.6135 16.0022C16.5105 15.9816 16.4007 15.9816 16.3047 16.0297C16.188 16.0777 16.092 16.1875 16.0714 16.311C16.0439 16.4208 16.0714 16.5374 16.1331 16.6335C16.0027 16.6061 15.893 16.5306 15.8175 16.4208C15.742 16.3247 15.7077 16.1943 15.7352 16.0708C15.7557 15.9679 15.8312 15.865 15.9341 15.8032Z" fill="black"/>
<path d="M11.7208 15.817C11.7344 15.8237 11.7411 15.8305 11.7547 15.8373C11.7547 15.8576 11.7547 15.8779 11.7547 15.8914C11.7411 15.8711 11.7276 15.844 11.7208 15.817Z" fill="#86632B"/>
<path d="M13.7524 15.9062C13.7799 15.8444 13.8416 15.8032 13.9103 15.8101C14.0063 15.8101 14.0818 15.9131 14.0544 16.0023C14.0406 16.0709 13.9652 16.1326 13.8897 16.1258C13.8966 16.0366 13.8416 15.9474 13.7524 15.9062Z" fill="#FDF701"/>
<path d="M11.6248 15.8238C11.6385 15.8307 11.6522 15.8238 11.6591 15.8375C11.6934 15.8787 11.714 15.9267 11.7414 15.9748C11.7963 16.0983 11.865 16.2081 11.913 16.3316C11.9198 16.359 11.9336 16.3796 11.9336 16.407C11.9267 16.4345 11.8924 16.4139 11.8855 16.4002C11.8443 16.3453 11.8169 16.2698 11.7895 16.2081C11.7483 16.0983 11.6865 16.0022 11.6385 15.8924C11.6248 15.8787 11.6248 15.8512 11.6248 15.8238Z" fill="#FDF701"/>
<path d="M11.9611 15.913C11.9817 15.8856 12.0023 15.8512 12.0297 15.8238C12.064 15.8924 12.0915 15.9679 12.0778 16.0434C12.0778 16.0914 12.0366 16.1257 12.016 16.1669C11.9885 16.2081 11.9886 16.263 11.9886 16.311C11.9405 16.2767 11.9131 16.2218 11.8925 16.1669C11.865 16.0708 11.9131 15.9816 11.9611 15.913Z" fill="#025C33"/>
<path d="M15.9204 15.9268C16.0302 15.8376 16.1949 15.8238 16.3253 15.8787C16.3459 15.8856 16.3665 15.8924 16.3802 15.913C16.2224 15.9405 16.0851 16.0503 16.0165 16.1944C15.9753 16.2767 15.9616 16.3659 15.9685 16.4551C15.893 16.3934 15.8381 16.311 15.8244 16.215C15.8038 16.112 15.8381 15.9954 15.9204 15.9268Z" fill="#FDF701"/>
<path d="M11.5629 15.9267C11.5629 15.9061 11.5629 15.8718 11.5835 15.8718C11.6384 15.9885 11.6865 16.0983 11.7414 16.2149C11.7482 16.2286 11.755 16.2492 11.755 16.2698C11.7139 16.2492 11.6727 16.2218 11.6315 16.2081C11.5492 16.1806 11.4669 16.1806 11.3845 16.1943C11.3777 16.1394 11.3845 16.0845 11.3845 16.0296C11.412 16.0434 11.4394 16.064 11.4737 16.0571C11.5218 16.0502 11.5698 15.9885 11.5629 15.9267Z" fill="#86632B"/>
<path d="M13.2236 16.0503C13.258 15.9473 13.3952 15.913 13.4707 15.9816C13.4089 16.0571 13.4089 16.1669 13.4501 16.2492C13.4089 16.2698 13.3678 16.2767 13.3266 16.263C13.2442 16.2355 13.1893 16.1326 13.2236 16.0503Z" fill="#FDF701"/>
<path d="M12.0502 16.3659C12.0365 16.2218 12.1188 16.0846 12.2149 15.9816C12.2423 16.0846 12.256 16.1944 12.2286 16.2973C12.208 16.3865 12.1531 16.462 12.0845 16.5237C12.0639 16.4757 12.0571 16.4208 12.0502 16.3659Z" fill="#025C33"/>
<path d="M18.3151 16.0503C18.3769 16.0297 18.4523 16.0709 18.4592 16.1326C18.4592 16.1395 18.4523 16.1463 18.4455 16.1532C18.3974 16.1806 18.3288 16.1532 18.3014 16.1051C18.2877 16.0914 18.2945 16.064 18.3151 16.0503Z" fill="#FDF701"/>
<path d="M13.7245 16.3522C13.8206 16.3247 13.8824 16.2424 13.8961 16.1463C13.951 16.1532 13.9991 16.1875 14.0196 16.2287C14.0608 16.311 14.0196 16.4276 13.9304 16.4551C13.8481 16.4894 13.7451 16.4345 13.7245 16.3522Z" fill="#FDF701"/>
<path d="M18.2327 16.1806C18.2945 16.1669 18.3768 16.2012 18.3974 16.263C18.4043 16.2836 18.3905 16.3179 18.37 16.3247C18.3151 16.3384 18.2465 16.3179 18.2121 16.263C18.1916 16.2424 18.1984 16.1944 18.2327 16.1806Z" fill="#FDF701"/>
<path d="M18.4183 16.2012C18.432 16.1943 18.4526 16.1875 18.4663 16.1738C18.4663 16.8943 18.4663 17.6216 18.4663 18.3421C18.4183 18.3147 18.3771 18.2735 18.3428 18.2323C18.2673 18.15 18.2055 18.0677 18.1575 17.9716C18.1232 17.9098 18.0889 17.8481 18.0958 17.7794C18.0958 17.4981 18.0958 17.2168 18.0958 16.9286C18.0958 16.8943 18.0889 16.86 18.1095 16.8325C18.1712 16.7159 18.2261 16.606 18.281 16.4963C18.3085 16.4894 18.3359 16.4825 18.3497 16.462C18.3634 16.4345 18.3565 16.4071 18.3565 16.3796C18.3839 16.359 18.4183 16.3385 18.4389 16.3041C18.4389 16.2698 18.432 16.2355 18.4183 16.2012Z" fill="#86632B"/>
<path d="M11.412 16.2218C11.515 16.2081 11.6248 16.2287 11.7071 16.2904C11.7826 16.3453 11.8444 16.4208 11.8993 16.4963C11.8512 16.4757 11.81 16.4414 11.762 16.4277C11.7003 16.4002 11.6317 16.4071 11.563 16.4139C11.5013 16.359 11.4326 16.3042 11.412 16.2218Z" fill="#025C33"/>
<path d="M13.4085 16.3247C13.4222 16.2973 13.4359 16.2699 13.4702 16.2561C13.5251 16.3316 13.6212 16.3728 13.7104 16.3522C13.7173 16.3934 13.7172 16.4345 13.6898 16.4689C13.6486 16.5375 13.5594 16.5581 13.4908 16.5306C13.4153 16.5032 13.3742 16.4071 13.4085 16.3247Z" fill="#FDF701"/>
<path d="M11.3776 16.2767C11.4187 16.3247 11.4599 16.3796 11.5079 16.4208C11.4668 16.4276 11.4187 16.4482 11.3776 16.4688C11.3776 16.4071 11.3776 16.3384 11.3776 16.2767Z" fill="#86632B"/>
<path d="M18.1643 16.3453C18.2123 16.3179 18.2741 16.3522 18.3015 16.3934C18.3084 16.4139 18.3152 16.4414 18.2946 16.4551C18.2397 16.4757 18.178 16.4483 18.1574 16.4002C18.1437 16.3796 18.1437 16.3522 18.1643 16.3453Z" fill="#FDF701"/>
<path d="M12.0782 16.5992C12.1468 16.5649 12.1948 16.51 12.2497 16.4482C12.2497 16.4962 12.2497 16.5374 12.2497 16.5855C12.2017 16.6129 12.1605 16.6472 12.1056 16.6472C12.0919 16.6404 12.085 16.6198 12.0782 16.5992Z" fill="#86632B"/>
<path d="M11.5768 16.4688C11.6866 16.4482 11.7963 16.4963 11.8855 16.5649C11.8924 16.5718 11.9061 16.5786 11.8993 16.5923C11.8101 16.6129 11.7208 16.6404 11.6248 16.6266C11.5424 16.6129 11.4669 16.5786 11.412 16.5237C11.412 16.5237 11.4121 16.5169 11.4189 16.5169C11.4601 16.4894 11.515 16.4757 11.5768 16.4688Z" fill="#025C33"/>
<path d="M18.1165 16.5032C18.1371 16.462 18.1988 16.4689 18.2194 16.5101C18.2194 16.5444 18.1988 16.5718 18.1851 16.6062C18.0684 16.8395 17.9518 17.0659 17.8352 17.2992C17.8214 17.361 17.8351 17.4364 17.8283 17.4982C17.8214 17.5737 17.7665 17.6492 17.691 17.6697C17.6361 17.6903 17.5675 17.6629 17.5401 17.6148C17.5126 17.5737 17.5058 17.5188 17.5195 17.4776C17.5332 17.409 17.5812 17.361 17.6361 17.3267C17.6773 17.2992 17.7322 17.2717 17.7528 17.2237C17.8695 16.9767 17.993 16.7434 18.1165 16.5032Z" fill="#FDF701"/>
<path d="M11.3776 16.5786C11.4462 16.6198 11.5217 16.6609 11.604 16.6747C11.6521 16.6815 11.7069 16.6747 11.755 16.6747C11.755 16.8325 11.755 16.9903 11.755 17.1481C11.7138 17.1481 11.6726 17.1413 11.6315 17.1413C11.6589 17.2167 11.7069 17.2854 11.755 17.354C11.7618 17.3814 11.755 17.4089 11.755 17.4363C11.7138 17.45 11.6795 17.4638 11.6383 17.4775C11.6726 17.5118 11.7138 17.5393 11.755 17.5736C11.755 17.6559 11.755 17.7314 11.755 17.8138C11.755 17.8687 11.7276 17.9167 11.707 17.9647C11.6452 18.0745 11.5697 18.1706 11.4874 18.2598C11.4531 18.2941 11.4187 18.3284 11.3776 18.3558C11.3776 17.7589 11.3776 17.1687 11.3776 16.5786Z" fill="#86632B"/>
<path d="M14.5415 16.6404C14.5827 16.6335 14.6308 16.6335 14.6719 16.6404C14.7268 16.6473 14.7474 16.7159 14.7131 16.757C14.6925 16.7845 14.6582 16.7914 14.6239 16.7845C14.5553 16.7777 14.4867 16.7777 14.4318 16.7433C14.4112 16.7296 14.4043 16.6953 14.4249 16.6816C14.4524 16.6541 14.5004 16.6473 14.5415 16.6404Z" fill="black"/>
<path d="M15.172 16.6404C15.1858 16.6335 15.1995 16.6335 15.2201 16.6335C15.275 16.6404 15.3367 16.6404 15.3916 16.661C15.4122 16.6679 15.4327 16.6816 15.4396 16.7022C15.4396 16.7227 15.4328 16.7364 15.4122 16.7502C15.3573 16.7776 15.2887 16.7845 15.2269 16.7845C15.1994 16.7845 15.1583 16.7845 15.1377 16.757C15.1034 16.7227 15.1171 16.6541 15.172 16.6404Z" fill="black"/>
<path d="M11.8654 16.661C11.8791 16.6405 11.9134 16.6473 11.934 16.6404C11.9477 16.6748 11.9683 16.7022 11.9752 16.7365C11.9477 16.7708 11.9135 16.8051 11.8654 16.812C11.8654 16.7571 11.8654 16.7091 11.8654 16.661Z" fill="#86632B"/>
<path d="M12.0229 16.6404C12.0503 16.6404 12.0641 16.6747 12.0778 16.6953C12.1533 16.8463 12.215 17.0041 12.2905 17.155C12.366 17.3266 12.4552 17.4981 12.5238 17.6697C12.5375 17.704 12.5513 17.7314 12.5513 17.7657C12.517 17.752 12.5032 17.7108 12.4826 17.6765C12.4003 17.5324 12.3317 17.3883 12.2631 17.2374C12.2013 17.1001 12.1396 16.9698 12.0847 16.8325C12.0572 16.7776 12.0229 16.7159 12.0229 16.6404Z" fill="#FDF701"/>
<path d="M12.1395 16.7296C12.1876 16.7364 12.2013 16.7845 12.2493 16.7982C12.2493 16.8599 12.2493 16.9148 12.2493 16.9697C12.2219 16.9286 12.2082 16.8806 12.1876 16.8325C12.167 16.7982 12.1464 16.7708 12.1395 16.7296Z" fill="#86632B"/>
<path d="M12.4554 16.8875C12.476 16.8532 12.4966 16.8257 12.5309 16.7983C12.5446 16.8051 12.5446 16.8189 12.5515 16.8326C12.5858 16.9287 12.627 17.0316 12.6064 17.1345C12.579 17.1757 12.5309 17.21 12.5035 17.2581C12.4897 17.2855 12.4897 17.3198 12.476 17.3473C12.428 17.2649 12.3799 17.1757 12.3799 17.0796C12.3799 17.0179 12.4142 16.9492 12.4554 16.8875Z" fill="#025C33"/>
<path d="M12.0027 16.8393C12.0027 16.8256 12.0233 16.8188 12.0301 16.8393C12.0987 16.9903 12.1674 17.1413 12.236 17.2923C12.1742 17.2648 12.1056 17.2236 12.037 17.2099C11.9821 17.1893 11.9272 17.1893 11.8723 17.1687C11.8723 17.1207 11.8723 17.0727 11.8723 17.0246C11.9203 17.0246 11.9752 16.9972 11.989 16.9492C12.0027 16.908 11.9752 16.8668 12.0027 16.8393Z" fill="#86632B"/>
<path d="M15.9888 17.0521C16.1466 16.9766 16.3044 16.908 16.4622 16.8325C16.4966 16.9286 16.5514 17.0178 16.6269 17.0864C16.572 17.0864 16.5171 17.0795 16.4691 17.0521C16.4622 17.1001 16.4485 17.155 16.4416 17.203C16.3867 17.1962 16.3456 17.1619 16.2975 17.1276C16.2769 17.1893 16.2632 17.2511 16.2427 17.3128C16.1535 17.2373 16.0711 17.1413 15.9888 17.0521Z" fill="#86632B"/>
<path d="M13.3887 16.8325C13.5397 16.908 13.6975 16.9834 13.8553 17.0521C13.773 17.1481 13.6907 17.2373 13.5946 17.3197C13.5809 17.2579 13.5672 17.203 13.5466 17.1413C13.4986 17.1619 13.4574 17.1962 13.4093 17.2099C13.3956 17.155 13.3887 17.107 13.3819 17.0521C13.3338 17.0727 13.279 17.0864 13.2241 17.0864C13.2995 17.0109 13.3476 16.9217 13.3887 16.8325Z" fill="#86632B"/>
<path d="M12.5922 17.2373C12.647 17.1687 12.7088 17.1138 12.7774 17.0658C12.7774 17.155 12.7568 17.2373 12.7294 17.3197C12.702 17.402 12.6265 17.4706 12.5372 17.4775C12.5167 17.3952 12.5373 17.306 12.5922 17.2373Z" fill="#025C33"/>
<path d="M17.8695 17.2922C17.9038 17.2168 17.9381 17.1481 17.9793 17.0795C17.9793 17.3746 17.9793 17.6696 17.9793 17.9647C17.8901 17.8824 17.8077 17.7932 17.7185 17.7039C17.794 17.6696 17.842 17.5942 17.8626 17.5118C17.8763 17.4432 17.8558 17.3677 17.8695 17.2922Z" fill="#86632B"/>
<path d="M13.2647 17.1757C13.2784 17.1688 13.2921 17.1688 13.3058 17.1619C13.3058 17.2168 13.3127 17.2854 13.347 17.3335C13.395 17.2992 13.4362 17.2717 13.4843 17.2374C13.4911 17.2786 13.498 17.3129 13.5049 17.3472C13.3265 17.5874 13.148 17.8344 12.9627 18.0746C12.901 18.1432 12.8736 18.2324 12.853 18.3216C12.8255 18.3079 12.7981 18.2804 12.7912 18.2461C12.7912 18.205 12.7981 18.1637 12.7981 18.1294C12.7638 18.1637 12.7157 18.1843 12.6677 18.1843C12.6951 18.102 12.7912 18.054 12.7981 17.9648C12.7569 17.9853 12.7157 18.0059 12.6746 18.0128C12.6059 18.0128 12.5373 18.0197 12.4756 18.0471C12.4207 18.0677 12.3795 18.102 12.3246 18.1226C12.304 18.1088 12.2834 18.0883 12.2903 18.0608C12.3177 18.0128 12.3658 17.9853 12.4069 17.9579C12.4687 17.9236 12.5373 17.8824 12.6128 17.8962C12.6745 17.903 12.7569 17.9236 12.8049 17.8756C12.9696 17.6422 13.1137 17.409 13.2647 17.1757Z" fill="#D32620"/>
<path d="M16.5381 17.1619C16.5518 17.1688 16.5655 17.1756 16.5793 17.1756C16.7165 17.3884 16.8537 17.6079 16.991 17.8206C17.0116 17.8481 17.0253 17.8824 17.0596 17.8893C17.1351 17.9098 17.2105 17.8824 17.286 17.8824C17.3546 17.8961 17.4164 17.9373 17.4713 17.9785C17.4988 17.9991 17.5262 18.0196 17.5468 18.0539C17.5399 18.0745 17.5331 18.0951 17.5125 18.1088C17.4919 18.1088 17.4782 18.0951 17.4576 18.0882C17.3958 18.0539 17.3272 18.0196 17.2517 18.0128C17.2037 18.0059 17.1557 18.0127 17.1076 17.9922C17.0802 17.9853 17.0596 17.9716 17.0321 17.9579C17.0321 18.0539 17.1419 18.0951 17.1625 18.1843C17.1145 18.1843 17.0733 18.1637 17.039 18.1294C17.039 18.1706 17.0459 18.2117 17.039 18.2529C17.0321 18.2872 17.0047 18.301 16.9841 18.3216C16.9566 18.2529 16.943 18.1775 16.8949 18.1088C16.7371 17.8961 16.5793 17.6765 16.4146 17.457C16.3871 17.4158 16.3528 17.3746 16.3254 17.3266C16.3322 17.2923 16.3391 17.2648 16.3459 17.2236C16.394 17.2442 16.4351 17.2854 16.4763 17.3128C16.49 17.3197 16.4969 17.2991 16.5038 17.2923C16.5381 17.258 16.5381 17.2099 16.5381 17.1619Z" fill="#D32620"/>
<path d="M11.7625 17.2304C11.9272 17.2304 12.1056 17.2579 12.236 17.3608C12.2772 17.3951 12.3252 17.4226 12.3526 17.4775C12.2154 17.4912 12.0645 17.4843 11.9478 17.4157C11.8723 17.3746 11.8037 17.3059 11.7625 17.2304Z" fill="#025C33"/>
<path d="M15.3303 17.3472C15.3646 17.3266 15.4057 17.3129 15.44 17.2992C15.4606 17.3541 15.4881 17.409 15.5155 17.4638C15.6596 17.7726 15.8243 18.0677 16.0027 18.3559C16.1194 18.5412 16.2497 18.7264 16.3938 18.898C16.5242 19.0489 16.6752 19.1999 16.8605 19.2754C16.586 19.3989 16.3115 19.5293 16.0439 19.6734C15.8929 19.4881 15.7557 19.296 15.6184 19.097C15.5704 19.0215 15.5224 18.946 15.4675 18.8774C15.4675 18.9597 15.5018 19.0352 15.5361 19.1107C15.6322 19.3371 15.7626 19.5499 15.8861 19.7626C15.6734 19.8792 15.4744 20.0096 15.2822 20.1537C15.145 20.2635 15.0146 20.3801 14.9254 20.5311H14.9117H14.9186C14.8294 20.3801 14.699 20.2635 14.5686 20.1606C14.3765 20.0096 14.1637 19.8792 13.951 19.7557C13.9785 19.7077 14.0059 19.6665 14.0333 19.6185C14.1431 19.4332 14.2529 19.2479 14.3284 19.0421C14.349 18.9872 14.3696 18.9254 14.3696 18.8705C14.1912 19.145 14.0128 19.4126 13.8001 19.6734C13.5324 19.5293 13.258 19.3921 12.9766 19.2754C13.1276 19.2136 13.258 19.097 13.3746 18.9735C13.5736 18.7608 13.7383 18.5137 13.8893 18.2667C14.0745 17.951 14.2461 17.6285 14.397 17.2923C14.4314 17.306 14.4656 17.3266 14.5068 17.3403C14.3696 17.6697 14.2118 17.9991 14.0402 18.3078C13.903 18.5549 13.752 18.7951 13.5805 19.0078C13.505 19.097 13.4227 19.1793 13.3335 19.2548C13.4844 19.3097 13.6354 19.3577 13.7863 19.4263C13.9853 19.193 14.15 18.9391 14.3147 18.6784C14.4863 18.4039 14.5892 18.0883 14.6852 17.7795C14.7127 17.8481 14.7058 17.9167 14.7058 17.9922C14.699 18.1706 14.6715 18.3422 14.6303 18.5137C14.5411 18.898 14.4245 19.2891 14.2324 19.6391C14.4108 19.7351 14.5892 19.8381 14.7538 19.9547C14.8087 19.9959 14.8637 20.0439 14.9186 20.092C15.1176 19.8998 15.3646 19.7626 15.6048 19.6391C15.4744 19.4058 15.3783 19.1519 15.3028 18.898C15.2205 18.6166 15.1587 18.3353 15.1313 18.0471C15.1244 17.951 15.1244 17.855 15.145 17.7658C15.241 18.0746 15.344 18.3902 15.5155 18.6647C15.6734 18.9254 15.8449 19.1862 16.0439 19.4195C16.188 19.3577 16.339 19.3028 16.4968 19.2548C16.3115 19.1107 16.1743 18.9186 16.0439 18.7264C15.8655 18.4588 15.7077 18.1706 15.5636 17.8755C15.4881 17.704 15.4057 17.5256 15.3303 17.3472Z" fill="black"/>
<path d="M14.5133 17.3403C14.6162 17.3883 14.7123 17.4432 14.7946 17.5187C14.8427 17.5599 14.8838 17.6079 14.925 17.6559C14.9799 17.5873 15.0416 17.5255 15.1103 17.4706C15.1789 17.4158 15.2544 17.3746 15.3298 17.3403C15.4053 17.5187 15.4877 17.7039 15.5769 17.8755C15.721 18.1705 15.8719 18.4519 16.0572 18.7264C16.1876 18.9185 16.3317 19.1106 16.5101 19.2547C16.3523 19.3028 16.2013 19.3577 16.0572 19.4194C15.8582 19.1861 15.6935 18.9254 15.5288 18.6646C15.3504 18.3901 15.2544 18.0745 15.1583 17.7657C15.1309 17.8549 15.1377 17.951 15.1446 18.047C15.172 18.3352 15.2338 18.6166 15.3161 18.8979C15.3916 19.1518 15.4877 19.4057 15.618 19.639C15.3779 19.7694 15.1308 19.9066 14.9318 20.0919C14.8838 20.0439 14.8289 19.9958 14.7672 19.9547C14.6025 19.8311 14.4241 19.7351 14.2457 19.639C14.4309 19.289 14.5544 18.8979 14.6437 18.5136C14.678 18.3421 14.7123 18.1637 14.7191 17.9921C14.7191 17.9166 14.726 17.848 14.6986 17.7794C14.6025 18.0882 14.4995 18.4038 14.328 18.6783C14.1633 18.9391 13.9986 19.1998 13.7997 19.4263C13.6556 19.3577 13.5046 19.3096 13.3467 19.2547C13.4359 19.1861 13.5183 19.0969 13.5938 19.0077C13.7722 18.7881 13.9232 18.548 14.0535 18.3078C14.2182 17.999 14.3692 17.6765 14.5133 17.3403Z" fill="#86632B"/>
<path d="M11.7964 17.4912C11.913 17.4912 12.0366 17.4913 12.1532 17.5187C12.215 17.5393 12.2836 17.5667 12.3179 17.6216C12.2081 17.6628 12.0846 17.6903 11.9817 17.6354C11.9131 17.601 11.8444 17.553 11.7964 17.4912Z" fill="#025C33"/>
<path d="M11.8654 17.6354C11.9409 17.6697 12.0164 17.7109 12.1056 17.7246C12.0232 17.8001 11.9546 17.8824 11.8723 17.9579C11.8654 17.855 11.8654 17.7452 11.8654 17.6354Z" fill="#86632B"/>
<path d="M17.4578 17.7177C17.5127 17.6971 17.5813 17.7314 17.6019 17.7932C17.6157 17.8206 17.6019 17.8618 17.5676 17.8824C17.5059 17.9098 17.4235 17.8687 17.4098 17.8069C17.403 17.7658 17.4304 17.7314 17.4578 17.7177Z" fill="#FDF701"/>
<path d="M12.3519 18.1569C12.3725 18.1363 12.3999 18.1157 12.4205 18.0951C12.4411 18.0814 12.4548 18.1157 12.4411 18.1294C12.4205 18.15 12.3931 18.1706 12.3656 18.1912C12.3588 18.1843 12.3313 18.1775 12.3519 18.1569Z" fill="#D32620"/>
<path d="M17.3889 18.1157C17.3958 18.1088 17.4026 18.0951 17.4163 18.0882C17.4438 18.1088 17.4713 18.1294 17.4919 18.1569C17.4987 18.1706 17.485 18.1843 17.4781 18.1912C17.4507 18.1706 17.4164 18.15 17.3889 18.1157Z" fill="#D32620"/>
<path d="M12.483 18.15C12.531 18.1294 12.5791 18.1981 12.5379 18.2324C12.483 18.2804 12.4281 18.3284 12.3732 18.3765C12.3389 18.3971 12.2978 18.3627 12.2909 18.3216C12.3115 18.2804 12.3527 18.2529 12.387 18.2255C12.4281 18.2049 12.4487 18.1706 12.483 18.15Z" fill="#D32620"/>
<path d="M17.2997 18.2255C17.2791 18.1843 17.3203 18.1363 17.3614 18.15C17.3889 18.1706 17.4163 18.1912 17.4369 18.2118C17.4712 18.2461 17.5124 18.2735 17.5399 18.3078C17.5467 18.3422 17.5193 18.3834 17.4849 18.3765C17.4644 18.3765 17.4506 18.3627 17.4369 18.349C17.3957 18.3078 17.3408 18.2735 17.2997 18.2255Z" fill="#D32620"/>
<path d="M12.5653 18.2598C12.6065 18.2323 12.6614 18.2872 12.6339 18.3284C12.6065 18.3559 12.5722 18.3833 12.5378 18.4108C12.5104 18.4382 12.4829 18.4656 12.4486 18.4862C12.4143 18.4931 12.3938 18.4588 12.3869 18.4313C12.3938 18.397 12.4281 18.3764 12.4555 18.3558C12.4898 18.3284 12.5241 18.2872 12.5653 18.2598Z" fill="#D32620"/>
<path d="M17.2307 18.2598C17.2512 18.246 17.2787 18.2598 17.2993 18.2804C17.3473 18.3215 17.3953 18.3696 17.4434 18.4107C17.4708 18.4519 17.4159 18.5137 17.3747 18.4862C17.3198 18.445 17.2718 18.397 17.2169 18.349C17.1895 18.3215 17.2032 18.2735 17.2307 18.2598Z" fill="#D32620"/>
<path d="M12.5237 18.4794C12.5718 18.4451 12.613 18.397 12.6678 18.3559C12.7022 18.3421 12.7296 18.3696 12.7433 18.4039C12.7365 18.4382 12.7022 18.4588 12.6747 18.4863C12.6404 18.5137 12.6061 18.548 12.5649 18.5755C12.5306 18.6029 12.4826 18.5686 12.4894 18.5343C12.4894 18.5068 12.51 18.4931 12.5237 18.4794Z" fill="#D32620"/>
<path d="M17.1355 18.3628C17.1561 18.3559 17.1835 18.3559 17.1973 18.3696C17.2453 18.4108 17.2933 18.4588 17.3413 18.5C17.3757 18.5274 17.3482 18.5823 17.307 18.5892C17.2865 18.5961 17.2727 18.5823 17.259 18.5686C17.211 18.5274 17.1629 18.4863 17.1149 18.4451C17.0943 18.4245 17.108 18.3765 17.1355 18.3628Z" fill="#D32620"/>
<path d="M12.8253 18.795C12.8458 18.7127 12.8596 18.6303 12.8802 18.548C12.9556 18.5892 13.0243 18.6303 13.0998 18.6715C13.0792 18.7539 13.0654 18.8362 13.0448 18.9185C12.9762 18.8774 12.9007 18.8362 12.8253 18.795Z" fill="#FDF701"/>
<path d="M17.0184 18.5892C17.0665 18.5549 17.1488 18.5892 17.1625 18.6509C17.1625 18.6784 17.1282 18.6784 17.1008 18.6784C17.0596 18.6646 17.0116 18.6372 17.0184 18.5892Z" fill="#FDF701"/>
<path d="M16.9291 18.6715C17.0114 18.6715 17.0938 18.7127 17.1418 18.7744C17.1487 18.7882 17.128 18.7951 17.1212 18.8019C17.0594 18.85 16.9908 18.8911 16.9291 18.9391C16.9222 18.8568 16.9291 18.7676 16.9291 18.6715Z" fill="#FDF701"/>
<path d="M14.7676 10.348C14.7676 10.4098 14.7127 10.4646 14.6509 10.4646C14.5892 10.4646 14.5343 10.4166 14.5343 10.348C14.5343 10.2862 14.5892 10.2313 14.6509 10.2313C14.7196 10.2382 14.7676 10.2862 14.7676 10.348Z" fill="#FDF701"/>
<path d="M14.7063 10.348C14.7063 10.3754 14.6857 10.4029 14.6514 10.4029C14.6171 10.4029 14.5965 10.3754 14.5965 10.348C14.5965 10.3206 14.6171 10.2931 14.6514 10.2931C14.6857 10.2931 14.7063 10.3206 14.7063 10.348Z" fill="black"/>
<path d="M13.8137 16.1257C13.8137 16.2081 13.7451 16.2767 13.6559 16.2767C13.5735 16.2767 13.5049 16.2081 13.5049 16.1257C13.5049 16.0365 13.5735 15.9679 13.6559 15.9679C13.7451 15.9679 13.8137 16.0365 13.8137 16.1257Z" fill="#FDF701"/>
<path d="M11.8929 15.7689C11.8929 15.8032 11.8655 15.8238 11.8312 15.8238C11.7969 15.8238 11.7694 15.7963 11.7694 15.7689C11.7694 15.7345 11.7969 15.714 11.8312 15.714C11.8724 15.714 11.8929 15.7345 11.8929 15.7689Z" fill="#FDF701"/>
<path d="M12.3315 16.6884C12.3315 16.7227 12.3041 16.7502 12.2697 16.7502C12.2354 16.7502 12.208 16.7227 12.208 16.6884C12.208 16.661 12.2354 16.6335 12.2697 16.6335C12.3041 16.6335 12.3315 16.661 12.3315 16.6884Z" fill="#FDF701"/>
<path d="M11.5151 15.9473C11.5151 15.9816 11.4876 16.0022 11.4533 16.0022C11.419 16.0022 11.3916 15.9748 11.3916 15.9473C11.3916 15.913 11.419 15.8856 11.4533 15.8856C11.4876 15.8856 11.5151 15.913 11.5151 15.9473Z" fill="#FDF701"/>
<path d="M11.9406 16.908C11.9406 16.9423 11.9131 16.9698 11.8788 16.9698C11.8445 16.9698 11.8239 16.9423 11.8239 16.908C11.8239 16.8737 11.8514 16.8531 11.8788 16.8531C11.9131 16.8531 11.9406 16.8737 11.9406 16.908Z" fill="#FDF701"/>
<path d="M12.7777 17.6766C12.7777 17.7109 12.7502 17.7383 12.7228 17.7383C12.6885 17.7383 12.661 17.7109 12.661 17.6766C12.661 17.6422 12.6885 17.6148 12.7228 17.6148C12.7571 17.6148 12.7777 17.6422 12.7777 17.6766Z" fill="#FDF701"/>
<path d="M12.3868 17.8275C12.3868 17.8618 12.3594 17.8893 12.325 17.8893C12.2907 17.8893 12.2701 17.8618 12.2701 17.8275C12.2701 17.7932 12.2976 17.7726 12.325 17.7726C12.3594 17.7658 12.3868 17.7932 12.3868 17.8275Z" fill="#FDF701"/>
<path d="M11.0479 14.9729C11.0479 15.0072 11.0204 15.0278 10.9861 15.0278C10.9518 15.0278 10.9313 15.0003 10.9313 14.9729C10.9313 14.9386 10.9587 14.9111 10.9861 14.9111C11.0204 14.918 11.0479 14.9386 11.0479 14.9729Z" fill="#FDF701"/>
<path d="M11.4327 14.7945C11.4327 14.8288 11.4052 14.8494 11.3709 14.8494C11.3366 14.8494 11.316 14.822 11.316 14.7945C11.316 14.7602 11.3435 14.7327 11.3709 14.7327C11.4052 14.7396 11.4327 14.7671 11.4327 14.7945Z" fill="#FDF701"/>
<path d="M14.9182 12.9418L15.0005 13.1683L15.2132 13.0653L15.1103 13.2781L15.3367 13.3604L15.1103 13.4359L15.2132 13.6555L15.0005 13.5526L14.9182 13.779L14.8427 13.5526L14.6231 13.6555L14.726 13.4359L14.4996 13.3604L14.726 13.2781L14.6231 13.0653L14.8427 13.1683L14.9182 12.9418Z" fill="#FDF701"/>
</svg>
