<svg width="30" height="30" viewBox="0 0 30 30" fill="none" xmlns="http://www.w3.org/2000/svg">
<g clip-path="url(#clip0_1_14933)">
<path d="M-7.5 0.0010376H37.5V30.001H-7.5V0.0010376Z" fill="#003787"/>
<path d="M-7.5 0.0010376H37.5L17.5 20.001V30.001H12.5V20.001L-7.5 0.0010376Z" fill="#F1F4FB"/>
<path d="M15.0002 15.8343C16.8412 15.8343 18.3335 14.3419 18.3335 12.501C18.3335 10.66 16.8412 9.16766 15.0002 9.16766C13.1593 9.16766 11.6669 10.66 11.6669 12.501C11.6669 14.3419 13.1593 15.8343 15.0002 15.8343Z" fill="#F9D90F"/>
<path d="M10.8331 12.501H19.1665L14.9998 20.001L10.8331 12.501Z" fill="#F1F4FB"/>
<path d="M14.9998 20.001L8.33313 13.751H21.6665L14.9998 20.001Z" fill="#CF142B"/>
</g>
<defs>
<clipPath id="clip0_1_14933">
<rect y="0.0010376" width="30" height="30" rx="15" fill="white"/>
</clipPath>
</defs>
</svg>
