<svg width="30" height="30" viewBox="0 0 30 30" fill="none" xmlns="http://www.w3.org/2000/svg">
<path d="M30 15.0004C30 23.2827 23.2823 30.0004 15 30.0004C6.71774 30.0004 0 23.2827 0 15.0004C0 6.71817 6.71774 0.000427246 15 0.000427246C23.2823 0.000427246 30 6.71131 30 15.0004Z" fill="#003893"/>
<path d="M4.00059 25.1766L29.9864 15.1995C29.9864 15.1309 29.9933 15.0622 29.9933 14.9936C29.9933 13.4291 29.7531 11.9264 29.314 10.5128L2.89584 23.8317C3.23894 24.3051 3.60947 24.7512 4.00059 25.1766Z" fill="white"/>
<path d="M29.314 10.5197C28.8885 9.15418 28.271 7.87785 27.4956 6.7182L2.06558 22.5828C2.31947 23.0151 2.59391 23.4337 2.88897 23.8385L29.314 10.5197Z" fill="#DD7500"/>
<path d="M6.5326 12.1322L6.36793 9.38748L5.79155 10.904L6.05231 9.30514L5.10537 10.6157L5.77095 9.14047L4.51522 10.1629L5.53767 8.90714L4.05549 9.57277L5.36612 8.62583L3.7673 8.88658L5.28374 8.31704L2.539 8.15236L5.28374 7.98081L3.7673 7.41127L5.36612 7.67202L4.05549 6.71821L5.53767 7.38383L4.51522 6.1281L5.77095 7.15051L5.10537 5.67524L6.05231 6.98583L5.79155 5.38701L6.36793 6.89663L6.5326 4.15189L6.69732 6.89663L7.2737 5.38701L7.01981 6.98583L7.96675 5.67524L7.30113 7.15051L8.55686 6.1281L7.53445 7.38383L9.01659 6.71821L7.706 7.67202L9.30482 7.41127L7.7952 7.98081L10.5399 8.15236L7.7952 8.31704L9.30482 8.88658L7.706 8.62583L9.01659 9.57277L7.53445 8.90714L8.55686 10.1629L7.30113 9.14047L7.96675 10.6157L7.01981 9.30514L7.2737 10.904L6.69732 9.38748L6.5326 12.1322Z" fill="white"/>
</svg>
