<svg width="30" height="30" viewBox="0 0 30 30" fill="none" xmlns="http://www.w3.org/2000/svg">
<path d="M14.3279 10.5561L12.7709 0.164917C9.39644 0.665946 6.39236 2.29943 4.1427 4.66045L11.7421 11.9013C12.4211 11.1875 13.3196 10.7071 14.3279 10.5561Z" fill="#CE2028"/>
<path d="M18.2512 11.9013L25.8507 4.66045C23.601 2.29943 20.5968 0.665946 17.2223 0.164917L15.6654 10.5561C16.6805 10.7071 17.579 11.1875 18.2512 11.9013Z" fill="#CE2028"/>
<path d="M15.6654 19.4444L17.2223 29.8356C20.5968 29.3346 23.601 27.7011 25.8507 25.3401L18.2512 18.0991C17.579 18.8129 16.6805 19.2934 15.6654 19.4444Z" fill="#CE2028"/>
<path d="M10.5419 15.594L0.137268 16.9804C0.44591 19.3002 1.2758 21.4622 2.52409 23.3222L11.2552 17.4951C10.8848 16.9392 10.6379 16.294 10.5419 15.594Z" fill="#CE2028"/>
<path d="M11.7421 18.0991L4.1427 25.3469C6.39236 27.7079 9.39644 29.3414 12.7709 29.8425L14.3279 19.4512C13.3196 19.2934 12.4211 18.8129 11.7421 18.0991Z" fill="#CE2028"/>
<path d="M11.2552 12.5054L2.52409 6.67841C1.28266 8.53839 0.44591 10.6935 0.137268 13.0202L10.5419 14.4066C10.6379 13.7065 10.8848 13.0614 11.2552 12.5054Z" fill="#CE2028"/>
<path d="M19.4512 14.4066L29.8559 13.0202C29.5472 10.7004 28.7174 8.53839 27.4759 6.67841L18.7448 12.5054C19.1083 13.0614 19.362 13.7065 19.4512 14.4066Z" fill="#CE2028"/>
<path d="M18.7382 17.4951L27.4693 23.3222C28.7107 21.4622 29.5475 19.307 29.8492 16.9872L19.4445 15.6008C19.3622 16.294 19.1085 16.9392 18.7382 17.4951Z" fill="#CE2028"/>
<path d="M18.251 18.0991L25.8505 25.34C26.4472 24.7155 26.989 24.036 27.4691 23.3153L18.738 17.4883C18.594 17.7148 18.4293 17.9138 18.251 18.0991Z" fill="#F9D616"/>
<path d="M11.7421 11.9015L4.14269 4.66058C3.54599 5.28515 3.00416 5.96464 2.52405 6.6853L11.2552 12.5123C11.3992 12.2858 11.5638 12.0868 11.7421 11.9015Z" fill="#F9D616"/>
<path d="M15.6654 19.4443C15.4459 19.4787 15.2264 19.4993 15.0001 19.4993C14.7738 19.4993 14.5543 19.4787 14.3348 19.4443L12.7779 29.8356C13.5049 29.9454 14.2457 30.0003 15.007 30.0003C15.7614 30.0003 16.509 29.9454 17.2292 29.8356L15.6654 19.4443Z" fill="#F9D616"/>
<path d="M15.0001 10.5013C15.2264 10.5013 15.4459 10.5219 15.6654 10.5562L17.2223 0.165032C16.5022 0.0552172 15.7683 0.000274658 15.0207 0.000274658H14.9864C14.2388 0.000274658 13.4981 0.0552172 12.7779 0.165032L14.3348 10.5562C14.5475 10.5219 14.7738 10.5013 15.0001 10.5013Z" fill="#F9D616"/>
<path d="M18.738 12.5054L27.4691 6.6784C26.989 5.95774 26.4472 5.28512 25.8505 4.65369L18.251 11.8946C18.4293 12.0868 18.594 12.2858 18.738 12.5054Z" fill="#F9D616"/>
<path d="M11.2552 17.4951L2.52405 23.3222C3.00416 24.0428 3.54599 24.7223 4.14269 25.3469L11.7421 18.0991C11.5638 17.9138 11.3992 17.7148 11.2552 17.4951Z" fill="#F9D616"/>
<path d="M19.4994 14.9969C19.4994 15.2028 19.4788 15.3949 19.4582 15.594L29.8629 16.9804C29.9521 16.3284 30 15.6695 30 14.9969C30 14.3243 29.9521 13.6654 29.8629 13.0133L19.4582 14.3998C19.4788 14.5988 19.4994 14.7978 19.4994 14.9969Z" fill="#F9D616"/>
<path d="M10.5007 14.9968C10.5007 14.7978 10.5144 14.5988 10.5418 14.4066L0.137224 13.0202C0.0480612 13.6653 0 14.3311 0 15.0037C0 15.6763 0.0480612 16.3352 0.137224 16.9872L10.5418 15.6008C10.5144 15.4018 10.5007 15.2027 10.5007 14.9968Z" fill="#F9D616"/>
<path d="M18.251 18.0991C18.4293 17.9138 18.594 17.7079 18.738 17.4952C19.1084 16.9392 19.3552 16.2872 19.4513 15.594C19.4787 15.3949 19.4925 15.2028 19.4925 14.9969C19.4925 14.7978 19.4718 14.5988 19.4513 14.4066C19.3621 13.7134 19.1084 13.0614 18.738 12.5054C18.594 12.2927 18.4293 12.0868 18.251 11.9015C17.5788 11.1945 16.6803 10.7072 15.6652 10.5562C15.4458 10.5219 15.2263 10.5013 15 10.5013C14.7736 10.5013 14.5542 10.5219 14.3347 10.5562C13.3265 10.7072 12.4211 11.1945 11.749 11.9015C11.5706 12.0868 11.406 12.2927 11.262 12.5054C10.8916 13.0682 10.6447 13.7134 10.5487 14.4066C10.5212 14.5988 10.5076 14.7978 10.5076 14.9969C10.5076 15.2028 10.5212 15.3949 10.5487 15.594C10.6378 16.2941 10.8916 16.9392 11.262 17.4952C11.406 17.7079 11.5706 17.9138 11.749 18.0991C12.4211 18.806 13.3265 19.2934 14.3347 19.4444C14.5542 19.4787 14.7736 19.4993 15 19.4993C15.2263 19.4993 15.4458 19.4787 15.6652 19.4444C16.6803 19.2934 17.5788 18.8129 18.251 18.0991ZM15 18.7511C12.9286 18.7511 11.2483 17.0696 11.2483 14.9969C11.2483 12.9241 12.9286 11.2494 15 11.2494C17.0713 11.2494 18.7449 12.931 18.7449 14.9969C18.7449 17.0696 17.0713 18.7511 15 18.7511Z" fill="#D12026"/>
<path d="M18.7449 14.9969C18.7449 12.9241 17.0645 11.2494 15 11.2494C12.9287 11.2494 11.2483 12.931 11.2483 14.9969C11.2483 17.0696 12.9287 18.7511 15 18.7511C17.0713 18.7511 18.7449 17.0696 18.7449 14.9969Z" fill="#F9D616"/>
</svg>
