<svg width="30" height="30" viewBox="0 0 30 30" fill="none" xmlns="http://www.w3.org/2000/svg">
<path d="M0.000152588 14.9936C0.000152588 21.0458 3.5889 26.2608 8.74901 28.6281V1.35913C3.5889 3.73333 0.000152588 8.94833 0.000152588 14.9936Z" fill="#14B53A"/>
<path d="M30.0001 14.9936C30.0001 8.94147 26.4114 3.73333 21.2513 1.35913V28.6281C26.4114 26.2608 30.0001 21.0526 30.0001 14.9936Z" fill="#CE1126"/>
<path d="M15.0002 0.000488281C12.7701 0.000488281 10.6566 0.487673 8.74904 1.36599V28.635C10.6498 29.5064 12.7701 30.0005 15.0002 30.0005C17.2303 30.0005 19.3506 29.5064 21.2513 28.635V1.36599C19.3506 0.487673 17.2303 0.000488281 15.0002 0.000488281Z" fill="#FCD116"/>
</svg>
