<svg width="30" height="30" viewBox="0 0 30 30" fill="none" xmlns="http://www.w3.org/2000/svg">
<path d="M30.0001 15.0008C30.0001 23.283 23.2839 30.0008 15.0035 30.0008C6.72318 30.0008 0.0069809 23.283 0.0069809 15.0008C0.0069809 6.71851 6.72318 0.000762939 15.0035 0.000762939C23.2839 0.000762939 30.0001 6.71165 30.0001 15.0008Z" fill="#DA2D1C"/>
<path d="M14.9897 0.000762939C6.70935 0.00762479 0 6.71851 0 15.0008C0 15.3919 0.0205859 15.783 0.048027 16.1742H14.9828V0.000762939H14.9897Z" fill="#2042A1"/>
<path d="M9.02828 6.03193L8.52062 5.68205L8.0061 6.03193L8.19132 5.44883L7.69054 5.06465H8.3148L8.52062 4.49524L8.72642 5.06465H9.35071L8.8499 5.44883L9.02828 6.03193Z" fill="white"/>
<path d="M8.95973 14.8906L8.44521 14.5407L7.93755 14.8906L8.11593 14.3075L7.62199 13.937L8.24627 13.9233L8.45207 13.347L8.65787 13.9233L9.27532 13.937L8.78137 14.3075L8.95973 14.8906Z" fill="white"/>
<path d="M11.1001 6.5396L10.5856 6.18971L10.0711 6.53273L10.2563 5.95649L9.76237 5.58601L10.3867 5.57231L10.5925 4.99603L10.7914 5.57231L11.4157 5.58601L10.9218 5.95649L11.1001 6.5396Z" fill="white"/>
<path d="M11.0246 14.5132L10.5169 14.1633L10.0024 14.5132L10.1876 13.9301L9.68683 13.5596L10.3111 13.5459L10.5169 12.9696L10.7227 13.5528L11.347 13.5596L10.8462 13.9301L11.0246 14.5132Z" fill="white"/>
<path d="M7.05935 6.45729L6.54483 6.10741L6.03031 6.45729L6.21553 5.87418L5.72159 5.5037L6.34588 5.49001L6.5517 4.91373L6.75063 5.49001L7.37492 5.5037L6.87413 5.87418L7.05935 6.45729Z" fill="white"/>
<path d="M6.98389 14.4171L6.47624 14.0673L5.96172 14.4171L6.14696 13.834L5.64615 13.4636L6.27044 13.4567L6.47624 12.8804L6.68206 13.4567L7.30632 13.4704L6.80554 13.834L6.98389 14.4171Z" fill="white"/>
<path d="M5.46095 7.58961L4.94643 7.23973L4.43191 7.58275L4.61712 6.9996L4.12318 6.63602L4.74747 6.62229L4.95327 6.04605L5.15223 6.62229L5.77651 6.63602L5.28257 6.9996L5.46095 7.58961Z" fill="white"/>
<path d="M5.46095 13.0516L4.94643 12.7017L4.43191 13.0516L4.61712 12.4685L4.12318 12.0981L4.74747 12.0912L4.95327 11.5149L5.15223 12.0912L5.77651 12.1049L5.28257 12.4685L5.46095 13.0516Z" fill="white"/>
<path d="M4.6583 9.28447L4.15064 8.93459L3.63612 9.2776L3.81447 8.69449L3.32053 8.33088L3.94482 8.31719L4.15064 7.74091L4.35644 8.31719L4.98073 8.33088L4.47992 8.70136L4.6583 9.28447Z" fill="white"/>
<path d="M4.6583 11.1646L4.15064 10.8216L3.63612 11.1646L3.81447 10.5815L3.32053 10.211L3.94482 10.2042L4.15064 9.6279L4.35644 10.2042L4.98073 10.2179L4.47992 10.5884L4.6583 11.1646Z" fill="white"/>
<path d="M11.3951 7.76802L11.9096 7.41814L12.4173 7.76115L12.2389 7.178L12.7329 6.80756L12.1086 6.8007L11.9028 6.22446L11.7038 6.8007L11.0727 6.81443L11.5735 7.178L11.3951 7.76802Z" fill="white"/>
<path d="M11.5391 13.1477L12.0468 12.7978L12.5613 13.1408L12.3761 12.5577L12.8769 12.1941L12.2526 12.1804L12.0468 11.6041L11.841 12.1804L11.2167 12.1941L11.7175 12.5646L11.5391 13.1477Z" fill="white"/>
<path d="M12.2389 9.51091L12.7534 9.16103L13.2679 9.50404L13.0827 8.92093L13.5767 8.55045L12.9592 8.54359L12.7466 7.96735L12.5476 8.54359L11.9233 8.55732L12.4173 8.92776L12.2389 9.51091Z" fill="white"/>
<path d="M12.383 11.3499L12.8906 11L13.4052 11.343L13.2268 10.7599L13.7207 10.3894L13.0964 10.3826L12.8906 9.8063L12.6848 10.3826L12.0605 10.3963L12.5613 10.7599L12.383 11.3499Z" fill="white"/>
<path d="M11.3197 9.4701L11.8616 9.42206L11.697 8.68784L11.1825 8.87999L10.8806 8.28984L11.3471 7.96049L10.9012 7.39094L10.5033 7.81637L9.98878 7.41841L10.2975 6.92434L9.63892 6.59498L9.47426 7.18509L8.81568 6.97238L8.86371 6.40283L8.13652 6.42344L8.20513 6.96551L7.57397 7.15079L7.40933 6.56068L6.73015 6.91064L7.01142 7.38407L6.53806 7.80955L6.11273 7.38407L5.66681 7.99479L6.11273 8.27615L5.83145 8.86626L5.31693 8.65354L5.13171 9.38089L5.72169 9.45637V10.1151L5.13171 10.1632L5.34438 10.8905L5.83832 10.7052L6.14704 11.2679L5.6531 11.6179L6.1196 12.1874L6.51748 11.7894L7.05945 12.1874L6.75073 12.6608L7.38188 12.9902L7.59455 12.4481L8.20513 12.6128L8.13652 13.1755L8.89115 13.1549L8.82255 12.5922L9.45368 12.4276L9.64577 12.9971L10.3249 12.6677L10.0162 12.1737L10.5307 11.7482L10.9081 12.1737L11.354 11.5836L10.9081 11.3022L11.1413 10.6915L11.6833 10.9248L11.8479 10.17L11.306 10.122L11.3197 9.4701ZM8.48638 11.3914C7.60826 11.3914 6.89481 10.6778 6.89481 9.79946C6.89481 8.92114 7.60826 8.2075 8.48638 8.2075C9.36449 8.2075 10.078 8.92114 10.078 9.79946C10.0711 10.6778 9.36449 11.3914 8.48638 11.3914Z" fill="white"/>
<path d="M10.6336 8.37218C10.6062 8.27612 10.5856 8.18006 10.5445 8.084C10.5239 7.99479 10.4827 7.9056 10.4278 7.83698C10.373 7.77522 10.2975 7.72032 10.222 7.69973C10.1328 7.67229 10.03 7.67916 9.94077 7.7066C9.831 7.74091 9.73495 7.80267 9.65263 7.87815C9.58402 7.93304 9.52228 8.00164 9.46054 8.07026C9.45368 7.99478 9.43997 7.92616 9.40567 7.85754C9.38509 7.81637 9.35078 7.76836 9.30961 7.74777C9.26845 7.72033 9.22042 7.71344 9.1724 7.72717C9.11066 7.74775 9.06951 7.79582 9.03521 7.85072C8.98032 7.95364 8.96661 8.07716 8.97347 8.19381C8.94603 8.20067 8.91857 8.20752 8.89799 8.22124C8.84311 8.26241 8.80882 8.32416 8.78138 8.38592C8.74708 8.48885 8.74021 8.59866 8.75393 8.70845C8.75393 8.72217 8.76765 8.74272 8.75393 8.75644C8.73335 8.79762 8.71963 8.84566 8.70591 8.89369C8.68533 8.85938 8.65788 8.82508 8.61672 8.81135C8.65788 8.66725 8.65789 8.51629 8.60301 8.37905C8.64417 8.26926 8.65788 8.15262 8.6373 8.04283C8.62358 7.94676 8.58929 7.85757 8.52069 7.79581C8.54127 7.6723 8.52754 7.54194 8.47266 7.42529C8.43836 7.34981 8.39033 7.28118 8.31487 7.24687C8.2737 7.22629 8.23255 7.23314 8.19139 7.24C8.16394 7.16452 8.12279 7.09591 8.06791 7.03415C8.00616 6.9724 7.93756 6.91064 7.84837 6.90378H7.81408C7.76606 6.90378 7.71804 6.93808 7.6906 6.97925C7.64944 7.04101 7.64942 7.11647 7.65628 7.17823C7.66314 7.26743 7.69744 7.3498 7.7386 7.41842C7.68372 7.45959 7.66314 7.52821 7.65628 7.59683C7.64942 7.72721 7.69058 7.8507 7.75918 7.96049C7.76604 7.98107 7.78664 7.99481 7.7935 8.01539C7.7935 8.03598 7.78663 8.04967 7.78663 8.07026C7.77291 8.17319 7.78663 8.28299 7.82779 8.37905C7.83465 8.39278 7.82778 8.39963 7.82092 8.41335C7.79348 8.46139 7.78662 8.51631 7.77976 8.5712C7.69744 8.4271 7.59454 8.28988 7.4642 8.19381C7.37501 8.13205 7.27898 8.09085 7.16921 8.07713C7.06631 8.0634 6.96341 8.08399 6.87422 8.1183C6.78504 8.15261 6.70271 8.20752 6.62724 8.26928C6.46946 8.38593 6.34597 8.54373 6.24307 8.71528C6.09214 8.98289 6.00296 9.2917 5.98924 9.60048V9.67595C5.98924 9.73771 5.9961 9.7926 6.00982 9.8475C6.01668 9.88181 6.03041 9.91612 6.05785 9.93671C6.07843 9.95729 6.11272 9.9573 6.1333 9.94357C6.16074 9.92299 6.18132 9.89555 6.19504 9.8681C6.2362 9.78576 6.25679 9.70339 6.28423 9.62105C6.32539 9.49067 6.37342 9.36716 6.42144 9.24365C6.48319 9.09955 6.56551 8.95548 6.67527 8.83883C6.72329 8.79079 6.78503 8.74962 6.83991 8.70845C6.92909 8.65355 7.02515 8.59862 7.12805 8.5849C7.28584 8.76331 7.38873 8.9829 7.4642 9.20248C7.38187 9.127 7.28584 9.06524 7.17608 9.03094C7.03201 8.97604 6.86736 8.96917 6.71643 8.97603C6.69585 8.97603 6.67527 8.98977 6.65469 8.99663C6.61353 9.02408 6.58608 9.06523 6.55864 9.10641C6.49689 9.22306 6.4626 9.35347 6.43516 9.48384C6.38027 9.73087 6.33224 9.971 6.29794 10.2249C6.26364 10.4651 6.24307 10.6984 6.24307 10.9386C6.24307 11.0415 6.24994 11.1444 6.27052 11.2405C6.27738 11.2679 6.28424 11.3022 6.31168 11.3228C6.33226 11.3434 6.36655 11.3434 6.38713 11.3228C6.40771 11.3091 6.41458 11.2748 6.42144 11.2542C6.43516 11.1993 6.44888 11.1444 6.45574 11.0964C6.50376 10.8013 6.55178 10.5131 6.64782 10.2318C6.71643 10.0534 6.80561 9.8681 6.94968 9.73086C7.02514 9.66224 7.09374 9.58675 7.16234 9.51127C7.24467 9.64851 7.30641 9.79947 7.37501 9.94357C7.38187 9.9573 7.38873 9.97789 7.39559 9.99161C7.38873 10.0191 7.38187 10.0465 7.37501 10.074C7.34757 10.1906 7.35443 10.3209 7.39559 10.4307C7.42303 10.5062 7.47107 10.5748 7.53967 10.6092C7.52595 10.6984 7.52594 10.7876 7.54652 10.8699C7.56024 10.9385 7.59454 11.0072 7.65628 11.0483C7.69745 11.0758 7.75234 11.0758 7.7935 11.0689C7.76606 11.1856 7.76604 11.3091 7.80034 11.4188C7.82093 11.4943 7.8621 11.563 7.92385 11.611C7.91013 11.659 7.90327 11.7071 7.90327 11.7551C7.89641 11.8649 7.92383 11.9747 7.97185 12.0776C8.00615 12.1394 8.05418 12.2011 8.12278 12.2286C8.11592 12.3246 8.12278 12.4207 8.15023 12.5099C8.17767 12.606 8.22568 12.702 8.29429 12.7775C8.33545 12.8256 8.39719 12.8599 8.46579 12.8599H8.49324C8.5344 12.853 8.58243 12.8393 8.60987 12.805C8.6579 12.7569 8.69219 12.6952 8.71277 12.6334C8.75393 12.503 8.74708 12.359 8.71964 12.2286C8.76766 12.2217 8.80882 12.1942 8.84312 12.1599C8.90486 12.105 8.94603 12.0364 8.97347 11.961C9.01463 11.8649 9.02835 11.7551 9.01463 11.6522C9.09009 11.611 9.1381 11.5424 9.1724 11.4669C9.22042 11.364 9.24101 11.2404 9.22729 11.1238C9.30276 11.0826 9.35763 11.0072 9.39193 10.9248C9.43996 10.815 9.46054 10.6915 9.43996 10.568C9.54287 10.5131 9.60461 10.4033 9.63891 10.3004C9.6595 10.2729 9.69379 10.2523 9.72123 10.2318C9.81728 10.3621 9.89959 10.5062 9.94761 10.6641C9.99564 10.8219 10.0025 10.9866 9.98193 11.1444C9.97507 11.2199 9.96134 11.2954 9.94761 11.3709C9.94075 11.412 9.93391 11.4532 9.94077 11.4944C9.94077 11.5218 9.96135 11.5492 9.98193 11.5561C10.0162 11.563 10.0505 11.5492 10.0711 11.5287C10.1191 11.4944 10.1534 11.4463 10.1809 11.3914C10.2357 11.3022 10.2769 11.1993 10.3112 11.0964C10.4004 10.8082 10.4141 10.5062 10.3935 10.2043C10.3867 10.1083 10.3798 10.019 10.3592 9.92297C10.3592 9.89552 10.3592 9.86121 10.3524 9.83376C10.3386 9.74456 10.2975 9.66224 10.2289 9.60735C10.1534 9.54559 10.0574 9.52501 9.96135 9.52501C9.84472 9.52501 9.7281 9.55932 9.61833 9.60735C9.6252 9.54559 9.61833 9.49069 9.61147 9.42894C9.59775 9.34659 9.56345 9.27111 9.50857 9.21622C9.58403 9.05153 9.65948 8.87997 9.75553 8.72214C9.81041 8.62608 9.87901 8.53004 9.96819 8.45456C10.0917 8.53691 10.1671 8.66728 10.222 8.79766C10.3181 9.0241 10.3592 9.26423 10.4073 9.49754C10.421 9.56616 10.4347 9.64163 10.4621 9.70338C10.4759 9.73083 10.4964 9.76515 10.5307 9.75142C10.5719 9.7377 10.5925 9.6897 10.6131 9.65539C10.6748 9.51815 10.6885 9.36719 10.7022 9.22309V9.02407C10.7228 8.81135 10.6885 8.5849 10.6336 8.37218ZM8.58929 10.3484C8.59615 10.3278 8.60301 10.3072 8.60301 10.2798C8.60301 10.3072 8.60301 10.3278 8.60987 10.3484C8.60987 10.3484 8.59615 10.3484 8.58929 10.3484ZM8.58929 10.0533C8.58929 10.0328 8.58243 10.0053 8.58243 9.98474C8.59615 9.97102 8.60987 9.9573 8.62359 9.94357C8.60987 9.97788 8.60301 10.019 8.58929 10.0533ZM8.74707 9.24365C8.76079 9.2711 8.77451 9.30541 8.79509 9.33286C8.77451 9.38089 8.76079 9.43581 8.75393 9.48384C8.75393 9.50443 8.74708 9.51811 8.74022 9.53184C8.74022 9.47694 8.72648 9.42206 8.69904 9.37403C8.72648 9.33286 8.74021 9.28482 8.74707 9.24365ZM8.69219 9.96414C8.71277 9.87493 8.74021 9.79259 8.76765 9.71025C8.77451 9.75142 8.79509 9.79259 8.80881 9.83376C8.76078 9.86807 8.71963 9.90924 8.69219 9.96414Z" fill="#2042A0"/>
<path d="M7.75929 6.98611C7.78674 6.95181 7.84163 6.94492 7.87593 6.95865C7.94453 6.97923 8.00628 7.02728 8.0543 7.08217C8.10232 7.13705 8.13661 7.19876 8.16405 7.26737C8.09545 7.32225 8.06802 7.40458 8.0543 7.4869C8.0543 7.49376 8.04743 7.4869 8.04057 7.4869C7.99255 7.43888 7.93766 7.40457 7.86906 7.39085C7.84162 7.39085 7.81419 7.39085 7.79361 7.39771C7.74559 7.31539 7.71129 7.21937 7.71129 7.12333C7.71815 7.08217 7.72499 7.02727 7.75929 6.98611Z" fill="white"/>
<path d="M8.21206 7.29485C8.24636 7.27427 8.30124 7.28109 8.33554 7.30167C8.39042 7.33598 8.42473 7.39087 8.45217 7.44576C8.50019 7.54866 8.51392 7.65845 8.5002 7.76821C8.45218 7.74763 8.39728 7.74759 8.35612 7.77504C8.29438 7.80248 8.26009 7.8711 8.22579 7.92598C8.16405 7.86424 8.12975 7.77503 8.11603 7.68585C8.1023 7.59666 8.1023 7.50751 8.12974 7.41833C8.1366 7.37031 8.16404 7.32229 8.21206 7.29485Z" fill="white"/>
<path d="M7.78671 7.45948C7.82101 7.43204 7.86904 7.43202 7.90334 7.44574C7.95136 7.46633 7.99252 7.50063 8.02682 7.53493C8.03368 7.54179 8.0474 7.5555 8.0474 7.56922C8.0474 7.67899 8.07484 7.7956 8.13659 7.8985C8.10228 7.87106 8.06111 7.84365 8.01995 7.83679C7.97879 7.82993 7.93077 7.83677 7.89647 7.86421C7.86217 7.89165 7.84159 7.9191 7.82787 7.9534C7.81414 7.93968 7.80043 7.91226 7.78671 7.89168C7.73868 7.79564 7.70438 7.68586 7.7181 7.57609C7.73182 7.54179 7.7524 7.49378 7.78671 7.45948Z" fill="white"/>
<path d="M9.94765 7.78874C10.0231 7.7613 10.1054 7.7476 10.1809 7.76819C10.2632 7.78877 10.3318 7.83675 10.3799 7.89849C10.4279 7.95337 10.4553 8.022 10.469 8.09747C10.2838 8.17979 10.0849 8.26895 9.93394 8.41301C9.76929 8.5708 9.67325 8.78348 9.57035 8.98929C9.57035 8.94813 9.56349 8.90011 9.54977 8.85895C9.61151 8.74918 9.63209 8.61886 9.61837 8.49537C9.61151 8.41991 9.59092 8.34445 9.5429 8.28271C9.52232 8.25526 9.49488 8.22779 9.46058 8.20721C9.46058 8.20035 9.46745 8.19351 9.46745 8.18665C9.53605 8.09747 9.6115 8.01516 9.69383 7.93969C9.76929 7.87109 9.85161 7.81619 9.94765 7.78874Z" fill="white"/>
<path d="M9.17253 7.77503C9.20683 7.76131 9.25486 7.76132 9.28916 7.78876C9.33718 7.82306 9.37148 7.88479 9.39206 7.94654C9.4195 8.022 9.4195 8.11121 9.41264 8.19354C9.35776 8.18668 9.30974 8.20722 9.26858 8.24152C9.23428 8.26896 9.21369 8.31014 9.19311 8.34444C9.15881 8.27584 9.10393 8.20726 9.02847 8.19354C9.02161 8.09063 9.02847 7.98087 9.07649 7.89168C9.09707 7.84366 9.12451 7.80247 9.17253 7.77503Z" fill="white"/>
<path d="M8.36299 7.82303C8.39729 7.80245 8.44533 7.79558 8.47963 7.81617C8.53451 7.84361 8.56881 7.8985 8.58939 7.96025C8.63056 8.07687 8.63054 8.2072 8.59624 8.33069C8.5688 8.29638 8.5345 8.25522 8.49334 8.2415C8.43846 8.22092 8.37671 8.2278 8.33555 8.2621C8.30124 8.28954 8.28067 8.31699 8.25323 8.35129C8.21892 8.2278 8.21893 8.1043 8.26009 7.98767C8.27381 7.91907 8.30811 7.85733 8.36299 7.82303Z" fill="white"/>
<path d="M7.91024 7.92595C7.93768 7.89165 7.98572 7.87107 8.03374 7.88479C8.10235 7.90537 8.15035 7.96026 8.18465 8.022C8.19837 8.03573 8.18465 8.05628 8.18465 8.07686C8.17093 8.17976 8.1778 8.28953 8.21896 8.38558C8.23268 8.40616 8.21211 8.41989 8.20525 8.44047C8.16409 8.37873 8.10233 8.31698 8.02001 8.30326C7.97199 8.2964 7.91712 8.31698 7.88282 8.35128C7.85538 8.28268 7.8485 8.20721 7.8485 8.13175C7.8485 8.06315 7.86222 7.98083 7.91024 7.92595Z" fill="white"/>
<path d="M6.87432 8.21439C6.97722 8.16637 7.09384 8.13895 7.2036 8.15267C7.33395 8.17325 7.44372 8.24869 7.5329 8.33787C7.60836 8.41334 7.6701 8.48879 7.71812 8.58483C7.61522 8.57797 7.51918 8.55743 7.42313 8.53685C7.34081 8.52313 7.2585 8.50252 7.17617 8.50938C7.05955 8.51624 6.95663 8.57112 6.86059 8.63286C6.81256 8.66716 6.75769 8.70148 6.71653 8.73578C6.59304 8.83868 6.50386 8.98276 6.43525 9.12682C6.34607 9.31205 6.28432 9.51785 6.21572 9.71679C6.19514 9.77168 6.18143 9.82655 6.14713 9.87457C6.14027 9.88143 6.1334 9.88143 6.1334 9.87457C6.10596 9.81283 6.10597 9.74424 6.09911 9.67563C6.09911 9.56587 6.11282 9.44925 6.1334 9.33949C6.1677 9.15426 6.22946 8.96901 6.31864 8.80437C6.40782 8.63972 6.52445 8.48883 6.66165 8.36534C6.71654 8.3036 6.792 8.24869 6.87432 8.21439Z" fill="white"/>
<path d="M10.3182 8.24867C10.3799 8.22123 10.4416 8.19379 10.5034 8.16635C10.572 8.37902 10.62 8.58482 10.6475 8.80435C10.6749 9.01016 10.6818 9.21599 10.6475 9.42179C10.6337 9.50412 10.6131 9.59329 10.5651 9.66875C10.5445 9.62073 10.5377 9.56587 10.524 9.51785C10.4828 9.29832 10.4417 9.07879 10.3662 8.87298C10.3319 8.77694 10.2907 8.68087 10.2358 8.59169C10.1878 8.52308 10.1329 8.45451 10.0643 8.40649C10.1398 8.34474 10.229 8.29669 10.3182 8.24867Z" fill="white"/>
<path d="M8.93919 8.25555C8.9735 8.23497 9.02153 8.23497 9.05583 8.25555C9.11071 8.28299 9.13815 8.33788 9.15873 8.39276C9.16559 8.39962 9.15873 8.41333 9.15873 8.42705C9.12443 8.53682 9.12443 8.6603 9.14502 8.77007C9.11757 8.71519 9.09013 8.66716 9.03525 8.63972C8.98723 8.61228 8.92548 8.60541 8.87745 8.63285C8.85001 8.64658 8.82258 8.66717 8.802 8.69462C8.78828 8.59171 8.79513 8.48194 8.83629 8.38589C8.86374 8.33101 8.89117 8.28299 8.93919 8.25555Z" fill="white"/>
<path d="M9.30969 8.26239C9.34399 8.23495 9.38516 8.22808 9.42633 8.24866C9.47435 8.26924 9.50864 8.31728 9.52923 8.35844C9.55667 8.42019 9.57039 8.49564 9.57039 8.56424C9.57039 8.64657 9.55667 8.72887 9.52923 8.80434C9.50178 8.75632 9.47434 8.7083 9.41946 8.68086C9.37144 8.65342 9.31655 8.65342 9.26853 8.68086C9.24109 8.69458 9.21364 8.72204 9.19306 8.74262C9.17248 8.64657 9.17248 8.53681 9.19992 8.44076C9.22051 8.37216 9.25481 8.30355 9.30969 8.26239Z" fill="white"/>
<path d="M8.34236 8.30359C8.36981 8.27615 8.41097 8.26244 8.45213 8.2693C8.50015 8.28302 8.54132 8.32415 8.5619 8.37218C8.60992 8.46136 8.62365 8.57113 8.60993 8.67403C8.60307 8.71519 8.5962 8.75639 8.58248 8.79755C8.5276 8.79069 8.46585 8.8181 8.42468 8.8524C8.39038 8.87984 8.36295 8.91416 8.34236 8.94846C8.32864 8.9416 8.31493 8.92788 8.30807 8.9073C8.29435 8.87986 8.2669 8.85241 8.25318 8.81811C8.21202 8.70835 8.21202 8.58486 8.23946 8.4751C8.26005 8.42021 8.28748 8.35161 8.34236 8.30359Z" fill="white"/>
<path d="M7.92389 8.37905C7.95819 8.35161 7.99936 8.34477 8.03366 8.35849C8.0954 8.38593 8.14342 8.43396 8.17772 8.4957C8.18458 8.50256 8.18458 8.51627 8.17772 8.52313C8.164 8.61917 8.16399 8.7152 8.19143 8.80438C8.16399 8.79066 8.12284 8.78383 8.0954 8.79069C8.04052 8.80441 7.99249 8.84555 7.96505 8.89357C7.94447 8.85927 7.91703 8.83183 7.88273 8.81125C7.87587 8.80439 7.869 8.79755 7.869 8.79069C7.84156 8.69465 7.82784 8.59175 7.85528 8.4957C7.86901 8.44768 7.88959 8.40649 7.92389 8.37905Z" fill="white"/>
<path d="M7.25163 8.57809C7.3271 8.58495 7.40255 8.60553 7.47801 8.61925C7.56034 8.63298 7.64267 8.64669 7.72499 8.65355C7.73185 8.65355 7.73871 8.66042 7.73871 8.66728C7.75929 8.69472 7.77987 8.72216 7.80045 8.7496C7.80731 8.76332 7.81418 8.77017 7.81418 8.78389C7.75244 8.77703 7.69068 8.80446 7.64952 8.85248C7.58092 8.9348 7.55348 9.05143 7.54662 9.15433C7.49174 8.94853 7.3957 8.7496 7.25163 8.57809Z" fill="white"/>
<path d="M8.83631 8.729C8.86375 8.6947 8.89806 8.66728 8.93236 8.66042C8.97353 8.65356 9.00781 8.67414 9.04211 8.70158C9.08327 8.73588 9.10387 8.79077 9.12445 8.83879C9.13131 8.85251 9.12444 8.86623 9.11758 8.87995C9.08328 8.98286 9.07642 9.0926 9.097 9.20236C9.05584 9.17492 9.00782 9.16122 8.96666 9.17494C8.91178 9.18866 8.86375 9.2298 8.83631 9.27782C8.82945 9.28468 8.8226 9.27095 8.8226 9.27095C8.76772 9.17491 8.75398 9.0583 8.7677 8.94167C8.7677 8.86621 8.78829 8.79075 8.83631 8.729Z" fill="white"/>
<path d="M9.21367 8.78392C9.24111 8.74276 9.28913 8.7016 9.34402 8.7016C9.39204 8.7016 9.42634 8.72902 9.45378 8.76332C9.49494 8.8182 9.51553 8.87996 9.52239 8.94856C9.53611 9.02402 9.52926 9.11319 9.50868 9.18865C9.46752 9.16807 9.40576 9.16125 9.3646 9.18183C9.28913 9.21613 9.24798 9.2847 9.22054 9.36016C9.19996 9.33272 9.18623 9.30528 9.17251 9.27784C9.14507 9.2161 9.13822 9.15438 9.13822 9.08577C9.13136 8.97601 9.15193 8.8731 9.21367 8.78392Z" fill="white"/>
<path d="M7.72494 8.86627C7.75238 8.83883 7.79354 8.83198 7.8347 8.83884C7.88272 8.85256 7.91702 8.89368 7.9376 8.92799C7.95132 8.94171 7.9376 8.95547 7.93073 8.96919C7.88957 9.08581 7.88272 9.21614 7.91702 9.33276C7.91702 9.33962 7.91015 9.3465 7.91015 9.3465C7.86899 9.31219 7.81411 9.28474 7.75923 9.2916C7.71121 9.29846 7.67006 9.32589 7.64262 9.36705C7.60831 9.25729 7.60144 9.14066 7.62888 9.02404C7.6426 8.96916 7.67005 8.90743 7.72494 8.86627Z" fill="white"/>
<path d="M8.0954 8.83882C8.13656 8.8251 8.18457 8.83881 8.21201 8.86625C8.26003 8.90741 8.28749 8.96914 8.30807 9.02402C8.28063 9.09262 8.26004 9.16809 8.26004 9.24355C8.22574 9.20925 8.19143 9.17496 8.14341 9.1681C8.08852 9.15438 8.03364 9.17496 7.99248 9.20926C7.9719 9.22984 7.95819 9.24357 7.94447 9.26415C7.93075 9.16125 7.9376 9.05834 7.97877 8.9623C8.00621 8.91428 8.04052 8.8594 8.0954 8.83882Z" fill="white"/>
<path d="M8.49327 8.8663C8.52758 8.84572 8.57561 8.83884 8.60991 8.85256C8.64421 8.86628 8.67165 8.90059 8.69223 8.94175C8.70595 8.96919 8.71281 8.99663 8.71281 9.02407C8.71281 9.06523 8.71968 9.09956 8.71968 9.14072C8.71282 9.20247 8.69908 9.27104 8.67849 9.32592C8.66477 9.3122 8.65107 9.29849 8.63049 9.29163C8.58247 9.26419 8.52072 9.26418 8.47269 9.28476C8.41095 9.3122 8.36978 9.36023 8.33548 9.41511C8.32862 9.38767 8.31491 9.35336 8.30119 9.32592C8.29433 9.23674 8.31491 9.14069 8.34921 9.05836C8.38352 8.97604 8.42467 8.90746 8.49327 8.8663Z" fill="white"/>
<path d="M6.87431 9.04468C7.01151 9.04468 7.15557 9.07213 7.27906 9.14073C7.36824 9.18875 7.4437 9.25046 7.51231 9.31906C7.52603 9.33278 7.53974 9.34651 7.5466 9.36709C7.55346 9.40139 7.56719 9.43572 7.57405 9.47688C7.53288 9.58664 7.52603 9.71013 7.55347 9.82676C7.51917 9.84734 7.49173 9.87477 7.47115 9.90221C7.38882 9.71012 7.29963 9.51117 7.18301 9.33966C7.09382 9.22304 6.99779 9.12014 6.87431 9.04468Z" fill="white"/>
<path d="M6.73025 9.05154C6.74397 9.05154 6.75084 9.05838 6.76456 9.06524C6.92921 9.1407 7.05269 9.27106 7.14874 9.42198C7.1556 9.42884 7.1556 9.43568 7.14874 9.44254C7.08013 9.52487 7.00467 9.59348 6.9292 9.66894C6.79886 9.79929 6.70966 9.9708 6.64106 10.1423C6.55188 10.3756 6.50386 10.6157 6.45584 10.8558C6.43526 10.9724 6.42154 11.089 6.3941 11.2056C6.3941 11.2125 6.39409 11.2194 6.38723 11.2262C6.36665 11.1714 6.36667 11.1096 6.35981 11.0547C6.35295 10.9038 6.35979 10.7529 6.36665 10.6019C6.3941 10.2315 6.45585 9.8679 6.54503 9.5043C6.57247 9.38082 6.59991 9.25736 6.6548 9.14073C6.66852 9.11329 6.68909 9.07899 6.73025 9.05154Z" fill="white"/>
<path d="M8.04737 9.22993C8.08168 9.20935 8.12284 9.20252 8.15714 9.2231C8.20516 9.24368 8.23947 9.29169 8.26691 9.33972C8.28749 9.38088 8.29435 9.42203 8.30807 9.4632C8.25319 9.57296 8.22575 9.70333 8.24633 9.82681C8.25319 9.84053 8.23947 9.85424 8.22575 9.85424C8.19831 9.79935 8.164 9.74446 8.10911 9.71702C8.06109 9.68958 7.9925 9.68958 7.94447 9.71702C7.91703 9.6004 7.91703 9.4769 7.95819 9.36027C7.97191 9.31225 7.99935 9.26423 8.04737 9.22993Z" fill="white"/>
<path d="M8.87746 9.2848C8.9049 9.2505 8.9392 9.21621 8.98723 9.20935C9.02153 9.20935 9.06268 9.22993 9.09013 9.25051C9.13129 9.29167 9.15872 9.34653 9.17245 9.40142C9.17931 9.42886 9.18617 9.44947 9.17931 9.47691C9.16559 9.53865 9.16559 9.6141 9.17931 9.67584C9.17931 9.68956 9.17931 9.70328 9.17245 9.71014C9.10384 9.73758 9.04897 9.79248 9.00781 9.85422C8.99408 9.8748 8.98723 9.89536 8.97351 9.91594C8.92549 9.90908 8.89119 9.86792 8.86375 9.83362C8.802 9.73757 8.78828 9.62097 8.79514 9.5112C8.80886 9.43574 8.82944 9.35341 8.87746 9.2848Z" fill="white"/>
<path d="M9.39198 9.21622C9.42628 9.2025 9.46744 9.20933 9.49488 9.22991C9.53604 9.26422 9.56349 9.31225 9.58407 9.36713C9.62523 9.48375 9.61837 9.62099 9.58407 9.73761C9.56349 9.79935 9.52919 9.86108 9.4743 9.89538C9.44686 9.91596 9.4057 9.92966 9.36454 9.91594C9.31651 9.90222 9.28222 9.85422 9.26164 9.81306C9.21361 9.71702 9.20676 9.60038 9.22048 9.49748C9.2342 9.41515 9.26165 9.33968 9.31653 9.27107C9.33711 9.24363 9.36454 9.22994 9.39198 9.21622Z" fill="white"/>
<path d="M8.45905 9.33973C8.49335 9.31229 8.54137 9.29858 8.58253 9.3123C8.63055 9.33288 8.66484 9.38089 8.67856 9.42891C8.71286 9.5181 8.706 9.62098 8.67856 9.71017C8.65798 9.79249 8.6237 9.86796 8.56882 9.9297C8.54823 9.87482 8.51392 9.81306 8.45218 9.78562C8.3973 9.75818 8.3287 9.77192 8.28067 9.80622C8.26695 9.71704 8.28753 9.62098 8.31497 9.53866C8.34927 9.4632 8.39045 9.38775 8.45905 9.33973Z" fill="white"/>
<path d="M7.69752 9.37403C7.72496 9.34659 7.77298 9.33288 7.80729 9.3466C7.84159 9.35346 7.86218 9.38087 7.88276 9.40145C7.86218 9.50436 7.86218 9.60727 7.88276 9.71018C7.88276 9.7239 7.88961 9.73761 7.88961 9.75134C7.84158 9.79936 7.81415 9.86111 7.79357 9.92971C7.76613 9.89541 7.74555 9.8611 7.71125 9.84052C7.67695 9.81308 7.63577 9.80624 7.58775 9.8131C7.56717 9.71705 7.57405 9.61416 7.60149 9.52498C7.62207 9.46323 7.6495 9.40833 7.69752 9.37403Z" fill="white"/>
<path d="M9.65273 9.68969C9.7625 9.64167 9.87225 9.6005 9.98888 9.6005C10.0781 9.59364 10.1741 9.61421 10.2427 9.67596C10.3113 9.7377 10.3319 9.82687 10.3388 9.91605C10.1192 9.95035 9.8997 10.0327 9.71447 10.1767C9.72819 10.0944 9.72133 10.0121 9.69389 9.92978C9.68017 9.88862 9.64587 9.84748 9.61157 9.82004C9.62529 9.78574 9.64587 9.74455 9.65273 9.71025C9.64587 9.70339 9.64587 9.68969 9.65273 9.68969Z" fill="white"/>
<path d="M7.95825 9.76517C7.99255 9.73773 8.04742 9.74459 8.08173 9.76517C8.12975 9.79947 8.15718 9.8475 8.18463 9.90238C8.19149 9.90924 8.17778 9.91608 8.17778 9.92294C8.10232 10.0396 8.06801 10.1974 8.08859 10.3415C8.06115 10.3552 8.0337 10.3757 8.01312 10.4032C7.98568 10.3414 7.93081 10.2797 7.85535 10.2728C7.82104 10.1562 7.82105 10.0327 7.86221 9.91608C7.87593 9.85433 7.91022 9.79947 7.95825 9.76517Z" fill="white"/>
<path d="M9.05591 9.87491C9.09021 9.82689 9.13822 9.77888 9.1931 9.7583C9.21369 9.8269 9.24799 9.89551 9.30287 9.93667C9.22741 10.0533 9.19312 10.2042 9.20684 10.3414C9.20684 10.362 9.21368 10.3826 9.21368 10.4032C9.17938 10.4306 9.13137 10.4512 9.0902 10.4443C9.04904 10.4375 9.01474 10.4032 9.00102 10.362C8.96672 10.3003 8.95986 10.2248 8.96672 10.1562C8.97358 10.0533 9.00103 9.95724 9.05591 9.87491Z" fill="white"/>
<path d="M8.32872 9.83376C8.36303 9.81318 8.41104 9.81318 8.44534 9.83376C8.4865 9.85435 8.50709 9.89552 8.52081 9.93669C8.55511 10.0327 8.54139 10.1425 8.52081 10.2385C8.50023 10.3071 8.47278 10.3689 8.42476 10.4238C8.39732 10.4444 8.38359 10.4718 8.35615 10.4855C8.33557 10.4238 8.30127 10.3552 8.23267 10.3277C8.20523 10.314 8.16407 10.314 8.12977 10.314C8.11605 10.1974 8.14349 10.0807 8.19838 9.97785C8.22582 9.92296 8.26698 9.86807 8.32872 9.83376Z" fill="white"/>
<path d="M7.49859 9.93667C7.52603 9.90237 7.55348 9.86807 7.59464 9.85435C7.62894 9.84749 7.66325 9.85433 7.6907 9.87491C7.73186 9.90235 7.75928 9.94354 7.77986 9.9847C7.78672 9.99842 7.78673 10.0053 7.78673 10.019C7.77987 10.1013 7.78673 10.1836 7.80731 10.2591C7.74557 10.2728 7.70441 10.314 7.66325 10.362C7.62209 10.4169 7.59464 10.4786 7.57406 10.5472C7.53976 10.5267 7.50546 10.4924 7.48487 10.4512C7.43685 10.3689 7.42314 10.266 7.43 10.1699C7.43686 10.0876 7.45057 10.0053 7.49859 9.93667Z" fill="white"/>
<path d="M9.57728 9.8544C9.6253 9.8887 9.65274 9.95042 9.6596 10.0053C9.68018 10.1082 9.65959 10.2249 9.62529 10.3209C9.59785 10.3895 9.55668 10.4581 9.49494 10.5061C9.46064 10.5336 9.41262 10.5473 9.37146 10.5336C9.32344 10.513 9.28915 10.465 9.27543 10.4101C9.25485 10.3346 9.25484 10.2523 9.26856 10.1768C9.28228 10.1014 9.30972 10.0259 9.35088 9.96415C9.38518 9.97787 9.42635 9.97787 9.46065 9.96415C9.50867 9.94357 9.54984 9.90242 9.57728 9.8544Z" fill="white"/>
<path d="M8.69225 10.0671C8.71969 9.9916 8.76084 9.91616 8.82944 9.86813C8.85689 9.9093 8.90492 9.95043 8.95295 9.96415C8.91178 10.0739 8.89806 10.1974 8.9255 10.3072C8.91178 10.3209 8.89807 10.3278 8.89121 10.3346C8.82946 10.3826 8.7883 10.4512 8.76086 10.5267C8.70598 10.4993 8.67853 10.4444 8.6648 10.3827C8.64422 10.2866 8.65795 10.17 8.69225 10.0671Z" fill="white"/>
<path d="M9.83112 10.1768C9.98891 10.0808 10.1673 10.0122 10.3456 9.98477C10.3868 10.3003 10.3937 10.6296 10.3251 10.9384C10.2976 11.0687 10.2565 11.199 10.1879 11.3225C10.1535 11.3843 10.1124 11.4391 10.0575 11.4803C10.0575 11.4186 10.0712 11.3637 10.085 11.3019C10.1124 11.1304 10.1261 10.9589 10.0987 10.7874C10.0712 10.6022 9.99577 10.4238 9.89286 10.266C9.87228 10.2317 9.84484 10.2111 9.83112 10.1768Z" fill="white"/>
<path d="M7.73869 10.3553C7.76613 10.3347 7.80042 10.3072 7.84159 10.3141C7.88275 10.3141 7.92393 10.3416 7.94451 10.3759C7.95823 10.3964 7.97194 10.417 7.9788 10.4444C7.97194 10.4582 7.96508 10.465 7.95822 10.4787C7.9102 10.5748 7.88961 10.6777 7.88961 10.7875C7.88961 10.8286 7.89649 10.8698 7.90335 10.9109C7.88277 10.9315 7.86905 10.9521 7.86219 10.9796C7.85533 10.9864 7.85531 11.0001 7.84159 11.0001C7.81415 11.0207 7.77299 11.0276 7.73869 11.0139C7.6838 10.9933 7.64951 10.9384 7.63579 10.8904C7.59462 10.7806 7.60148 10.664 7.63579 10.5542C7.64951 10.4788 7.6838 10.4033 7.73869 10.3553Z" fill="white"/>
<path d="M8.12282 10.3759C8.16398 10.3553 8.21201 10.369 8.24632 10.3964C8.29434 10.4376 8.31492 10.4993 8.32864 10.5611C8.27375 10.664 8.23945 10.7806 8.23945 10.8973C8.23259 10.911 8.21886 10.9247 8.212 10.9316C8.1777 10.8904 8.13655 10.8424 8.07481 10.8286C8.02679 10.8149 7.97876 10.8355 7.9376 10.8629C7.91701 10.7463 7.9376 10.6228 7.98562 10.5199C8.01306 10.4582 8.05421 10.3965 8.12282 10.3759Z" fill="white"/>
<path d="M8.87749 10.4239C8.89807 10.4033 8.91866 10.3759 8.9461 10.3553C8.96668 10.417 9.01471 10.4719 9.08331 10.4925C9.02157 10.5954 8.98726 10.712 8.98726 10.8286C8.98726 10.8835 8.99412 10.9384 9.00784 10.9933C8.97354 11.0139 8.93923 11.0345 8.89807 11.0276C8.85691 11.0139 8.82262 10.9796 8.80204 10.9384C8.76774 10.8698 8.76086 10.7875 8.76772 10.712C8.78144 10.6091 8.81575 10.5062 8.87749 10.4239Z" fill="white"/>
<path d="M8.3904 10.5405C8.43156 10.4788 8.49331 10.417 8.56877 10.3965C8.45901 10.5131 8.41098 10.6777 8.41098 10.8287C8.36982 10.8149 8.3218 10.8287 8.2875 10.8493C8.2875 10.7464 8.3218 10.6366 8.3904 10.5405Z" fill="white"/>
<path d="M8.60994 10.4239C8.6168 10.4171 8.62366 10.4102 8.63052 10.4171C8.6511 10.4788 8.68539 10.5474 8.754 10.5748C8.73342 10.6503 8.71969 10.7326 8.72655 10.8149C8.63737 10.8629 8.5825 10.9521 8.5482 11.0482C8.50704 11.0207 8.48644 10.9659 8.47272 10.9178C8.45214 10.8149 8.46586 10.712 8.4933 10.6091C8.52074 10.5405 8.55506 10.4719 8.60994 10.4239Z" fill="white"/>
<path d="M9.13819 10.4925C9.17249 10.4857 9.20681 10.4719 9.23425 10.4514C9.25483 10.5062 9.29598 10.5543 9.35086 10.5748C9.3783 10.5886 9.41261 10.5886 9.44005 10.5817C9.45377 10.664 9.44005 10.7463 9.41947 10.8218C9.39889 10.8973 9.35771 10.9727 9.30283 11.0345C9.26853 11.0688 9.22051 11.0962 9.17249 11.0962C9.12446 11.0962 9.09017 11.0619 9.06959 11.0208C9.02842 10.9453 9.02157 10.8561 9.02843 10.7806C9.04901 10.6709 9.08331 10.5748 9.13819 10.4925Z" fill="white"/>
<path d="M8.72655 10.863C8.74028 10.9385 8.77459 11.014 8.84319 11.0551C8.79517 11.1375 8.76773 11.2267 8.76087 11.3227C8.75401 11.3844 8.76086 11.4462 8.77458 11.5079C8.76772 11.5216 8.74714 11.5216 8.73342 11.5285C8.69226 11.5422 8.64424 11.5353 8.60994 11.501C8.56192 11.453 8.5482 11.3844 8.54133 11.3158C8.53447 11.2061 8.56191 11.0894 8.61679 10.9865C8.64423 10.9454 8.67853 10.8973 8.72655 10.863Z" fill="white"/>
<path d="M8.28064 10.918C8.31494 10.8837 8.36297 10.8631 8.41099 10.8905C8.42471 10.966 8.45215 11.0552 8.52076 11.0963C8.48645 11.213 8.47958 11.3433 8.5276 11.4599C8.51388 11.5011 8.48645 11.5354 8.45215 11.5628C8.41785 11.5903 8.36982 11.5971 8.33551 11.5766C8.28749 11.556 8.25321 11.508 8.22577 11.4531C8.17775 11.3502 8.17087 11.2335 8.19145 11.1238C8.19832 11.0483 8.22576 10.9728 8.28064 10.918Z" fill="white"/>
<path d="M8.00623 10.8836C8.04739 10.8699 8.09541 10.8836 8.12971 10.9179C8.15029 10.9385 8.17086 10.9591 8.18458 10.9865C8.1297 11.1237 8.12284 11.2815 8.164 11.4187C8.17086 11.4393 8.18459 11.4599 8.19145 11.4874C8.17087 11.5217 8.14343 11.5628 8.10226 11.5834C8.06796 11.5971 8.0268 11.5903 7.9925 11.5697C7.93762 11.5354 7.91018 11.4736 7.8896 11.4187C7.84844 11.2952 7.84844 11.1512 7.8896 11.0277C7.90332 10.966 7.94449 10.9042 8.00623 10.8836Z" fill="white"/>
<path d="M8.89125 11.0689C8.93927 11.0689 8.99414 11.0552 9.0353 11.0278C9.05589 11.0689 9.09704 11.1101 9.1382 11.1238C9.16565 11.1306 9.19995 11.1306 9.22739 11.1238C9.23425 11.213 9.22052 11.2953 9.19308 11.3845C9.16564 11.4531 9.13134 11.5217 9.0696 11.5697C9.04216 11.5972 9.00099 11.6177 8.95983 11.6177C8.91867 11.6177 8.88438 11.5903 8.8638 11.556C8.8295 11.5011 8.82263 11.4394 8.81577 11.3776C8.80891 11.2747 8.83636 11.165 8.89125 11.0689Z" fill="white"/>
<path d="M8.40419 11.6316C8.47279 11.6178 8.52768 11.563 8.56198 11.5081C8.58256 11.5424 8.61686 11.563 8.65117 11.5767C8.67861 11.6522 8.69232 11.7345 8.68546 11.8168C8.6786 11.8991 8.65803 11.9815 8.61001 12.0501C8.58257 12.0844 8.5414 12.1187 8.50024 12.1187C8.45908 12.1187 8.42478 12.0981 8.39734 12.0706C8.34932 12.0158 8.32187 11.9472 8.30815 11.8786C8.29443 11.7894 8.29442 11.7002 8.315 11.6179C8.33558 11.6247 8.36988 11.6384 8.40419 11.6316Z" fill="white"/>
<path d="M8.09545 11.6247C8.14347 11.611 8.18462 11.5698 8.21206 11.5287C8.22578 11.5493 8.24637 11.5699 8.26009 11.5836C8.23265 11.6865 8.23264 11.7962 8.25322 11.8991C8.26694 11.9609 8.29439 12.0226 8.3287 12.0775C8.33556 12.0844 8.3287 12.0912 8.3287 12.0981C8.30125 12.1393 8.26694 12.1804 8.21206 12.1872C8.1709 12.1872 8.1366 12.1667 8.10229 12.1461C8.05427 12.1049 8.02684 12.0501 8.00626 11.9883C7.9651 11.8717 7.95138 11.7482 7.98568 11.6316C8.02684 11.6316 8.06801 11.6385 8.09545 11.6247Z" fill="white"/>
<path d="M8.70603 11.5836C8.74033 11.5836 8.77464 11.5698 8.80208 11.5492C8.82953 11.6041 8.87068 11.6522 8.92556 11.6659C8.95301 11.6727 8.98044 11.6659 9.00788 11.6659C9.01474 11.7413 9.00788 11.8168 8.98044 11.8922C8.953 11.9746 8.9187 12.05 8.85696 12.1049C8.82266 12.1392 8.7815 12.1667 8.73348 12.1735C8.68546 12.1804 8.64429 12.1461 8.62371 12.1049C8.67173 12.0569 8.69918 12.002 8.7129 11.9403C8.74034 11.8236 8.74033 11.7002 8.70603 11.5836Z" fill="white"/>
<path d="M8.37667 12.1188C8.41097 12.1462 8.45212 12.1668 8.49328 12.1668C8.52758 12.1668 8.56189 12.1531 8.58934 12.1394C8.61678 12.1805 8.65793 12.2148 8.71282 12.2217C8.7334 12.2903 8.74026 12.3589 8.74026 12.4275C8.74026 12.503 8.72652 12.5784 8.69908 12.6539C8.6785 12.7019 8.65108 12.7431 8.60992 12.7774C8.57561 12.8048 8.52072 12.8185 8.4727 12.8048C8.4041 12.7842 8.34921 12.7293 8.31491 12.6745C8.24631 12.5716 8.21202 12.4412 8.20516 12.3177C8.20516 12.2903 8.20516 12.2628 8.20516 12.2354C8.27376 12.2354 8.34237 12.1805 8.37667 12.1188Z" fill="white"/>
</svg>
