<svg width="30" height="30" viewBox="0 0 30 30" fill="none" xmlns="http://www.w3.org/2000/svg">
<path d="M6.10352e-05 14.9936C6.10352e-05 21.0457 3.58881 26.2608 8.74892 28.6281V1.3591C3.58195 3.7333 6.10352e-05 8.94144 6.10352e-05 14.9936Z" fill="#DC171C"/>
<path d="M30 14.9936C30 8.94144 26.4112 3.7333 21.2511 1.3591V28.6281C26.4112 26.2608 30 21.0526 30 14.9936Z" fill="#DC171C"/>
<path d="M15.0005 0.000427246C12.7704 0.000427246 10.6501 0.487612 8.74933 1.36593V28.6349C10.6501 29.5064 12.7635 30.0004 15.0005 30.0004C17.2306 30.0004 19.344 29.5064 21.2516 28.6349V1.36593C19.344 0.487612 17.2306 0.000427246 15.0005 0.000427246Z" fill="#47AECF"/>
<path d="M4.61114 12.1459C3.89751 12.1459 3.28684 11.7135 3.01923 11.1028C3.01923 11.1097 3.01923 11.1234 3.01923 11.1303C3.01923 12.0086 3.73282 12.7222 4.61114 12.7222C5.48946 12.7222 6.20314 12.0086 6.20314 11.1303C6.20314 11.1166 6.20314 11.1097 6.20314 11.1028C5.93552 11.7204 5.32477 12.1459 4.61114 12.1459Z" fill="#FBEA0F"/>
<path d="M3.91779 8.66693C3.91779 9.0512 4.22658 9.35999 4.61084 9.35999C4.9951 9.35999 5.30389 9.0512 5.30389 8.66693C5.30389 8.39246 5.13235 8.35817 5.13235 8.25524C5.13235 8.15231 5.23526 8.00818 5.0294 7.83663C5.13233 8.00818 4.9608 8.09052 4.9608 8.26206C4.9608 8.43361 5.0294 8.39245 5.0294 8.52969C5.0294 8.60517 4.96768 8.66693 4.8922 8.66693C4.81672 8.66693 4.755 8.60517 4.755 8.52969C4.755 8.39245 4.8236 8.2552 4.8236 8.04935C4.8236 7.83663 4.83045 7.85037 4.72752 7.67882C4.62459 7.50042 4.61091 7.47297 4.67952 7.16418C4.47367 7.2328 4.53537 7.56905 4.53537 7.7406C4.53537 7.91214 4.37069 7.94644 4.37069 8.15229C4.37069 8.35815 4.47364 8.39246 4.47364 8.53656C4.47364 8.61204 4.41191 8.6738 4.33643 8.6738C4.26095 8.6738 4.19915 8.61204 4.19915 8.53656C4.19915 8.39932 4.26775 8.44048 4.26775 8.26893C4.26775 8.09739 4.09622 8.01505 4.19915 7.8435C3.99329 8.01505 4.0962 8.15914 4.0962 8.26206C4.0962 8.35813 3.91779 8.39246 3.91779 8.66693Z" fill="#FBEA0F"/>
<path d="M4.61088 9.6413C5.22159 9.6413 5.7225 10.1353 5.7225 10.7529C5.7225 11.3636 5.22159 11.8645 4.61088 11.8645C4.00018 11.8645 3.49927 11.3705 3.49927 10.7529C3.49927 10.1353 4.00018 9.6413 4.61088 9.6413Z" fill="#FBEA0F"/>
<path d="M2.95031 12.9693H1.72888V19.6253H2.95031V12.9693Z" fill="#FBEA0F"/>
<path d="M7.50012 12.9693H6.27869V19.6253H7.50012V12.9693Z" fill="#FBEA0F"/>
<path d="M3.27966 12.9693L4.61082 13.8065L5.94207 12.9693H3.27966Z" fill="#FBEA0F"/>
<path d="M5.94207 14.0809H3.27966V14.6367H5.94207V14.0809Z" fill="#FBEA0F"/>
<path d="M5.94207 17.9647H3.27966V18.5137H5.94207V17.9647Z" fill="#FBEA0F"/>
<path d="M3.27966 18.795L4.61082 19.6322L5.94207 18.795H3.27966Z" fill="#FBEA0F"/>
<path d="M5.05717 15.0142C5.23558 15.1446 5.35913 15.3573 5.35913 15.5906C5.35913 15.9817 5.04348 16.2974 4.65921 16.2974C4.27495 16.2974 3.95929 16.613 3.95929 17.0041C3.95929 17.2443 4.07598 17.457 4.25439 17.5805C4.38476 17.6217 4.51511 17.6423 4.65921 17.6423C5.39343 17.6423 5.99037 17.0384 5.99037 16.2905C5.98351 15.7004 5.59926 15.1857 5.05717 15.0142ZM4.61113 17.2855C4.46017 17.2855 4.34351 17.1688 4.34351 17.0178C4.34351 16.8669 4.46017 16.7502 4.61113 16.7502C4.76209 16.7502 4.87875 16.8669 4.87875 17.0178C4.87875 17.1619 4.76209 17.2855 4.61113 17.2855Z" fill="#FBEA0F"/>
<path d="M4.96806 14.9729C4.83769 14.9318 4.70734 14.9112 4.56324 14.9112C3.82902 14.9112 3.23199 15.515 3.23199 16.2561C3.23199 16.8599 3.62319 17.3677 4.15841 17.5393C3.98 17.4089 3.86332 17.203 3.86332 16.9629C3.86332 16.5717 4.17211 16.2561 4.55637 16.2561C4.94063 16.2561 5.25629 15.9404 5.25629 15.5493C5.27001 15.3091 5.15333 15.0965 4.96806 14.9729ZM4.61123 15.8512C4.46027 15.8512 4.34361 15.7278 4.34361 15.5837C4.34361 15.4327 4.46027 15.316 4.61123 15.316C4.76219 15.316 4.87886 15.4327 4.87886 15.5837C4.87886 15.7346 4.76219 15.8512 4.61123 15.8512Z" fill="#FBEA0F"/>
</svg>
