<svg width="30" height="30" viewBox="0 0 30 30" fill="none" xmlns="http://www.w3.org/2000/svg">
<path d="M30 15.0003C30 23.2825 23.2823 30.0003 15 30.0003C6.71774 30.0003 0 23.2825 0 15.0003C0 6.71803 6.71774 0.000244141 15 0.000244141C23.2823 0.000244141 30 6.71117 30 15.0003Z" fill="#00785E"/>
<path d="M14.9997 6.9993L15.3428 8.04231H16.4476L15.5486 8.68733L15.8917 9.72348L14.9929 9.07846L14.1008 9.72348L14.4439 8.68733L13.5519 8.04231H14.6566L14.9997 6.9993Z" fill="#FBD116"/>
<path d="M8.33679 11.6448L9.00932 11.7888L9.35242 11.1987L9.42102 11.878L10.0935 12.0153L9.46215 12.2898L9.53083 12.9691L9.07106 12.4613L8.43974 12.7358L8.78283 12.1457L8.33679 11.6448Z" fill="#FBD116"/>
<path d="M10.6767 8.61868L11.1914 9.07159L11.7883 8.73536L11.507 9.35291L12.0216 9.80581L11.3354 9.73717L11.0542 10.3548L10.91 9.68913L10.2238 9.62053L10.8208 9.27744L10.6767 8.61868Z" fill="#FBD116"/>
<path d="M21.6557 11.6448L20.9833 11.7888L20.6333 11.1987L20.5647 11.878L19.8923 12.0153L20.5235 12.2898L20.4549 12.9691L20.9147 12.4613L21.5459 12.7358L21.2028 12.1457L21.6557 11.6448Z" fill="#FBD116"/>
<path d="M19.3157 8.61868L18.8079 9.07159L18.211 8.73536L18.4923 9.35291L17.9846 9.80581L18.6707 9.73717L18.9521 10.3548L19.0962 9.68913L19.7824 9.62053L19.1854 9.27744L19.3157 8.61868Z" fill="#FBD116"/>
<path d="M15 17.4293C14.3481 17.8822 13.6551 18.8566 12.0631 18.8566C9.81242 18.8566 8.97529 18.1979 8.3097 17.6969C8.28225 17.6215 8.8792 17.3539 8.8792 17.3539C9.78496 17.9851 10.7868 18.5409 12.6601 18.4586C10.3476 18.2527 8.78316 16.997 8.3097 15.8305C9.55855 14.9659 11.6308 14.9796 13.3325 16.1736C12.7973 15.5217 11.027 14.7944 9.70267 14.9934C9.51054 14.7944 9.34582 14.5542 9.15369 14.3552C10.677 14.019 12.7973 14.9865 13.5796 15.7756C12.7561 14.4787 12.1661 13.0034 13.1336 11.2125C13.3257 11.3909 13.5384 11.5693 13.7306 11.7477C13.0032 13.0652 13.2708 14.6022 13.854 15.6727C12.8316 13.5935 13.6551 11.5419 14.9931 10.54C16.3381 11.535 17.1546 13.5935 16.139 15.6727C16.7291 14.6022 16.9899 13.0652 16.2626 11.7477C16.4547 11.5693 16.6674 11.3909 16.8595 11.2125C17.8271 13.0034 17.2369 14.4719 16.4135 15.7756C17.1889 14.9797 19.3161 14.019 20.8394 14.3552C20.6473 14.5542 20.4826 14.7944 20.2973 14.9934C18.973 14.7875 17.1957 15.5149 16.6674 16.1736C18.3691 14.9796 20.4415 14.9659 21.6903 15.8305C21.2168 16.9902 19.6523 18.2527 17.3398 18.4586C19.2131 18.5409 20.215 17.9851 21.1207 17.3539C21.1207 17.3539 21.7178 17.6215 21.6903 17.6969C21.0247 18.1979 20.1876 18.8566 17.9369 18.8566C16.3381 18.8497 15.6519 17.8753 15 17.4293Z" fill="white"/>
<path d="M14.9998 17.8616C14.0666 18.637 13.4971 19.131 12.2551 19.131L8.51532 19.1241C8.61139 19.3025 8.71436 19.4741 8.82415 19.6456L12.3648 19.6525C14.0665 19.6525 14.9998 18.5752 14.9998 18.5752C14.9998 18.5752 15.933 19.6525 17.6347 19.6525L21.1755 19.6456C21.2853 19.4741 21.3882 19.3025 21.4842 19.1241L17.7446 19.131C16.4957 19.1241 15.933 18.637 14.9998 17.8616Z" fill="white"/>
<path d="M9.14679 20.1122C9.19482 20.174 9.24283 20.2358 9.29086 20.2975H20.709C20.757 20.2358 20.8051 20.174 20.8531 20.1122H9.14679Z" fill="white"/>
<path d="M9.77808 20.8328C9.90159 20.9631 10.0319 21.0798 10.1623 21.1964H19.8375C19.9679 21.0798 20.0983 20.9631 20.2218 20.8328H9.77808Z" fill="white"/>
<path d="M10.6082 21.5533C10.8758 21.7522 11.1572 21.9306 11.4522 22.0953H18.5337C18.8287 21.9375 19.1101 21.7522 19.3777 21.5533H10.6082Z" fill="white"/>
<path d="M11.8091 22.2737C12.7492 22.7198 13.7991 22.9805 14.9038 22.9942H15.096C16.2076 22.9805 17.2575 22.7198 18.1907 22.2737H11.8091Z" fill="white"/>
</svg>
