<svg width="30" height="30" viewBox="0 0 30 30" fill="none" xmlns="http://www.w3.org/2000/svg">
<path d="M30 15.0004C30 23.2827 23.2823 30.0004 15 30.0004C6.71774 30.0004 0 23.2827 0 15.0004C0 6.71817 6.71774 0.000427246 15 0.000427246C23.2823 0.000427246 30 6.71131 30 15.0004Z" fill="#1EB53A"/>
<path d="M15.0006 18.2735C10.362 18.2735 6.52619 14.8426 5.88804 10.3824C5.83314 10.7941 5.79883 11.2127 5.79883 11.6381C5.79883 16.7159 9.91596 20.8399 15.0006 20.8399C20.0852 20.8399 24.2023 16.7159 24.2023 11.6381C24.2023 11.2127 24.1749 10.7941 24.1131 10.3824C23.4681 14.8426 19.6392 18.2735 15.0006 18.2735Z" fill="#FCD116"/>
<path d="M15.0005 5.95654L15.7759 8.34445H18.2804L16.2493 9.81977L17.0247 12.2009L15.0005 10.7324L12.9693 12.2009L13.7447 9.81977L11.7137 8.34445H14.2251L15.0005 5.95654Z" fill="#FCD116"/>
</svg>
