<svg width="30" height="30" viewBox="0 0 30 30" fill="none" xmlns="http://www.w3.org/2000/svg">
<g clip-path="url(#clip0_1_15445)">
<path d="M45 0.0010376H-15V30.001H45V0.0010376Z" fill="#012169"/>
<path d="M-15 0.0010376L15 15.001L-15 0.0010376ZM15 0.0010376L-15 15.001L15 0.0010376Z" fill="black"/>
<path d="M-15 0.0010376L15 15.001M15 0.0010376L-15 15.001" stroke="white" stroke-width="3"/>
<mask id="mask0_1_15445" style="mask-type:luminance" maskUnits="userSpaceOnUse" x="-15" y="0" width="35" height="18">
<path d="M-15 0.0010376V7.50104H20V15.001H15L-15 0.0010376ZM15 0.0010376H0V17.501H-15V15.001L15 0.0010376Z" fill="white"/>
</mask>
<g mask="url(#mask0_1_15445)">
<path d="M-15 0.0010376L15 15.001L-15 0.0010376ZM15 0.0010376L-15 15.001L15 0.0010376Z" fill="black"/>
<path d="M-15 0.0010376L15 15.001M15 0.0010376L-15 15.001" stroke="#C8102E" stroke-width="2"/>
</g>
<path d="M0 0.0010376V17.501V0.0010376ZM-15 7.50104H20H-15Z" fill="black"/>
<path d="M2.23517e-07 0.0010376V17.501M-15 7.50104H20" stroke="white" stroke-width="5"/>
<path d="M0 0.0010376V17.501V0.0010376ZM-15 7.50104H20H-15Z" fill="black"/>
<path d="M2.23517e-07 0.0010376V17.501M-15 7.50104H20" stroke="#C8102E" stroke-width="3"/>
<path d="M-15 15.001H15V0.0010376H45V30.001H-15V15.001Z" fill="#012169"/>
<path d="M21.2648 7.37732H34.1088L34.0935 16.5167C34.2004 20.1907 31.9104 22.4705 27.6969 23.4984C24.7052 22.7554 21.2551 21.2186 21.25 16.6209L21.2653 7.37732H21.2648Z" fill="white"/>
<path d="M21.5495 7.65283H33.8241L33.8095 16.4106C33.9116 19.9311 31.7232 22.1157 27.6965 23.1007C24.8371 22.3888 21.5399 20.9161 21.535 16.5104L21.5496 7.65283H21.5495Z" fill="#00A2DD" stroke="black" stroke-width="0.090625"/>
<path d="M33.7288 17.448C33.2823 20.8085 30.6942 22.2768 27.6961 23.0561C25.0424 22.3442 22.1874 21.2077 21.6339 17.4649L33.729 17.448L33.7288 17.448Z" fill="#A53D08"/>
<path d="M27.2101 9.28425L27.193 8.18048L28.0657 8.18904L28.0743 9.28425H30.4615L30.47 10.1399L28.0743 10.1484L28.0551 20.2392L27.2038 20.2445L27.193 10.1399L24.8138 10.1485L24.8143 9.27572L27.2101 9.28425Z" fill="#551100"/>
<path fill-rule="evenodd" clip-rule="evenodd" d="M25.2776 17.8644L27.4628 20.1313C28.2184 19.3008 27.6943 16.1966 26.7004 15.6248C26.5813 15.9924 26.3787 16.4331 26.1634 16.5752C25.6897 16.8981 24.5288 17.2755 24.9168 17.5172C25.0053 17.3947 25.2368 17.279 25.3457 17.5513C25.475 17.9801 24.8624 18.0074 24.8624 18.0074C24.8624 18.0074 24.4743 17.9597 24.4063 17.5649C24.3382 17.1701 24.9842 16.8096 25.0394 16.7821C25.0938 16.7616 25.9379 16.537 26.0809 15.7882C26.2579 15.0529 26.4417 15.1619 26.4757 15.1483C27.5785 15.2572 28.3001 17.2314 28.341 18.62C28.3818 20.0087 27.776 20.9278 27.667 20.989C27.5581 21.0503 25.0394 18.0006 25.0394 18.0006L25.2776 17.8644Z" fill="#FF9A08" stroke="black" stroke-width="0.04838"/>
<path d="M26.87 15.754L26.8836 19.8453L26.87 15.754Z" fill="#FF9A08"/>
<path d="M26.87 15.754L26.8836 19.8453" stroke="black" stroke-width="0.04838"/>
<path d="M26.6252 15.8289C26.6252 15.8357 26.6388 19.5458 26.6388 19.5458L26.6252 15.8289Z" fill="#FF9A08"/>
<path d="M26.6252 15.8289C26.6252 15.8357 26.6388 19.5458 26.6388 19.5458" stroke="black" stroke-width="0.04838"/>
<path d="M26.3597 16.3667L26.3733 19.3211L26.3597 16.3667Z" fill="#FF9A08"/>
<path d="M26.3597 16.3667L26.3733 19.3211" stroke="black" stroke-width="0.04838"/>
<path d="M26.1418 16.5777L26.1555 19.0216L26.1418 16.5777Z" fill="#FF9A08"/>
<path d="M26.1418 16.5777L26.1555 19.0216" stroke="black" stroke-width="0.04838"/>
<path d="M25.9105 16.6866V18.7493V16.6866Z" fill="#FF9A08"/>
<path d="M25.9105 16.6866V18.7493" stroke="black" stroke-width="0.04838"/>
<path d="M25.6584 16.85V18.4838V16.85Z" fill="#FF9A08"/>
<path d="M25.6584 16.85V18.4838" stroke="black" stroke-width="0.04838"/>
<path d="M25.4403 16.9794V18.232V16.9794Z" fill="#FF9A08"/>
<path d="M25.4403 16.9794V18.232" stroke="black" stroke-width="0.04838"/>
<path d="M25.2432 18.123L27.4964 20.703" stroke="#FFDF00" stroke-width="0.04838" stroke-linecap="round"/>
<path d="M27.6052 16.496C27.6052 16.496 28.6264 18.7289 27.6801 20.5669" stroke="#FFDF00" stroke-width="0.090625" stroke-linecap="round"/>
<path d="M24.9774 17.6533C24.9774 17.6533 25.0523 17.4559 25.1476 17.5376" stroke="#FFDF00" stroke-width="0.090625" stroke-linecap="round"/>
<path d="M24.8004 17.0815C24.8004 17.0815 24.392 17.4422 24.6167 17.6737" stroke="#FFDF00" stroke-width="0.090625" stroke-linecap="round"/>
<path d="M28.081 11.4034C28.2323 11.2736 28.3108 11.1943 28.4044 11.2087C28.4981 11.2231 28.6256 11.2159 28.7193 11.1871C28.8133 11.1582 29.2782 11.1006 29.4693 11.1654C29.5342 11.1727 29.6206 11.2087 29.7538 11.3205C29.8874 11.4322 30.082 11.6269 30.0171 12.1675C29.9523 12.7082 29.9735 12.9395 29.945 13.2417C29.8947 13.7752 29.7763 14.2145 29.563 14.1789C29.8513 14.6836 29.8801 15.1161 30.0674 15.4622C30.2551 15.8082 30.3703 16.5147 30.2981 17.2789C30.2263 18.0431 30.0244 19.7589 30.6298 20.9124C30.5288 20.9845 30.2839 20.9124 30.0674 20.6817C29.8513 20.451 29.7564 20.4585 29.5772 20.5952C29.0294 21.0133 28.5165 21.5173 27.7608 21.0133C27.5876 20.8979 27.5329 20.7596 27.6598 20.4077C27.9769 19.5282 28.131 18.3215 28.081 17.7547V11.4034Z" fill="#008021" stroke="black" stroke-width="0.019935"/>
<path d="M28.6003 10.8626C28.6399 10.9852 28.6614 11.1438 28.5965 11.288C28.5317 11.4321 28.5174 11.6052 28.6253 11.8142C28.7984 11.5691 29.0437 11.6196 29.1877 11.4754C29.332 11.3312 29.3608 11.1943 29.469 11.1654C29.3608 11.0717 29.195 10.9708 29.231 10.6968C29.2671 10.4228 29.6491 10.1994 29.3032 9.78122C29.0798 9.51131 28.7551 9.5866 28.6146 9.69112C28.5484 9.74024 28.4921 9.81005 28.4706 9.85692C28.4488 9.90379 28.476 10.0104 28.4234 10.0732C28.3877 10.1164 28.344 10.1595 28.2937 10.1958C28.2614 10.2192 28.2412 10.2534 28.2756 10.2931C28.2896 10.309 28.3149 10.3124 28.3427 10.322C28.3266 10.3545 28.3082 10.3868 28.2902 10.4103C28.2731 10.4322 28.2804 10.4532 28.301 10.4711C28.2737 10.5576 28.3263 10.567 28.2902 10.6319C28.2589 10.688 28.2165 10.7544 28.3336 10.8194C28.3658 10.8374 28.5193 10.873 28.6003 10.8626Z" fill="#FFE1CF" stroke="black" stroke-width="0.019935"/>
<path d="M27.1983 12.2973C26.9964 12.3477 26.672 12.2612 26.4268 12.29C26.3186 12.3028 26.2322 12.2468 26.2467 12.1387C26.261 12.0305 26.2755 11.8647 26.2537 11.7133C26.2201 11.4774 26.3331 11.151 26.4917 10.7905C26.6502 10.4301 26.7296 10.2282 26.7296 10.0588C26.7296 9.94704 26.7404 9.82087 26.8414 9.75599C26.916 9.70805 26.9303 9.6615 26.9569 9.62264C27.0179 9.53251 27.0755 9.5109 27.0828 9.56498C27.0872 9.59713 27.0755 9.62624 27.0467 9.66951C27.1116 9.61542 27.2217 9.55232 27.2467 9.53431C27.2721 9.51631 27.4002 9.42618 27.4072 9.51089C27.4578 9.48567 27.492 9.48745 27.5047 9.51447C27.5183 9.54371 27.51 9.55596 27.4847 9.57757C27.5208 9.57036 27.5623 9.63346 27.4901 9.68932C27.5281 9.67669 27.5657 9.73979 27.4993 9.79745C27.4303 9.85698 27.3515 9.8984 27.3262 9.94524C27.3009 9.99211 27.1297 10.1237 27.0613 10.1525C26.9926 10.1814 26.9891 10.2209 26.9891 10.3219C26.9891 11.4321 26.8559 11.3419 26.8559 11.6088C26.8559 11.6809 26.8414 11.7457 26.9135 11.7241C26.9857 11.7025 27.0901 11.6701 27.1983 11.6701V12.2973Z" fill="#FFE1CF" stroke="black" stroke-width="0.019935"/>
<path d="M27.2407 14.6908C27.5667 14.5278 27.9401 14.4673 28.1347 14.4168C28.3294 14.3664 28.6395 14.215 28.7908 14.1357C28.9424 14.0563 29.0648 13.9482 29.1512 13.9194C29.2379 13.8905 29.3348 13.8309 29.3892 13.7248C29.6702 13.1768 29.8218 12.7371 29.8218 12.355C29.8218 12.1027 29.7569 11.8215 29.5117 12.0234C29.2813 12.2131 29.0303 12.5789 28.9639 12.8452C28.8629 13.2489 28.7765 13.3354 28.7547 13.4147C28.7332 13.4941 28.6515 13.494 28.5528 13.5157C28.1275 13.6094 28.0265 13.6742 27.7094 13.9122C27.3923 14.1501 27.0461 14.3592 26.8154 14.4889C26.5847 14.6187 26.5417 14.6331 26.491 14.7376C26.4407 14.8421 26.3939 14.9215 26.3505 14.9684C26.3072 15.0152 26.2948 15.07 26.3037 15.1269C26.311 15.1738 26.2891 15.3901 26.2857 15.4622C26.2819 15.5342 26.2999 15.5523 26.329 15.5559C26.3578 15.5595 26.3974 15.5451 26.4119 15.4586C26.3974 15.5451 26.5164 15.5162 26.5236 15.4514C26.5198 15.5451 26.6461 15.491 26.6534 15.4045C26.6534 15.4658 26.749 15.4234 26.7578 15.3937C26.7793 15.3216 26.7974 15.2423 26.8262 15.1846C26.8683 15.1009 26.9132 14.9925 26.9958 14.9323C27.0895 14.8638 27.0461 14.7881 27.2407 14.6908Z" fill="#FFE1CF" stroke="black" stroke-width="0.019935"/>
<path d="M29.5771 20.5951C29.599 20.6744 29.6385 20.7646 29.6528 20.8186C29.6673 20.8727 29.642 20.8896 29.6278 20.9196C29.5521 21.0782 29.4708 21.331 29.4581 21.4675C29.4512 21.5468 29.3971 21.6225 29.3717 21.6693C29.3439 21.721 29.3547 21.7609 29.4186 21.8099C29.4493 21.8333 29.5483 21.8027 29.5591 21.7522C29.5952 21.7883 29.66 21.7739 29.6888 21.7198C29.7214 21.7522 29.7755 21.7306 29.8116 21.6765C29.8439 21.6982 29.8907 21.6549 29.9088 21.626C29.9594 21.6513 30.0135 21.6207 30.0151 21.5215C30.0154 21.5016 30.0278 21.4675 30.0423 21.444C30.0566 21.4206 30.0619 21.3756 30.0604 21.3359C30.0585 21.2962 30.0838 21.2169 30.118 21.1611C30.1521 21.1052 30.2116 21.0061 30.1863 20.9124C30.1629 20.825 30.1252 20.833 30.0926 20.7069C30.0135 20.624 29.9053 20.5086 29.7936 20.5014C29.6819 20.4942 29.617 20.5699 29.5771 20.5951Z" fill="#FFE1CF" stroke="black" stroke-width="0.019935"/>
<path d="M27.5254 21.2151C27.6263 21.316 27.8536 21.3196 28.0121 21.1502C27.9545 21.125 27.8282 21.0673 27.7706 21.0204C27.6912 21.0998 27.601 21.1898 27.5254 21.2151Z" fill="#FFE1CF" stroke="black" stroke-width="0.019935"/>
<path d="M28.5459 9.7524C28.5855 9.49648 28.7668 9.50253 28.881 9.52892C28.9279 9.53974 29.0434 9.55053 29.1513 9.5217C29.3652 9.46471 29.5263 9.53974 29.5048 9.74522C29.5624 9.78845 29.6235 9.88937 29.6127 9.97592C29.6019 10.0624 29.62 10.0985 29.6994 10.1092C29.7785 10.1201 29.9481 10.2174 29.8361 10.3544C29.9443 10.4193 30.0273 10.5851 29.9697 10.6968C29.9121 10.8086 29.739 10.8266 29.6668 10.7257C29.5877 10.7617 29.4576 10.7689 29.3785 10.686C29.3244 10.7509 29.1874 10.7437 29.1621 10.686C29.1371 10.6283 29.0943 10.5975 29.0434 10.5815C28.9855 10.5635 28.982 10.4049 29.0684 10.3868C29.0576 10.3399 29.0614 10.2859 29.0829 10.2607C29.1045 10.2355 29.0864 10.1886 29.0361 10.1489C28.9855 10.1092 28.9424 9.95785 28.9927 9.87497C28.9063 9.9038 28.7152 9.82089 28.6756 9.76323C28.6358 9.70554 28.582 9.70196 28.5459 9.7524Z" fill="#EEAA00" stroke="black" stroke-width="0.019935"/>
<path d="M28.6005 10.8625C28.741 10.8445 28.7878 10.758 28.8922 10.7652" stroke="black" stroke-width="0.019935"/>
<path d="M28.3008 10.4711C28.31 10.4792 28.3217 10.4858 28.335 10.4931C28.3634 10.5085 28.3945 10.5102 28.4233 10.5138" stroke="black" stroke-width="0.019935"/>
<path d="M28.3429 10.3219C28.3625 10.3287 28.3834 10.3385 28.4021 10.3578" stroke="black" stroke-width="0.019935"/>
<path d="M28.669 9.75233C28.5861 9.67302 28.8095 9.51084 29.044 9.7415C29.0877 9.78457 29.1988 9.7848 29.2314 9.77394" stroke="black" stroke-width="0.019935"/>
<path d="M28.9932 9.87494C29.1014 9.84969 29.2634 9.84969 29.3103 9.97225C29.3574 10.0948 29.4511 10.0155 29.5267 10.1597C29.6024 10.3039 29.7213 10.4661 29.8365 10.3543" stroke="black" stroke-width="0.019935"/>
<path d="M29.3786 10.686C29.3461 10.6427 29.3318 10.549 29.3533 10.4841C29.31 10.4336 29.328 10.3291 29.3533 10.2786" stroke="black" stroke-width="0.019935"/>
<path d="M29.0684 10.3868C29.0722 10.43 29.1298 10.5093 29.2199 10.5237" stroke="black" stroke-width="0.019935"/>
<path d="M29.6673 10.7256C29.617 10.6607 29.6239 10.6031 29.635 10.5237" stroke="black" stroke-width="0.019935"/>
<path d="M29.1408 10.0083C29.1374 10.0732 29.1769 10.1597 29.2453 10.1885C29.2598 10.2245 29.332 10.3255 29.476 10.3111" stroke="black" stroke-width="0.019935"/>
<path d="M29.5054 9.74509C29.4263 9.68369 29.319 9.60806 29.1772 9.58936" stroke="black" stroke-width="0.019935"/>
<path d="M28.6252 11.8141C28.5028 11.98 28.4233 12.2106 28.4812 12.5351C28.5388 12.8595 28.6325 13.3353 28.3945 13.5516" stroke="black" stroke-width="0.019935"/>
<path d="M29.5628 14.1787C29.397 14.1427 29.159 14.1427 29.0293 14.2364C28.8995 14.3301 28.6831 14.3373 28.5391 14.2652" stroke="black" stroke-width="0.019935"/>
<path d="M29.2133 14.168C29.069 14.1932 29.0007 14.2941 29.0007 14.5609C29.0007 14.8276 28.9431 15.2169 28.9934 15.599" stroke="black" stroke-width="0.019935"/>
<path d="M28.9494 14.2797C28.8557 14.3049 28.7586 14.3085 28.7766 14.5609" stroke="black" stroke-width="0.019935"/>
<path d="M28.4629 14.568C28.4664 14.413 28.5205 14.2689 28.6214 14.2941" stroke="black" stroke-width="0.019935"/>
<path d="M29.501 14.5969C29.5082 14.2544 29.4326 14.1571 29.3317 14.1607C29.4687 14.1643 29.562 14.1811 29.62 14.7411C29.6633 15.1592 29.7507 15.3072 29.8507 15.635C30.1102 16.4857 29.9804 17.7978 30.1102 18.2592" stroke="black" stroke-width="0.019935"/>
<path d="M29.3031 14.6978C29.5768 15.4909 29.7211 16.3704 29.2743 17.7834C29.5768 18.6197 29.8797 19.2252 29.9373 19.5713" stroke="black" stroke-width="0.019935"/>
<path d="M28.4374 16.5722C28.4878 16.392 28.3077 16.3703 28.4662 15.7359C28.5349 15.4611 28.5457 15.2962 28.5023 15.2097" stroke="black" stroke-width="0.019935"/>
<path d="M28.5023 15.5847C28.4374 15.8658 28.7115 16.3921 28.5744 16.7742" stroke="black" stroke-width="0.019935"/>
<path d="M28.2363 16.8463C28.2363 17.0914 28.2939 17.4086 28.2797 17.6537C28.2651 17.8988 28.3651 18.0124 28.4816 18.2449C28.8996 19.0811 29.1841 19.6778 29.1446 20.4653C29.1376 20.6095 29.1879 20.9123 29.0367 20.9988" stroke="black" stroke-width="0.019935"/>
<path d="M28.2465 21.2115C28.2898 21.2151 28.3367 21.1935 28.3908 21.0637C28.4449 20.9339 28.618 20.1553 28.5458 19.6218" stroke="black" stroke-width="0.019935"/>
<path d="M28.6323 20.2274C28.6538 20.3932 28.6538 20.732 28.5459 20.9987" stroke="black" stroke-width="0.019935"/>
<path d="M28.9069 19.73C28.9717 20.0832 28.9645 20.4005 28.9141 20.6239" stroke="black" stroke-width="0.019935"/>
<path d="M28.7623 20.6238C28.7696 20.768 28.8344 21.1285 28.7262 21.1574" stroke="black" stroke-width="0.019935"/>
<path d="M29.3027 18.9514C29.5692 19.3695 29.7784 20.4004 30.0018 20.6167" stroke="black" stroke-width="0.019935"/>
<path d="M29.5335 20.4508C29.5263 20.3355 29.519 20.1769 29.4541 20.1048" stroke="black" stroke-width="0.019935"/>
<path d="M26.6543 15.4043C26.6578 15.325 26.6435 15.2493 26.7299 15.1268" stroke="black" stroke-width="0.019935"/>
<path d="M26.524 15.4512C26.5348 15.1736 26.531 15.1484 26.6104 15.0727" stroke="black" stroke-width="0.019935"/>
<path d="M26.4123 15.4585C26.4158 15.2602 26.3905 15.1917 26.4699 15.0656" stroke="black" stroke-width="0.019935"/>
<path d="M27.4065 9.5108C27.3758 9.53061 27.1958 9.66758 27.1201 9.72527" stroke="black" stroke-width="0.019935"/>
<path d="M27.4845 9.57751C27.4503 9.58289 27.3513 9.66403 27.1747 9.801" stroke="black" stroke-width="0.019935"/>
<path d="M27.49 9.68927C27.4343 9.71449 27.3279 9.81725 27.2305 9.88573" stroke="black" stroke-width="0.019935"/>
<path d="M27.0468 9.66949C27.0199 9.68931 26.9677 9.747 26.9424 9.76681" stroke="black" stroke-width="0.019935"/>
<path d="M29.5586 21.7522C29.5425 21.7341 29.5425 21.671 29.5712 21.6008" stroke="black" stroke-width="0.019935"/>
<path d="M29.6889 21.7197C29.6693 21.6999 29.6889 21.6134 29.7088 21.5575" stroke="black" stroke-width="0.019935"/>
<path d="M29.8109 21.6765C29.7875 21.6656 29.7802 21.6152 29.8144 21.5467" stroke="black" stroke-width="0.019935"/>
<path d="M29.9086 21.6259C29.8924 21.6206 29.8852 21.5935 29.914 21.5142" stroke="black" stroke-width="0.019935"/>
<path d="M28.4902 9.97961C28.5424 10.0481 28.5966 10.0408 28.6061 10.085C28.6156 10.1292 28.6225 10.1323 28.6326 10.1454C28.6428 10.1585 28.608 10.1559 28.5909 10.1488C28.5741 10.1418 28.5317 10.1425 28.5057 10.1429C28.4801 10.1433 28.4494 10.1129 28.4687 10.1094C28.4877 10.1058 28.4852 10.0998 28.4823 10.0864C28.4795 10.073 28.4931 10.0517 28.501 10.0478C28.5092 10.0439 28.5035 10.0447 28.4962 10.0267C28.4887 10.0086 28.4792 9.96486 28.4902 9.97961Z" fill="black"/>
<path d="M28.5221 9.91692C28.5806 9.92378 28.6816 9.9554 28.7363 10.016C28.7794 10.0637 28.7442 10.051 28.7224 10.0528C28.7006 10.0546 28.6579 10.0392 28.6363 10.0121C28.6151 9.98502 28.5515 9.95072 28.5177 9.94179C28.4971 9.93647 28.4778 9.9117 28.5221 9.91692Z" fill="black"/>
</g>
<defs>
<clipPath id="clip0_1_15445">
<rect y="0.0010376" width="30" height="30" rx="15" fill="white"/>
</clipPath>
</defs>
</svg>
