<svg width="30" height="30" viewBox="0 0 30 30" fill="none" xmlns="http://www.w3.org/2000/svg">
<path d="M0 15.0004C0 23.2827 6.71776 30.0004 15 30.0004V0.000457764C6.7109 0.000457764 0 6.71133 0 15.0004Z" fill="#F1F4FB"/>
<path d="M30 15.0004C30 6.7182 23.2823 0.000457764 15.0001 0.000457764V30.0004C23.2823 30.0004 30 23.2827 30 15.0004Z" fill="#CF142B"/>
<path d="M2.2645 8.50233V10.4648H4.22697C4.22697 10.7942 4.54949 11.1167 4.87886 11.1167V13.086H6.84134V11.1167C7.17071 11.1167 7.49322 10.7942 7.49322 10.4648H9.4557V8.50233H7.49322C7.49322 8.17297 7.17071 7.84358 6.84134 7.84358V5.8811H4.87886V7.84358C4.54949 7.84358 4.22697 8.17297 4.22697 8.50233H2.2645Z" fill="#E60D2E"/>
<path d="M2.33276 8.56404V10.3962H4.29524C4.29524 10.7187 4.62462 11.048 4.94713 11.048V13.0105H6.77923V11.048C7.1086 11.048 7.43111 10.7187 7.43111 10.3962H9.39359V8.56404H7.43111C7.43111 8.24153 7.10173 7.9122 6.77923 7.9122V5.94968H4.94713V7.9122C4.61776 7.9122 4.29524 8.24153 4.29524 8.56404H2.33276Z" fill="#CF142B"/>
<path d="M2.39462 8.6327V10.3344H4.3571C4.3571 10.6638 4.68649 10.9863 5.01585 10.9863V12.9488H6.71758V10.9863C7.04695 10.9863 7.36946 10.6569 7.36946 10.3344H9.33194V8.6327H7.36946C7.36946 8.3102 7.04009 7.98082 6.71758 7.98082V6.01834H5.01585V7.98082C4.68649 7.98082 4.3571 8.3102 4.3571 8.6327H2.39462Z" fill="#96877D"/>
<path d="M2.46338 8.69444V10.259H4.42586C4.42586 10.5883 4.75523 10.9177 5.07774 10.9177V12.8802H6.64909V10.9177C6.97846 10.9177 7.30097 10.5952 7.30097 10.259H9.26345V8.69444H7.30097C7.30097 8.36507 6.9716 8.04256 6.64909 8.04256V6.08008H5.07774V8.04256C4.74837 8.04256 4.42586 8.36507 4.42586 8.69444H2.46338Z" fill="#CCCCCC"/>
<path d="M5.81906 8.11115C5.97002 8.10429 6.11413 8.11803 6.25822 8.16606C6.4778 8.22782 6.68365 8.35816 6.84833 8.52285C7.01302 8.68753 7.12967 8.90025 7.19143 9.12669C7.24632 9.33941 7.25317 9.57274 7.20514 9.79918C7.16397 9.97073 7.09536 10.1217 6.99929 10.2658C6.90323 10.403 6.78657 10.5265 6.64933 10.6157C6.49837 10.7186 6.31997 10.801 6.1347 10.8353C5.90139 10.8765 5.66124 10.8627 5.43479 10.7872C5.20835 10.7186 5.00936 10.5814 4.85153 10.403C4.70057 10.2314 4.59079 10.0256 4.53589 9.79918C4.49472 9.6345 4.48786 9.45606 4.51531 9.29137C4.54276 9.06493 4.63196 8.84536 4.77606 8.66009C4.9133 8.47482 5.10542 8.32386 5.31813 8.22779C5.47596 8.15231 5.64751 8.11115 5.81906 8.11115Z" fill="#95877E"/>
<path d="M5.37956 8.22106C5.65403 8.11127 5.95595 8.09755 6.23729 8.17989C6.47059 8.24851 6.6833 8.37891 6.84798 8.55045C6.99894 8.70828 7.10873 8.90041 7.16362 9.10626C7.22538 9.3327 7.23225 9.57971 7.17049 9.81301C7.12246 9.99142 7.04013 10.163 6.92348 10.3071C6.82741 10.4375 6.69703 10.5472 6.5598 10.6296C6.40884 10.7256 6.23728 10.7874 6.05888 10.8149C5.99712 10.8217 5.94222 10.8286 5.88046 10.8286C5.89418 10.8217 5.8942 10.8011 5.8942 10.7943C5.90106 10.7668 5.90105 10.7462 5.90105 10.7188C5.92849 10.7188 5.96281 10.7188 5.99025 10.7188C6.01084 10.7188 6.03144 10.7188 6.04516 10.705C6.05202 10.6982 6.05202 10.6776 6.04516 10.6707C6.03144 10.657 6.01084 10.657 5.99025 10.6502C5.95594 10.6502 5.92849 10.6502 5.90105 10.6502C5.90105 10.6227 5.90105 10.6021 5.90105 10.5747C5.90105 10.5609 5.89418 10.5472 5.88046 10.5404C5.86674 10.5266 5.84615 10.5266 5.83242 10.5404C5.8187 10.5541 5.81871 10.5678 5.81871 10.5815C5.81871 10.6021 5.81871 10.6227 5.81871 10.6502C5.79126 10.6502 5.75695 10.6502 5.7295 10.6502C5.70891 10.6502 5.68834 10.6502 5.67461 10.6707C5.66089 10.6776 5.66089 10.6982 5.67461 10.705C5.68834 10.7188 5.70891 10.7188 5.7295 10.7188C5.75695 10.7188 5.79126 10.7188 5.81871 10.7188C5.81871 10.7394 5.81871 10.76 5.81871 10.7806C5.81871 10.7943 5.8187 10.8149 5.83242 10.8286V10.8354C5.5854 10.8354 5.33838 10.7599 5.13252 10.6227C4.93353 10.4992 4.76885 10.3139 4.66592 10.1081C4.61789 10.0189 4.57671 9.91593 4.54926 9.80614C4.50809 9.6346 4.50123 9.45622 4.52868 9.28468C4.56299 9.05137 4.65905 8.82493 4.80315 8.63966C4.95411 8.45439 5.15312 8.3034 5.37956 8.22106Z" fill="#CCCCCC"/>
<path d="M5.81184 8.16614C5.84615 8.16614 5.88046 8.17296 5.92163 8.17296V8.17983C5.90791 8.17983 5.89419 8.17985 5.88733 8.19357C5.88047 8.20729 5.88732 8.22102 5.88046 8.24161C5.88046 8.27592 5.88048 8.30337 5.87362 8.33768C5.87362 8.35141 5.87362 8.37196 5.87362 8.38568C5.8942 8.39254 5.92163 8.39255 5.94222 8.39255C5.9628 8.39255 5.97652 8.38571 5.98339 8.37198C5.99025 8.35826 5.99711 8.35137 6.00397 8.34451C5.99711 8.37196 5.99025 8.38571 5.98339 8.41315C5.92163 8.40629 5.85989 8.40629 5.80499 8.40629V8.39942C5.81872 8.39942 5.83929 8.39944 5.83929 8.37885C5.83929 8.33768 5.84616 8.29651 5.84616 8.24848C5.84616 8.22789 5.84616 8.20729 5.84616 8.19357C5.84616 8.17985 5.82557 8.17296 5.81871 8.17296C5.81871 8.17296 5.81184 8.173 5.81184 8.16614Z" fill="#010101"/>
<path d="M6.18236 8.20724C6.21667 8.22097 6.25098 8.22782 6.28529 8.24155C6.27156 8.24841 6.25785 8.23468 6.25098 8.24155C6.24412 8.24155 6.23727 8.25525 6.23727 8.26211C6.22354 8.31014 6.20295 8.3582 6.18923 8.41309C6.18237 8.41995 6.18235 8.43366 6.19608 8.44052C6.21666 8.44739 6.23725 8.45427 6.2647 8.46113C6.29215 8.46799 6.30588 8.44741 6.31961 8.42683C6.31961 8.42683 6.32645 8.42679 6.32645 8.43366C6.31273 8.44738 6.29901 8.46798 6.28529 8.48856C6.23039 8.46798 6.16863 8.45428 6.11374 8.42683C6.1206 8.41997 6.12747 8.42683 6.14119 8.42683C6.15492 8.42683 6.16178 8.41309 6.16178 8.40622C6.18236 8.35819 6.19609 8.31018 6.20981 8.25528C6.20981 8.24842 6.21668 8.23467 6.21668 8.22781C6.20982 8.22095 6.20295 8.21407 6.18923 8.21407C6.17551 8.20721 6.18236 8.20724 6.18236 8.20724Z" fill="#010101"/>
<path d="M5.51715 8.22781C5.51715 8.22095 5.51716 8.21411 5.52402 8.20724C5.53088 8.20724 5.53087 8.21407 5.53774 8.21407C5.57891 8.2621 5.62007 8.31703 5.66125 8.37192C5.66811 8.37878 5.67497 8.39249 5.6887 8.39249C5.69556 8.39935 5.70243 8.39935 5.71615 8.39935V8.40622C5.6887 8.41309 5.65439 8.41997 5.62694 8.42683V8.41996C5.63381 8.41996 5.64753 8.40622 5.64753 8.39935C5.64067 8.37877 5.62695 8.3719 5.61323 8.35132C5.58578 8.35818 5.55833 8.36506 5.52402 8.37192C5.52402 8.39251 5.51715 8.41307 5.51715 8.43366C5.51715 8.44738 5.53774 8.44052 5.54461 8.44052V8.44739C5.52402 8.45425 5.49657 8.46114 5.47598 8.468C5.47598 8.45427 5.4897 8.45425 5.4897 8.44739C5.49656 8.43367 5.49657 8.41995 5.49657 8.41309C5.49657 8.35134 5.51029 8.28957 5.51715 8.22781Z" fill="#010101"/>
<path d="M5.51706 8.37199C5.51706 8.33768 5.52393 8.30335 5.5308 8.26904C5.55138 8.29649 5.57196 8.32393 5.59255 8.35138C5.5651 8.35138 5.53764 8.35826 5.51706 8.37199Z" fill="#CCCCCC"/>
<path d="M5.21513 8.33081C5.222 8.33081 5.22201 8.33081 5.22887 8.33081C5.2426 8.3514 5.25632 8.37195 5.27004 8.38568C5.26318 8.38568 5.25632 8.37885 5.24946 8.37885C5.23573 8.36512 5.20829 8.35825 5.1877 8.36511C5.16025 8.37197 5.13279 8.39257 5.12593 8.42002C5.11907 8.45433 5.13279 8.48178 5.14651 8.50923C5.1671 8.53667 5.19456 8.5641 5.22887 8.57096C5.26318 8.57096 5.29749 8.55723 5.31121 8.52292C5.29749 8.49547 5.28376 8.4749 5.27004 8.45432C5.25632 8.4406 5.24258 8.44746 5.23572 8.45432L5.22887 8.44745C5.24946 8.43373 5.27004 8.42 5.29063 8.40628C5.29749 8.40628 5.30435 8.39942 5.31121 8.40628C5.30435 8.40628 5.29747 8.41316 5.29747 8.42002C5.29747 8.42688 5.30434 8.44058 5.30434 8.44058C5.31807 8.46803 5.33179 8.48178 5.34551 8.50923C5.32493 8.54353 5.29063 8.57097 5.24946 8.5847C5.20829 8.59842 5.16711 8.58467 5.1328 8.55722C5.09162 8.52291 5.0779 8.45431 5.10534 8.40628C5.12593 8.37883 5.15339 8.35823 5.1877 8.34451C5.19456 8.34451 5.20829 8.34454 5.20829 8.33768C5.21515 8.33768 5.21513 8.33081 5.21513 8.33081Z" fill="#010101"/>
<path d="M6.62158 8.41311C6.62158 8.41311 6.62843 8.40625 6.63529 8.41311C6.63529 8.41998 6.62843 8.42682 6.62843 8.44055C6.6147 8.48858 6.60099 8.5435 6.59412 8.5984C6.59412 8.61898 6.58726 8.63268 6.58726 8.65326C6.58726 8.66012 6.60099 8.66701 6.60099 8.67387C6.60099 8.67387 6.59412 8.67387 6.58726 8.67387C6.56667 8.66014 6.54609 8.64642 6.5255 8.6327C6.51864 8.6327 6.51863 8.62582 6.51863 8.61896C6.52549 8.62582 6.53922 8.63269 6.54609 8.61896C6.55295 8.60524 6.55296 8.58463 6.55982 8.55719C6.53924 8.54346 6.51179 8.52978 6.4912 8.50919C6.48434 8.50233 6.48433 8.50916 6.47746 8.51602C6.46374 8.52288 6.45002 8.52976 6.43629 8.53662C6.42943 8.55035 6.44317 8.56405 6.45003 8.56405L6.44316 8.57092C6.42258 8.5572 6.40199 8.54348 6.38141 8.52975C6.38827 8.52289 6.39514 8.52975 6.40886 8.52975C6.42259 8.52975 6.4363 8.52288 6.44316 8.51602C6.50492 8.48171 6.55982 8.44742 6.62158 8.41311Z" fill="#010101"/>
<path d="M5.82562 8.43368C5.97658 8.42682 6.12754 8.4543 6.25792 8.5092C6.46377 8.59154 6.63532 8.73562 6.75197 8.92089C6.82059 9.02382 6.86862 9.14047 6.89607 9.26398C6.92351 9.40122 6.92351 9.54531 6.89607 9.68941C6.8549 9.88841 6.75196 10.0737 6.60786 10.2178C6.47062 10.3619 6.28536 10.4648 6.10009 10.506C5.95599 10.5334 5.81189 10.5403 5.66779 10.5128C5.44135 10.4717 5.23549 10.355 5.08453 10.1835C4.91298 9.99822 4.81692 9.74433 4.81006 9.4973C4.81006 9.30517 4.85809 9.10618 4.96102 8.94149C5.07081 8.76309 5.23549 8.61896 5.42762 8.52976C5.558 8.468 5.69524 8.44054 5.82562 8.43368Z" fill="#95877E"/>
<path d="M6.5051 8.50242C6.53254 8.48183 6.55999 8.4681 6.5943 8.44751C6.58744 8.48182 6.58058 8.51614 6.57372 8.54359C6.54627 8.52986 6.52568 8.51614 6.5051 8.50242Z" fill="#CCCCCC"/>
<path d="M5.78468 8.45433C5.90133 8.44747 6.0317 8.45432 6.14835 8.48863C6.35421 8.55038 6.54633 8.67391 6.67671 8.84546C6.75219 8.94152 6.80708 9.05129 6.84139 9.16108C6.91687 9.38752 6.91002 9.64143 6.81395 9.86787C6.73847 10.0463 6.6081 10.2109 6.45028 10.3207C6.35421 10.3893 6.25127 10.4374 6.14148 10.4717C5.90132 10.5403 5.6337 10.5129 5.40726 10.4031C5.21513 10.307 5.05044 10.1423 4.95438 9.9502C4.88576 9.81983 4.8446 9.67573 4.83774 9.52477C4.83774 9.49733 4.83774 9.46301 4.83774 9.43557C4.8446 9.22285 4.92008 9.017 5.05045 8.84546C5.18083 8.68077 5.35924 8.55038 5.56509 8.48863C5.63371 8.4749 5.7092 8.46119 5.78468 8.45433Z" fill="#CCCCCC"/>
<path d="M5.80529 8.56409C5.82587 8.55723 5.84646 8.55722 5.86704 8.55722C5.90821 8.56408 5.95625 8.59155 5.97684 8.62586C5.99056 8.64645 5.99742 8.67389 5.99742 8.70133C6.01114 8.69447 6.02487 8.69447 6.03859 8.70133C6.05917 8.68761 6.07976 8.6739 6.10034 8.66703C6.10721 8.68762 6.10721 8.70818 6.10034 8.72877C6.16896 8.7219 6.23072 8.74939 6.29934 8.76311C6.3062 8.76311 6.31991 8.76312 6.32678 8.76998C6.33364 8.79056 6.34737 8.81113 6.34051 8.83171C6.34051 8.84543 6.3405 8.85915 6.32678 8.86601C6.31991 8.87974 6.29934 8.87289 6.29247 8.87975C6.27875 8.89347 6.26503 8.89345 6.2513 8.90031C6.22386 8.92776 6.19641 8.96207 6.16897 8.98952C6.19641 9.01697 6.217 9.04442 6.23072 9.07873C6.23758 9.09931 6.24444 9.11305 6.24444 9.13363C6.27875 9.15422 6.29934 9.18853 6.31993 9.21597C6.36796 9.18853 6.41598 9.15424 6.45715 9.11307C6.49146 9.11307 6.51892 9.12678 6.55323 9.1405C6.5944 9.15423 6.6287 9.17481 6.66987 9.18167C6.66987 9.18853 6.67674 9.18854 6.67674 9.18854C6.71791 9.22285 6.75223 9.2503 6.7934 9.27775C6.7934 9.28461 6.80026 9.28462 6.7934 9.28462C6.77281 9.29834 6.74536 9.30518 6.72477 9.30518C6.71105 9.29832 6.69733 9.29147 6.6836 9.27775C6.65616 9.27089 6.63556 9.25713 6.60811 9.24341C6.56694 9.22282 6.51892 9.20224 6.47089 9.2091C6.46403 9.2091 6.45715 9.20911 6.45715 9.21597C6.45029 9.28459 6.40912 9.33261 6.35423 9.37378C6.40226 9.36692 6.45716 9.36694 6.50519 9.39439C6.54636 9.43556 6.5944 9.46985 6.64244 9.50416C6.6493 9.51102 6.65615 9.5179 6.65615 9.52476C6.6836 9.56594 6.7042 9.6071 6.73164 9.64827C6.7042 9.65513 6.67674 9.64143 6.65615 9.62771C6.64243 9.61399 6.63556 9.60026 6.6287 9.57967C6.62184 9.58653 6.61498 9.60022 6.60811 9.5865C6.60125 9.57964 6.59439 9.56592 6.58753 9.5522C6.56694 9.51789 6.53949 9.48357 6.49832 9.46299C6.47774 9.46299 6.46402 9.46985 6.44344 9.46299C6.43657 9.46299 6.42284 9.4493 6.41598 9.45616C6.36109 9.46989 6.29933 9.4973 6.24444 9.50416C6.21699 9.51102 6.19641 9.51103 6.16897 9.51103C6.15524 9.50417 6.14152 9.5179 6.1278 9.5179C6.13466 9.53162 6.14151 9.55908 6.15523 9.5728C6.16209 9.57966 6.16895 9.5865 6.17581 9.59337C6.20326 9.62081 6.23758 9.64142 6.27189 9.66201C6.27189 9.66887 6.27876 9.66888 6.27876 9.66888C6.31307 9.63457 6.34736 9.59338 6.3954 9.56593C6.41598 9.55221 6.44343 9.54533 6.46402 9.5522C6.42285 9.58651 6.39541 9.63454 6.38168 9.68257C6.37482 9.6963 6.37481 9.71002 6.36794 9.72374C6.38167 9.71002 6.40913 9.69632 6.42972 9.70318C6.46403 9.7169 6.4846 9.74433 6.51891 9.76491C6.53263 9.77177 6.54637 9.77864 6.55323 9.77178C6.56009 9.76492 6.5601 9.75807 6.5601 9.74435C6.54637 9.73749 6.53264 9.7169 6.52577 9.70318C6.50519 9.70318 6.49147 9.70317 6.47089 9.69631C6.45717 9.68945 6.45715 9.67574 6.45715 9.66888H6.46402C6.46402 9.66888 6.46401 9.66888 6.45715 9.66888C6.44343 9.65515 6.42971 9.64143 6.41598 9.62771C6.41598 9.62085 6.41599 9.62084 6.42285 9.62084C6.4503 9.63456 6.47775 9.64828 6.51206 9.65514C6.49147 9.64142 6.46401 9.62082 6.45715 9.60023C6.45715 9.57279 6.47088 9.55909 6.48461 9.5385C6.49833 9.53164 6.51205 9.51788 6.52577 9.50416C6.5395 9.53161 6.54637 9.55909 6.5601 9.57967C6.57382 9.57967 6.58067 9.57967 6.5944 9.57967C6.60126 9.57967 6.60127 9.5865 6.60127 9.5865C6.61499 9.60708 6.62871 9.63456 6.64244 9.66201C6.65616 9.66201 6.66988 9.66202 6.6836 9.66888C6.6836 9.67574 6.6836 9.68258 6.6836 9.68944C6.70419 9.68944 6.7179 9.68944 6.73849 9.68944C6.73163 9.6963 6.72476 9.70319 6.71104 9.71005C6.72476 9.71691 6.73163 9.72375 6.74536 9.73061C6.73163 9.73747 6.71104 9.73747 6.69732 9.73061C6.69732 9.74434 6.69732 9.75119 6.69732 9.76491C6.67674 9.75805 6.65616 9.7512 6.64244 9.73748C6.62871 9.77179 6.60813 9.8061 6.58068 9.81982C6.5601 9.83354 6.53949 9.82667 6.51891 9.81295C6.49146 9.80609 6.47775 9.7855 6.4503 9.77178C6.44344 9.76492 6.43657 9.77866 6.43657 9.78552C6.43657 9.79924 6.44343 9.81297 6.45715 9.83356C6.47774 9.86787 6.50518 9.90216 6.51891 9.94333C6.54635 9.92274 6.58067 9.90218 6.60811 9.88159C6.60811 9.85415 6.61497 9.81983 6.6287 9.79239C6.6287 9.77866 6.64243 9.77177 6.65615 9.76491C6.66301 9.77177 6.66987 9.77865 6.66987 9.77865C6.68359 9.77865 6.69733 9.7855 6.70419 9.80608C6.71105 9.80608 6.71791 9.80609 6.71791 9.81295C6.72477 9.81981 6.72477 9.83356 6.72477 9.84042C6.71105 9.84042 6.69733 9.84725 6.6836 9.84725C6.66988 9.8747 6.65616 9.90218 6.64244 9.92276C6.61499 9.95707 6.58754 9.99135 6.55323 10.0188C6.56695 10.0325 6.58753 10.0463 6.60811 10.0463C6.63556 10.0325 6.63557 10.0051 6.63557 9.9845C6.64929 9.9845 6.64929 9.99137 6.65615 9.99823C6.65615 10.0051 6.66302 10.0051 6.66302 10.0051C6.66988 10.0051 6.66987 10.012 6.66987 10.012C6.66987 10.0257 6.68359 10.0257 6.69045 10.0257C6.67673 10.06 6.64244 10.0874 6.60127 10.0943C6.56009 10.0943 6.51891 10.0737 6.48461 10.0531C6.47088 10.0531 6.46403 10.06 6.4503 10.06C6.44344 10.06 6.42972 10.06 6.42972 10.0668C6.42286 10.0668 6.42284 10.0737 6.41598 10.0806C6.46402 10.108 6.51891 10.1355 6.56694 10.1629C6.5395 10.1835 6.51205 10.2041 6.48461 10.2247C6.47774 10.2247 6.47774 10.2384 6.46402 10.2384C6.26503 10.2384 6.07291 10.2384 5.87391 10.2384C5.84646 10.2384 5.81215 10.2384 5.7847 10.2384C5.68178 10.2384 5.57884 10.2384 5.47591 10.2384C5.4416 10.2384 5.40731 10.2384 5.37986 10.2384C5.373 10.2384 5.36613 10.2384 5.35927 10.2384C5.33183 10.2109 5.30436 10.1904 5.27691 10.1698C5.34553 10.1698 5.41416 10.1766 5.48278 10.1766C5.48964 10.1835 5.4965 10.1766 5.50337 10.1766C5.48278 10.1766 5.46904 10.1698 5.44846 10.1698C5.37298 10.1561 5.2975 10.1423 5.21516 10.1355V10.1286C5.28378 10.1286 5.35926 10.1355 5.43474 10.1355C5.47591 10.1286 5.52396 10.1286 5.57199 10.1286C5.58571 10.1149 5.59943 10.0943 5.60629 10.0806C5.61315 10.0806 5.61314 10.0737 5.62001 10.0737C5.65431 10.0668 5.68864 10.0668 5.72295 10.06C5.72981 10.06 5.7298 10.0531 5.73667 10.0463C5.74353 10.0325 5.75039 10.0257 5.75725 10.012C5.7298 9.99139 5.69548 9.98449 5.66118 9.97763C5.64059 9.97077 5.62687 9.97766 5.60629 9.96393C5.59257 9.96393 5.59257 9.95019 5.59257 9.94333C5.59944 9.89529 5.62687 9.84729 5.62001 9.79926C5.55825 9.78553 5.50335 9.75122 5.44846 9.71005C5.42101 9.6826 5.40044 9.65515 5.37986 9.62084C5.36613 9.6277 5.34554 9.63457 5.33182 9.62771C5.29065 9.62085 5.2632 9.59339 5.22203 9.57967C5.2083 9.57281 5.19458 9.57964 5.18086 9.5865C5.174 9.59336 5.18086 9.60024 5.18773 9.6071C5.20831 9.64141 5.2426 9.66199 5.25633 9.68944C5.26319 9.71003 5.2632 9.73749 5.24948 9.75122C5.23576 9.7718 5.21517 9.78553 5.18773 9.79926C5.19459 9.81984 5.20144 9.84039 5.22203 9.84725C5.21517 9.84725 5.2083 9.84725 5.20144 9.84725C5.2083 9.86784 5.21516 9.88844 5.21516 9.90903C5.2083 9.92275 5.20145 9.9296 5.18773 9.93646C5.174 9.93646 5.16026 9.93646 5.14654 9.93646C5.13967 9.96391 5.13283 9.99821 5.13969 10.0188C5.13283 10.0188 5.1191 10.0188 5.1191 10.012C5.11224 10.0051 5.11223 9.99135 5.10537 9.97763C5.09851 9.97763 5.09166 9.97766 5.07793 9.9708C5.07107 9.95708 5.07106 9.94335 5.0642 9.92276C5.0642 9.90904 5.0642 9.89532 5.0642 9.88159C5.05734 9.87473 5.03676 9.86784 5.0299 9.85412C5.02303 9.8404 5.01617 9.81984 5.0299 9.79926C5.04362 9.77867 5.0642 9.77177 5.08478 9.75804C5.09851 9.75118 5.11909 9.74433 5.12595 9.72374C5.12595 9.71002 5.1191 9.6963 5.11224 9.68257C5.09165 9.64826 5.07793 9.60024 5.07793 9.55907C5.07793 9.53162 5.09165 9.50419 5.11224 9.49046C5.12596 9.47674 5.1534 9.47673 5.17399 9.47673C5.22888 9.49045 5.27006 9.51791 5.32495 9.53163C5.33867 9.53163 5.3524 9.53163 5.36612 9.53163C5.37984 9.46988 5.42102 9.41495 5.47591 9.37378C5.44847 9.34633 5.41415 9.3189 5.38671 9.29831C5.37984 9.29145 5.37298 9.28462 5.36612 9.28462C5.3524 9.28462 5.33181 9.27773 5.31808 9.26401C5.31122 9.25715 5.30436 9.25714 5.2975 9.25027C5.29064 9.24341 5.28378 9.23657 5.28378 9.22971C5.27006 9.21599 5.24948 9.20225 5.24948 9.1748C5.2632 9.16794 5.28377 9.1748 5.2975 9.1748C5.30436 9.15422 5.30437 9.13366 5.30437 9.11307C5.25633 9.14738 5.22202 9.18853 5.17399 9.21597C5.1534 9.2297 5.12597 9.23657 5.09852 9.22971C5.07107 9.22285 5.04361 9.20225 5.02303 9.1748C5.02989 9.1748 5.04362 9.1748 5.05048 9.16793C5.05734 9.16107 5.05735 9.15423 5.05735 9.14737C5.05735 9.14737 5.05735 9.1405 5.05735 9.13363C5.04363 9.1405 5.02304 9.14736 5.00931 9.13363C4.99559 9.12677 4.99557 9.11306 4.99557 9.09933C4.99557 9.08561 5.00931 9.06502 5.00931 9.0513C5.00931 9.02385 5.01617 8.98954 5.0299 8.96209C5.04362 8.94836 5.05735 8.94152 5.07793 8.93466C5.07107 8.91407 5.07106 8.8866 5.08478 8.86601C5.09851 8.83856 5.11223 8.81114 5.13282 8.80428C5.14654 8.79742 5.16714 8.79742 5.18773 8.80428C5.19459 8.77683 5.20831 8.74935 5.2289 8.72877C5.23576 8.71504 5.24947 8.71507 5.2632 8.71507C5.27692 8.68076 5.30437 8.66016 5.33182 8.66016C5.34554 8.66016 5.3524 8.66703 5.36612 8.66703C5.39357 8.68076 5.42102 8.6876 5.45533 8.69447C5.46219 8.67388 5.48278 8.65329 5.50337 8.64643C5.51709 8.63957 5.53081 8.64646 5.54454 8.6396C5.5514 8.63274 5.56511 8.61899 5.57884 8.61213C5.60628 8.60527 5.63373 8.60527 5.66118 8.619C5.68176 8.60527 5.70236 8.61213 5.72295 8.61213C5.72295 8.61213 5.76412 8.57781 5.80529 8.56409Z" fill="#010101"/>
<path d="M5.77764 8.58475C5.81195 8.56416 5.85313 8.55729 5.8943 8.57101C5.94233 8.58473 5.97662 8.62592 5.98348 8.67395C5.98348 8.68768 5.99036 8.7014 5.97664 8.71512C5.95605 8.74943 5.94233 8.78375 5.91488 8.8112C5.91488 8.79748 5.91488 8.78375 5.9286 8.77003C5.94918 8.74258 5.94232 8.70141 5.92173 8.68082C5.89428 8.63965 5.83252 8.6259 5.79135 8.65335C5.78449 8.66021 5.77765 8.6671 5.76392 8.68082C5.7502 8.67396 5.7296 8.66708 5.70901 8.66022C5.7296 8.63277 5.75019 8.59847 5.77764 8.58475Z" fill="#95877E"/>
<path d="M6.83445 8.59845C6.84131 8.59845 6.8413 8.60528 6.84817 8.60528C6.85503 8.619 6.86874 8.63958 6.88247 8.64645C6.86188 8.72193 6.84817 8.79055 6.82758 8.86603C6.86875 8.83172 6.90993 8.80427 6.94424 8.77682C6.95796 8.7631 6.94423 8.74938 6.93737 8.73565C6.94423 8.73565 6.94424 8.73565 6.94424 8.73565C6.95796 8.74938 6.97169 8.76997 6.98541 8.79056V8.79743C6.97855 8.79057 6.97169 8.77682 6.96483 8.77682C6.95796 8.76996 6.9511 8.78369 6.93737 8.78369C6.88248 8.818 6.83444 8.85916 6.77954 8.90033C6.77954 8.90719 6.76583 8.90033 6.77269 8.90033C6.79328 8.82485 6.81386 8.74939 6.83445 8.66705C6.79328 8.6945 6.75897 8.72194 6.72466 8.74939C6.7178 8.75625 6.70407 8.7631 6.70407 8.77682C6.70407 8.78368 6.71093 8.79057 6.71779 8.8043L6.71092 8.81117C6.69033 8.79058 6.67663 8.76998 6.6629 8.74939L6.66975 8.74252C6.67661 8.74938 6.68347 8.75626 6.69034 8.75626C6.70406 8.76312 6.71093 8.74939 6.71779 8.74939C6.75896 8.71508 6.80699 8.68762 6.84817 8.65331C6.84817 8.64645 6.85503 8.63274 6.84817 8.62588C6.84817 8.61216 6.84131 8.60531 6.83445 8.59845Z" fill="#010101"/>
<path d="M5.77078 8.68762C5.7845 8.66704 5.81196 8.64645 5.8394 8.64645C5.87371 8.64645 5.90802 8.66704 5.92174 8.69449C5.9286 8.70822 5.93548 8.72194 5.93548 8.74253C5.92176 8.74253 5.90803 8.74252 5.88744 8.73566C5.84627 8.7288 5.81196 8.7151 5.77765 8.7151C5.76393 8.7151 5.75707 8.7151 5.74335 8.72197C5.7159 8.73569 5.68844 8.74255 5.66099 8.76314C5.65413 8.77 5.64042 8.77684 5.63356 8.7837C5.59925 8.7837 5.56493 8.76312 5.53748 8.7494C5.51003 8.74254 5.47572 8.73565 5.44827 8.72879C5.46886 8.70135 5.50319 8.69449 5.53063 8.69449C5.53749 8.68077 5.55121 8.66705 5.56493 8.66019C5.59238 8.65333 5.61982 8.6602 5.6404 8.66706C5.65413 8.6602 5.68159 8.66019 5.70218 8.66019C5.73649 8.67391 5.75706 8.68762 5.77078 8.68762Z" fill="#95877E"/>
<path d="M6.04534 8.70817C6.05907 8.7013 6.07278 8.69442 6.09336 8.68756C6.10022 8.70815 6.09338 8.72874 6.08651 8.74247C6.16886 8.73561 6.24433 8.76991 6.31981 8.77677C6.33354 8.79735 6.34039 8.8317 6.32666 8.85228C6.3198 8.85914 6.30609 8.85911 6.29923 8.85911C6.28551 8.87283 6.27863 8.87971 6.26491 8.87971C6.27177 8.86599 6.2855 8.85914 6.29236 8.84541C6.27864 8.84541 6.26492 8.84541 6.25806 8.84541C6.24434 8.85914 6.23747 8.87285 6.23061 8.87971C6.21688 8.88657 6.21001 8.89345 6.19629 8.89345C6.16884 8.90717 6.13455 8.91401 6.1071 8.91401C6.12082 8.92774 6.13454 8.94833 6.14827 8.96205C6.08651 9.01695 6.01103 9.06498 5.93555 9.09243C5.92869 9.07184 5.92868 9.05124 5.92182 9.03065C5.90809 8.99634 5.91496 8.96206 5.92868 8.92775C5.94241 8.87286 5.97671 8.83168 6.01102 8.79051C6.02475 8.76306 6.04533 8.74249 6.05219 8.7219C6.04533 8.7219 6.04534 8.71503 6.04534 8.70817Z" fill="#95877E"/>
<path d="M5.99732 8.71511C6.01104 8.70825 6.03163 8.70825 6.03849 8.71511C6.03163 8.73569 6.01789 8.75625 6.00417 8.77684C5.96986 8.82487 5.9287 8.87293 5.91498 8.93469C5.90126 8.969 5.89439 9.01016 5.90811 9.05133C5.91497 9.07192 5.92183 9.08565 5.92183 9.10624C5.91497 9.1131 5.90126 9.11307 5.89439 9.11993C5.88753 9.09249 5.8738 9.05817 5.86694 9.03073C5.86008 9.01014 5.86694 8.99645 5.86694 8.98273C5.86694 8.95528 5.86694 8.9278 5.86694 8.90722C5.88067 8.89349 5.90126 8.87976 5.91498 8.85918C5.94243 8.80428 5.96987 8.75628 5.99732 8.71511Z" fill="#95877E"/>
<path d="M5.25625 8.77676C5.26311 8.74931 5.28371 8.72876 5.31116 8.72189C5.32488 8.72189 5.3386 8.72873 5.35232 8.73559C5.42094 8.75617 5.49643 8.7699 5.57191 8.78363C5.58563 8.79049 5.6062 8.79736 5.61993 8.79736C5.63365 8.80423 5.64737 8.80423 5.6611 8.80423C5.64737 8.80423 5.63366 8.81107 5.62679 8.81793C5.59935 8.82479 5.56504 8.83852 5.54446 8.86597C5.53759 8.87283 5.53073 8.87971 5.52387 8.88657C5.49642 8.90029 5.46897 8.92089 5.45525 8.94148C5.44839 8.94148 5.43466 8.94145 5.42779 8.95517C5.40721 8.9689 5.39349 8.99636 5.37291 9.01695C5.36605 9.03067 5.34545 9.03066 5.33859 9.04438C5.31114 9.07869 5.29743 9.11302 5.29057 9.15419C5.25626 9.17478 5.22194 9.20908 5.19449 9.23653C5.16705 9.25712 5.1396 9.2777 5.11216 9.2777C5.07785 9.2777 5.0504 9.25712 5.02982 9.23653C5.03668 9.22967 5.04354 9.22965 5.0504 9.21593C5.05726 9.2022 5.0504 9.18849 5.0504 9.18163C5.03668 9.18849 5.02296 9.19536 5.00923 9.18849C5.00237 9.18849 4.99551 9.18162 4.98865 9.17476C4.98865 9.15417 5.00236 9.13361 5.00236 9.11302C5.00236 9.08558 5.00237 9.05126 5.02982 9.02382C5.04354 9.01009 5.06412 9.00321 5.0847 9.00321C5.06412 8.98949 5.07099 8.96206 5.07099 8.94148C5.07785 8.90717 5.09156 8.87969 5.12587 8.86597C5.14646 8.85224 5.16706 8.8591 5.18765 8.86597C5.17392 8.84538 5.18763 8.82479 5.19449 8.81793C5.20822 8.79734 5.2288 8.7699 5.25625 8.77676Z" fill="#95877E"/>
<path d="M5.76404 8.7288C5.8258 8.71508 5.88069 8.75627 5.93559 8.74941C5.92872 8.76313 5.92186 8.76999 5.915 8.78371C5.90814 8.79743 5.90813 8.81803 5.90126 8.83862C5.8944 8.83862 5.88069 8.83861 5.87383 8.83175C5.86011 8.84547 5.84638 8.86605 5.82579 8.86605C5.81893 8.86605 5.81207 8.87292 5.80521 8.87292C5.79835 8.87292 5.79833 8.86605 5.79147 8.86605C5.77089 8.84546 5.74346 8.83176 5.72287 8.80431C5.73659 8.79745 5.75031 8.79056 5.75717 8.77684C5.77089 8.76998 5.75718 8.74253 5.76404 8.7288Z" fill="#95877E"/>
<path d="M5.72287 8.74912C5.73641 8.74235 5.74318 8.73557 5.75672 8.73557C5.75672 8.74911 5.75672 8.76265 5.75672 8.7762C5.75672 8.78297 5.74994 8.78975 5.74994 8.78975C5.7364 8.77621 5.72964 8.76267 5.72287 8.74912Z" fill="#95877E"/>
<path d="M5.43442 8.74935C5.46873 8.74249 5.50303 8.75623 5.53734 8.76996C5.50989 8.7631 5.47559 8.74935 5.43442 8.74935Z" fill="#CCCCCC"/>
<path d="M5.65411 8.78366C5.66784 8.76994 5.68841 8.75622 5.709 8.74936C5.71586 8.76994 5.72959 8.78367 5.73645 8.7974C5.72959 8.7974 5.7296 8.80427 5.72274 8.80427C5.70215 8.7974 5.68156 8.79052 5.65411 8.78366Z" fill="#CCCCCC"/>
<path d="M5.61996 8.818C5.64741 8.81114 5.66801 8.79744 5.69546 8.8043C5.70918 8.8043 5.71605 8.81114 5.72291 8.818C5.74349 8.84544 5.77093 8.85918 5.79151 8.8729C5.8121 8.89349 5.83268 8.89348 5.85326 8.9072C5.85326 8.92093 5.85326 8.92782 5.85326 8.93468C5.8464 8.92096 5.83269 8.91407 5.81896 8.9072C5.79838 8.89348 5.77093 8.89351 5.75034 8.89351C5.7572 8.90723 5.76407 8.91408 5.77779 8.92094C5.78466 8.92094 5.78465 8.92782 5.79151 8.93468C5.80523 8.94154 5.81209 8.94838 5.83268 8.95524V8.96211C5.82582 8.97583 5.82583 8.98269 5.82583 8.99641C5.81897 9.03072 5.81896 9.07191 5.83955 9.09936C5.84641 9.11994 5.86013 9.12679 5.88072 9.12679C5.88072 9.15424 5.88073 9.17485 5.87387 9.19543C5.83956 9.16112 5.79152 9.13367 5.75721 9.09936C5.74349 9.07877 5.72291 9.06503 5.72291 9.03758C5.71605 9.00327 5.71604 8.96212 5.69546 8.92781C5.67487 8.90036 5.64741 8.87291 5.61996 8.8386C5.61996 8.8386 5.61996 8.83172 5.61996 8.818Z" fill="#95877E"/>
<path d="M5.54413 8.86609C5.56472 8.8455 5.58531 8.83864 5.61275 8.82492C5.61961 8.83178 5.61961 8.84553 5.62647 8.85239C5.64705 8.8867 5.67451 8.90729 5.70196 8.9416C5.72255 8.97591 5.71567 9.02394 5.72939 9.06511C5.74312 9.10628 5.77742 9.13373 5.81173 9.15432C5.83232 9.16804 5.85292 9.18173 5.87351 9.20231C5.87351 9.21604 5.87351 9.23663 5.87351 9.25722C5.94212 9.25722 6.01073 9.27783 6.0519 9.32586C6.06562 9.33273 6.05878 9.3533 6.06564 9.36016C6.07936 9.42878 6.10679 9.49052 6.13424 9.55227C6.1411 9.566 6.14796 9.57971 6.15482 9.58658C6.19599 9.62089 6.23718 9.65521 6.27835 9.68952C6.29208 9.69638 6.29892 9.71009 6.30579 9.71695C6.27834 9.71695 6.25089 9.71698 6.22345 9.70326C6.20972 9.70326 6.20285 9.69638 6.19599 9.68265V9.68952C6.18227 9.68952 6.16855 9.68951 6.15482 9.68265C6.1411 9.67579 6.14798 9.66207 6.14798 9.64835C6.09994 9.61404 6.05189 9.57287 6.02445 9.51797C5.997 9.4768 5.99015 9.43563 5.99701 9.3876C5.96271 9.3876 5.93525 9.3876 5.90094 9.3876C5.83918 9.37387 5.78429 9.36702 5.72939 9.3533C5.71567 9.3533 5.70882 9.34642 5.70196 9.33956C5.68137 9.31897 5.66765 9.29154 5.65392 9.27096C5.6402 9.23665 5.62646 9.20232 5.6196 9.16801C5.59901 9.14743 5.5853 9.11311 5.5853 9.07881C5.5853 9.0445 5.59217 9.01022 5.61275 8.98277C5.60589 8.98277 5.60588 8.98277 5.60588 8.98277C5.5853 9.00336 5.56471 9.03078 5.53726 9.0445C5.52354 9.05823 5.50981 9.05824 5.48922 9.05824C5.4755 9.10627 5.43435 9.14057 5.40004 9.17488C5.38631 9.18861 5.3863 9.2092 5.3863 9.22979C5.37944 9.25037 5.39316 9.2641 5.40688 9.27783C5.41375 9.27783 5.42062 9.29153 5.42062 9.30526C5.4069 9.30526 5.40002 9.29838 5.3863 9.29152C5.37944 9.30525 5.3863 9.32584 5.3863 9.33956C5.37258 9.34642 5.35885 9.33955 5.34513 9.33269C5.33827 9.33269 5.33828 9.32586 5.33141 9.319C5.31769 9.319 5.31769 9.31211 5.31083 9.29839C5.29711 9.29839 5.29023 9.28468 5.29709 9.27096C5.30395 9.25723 5.31768 9.24351 5.31768 9.22979C5.32454 9.18176 5.33141 9.14058 5.34513 9.09941C5.35199 9.07883 5.36573 9.0651 5.37945 9.05137C5.38631 9.04451 5.40002 9.03763 5.40688 9.03077C5.42061 9.00332 5.43434 8.98275 5.46179 8.96217C5.46865 8.9553 5.48236 8.9553 5.48922 8.9553C5.50295 8.92785 5.52354 8.90729 5.55785 8.89356C5.53726 8.87984 5.53727 8.87295 5.54413 8.86609Z" fill="#95877E"/>
<path d="M5.83262 8.87289C5.85321 8.87289 5.8738 8.85232 5.88066 8.83859C5.88752 8.84545 5.89439 8.84546 5.90811 8.84546C5.89439 8.86605 5.8738 8.87291 5.86008 8.88663C5.86008 8.88663 5.86008 8.89346 5.86008 8.90033C5.84635 8.89346 5.8395 8.88662 5.82578 8.87976C5.82578 8.87976 5.83262 8.87976 5.83262 8.87289Z" fill="#CCCCCC"/>
<path d="M6.26463 8.85226C6.27149 8.85226 6.27837 8.85226 6.27837 8.85226C6.20975 8.94147 6.12053 9.03064 6.02446 9.07868C5.98329 9.09926 5.94213 9.11985 5.90095 9.12671C5.88723 9.12671 5.86665 9.11987 5.85979 9.10615C5.84606 9.08556 5.84607 9.05808 5.84607 9.03064C5.84607 9.01005 5.84606 8.98949 5.85292 8.9689C5.85292 8.98263 5.85292 8.99636 5.85292 9.01694C5.85292 9.03753 5.85292 9.06496 5.85979 9.08554C5.85979 9.09241 5.86665 9.10615 5.88037 9.10615C5.88723 9.11301 5.90096 9.11301 5.90782 9.10615C6.00389 9.0787 6.0931 9.01692 6.16858 8.9483C6.20289 8.92771 6.23032 8.89344 6.26463 8.85226Z" fill="#95877E"/>
<path d="M6.12067 8.92093C6.15498 8.92093 6.1893 8.90722 6.21674 8.89349C6.19616 8.91408 6.17555 8.93464 6.15497 8.95523C6.14124 8.94836 6.13439 8.94151 6.12067 8.92093Z" fill="#CCCCCC"/>
<path d="M5.77087 8.90717C5.79146 8.90717 5.81206 8.90718 5.82578 8.9209C5.83264 8.92776 5.84635 8.93465 5.85321 8.94151C5.86694 8.94837 5.86008 8.96208 5.86008 8.96894C5.85322 8.96208 5.85323 8.9552 5.84637 8.94833C5.8395 8.94833 5.82577 8.94149 5.81891 8.92777C5.80519 8.92777 5.79832 8.92089 5.79146 8.90717C5.79146 8.91403 5.77774 8.90717 5.77087 8.90717Z" fill="#95877E"/>
<path d="M7.01971 8.9758C7.04029 8.9758 7.05402 8.96893 7.06774 8.96207C7.08833 9.01696 7.10891 9.07872 7.1295 9.13361C7.1295 9.13361 7.13636 9.14735 7.1295 9.14735C7.11577 9.15421 7.09518 9.16105 7.08146 9.16791C7.08146 9.16105 7.08833 9.15422 7.0952 9.15422C7.10892 9.14736 7.11577 9.1336 7.10891 9.11988C7.10891 9.10615 7.10206 9.09243 7.0952 9.07871C7.0403 9.09929 6.98541 9.11303 6.92365 9.13361C6.91679 9.14047 6.90307 9.14049 6.90307 9.15422C6.90307 9.16108 6.90305 9.16792 6.90991 9.17478C6.90991 9.17478 6.90993 9.17478 6.90307 9.17478C6.88934 9.14047 6.87561 9.10615 6.86874 9.07871C6.87561 9.07871 6.87561 9.08558 6.87561 9.09244C6.88247 9.09931 6.88934 9.10617 6.8962 9.09931C6.90992 9.09931 6.92364 9.09244 6.93737 9.08557C6.9854 9.06499 7.03343 9.05125 7.08146 9.03067C7.0746 9.01008 7.07461 8.98267 7.04716 8.9758C7.0403 8.9758 7.02657 8.98953 7.01971 8.9758Z" fill="#010101"/>
<path d="M4.66591 8.98276C4.69336 8.96217 4.72766 8.97587 4.74138 9.00332C4.74824 9.01704 4.74825 9.03763 4.74825 9.05136C4.7757 9.0445 4.80315 9.03075 4.83746 9.03075C4.85118 9.02389 4.8649 9.01704 4.87863 9.00332C4.88549 8.99646 4.88548 8.98958 4.89234 8.98958C4.88548 9.01017 4.87862 9.03077 4.87176 9.05136C4.83059 9.05822 4.78255 9.07194 4.74138 9.08566C4.74138 9.09252 4.73454 9.0994 4.73454 9.10626C4.76198 9.11313 4.78943 9.12684 4.81687 9.1337C4.8306 9.14056 4.83747 9.11999 4.84433 9.10626H4.85118C4.83745 9.13371 4.82374 9.16799 4.81687 9.2023H4.81001C4.81001 9.18858 4.81687 9.18172 4.81001 9.168C4.80314 9.168 4.79628 9.16113 4.78942 9.16113C4.74139 9.14054 4.69336 9.12685 4.64533 9.10626C4.63847 9.10626 4.62474 9.0994 4.61787 9.0994C4.61101 9.10626 4.60416 9.1131 4.60416 9.12683H4.59729C4.60415 9.09252 4.61787 9.06506 4.63159 9.03075C4.63845 9.01017 4.64533 8.98962 4.66591 8.98276Z" fill="#010101"/>
<path d="M5.93567 9.12675C6.02488 9.0993 6.10035 9.05126 6.1621 8.9895C6.18269 9.01695 6.20327 9.05126 6.22386 9.07871C6.23072 9.09243 6.23759 9.11303 6.23073 9.13362C6.26504 9.1542 6.29248 9.18851 6.31307 9.22282C6.3611 9.18851 6.41599 9.16108 6.45716 9.11305C6.48461 9.11991 6.51205 9.12675 6.5395 9.13362C6.58067 9.14734 6.61499 9.16793 6.65616 9.18165C6.66302 9.18852 6.66988 9.19536 6.67674 9.20222C6.70419 9.2228 6.73163 9.25028 6.75908 9.27086C6.76594 9.27772 6.76595 9.27774 6.76595 9.2846C6.74536 9.29146 6.72478 9.29829 6.7042 9.29142C6.69047 9.28456 6.6836 9.27772 6.67674 9.26399C6.6493 9.26399 6.62185 9.24342 6.5944 9.22969C6.54637 9.20224 6.49147 9.19536 6.43657 9.20909C6.43657 9.26398 6.40227 9.31202 6.3611 9.34633C6.34738 9.35319 6.33366 9.3669 6.31993 9.37376C6.34052 9.38063 6.35423 9.37376 6.37482 9.37376C6.40913 9.37376 6.44345 9.38064 6.4709 9.3875C6.48462 9.39436 6.49147 9.40121 6.5052 9.41493C6.54637 9.44238 6.58069 9.4767 6.62186 9.51101C6.62186 9.51787 6.62871 9.51789 6.63557 9.53161C6.65616 9.56592 6.68361 9.60708 6.7042 9.64139C6.68361 9.64139 6.66301 9.63455 6.64929 9.62082C6.6287 9.6071 6.62185 9.57963 6.61499 9.55905C6.61499 9.56591 6.60813 9.57962 6.60127 9.58648C6.59441 9.57962 6.58754 9.56591 6.58754 9.55905C6.56009 9.51788 6.53264 9.47669 6.48461 9.46297C6.46403 9.46297 6.44345 9.46987 6.42973 9.45614C6.42286 9.45614 6.416 9.44241 6.40914 9.44928C6.36797 9.463 6.32679 9.47672 6.29248 9.49045C6.25131 9.49731 6.20328 9.511 6.1621 9.50414C6.14838 9.50414 6.13466 9.51101 6.12093 9.51101C6.10035 9.46298 6.07976 9.41497 6.0729 9.36694C6.0729 9.35321 6.07291 9.33946 6.06605 9.33259C6.02488 9.28456 5.95625 9.25712 5.88763 9.25712C5.8945 9.23654 5.90136 9.2228 5.90822 9.20222C5.91508 9.18163 5.94253 9.15419 5.93567 9.12675Z" fill="#95877E"/>
<path d="M4.65938 9.01698C4.67997 9.00326 4.72114 9.01697 4.728 9.04442C4.73487 9.065 4.728 9.0856 4.72113 9.09932C4.69369 9.09246 4.65937 9.07874 4.63193 9.06502C4.63879 9.0513 4.6388 9.03071 4.65938 9.01698Z" fill="#CCCCCC"/>
<path d="M5.52382 9.04437C5.54441 9.03751 5.55814 9.02379 5.57186 9.01007C5.565 9.02379 5.55812 9.03065 5.53754 9.04437C5.51695 9.06496 5.48265 9.08555 5.4552 9.09928C5.46892 9.08555 5.47579 9.06496 5.48265 9.05124C5.49638 9.05124 5.5101 9.05123 5.52382 9.04437Z" fill="#95877E"/>
<path d="M5.85992 9.01697C5.86679 9.05128 5.88052 9.07873 5.88738 9.11304C5.88052 9.10618 5.87365 9.0993 5.86679 9.09244C5.85993 9.07185 5.85992 9.04442 5.85992 9.01697Z" fill="#95877E"/>
<path d="M5.44131 9.11314C5.48248 9.09255 5.52364 9.07194 5.55795 9.03763C5.55109 9.0788 5.55797 9.13369 5.59227 9.16114C5.59914 9.21603 5.61971 9.27095 5.64716 9.31212C5.65402 9.31898 5.66089 9.33269 5.67461 9.33955C5.63344 9.35327 5.58541 9.36013 5.54424 9.37385C5.4962 9.33954 5.44818 9.31213 5.40014 9.28469H5.40699C5.41385 9.27096 5.407 9.25721 5.39328 9.25034C5.37269 9.23662 5.36583 9.21606 5.37269 9.19548C5.37955 9.18176 5.37955 9.16117 5.39328 9.15431C5.41386 9.14745 5.42759 9.12686 5.44131 9.11314Z" fill="#CCCCCC"/>
<path d="M5.89441 9.13355C5.90796 9.13355 5.91472 9.12677 5.92826 9.12677C5.92826 9.13354 5.92826 9.14034 5.92149 9.15388C5.91471 9.16743 5.90118 9.18097 5.88763 9.19451C5.89441 9.1742 5.89441 9.15386 5.89441 9.13355Z" fill="#95877E"/>
<path d="M5.87378 9.24299C5.87378 9.23621 5.87378 9.22268 5.87378 9.21591L5.88054 9.22269C5.88054 9.22946 5.87378 9.23621 5.87378 9.24299Z" fill="#CCCCCC"/>
<path d="M5.24246 9.22968C5.25601 9.22968 5.26955 9.22968 5.28309 9.23645C5.27632 9.25 5.26956 9.25676 5.26956 9.26353C5.25601 9.25676 5.24923 9.24322 5.24246 9.22968Z" fill="#95877E"/>
<path d="M5.37308 9.28458C5.44856 9.33261 5.51718 9.38062 5.59266 9.42865C5.60639 9.43551 5.61325 9.44239 5.61325 9.44925C5.63383 9.4767 5.64755 9.50415 5.66813 9.53159C5.63382 9.51787 5.59952 9.50415 5.56521 9.49729C5.55148 9.49043 5.53777 9.48354 5.53091 9.46982C5.47601 9.42178 5.42797 9.38061 5.37308 9.33944C5.37994 9.31886 5.37308 9.2983 5.37308 9.28458Z" fill="#95877E"/>
<path d="M4.64552 9.30518C4.66611 9.29832 4.69356 9.30519 4.71415 9.31205C4.74846 9.32577 4.77589 9.35321 4.78275 9.38752C4.78961 9.42183 4.78276 9.45615 4.76903 9.48359C4.74845 9.51104 4.71413 9.53163 4.67983 9.53163C4.65924 9.53163 4.64553 9.53162 4.62494 9.52476C4.59749 9.5179 4.57691 9.49731 4.56319 9.47672C4.5426 9.44242 4.54259 9.40123 4.54945 9.37378C4.57003 9.33947 4.61122 9.31204 4.64552 9.30518Z" fill="#010101"/>
<path d="M7.16358 9.31213H7.17045C7.17045 9.3533 7.17732 9.38761 7.17732 9.43564C7.17732 9.44937 7.17046 9.46996 7.15673 9.48368C7.13615 9.50427 7.1087 9.50427 7.08811 9.49055C7.07439 9.47682 7.06066 9.4631 7.06066 9.44251C7.04007 9.4631 7.01949 9.47683 6.9989 9.49742C6.98518 9.50428 6.97831 9.51113 6.97145 9.52485C6.96459 9.53857 6.9646 9.5523 6.9646 9.56602L6.95774 9.55915C6.95774 9.53856 6.95087 9.518 6.95774 9.49742C6.99204 9.46997 7.02635 9.44248 7.06066 9.41504C7.06066 9.40817 7.06066 9.39447 7.06066 9.3876C7.04694 9.39447 7.02634 9.39447 7.01262 9.39447C6.9989 9.39447 6.98518 9.39447 6.97145 9.39447C6.95773 9.40133 6.9646 9.41505 6.9646 9.42877H6.95774C6.95774 9.39446 6.95773 9.36018 6.95087 9.32587C6.95773 9.32587 6.95774 9.32584 6.95774 9.3327C6.95774 9.34642 6.95773 9.35331 6.97145 9.36017C6.98518 9.36017 7.00577 9.36017 7.01949 9.36017C7.0538 9.35331 7.0881 9.3533 7.12241 9.3533C7.13614 9.3533 7.15673 9.3533 7.17045 9.34643C7.17045 9.33271 7.16358 9.319 7.16358 9.31213Z" fill="#010101"/>
<path d="M4.61794 9.35323C4.64539 9.34637 4.67283 9.34637 4.70028 9.35323C4.72087 9.35323 4.74146 9.36008 4.75519 9.38066C4.77577 9.40125 4.77576 9.43555 4.76204 9.463C4.74831 9.48359 4.7346 9.49048 4.71402 9.49734C4.67971 9.50421 4.65225 9.50421 4.61794 9.49734C4.59736 9.49048 4.57678 9.47672 4.56306 9.463C4.54933 9.44242 4.54933 9.41498 4.56306 9.3944C4.57678 9.36695 4.59736 9.35323 4.61794 9.35323Z" fill="#CCCCCC"/>
<path d="M5.55802 9.38757C5.59919 9.37385 5.64037 9.367 5.6884 9.35327C5.73643 9.36013 5.79133 9.37385 5.83936 9.38757C5.88053 9.39443 5.92857 9.40131 5.96974 9.40131C5.96288 9.46307 5.99031 9.51795 6.02462 9.56599C5.97659 9.6003 5.92857 9.6346 5.86681 9.64833C5.85309 9.65519 5.8325 9.64146 5.81878 9.64833C5.80505 9.64833 5.78446 9.64833 5.77074 9.64833C5.76388 9.67577 5.76388 9.70322 5.75702 9.73066C5.75016 9.73753 5.74329 9.75124 5.72957 9.7581C5.74329 9.77868 5.73643 9.80616 5.72957 9.82674C5.71585 9.85419 5.70212 9.88162 5.68153 9.89534C5.68839 9.92965 5.71586 9.9571 5.74331 9.97768C5.76389 9.9914 5.78447 10.0051 5.80506 10.0189C5.81878 10.012 5.84622 10.0052 5.85995 10.012C5.88053 10.0189 5.89425 10.0326 5.90112 10.0463C5.91484 10.0738 5.92856 10.0943 5.94228 10.1218C5.9217 10.1218 5.89427 10.1218 5.87368 10.1218C5.85996 10.1149 5.85308 10.1081 5.83936 10.0944C5.8325 10.0875 5.82564 10.0875 5.81878 10.0875C5.77761 10.0532 5.72957 10.0189 5.66781 9.99829C5.64723 9.99142 5.61978 9.98455 5.59919 9.98455C5.59919 9.98455 5.57861 9.98458 5.57861 9.97085C5.57861 9.95713 5.58548 9.93654 5.58548 9.92282C5.59234 9.88851 5.60605 9.84731 5.59919 9.813C5.5443 9.79928 5.48942 9.77184 5.44138 9.73753C5.40707 9.70322 5.37277 9.66893 5.35904 9.62776C5.35218 9.61404 5.34531 9.60027 5.35218 9.58655C5.37276 9.52479 5.40707 9.46992 5.46197 9.43561C5.47569 9.44933 5.4894 9.46306 5.50998 9.47678C5.52371 9.48364 5.53745 9.49735 5.55118 9.50421C5.59235 9.51794 5.64036 9.53166 5.68153 9.54538C5.66095 9.51793 5.64036 9.48366 5.61978 9.44935C5.61291 9.44249 5.61292 9.42874 5.59919 9.42187C5.58547 9.40815 5.57175 9.4013 5.55802 9.38757Z" fill="#95877E"/>
<path d="M7.06763 9.38058C7.10194 9.38058 7.12937 9.38058 7.16368 9.38058C7.17054 9.39431 7.17054 9.42177 7.16368 9.43549C7.14996 9.46294 7.1088 9.46981 7.08821 9.44236C7.06763 9.42177 7.06763 9.40117 7.06763 9.38058Z" fill="#CCCCCC"/>
<path d="M6.46399 9.57285C6.47771 9.55227 6.49829 9.53853 6.51887 9.51794C6.5326 9.54539 6.53946 9.56596 6.54633 9.58655C6.56005 9.58655 6.56692 9.58655 6.58065 9.58655C6.59437 9.61399 6.60809 9.64147 6.62182 9.66206C6.62182 9.67578 6.62866 9.68263 6.62866 9.68949C6.6218 9.7238 6.61494 9.75812 6.58749 9.78557C6.57377 9.80615 6.55319 9.81987 6.52574 9.81987C6.49143 9.81301 6.47085 9.79242 6.4434 9.7787C6.43654 9.77184 6.42281 9.77183 6.41595 9.77183C6.40909 9.77869 6.40223 9.78558 6.40223 9.7993C6.40223 9.81303 6.40909 9.81988 6.41595 9.8336C6.43653 9.86105 6.45713 9.8885 6.47085 9.92281C6.47772 9.92967 6.4777 9.94339 6.4777 9.95711C6.51201 9.93653 6.53946 9.91592 6.56691 9.89534C6.56691 9.89534 6.58064 9.8885 6.57378 9.88164C6.57378 9.85419 6.58063 9.82672 6.58749 9.80613C6.59436 9.79241 6.60122 9.78557 6.60808 9.78557C6.61494 9.78557 6.62181 9.79244 6.61495 9.7993C6.62181 9.7993 6.63554 9.79244 6.6424 9.7993C6.64926 9.80617 6.64925 9.81301 6.64925 9.81987C6.65611 9.81987 6.65612 9.81987 6.66299 9.81987C6.66299 9.82673 6.66297 9.83361 6.66983 9.84047C6.65611 9.84047 6.6424 9.8473 6.62182 9.8473C6.61495 9.86789 6.60122 9.88162 6.59436 9.90221C6.56692 9.95024 6.53261 9.9914 6.49144 10.0188C6.47772 10.012 6.46398 9.99827 6.45712 9.98454L6.45027 9.99141C6.46399 10.012 6.49144 10.0326 6.51202 10.0463C6.52575 10.06 6.54634 10.0669 6.56006 10.06C6.57379 10.0463 6.58063 10.0257 6.58749 10.0052C6.59436 10.012 6.60122 10.0188 6.60808 10.0188C6.60808 10.0257 6.61494 10.0326 6.62866 10.0395C6.60808 10.0669 6.57377 10.0944 6.54633 10.0875C6.50515 10.0875 6.46399 10.06 6.42282 10.0395C6.42282 10.0395 6.41595 10.0395 6.41595 10.0463C6.41595 10.0463 6.42282 10.0532 6.42969 10.0532C6.41596 10.0601 6.40223 10.0669 6.38165 10.0669C6.36792 10.0806 6.3542 10.0875 6.33361 10.0875C6.31989 10.1012 6.2993 10.0944 6.28557 10.0944C6.27185 10.1012 6.25813 10.108 6.25127 10.1012C6.23755 10.1012 6.23068 10.0944 6.22382 10.0944C6.20323 10.1012 6.18264 10.1081 6.15519 10.1081C6.15519 10.1012 6.15519 10.0875 6.15519 10.0806C6.14833 10.0738 6.14834 10.0669 6.14148 10.0669C6.14148 10.06 6.14148 10.0463 6.14148 10.0395C6.13462 10.0326 6.12089 10.0326 6.11403 10.0326C6.1003 10.0463 6.07973 10.06 6.06601 10.0669C6.05915 10.06 6.05229 10.0532 6.04542 10.0463C6.05915 10.0326 6.066 10.0051 6.05914 9.99141C6.05228 9.99828 6.05913 10.012 6.05227 10.0257C6.04541 10.0463 6.02483 10.06 6.0111 10.0806C6.00424 10.0943 6.01796 10.0944 6.02482 10.0944C6.05913 10.0875 6.09345 10.0738 6.12089 10.0463C6.12776 10.0463 6.13461 10.0463 6.13461 10.0532C6.13461 10.0601 6.13461 10.0669 6.13461 10.0806C6.14833 10.0875 6.14835 10.1012 6.14835 10.1081C6.13462 10.1081 6.12775 10.1081 6.11403 10.1081C6.12089 10.1149 6.12089 10.1218 6.12089 10.1355C6.10031 10.1287 6.08659 10.1149 6.07972 10.0944C6.05228 10.1149 6.01796 10.1218 5.99052 10.1287C5.97679 10.1287 5.9562 10.1355 5.94248 10.1355C5.94934 10.1218 5.96307 10.1149 5.96993 10.1012C5.97679 10.0737 5.98366 10.0463 5.99052 10.0257L5.98365 10.0188C5.97679 10.0326 5.97679 10.0394 5.96993 10.06C5.94935 10.06 5.93562 10.0463 5.92189 10.0257C5.90817 10.012 5.90817 9.99826 5.90131 9.97768C5.89445 9.97768 5.88074 9.99141 5.87388 9.99141C5.85329 9.97769 5.82584 9.97769 5.80525 9.99141C5.79839 9.98455 5.78466 9.97768 5.7778 9.97768C5.79839 9.95023 5.81896 9.92967 5.85327 9.92281C5.88072 9.92281 5.90132 9.92965 5.92876 9.94338C5.9768 9.93651 6.03169 9.91594 6.07972 9.90907C6.10717 9.92966 6.14148 9.92967 6.16893 9.92281C6.16207 9.91595 6.15521 9.90907 6.14835 9.90221C6.17579 9.90221 6.20324 9.91591 6.23069 9.92964C6.23755 9.92964 6.23754 9.93651 6.2444 9.94338C6.25813 9.95024 6.27186 9.95025 6.27872 9.95711C6.29245 9.96397 6.29245 9.97081 6.29931 9.97768C6.31303 9.9914 6.33361 9.98454 6.35419 9.97768C6.35419 9.97081 6.34048 9.97768 6.34048 9.97768C6.31989 9.97768 6.30617 9.9777 6.29931 9.96398C6.29245 9.95026 6.27186 9.94337 6.25814 9.93651C6.25128 9.93651 6.25126 9.92967 6.2444 9.92281C6.23754 9.90223 6.22383 9.8885 6.2101 9.88164C6.20324 9.88164 6.18951 9.88164 6.18265 9.88164C6.18265 9.87478 6.17579 9.86791 6.16893 9.86791C6.16207 9.86104 6.14834 9.86791 6.14148 9.86791C6.13462 9.85418 6.13462 9.84047 6.12089 9.8336C6.11403 9.82674 6.1003 9.82674 6.09344 9.82674C6.09344 9.81301 6.09345 9.7993 6.07972 9.79244C6.066 9.77185 6.03856 9.77183 6.01797 9.77183C6.01111 9.75124 5.99737 9.73752 5.98365 9.73066C5.96306 9.71694 5.93563 9.71692 5.90818 9.71692C5.9768 9.68948 6.04542 9.69634 6.10718 9.71692C6.19638 9.74437 6.26498 9.80616 6.32674 9.87477C6.34046 9.8885 6.34734 9.90222 6.36106 9.91594C6.36792 9.90908 6.36106 9.9022 6.35419 9.89534C6.36106 9.88848 6.37479 9.88164 6.38852 9.87477C6.36107 9.85419 6.34047 9.82674 6.33361 9.79244C6.32675 9.75813 6.36792 9.7238 6.40223 9.73753C6.43654 9.74439 6.45712 9.77872 6.48457 9.7993C6.49829 9.80617 6.51888 9.81303 6.52574 9.7993C6.53946 9.78558 6.53261 9.77182 6.53261 9.76496C6.51889 9.75124 6.50515 9.73751 6.49829 9.71692C6.48456 9.71692 6.46399 9.71692 6.45027 9.71692C6.44341 9.71692 6.43653 9.70323 6.43653 9.70323C6.46398 9.70323 6.49142 9.69635 6.51887 9.68262C6.49142 9.6689 6.46399 9.65517 6.45027 9.63458C6.45713 9.60027 6.45712 9.57971 6.46399 9.57285Z" fill="#95877E"/>
<path d="M5.11221 9.5316C5.13965 9.51788 5.1671 9.53157 5.19455 9.5453C5.24258 9.56588 5.29061 9.59333 5.34551 9.59333C5.34551 9.60706 5.35238 9.62079 5.35924 9.64137C5.34552 9.64823 5.33179 9.64824 5.31121 9.64824C5.27003 9.64138 5.24259 9.61393 5.20141 9.60707C5.18083 9.60021 5.1671 9.60022 5.15338 9.62081C5.14651 9.62767 5.15338 9.64138 5.16024 9.64824C5.18083 9.68255 5.21514 9.70314 5.22887 9.73745C5.23573 9.75117 5.23572 9.77177 5.222 9.79235C5.20827 9.81294 5.18768 9.8198 5.16709 9.83352C5.16709 9.84725 5.17397 9.86098 5.18083 9.88156H5.16709C5.18082 9.90215 5.1877 9.92271 5.1877 9.94329C5.1877 9.95016 5.18082 9.9639 5.17396 9.9639C5.16024 9.97076 5.13966 9.97077 5.11908 9.97077C5.11221 9.99822 5.10534 10.0257 5.11221 10.0531C5.09162 10.0394 5.09848 10.0188 5.08475 9.9982C5.08475 10.0051 5.07791 10.0119 5.07791 10.0119L5.07104 10.0051C5.06418 9.99135 5.05732 9.97762 5.05732 9.9639C5.05732 9.95018 5.05732 9.93645 5.05732 9.92273C5.0436 9.91587 5.02986 9.90898 5.023 9.89526C5.01614 9.88153 5.01614 9.86094 5.023 9.84722C5.05045 9.81977 5.08475 9.81294 5.10534 9.79235C5.1122 9.77863 5.1122 9.75804 5.10534 9.74432C5.07789 9.71001 5.06417 9.66198 5.06417 9.62081C5.07103 9.57277 5.08476 9.53846 5.11221 9.5316Z" fill="#95877E"/>
<path d="M6.38151 9.57282C6.39523 9.56596 6.41582 9.55908 6.42955 9.55222C6.38837 9.59339 6.36778 9.64143 6.35405 9.69633C6.34033 9.7375 6.33346 9.78554 6.3266 9.83357C6.29229 9.7924 6.25113 9.76495 6.20996 9.7375C6.21682 9.73064 6.22368 9.72376 6.23055 9.71689C6.25799 9.72376 6.27857 9.73062 6.30602 9.72376C6.31288 9.72376 6.31975 9.71693 6.31288 9.71007C6.29916 9.69634 6.28544 9.68259 6.27172 9.67572C6.29916 9.63455 6.34034 9.60713 6.38151 9.57282Z" fill="#95877E"/>
<path d="M5.86685 9.64832C5.92861 9.64146 5.9835 9.60715 6.0384 9.56598C6.06585 9.60029 6.10016 9.62087 6.12761 9.64832C6.12761 9.66204 6.1276 9.67576 6.14132 9.68262C6.15505 9.69634 6.17564 9.68949 6.18936 9.68949C6.19622 9.68949 6.20995 9.70322 6.21681 9.70322C6.20995 9.71009 6.20307 9.71692 6.19621 9.71692H6.18936C6.13446 9.68261 6.07271 9.66892 6.01781 9.66892C5.97664 9.66892 5.92861 9.68263 5.89431 9.69636C5.89431 9.69636 5.89429 9.70322 5.90115 9.70322C5.9286 9.70322 5.96291 9.7032 5.99036 9.71692C6.01095 9.72378 6.02466 9.7375 6.02466 9.75809C6.04525 9.75809 6.07271 9.75811 6.08644 9.77869C6.0933 9.78556 6.0933 9.80614 6.08644 9.81986C6.10016 9.81986 6.11387 9.81987 6.12074 9.82673C6.13446 9.83359 6.13446 9.85418 6.14132 9.8679C6.15505 9.86104 6.16877 9.86104 6.18249 9.8679C6.18935 9.87476 6.18936 9.8816 6.18936 9.88847C6.20308 9.88847 6.20995 9.8816 6.21681 9.88847C6.23054 9.89533 6.23738 9.90221 6.24425 9.90907C6.20994 9.89535 6.18249 9.88847 6.15504 9.88847C6.12759 9.86102 6.10701 9.84045 6.07957 9.81986C6.07271 9.81986 6.05898 9.81299 6.05211 9.80613C6.02467 9.81985 5.99037 9.82673 5.95606 9.82673C5.92861 9.82673 5.90802 9.83359 5.88057 9.82673C5.87371 9.81987 5.87372 9.79929 5.87372 9.79243C5.88058 9.77871 5.88744 9.76499 5.88744 9.75126C5.88744 9.71695 5.87371 9.68263 5.86685 9.64832Z" fill="#CCCCCC"/>
<path d="M6.42938 9.63455C6.45683 9.64828 6.48427 9.66203 6.51172 9.66203C6.49114 9.66889 6.4774 9.68262 6.45681 9.66889C6.44995 9.65517 6.43624 9.64828 6.42938 9.63455Z" fill="#95877E"/>
<path d="M5.77746 9.65506C5.77746 9.6482 5.77747 9.64819 5.78433 9.64819C5.80492 9.64819 5.8255 9.6482 5.84609 9.65506C5.85981 9.68937 5.87353 9.72366 5.86667 9.76483C5.86667 9.77856 5.85981 9.78545 5.84609 9.79918C5.85295 9.8129 5.85294 9.82661 5.85294 9.83348C5.8598 9.8472 5.87353 9.84717 5.88726 9.84717C5.93529 9.84717 5.98331 9.84719 6.02448 9.82661C6.03134 9.82661 6.03823 9.82661 6.04509 9.83348C6.0794 9.85406 6.1137 9.88837 6.14801 9.91582C6.12056 9.91582 6.0931 9.90893 6.07252 9.89521C6.0588 9.88835 6.05195 9.87463 6.04509 9.86091C6.03136 9.86091 6.0245 9.86779 6.01763 9.88151C6.01077 9.88151 6.00391 9.87465 5.99705 9.87465C5.99019 9.86778 5.97646 9.87465 5.9696 9.88151C5.92156 9.89524 5.87354 9.90893 5.8255 9.89521C5.81178 9.90207 5.79119 9.91581 5.77746 9.90895C5.76374 9.90209 5.76375 9.89524 5.76375 9.88151C5.76375 9.84721 5.7706 9.81975 5.75688 9.78544C5.75688 9.77171 5.75003 9.76486 5.74316 9.75114C5.75003 9.74428 5.75688 9.73739 5.75688 9.73053C5.77747 9.70308 5.77746 9.68251 5.77746 9.65506Z" fill="#95877E"/>
<path d="M6.63516 9.68265C6.64889 9.68265 6.65576 9.68265 6.66262 9.68265C6.66262 9.68951 6.65574 9.69638 6.64888 9.69638C6.6626 9.70325 6.68319 9.70325 6.69692 9.70325C6.69006 9.71012 6.6832 9.71009 6.67633 9.71695C6.69006 9.71695 6.70377 9.72382 6.71063 9.73069C6.69691 9.73069 6.67634 9.73068 6.66262 9.72382C6.66948 9.73754 6.67633 9.75126 6.67633 9.76499C6.66261 9.75812 6.64202 9.75128 6.6283 9.73755C6.63516 9.71697 6.64203 9.69637 6.63516 9.68265Z" fill="#95877E"/>
<path d="M4.56317 9.71006C4.58376 9.71006 4.59747 9.70318 4.61806 9.69632C4.61806 9.70318 4.6112 9.70319 4.60434 9.71006C4.59062 9.71692 4.58374 9.73063 4.5906 9.74436C4.5906 9.76494 4.59748 9.78551 4.60434 9.80609C4.63179 9.79923 4.65924 9.79239 4.69355 9.78553C4.69355 9.7718 4.68668 9.75808 4.68668 9.74436C4.68668 9.7375 4.67983 9.73061 4.67296 9.72375C4.6661 9.71689 4.65237 9.72375 4.64551 9.72375V9.71688C4.67296 9.71002 4.70039 9.70318 4.72098 9.69632V9.70319C4.70726 9.70319 4.69355 9.71003 4.69355 9.72375C4.69355 9.74434 4.7004 9.76494 4.70726 9.78553C4.74157 9.7718 4.76901 9.77178 4.80332 9.75805C4.81018 9.74433 4.80333 9.73061 4.81019 9.71688C4.81705 9.72375 4.81706 9.7375 4.81706 9.74436C4.82392 9.7718 4.83078 9.79238 4.83764 9.81983H4.83077C4.83077 9.81297 4.82392 9.79926 4.81706 9.7924C4.81019 9.7924 4.79647 9.7924 4.7896 9.7924C4.73471 9.80612 4.68668 9.81983 4.64551 9.8267C4.63865 9.8267 4.62492 9.82671 4.61806 9.84043C4.61806 9.8473 4.61806 9.85414 4.61806 9.86787H4.61119C4.5906 9.81983 4.5769 9.76495 4.56317 9.71006Z" fill="#010101"/>
<path d="M7.13656 9.72375C7.15029 9.71689 7.15714 9.70318 7.17086 9.69632C7.164 9.73063 7.15027 9.76495 7.14341 9.7924H7.13656C7.13656 9.78553 7.13656 9.77865 7.13656 9.76492C7.1297 9.76492 7.12284 9.75806 7.11598 9.76492C7.08167 9.77178 7.05421 9.78554 7.0199 9.79926C7.04049 9.81985 7.05422 9.8404 7.07481 9.85413C7.08167 9.86099 7.08853 9.86787 7.09539 9.87473C7.10912 9.8816 7.11598 9.86785 7.11598 9.85413C7.12284 9.85413 7.12283 9.861 7.12283 9.861C7.11596 9.88844 7.1091 9.91589 7.10224 9.94334H7.09539C7.09539 9.92275 7.08853 9.90215 7.07481 9.88843C7.04736 9.86098 7.0199 9.82671 6.99245 9.79926C6.965 9.7924 6.94443 9.78553 6.91698 9.78553C6.90326 9.78553 6.89639 9.79924 6.89639 9.81296H6.88953C6.89639 9.77865 6.90326 9.75119 6.91698 9.71688C6.91698 9.72375 6.91698 9.73063 6.91698 9.74436C6.92384 9.75122 6.9307 9.75119 6.93756 9.75805C6.95815 9.76491 6.97188 9.77179 6.9856 9.77179C6.99246 9.77179 6.99933 9.77179 7.00619 9.77179C7.06108 9.7512 7.10225 9.73748 7.13656 9.72375Z" fill="#010101"/>
<path d="M5.69516 9.88843C5.72947 9.86098 5.75005 9.81296 5.75005 9.77179C5.77063 9.81296 5.76378 9.84726 5.76378 9.88843C5.76378 9.89529 5.77064 9.90903 5.78437 9.90903C5.80495 9.9159 5.81866 9.90902 5.83238 9.8953C5.88728 9.90902 5.94219 9.89533 5.99708 9.8816C6.00394 9.88846 6.01765 9.88843 6.02452 9.88843C6.03138 9.88843 6.03824 9.86787 6.05197 9.86787C6.05883 9.88159 6.06569 9.88844 6.07255 9.90217C6.06569 9.90217 6.04511 9.90217 6.03825 9.90903C6.00394 9.9159 5.96964 9.92961 5.93533 9.93647C5.90788 9.92274 5.88043 9.90905 5.84612 9.92277C5.81867 9.92963 5.79122 9.95706 5.77063 9.98451C5.74318 9.95706 5.70888 9.9296 5.69516 9.88843Z" fill="#CCCCCC"/>
<path d="M6.3334 9.84046C6.3334 9.81987 6.33341 9.79928 6.34027 9.78555C6.34713 9.813 6.36773 9.83357 6.38831 9.85415C6.38831 9.86102 6.37457 9.8679 6.36771 9.87476C6.34712 9.8679 6.34027 9.85418 6.3334 9.84046Z" fill="#CCCCCC"/>
<path d="M5.89456 10.0051C5.89456 9.9983 5.90132 9.99829 5.90132 9.99829C5.90132 10.0051 5.90133 10.0051 5.89456 10.0051Z" fill="#95877E"/>
<path d="M5.90133 10.0121C5.90133 10.0121 5.90134 10.0121 5.9082 10.0121C5.91506 10.0326 5.92193 10.0463 5.93565 10.0601C5.94938 10.0669 5.9631 10.0807 5.97682 10.0807C5.96996 10.0944 5.96996 10.1081 5.96996 10.115C5.96309 10.1287 5.94251 10.1355 5.94937 10.1561C5.97682 10.163 5.99741 10.1493 6.01799 10.1424C6.04544 10.1424 6.07288 10.1355 6.09346 10.1218C6.10719 10.1424 6.12778 10.1493 6.1415 10.1561C6.1415 10.1493 6.1415 10.1424 6.1415 10.1356C6.16209 10.1356 6.1758 10.1424 6.19639 10.1356C6.21011 10.1356 6.21699 10.1287 6.23071 10.1218C6.23757 10.1218 6.2513 10.1287 6.25816 10.1287C6.27189 10.1356 6.28561 10.1287 6.29933 10.1287C6.31306 10.1287 6.33363 10.1287 6.35422 10.115C6.36108 10.115 6.37481 10.115 6.38167 10.115C6.4297 10.1424 6.47086 10.163 6.51889 10.1904C6.49145 10.211 6.46401 10.2316 6.44342 10.2591C6.07975 10.2591 5.72294 10.2591 5.35926 10.2591C5.3524 10.2591 5.33867 10.2591 5.33181 10.2522C5.31122 10.2385 5.29064 10.2179 5.27005 10.2042C5.36612 10.2042 5.46217 10.211 5.55824 10.2179C5.55824 10.211 5.55139 10.2042 5.54452 10.2042C5.44846 10.1904 5.35238 10.1767 5.25632 10.163C5.29063 10.163 5.3318 10.163 5.36611 10.163C5.42787 10.1699 5.48964 10.1561 5.55139 10.1561C5.56512 10.1355 5.57882 10.1218 5.59941 10.1081C5.63372 10.1012 5.66804 10.1013 5.70235 10.0944C5.69549 10.1013 5.69548 10.1012 5.68862 10.1012C5.72293 10.1149 5.7641 10.1012 5.79841 10.0807C5.80527 10.0875 5.81213 10.0944 5.81899 10.1012C5.82586 10.1012 5.83272 10.1012 5.83958 10.1012C5.8533 10.1149 5.86018 10.1218 5.8739 10.1287C5.90135 10.1356 5.92878 10.1287 5.96309 10.1287C5.9425 10.0807 5.92192 10.0395 5.90133 10.0121Z" fill="#95877E"/>
<path d="M5.70901 10.0874C5.72274 10.0737 5.73646 10.0531 5.75018 10.0325C5.76391 10.0462 5.77763 10.0531 5.79135 10.0599C5.76391 10.0737 5.73646 10.0874 5.70901 10.0874Z" fill="#95877E"/>
<path d="M6.03854 10.094C6.04532 10.0872 6.05209 10.0736 6.05886 10.0736C6.06563 10.0804 6.0724 10.0804 6.07917 10.0872C6.06563 10.094 6.05209 10.1007 6.03854 10.094Z" fill="#95877E"/>
<path d="M5.3383 10.5198C5.37947 10.506 5.42066 10.5403 5.42066 10.5815C5.42066 10.6158 5.39322 10.6501 5.35891 10.6501C5.3246 10.6501 5.29029 10.6227 5.29029 10.5884C5.28342 10.5541 5.30399 10.5266 5.3383 10.5198Z" fill="#010101"/>
<path d="M6.37454 10.5197C6.38826 10.5129 6.40885 10.5198 6.42257 10.5266C6.44316 10.5403 6.45003 10.5609 6.45003 10.5815C6.45003 10.6089 6.42944 10.6295 6.40886 10.6433C6.38827 10.657 6.36082 10.6501 6.34024 10.6364C6.31965 10.6227 6.31279 10.5952 6.31965 10.5678C6.32651 10.5403 6.34709 10.5197 6.37454 10.5197Z" fill="#010101"/>
<path d="M5.83946 10.5404C5.85318 10.5266 5.87377 10.5266 5.8875 10.5404C5.90122 10.5472 5.90808 10.5609 5.90808 10.5747C5.90808 10.6021 5.90808 10.6227 5.90808 10.6502C5.93553 10.6502 5.96984 10.6502 5.99729 10.6502C6.01788 10.6502 6.03845 10.6501 6.05218 10.6707C6.05904 10.6776 6.05904 10.6982 6.05218 10.705C6.03845 10.7188 6.01788 10.7188 5.99729 10.7188C5.96298 10.7188 5.93553 10.7188 5.90808 10.7188C5.90808 10.7462 5.90808 10.7668 5.90121 10.7942C5.90121 10.8011 5.90122 10.8217 5.8875 10.8286C5.87377 10.8492 5.84632 10.8423 5.83259 10.8217C5.82573 10.808 5.81888 10.7943 5.81888 10.7737C5.81888 10.7531 5.81888 10.7325 5.81888 10.7119C5.79143 10.7119 5.75712 10.7119 5.72967 10.7119C5.70908 10.7119 5.68851 10.7119 5.67478 10.6982C5.66106 10.6913 5.66106 10.6707 5.67478 10.6639C5.68851 10.6501 5.70908 10.6502 5.72967 10.6433C5.75712 10.6433 5.79143 10.6433 5.81888 10.6433C5.81888 10.6158 5.81888 10.5952 5.81888 10.5747C5.82574 10.5678 5.82574 10.5541 5.83946 10.5404Z" fill="#010101"/>
<path d="M5.09845 7.89163C5.2151 8.00828 5.11902 8.28273 4.89258 8.51603C4.66614 8.74248 4.3848 8.83171 4.26815 8.72192C4.1515 8.60527 4.24757 8.33078 4.47401 8.09747C4.70046 7.87103 4.98179 7.77497 5.09845 7.89163Z" fill="#D0D0D0"/>
<path d="M4.95424 8.02894C5.07089 8.14559 5.03659 8.35828 4.88563 8.5161C4.73467 8.66706 4.51509 8.69454 4.4053 8.58475C4.28865 8.4681 4.32296 8.25537 4.47392 8.10441C4.62488 7.94659 4.84445 7.91915 4.95424 8.02894Z" fill="#95877E"/>
<path d="M4.69973 8.07556L4.6557 8.11887L4.92518 8.39281L4.96921 8.3495L4.69973 8.07556Z" fill="#D0D0D0"/>
<path d="M4.5287 8.21416L4.62478 8.39945L4.4395 8.30337L4.39148 8.35141L4.75516 8.52982L4.57674 8.16617L4.5287 8.21416Z" fill="#D0D0D0"/>
<path d="M7.45205 10.2521C7.3354 10.1354 7.06093 10.2315 6.83449 10.4579C6.60805 10.6912 6.51197 10.9657 6.62862 11.0824C6.73841 11.199 7.01975 11.1029 7.25305 10.8765C7.47949 10.6432 7.5687 10.3619 7.45205 10.2521Z" fill="#D0D0D0"/>
<path d="M7.31476 10.3894C7.19811 10.2728 6.9854 10.307 6.83444 10.458C6.67662 10.6158 6.64917 10.8286 6.76582 10.9452C6.88247 11.0619 7.09518 11.0275 7.25301 10.8766C7.39711 10.7187 7.43141 10.4992 7.31476 10.3894Z" fill="#95877E"/>
<path d="M7.01975 10.3825L6.97858 10.4306L7.2462 10.6982L7.29422 10.6502L7.01975 10.3825Z" fill="#D0D0D0"/>
<path d="M7.13632 10.8148L6.95104 10.7188L7.04024 10.904L6.99907 10.9521L6.81381 10.5884L7.18434 10.7668L7.13632 10.8148Z" fill="#D0D0D0"/>
<path d="M6.63555 7.88482C6.5189 8.00147 6.61496 8.27597 6.8414 8.50927C7.0747 8.73571 7.34918 8.83177 7.46583 8.71512C7.58248 8.59847 7.48642 8.31711 7.25998 8.09067C7.02668 7.86423 6.74534 7.76817 6.63555 7.88482Z" fill="#D0D0D0"/>
<path d="M6.77267 8.02202C6.65602 8.13867 6.69033 8.35139 6.83443 8.50235C6.98539 8.65331 7.20496 8.68761 7.32161 8.57096C7.43827 8.46117 7.40395 8.24158 7.25299 8.09062C7.10203 7.93966 6.88933 7.91223 6.77267 8.02202Z" fill="#95877E"/>
<path d="M6.76581 8.31709L6.80698 8.36513L7.08145 8.09064L7.04028 8.0426L6.76581 8.31709Z" fill="#D0D0D0"/>
<path d="M7.1981 8.20731L7.10203 8.39255L7.28731 8.29652L7.33533 8.34451L6.97165 8.52293L7.15006 8.15927L7.1981 8.20731Z" fill="#D0D0D0"/>
<path d="M4.27508 10.2384C4.38487 10.1218 4.66621 10.2178 4.89951 10.4443C5.12595 10.6776 5.22201 10.9521 5.10536 11.0687C4.99557 11.1854 4.71423 11.0893 4.48093 10.8629C4.25448 10.6364 4.15843 10.3551 4.27508 10.2384Z" fill="#D0D0D0"/>
<path d="M4.41228 10.3825C4.52206 10.2659 4.74163 10.3002 4.89259 10.4511C5.04355 10.609 5.07787 10.8217 4.96121 10.9383C4.84456 11.055 4.63184 11.0207 4.48088 10.8697C4.32992 10.7119 4.30249 10.4992 4.41228 10.3825Z" fill="#95877E"/>
<path d="M4.70751 10.3688L4.74868 10.4168L4.48106 10.6913L4.43304 10.6502L4.70751 10.3688Z" fill="#D0D0D0"/>
<path d="M4.59049 10.808L4.78262 10.7119L4.68656 10.8972L4.72773 10.9452L4.91299 10.5815L4.54932 10.7599L4.59049 10.808Z" fill="#D0D0D0"/>
</svg>
