<svg width="30" height="30" viewBox="0 0 30 30" fill="none" xmlns="http://www.w3.org/2000/svg">
<path d="M2.02437 22.5005H27.9759C29.2591 20.2909 30.0002 17.7383 30.0002 15.0005H0.000152588C0.000152588 17.7315 0.741199 20.2909 2.02437 22.5005Z" fill="#FCEB0F"/>
<path d="M15.0001 30.0005C20.5514 30.0005 25.3821 26.9813 27.9759 22.5005H2.02435C4.61813 26.9813 9.4489 30.0005 15.0001 30.0005Z" fill="#169253"/>
<path d="M0.000152588 15.0005H30.0002C30.0002 12.2695 29.2591 9.71001 27.9759 7.50049H2.02437C0.741199 9.70314 0.000152588 12.2626 0.000152588 15.0005Z" fill="#012A87"/>
<path d="M15.0001 0.000457764C9.4489 0.000457764 4.61813 3.01967 2.02435 7.50046H27.9759C25.3821 3.01967 20.5445 0.000457764 15.0001 0.000457764Z" fill="#DC181E"/>
</svg>
