<svg width="30" height="30" viewBox="0 0 30 30" fill="none" xmlns="http://www.w3.org/2000/svg">
<path d="M15 0.000457764C9.66149 0.000457764 4.98171 2.8001 2.32617 6.99955H27.6738C25.0183 2.8001 20.3385 0.000457764 15 0.000457764Z" fill="#D21034"/>
<path d="M14.9999 30.0004C20.3384 30.0004 25.0182 27.2008 27.6737 23.0013H2.32607C4.9816 27.2008 9.66138 30.0004 14.9999 30.0004Z" fill="#D21034"/>
<path d="M27.6737 6.99951H2.32608C0.857644 9.31882 -7.62939e-05 12.0567 -7.62939e-05 15.0004C-7.62939e-05 17.9441 0.857644 20.682 2.32608 23.0013H27.6737C29.1422 20.682 29.9999 17.9441 29.9999 15.0004C29.9999 12.0567 29.1422 9.31195 27.6737 6.99951Z" fill="#007E3A"/>
<path d="M13.9569 15.0004C13.9569 12.4409 15.7204 10.2932 18.0946 9.70994C17.8201 9.66877 17.5457 9.6413 17.2575 9.6413C14.3 9.6413 11.9052 12.0361 11.9052 14.9935C11.9052 17.951 14.3 20.3458 17.2575 20.3458C17.5388 20.3458 17.8201 20.3252 18.0946 20.284C15.7204 19.7008 13.9569 17.5599 13.9569 15.0004Z" fill="white"/>
</svg>
