<svg width="30" height="30" viewBox="0 0 30 30" fill="none" xmlns="http://www.w3.org/2000/svg">
<path d="M15 30.0004C21.0522 30.0004 26.2672 26.4117 28.6345 21.2516H1.36554C3.73287 26.4117 8.94787 30.0004 15 30.0004Z" fill="#339E35"/>
<path d="M15 0.000457764C8.94787 0.000457764 3.73287 3.5892 1.36554 8.74931H28.6345C26.2603 3.58234 21.0522 0.000457764 15 0.000457764Z" fill="black"/>
<path d="M0 14.9936C0 17.2237 0.494057 19.3441 1.36551 21.2448H28.6345C29.5059 19.3441 30 17.2237 30 14.9936C30 12.7635 29.5128 10.6501 28.6345 8.74249H1.36551C0.487195 10.6501 0 12.7635 0 14.9936Z" fill="#CE1126"/>
<path d="M15.2264 1.66099C15.2264 1.41397 15.1646 1.16696 15 1.16696C14.8353 1.16696 14.7735 1.41397 14.7735 1.66099C14.7735 2.25798 15 3.57548 15 3.57548C15 3.57548 15.2264 2.26484 15.2264 1.66099Z" fill="#CE1126"/>
<path d="M14.513 3.60295C14.513 3.60295 14.6296 2.27176 14.5747 1.67478C14.5542 1.42775 14.465 1.18758 14.3071 1.20131C14.1424 1.21503 14.1013 1.46892 14.1219 1.71594C14.1699 2.31293 14.513 3.60295 14.513 3.60295Z" fill="#CE1126"/>
<path d="M14.0325 3.66466C14.0325 3.66466 14.0325 2.32656 13.9295 1.74331C13.8884 1.50314 13.7786 1.26986 13.6208 1.29731C13.4561 1.32476 13.4424 1.57862 13.4835 1.82564C13.5796 2.40204 14.0325 3.66466 14.0325 3.66466Z" fill="#CE1126"/>
<path d="M13.5593 3.76767C13.5593 3.76767 13.4426 2.43649 13.2848 1.8601C13.2231 1.61993 13.0927 1.40032 12.9349 1.44149C12.777 1.48266 12.777 1.73657 12.8388 1.97674C13.0035 2.55313 13.5593 3.76767 13.5593 3.76767Z" fill="#CE1126"/>
<path d="M13.0993 3.91173C13.0993 3.91173 12.866 2.59426 12.6602 2.03159C12.5778 1.79829 12.4269 1.59243 12.2759 1.64733C12.1181 1.70908 12.1456 1.9561 12.2279 2.1894C12.4338 2.75893 13.0993 3.91173 13.0993 3.91173Z" fill="#CE1126"/>
<path d="M12.6533 4.09699C12.6533 4.09699 12.3033 2.80697 12.0494 2.26489C11.9465 2.03845 11.7818 1.84631 11.6309 1.91493C11.4799 1.98355 11.5279 2.2306 11.6309 2.45704C11.8916 3.00599 12.6533 4.09699 12.6533 4.09699Z" fill="#CE1126"/>
<path d="M12.2213 4.32344C12.2213 4.32344 11.7616 3.06771 11.4596 2.55307C11.3361 2.34035 11.1577 2.16197 11.0136 2.23745C10.8695 2.31979 10.9381 2.5668 11.0616 2.77952C11.3636 3.29416 12.2213 4.32344 12.2213 4.32344Z" fill="#CE1126"/>
<path d="M11.8161 4.58417C11.8161 4.58417 11.2466 3.36964 10.9035 2.88245C10.7594 2.68345 10.5673 2.51189 10.4369 2.60796C10.2997 2.70402 10.3889 2.94421 10.533 3.1432C10.8692 3.63725 11.8161 4.58417 11.8161 4.58417Z" fill="#CE1126"/>
<path d="M11.4322 4.87925C11.4322 4.87925 10.7597 3.72648 10.3755 3.26674C10.2176 3.08147 10.0118 2.93049 9.88141 3.04028C9.7579 3.14321 9.86082 3.37652 10.0255 3.56179C10.4098 4.01467 11.4322 4.87925 11.4322 4.87925Z" fill="#CE1126"/>
<path d="M11.0754 5.20869C11.0754 5.20869 10.3069 4.11764 9.88149 3.69221C9.70995 3.52066 9.49036 3.39028 9.37371 3.50693C9.25706 3.62358 9.38744 3.84315 9.55898 4.0147C9.97756 4.43327 11.0754 5.20869 11.0754 5.20869Z" fill="#CE1126"/>
<path d="M9.13352 4.50873C9.59327 4.89299 10.7461 5.56544 10.7461 5.56544C10.7461 5.56544 9.88147 4.54303 9.42859 4.15877C9.23645 4.00095 9.01001 3.89114 8.90708 4.01466C8.79729 4.14503 8.94139 4.34405 9.13352 4.50873Z" fill="#CE1126"/>
<path d="M8.74883 5.03709C9.24288 5.38018 10.4506 5.94968 10.4506 5.94968C10.4506 5.94968 9.50364 5.00274 9.00958 4.65965C8.80373 4.52241 8.57043 4.43324 8.47436 4.56362C8.38516 4.70085 8.54984 4.89299 8.74883 5.03709Z" fill="#CE1126"/>
<path d="M8.41951 5.59287C8.94101 5.89479 10.1899 6.34766 10.1899 6.34766C10.1899 6.34766 9.16059 5.48993 8.64595 5.19487C8.43323 5.07136 8.1862 5.00274 8.10386 5.14683C8.02152 5.2978 8.20679 5.46936 8.41951 5.59287Z" fill="#CE1126"/>
<path d="M8.13821 6.18303C8.6803 6.43692 9.97033 6.78001 9.97033 6.78001C9.97033 6.78001 8.87243 6.01836 8.33035 5.76447C8.1039 5.66154 7.85688 5.61351 7.78826 5.76447C7.71965 5.91543 7.91177 6.08011 8.13821 6.18303Z" fill="#CE1126"/>
<path d="M7.90516 6.7938C8.46783 6.99965 9.78531 7.23292 9.78531 7.23292C9.78531 7.23292 8.62565 6.56735 8.06297 6.3615C7.82967 6.27916 7.57579 6.25171 7.52089 6.40954C7.466 6.5605 7.67185 6.71146 7.90516 6.7938Z" fill="#CE1126"/>
<path d="M7.31507 7.0682C7.2739 7.22602 7.49348 7.34954 7.73365 7.41816C7.94636 7.47306 8.26887 7.52797 8.57765 7.56914H9.37363C8.9825 7.3976 8.26201 7.08191 7.8503 6.97212C7.61013 6.91723 7.35625 6.91038 7.31507 7.0682Z" fill="#CE1126"/>
<path d="M15.8788 1.71594C15.8993 1.46892 15.8582 1.21503 15.6935 1.20131C15.5288 1.18758 15.4465 1.42775 15.419 1.67478C15.3641 2.27176 15.4808 3.60295 15.4808 3.60295C15.4808 3.60295 15.8239 2.31293 15.8788 1.71594Z" fill="#CE1126"/>
<path d="M16.3795 1.29054C16.2148 1.26309 16.1119 1.49641 16.0707 1.73657C15.9678 2.32669 15.9609 3.65788 15.9609 3.65788C15.9609 3.65788 16.4138 2.40216 16.5167 1.81204C16.5648 1.57188 16.5442 1.32484 16.3795 1.29054Z" fill="#CE1126"/>
<path d="M17.148 1.97674C17.2097 1.73657 17.2166 1.48266 17.0519 1.44149C16.8941 1.40032 16.7706 1.61993 16.702 1.8601C16.5441 2.43649 16.4275 3.76767 16.4275 3.76767C16.4275 3.76767 16.997 2.55313 17.148 1.97674Z" fill="#CE1126"/>
<path d="M17.7655 2.19627C17.8479 1.96297 17.8753 1.70905 17.7175 1.65416C17.5597 1.59926 17.4224 1.81198 17.3332 2.03842C17.1274 2.60109 16.8941 3.9186 16.8941 3.9186C16.8941 3.9186 17.5597 2.75894 17.7655 2.19627Z" fill="#CE1126"/>
<path d="M18.3622 2.46384C18.4652 2.2374 18.5132 1.99035 18.3622 1.92173C18.2113 1.85311 18.0535 2.04525 17.9437 2.27169C17.6898 2.81378 17.3398 4.10379 17.3398 4.10379C17.3398 4.10379 18.1084 3.00593 18.3622 2.46384Z" fill="#CE1126"/>
<path d="M18.9319 2.77952C19.0554 2.55994 19.124 2.31979 18.9799 2.23745C18.8358 2.15511 18.6574 2.34035 18.5339 2.55307C18.232 3.07457 17.7722 4.32344 17.7722 4.32344C17.7722 4.32344 18.63 3.29416 18.9319 2.77952Z" fill="#CE1126"/>
<path d="M19.467 3.14324C19.6111 2.94425 19.7003 2.70407 19.5631 2.608C19.4258 2.51193 19.2337 2.67664 19.0896 2.88249C18.7465 3.36968 18.177 4.58422 18.177 4.58422C18.177 4.58422 19.1239 3.6373 19.467 3.14324Z" fill="#CE1126"/>
<path d="M18.5683 4.87925C18.5683 4.87925 19.5907 4.02153 19.975 3.56179C20.1328 3.37652 20.2426 3.14321 20.1191 3.04028C19.9887 2.93049 19.7897 3.08147 19.6319 3.26674C19.2408 3.71962 18.5683 4.87925 18.5683 4.87925Z" fill="#CE1126"/>
<path d="M18.925 5.20869C18.925 5.20869 20.0161 4.44013 20.4415 4.0147C20.6131 3.84315 20.7434 3.61672 20.6268 3.50693C20.5101 3.39028 20.2905 3.52066 20.119 3.69221C19.6936 4.11078 18.925 5.20869 18.925 5.20869Z" fill="#CE1126"/>
<path d="M19.2476 5.5586C19.2476 5.5586 20.4004 4.89302 20.8602 4.50189C21.0523 4.34407 21.1964 4.13823 21.0866 4.00786C20.9837 3.88435 20.7504 3.99411 20.5651 4.15193C20.1122 4.54306 19.2476 5.5586 19.2476 5.5586Z" fill="#CE1126"/>
<path d="M19.5425 5.94964C19.5425 5.94964 20.7502 5.38014 21.2442 5.03705C21.4501 4.89295 21.6079 4.70081 21.5187 4.56358C21.4226 4.42634 21.1893 4.51551 20.9835 4.65961C20.4963 5.0027 19.5425 5.94964 19.5425 5.94964Z" fill="#CE1126"/>
<path d="M19.8037 6.35459C19.8037 6.35459 21.0594 5.89482 21.5741 5.59976C21.7868 5.47624 21.9721 5.29786 21.8829 5.15376C21.8005 5.00966 21.5604 5.07829 21.3408 5.2018C20.833 5.49686 19.8037 6.35459 19.8037 6.35459Z" fill="#CE1126"/>
<path d="M20.0298 6.78686C20.0298 6.78686 21.3199 6.43691 21.8619 6.18988C22.0884 6.08695 22.2805 5.92224 22.2119 5.77128C22.1433 5.62032 21.8963 5.66835 21.6698 5.77128C21.1277 6.0183 20.0298 6.78686 20.0298 6.78686Z" fill="#CE1126"/>
<path d="M20.2154 7.23292C20.2154 7.23292 21.5328 6.99965 22.0955 6.7938C22.3288 6.71146 22.5347 6.56736 22.4798 6.40954C22.4249 6.25171 22.171 6.27916 21.9377 6.3615C21.375 6.56735 20.2154 7.23292 20.2154 7.23292Z" fill="#CE1126"/>
<path d="M22.267 7.42497C22.5072 7.35635 22.7267 7.23283 22.6856 7.07501C22.6444 6.91719 22.3905 6.91718 22.1503 6.97893C21.7386 7.08872 21.0181 7.40436 20.627 7.57591H21.423C21.7386 7.52788 22.0543 7.47987 22.267 7.42497Z" fill="#CE1126"/>
<path d="M15.0004 4.28235C12.8663 4.28235 11.0617 5.66161 10.4167 7.5692H19.5841C18.9322 5.66161 17.1275 4.28235 15.0004 4.28235Z" fill="#CE1126"/>
</svg>
