<svg width="30" height="30" viewBox="0 0 30 30" fill="none" xmlns="http://www.w3.org/2000/svg">
<path d="M7.01141 27.6875H22.989C24.0249 27.0358 24.9716 26.2537 25.8154 25.3824H4.18497C5.02878 26.2606 5.98237 27.0358 7.01141 27.6875Z" fill="white"/>
<path d="M0.411796 18.4583H29.5954C29.7738 17.7106 29.8904 16.9422 29.9522 16.1533H0.055069C0.116811 16.9422 0.233429 17.7106 0.411796 18.4583Z" fill="white"/>
<path d="M2.36698 23.0763H27.6334C28.0999 22.3492 28.5046 21.574 28.8477 20.7713H1.15271C1.49572 21.574 1.90048 22.3492 2.36698 23.0763Z" fill="white"/>
<path d="M22.9959 2.30606H7.01829C5.98239 2.95779 5.03567 3.73299 4.19186 4.6111H25.8223C24.9785 3.73299 24.0249 2.95779 22.9959 2.30606Z" fill="white"/>
<path d="M1.15976 20.7639H28.8547C29.1634 20.023 29.4104 19.2547 29.5956 18.4589H0.411987C0.597215 19.2547 0.851043 20.0299 1.15976 20.7639Z" fill="#DC241F"/>
<path d="M4.18513 25.3819H25.8156C26.4948 24.6753 27.1053 23.9001 27.6336 23.0769H2.36716C2.90227 23.907 3.50597 24.6753 4.18513 25.3819Z" fill="#DC241F"/>
<path d="M15.0038 30C17.94 30 20.6772 29.1493 22.996 27.6949H7.01839C9.3303 29.1493 12.0676 30 15.0038 30Z" fill="#DC241F"/>
<path d="M0.411987 11.5347H29.5956C29.4104 10.739 29.1566 9.97062 28.8478 9.22971H1.1529C0.844186 9.97062 0.597215 10.739 0.411987 11.5347Z" fill="#DC241F"/>
<path d="M0.00721741 15.0002C0.00721741 15.3912 0.0278033 15.7754 0.0552444 16.1527H29.9523C29.9798 15.7686 30.0004 15.3844 30.0004 15.0002C30.0004 14.6092 29.9798 14.225 29.9523 13.8477H0.0552444C0.0278033 14.225 0.00721741 14.6092 0.00721741 15.0002Z" fill="#DC241F"/>
<path d="M4.18513 4.61163C3.50597 5.31824 2.89541 6.09349 2.36716 6.91672H27.6336C27.1053 6.08663 26.4948 5.31824 25.8156 4.61163H4.18513Z" fill="#DC241F"/>
<path d="M15.0038 0.000488281C12.0676 0.000488281 9.33038 0.844292 7.0116 2.30553H22.9892C20.6773 0.844292 17.94 0.000488281 15.0038 0.000488281Z" fill="#DC241F"/>
<path d="M0.055069 13.8472H29.9522C29.8904 13.0582 29.7738 12.2899 29.5954 11.5421H0.411796C0.233429 12.283 0.116811 13.0582 0.055069 13.8472Z" fill="white"/>
<path d="M1.15271 9.22912H28.8477C28.5115 8.4196 28.0999 7.65126 27.6334 6.92407H2.36698C1.90048 7.65126 1.49572 8.4196 1.15271 9.22912Z" fill="white"/>
<path d="M14.9897 0.000427246C6.70935 0.0072891 0 6.71817 0 15.0004C0 15.3984 0.0205754 15.7827 0.0480165 16.1738H14.9828V0.000427246H14.9897Z" fill="#0035AD"/>
<path d="M7.78662 12.7703C5.92063 12.7703 4.41136 11.2539 4.41136 9.38746C4.41136 7.52103 5.92749 6.01144 7.78662 6.01144C8.33544 6.01144 8.84997 6.14179 9.3096 6.37509C8.65788 5.86732 7.84837 5.5654 6.96339 5.5654C4.85042 5.5654 3.14222 7.28087 3.14222 9.38746C3.14222 11.5009 4.85728 13.2164 6.96339 13.2164C7.84837 13.2164 8.66474 12.9145 9.3096 12.4067C8.84997 12.64 8.33544 12.7703 7.78662 12.7703Z" fill="#FFD100"/>
<path d="M10.8054 6.18289L11.0798 8.20028L12.198 6.49851L11.5669 8.43356L13.3163 7.39058L11.9099 8.85899L13.9337 8.68062L12.0265 9.38737L13.9337 10.1079L11.9099 9.92261L13.3163 11.391L11.5669 10.348L12.198 12.2831L11.0798 10.5882L10.8054 12.5987L10.531 10.5882L9.41278 12.2831L10.0439 10.348L8.29455 11.391L9.70091 9.92261L7.67712 10.1079L9.57742 9.38737L7.67712 8.68062L9.70091 8.85899L8.29455 7.39058L10.0439 8.43356L9.41278 6.49851L10.531 8.20028L10.8054 6.18289Z" fill="#FFD100"/>
</svg>
