<svg width="30" height="30" viewBox="0 0 30 30" fill="none" xmlns="http://www.w3.org/2000/svg">
<path d="M3.19091 24.2355C5.93565 27.7427 10.1969 30.0007 14.9933 30.0007C21.2993 30.0007 26.6859 26.1092 28.9023 20.5978H7.93932L3.19091 24.2355Z" fill="#FCE100"/>
<path d="M15.2609 15.0042L9.33913 19.5409H29.3002C29.7531 18.1133 30.0002 16.5896 30.0002 15.0042C30.0002 13.4256 29.7531 11.9019 29.3002 10.4675H9.33228L15.2609 15.0042Z" fill="black"/>
<path d="M28.9091 9.40362C26.6859 3.89229 21.3062 0.000762939 15.0002 0.000762939C10.2037 0.000762939 5.94254 2.26567 3.1978 5.76601L7.9462 9.40362H28.9091Z" fill="#007168"/>
<path d="M29.1013 9.932C29.0395 9.75359 28.9778 9.57517 28.9092 9.40363H7.94621L8.63926 9.932L9.33231 10.4672H29.2934C29.2385 10.282 29.1699 10.1104 29.1013 9.932Z" fill="white"/>
<path d="M9.33909 19.534L8.64605 20.0693L7.953 20.6045H28.9159C28.9846 20.4329 29.0463 20.2477 29.1081 20.0693C29.1698 19.8909 29.2453 19.7193 29.3002 19.534H9.33909Z" fill="white"/>
<path d="M3.1909 5.76602C2.32631 6.86417 1.61954 8.08585 1.08432 9.40363C1.0157 9.57521 0.953945 9.76054 0.892189 9.93213C0.830432 10.1106 0.754952 10.2822 0.700058 10.4675C0.247176 11.8951 0.000146211 13.4188 0.000146211 15.0042C0.000146211 16.5828 0.247176 18.1065 0.700058 19.5409C0.754952 19.7262 0.830432 19.8978 0.892189 20.0763C0.953945 20.2547 1.0157 20.4332 1.08432 20.6116C1.61268 21.9294 2.32631 23.1511 3.1909 24.2492L15.254 15.0111L3.1909 5.76602Z" fill="#CF142B"/>
<path d="M5.18086 10.8175L6.217 14.009H9.57931L6.86201 15.9925L7.90502 19.184L5.18086 17.2142L2.46357 19.184L3.49971 15.9925L0.782417 14.009H4.14472L5.18086 10.8175Z" fill="#FCE100"/>
<path d="M9.24341 11.1606H9.25696V11.1741C9.25018 11.1741 9.24341 11.1741 9.24341 11.1606Z" fill="white"/>
<path d="M5.9427 13.7481C5.96329 13.7138 5.96328 13.6863 5.97015 13.652C6.07994 13.5559 6.18972 13.4598 6.29951 13.3637C6.38185 13.3912 6.44362 13.4461 6.49165 13.5147C6.50538 13.5285 6.51223 13.549 6.52595 13.5422C6.54654 13.5353 6.56027 13.5216 6.56713 13.5079C6.82102 13.2951 7.07491 13.0823 7.32193 12.8627C7.37683 12.8215 7.43172 12.7735 7.48662 12.7323C7.50721 12.7392 7.53465 12.7529 7.5621 12.7529C7.60327 12.7597 7.64443 12.7529 7.67188 12.7254C8.20024 12.2175 8.73547 11.7097 9.26384 11.2018V11.1743C9.25011 11.1743 9.25011 11.1743 9.25011 11.1606H9.23639C9.1815 11.1949 9.13346 11.2361 9.07856 11.2704C8.56392 11.6342 8.05615 11.9979 7.54152 12.3548C7.52779 12.3686 7.51406 12.3754 7.50034 12.3823C7.48661 12.3754 7.47976 12.3685 7.46604 12.3617C7.47976 12.3342 7.50034 12.3068 7.49348 12.2725C7.48662 12.245 7.4729 12.2175 7.44545 12.1901C7.418 12.1626 7.37683 12.1626 7.34252 12.1832C7.30135 12.2038 7.2739 12.2381 7.24645 12.2656C7.18469 12.2381 7.12294 12.2176 7.06805 12.1832C7.02688 12.1558 6.99257 12.1283 6.97198 12.0871C6.96512 12.0871 6.95826 12.0803 6.9514 12.0803C6.94453 12.0803 6.93767 12.0803 6.92394 12.0871C6.91708 12.1215 6.91708 12.1695 6.91708 12.2038C6.91022 12.2587 6.91022 12.3136 6.90336 12.3685C6.75926 12.5058 6.61516 12.6362 6.47793 12.7666C6.36128 12.7597 6.25148 12.7529 6.14169 12.7529C5.98387 12.9039 5.83291 13.0549 5.67509 13.199C5.66137 13.2127 5.64078 13.2265 5.63392 13.2539C5.62706 13.2814 5.62019 13.302 5.60647 13.3294C5.58588 13.3088 5.57216 13.2745 5.55157 13.2471C5.53099 13.2402 5.51727 13.2608 5.50355 13.2676C5.4212 13.35 5.33886 13.4392 5.24279 13.5147C5.23593 13.5216 5.22221 13.5353 5.21535 13.5216C4.94774 13.2196 4.68012 12.9245 4.41937 12.6225C4.4331 12.5744 4.44682 12.5195 4.46054 12.4715C4.4674 12.4578 4.45368 12.444 4.44682 12.4372C4.28213 12.2587 4.11745 12.0734 3.9459 11.8949C3.92532 11.8675 3.89787 11.8675 3.87042 11.8606C3.76063 11.8332 3.64398 11.8332 3.54791 11.8881C3.45871 11.9362 3.40382 12.0185 3.37637 12.1077C3.36265 12.1489 3.35578 12.1969 3.34206 12.2381C3.31461 12.245 3.29402 12.2587 3.26658 12.2587C3.17737 12.2656 3.08131 12.2518 2.99211 12.2381C2.96466 12.2381 2.93035 12.2244 2.90977 12.2313C2.84115 12.245 2.77939 12.2519 2.71077 12.2725C2.70391 12.2725 2.69705 12.2862 2.69018 12.2862C2.29906 12.8421 1.90794 13.3912 1.51681 13.9471C1.50995 13.9609 1.48936 13.9814 1.4825 14.002C1.4825 14.0226 1.49622 14.0363 1.50995 14.0432C1.72952 14.304 1.94224 14.5648 2.15496 14.8256C2.16182 14.8394 2.18927 14.8394 2.19613 14.8256C2.64901 14.256 3.09504 13.6863 3.54106 13.1235C3.55478 13.1029 3.57537 13.0892 3.57537 13.0686C3.58909 12.9245 3.59595 12.7872 3.60967 12.6499C3.67829 12.7323 3.74691 12.8078 3.81553 12.8833C3.82925 12.897 3.84298 12.9176 3.86356 12.9313C3.90474 12.9451 3.95277 12.9382 3.99394 12.9382C4.04197 12.9382 4.09 12.9313 4.13803 12.9108C4.30272 13.0892 4.4674 13.2745 4.63209 13.4598C4.72815 13.5696 4.83108 13.6726 4.92714 13.7893C4.88597 13.8236 4.85167 13.8579 4.81736 13.8991C4.80364 13.906 4.80363 13.9265 4.81049 13.9403C4.8448 13.9815 4.88598 14.0226 4.92028 14.0569C4.93401 14.0707 4.94087 14.0844 4.96145 14.0844C5.00263 14.0569 5.0438 14.0226 5.08497 14.002C5.09183 14.0157 5.0987 14.0226 5.10556 14.0295C5.05752 14.057 5.00949 14.105 4.96145 14.1324C4.87911 14.0844 4.78992 14.0089 4.77619 13.9059C4.76933 13.8853 4.78305 13.8579 4.76247 13.8442C4.74874 13.8373 4.73502 13.8373 4.72815 13.851C4.62523 13.9334 4.5223 14.0226 4.41937 14.1119C4.25469 14.1324 4.08314 14.153 3.91159 14.1873C3.75377 14.2148 3.59595 14.2423 3.44499 14.2903C3.40382 14.304 3.34892 14.3177 3.31461 14.3521C3.23227 14.4344 3.14993 14.5168 3.07445 14.5991C3.05386 14.6678 3.04014 14.7433 3.01955 14.8119C2.97152 15.0178 2.92349 15.2306 2.87546 15.4296C2.84801 15.4296 2.8137 15.4365 2.78625 15.4434C2.77253 15.4434 2.76566 15.4502 2.76566 15.4639C2.75194 15.5737 2.75195 15.6767 2.73822 15.7865C2.73822 15.8071 2.73135 15.8277 2.75194 15.8414C2.7588 15.8414 2.77253 15.8414 2.77939 15.8414C2.77253 15.8689 2.76567 15.8963 2.75881 15.9306C2.73822 15.9306 2.71077 15.9238 2.69704 15.9375C2.54608 16.0885 2.40199 16.2327 2.25103 16.3905C2.14124 16.3974 2.01086 16.4179 1.92166 16.4866C1.69522 16.6856 1.46877 16.8847 1.24233 17.0837C1.1943 17.1317 1.14627 17.1729 1.09824 17.2141V17.2278C1.1051 17.2484 1.12569 17.2622 1.13941 17.2759C1.29037 17.4543 1.44819 17.6396 1.59915 17.8181C1.65405 17.8936 1.79128 17.9005 1.84618 17.825C2.07262 17.5504 2.29906 17.2759 2.53236 17.0013C3.25286 17.0013 3.97335 17.0013 4.69384 17.0013C4.7556 17.0562 4.83108 17.0974 4.90656 17.1317C5.04379 17.1866 5.19476 17.2072 5.33886 17.166C5.47609 17.1317 5.60647 17.0631 5.71626 16.9876C5.74371 16.967 5.77802 16.9602 5.81233 16.9465C6.02504 16.8641 6.25834 16.8435 6.48479 16.8366C6.86219 16.8366 7.24645 16.8915 7.61013 16.9808C7.64444 16.9876 7.68561 17.0082 7.71992 16.9945C7.94636 17.2553 8.1728 17.5093 8.39238 17.7632C8.4061 17.7769 8.42669 17.7769 8.44042 17.77C8.49531 17.7426 8.55706 17.7152 8.59824 17.6671C8.63941 17.6191 8.64627 17.5573 8.65313 17.4955C8.65313 17.4818 8.65314 17.4612 8.64627 17.4543C8.42669 17.2073 8.20711 16.9533 7.99439 16.6993C7.98067 16.6788 7.97381 16.6513 7.96695 16.6239C7.76109 15.9512 7.55524 15.2786 7.34938 14.5991C7.34252 14.5923 7.34252 14.5786 7.33566 14.5717C7.26704 14.4962 7.19842 14.4207 7.12294 14.3452C7.10922 14.3246 7.08863 14.3177 7.06805 14.3109C6.97884 14.2697 6.88278 14.2285 6.77985 14.2079C6.48479 14.1256 6.16914 14.105 5.86722 14.1187C5.82605 14.1187 5.79174 14.1256 5.75057 14.1256C5.72999 14.0981 5.70254 14.0707 5.68195 14.0432C5.72998 13.9814 5.78488 13.9265 5.83977 13.8716C5.87408 13.8304 5.91526 13.7893 5.9427 13.7481ZM5.42807 13.7687C5.41434 13.7618 5.40747 13.7481 5.40061 13.7343C5.46923 13.6726 5.53785 13.6108 5.59961 13.5491C5.60647 13.5422 5.61333 13.5284 5.61333 13.5216C5.62019 13.5422 5.63392 13.5628 5.64078 13.5765C5.57902 13.6451 5.50355 13.7138 5.42807 13.7687Z" fill="black"/>
<path d="M3.87744 14.2286C4.03526 14.2012 4.19309 14.1806 4.35778 14.1531C4.33033 14.1737 4.30974 14.1943 4.28915 14.2149C4.28229 14.2355 4.27543 14.2629 4.27543 14.2835C4.06271 14.4688 3.84313 14.6472 3.62355 14.8256C3.49318 14.9285 3.36967 15.0383 3.23929 15.1412C3.30105 14.8736 3.36281 14.5992 3.42456 14.3316C3.56866 14.2835 3.71962 14.2561 3.87744 14.2286Z" fill="white"/>
<path d="M5.79881 14.1668C6.10073 14.1463 6.40952 14.16 6.70458 14.2286C6.82123 14.2561 6.93102 14.2904 7.03395 14.3453C7.04767 14.3521 7.06826 14.3522 7.07512 14.3727C7.19177 14.9285 7.31528 15.4844 7.43194 16.0402C7.2947 15.8823 7.15746 15.7245 7.02022 15.5667C6.61537 15.1069 6.20366 14.6335 5.79881 14.1668Z" fill="white"/>
<path d="M5.26358 14.3864C5.29789 14.3521 5.33221 14.3316 5.36652 14.2972C5.74392 14.7295 6.12132 15.155 6.49872 15.5873C6.72516 15.848 6.95846 16.1088 7.1849 16.3695C6.97219 16.3421 6.76633 16.3284 6.55362 16.3284C6.16935 16.3284 5.77822 16.3764 5.41455 16.5068C5.35279 16.5274 5.2979 16.5548 5.23614 16.5754C5.23614 16.493 5.23614 16.4107 5.23614 16.3284C5.23614 16.2117 5.23614 16.1019 5.23614 15.9853C5.37338 16.0196 5.51748 16.0402 5.65472 16.0196C5.68902 16.0127 5.73019 16.0059 5.75764 15.9853C5.77822 15.9715 5.77136 15.9441 5.77822 15.9167C5.79195 15.7451 5.79195 15.5736 5.79881 15.3952C5.79881 15.3746 5.79195 15.3609 5.77137 15.3609C5.59296 15.3403 5.42141 15.3128 5.243 15.2853C5.243 14.9972 5.243 14.7089 5.243 14.4207C5.25672 14.4207 5.24986 14.4002 5.26358 14.3864Z" fill="white"/>
<path d="M3.14325 14.5992C3.21187 14.5306 3.28735 14.4551 3.35597 14.3865C3.29421 14.6609 3.23245 14.9354 3.16384 15.2099C3.09522 15.2717 3.0266 15.3266 2.95112 15.3883C3.00602 15.1413 3.06777 14.8942 3.12952 14.6404C3.12952 14.6266 3.12953 14.6061 3.14325 14.5992Z" fill="white"/>
<path d="M7.13686 14.4277C7.1849 14.4757 7.23294 14.5306 7.28097 14.5787C7.28783 14.5924 7.30841 14.5992 7.30841 14.6198C7.5074 15.2786 7.70641 15.9304 7.9054 16.5892C7.76816 16.4313 7.63778 16.2804 7.50054 16.1294C7.49368 16.1226 7.48683 16.1157 7.48683 16.102C7.37017 15.5462 7.25352 14.9835 7.13686 14.4277Z" fill="white"/>
<path d="M4.87244 14.7227C4.98909 14.6267 5.09888 14.5306 5.21554 14.4345C5.21554 14.5237 5.20867 14.613 5.21554 14.6953C5.21554 14.8943 5.21554 15.1001 5.21554 15.2923C5.05771 15.2648 4.89989 15.2305 4.74207 15.1756C4.66659 15.1482 4.59797 15.1276 4.53621 15.0796C4.50876 15.0658 4.48132 15.0453 4.47445 15.011C4.46759 14.9561 4.47446 14.8943 4.50877 14.8463C4.57052 14.7777 4.65972 14.7433 4.74892 14.7365C4.75579 14.7227 4.76265 14.709 4.74892 14.6953C4.70775 14.6335 4.65972 14.5718 4.61855 14.51C4.61855 14.4894 4.62542 14.4757 4.62542 14.462C4.69403 14.5444 4.75579 14.6198 4.82441 14.7022C4.83813 14.7296 4.85872 14.7364 4.87244 14.7227Z" fill="white"/>
<path d="M4.27539 14.661C4.33029 14.6198 4.38519 14.5718 4.44008 14.5306C4.44008 14.5306 4.44008 14.5375 4.44008 14.5443C4.24109 14.7159 4.04895 14.8943 3.84996 15.0795C3.82938 15.1001 3.82938 15.1276 3.82252 15.1482C3.79507 15.1756 3.76762 15.1962 3.74017 15.2237C3.71958 15.2099 3.699 15.1894 3.68527 15.1825C3.67155 15.1825 3.66469 15.1893 3.65783 15.1962C3.39022 15.4364 3.1226 15.6765 2.84813 15.9098C2.84126 15.9098 2.8344 15.9167 2.82754 15.9167C2.84127 15.8687 2.84813 15.8138 2.86871 15.7657C3.12946 15.5462 3.39708 15.3266 3.65783 15.107C3.67155 15.1001 3.69214 15.0933 3.69214 15.0658C3.69214 15.0521 3.69214 15.0315 3.69214 15.0178C3.71959 15.0315 3.74017 15.0796 3.77448 15.0521C3.93916 14.9217 4.10385 14.7914 4.27539 14.661Z" fill="white"/>
<path d="M3.93922 15.5189C3.95294 15.4846 3.98039 15.4572 4.00097 15.4229C4.26859 15.5875 4.54992 15.7316 4.83125 15.8552C4.9479 15.9032 5.07143 15.9512 5.19494 15.9855C5.19494 16.1845 5.19494 16.3835 5.19494 16.5825C5.1126 16.5551 5.03025 16.5208 4.94104 16.5002C4.56364 16.3972 4.1588 16.3629 3.76767 16.3629C3.74023 16.2943 3.7265 16.2119 3.69905 16.1365C3.80198 16.0267 3.90491 15.91 4.0147 15.8002C4.03529 15.7728 4.06959 15.7591 4.06273 15.7248C4.02842 15.6493 3.98039 15.5875 3.93922 15.5189Z" fill="white"/>
<path d="M3.69907 15.6699C3.72651 15.6493 3.75396 15.6288 3.78141 15.6082C3.80885 15.6425 3.82944 15.67 3.85689 15.7043C3.80885 15.766 3.76769 15.8209 3.71279 15.8758C3.6579 15.8758 3.603 15.8758 3.54125 15.8758C3.43146 15.9719 3.32167 16.0748 3.21874 16.164C3.20502 16.1709 3.19815 16.1914 3.21187 16.2052C3.25304 16.2463 3.30108 16.2806 3.34225 16.3218C3.35597 16.3287 3.35597 16.3424 3.35597 16.3561C3.34911 16.3561 3.33539 16.3561 3.32853 16.3561C3.21188 16.363 3.09522 16.3699 2.97857 16.3904C2.98543 16.3699 2.98544 16.3424 2.98544 16.3218C3.18443 16.1434 3.38342 15.965 3.58242 15.7934C3.62359 15.7934 3.66476 15.8072 3.71279 15.8072C3.73338 15.8003 3.73337 15.7728 3.72651 15.7591C3.69906 15.7523 3.67162 15.7523 3.6579 15.7248C3.65104 15.7042 3.67848 15.6905 3.69907 15.6699Z" fill="white"/>
<path d="M6.10074 16.4112C6.23797 16.3975 6.37521 16.3838 6.51931 16.3838C6.56734 16.3769 6.61538 16.3838 6.67027 16.3838C6.8624 16.3906 7.06139 16.4043 7.24666 16.4318C7.39076 16.5965 7.54173 16.7611 7.67896 16.9258C7.34959 16.8435 7.01336 16.7886 6.67027 16.7749C6.42324 16.7612 6.16936 16.7749 5.92233 16.8366C5.84685 16.8572 5.77137 16.8847 5.69589 16.9258C5.5861 16.7955 5.442 16.6925 5.29104 16.617C5.55179 16.5072 5.8194 16.4455 6.10074 16.4112Z" fill="white"/>
<path d="M3.78139 16.4112C4.05587 16.4112 4.32348 16.4318 4.59109 16.473C4.61168 16.473 4.63226 16.4798 4.65285 16.4798C4.8244 16.5072 4.99595 16.5553 5.16063 16.617C5.00281 16.6994 4.84498 16.8023 4.72147 16.9327C4.57051 16.9327 4.42641 16.9327 4.27545 16.9327C3.82256 16.9327 3.36968 16.9327 2.9168 16.9327C2.80701 16.9327 2.69036 16.9327 2.57371 16.9327C2.66978 16.816 2.75898 16.6994 2.85505 16.5896C2.88936 16.5416 2.93739 16.4935 2.95797 16.4386C2.97856 16.4523 3.00601 16.4455 3.02659 16.4455C3.14325 16.4318 3.2599 16.4249 3.36969 16.4181C3.42458 16.5553 3.47262 16.6925 3.52065 16.8298C3.53437 16.8572 3.54123 16.8915 3.55495 16.919C3.56181 16.9327 3.58241 16.9327 3.59613 16.919C3.67847 16.8572 3.76767 16.8023 3.85001 16.7405C3.86374 16.7337 3.86373 16.7131 3.85687 16.6994C3.83629 16.6033 3.80884 16.5073 3.78139 16.4112Z" fill="white"/>
<path d="M5.20179 16.6651C5.21552 16.6583 5.22924 16.6514 5.2361 16.6583C5.39393 16.7337 5.53802 16.8298 5.64781 16.9602C5.53116 17.0425 5.39392 17.1043 5.24982 17.118C5.07827 17.1386 4.89301 17.0906 4.76949 16.9671C4.89301 16.8367 5.05083 16.7406 5.20179 16.6651Z" fill="white"/>
</svg>
