<svg width="30" height="30" viewBox="0 0 30 30" fill="none" xmlns="http://www.w3.org/2000/svg">
<path d="M15 0.000793457C6.71774 0.000793457 0 6.71853 0 15.0008C0 16.2428 0.164687 17.4505 0.452884 18.6033L23.9204 2.95825C21.4295 1.10555 18.3486 0.000793457 15 0.000793457Z" fill="#003580"/>
<path d="M15.0001 30.0008C23.2824 30.0008 30.0001 23.283 30.0001 15.0008C30.0001 13.7588 29.8286 12.5511 29.5472 11.3914L6.07972 27.0365C8.57057 28.8892 11.6515 30.0008 15.0001 30.0008Z" fill="#009543"/>
<path d="M23.9205 2.95825L0.453018 18.6033C0.555946 19.0356 0.679444 19.461 0.823543 19.8795L24.9498 3.79538C24.6204 3.50032 24.2773 3.22586 23.9205 2.95825Z" fill="white"/>
<path d="M6.07968 27.0364L29.5472 11.3914C29.4374 10.9591 29.3208 10.5337 29.1767 10.1151L5.0504 26.1993C5.37977 26.4944 5.72286 26.7688 6.07968 27.0364Z" fill="white"/>
<path d="M27.4818 6.67736C26.7682 5.60692 25.9105 4.64625 24.9567 3.79538L0.830429 19.8796C1.249 21.101 1.81854 22.2606 2.52531 23.3173C3.23894 24.3878 4.09666 25.3485 5.05046 26.1993L29.1767 10.1152C28.7513 8.89375 28.1886 7.73409 27.4818 6.67736Z" fill="#D21034"/>
<path d="M7.32188 8.55747C7.32188 9.47696 6.57394 10.2249 5.65445 10.2249C4.73497 10.2249 3.98703 9.47696 3.98703 8.55747C3.98703 7.63798 4.73497 6.89005 5.65445 6.89005C6.57394 6.89005 7.32188 7.63798 7.32188 8.55747Z" fill="#FFCE00"/>
<path d="M7.58253 9.07901L8.98235 8.5575L7.58253 8.04286L8.53634 6.89695L7.06104 7.15083L7.31493 5.67552L6.16899 6.62932L5.65435 5.22952L5.13971 6.62932L3.98693 5.67552L4.24081 7.15083L2.76552 6.89695L3.71931 8.04286L2.3195 8.5575L3.71931 9.07901L2.76552 10.2249L4.24081 9.97104L3.98693 11.4464L5.13971 10.4925L5.65435 11.8924L6.16899 10.4925L7.31493 11.4464L7.06104 9.97104L8.53634 10.2249L7.58253 9.07901ZM5.65435 10.5543C4.54959 10.5543 3.65755 9.65539 3.65755 8.55063C3.65755 7.44588 4.55646 6.55385 5.65435 6.55385C6.75911 6.55385 7.65115 7.44588 7.65115 8.55063C7.65115 9.66225 6.75911 10.5543 5.65435 10.5543Z" fill="#FFCE00"/>
</svg>
