<svg width="30" height="30" viewBox="0 0 30 30" fill="none" xmlns="http://www.w3.org/2000/svg">
<path d="M14.9999 30.0008C21.0521 30.0008 26.2602 26.412 28.6344 21.2519H1.36545C3.73279 26.412 8.94779 30.0008 14.9999 30.0008Z" fill="#0DB02B"/>
<path d="M14.9999 0.000762939C8.94779 0.000762939 3.73279 3.58951 1.36545 8.74963H28.6344C26.2671 3.58951 21.0521 0.000762939 14.9999 0.000762939Z" fill="#E05206"/>
<path d="M3.05176e-05 15.0008C3.05176e-05 17.2309 0.494077 19.3512 1.36553 21.2519H28.6345C29.506 19.3512 30 17.2309 30 15.0008C30 12.7707 29.5128 10.6572 28.6345 8.74963H1.36553C0.494077 10.6572 3.05176e-05 12.7707 3.05176e-05 15.0008Z" fill="white"/>
<path d="M19.8034 15.0008C19.8034 17.6495 17.6556 19.8041 15.0001 19.8041C12.3446 19.8041 10.1968 17.6563 10.1968 15.0008C10.1968 12.3521 12.3446 10.1975 15.0001 10.1975C17.6488 10.1975 19.8034 12.3521 19.8034 15.0008Z" fill="#E05206"/>
</svg>
