<svg width="30" height="30" viewBox="0 0 30 30" fill="none" xmlns="http://www.w3.org/2000/svg">
<g clip-path="url(#clip0_1_15550)">
<path d="M45 0.0010376H-15V30.001H45V0.0010376Z" fill="#007934"/>
<path d="M25 0.0010376H5V30.001H25V0.0010376Z" fill="white"/>
<path d="M15.2163 1.99506C15.1638 2.5627 15.1113 3.13062 15.0588 3.69827C14.8666 3.72724 14.6744 3.75608 14.4822 3.78504C14.4822 3.78504 14.8827 4.00993 14.9526 4.23583C14.9638 4.27201 14.9593 4.30195 14.9431 4.32448C14.9378 4.33152 14.9296 4.33934 14.9222 4.34523C14.8062 4.43438 14.4632 4.39238 14.4632 4.39238C14.4632 4.39238 14.9176 4.77582 14.9526 4.91484C14.9534 4.9181 14.9544 4.92113 14.9545 4.92428C14.9544 4.92688 14.955 4.93118 14.9545 4.93371C14.954 4.93571 14.9515 4.93929 14.9507 4.94126C14.9476 4.94808 14.942 4.95577 14.9355 4.962C14.8287 5.06069 14.3247 5.08838 14.3247 5.08838C14.3247 5.08838 14.8835 5.48679 14.9184 5.71269C14.9501 5.91741 14.9236 6.03732 14.9184 6.05785C14.8794 6.0245 13.9783 5.26729 13.3971 5.48824C13.3682 5.50328 13.351 5.51761 13.344 5.53162C13.3409 5.53861 13.3403 5.54732 13.3421 5.55425C13.3828 5.68021 14.2047 5.80923 14.7781 6.30497C14.7638 6.42902 13.144 5.91036 13.0842 6.23518C13.1348 6.32677 14.8274 6.57072 14.9526 6.79159C14.3293 6.81477 13.0415 6.65441 13.0842 6.8595C12.9539 7.09628 14.3004 6.96254 14.8653 7.15563C15.0309 7.34273 15.0149 7.49991 14.7269 7.51965C14.1824 7.26078 12.9638 7.06842 12.9608 7.39894C12.9609 7.39933 12.9608 7.40049 12.9608 7.40082C12.961 7.40121 12.9626 7.40239 12.9627 7.40271C12.9632 7.40375 12.9638 7.40553 12.9646 7.40648C12.9666 7.40834 12.9709 7.41042 12.9741 7.41214C13.1117 7.48079 14.2465 7.4473 14.6737 7.72902C14.068 7.86602 12.014 7.45107 12.001 7.65357C12.0595 7.74815 12.3845 8.16324 12.9438 8.14585C13.503 8.12847 14.7969 8.37195 14.8843 8.54571C14.8871 8.55114 14.887 8.55671 14.8862 8.5608C14.8483 8.68199 13.1823 8.19113 12.5417 8.4929C11.8776 8.80573 14.4459 8.61609 14.8653 8.99839C15.2848 9.38069 14.0269 8.96255 14.0269 8.96255C14.0269 8.96255 12.2802 8.72022 12.0181 8.84184C11.7559 8.96352 11.4585 9.2417 11.4585 9.2417C11.4585 9.2417 11.6328 9.58844 11.8075 9.51897C11.8342 9.50837 11.8524 9.50621 11.8625 9.50954C11.8628 9.50967 11.8642 9.50941 11.8644 9.50954C11.8647 9.50967 11.8661 9.5113 11.8664 9.51143C11.8667 9.51169 11.8679 9.51299 11.8683 9.51331C11.8685 9.5137 11.8698 9.51484 11.8701 9.5152C11.8703 9.51533 11.8719 9.51687 11.8721 9.51708C11.8728 9.51882 11.8737 9.52249 11.8739 9.52463C11.8781 9.57676 11.7544 9.72834 11.7544 9.72834C11.7544 9.72834 14.2022 10.318 14.7439 10.8393C15.2857 11.3606 11.6331 10.0225 11.6331 10.0225C11.6331 10.0225 10.165 10.5612 11.7203 10.5959C11.547 10.8481 11.7921 11.0033 11.8076 11.0128C11.8076 11.0128 14.3946 11.552 14.6567 11.969C14.9189 12.3861 12.8918 11.5687 12.4374 11.3428C11.999 11.1249 10.7788 11.4581 10.7093 11.5597C10.7088 11.5605 10.7078 11.5627 10.7074 11.5635C10.7073 11.5639 10.7076 11.565 10.7074 11.5654C10.7073 11.5662 10.7074 11.5685 10.7074 11.5692C10.7075 11.5696 10.7074 11.5707 10.7074 11.5711C10.7076 11.5715 10.7073 11.5726 10.7074 11.573C10.7076 11.5733 10.7092 11.5745 10.7093 11.5748C10.7094 11.5752 10.7092 11.5764 10.7093 11.5767C10.7101 11.5781 10.712 11.581 10.7131 11.5824C10.7134 11.5828 10.7147 11.5839 10.715 11.5843C10.7932 11.6699 11.3379 11.7879 11.3543 11.9351C11.3543 11.9357 11.3542 11.9364 11.3543 11.937C11.3545 11.9448 11.3521 11.9541 11.3486 11.9615C11.2799 12.0938 10.6301 12.15 10.6031 12.2746C10.6027 12.2767 10.6012 12.28 10.6012 12.2822C10.6012 12.4212 13.8702 13.0989 14.744 13.8288C15.6178 14.5586 12.1756 12.9592 12.1756 12.9592C12.1756 12.9592 12.3678 13.2198 12.1756 13.2893C11.9833 13.3588 11.3004 12.3163 10.1819 12.9592C9.97824 13.2238 11.1585 13.4337 11.4586 13.4628C11.3561 13.7248 11.2668 13.8114 11.6862 14.0721C11.7321 14.1006 11.7578 14.1178 11.7678 14.1268C11.768 14.127 11.7694 14.1284 11.7697 14.1287L11.7716 14.1305C11.7717 14.1307 11.7715 14.1323 11.7716 14.1324C11.7715 14.1326 11.7716 14.1342 11.7716 14.1343C11.7714 14.1344 11.7699 14.1343 11.7697 14.1343C11.7694 14.1343 11.7681 14.1344 11.7678 14.1343C11.7028 14.1242 10.9493 13.7392 10.8705 13.7231C10.8697 13.723 10.8673 13.7232 10.8667 13.7231C10.8665 13.7232 10.865 13.7231 10.8648 13.7231C10.8648 13.7579 10.9521 14.1758 10.9521 14.1758C10.5649 13.863 10.0968 13.7687 9.65843 14.0891C9.65778 14.1076 9.65457 14.4075 10.0947 14.5927C9.84664 15.0967 10.3751 14.9402 11.2139 15.4094C9.96722 15.0854 9.86737 15.6872 10.7587 15.8262C11.65 15.9652 14.0971 16.0523 14.6739 16.7995C14.7955 16.9571 14.8285 17.0363 14.8047 17.0616C14.7086 17.1483 13.8236 16.5119 13.6951 16.4882C13.6948 16.4884 13.6934 16.488 13.6932 16.4882C13.6929 16.4885 13.6915 16.4898 13.6913 16.4901C13.6896 16.4922 13.6872 16.4962 13.6856 16.4996C13.6542 16.5687 13.6249 16.8692 13.6249 16.8692C13.252 16.6547 12.9099 16.4622 12.464 16.3713C12.429 16.4408 12.4364 16.5395 12.4014 16.609C11.9967 16.3188 11.6442 16.1147 11.0565 16.0865C11.0332 16.1792 11.0096 16.2729 10.9863 16.3656C10.9863 16.3656 10.4964 15.7574 9.53514 16.3656C8.99843 16.7482 11.5627 16.5042 11.9821 16.956C12.4015 17.4078 12.0694 17.4766 12.0694 17.4766C11.7198 17.3492 11.3718 17.223 11.0223 17.0956C11.0223 17.0956 9.78029 16.8685 9.43079 17.1465C9.08128 17.4246 14.5336 18.1025 14.6908 18.8497C14.7969 19.255 13.4098 18.4254 12.2097 18.0689C12.1633 18.2015 12.1158 18.3342 12.0693 18.4669C12.0409 18.4389 11.5766 17.9899 11.0564 17.9123C11.0563 17.9126 11.0546 17.9138 11.0545 17.9142C11.0544 17.9149 11.0545 17.9171 11.0545 17.918C11.0553 17.975 11.1607 18.382 11.1607 18.382C11.1607 18.382 9.81638 17.7557 9.13485 18.0859C8.45327 18.416 11.5109 18.5897 11.7905 18.9026C11.8211 18.9368 11.8338 18.9617 11.8322 18.978C11.8317 18.9809 11.8298 18.9851 11.8284 18.9875C11.7609 19.0858 10.8491 18.7226 10.7586 18.9026C10.6537 19.1111 9.16862 18.5208 9.18609 18.7988C9.20358 19.0769 9.39665 19.2327 9.39665 19.2327C9.39665 19.2327 12.4899 19.5279 12.5948 19.8928C12.6996 20.2577 10.8819 19.6853 10.8819 19.6853C10.8819 19.6853 10.7061 19.9447 10.8459 20.0663C10.8513 20.0711 10.8557 20.0756 10.8572 20.0776C10.8573 20.0777 10.8572 20.0794 10.8572 20.0795C10.8571 20.0795 10.8556 20.0796 10.8553 20.0795C10.7922 20.0588 9.8073 19.4174 9.9031 19.9098C9.51771 19.7572 8.52271 19.2846 8.66253 19.6495C8.80027 20.009 11.3955 20.521 11.4718 20.536C11.4032 20.5413 10.3057 20.6326 10.3565 20.9189C8.88551 20.0278 8.88897 20.5621 8.92243 20.6039C8.92249 20.6039 8.92237 20.6057 8.92243 20.6058C8.83979 20.5928 7.03008 20.1445 8.46907 20.9189C9.24078 21.3341 9.42887 21.496 9.43272 21.5583C9.43274 21.5596 9.43285 21.5626 9.43272 21.5639C9.43246 21.5656 9.4314 21.5681 9.43083 21.5696C9.4307 21.57 9.42912 21.5711 9.42892 21.5715C9.42827 21.5725 9.42775 21.5743 9.42703 21.5752C9.42677 21.5755 9.4254 21.5768 9.42513 21.5771C9.42487 21.5774 9.42354 21.5788 9.42322 21.579C9.42296 21.5793 9.42166 21.5807 9.42133 21.5809C9.42094 21.5812 9.41979 21.5826 9.41943 21.5828C9.38951 21.6018 9.31722 21.5939 9.29613 21.5941C9.29522 21.5942 9.29299 21.5941 9.29233 21.5941C9.29194 21.5943 9.29051 21.5958 9.29044 21.596L9.29233 21.5979C9.31286 21.6283 9.42577 21.9347 9.41942 21.9883C9.41929 21.9893 9.41775 21.9914 9.41752 21.9921C9.41739 21.9924 9.41765 21.9937 9.41752 21.994C9.41746 21.9941 9.41572 21.9939 9.41561 21.994C9.41548 21.9941 9.41574 21.9958 9.41561 21.9959C9.41548 21.9959 9.41385 21.9959 9.41371 21.9959C9.41358 21.9959 9.41201 21.9959 9.4118 21.9959C9.34874 21.9801 8.39565 21.4736 8.06878 21.4395C7.73669 21.4047 6.16346 21.8734 7.84115 22.6032C9.51885 23.333 10.5494 22.4291 11.4756 22.5334C12.4018 22.6377 12.8395 22.7944 12.7522 23.0898C12.6648 23.3852 11.8047 22.1214 10.9008 23.2143C9.87261 23.012 9.17505 22.8949 9.70579 23.6463C8.02663 23.0223 7.00122 23.8366 9.11585 24.1668C11.1938 24.2277 12.4714 23.6632 12.4714 23.6632C12.4714 23.6632 12.822 24.3075 13.3288 23.8556C13.8119 23.425 13.8499 23.973 13.8675 24.0254C13.8678 24.0262 13.8692 24.0268 13.8695 24.0273C13.8696 24.0274 13.8693 24.0291 13.8695 24.0292C13.8696 24.0292 13.8711 24.0292 13.8713 24.0292C13.9087 24.0198 14.3588 23.8198 14.3588 23.8198C14.3996 23.8198 14.4413 23.8198 14.4821 23.8198V27.9901C15.0472 27.9958 15.611 28.0012 16.176 28.007C16.176 28.007 15.6343 24.3761 15.9313 23.8896C16.2192 23.4183 16.4913 23.4691 16.508 23.4728C16.508 23.4728 17.6092 23.8022 17.7315 23.75C17.7329 23.7494 17.7358 23.7489 17.7372 23.7481C17.7381 23.7476 17.7401 23.7468 17.741 23.7462C17.7431 23.7449 17.7466 23.7421 17.7486 23.7406C17.7489 23.7403 17.7501 23.739 17.7505 23.7387C17.84 23.6575 17.7488 23.3369 18.3081 23.386C18.4809 23.3235 18.415 23.0497 18.5263 22.9823C18.5283 22.9812 18.5318 22.9796 18.5339 22.9786C18.5381 22.9766 18.5444 22.9743 18.5491 22.9729C18.5556 22.9711 18.5643 22.9699 18.5718 22.9691C18.7466 22.9518 22.1191 23.9067 22.8531 23.0031C22.6608 22.4992 21.9959 22.9687 21.8211 22.9861C21.6639 22.9861 20.9993 22.6734 20.6148 22.9861C20.2652 22.7255 18.6761 22.5523 18.6761 22.5523C18.4664 22.3438 22.4684 22.6559 22.6956 22.4995C23.1674 22.0303 21.8222 22.0828 21.6124 22.2392C21.2396 22.0133 20.7711 22.03 20.4857 22.1864C20.3488 21.8608 19.0493 22.0018 18.3271 21.9091C18.0958 21.7743 18.1343 21.6969 18.291 21.613C19.7998 21.6767 21.3009 21.8726 22.817 21.8054C23.2268 21.2742 22.3011 21.0738 21.7338 21.5262C21.4008 20.9817 20.72 21.5085 20.2657 21.4565C19.8113 21.4043 20.021 20.849 20.5976 20.9359C21.1743 21.0228 22.2056 20.9004 22.3978 20.6397C22.5899 20.3791 22.283 20.1151 21.3317 20.3625C21.0097 20.0496 20.3018 20.362 19.9697 20.4662C19.5279 20.2212 18.5001 20.4321 18.1506 20.519C17.8084 20.3075 19.9507 19.9626 19.9507 19.9626C20.7776 19.9481 21.2441 19.8058 21.5062 19.7363C22.7563 19.0701 21.4888 18.9993 20.8328 19.4835C20.4256 19.1675 20.0389 19.5109 19.6719 19.6326C19.3279 19.7466 18.6916 19.8296 18.6134 19.7966C18.6125 19.7963 18.6104 19.7952 18.6097 19.7948C18.6095 19.7946 18.6079 19.793 18.6077 19.7929L18.6059 19.791C18.6058 19.7908 18.6059 19.7893 18.6059 19.7891C18.6059 19.789 18.6058 19.7874 18.6059 19.7872C18.6061 19.7864 18.6072 19.7843 18.6077 19.7834C18.6593 19.704 19.6017 19.1289 19.6017 19.1289C19.6017 19.1289 20.8252 19.0411 21.0699 19.0063C21.219 18.9851 21.7416 18.7391 21.7414 18.6479C21.737 18.5913 21.5193 18.5965 20.8593 18.763C20.2651 18.8151 19.9161 18.7814 19.6889 18.7988C19.3235 18.7613 19.1696 18.723 19.1388 18.6894C19.1377 18.688 19.1358 18.6852 19.135 18.6838C19.1325 18.6777 19.1341 18.6707 19.1388 18.6649C19.14 18.6636 19.143 18.6606 19.1445 18.6592C19.2341 18.5881 19.8122 18.5366 19.8122 18.5366C19.8122 18.5366 21.5772 18.3757 21.6939 18.2839C21.6943 18.2835 21.6955 18.2824 21.6958 18.282C21.6965 18.2812 21.6973 18.279 21.6977 18.2782C21.6979 18.2778 21.6995 18.2767 21.6996 18.2764C21.7359 17.5588 20.2023 17.8902 20.1613 17.8953C20.1657 17.3908 18.7771 17.8879 18.7121 17.8953C18.712 17.8953 18.7103 17.8954 18.7102 17.8953C18.6504 17.8604 18.6244 17.8234 18.6191 17.7897C18.6174 17.7769 18.6191 17.7624 18.6229 17.7501C18.6577 17.6461 18.8676 17.5653 18.8676 17.5653C19.2521 17.4726 19.827 17.4437 19.9773 17.322C19.9773 17.322 21.0624 17.3125 21.1913 17.0258C20.925 16.2953 18.8948 17.1551 18.6229 17.2861C18.5684 17.2861 18.5351 17.2725 18.5186 17.2503C18.4293 17.1206 18.8699 16.6935 18.8847 16.6788C18.8848 16.6787 18.8862 16.677 18.8866 16.6769C18.9537 16.658 20.5747 16.5755 21.3487 15.532C21.4034 14.8868 20.423 15.896 20.423 15.896C20.3498 15.0592 19.3571 15.9491 18.7803 16.0186C18.2037 16.0881 18.1868 15.7577 18.5888 15.7055C18.9907 15.6534 19.4447 15.6875 19.6719 15.0793C19.899 14.4711 20.5815 15.1147 20.7038 14.8888C20.8223 14.67 20.4805 14.4834 20.4591 14.472C20.4591 14.472 20.9656 13.9491 20.1442 13.9665C19.3312 13.9837 18.28 13.8652 18.2587 13.8628C18.3097 13.8434 19.1379 13.5328 19.9166 13.5497C20.7206 13.5671 20.2834 12.9763 19.5145 12.9763C18.7456 12.9763 18.3441 12.716 18.3441 12.716C18.781 12.5538 19.2179 12.3915 19.6548 12.2294C19.6257 12.1077 19.5967 11.987 19.5676 11.8653C19.5676 11.8653 20.3362 11.2567 19.2527 11.3957C18.1692 11.5348 18.0463 11.5522 18.0463 11.5522C18.0463 11.5522 15.9134 11.8772 15.863 11.8823C15.8628 11.8823 15.8613 11.8823 15.8611 11.8823C15.8404 11.8791 15.6291 11.8138 15.5898 11.7333C15.5886 11.7307 15.5868 11.7266 15.586 11.7239C15.5851 11.7207 15.5844 11.7158 15.5841 11.7126C15.5838 11.7088 15.5834 11.7032 15.5841 11.6994C15.5929 11.6569 15.6587 11.611 15.8269 11.5692C16.3861 11.4302 18.3619 11.0311 18.659 11.1354C18.6973 11.1488 18.7252 11.1458 18.7424 11.1316C18.8538 11.0314 18.4832 10.3922 17.5739 10.3017C16.5254 10.1975 15.88 10.562 15.88 10.562C15.88 10.562 15.1977 10.3179 15.8269 10.1094C16.456 9.90089 17.4525 10.1791 17.4525 10.1791C17.4525 10.1791 18.5704 9.8485 17.6441 9.7095C16.7179 9.57044 16.4259 9.83453 16.0014 9.84908C15.832 9.6388 17.4556 9.58915 17.5569 9.41526C17.3856 9.10238 16.3811 9.41526 15.7927 9.41526C15.5425 9.3097 15.5259 9.13794 15.8098 9.03238C16.4098 9.0092 16.9739 9.04424 17.5739 9.02107C17.5565 8.70251 17.5743 8.32487 17.5569 8.00635C16.7958 7.86807 15.9033 8.10761 15.476 8.08745C15.5903 7.73986 17.2335 7.65014 17.4165 7.55556C17.7941 7.0863 15.8404 7.54831 15.7928 7.55556C15.446 7.50462 15.467 7.28667 15.6866 7.1557C16.1934 7.09776 17.3299 7.22955 17.2439 6.88786C17.178 6.56769 16.4559 6.73912 16.1589 6.80864C15.8618 6.87811 15.4248 6.82562 15.4248 6.82562C15.2346 6.57095 17.1381 6.67504 17.1206 6.47857C17.0958 6.253 15.914 6.40838 15.512 6.42576C15.2029 6.21366 16.9655 6.07264 17.0485 6.04476C17.0489 6.0445 17.0502 6.04307 17.0504 6.04287C17.1163 5.46521 15.8269 6.04287 15.5822 6.04287C15.5402 6.04287 15.5084 6.03243 15.4855 6.01458C15.4804 6.01045 15.4746 6.00429 15.4703 5.99949C15.3863 5.90205 15.4608 5.67884 15.4608 5.67884C15.4608 5.67884 15.9203 5.47354 15.9483 5.42421C15.9485 5.42382 15.9501 5.4227 15.9502 5.42233C15.9503 5.4222 15.9502 5.42062 15.9502 5.42044C15.9502 5.42031 15.9503 5.41871 15.9502 5.41855C15.9501 5.41829 15.9485 5.41695 15.9483 5.41666C15.9473 5.41521 15.9447 5.41271 15.9426 5.411C15.8887 5.3697 15.5727 5.26546 15.531 5.26199C15.5308 5.26198 15.5294 5.26199 15.5291 5.26199C15.5288 5.2619 15.5275 5.26025 15.5272 5.26011C15.5267 5.25971 15.5258 5.25878 15.5253 5.25822C15.5251 5.25796 15.5236 5.25669 15.5234 5.25633C15.4996 5.20775 15.5291 4.86212 15.5291 4.86212C15.5291 4.86212 15.8932 4.59084 15.9161 4.48301C15.9162 4.4821 15.9159 4.48011 15.9161 4.47923C15.9162 4.47832 15.916 4.47629 15.9161 4.47546C15.9161 4.47468 15.9161 4.47249 15.9161 4.47168C15.916 4.4709 15.9162 4.46868 15.9161 4.46791C15.916 4.46752 15.9161 4.46639 15.9161 4.46602C15.9158 4.46498 15.9146 4.46326 15.9142 4.46225C15.914 4.46186 15.9143 4.4607 15.9142 4.46036C15.914 4.4601 15.9125 4.4588 15.9123 4.45847C15.9119 4.45782 15.9108 4.45717 15.9104 4.45659C15.9097 4.45567 15.9092 4.45362 15.9085 4.45281C15.9082 4.45255 15.9069 4.45118 15.9066 4.45092C15.9051 4.44975 15.9026 4.44822 15.9009 4.44715C15.9001 4.44676 15.8978 4.44565 15.8971 4.44526C15.8051 4.40136 15.4248 4.53203 15.4248 4.53203C15.4247 4.41618 15.4248 4.30082 15.4248 4.18497C15.4247 4.18497 15.7578 4.14898 15.7927 3.99259C15.7948 3.98342 15.7938 3.97441 15.7927 3.96618C15.7922 3.96291 15.7918 3.95799 15.7908 3.95487C15.7887 3.94815 15.7854 3.9402 15.7813 3.93412C15.7807 3.93321 15.7782 3.93126 15.7776 3.93035C15.7014 3.83254 15.3906 3.81907 15.3906 3.81907C15.3323 3.21087 15.2743 2.60335 15.2161 1.9952L15.2163 1.99506ZM14.9052 7.95149V8.19104C14.9052 8.19104 14.5133 8.17107 14.4404 8.10993C14.44 8.10967 14.4388 8.10834 14.4385 8.10805C14.4383 8.10778 14.4369 8.10647 14.4366 8.10616C14.4364 8.1059 14.435 8.10458 14.4347 8.10428C14.4345 8.10402 14.4331 8.1027 14.4328 8.10239C14.4322 8.10148 14.4314 8.09958 14.4309 8.09862C14.4308 8.09835 14.431 8.09705 14.4309 8.09673C14.4308 8.09647 14.4291 8.09517 14.429 8.09485C14.429 8.09459 14.4291 8.09328 14.429 8.09296C14.429 8.09231 14.429 8.08986 14.429 8.08918C14.429 8.08879 14.429 8.08763 14.429 8.0873C14.4291 8.08691 14.429 8.08576 14.429 8.08542C14.4294 8.08402 14.4302 8.08118 14.4309 8.07975C14.431 8.07936 14.4326 8.07823 14.4328 8.07787C14.4337 8.07641 14.4354 8.07369 14.4366 8.07221C14.437 8.07182 14.4382 8.0707 14.4385 8.07032C14.4393 8.06954 14.4415 8.06732 14.4423 8.06655C14.4449 8.06425 14.4484 8.0614 14.4518 8.059C14.5833 7.96746 14.8458 7.96962 14.8976 7.95526C14.898 7.95513 14.8991 7.95539 14.8995 7.95526C14.8999 7.95513 14.901 7.95352 14.9014 7.95338C14.9016 7.95325 14.903 7.95351 14.9033 7.95338C14.9035 7.95325 14.905 7.95165 14.9052 7.95149ZM15.461 8.27025C15.4745 8.27025 16.2416 8.27681 16.3089 8.37587C16.3094 8.37666 16.3103 8.37879 16.3108 8.37965C16.3113 8.38096 16.3123 8.38399 16.3127 8.38531C16.3128 8.38622 16.3126 8.38818 16.3127 8.38909C16.3127 8.39046 16.3129 8.39336 16.3127 8.39475C16.3123 8.39616 16.3114 8.39897 16.3108 8.40041C16.2522 8.52414 15.4761 8.59845 15.4761 8.59845L15.461 8.27025ZM15.4173 8.74367C15.4176 8.7438 15.419 8.74354 15.4192 8.74367C15.4195 8.7438 15.4207 8.74354 15.4211 8.74367C15.4667 8.75563 15.7844 8.76587 15.8233 8.81911C15.8237 8.81963 15.8249 8.82049 15.8252 8.821C15.8253 8.82126 15.825 8.82263 15.8252 8.82288C15.8254 8.8234 15.8269 8.82424 15.8271 8.82477C15.8271 8.82503 15.827 8.8264 15.8271 8.82665C15.8271 8.82691 15.8271 8.82827 15.8271 8.82854C15.8271 8.8288 15.8271 8.83015 15.8271 8.83042C15.8271 8.83068 15.8271 8.83202 15.8271 8.8323C15.827 8.83257 15.8271 8.83391 15.8271 8.83419C15.827 8.83445 15.8253 8.83578 15.8252 8.83607C15.825 8.83634 15.8253 8.83767 15.8252 8.83796C15.8247 8.83887 15.8239 8.84082 15.8233 8.84174C15.823 8.842 15.8216 8.84331 15.8214 8.84362C15.8211 8.84388 15.8216 8.8452 15.8214 8.84551C15.7555 8.92554 15.4623 8.94736 15.4477 8.94736C15.4476 8.94734 15.4459 8.94741 15.4458 8.94736C15.4456 8.9473 15.4459 8.94557 15.4458 8.94548C15.4455 8.94509 15.4441 8.944 15.4439 8.94359C15.4305 8.91653 15.4173 8.74367 15.4173 8.74367ZM13.0784 9.37364C13.3289 9.3607 13.826 9.41935 14.7591 9.67543C14.7591 9.69518 14.778 9.93576 14.7705 9.97532C14.7704 9.97559 14.7687 9.97693 14.7686 9.97721C14.7685 9.97747 14.7686 9.97891 14.7686 9.97909C14.7684 9.97922 14.7669 9.98095 14.7667 9.98098C14.752 9.97368 13.069 9.49277 12.9153 9.50001C12.9111 9.50014 12.906 9.5004 12.902 9.50001C12.8986 9.49962 12.8938 9.49884 12.8906 9.49813C12.8864 9.49709 12.881 9.49414 12.8773 9.49247C12.876 9.49182 12.8729 9.49129 12.8716 9.49058C12.8713 9.49032 12.8702 9.48895 12.8697 9.4887C12.8646 9.48525 12.8596 9.48002 12.8565 9.4755C12.8562 9.4751 12.8548 9.47397 12.8546 9.47361C12.8542 9.47283 12.853 9.47058 12.8527 9.46984C12.8525 9.46944 12.8528 9.46834 12.8527 9.46795C12.8524 9.46717 12.8509 9.46496 12.8508 9.46417C12.8507 9.46378 12.8508 9.46269 12.8508 9.46229C12.8507 9.46151 12.8508 9.45934 12.8508 9.45851C12.8508 9.45773 12.8507 9.45557 12.8508 9.45474C12.851 9.45264 12.8519 9.44934 12.8527 9.44719C12.8547 9.44203 12.859 9.43539 12.864 9.43021C12.8898 9.40518 12.9543 9.38005 13.0784 9.37364ZM13.951 10.0847C14.2193 10.0751 14.862 10.2289 14.8976 10.2205C14.8976 10.2715 14.926 10.5124 14.8938 10.5619C14.8935 10.5623 14.8922 10.5634 14.8919 10.5638C14.8916 10.5642 14.8903 10.5654 14.89 10.5657C14.8896 10.5659 14.8884 10.5673 14.888 10.5676C14.8874 10.5679 14.885 10.5691 14.8843 10.5694C14.8839 10.5696 14.8828 10.5694 14.8823 10.5694C14.8816 10.5695 14.8794 10.5695 14.8786 10.5694C14.8782 10.5694 14.8771 10.5696 14.8766 10.5694C14.822 10.5559 13.8735 10.2563 13.8371 10.1337C13.8366 10.1317 13.8371 10.1281 13.8371 10.1262C13.8375 10.1219 13.8396 10.1167 13.8428 10.113C13.8432 10.1126 13.8443 10.1115 13.8448 10.1111C13.8451 10.1107 13.8462 10.1096 13.8467 10.1092C13.8649 10.0949 13.9024 10.0864 13.951 10.0847ZM16.5914 10.7448C16.8476 10.7399 17.0285 10.7617 16.9613 10.8391C16.7784 11.0501 15.514 11.2239 15.514 11.2239L15.4913 10.8391C15.5184 10.8352 16.1608 10.7532 16.5914 10.7448ZM12.9722 11.9444C13.1872 11.9331 13.6879 12.0505 14.8027 12.5197L14.8103 12.797C14.8103 12.797 12.9224 12.2276 12.8565 12.1331C12.8241 12.0865 12.7638 11.9555 12.9722 11.9444ZM16.6711 12.3575C16.7286 12.3546 16.769 12.3604 16.7831 12.3745C16.7834 12.3749 16.7846 12.376 16.7849 12.3764C16.7857 12.3777 16.7864 12.3807 16.7868 12.382C16.7871 12.3835 16.7888 12.3862 16.7888 12.3877C16.788 12.3956 16.782 12.4064 16.7717 12.4179C16.596 12.6144 15.6525 12.8102 15.6525 12.8102C15.6525 12.8102 15.6525 12.5629 15.6525 12.5556C15.6526 12.5556 15.6542 12.5556 15.6544 12.5556C15.6974 12.5541 16.39 12.3717 16.6711 12.3575ZM12.5321 12.3915C12.814 12.3766 13.4504 12.5253 14.8767 13.1968C14.8767 13.2038 14.8894 13.4354 14.8843 13.4571C14.8841 13.4571 14.8826 13.4572 14.8824 13.4571C14.7978 13.43 12.3159 12.5631 12.3159 12.5631C12.3132 12.5536 12.2759 12.405 12.5321 12.3915ZM17.2572 13.476C17.3294 13.473 17.3767 13.4792 17.3881 13.4949C17.3892 13.4967 17.3899 13.5003 17.39 13.5024C17.3898 13.51 17.3835 13.5196 17.3711 13.5307C17.146 13.7328 15.7111 13.9777 15.6601 13.9815C15.6598 13.9815 15.6584 13.9816 15.6582 13.9815C15.6581 13.9815 15.6565 13.9817 15.6563 13.9815C15.6562 13.9814 15.6546 13.9798 15.6544 13.9796C15.6539 13.979 15.6529 13.9768 15.6525 13.9759C15.6524 13.9755 15.6526 13.9743 15.6525 13.974C15.6522 13.9732 15.6508 13.971 15.6506 13.9702C15.6415 13.9234 15.6712 13.7593 15.6733 13.7363C15.6734 13.7359 15.6733 13.7347 15.6733 13.7344C15.6734 13.7345 15.6751 13.7344 15.6752 13.7344C15.6755 13.7345 15.6768 13.7363 15.6771 13.7363C15.6775 13.7363 15.6786 13.7363 15.679 13.7363C15.7709 13.7348 16.8706 13.4921 17.2572 13.476ZM13.0386 14.1079C13.4658 14.0859 14.7601 14.6761 14.8236 14.6945C14.8237 14.6945 14.8254 14.6945 14.8255 14.6945C14.8188 14.7208 14.8178 14.9339 14.8122 14.968C14.8121 14.9689 14.8124 14.9712 14.8122 14.9717C14.8122 14.9719 14.8104 14.9717 14.8103 14.9717C14.7754 14.9532 13.0015 14.2211 12.9229 14.2795C12.874 14.1642 12.9247 14.1137 13.0386 14.1079ZM16.8551 14.2626C16.944 14.2587 17.0091 14.2626 17.0296 14.2739C17.0321 14.2754 17.0344 14.2776 17.0353 14.2795C17.0355 14.2798 17.0353 14.2811 17.0353 14.2814C17.0354 14.2818 17.0354 14.283 17.0353 14.2833C17.0352 14.2841 17.0357 14.2863 17.0353 14.2871C17.0351 14.2875 17.0337 14.2886 17.0334 14.289C17.0321 14.2906 17.0298 14.2928 17.0277 14.2946C16.896 14.4111 15.6734 14.6511 15.6734 14.6511C15.6734 14.6511 15.6677 14.4259 15.6677 14.404C15.7024 14.3966 16.4917 14.2785 16.8551 14.2626ZM16.7565 15.0415C16.8425 15.0387 16.9035 15.0435 16.9177 15.0585L16.9196 15.0604C16.92 15.061 16.9195 15.0635 16.9196 15.0641C16.9197 15.0645 16.9215 15.0657 16.9215 15.066C16.9215 15.0664 16.9197 15.0675 16.9196 15.0679C16.9195 15.0687 16.92 15.0709 16.9196 15.0717C16.9193 15.0721 16.918 15.0732 16.9177 15.0736C16.9167 15.0753 16.9154 15.0775 16.9139 15.0792C16.9127 15.0806 16.9097 15.0835 16.9082 15.0849C16.7763 15.1982 15.7397 15.415 15.7397 15.415C15.7397 15.415 15.7113 15.1677 15.7113 15.1604C15.74 15.161 16.4331 15.0522 16.7565 15.0415ZM12.3823 15.1038C12.6324 15.088 13.2521 15.1905 14.7818 15.7432L14.833 16.0412C14.833 16.0412 12.286 15.2236 12.2135 15.198C12.2136 15.198 12.2134 15.1964 12.2135 15.1961C12.2135 15.1946 12.2131 15.1907 12.2135 15.1867C12.2144 15.1792 12.2182 15.1674 12.2267 15.1565C12.2447 15.1346 12.2857 15.1098 12.3823 15.1038ZM15.7378 15.7507C15.7685 15.7572 16.1956 15.7713 16.2747 15.8375C16.2751 15.8377 16.2762 15.839 16.2766 15.8394C16.2768 15.8396 16.2781 15.8409 16.2785 15.8412C16.2787 15.8415 16.2801 15.8428 16.2804 15.8431C16.2812 15.8442 16.2817 15.8459 16.2823 15.8469C16.2824 15.8473 16.284 15.8485 16.2842 15.8488C16.2848 15.8502 16.2857 15.8531 16.2861 15.8545C16.2861 15.8549 16.286 15.856 16.2861 15.8564C16.2861 15.8567 16.2861 15.8579 16.2861 15.8582C16.2861 15.859 16.2861 15.8613 16.2861 15.862C16.286 15.8624 16.2861 15.8635 16.2861 15.8639C16.2859 15.8647 16.2844 15.8669 16.2842 15.8677C16.284 15.8681 16.2843 15.8692 16.2842 15.8696C16.2838 15.8703 16.2828 15.8726 16.2823 15.8733C16.2164 15.9752 15.7701 16.0129 15.7701 16.0129C15.7701 16.0129 15.7482 15.8132 15.7378 15.7507ZM16.7717 16.3316C16.8711 16.3293 16.9425 16.3406 16.9576 16.3694C16.966 16.3889 16.9497 16.4177 16.9026 16.4561C16.5367 16.7545 15.7397 16.8126 15.7397 16.8126V16.4844C15.7399 16.4844 15.7413 16.4844 15.7416 16.4844C15.7869 16.4791 16.4415 16.3395 16.7717 16.3316ZM17.7865 16.6372C17.9128 16.6324 17.9673 16.6535 17.9838 16.6825C17.9851 16.685 17.9868 16.6892 17.9876 16.6919C17.9888 16.6968 17.9899 16.7036 17.9895 16.7089C17.9854 16.7463 17.9447 16.791 17.9136 16.8202C17.7892 16.9366 15.8062 17.5614 15.8062 17.5614C15.8062 17.5614 15.7913 17.147 15.7986 17.1106C16.958 16.7613 17.525 16.647 17.7865 16.6372ZM16.5042 17.8104C16.6303 17.8057 16.7289 17.8131 16.7584 17.8424C16.7602 17.8444 16.7629 17.8478 16.7641 17.85C16.7648 17.8513 16.7656 17.8543 16.766 17.8557C16.7664 17.8571 16.7659 17.8598 16.766 17.8613C16.7661 17.8638 16.7666 17.868 16.766 17.8708C16.7646 17.8763 16.7607 17.8832 16.7565 17.8896C16.5868 18.0552 15.7625 18.0801 15.7625 18.0801V17.8745C15.9173 17.8693 16.2619 17.8194 16.5042 17.8104ZM17.3293 18.148C17.3685 18.1471 17.3924 18.1534 17.3957 18.165C17.3959 18.1659 17.3959 18.1678 17.3957 18.1687C17.3938 18.1784 17.3822 18.193 17.3578 18.2102C17.0285 18.443 15.791 18.6818 15.791 18.6818C15.791 18.6818 15.8063 18.5191 15.8137 18.48C15.8481 18.4794 17.0333 18.1552 17.3293 18.148ZM18.0236 18.4064C18.1694 18.405 18.2807 18.4264 18.3442 18.4724C18.3443 18.4724 18.346 18.4724 18.3461 18.4724C18.3461 18.4725 18.346 18.4741 18.3461 18.4743C18.3461 18.4746 18.3461 18.4759 18.3461 18.4762C18.346 18.4769 18.3461 18.4792 18.3461 18.48C18.3399 18.5251 18.2472 18.7373 17.9212 18.8289C17.5146 18.7928 15.789 19.3 15.7549 19.308C15.7548 19.3079 15.7531 19.3081 15.753 19.308C15.7529 19.3073 15.7531 19.3052 15.753 19.3042C15.7521 19.2717 15.7758 19.0967 15.7758 19.0967C16.3706 18.743 17.4516 18.4118 18.0236 18.4064ZM13.6058 19.4023C13.6096 19.4022 13.6131 19.4023 13.6171 19.4023C14.3635 19.4823 14.6424 19.7601 14.7211 19.8719C14.5723 20.1316 13.3927 19.5492 13.5166 19.4249C13.5308 19.4123 13.56 19.4032 13.6058 19.4023ZM17.8832 19.4513C17.9129 19.4501 17.94 19.4562 17.9591 19.4683C17.9669 19.4735 17.9747 19.481 17.98 19.489C17.9872 19.5006 17.992 19.5163 17.9933 19.5343C17.9153 19.6541 17.512 19.6018 17.4868 19.5984C17.5071 19.5912 17.74 19.4567 17.8832 19.4513ZM16.2842 20.2586C16.3395 20.2563 16.3855 20.2619 16.4113 20.2774C16.4144 20.2794 16.4183 20.2826 16.4207 20.285C16.4215 20.2858 16.4238 20.2879 16.4245 20.2888C16.4256 20.2901 16.4275 20.293 16.4283 20.2944C16.4291 20.2959 16.4296 20.2985 16.4302 20.3001C16.4349 20.3142 16.4331 20.3336 16.4208 20.3567C16.3037 20.575 15.791 20.4943 15.791 20.4943V20.3416C15.7911 20.3416 15.7928 20.3415 15.7929 20.3416C15.8218 20.344 16.1043 20.2659 16.2842 20.2586ZM13.2643 20.8339C13.4221 20.8259 13.5599 20.9288 13.7044 21.0111C14.0264 20.9457 14.687 21.0621 14.687 21.0621V21.3525C14.687 21.3528 14.6855 21.3542 14.6851 21.3544C14.6848 21.3546 14.6836 21.3543 14.6832 21.3544C14.6231 21.3648 13.8489 21.3312 13.676 21.2224C13.535 21.2224 13.1357 21.0129 13.105 20.9055C13.1048 20.9046 13.1033 20.9026 13.1031 20.9018C13.1029 20.9004 13.1032 20.8974 13.1031 20.8961C13.1031 20.8952 13.1031 20.8932 13.1031 20.8923C13.1032 20.8915 13.103 20.8893 13.1031 20.8885C13.1032 20.8882 13.1031 20.8871 13.1031 20.8867C13.1032 20.8859 13.1048 20.8836 13.105 20.8829C13.1051 20.8825 13.1049 20.8814 13.105 20.881C13.1602 20.8518 13.2139 20.8364 13.2643 20.8339ZM16.6503 20.9772C16.7714 20.9707 16.8228 21.0079 16.7281 21.1413C16.4646 21.5124 15.7834 21.3601 15.7834 21.3601L15.7549 21.13C15.9952 21.1393 16.4344 20.9888 16.6503 20.9772ZM14.1047 21.7297C14.3801 21.717 14.6794 21.8259 14.6794 21.8259C14.6865 21.8399 14.8275 22.1163 14.7022 22.2088C14.6975 22.2122 14.6924 22.2154 14.687 22.2183C14.5333 22.2983 13.7988 22.1557 13.7556 21.8618C13.8421 21.7711 13.9702 21.736 14.1047 21.7297ZM11.265 21.8731C11.517 21.8581 11.7984 22.0124 11.8303 22.0278C11.8307 22.0279 11.832 22.0277 11.8322 22.0278C11.8322 22.0365 11.8227 22.3069 11.8227 22.3069C11.8227 22.3069 11.324 22.1687 11.1664 21.8901C11.198 21.8815 11.2318 21.8751 11.265 21.8731ZM16.0623 21.9108C16.3433 21.909 16.6827 21.9747 16.7319 22.0693C16.7412 22.0886 16.7384 22.1099 16.7205 22.1315C16.5815 22.2988 15.791 22.1466 15.791 22.1466V21.9429C15.8614 21.9224 15.9582 21.9115 16.0623 21.9108Z" fill="#007934"/>
</g>
<defs>
<clipPath id="clip0_1_15550">
<rect y="0.0010376" width="30" height="30" rx="15" fill="white"/>
</clipPath>
</defs>
</svg>
