<svg width="30" height="30" viewBox="0 0 30 30" fill="none" xmlns="http://www.w3.org/2000/svg">
<path d="M6.10352e-05 15.0008C6.10352e-05 21.053 3.58885 26.2612 8.74902 28.6354V1.36612C3.58885 3.74035 6.10352e-05 8.94855 6.10352e-05 15.0008Z" fill="#008751"/>
<path d="M30.0001 15.0007C30.0001 8.94851 26.4113 3.73345 21.2511 1.36609V28.6354C26.4181 26.268 30.0001 21.053 30.0001 15.0007Z" fill="#008751"/>
<path d="M15.0076 0.000610352C12.7775 0.000610352 10.6571 0.494662 8.75635 1.36613V28.6354C10.6571 29.5069 12.7775 30.0009 15.0076 30.0009C17.2377 30.0009 19.3512 29.5069 21.2588 28.6354V1.36613C19.3512 0.494662 17.2377 0.000610352 15.0076 0.000610352Z" fill="white"/>
</svg>
