<svg width="30" height="30" viewBox="0 0 30 30" fill="none" xmlns="http://www.w3.org/2000/svg">
<path d="M15.0002 30.0008C21.0523 30.0008 26.2673 26.412 28.6347 21.2519H1.36566C3.733 26.412 8.94801 30.0008 15.0002 30.0008Z" fill="#1F4085"/>
<path d="M15.0002 0.000762939C8.94801 0.000762939 3.73986 3.58951 1.36566 8.74963H28.6347C26.2605 3.58265 21.0523 0.000762939 15.0002 0.000762939Z" fill="#A20E23"/>
<path d="M0.000152588 15.0008C0.000152588 17.2309 0.487337 19.3443 1.36565 21.2519H28.6347C29.5061 19.3512 30.0002 17.2309 30.0002 15.0008C30.0002 12.7707 29.5061 10.6572 28.6347 8.74963H1.36565C0.487337 10.6504 0.000152588 12.7707 0.000152588 15.0008Z" fill="#F1F4FB"/>
</svg>
