<svg width="30" height="30" viewBox="0 0 30 30" fill="none" xmlns="http://www.w3.org/2000/svg">
<path d="M29.5265 11.2516C27.8591 4.78235 21.9854 0.000762939 15 0.000762939V11.2516H29.5265Z" fill="#EF2B2D"/>
<path d="M0.467041 18.7499C1.4826 22.6877 4.05578 26.0012 7.49357 27.9839V18.7499H0.467041Z" fill="#EF2B2D"/>
<path d="M7.49949 2.0177C4.0617 4.00718 1.48852 7.31381 0.472961 11.2516H7.49949V2.0177Z" fill="#EF2B2D"/>
<path d="M29.5265 18.7499H15V30.0008C21.9854 30.0008 27.8591 25.2192 29.5265 18.7499Z" fill="#EF2B2D"/>
<path d="M9.37348 1.09839C8.72161 1.35908 8.09719 1.66781 7.50021 2.01768V11.2516H0.473679C0.315857 11.8622 0.199199 12.4865 0.123718 13.1245H9.38035V1.09839H9.37348Z" fill="white"/>
<path d="M0.116699 16.877C0.199041 17.5151 0.3157 18.1394 0.46666 18.7499H7.49319V27.9838C8.09017 28.3337 8.72145 28.6356 9.36646 28.9031V16.877H0.116699Z" fill="white"/>
<path d="M29.5265 18.7499C29.6843 18.1394 29.801 17.5151 29.8765 16.877H13.1199V29.8773C13.7306 29.9528 14.3619 30.0008 14.9931 30.0008V18.7499H29.5265Z" fill="white"/>
<path d="M29.8767 13.1245C29.7943 12.4865 29.6845 11.8622 29.5267 11.2516H15.0002V0.000762939C14.3621 0.000762939 13.7377 0.0419196 13.127 0.124243V13.1245H29.8767Z" fill="white"/>
<path d="M29.8765 16.8771C29.952 16.2596 30.0001 15.6354 30.0001 15.0042C30.0001 14.3662 29.9589 13.7419 29.8765 13.1314H13.1199V0.131134C11.8093 0.295781 10.5535 0.625063 9.37329 1.10528V13.1314H0.116659C0.0411785 13.7488 6.10352e-05 14.3731 6.10352e-05 15.0042C6.10352e-05 15.6354 0.0411785 16.2596 0.116659 16.8771H9.37329V28.9032C10.5535 29.3834 11.8162 29.7127 13.1199 29.8773V16.8771H29.8765Z" fill="#002868"/>
</svg>
