<svg width="30" height="30" viewBox="0 0 30 30" fill="none" xmlns="http://www.w3.org/2000/svg">
<path d="M25.3695 25.8219C28.2165 23.0909 30.0002 19.2551 30.0002 15.0008C30.0002 14.8978 29.9865 14.8018 29.9865 14.7057H14.2559L25.3695 25.8219Z" fill="#F1F4FB"/>
<path d="M0 15.0007C0 20.1334 2.57946 24.6554 6.5104 27.3589V2.63565C2.58632 5.33922 0 9.86806 0 15.0007Z" fill="#F1F4FB"/>
<path d="M15.0034 0.000732422C12.7601 0.000732422 10.6403 0.508488 8.73312 1.39367L29.9863 14.7057C29.8216 6.5538 23.1809 0.000732422 15.0034 0.000732422Z" fill="#F1F4FB"/>
<path d="M10.1328 29.1773C11.6627 29.6987 13.2954 30.0005 14.9967 30.0005C16.6981 30.0005 18.3377 29.6987 19.8607 29.1773H10.1328Z" fill="#F1F4FB"/>
<path d="M27.1186 13.8754H12.2661L24.7587 26.3708C24.9714 26.1924 25.1703 26.0071 25.3693 25.815L14.2556 14.6988H29.9862C29.9862 14.6988 29.9862 14.6988 29.9862 14.6919L8.73307 1.37991C8.43808 1.51029 8.13625 1.64756 7.85498 1.80539L27.1186 13.8754Z" fill="#003893"/>
<path d="M7.3335 2.12106C7.05222 2.28575 6.7778 2.45043 6.51025 2.6357V27.359C6.7778 27.5442 7.05908 27.7089 7.3335 27.8736V2.12106Z" fill="#003893"/>
<path d="M27.1185 13.8754L7.84802 1.81229C7.66965 1.90835 7.505 2.01816 7.3335 2.12795V27.8805C8.21161 28.4089 9.14462 28.8411 10.1325 29.1842H19.8672C21.6783 28.5598 23.3317 27.606 24.7586 26.3846L12.266 13.8892H27.1185V13.8754Z" fill="#CE1126"/>
<path d="M14.7633 11.1581L14.3997 10.8768L15.12 10.3416L14.2488 10.1151L14.7084 9.33971L13.8166 9.47009L13.94 8.57806L13.1648 9.03779L12.9453 8.16632L12.4033 8.88681L11.8613 8.16632L11.6349 9.03779L10.8598 8.57806L10.9901 9.47009L10.0982 9.33971L10.5579 10.1151L9.68665 10.3416L10.407 10.8768L10.0434 11.1581C9.179 10.6366 8.49294 9.84747 8.12248 8.89368C8.12248 11.261 10.0365 13.1618 12.3965 13.1618C14.7564 13.1618 16.6704 11.2542 16.6704 8.89368C16.3068 9.84747 15.6277 10.6366 14.7633 11.1581Z" fill="#F1F4FB"/>
<path d="M15.2231 22.2812L16.9999 21.5332L15.2231 20.7715L16.3893 19.2276L14.4684 19.4678L14.7017 17.5465L13.165 18.713L12.4103 16.9289L11.6557 18.713L10.1121 17.5465L10.3454 19.4678L8.43137 19.2276L9.59075 20.7715L7.81396 21.5332L9.59075 22.2812L8.43137 23.8251L10.3454 23.5918L10.1121 25.5062L11.6557 24.3466L12.4103 26.1238L13.165 24.3466L14.7017 25.5062L14.4684 23.5918L16.3893 23.8251L15.2231 22.2812Z" fill="#F1F4FB"/>
</svg>
