<svg width="30" height="30" viewBox="0 0 30 30" fill="none" xmlns="http://www.w3.org/2000/svg">
<path d="M14.9966 30.0008C23.2789 30.0008 29.9932 23.285 29.9932 15.0008C29.9932 6.71649 23.2789 0.000762939 14.9966 0.000762939C6.71419 0.000762939 0 6.71649 0 15.0008C0 23.285 6.71419 30.0008 14.9966 30.0008Z" fill="#002B7F"/>
<path d="M0.0687596 16.3245H29.9316C29.9727 15.8854 30.0002 15.4464 30.0002 14.9936C30.0002 14.5408 29.9727 14.1017 29.9316 13.6627H0.0687596C0.0275979 14.1017 0.000152588 14.5408 0.000152588 14.9936C0.000152588 15.4464 0.0275979 15.8923 0.0687596 16.3245Z" fill="#FFC61E"/>
<path d="M9.12434 20.7373L10.1534 21.8558L8.66471 21.547L8.99399 23.0291L7.86205 22.0136L7.40927 23.4614L6.9359 22.0204L5.81768 23.0497L6.13326 21.5607L4.65144 21.8901L5.6599 20.7579L4.21237 20.305L5.65304 19.8315L4.63086 18.713L6.11268 19.0287L5.78338 17.5465L6.91532 18.5552L7.36811 17.1074L7.84147 18.5483L8.9597 17.5191L8.65098 19.0081L10.1328 18.6787L9.11747 19.8109L10.565 20.2638L9.12434 20.7373Z" fill="white"/>
</svg>
