<svg width="30" height="30" viewBox="0 0 30 30" fill="none" xmlns="http://www.w3.org/2000/svg">
<g clip-path="url(#clip0_1_15555)">
<path d="M45 0.0010376H-15V30.001H45V0.0010376Z" fill="#012169"/>
<path d="M-15 0.0010376L15 15.001L-15 0.0010376ZM15 0.0010376L-15 15.001L15 0.0010376Z" fill="black"/>
<path d="M-15 0.0010376L15 15.001M15 0.0010376L-15 15.001" stroke="white" stroke-width="3"/>
<mask id="mask0_1_15555" style="mask-type:luminance" maskUnits="userSpaceOnUse" x="-15" y="0" width="35" height="21">
<path d="M-15 0.0010376V7.50104H20V15.001H15L-15 0.0010376ZM-15 15.001V20.001H0V0.0010376H15L-15 15.001Z" fill="white"/>
</mask>
<g mask="url(#mask0_1_15555)">
<path d="M-15 0.0010376L15 15.001L-15 0.0010376ZM15 0.0010376L-15 15.001L15 0.0010376Z" fill="black"/>
<path d="M-15 0.0010376L15 15.001M15 0.0010376L-15 15.001" stroke="#C8102E" stroke-width="2"/>
</g>
<path d="M0 0.0010376V20.001V0.0010376ZM-15 7.50104H20H-15Z" fill="black"/>
<path d="M0 0.0010376V20.001M-15 7.50104H20" stroke="white" stroke-width="5"/>
<path d="M0 0.0010376V20.001V0.0010376ZM-15 7.50104H20H-15Z" fill="black"/>
<path d="M0 0.0010376V20.001M-15 7.50104H20" stroke="#C8102E" stroke-width="3"/>
<path d="M15 0.0010376H45V30.001H-15V15.001H15V0.0010376Z" fill="#FEDD00"/>
<path d="M-4.95911e-05 10.053C1.40935 10.053 2.5519 8.91045 2.5519 7.50105C2.5519 6.09164 1.40935 4.9491 -4.95911e-05 4.9491C-1.40945 4.9491 -2.552 6.09164 -2.552 7.50105C-2.552 8.91045 -1.40945 10.053 -4.95911e-05 10.053Z" fill="#012169"/>
<path d="M4.88758e-05 4.94916L1.50005 9.56568L-2.427 6.71251H2.4271L-1.49995 9.56568" fill="#FEDD00"/>
<path d="M8.75007 6.14606L9.63175 8.85958L7.32349 7.18253H10.1767L7.86839 8.85958" fill="#FEDD00"/>
<path d="M7.10487e-05 11.146L0.881749 13.8595L-1.42651 12.1825H1.42666L-0.881607 13.8595" fill="#FEDD00"/>
<path d="M7.10487e-05 1.14606L0.881749 3.85958L-1.42651 2.18253H1.42666L-0.881607 3.85958" fill="#FEDD00"/>
</g>
<defs>
<clipPath id="clip0_1_15555">
<rect y="0.0010376" width="30" height="30" rx="15" fill="white"/>
</clipPath>
</defs>
</svg>
