<svg width="30" height="30" viewBox="0 0 30 30" fill="none" xmlns="http://www.w3.org/2000/svg">
<path d="M22.3629 14.5985L23.3373 13.8918L24.3117 14.5985L23.9412 13.4526L24.9156 12.7459H23.7147L23.3442 11.5999L22.9737 12.7459H21.766L22.7403 13.4526L22.3629 14.5985ZM22.2943 12.9242H23.0903L23.3373 12.1626L23.5844 12.9242H24.3803L23.7353 13.3908L23.9823 14.1457L23.3373 13.6791L22.6923 14.1457L22.9394 13.3908L22.2943 12.9242Z" fill="white"/>
<path d="M22.6922 14.1458L23.3373 13.6792L23.9823 14.1458L23.7353 13.391L24.3803 12.9244H23.5843L23.3373 12.1627L23.0902 12.9244H22.2943L22.9393 13.391L22.6922 14.1458Z" fill="#E31937"/>
<path d="M17.7104 0.247836V1.73719L12.4405 5.25126H17.7104V9.75366H12.4199L17.7104 13.2815V15.0042H15.1098L8.70769 10.7351V15.0042H4.20632V10.7351L0.0754703 13.4874C0.0274374 13.9815 0 14.4894 0 14.9973C0 23.2815 6.71774 30.0008 15 30.0008C23.2823 30.0008 30 23.2815 30 14.9973C30 7.63974 24.6958 1.51757 17.7104 0.247836ZM24.3115 14.5992L23.3371 13.8923L22.3628 14.5992L22.7333 13.4531L21.7589 12.7461H22.9666L23.3371 11.5999L23.7077 12.7461H24.9085L23.9341 13.4531L24.3115 14.5992ZM15.0274 0.000762943H14.9725C12.7356 0.00762637 10.6153 0.501764 8.70769 1.38715V4.28353L15.1235 0.00759118C15.0892 0.000727755 15.0617 0.000762943 15.0274 0.000762943Z" fill="#004990"/>
<path d="M7.76773 10.1106V15.0042H8.70784V10.7351L7.76773 10.1106Z" fill="white"/>
<path d="M12.4132 9.74659H17.7106V8.81339H11.0134L12.4132 9.74659Z" fill="white"/>
<path d="M4.20645 10.7351V15.0042H5.14652V10.1106L4.20645 10.7351Z" fill="white"/>
<path d="M8.70784 4.276V1.38028C8.3922 1.52438 8.07651 1.6822 7.76773 1.85375V4.90041L8.70784 4.276Z" fill="white"/>
<path d="M1.3382 8.81339C1.25586 8.99179 1.1804 9.17022 1.10492 9.34863L1.90088 8.81339H1.3382Z" fill="white"/>
<path d="M17.7105 5.25125H12.4338L11.0271 6.18445H17.7105V5.25125Z" fill="white"/>
<path d="M5.14655 3.69327C4.8858 3.91971 4.63189 4.15298 4.39172 4.39315L5.14655 4.89409V3.69327Z" fill="white"/>
<path d="M11.0134 8.81339H7.76773V10.1106L8.70784 10.7351L15.1031 15.0042H17.7106V14.9562L9.88119 9.7468H11.6584L17.7106 13.7757V13.2746L12.4132 9.7468L11.0134 8.81339Z" fill="white"/>
<path d="M5.14655 4.90111L4.39172 4.40021C3.83591 4.95602 3.32815 5.55298 2.86841 6.18427H5.15338V4.90111H5.14655Z" fill="white"/>
<path d="M7.76773 4.90122V6.18467H11.0271L12.4338 5.25126L17.7037 1.73719V0.247836C17.6077 0.227246 17.5116 0.213507 17.4087 0.192917L9.80572 5.25126H8.69411V4.80516L15.8853 0.0282016C15.6314 0.0144747 15.3775 0.000762939 15.1168 0.000762939L8.70097 4.27666L7.76773 4.90122Z" fill="white"/>
<path d="M5.14651 10.1106V8.81339H1.90083L1.10487 9.34875C0.823534 10.042 0.590231 10.7558 0.418685 11.497L3.03992 9.75367H4.21327V10.1586L0.157931 12.856C0.130484 13.0687 0.103039 13.2746 0.075592 13.4942L4.20644 10.742L5.14651 10.1106Z" fill="white"/>
<path d="M5.14649 8.81337V10.1106V15.0042H7.76768V10.1106V8.81337H11.0065H17.7037V6.18467H11.0271H7.76768V4.90121V1.85385C6.8276 2.37547 5.94932 2.99322 5.14649 3.69329V4.90121V6.18467H2.86148C2.2645 7.00142 1.75673 7.87995 1.3313 8.81337H1.9008H5.14649Z" fill="#E31937"/>
<path d="M9.88116 9.7468L17.7106 14.9562V13.7757L11.6584 9.7468H9.88116Z" fill="#E31937"/>
<path d="M8.70782 5.25125H9.81944L17.4223 0.192914C16.9214 0.110553 16.4068 0.0556519 15.8922 0.0281982L8.71465 4.80516V5.25125H8.70782Z" fill="#E31937"/>
<path d="M4.20644 9.7468H3.03305L0.411816 11.4897C0.302026 11.9358 0.212819 12.3886 0.151062 12.8484L4.20644 10.1517V9.7468Z" fill="#E31937"/>
</svg>
