<svg width="30" height="30" viewBox="0 0 30 30" fill="none" xmlns="http://www.w3.org/2000/svg">
<path d="M15.0002 30.0008C21.0523 30.0008 26.2673 26.412 28.6346 21.2519H1.36566C3.73986 26.4189 8.94801 30.0008 15.0002 30.0008Z" fill="#009543"/>
<path d="M15.0002 0.000732422C8.94801 0.000732422 3.733 3.58948 1.36566 8.74959H28.6346C26.2673 3.59634 21.0592 0.000732422 15.0002 0.000732422Z" fill="#F1F4FB"/>
<path d="M0.000183105 15.0076C0.000183105 17.2377 0.494235 19.358 1.36569 21.2588H28.6347C29.5061 19.358 30.0002 17.2377 30.0002 15.0076C30.0002 12.7775 29.5061 10.6572 28.6347 8.75647H1.36569C0.494235 10.6572 0.000183105 12.7707 0.000183105 15.0076Z" fill="#FC3D32"/>
<path d="M0.000183105 15.0076C0.000183105 21.0598 3.58893 26.2748 8.74904 28.6421V1.37311C3.58893 3.74045 0.000183105 8.95549 0.000183105 15.0076Z" fill="#FC3D32"/>
</svg>
