<svg width="30" height="30" viewBox="0 0 30 30" fill="none" xmlns="http://www.w3.org/2000/svg">
<path d="M0 15.0009C0 23.2832 6.71774 30.0009 15 30.0009V15.0009H0Z" fill="#0067C6"/>
<path d="M15.0001 15.0009V30.0009C23.2824 30.0009 30.0001 23.2832 30.0001 15.0009H15.0001Z" fill="#F1F4FB"/>
<path d="M15 0.000915527C6.71774 0.000915527 0 6.7187 0 15.0009H15V0.000915527Z" fill="#F1F4FB"/>
<path d="M30.0001 15.0009C30.0001 6.7187 23.2824 0.000915527 15.0001 0.000915527V15.0009H30.0001Z" fill="#D21034"/>
<path d="M7.49994 3.95331L8.37826 6.66375H11.2328L8.92722 8.33804L9.80553 11.0553L7.49994 9.37418L5.19437 11.0553L6.07269 8.33804L3.7671 6.66375H6.62163L7.49994 3.95331Z" fill="#0067C6"/>
<path d="M21.7044 18.1505L22.5827 20.861H25.4373L23.1248 22.5421L24.01 25.2526L21.7044 23.5783L19.392 25.2526L20.2771 22.5421L17.9647 20.861H20.8192L21.7044 18.1505Z" fill="#D21034"/>
</svg>
