<svg width="30" height="30" viewBox="0 0 30 30" fill="none" xmlns="http://www.w3.org/2000/svg">
<path d="M0 15.001C0 21.0531 3.58875 26.2681 8.74886 28.6355V1.36646C3.58189 3.74066 0 8.9488 0 15.001Z" fill="#CC0000"/>
<path d="M30.0003 15.001C30.0003 8.9488 26.4115 3.73379 21.2514 1.36646V28.6355C26.4115 26.2681 30.0003 21.0531 30.0003 15.001Z" fill="#CC0000"/>
<path d="M15 0.000915527C12.7699 0.000915527 10.6564 0.495004 8.74883 1.36646V28.6355C10.6564 29.5138 12.7699 30.001 15 30.001C17.2301 30.001 19.3435 29.5138 21.2511 28.6355V1.36646C19.3435 0.495004 17.2301 0.000915527 15 0.000915527Z" fill="#F1F4FB"/>
</svg>
