<svg width="30" height="30" viewBox="0 0 30 30" fill="none" xmlns="http://www.w3.org/2000/svg">
<g clip-path="url(#clip0_1_15575)">
<path d="M-7.5 0.0010376H37.5V30.001H-7.5V0.0010376Z" fill="#CE1126"/>
<path d="M-7.5 7.50104H37.5V22.501H-7.5V7.50104Z" fill="#F1F4FB"/>
<mask id="mask0_1_15575" style="mask-type:luminance" maskUnits="userSpaceOnUse" x="8" y="8" width="14" height="14">
<path d="M14.9998 21.6572C18.562 21.6572 21.4498 18.6907 21.4498 15.0314C21.4498 11.3721 18.562 8.40558 14.9998 8.40558C11.4376 8.40558 8.5498 11.3721 8.5498 15.0314C8.5498 18.6907 11.4376 21.6572 14.9998 21.6572Z" fill="white"/>
</mask>
<g mask="url(#mask0_1_15575)">
<path d="M12.1984 14.2502V13.8173L13.2934 14.2818L12.1984 14.2502Z" fill="#FF9C10"/>
<path d="M12.1988 13.6009V12.8794C12.1988 12.8794 12.071 12.8974 12.0893 12.7531C12.0953 12.4525 12.8907 13.3018 13.2984 13.5784L13.2893 14.1556L12.1988 13.6009Z" fill="#FF9C10"/>
<path d="M10.8662 16.0541V14.6291L8.23804 14.5037L8.56664 16.0364L10.8662 16.0541Z" fill="#FF9C10"/>
<path d="M10.9022 14.3043L10.884 13.2943L8.49312 12.3563L8.45654 14.0699L10.9022 14.3043Z" fill="#FF9C10"/>
<path d="M10.8296 12.9521L11.098 12.6752C11.098 12.6752 10.9251 12.5574 10.9337 12.4491C10.9369 12.3396 11.1076 12.3229 11.1109 12.204C11.114 12.0945 10.9175 12.0813 10.9154 11.9717C10.9026 11.8529 11.0668 11.7255 11.0668 11.7255L9.36955 10.2645L8.94971 12.0503L10.8296 12.9521Z" fill="#FF9C10"/>
<path d="M18.8601 16.0541L18.8419 14.6653L21.5064 14.4669L21.2874 16.0541L18.8601 16.0541Z" fill="#FF9C10"/>
<path d="M21.3464 14.0481C21.3157 13.8226 21.2836 13.5977 21.2313 13.3766C21.1614 13.0806 21.072 12.7893 20.9637 12.5055C20.9557 12.4846 20.9437 12.4653 20.9355 12.4445L18.86 13.3131L18.8788 14.3415L21.3464 14.0481Z" fill="#FF9C10"/>
<path d="M19.9281 10.7092C19.5141 11.0223 19.1001 11.3353 18.6861 11.6484C18.6882 11.7382 18.7777 11.8073 18.8024 11.8933C18.8598 12.014 18.7458 12.1207 18.6753 12.206C18.6181 12.2846 18.7413 12.3247 18.7822 12.3712C18.8724 12.4638 18.7939 12.6088 18.6978 12.6626C18.8135 12.7318 18.872 12.8614 18.8974 12.989C19.5172 12.6665 20.1371 12.3441 20.7569 12.0217C20.5345 11.5532 20.2572 11.1101 19.9281 10.7092Z" fill="#FF9C10"/>
<path d="M17.5101 14.2683L17.5283 13.8533L16.4698 14.3133L17.5101 14.2683Z" fill="#FF9C10"/>
<path d="M16.4644 13.619C16.4644 13.619 17.4497 12.7398 17.6596 12.5774C17.6596 12.7578 17.5456 12.8975 17.5456 12.8975V13.5829L16.4688 14.0879L16.4644 13.619Z" fill="#FF9C10"/>
<path d="M10.0822 10.1382L11.1879 11.3508C11.2184 11.2376 11.4692 11.2204 11.7247 11.2385C11.9802 11.2564 12.1839 11.2215 12.1839 11.4019C12.1839 11.5823 12.0543 11.5566 12.0543 11.6829C12.0543 11.8092 12.2485 11.7986 12.2485 11.9608C12.2485 12.1231 12.1077 12.09 12.107 12.2157C12.1065 12.3196 12.2539 12.3251 12.2539 12.3251L13.2896 13.3173L13.2941 12.2575L11.1589 8.94781L10.0822 10.1382Z" fill="#FF9C10"/>
<path d="M11.7903 8.88508L13.2366 11.8082C13.2366 11.8082 13.2528 9.10995 13.4966 8.96539L13.0903 8.22656L11.7903 8.88508Z" fill="#FF9C10"/>
<path d="M16.4587 8.57477C16.2787 9.19695 16.0987 9.8191 15.9187 10.4413C16.0871 10.4614 16.2571 10.4668 16.4263 10.4574C16.5784 10.4705 16.4599 10.6131 16.468 10.6975C16.4672 11.0801 16.4665 11.4628 16.4658 11.8453C16.9745 10.9469 17.4832 10.0484 17.9918 9.14998C17.641 8.96684 17.2685 8.8308 16.8937 8.7063C16.7508 8.65585 16.6056 8.61215 16.4587 8.57477Z" fill="#FF9C10"/>
<path d="M18.3581 9.35461L16.4704 12.2566L16.468 13.3742C16.8883 12.9743 17.3108 12.5765 17.7298 12.1753C17.8093 12.0627 17.4774 12.0075 17.6433 11.8703C17.7936 11.8229 17.8191 11.5801 17.6608 11.5335C17.5304 11.342 17.7788 11.2405 17.9353 11.2615C18.1532 11.2714 18.3777 11.214 18.5908 11.2746C18.7081 11.3867 18.8162 11.1051 18.9313 11.0417C19.1589 10.8127 19.3868 10.584 19.6119 10.3525C19.2409 9.96588 18.8175 9.63012 18.3581 9.35461Z" fill="#FF9C10"/>
<path d="M13.4884 20.6223C13.0242 20.6485 12.5617 20.9618 12.345 21.1295C12.7342 21.2998 13.1496 21.4328 13.5917 21.5239C14.2961 21.6422 15.0004 21.6413 15.7048 21.6413C15.8198 21.6268 15.9336 21.6105 16.0452 21.592L17.5291 21.0919C17.5291 21.0919 16.8153 20.6207 16.2495 20.6411C15.6837 20.6615 15.3017 21.215 14.8455 21.1741C14.3892 21.1332 14.2065 20.6223 13.5494 20.6223C13.5289 20.6223 13.5089 20.6212 13.4884 20.6223Z" fill="#083D9C" stroke="#083D9C" stroke-width="0.154275"/>
<path d="M19.2259 20.2753C19.2259 20.2753 18.4959 19.4997 17.6381 19.4817C16.7803 19.4635 17.0176 19.8424 16.3606 19.8964C15.7036 19.9506 15.5393 19.4996 14.937 19.5176C14.3348 19.5356 13.9879 19.8964 13.5318 19.9145C13.0756 19.9325 12.4915 19.4635 12.1447 19.4816C11.7979 19.4996 10.5569 20.0227 10.5569 20.0227L10.7939 20.2392L19.2259 20.2753Z" fill="#083D9C" stroke="#083D9C" stroke-width="0.1449"/>
<path d="M9.71678 19.2467L20.1196 19.2828C20.2838 19.0483 19.6085 18.4892 18.9881 18.435C18.4769 18.453 18.112 18.9581 17.6923 18.9762C17.2725 18.9942 16.798 18.453 16.3234 18.4712C15.849 18.4892 15.3562 18.9762 14.8817 18.9762C14.4072 18.9762 14.0604 18.453 13.4582 18.453C12.856 18.453 12.5822 19.0302 12.1259 18.9942C11.6695 18.9581 11.268 18.4171 10.8301 18.4171C10.3921 18.4171 9.66209 19.0663 9.51611 19.0302C9.37011 18.9942 9.71678 19.2467 9.71678 19.2467Z" fill="#083D9C" stroke="#083D9C" stroke-width="0.1449"/>
<path d="M13.7386 18.252L16.0608 18.2506C16.0608 18.2506 15.5409 17.4579 14.9001 17.5126C14.1862 17.5311 13.7386 18.252 13.7386 18.252Z" fill="#083D9C" stroke="#083D9C" stroke-width="0.1449"/>
<path d="M21.1436 18.1963H17.9659C17.9659 18.1963 18.3772 17.9561 18.4893 17.7344C18.6949 17.8453 18.6388 17.9561 19.0501 17.9746C19.4613 17.993 19.8538 17.5128 20.2464 17.5313C20.6389 17.5497 21.1436 18.1963 21.1436 18.1963Z" fill="#083D9C" stroke="#083D9C" stroke-width="0.1449"/>
<path d="M8.62146 18.1963H11.7991C11.7991 18.1963 11.3878 17.9561 11.2757 17.7344C11.0701 17.8453 11.1262 17.9561 10.7149 17.9746C10.3038 17.993 9.91123 17.5128 9.51859 17.5313C9.12612 17.5497 8.62146 18.1963 8.62146 18.1963Z" fill="#083D9C" stroke="#083D9C" stroke-width="0.1449"/>
<path d="M11.1217 17.2269C11.1217 17.2269 10.9757 16.9203 10.9575 16.5416C10.3733 16.3432 9.89885 16.9744 9.47909 16.9925C9.05943 17.0105 8.62146 16.5416 8.62146 16.5416L8.85864 17.2089L11.1217 17.2269Z" fill="#083D9C" stroke="#083D9C" stroke-width="0.1449"/>
<path d="M20.9407 17.2091L18.6776 17.2271C18.6776 17.2271 18.8237 16.9205 18.8419 16.5418C19.426 16.3434 19.9004 16.9746 20.3202 16.9927C20.74 17.0107 21.1779 16.5418 21.1779 16.5418L20.9407 17.2091Z" fill="#083D9C" stroke="#083D9C" stroke-width="0.1449"/>
<path d="M14.3161 17.2271L15.4658 17.2277C15.4658 17.2277 15.4841 16.8484 14.8818 16.8484C14.2795 16.8484 14.3161 17.2271 14.3161 17.2271Z" fill="#083D9C" stroke="#083D9C" stroke-width="0.1449"/>
<path d="M13.7135 13.5288L16.1044 14.1602V10.7871C15.0093 10.8413 14.0969 8.73094 16.0314 8.58669C14.1333 8.3161 13.9142 8.80312 13.6953 9.32618L13.7135 13.5288Z" fill="#CE1126" stroke="#630810" stroke-width="0.144892" stroke-linejoin="round"/>
<path d="M14.2443 16.5777C13.7243 17.4289 12.3341 17.1765 12.009 16.5822C11.9116 16.5549 11.9692 12.9158 11.9692 12.9158C11.9692 12.9158 11.8139 12.8459 11.8067 12.734C11.7996 12.621 12.0179 12.6107 12.0179 12.4661C12.0179 12.3215 11.795 12.3782 11.7905 12.2327C11.7915 12.0936 12.0285 12.1128 12.0179 11.9842C12.0054 11.8393 11.7524 11.8608 11.7417 11.7272C11.7335 11.6211 11.9226 11.5286 11.9752 11.4809L11.7986 11.4783L11.4004 11.4864C11.1175 11.4867 11.4053 11.5473 11.4011 11.7086C11.3985 11.814 11.2577 11.8842 11.2451 11.9758C11.2406 12.0698 11.4466 12.1359 11.4492 12.2488C11.4516 12.3495 11.2468 12.3564 11.2542 12.45C11.2669 12.6084 11.4355 12.6432 11.433 12.7392C11.4304 12.8349 11.206 12.8715 11.2054 12.9479C11.2133 13.0958 11.2379 16.69 11.2379 16.69C11.5955 18.521 13.6593 18.9868 14.2443 16.5777Z" fill="#CE1126" stroke="#630810" stroke-width="0.144892" stroke-linejoin="round"/>
<path d="M15.6049 16.5777C16.1249 17.4289 17.515 17.1765 17.8401 16.5822C17.9375 16.5549 17.88 12.9158 17.88 12.9158C17.88 12.9158 18.0353 12.8458 18.0424 12.734C18.0495 12.621 17.8449 12.6107 17.8449 12.4661C17.8449 12.3215 18.0542 12.3782 18.0586 12.2327C18.0577 12.0936 17.8388 12.1038 17.8495 11.9752C17.8619 11.8303 18.0338 11.8473 18.0435 11.7137C18.0517 11.5987 17.9357 11.5286 17.8831 11.4809L18.0506 11.4783L18.4487 11.4864C18.7317 11.4867 18.4439 11.5473 18.4481 11.7086C18.4506 11.814 18.5915 11.8842 18.6041 11.9758C18.6085 12.0698 18.4025 12.1359 18.3999 12.2488C18.3976 12.3495 18.6024 12.3564 18.595 12.45C18.5823 12.6084 18.4136 12.6432 18.4162 12.7392C18.4187 12.8349 18.6431 12.8715 18.6437 12.9479C18.6359 13.0958 18.6112 16.69 18.6112 16.69C18.2537 18.521 16.1899 18.9868 15.6049 16.5777Z" fill="#CE1126" stroke="#630810" stroke-width="0.144892" stroke-linejoin="round"/>
<path d="M13.6224 16.7392C13.8232 16.6309 14.0056 16.5227 14.1334 16.2701L13.3486 16.2881C13.3486 16.2881 12.9837 16.5047 12.8011 16.7392L13.6224 16.7392Z" fill="#630810" stroke="#630810" stroke-width="0.20937" stroke-linecap="round"/>
<path d="M16.1588 16.7392C15.958 16.6309 15.7756 16.5227 15.6478 16.2701L16.4326 16.2881C16.4326 16.2881 16.7975 16.5047 16.98 16.7392L16.1588 16.7392Z" fill="#630810" stroke="#630810" stroke-width="0.20937" stroke-linecap="round"/>
<path d="M12.1987 15.9819L17.6009 15.9999L12.1987 15.9819Z" fill="#630810"/>
<path d="M12.1987 15.9819L17.6009 15.9999" stroke="#630810" stroke-width="0.20937" stroke-linecap="round"/>
<path d="M12.4541 14.7017L13.0929 15.5495L12.4541 14.7017Z" fill="#630810"/>
<path d="M12.4541 14.7017L13.0929 15.5495" stroke="#630810" stroke-width="0.20937" stroke-linecap="round"/>
<path d="M12.4541 15.5492L13.1477 14.7195L12.4541 15.5492Z" fill="#630810"/>
<path d="M12.4541 15.5492L13.1477 14.7195" stroke="#630810" stroke-width="0.20937" stroke-linecap="round"/>
<path d="M12.8196 14.6469L12.8014 15.1699L12.8196 14.6469Z" fill="#630810"/>
<path d="M12.8196 14.6469L12.8014 15.1699" stroke="#630810" stroke-width="0.20937" stroke-linecap="round"/>
<path d="M13.4761 14.7017L14.1149 15.5495L13.4761 14.7017Z" fill="#630810"/>
<path d="M13.4761 14.7017L14.1149 15.5495" stroke="#630810" stroke-width="0.20937" stroke-linecap="round"/>
<path d="M13.4761 15.5492L14.1697 14.7195L13.4761 15.5492Z" fill="#630810"/>
<path d="M13.4761 15.5492L14.1697 14.7195" stroke="#630810" stroke-width="0.20937" stroke-linecap="round"/>
<path d="M13.841 14.6469L13.8228 15.1699L13.841 14.6469Z" fill="#630810"/>
<path d="M13.841 14.6469L13.8228 15.1699" stroke="#630810" stroke-width="0.20937" stroke-linecap="round"/>
<path d="M14.5167 14.7018L15.1555 15.5496L14.5167 14.7018Z" fill="#630810"/>
<path d="M14.5167 14.7018L15.1555 15.5496" stroke="#630810" stroke-width="0.20937" stroke-linecap="round"/>
<path d="M14.5167 15.5493L15.2103 14.7196L14.5167 15.5493Z" fill="#630810"/>
<path d="M14.5167 15.5493L15.2103 14.7196" stroke="#630810" stroke-width="0.20937" stroke-linecap="round"/>
<path d="M14.8816 14.6469L14.8634 15.17L14.8816 14.6469Z" fill="#630810"/>
<path d="M14.8816 14.6469L14.8634 15.17" stroke="#630810" stroke-width="0.20937" stroke-linecap="round"/>
<path d="M15.5934 14.7018L16.2322 15.5496L15.5934 14.7018Z" fill="#630810"/>
<path d="M15.5934 14.7018L16.2322 15.5496" stroke="#630810" stroke-width="0.20937" stroke-linecap="round"/>
<path d="M15.5934 15.5493L16.287 14.7196L15.5934 15.5493Z" fill="#630810"/>
<path d="M15.5934 15.5493L16.287 14.7196" stroke="#630810" stroke-width="0.20937" stroke-linecap="round"/>
<path d="M15.9583 14.6469L15.9401 15.17L15.9583 14.6469Z" fill="#630810"/>
<path d="M15.9583 14.6469L15.9401 15.17" stroke="#630810" stroke-width="0.20937" stroke-linecap="round"/>
<path d="M16.6334 14.7018L17.2722 15.5496L16.6334 14.7018Z" fill="#630810"/>
<path d="M16.6334 14.7018L17.2722 15.5496" stroke="#630810" stroke-width="0.20937" stroke-linecap="round"/>
<path d="M16.6334 15.5493L17.327 14.7196L16.6334 15.5493Z" fill="#630810"/>
<path d="M16.6334 15.5493L17.327 14.7196" stroke="#630810" stroke-width="0.20937" stroke-linecap="round"/>
<path d="M16.9983 14.6469L16.9801 15.17L16.9983 14.6469Z" fill="#630810"/>
<path d="M16.9983 14.6469L16.9801 15.17" stroke="#630810" stroke-width="0.20937" stroke-linecap="round"/>
</g>
</g>
<defs>
<clipPath id="clip0_1_15575">
<rect y="0.0010376" width="30" height="30" rx="15" fill="white"/>
</clipPath>
</defs>
</svg>
