<svg width="30" height="30" viewBox="0 0 30 30" fill="none" xmlns="http://www.w3.org/2000/svg">
<path d="M30 15.0009C30 6.71869 23.2807 0.000915527 14.9965 0.000915527C9.7872 0.000915527 5.20244 2.65648 2.51198 6.68439L27.4742 23.3244C29.0734 20.9433 30 18.0819 30 15.0009Z" fill="#CE1126"/>
<path d="M14.9966 30.0009C20.2059 30.0009 24.7907 27.3454 27.4811 23.3175L2.51889 6.67749C0.926576 9.05855 5.2533e-06 11.9199 5.2533e-06 14.994C-0.00685816 23.29 6.71243 30.0009 14.9966 30.0009Z" fill="black"/>
<path d="M7.81734 11.2887L8.16738 12.3525H9.2861L8.38014 13.0183L8.72331 14.0821L7.81734 13.4232L6.91136 14.0821L7.25453 13.0183L6.34856 12.3525H7.47417L7.81734 11.2887Z" fill="white"/>
<path d="M7.81734 22.1922L8.16738 23.2629H9.2861L8.38014 23.9218L8.72331 24.9856L7.81734 24.3267L6.91136 24.9856L7.25453 23.9218L6.34856 23.2629H7.47417L7.81734 22.1922Z" fill="white"/>
<path d="M4.37871 15.8999L4.72188 16.9637H5.84062L4.93465 17.6226L5.27782 18.6933L4.37871 18.0344L3.46589 18.6933L3.81593 17.6226L2.90995 16.9637H4.02869L4.37871 15.8999Z" fill="white"/>
<path d="M11.2558 15.5088L11.6059 16.5795H12.7246L11.8186 17.2384L12.1618 18.3022L11.2558 17.6433L10.3499 18.3022L10.6999 17.2384L9.79394 16.5795H10.9127L11.2558 15.5088Z" fill="white"/>
<path d="M9.31348 19.5092L9.4988 20.0788H10.0959L9.61547 20.4358L9.79393 20.9986L9.31348 20.6485L8.82618 20.9986L9.01149 20.4358L8.53106 20.0788H9.12817L9.31348 19.5092Z" fill="white"/>
<path d="M24.0494 13.5394C24.0426 13.5119 24.0288 13.4913 24.022 13.4707C23.9327 13.21 23.8024 12.9698 23.6514 12.7434C23.617 12.6748 23.569 12.6199 23.5347 12.5581C23.5278 12.4346 23.5072 12.3111 23.4935 12.1876C23.4729 12.0709 23.4523 11.9611 23.4249 11.8445C23.418 11.8102 23.4111 11.7827 23.4043 11.7553C23.3837 11.6867 23.3631 11.6249 23.3425 11.5632C23.2807 11.3985 23.1915 11.2338 23.0817 11.0897C23.0336 11.0211 22.9719 10.9593 22.9376 10.877C22.9376 10.8564 22.9307 10.8289 22.9307 10.8083C23.0199 10.8632 23.0817 10.9456 23.1709 10.9867C23.1915 11.0005 23.219 11.0005 23.2395 11.0005C23.2395 10.9593 23.2464 10.9182 23.2327 10.8907C23.2052 10.7741 23.1435 10.6642 23.116 10.5545C23.1709 10.5476 23.2121 10.5888 23.2601 10.6231C23.3768 10.7054 23.4866 10.7946 23.6102 10.8838C23.6376 10.9044 23.6651 10.9181 23.6994 10.9181C23.6994 10.8976 23.6994 10.8701 23.6994 10.8427C23.6925 10.7946 23.6788 10.7466 23.6651 10.6917C23.6445 10.6368 23.6308 10.5888 23.617 10.527C23.5415 10.2937 23.4592 10.0673 23.3494 9.8477C23.3288 9.79967 23.2945 9.75851 23.2464 9.73106C23.3288 9.74479 23.4043 9.79282 23.4866 9.8134C23.4592 9.7242 23.4043 9.64869 23.3631 9.56634C23.2395 9.37421 23.1091 9.17524 22.9719 8.98997C22.8758 8.8596 22.7797 8.72233 22.6562 8.61941C22.6218 8.57823 22.5738 8.57827 22.5257 8.57141C22.6287 8.54396 22.7248 8.52336 22.8346 8.50963C22.766 8.42043 22.6767 8.35179 22.5875 8.27631C22.3953 8.11849 22.1894 7.96068 21.9767 7.81658C21.8875 7.75483 21.7914 7.69992 21.6884 7.67934C21.7296 7.63817 21.7845 7.61071 21.8394 7.59013C21.9424 7.5421 22.0522 7.50093 22.162 7.46662C22.0934 7.42545 22.0247 7.39803 21.9492 7.36372C21.51 7.19217 21.0295 7.13039 20.5628 7.20587C20.3432 7.24018 20.1373 7.30879 19.9451 7.41858C19.9039 7.43917 19.8627 7.47349 19.8216 7.47349C19.8696 7.40487 19.9382 7.34314 20 7.28138C20.0755 7.21276 20.1373 7.14412 20.2128 7.08236C20.2745 7.02746 20.3363 6.95887 20.3775 6.89025C20.3912 6.86966 20.3844 6.84223 20.3844 6.81478C20.3157 6.75302 20.2265 6.70498 20.1716 6.63636C20.2402 6.55402 20.3432 6.50599 20.4255 6.42365C20.4599 6.3962 20.5079 6.34817 20.5079 6.30014C20.4942 6.29328 20.4873 6.27953 20.4736 6.27267C20.3912 6.21091 20.2883 6.23152 20.1991 6.21093C20.1991 6.18349 20.2059 6.15601 20.2196 6.13542C20.2814 6.03936 20.3638 5.95017 20.4255 5.8541C20.4461 5.82666 20.453 5.79234 20.4599 5.75803C20.3706 5.68255 20.254 5.68941 20.151 5.70999C20.1922 5.62765 20.2265 5.54531 20.2608 5.45611C20.2746 5.4218 20.2745 5.38751 20.2745 5.34634C20.1922 5.31203 20.1098 5.36003 20.0206 5.36003C20.0275 5.30514 20.0549 5.25712 20.0892 5.20909C20.1579 5.07871 20.2334 4.94833 20.2951 4.81109C20.302 4.77678 20.3089 4.73564 20.3089 4.70819C20.2814 4.70819 20.254 4.70133 20.2196 4.70819C20.1304 4.73564 20.0481 4.78366 19.9657 4.8317C19.6363 5.03069 19.3274 5.27085 19.0597 5.55218C18.8813 5.73745 18.7166 5.95017 18.6136 6.1972C18.5587 6.32757 18.5175 6.47169 18.4969 6.60206C18.4832 6.72558 18.4832 6.86281 18.4832 6.98633C18.4969 7.14415 18.5244 7.2951 18.5518 7.44606C18.5518 7.51468 18.5587 7.58329 18.545 7.6519C18.5244 7.73425 18.5107 7.81658 18.4763 7.89892C18.4557 7.96068 18.4283 8.02243 18.3802 8.07047C18.3391 8.11164 18.2773 8.13222 18.2155 8.11164C18.14 8.09791 18.0645 8.06361 17.9959 8.0293C17.8586 7.95382 17.7282 7.87147 17.6047 7.76854C17.5223 7.70679 17.4674 7.61758 17.3919 7.54896C17.3096 7.47348 17.1929 7.43233 17.0831 7.43919C16.8909 7.45291 16.7056 7.51466 16.5203 7.55583C16.4722 7.56955 16.4242 7.56957 16.3761 7.56957C16.1977 7.54898 16.0192 7.52155 15.8477 7.50096C15.7722 7.48724 15.6898 7.4735 15.6143 7.48723C15.6349 7.51467 15.6692 7.52837 15.7035 7.54896C15.8888 7.64503 16.081 7.71367 16.2663 7.78915C16.3418 7.82346 16.4104 7.85089 16.4722 7.90579C16.534 7.96068 16.5683 8.03617 16.6301 8.0842C16.6781 8.11851 16.7399 8.13223 16.7948 8.15967C16.987 8.24202 17.1792 8.32435 17.3439 8.45473C17.4125 8.50962 17.4674 8.57825 17.4949 8.67431C17.5017 8.76352 17.4606 8.84588 17.3919 8.90763C17.3302 8.95567 17.234 8.95565 17.1586 8.93507C17.0076 8.88703 16.8703 8.8184 16.7262 8.74978C16.4928 8.64685 16.2389 8.55767 15.978 8.55767C15.6829 8.57826 15.4084 8.7292 15.1956 8.9282C15.0378 9.06543 14.9074 9.22328 14.7701 9.3811C14.7289 9.436 14.6946 9.49089 14.6534 9.54578C14.5642 9.68988 14.475 9.84768 14.3926 9.99177C14.2691 10.2251 14.1524 10.4515 14.0494 10.6848C14.0288 10.7397 14.0014 10.7877 14.0014 10.8495C14.0357 10.8495 14.07 10.8358 14.0975 10.8083C14.2347 10.6917 14.3446 10.5545 14.4818 10.4378C14.4887 10.4378 14.5024 10.4378 14.5093 10.4378C14.5161 10.575 14.4132 10.6848 14.3926 10.8152C14.42 10.8152 14.4475 10.8221 14.475 10.8015C14.6054 10.726 14.722 10.6368 14.8525 10.5613C14.9074 10.5339 14.9554 10.4996 15.0172 10.4927C15.024 10.5408 15.0172 10.5888 15.0034 10.6368C14.9691 10.7123 14.9623 10.7946 14.976 10.8701C14.9966 10.8701 15.0172 10.8701 15.0309 10.8564C15.1064 10.8083 15.1613 10.7397 15.2299 10.678C15.2917 10.6299 15.3535 10.5613 15.429 10.5408C15.4358 10.5956 15.4152 10.6437 15.4015 10.6986C15.3672 10.8015 15.3192 10.925 15.3741 11.0279C15.4427 11.0005 15.4976 10.9387 15.5457 10.8907C15.6761 10.7741 15.7859 10.6437 15.93 10.5408C15.9506 10.5202 15.9849 10.5201 16.0124 10.5201C16.0261 10.678 15.9506 10.8289 15.9575 10.9867C15.9643 10.9867 15.978 10.9867 15.9849 10.9867C16.1565 10.8358 16.3075 10.6642 16.4791 10.5201C16.5134 10.4858 16.5477 10.4515 16.5889 10.4447C16.5958 10.4447 16.6095 10.4516 16.6164 10.4584C16.6301 10.5682 16.6164 10.6711 16.6164 10.7809C16.6026 10.8495 16.6095 10.925 16.6095 10.9867C16.6163 10.9867 16.6232 10.9799 16.6301 10.9799C16.6781 10.9387 16.7262 10.8907 16.7742 10.8358C16.9115 10.6711 17.0487 10.4996 17.1654 10.3212C17.1723 10.3212 17.1791 10.3212 17.186 10.3212C17.1997 10.3967 17.1929 10.4653 17.1997 10.5408C17.2066 10.6231 17.2203 10.7054 17.2272 10.7809C17.2478 10.8976 17.2752 11.0142 17.3164 11.1377C17.3713 11.2818 17.44 11.4122 17.5429 11.522C17.7488 11.7484 17.9684 11.9611 18.2018 12.1601C18.3322 12.2631 18.4558 12.3797 18.593 12.4758C18.6136 12.4895 18.6342 12.4826 18.6548 12.4826C18.6617 12.4277 18.6754 12.3797 18.6685 12.3179C18.6754 12.2356 18.6479 12.1464 18.6548 12.0572C18.6754 12.0709 18.696 12.0846 18.7097 12.0984C18.744 12.1395 18.792 12.1739 18.8332 12.215C18.9568 12.3248 19.0803 12.4346 19.2176 12.517C19.245 12.5376 19.2725 12.5375 19.3068 12.5375C19.3068 12.4826 19.3137 12.4209 19.3 12.3729C19.2931 12.3317 19.2931 12.2836 19.3 12.2425C19.3068 12.2356 19.3205 12.2288 19.3274 12.215C19.348 12.2356 19.3754 12.2562 19.396 12.2699C19.5951 12.4895 19.8216 12.7022 20.0549 12.8875C20.3844 13.1414 20.7481 13.3404 21.1393 13.4845C21.208 13.5119 21.2766 13.5394 21.3452 13.5462C21.2903 13.3816 21.1874 13.2512 21.1119 13.1002C21.0982 13.0796 21.0913 13.0522 21.0913 13.0247C21.2286 13.059 21.3521 13.1414 21.5031 13.1551C21.4756 13.0796 21.4207 13.011 21.3727 12.9493C21.2697 12.7983 21.1668 12.6542 21.0707 12.5032C21.0227 12.4209 20.9678 12.3454 20.9472 12.2562C20.9815 12.2562 21.0089 12.2562 21.0364 12.2562C21.0982 12.2699 21.1599 12.3042 21.2148 12.2768C21.208 12.2562 21.1942 12.2288 21.1737 12.2082C21.0158 12.0229 20.8648 11.8308 20.7207 11.6386C20.6795 11.5769 20.6383 11.5151 20.6108 11.4534C20.5903 11.419 20.5971 11.3847 20.5971 11.3436C20.6795 11.323 20.7413 11.4054 20.8236 11.4054C20.8236 11.371 20.8236 11.3436 20.8099 11.3093C20.7687 11.1652 20.707 11.0348 20.6726 10.8907C20.6589 10.8427 20.652 10.7946 20.6589 10.7535C20.7138 10.7397 20.7687 10.7741 20.8168 10.7946C21.0021 10.8907 21.1805 11.0074 21.3658 11.0897C21.4001 11.1103 21.4345 11.1103 21.4688 11.1103C21.51 11.0622 21.5237 11.0005 21.5237 10.9456C21.5786 10.973 21.6198 11.0142 21.6678 11.0554C22.2443 11.522 22.7934 12.0298 23.2121 12.6473C23.219 12.7983 23.1915 12.9492 23.1572 13.0933C23.1366 13.1963 23.0817 13.2855 23.0405 13.3815C22.9032 13.6423 22.7179 13.8962 22.4708 14.0814C22.2306 14.2667 21.9286 14.3696 21.6198 14.3765C21.3315 14.3902 21.0433 14.3216 20.7756 14.2256C20.8854 14.3628 21.0364 14.4589 21.1874 14.5344C21.4688 14.6785 21.8051 14.7539 22.1139 14.6647C22.4983 14.5687 22.8621 14.3765 23.1297 14.0746C23.2739 13.903 23.3837 13.7109 23.4523 13.4982C23.4729 13.4365 23.4866 13.3815 23.5004 13.3198C23.5072 13.2855 23.5141 13.2649 23.5141 13.2306C23.5209 13.2306 23.5347 13.2375 23.5415 13.2375C23.569 13.3061 23.5964 13.3816 23.6239 13.457C23.6651 13.5668 23.6925 13.6835 23.72 13.8001C23.7406 13.9099 23.7612 14.0197 23.7612 14.1295C23.7612 14.2804 23.768 14.4314 23.7406 14.5823C23.7337 14.6304 23.7269 14.6784 23.7131 14.7265C23.6857 14.8431 23.6514 14.9598 23.6033 15.0627C23.5347 15.2136 23.4386 15.3509 23.3219 15.4607C23.1915 15.5911 23.0336 15.6871 22.8689 15.7557C22.6012 15.8587 22.313 15.8998 22.0247 15.893C21.9286 15.893 21.8394 15.8861 21.7433 15.8861C21.8051 15.9204 21.8737 15.9616 21.9424 15.9959C22.1757 16.0851 22.4297 16.1057 22.6836 16.0783C22.9238 16.0577 23.1641 15.9822 23.37 15.8587C23.5347 15.7626 23.6788 15.6322 23.7955 15.4881C23.9122 15.344 23.9945 15.1725 24.0563 15.001C24.0906 14.8843 24.1249 14.7608 24.1387 14.6304C24.1524 14.5412 24.1524 14.4383 24.1661 14.3422C24.1661 14.054 24.1249 13.7864 24.0494 13.5394ZM22.8415 11.7347C22.6081 11.4945 22.3542 11.275 22.0933 11.0623C21.908 10.9113 21.7159 10.7672 21.5168 10.6368C21.5168 10.6025 21.5168 10.5751 21.5168 10.5408C21.558 10.527 21.5992 10.5407 21.6404 10.5613C21.8051 10.6299 21.9561 10.726 22.1208 10.7946C22.1551 10.8084 22.21 10.8221 22.2375 10.7946C22.2855 10.7466 22.2855 10.678 22.3061 10.6162C22.313 10.6162 22.3198 10.6231 22.3267 10.6231C22.4228 10.7123 22.512 10.8221 22.5944 10.9319C22.8209 11.2338 23.0062 11.57 23.1091 11.9406C23.1229 11.9749 23.1297 12.016 23.1297 12.0572C23.0405 11.9474 22.9444 11.8445 22.8415 11.7347Z" fill="#FDD116"/>
</svg>
