<svg width="30" height="30" viewBox="0 0 30 30" fill="none" xmlns="http://www.w3.org/2000/svg">
<path d="M30.0004 15.001C30.0004 6.7187 23.2827 0.000915527 15.0004 0.000915527C9.79226 0.000915527 5.20854 2.65649 2.51869 6.6844L15.0004 15.001H30.0004Z" fill="#0038A8"/>
<path d="M30.0004 15.001H15.0004L2.51869 23.3244C5.20854 27.3523 9.79226 30.001 15.0004 30.001C23.2827 30.001 30.0004 23.2832 30.0004 15.001Z" fill="#CE1126"/>
<path d="M2.51869 6.68439C0.926735 9.06545 0.000396729 11.9268 0.000396729 15.0009C0.000396729 18.0819 0.926735 20.9365 2.51869 23.3244L15.0004 15.0009L2.51869 6.68439Z" fill="#F1F4FB"/>
<path d="M3.43819 21.5746L2.86182 21.3276L2.45008 21.801L2.51185 21.1766L1.93544 20.9296L2.54616 20.7924L2.60106 20.1679L2.92355 20.71L3.53426 20.5659L3.1157 21.0394L3.43819 21.5746Z" fill="#FCD116"/>
<path d="M8.18659 15.3646C8.2758 15.2685 8.36497 15.1793 8.45417 15.0833C8.37183 15.0147 8.20031 14.7951 8.09052 14.8019C7.8229 14.8362 7.5553 14.8637 7.28769 14.898C7.02008 14.9323 7.0338 14.8157 7.28769 14.7745C7.52099 14.7333 7.75427 14.6922 7.98757 14.651C7.82289 14.5206 7.80918 14.4794 7.61705 14.5343C7.39061 14.5961 7.08867 14.7882 7.00633 14.548C6.95144 14.3902 6.82794 14.3216 6.9789 14.2392C7.10241 14.1706 7.21904 14.1089 7.34256 14.0403C7.569 13.9168 7.569 13.9099 7.60331 13.656C7.4249 13.7727 7.24652 13.8893 7.06811 14.0128C6.98576 14.0677 6.91026 14.1226 6.82792 14.1706C6.69754 14.2598 6.82107 14.0334 6.84852 14.006C7.07496 13.8344 7.29453 13.6629 7.52097 13.4913C7.67879 13.3678 7.61705 13.2169 7.61705 13.0247C7.50726 13.0316 7.2328 12.9904 7.16418 13.0728C6.99264 13.2855 6.82792 13.4913 6.65637 13.6972C6.48482 13.9099 6.42306 13.807 6.56716 13.608C6.71126 13.4158 6.84853 13.2237 6.98577 13.0316C6.77991 13.0522 6.73873 13.0316 6.63581 13.2031C6.56719 13.3198 6.49171 13.4433 6.42309 13.5599C6.32703 13.7178 6.38191 13.7178 6.19664 13.6286C6.04568 13.5531 5.87416 13.6011 5.92219 13.4159C5.9565 13.2786 5.99765 13.1482 6.03196 13.011C6.10058 12.764 6.09371 12.764 5.93588 12.5581C5.89471 12.7708 5.86042 12.9836 5.81924 13.1963C5.79866 13.2923 5.78493 13.3884 5.77121 13.4845C5.74376 13.6354 5.66826 13.3884 5.66826 13.3541C5.69571 13.0727 5.73002 12.7914 5.75747 12.5101C5.77805 12.318 5.62713 12.2493 5.48989 12.119C5.41441 12.2013 5.20167 12.3728 5.2154 12.4826C5.24971 12.7502 5.28403 13.0179 5.31147 13.2855C5.33892 13.5531 5.22914 13.5325 5.18797 13.2855C5.14679 13.0522 5.10563 12.8189 5.06446 12.5856C4.93408 12.7502 4.89288 12.764 4.94778 12.9561C4.98209 13.0933 5.02328 13.2237 5.05759 13.361C5.10562 13.5394 5.14678 13.505 4.95464 13.5737C4.79682 13.6286 4.71449 13.7727 4.62529 13.6148C4.55667 13.4982 4.48806 13.3747 4.41944 13.258C4.28907 13.0316 4.28906 13.0316 4.02831 13.0041C4.15182 13.1825 4.27532 13.3541 4.39884 13.5325C4.45373 13.608 4.50862 13.6903 4.56351 13.7658C4.65272 13.8893 4.41942 13.7727 4.39884 13.7452C4.22043 13.5256 4.04204 13.306 3.86363 13.0933C3.74012 12.9424 3.58912 13.0041 3.39699 13.011C3.40385 13.1208 3.36956 13.3953 3.45877 13.4639C3.67148 13.6286 3.8842 13.7932 4.09691 13.9511C4.31649 14.1157 4.22042 14.1844 4.00771 14.0403C3.81557 13.903 3.6166 13.7726 3.42446 13.6423C3.45191 13.8481 3.4313 13.8824 3.60971 13.9854C3.81556 14.102 4.15866 14.1707 4.04887 14.404C3.98026 14.5549 4.0283 14.7059 3.8499 14.6647C3.71952 14.6304 3.58227 14.5892 3.44503 14.5618C3.19114 14.4932 3.19116 14.5 2.99216 14.6579C3.20488 14.6922 3.41759 14.7333 3.63031 14.7676C3.72638 14.7813 3.82243 14.8019 3.91163 14.8157C4.06259 14.8431 3.81556 14.9186 3.78125 14.9186C3.49992 14.8912 3.21859 14.8637 2.93726 14.8363C2.73826 14.8157 2.6765 14.9666 2.54613 15.1107C2.62847 15.1793 2.80004 15.3989 2.90983 15.3852C3.17744 15.3509 3.44504 15.3166 3.71265 15.2823C3.98026 15.248 3.95968 15.3577 3.71265 15.4058C3.47935 15.4469 3.24603 15.495 3.01273 15.5361C3.17741 15.6665 3.19116 15.7077 3.3833 15.6528C3.6166 15.591 3.90476 15.3921 3.99397 15.6391C4.04886 15.7969 4.18613 15.8655 4.02831 15.9547C3.91166 16.0233 3.78813 16.092 3.66461 16.1606C3.43817 16.291 3.44504 16.291 3.41073 16.5517C3.58914 16.4282 3.76756 16.3047 3.94597 16.1812C4.02145 16.1263 4.10377 16.0714 4.17925 16.0165C4.30963 15.9273 4.18614 16.1537 4.15869 16.1812C3.93911 16.3596 3.71951 16.538 3.49993 16.7164C3.34897 16.8399 3.40387 16.9909 3.41073 17.183C3.52052 17.1761 3.79501 17.2104 3.86363 17.1212C4.02832 16.9085 4.19299 16.7027 4.36454 16.49C4.52922 16.2772 4.59784 16.3733 4.45374 16.5792C4.31651 16.7713 4.17925 16.9634 4.04887 17.1624C4.25473 17.135 4.29591 17.1555 4.39884 16.984C4.46745 16.8605 4.53606 16.7439 4.60468 16.6272C4.69389 16.4694 4.64587 16.4625 4.83114 16.5517C4.9821 16.6272 5.14679 16.5792 5.09876 16.7644C5.06445 16.8948 5.03012 17.032 4.98895 17.1624C4.92033 17.4163 4.92721 17.4163 5.09189 17.6153C5.1262 17.4026 5.16735 17.1899 5.20166 16.9772C5.21538 16.8811 5.23598 16.785 5.2497 16.6958C5.27715 16.5448 5.35264 16.7919 5.35264 16.8262C5.3252 17.1075 5.29088 17.3888 5.26344 17.6702C5.24285 17.8692 5.39382 17.9309 5.53106 18.0613C5.59968 17.979 5.81923 17.8074 5.80551 17.6976C5.7712 17.43 5.73691 17.1624 5.7026 16.8948C5.6683 16.6272 5.77808 16.6478 5.82611 16.8948C5.86728 17.1281 5.91532 17.3614 5.95649 17.5947C6.08687 17.43 6.12802 17.4163 6.07313 17.2173C6.03196 17.0869 5.99766 16.9497 5.95649 16.8124C5.90846 16.6409 5.86726 16.6683 6.05939 16.5997C6.21722 16.538 6.29272 16.3939 6.38879 16.5586C6.45741 16.6821 6.53289 16.7987 6.60151 16.9154C6.73188 17.1418 6.73875 17.135 6.99264 17.1624C6.86912 16.9909 6.74558 16.8124 6.62207 16.6409C6.56717 16.5586 6.51229 16.4831 6.45739 16.4007C6.36819 16.2772 6.60148 16.3939 6.62207 16.4214C6.80048 16.6409 6.97891 16.8605 7.16418 17.0732C7.2877 17.2242 7.43865 17.1624 7.63078 17.1555C7.62392 17.0457 7.65135 16.7713 7.56901 16.7027C7.35629 16.538 7.13672 16.3733 6.93086 16.2086C6.71128 16.044 6.80734 15.9822 7.0132 16.1194C7.21219 16.2498 7.41118 16.387 7.60331 16.5174C7.57586 16.3115 7.59648 16.2704 7.41807 16.1743C7.21221 16.0645 6.86224 15.989 6.97203 15.7626C7.04065 15.6116 6.99946 15.4676 7.17101 15.5156C7.30825 15.5499 7.43863 15.591 7.56901 15.6254C7.81604 15.694 7.81606 15.694 8.02191 15.5293C7.83664 15.495 7.6582 15.4607 7.47293 15.4264C7.37687 15.4058 7.28081 15.3921 7.17788 15.3715C7.13671 15.3646 6.97891 15.2274 7.11614 15.2411C7.4661 15.2891 7.82291 15.3234 8.18659 15.3646Z" fill="#FCD116"/>
<path d="M10.8559 15.5088L11.2265 15.001L10.8491 14.5L11.446 14.6922L11.8097 14.1776V14.8088L12.4135 14.9941L11.8166 15.1862L11.8234 15.8175L11.4529 15.3097L10.8559 15.5088Z" fill="#FCD116"/>
<path d="M3.4381 8.42045L2.86172 8.67434L2.44999 8.20087L2.51176 8.82532L1.93535 9.07234L2.55293 9.20271L2.60784 9.82712L2.92346 9.28505L3.53417 9.4223L3.11561 8.9557L3.4381 8.42045Z" fill="#FCD116"/>
</svg>
