<svg width="30" height="30" viewBox="0 0 30 30" fill="none" xmlns="http://www.w3.org/2000/svg">
<path d="M0.00012207 15.0077C0.00012207 20.9226 3.43105 26.0209 8.39903 28.4637V1.55154C3.42419 3.99436 0.00012207 9.09275 0.00012207 15.0077Z" fill="#F1F4FB"/>
<path d="M15.0002 30.0008C23.2825 30.0008 30.0002 23.283 30.0002 15.0008C30.0002 6.71851 23.2825 0.000732422 15.0002 0.000732422C12.626 0.000732422 10.3959 0.570266 8.39911 1.54465V28.4568C10.389 29.4381 12.626 30.0008 15.0002 30.0008Z" fill="#006600"/>
<path d="M25.4096 18.2052C22.6237 20.6892 18.3487 20.4353 15.8648 17.6426C13.3876 14.8567 13.6347 10.5817 16.4274 8.10458C16.5441 7.9948 16.6745 7.89877 16.8048 7.8027C13.8268 8.74964 11.6584 11.5355 11.6584 14.8292C11.6584 18.9052 14.9659 22.2057 19.0349 22.2057C22.0198 22.2057 24.5793 20.4285 25.7458 17.8827C25.636 17.9925 25.5262 18.1023 25.4096 18.2052Z" fill="#F1F4FB"/>
<path d="M21.663 9.38782L22.8569 10.671L24.442 9.92989L23.598 11.4601L24.792 12.7432L23.0696 12.407L22.2188 13.9441L22.0061 12.2012L20.2906 11.8718L21.8757 11.1307L21.663 9.38782Z" fill="#F1F4FB"/>
</svg>
