<svg width="30" height="30" viewBox="0 0 30 30" fill="none" xmlns="http://www.w3.org/2000/svg">
<g clip-path="url(#clip0_1_15793)">
<path d="M45 0.0010376H-15V30.001H45V0.0010376Z" fill="#012169"/>
<path d="M-15 0.0010376L15 15.001L-15 0.0010376ZM15 0.0010376L-15 15.001L15 0.0010376Z" fill="black"/>
<path d="M-15 0.0010376L15 15.001M15 0.0010376L-15 15.001" stroke="white" stroke-width="3"/>
<mask id="mask0_1_15793" style="mask-type:luminance" maskUnits="userSpaceOnUse" x="-15" y="0" width="35" height="21">
<path d="M-15 0.0010376V7.50104H20V15.001H15L-15 0.0010376ZM15 0.0010376H0V20.001H-15V15.001L15 0.0010376Z" fill="white"/>
</mask>
<g mask="url(#mask0_1_15793)">
<path d="M-15 0.0010376L15 15.001L-15 0.0010376ZM15 0.0010376L-15 15.001L15 0.0010376Z" fill="black"/>
<path d="M-15 0.0010376L15 15.001M15 0.0010376L-15 15.001" stroke="#C8102E" stroke-width="2"/>
</g>
<path d="M0 0.0010376V20.001V0.0010376ZM-15 7.50104H20H-15Z" fill="black"/>
<path d="M2.23517e-07 0.0010376V20.001M-15 7.50104H20" stroke="white" stroke-width="5"/>
<path d="M0 0.0010376V20.001V0.0010376ZM-15 7.50104H20H-15Z" fill="black"/>
<path d="M2.23517e-07 0.0010376V20.001M-15 7.50104H20" stroke="#C8102E" stroke-width="3"/>
<path d="M15 0.0010376V15.001H-15V30.001H45V0.0010376H15Z" fill="#012169"/>
<path d="M23.4712 15.9091C22.8312 16.4511 22.2212 17.2431 22.0712 17.9591C21.6492 19.9731 21.0892 20.4211 20.2252 19.9891C20.2252 21.0711 21.1732 21.1531 21.5892 20.5211C21.5892 21.5351 21.9572 22.4151 22.7872 23.1651C23.1372 23.4811 23.2032 23.2651 23.0372 22.9151C22.8712 22.5651 22.8712 21.4351 22.5392 20.7871C23.0712 21.1691 23.8532 20.9531 23.7872 19.9051C23.1052 20.3051 22.4272 20.2891 22.3572 19.3391C22.2712 18.2251 22.7052 16.6071 23.4712 15.9091Z" fill="#F7E017" stroke="black" stroke-width="0.03"/>
<path d="M22.6611 7.89902C22.7071 7.49902 22.6211 7.08902 22.3291 6.83102C21.7651 6.33502 21.2131 6.49902 20.8011 6.89902C20.1851 6.56702 19.8591 7.74502 19.1611 7.54702C19.2771 7.92902 19.4611 8.09502 19.8091 7.96302C19.4431 8.29502 19.8091 8.69502 19.3771 9.09302C20.1591 9.34302 20.5751 8.91102 20.5411 8.16102C20.8411 8.42702 21.3051 8.41102 21.5551 8.11102C21.1391 7.97702 21.1371 7.61702 21.3051 7.27902C21.5551 6.78102 22.7271 6.80102 22.6611 7.89902Z" fill="#F7E017" stroke="black" stroke-width="0.03"/>
<path d="M24.4654 13.685C23.5834 14.151 21.9714 13.951 21.8214 12.803C21.6714 11.655 22.7854 11.139 23.0854 10.991C23.5514 10.757 23.9174 11.173 23.7674 11.657C24.2834 11.475 24.3994 10.875 24.1494 10.527C24.8314 10.577 25.4634 10.061 25.7294 9.32902C25.4894 9.55702 24.8374 9.40302 24.3014 9.36902C24.4674 9.18702 24.4654 8.83102 24.4154 8.64702C23.8514 9.22702 23.0354 8.96102 21.9554 10.641C22.1214 10.059 22.4374 8.89502 22.6214 8.12902C22.6394 8.05302 22.6534 7.97702 22.6634 7.89902C22.7274 6.80102 21.5574 6.78102 21.3074 7.28102C21.5814 7.58902 21.4374 7.94903 21.3394 8.49503C21.2234 9.14302 20.9734 10.641 20.7574 11.139C20.6914 10.357 20.1754 10.307 20.0754 9.92502C19.9254 10.025 19.8434 10.291 19.8754 10.473C19.6914 10.273 19.0594 10.523 18.8274 10.223C18.5774 10.721 18.9774 11.221 19.3934 11.437C19.1514 11.453 19.0934 11.745 18.8274 11.745C19.1854 12.161 19.5514 12.327 19.9754 12.361C20.3994 12.395 20.7154 12.553 20.9734 13.067C21.3894 13.901 22.9734 14.441 24.4654 13.685Z" fill="#337321" stroke="black" stroke-width="0.03"/>
<path d="M26.6612 12.669C26.1632 14.049 24.7992 15.031 24.1832 15.181C23.1352 15.435 20.9992 16.473 20.4272 17.007C20.3372 16.987 20.2532 16.955 20.1912 16.911C19.9092 16.711 19.6752 16.063 20.1752 15.513C21.7392 14.049 23.4192 14.681 24.4672 13.683C23.5852 14.149 21.9732 13.949 21.8232 12.801C22.7712 13.051 24.4852 13.067 25.8472 11.603C26.0292 11.805 26.5612 12.437 26.6612 12.669Z" fill="#F7E017" stroke="black" stroke-width="0.03"/>
<path d="M23.4711 15.909C22.6811 16.579 22.2711 18.225 22.3551 19.339C22.3791 19.649 22.4651 19.859 22.5971 19.987C22.6551 19.355 23.0951 17.721 24.2171 16.993C25.1651 16.377 26.6451 14.997 27.1951 13.417C27.0951 13.135 26.9291 12.935 26.6131 12.735C26.0671 14.227 24.6091 14.943 23.4711 15.909Z" fill="#337321" stroke="black" stroke-width="0.03"/>
<path d="M26.1528 12.0291C25.8708 12.4531 25.2288 13.0351 24.6148 13.2691C24.7468 13.1191 24.7888 12.9291 24.7968 12.7711C24.0148 13.0711 22.4508 13.0371 21.8188 12.8051C22.7668 13.0551 24.4808 13.0711 25.8428 11.6071C25.9788 11.7551 26.0948 11.8871 26.1528 12.0291Z" fill="#316D3A" stroke="black" stroke-width="0.03"/>
<path d="M20.1751 15.513C18.9031 16.703 19.7431 17.741 20.2411 17.975C20.1091 18.807 20.8891 18.707 20.8731 19.405C21.1891 19.223 21.2731 18.739 21.2231 18.357C21.6231 18.789 22.6371 18.307 22.8531 19.105C22.9871 18.223 22.3051 17.343 21.4571 17.425C21.8071 17.109 21.6071 16.593 21.2751 16.461C21.2091 17.109 20.4771 17.109 20.1931 16.911C19.9091 16.711 19.6751 16.063 20.1751 15.513Z" fill="#337321" stroke="black" stroke-width="0.03"/>
<path d="M22.9271 23.081C22.7891 23.161 22.7991 23.339 22.8851 23.455C23.0591 23.687 22.7611 24.215 23.3251 24.329C23.4911 24.363 23.6191 24.261 23.6831 24.071C23.8571 23.547 23.3011 23.489 23.2511 23.239C23.2011 22.989 23.0431 23.015 22.9271 23.081Z" fill="#F7E017" stroke="black" stroke-width="0.03"/>
<path d="M23.4012 24.063C23.2152 24.149 23.0512 24.271 23.1272 24.869C23.1572 25.117 23.1432 25.717 22.9272 25.725C23.0592 25.791 23.3432 25.863 23.4592 25.709C23.5712 25.897 23.8252 25.843 23.9252 25.609C24.0572 25.717 24.2412 25.535 24.2412 25.377C24.3572 25.451 24.5912 25.343 24.5312 24.987C24.6732 25.037 24.8552 24.937 24.9212 24.845C24.7132 24.803 24.1892 24.521 24.0652 24.297C23.9412 24.071 23.6172 23.963 23.4012 24.063Z" fill="#F7E017" stroke="black" stroke-width="0.03"/>
<path d="M20.519 7.24105C20.603 7.11705 20.697 7.00105 20.801 6.89905" stroke="black" stroke-width="0.03"/>
<path d="M23.6831 9.44314C23.8291 9.35914 24.0531 9.34914 24.3011 9.36514" stroke="black" stroke-width="0.03"/>
<path d="M23.4591 25.7091C23.4011 25.6251 23.3791 25.2771 23.4211 25.0651" stroke="black" stroke-width="0.03"/>
<path d="M23.9254 25.6091C23.8334 25.5391 23.6594 25.2971 23.6294 25.0851" stroke="black" stroke-width="0.03"/>
<path d="M24.2413 25.3772C24.1253 25.3232 23.8413 24.9572 23.7793 24.7212" stroke="black" stroke-width="0.03"/>
<path d="M24.5308 24.9851C24.3928 24.9551 23.9728 24.6811 23.7988 24.3911" stroke="black" stroke-width="0.03"/>
<path d="M28.541 14.565H32.333C32.333 14.565 32.333 15.563 32.333 19.055C32.333 22.881 30.205 25.143 28.041 26.339C25.879 25.141 23.749 22.879 23.749 19.055C23.749 15.563 23.749 14.565 23.749 14.565H26.411C26.415 14.797 26.437 15.147 26.711 15.497C27.339 15.435 28.049 14.965 28.541 14.565Z" fill="#337321" stroke="black" stroke-width="0.03"/>
<path d="M32.333 14.565C32.333 14.565 32.333 15.563 32.333 19.055C32.333 20.209 32.1391 21.223 31.8091 22.105L28.0431 15.195L24.2771 22.105C23.9471 21.221 23.7531 20.209 23.7531 19.055C23.7531 15.563 23.7531 14.565 23.7531 14.565H32.333Z" fill="#006EC7" stroke="black" stroke-width="0.03"/>
<path d="M31.9232 21.775C31.8572 21.979 31.7352 22.309 31.6432 22.513L28.0432 15.821L24.4432 22.513C24.3492 22.309 24.2292 21.979 24.1632 21.775L28.0452 14.579L31.9232 21.775Z" fill="#F7E017"/>
<path d="M29.7528 24.237C29.8528 24.287 30.0368 24.379 30.1188 24.413C30.3188 24.013 30.3508 23.449 30.2848 22.949C30.0688 23.499 29.3368 23.481 29.1368 23.813C29.2588 23.875 29.3728 23.955 29.4708 24.025C29.2208 24.275 28.6368 24.693 28.3048 24.793V21.225C28.3048 20.975 28.2208 20.767 28.2208 20.559C28.2208 20.559 28.2208 19.987 28.2208 19.821C28.2208 19.655 28.1868 19.413 28.0388 19.413C27.8888 19.413 27.8568 19.655 27.8568 19.821C27.8568 19.987 27.8568 20.559 27.8568 20.559C27.8568 20.767 27.7728 21.009 27.7728 21.225V24.793C27.5908 24.261 26.8728 24.443 26.5408 23.911C26.6708 23.879 26.8088 23.869 26.9408 23.895C26.6908 23.047 26.0088 22.981 25.8768 22.731C25.8768 23.081 25.7268 23.895 25.9608 24.245C26.0128 24.183 26.0908 24.117 26.1868 24.061C26.4688 24.677 27.7408 24.679 28.0408 25.693C28.2808 25.319 29.1468 24.887 29.7528 24.237Z" fill="#F7E017" stroke="black" stroke-width="0.03"/>
<path d="M28.0412 21.2691C28.3232 21.2691 29.2212 21.1771 29.5472 21.1771C29.6312 21.1771 29.7012 21.0511 29.7012 20.8951C29.7012 20.7391 29.6332 20.6131 29.5472 20.6131C29.2232 20.6131 28.3252 20.5211 28.0412 20.5211C27.7592 20.5211 26.8612 20.6131 26.5352 20.6131C26.4512 20.6131 26.3812 20.7391 26.3812 20.8951C26.3812 21.0511 26.4492 21.1771 26.5352 21.1771C26.8612 21.1771 27.7592 21.2691 28.0412 21.2691Z" fill="#F7E017" stroke="black" stroke-width="0.03"/>
<path d="M27.859 19.8071C27.799 19.7591 27.721 19.7291 27.633 19.7291C27.445 19.7291 27.291 19.8691 27.291 20.0411C27.291 20.2131 27.443 20.3531 27.633 20.3531C27.821 20.3531 27.973 20.2131 27.973 20.0411C27.973 19.9071 28.167 19.9071 28.167 20.0411C28.167 20.3111 27.927 20.5291 27.633 20.5291C27.337 20.5291 27.099 20.3111 27.099 20.0411C27.099 19.7711 27.339 19.5531 27.633 19.5531C27.721 19.5531 27.805 19.5731 27.879 19.6071C27.873 19.6511 27.859 19.7351 27.859 19.8071Z" fill="#F7E017" stroke="black" stroke-width="0.03"/>
<path d="M26.5371 21.177C26.6211 21.177 26.6891 21.051 26.6891 20.895C26.6891 20.739 26.6211 20.613 26.5371 20.613" fill="#F7E017"/>
<path d="M26.5371 21.177C26.6211 21.177 26.6891 21.051 26.6891 20.895C26.6891 20.739 26.6211 20.613 26.5371 20.613" stroke="black" stroke-width="0.03"/>
<path d="M26.6611 21.177C26.7451 21.177 26.8131 21.051 26.8131 20.895C26.8131 20.739 26.7451 20.613 26.6611 20.613" fill="#F7E017"/>
<path d="M26.6611 21.177C26.7451 21.177 26.8131 21.051 26.8131 20.895C26.8131 20.739 26.7451 20.613 26.6611 20.613" stroke="black" stroke-width="0.03"/>
<path d="M27.4829 21.235C27.5849 21.235 27.6669 21.083 27.6669 20.895C27.6669 20.707 27.5849 20.555 27.4829 20.555" fill="#F7E017"/>
<path d="M27.4829 21.235C27.5849 21.235 27.6669 21.083 27.6669 20.895C27.6669 20.707 27.5849 20.555 27.4829 20.555" stroke="black" stroke-width="0.03"/>
<path d="M27.6733 21.249C27.7793 21.249 27.8653 21.089 27.8653 20.893C27.8653 20.697 27.7793 20.537 27.6733 20.537" fill="#F7E017"/>
<path d="M27.6733 21.249C27.7793 21.249 27.8653 21.089 27.8653 20.893C27.8653 20.697 27.7793 20.537 27.6733 20.537" stroke="black" stroke-width="0.03"/>
<path d="M28.313 21.253C28.421 21.253 28.507 21.091 28.507 20.893C28.507 20.695 28.419 20.533 28.313 20.533" fill="#F7E017"/>
<path d="M28.313 21.253C28.421 21.253 28.507 21.091 28.507 20.893C28.507 20.695 28.419 20.533 28.313 20.533" stroke="black" stroke-width="0.03"/>
<path d="M28.5132 21.2431C28.6192 21.2431 28.7052 21.0871 28.7052 20.8951C28.7052 20.7031 28.6192 20.5471 28.5132 20.5471" fill="#F7E017"/>
<path d="M28.5132 21.2431C28.6192 21.2431 28.7052 21.0871 28.7052 20.8951C28.7052 20.7031 28.6192 20.5471 28.5132 20.5471" stroke="black" stroke-width="0.03"/>
<path d="M29.4073 21.181C29.4933 21.181 29.5633 21.053 29.5633 20.893C29.5633 20.733 29.4933 20.605 29.4073 20.605" fill="#F7E017"/>
<path d="M29.4073 21.181C29.4933 21.181 29.5633 21.053 29.5633 20.893C29.5633 20.733 29.4933 20.605 29.4073 20.605" stroke="black" stroke-width="0.03"/>
<path d="M26.1871 24.061C26.2891 23.999 26.4131 23.943 26.5431 23.913L26.1871 24.061Z" fill="#F7E017"/>
<path d="M26.1871 24.061C26.2891 23.999 26.4131 23.943 26.5431 23.913" stroke="black" stroke-width="0.03"/>
<path d="M29.5713 24.0951C29.5413 24.0731 29.5073 24.0511 29.4733 24.0251L29.5713 24.0951Z" fill="#F7E017"/>
<path d="M29.5713 24.0951C29.5413 24.0731 29.5073 24.0511 29.4733 24.0251" stroke="black" stroke-width="0.03"/>
<path d="M29.7528 24.237C29.9848 23.987 30.1788 23.705 30.2868 23.381L29.7528 24.237Z" fill="#F7E017"/>
<path d="M29.7528 24.237C29.9848 23.987 30.1788 23.705 30.2868 23.381" stroke="black" stroke-width="0.03"/>
<path d="M27.2793 17.7411C27.2793 17.6591 27.3453 17.6251 27.4233 17.5671C27.5173 17.4971 27.5553 17.4631 27.6393 17.4631H28.7313C28.8113 17.4631 28.8313 17.4831 28.8313 17.5591V19.0411C28.8313 19.1151 28.8133 19.1371 28.7313 19.1371H27.2793V17.7251" fill="white"/>
<path d="M27.2793 17.7411C27.2793 17.6591 27.3453 17.6251 27.4233 17.5671C27.5173 17.4971 27.5553 17.4631 27.6393 17.4631H28.7313C28.8113 17.4631 28.8313 17.4831 28.8313 17.5591V19.0411C28.8313 19.1151 28.8133 19.1371 28.7313 19.1371H27.2793V17.7251" stroke="black" stroke-width="0.03"/>
<path d="M28.4607 19.267C28.6047 19.267 28.5787 19.263 28.6787 19.163C28.7847 19.059 28.7747 19.067 28.7747 18.971V17.613C28.7747 17.543 28.7567 17.523 28.6827 17.523H27.6727C27.5927 17.523 27.5587 17.555 27.4727 17.621C27.4007 17.675 27.3407 17.709 27.3407 17.785V19.267H28.4607Z" fill="#E5E5E5" stroke="black" stroke-width="0.03"/>
<path d="M28.5693 19.2351C28.5693 19.3091 28.5513 19.3311 28.4693 19.3311H27.3773C27.2953 19.3311 27.2793 19.3111 27.2793 19.2351V17.7511C27.2793 17.6771 27.2973 17.6551 27.3773 17.6551H28.4693C28.5513 17.6551 28.5693 17.6751 28.5693 17.7511V19.2351Z" fill="white" stroke="black" stroke-width="0.03"/>
<path d="M30.6852 13.695C30.8972 13.933 30.9672 14.251 30.8512 14.563H30.5352C30.6672 14.163 30.5852 13.783 30.0192 13.733C29.1732 13.659 28.1892 15.297 26.7092 15.495C26.2772 14.979 26.2992 13.997 26.8492 13.531C26.5652 12.713 25.9672 11.813 25.5512 11.425C25.2792 11.381 24.9652 11.359 24.7632 11.371C24.9792 10.905 25.5952 10.415 26.0952 10.215C26.1752 10.097 26.2632 9.98304 26.3432 9.88104C26.3932 9.24104 29.4372 9.54104 30.0852 9.93904C30.0872 10.657 30.3692 13.047 30.6852 13.695Z" fill="#96877D" stroke="black" stroke-width="0.03"/>
<path d="M26.9972 14.133C26.9252 13.025 26.4772 12.111 25.8472 11.489C26.1472 11.573 26.7612 11.573 27.1772 11.273C27.7252 10.907 29.1572 10.267 29.6812 10.541C29.7232 10.633 29.7472 10.841 29.7152 10.973C29.5912 10.641 28.2092 11.155 27.8192 11.313C27.4452 11.487 27.2792 11.721 27.4112 12.245C27.1952 12.063 27.2692 11.887 27.0452 11.755C27.1352 11.971 27.2092 12.361 27.2352 12.677C27.1512 12.453 27.0032 11.971 26.6772 11.687C26.9592 12.235 27.2052 13.553 27.0892 14.253C27.3132 14.253 27.8092 14.033 28.0072 13.875C27.8332 14.125 27.3292 14.299 27.0052 14.365C26.8592 14.539 26.7592 14.989 26.7672 15.239C26.7452 14.931 26.8412 14.181 26.9972 14.133Z" fill="black"/>
<path d="M30.6849 13.6951C30.4089 13.3891 29.8949 13.2231 29.2389 13.4011C29.3389 13.3511 29.5549 13.2671 29.7469 13.2351C29.7229 13.0611 29.5649 12.3111 29.5389 12.1291L29.7229 12.0551C29.8149 12.5051 29.9309 13.0191 30.0049 13.2271C30.0629 13.2431 30.1969 13.2691 30.3129 13.3271C30.2629 13.1531 29.9809 11.8971 29.9889 11.7631L30.2389 11.6291C30.3369 12.3111 30.4949 13.3011 30.6849 13.6951Z" fill="black"/>
<path d="M30.5369 14.565C30.6689 14.165 30.5869 13.785 30.0209 13.735C29.5829 13.697 29.1069 14.123 28.5449 14.565H30.5369Z" fill="#96877D" stroke="black" stroke-width="0.03"/>
<path d="M26.8607 10.981C26.6107 11.015 26.0547 10.965 25.7707 10.873C25.7867 10.797 25.8167 10.721 25.8527 10.637C25.6787 10.753 25.3467 10.981 25.2207 11.139C25.6207 11.223 26.4447 11.265 26.8607 10.981Z" fill="#96877D" stroke="black" stroke-width="0.03"/>
<path d="M26.8512 13.5331C26.9432 13.7991 27.0032 14.0551 27.0112 14.2831" stroke="black" stroke-width="0.03"/>
<path d="M26.0969 10.217C25.9469 10.437 25.8149 10.673 25.7709 10.873C26.0529 10.965 26.6109 11.015 26.8609 10.981" stroke="black" stroke-width="0.03"/>
<path d="M25.5527 11.4269C25.6607 11.4449 25.7607 11.4649 25.8467 11.4889C26.1467 11.5729 26.7607 11.5729 27.1767 11.2729C27.5927 10.9729 28.7227 10.0429 30.0047 9.94293" stroke="black" stroke-width="0.03"/>
<path d="M25.2236 11.1391C25.6236 11.2231 26.4476 11.2631 26.8616 10.9811C27.8256 10.3251 28.7576 9.94105 29.6896 9.89105" stroke="black" stroke-width="0.03"/>
<path d="M30.5889 10.237C30.8989 11.237 31.5409 12.169 32.2329 12.803C33.0309 13.535 34.2369 13.351 34.9109 12.653C34.9269 14.045 33.4849 14.153 32.6829 13.717C32.3289 13.525 32.0429 13.625 32.3829 13.933C32.8989 14.399 34.0269 14.745 35.3589 15.031C37.6869 15.529 36.8569 17.377 36.1749 17.359C36.3709 17.355 36.5309 17.151 36.2489 16.897C34.2289 15.079 30.1209 15.795 30.1869 11.737C29.7549 12.801 27.9749 12.385 28.8069 11.121C29.0729 11.337 29.5389 11.353 29.6729 11.021C29.7769 10.763 29.7089 10.313 29.2429 9.92503C29.3189 9.91903 29.4849 9.92503 29.4669 9.73303C29.4869 9.84503 29.5889 10.011 29.8509 9.95503C29.9249 10.073 30.0049 10.151 30.1109 10.109C30.1309 10.101 30.1949 10.069 30.1689 9.95103C30.1889 10.175 30.4509 10.253 30.5889 10.237Z" fill="#337321" stroke="black" stroke-width="0.03"/>
<path d="M30.0111 10.117C29.9511 10.097 29.9011 10.037 29.8511 9.959C29.5891 10.015 29.4871 9.849 29.4671 9.737C29.4831 9.929 29.3191 9.921 29.2411 9.927C29.7091 10.315 29.7771 10.765 29.6731 11.023C29.5391 11.355 29.0751 11.339 28.8071 11.123C28.7731 11.829 29.6891 12.063 30.0211 11.173C30.0211 11.323 30.2131 11.307 30.2631 11.505C30.4991 11.123 30.3191 10.573 30.0111 10.117Z" fill="#F7E017" stroke="black" stroke-width="0.03"/>
<path d="M28.5493 6.74101C28.1333 6.35901 27.9413 5.71901 27.9593 5.35301C27.9753 4.98701 28.1253 4.58701 28.6573 4.75501C28.4913 4.75501 28.6073 5.08701 28.4333 5.12101C28.5753 5.17101 28.7653 5.05501 28.7913 4.97901C28.8253 5.09501 29.0413 5.06301 29.0573 5.19501C29.1413 5.12901 29.0493 4.80501 28.9253 4.73701C29.0173 4.68701 29.0673 4.42901 29.0253 4.30501C28.9413 4.32101 28.8173 4.43901 28.7933 4.60501C28.8353 4.47101 28.7853 4.13901 28.5513 4.08901C28.4853 4.18101 28.4673 4.40501 28.5593 4.52901C28.3433 4.47901 28.0273 4.62101 27.9513 4.80301C27.9673 4.58301 27.9993 4.26901 28.1353 4.07101C28.1813 4.00501 28.0693 3.88901 27.9813 4.04701C27.8193 3.73101 27.3873 3.56501 27.1953 3.72301C27.0033 3.88101 26.7473 3.64901 26.5893 3.89701C26.4313 4.14701 25.8953 4.17301 25.9233 4.43701C25.9393 4.59501 25.9013 4.83901 25.8233 4.92701C25.6313 5.14301 25.9153 5.30101 25.9653 5.49301C25.9313 4.86101 26.9373 3.63101 27.9453 4.11301C27.8533 4.27101 27.7733 4.58701 27.7453 4.96901C27.7033 5.53501 27.7873 6.33301 28.3353 6.79901L28.5493 6.74101Z" fill="#337321" stroke="black" stroke-width="0.03"/>
<path d="M28.8471 4.76102C28.8411 4.61102 29.1011 4.41702 29.4491 4.42102C29.8691 4.42502 30.1932 4.80702 30.5292 4.77102C30.8652 4.73302 30.6991 4.92102 30.6291 4.97102C30.5591 5.02102 30.5171 5.09502 30.5411 5.18702C30.5651 5.27902 30.5231 5.33902 30.3871 5.25302C30.0871 5.06502 29.7891 5.32702 29.3931 5.18302C29.0551 5.05502 28.8571 4.98502 28.8471 4.76102Z" fill="#C8102E" stroke="black" stroke-width="0.03"/>
<path d="M27.1352 8.68706C26.9692 8.16306 26.3372 7.58906 26.0292 7.45706L26.0132 7.17506C26.1792 7.10906 26.5792 6.79306 26.7612 6.61706C28.0092 7.21506 29.7052 6.36706 30.4872 5.48706L30.7872 5.66906L30.6372 5.86906L30.4792 5.78506C30.2872 6.01706 29.5732 6.68906 29.3572 6.83106C29.6472 6.90506 30.0452 6.95506 30.1552 6.94906C30.8532 6.44906 31.4012 6.00106 31.6672 5.96706L31.8912 6.26706L31.6912 6.40906L31.5332 6.31706C30.7852 6.93306 29.9372 8.27906 29.6032 9.17706C29.1392 9.07706 27.4752 9.14306 27.1352 8.68706Z" fill="#96877D" stroke="black" stroke-width="0.03"/>
<path d="M29.357 6.83103C29.249 6.80303 29.157 6.77303 29.099 6.74103C28.965 6.86503 28.633 6.97303 28.209 6.99103" stroke="black" stroke-width="0.03"/>
<path d="M27.201 8.50302C27.089 7.88302 27.267 7.19702 27.583 6.98902C28.273 7.44702 29.455 7.44702 30.153 6.94702" stroke="black" stroke-width="0.03"/>
<path d="M27.2012 8.17907C27.7332 8.16307 28.8892 8.25307 29.1712 8.29507C29.4532 8.33707 29.9272 8.45307 29.8612 8.59507" stroke="black" stroke-width="0.03"/>
<path d="M27.4469 8.09105L27.6009 7.93905L27.4469 7.78705L27.2949 7.93705L27.4469 8.09105Z" stroke="black" stroke-width="0.03"/>
<path d="M27.8095 4.99508C27.6175 4.72908 27.0915 4.64508 26.9775 5.00308C26.9275 5.16108 26.8535 5.32708 26.7275 5.40308C26.6035 5.47708 26.6315 5.70508 26.6855 5.80308C26.8175 6.04508 26.7015 6.27708 26.9595 6.43508C26.9595 6.24308 27.2415 6.04508 27.4835 5.99508C27.7255 5.94508 28.0895 5.72908 28.1395 5.48708C28.1915 5.24308 28.2755 5.04308 27.8095 4.99508Z" fill="#337321" stroke="black" stroke-width="0.03"/>
<path d="M26.611 7.38898H26.677L26.679 7.84298C26.693 7.84698 26.707 7.85498 26.719 7.86298L27.111 7.63698L27.145 7.69498L26.751 7.92298C26.753 7.93698 26.755 7.95298 26.753 7.96698L27.145 8.19298L27.111 8.25098L26.715 8.02698C26.705 8.03698 26.691 8.04698 26.677 8.05098V8.50298H26.611V8.04898C26.597 8.04498 26.583 8.03698 26.571 8.02898L26.179 8.25498L26.145 8.19698L26.539 7.96898C26.537 7.95498 26.535 7.93898 26.537 7.92498L26.145 7.69898L26.179 7.64098L26.573 7.86698C26.583 7.85698 26.597 7.84698 26.611 7.84298V7.38898Z" fill="#96877D" stroke="black" stroke-width="0.03"/>
<path d="M27.2031 8.50104C27.0611 8.64504 26.8631 8.73304 26.6431 8.73304C26.2071 8.73304 25.8551 8.38104 25.8551 7.94504C25.8551 7.50904 26.2071 7.15704 26.6431 7.15704C26.8991 7.15704 27.1251 7.27904 27.2691 7.46704C27.2291 7.56704 27.1811 7.78904 27.1771 7.88904C27.1491 7.61704 26.9211 7.40504 26.6411 7.40504C26.3431 7.40504 26.1031 7.64704 26.1031 7.94304C26.1031 8.24104 26.3451 8.48104 26.6411 8.48104C26.8891 8.48104 27.1051 8.30704 27.1671 8.07704C27.1691 8.18104 27.1731 8.41904 27.2031 8.50104Z" fill="#96877D" stroke="black" stroke-width="0.03"/>
<path d="M26.3113 9.251C26.2613 9.193 26.1693 9.035 26.1793 8.919C26.2533 8.911 26.3953 8.961 26.4613 9.027C26.4533 8.943 26.4193 8.761 26.4373 8.677C26.5293 8.711 26.7193 8.819 26.7873 8.943C26.7713 8.859 26.7373 8.643 26.7713 8.511C26.8713 8.569 27.0373 8.727 27.0713 8.835C27.0793 8.669 27.1373 8.395 27.1873 8.327C27.2613 8.401 27.3793 8.469 27.4533 8.569C27.4693 8.435 27.5373 8.277 27.6353 8.237C27.7093 8.321 27.8273 8.511 27.8513 8.727C27.9253 8.703 28.0253 8.577 28.0673 8.511C28.1093 8.577 28.1513 8.693 28.1253 8.835C28.2173 8.751 28.3253 8.635 28.3493 8.535C28.4153 8.585 28.5413 8.709 28.5733 8.843C28.5573 8.735 28.5653 8.543 28.5313 8.435C28.6553 8.501 28.7553 8.617 28.7813 8.743C28.8153 8.627 28.8893 8.419 28.9553 8.369C29.0213 8.503 29.0893 8.661 29.0793 8.793C29.1213 8.709 29.1873 8.561 29.2533 8.527C29.3113 8.619 29.3033 8.819 29.2873 8.927C29.3453 8.843 29.4533 8.745 29.5193 8.711C29.5273 8.761 29.5353 8.861 29.5193 8.935C29.5933 8.893 29.7193 8.669 29.7613 8.553C29.8773 8.611 29.9933 8.811 30.0033 8.911C30.0873 8.877 30.2533 8.729 30.3033 8.645C30.3033 8.703 30.3293 8.861 30.2953 8.985C30.3453 8.935 30.3953 8.835 30.4193 8.793C30.4533 8.877 30.4273 9.075 30.3933 9.183C30.4673 9.117 30.5773 9.075 30.6433 9.075C30.6513 9.217 30.5513 9.465 30.4593 9.649C29.6633 9.427 27.9913 9.343 26.3113 9.251Z" fill="#337321" stroke="black" stroke-width="0.03"/>
<path d="M29.0949 4.84707C29.0909 4.78507 29.2269 4.64707 29.4729 4.64907C29.7669 4.65107 30.0389 4.86707 30.2729 4.85107C30.5089 4.83507 30.3929 4.91307 30.3429 4.93307C30.2929 4.95307 30.2649 4.98507 30.2809 5.02107C30.2989 5.05907 30.2689 5.08307 30.1729 5.04907C29.9629 4.97307 29.7529 5.07907 29.4769 5.02107C29.2389 4.96707 29.1009 4.93907 29.0949 4.84707Z" fill="#F7E017"/>
<path d="M26.5693 9.75104C26.3193 10.051 26.0713 10.001 26.0213 9.80904C25.9713 9.61704 26.1553 9.52704 26.0873 9.35904C26.0213 9.19304 26.1953 9.11704 26.2793 9.19304C26.3633 9.26704 26.6293 9.02704 26.7453 9.27704C26.8613 9.52704 26.9533 9.70104 26.8873 9.80104C26.8193 9.90104 26.6193 9.85104 26.5693 9.75104Z" fill="#F7E017" stroke="black" stroke-width="0.03"/>
<path d="M27.6412 9.30099C27.5952 9.19099 27.8532 8.98099 27.9872 9.13099C28.1212 9.28099 28.3292 8.96899 28.4452 9.20499C28.5612 9.44299 28.5992 9.56699 28.6572 9.69899C28.7152 9.83299 28.3412 9.90299 28.2252 9.78699C28.2412 9.86499 27.9012 9.92699 27.8092 9.70299C27.7592 9.58499 27.7052 9.44699 27.6412 9.30099Z" fill="#F7E017" stroke="black" stroke-width="0.03"/>
<path d="M29.371 9.43906C29.309 9.32306 29.613 9.15706 29.771 9.36906C29.813 9.28106 30.113 9.26506 30.133 9.51906C30.153 9.77306 30.163 9.92306 30.171 10.0231C30.179 10.1231 29.989 10.2151 29.851 9.96106C29.605 10.0111 29.493 9.87306 29.465 9.72906C29.435 9.58106 29.405 9.50906 29.371 9.43906Z" fill="#F7E017" stroke="black" stroke-width="0.03"/>
<path d="M26.7314 9.27297C26.6934 9.18897 26.9434 9.02297 27.1134 9.14897C27.2834 9.27297 27.5194 9.04097 27.6214 9.26497C27.8254 9.71897 27.8374 9.75097 27.7754 9.83897C27.7134 9.92697 27.4474 9.89297 27.3794 9.77297C27.3674 9.85697 27.1374 9.84297 27.0174 9.77697C26.8814 9.70097 26.7854 9.42297 26.7314 9.27297Z" fill="#337321" stroke="black" stroke-width="0.03"/>
<path d="M28.4814 9.29301C28.4234 9.16501 28.8134 9.05101 28.9854 9.27701C29.0734 9.19701 29.2634 9.19301 29.3714 9.43901C29.4794 9.68501 29.4954 9.82101 29.4174 9.88301C29.3614 9.92701 29.1594 9.96101 29.0934 9.84901C29.0014 9.90701 28.7194 9.85701 28.6574 9.69901C28.5954 9.54301 28.5414 9.40501 28.4814 9.29301Z" fill="#337321" stroke="black" stroke-width="0.03"/>
<path d="M26.5688 9.75093C26.4768 9.62693 26.3528 9.42693 26.1948 9.64293" stroke="black" stroke-width="0.03"/>
<path d="M27.3806 9.77092C27.3266 9.70092 27.2566 9.58292 27.2306 9.49292" stroke="black" stroke-width="0.03"/>
<path d="M28.2246 9.78897C28.1666 9.74697 28.0786 9.66497 28.0326 9.57697" stroke="black" stroke-width="0.03"/>
<path d="M28.1494 9.35101C28.2954 9.36701 28.3954 9.50501 28.4394 9.56701C28.4854 9.62901 28.5814 9.74101 28.6554 9.75501" stroke="black" stroke-width="0.03"/>
<path d="M29.0925 9.85088C29.0425 9.77088 28.9925 9.70088 28.9805 9.64288" stroke="black" stroke-width="0.03"/>
<path d="M28.9847 9.27692C29.0347 9.34692 29.0727 9.40492 29.1007 9.47292" stroke="black" stroke-width="0.03"/>
<path d="M29.8488 9.95891C29.7828 9.83491 29.6788 9.71291 29.5908 9.67291" stroke="black" stroke-width="0.03"/>
<path d="M29.8164 9.50092C29.8244 9.74692 30.1524 9.76292 30.1664 9.93692" stroke="black" stroke-width="0.03"/>
</g>
<defs>
<clipPath id="clip0_1_15793">
<rect y="0.0010376" width="30" height="30" rx="15" fill="white"/>
</clipPath>
</defs>
</svg>
