<svg width="30" height="30" viewBox="0 0 30 30" fill="none" xmlns="http://www.w3.org/2000/svg">
<path d="M3.06689 24.0585L3.14234 24.0037H3.02573C3.03945 24.0242 3.05317 24.0448 3.06689 24.0585Z" fill="#0050F0"/>
<path d="M3.06695 5.9433C3.05323 5.96388 3.03951 5.97761 3.02579 5.99819H3.1424L3.06695 5.9433Z" fill="#0050F0"/>
<path d="M3.14224 24.0037H26.9748C28.2851 22.2539 29.2387 20.2228 29.6915 18.0065H10.9767L3.14224 24.0037Z" fill="#F1F4FB"/>
<path d="M26.9749 24.0037H3.14235L3.06689 24.0585C5.811 27.661 10.1261 30.0009 15.0038 30.0009C19.902 30.0009 24.2377 27.6404 26.9749 24.0037Z" fill="#ED0000"/>
<path d="M14.9008 15.0009L10.9836 17.9996H29.6985C29.8974 17.032 30.0003 16.0234 30.0003 15.0009C30.0003 13.9717 29.8974 12.9698 29.6985 12.0023H10.9836L14.9008 15.0009Z" fill="#ED0000"/>
<path d="M3.06689 5.9433L3.14235 5.9982H26.9749C24.2445 2.36829 19.9157 0.00777737 15.0312 0.000915527H14.9694C10.1055 0.0146392 5.79728 2.34769 3.06689 5.9433Z" fill="#ED0000"/>
<path d="M10.9767 12.0023H29.6915C29.2387 9.77911 28.2851 7.748 26.9748 5.99823H3.14224L10.9767 12.0023Z" fill="#F1F4FB"/>
<path d="M10.9767 12.0023L3.13545 5.99823H3.01884C1.70853 7.74114 0.754937 9.77911 0.302159 12.0023C0.103211 12.9699 0.000305176 13.9717 0.000305176 15.001C0.000305176 16.0302 0.103211 17.0321 0.302159 17.9996C0.754937 20.2228 1.70853 22.2539 3.01884 23.9968H3.13545L10.9767 17.9996L14.894 15.001L10.9767 12.0023Z" fill="#0050F0"/>
<path d="M5.20729 12.2013L5.90019 14.3422H8.15033L6.33239 15.6665L7.02528 17.8005L5.20729 16.4831L3.3893 17.8005L4.0822 15.6665L2.26425 14.3422H4.50753L5.20729 12.2013Z" fill="#F1F4FB"/>
</svg>
