<svg width="30" height="30" viewBox="0 0 30 30" fill="none" xmlns="http://www.w3.org/2000/svg">
<path d="M3.62244 24.7583C6.37341 27.9628 10.4484 30.0008 14.9968 30.0008C21.5003 30.0008 27.016 25.8562 29.0946 20.0648H7.1349L3.62244 24.7583Z" fill="#408040"/>
<path d="M10.9424 15.0076L7.14178 20.0716H29.1015C29.6709 18.4866 30.0002 16.7849 30.0002 15.0076C30.0002 13.2304 29.6709 11.5287 29.1084 9.9436H7.14865L10.9424 15.0076Z" fill="#F1F4FB"/>
<path d="M29.1015 9.93671C27.0229 4.15218 21.5003 0.000732422 14.9968 0.000732422C10.4416 0.000732422 6.37341 2.03871 3.62244 5.24319L7.14176 9.93671H29.1015Z" fill="black"/>
<path d="M7.14173 9.93671L3.62241 5.24319C2.4493 6.61556 1.52316 8.20067 0.898878 9.93671C0.329475 11.5218 0.000183105 13.2235 0.000183105 15.0008C0.000183105 16.778 0.329475 18.4797 0.898878 20.0648C1.52316 21.8008 2.4493 23.3859 3.62241 24.7514L7.14173 20.0648L10.9423 15.0008L7.14173 9.93671Z" fill="#CC3333"/>
</svg>
