<svg width="30" height="30" viewBox="0 0 30 30" fill="none" xmlns="http://www.w3.org/2000/svg">
<path d="M0.000274658 15.0215C0.000274658 21.9725 4.73495 27.7982 11.1508 29.5068L12.6672 28.5393L10.0254 26.8513L12.6672 25.1633L10.0254 23.4753L12.6672 21.7872L10.0254 20.0992L12.6672 18.4112L10.0254 16.7232L12.6672 15.0352L10.0254 13.3472L12.6672 11.6591L10.0254 9.97111L12.6672 8.28312L10.0254 6.59509L12.6672 4.9071L10.0254 3.21907L12.6672 1.53104L11.1508 0.563538C4.72809 2.24469 0.000274658 8.07041 0.000274658 15.0215Z" fill="#F1F4FB"/>
<path d="M10.0255 3.19852L12.6672 4.88655L10.0255 6.57458L12.6672 8.26257L10.0255 9.9506L12.6672 11.6386L10.0255 13.3266L12.6672 15.0147L10.0255 16.7026L12.6672 18.3907L10.0255 20.0787L12.6672 21.7667L10.0255 23.4547L12.6672 25.1428L10.0255 26.8307L12.6672 28.5188L11.1508 29.4863C12.3791 29.8156 13.6691 30.0009 15.0003 30.0009C23.2825 30.0009 30.0003 23.2832 30.0003 15.0009C30.0003 6.71866 23.2825 0.000915527 15.0003 0.000915527C13.6622 0.000915527 12.3791 0.193054 11.1508 0.522423L12.6672 1.48993L10.0255 3.19852Z" fill="#70193D"/>
</svg>
