<svg width="30" height="30" viewBox="0 0 30 30" fill="none" xmlns="http://www.w3.org/2000/svg">
<path d="M0.000305176 15.001C0.000305176 21.0531 3.58905 26.2681 8.74917 28.6354V1.36646C3.58219 3.73379 0.000305176 8.9488 0.000305176 15.001Z" fill="#0045E6"/>
<path d="M30.0002 15.001C30.0002 8.9488 26.4115 3.73379 21.2513 1.36646V28.6354C26.4115 26.2681 30.0002 21.0531 30.0002 15.001Z" fill="#F21830"/>
<path d="M15.0003 0.000915527C12.7702 0.000915527 10.6499 0.495004 8.74921 1.36646V28.6355C10.6499 29.5069 12.7634 30.001 15.0003 30.001C17.2304 30.001 19.3439 29.5138 21.2515 28.6355V1.36646C19.3439 0.495004 17.2304 0.000915527 15.0003 0.000915527Z" fill="#FFE60D"/>
</svg>
