<svg width="30" height="30" viewBox="0 0 30 30" fill="none" xmlns="http://www.w3.org/2000/svg">
<path d="M15.0004 30.0009C21.0525 30.0009 26.2676 26.4122 28.6349 21.2521H1.36591C3.74011 26.419 8.94825 30.0009 15.0004 30.0009Z" fill="#FF0000"/>
<path d="M15.0004 0.000915527C8.94825 0.000915527 3.73324 3.58966 1.36591 8.74977H28.6349C26.2676 3.58966 21.0525 0.000915527 15.0004 0.000915527Z" fill="#F1F4FB"/>
<path d="M0.000427246 15.0009C0.000427246 17.231 0.494479 19.3445 1.36593 21.2521H28.6349C29.5064 19.3513 30.0004 17.231 30.0004 15.0009C30.0004 12.7708 29.5064 10.6505 28.6349 8.74976H1.36593C0.494479 10.6573 0.000427246 12.7708 0.000427246 15.0009Z" fill="#0000FF"/>
</svg>
