<svg width="30" height="30" viewBox="0 0 30 30" fill="none" xmlns="http://www.w3.org/2000/svg">
<path d="M15.0002 0.000915527C6.71799 0.000915527 0.000244141 6.71866 0.000244141 15.0009H30.0002C30.0002 6.71866 23.2825 0.000915527 15.0002 0.000915527Z" fill="#0084C9"/>
<path d="M2.01782 22.5009C4.6116 26.9817 9.44921 30.001 14.9936 30.001C20.5448 30.001 25.3756 26.9817 27.9693 22.5009H2.01782Z" fill="#007C59"/>
<path d="M30.0004 15.0009H0.000366211C0.000366211 17.7388 0.741444 20.2914 2.02461 22.5009H27.983C29.2524 20.2983 30.0004 17.7388 30.0004 15.0009Z" fill="#F9D616"/>
<path d="M21.5603 7.48035C20.6203 7.48035 19.8586 8.2626 19.8586 9.23699C19.8586 10.2045 20.6203 10.9936 21.5603 10.9936C22.5004 10.9936 23.2621 10.2114 23.2621 9.23699C23.2689 8.26947 22.5004 7.48035 21.5603 7.48035ZM24.2502 9.57321L26.3636 9.20269L24.2433 8.86642L26.1921 7.96065L24.0581 8.1871L25.7049 6.80787L23.7012 7.57639L24.9295 5.81976L23.1935 7.07549L23.9277 5.06497L22.5759 6.73239L22.7612 4.59837L21.8897 6.56085L21.5192 4.44739L21.1829 6.56772L20.2772 4.61893L20.5036 6.753L19.1313 5.11301L19.8998 7.11666L18.1431 5.88153L19.3989 7.61756L17.3883 6.88338L19.0558 8.23514L16.9217 8.04986L18.8774 8.92133L16.7639 9.29185L18.8842 9.62812L16.9423 10.5338L19.0764 10.3074L17.4295 11.6867L19.4332 10.9181L18.198 12.6748L19.9341 11.4122L19.1999 13.4296L20.5516 11.7621L20.3595 13.8962L21.231 11.9406L21.6015 14.054L21.9377 11.9337L22.8435 13.8756L22.6239 11.7415L24.0032 13.3884L23.2346 11.3847L24.9913 12.6199L23.7355 10.8838L25.7529 11.618L24.0855 10.2663L26.2195 10.4584L24.2502 9.57321ZM21.5603 11.2063C20.4762 11.2063 19.5979 10.328 19.5979 9.23699C19.5979 8.15281 20.4762 7.27447 21.5603 7.27447C22.6445 7.27447 23.5297 8.15281 23.5297 9.23699C23.5297 10.3212 22.6514 11.2063 21.5603 11.2063Z" fill="#EAAF0F"/>
</svg>
