<svg width="30" height="30" viewBox="0 0 30 30" fill="none" xmlns="http://www.w3.org/2000/svg">
<path d="M30 15.001C30 23.2832 23.2823 30.001 15 30.001C6.71774 30.001 0 23.2832 0 15.001C0 6.71872 6.71774 0.000976562 15 0.000976562C23.2823 0.000976562 30 6.71872 30 15.001Z" fill="#009531"/>
<path d="M13.7924 10.3555C13.813 10.4722 13.7924 10.5888 13.7993 10.6986C13.8061 10.6986 13.8199 10.6986 13.8267 10.6986C13.8473 10.6369 13.861 10.582 13.8748 10.5202C13.8885 10.3418 13.8954 10.1496 13.8405 9.97809C13.8199 9.91634 13.7924 9.85459 13.7444 9.81342C13.6963 9.80655 13.6689 9.85462 13.6415 9.88893C13.6072 9.9301 13.6415 9.97809 13.6689 10.0193C13.7375 10.1222 13.7718 10.2389 13.7924 10.3555ZM15.501 10.2457C15.5353 10.3281 15.6383 10.3349 15.6863 10.4036C15.9539 10.7535 16.2215 11.1103 16.4617 11.474C16.4823 11.625 16.5028 11.7759 16.5234 11.9269L16.5303 11.9337C16.5372 12.0161 16.5509 12.0916 16.5646 12.1739C16.6263 12.6954 16.7087 13.2101 16.743 13.7384C16.743 13.9649 16.7705 14.1982 16.7018 14.4177C16.6813 14.4932 16.6744 14.5755 16.6813 14.651C16.743 14.651 16.7636 14.5824 16.7842 14.5412C16.9214 14.2119 16.9557 13.855 16.9489 13.4982L16.942 13.4914C16.942 13.1552 16.8734 12.8327 16.8528 12.5033C16.846 12.3317 16.8253 12.167 16.8185 12.0023C17.1547 12.5307 17.4978 13.0591 17.7654 13.6217C17.8272 13.7452 17.8615 13.8825 17.9438 13.9992C17.9576 13.9992 17.9781 13.9923 17.985 13.9923C17.9919 13.7727 17.9164 13.5531 17.8341 13.3473C17.6968 13.0111 17.5184 12.6886 17.3263 12.3729C17.1547 12.0847 16.9763 11.8034 16.7979 11.5289C16.7499 11.4603 16.7636 11.3642 16.7567 11.2887C16.743 11.1172 16.743 10.9388 16.743 10.7672C16.7705 10.7947 16.8116 10.8153 16.8528 10.8084C16.8597 10.7947 16.8734 10.7741 16.8734 10.7672C16.8802 10.6849 16.8528 10.6094 16.8253 10.5339C16.7567 10.328 16.6675 10.1359 16.5852 9.93692C16.5715 9.89575 16.544 9.84775 16.496 9.84089C16.4342 9.82717 16.3999 9.88889 16.3794 9.93692C16.3519 10.0055 16.3244 10.081 16.3107 10.1565C16.297 10.2251 16.3382 10.2938 16.3794 10.3487C16.3794 10.5682 16.4274 10.781 16.4411 10.9937C16.4342 10.98 16.4342 10.9662 16.4274 10.9594C16.3039 10.7878 16.1872 10.6094 16.0706 10.4379C16.1392 10.4516 16.2078 10.479 16.2695 10.4447C16.2764 10.3624 16.2146 10.3075 16.1735 10.2526C16.0088 10.081 15.8304 9.93007 15.652 9.77225C15.6108 9.73107 15.5628 9.72421 15.5079 9.73108C15.501 9.73794 15.4942 9.75852 15.4804 9.77225C15.4736 9.86831 15.501 9.96441 15.4941 10.0605C15.501 10.1154 15.4804 10.184 15.501 10.2457ZM17.1822 10.081C17.2371 10.1291 17.2782 10.1977 17.3057 10.2663C17.3606 10.3967 17.2851 10.5271 17.3126 10.6575C17.3674 10.6437 17.3949 10.5819 17.4155 10.5339C17.5047 10.328 17.4498 10.0879 17.3469 9.89575C17.3194 9.84086 17.2714 9.75852 17.1959 9.77225C17.1479 9.834 17.093 9.90949 17.1067 9.99183C17.1204 10.033 17.1547 10.0605 17.1822 10.081ZM12.619 11.721C12.722 11.7279 12.7906 11.6318 12.8249 11.5495C12.9073 11.3574 12.9758 11.1515 13.0445 10.9456C13.0719 10.8702 13.0925 10.7878 13.1543 10.7261C13.1611 10.7261 13.1817 10.7329 13.1886 10.7329C13.1886 10.781 13.1954 10.8221 13.1954 10.8633C13.1749 11.0623 13.168 11.2681 13.216 11.4603C13.2503 11.5975 13.3189 11.7348 13.4356 11.8102C13.5591 11.8926 13.7238 11.8788 13.8542 11.8239C14.0669 11.7347 14.2522 11.5701 14.362 11.3642C14.4786 11.5152 14.6227 11.673 14.8217 11.7142C14.9658 11.7485 15.1099 11.6593 15.1854 11.5357C15.302 11.3505 15.3363 11.1241 15.3157 10.9113C15.2951 10.7604 15.2677 10.6094 15.2334 10.4653C15.2128 10.3898 15.1785 10.3212 15.1648 10.2457C15.2265 10.2526 15.2609 10.3075 15.3089 10.3349C15.3364 10.3486 15.3707 10.3418 15.3981 10.3418C15.405 10.2938 15.405 10.2388 15.3844 10.1977C15.3363 10.0536 15.2608 9.91634 15.1511 9.81342C15.103 9.77224 15.055 9.71735 14.9864 9.72421C14.9521 9.77224 14.9246 9.82029 14.904 9.86832C14.8766 9.93694 14.7874 9.97127 14.7943 10.0605C14.8423 10.1565 14.8697 10.2526 14.9109 10.3487C14.9658 10.5202 15.0207 10.6918 15.0481 10.8702C15.0687 11.0074 15.0893 11.1515 15.0344 11.2819C15.007 11.3505 14.9383 11.3985 14.8629 11.3916C14.7737 11.3779 14.7051 11.3162 14.6639 11.2407C14.5541 11.0623 14.4992 10.8564 14.4649 10.6575C14.458 10.4585 14.4512 10.2595 14.41 10.0605C14.3826 9.90951 14.3482 9.75855 14.2659 9.62817C14.2522 9.62817 14.2384 9.62817 14.2247 9.62817C14.1698 9.70365 14.1424 9.79972 14.0943 9.88206C14.0532 9.95754 14.1081 10.033 14.1218 10.1085C14.1698 10.3555 14.2247 10.6025 14.2179 10.8564C14.2179 10.9868 14.1904 11.124 14.1149 11.2338C14.0463 11.3368 13.9296 11.4054 13.8199 11.4603C13.7306 11.4946 13.6209 11.5152 13.5317 11.4603C13.4356 11.4054 13.3944 11.2887 13.3944 11.1789C13.3876 10.9182 13.3807 10.6506 13.4219 10.3967C13.4288 10.3144 13.463 10.2252 13.4425 10.1428C13.4287 10.1016 13.4013 10.0604 13.3601 10.033C13.3052 10.0056 13.2572 10.0467 13.2297 10.0879C13.12 10.2251 13.0376 10.3829 12.9553 10.5408C12.8455 10.7603 12.7426 10.9868 12.6739 11.2201C12.6533 11.2818 12.5985 11.3711 12.5161 11.3368C12.4063 11.2887 12.3514 11.1652 12.3103 11.0623C12.2966 11.0211 12.2897 10.9799 12.2828 10.9388C12.2554 10.7741 12.2485 10.6026 12.2622 10.4379C12.2691 10.3349 12.3103 10.2389 12.3103 10.1359C12.3034 10.1359 12.2897 10.1359 12.2828 10.1359C12.2005 10.3006 12.1593 10.4859 12.1319 10.6711C12.0976 10.9662 12.1867 11.2819 12.372 11.5152C12.4338 11.6181 12.5092 11.7073 12.619 11.721ZM15.6588 15.0216C15.6863 15.0902 15.7618 15.1039 15.8235 15.1039C16.002 15.1039 16.1392 14.9804 16.2695 14.8843C16.3107 14.8432 16.3793 14.8157 16.393 14.7471C16.3587 14.7471 16.3245 14.7471 16.297 14.7608C16.1461 14.8157 16.0157 14.9186 15.851 14.9324C15.8373 14.9118 15.8167 14.898 15.8167 14.8706C15.8029 14.7539 15.8853 14.6442 15.8716 14.5207C15.7687 14.507 15.6863 14.5756 15.604 14.6304C15.5559 14.6648 15.4942 14.6853 15.4736 14.7471C15.5491 14.754 15.6108 14.7059 15.6863 14.6991C15.7 14.8088 15.6177 14.9118 15.6588 15.0216ZM12.2485 12.5719C12.3171 12.7297 12.3995 12.8738 12.4681 13.0248C12.5093 13.114 12.5367 13.2101 12.5161 13.3061C12.4955 13.4296 12.4132 13.5257 12.324 13.608C12.1593 13.7521 11.9946 13.9031 11.8093 14.0197C11.8093 13.9511 11.8093 13.8825 11.8093 13.807C11.8093 13.7178 11.8368 13.6218 11.8093 13.5326C11.8025 13.5326 11.7819 13.5326 11.775 13.5326C11.6858 13.6904 11.6241 13.8619 11.5623 14.0335C11.5417 14.1021 11.5211 14.1707 11.5074 14.2393C11.5074 14.2599 11.4868 14.2668 11.4731 14.2805C11.1712 14.4863 10.8487 14.6785 10.5262 14.85C10.3889 14.9255 10.2449 14.9873 10.1145 15.0696C10.1145 15.0833 10.1076 15.1039 10.1076 15.1177C10.1419 15.1245 10.1762 15.1313 10.2106 15.1245C10.6497 15.001 11.0751 14.8569 11.4868 14.6648C11.5074 14.8157 11.5417 14.9873 11.6584 15.0971C11.7819 15.2343 11.9877 15.248 12.1593 15.2343C12.4475 15.1931 12.6808 15.0147 12.8866 14.8157C13.0856 14.6167 13.2572 14.404 13.415 14.1707C13.5042 14.3972 13.6278 14.603 13.813 14.7608C14.1012 15.0216 14.4923 15.1382 14.8697 15.1794C14.9452 15.1794 15.0481 15.2 15.0893 15.1177C15.1168 15.0216 15.1579 14.9255 15.1511 14.8294C15.0756 14.7745 14.9864 14.754 14.8972 14.7265C14.7805 14.6785 14.6639 14.6236 14.5952 14.5138C14.5472 14.4521 14.5472 14.356 14.6021 14.2942C14.6776 14.1982 14.808 14.1639 14.9178 14.1227C15.2609 13.9992 15.6108 13.8894 15.9676 13.8208C16.0705 13.7933 16.1803 13.807 16.2627 13.7453C16.3313 13.6835 16.3519 13.5874 16.3794 13.5051C16.3999 13.4571 16.3999 13.4022 16.393 13.3542C16.2901 13.3404 16.1941 13.3542 16.098 13.361C15.6863 13.3816 15.2815 13.3885 14.8766 13.3885C14.7119 13.3885 14.5472 13.3884 14.3757 13.3816C14.6364 13.2375 14.9246 13.1346 15.206 13.0316C15.2609 12.9973 15.3157 13.0522 15.3775 13.0522C15.3775 13.0248 15.3775 13.0042 15.3775 12.9768C15.5285 12.915 15.6863 12.8601 15.8029 12.7434C15.899 12.6542 15.9676 12.5307 15.9607 12.3935C15.9607 12.2494 15.8579 12.1396 15.7412 12.071C15.5971 11.9818 15.4393 11.8857 15.2677 11.8926C15.1717 11.8926 15.0824 11.9406 15.0207 12.0161C14.9383 12.1259 14.8629 12.2494 14.8354 12.3935C14.8286 12.5033 14.8697 12.6131 14.9246 12.7023C14.6845 12.7709 14.4512 12.8601 14.2179 12.9493C14.1012 12.9973 13.9846 13.0317 13.8885 13.1003C13.7924 13.162 13.7513 13.2787 13.7238 13.3816C13.7032 13.4571 13.6621 13.5326 13.6826 13.608C13.7238 13.6492 13.7856 13.6424 13.8405 13.6561C13.9983 13.6629 14.163 13.6629 14.3208 13.6766C14.4718 13.6904 14.6296 13.7109 14.7531 13.8002C14.7737 13.8139 14.8011 13.8276 14.808 13.8551C14.609 13.9374 14.41 14.0609 14.3277 14.2736C14.2796 14.3834 14.2933 14.5069 14.3208 14.6236C14.0944 14.5618 13.8679 14.4452 13.7581 14.2462C13.6209 14.006 13.6071 13.7178 13.5591 13.4502C13.5317 13.2718 13.4905 13.1003 13.4562 12.9219V12.9493C13.3807 12.6199 13.2435 12.3111 13.1062 12.0023C13.0788 11.9406 13.0582 11.872 13.017 11.8171C12.9415 11.8583 12.921 11.9612 12.8866 12.0366C12.8386 12.1259 12.818 12.2288 12.8523 12.3249C12.9484 12.5925 13.0376 12.8532 13.12 13.1277L13.1268 13.1414C13.1543 13.2512 13.1954 13.361 13.2229 13.4708L13.2297 13.4777C13.2503 13.5669 13.2778 13.656 13.3052 13.7521C13.1611 14.0334 12.9758 14.2942 12.7425 14.5069C12.571 14.6579 12.3789 14.8089 12.1456 14.85C12.0358 14.8638 11.9123 14.8706 11.8231 14.7951C11.7545 14.7334 11.7407 14.6304 11.7476 14.5412C11.9878 14.4177 12.2005 14.2393 12.3857 14.0472C12.5367 13.9031 12.6671 13.7247 12.7288 13.5257C12.77 13.361 12.7563 13.1894 12.7288 13.0316C12.7151 12.9905 12.7083 12.9424 12.6945 12.9012C12.6671 12.812 12.6396 12.716 12.5985 12.6268C12.6328 12.6199 12.6671 12.6131 12.7014 12.6062C12.7082 12.5101 12.6465 12.4278 12.5985 12.3592C12.5367 12.2768 12.4681 12.1876 12.3926 12.1259C12.3652 12.0984 12.3103 12.0847 12.2828 12.119C12.2348 12.1739 12.2142 12.2425 12.1799 12.3043C12.1525 12.366 12.1181 12.4347 12.1319 12.5033C12.1387 12.5239 12.2073 12.5513 12.2485 12.5719ZM15.2197 12.318C15.3295 12.3249 15.4118 12.4004 15.501 12.4484C15.5353 12.469 15.5628 12.4895 15.5902 12.517C15.4804 12.5787 15.3501 12.5856 15.2266 12.6131C15.206 12.5307 15.2059 12.4415 15.1922 12.3592C15.1991 12.3455 15.2128 12.3249 15.2197 12.318ZM14.458 12.3249C14.4443 12.3249 14.4306 12.3249 14.4168 12.3317C14.3757 12.2837 14.3482 12.2357 14.3277 12.1808C14.3139 12.1396 14.3002 12.0847 14.2522 12.071C14.2247 12.1327 14.2247 12.2014 14.2247 12.27C14.211 12.2974 14.2041 12.3317 14.1904 12.366C14.1698 12.366 14.1492 12.366 14.1286 12.366C14.0737 12.2906 14.0532 12.2014 14.0326 12.1122C14.0257 12.1053 14.012 12.0847 14.012 12.0778C13.9777 12.2082 13.964 12.3592 14.0463 12.4827C14.0738 12.5307 14.1355 12.565 14.1835 12.5445C14.2453 12.5239 14.259 12.4552 14.2865 12.4003C14.3002 12.4003 14.3139 12.4003 14.3277 12.4003C14.362 12.4347 14.3894 12.4758 14.4443 12.4758C14.5266 12.4827 14.5884 12.4004 14.6021 12.3317C14.6227 12.2151 14.5884 12.0847 14.5266 11.9818C14.4786 12.0573 14.5061 12.1465 14.4992 12.2288C14.4786 12.2562 14.4717 12.2906 14.458 12.3249ZM22.0884 10.8153C22.1021 10.8976 22.0884 10.9868 22.1158 11.0623C22.1227 11.0623 22.1433 11.0623 22.1501 11.0623C22.205 10.9525 22.2119 10.829 22.2119 10.7123C22.2051 10.4927 22.1639 10.2594 22.0404 10.0742C21.9649 10.0673 21.9374 10.1565 21.91 10.2114C21.8826 10.2594 21.9031 10.3144 21.9306 10.3555C22.0198 10.4859 22.0678 10.6506 22.0884 10.8153ZM20.3661 13.3542C20.4416 13.3473 20.469 13.2649 20.5033 13.2032C20.5514 13.0385 20.4827 12.8601 20.3661 12.7366C20.3386 12.7023 20.2906 12.6885 20.2494 12.7023C20.1945 12.7366 20.1534 12.7983 20.1602 12.8669C20.2426 12.9218 20.3318 12.9767 20.3661 13.0728C20.4141 13.1689 20.3455 13.265 20.3661 13.3542ZM19.5427 11.5838C19.5632 11.5838 19.5907 11.5906 19.6113 11.5838C19.6456 11.5838 19.6524 11.5426 19.673 11.522C19.7691 11.6181 19.824 11.7416 19.8789 11.8583C19.8995 11.8994 19.92 11.9475 19.9543 11.9818C20.0024 11.9886 20.0093 11.92 20.0161 11.8857C20.023 11.7142 20.0093 11.5426 20.0161 11.3779C20.0298 11.3436 20.0367 11.2956 20.071 11.2681C20.1328 11.2613 20.174 11.3162 20.2357 11.3025C20.2357 11.2682 20.2494 11.2338 20.2357 11.1995C20.2083 11.1515 20.1808 11.1034 20.1602 11.0485C20.1465 11.0417 20.1259 11.0348 20.1122 11.0211C20.0299 11.0623 19.9612 11.1309 19.9338 11.2201C19.9201 11.3299 19.9338 11.4466 19.9475 11.5564C19.9543 11.6112 19.9544 11.6661 19.9269 11.7142C19.8789 11.6593 19.8583 11.5769 19.824 11.5083C19.7759 11.4054 19.7279 11.3093 19.6524 11.227C19.625 11.227 19.5838 11.2201 19.5632 11.2476C19.5289 11.275 19.5289 11.3162 19.5289 11.3505C19.5426 11.3985 19.5426 11.4534 19.5289 11.5083C19.5289 11.5495 19.5358 11.5632 19.5427 11.5838ZM17.4018 10.9525C17.3675 11.0143 17.3674 11.0829 17.34 11.1515C17.3331 11.1789 17.3057 11.1789 17.2851 11.1789C17.2645 11.1309 17.2371 11.076 17.2165 11.0211C17.2096 11.0211 17.1959 11.0142 17.189 11.0142C17.1547 11.1172 17.1753 11.227 17.2302 11.3162C17.3126 11.3299 17.3606 11.2613 17.4223 11.227C17.4704 11.2475 17.5115 11.2818 17.5527 11.3093C17.5939 11.323 17.6282 11.2956 17.6625 11.275C17.6694 11.2613 17.6762 11.2407 17.6831 11.2201C17.6968 11.1103 17.6968 11.0074 17.6625 10.9045C17.6488 10.9045 17.6419 10.9113 17.6282 10.9113C17.6214 10.9251 17.6145 10.9456 17.6076 10.9662C17.5802 11.0348 17.587 11.1378 17.5047 11.1652C17.4566 11.1172 17.4429 11.0486 17.4292 10.9799C17.4223 10.9731 17.4086 10.9594 17.4018 10.9525ZM11.13 13.9374C11.1437 13.9305 11.1643 13.9237 11.1712 13.9168C11.2329 13.8414 11.2672 13.7453 11.2878 13.6492C11.3153 13.5531 11.2947 13.4502 11.281 13.3542C11.2673 13.2512 11.082 13.1895 11.0339 13.2992C10.9996 13.361 10.9722 13.4433 11.0202 13.5051C11.0614 13.5531 11.13 13.5257 11.1781 13.5257C11.1781 13.6012 11.1849 13.6766 11.1712 13.7521C11.1575 13.8207 11.1369 13.8756 11.13 13.9374ZM17.8478 10.3692C17.8821 10.6231 17.9164 10.877 17.9507 11.1309C17.9987 11.522 18.0399 11.9131 18.0673 12.3043C18.0948 12.6954 18.1085 13.0865 18.136 13.4708C18.1497 13.6218 18.1565 13.7727 18.1497 13.9305C18.136 14.1432 18.0262 14.3491 17.8821 14.5069C17.6968 14.7128 17.491 14.9118 17.244 15.0353C17.1204 15.1039 16.9626 15.1108 16.846 15.1931C16.846 15.2 16.846 15.2206 16.846 15.2274C16.9352 15.2617 17.0312 15.248 17.1273 15.2412C17.2988 15.2274 17.4773 15.2206 17.6282 15.1382C17.8135 15.0284 17.9438 14.85 18.0811 14.6922C18.2595 14.4932 18.335 14.2256 18.3693 13.958C18.3967 13.6973 18.4036 13.4365 18.383 13.1826C18.3761 12.764 18.3418 12.3455 18.2938 11.9269C18.2526 11.4877 18.184 11.0486 18.2046 10.6025C18.2389 10.6369 18.2869 10.6506 18.3418 10.6437C18.3487 10.5957 18.3487 10.5545 18.335 10.5133C18.2938 10.3898 18.2663 10.2663 18.232 10.1428C18.2252 10.1085 18.2114 10.0742 18.2046 10.033L18.1977 10.0193C18.1771 9.94378 18.1565 9.86834 18.1154 9.79972C18.0879 9.80658 18.0536 9.79971 18.0399 9.82715C17.985 9.90263 17.9095 9.95752 17.8478 10.033C17.7929 10.0879 17.8066 10.1771 17.8203 10.2457C17.8272 10.2869 17.8409 10.3281 17.8478 10.3692ZM20.2906 12.2357C20.0984 12.4141 19.872 12.5513 19.6799 12.7297C19.6387 12.764 19.6319 12.812 19.6319 12.8601C19.7073 12.8601 19.7622 12.8052 19.8171 12.764C19.9681 12.6405 20.1328 12.5445 20.3043 12.4484C20.3592 12.4141 20.4347 12.3935 20.4827 12.3386C20.5033 12.27 20.4896 12.1876 20.4759 12.119C20.3867 12.119 20.3455 12.1876 20.2906 12.2357ZM21.0728 12.2906C21.0728 12.1396 21.0454 11.9955 21.0454 11.8514C21.2169 12.0984 21.4022 12.3523 21.5738 12.5993C21.6012 12.6474 21.6012 12.6954 21.6149 12.7434C21.6424 12.915 21.663 13.0934 21.6835 13.2718C21.6973 13.4777 21.6904 13.6904 21.6835 13.8962C21.6904 13.9305 21.6767 14.006 21.7316 13.9992C21.7796 13.9168 21.8002 13.8208 21.8208 13.7315C21.8345 13.6218 21.8276 13.5119 21.8414 13.409C21.8276 13.2443 21.8276 13.0728 21.8139 12.9081C22.0061 13.162 22.1913 13.4159 22.3629 13.6835C22.4178 13.7727 22.4658 13.8757 22.5275 13.958C22.5344 13.958 22.555 13.958 22.555 13.958C22.5619 13.8208 22.5619 13.6904 22.5344 13.56C22.4521 13.2718 22.2599 13.0385 22.0952 12.7983C21.9855 12.6337 21.8688 12.4758 21.7659 12.3111C21.7453 12.119 21.7316 11.9269 21.7178 11.7347C21.6904 11.4534 21.6424 10.8907 21.6424 10.8907C21.6424 10.8084 21.6355 10.7261 21.6355 10.6437C21.6561 10.6574 21.6767 10.6643 21.6973 10.678C21.711 10.6712 21.7316 10.6643 21.7453 10.6575C21.7659 10.6094 21.7659 10.5614 21.7522 10.5133C21.7041 10.3418 21.663 10.1634 21.6149 9.99183C21.5806 9.89576 21.5669 9.7997 21.5051 9.73108C21.4708 9.73108 21.4365 9.7448 21.4159 9.77225C21.3542 9.84773 21.3062 9.93692 21.2719 10.0193C21.2375 10.0879 21.2855 10.1497 21.2855 10.2183C21.2924 10.5682 21.3336 10.9182 21.3816 11.275C21.4159 11.4877 21.4571 11.7004 21.4846 11.92C21.3267 11.7004 21.1689 11.4809 21.0111 11.2613C21.0042 11.028 20.9768 10.7947 20.9699 10.5682C21.0042 10.5888 21.0385 10.6026 21.0728 10.6094C21.0728 10.5751 21.0729 10.5339 21.0591 10.4996C20.9905 10.2732 20.9082 10.0605 20.8258 9.84089C20.8121 9.81344 20.7915 9.75166 20.7503 9.77225C20.6611 9.84773 20.6062 9.95751 20.5788 10.0673C20.5514 10.1634 20.5925 10.2526 20.6268 10.3349C20.6337 10.479 20.6611 10.6231 20.668 10.7672C20.5788 10.6574 20.5033 10.5339 20.4209 10.4173C20.4484 10.4173 20.4758 10.4173 20.5102 10.4173C20.517 10.4035 20.5308 10.3898 20.5376 10.3761C20.5308 10.3418 20.5239 10.3143 20.4965 10.2869C20.3661 10.1496 20.2082 10.0399 20.0916 9.88893C20.0504 9.84089 19.9955 9.78597 19.9269 9.82028C19.9269 9.84773 19.92 9.86831 19.92 9.89575C19.9269 10.0124 19.9269 10.1222 19.9132 10.232C19.8926 10.3624 19.9887 10.4584 20.0642 10.5476C20.2906 10.8221 20.5033 11.1103 20.7297 11.3848C20.7503 11.4809 20.7435 11.5769 20.7572 11.673C20.7641 11.8171 20.7846 11.9543 20.7846 12.0984L20.7915 12.1053C20.819 12.6199 20.8739 13.1277 20.8464 13.6355C20.8396 13.7315 20.8121 13.8345 20.7503 13.9168C20.7092 13.9786 20.6337 14.0129 20.5651 14.0266C20.4759 14.0403 20.4004 13.9854 20.3386 13.9305C20.222 13.8276 20.1671 13.6766 20.0436 13.5806C19.9955 13.5394 19.92 13.5394 19.872 13.5806C19.7897 13.656 19.7348 13.7521 19.6799 13.8482C19.5427 14.0678 19.426 14.3011 19.3162 14.5344C19.2819 14.603 19.2476 14.6716 19.1858 14.7197C19.1378 14.7608 19.0692 14.7608 19.028 14.7197C18.9731 14.6648 18.9457 14.5893 18.9045 14.5207C18.9457 14.555 18.9937 14.5824 19.0418 14.5755C19.131 14.5755 19.1927 14.5001 19.2339 14.4315C19.3299 14.2531 19.3917 14.0541 19.4123 13.8551C19.4466 13.56 19.378 13.265 19.3231 12.9768C19.3093 12.7915 19.275 12.5994 19.2613 12.4141L19.2545 12.4072C19.227 12.119 19.1858 11.8308 19.1515 11.5426C19.1309 11.323 19.0966 11.1103 19.0897 10.8907C19.1721 10.8976 19.275 10.877 19.3093 10.7947C19.3574 10.7123 19.3162 10.6163 19.275 10.5408C19.1721 10.3898 19.1103 10.2114 19.0486 10.0399C19.0143 9.93694 18.9937 9.83401 18.9388 9.73795C18.9045 9.68305 18.8496 9.635 18.781 9.635C18.7124 9.62814 18.6438 9.66931 18.6095 9.72421C18.5271 9.82714 18.4516 9.9438 18.431 10.081C18.3967 10.2526 18.4379 10.431 18.4859 10.5957C18.5271 10.7535 18.5408 10.9113 18.5614 11.0691C18.6163 11.474 18.6712 11.8857 18.7192 12.2837C18.7535 12.5445 18.7879 12.8052 18.8222 13.0659C18.8633 13.4365 18.9525 13.8002 18.9114 14.1707C18.8977 14.2462 18.8771 14.3285 18.8565 14.404C18.8496 14.2942 18.8153 14.1844 18.8153 14.0678C18.8084 13.9374 18.829 13.8001 18.7947 13.6698C18.7878 13.6698 18.7741 13.6629 18.7673 13.6629C18.7192 13.7727 18.6986 13.8825 18.6712 13.9992C18.63 14.2325 18.5751 14.4726 18.6438 14.7059C18.6918 14.8637 18.829 14.9598 18.9457 15.0559C19.0143 15.1039 19.076 15.1588 19.1584 15.1588C19.2201 15.1588 19.2682 15.1108 19.3025 15.0696C19.4466 14.8843 19.5564 14.6648 19.6524 14.452C19.7073 14.3285 19.7691 14.1913 19.8651 14.0884C19.8926 14.0609 19.9132 14.0266 19.9543 14.0335C20.0092 14.1021 20.0573 14.1844 20.119 14.2462C20.2425 14.3834 20.4278 14.452 20.6131 14.4589C20.7709 14.4658 20.915 14.3628 21.0111 14.2325C21.1415 14.0403 21.1552 13.8001 21.162 13.5806L21.1552 13.5669C21.1209 13.1414 21.0934 12.716 21.0728 12.2906ZM10.0458 14.651C10.2105 14.5069 10.3272 14.3079 10.3889 14.0952C10.4644 13.8139 10.4713 13.5188 10.4507 13.2238C10.4507 13.1003 10.4507 12.9767 10.437 12.8532C10.4301 12.8258 10.4438 12.7983 10.4507 12.7709C10.4644 12.7709 10.4781 12.7709 10.485 12.7709C10.5193 12.8807 10.6291 12.9424 10.7389 12.9562C10.8487 12.963 10.9722 12.9356 11.0683 12.8738C11.1232 12.8395 11.1574 12.7915 11.1986 12.7503C11.2123 12.7366 11.2329 12.7297 11.2467 12.7434C11.281 12.7846 11.3084 12.8326 11.3565 12.8601C11.4457 12.915 11.5486 12.9218 11.6515 12.9081C11.7201 12.8875 11.7887 12.8395 11.8093 12.7709C11.8505 12.6474 11.8642 12.5102 11.8574 12.3729C11.8505 12.2906 11.8436 12.2014 11.8093 12.119C11.7407 12.1259 11.6927 12.167 11.6515 12.2219C11.6241 12.2494 11.6584 12.2768 11.6653 12.3111C11.6927 12.3729 11.6927 12.4484 11.6858 12.517C11.6858 12.5856 11.6447 12.6611 11.5692 12.6748C11.5006 12.6817 11.4388 12.6199 11.4045 12.565C11.3359 12.4552 11.3359 12.318 11.3153 12.1876C11.3016 12.1876 11.2879 12.1876 11.281 12.1808C11.233 12.3111 11.1986 12.4415 11.1163 12.5582C11.0614 12.6336 10.9859 12.7091 10.8899 12.716C10.8213 12.7229 10.7595 12.6748 10.732 12.6131C10.6771 12.5101 10.6977 12.3866 10.6977 12.2768C10.7046 12.2357 10.6634 12.1807 10.6154 12.2082C10.533 12.2562 10.4781 12.3386 10.3958 12.3935C10.3821 12.1465 10.3683 11.8994 10.3478 11.6524C10.334 11.3573 10.2997 11.0554 10.286 10.7604C10.3135 10.7809 10.3409 10.8221 10.3889 10.8153C10.4232 10.8153 10.4439 10.7809 10.4644 10.7535C10.4782 10.6849 10.4781 10.6094 10.4507 10.5476C10.3821 10.3898 10.334 10.232 10.2792 10.0673C10.2517 9.9781 10.2242 9.89576 10.1762 9.81342C10.1145 9.82028 10.0733 9.87518 10.0321 9.90949C9.9841 9.95752 9.93608 10.0124 9.90863 10.081C9.88804 10.1497 9.92918 10.2114 9.95663 10.2732C9.95663 10.3144 9.95663 10.3487 9.95663 10.3898C9.95663 10.5271 9.97038 10.6574 9.9841 10.7947C9.99096 10.8358 9.99093 10.877 9.99779 10.9182L10.0047 10.9319C10.0115 11.0623 10.039 11.1927 10.0458 11.3299L10.0527 11.3368C10.0939 11.7416 10.1557 12.1396 10.1625 12.5445C10.087 12.5788 10.0184 12.6337 9.94293 12.668C9.87431 12.5239 9.77139 12.4003 9.64788 12.2974C9.57926 12.2356 9.49688 12.1808 9.40082 12.1945C9.30475 12.2151 9.23613 12.2906 9.1881 12.366C9.12634 12.4621 9.0509 12.5719 9.0509 12.6954C9.0509 12.8121 9.05772 12.9356 9.05772 13.0522C9.07145 13.0865 9.08519 13.1277 9.1195 13.1483C9.2087 13.1963 9.3185 13.2306 9.42829 13.1963C9.54494 13.162 9.66843 13.1208 9.78508 13.0865C9.79194 13.1689 9.79882 13.2512 9.76452 13.3267C9.74393 13.3747 9.70962 13.4159 9.68218 13.4502C9.56552 13.5806 9.43514 13.6972 9.29105 13.7933C9.14695 13.8962 8.98225 13.9855 8.80384 14.006C8.68033 14.0266 8.54309 13.9923 8.46075 13.9031C8.29606 13.711 8.25492 13.4502 8.27551 13.2032C8.28923 13.1277 8.29606 13.0454 8.2892 12.963C8.22744 12.9973 8.21375 13.0728 8.19317 13.1346C8.15886 13.2787 8.13139 13.4296 8.13139 13.5806C8.13139 13.7384 8.13137 13.8962 8.19999 14.0403C8.2892 14.2187 8.4539 14.3697 8.6529 14.3971C8.89993 14.4314 9.1401 14.3217 9.34595 14.205C9.62729 14.0472 9.88804 13.8207 9.99097 13.5051L9.99779 13.4914C10.039 13.3267 10.0184 13.162 10.0184 12.9905C10.0733 12.9561 10.1282 12.9218 10.1899 12.8944C10.1968 13.0797 10.1831 13.2649 10.1899 13.4502C10.1968 13.5806 10.1831 13.7109 10.1556 13.8413L10.1488 13.8551C10.1076 14.0197 9.99783 14.157 9.86059 14.2599C9.64787 14.4383 9.38711 14.5687 9.1195 14.651C8.96854 14.699 8.80385 14.7265 8.64603 14.7265C8.47448 14.7265 8.29608 14.6647 8.17943 14.5344C8.04219 14.3834 8.00104 14.1707 7.98045 13.9648C7.98045 13.8688 7.97359 13.7658 7.98045 13.6698C8.01476 13.5325 8.04217 13.3747 7.98728 13.2306C7.87063 13.4434 7.83635 13.6904 7.8089 13.9305C7.78832 14.2187 7.82259 14.507 7.94611 14.7746C7.98042 14.8569 8.04217 14.9392 8.11765 14.9941C8.26175 15.097 8.44018 15.1314 8.61173 15.1382C8.91365 15.1451 9.20868 15.0696 9.48316 14.9667C9.67529 14.8843 9.88115 14.7951 10.0458 14.651ZM9.35965 12.8189C9.28417 12.7572 9.3185 12.6542 9.33908 12.5719C9.35281 12.565 9.36653 12.5581 9.38025 12.5513C9.42829 12.565 9.47633 12.5788 9.5175 12.6131C9.57239 12.6611 9.61353 12.716 9.6547 12.7709C9.55864 12.812 9.45571 12.8464 9.35965 12.8189ZM7.99415 12.6405C8.08335 12.6062 8.17943 12.5856 8.26864 12.5445C8.2755 12.4758 8.2755 12.4072 8.26864 12.3454C8.24119 12.3454 8.21375 12.3386 8.19317 12.3454C8.01476 12.4003 7.83634 12.4758 7.67166 12.5788C7.45208 12.7229 7.24622 12.8875 7.10898 13.1071C7.19132 13.0659 7.25992 13.0042 7.34226 12.9562C7.54812 12.8395 7.7677 12.7297 7.99415 12.6405ZM7.46581 14.7197C7.39033 14.7471 7.34228 14.6716 7.3217 14.6167C7.2668 14.4314 7.31484 14.2393 7.36974 14.0609C7.42463 13.9374 7.39716 13.8001 7.3903 13.6698C7.37658 13.6698 7.36286 13.6698 7.356 13.6698C7.30797 13.7864 7.29426 13.9099 7.24623 14.0197C7.18447 14.1776 7.15702 14.3423 7.15702 14.5069C7.15702 14.6305 7.15701 14.7539 7.19132 14.8706C7.21877 14.9529 7.29423 15.0353 7.3903 15.0284C7.50695 15.0284 7.59617 14.9255 7.62362 14.8226C7.65107 14.7334 7.67166 14.6304 7.63049 14.5412C7.54815 14.5687 7.53443 14.6716 7.46581 14.7197ZM20.8807 19.5023C20.7847 19.42 20.6474 19.4063 20.5239 19.4063C20.0573 19.4063 19.5975 19.42 19.1378 19.4269C19.1378 19.3788 19.1309 19.3308 19.1378 19.2828C19.1652 19.221 19.2338 19.1661 19.2201 19.0975C19.1927 19.022 19.1446 18.9671 19.0966 18.9054C19.076 18.9054 19.0486 18.9054 19.028 18.9054C18.98 18.9671 18.932 19.0289 18.9045 19.1044C18.8839 19.1867 18.9594 19.2485 19.0006 19.3102C19.0006 19.3514 19.0006 19.3926 19.0006 19.4269C17.2988 19.4475 15.5902 19.4475 13.8885 19.4406C13.566 19.4475 13.2435 19.4337 12.921 19.4337C12.0564 19.4337 11.1918 19.42 10.3272 19.4131C9.8949 19.4131 9.45572 19.3994 9.02342 19.3994C9.13321 19.571 9.31162 19.6876 9.49689 19.7562C9.81254 19.866 10.1419 19.8935 10.4781 19.9141C10.8349 19.9347 11.1918 19.9209 11.5486 19.9346C12.6808 19.9484 13.813 19.9415 14.9452 19.921C15.9813 19.9141 17.0175 19.8866 18.0468 19.866C18.3761 19.8592 18.6986 19.8454 19.0211 19.8454C19.0211 19.8935 19.0211 19.9415 19.0211 19.9827C18.9868 20.0307 18.9525 20.0788 18.9182 20.1268C18.9182 20.2297 19.0006 20.3189 19.0692 20.3876C19.076 20.3876 19.0966 20.3876 19.1035 20.3876C19.1447 20.3395 19.179 20.2846 19.2133 20.2297C19.378 20.2297 19.5495 20.216 19.7211 20.216C19.7417 20.2709 19.7965 20.2983 19.8446 20.3189C19.8995 20.3052 19.9544 20.264 19.9681 20.2023C20.1465 20.2023 20.3317 20.1954 20.5102 20.1954C20.5445 20.2434 20.5856 20.2846 20.6474 20.3052C20.7366 20.3327 20.8327 20.3121 20.8944 20.2434C20.9905 20.1337 21.0042 19.9827 21.0042 19.8454C20.9974 19.7288 20.9768 19.5916 20.8807 19.5023ZM20.469 20.0719C20.3043 20.0856 20.1396 20.0788 19.975 20.0856C19.9544 20.0307 19.8995 19.9896 19.8446 19.9896C19.8034 19.9964 19.7759 20.0239 19.7485 20.0445C19.7485 20.0582 19.7416 20.0788 19.7416 20.0925C19.5769 20.1062 19.4123 20.1062 19.2476 20.1062C19.2202 20.065 19.1858 20.0239 19.1515 19.9827C19.1515 19.9347 19.1515 19.8866 19.1515 19.8386C19.5975 19.8249 20.0436 19.8111 20.4896 19.8043C20.4621 19.8866 20.4347 19.9827 20.469 20.0719ZM20.9425 14.8706C20.9287 14.7814 21.0042 14.7128 21.0248 14.6236C21.0179 14.6099 21.0111 14.5961 21.0042 14.5824C20.9219 14.5344 20.8189 14.5413 20.7297 14.5618C20.668 14.5756 20.6817 14.651 20.6817 14.6991C20.7229 14.7334 20.8052 14.7471 20.8052 14.8157C20.8121 14.9392 20.6268 14.953 20.6268 15.0696C20.62 15.1382 20.7092 15.1451 20.7572 15.1382C20.8807 15.1176 20.9974 15.0559 21.0934 14.9735C21.0934 14.9392 21.0934 14.9118 21.0934 14.8775C21.0454 14.8706 20.9974 14.8706 20.9425 14.8706ZM22.905 11.8102C22.8638 11.3711 22.7814 10.9388 22.7952 10.4927C22.8363 10.5202 22.8775 10.5476 22.9324 10.5476C22.9393 10.4927 22.9324 10.431 22.905 10.3761C22.8226 10.1977 22.7403 10.0124 22.6579 9.83402C22.6373 9.79285 22.6168 9.74482 22.5756 9.71051C22.5344 9.71051 22.5138 9.7448 22.4864 9.77225C22.4383 9.834 22.3835 9.89575 22.3629 9.97809C22.3423 10.0604 22.3835 10.1428 22.3903 10.2252C22.4109 10.4173 22.4521 10.6094 22.4589 10.8015C22.4589 10.8015 22.4726 10.9388 22.4864 11.0485C22.5001 11.1515 22.5138 11.2544 22.5207 11.3505C22.5893 11.9406 22.651 12.5376 22.6922 13.1277C22.7059 13.4159 22.7128 13.7178 22.6099 13.9992C22.5275 14.2393 22.356 14.4452 22.1639 14.603C22.0129 14.7334 21.8414 14.8432 21.6835 14.9598C21.6355 15.001 21.5738 15.0353 21.5532 15.1039C21.6698 15.1245 21.7934 15.0833 21.91 15.0559C22.1776 14.9941 22.4315 14.8569 22.6099 14.6373C22.7814 14.4315 22.8775 14.1776 22.9255 13.9168L22.9324 13.91C22.9736 13.6698 22.9941 13.4228 22.9941 13.1757C22.9873 12.7297 22.953 12.27 22.905 11.8102ZM7.39717 11.9749C7.47265 11.9612 7.52067 11.8926 7.55498 11.8377C7.64418 11.6867 7.67851 11.5083 7.69909 11.3368C7.70595 11.275 7.71966 11.2064 7.72652 11.1446L7.73339 11.1377C7.76084 10.9936 7.79514 10.8496 7.8569 10.7192C7.86376 10.7192 7.88437 10.7123 7.88437 10.7123C7.90496 10.7741 7.90493 10.8358 7.89807 10.8976C7.87062 11.0005 7.86377 11.1103 7.86377 11.2201C7.85691 11.4465 7.88438 11.6936 8.02162 11.872C8.12455 12.0023 8.28923 12.0504 8.44705 12.0504C8.46764 12.3317 8.50881 12.6062 8.53626 12.8876L8.54309 12.9012C8.54995 12.9973 8.5637 13.0934 8.57056 13.1895C8.59115 13.313 8.57741 13.4365 8.59799 13.56C8.60485 13.56 8.62542 13.56 8.62542 13.56C8.68032 13.4708 8.72838 13.3679 8.73524 13.2581C8.74896 12.9905 8.7078 12.7229 8.70094 12.4484C8.69407 12.2631 8.67349 12.0847 8.65977 11.8994C8.72839 11.8446 8.79014 11.7759 8.83131 11.7004C8.85876 11.6524 8.88621 11.5975 8.92052 11.5495C8.92738 11.5495 8.94796 11.5495 8.95482 11.5495C8.98913 11.6387 9.00284 11.7348 9.06459 11.8102C9.14694 11.9269 9.31162 11.9749 9.44885 11.9269C9.57237 11.8857 9.68903 11.8171 9.75765 11.7142C9.85371 11.5769 9.84684 11.3985 9.83312 11.2338C9.80567 11.028 9.74395 10.8221 9.69591 10.6231C9.73022 10.6162 9.7851 10.6231 9.80568 10.5819C9.83313 10.5408 9.81255 10.4927 9.80568 10.4516C9.77824 10.3967 9.75077 10.3418 9.70274 10.2938C9.64785 10.232 9.60671 10.1565 9.52437 10.1222C9.46261 10.1497 9.43516 10.2114 9.39399 10.2595C9.36654 10.3006 9.31848 10.3349 9.31848 10.3898C9.3322 10.479 9.37338 10.5614 9.40769 10.6437C9.49689 10.877 9.57239 11.124 9.59984 11.3711C9.6067 11.426 9.57926 11.5015 9.52437 11.5152C9.42144 11.5289 9.31848 11.522 9.23614 11.4603C9.16752 11.4054 9.12635 11.323 9.10576 11.2407C9.05773 11.0486 8.99598 10.8496 9.02342 10.6437C9.05773 10.4516 8.98227 10.2457 8.83131 10.1222C8.80387 10.0948 8.78326 10.1291 8.76954 10.1565C8.72151 10.3006 8.70093 10.4653 8.74211 10.6094C8.78328 10.8015 8.82444 10.9937 8.85875 11.1858C8.83816 11.3299 8.75581 11.4671 8.63916 11.5495C8.6323 11.5083 8.63229 11.4671 8.62542 11.4191C8.61856 11.3711 8.61858 11.3162 8.60486 11.2681C8.57741 11.0074 8.54998 10.7398 8.52939 10.4722C8.57742 10.4516 8.61171 10.4104 8.63229 10.3555C8.63229 10.1977 8.54997 10.0536 8.48135 9.91636C8.44704 9.8546 8.41959 9.786 8.35098 9.75855C8.28236 9.81345 8.23431 9.88892 8.20686 9.97127C8.18628 10.0467 8.24118 10.1085 8.26177 10.1771C8.24804 10.3281 8.31665 10.4653 8.33037 10.6094C8.34409 10.7604 8.35095 10.9182 8.37154 11.076C8.3784 11.2476 8.39898 11.4122 8.41271 11.5838C8.35781 11.5838 8.30294 11.5701 8.26177 11.5426C8.17256 11.4877 8.13139 11.3779 8.09022 11.2887C8.08336 11.2544 8.06965 11.2201 8.06279 11.1858C8.04907 11.0897 8.02847 10.9937 8.04905 10.8976C8.05591 10.7741 8.11081 10.6643 8.13826 10.5408C8.15198 10.4584 8.16572 10.3761 8.152 10.3006C8.13827 10.2389 8.07651 10.184 8.01475 10.1977C7.93241 10.2114 7.87063 10.28 7.8226 10.3487C7.7334 10.479 7.66479 10.63 7.62362 10.781L7.61675 10.7947C7.54813 11.028 7.57558 11.2819 7.48638 11.5083C7.46579 11.5495 7.43833 11.6044 7.38343 11.5975C7.31481 11.5701 7.28054 11.4946 7.24623 11.426C7.17761 11.2407 7.15013 11.0417 7.12955 10.8427C7.11582 10.7055 7.12957 10.5614 7.11585 10.4241C7.10213 10.4241 7.0884 10.4241 7.07468 10.4241C7.01979 10.5614 6.99234 10.7123 6.99234 10.8633L6.98547 10.877C6.98547 11.2064 7.04035 11.5357 7.18445 11.8308C7.23935 11.9063 7.3011 11.9955 7.39717 11.9749ZM9.03716 10.1222C9.11264 10.1359 9.1744 10.0879 9.20871 10.033C9.24302 10.0536 9.2636 10.0879 9.29105 10.1222C9.31849 10.1359 9.35281 10.1359 9.38712 10.1291C9.44202 10.1154 9.45574 10.0536 9.46946 10.0056C9.47632 9.95753 9.48319 9.88204 9.42829 9.86145C9.40771 9.91635 9.40768 10.033 9.31848 10.0193C9.243 9.97123 9.24301 9.86833 9.24301 9.79285C9.23615 9.79285 9.22244 9.79285 9.21558 9.79285C9.18127 9.86833 9.16069 9.95067 9.09207 9.9987C9.06462 10.0124 9.02345 10.0124 9.00973 9.97809C8.97542 9.9232 8.98912 9.86144 8.98225 9.80655C8.97539 9.79282 8.96855 9.77227 8.96169 9.75855C8.95483 9.75855 8.94108 9.75168 8.94108 9.75168C8.89305 9.81344 8.87932 9.88892 8.88618 9.9644C8.92049 10.0193 8.96168 10.1016 9.03716 10.1222ZM11.7888 10.5408C11.8368 10.5408 11.8848 10.5339 11.9123 10.4927C11.926 10.4447 11.8985 10.3967 11.8917 10.3555C11.926 10.2663 11.9672 10.1771 11.9809 10.081C11.9946 9.9987 11.9946 9.89577 11.9397 9.82715C11.8848 9.75853 11.775 9.75168 11.6996 9.79285C11.6172 9.83402 11.5555 9.90949 11.5211 9.9987C11.4731 10.1497 11.4868 10.3281 11.6104 10.431C11.4319 10.678 11.1986 10.877 10.9516 11.0554C10.883 11.1103 10.8006 11.1515 10.7389 11.2133C10.7389 11.2201 10.7389 11.2476 10.7389 11.2544C10.835 11.2613 10.9242 11.2133 11.0134 11.1721C11.3153 11.0211 11.6035 10.8221 11.7888 10.5408ZM11.6927 10.0948C11.7133 10.0536 11.7339 10.0124 11.775 9.99183C11.8231 10.0673 11.7682 10.1428 11.7407 10.2114C11.7339 10.2114 11.7201 10.2045 11.7133 10.2045C11.6927 10.1771 11.6927 10.1359 11.6927 10.0948ZM7.60302 9.88893C7.6236 9.99872 7.60304 10.1154 7.58245 10.2252L7.57558 10.2388C7.56186 10.2869 7.54814 10.3349 7.53441 10.3761C7.60989 10.2526 7.68537 10.1154 7.70596 9.97127C7.71282 9.88206 7.71967 9.77227 7.65105 9.71051C7.59616 9.68307 7.52755 9.71738 7.48638 9.75855C7.4452 9.79972 7.39031 9.85461 7.40404 9.92323C7.46579 9.98499 7.52753 9.86834 7.60302 9.88893ZM11.6104 11.0623C11.5966 11.0623 11.5829 11.0623 11.5692 11.0623C11.5074 11.1172 11.4525 11.1858 11.4114 11.2613C11.3565 11.3505 11.3153 11.4534 11.329 11.5632C11.3496 11.6387 11.3976 11.7073 11.4731 11.7347C11.5417 11.7553 11.6172 11.7279 11.6721 11.6867C11.7682 11.625 11.8299 11.5083 11.8436 11.3916C11.775 11.4054 11.7339 11.474 11.6858 11.5152C11.6378 11.5564 11.576 11.5907 11.5211 11.5564C11.4663 11.5289 11.4662 11.4603 11.4731 11.4054C11.4731 11.275 11.5898 11.1927 11.6104 11.0623Z" fill="white"/>
</svg>
