<svg width="30" height="30" viewBox="0 0 30 30" fill="none" xmlns="http://www.w3.org/2000/svg">
<path d="M14.9999 30.001C23.2822 30.001 30 23.2832 30 15.001C30 12.469 29.3687 10.081 28.257 7.98816L3.42401 24.539C6.17561 27.8807 10.3408 30.001 14.9999 30.001Z" fill="#215B33"/>
<path d="M15 0.000976562C6.71774 0.000976562 0 6.71872 0 15.001C0 17.533 0.631296 19.9141 1.74292 22.0069L26.5691 5.45615C23.8243 2.12816 19.6592 0.000976562 15 0.000976562Z" fill="#0051BA"/>
<path d="M27.4817 6.68444C27.2004 6.25901 26.8985 5.85414 26.576 5.46301L1.74982 22.0138C1.98998 22.4667 2.24387 22.899 2.52521 23.3244C2.80654 23.7499 3.10847 24.1547 3.43098 24.5458L28.264 7.99504C28.017 7.54215 27.7631 7.10301 27.4817 6.68444Z" fill="#FCD116"/>
<path d="M2.74462 8.22833L3.12888 9.40172H4.35716L3.36218 10.1222L3.73959 11.2956L2.74462 10.5682L1.74964 11.2956L2.12706 10.1222L1.13208 9.40172H2.36036L2.74462 8.22833Z" fill="white"/>
<path d="M9.05761 8.22833L9.44187 9.40172H10.6701L9.67517 10.1222L10.0526 11.2956L9.05761 10.5682L8.06263 11.2956L8.44002 10.1222L7.44507 9.40172H8.68019L9.05761 8.22833Z" fill="white"/>
<path d="M9.05761 1.91541L9.44187 3.0888H10.6701L9.67517 3.80928L10.0526 4.98267L9.05761 4.26215L8.06263 4.98267L8.44002 3.80928L7.44507 3.0888H8.68019L9.05761 1.91541Z" fill="white"/>
<path d="M5.90105 5.07184L6.28531 6.24523H7.51359L6.51861 6.96572L6.89601 8.13911L5.90105 7.41175L4.90608 8.13911L5.28349 6.96572L4.28851 6.24523H5.51679L5.90105 5.07184Z" fill="white"/>
</svg>
