<svg width="30" height="30" viewBox="0 0 30 30" fill="none" xmlns="http://www.w3.org/2000/svg">
<path d="M3.05176e-05 15.001C3.05176e-05 16.7302 0.295063 18.3839 0.830288 19.9346L10.4437 0.707764C4.38473 2.63594 3.05176e-05 8.3038 3.05176e-05 15.001Z" fill="#003F87"/>
<path d="M0.8302 19.9346C1.24877 21.1355 1.81148 22.2608 2.49767 23.297L23.289 2.50557C20.9148 0.927343 18.0603 0.000976562 14.9931 0.000976562C13.408 0.000976562 11.8778 0.248023 10.4368 0.707767L0.8302 19.9346Z" fill="#FCD856"/>
<path d="M4.80333 26.0005L29.9932 14.802C29.9245 9.66932 27.2827 5.15423 23.296 2.50555L2.50455 23.297C3.16328 24.2919 3.93188 25.1977 4.80333 26.0005Z" fill="#D62828"/>
<path d="M6.79312 27.5582L27.7492 22.9059C29.1765 20.614 30 17.9036 30 15.0079C30 14.9393 29.9931 14.8775 29.9931 14.8089L4.80325 26.0074C5.42082 26.577 6.08635 27.0985 6.79312 27.5582Z" fill="white"/>
<path d="M27.7493 22.9059L6.79321 27.5582C9.15369 29.1022 11.9671 30.0011 15 30.0011C20.3797 30.0011 25.1007 27.1671 27.7493 22.9059Z" fill="#007A3D"/>
</svg>
