<svg width="30" height="30" viewBox="0 0 30 30" fill="none" xmlns="http://www.w3.org/2000/svg">
<path d="M3.10718 24.1135C5.85066 27.6886 10.1511 30.001 15.0002 30.001C21.5023 30.001 27.0167 25.8565 29.1017 20.0651H7.1607L3.10718 24.1135Z" fill="black"/>
<path d="M12.2361 15.0079L7.16071 20.0719H29.1017C29.671 18.4869 30.0002 16.7851 30.0002 15.0079C30.0002 13.2238 29.671 11.5221 29.1017 9.94385H7.16071L12.2361 15.0079Z" fill="#F1F4FB"/>
<path d="M29.0948 9.93699C27.0166 4.15244 21.4954 0.0010376 14.9933 0.0010376C10.1442 0.0010376 5.84378 2.31345 3.10029 5.88848L7.15381 9.93012H29.0948V9.93699Z" fill="#D21034"/>
<path d="M7.16068 9.93697L3.10716 5.89532C2.17437 7.10987 1.42679 8.46853 0.898673 9.93697C0.3294 11.5221 0.000183345 13.2238 0.000183345 15.001C0.000183345 16.7782 0.3294 18.48 0.898673 20.0651C1.42679 21.5335 2.17437 22.8922 3.10716 24.1067L7.16068 20.0651L12.2361 15.001L7.16068 9.93697Z" fill="#007229"/>
</svg>
