<svg width="30" height="30" viewBox="0 0 30 30" fill="none" xmlns="http://www.w3.org/2000/svg">
<path d="M9.75083 0.947998C4.85148 2.78011 1.16667 7.10305 0.233459 12.3729H9.75083V0.947998Z" fill="#005B99"/>
<path d="M0.233459 17.6223C1.16667 22.899 4.84461 27.2219 9.75083 29.0472V17.6223H0.233459Z" fill="#005B99"/>
<path d="M29.7667 12.3729C28.5247 5.33953 22.3902 0.0010376 15 0.0010376V12.3729H29.7667Z" fill="#005B99"/>
<path d="M29.7667 17.6223H15V30.001C22.3902 30.001 28.5247 24.6556 29.7667 17.6223Z" fill="#005B99"/>
<path d="M29.7667 17.6222C29.9176 16.7714 30 15.8931 30 15.001C30 14.1021 29.9176 13.2306 29.7667 12.3729H15V0.0010376C13.1542 0.0010376 11.3838 0.337271 9.75069 0.947975V12.3729H0.233321C0.0823605 13.2238 0 14.1021 0 15.001C0 15.8931 0.0823605 16.7714 0.233321 17.6222H9.75069V29.0472C11.3838 29.6579 13.1542 29.9941 15 29.9941V17.6154H29.7667V17.6222Z" fill="#FCD116"/>
</svg>
