<svg width="30" height="30" viewBox="0 0 30 30" fill="none" xmlns="http://www.w3.org/2000/svg">
<path d="M15 30.001C23.2822 30.001 30 23.2832 30 15.001H0C0 23.2832 6.71775 30.001 15 30.001Z" fill="#F1F4FB"/>
<path d="M15 0.000976562C6.71775 0.000976562 0 6.71872 0 15.001H30C30 6.71872 23.2891 0.000976562 15 0.000976562Z" fill="#F42A41"/>
<path d="M5.86693 8.83904C5.86693 7.00692 6.9511 5.42868 8.50874 4.70132C8.19996 4.63271 7.88432 4.59155 7.55495 4.59155C5.2082 4.59155 3.30746 6.49229 3.30746 8.83904C3.30746 11.1858 5.2082 13.0865 7.55495 13.0865C7.88432 13.0865 8.19996 13.0453 8.50874 12.9767C6.94424 12.2425 5.86693 10.6712 5.86693 8.83904Z" fill="#F1F4FB"/>
<path d="M10.4853 5.40125L10.7323 6.1629H11.5351L10.8833 6.63637L11.1303 7.39116L10.4853 6.92456L9.84027 7.39116L10.0873 6.63637L9.43542 6.1629H10.2383L10.4853 5.40125Z" fill="#F1F4FB"/>
<path d="M12.8457 7.17163L13.0927 7.93329H13.8955L13.2437 8.39989L13.4907 9.16154L12.8457 8.68807L12.2007 9.16154L12.4477 8.39989L11.8027 7.93329H12.5986L12.8457 7.17163Z" fill="#F1F4FB"/>
<path d="M8.08359 7.17163L8.33062 7.93329H9.13345L8.48158 8.39989L8.7286 9.16154L8.08359 8.68807L7.43858 9.16154L7.6856 8.39989L7.04059 7.93329H7.83656L8.08359 7.17163Z" fill="#F1F4FB"/>
<path d="M11.9399 9.98499L12.187 10.7398H12.9898L12.3448 11.2132L12.5918 11.9749L11.9399 11.5015L11.2949 11.9749L11.542 11.2132L10.8969 10.7398H11.6929L11.9399 9.98499Z" fill="#F1F4FB"/>
<path d="M9.00998 9.98499L9.25014 10.7398H10.053L9.40796 11.2132L9.65499 11.9749L9.00998 11.5015L8.36496 11.9749L8.60513 11.2132L7.96011 10.7398H8.76295L9.00998 9.98499Z" fill="#F1F4FB"/>
</svg>
