<svg width="30" height="30" viewBox="0 0 30 30" fill="none" xmlns="http://www.w3.org/2000/svg">
<path d="M15.0001 30.0009C21.0523 30.0009 26.2673 26.4122 28.6346 21.2521H1.36566C3.733 26.419 8.948 30.0009 15.0001 30.0009Z" fill="#FF0000"/>
<path d="M15.0001 0.000976562C8.948 0.000976562 3.733 3.58972 1.36566 8.74983H28.6346C26.2604 3.58972 21.0523 0.000976562 15.0001 0.000976562Z" fill="white"/>
<path d="M0.00012207 15.0078C0.00012207 17.2379 0.494179 19.3582 1.36563 21.259H28.6346C29.5061 19.3582 30.0001 17.2448 30.0001 15.0078C30.0001 12.7777 29.5129 10.6574 28.6346 8.75671H1.36563C0.487317 10.6574 0.00012207 12.7709 0.00012207 15.0078Z" fill="#005CE6"/>
<path d="M5.86013 4.45435L14.5198 4.46121L14.7256 4.53668C14.6296 6.11491 14.5266 7.63138 14.4306 9.2096C14.4031 10.4996 14.0395 11.8034 13.2503 12.8464C12.5024 13.8688 11.4114 14.6236 10.1968 15.001C8.65291 14.5413 7.32171 13.4228 6.61494 11.9749C6.18264 11.1241 6.00423 10.1703 5.96992 9.21647C5.87385 7.63138 5.67487 4.54355 5.67487 4.54355L5.86013 4.45435Z" fill="#FF0000"/>
<path d="M5.86011 4.45432C8.5774 3.27408 11.8025 3.28095 14.5198 4.46119C14.5198 4.46119 14.3345 7.72058 14.2384 9.23018C14.211 10.4653 13.861 11.7141 13.1062 12.7091C12.3926 13.6835 11.3427 14.4108 10.1831 14.7677C8.70778 14.3285 7.43147 13.2581 6.75215 11.872C6.34044 11.0554 6.1689 10.1428 6.13459 9.23018C6.05225 7.71372 5.86011 4.45432 5.86011 4.45432Z" fill="#005CE6"/>
<path d="M8.87954 4.33767C8.92071 4.2416 8.9756 4.15237 9.02363 4.04944C9.05108 4.11806 9.1197 4.26905 9.14715 4.33767C9.22263 4.3308 9.38045 4.31705 9.45593 4.30332C9.39417 4.39253 9.33241 4.47487 9.27066 4.56408C9.33241 4.63956 9.39417 4.72876 9.45593 4.81796C9.38045 4.8111 9.22263 4.79738 9.14715 4.78366C9.10598 4.87973 9.05794 4.98265 9.01677 5.07872C8.9756 4.98265 8.92757 4.87973 8.89326 4.78366C8.81778 4.79738 8.65995 4.8111 8.58447 4.81796C8.64623 4.72876 8.70113 4.64642 8.76289 4.56408C8.71485 4.49546 8.62564 4.37194 8.58447 4.30332C8.65309 4.31705 8.80406 4.3308 8.87954 4.33767Z" fill="#FDE403"/>
<path d="M11.3841 4.05627C11.4253 4.15234 11.4733 4.24839 11.5145 4.34446C11.5968 4.3376 11.7478 4.32388 11.8301 4.31016C11.7684 4.39936 11.7135 4.48171 11.6517 4.57091C11.6998 4.63267 11.7958 4.76304 11.8301 4.8248C11.7547 4.81794 11.5968 4.80422 11.5145 4.7905C11.4802 4.85912 11.4253 5.01006 11.391 5.07868C11.3498 4.98262 11.3086 4.89344 11.2537 4.80423C11.1783 4.8111 11.0273 4.81793 10.9587 4.81793C10.9999 4.75617 11.0822 4.63952 11.1234 4.56404C11.0822 4.50229 10.993 4.37192 10.9587 4.31016C11.041 4.32388 11.1851 4.3376 11.2606 4.34446C11.2949 4.26898 11.3635 4.12489 11.3841 4.05627Z" fill="#FDE403"/>
<path d="M10.0735 5.92957C10.1009 5.86095 10.1627 5.71687 10.197 5.64825C10.2382 5.74432 10.2862 5.8404 10.348 5.92275C10.4166 5.91588 10.5607 5.90214 10.6293 5.90214C10.5881 5.9639 10.5058 6.0874 10.4646 6.14916C10.5058 6.21777 10.595 6.34815 10.6293 6.40991C10.5538 6.40305 10.4029 6.38247 10.3274 6.37561C10.2931 6.44423 10.2313 6.58145 10.197 6.66379C10.1558 6.56773 10.1215 6.47167 10.0735 6.37561C9.99801 6.38247 9.84019 6.40305 9.76471 6.40991C9.82647 6.32071 9.88823 6.23836 9.94312 6.14916C9.90195 6.0874 9.80588 5.95703 9.76471 5.89527C9.84019 5.90213 9.99801 5.92271 10.0735 5.92957Z" fill="#FDE403"/>
<path d="M9.18148 9.31932C9.51771 8.63314 9.8608 7.96069 10.197 7.28137C10.547 7.96069 10.8832 8.63314 11.2194 9.31932C11.4459 9.0174 11.6723 8.70865 11.8988 8.40673C12.4683 9.16839 13.031 9.9232 13.6074 10.6849C13.5936 11.2544 13.127 11.7759 12.5438 11.8033C12.1046 11.872 11.7615 11.4808 11.3224 11.5083C10.9244 11.5014 10.6019 11.8376 10.1902 11.8102C9.78532 11.817 9.46968 11.4877 9.06483 11.5083C8.63253 11.5014 8.28257 11.8857 7.84341 11.8033C7.26701 11.769 6.82786 11.2475 6.80042 10.6849C7.36995 9.93692 7.93948 9.17525 8.50901 8.40673C8.73545 8.71551 8.95504 9.0174 9.18148 9.31932Z" fill="white"/>
<path d="M8.28258 12.0847C8.57077 11.9818 8.84525 11.7965 9.16089 11.8445C9.52457 11.872 9.81963 12.1465 10.1902 12.1396C10.595 12.167 10.9107 11.8377 11.3224 11.8445C11.7341 11.8171 12.0566 12.1465 12.4477 12.1396C12.7222 12.1533 12.9624 12.0229 13.2025 11.9269C13.1065 12.0847 13.031 12.2494 12.9143 12.3797C12.5506 12.5513 12.1458 12.4689 11.8164 12.2837C11.4596 12.1053 11.041 12.167 10.7048 12.3592C10.348 12.5513 9.91569 12.4895 9.56574 12.2974C9.20892 12.1053 8.78348 12.167 8.44725 12.3592C8.14533 12.5239 7.78852 12.4964 7.46601 12.3935C7.39053 12.2357 7.30133 12.0847 7.20526 11.9337C7.53463 12.0847 7.9189 12.2219 8.28258 12.0847Z" fill="white"/>
<path d="M7.76105 12.7914C8.17276 12.8463 8.51585 12.5993 8.90012 12.5101C9.39417 12.3866 9.7853 12.8463 10.2862 12.7846C10.6293 12.7777 10.9038 12.5169 11.24 12.4963C11.7409 12.4414 12.1458 12.8669 12.6604 12.7914C12.0154 13.5736 11.1783 14.1912 10.2107 14.5206C9.24321 14.1912 8.39234 13.5736 7.76105 12.7914Z" fill="white"/>
</svg>
