<svg width="30" height="30" viewBox="0 0 30 30" fill="none" xmlns="http://www.w3.org/2000/svg">
<path d="M15.0001 30.0009C21.0523 30.0009 26.2673 26.4122 28.6346 21.2521H1.36566C3.733 26.419 8.94114 30.0009 15.0001 30.0009Z" fill="#CE1126"/>
<path d="M15.0001 0.000976562C8.948 0.000976562 3.733 3.58972 1.36566 8.74983H28.6346C26.2604 3.58972 21.0523 0.000976562 15.0001 0.000976562Z" fill="#F1F4FB"/>
<path d="M0.00012207 15.001C0.00012207 17.2311 0.487317 19.3445 1.36563 21.2521H28.6346C29.5061 19.3514 30.0001 17.2379 30.0001 15.001C30.0001 12.7708 29.5061 10.6505 28.6346 8.74982H1.36563C0.487317 10.6574 0.00012207 12.7708 0.00012207 15.001Z" fill="#0038A8"/>
<path d="M18.287 6.30017C13.9297 6.30017 9.56555 6.30017 5.20827 6.30017C5.01614 8.98315 4.71423 11.6867 5.02301 14.3766C5.222 16.1469 5.76409 17.9173 6.77964 19.4063C7.99419 21.2041 9.81943 22.5078 11.7476 23.4411C13.6758 22.4941 15.501 21.2041 16.7156 19.4063C17.7311 17.9173 18.2732 16.1469 18.4722 14.3766C18.781 11.6936 18.4722 8.98315 18.287 6.30017Z" fill="#F1F4FB"/>
<path d="M5.51728 6.71185C9.6687 6.71185 13.827 6.71185 17.9715 6.71185C18.1499 9.26446 18.445 11.8445 18.1499 14.404C17.9578 16.092 17.4432 17.78 16.4757 19.1936C16.606 18.4388 16.1051 17.6634 15.3778 17.4438C14.8082 17.2585 14.1426 17.4095 13.724 17.8487C13.4976 17.2585 13.0447 16.737 12.434 16.5312C12.4272 15.742 12.434 14.953 12.434 14.157C12.7565 14.1501 13.079 14.157 13.3947 14.157C14.1701 14.1638 14.9386 14.3079 15.7003 14.452C15.4738 13.8139 15.4738 13.1208 15.6934 12.4827C14.9592 12.6268 14.2112 12.764 13.4564 12.7777C13.1202 12.7915 12.784 12.7777 12.4477 12.7914C12.434 12.2562 12.434 11.721 12.4409 11.1927C13.3055 11.1858 14.1632 11.323 15.0072 11.4946C14.7876 10.8564 14.7876 10.1634 15.0141 9.52524C14.1632 9.68992 13.3055 9.84088 12.434 9.82029C12.4272 8.99001 12.5781 8.16657 12.7359 7.35687C12.0909 7.57645 11.3979 7.57645 10.7529 7.35687C10.9107 8.17343 11.0616 8.99001 11.0548 9.82029C10.1833 9.84774 9.3256 9.68992 8.47473 9.52524C8.70117 10.1634 8.69431 10.8633 8.48159 11.4946C9.33246 11.3368 10.1902 11.1721 11.0616 11.1995C11.0411 11.7348 11.0754 12.2631 11.0411 12.7983C10.7048 12.7846 10.3686 12.7983 10.0324 12.7846C9.27756 12.7709 8.52962 12.6337 7.79541 12.4896C8.01499 13.1277 8.01499 13.8276 7.78855 14.4589C8.86586 14.2393 9.95689 14.1089 11.0548 14.1775C11.0479 14.9667 11.0616 15.7489 11.0548 16.538C10.547 16.7096 10.1216 17.1007 9.89513 17.5742C9.85396 17.6702 9.81965 17.7663 9.76475 17.8555C9.33246 17.4026 8.63942 17.2516 8.05616 17.4712C7.36311 17.7114 6.88278 18.4731 7.01316 19.2073C6.04564 17.7938 5.531 16.1126 5.33886 14.4177C5.05067 11.8445 5.33887 9.26446 5.51728 6.71185Z" fill="#CE1126"/>
<path d="M10.7529 7.3363C11.3979 7.55588 12.091 7.55588 12.736 7.3363C12.5782 8.15286 12.4341 8.9694 12.4341 9.79968C13.3055 9.82713 14.1633 9.66931 15.0141 9.50463C14.7877 10.1428 14.7877 10.8427 15.0073 11.474C14.1633 11.3093 13.3055 11.1652 12.4409 11.1721C12.4272 11.7004 12.4272 12.2357 12.4478 12.7709C12.784 12.7572 13.1203 12.7709 13.4565 12.7571C14.2113 12.7434 14.9592 12.6062 15.6934 12.4621C15.4739 13.1002 15.4739 13.8001 15.7003 14.4314C14.9387 14.2873 14.177 14.1501 13.3947 14.1364C13.0722 14.1364 12.7497 14.1295 12.4341 14.1364C12.4341 14.9255 12.4272 15.7146 12.4341 16.5106C11.9949 16.3459 11.494 16.3459 11.048 16.5106C11.0548 15.7215 11.0411 14.9324 11.048 14.1501C9.95009 14.0884 8.85905 14.2119 7.78174 14.4314C8.00818 13.7933 8.00819 13.1002 7.78861 12.4621C8.52282 12.6062 9.27076 12.7434 10.0256 12.7571C10.3618 12.7709 10.698 12.7572 11.0343 12.7709C11.0617 12.2425 11.0343 11.7073 11.0548 11.1721C10.1834 11.1446 9.32566 11.3093 8.47479 11.4671C8.68751 10.829 8.69436 10.1359 8.46792 9.49776C9.31879 9.66245 10.1765 9.8134 11.048 9.79282C11.0617 8.96939 10.9176 8.15286 10.7529 7.3363Z" fill="#F1F4FB"/>
<path d="M11.0548 16.5312C11.494 16.3665 12.0018 16.3665 12.4409 16.5312C13.0516 16.737 13.5045 17.2586 13.731 17.8487C14.1495 17.4095 14.8151 17.2585 15.3847 17.4438C16.112 17.6634 16.6129 18.4456 16.4826 19.1936C15.3229 20.909 13.58 22.1373 11.7479 23.0362C9.9089 22.1442 8.17286 20.909 7.01321 19.1936C6.88283 18.4662 7.36316 17.6977 8.05621 17.4575C8.63947 17.2448 9.33251 17.3889 9.7648 17.8418C9.8197 17.7526 9.85401 17.6565 9.89518 17.5604C10.1216 17.087 10.5471 16.7027 11.0548 16.5312Z" fill="#0038A8"/>
</svg>
