<svg width="30" height="30" viewBox="0 0 30 30" fill="none" xmlns="http://www.w3.org/2000/svg">
<path d="M14.9999 30.001C21.0521 30.001 26.2671 26.4122 28.6344 21.2521H1.36545C3.73279 26.4191 8.94093 30.001 14.9999 30.001Z" fill="#0072C6"/>
<path d="M15.0001 0.000976562C8.94798 0.000976562 3.73297 3.58973 1.35876 8.74984H28.6278C26.2604 3.58973 21.0523 0.000976562 15.0001 0.000976562Z" fill="#1EB53A"/>
<path d="M3.05176e-05 15.0079C3.05176e-05 17.238 0.487215 19.3514 1.36553 21.259H28.6345C29.506 19.3583 30 17.238 30 15.0079C30 12.7777 29.506 10.6574 28.6345 8.75671H1.36553C0.487215 10.6574 3.05176e-05 12.7709 3.05176e-05 15.0079Z" fill="#F1F4FB"/>
</svg>
