<svg width="30" height="30" viewBox="0 0 30 30" fill="none" xmlns="http://www.w3.org/2000/svg">
<path d="M4.57764e-05 15.001C4.57764e-05 21.0532 3.58879 26.2682 8.74891 28.6355V1.36652C3.58879 3.73386 4.57764e-05 8.94886 4.57764e-05 15.001Z" fill="#00853F"/>
<path d="M29.9999 15.001C29.9999 8.94886 26.4112 3.73386 21.2511 1.36652V28.6355C26.4112 26.2682 29.9999 21.0532 29.9999 15.001Z" fill="#E31B23"/>
<path d="M15.0001 0.000976562C12.77 0.000976562 10.6497 0.495023 8.74895 1.36648V28.6355C10.6497 29.5069 12.77 30.001 15.0001 30.001C17.2302 30.001 19.3436 29.5138 21.2512 28.6355V1.36648C19.3505 0.495023 17.2302 0.000976562 15.0001 0.000976562Z" fill="#FDEF42"/>
<path d="M15 10.8152L16.043 14.0129H19.3984L16.6811 15.9891L17.7173 19.1867L15 17.2105L12.2827 19.1867L13.3188 15.9891L10.6015 14.0129H13.9638L15 10.8152Z" fill="#00853F"/>
</svg>
