<svg width="30" height="30" viewBox="0 0 30 30" fill="none" xmlns="http://www.w3.org/2000/svg">
<path d="M30 15.001C30 23.2832 23.2822 30.001 15 30.001C6.71774 30.001 0 23.2832 0 15.001C0 6.71872 6.71774 0.000976562 15 0.000976562C23.2822 0.000976562 30 6.71872 30 15.001Z" fill="#006A4E"/>
<path d="M30 15.001C30 23.2832 23.2822 30.001 15 30.001C6.71774 30.001 0 23.2832 0 15.001C0 6.71872 6.71774 0.000976562 15 0.000976562C23.2822 0.000976562 30 6.71872 30 15.001Z" fill="#4189DD"/>
<path d="M15.0001 9.86139L16.2764 13.7863H20.4003L17.0655 16.2155L18.3418 20.1404L15.0001 17.7113L11.6652 20.1404L12.9347 16.2155L9.59979 13.7863H13.7238L15.0001 9.86139Z" fill="white"/>
</svg>
