<svg width="30" height="30" viewBox="0 0 30 30" fill="none" xmlns="http://www.w3.org/2000/svg">
<path d="M3.01952 5.99968H26.9811C24.2432 2.36206 19.9065 0.00105248 15.0003 0.00105248C10.0941 -0.00581094 5.7574 2.36206 3.01952 5.99968Z" fill="#007229"/>
<path d="M3.01936 24.0017H26.9809C27.6808 23.0753 28.2778 22.0735 28.7444 21.0031H1.25586C1.72247 22.0735 2.32631 23.0753 3.01936 24.0017Z" fill="#F1F4FB"/>
<path d="M1.25586 8.99826H28.7444C28.2778 7.92781 27.674 6.92598 26.9809 5.99963H3.01936C2.32631 6.92598 1.72247 7.92781 1.25586 8.99826Z" fill="#F1F4FB"/>
<path d="M26.9811 24.0024H3.01953C5.75741 27.64 10.0941 30.001 15.0003 30.001C19.9066 30.001 24.2432 27.64 26.9811 24.0024Z" fill="#007229"/>
<path d="M0 15.0045C0 17.139 0.452852 19.1637 1.25569 21.0031H28.7443C29.5471 19.1637 30 17.139 30 15.0045C30 12.8699 29.5471 10.8384 28.7443 8.99896H1.25569C0.452852 10.8384 0 12.8631 0 15.0045Z" fill="#D21034"/>
<path d="M15.0002 9.53424L16.352 13.7072H20.7436L17.196 16.2879L18.5478 20.4608L15.0002 17.8871L11.4526 20.4608L12.8044 16.2879L9.25684 13.7072H13.6415L15.0002 9.53424Z" fill="#FFCE00"/>
</svg>
