<svg width="30" height="30" viewBox="0 0 30 30" fill="none" xmlns="http://www.w3.org/2000/svg">
<path d="M2.02402 22.4992C4.61721 26.9811 9.45369 30.001 14.9968 30.001C20.9721 30.001 26.1173 26.4938 28.5321 21.4354H2.83353L2.02402 22.4992Z" fill="#12AD2B"/>
<path d="M7.69737 14.9975L2.83345 21.4354H28.532C29.4582 19.4862 30.0001 17.3036 30.0001 14.9975C30.0001 12.6914 29.465 10.5157 28.532 8.55963H2.83345L7.69737 14.9975Z" fill="#FFCE00"/>
<path d="M28.5321 8.56651C26.1242 3.50817 20.979 0.000976562 14.9968 0.000976562C9.44683 0.000976562 4.61721 3.02087 2.02402 7.50268L2.82666 8.56651H28.5321Z" fill="#12AD2B"/>
<path d="M1.46826 21.4354C1.63977 21.799 1.82499 22.1557 2.02394 22.4988L2.82658 21.4354H1.46826Z" fill="#D21034"/>
<path d="M7.6974 14.9975L2.83348 8.55963H1.46829C0.535295 10.5157 0.000183105 12.6914 0.000183105 14.9975C0.000183105 17.3036 0.535295 19.4793 1.46829 21.4354H2.83348L7.6974 14.9975Z" fill="#D21034"/>
<path d="M2.83351 8.56602L2.03083 7.50269C1.83188 7.8457 1.64665 8.20243 1.47515 8.56602H2.83351Z" fill="#D21034"/>
<path d="M21.9807 17.8047L23.8055 16.48L25.6235 17.8047L24.9238 15.6633L26.7486 14.3386H24.4984L23.8055 12.1973L23.1058 14.3386H20.8556L22.6804 15.6633L21.9807 17.8047Z" fill="black"/>
<path d="M11.8754 17.8047L13.6933 16.48L15.5182 17.8047L14.8184 15.6633L16.6433 14.3386H14.3931L13.6933 12.1973L13.0005 14.3386H10.7503L12.5751 15.6633L11.8754 17.8047Z" fill="black"/>
</svg>
