<svg width="30" height="30" viewBox="0 0 30 30" fill="none" xmlns="http://www.w3.org/2000/svg">
<g clip-path="url(#clip0_1_16878)">
<path d="M-7.5 0.0010376H37.5V30.001H-7.5V0.0010376Z" fill="#012A87"/>
<path d="M-7.5 0.0010376H37.5V15.001H-7.5V0.0010376Z" fill="#DC171D"/>
<path d="M0 0.0010376V30.001L20 15.001L0 0.0010376Z" fill="#F1F4FB"/>
<path d="M10.1038 11.3243L10.1099 11.0921C10.1099 11.0921 9.9852 10.8934 10.1299 10.68C10.1299 10.68 9.82246 10.5173 9.89401 10.2626C9.89401 10.2626 9.61598 10.1915 9.63642 9.88568C9.63642 9.88568 9.3363 9.86487 9.30523 9.60937C9.30523 9.60937 9.00511 9.65879 8.87304 9.40983C8.87304 9.40983 8.58028 9.46706 8.49768 9.26184C8.49768 9.26184 8.2131 9.3604 8.04423 9.11917C8.04423 9.11917 7.74371 9.24058 7.61777 9.01288C7.49347 9.23981 7.19294 9.11917 7.19294 9.11917C7.02612 9.35955 6.73949 9.2598 6.73949 9.2598C6.65976 9.46584 6.36782 9.40738 6.36782 9.40738C6.23616 9.65638 5.93645 9.60687 5.93645 9.60687C5.90701 9.8616 5.6073 9.88241 5.6073 9.88241C5.63101 10.189 5.35339 10.2586 5.35339 10.2586C5.42658 10.5132 5.11951 10.6755 5.11951 10.6755C5.26793 10.8902 5.14445 11.0872 5.14445 11.0872L5.1375 11.3014L10.1046 11.3243H10.1038Z" fill="#F9D90F" stroke="black" stroke-width="0.0266666"/>
<path d="M7.62665 9.92442C7.75974 10.0588 7.63531 10.1322 7.51255 10.0633C7.20907 9.83359 6.8544 9.70626 6.36658 9.84509C5.66569 9.84765 4.92111 9.80546 4.58066 10.1773C4.55642 10.249 4.36634 10.5193 5.10156 10.1228C5.05572 10.397 5.39773 10.1728 5.66214 10.0484C5.47996 10.2388 5.94103 10.27 6.23264 10.0831C6.0893 10.2754 6.34107 10.2702 6.5799 10.2715C6.92922 10.2824 6.73625 10.5862 6.13838 10.5987C6.09479 10.5957 5.92716 10.6743 6.15326 10.7326C6.25798 10.7378 6.1728 10.8838 6.53525 10.6979C6.51274 10.8067 6.66805 10.7856 6.88748 10.7177C7.01192 10.8155 7.11292 10.7142 7.21986 10.6632C7.67781 10.8422 8.28252 11.0214 8.4452 10.4004C8.8274 10.3564 9.14374 10.3003 8.97248 10.1549C9.47038 10.3578 9.49921 10.2795 9.49165 10.1794C9.73043 10.2696 10.0081 10.3918 9.89505 10.1934C10.1246 10.2521 10.376 10.2725 10.5721 10.3898C10.7707 10.4926 10.7064 10.3129 10.6598 10.232C10.558 10.0692 10.4294 10.0212 10.1393 10.0153C9.89336 10.0102 8.74069 9.68888 8.14112 10.0357C8.14112 10.0357 8.15515 10.0357 8.14462 10.0357C8.1341 10.0357 7.89556 9.81127 7.89556 9.81127C7.95044 9.8098 7.99006 9.78218 8.02185 9.74115C8.25571 9.75292 8.48956 9.73053 8.72342 9.66752C8.82997 9.63427 8.89072 9.69769 8.88829 9.74465C8.98576 9.57322 8.85082 9.53772 8.75149 9.54481C8.35588 9.56722 8.11841 9.54654 7.92713 9.51326C7.54795 9.32409 7.09155 9.6143 7.5132 9.85334L7.62665 9.92442Z" fill="#BC715F" stroke="black" stroke-width="0.0266667"/>
<path d="M7.71539 9.58859C7.63604 9.60041 7.55414 9.60992 7.52246 9.66484C7.52479 9.57445 7.6594 9.56821 7.71539 9.58859Z" fill="black"/>
<path d="M7.67324 9.65703C7.69213 9.65703 7.70744 9.64134 7.70744 9.62197C7.70744 9.60261 7.69213 9.58691 7.67324 9.58691C7.65435 9.58691 7.63904 9.60261 7.63904 9.62197C7.63904 9.64134 7.65435 9.65703 7.67324 9.65703Z" fill="black"/>
<path d="M3.37244 10.7192C3.52904 11.6079 3.70286 12.5188 3.78832 13.4493C3.97436 14.8273 3.13612 15.9843 3.47999 17.3456C3.68525 17.9988 4.40363 18.3786 5.06111 18.4538C5.93332 18.6187 6.98773 18.4543 7.62439 19.1067C8.26105 18.4542 9.31546 18.6187 10.1877 18.4538C10.8452 18.3786 11.5635 17.9988 11.7688 17.3456C12.1127 15.9843 11.2744 14.8273 11.4605 13.4493C11.5459 12.5188 11.7197 11.6079 11.8763 10.7192C10.341 11.5527 8.82403 10.4684 7.62439 11.1616C6.42475 10.4684 4.90774 11.5527 3.37244 10.7192Z" fill="#DC171D" stroke="black" stroke-width="0.0266666"/>
<path d="M3.94434 11.4371C4.0796 12.1704 4.22973 12.9219 4.30354 13.6896C4.46422 14.8266 3.74023 15.7812 4.03723 16.9044C4.21451 17.4433 4.83498 17.7566 5.40286 17.8187C6.15619 17.9547 7.06689 17.819 7.61678 18.3574C8.16667 17.8191 9.07737 17.9547 9.8307 17.8187C10.3986 17.7566 11.019 17.4433 11.1963 16.9044C11.4933 15.7812 10.7693 14.8266 10.93 13.6896C11.0038 12.9219 11.154 12.1704 11.2892 11.4371C9.96317 12.1248 8.65292 11.2301 7.61678 11.8021C6.58064 11.2301 5.27039 12.1248 3.94434 11.4371Z" fill="#62AFE1" stroke="black" stroke-width="0.0267087"/>
<path d="M6.89743 13.4932L5.34583 14.5566V15.8369H9.88851V14.5566L8.3369 13.4932H6.89743Z" fill="#F1F4FB" stroke="black" stroke-width="0.06" stroke-linecap="round"/>
<path d="M4.97717 15.6249V15.8696H5.12659V17.127H10.1075V15.8696H10.2569V15.6249H4.97717Z" fill="#F1F4FB" stroke="black" stroke-width="0.06" stroke-linecap="round"/>
<path d="M7.61699 12.1066L6.89734 12.8071V13.4932H8.33681V12.8071L7.61699 12.1066Z" fill="#F1F4FB" stroke="black" stroke-width="0.06" stroke-linecap="round"/>
<path d="M5.57007 14.7303H6.02522V15.4511H5.57007V14.7303Z" fill="#F1F4FB" stroke="black" stroke-width="0.06" stroke-linecap="round"/>
<path d="M6.86194 14.7303H7.31709V15.4511H6.86194V14.7303Z" fill="#F1F4FB" stroke="black" stroke-width="0.06" stroke-linecap="round"/>
<path d="M9.66389 14.7303H9.20874V15.4511H9.66389V14.7303Z" fill="#F1F4FB" stroke="black" stroke-width="0.06" stroke-linecap="round"/>
<path d="M8.37239 14.7303H7.91724V15.4511H8.37239V14.7303Z" fill="#F1F4FB" stroke="black" stroke-width="0.06" stroke-linecap="round"/>
<path d="M5.57007 15.9838H6.02522V16.7046H5.57007V15.9838Z" fill="#F1F4FB" stroke="black" stroke-width="0.06" stroke-linecap="round"/>
<path d="M9.66389 15.9838H9.20874V16.7046H9.66389V15.9838Z" fill="#F1F4FB" stroke="black" stroke-width="0.06" stroke-linecap="round"/>
<path d="M7.97402 15.943H7.2605V17.127H7.97402V15.943Z" fill="#F1F4FB" stroke="black" stroke-width="0.06" stroke-linecap="round"/>
<path d="M6.84562 15.6249H6.52563V17.127H6.84562V15.6249Z" fill="#F1F4FB" stroke="black" stroke-width="0.06" stroke-linecap="round"/>
<path d="M8.38904 15.6249H8.70917V17.127H8.38904V15.6249Z" fill="#F1F4FB" stroke="black" stroke-width="0.06" stroke-linecap="round"/>
<path d="M8.82768 15.6764V15.3054H6.40662V15.6764H8.82768Z" fill="#F1F4FB" stroke="black" stroke-width="0.06" stroke-linecap="round"/>
<path d="M6.89746 12.8069H8.33693H6.89746Z" fill="#F1F4FB"/>
<path d="M6.89746 12.8069H8.33693" stroke="black" stroke-width="0.06"/>
<path d="M5.34595 14.5565H9.88864H5.34595Z" fill="#F1F4FB"/>
<path d="M5.34595 14.5565H9.88864" stroke="black" stroke-width="0.06"/>
<path d="M4.86316 16.9701H10.3711V17.3593H4.86316V16.9701Z" fill="#F1F4FB" stroke="black" stroke-width="0.06" stroke-linecap="round"/>
<path d="M7.89194 12.9556H7.34265V13.3447H7.89194V12.9556Z" fill="#F1F4FB" stroke="black" stroke-width="0.06" stroke-linecap="round"/>
<path d="M6.57947 15.3052V15.6762" stroke="black" stroke-width="0.0666666"/>
<path d="M8.65466 15.3052V15.6762" stroke="black" stroke-width="0.0666666"/>
<path d="M8.48193 15.3052V15.6762" stroke="black" stroke-width="0.0666666"/>
<path d="M8.30945 15.3052V15.6762" stroke="black" stroke-width="0.0666666"/>
<path d="M8.13562 15.3052V15.6762" stroke="black" stroke-width="0.0666666"/>
<path d="M7.96313 15.3052V15.6762" stroke="black" stroke-width="0.0666666"/>
<path d="M7.79041 15.3052V15.6762" stroke="black" stroke-width="0.0666666"/>
<path d="M7.61707 15.3052V15.6762" stroke="black" stroke-width="0.0666666"/>
<path d="M7.44434 15.3052V15.6762" stroke="black" stroke-width="0.0666666"/>
<path d="M7.27136 15.3052V15.6762" stroke="black" stroke-width="0.0666666"/>
<path d="M7.09851 15.3052V15.6762" stroke="black" stroke-width="0.0666666"/>
<path d="M6.92554 15.3052V15.6762" stroke="black" stroke-width="0.0666666"/>
<path d="M6.75281 15.3052V15.6762" stroke="black" stroke-width="0.0666666"/>
<path d="M8.828 15.3305V15.6762" stroke="black" stroke-width="0.06"/>
<path d="M5.28317 12.0347C5.62508 12.2529 5.78677 12.4546 5.78757 12.6417C5.36205 12.6191 4.97728 12.4188 5.28317 12.0347Z" fill="#008830" stroke="black" stroke-width="0.03"/>
<path d="M5.55795 12.2332C5.88721 12.4205 6.07274 12.6245 6.12996 12.8433C5.79547 12.9015 5.43861 12.7436 5.55795 12.2332Z" fill="#008830" stroke="black" stroke-width="0.03"/>
<path d="M5.13244 12.5551C5.17677 12.9313 5.1225 13.2016 4.98019 13.3773C4.73501 13.1425 4.65059 12.7616 5.13244 12.5551Z" fill="#008830" stroke="black" stroke-width="0.03"/>
<path d="M5.13298 12.5562C5.44229 12.7749 5.60691 12.9961 5.64238 13.2194C5.3038 13.2445 4.96415 13.0524 5.13298 12.5562Z" fill="#008830" stroke="black" stroke-width="0.03"/>
<path d="M5.33817 12.2552L5.48069 12.3442L5.63364 12.3291L5.69781 12.4348C5.69781 12.4348 5.6806 12.6519 5.68049 12.6717C5.68037 12.6916 5.72775 12.813 5.72775 12.813L5.62364 12.8887L5.34481 13.0029L5.08401 12.7911L4.91962 12.8081L4.84753 12.6039L4.92855 12.4298L5.13207 12.2977L5.33817 12.2552Z" fill="#008830" stroke="black" stroke-width="0.03"/>
<path d="M5.07059 12.3633C4.93659 12.7176 4.76385 12.9324 4.55654 13.0229C4.44716 12.7016 4.54777 12.3246 5.07059 12.3633Z" fill="#008830" stroke="black" stroke-width="0.03"/>
<path d="M5.06994 12.3892C4.69824 12.316 4.45756 12.1815 4.33386 11.9922C4.63259 11.8308 5.02111 11.8673 5.06994 12.3892Z" fill="#008830" stroke="black" stroke-width="0.03"/>
<path d="M5.78101 12.4017C6.15836 12.4352 6.42703 12.3732 6.59868 12.2259C6.35686 11.9876 5.9736 11.9142 5.78101 12.4017Z" fill="#008830" stroke="black" stroke-width="0.03"/>
<path d="M5.78223 12.4021C6.00979 12.7049 6.23564 12.8631 6.45996 12.8921C6.47531 12.553 6.27348 12.2191 5.78223 12.4021Z" fill="#008830" stroke="black" stroke-width="0.03"/>
<path d="M5.6633 12.5873C5.94691 12.8384 6.08643 13.0762 6.09734 13.3021C5.75804 13.2901 5.44136 13.0621 5.6633 12.5873Z" fill="#008830" stroke="black" stroke-width="0.03"/>
<path d="M5.54674 13.0035C5.74082 13.3288 5.80164 13.5977 5.74351 13.8162C5.42382 13.7019 5.19121 13.3887 5.54674 13.0035Z" fill="#008830" stroke="black" stroke-width="0.03"/>
<path d="M5.40984 12.9823C5.45282 13.3586 5.39757 13.6287 5.25463 13.804C5.0103 13.5683 4.92725 13.1871 5.40984 12.9823Z" fill="#008830" stroke="black" stroke-width="0.03"/>
<path d="M5.16454 12.5602C5.13727 12.5409 5.11674 12.5072 5.11194 12.474C5.10785 12.4456 5.11016 12.4274 5.12294 12.3874C5.12942 12.3672 5.13456 12.3501 5.13436 12.3496C5.13418 12.349 5.12911 12.3475 5.12311 12.3463C5.11267 12.3441 5.1114 12.3448 5.09263 12.3621C5.02844 12.4214 4.96987 12.4498 4.92978 12.4411C4.8833 12.4311 4.86551 12.3666 4.89136 12.302C4.91332 12.2471 4.95452 12.2135 5.00715 12.2075C5.02663 12.2053 5.03484 12.2061 5.05755 12.2123C5.07247 12.2164 5.08413 12.2185 5.08346 12.2171C5.08279 12.2156 5.07145 12.2075 5.05825 12.1992C4.99336 12.158 4.95498 12.1104 4.95241 12.0679C4.95054 12.037 4.97076 12.0073 5.00539 11.9902C5.06359 11.9615 5.13644 11.982 5.17032 12.0366C5.18658 12.0628 5.1908 12.0837 5.19075 12.1377C5.19072 12.169 5.19202 12.187 5.19438 12.188C5.19641 12.1888 5.20175 12.1937 5.20626 12.1988L5.21446 12.2081L5.24661 12.1817C5.27936 12.1549 5.30307 12.1385 5.32966 12.1243C5.36646 12.1047 5.40981 12.0992 5.43153 12.1113C5.4791 12.1378 5.47891 12.2243 5.43114 12.2835C5.39238 12.3316 5.33348 12.3485 5.27968 12.3271C5.26761 12.3223 5.25053 12.3164 5.24172 12.314L5.2257 12.3097L5.25049 12.3412C5.28391 12.3837 5.3027 12.4141 5.31564 12.4467C5.34007 12.5083 5.32764 12.5557 5.28176 12.5761C5.24644 12.5917 5.20016 12.5855 5.16454 12.5602Z" fill="#F9D90F" stroke="black" stroke-width="0.03"/>
<path d="M5.22752 12.2929C5.2193 12.3135 5.20414 12.3304 5.18536 12.3398C5.16658 12.3492 5.14573 12.3504 5.12738 12.3431C5.10904 12.3358 5.09471 12.3206 5.08755 12.3008C5.08039 12.2811 5.08099 12.2584 5.0892 12.2378C5.09742 12.2172 5.11258 12.2003 5.13136 12.1909C5.15014 12.1815 5.17099 12.1803 5.18934 12.1876C5.20768 12.195 5.22201 12.2102 5.22917 12.2299C5.23633 12.2496 5.23573 12.2723 5.22752 12.2929Z" fill="#F9D90F" stroke="black" stroke-width="0.03"/>
<path d="M5.50513 12.1606C5.50539 12.1897 5.5103 12.2081 5.52844 12.2477C5.53764 12.2678 5.54508 12.2847 5.54498 12.2853C5.54487 12.2859 5.54024 12.2878 5.53468 12.2895C5.52499 12.2925 5.52367 12.2919 5.50312 12.2758C5.43286 12.2206 5.37253 12.1964 5.33539 12.2084C5.29233 12.2223 5.28479 12.2892 5.31911 12.3528C5.34825 12.4069 5.3927 12.4378 5.44402 12.4397C5.46301 12.4404 5.47077 12.439 5.49162 12.4308C5.50532 12.4255 5.51618 12.4224 5.51575 12.424C5.51532 12.4255 5.50564 12.4346 5.49423 12.4442C5.43811 12.4911 5.40836 12.5425 5.41216 12.5859C5.41493 12.6175 5.43869 12.646 5.4744 12.6607C5.53443 12.6853 5.60122 12.6587 5.62563 12.6005C5.63734 12.5725 5.6383 12.551 5.63029 12.4961C5.62564 12.4643 5.62423 12.446 5.62635 12.4448C5.62817 12.4438 5.63257 12.4384 5.63614 12.4328L5.64263 12.4228L5.67733 12.447C5.71267 12.4717 5.73782 12.4865 5.7654 12.4987C5.80355 12.5157 5.84592 12.518 5.86495 12.5039C5.90663 12.4732 5.89368 12.3853 5.83915 12.3289C5.79492 12.2832 5.73597 12.2706 5.68757 12.2966C5.67671 12.3025 5.66121 12.3098 5.65311 12.3129L5.6384 12.3186L5.6575 12.2846C5.68327 12.2388 5.69678 12.2064 5.70437 12.1722C5.71871 12.1077 5.69979 12.0605 5.65282 12.0434C5.61665 12.0303 5.57321 12.0403 5.54637 12.0655C5.51953 12.0906 5.50482 12.1265 5.50513 12.1606Z" fill="#F9D90F" stroke="black" stroke-width="0.0299843"/>
<path d="M5.50946 12.3318C5.51926 12.3113 5.5359 12.2947 5.55574 12.2857C5.57558 12.2768 5.59699 12.2761 5.61525 12.2839C5.63351 12.2918 5.64713 12.3075 5.65312 12.3275C5.6591 12.3476 5.65696 12.3704 5.64717 12.3909C5.63737 12.4114 5.62073 12.428 5.60089 12.437C5.58105 12.446 5.55965 12.4466 5.54138 12.4388C5.52312 12.431 5.5095 12.4153 5.50351 12.3952C5.49753 12.3752 5.49967 12.3524 5.50946 12.3318Z" fill="#F9D90F" stroke="black" stroke-width="0.03"/>
<path d="M5.08692 12.9844C5.07931 12.9508 5.07998 12.9284 5.0901 12.878C5.09523 12.8524 5.0992 12.8309 5.09892 12.8303C5.09864 12.8296 5.0928 12.8287 5.08593 12.8282C5.07398 12.8274 5.07261 12.8284 5.05336 12.8525C4.98754 12.935 4.92475 12.9792 4.87879 12.9755C4.8255 12.9712 4.79869 12.8963 4.82089 12.8139C4.83973 12.7438 4.88246 12.6962 4.94095 12.6801C4.9626 12.6742 4.97191 12.6737 4.99808 12.6774C5.01528 12.6798 5.0286 12.6804 5.02769 12.6788C5.02678 12.6771 5.01319 12.6693 4.99748 12.6614C4.92021 12.6227 4.87206 12.5716 4.86465 12.5207C4.85928 12.4837 4.87886 12.4444 4.91595 12.4179C4.97828 12.3733 5.06229 12.3858 5.10614 12.4461C5.12719 12.475 5.13414 12.4995 5.13981 12.5647C5.14309 12.6026 5.14645 12.624 5.14922 12.6248C5.15158 12.6255 5.1581 12.6305 5.16371 12.6359L5.1739 12.6458L5.20723 12.6085C5.24117 12.5705 5.26607 12.5467 5.29445 12.5251C5.33371 12.4952 5.38183 12.4812 5.40751 12.4922C5.46377 12.5162 5.47271 12.6207 5.42532 12.7003C5.38687 12.7649 5.3225 12.7953 5.25979 12.7785C5.24572 12.7748 5.22591 12.7705 5.21576 12.7692L5.1973 12.7667L5.22849 12.8005C5.27055 12.8462 5.29487 12.8798 5.31287 12.917C5.34684 12.9872 5.3379 13.0467 5.28852 13.079C5.25049 13.1039 5.19783 13.1042 5.16014 13.0825C5.12246 13.0609 5.09583 13.0237 5.08692 12.9844Z" fill="#F9D90F" stroke="black" stroke-width="0.03"/>
<path d="M5.19832 12.7462C5.19128 12.7725 5.17603 12.7954 5.15593 12.8099C5.13583 12.8245 5.11253 12.8294 5.09115 12.8237C5.06977 12.818 5.05206 12.802 5.04192 12.7794C5.03179 12.7567 5.03005 12.7293 5.0371 12.703C5.04414 12.6767 5.05939 12.6537 5.07949 12.6392C5.09959 12.6246 5.12289 12.6197 5.14427 12.6254C5.16565 12.6312 5.18336 12.6471 5.1935 12.6697C5.20363 12.6924 5.20537 12.7199 5.19832 12.7462Z" fill="#F9D90F" stroke="black" stroke-width="0.03"/>
<path d="M5.56374 12.6299C5.55715 12.6629 5.55837 12.6848 5.56951 12.7338C5.57515 12.7586 5.57956 12.7795 5.5793 12.7801C5.57904 12.7808 5.57336 12.7819 5.56667 12.7825C5.55502 12.7836 5.55366 12.7826 5.53426 12.7596C5.46793 12.6806 5.40551 12.639 5.36072 12.6438C5.30879 12.6493 5.28447 12.7231 5.30821 12.8031C5.32835 12.871 5.37126 12.9164 5.42878 12.9307C5.45007 12.936 5.45917 12.9362 5.48464 12.9319C5.50137 12.9292 5.51437 12.9282 5.51352 12.9299C5.51267 12.9315 5.49959 12.9395 5.48445 12.9476C5.40996 12.9874 5.3642 13.0384 5.35825 13.0883C5.35392 13.1246 5.37402 13.1624 5.41089 13.1874C5.47287 13.2294 5.55461 13.2152 5.59593 13.1552C5.61576 13.1264 5.62194 13.1023 5.62585 13.0385C5.62811 13.0014 5.63086 12.9804 5.63354 12.9795C5.63583 12.9788 5.64207 12.9738 5.64741 12.9683L5.65712 12.9585L5.69059 12.9941C5.72469 13.0303 5.7496 13.0529 5.77785 13.0733C5.81693 13.1015 5.86427 13.114 5.88907 13.1027C5.94341 13.0779 5.94955 12.9756 5.90129 12.899C5.86213 12.8368 5.79851 12.8087 5.73769 12.8267C5.72405 12.8307 5.7048 12.8353 5.69492 12.8369L5.67696 12.8398L5.70657 12.806C5.74651 12.7603 5.76943 12.7269 5.78608 12.6901C5.8175 12.6207 5.80729 12.5629 5.75826 12.5325C5.7205 12.5091 5.66907 12.5102 5.63281 12.5322C5.59655 12.5543 5.57146 12.5913 5.56374 12.6299Z" fill="#F9D90F" stroke="black" stroke-width="0.03"/>
<path d="M5.59812 12.7842C5.57153 12.7848 5.54628 12.795 5.52791 12.8124C5.50955 12.8298 5.49957 12.853 5.50018 12.8769C5.50079 12.9008 5.51193 12.9235 5.53116 12.9399C5.55039 12.9564 5.57612 12.9652 5.60271 12.9645C5.62929 12.9639 5.65454 12.9537 5.67291 12.9363C5.69128 12.9189 5.70126 12.8957 5.70065 12.8718C5.70004 12.8479 5.68889 12.8252 5.66967 12.8088C5.65044 12.7923 5.6247 12.7835 5.59812 12.7842Z" fill="#F9D90F" stroke="black" stroke-width="0.03"/>
<path d="M10.6376 13.5707H10.447V13.4352H10.2846V13.2804H10.0986L10.0985 12.2979L9.88674 11.9274L9.67497 12.2979V13.2804H9.48903V13.4352H9.32663V13.5707H9.13599V13.7707L10.6376 13.775V13.5707Z" fill="#F1F4FB" stroke="black" stroke-width="0.0533334"/>
<path d="M7.6336 19.7383C8.39657 19.7407 9.33495 19.585 9.7745 19.3577L10.7399 19.2722L10.7591 20.45C9.94132 20.9009 8.05311 20.9978 7.63769 20.9945C7.22186 20.9978 5.31034 20.8993 4.48889 20.4468L4.49952 19.2681L5.46694 19.3552C5.90648 19.5813 6.87349 19.7383 7.63564 19.7383H7.6336Z" fill="#F9D90F"/>
<path d="M4.48889 20.4468L5.48443 20.2191L4.49222 20.0771L4.48889 20.4468Z" fill="#F9B60F"/>
<path d="M2.00427 14.7144L2.85474 14.985L2.59756 16.3619L1.79247 16.487C1.79247 16.487 1.65672 15.763 2.00427 14.7136" fill="#F9D90F"/>
<path d="M1.79236 16.487L2.31532 15.7654L2.59745 16.3619L1.79236 16.487Z" fill="#F9B60F"/>
<path d="M2.00378 14.7144L2.85425 14.985L2.59707 16.3619L1.79198 16.487C1.79198 16.487 1.65623 15.763 2.00378 14.7136V14.7144Z" stroke="black" stroke-width="0.0267087"/>
<path d="M4.48865 20.4468L5.49052 20.2191" stroke="black" stroke-width="0.0267087"/>
<path d="M2.3158 15.761L2.59713 16.3619" stroke="black" stroke-width="0.0267087"/>
<path d="M10.7591 20.45L9.76355 20.2223L10.7558 20.0803L10.7591 20.45Z" fill="#F9B60F"/>
<path d="M13.2446 14.7177L12.3942 14.9883L12.6514 16.3652L13.4564 16.4903C13.4564 16.4903 13.5922 15.7663 13.2446 14.7169" fill="#F9D90F"/>
<path d="M13.4562 16.4903L12.9332 15.7687L12.6511 16.3652L13.4562 16.4903Z" fill="#F9B60F"/>
<path d="M13.2445 14.7176L12.394 14.9882L12.6512 16.3651L13.4563 16.4902C13.4563 16.4902 13.5921 15.7662 13.2445 14.7168V14.7176Z" stroke="black" stroke-width="0.0267087"/>
<path d="M10.7592 20.4499L9.75732 20.2222" stroke="black" stroke-width="0.0267087"/>
<path d="M12.9323 15.7643L12.651 16.3652" stroke="black" stroke-width="0.0267087"/>
<path d="M7.63348 19.7382C8.39645 19.7406 9.33483 19.5849 9.77438 19.3576L10.7397 19.2722L10.759 20.45C9.9412 20.9008 8.05299 20.9977 7.63757 20.9945C7.22173 20.9977 5.31021 20.8992 4.48877 20.4467L4.4994 19.2681L5.46681 19.3551C5.90636 19.5813 6.87337 19.7382 7.63552 19.7382H7.63348Z" stroke="black" stroke-width="0.0267087"/>
<path d="M13.7533 15.7095L12.9335 15.7688C12.9151 16.4634 12.8308 19.1141 9.66528 19.258L9.76382 20.2224C13.6171 20.2624 13.9099 16.9711 13.7533 15.7095Z" fill="#F9D90F"/>
<path d="M13.7533 15.7095L12.9335 15.7688C12.9151 16.4634 12.8308 19.1141 9.66528 19.258L9.76382 20.2224C13.6171 20.2624 13.9099 16.9711 13.7533 15.7095Z" stroke="black" stroke-width="0.0267087"/>
<path d="M1.49559 15.7062L2.3154 15.7654C2.33379 16.46 2.41803 19.1107 5.58359 19.2546L5.48505 20.219C1.63175 20.259 1.33899 16.9678 1.49559 15.7062Z" fill="#F9D90F"/>
<path d="M1.49559 15.7062L2.3154 15.7654C2.33379 16.46 2.41803 19.1107 5.58359 19.2546L5.48505 20.219C1.63175 20.259 1.33899 16.9678 1.49559 15.7062Z" stroke="black" stroke-width="0.0267087"/>
<path d="M7.09593 20.3189C7.07426 20.3328 7.04482 20.3365 7.01089 20.3349L6.85796 20.3271L6.87105 20.1362L7.02274 20.1444C7.05259 20.1464 7.07631 20.1522 7.09103 20.1611C7.12169 20.1771 7.13519 20.2065 7.13232 20.2474C7.13028 20.2825 7.11801 20.3055 7.09552 20.3189M6.83875 20.6194L6.85388 20.3868L7.03215 20.3991C7.0898 20.4036 7.13273 20.3885 7.16176 20.359C7.19202 20.3304 7.20756 20.2928 7.2096 20.2503C7.21328 20.2008 7.20061 20.1603 7.17117 20.1305C7.14295 20.1019 7.10288 20.0867 7.05259 20.0819L6.79786 20.0659L6.7627 20.6137L6.83834 20.6186" fill="#012A87"/>
<path d="M7.41875 20.1612L7.6052 20.1632C7.63218 20.1657 7.65345 20.1689 7.66898 20.1763C7.6976 20.1898 7.7111 20.2168 7.7111 20.256C7.7111 20.2929 7.70047 20.3174 7.67961 20.3321C7.65958 20.3456 7.63055 20.3517 7.59579 20.3517L7.4167 20.3496L7.41834 20.1612M7.41548 20.6464L7.41712 20.4126L7.59212 20.4151C7.62319 20.4151 7.64609 20.4175 7.66204 20.4253C7.6878 20.4371 7.70047 20.4621 7.7017 20.4964L7.7062 20.5884C7.70743 20.6105 7.70783 20.624 7.70906 20.6329C7.7115 20.6395 7.71274 20.6464 7.71601 20.6514H7.81005L7.80842 20.6395C7.79779 20.6338 7.7892 20.6228 7.78552 20.606C7.78225 20.5953 7.78061 20.5794 7.7798 20.5594L7.77816 20.4862C7.77692 20.4531 7.77121 20.4302 7.75853 20.4175C7.74749 20.4028 7.73237 20.3901 7.70906 20.3823C7.73523 20.3685 7.75485 20.3525 7.76916 20.3329C7.78266 20.3112 7.78961 20.2838 7.78961 20.2503C7.78961 20.1874 7.76385 20.1444 7.71151 20.1212C7.6833 20.1085 7.64732 20.1019 7.60479 20.1011L7.34189 20.0986L7.33984 20.6481H7.41549" fill="#012A87"/>
<path d="M8.03804 20.5315C8.00452 20.4907 7.98652 20.4396 7.98244 20.3791C7.97876 20.303 7.99348 20.245 8.02823 20.2057C8.06339 20.1632 8.10878 20.1428 8.16807 20.1395C8.22776 20.1362 8.27683 20.1554 8.31322 20.193C8.35043 20.2299 8.37169 20.281 8.37537 20.3447C8.37741 20.406 8.36678 20.4604 8.33857 20.5082C8.31077 20.5569 8.26456 20.5843 8.19628 20.5859C8.12514 20.5896 8.07198 20.5728 8.03804 20.5315ZM7.94809 20.1857C7.91293 20.24 7.89862 20.303 7.90229 20.3791C7.90761 20.4612 7.93296 20.5291 7.9808 20.5802C8.03395 20.6313 8.10428 20.657 8.19097 20.6521C8.28378 20.648 8.3537 20.6129 8.40113 20.5483C8.43957 20.4899 8.45797 20.422 8.45388 20.3381C8.44856 20.2633 8.42689 20.2024 8.38641 20.157C8.3353 20.0961 8.26048 20.0692 8.15907 20.0733C8.06339 20.0794 7.99307 20.1145 7.94768 20.1857" fill="#012A87"/>
<path d="M1.87012 16.7265L1.88279 16.7951C1.85213 16.8012 1.8276 16.8135 1.80961 16.8295C1.7773 16.8597 1.76626 16.9051 1.7773 16.9668C1.78222 16.993 1.79161 17.0187 1.80347 17.0392C1.82801 17.0809 1.8599 17.0976 1.90038 17.0911C1.93023 17.0858 1.94985 17.0744 1.95926 17.0531C1.96825 17.0322 1.9748 17.0003 1.97684 16.9595L1.98052 16.8822C1.98304 16.8343 1.98828 16.7968 1.99892 16.7759C2.01567 16.7383 2.04717 16.715 2.09419 16.7072C2.14448 16.6982 2.18864 16.7097 2.22666 16.7383C2.2651 16.7649 2.29045 16.811 2.29985 16.8724C2.31172 16.9284 2.3064 16.9787 2.28431 17.024C2.26304 17.0682 2.22216 17.0952 2.1596 17.1066L2.14733 17.0372C2.17635 17.0265 2.19803 17.0163 2.21234 17.002C2.23688 16.9746 2.24423 16.935 2.23481 16.8806C2.22746 16.8364 2.21234 16.8078 2.18943 16.7935C2.16695 16.7767 2.14445 16.7702 2.11992 16.7743C2.09252 16.7784 2.07453 16.7935 2.06595 16.818C2.06063 16.8343 2.05655 16.8683 2.05287 16.9202L2.04919 17.0003C2.04717 17.0379 2.04143 17.069 2.02876 17.0903C2.00872 17.1295 1.97478 17.1536 1.92531 17.1614C1.86275 17.172 1.8145 17.1577 1.78015 17.1177C1.74499 17.0784 1.72332 17.0314 1.71228 16.9729C1.70001 16.9034 1.709 16.8495 1.73682 16.8062C1.76503 16.7616 1.8096 16.7359 1.87012 16.7273" fill="#012A87"/>
<path d="M1.83484 17.4514L2.37538 17.2887L2.50131 17.6693L2.43548 17.6901L2.33245 17.3774L2.16808 17.4269L2.26335 17.7159L2.20038 17.7359L2.10593 17.4461L1.92275 17.5008L2.02742 17.8205L1.96282 17.8389L1.83484 17.4514Z" fill="#012A87"/>
<path d="M2.07495 18.1112L2.57215 17.8476L2.62531 17.9404L2.28348 18.3017L2.78272 18.2163L2.83424 18.3083L2.33827 18.5704L2.30311 18.5094L2.59586 18.3553C2.6065 18.3492 2.62285 18.3402 2.64657 18.3275C2.66987 18.3169 2.69604 18.3026 2.72221 18.2891L2.22501 18.3737L2.18862 18.3091L2.52799 17.9489L2.51164 17.9572C2.501 17.9632 2.48261 17.9723 2.45767 17.9865C2.43312 18.0017 2.41473 18.0111 2.40287 18.016L2.11093 18.1726L2.07495 18.1105" fill="#012A87"/>
<path d="M3.00118 18.8434C2.97623 18.8377 2.9517 18.8234 2.92758 18.7984L2.8225 18.6901L2.96397 18.5605L3.06987 18.6685C3.09031 18.6885 3.1034 18.7081 3.11035 18.7249C3.12015 18.7572 3.11035 18.7866 3.0805 18.8144C3.05352 18.8393 3.02653 18.8495 3.00118 18.8434ZM2.6017 18.8937L2.77507 18.7347L2.89814 18.8594C2.9378 18.8998 2.97828 18.9182 3.0208 18.9174C3.06415 18.915 3.10135 18.899 3.13406 18.8679C3.17086 18.8352 3.18844 18.7968 3.18844 18.7556C3.18794 18.7155 3.16965 18.6779 3.1357 18.6427L2.95906 18.4624L2.54773 18.8401L2.60088 18.8937" fill="#012A87"/>
<path d="M3.0979 19.3352L3.39597 18.8679L3.74843 19.0821L3.71163 19.1378L3.42214 18.9644L3.3326 19.1059L3.59878 19.2673L3.56443 19.3209L3.29784 19.1603L3.19644 19.3184L3.48961 19.4947L3.45445 19.5499L3.0979 19.3352Z" fill="#012A87"/>
<path d="M3.98031 19.2448L4.1594 19.3017C4.18476 19.3094 4.20315 19.3192 4.21542 19.3303C4.23832 19.3519 4.24445 19.383 4.23097 19.4206C4.21993 19.4533 4.20316 19.4745 4.17699 19.4836C4.15369 19.4876 4.12425 19.4876 4.0899 19.477L3.92103 19.4231L3.98031 19.2448ZM3.82576 19.7039L3.90018 19.4811L4.06701 19.5355C4.09685 19.5433 4.11852 19.5539 4.12915 19.5649C4.14959 19.5833 4.15573 19.6107 4.14551 19.6447L4.12056 19.7333C4.11484 19.755 4.11197 19.7693 4.10952 19.7758C4.10952 19.7828 4.10953 19.7902 4.11079 19.7951L4.19869 19.8237L4.20401 19.811C4.19461 19.8036 4.1893 19.7902 4.1897 19.7734C4.19171 19.7632 4.19461 19.7469 4.20033 19.728L4.2216 19.6569C4.23019 19.6258 4.23347 19.6025 4.22568 19.5858C4.21913 19.5682 4.20809 19.5522 4.1897 19.5371C4.2175 19.5322 4.24163 19.5236 4.26207 19.5085C4.2813 19.4917 4.29764 19.4684 4.30746 19.4358C4.32749 19.3764 4.31645 19.327 4.27229 19.2894C4.25022 19.2698 4.21873 19.253 4.17743 19.2374L3.9272 19.1602L3.7522 19.6814L3.82539 19.7039" fill="#012A87"/>
<path d="M10.4942 19.3569C10.5471 19.3489 10.5929 19.3522 10.6343 19.3672C10.6953 19.3876 10.7358 19.4337 10.7602 19.5036L10.6844 19.5129C10.6688 19.475 10.6459 19.4488 10.6147 19.4339C10.5843 19.4199 10.5459 19.4159 10.5016 19.4217C10.45 19.4285 10.4082 19.4535 10.3785 19.4943C10.349 19.5378 10.3394 19.5966 10.3507 19.672C10.3602 19.7343 10.3821 19.7874 10.4191 19.8233C10.4532 19.8599 10.504 19.8735 10.5708 19.8653C10.6209 19.858 10.6613 19.8388 10.6901 19.8049C10.7202 19.7728 10.7296 19.7235 10.721 19.6595L10.5443 19.6833L10.5364 19.6227L10.7824 19.5895L10.8249 19.881L10.7761 19.8875L10.7471 19.8199C10.7261 19.8498 10.7052 19.8727 10.687 19.8858C10.6563 19.909 10.6152 19.9234 10.5639 19.9298C10.4975 19.9388 10.4372 19.9258 10.3831 19.8897C10.3238 19.844 10.2862 19.7771 10.2731 19.6849C10.2589 19.5943 10.2746 19.5173 10.3174 19.4571C10.3581 19.399 10.4164 19.3657 10.4943 19.3561" fill="#012A87"/>
<path d="M11.0496 19.3245L11.2266 19.264C11.2509 19.2555 11.2718 19.2529 11.2897 19.2553C11.322 19.2584 11.3453 19.278 11.3581 19.3167C11.3702 19.3496 11.3697 19.3782 11.355 19.398C11.3395 19.4185 11.3155 19.4333 11.2809 19.4453L11.1147 19.5015L11.0496 19.3245ZM11.2171 19.7819L11.1353 19.56L11.2999 19.5041C11.3307 19.4948 11.3521 19.4899 11.368 19.4919C11.397 19.496 11.4187 19.5141 11.4328 19.5478L11.4685 19.6323C11.4763 19.6533 11.4826 19.6661 11.4878 19.6719C11.4901 19.6793 11.4954 19.6839 11.4994 19.6889L11.5887 19.6578L11.584 19.6459C11.5709 19.6456 11.5584 19.638 11.5492 19.6235C11.5425 19.6132 11.5362 19.5984 11.5271 19.5811L11.4993 19.5118C11.4868 19.4817 11.4736 19.4631 11.4583 19.4518C11.4429 19.4429 11.4234 19.4368 11.4001 19.4348C11.4185 19.4143 11.432 19.3936 11.4373 19.3692C11.4431 19.3444 11.4411 19.3166 11.4299 19.2853C11.4084 19.2264 11.3677 19.1938 11.3097 19.1887C11.2791 19.1857 11.2439 19.1915 11.2031 19.2051L10.9546 19.2885L11.1447 19.8087L11.2175 19.7835" fill="#012A87"/>
<path d="M11.865 19.5213L11.5598 19.0582L11.9081 18.845L11.9451 18.9009L11.6597 19.0759L11.7536 19.2175L12.0171 19.0547L12.0517 19.1089L11.7882 19.2717L11.8917 19.4278L12.182 19.2494L12.2191 19.3041L11.8646 19.5213" fill="#012A87"/>
<path d="M12.1542 18.7178L12.2459 18.6206C12.2884 18.5772 12.333 18.558 12.3811 18.5646C12.4293 18.5695 12.4779 18.5958 12.5293 18.6425C12.5435 18.6538 12.5559 18.6683 12.5687 18.6845C12.591 18.7148 12.604 18.7412 12.6121 18.7675C12.6189 18.8004 12.6167 18.8302 12.6047 18.8586C12.5975 18.8727 12.585 18.8893 12.5662 18.909L12.4741 19.0054L12.1542 18.7171M12.6253 18.9411C12.6904 18.872 12.7057 18.7966 12.67 18.7105C12.6492 18.6639 12.6169 18.6183 12.5718 18.5783C12.5151 18.5261 12.4555 18.4989 12.3922 18.4928C12.322 18.4862 12.2619 18.5105 12.2089 18.5663L12.0526 18.7278L12.4686 19.1043L12.6249 18.9419" fill="#012A87"/>
<path d="M12.9607 18.5208L12.4794 18.2262L12.5202 18.164L13.0024 18.457L12.9611 18.5216" fill="#012A87"/>
<path d="M13.1577 18.1924L12.6362 17.9726L12.7979 17.606L12.8612 17.6317L12.7293 17.9339L12.8864 17.9989L13.0097 17.7207L13.0697 17.7467L12.9477 18.0246L13.1234 18.0997L13.2586 17.7939L13.3219 17.8192L13.1573 18.1924" fill="#012A87"/>
<path d="M13.4103 17.5518L12.8598 17.4195L12.8798 17.3344L13.3935 17.1713L12.9469 17.0642L12.9644 16.9974L13.515 17.1264L13.4959 17.2091L12.9812 17.376L13.4279 17.481L13.4107 17.5518" fill="#012A87"/>
<path d="M13.3793 16.8492L13.3875 16.7798C13.4194 16.7812 13.4465 16.7768 13.4671 16.7662C13.5076 16.7452 13.5316 16.7044 13.5389 16.6435C13.5418 16.615 13.5411 16.59 13.535 16.5662C13.5239 16.5202 13.4986 16.4944 13.4574 16.4896C13.4268 16.4857 13.4046 16.4927 13.3884 16.5092C13.3737 16.5281 13.3581 16.5556 13.3459 16.5947L13.3192 16.6666C13.302 16.7136 13.2863 16.7461 13.2696 16.7642C13.2428 16.7981 13.2058 16.8092 13.1589 16.8051C13.1087 16.7989 13.0682 16.7781 13.0398 16.7391C13.0106 16.7035 12.9993 16.653 13.0078 16.5909C13.0137 16.5342 13.0334 16.4868 13.0676 16.4489C13.0993 16.4144 13.1479 16.3984 13.2095 16.4061L13.2025 16.4755C13.1722 16.4749 13.148 16.4798 13.1302 16.4918C13.098 16.5087 13.0798 16.5456 13.0735 16.5999C13.0681 16.6448 13.0737 16.6751 13.0905 16.6984C13.1073 16.7179 13.1287 16.7305 13.154 16.733C13.181 16.736 13.2024 16.7278 13.2175 16.7072C13.2284 16.6931 13.2416 16.6622 13.2597 16.6123L13.286 16.5367C13.2989 16.5018 13.3142 16.4751 13.3317 16.4562C13.3629 16.4249 13.4032 16.4121 13.4534 16.4167C13.5146 16.4244 13.5579 16.4505 13.5796 16.4975C13.6008 16.545 13.6084 16.597 13.602 16.6558C13.5939 16.7222 13.5712 16.7742 13.5305 16.8086C13.4898 16.8438 13.4397 16.8552 13.3793 16.8492Z" fill="#012A87"/>
</g>
<defs>
<clipPath id="clip0_1_16878">
<rect y="0.0010376" width="30" height="30" rx="15" fill="white"/>
</clipPath>
</defs>
</svg>
