<svg width="30" height="30" viewBox="0 0 30 30" fill="none" xmlns="http://www.w3.org/2000/svg">
<path d="M14.9999 30.0011C21.0521 30.0011 26.2671 26.4123 28.6344 21.2522H1.36545C3.73279 26.4192 8.94779 30.0011 14.9999 30.0011Z" fill="black"/>
<path d="M14.9999 0.0010376C8.94779 0.0010376 3.73279 3.58979 1.36545 8.7499H28.6344C26.2602 3.58979 21.0521 0.0010376 14.9999 0.0010376Z" fill="#CE1126"/>
<path d="M3.05176e-05 15.001C3.05176e-05 17.2311 0.494077 19.3446 1.36553 21.2522H28.6345C29.506 19.3514 30 17.2311 30 15.001C30 12.7709 29.5128 10.6506 28.6345 8.74988H1.36553C0.487215 10.6575 3.05176e-05 12.7709 3.05176e-05 15.001Z" fill="#F1F4FB"/>
<path d="M7.78135 11.9886L8.52935 14.2874H10.9515L8.98904 15.7146L9.73704 18.0202L7.78135 16.593L5.81887 18.0202L6.56687 15.7146L4.61118 14.2874H7.03343L7.78135 11.9886Z" fill="#009E60"/>
<path d="M22.2188 11.9886L22.9667 14.2874H25.389L23.4265 15.7146L24.1744 18.0202L22.2188 16.593L20.2563 18.0202L21.0042 15.7146L19.0417 14.2874H21.4709L22.2188 11.9886Z" fill="#009E60"/>
</svg>
