<svg width="30" height="30" viewBox="0 0 30 30" fill="none" xmlns="http://www.w3.org/2000/svg">
<path d="M3.43106 24.5458H26.5692C27.0358 23.9763 27.4544 23.3656 27.8386 22.7275H2.16159C2.54585 23.3656 2.95759 23.9832 3.43106 24.5458Z" fill="#FFD900"/>
<path d="M2.16159 7.2746H27.8386C27.4544 6.63645 27.0427 6.02577 26.5692 5.45624H3.42419C2.95758 6.02577 2.54585 6.63645 2.16159 7.2746Z" fill="#FFD900"/>
<path d="M3.43096 5.45622H26.576C23.8244 2.12822 19.6592 0.0010376 15.0069 0.0010376C10.3408 0.0010376 6.18256 2.12822 3.43096 5.45622Z" fill="#3E5EB9"/>
<path d="M3.8147e-05 15.001C3.8147e-05 17.835 0.795988 20.47 2.1615 22.7275H27.8385C29.204 20.47 30 17.8281 30 15.001C30 12.1671 29.204 9.53215 27.8385 7.2746H2.1615C0.795988 9.53215 3.8147e-05 12.174 3.8147e-05 15.001Z" fill="#B10C0C"/>
<path d="M26.5691 24.5458H3.43096C6.18256 27.8807 10.3408 30.001 15 30.001C19.6592 30.001 23.8175 27.8807 26.5691 24.5458Z" fill="#3E5EB9"/>
<path d="M25.9448 12.4073L24.545 12.9014L25.9448 13.3954L27.3446 12.9014L25.9448 12.4073Z" fill="white"/>
<path d="M24.4627 12.8945L25.9381 12.373L25.9517 12.3661L27.4408 12.8945L25.9517 13.4228L24.4627 12.8945ZM24.6343 12.8945L25.9449 13.3611L27.2555 12.8945L25.9449 12.4347L24.6343 12.8945Z" fill="black"/>
<path d="M24.6281 13.3885L23.2283 13.8826L24.6281 14.3767L26.0279 13.8826L24.6281 13.3885Z" fill="white"/>
<path d="M23.1458 13.8826L24.6211 13.3611H24.628L26.117 13.8826L24.628 14.411L23.1458 13.8826ZM23.3242 13.8826L24.6348 14.3423L25.9455 13.8826L24.6348 13.4229L23.3242 13.8826Z" fill="black"/>
<path d="M1.27113 14.7883H28.7391C28.8695 14.7883 28.9862 14.8981 28.9862 15.0353C28.9862 15.1726 28.8763 15.2824 28.7391 15.2824H1.27113C1.13389 15.2824 1.02411 15.1726 1.02411 15.0353C1.02411 14.8981 1.13389 14.7883 1.27113 14.7883Z" fill="#FFD900"/>
<path d="M1.27106 15.3029C1.1201 15.3029 1.00344 15.1863 1.00344 15.0353C1.00344 14.8844 1.1201 14.7677 1.27106 14.7677V14.7883V14.8157C1.14755 14.8157 1.05148 14.9187 1.05148 15.0353C1.05148 15.1588 1.15441 15.2618 1.27106 15.2618H28.739C28.8626 15.2618 28.9586 15.1657 28.9586 15.0353C28.9586 14.9118 28.8626 14.8157 28.739 14.8157H1.27106V14.7883V14.7677H28.739C28.89 14.7677 29.0067 14.8912 29.0067 15.0353C29.0067 15.1863 28.89 15.3029 28.739 15.3029H1.27106Z" fill="black"/>
<path d="M4.8317 12.7298H25.033C25.1291 12.7298 25.2114 12.7984 25.2114 12.8945C25.2114 12.9837 25.1291 13.0592 25.033 13.0592H4.8317C4.73563 13.0592 4.65328 12.9837 4.65328 12.8945C4.65328 12.8053 4.72877 12.7298 4.8317 12.7298Z" fill="#FFD900"/>
<path d="M4.83159 13.0866C4.7218 13.0866 4.63261 13.0042 4.63261 12.8945C4.63261 12.7915 4.7218 12.7092 4.83159 12.7092V12.7298V12.7503C4.74239 12.7503 4.67378 12.819 4.67378 12.8945C4.67378 12.9699 4.74239 13.0386 4.83159 13.0386H25.0329C25.1221 13.0386 25.1907 12.9768 25.1907 12.8945C25.1907 12.819 25.1221 12.7503 25.0329 12.7503H4.83159V12.7298V12.7092H25.0329C25.1427 12.7092 25.2319 12.7915 25.2319 12.8945C25.2319 12.9974 25.1427 13.0866 25.0329 13.0866H4.83159Z" fill="black"/>
<path d="M3.515 13.7179H23.7094C23.8055 13.7179 23.8878 13.7934 23.8878 13.8826C23.8878 13.9718 23.8055 14.0473 23.7094 14.0473H3.515C3.41207 14.0473 3.33659 13.9786 3.33659 13.8826C3.33659 13.7934 3.41893 13.7179 3.515 13.7179Z" fill="#FFD900"/>
<path d="M3.51492 14.0678C3.40513 14.0678 3.30903 13.9855 3.30903 13.8825C3.30903 13.7796 3.39827 13.6973 3.51492 13.6973V13.7179V13.7453C3.42571 13.7453 3.35707 13.8071 3.35707 13.8894C3.35707 13.9649 3.42571 14.0335 3.51492 14.0335H23.7093C23.7985 14.0335 23.8672 13.9649 23.8672 13.8894C23.8672 13.8139 23.7985 13.7453 23.7093 13.7453H3.51492V13.7179V13.6973H23.7093C23.8191 13.6973 23.9083 13.7796 23.9083 13.8825C23.9083 13.9923 23.8191 14.0678 23.7093 14.0678H3.51492Z" fill="black"/>
<path d="M23.3379 14.0473C23.3379 14.0198 23.3653 13.9924 23.3928 13.9924C23.4134 13.9924 23.4408 13.9787 23.4683 13.9581C23.4888 13.9375 23.5026 13.9101 23.5026 13.8826C23.5026 13.862 23.4888 13.8346 23.4683 13.814C23.4477 13.7934 23.4202 13.7797 23.3928 13.7797C23.3585 13.7797 23.3379 13.7522 23.3379 13.7179C23.3379 13.6905 23.3653 13.663 23.3928 13.663C23.4545 13.663 23.5094 13.6905 23.5506 13.7317C23.5918 13.7728 23.6192 13.8277 23.6192 13.8826C23.6192 13.9444 23.5918 13.9992 23.5506 14.0404C23.5094 14.0816 23.4545 14.1091 23.3928 14.1091C23.3653 14.1022 23.3379 14.0747 23.3379 14.0473Z" fill="black"/>
<path d="M23.132 14.0473C23.132 14.0198 23.1595 13.9924 23.187 13.9924C23.2075 13.9924 23.2418 13.9787 23.2624 13.9581C23.283 13.9375 23.2967 13.9101 23.2967 13.8826C23.2967 13.862 23.283 13.8346 23.2624 13.814C23.2418 13.7934 23.2144 13.7797 23.187 13.7797C23.1595 13.7797 23.132 13.7522 23.132 13.7179C23.132 13.6905 23.1595 13.663 23.187 13.663C23.2487 13.663 23.3036 13.6905 23.3448 13.7317C23.3859 13.7728 23.4134 13.8277 23.4134 13.8826C23.4134 13.9444 23.3859 13.9992 23.3448 14.0404C23.3036 14.0816 23.2487 14.1091 23.187 14.1091C23.1526 14.1022 23.132 14.0747 23.132 14.0473Z" fill="black"/>
<path d="M22.9193 14.0473C22.9193 14.0198 22.9468 13.9924 22.9742 13.9924C22.9948 13.9924 23.0223 13.9787 23.0497 13.9581C23.0703 13.9375 23.084 13.9101 23.084 13.8826C23.084 13.862 23.0703 13.8346 23.0497 13.814C23.0291 13.7934 22.9948 13.7797 22.9742 13.7797C22.9399 13.7797 22.9193 13.7522 22.9193 13.7179C22.9193 13.6905 22.9468 13.663 22.9742 13.663C23.036 13.663 23.084 13.6905 23.1252 13.7317C23.1664 13.7728 23.1938 13.8277 23.1938 13.8826C23.1938 13.9444 23.1664 13.9992 23.1252 14.0404C23.084 14.0816 23.0291 14.1091 22.9742 14.1091C22.9468 14.1022 22.9193 14.0747 22.9193 14.0473Z" fill="black"/>
<path d="M24.6555 13.0592C24.6555 13.0249 24.6829 13.0043 24.7172 13.0043C24.7378 13.0043 24.7652 12.9905 24.7927 12.97C24.8133 12.9494 24.827 12.9219 24.827 12.8945C24.827 12.8739 24.8133 12.8465 24.7927 12.819C24.7721 12.7984 24.7447 12.7847 24.7172 12.7847C24.6829 12.7847 24.6555 12.7573 24.6555 12.7298C24.6555 12.6955 24.6829 12.668 24.7172 12.668C24.779 12.668 24.8339 12.6955 24.8682 12.7367C24.9094 12.7778 24.9368 12.8259 24.9368 12.8876C24.9368 12.9494 24.9094 13.0043 24.8682 13.0386C24.827 13.0798 24.7721 13.1072 24.7172 13.1072C24.6829 13.1209 24.6555 13.0935 24.6555 13.0592Z" fill="black"/>
<path d="M24.4428 13.0592C24.4428 13.0248 24.4702 12.9974 24.5045 12.9974C24.5251 12.9974 24.5526 12.9837 24.5731 12.9631C24.6006 12.9425 24.6074 12.9151 24.6074 12.8876C24.6074 12.867 24.5937 12.8396 24.5731 12.8121C24.5526 12.7915 24.5182 12.7778 24.5045 12.7778C24.4702 12.7778 24.4428 12.7504 24.4428 12.7229C24.4428 12.6886 24.4702 12.6612 24.5045 12.6612C24.5663 12.6612 24.6212 12.6886 24.6555 12.7298C24.6967 12.771 24.7241 12.819 24.7241 12.8807C24.7241 12.9425 24.6967 12.9974 24.6555 13.0317C24.6212 13.0729 24.5663 13.1003 24.5045 13.1003C24.4702 13.1209 24.4428 13.0935 24.4428 13.0592Z" fill="black"/>
<path d="M24.2369 13.0592C24.2369 13.0249 24.2644 13.0043 24.2918 13.0043C24.3124 13.0043 24.3399 12.9905 24.3605 12.97C24.3879 12.9494 24.3948 12.9219 24.3948 12.8945C24.3948 12.8739 24.3811 12.8465 24.3605 12.819C24.3399 12.7984 24.3124 12.7847 24.2918 12.7847C24.2644 12.7847 24.2369 12.7573 24.2369 12.7298C24.2369 12.6955 24.2644 12.668 24.2918 12.668C24.3536 12.668 24.4085 12.6955 24.4428 12.7367C24.484 12.7778 24.5114 12.8259 24.5114 12.8876C24.5114 12.9494 24.484 13.0043 24.4428 13.0386C24.4017 13.0798 24.3536 13.1072 24.2918 13.1072C24.2644 13.1209 24.2369 13.0935 24.2369 13.0592Z" fill="black"/>
<path d="M12.6673 10.4791C13.5182 10.1771 14.424 10.0331 15.3298 10.0811C16.0365 10.1017 16.7364 10.2252 17.4157 10.4311C18.1225 10.6575 18.8019 10.9868 19.4194 11.3986C20.2703 11.9544 21.0251 12.6543 21.725 13.3953C22.2328 13.9237 22.7131 14.4864 23.2346 15.0079C22.816 15.4196 22.4318 15.8656 22.0338 16.2911C21.5603 16.7988 21.08 17.2998 20.5516 17.7526C19.9066 18.3085 19.2067 18.8025 18.4382 19.1662C17.4226 19.6602 16.2973 19.9141 15.1719 19.9416H14.8769C13.8476 19.921 12.8252 19.6534 11.9057 19.2074C10.5676 18.5692 9.40798 17.6154 8.35126 16.593C7.8229 16.0783 7.3151 15.5294 6.78674 15.0079C6.99945 14.7883 7.21217 14.5687 7.42488 14.3491C8.3924 13.3473 9.39423 12.3592 10.5539 11.577C11.2058 11.1241 11.9125 10.7398 12.6673 10.4791Z" fill="black"/>
<path d="M14.376 10.9594C14.5133 10.6575 14.7191 10.3899 14.9593 10.1566C15.769 10.1566 16.5856 10.2664 17.3541 10.5065C18.1295 10.7467 18.8568 11.1172 19.5224 11.577C20.3253 12.1259 21.0458 12.8052 21.7114 13.512C22.178 14.0061 22.6171 14.5207 23.0975 15.001C22.5965 15.5019 22.1368 16.044 21.6496 16.5587C21.0938 17.1419 20.5105 17.6977 19.8586 18.1849C19.1244 18.7339 18.3216 19.1868 17.4502 19.4612C17.1963 19.5436 16.9424 19.6259 16.6816 19.6602C16.6268 19.4681 16.4826 19.3171 16.3317 19.2005C16.0709 19.0083 15.7621 18.878 15.4671 18.7613C15.2612 18.679 15.0485 18.6103 14.8495 18.5074C14.7877 18.4731 14.7191 18.4388 14.6917 18.3702C14.6986 18.2672 14.8083 18.2261 14.8838 18.1918C15.1651 18.0889 15.4671 18.0614 15.7621 17.9928C15.8651 17.9653 15.9749 17.9448 16.0641 17.883C16.0984 17.8556 16.1258 17.8007 16.1052 17.7526C16.0709 17.6772 15.9954 17.636 15.9268 17.6016C15.6523 17.4644 15.3573 17.389 15.0897 17.2449C15.0142 17.1968 14.925 17.1488 14.8975 17.0527C14.8907 16.9292 14.9868 16.8263 15.0828 16.7645C15.2475 16.641 15.4465 16.5381 15.5357 16.3322C15.5906 16.2224 15.57 16.092 15.5906 15.9754C15.6112 15.7627 15.7072 15.5568 15.8719 15.4127C15.9954 15.2892 16.1601 15.2206 16.2905 15.104C16.3591 15.0491 16.366 14.953 16.3317 14.8775C16.3042 14.8158 16.2356 14.8226 16.1807 14.8089C16.0092 14.7883 15.8719 14.6579 15.7964 14.5069C15.7141 14.3148 15.7141 14.1021 15.7141 13.8894C15.7072 13.6492 15.7484 13.4091 15.7004 13.1689C15.6935 13.1277 15.6661 13.0865 15.6386 13.0522C15.5563 13.0454 15.4671 13.0385 15.4053 12.9699C15.3092 12.867 15.323 12.7092 15.2269 12.6131C15.1789 12.5582 15.1034 12.5308 15.0348 12.517C14.9387 12.5102 14.8426 12.517 14.7603 12.4553C14.7054 12.4072 14.7054 12.3318 14.6917 12.2631C14.6642 12.0985 14.5819 11.9475 14.4721 11.8171C14.3898 11.7279 14.328 11.625 14.3074 11.5083C14.2457 11.3436 14.2937 11.1378 14.376 10.9594Z" fill="white"/>
<path d="M10.2473 13.2497H9.84805V14.5672H10.2473V13.2497Z" fill="white"/>
<path d="M10.2473 15.4418H9.84805V16.7556H10.2473V15.4418Z" fill="white"/>
<path d="M11.0458 13.2497H10.6466V14.5672H11.0458V13.2497Z" fill="white"/>
<path d="M11.0458 15.4418H10.6466V16.7556H11.0458V15.4418Z" fill="white"/>
<path d="M11.8409 13.2497H11.4417V14.5672H11.8409V13.2497Z" fill="white"/>
<path d="M11.8409 15.4418H11.4417V16.7556H11.8409V15.4418Z" fill="white"/>
<path d="M12.6394 13.2497H12.2402V14.5672H12.6394V13.2497Z" fill="white"/>
<path d="M12.6394 15.4418H12.2402V16.7556H12.6394V15.4418Z" fill="white"/>
<path d="M13.4345 13.2497H13.0353V14.5672H13.4345V13.2497Z" fill="white"/>
<path d="M13.4345 15.4418H13.0353V16.7556H13.4345V15.4418Z" fill="white"/>
<path d="M14.233 13.2497H13.8338V14.5672H14.233V13.2497Z" fill="white"/>
<path d="M14.233 15.4418H13.8338V16.7556H14.233V15.4418Z" fill="white"/>
<path d="M16.2759 13.2497H15.88V14.5672H16.2759V13.2497Z" fill="black"/>
<path d="M16.2759 15.4418H15.88V16.7556H16.2759V15.4418Z" fill="black"/>
<path d="M17.0743 13.2497H16.6751V14.5672H17.0743V13.2497Z" fill="black"/>
<path d="M17.0743 15.4418H16.6751V16.7556H17.0743V15.4418Z" fill="black"/>
<path d="M17.8696 13.2497H17.4736V14.5672H17.8696V13.2497Z" fill="black"/>
<path d="M17.8696 15.4418H17.4736V16.7556H17.8696V15.4418Z" fill="black"/>
<path d="M18.668 13.2497H18.2687V14.5672H18.668V13.2497Z" fill="black"/>
<path d="M18.668 15.4418H18.2687V16.7556H18.668V15.4418Z" fill="black"/>
<path d="M19.4665 13.2497H19.0672V14.5672H19.4665V13.2497Z" fill="black"/>
<path d="M19.4665 15.4418H19.0672V16.7556H19.4665V15.4418Z" fill="black"/>
<path d="M20.2616 13.2497H19.8623V14.5672H20.2616V13.2497Z" fill="black"/>
<path d="M20.2616 15.4418H19.8623V16.7556H20.2616V15.4418Z" fill="black"/>
<path d="M12.4137 11.0417C12.1941 11.4672 12.798 10.8977 13.7518 11.6113C13.9302 11.7417 14.1772 12.27 14.1772 12.5102C13.9782 12.469 13.6214 12.27 13.6214 12.27C13.6214 12.27 14.04 12.6886 14.04 13.1758C13.889 13.0866 13.8204 13.0935 13.7655 12.9837C13.7655 13.1415 13.8959 13.2375 13.8959 13.4846C13.793 13.3954 13.6969 13.3405 13.6077 13.2925C13.7449 13.5326 13.3538 14.0061 13.5528 14.1639C13.2028 14.1158 12.8529 13.8963 12.7156 13.6492C12.6401 13.6973 12.6333 13.7797 12.6333 13.862C12.647 13.8689 12.1049 13.464 12.1529 13.3062C12.0843 13.4091 12.0706 13.464 12.0569 13.5806C11.8579 13.3885 11.6795 13.1895 11.6109 12.9425C11.5217 13.0523 11.5148 13.0523 11.4325 13.1689C11.3707 12.771 11.3707 12.7847 11.5011 12.4416C11.4119 12.5033 11.3295 12.5651 11.2403 12.6406C11.3158 12.0573 11.7618 11.378 12.4137 11.0417Z" fill="#3D5DA7"/>
<path d="M13.5457 14.1845C13.2026 14.1296 12.8595 13.9237 12.7017 13.6836C12.6536 13.7248 12.6468 13.7865 12.6468 13.862C12.6468 13.8689 12.6468 13.8688 12.6468 13.8757C12.6399 13.8826 12.633 13.8894 12.6193 13.8826C12.6125 13.8826 12.6193 13.8826 12.6124 13.8826C12.6124 13.8826 12.6056 13.8826 12.5987 13.8757C12.5919 13.8688 12.5782 13.862 12.5644 13.8483C12.537 13.8277 12.4958 13.7934 12.4546 13.7591C12.3654 13.6836 12.2694 13.5875 12.2007 13.4983C12.1664 13.4571 12.139 13.416 12.1321 13.3748C12.091 13.4434 12.0841 13.4914 12.0704 13.5806L12.0635 13.6218L12.0361 13.5944C11.8508 13.4091 11.6724 13.2238 11.5969 12.9837C11.5351 13.066 11.5214 13.0729 11.4391 13.1758L11.4048 13.217L11.3979 13.1689C11.3705 13.0043 11.3568 12.9082 11.3568 12.8258C11.3568 12.7229 11.3842 12.6474 11.4391 12.4965C11.3705 12.5445 11.3087 12.5925 11.2401 12.6543L11.1921 12.6886L11.1989 12.6268C11.2881 12.0436 11.741 11.3574 12.3997 11.0212L12.4615 10.9869L12.4272 11.0486C12.3998 11.1104 12.386 11.1447 12.386 11.1653C12.386 11.179 12.386 11.179 12.3997 11.1859C12.4135 11.1927 12.4478 11.1996 12.4821 11.1996C12.5232 11.1996 12.5713 11.1996 12.6262 11.1996C12.8732 11.1996 13.2712 11.2339 13.7515 11.5976C13.9368 11.7416 14.1838 12.2563 14.1907 12.5102V12.5376L14.1632 12.5308C14.026 12.4965 13.827 12.4073 13.7035 12.3386C13.827 12.4896 14.0466 12.8121 14.0466 13.1689V13.2101L14.0123 13.1895C13.9368 13.1415 13.8888 13.1277 13.8407 13.1003C13.8202 13.0934 13.8064 13.0797 13.7927 13.066C13.827 13.1689 13.9093 13.2787 13.9093 13.4777V13.5189L13.875 13.4914C13.7927 13.4228 13.7172 13.3748 13.6486 13.3336C13.6555 13.3542 13.6623 13.3816 13.6623 13.4091C13.6623 13.6081 13.5182 13.8551 13.5182 14.0198C13.5182 14.0678 13.5319 14.109 13.5663 14.1364L13.6349 14.1914L13.5457 14.1845ZM12.7291 13.6355C12.8595 13.8551 13.1751 14.0678 13.4908 14.1296C13.4771 14.0953 13.4702 14.061 13.4702 14.0267C13.4702 13.8483 13.6143 13.6012 13.6143 13.416C13.6143 13.3748 13.6074 13.3336 13.5869 13.2993L13.5457 13.2307L13.6143 13.2718C13.6966 13.3199 13.7721 13.3679 13.8682 13.4365C13.8545 13.2375 13.7378 13.1415 13.7378 12.9837L13.779 12.9768C13.7996 13.0317 13.827 13.0454 13.8682 13.0729C13.9025 13.0935 13.9505 13.1072 14.0054 13.1415C13.9917 12.8052 13.7721 12.4964 13.6555 12.3661C13.6143 12.318 13.5937 12.2906 13.5937 12.2906L13.6212 12.2563C13.6212 12.2563 13.7103 12.3044 13.8201 12.3592C13.9231 12.4073 14.0466 12.4622 14.1427 12.4896C14.1289 12.2495 13.8819 11.7554 13.7241 11.6387C13.2506 11.2819 12.8663 11.2476 12.6262 11.2476C12.5644 11.2476 12.5164 11.2476 12.4821 11.2476C12.4409 11.2476 12.4066 11.2476 12.386 11.2408C12.3586 11.2339 12.338 11.2064 12.338 11.179C12.338 11.1584 12.3448 11.131 12.3586 11.1035C11.7753 11.4329 11.3567 12.0504 11.2538 12.5857C11.3224 12.5239 11.3911 12.4759 11.4734 12.421L11.5283 12.3867L11.5008 12.4553C11.4253 12.6543 11.3911 12.7298 11.3911 12.8327C11.3911 12.9013 11.4048 12.9837 11.4254 13.114C11.4871 13.0386 11.5009 13.0248 11.5763 12.9288L11.6038 12.8945L11.6106 12.9356C11.6724 13.1689 11.8371 13.3542 12.0223 13.5395C12.0361 13.4503 12.0567 13.3953 12.1184 13.3061L12.1527 13.3268C12.1527 13.3336 12.1527 13.3336 12.1527 13.3405C12.1527 13.4022 12.2625 13.5394 12.3792 13.6492C12.4615 13.7247 12.5438 13.7933 12.5919 13.8277C12.5987 13.759 12.6125 13.6904 12.6811 13.6424L12.7017 13.6287L12.7291 13.6355Z" fill="black"/>
<path d="M11.7549 12.9768C11.7892 12.6818 11.8647 12.5788 11.8921 12.3867C11.9333 12.0573 11.8853 11.8103 12.0019 11.8172C12.1186 11.824 12.1529 11.9475 12.098 12.2769C12.0362 12.6063 11.9882 12.6886 11.7549 12.9768Z" fill="#A70000"/>
<path d="M12.7499 11.8103C12.4205 11.7348 12.3176 11.6593 12.3587 11.5427C12.3999 11.4329 12.6058 11.5701 12.9283 11.6662C13.1136 11.7211 13.2439 11.6936 13.5321 11.776C13.1685 11.8789 13.0792 11.8926 12.7499 11.8103Z" fill="#A70000"/>
<path d="M12.4616 13.4503C12.4411 13.2032 12.4822 13.0934 12.4685 12.9356C12.4411 12.6543 12.3519 12.4621 12.4616 12.4484C12.5646 12.4278 12.6126 12.5239 12.6263 12.8052C12.6332 13.0866 12.6057 13.1621 12.4616 13.4503Z" fill="#A70000"/>
<path d="M13.0313 12.5925C12.798 12.4347 12.7431 12.3386 12.8117 12.2632C12.8803 12.1808 12.9969 12.3524 13.2234 12.5239C13.3538 12.62 13.4636 12.6337 13.6626 12.7847C13.3469 12.7641 13.2714 12.7503 13.0313 12.5925Z" fill="#A70000"/>
<path d="M13.4293 14.0884C13.3675 13.8551 13.2921 13.7796 13.2509 13.6287C13.1823 13.3679 13.196 13.1689 13.0999 13.1826C13.0039 13.1963 12.9901 13.2993 13.0725 13.5601C13.1617 13.8208 13.2097 13.8757 13.4293 14.0884Z" fill="#A70000"/>
<path d="M2.81352 14.9599C2.59394 15.3853 3.19779 14.8158 4.14472 15.5294C4.32313 15.6598 4.57015 16.1813 4.57015 16.4283C4.37116 16.3872 4.01435 16.1882 4.01435 16.1882C4.01435 16.1882 4.43291 16.6136 4.43291 17.0939C4.28881 16.9979 4.21332 17.0116 4.16529 16.9018C4.16529 17.0596 4.29566 17.1626 4.29566 17.4027C4.18587 17.3204 4.09668 17.2655 4.00748 17.2106C4.15158 17.4507 3.75358 17.9242 3.95257 18.082C3.60948 18.034 3.25268 17.8076 3.11544 17.5674C3.03996 17.6154 3.03311 17.6978 3.03311 17.7801C3.03997 17.787 2.50473 17.3821 2.55277 17.2243C2.48415 17.3204 2.47041 17.3753 2.45669 17.4919C2.2577 17.2998 2.07931 17.1077 2.0107 16.8538C1.92149 16.9704 1.91462 16.9704 1.83228 17.0802C1.76366 16.6822 1.76365 16.6959 1.90088 16.3528C1.80482 16.4146 1.72933 16.4764 1.64013 16.5519C1.70875 15.9686 2.16164 15.2961 2.81352 14.9599Z" fill="#3D5DA7"/>
<path d="M3.93911 18.1026C3.59602 18.0546 3.2529 17.8419 3.09508 17.5948C3.04705 17.636 3.04021 17.6978 3.04021 17.7732C3.04021 17.7801 3.04021 17.7801 3.04021 17.787C3.03335 17.7938 3.02646 17.8007 3.01274 17.7938H3.00587C3.00587 17.7938 2.99904 17.7938 2.99904 17.787C2.99218 17.7801 2.97843 17.7733 2.9647 17.7595C2.93725 17.739 2.8961 17.7046 2.85493 17.6703C2.77259 17.5949 2.66966 17.4988 2.60105 17.4096C2.56674 17.3684 2.53926 17.3272 2.5324 17.2861C2.49123 17.3547 2.48439 17.4027 2.47067 17.4919L2.4638 17.5331L2.4295 17.4988C2.24423 17.3135 2.07267 17.1282 1.99033 16.8881C1.92857 16.9704 1.91487 16.9841 1.83939 17.0802L1.80505 17.1214L1.79822 17.0665C1.77077 16.9018 1.75705 16.8057 1.75705 16.7234C1.75705 16.6205 1.78446 16.545 1.84622 16.394C1.7776 16.442 1.71585 16.4901 1.64037 16.5519L1.59233 16.5862L1.60607 16.5312C1.69527 15.9411 2.14815 15.2618 2.80689 14.9256L2.86867 14.8913L2.83432 14.953C2.80688 15.0148 2.79316 15.0491 2.79316 15.0697C2.79316 15.0834 2.79317 15.0834 2.80689 15.0971C2.82062 15.104 2.84806 15.104 2.88923 15.104C2.9304 15.104 2.97845 15.104 3.03335 15.104C3.28037 15.104 3.67837 15.1383 4.1587 15.502C4.34397 15.6461 4.59096 16.1607 4.59783 16.4215V16.4489L4.57039 16.442C4.43316 16.4146 4.23418 16.3186 4.11753 16.2568C4.24104 16.4078 4.46062 16.7234 4.46062 17.0871V17.1282L4.42628 17.1077C4.35766 17.0665 4.30277 17.0459 4.25473 17.0185C4.23415 17.0116 4.22042 16.9979 4.2067 16.9842C4.241 17.0871 4.32338 17.1968 4.32338 17.389V17.437L4.28908 17.4096C4.20673 17.341 4.13123 17.2929 4.05575 17.2517C4.06262 17.2792 4.06262 17.3067 4.06262 17.3272C4.06262 17.5262 3.91851 17.7801 3.91851 17.9379C3.91851 17.9928 3.93224 18.0272 3.96655 18.0546L4.03515 18.1026H3.93911ZM3.12942 17.5468C3.25293 17.7664 3.57543 17.9791 3.89108 18.0409C3.87735 18.0134 3.87047 17.9722 3.87047 17.9379C3.87047 17.7595 4.01459 17.5125 4.01459 17.3272C4.01459 17.2861 4.00774 17.2449 3.98715 17.2106L3.94598 17.142L4.01459 17.1831C4.09693 17.2243 4.17927 17.2792 4.26847 17.3478C4.25475 17.1488 4.13809 17.0528 4.13809 16.8949L4.18613 16.8881C4.20672 16.943 4.23417 16.9567 4.27534 16.9842C4.30965 17.0047 4.35769 17.0184 4.41258 17.0528C4.392 16.7165 4.17241 16.4077 4.06262 16.2705C4.02145 16.2225 4.00085 16.2019 4.00085 16.2019L4.02832 16.1676C4.02832 16.1676 4.11752 16.2156 4.23417 16.2705C4.3371 16.3185 4.46059 16.3734 4.55666 16.4009C4.54293 16.1607 4.30278 15.6667 4.13809 15.55C3.66463 15.1932 3.28038 15.1589 3.04021 15.1589C2.98532 15.1589 2.93727 15.1589 2.8961 15.1589C2.85493 15.1589 2.82747 15.1589 2.80002 15.1452C2.77258 15.1383 2.75199 15.1108 2.75199 15.0765C2.75199 15.056 2.75887 15.0285 2.77259 15.0079C2.18247 15.3373 1.77077 15.9549 1.66784 16.4901C1.74332 16.4283 1.80509 16.3734 1.88743 16.3254L1.94229 16.2911L1.91486 16.3528C1.83938 16.5587 1.80505 16.6273 1.80505 16.7303C1.80505 16.7989 1.8188 16.8812 1.83939 17.0116C1.90115 16.9361 1.91485 16.9224 1.99033 16.8195L2.01776 16.7851L2.02463 16.8263C2.08639 17.0596 2.24423 17.2449 2.4295 17.4233C2.44322 17.3341 2.46382 17.2792 2.52557 17.19L2.55988 17.2106C2.55988 17.2106 2.55988 17.2174 2.55988 17.2243C2.55988 17.2861 2.66964 17.4233 2.79316 17.5331C2.8755 17.6086 2.95787 17.6772 2.99904 17.7115C3.00591 17.6429 3.01963 17.5743 3.08825 17.5262L3.10882 17.5125L3.12942 17.5468Z" fill="black"/>
<path d="M2.1549 16.895C2.18921 16.5999 2.2647 16.4901 2.29215 16.3049C2.33332 15.9686 2.28531 15.7284 2.40196 15.7353C2.51861 15.7422 2.55288 15.8657 2.49112 16.195C2.43623 16.5244 2.3882 16.5999 2.1549 16.895Z" fill="#A70000"/>
<path d="M3.14298 15.7284C2.81361 15.6529 2.71755 15.5774 2.75872 15.4608C2.79989 15.351 3.00576 15.4882 3.32826 15.5843C3.51353 15.6392 3.64391 15.6118 3.92524 15.6941C3.56843 15.7902 3.47235 15.8039 3.14298 15.7284Z" fill="#A70000"/>
<path d="M2.86157 17.3616C2.84098 17.1146 2.88216 17.0116 2.86844 16.8469C2.84099 16.5656 2.75863 16.3803 2.8547 16.3597C2.95763 16.3391 3.01251 16.4352 3.01938 16.7166C3.0331 17.0048 3.00567 17.0802 2.86157 17.3616Z" fill="#A70000"/>
<path d="M3.4311 16.5107C3.1978 16.3529 3.1429 16.2568 3.21152 16.1813C3.28014 16.099 3.39677 16.2774 3.62321 16.4421C3.75359 16.5381 3.86339 16.5519 4.06238 16.7028C3.74673 16.6823 3.6644 16.6617 3.4311 16.5107Z" fill="#A70000"/>
<path d="M3.82915 17.9997C3.76739 17.7664 3.69191 17.684 3.6576 17.5399C3.58899 17.2792 3.60273 17.0802 3.50666 17.1008C3.4106 17.1214 3.39685 17.2243 3.47919 17.4782C3.55467 17.7389 3.60271 17.7938 3.82915 17.9997Z" fill="#A70000"/>
<path d="M26.6236 14.9599C26.404 15.3853 27.0078 14.8158 27.9548 15.5294C28.1332 15.6598 28.3802 16.1813 28.3802 16.4283C28.1812 16.3872 27.8175 16.1882 27.8175 16.1882C27.8175 16.1882 28.243 16.6136 28.243 17.0939C28.092 16.9979 28.0234 17.0116 27.9685 16.9018C27.9685 17.0596 28.0989 17.1626 28.0989 17.4027C27.9891 17.3204 27.8999 17.2655 27.8107 17.2106C27.9548 17.4507 27.5568 17.9242 27.7558 18.082C27.4127 18.034 27.0559 17.8076 26.9186 17.5674C26.8432 17.6154 26.8363 17.6978 26.8363 17.7801C26.85 17.787 26.3079 17.3821 26.356 17.2243C26.2805 17.3204 26.2736 17.3753 26.253 17.4919C26.054 17.2998 25.8756 17.1077 25.807 16.8538C25.7178 16.9704 25.7109 16.9704 25.6217 17.0802C25.56 16.6822 25.56 16.6959 25.6903 16.3528C25.6011 16.4146 25.5188 16.4764 25.4296 16.5519C25.5257 15.9686 25.9786 15.2961 26.6236 14.9599Z" fill="#3D5DA7"/>
<path d="M27.7557 18.1026C27.4126 18.0546 27.0695 17.8419 26.9117 17.5948C26.8637 17.636 26.8568 17.6978 26.8568 17.7732C26.8568 17.7801 26.8568 17.7801 26.8568 17.787C26.8499 17.7938 26.8431 17.8007 26.8294 17.7938C26.8225 17.7938 26.8294 17.7938 26.8225 17.7938C26.8225 17.7938 26.8156 17.7938 26.8156 17.787C26.8088 17.7801 26.795 17.7733 26.7813 17.7595C26.7539 17.739 26.7127 17.7046 26.6716 17.6703C26.5823 17.5949 26.4863 17.4988 26.4177 17.4096C26.3834 17.3684 26.3559 17.3272 26.3422 17.2861C26.301 17.3547 26.2941 17.4027 26.2804 17.4919L26.2736 17.5331L26.2461 17.4988C26.0608 17.3135 25.8893 17.1282 25.807 16.8881C25.7452 16.9704 25.7314 16.9841 25.656 17.0802L25.6217 17.1214L25.6148 17.0665C25.5874 16.9018 25.5736 16.8057 25.5736 16.7234C25.5736 16.6205 25.6011 16.545 25.656 16.394C25.5873 16.442 25.5256 16.4901 25.457 16.5519L25.409 16.5862L25.4158 16.5312C25.505 15.9411 25.9579 15.2618 26.6166 14.9256L26.6784 14.8913L26.6509 14.953C26.6166 15.0148 26.6029 15.0491 26.6098 15.0697C26.6098 15.0834 26.6098 15.0834 26.6235 15.0971C26.6372 15.104 26.6647 15.104 26.7059 15.104C26.747 15.104 26.795 15.104 26.8499 15.104C27.0901 15.104 27.4949 15.1383 27.9753 15.502C28.1605 15.6461 28.4076 16.1607 28.4076 16.4215V16.4489L28.3801 16.442C28.2429 16.4146 28.0439 16.3186 27.9204 16.2568C28.0439 16.4078 28.2635 16.7234 28.2635 17.0871V17.1282L28.2292 17.1077C28.1537 17.0665 28.0988 17.0459 28.0576 17.0185C28.037 17.0116 28.0233 16.9979 28.0096 16.9842C28.0439 17.0871 28.1263 17.1968 28.1263 17.389V17.437L28.0919 17.4096C28.0096 17.341 27.9341 17.2929 27.8586 17.2517C27.8655 17.2792 27.8724 17.3067 27.8724 17.3272C27.8724 17.5262 27.7283 17.7801 27.7283 17.9379C27.7283 17.9928 27.742 18.0272 27.7763 18.0546L27.8449 18.1026H27.7557ZM26.9391 17.5468C27.0695 17.7664 27.3852 17.9791 27.7008 18.0409C27.6871 18.0134 27.6802 17.9722 27.6802 17.9379C27.6802 17.7595 27.8243 17.5125 27.8243 17.3272C27.8243 17.2861 27.8174 17.2449 27.7969 17.2106L27.7557 17.142L27.8243 17.1831C27.9067 17.2243 27.989 17.2792 28.0782 17.3478C28.0645 17.1488 27.9478 17.0528 27.9478 16.8949L27.989 16.8881C28.0096 16.943 28.0371 16.9567 28.0782 16.9842C28.1125 17.0047 28.1606 17.0184 28.2155 17.0528C28.2017 16.7165 27.9822 16.4077 27.8655 16.2705C27.8243 16.2225 27.8037 16.2019 27.8037 16.2019L27.8312 16.1676C27.8312 16.1676 27.9204 16.2156 28.0371 16.2705C28.14 16.3185 28.2635 16.3734 28.3595 16.4009C28.3458 16.1607 28.1057 15.6667 27.941 15.55C27.4675 15.1932 27.0833 15.1589 26.8431 15.1589C26.7882 15.1589 26.7402 15.1589 26.699 15.1589C26.6578 15.1589 26.6304 15.1589 26.6029 15.1452C26.5755 15.1383 26.5549 15.1108 26.5549 15.0765C26.5549 15.056 26.5618 15.0285 26.5755 15.0079C25.9854 15.3373 25.5737 15.9549 25.4707 16.4901C25.5462 16.4283 25.6079 16.3734 25.6903 16.3254L25.7452 16.2911L25.7177 16.3528C25.6423 16.5587 25.6079 16.6273 25.6079 16.7303C25.6079 16.7989 25.6217 16.8812 25.6423 17.0116C25.704 16.9361 25.7177 16.9224 25.7932 16.8195L25.8206 16.7851L25.8344 16.8263C25.8961 17.0596 26.054 17.2449 26.2393 17.4233C26.253 17.3341 26.2735 17.2792 26.3353 17.19L26.3765 17.2106C26.3765 17.2106 26.3765 17.2174 26.3765 17.2243C26.3765 17.2861 26.4863 17.4233 26.6098 17.5331C26.6921 17.6086 26.7745 17.6772 26.8156 17.7115C26.8225 17.6429 26.8362 17.5743 26.9048 17.5262L26.9254 17.5125L26.9391 17.5468Z" fill="black"/>
<path d="M25.9721 16.895C26.0064 16.5999 26.0819 16.4901 26.1093 16.3049C26.1505 15.9686 26.1025 15.7284 26.2191 15.7353C26.3358 15.7422 26.3701 15.8657 26.3152 16.195C26.2466 16.5244 26.1985 16.5999 25.9721 16.895Z" fill="#A70000"/>
<path d="M26.96 15.7284C26.6375 15.6529 26.5346 15.5774 26.5758 15.4608C26.617 15.351 26.8228 15.4882 27.1453 15.5843C27.3306 15.6392 27.461 15.6118 27.7423 15.6941C27.3855 15.7902 27.2894 15.8039 26.96 15.7284Z" fill="#A70000"/>
<path d="M26.672 17.3615C26.6446 17.1145 26.6926 17.0116 26.6788 16.8469C26.6514 16.5655 26.5622 16.3803 26.672 16.3597C26.7749 16.3391 26.823 16.4352 26.8367 16.7165C26.8504 17.0047 26.8161 17.0802 26.672 17.3615Z" fill="#A70000"/>
<path d="M27.2483 16.5107C27.0081 16.3528 26.9601 16.2567 27.0287 16.1813C27.0973 16.0989 27.214 16.2773 27.4404 16.442C27.5708 16.5381 27.6806 16.5518 27.8796 16.7028C27.5571 16.6822 27.4816 16.6616 27.2483 16.5107Z" fill="#A70000"/>
<path d="M27.6462 17.9997C27.5844 17.7664 27.509 17.684 27.4747 17.5399C27.406 17.2792 27.4197 17.0802 27.3237 17.1008C27.2276 17.1214 27.207 17.2243 27.2962 17.4782C27.3717 17.7389 27.4198 17.7938 27.6462 17.9997Z" fill="#A70000"/>
</svg>
