<svg width="30" height="30" viewBox="0 0 30 30" fill="none" xmlns="http://www.w3.org/2000/svg">
<g clip-path="url(#clip0_1_16998)">
<path d="M-15 0.0010376H15C16.9891 3.97929 17.3164 8.58477 15.9099 12.8043C14.5034 17.0239 11.4783 20.5119 7.5 22.501C3.52176 24.4902 -1.08373 24.8175 -5.3033 23.4109C-9.52287 22.0044 -13.0109 18.9793 -15 15.001L-15 0.0010376Z" fill="#002868"/>
<path d="M-15 0.0010376L15 15.001M-15 15.001L15 0.0010376" stroke="white" stroke-width="3"/>
<mask id="mask0_1_16998" style="mask-type:luminance" maskUnits="userSpaceOnUse" x="-15" y="0" width="33" height="18">
<path d="M-15 0.0010376V7.50104H17.5V15.001H15L-15 0.0010376ZM15 0.0010376H0V17.501H-15V15.001L15 0.0010376Z" fill="white"/>
</mask>
<g mask="url(#mask0_1_16998)">
<path d="M-15 0.0010376L15 15.001M-15 15.001L15 0.0010376" stroke="#CE1126" stroke-width="2"/>
</g>
<path d="M0 -2.49896V17.501M-17.5 7.50104H17.5" stroke="white" stroke-width="5"/>
<path d="M0 0.0010376V17.501M-15 7.50104H17.5" stroke="#CE1126" stroke-width="3"/>
<path d="M-15 15.001H15V0.0010376H45V30.001H-15" fill="#002868"/>
<path d="M31.75 8.75104V13.251C31.75 16.251 30.25 19.4823 26.5 21.2323C22.75 19.4823 21.25 16.251 21.25 13.251V8.75104H31.75Z" fill="#FCD116" stroke="black" stroke-width="0.4"/>
<path d="M31.75 8.75104V13.251C31.75 16.251 30.25 19.4823 26.5 21.2323C22.75 19.4823 21.25 16.251 21.25 13.251V8.75104H31.75Z" stroke="white" stroke-width="0.35"/>
<path d="M24.6063 13.7072C24.4688 13.9384 24.2375 13.9884 24.0563 13.9134C23.8688 13.8384 23.7 13.4009 23.5125 13.1634C23.3313 12.9322 23.2813 13.0322 23.1563 12.8947C23.0375 12.7634 22.85 12.6634 22.5563 12.5259C22.3938 12.4509 22.225 12.3822 22.1125 12.0947C22.1563 11.9759 22.275 11.8759 22.3688 11.8384C22.4625 11.8072 22.5375 11.6697 22.55 11.5509C22.5625 11.4384 22.6625 11.3134 22.8 11.2197C22.7375 11.2322 22.6063 11.2072 22.5438 11.1634C22.4875 11.1134 22.3938 11.1259 22.3375 11.1697C22.2813 11.2072 22.2125 11.2197 22.1125 11.2072C22.15 11.1759 22.2188 11.1072 22.225 11.0447C22.2313 10.9822 22.3063 10.9509 22.45 10.9509C22.5875 10.9509 22.6813 10.7884 22.7938 10.7884C22.7125 10.7884 22.7313 10.6509 22.775 10.6447C22.575 10.6072 22.6 10.4447 22.6813 10.4447C22.675 10.4197 22.65 10.3947 22.5563 10.3634C22.4688 10.3322 22.5125 10.2509 22.5813 10.2009C22.5188 10.0759 22.575 9.98217 22.675 9.90092C22.5375 9.89467 22.6875 9.70092 22.725 9.59467C22.7625 9.49467 22.7813 9.48217 22.825 9.54467C22.875 9.60092 22.9875 9.73217 23.1188 9.76967C23.2438 9.80717 23.3188 9.87592 23.3438 9.98217C23.3688 10.0947 23.4188 10.1509 23.5563 10.2009C23.7 10.2447 23.8938 10.3634 23.8688 10.6322C23.9813 10.6384 24.0625 10.6697 24.1313 10.7259" fill="#FCAD56"/>
<path d="M24.6063 13.7072C24.4688 13.9384 24.2375 13.9884 24.0563 13.9134C23.8688 13.8384 23.7 13.4009 23.5125 13.1634C23.3313 12.9322 23.2813 13.0322 23.1563 12.8947C23.0375 12.7634 22.85 12.6634 22.5563 12.5259C22.3938 12.4509 22.225 12.3822 22.1125 12.0947C22.1563 11.9759 22.275 11.8759 22.3688 11.8384C22.4625 11.8072 22.5375 11.6697 22.55 11.5509C22.5625 11.4384 22.6625 11.3134 22.8 11.2197C22.7375 11.2322 22.6063 11.2072 22.5438 11.1634C22.4875 11.1134 22.3938 11.1259 22.3375 11.1697C22.2813 11.2072 22.2125 11.2197 22.1125 11.2072C22.15 11.1759 22.2188 11.1072 22.225 11.0447C22.2313 10.9822 22.3063 10.9509 22.45 10.9509C22.5875 10.9509 22.6813 10.7884 22.7938 10.7884C22.7125 10.7884 22.7313 10.6509 22.775 10.6447C22.575 10.6072 22.6 10.4447 22.6813 10.4447C22.675 10.4197 22.65 10.3947 22.5563 10.3634C22.4688 10.3322 22.5125 10.2509 22.5813 10.2009C22.5188 10.0759 22.575 9.98217 22.675 9.90092C22.5375 9.89467 22.6875 9.70092 22.725 9.59467C22.7625 9.49467 22.7813 9.48217 22.825 9.54467C22.875 9.60092 22.9875 9.73217 23.1188 9.76967C23.2438 9.80717 23.3188 9.87592 23.3438 9.98217C23.3688 10.0947 23.4188 10.1509 23.5563 10.2009C23.7 10.2447 23.8938 10.3634 23.8688 10.6322C23.9813 10.6384 24.0625 10.6697 24.1313 10.7259" stroke="black" stroke-width="0.01375" stroke-linecap="round" stroke-linejoin="round"/>
<path d="M24.9505 10.3196C24.9505 10.4696 25.0193 10.5634 25.1068 10.6384C25.2005 10.7134 25.2818 10.7759 25.263 10.8696C25.2443 10.9696 25.2818 11.0321 25.363 11.0946C25.4505 11.1571 25.513 11.2321 25.488 11.3571C25.463 11.4821 25.4818 11.5571 25.5318 11.6509C25.5818 11.7446 25.6693 11.8196 25.6318 11.9696C25.5943 12.1196 25.613 12.3196 25.663 12.4196C25.7068 12.5134 25.663 12.5884 25.5755 12.7571C25.488 12.9196 25.438 12.9821 25.2568 13.0446C25.0693 13.1009 25.0568 13.2134 25.0568 13.4071C25.0568 13.6071 24.9255 13.7071 24.6818 13.6696C24.4318 13.8759 24.2755 13.6321 24.213 13.3259C24.1505 13.0196 24.138 12.6884 23.7693 12.4196C23.4068 12.1446 23.5505 11.6821 23.8568 11.4946C24.163 11.3134 24.1255 10.7759 24.088 10.4446C24.0568 10.1134 24.2755 9.92588 24.4443 9.74463C24.6693 9.83213 24.9505 10.1759 24.9505 10.3196Z" fill="#FFA1A1" stroke="black" stroke-width="0.01375" stroke-linecap="round" stroke-linejoin="round"/>
<path d="M24.419 12.4508C24.3503 12.2883 24.2753 12.1258 24.4565 11.7758C24.644 11.4196 24.5253 11.1508 24.469 10.9696C24.4128 10.7946 24.4003 10.6321 24.469 10.5571C24.544 10.4883 24.5753 10.4446 24.5815 10.3258C24.5878 10.2133 24.6815 10.2508 24.694 10.3071C24.7065 10.3633 24.719 10.4571 24.619 10.6258C24.519 10.8008 24.9003 11.2258 24.7253 11.6821C24.6065 12.0008 24.7628 12.4071 24.8253 12.6883C24.8878 12.9696 24.9253 13.6446 24.5128 13.7446C24.794 13.6071 24.5315 12.7133 24.419 12.4508Z" fill="#F1B2DC" stroke="black" stroke-width="0.01375" stroke-linecap="round" stroke-linejoin="round"/>
<path d="M22.5631 12.4009C22.6319 12.4134 22.6694 12.3759 22.6881 12.3321C22.7069 12.2884 22.7194 12.2634 22.7819 12.2571C22.8444 12.2571 22.9444 12.2384 22.9694 12.1884C22.9881 12.1384 23.0631 12.1821 23.1319 12.0571C23.1944 11.9259 23.2381 11.7759 23.4069 11.7196M23.8694 10.6321C23.8069 10.6321 23.6256 10.6384 23.5506 10.8009M23.0319 9.85712C23.1819 9.90087 23.1194 10.0009 23.1944 10.0571C23.3319 10.1634 23.2069 10.2759 23.3194 10.3071C23.4319 10.3384 23.4256 10.3571 23.4006 10.4821C23.3631 10.6259 23.5006 10.6321 23.4506 10.7259M22.8006 11.2196C22.8881 11.1384 23.1069 11.0759 23.1569 10.9884M22.7944 10.7884C22.9256 10.7821 23.1006 10.8321 23.1256 10.7821M22.7756 10.6446C22.8381 10.6446 22.9694 10.6009 22.9944 10.5134M22.6819 10.4446C22.7569 10.4446 22.8506 10.4384 22.9444 10.3696M22.5819 10.2009C22.6381 10.1571 22.7381 10.2071 22.8319 10.1446M22.6756 9.90087C22.7194 9.90087 22.8131 9.88837 22.8131 9.94462" stroke="black" stroke-width="0.01375" stroke-linecap="round" stroke-linejoin="round"/>
<path d="M28.6567 11.0447C28.6567 11.0447 28.2192 10.6759 27.8567 10.4259C27.4942 10.1759 27.0567 9.86965 27.0567 9.80715C27.1255 9.75715 27.4942 9.99465 28.0005 10.3009C28.513 10.6134 28.8005 10.9197 28.8005 10.9197L28.6567 11.0447ZM28.6255 11.2947C28.6255 11.2947 28.2005 11.0384 27.7817 10.8572C27.3442 10.6759 26.688 10.6759 26.6192 10.6134C26.6192 10.5509 27.3817 10.5134 27.9255 10.7322C28.4817 10.9884 28.7692 11.1697 28.7692 11.1697L28.6255 11.2947ZM28.6192 11.7197C28.6192 11.7197 28.1567 11.5072 27.7067 11.4072C27.2692 11.3072 26.6442 11.3447 26.5692 11.2884C26.5692 11.2259 27.3442 11.1009 27.9255 11.2884C28.513 11.4697 28.763 11.5947 28.763 11.5947L28.6192 11.7197ZM28.5942 12.1509C28.5942 12.1509 28.2442 11.9134 27.7817 11.8634C27.3442 11.8197 26.763 12.1509 26.688 12.0884C26.688 12.0259 27.1942 11.6572 27.8255 11.7197C28.4442 11.7822 28.738 12.0259 28.738 12.0259L28.5942 12.1509ZM28.738 10.7884C28.738 10.7884 28.2942 10.3822 28.2942 10.1072C28.2942 9.8634 28.563 9.4884 28.6817 9.4884C28.6192 9.6134 28.413 9.8634 28.413 10.1072C28.413 10.3572 28.8817 10.6634 28.8817 10.6634L28.738 10.7884Z" fill="#9E540A" stroke="black" stroke-width="0.01375" stroke-linecap="round" stroke-linejoin="round"/>
<path d="M28.7381 10.7884C28.7381 10.7884 28.8256 10.3822 28.8256 10.1072C28.8256 9.73844 28.5631 9.40094 28.5881 9.30719C28.6819 9.40094 28.9444 9.67594 28.9444 10.1072C28.9444 10.4822 28.8819 10.6634 28.8819 10.6634L28.7381 10.7884Z" fill="#9E540A" stroke="black" stroke-width="0.01375" stroke-linecap="round" stroke-linejoin="round"/>
<path d="M28.844 10.6572C28.844 10.5385 28.8002 10.4322 28.7252 10.351C28.6252 10.2322 28.4752 10.1947 28.319 10.2197C28.1315 10.251 27.9815 10.3635 27.8877 10.5385C27.7627 10.7697 27.7502 11.0197 27.744 11.2635C27.744 12.1072 27.7752 12.451 27.8002 13.2822C27.8065 13.526 27.8502 14.026 27.7377 14.4197C27.694 14.5885 27.644 14.7447 27.569 14.9072C27.619 14.701 27.644 14.5947 27.669 14.4385C27.7377 14.0322 27.719 13.651 27.7065 13.276C27.6815 12.5072 27.6377 12.1135 27.6127 11.1822C27.6065 10.901 27.6315 10.6885 27.7627 10.4635C27.9002 10.2322 28.1377 10.0635 28.4065 10.0635C28.519 10.0635 28.6127 10.0822 28.7065 10.1385C28.894 10.2385 28.9815 10.4447 28.9815 10.651L28.844 10.6572Z" fill="#9E540A" stroke="#FCD116" stroke-width="0.075" stroke-linecap="round" stroke-linejoin="round"/>
<path d="M28.844 10.6572C28.844 10.5385 28.8002 10.4322 28.7252 10.351C28.6252 10.2322 28.4752 10.1947 28.319 10.2197C28.1315 10.251 27.9815 10.3635 27.8877 10.5385C27.7627 10.7697 27.7502 11.0197 27.744 11.2635C27.744 12.1072 27.7752 12.451 27.8002 13.2822C27.8065 13.526 27.8502 14.026 27.7377 14.4197C27.694 14.5885 27.644 14.7447 27.569 14.9072C27.619 14.701 27.644 14.5947 27.669 14.4385C27.7377 14.0322 27.719 13.651 27.7065 13.276C27.6815 12.5072 27.6377 12.1135 27.6127 11.1822C27.6065 10.901 27.6315 10.6885 27.7627 10.4635C27.9002 10.2322 28.1377 10.0635 28.4065 10.0635C28.519 10.0635 28.6127 10.0822 28.7065 10.1385C28.894 10.2385 28.9815 10.4447 28.9815 10.651L28.844 10.6572Z" fill="#9E540A"/>
<path d="M28.8817 13.6697C28.8817 13.6697 28.7067 13.9822 28.5755 14.2072C28.4442 14.4322 28.338 14.4822 28.238 14.4134C28.1442 14.3447 28.2255 14.1634 28.3005 14.0759C28.3755 13.9884 28.7942 13.5822 28.7942 13.5822L28.8817 13.6697Z" fill="#9E540A" stroke="black" stroke-width="0.01375" stroke-linecap="round" stroke-linejoin="round"/>
<path d="M28.9252 13.6947C28.9252 13.6947 28.8565 14.0509 28.8002 14.3072C28.7502 14.5634 28.6627 14.6509 28.5565 14.6197C28.444 14.5947 28.4627 14.3884 28.5065 14.2822C28.5502 14.1759 28.8127 13.6384 28.8127 13.6384L28.9252 13.6947Z" fill="#9E540A" stroke="black" stroke-width="0.01375" stroke-linecap="round" stroke-linejoin="round"/>
<path d="M28.9999 13.7072C28.9999 13.7072 28.9999 14.0697 28.9999 14.3322C28.9999 14.5947 28.9374 14.7009 28.8186 14.6947C28.7061 14.6884 28.6811 14.4884 28.7061 14.3697C28.7249 14.2572 28.8811 13.6759 28.8811 13.6759L28.9999 13.7072Z" fill="#9E540A" stroke="black" stroke-width="0.01375" stroke-linecap="round" stroke-linejoin="round"/>
<path d="M29.3439 11.0446C29.3439 11.0446 29.7814 10.6758 30.1439 10.4258C30.5064 10.1758 30.9439 9.86959 30.9439 9.80709C30.8751 9.75709 30.5064 9.99459 30.0001 10.3008C29.4876 10.6133 29.2001 10.9196 29.2001 10.9196L29.3439 11.0446ZM29.3751 11.2946C29.3751 11.2946 29.8001 11.0383 30.2189 10.8571C30.6564 10.6758 31.3126 10.6758 31.3814 10.6133C31.3814 10.5508 30.6189 10.5133 30.0751 10.7321C29.5189 10.9883 29.2314 11.1696 29.2314 11.1696L29.3751 11.2946ZM29.3814 11.7196C29.3814 11.7196 29.8439 11.5071 30.2939 11.4071C30.7314 11.3071 31.3564 11.3446 31.4314 11.2883C31.4314 11.2258 30.6564 11.1008 30.0751 11.2883C29.4876 11.4696 29.2376 11.5946 29.2376 11.5946L29.3814 11.7196ZM29.4064 12.1508C29.4064 12.1508 29.7564 11.9133 30.2189 11.8633C30.6564 11.8196 31.2376 12.1508 31.3126 12.0883C31.3126 12.0258 30.8064 11.6571 30.1751 11.7196C29.5564 11.7821 29.2626 12.0258 29.2626 12.0258L29.4064 12.1508ZM29.2626 10.7883C29.2626 10.7883 29.7064 10.3821 29.7064 10.1071C29.7064 9.86334 29.4376 9.48834 29.3189 9.48834C29.3814 9.61334 29.5876 9.86334 29.5876 10.1071C29.5876 10.3571 29.1189 10.6633 29.1189 10.6633L29.2626 10.7883Z" fill="#9E540A" stroke="black" stroke-width="0.01375" stroke-linecap="round" stroke-linejoin="round"/>
<path d="M29.2625 10.7884C29.2625 10.7884 29.175 10.3821 29.175 10.1071C29.175 9.73838 29.4375 9.40088 29.4125 9.30713C29.3188 9.40088 29.0563 9.67588 29.0563 10.1071C29.0563 10.4821 29.1188 10.6634 29.1188 10.6634L29.2625 10.7884Z" fill="#9E540A" stroke="black" stroke-width="0.01375" stroke-linecap="round" stroke-linejoin="round"/>
<path d="M29.1566 10.6572C29.1566 10.5384 29.2004 10.4322 29.2754 10.3509C29.3754 10.2322 29.5254 10.1947 29.6816 10.2197C29.8691 10.2509 30.0191 10.3634 30.1129 10.5384C30.2379 10.7697 30.2504 11.0197 30.2566 11.2634C30.2566 12.1072 30.2254 12.4509 30.2004 13.2822C30.1941 13.5259 30.1504 14.0259 30.2629 14.4197C30.3066 14.5884 30.3566 14.7447 30.4316 14.9072C30.3816 14.7009 30.3566 14.5947 30.3316 14.4384C30.2629 14.0322 30.2816 13.6509 30.2941 13.2759C30.3191 12.5072 30.3629 12.1134 30.3879 11.1822C30.3941 10.9009 30.3691 10.6884 30.2379 10.4634C30.1004 10.2322 29.8629 10.0634 29.5941 10.0634C29.4816 10.0634 29.3879 10.0822 29.2941 10.1384C29.1066 10.2384 29.0191 10.4447 29.0191 10.6509L29.1566 10.6572Z" fill="#9E540A" stroke="#FCD116" stroke-width="0.075" stroke-linecap="round" stroke-linejoin="round"/>
<path d="M29.1566 10.6572C29.1566 10.5384 29.2004 10.4322 29.2754 10.3509C29.3754 10.2322 29.5254 10.1947 29.6816 10.2197C29.8691 10.2509 30.0191 10.3634 30.1129 10.5384C30.2379 10.7697 30.2504 11.0197 30.2566 11.2634C30.2566 12.1072 30.2254 12.4509 30.2004 13.2822C30.1941 13.5259 30.1504 14.0259 30.2629 14.4197C30.3066 14.5884 30.3566 14.7447 30.4316 14.9072C30.3816 14.7009 30.3566 14.5947 30.3316 14.4384C30.2629 14.0322 30.2816 13.6509 30.2941 13.2759C30.3191 12.5072 30.3629 12.1134 30.3879 11.1822C30.3941 10.9009 30.3691 10.6884 30.2379 10.4634C30.1004 10.2322 29.8629 10.0634 29.5941 10.0634C29.4816 10.0634 29.3879 10.0822 29.2941 10.1384C29.1066 10.2384 29.0191 10.4447 29.0191 10.6509L29.1566 10.6572Z" fill="#9E540A"/>
<path d="M29.1189 13.6696C29.1189 13.6696 29.2939 13.9821 29.4251 14.2071C29.5564 14.4321 29.6626 14.4821 29.7626 14.4133C29.8564 14.3446 29.7751 14.1633 29.7001 14.0758C29.6251 13.9883 29.2064 13.5821 29.2064 13.5821L29.1189 13.6696Z" fill="#9E540A" stroke="black" stroke-width="0.01375" stroke-linecap="round" stroke-linejoin="round"/>
<path d="M29.0754 13.6946C29.0754 13.6946 29.1441 14.0509 29.2004 14.3071C29.2504 14.5634 29.3379 14.6509 29.4441 14.6196C29.5566 14.5946 29.5379 14.3884 29.4941 14.2821C29.4504 14.1759 29.1879 13.6384 29.1879 13.6384L29.0754 13.6946Z" fill="#9E540A" stroke="black" stroke-width="0.01375" stroke-linecap="round" stroke-linejoin="round"/>
<path d="M29.0002 13.7071C29.0002 13.7071 29.0002 14.0696 29.0002 14.3321C29.0002 14.5946 29.0627 14.7008 29.1815 14.6946C29.294 14.6883 29.319 14.4883 29.294 14.3696C29.2752 14.2571 29.119 13.6758 29.119 13.6758L29.0002 13.7071Z" fill="#9E540A" stroke="black" stroke-width="0.01375" stroke-linecap="round" stroke-linejoin="round"/>
<path d="M29.0003 13.701C28.669 13.6947 28.6378 13.576 28.6378 13.576C28.6378 13.576 28.594 13.426 28.5878 13.3322C28.5815 13.3197 28.494 13.1322 28.519 13.051C28.4878 12.976 28.4128 12.7947 28.4815 12.7635C28.4503 12.676 28.4003 12.576 28.394 12.4822C28.369 12.4135 28.3065 12.2635 28.3565 12.2135C28.3565 12.2135 28.2378 11.9635 28.294 11.901C28.294 11.901 28.2378 11.6572 28.294 11.5947C28.294 11.5947 28.294 11.3447 28.3565 11.2822C28.3565 11.2822 28.3565 11.0385 28.4128 10.976C28.4128 10.9885 28.5878 10.6322 29.0003 10.6322L28.994 11.1635H29.0003V13.701Z" fill="#9E540A" stroke="black" stroke-width="0.01375" stroke-linecap="round" stroke-linejoin="round"/>
<path d="M29.0003 12.3383C28.4691 12.3321 28.3566 12.2133 28.3566 12.2133M29.0003 12.0258C28.4691 12.0258 28.2941 11.9008 28.2941 11.9008M29.0003 11.7196C28.4691 11.7133 28.2941 11.5946 28.2941 11.5946M29.0003 11.4071C28.4691 11.4008 28.3566 11.2821 28.3566 11.2821M28.9941 11.1633C29.0003 11.1633 28.5941 11.1633 28.5316 11.1008L28.4128 10.9821M29.0003 13.4508C28.8441 13.4508 28.6691 13.4258 28.5878 13.3321M29.0003 13.2008C28.7066 13.2008 28.5316 13.0821 28.5316 13.0821C28.5316 13.0821 28.5253 13.0696 28.5191 13.0508M29.0003 12.8946C28.6128 12.8883 28.5066 12.8071 28.4816 12.7633M29.0003 12.6446C28.4691 12.6446 28.4128 12.5196 28.4128 12.5196C28.4128 12.5196 28.4066 12.5071 28.3941 12.4821" stroke="black" stroke-width="0.01375" stroke-linecap="round" stroke-linejoin="round"/>
<path d="M29.0002 13.701C29.3314 13.6947 29.3627 13.576 29.3627 13.576C29.3627 13.576 29.4064 13.426 29.4127 13.3322C29.4189 13.3197 29.5064 13.1322 29.4814 13.051C29.5127 12.976 29.5877 12.7947 29.5189 12.7635C29.5502 12.676 29.6002 12.576 29.6064 12.4822C29.6314 12.4135 29.6939 12.2635 29.6439 12.2135C29.6439 12.2135 29.7627 11.9635 29.7064 11.901C29.7064 11.901 29.7627 11.6572 29.7064 11.5947C29.7064 11.5947 29.7064 11.3447 29.6439 11.2822C29.6439 11.2822 29.6439 11.0385 29.5877 10.976C29.5877 10.9885 29.4127 10.6322 29.0002 10.6322L29.0064 11.1635H29.0002V13.701Z" fill="#9E540A" stroke="black" stroke-width="0.01375" stroke-linecap="round" stroke-linejoin="round"/>
<path d="M29.0002 12.3383C29.5314 12.3321 29.6439 12.2133 29.6439 12.2133M29.0002 12.0258C29.5314 12.0258 29.7064 11.9008 29.7064 11.9008M29.0002 11.7196C29.5314 11.7133 29.7064 11.5946 29.7064 11.5946M29.0002 11.4071C29.5314 11.4008 29.6439 11.2821 29.6439 11.2821M29.0064 11.1633C29.0002 11.1633 29.4064 11.1633 29.4689 11.1008L29.5877 10.9821M29.0002 13.4508C29.1564 13.4508 29.3314 13.4258 29.4127 13.3321M29.0002 13.2008C29.2939 13.2008 29.4689 13.0821 29.4689 13.0821C29.4689 13.0821 29.4752 13.0696 29.4814 13.0508M29.0002 12.8946C29.3877 12.8883 29.4939 12.8071 29.5189 12.7633M29.0002 12.6446C29.5314 12.6446 29.5877 12.5196 29.5877 12.5196C29.5877 12.5196 29.5939 12.5071 29.6064 12.4821" stroke="black" stroke-width="0.01375" stroke-linecap="round" stroke-linejoin="round"/>
<path d="M26.4997 19.451C26.231 19.701 25.7122 19.5385 25.5497 19.426C25.381 19.4823 24.931 19.3073 24.8122 19.1135C24.4872 19.1573 24.3747 18.6948 24.431 18.576C24.5185 18.401 24.3622 18.2885 24.4747 18.1698C24.631 18.0198 24.3872 17.876 24.5372 17.776C24.6872 17.6698 24.4997 17.4948 24.6497 17.3823C24.806 17.2635 24.5685 17.101 24.731 17.0198C24.8935 16.9385 24.7122 16.726 24.8497 16.6448C24.9872 16.5635 24.7685 16.3573 24.956 16.2635C25.1372 16.1698 24.9747 16.0073 25.1185 15.9385C25.2747 15.8573 25.131 15.6885 25.2747 15.6323C25.4372 15.5635 25.3185 15.3823 25.456 15.3323C25.5747 15.2885 25.4997 15.176 25.5747 15.076H26.4997" fill="#009E49"/>
<path d="M26.4997 19.451C26.231 19.701 25.7122 19.5385 25.5497 19.426C25.381 19.4823 24.931 19.3073 24.8122 19.1135C24.4872 19.1573 24.3747 18.6948 24.431 18.576C24.5185 18.401 24.3622 18.2885 24.4747 18.1698C24.631 18.0198 24.3872 17.876 24.5372 17.776C24.6872 17.6698 24.4997 17.4948 24.6497 17.3823C24.806 17.2635 24.5685 17.101 24.731 17.0198C24.8935 16.9385 24.7122 16.726 24.8497 16.6448C24.9872 16.5635 24.7685 16.3573 24.956 16.2635C25.1372 16.1698 24.9747 16.0073 25.1185 15.9385C25.2747 15.8573 25.131 15.6885 25.2747 15.6323C25.4372 15.5635 25.3185 15.3823 25.456 15.3323C25.5747 15.2885 25.4997 15.176 25.5747 15.076H26.4997" stroke="black" stroke-width="0.01375" stroke-linecap="round" stroke-linejoin="round"/>
<path d="M25.8815 15.1135C25.7565 15.2385 25.9065 15.3323 25.7815 15.4823C25.6502 15.6385 25.769 15.7198 25.6627 15.8573C25.5565 15.9948 25.7127 16.0635 25.594 16.2198C25.4752 16.3698 25.619 16.4635 25.4877 16.5885C25.3627 16.7198 25.5127 16.8323 25.3815 16.9698C25.2565 17.1135 25.4065 17.2073 25.2815 17.3323C25.1502 17.4635 25.3002 17.601 25.1752 17.726C25.0502 17.8573 25.2002 18.0198 25.0565 18.1698C24.919 18.3198 25.0815 18.4385 24.969 18.551C24.8502 18.6698 24.9565 18.7885 24.8752 18.8698C24.794 18.951 24.7815 19.0635 24.8127 19.1135M26.1252 15.1573C26.0127 15.3135 26.1877 15.3823 26.0815 15.5073C25.9752 15.6385 26.1252 15.6823 26.044 15.8323C25.9627 15.9823 26.1065 16.0198 26.0002 16.1698C25.894 16.3198 26.0565 16.4385 25.944 16.5885C25.8252 16.7385 26.0002 16.8198 25.894 16.9698C25.794 17.126 25.944 17.2073 25.8502 17.3198C25.7565 17.4385 25.919 17.551 25.8002 17.6948C25.6877 17.8323 25.8502 17.9385 25.7565 18.0635C25.6627 18.1948 25.794 18.3323 25.7127 18.4385C25.6315 18.5385 25.769 18.6948 25.6502 18.8323C25.5377 18.9698 25.6752 19.0635 25.6065 19.1573C25.5377 19.251 25.4815 19.3885 25.5502 19.426" stroke="black" stroke-width="0.01375" stroke-linecap="round" stroke-linejoin="round"/>
<path d="M26.4995 19.451C26.7683 19.701 27.287 19.5385 27.4495 19.426C27.6183 19.4823 28.0683 19.3073 28.187 19.1135C28.512 19.1573 28.6245 18.6948 28.5683 18.576C28.4808 18.401 28.637 18.2885 28.5245 18.1698C28.3683 18.0198 28.612 17.876 28.462 17.776C28.312 17.6698 28.4995 17.4948 28.3495 17.3823C28.1933 17.2635 28.4308 17.101 28.2683 17.0198C28.1058 16.9385 28.287 16.726 28.1495 16.6448C28.012 16.5635 28.2308 16.3573 28.0433 16.2635C27.862 16.1698 28.0245 16.0073 27.8808 15.9385C27.7245 15.8573 27.8683 15.6885 27.7245 15.6323C27.562 15.5635 27.6808 15.3823 27.5433 15.3323C27.4245 15.2885 27.4995 15.176 27.4245 15.076H26.4995" fill="#009E49"/>
<path d="M26.4995 19.451C26.7683 19.701 27.287 19.5385 27.4495 19.426C27.6183 19.4823 28.0683 19.3073 28.187 19.1135C28.512 19.1573 28.6245 18.6948 28.5683 18.576C28.4808 18.401 28.637 18.2885 28.5245 18.1698C28.3683 18.0198 28.612 17.876 28.462 17.776C28.312 17.6698 28.4995 17.4948 28.3495 17.3823C28.1933 17.2635 28.4308 17.101 28.2683 17.0198C28.1058 16.9385 28.287 16.726 28.1495 16.6448C28.012 16.5635 28.2308 16.3573 28.0433 16.2635C27.862 16.1698 28.0245 16.0073 27.8808 15.9385C27.7245 15.8573 27.8683 15.6885 27.7245 15.6323C27.562 15.5635 27.6808 15.3823 27.5433 15.3323C27.4245 15.2885 27.4995 15.176 27.4245 15.076H26.4995" stroke="black" stroke-width="0.01375" stroke-linecap="round" stroke-linejoin="round"/>
<path d="M27.1178 15.1135C27.2428 15.2385 27.0928 15.3323 27.2178 15.4823C27.349 15.6385 27.2303 15.7198 27.3365 15.8573C27.4428 15.9948 27.2865 16.0635 27.4053 16.2198C27.524 16.3698 27.3803 16.4635 27.5115 16.5885C27.6365 16.7198 27.4865 16.8323 27.6178 16.9698C27.7428 17.1135 27.5928 17.2073 27.7178 17.3323C27.849 17.4635 27.699 17.601 27.824 17.726C27.949 17.8573 27.799 18.0198 27.9428 18.1698C28.0803 18.3198 27.9178 18.4385 28.0303 18.551C28.149 18.6698 28.0428 18.7885 28.124 18.8698C28.2053 18.951 28.2178 19.0635 28.1865 19.1135M26.874 15.1573C26.9865 15.3135 26.8115 15.3823 26.9178 15.5073C27.024 15.6385 26.874 15.6823 26.9553 15.8323C27.0365 15.9823 26.8928 16.0198 26.999 16.1698C27.1053 16.3198 26.9428 16.4385 27.0553 16.5885C27.174 16.7385 26.999 16.8198 27.1053 16.9698C27.2053 17.126 27.0553 17.2073 27.149 17.3198C27.2428 17.4385 27.0803 17.551 27.199 17.6948C27.3115 17.8323 27.149 17.9385 27.2428 18.0635C27.3365 18.1948 27.2053 18.3323 27.2865 18.4385C27.3678 18.5385 27.2303 18.6948 27.349 18.8323C27.4615 18.9698 27.324 19.0635 27.3928 19.1573C27.4615 19.251 27.5178 19.3885 27.449 19.426" stroke="black" stroke-width="0.01375" stroke-linecap="round" stroke-linejoin="round"/>
<path d="M26.5001 19.451V15.076" stroke="#009E49" stroke-width="0.01375" stroke-linecap="round" stroke-linejoin="round"/>
<path d="M26.5 15.301C26.4437 15.5448 26.5812 15.7573 26.5 15.9635C26.4187 16.1635 26.5562 16.2448 26.5125 16.4073C26.4625 16.5698 26.5687 16.6885 26.5 16.8635C26.4312 17.0385 26.5937 17.176 26.5 17.4073C26.4062 17.6323 26.5625 17.6885 26.5 17.9198C26.4312 18.1823 26.6187 18.3198 26.5 18.5073C26.3812 18.6948 26.6062 18.7385 26.5125 18.951C26.4187 19.1573 26.5687 19.2385 26.5 19.451" stroke="black" stroke-width="0.01375" stroke-linecap="round" stroke-linejoin="round"/>
<path d="M26.5939 16.0885C26.5626 16.1572 26.6876 16.3197 26.6189 16.4447C26.5439 16.5635 26.6564 16.751 26.5814 16.901C26.5064 17.051 26.7001 17.2385 26.6251 17.4135C26.5439 17.5885 26.6626 17.8072 26.6251 17.9697C26.5939 18.1322 26.7064 18.4447 26.6251 18.5572C26.5439 18.676 26.7064 18.7072 26.6126 18.9947C26.5189 19.2822 26.4564 19.0385 26.5126 18.951C26.6314 18.7572 26.3814 18.6947 26.5001 18.5072C26.6189 18.3197 26.4314 18.1822 26.5001 17.9197C26.5626 17.6885 26.4064 17.6322 26.5001 17.4072C26.5939 17.176 26.4314 17.0385 26.5001 16.8635C26.5689 16.6885 26.4626 16.5697 26.5126 16.4072C26.5564 16.2447 26.4189 16.1635 26.5001 15.9635C26.5626 15.7635 26.6251 16.0197 26.5939 16.0885ZM26.0689 16.2885C26.0251 16.3635 26.1439 16.5072 26.0376 16.651C25.9626 16.751 26.0876 16.8697 25.9814 17.0135C25.9126 17.1135 26.0501 17.2385 25.9564 17.3822C25.8939 17.4635 26.0001 17.6197 25.9251 17.7385C25.8501 17.8635 25.9626 17.9635 25.8314 18.126C25.7564 18.2135 25.8876 18.4322 25.8064 18.501C25.7251 18.5697 25.8001 18.8385 25.7439 18.876C25.6939 18.9197 25.7439 19.1135 25.6064 19.1572C25.6751 19.0635 25.5376 18.9697 25.6501 18.8322C25.7689 18.6947 25.6314 18.5385 25.7126 18.4385C25.7939 18.3322 25.6626 18.1947 25.7564 18.0635C25.8501 17.9385 25.6876 17.8322 25.8001 17.6947C25.9189 17.551 25.7564 17.4385 25.8501 17.3197C25.9439 17.2072 25.7939 17.126 25.8939 16.9697C26.0001 16.8197 25.8251 16.7385 25.9439 16.5885C26.0564 16.4385 25.8939 16.3197 26.0001 16.1697C26.1064 16.0197 25.9626 15.9822 26.0439 15.8322C26.1939 15.8885 26.1189 16.2135 26.0689 16.2885ZM25.7564 15.8822C25.6939 15.9822 25.7814 16.101 25.6876 16.226C25.5939 16.3572 25.6876 16.5197 25.5939 16.626C25.5001 16.726 25.6189 16.926 25.5001 17.0072C25.3814 17.0885 25.4564 17.3322 25.3626 17.4135C25.2689 17.4947 25.3626 17.726 25.2564 17.8447C25.1501 17.9635 25.2001 18.2072 25.1376 18.2635C25.0814 18.3197 25.2189 18.4385 25.1189 18.5197C25.0126 18.601 25.0126 18.7635 24.8751 18.8697C24.9564 18.7885 24.8501 18.6697 24.9689 18.551C25.0814 18.4385 24.9189 18.3197 25.0564 18.1697C25.2001 18.0197 25.0501 17.8572 25.1751 17.726C25.3001 17.601 25.1501 17.4635 25.2814 17.3322C25.4064 17.2072 25.2564 17.1135 25.3814 16.9697C25.5126 16.8322 25.3626 16.7197 25.4876 16.5885C25.6189 16.4635 25.4751 16.3697 25.5939 16.2197C25.7126 16.0635 25.5564 15.9947 25.6626 15.8572C25.7126 15.7947 25.7126 15.7385 25.7126 15.6885C25.7876 15.4947 25.7876 15.8322 25.7564 15.8822Z" fill="#FCD116" stroke="black" stroke-width="0.01375" stroke-linecap="round" stroke-linejoin="round"/>
<path d="M25.6313 15.2197C25.6313 13.9072 25.8126 13.451 26.5001 13.451C27.1876 13.451 27.3688 13.9072 27.3688 15.2197H25.6313Z" fill="#CE1126" stroke="black" stroke-width="0.01375" stroke-linecap="round" stroke-linejoin="round"/>
<path d="M25.6313 15.2197C25.6313 13.9072 25.8126 13.451 26.5001 13.451C26.1876 13.451 25.9938 13.6947 25.9438 13.8572C25.8876 14.0197 25.9188 14.0072 25.9876 13.9447C26.0563 13.8822 26.0251 14.0197 25.9626 14.0947C25.9063 14.1697 25.8501 14.3885 25.9313 14.3197C26.0126 14.2447 26.0751 14.326 25.9876 14.451C25.9001 14.5697 25.8251 14.8572 25.9126 14.7572C26.0001 14.6572 26.0188 14.8197 25.9626 14.901C25.9126 14.9822 25.9188 15.0572 25.9626 15.0197C26.0126 14.9822 26.0063 15.151 25.9626 15.2197H25.6313ZM26.8251 15.1947C26.8251 15.001 26.8313 14.5447 26.7251 14.3947C26.6501 14.276 26.6501 14.151 26.7376 14.2885C26.8251 14.426 26.8688 14.3572 26.8063 14.2197C26.7313 14.0447 26.6313 13.851 26.6563 13.8135C26.6876 13.7697 26.7063 13.7885 26.7688 13.8822C26.8313 13.976 26.8438 13.8385 26.7751 13.7447C26.7063 13.6572 26.7126 13.6385 26.8563 13.701C27.1126 13.8072 27.2376 14.1135 27.2376 15.1447L26.8251 15.1947Z" fill="black" stroke="black" stroke-width="0.01375" stroke-linecap="round" stroke-linejoin="round"/>
<path d="M26.4998 15.4072C26.2248 15.4072 25.9248 15.3635 25.7248 15.2822C25.4873 15.1885 25.4748 15.1072 25.5561 15.0072C25.6186 14.9322 25.7436 14.976 25.8686 15.0322C25.9873 15.0822 26.3248 15.1197 26.4998 15.1197C26.6748 15.1197 27.0123 15.0822 27.1311 15.026C27.2561 14.976 27.3811 14.9322 27.4436 15.0072C27.5248 15.1072 27.5123 15.1885 27.2748 15.2822C27.0748 15.3635 26.7748 15.4072 26.4998 15.4072Z" fill="#CE1126" stroke="black" stroke-width="0.01375" stroke-linecap="round" stroke-linejoin="round"/>
</g>
<defs>
<clipPath id="clip0_1_16998">
<rect y="0.0010376" width="30" height="30" rx="15" fill="white"/>
</clipPath>
</defs>
</svg>
