<svg width="30" height="30" viewBox="0 0 30 30" fill="none" xmlns="http://www.w3.org/2000/svg">
<path d="M0.000488281 15.0001C0.000488281 21.0522 3.58924 26.2672 8.74935 28.6346V1.36557C3.58924 3.73291 0.000488281 8.94792 0.000488281 15.0001Z" fill="#002569"/>
<path d="M30.0005 15.0001C30.0005 8.94792 26.4118 3.73291 21.2516 1.36557V28.6346C26.4118 26.2672 30.0005 21.0522 30.0005 15.0001Z" fill="#D21034"/>
<path d="M15.0007 9.15527e-05C12.7706 9.15527e-05 10.6572 0.487276 8.74959 1.36559V28.6346C10.6572 29.5061 12.7706 30.0001 15.0007 30.0001C17.2308 30.0001 19.3443 29.5061 21.2519 28.6346V1.36559C19.3443 0.487276 17.2308 9.15527e-05 15.0007 9.15527e-05Z" fill="#FFCE00"/>
</svg>
