<svg width="30" height="30" viewBox="0 0 30 30" fill="none" xmlns="http://www.w3.org/2000/svg">
<g clip-path="url(#clip0_1_17058)">
<path d="M-10 0.0010376H35V30.001H-10V0.0010376Z" fill="#002654"/>
<path d="M-2.5 0.0010376H15.8V12.301H-2.5V0.0010376Z" fill="white"/>
<path d="M-2.5 0.0010376H3.5V12.001H-2.5V0.0010376Z" fill="#002654"/>
<path d="M9.50012 0.0010376H15.5001V12.001H9.50012V0.0010376Z" fill="#CE1126"/>
<path d="M16.6249 13.726L17.5905 15.2635H20.3374V20.626L18.2749 17.401L15.4999 21.826H16.8499L18.2749 19.276L21.1999 24.526L24.1249 19.276L25.5499 21.826H26.8999L24.1249 17.401L22.0624 20.626V17.6635H23.2999L24.2186 16.201H22.0624V15.2635H24.8093L25.7749 13.726H16.6249ZM19.8499 20.2885H16.8499V21.3385H19.8499V20.2885ZM25.5499 20.2885H22.5499V21.3385H25.5499V20.2885Z" fill="white"/>
<path d="M21.2001 25.576L22.1258 28.4252L19.7021 26.6643H22.698L20.2743 28.4252L21.2001 25.576Z" fill="white"/>
<path d="M17.8251 23.0259L18.7508 25.8751L16.3271 24.1142H19.323L16.8993 25.8751L17.8251 23.0259Z" fill="white"/>
<path d="M24.5747 23.0259L25.5005 25.8751L23.0768 24.1142H26.0726L23.6489 25.8751L24.5747 23.0259Z" fill="white"/>
<path d="M14.9751 15.4512L15.9009 18.3004L13.4772 16.5395H16.473L14.0493 18.3004L14.9751 15.4512Z" fill="white"/>
<path d="M27.425 15.4512L28.3508 18.3004L25.9271 16.5395H28.923L26.4993 18.3004L27.425 15.4512Z" fill="white"/>
</g>
<defs>
<clipPath id="clip0_1_17058">
<rect y="0.0010376" width="30" height="30" rx="15" fill="white"/>
</clipPath>
</defs>
</svg>
