<svg width="30" height="30" viewBox="0 0 30 30" fill="none" xmlns="http://www.w3.org/2000/svg">
<path d="M3.01941 24.0038H26.981C28.2916 22.2609 29.2523 20.2229 29.6983 18.0065H0.302124C0.755006 20.2229 1.7088 22.254 3.01941 24.0038Z" fill="#FFCE00"/>
<path d="M15.0001 30.001C19.8995 30.001 24.2431 27.6406 26.9809 24.0038H3.01935C5.75723 27.6406 10.1008 30.001 15.0001 30.001Z" fill="#006A4E"/>
<path d="M15.0001 0.0010376C10.0939 0.0010376 5.75723 2.36837 3.01935 5.99829H26.9809C24.2431 2.36837 19.9063 0.0010376 15.0001 0.0010376Z" fill="#006A4E"/>
<path d="M3.02621 6.00513C1.70873 7.74804 0.754919 9.786 0.308899 12.0024H29.7051C29.2522 9.77914 28.2984 7.74804 26.9878 6.00513H3.02621Z" fill="#FFCE00"/>
<path d="M0.00012207 15.001C0.00012207 16.0303 0.103051 17.0321 0.302045 17.9996H29.6982C29.8972 17.0321 30.0001 16.0234 30.0001 15.001C30.0001 13.9717 29.8972 12.9699 29.6982 12.0024H0.302045C0.103051 12.9699 0.00012207 13.9786 0.00012207 15.001Z" fill="#006A4E"/>
<path d="M14.9933 0.0010376C6.711 0.00789945 0.00695801 6.71878 0.00695801 15.001C0.00695801 16.0303 0.109887 17.0321 0.308881 17.9997H14.9933V0.0010376Z" fill="#D21034"/>
<path d="M8.26191 5.90222L9.39413 9.38801H13.0584L10.094 11.5426L11.2262 15.0284L8.26191 12.8739L5.29074 15.0284L6.42981 11.5426L3.45862 9.38801H7.12286L8.26191 5.90222Z" fill="white"/>
</svg>
