<svg width="30" height="30" viewBox="0 0 30 30" fill="none" xmlns="http://www.w3.org/2000/svg">
<path d="M29.1767 19.9644H0.823547C1.46856 21.8299 2.46352 23.5302 3.73296 24.9827H26.2673C27.5367 23.5302 28.5317 21.8368 29.1767 19.9644Z" fill="#F1F4FB"/>
<path d="M26.2673 24.9827H3.73303C6.12782 27.7088 9.49012 29.5673 13.2779 30.001H16.7156C20.5102 29.5673 23.8726 27.7088 26.2673 24.9827Z" fill="#DE1018"/>
<path d="M15.0001 0.0010376C10.6085 0.0010376 6.65612 1.89412 3.91138 4.91615H26.0889C23.3441 1.901 19.3917 0.0010376 15.0001 0.0010376Z" fill="#DE1018"/>
<path d="M26.0889 4.91614H3.91144C2.60083 6.36176 1.56467 8.06211 0.892212 9.93453H29.1081C28.4357 8.06211 27.3995 6.36176 26.0889 4.91614Z" fill="#F1F4FB"/>
<path d="M30.0001 15.0493C30.0001 13.2526 29.6845 11.5316 29.1081 9.93457H0.892154C0.315759 11.5316 0.00012207 13.2526 0.00012207 15.0493C0.00012207 16.7702 0.29519 18.4224 0.823552 19.9644H29.1767C29.7051 18.4293 30.0001 16.7702 30.0001 15.0493Z" fill="#00247D"/>
</svg>
