<svg width="30" height="30" viewBox="0 0 30 30" fill="none" xmlns="http://www.w3.org/2000/svg">
<path d="M15.0071 30.001C20.6063 30.001 25.4714 26.9338 28.0514 22.3912H1.96271C4.5359 26.9338 9.40781 30.001 15.0071 30.001Z" fill="#378E01"/>
<path d="M15.0071 0.0010376C9.40781 0.0010376 4.5359 3.06826 1.96271 7.6108H28.0514C25.4714 3.07512 20.5995 0.0010376 15.0071 0.0010376Z" fill="#E0012E"/>
<path d="M1.9558 22.3912H28.0446C29.2797 20.2092 30.0002 17.6908 30.0002 15.001C30.0002 12.3112 29.2865 9.79285 28.0446 7.61078H1.9558C0.720671 9.79285 0.000183105 12.3112 0.000183105 15.001C0.000183105 17.6908 0.720671 20.2092 1.9558 22.3912Z" fill="#F1F4FB"/>
<path d="M12.283 18.2467L12.5781 18.6584L13.1407 18.6447L12.7085 19.1319L11.8576 19.1524L11.59 18.7957L12.084 18.7201L12.283 18.2467Z" fill="#FFCC00"/>
<path d="M14.2935 18.5074H14.6778L15.0003 18.2398L15.3159 18.5074H15.7002L15.3571 19.0221H14.6297L14.2935 18.5074Z" fill="#FFCC00"/>
<path d="M19.1861 20.319C17.6833 20.0102 16.6746 19.8592 15.0003 19.8592C13.326 19.8592 12.3174 20.0102 10.8215 20.319V19.6739C12.3174 19.3651 13.326 19.2142 15.0003 19.2142C16.6746 19.2142 17.6902 19.3651 19.1861 19.6739V20.319Z" fill="#FFCC00"/>
<path d="M17.7108 18.2467L17.4157 18.6584L16.8531 18.6447L17.2854 19.1319L18.1362 19.1524L18.4038 18.7957L17.9098 18.7201L17.7108 18.2467Z" fill="#FFCC00"/>
<path d="M19.385 18.1643C18.3077 18.1918 18.0676 17.4027 17.9235 17.0527C17.5392 17.5536 17.3265 17.7526 16.6952 17.7389C16.0502 17.7526 15.6385 17.4919 15.3297 16.991V14.8226C15.7963 14.7197 16.1325 14.3834 16.1325 13.9991C16.1325 13.5188 15.6247 13.1414 15.0072 13.1414C14.3828 13.1414 13.8818 13.5257 13.8818 13.9991C13.8818 14.3834 14.2181 14.7128 14.6847 14.8226V16.991C14.3759 17.4919 13.9573 17.7526 13.3123 17.7389C12.681 17.7526 12.4614 17.5536 12.084 17.0459C11.9468 17.3958 11.6998 18.1849 10.6225 18.1643C10.0186 18.1781 9.64122 17.9791 9.3942 17.4027C9.68239 18.2192 9.97745 18.679 10.8626 18.7065C11.6792 18.7202 12.0497 18.2467 12.2281 17.9242C12.8114 18.233 12.8732 18.3016 13.7034 18.281C14.3279 18.2604 14.6847 17.8555 15.0003 17.4713C15.3228 17.8555 15.6796 18.2604 16.2972 18.281C17.1275 18.3016 17.1893 18.233 17.7794 17.9242C17.9578 18.2467 18.3283 18.7202 19.138 18.7065C20.0232 18.679 20.3183 18.2124 20.6408 17.4027C20.3663 17.9791 19.9889 18.1849 19.385 18.1643ZM14.4171 13.9991C14.4171 13.8139 14.6778 13.6561 15.0072 13.6561C15.3297 13.6561 15.5904 13.807 15.5904 13.9991C15.5904 14.1844 15.3297 14.3355 15.0072 14.3355C14.6847 14.3355 14.4171 14.1844 14.4171 13.9991Z" fill="#FFCC00"/>
<path d="M15.0003 9.68311L15.1993 10.2938H15.8443L15.3228 10.6712L15.5218 11.2819L15.0003 10.9045L14.4788 11.2819L14.6778 10.6712L14.1563 10.2938H14.8013L15.0003 9.68311Z" fill="#FFCC00"/>
<path d="M17.9716 10.4516L18.1706 11.0623H18.8087L18.2872 11.4397L18.4931 12.0572L17.9716 11.6799L17.4501 12.0572L17.6491 11.4397L17.1276 11.0623H17.7726L17.9716 10.4516Z" fill="#FFCC00"/>
<path d="M20.1536 12.7778L20.3526 13.3885H20.9976L20.4761 13.7659L20.6751 14.3766L20.1536 14.006L19.6321 14.3766L19.8379 13.7659L19.3164 13.3885H19.9546L20.1536 12.7778Z" fill="#FFCC00"/>
<path d="M20.7917 15.598L20.9907 16.2087H21.6357L21.1142 16.5861L21.3132 17.2037L20.7917 16.8263L20.2702 17.2037L20.4692 16.5861L19.9477 16.2087H20.5927L20.7917 15.598Z" fill="#FFCC00"/>
<path d="M12.0497 10.4516L12.2556 11.0623H12.8937L12.3722 11.4397L12.5712 12.0572L12.0497 11.6799L11.5282 12.0572L11.7341 11.4397L11.2126 11.0623H11.8507L12.0497 10.4516Z" fill="#FFCC00"/>
<path d="M9.86769 12.764L10.0667 13.3816H10.7048L10.1902 13.7521L10.3892 14.3628L9.86769 13.9923L9.34619 14.3628L9.54519 13.7521L9.02368 13.3816H9.6687L9.86769 12.764Z" fill="#FFCC00"/>
<path d="M9.22268 15.598L9.41481 16.2087H10.0598L9.53832 16.5861L9.73732 17.2037L9.22268 16.8263L8.70117 17.2037L8.90017 16.5861L8.37866 16.2087H9.01682L9.22268 15.598Z" fill="#FFCC00"/>
</svg>
