<svg width="30" height="30" viewBox="0 0 30 30" fill="none" xmlns="http://www.w3.org/2000/svg">
<g clip-path="url(#clip0_1_17070)">
<path d="M45 0.0010376H-15V30.001H45V0.0010376Z" fill="#012169"/>
<path d="M1.74302 21.7354C1.38038 21.7323 5.1526 19.7249 8.30989 17.1535C12.4478 13.7835 21.3599 8.38789 23.9799 7.51112C24.2537 7.41948 23.4182 7.97766 23.3098 8.15848C20.5125 11.4693 22.7451 17.717 26.2412 20.8577C27.2924 21.6617 27.2386 21.7039 29.1874 21.7827V21.9647L1.74302 21.7354Z" fill="#FFD100"/>
<path d="M1.51539 22.1006C1.51539 22.1006 1.24922 22.2907 1.25 22.4323C1.25087 22.5895 1.54856 22.7972 1.54856 22.7972L28.6181 23.0958L29.1157 22.7641L28.4191 22.3328L1.51539 22.1006Z" fill="#FFD100"/>
<path d="M6.72266 4.43549H5.9187V4.83746L6.72266 4.43549Z" fill="white"/>
<path d="M6.723 4.43548L6.07258 4.90803L5.8363 4.58282L6.723 4.43548Z" fill="white"/>
<path d="M6.41604 5.38076L6.1676 4.61615L5.7853 4.74037L6.41604 5.38076Z" fill="white"/>
<path d="M6.41572 5.38089L5.76531 4.90834L6.00159 4.58313L6.41572 5.38089Z" fill="white"/>
<path d="M5.42185 5.38076L6.07227 4.9082L5.83599 4.583L5.42185 5.38076Z" fill="white"/>
<path d="M5.42199 5.38075L5.67043 4.61614L6.05273 4.74036L5.42199 5.38075Z" fill="white"/>
<path d="M5.11509 4.43565L5.7655 4.9082L6.00178 4.583L5.11509 4.43565Z" fill="white"/>
<path d="M5.11474 4.43573H5.9187V4.83771L5.11474 4.43573Z" fill="white"/>
<path d="M5.91854 3.85148L5.6701 4.61609L6.05241 4.74031L5.91854 3.85148Z" fill="white"/>
<path d="M5.91872 3.85159L6.16716 4.6162L5.78485 4.74042L5.91872 3.85159Z" fill="white"/>
<path d="M9.7736 7.24738H9.10364V7.58236L9.7736 7.24738Z" fill="white"/>
<path d="M9.77358 7.24745L9.23157 7.64125L9.03467 7.37024L9.77358 7.24745Z" fill="white"/>
<path d="M9.51712 8.03506L9.31009 7.39789L8.9915 7.5014L9.51712 8.03506Z" fill="white"/>
<path d="M9.51726 8.03504L8.97525 7.64125L9.17215 7.37024L9.51726 8.03504Z" fill="white"/>
<path d="M8.68959 8.03509L9.2316 7.6413L9.0347 7.37029L8.68959 8.03509Z" fill="white"/>
<path d="M8.6895 8.03506L8.89653 7.39789L9.21512 7.5014L8.6895 8.03506Z" fill="white"/>
<path d="M8.43321 7.24756L8.97522 7.64136L9.17212 7.37035L8.43321 7.24756Z" fill="white"/>
<path d="M8.43343 7.24754H9.10339V7.58252L8.43343 7.24754Z" fill="white"/>
<path d="M9.10339 6.76078L8.89636 7.39795L9.21495 7.50146L9.10339 6.76078Z" fill="white"/>
<path d="M9.10313 6.76084L9.31016 7.39801L8.99158 7.50153L9.10313 6.76084Z" fill="white"/>
<path d="M3.00696 8.17377H2.203V8.57575L3.00696 8.17377Z" fill="white"/>
<path d="M3.00754 8.17382L2.35713 8.64637L2.12085 8.32117L3.00754 8.17382Z" fill="white"/>
<path d="M2.70046 9.11873L2.45203 8.35413L2.06972 8.47834L2.70046 9.11873Z" fill="white"/>
<path d="M2.70076 9.11887L2.05034 8.64631L2.28662 8.32111L2.70076 9.11887Z" fill="white"/>
<path d="M1.70688 9.11879L2.3573 8.64624L2.12102 8.32103L1.70688 9.11879Z" fill="white"/>
<path d="M1.70703 9.11878L1.95546 8.35418L2.33777 8.47839L1.70703 9.11878Z" fill="white"/>
<path d="M1.39921 8.17381L2.04962 8.64636L2.2859 8.32115L1.39921 8.17381Z" fill="white"/>
<path d="M1.39947 8.1737H2.20343V8.57568L1.39947 8.1737Z" fill="white"/>
<path d="M2.20327 7.58946L1.95483 8.35406L2.33714 8.47828L2.20327 7.58946Z" fill="white"/>
<path d="M2.20345 7.58957L2.45188 8.35418L2.06958 8.47839L2.20345 7.58957Z" fill="white"/>
<path d="M6.85629 14.0396H5.91833V14.5086L6.85629 14.0396Z" fill="white"/>
<path d="M6.85637 14.0396L6.09756 14.591L5.8219 14.2115L6.85637 14.0396Z" fill="white"/>
<path d="M6.49785 15.1417L6.20801 14.2496L5.76199 14.3946L6.49785 15.1417Z" fill="white"/>
<path d="M6.49769 15.1417L5.73887 14.5904L6.01453 14.211L6.49769 15.1417Z" fill="white"/>
<path d="M5.3389 15.1437L6.09772 14.5923L5.82206 14.2129L5.3389 15.1437Z" fill="white"/>
<path d="M5.33866 15.1437L5.6285 14.2516L6.07452 14.3965L5.33866 15.1437Z" fill="white"/>
<path d="M4.98081 14.0399L5.73962 14.5912L6.01528 14.2118L4.98081 14.0399Z" fill="white"/>
<path d="M4.98051 14.0398H5.91846V14.5088L4.98051 14.0398Z" fill="white"/>
<path d="M5.91826 13.3581L5.62842 14.2502L6.07444 14.3951L5.91826 13.3581Z" fill="white"/>
<path d="M5.91887 13.3583L6.20872 14.2503L5.7627 14.3953L5.91887 13.3583Z" fill="white"/>
</g>
<defs>
<clipPath id="clip0_1_17070">
<rect y="0.0010376" width="30" height="30" rx="15" fill="white"/>
</clipPath>
</defs>
</svg>
