<svg width="30" height="30" viewBox="0 0 30 30" fill="none" xmlns="http://www.w3.org/2000/svg">
<path d="M6.01117 26.9887C8.51574 28.8688 11.6241 30.001 15.0002 30.001C23.2824 30.001 30.0002 23.2833 30.0002 15.001C30.0002 6.71878 23.2824 0.0010376 15.0002 0.0010376C11.6241 0.0010376 8.52261 1.12638 6.01117 3.00653L23.9961 14.9942L6.01117 26.9887Z" fill="#DC241F"/>
<path d="M16.0363 14.9941L4.92694 26.0829C5.2769 26.3985 5.64057 26.7004 6.01797 26.9818L24.0029 14.9873L6.01797 2.99963C5.64057 3.28783 5.2769 3.58285 4.92694 3.90536L16.0363 14.9941Z" fill="#FFC726"/>
<path d="M4.92005 3.91223C1.90084 6.65697 0.00012207 10.6026 0.00012207 15.001C0.00012207 19.3994 1.9077 23.3449 4.92005 26.0897L16.0294 15.001L4.92005 3.91223Z" fill="black"/>
<path d="M5.66805 19.1386L4.92009 15.9753L1.53033 15.7352L4.45349 14.0197L3.71242 10.8495L6.27187 12.9493L9.2019 11.2339L7.86383 14.253L10.4096 16.3596L7.01981 16.1264L5.66805 19.1386Z" fill="white"/>
</svg>
