<svg width="30" height="30" viewBox="0 0 30 30" fill="none" xmlns="http://www.w3.org/2000/svg">
<path d="M15 0.0010376C6.71774 0.0010376 0 6.71878 0 15.001C0 23.2833 6.71774 30.001 15 30.001C23.2823 30.001 30 23.2833 30 15.001C30 6.71878 23.2823 0.0010376 15 0.0010376Z" fill="#006A4E"/>
<path d="M11.5963 5.78552C12.4747 6.46485 13.0442 7.53533 13.0442 8.73615C13.0442 10.7947 11.3768 12.4621 9.3182 12.4621C8.76925 12.4621 8.24775 12.3454 7.77428 12.1259C8.43988 12.7228 9.31822 13.0865 10.2857 13.0865C12.3649 13.0865 14.0529 11.3985 14.0529 9.31939C14.0529 7.7 13.0305 6.32075 11.5963 5.78552Z" fill="white"/>
<path d="M9.64765 6.39624L10.0799 6.69813L10.5054 6.38251L10.3475 6.89028L10.7798 7.19224L10.2515 7.19911L10.0936 7.70688L9.92897 7.20598L9.39372 7.21963L9.8192 6.89715L9.64765 6.39624Z" fill="white"/>
<path d="M7.7401 5.43555L8.1724 5.74438L8.59784 5.42181L8.44003 5.92958L8.87233 6.23155L8.34395 6.24529L8.19297 6.74619L8.0146 6.24529L7.48622 6.25902L7.91165 5.93645L7.7401 5.43555Z" fill="white"/>
<path d="M5.83929 8.297L6.27159 8.59888L6.69703 8.28326L6.53922 8.79103L6.97152 9.093L6.44314 9.09978L6.2922 9.60764L6.11379 9.10665L5.59228 9.12039L6.01084 8.7979L5.83929 8.297Z" fill="white"/>
<path d="M7.7401 7.35688L8.1724 7.65876L8.59784 7.34314L8.44003 7.85091L8.87233 8.15279L8.34395 8.15966L8.19297 8.66743L8.0146 8.16653L7.48622 8.1734L7.91165 7.85778L7.7401 7.35688Z" fill="white"/>
<path d="M7.7401 9.27818L8.1724 9.58014L8.59784 9.26453L8.44003 9.7723L8.87233 10.0742L8.34395 10.081L8.19297 10.5888L8.0146 10.0879L7.48622 10.1017L7.91165 9.77917L7.7401 9.27818Z" fill="white"/>
</svg>
