<svg width="30" height="30" viewBox="0 0 30 30" fill="none" xmlns="http://www.w3.org/2000/svg">
<path d="M30 15.001C30 23.2833 23.2823 30.001 15 30.001C6.71774 30.001 0 23.2833 0 15.001C0 6.71878 6.71774 0.0010376 15 0.0010376C23.2823 0.0010376 30 6.71192 30 15.001Z" fill="#E70013"/>
<path d="M15.0001 7.50098C19.1447 7.50098 22.5001 10.8565 22.5001 15.001C22.5001 19.1456 19.1447 22.501 15.0001 22.501C10.8556 22.501 7.50012 19.1456 7.50012 15.001C7.50012 10.8565 10.8556 7.50098 15.0001 7.50098Z" fill="#F1F4FB"/>
<path d="M17.1205 19.6877C14.5267 19.6877 12.427 17.588 12.427 15.001C12.427 12.4073 14.5267 10.3143 17.1205 10.3143C18.3556 10.3143 19.4672 10.7947 20.3112 11.5701C19.2477 10.1017 17.5116 9.14099 15.556 9.14099C12.3172 9.14099 9.69598 11.7691 9.69598 15.001C9.69598 18.2398 12.3241 20.8679 15.556 20.8679C17.5116 20.8679 19.2477 19.9141 20.3112 18.4388C19.4672 19.2142 18.3487 19.6877 17.1205 19.6877Z" fill="#E70013"/>
<path d="M16.3452 11.625L17.8479 13.7248L20.3045 12.9356L18.7812 15.0148L20.2771 17.1145L17.8342 16.298L16.304 18.377L16.3178 15.7971L13.8749 14.9873L16.3315 14.2051L16.3452 11.625Z" fill="#E70013"/>
</svg>
