<svg width="30" height="30" viewBox="0 0 30 30" fill="none" xmlns="http://www.w3.org/2000/svg">
<path d="M30 15.001C30 23.2833 23.2823 30.001 15 30.001C6.71774 30.001 0 23.2833 0 15.001C0 6.71879 6.71774 0.00104285 15 0.00104285C23.2823 -0.005819 30 6.71192 30 15.001Z" fill="#E30A17"/>
<path d="M12.7631 20.4493C9.75072 20.4493 7.30789 18.0134 7.30789 14.9942C7.30789 11.9818 9.75072 9.5458 12.7631 9.5458C14.2658 9.5458 15.6245 10.1497 16.6126 11.1378C15.3911 9.39489 13.3669 8.2489 11.075 8.2489C7.34219 8.2489 4.323 11.2682 4.323 15.001C4.323 18.727 7.34219 21.7531 11.075 21.7531C13.3669 21.7531 15.3911 20.6072 16.6126 18.8643C15.6245 19.8386 14.2658 20.4493 12.7631 20.4493Z" fill="#F1F4FB"/>
<path d="M19.2957 12.1053L20.5582 13.9237L22.6786 13.2856L21.3336 15.0422L22.5962 16.8606L20.5102 16.1332L19.1653 17.8899L19.2133 15.6804L17.1273 14.9461L19.2477 14.3149L19.2957 12.1053Z" fill="#F1F4FB"/>
</svg>
