<svg width="30" height="30" viewBox="0 0 30 30" fill="none" xmlns="http://www.w3.org/2000/svg">
<path d="M0.00012207 15.001C0.00012207 23.2902 6.71787 30.001 15.0001 30.001C17.4841 30.001 19.8172 29.3904 21.8757 28.3199L1.41366 8.67444C0.514759 10.6026 0.00012207 12.7366 0.00012207 15.001Z" fill="#CE1126"/>
<path d="M30.0001 15.001C30.0001 6.71878 23.2824 0.0010376 15.0001 0.0010376C12.5161 0.0010376 10.1763 0.611716 8.11084 1.68903L28.5797 21.3414C29.4786 19.4132 30.0001 17.2654 30.0001 15.001Z" fill="#CE1126"/>
<path d="M2.31952 7.01384L23.5021 27.3524C25.1695 26.1996 26.5899 24.7175 27.674 23.002L6.48463 2.66345C4.8172 3.80938 3.39683 5.29838 2.31952 7.01384Z" fill="black"/>
<path d="M27.674 23.002C28.0102 22.4668 28.3121 21.9178 28.5797 21.3414L8.11086 1.68903C7.54818 1.97722 7.00606 2.29976 6.48456 2.66344L27.674 23.002Z" fill="#F1F4FB"/>
<path d="M1.41364 8.68121L21.8757 28.3267C22.4384 28.0385 22.9873 27.716 23.5019 27.3592L2.3194 7.02069C1.98317 7.54905 1.67439 8.10481 1.41364 8.68121Z" fill="#F1F4FB"/>
</svg>
