<svg width="30" height="30" viewBox="0 0 30 30" fill="none" xmlns="http://www.w3.org/2000/svg">
<path d="M30 15.001C30 23.2901 23.2823 30.001 15 30.001C6.71091 30.001 0 23.2833 0 15.001C0 6.71877 6.71778 0.0010376 15 0.0010376C23.2891 0.0010376 30 6.71877 30 15.001Z" fill="#5B97B1"/>
<path d="M17.7105 0.254922C16.8321 0.0971001 15.9264 0.0010376 15 0.0010376C6.71091 0.0010376 0 6.71877 0 15.001H17.7105V0.254922Z" fill="#01247D"/>
<path d="M7.77455 10.1085V15.001H8.70775V10.733L7.77455 10.1085Z" fill="white"/>
<path d="M12.4201 9.75171H17.7106V8.81165H11.0134L12.4201 9.75171Z" fill="white"/>
<path d="M4.21316 10.733V15.001H5.14636V10.1085L4.21316 10.733Z" fill="white"/>
<path d="M8.70773 4.28282V1.38715C8.38522 1.53124 8.07644 1.69589 7.76766 1.86057V4.90719L8.70773 4.28282Z" fill="white"/>
<path d="M1.33805 8.81165C1.25571 8.98319 1.18026 9.16162 1.11164 9.34689L1.90759 8.81165H1.33805Z" fill="white"/>
<path d="M17.7105 5.25031H12.4406L11.0339 6.19046H17.7105V5.25031Z" fill="white"/>
<path d="M5.14643 3.69958C4.88568 3.92603 4.6318 4.15926 4.39164 4.39942L5.14643 4.90041V3.69958Z" fill="white"/>
<path d="M11.0134 8.81165H7.77455V10.1085L8.70775 10.733L15.1099 15.001H17.7105V14.9598L9.88114 9.75171H11.6652L17.7105 13.7727V13.2787L12.42 9.75171L11.0134 8.81165Z" fill="white"/>
<path d="M5.14653 4.9004L4.39174 4.39941C3.83593 4.95522 3.32818 5.55228 2.86843 6.19043H5.1534V4.9004H5.14653Z" fill="white"/>
<path d="M7.77455 4.9004V6.19043H11.0339L12.4406 5.25028L17.7105 1.73702V0.248054C17.6145 0.227468 17.5184 0.213691 17.4223 0.193106L9.81941 5.25028H8.71462V4.80433L15.8921 0.028428C15.6382 0.0147043 15.3844 0.0010376 15.1305 0.0010376L8.71462 4.27595L7.77455 4.9004Z" fill="white"/>
<path d="M5.14654 10.1085V8.81165H1.90777L1.11181 9.34689C0.830476 10.0399 0.597173 10.7536 0.425627 11.4946L3.04681 9.75171H4.2202V10.1565L0.164874 12.8533C0.137426 13.066 0.109982 13.2787 0.0825348 13.4914L4.21334 10.733L5.14654 10.1085Z" fill="white"/>
<path d="M5.14642 8.81165V10.1085V15.001H7.77452V10.1085V8.81165H11.0133H17.7105V6.18359H11.0339H7.77452V4.89356V1.84686C6.83445 2.36836 5.95612 2.98597 5.14642 3.68587V4.89356V6.18359H2.86146C2.26448 7.00015 1.75667 7.87844 1.33124 8.81165H1.90765H5.14642Z" fill="#E31937"/>
<path d="M9.8812 9.75171L17.7106 14.9598V13.7727L11.6653 9.75171H9.8812Z" fill="#E31937"/>
<path d="M8.70785 5.25029H9.81264L17.4155 0.19312C16.9146 0.110778 16.4069 0.0558898 15.8854 0.0284424L8.70785 4.80434V5.25029Z" fill="#E31937"/>
<path d="M4.21322 9.75171H3.03987L0.41864 11.4946C0.30885 11.9407 0.219643 12.3935 0.157887 12.8533L4.21322 10.1565V9.75171Z" fill="#E31937"/>
<path d="M17.8616 23.0362L18.2046 24.0723H19.2888L18.4036 24.7105L18.7467 25.7467L17.8616 25.1016L16.9832 25.7467L17.3195 24.7105L16.4411 24.0723H17.5322L17.8616 23.0362Z" fill="#FFCE00"/>
<path d="M20.2426 22.0893L21.2171 22.5696L21.9787 21.7943L21.8209 22.8647L22.7953 23.345L21.7248 23.5302L21.5738 24.6076L21.0661 23.6469L19.9888 23.8322L20.7505 23.0499L20.2426 22.0893Z" fill="#FFCE00"/>
<path d="M20.1191 17.8006L21.1209 18.2191L21.8345 17.3958L21.7453 18.4799L22.7472 18.8916L21.6905 19.1455L21.6013 20.2297L21.0386 19.3034L19.9819 19.5572L20.6886 18.7269L20.1191 17.8006Z" fill="#FFCE00"/>
<path d="M23.7627 11.2064L24.7027 11.7485L25.5125 11.0211L25.286 12.0847L26.2261 12.6268L25.1488 12.7434L24.9223 13.8071L24.4763 12.812L23.399 12.9287L24.2087 12.2013L23.7627 11.2064Z" fill="#FFCE00"/>
<path d="M26.5761 9.97808L27.5436 10.4722L28.3121 9.70367L28.1406 10.7809L29.1081 11.2681L28.0308 11.4397L27.8592 12.517L27.372 11.5426L26.2947 11.7141L27.0632 10.9456L26.5761 9.97808Z" fill="#FFCE00"/>
<path d="M27.5231 17.2448L27.8593 18.281H28.9503L28.0652 18.9191L28.4014 19.9552L27.5231 19.317L26.6447 19.9552L26.981 18.9191L26.1027 18.281H27.1869L27.5231 17.2448Z" fill="#FFCE00"/>
<path d="M23.7422 21.0051L24.7234 21.4717L25.4714 20.6758L25.3341 21.7599L26.3153 22.2197L25.2449 22.4255L25.1077 23.5029L24.5861 22.5491L23.5157 22.748L24.2637 21.9589L23.7422 21.0051Z" fill="#FFCE00"/>
</svg>
