<svg width="30" height="30" viewBox="0 0 30 30" fill="none" xmlns="http://www.w3.org/2000/svg">
<path d="M30 15.001C30 23.2901 23.2822 30.001 15 30.001C6.71775 30.001 0 23.2833 0 15.001C0 6.71878 6.71775 0.0010376 15 0.0010376C23.2891 0.0010376 30 6.71878 30 15.001Z" fill="#FF0000"/>
<path d="M14.9931 0.0010376C6.71089 0.00789945 0 6.71878 0 15.001C0 15.399 0.0205853 15.7832 0.0480327 16.1744H14.9863V0.0010376H14.9931Z" fill="#000099"/>
<path d="M7.89154 6.86977L8.50911 4.58472L9.12667 6.86977H7.89154Z" fill="white"/>
<path d="M6.53291 7.55595L5.90848 5.27777L7.59649 6.95211L6.53291 7.55595Z" fill="white"/>
<path d="M5.70263 8.82536L4.00775 7.1579L6.31333 7.77548L5.70263 8.82536Z" fill="white"/>
<path d="M5.62027 10.3349L3.30783 9.73108L5.62027 9.12036V10.3349Z" fill="white"/>
<path d="M6.31333 11.6799L4.00775 12.2974L5.70263 10.6301L6.31333 11.6799Z" fill="white"/>
<path d="M7.59649 12.5033L5.90848 14.1776L6.53291 11.8995L7.59649 12.5033Z" fill="white"/>
<path d="M9.12667 12.5856L8.50911 14.8706L7.89154 12.5856H9.12667Z" fill="white"/>
<path d="M10.4853 11.8995L11.1098 14.1776L9.42175 12.5033L10.4853 11.8995Z" fill="white"/>
<path d="M11.3225 10.6301L13.0105 12.2974L10.7049 11.6799L11.3225 10.6301Z" fill="white"/>
<path d="M11.3979 9.12036L13.7104 9.73108L11.3979 10.3349V9.12036Z" fill="white"/>
<path d="M10.7049 7.77548L13.0105 7.1579L11.3225 8.82536L10.7049 7.77548Z" fill="white"/>
<path d="M9.42175 6.95211L11.1098 5.27777L10.4853 7.55595L9.42175 6.95211Z" fill="white"/>
<path d="M11.5146 9.72426C11.5146 11.3642 10.1697 12.6955 8.50909 12.6955C6.84852 12.6955 5.5036 11.3642 5.5036 9.72426C5.5036 8.08428 6.84852 6.75311 8.50909 6.75311C10.1697 6.75997 11.5146 8.09114 11.5146 9.72426Z" fill="#000099"/>
<path d="M11.1784 9.72422C11.1784 11.1789 9.98446 12.3592 8.50916 12.3592C7.03387 12.3592 5.8399 11.1789 5.8399 9.72422C5.8399 8.26951 7.03387 7.08929 8.50916 7.08929C9.98446 7.08929 11.1784 8.26951 11.1784 9.72422Z" fill="white"/>
</svg>
