<svg width="30" height="30" viewBox="0 0 30 30" fill="none" xmlns="http://www.w3.org/2000/svg">
<path d="M15 0.0010376C6.71775 0.0010376 0 6.71878 0 15.001C0 15.8656 0.0892015 16.7096 0.2333 17.5399L23.0284 2.34774C20.7022 0.865577 17.9506 0.0010376 15 0.0010376Z" fill="#1EB53A"/>
<path d="M15 30.001C23.2823 30.001 30 23.2833 30 15.001C30 14.1364 29.9108 13.2924 29.7667 12.4621L6.97165 27.6611C9.29782 29.1364 12.0426 30.001 15 30.001Z" fill="#00A3DD"/>
<path d="M6.97156 27.6611L29.7666 12.4621C29.65 11.7897 29.5059 11.1241 29.3069 10.4859L5.33844 26.4672C5.85308 26.8995 6.40203 27.2974 6.97156 27.6611Z" fill="#FCD116"/>
<path d="M23.0217 2.34088L0.226593 17.533C0.343244 18.2055 0.487342 18.8711 0.686336 19.5092L24.6548 3.52805C24.147 3.10262 23.598 2.70456 23.0217 2.34088Z" fill="#FCD116"/>
<path d="M27.4749 6.68447C26.6858 5.51109 25.7388 4.44745 24.6546 3.54169L0.686218 19.523C1.11851 20.8885 1.73608 22.1648 2.51147 23.3313C3.30059 24.5047 4.24752 25.5683 5.33169 26.474L29.3001 10.4927C28.8747 9.12037 28.2571 7.84412 27.4749 6.68447Z" fill="black"/>
</svg>
