<svg width="30" height="30" viewBox="0 0 30 30" fill="none" xmlns="http://www.w3.org/2000/svg">
<path d="M3.83581 24.9987H26.1506C27.4475 23.5508 28.463 21.8629 29.1217 19.9965H0.864662C1.53026 21.8697 2.54579 23.5577 3.83581 24.9987Z" fill="#FFE700"/>
<path d="M0.871423 20.0033H29.1286C29.6844 18.4388 30 16.7577 30 15.001H3.8147e-05C3.8147e-05 16.7577 0.315613 18.4388 0.871423 20.0033Z" fill="black"/>
<path d="M15 30.001C19.4396 30.001 23.4126 28.066 26.1574 24.9987H3.84261C6.58735 28.066 10.5604 30.001 15 30.001Z" fill="#DE3908"/>
<path d="M3.83581 5.0033C2.53892 6.44428 1.5234 8.13919 0.864662 10.0056H29.1217C28.463 8.13919 27.4475 6.45115 26.1506 5.0033H3.83581Z" fill="#FFE700"/>
<path d="M15 0.0010376C10.5604 0.0010376 6.58735 1.93602 3.84261 5.00327H26.1574C23.4058 1.93602 19.4327 0.0010376 15 0.0010376Z" fill="black"/>
<path d="M3.8147e-05 15.001H30C30 13.2444 29.6844 11.5701 29.1286 9.99872H0.871423C0.315613 11.5701 3.8147e-05 13.2444 3.8147e-05 15.001Z" fill="#DE3908"/>
<path d="M19.7286 15.0011C19.7286 17.6154 17.6083 19.7289 15.0008 19.7289C12.3864 19.7289 10.273 17.6154 10.273 15.0011C10.273 12.3867 12.3933 10.2733 15.0008 10.2733C17.6083 10.2733 19.7286 12.3867 19.7286 15.0011Z" fill="white"/>
<path d="M10.2454 15.0011C10.2454 12.3798 12.3726 10.2526 14.9939 10.2526C17.6151 10.2526 19.7422 12.3798 19.7422 15.0011C19.7422 17.6223 17.6151 19.7494 14.9939 19.7494C12.3726 19.7494 10.2454 17.6223 10.2454 15.0011ZM10.2866 15.0011C10.2935 17.6017 12.4001 19.7083 15.0007 19.7151C17.6014 19.7083 19.7079 17.6086 19.7148 15.0011C19.7079 12.4004 17.6014 10.2938 15.0007 10.287C12.3932 10.2938 10.2935 12.4004 10.2866 15.0011Z" fill="#231F20"/>
<path d="M13.813 10.7741C13.9777 10.5957 14.2315 10.5408 14.4648 10.5408C14.705 10.534 14.952 10.5751 15.1785 10.678C15.3157 10.7467 15.4392 10.8359 15.5284 10.9663C15.6451 11.0966 15.7548 11.2408 15.796 11.4123C15.8097 11.4672 15.8303 11.5221 15.8235 11.5838C15.6656 11.625 15.5078 11.6593 15.3432 11.7004C15.3569 11.9132 15.2745 12.1259 15.1441 12.2906C15.0824 12.3798 14.9932 12.4553 14.9109 12.5308C14.7873 12.6749 14.7324 12.867 14.705 13.0523C14.6707 13.3199 14.6844 13.5875 14.7324 13.8551C14.8697 13.8276 14.9931 13.91 15.1098 13.958C15.6039 14.1982 16.0911 14.4452 16.5988 14.6648C16.6675 14.6923 16.7361 14.7197 16.8047 14.7403C16.839 14.7471 16.8527 14.7883 16.8665 14.8158C17.1272 14.9118 17.3743 15.0353 17.587 15.2137C17.7517 15.3509 17.8889 15.5225 17.9781 15.7215C18.0467 15.8793 18.081 16.0577 18.081 16.2361C18.081 16.6204 17.93 16.9841 17.7105 17.2929C17.5732 17.485 17.4086 17.6565 17.2096 17.78C17.1204 17.8281 17.0243 17.883 16.9145 17.8761C16.9145 17.8555 16.9145 17.835 16.9282 17.8144C16.9762 17.732 17.0311 17.6566 17.086 17.5811C17.038 17.6085 16.99 17.6428 16.9282 17.6428C16.9008 17.6428 16.8665 17.6291 16.8665 17.5948C16.8665 17.5537 16.8939 17.5193 16.9213 17.485C16.8253 17.5193 16.7293 17.5674 16.6263 17.5948C16.6057 17.6017 16.5851 17.588 16.5714 17.588C16.5714 17.5811 16.5646 17.5605 16.5577 17.5536C16.5852 17.5125 16.6263 17.485 16.6606 17.4438C16.6194 17.4301 16.5852 17.4095 16.5577 17.3821C16.5577 17.3752 16.5577 17.3683 16.5509 17.3615C16.7224 17.2791 16.8733 17.1557 16.9625 16.991C17.0586 16.8263 17.0861 16.6341 17.0655 16.4489C17.0449 16.6204 16.9351 16.7782 16.7841 16.8743C16.7704 16.8674 16.7635 16.8537 16.7498 16.84C16.7978 16.7645 16.8253 16.6753 16.8253 16.5861C16.8184 16.5861 16.791 16.5929 16.7841 16.5929C16.7361 16.5106 16.7018 16.4283 16.6469 16.3459C16.5028 16.3116 16.3587 16.2842 16.2078 16.2705C16.1048 16.2567 16.0018 16.243 15.8921 16.2636C15.8646 16.2705 15.8303 16.2774 15.8166 16.3048C15.8029 16.3734 15.8303 16.4351 15.8509 16.4969C15.9058 16.641 15.9813 16.7714 16.0705 16.9018C16.0979 16.9498 16.1391 16.991 16.1597 17.0459C16.1803 17.1351 16.1528 17.2311 16.0911 17.2997C16.0636 17.3272 16.0293 17.3546 15.9881 17.3477C15.844 17.334 15.7068 17.3203 15.5627 17.3203C15.4735 17.3203 15.3843 17.3204 15.2951 17.341C15.2745 17.3821 15.2677 17.4301 15.2608 17.4713C15.254 17.6222 15.2608 17.7732 15.2677 17.9242C15.2883 18.1712 15.3089 18.4251 15.3432 18.6721C15.5216 18.6721 15.7069 18.6927 15.8715 18.7613C15.9676 18.8025 16.0499 18.8779 16.0979 18.974C15.8441 18.9397 15.5902 18.9397 15.3363 18.9809C15.0893 19.022 14.856 19.1112 14.6432 19.2416C14.5197 19.3171 14.4031 19.4063 14.307 19.5161C14.2727 19.4612 14.2521 19.3857 14.2727 19.324C14.3138 19.1867 14.4099 19.0769 14.5128 18.974C14.3001 18.9397 14.0806 18.9466 13.8678 18.9603C13.8884 18.8505 13.9982 18.8025 14.0943 18.7613C14.3138 18.6858 14.554 18.6584 14.7873 18.6584C14.8697 18.6584 14.952 18.6652 15.0343 18.6721C15.0412 18.4114 15.0069 18.1437 14.9863 17.883C14.9657 17.7046 14.952 17.5194 14.9246 17.3341C14.6913 17.3409 14.4511 17.3272 14.2178 17.2997C14.1286 17.286 14.0188 17.286 13.9433 17.3477C13.8267 17.4369 13.7718 17.5811 13.7306 17.7114C13.7101 17.7526 13.7031 17.8075 13.6688 17.835C13.6345 17.8487 13.6002 17.8144 13.5865 17.7869C13.5385 17.6908 13.5316 17.5811 13.511 17.4782C13.4836 17.5605 13.4561 17.6291 13.4424 17.7114C13.4218 17.8075 13.4287 17.9105 13.4287 18.0134C13.3052 17.9311 13.2709 17.7801 13.264 17.636C13.2022 17.7801 13.1405 17.9242 13.0787 18.0683C13.0513 17.8761 13.0238 17.6703 13.0718 17.4782C13.0993 17.3478 13.1748 17.2312 13.2846 17.1625C13.4081 17.0802 13.5591 17.0733 13.6963 17.039C13.9982 17.0047 14.3001 17.0253 14.602 17.0321C14.7118 17.039 14.8285 17.0459 14.9383 17.0596C14.9588 16.9772 14.952 16.888 14.952 16.7988C14.952 16.6342 14.9383 16.4764 14.9246 16.3117C14.7942 16.2019 14.6775 16.0715 14.554 15.9548C14.3413 15.8862 14.1561 15.7627 13.9914 15.6117C13.8953 15.5294 13.813 15.4402 13.7306 15.351C13.7101 15.3579 13.6894 15.399 13.6688 15.3784C13.5179 15.2206 13.3876 15.0353 13.3052 14.8295C13.2229 14.6099 13.1953 14.3697 13.2228 14.1364C13.264 13.8551 13.3738 13.5806 13.5248 13.3404C13.662 13.1071 13.8404 12.8945 14.0325 12.7023C13.9639 12.6749 13.8953 12.6268 13.8885 12.5444C13.8747 12.4209 13.957 12.3112 14.0394 12.222C13.8884 12.2425 13.7306 12.2632 13.5727 12.2769C13.5041 12.2769 13.4356 12.2837 13.3738 12.2563C13.5316 12.2151 13.6894 12.1808 13.8541 12.1533C13.9227 12.1396 13.9845 12.1327 14.0531 12.1259C14.0531 12.1122 14.06 12.0916 14.0669 12.0779C14.0257 12.0779 13.9914 12.0779 13.9571 12.0847C13.7512 12.1191 13.5522 12.1602 13.3532 12.2151C13.3532 12.2219 13.3532 12.2494 13.3463 12.2563C13.3395 12.2357 13.3258 12.2014 13.3463 12.1808C13.3806 12.1328 13.4355 12.1053 13.4835 12.0779C13.6619 11.9955 13.8473 11.9406 14.0325 11.8857C13.9708 11.7622 13.9776 11.6044 14.0394 11.4809C14.06 11.426 14.1012 11.3849 14.1286 11.3368C14.0188 11.1516 13.9159 10.9594 13.813 10.7741Z" fill="black"/>
<path d="M13.8747 10.781C14.0257 10.6369 14.2521 10.5889 14.458 10.5889C14.458 10.6849 14.4442 10.781 14.4442 10.8771C14.4374 10.9732 14.4236 11.0693 14.4305 11.1585C14.3413 11.1928 14.2521 11.227 14.1766 11.2888C14.1697 11.2888 14.1561 11.2888 14.1492 11.2888C14.06 11.1172 13.9708 10.9526 13.8747 10.781Z" fill="#DE3107"/>
<path d="M14.5129 10.5957C14.5815 10.582 14.6433 10.5957 14.7119 10.6026C14.9727 10.6369 15.2403 10.7261 15.4256 10.9251C15.4461 10.9388 15.4256 10.9663 15.4187 10.98C15.3295 11.1104 15.254 11.2476 15.1579 11.3711C15.0138 11.227 14.8079 11.1447 14.6021 11.1516C14.5609 11.1516 14.5267 11.1584 14.4855 11.1584C14.4855 10.9663 14.506 10.781 14.5129 10.5957Z" fill="#FEE601"/>
<path d="M15.4666 10.9869C15.6244 11.131 15.748 11.3299 15.7686 11.5426C15.6176 11.577 15.4735 11.6181 15.3225 11.6456C15.3019 11.5564 15.2539 11.4741 15.199 11.4123C15.2813 11.2682 15.3705 11.1241 15.4666 10.9869Z" fill="#DE3107"/>
<path d="M14.8491 11.4192C14.9452 11.4672 15.0344 11.5427 15.0687 11.6456C15.1236 11.7897 15.0824 11.9544 14.9932 12.0848C14.9315 12.1808 14.8422 12.2631 14.7325 12.2837C14.6776 12.2974 14.6021 12.3112 14.5609 12.2632C14.5335 12.222 14.5129 12.1534 14.5472 12.1054C14.6089 12.023 14.7393 12.0093 14.7942 11.9201C14.8765 11.7691 14.8766 11.5839 14.8491 11.4192Z" fill="#9BA59C"/>
<path d="M14.3345 11.7486C14.3963 11.7143 14.4717 11.7692 14.4649 11.8378C14.4649 11.9064 14.3757 11.9476 14.3208 11.9064C14.2659 11.879 14.2659 11.7761 14.3345 11.7486Z" fill="#FFFEFF"/>
<path d="M14.0875 12.2426C14.1149 12.2289 14.1356 12.2632 14.163 12.2701C14.2179 12.3181 14.3071 12.3593 14.314 12.4416C14.2934 12.4896 14.2797 12.5308 14.2454 12.5651C14.1836 12.6062 14.1149 12.6337 14.0395 12.6474C13.964 12.6406 13.9091 12.5582 13.9297 12.4827C13.9571 12.3867 14.0188 12.3043 14.0875 12.2426Z" fill="#DE3107"/>
<path d="M14.0531 13.1003C14.1766 12.8945 14.3139 12.6955 14.4717 12.5171C14.4854 12.524 14.4991 12.5308 14.5128 12.5377C14.4305 12.8465 14.2795 13.1415 14.2521 13.464C14.2246 13.6905 14.2864 13.9306 14.41 14.1296C14.3413 14.1296 14.2796 14.1159 14.2109 14.1159C14.2315 14.1845 14.2521 14.2531 14.2795 14.3218C14.2109 14.3149 14.1424 14.308 14.0737 14.3012C14.1012 14.356 14.1355 14.4178 14.1629 14.4727C14.108 14.459 14.0531 14.4452 13.9982 14.4315C14.0188 14.4932 14.0325 14.5619 14.0325 14.6236C14.0257 14.6305 14.005 14.6374 13.9982 14.6442C13.9639 14.6237 13.9296 14.5962 13.8885 14.5688C13.8816 14.6511 13.8747 14.7334 13.8541 14.8089C13.8129 14.7334 13.7718 14.6511 13.7512 14.5688C13.6757 14.3286 13.6894 14.0679 13.7443 13.8209C13.8129 13.5601 13.9228 13.3199 14.0531 13.1003Z" fill="#9BA59C"/>
<path d="M14.7049 13.9168C14.7392 13.8825 14.7941 13.8895 14.8421 13.8963C14.9382 13.9169 15.0205 13.9649 15.1097 14.006C15.6243 14.2531 16.1321 14.5139 16.6605 14.7403C16.5575 14.706 16.4546 14.6854 16.3517 14.658C16.3998 14.706 16.4409 14.754 16.4889 14.802C16.3311 14.754 16.1733 14.6991 16.0086 14.6511C15.9194 14.6237 15.8371 14.5825 15.7547 14.5482C15.6381 14.4933 15.5214 14.4452 15.4048 14.3835C15.3156 14.3354 15.2126 14.3285 15.1097 14.3423C15.0273 14.3491 14.9587 14.4178 14.9519 14.4933C14.9313 14.6237 14.9862 14.7746 15.1029 14.8364C15.2127 14.905 15.3156 14.9668 15.4391 15.0148C15.5764 15.1177 15.6998 15.2412 15.8233 15.351C15.8233 15.3579 15.8233 15.3784 15.8233 15.3853C15.9469 15.4813 16.0773 15.5637 16.1939 15.6598C16.3929 15.8245 16.5919 16.0097 16.7223 16.2361C16.7566 16.3116 16.8115 16.3872 16.784 16.4695C16.7497 16.4283 16.7291 16.3803 16.7017 16.3391C16.489 15.9891 16.187 15.6872 15.8165 15.502C15.6861 15.4333 15.5489 15.3853 15.4048 15.351C15.1921 15.303 14.9931 15.2 14.849 15.0353C14.6706 14.8295 14.5882 14.5481 14.595 14.2805C14.595 14.1913 14.602 14.0953 14.65 14.0198C14.6569 13.9923 14.6705 13.9443 14.7049 13.9168Z" fill="#9BA59C"/>
<path d="M15.0892 14.3972C15.1716 14.3698 15.2539 14.3903 15.3294 14.4109C15.5284 14.5001 15.7205 14.5962 15.9195 14.6717C16.1391 14.7472 16.3586 14.8089 16.5713 14.8775C16.6674 14.9736 16.7566 15.0765 16.8458 15.1795C16.6605 15.0971 16.4753 15.0011 16.2832 14.9256C16.242 14.905 16.1939 14.905 16.1459 14.905C16.2351 14.9736 16.3175 15.049 16.3861 15.1382C16.4067 15.1657 16.4341 15.2 16.4479 15.2343C16.2695 15.1794 16.091 15.1314 15.8989 15.104C15.8989 15.1246 15.8714 15.152 15.8989 15.1589C15.9744 15.2137 16.0568 15.2618 16.1185 15.3304C16.0293 15.3235 15.947 15.3098 15.8578 15.3167C15.7411 15.2 15.6176 15.0902 15.4872 14.9804C15.446 14.9461 15.3843 14.9324 15.3431 14.905C15.2539 14.8569 15.1716 14.8089 15.0892 14.754C15.0206 14.6854 14.9863 14.5893 15 14.4933C15 14.459 15.0412 14.4109 15.0892 14.3972Z" fill="#FFFEFF"/>
<path d="M16.5028 14.7609C16.5988 14.7815 16.6881 14.809 16.7773 14.8433C17.0174 14.9256 17.2576 15.0354 17.4635 15.1932C17.6556 15.3373 17.8272 15.5294 17.9164 15.749C17.985 15.8931 18.0056 16.0578 18.0193 16.2225C18.0124 16.6411 17.834 17.0527 17.5664 17.3752C17.4429 17.5262 17.3056 17.6566 17.141 17.7527C17.0861 17.7801 17.0312 17.8076 16.9694 17.8213C17.0518 17.684 17.1546 17.5605 17.2644 17.4438C17.2644 17.437 17.2576 17.4233 17.2576 17.4165C17.2438 17.4165 17.2233 17.4096 17.2164 17.4165C17.1204 17.4851 17.0243 17.5879 16.9008 17.6017C16.9283 17.533 16.9831 17.4782 17.038 17.437C17.038 17.4233 17.038 17.4164 17.038 17.4027C16.9831 17.3959 16.942 17.4301 16.8939 17.4507C16.8047 17.485 16.7155 17.5331 16.6195 17.5468C16.6469 17.5193 16.6743 17.4988 16.7018 17.4645C16.7155 17.4507 16.7087 17.4302 16.7087 17.4096C16.6812 17.4027 16.6538 17.3958 16.6263 17.389C16.6263 17.3821 16.6263 17.3752 16.6263 17.3684C16.8185 17.2586 16.9763 17.0871 17.0449 16.8812C17.1272 16.6479 17.1135 16.394 17.0449 16.1607C17.0312 16.1607 17.0106 16.1607 16.99 16.1607C17.0381 16.3734 16.99 16.6067 16.8321 16.7645C16.839 16.6822 16.8596 16.6067 16.8527 16.5313C16.8253 16.3254 16.7086 16.147 16.5782 15.996C16.3724 15.7627 16.1254 15.5637 15.8647 15.399C15.9745 15.3922 16.0842 15.4196 16.194 15.4265C16.1734 15.351 16.1116 15.303 16.0567 15.255C16.0636 15.2412 16.0774 15.2343 16.0842 15.2275C16.2352 15.2618 16.3862 15.3099 16.5302 15.351C16.4822 15.2344 16.3998 15.1383 16.3244 15.0422C16.3449 15.0491 16.3656 15.0559 16.3862 15.0628C16.5646 15.1451 16.7361 15.2343 16.9213 15.3167C16.9556 15.3304 16.9694 15.2824 16.9419 15.2618C16.8459 15.152 16.743 15.0423 16.6469 14.9325C16.6126 14.8501 16.5508 14.8158 16.5028 14.7609Z" fill="#DE3107"/>
<path d="M14.7737 15.2C14.8903 15.3578 15.0139 15.5157 15.158 15.6392C15.206 15.6735 15.2471 15.7147 15.2952 15.7559C15.2883 15.7696 15.2746 15.7834 15.2678 15.7971C15.1923 15.749 15.0962 15.7353 15.0139 15.7559C14.9315 15.7696 14.8491 15.8039 14.7737 15.8313C14.6845 15.6255 14.7188 15.399 14.7737 15.2Z" fill="#9BA59C"/>
<path d="M15.2265 16.4489C15.4118 16.545 15.5627 16.7165 15.6245 16.9223C15.6382 16.9841 15.652 17.0527 15.6108 17.1076C15.5765 17.1351 15.5353 17.1351 15.501 17.1351C15.4118 17.1351 15.3295 17.1351 15.2403 17.1145C15.2403 16.8949 15.2265 16.6685 15.2265 16.4489Z" fill="#FFFEFF"/>
</svg>
