<svg width="30" height="30" viewBox="0 0 30 30" fill="none" xmlns="http://www.w3.org/2000/svg">
<path d="M1.14588 9.23499C0.974299 9.64678 0.816438 10.0655 0.686035 10.4979H3.04016L1.14588 9.23499Z" fill="#01247D"/>
<path d="M28.8466 20.7814C29.0181 20.3628 29.176 19.9372 29.3133 19.498H26.918L28.8466 20.7814Z" fill="#01247D"/>
<path d="M4.35156 25.5625C6.0468 27.2707 8.14699 28.5673 10.5011 29.3082V21.4669L4.35156 25.5625Z" fill="#01247D"/>
<path d="M10.5002 0.687073C8.13919 1.42798 6.03902 2.73142 4.33691 4.44649L10.5002 8.5558V0.687073Z" fill="#01247D"/>
<path d="M29.3131 10.4979C29.1758 10.0724 29.0249 9.64678 28.8533 9.23499L26.959 10.4979H29.3131Z" fill="#01247D"/>
<path d="M19.4985 29.3082C21.8527 28.5673 23.9528 27.2707 25.6412 25.5625L19.4985 21.4669V29.3082Z" fill="#01247D"/>
<path d="M0.686035 19.498C0.823302 19.9372 0.981158 20.3628 1.15274 20.7814L3.08134 19.498H0.686035Z" fill="#01247D"/>
<path d="M25.6618 4.44649C23.9666 2.73142 21.8595 1.42798 19.4985 0.687073V8.5558L25.6618 4.44649Z" fill="#01247D"/>
<path d="M29.7662 17.6251H17.625V29.7609C18.2633 29.6443 18.8878 29.5002 19.4987 29.3081V21.4669L25.6414 25.5625C26.3346 24.8627 26.9591 24.0944 27.5082 23.2643L21.8391 19.4911H25.4012L28.4896 21.5492C28.6132 21.2954 28.7299 21.0347 28.8397 20.774L26.9111 19.4911H29.3064C29.5054 18.8874 29.6564 18.2631 29.7662 17.6251Z" fill="#F1F4FB"/>
<path d="M10.5008 0.687117V8.55584L4.33752 4.44654C3.65805 5.13257 3.04721 5.87348 2.51187 6.67613L8.25647 10.4905H4.6944L1.53041 8.38433C1.39314 8.65874 1.26961 8.94 1.14607 9.22814L3.04035 10.4905H0.686223C0.49405 11.1011 0.343059 11.7253 0.233246 12.3633H12.3745V0.220581C11.7362 0.344066 11.1116 0.495029 10.5008 0.687117Z" fill="#F1F4FB"/>
<path d="M0.233398 17.6251C0.350075 18.2631 0.494202 18.8874 0.686375 19.498H3.08168L1.15308 20.7809C1.51684 21.659 1.96981 22.4891 2.48456 23.2711L8.16054 19.498H10.5009V20.3143L3.68565 24.8421C3.89841 25.0891 4.1249 25.3292 4.35139 25.5625L10.5009 21.4669V29.3081C11.1118 29.5002 11.7363 29.6512 12.3746 29.7609V17.6251H0.233398Z" fill="#F1F4FB"/>
<path d="M29.3129 10.4974H26.9588L28.8531 9.23503C28.4756 8.32947 28.0157 7.47195 27.4735 6.66929L21.7152 10.4974H19.4984V9.60551L26.2656 5.10513C26.0666 4.8856 25.8675 4.6661 25.6548 4.45343L19.4915 8.56274V0.694013C18.8807 0.501925 18.2561 0.350975 17.6178 0.241211V12.384H29.759C29.6561 11.7322 29.5051 11.1079 29.3129 10.4974Z" fill="#F1F4FB"/>
<path d="M29.7662 12.377H17.625V0.234264C16.774 0.0833375 15.8955 0.0010376 14.9964 0.0010376C14.0973 0.0010376 13.2256 0.0833375 12.3746 0.234264V12.377H0.233356C0.0823626 13.2277 0 14.1058 0 15.0045C0 15.8963 0.0823626 16.7744 0.233356 17.6319H12.3746V29.7678C13.2256 29.9187 14.1041 30.001 14.9964 30.001C15.8886 30.001 16.7671 29.9187 17.625 29.7678V17.6319H29.7662C29.9172 16.7813 29.9996 15.9032 29.9996 15.0045C30.0065 14.1058 29.9241 13.2277 29.7662 12.377Z" fill="#CF142B"/>
<path d="M21.8457 19.498L27.5148 23.2711C27.8786 22.7223 28.208 22.1529 28.4963 21.5561L25.4078 19.498H21.8457Z" fill="#CF142B"/>
<path d="M19.4985 10.4973H21.7154L27.4737 6.66921C27.1031 6.12038 26.705 5.59898 26.2658 5.10504L19.4985 9.60543V10.4973Z" fill="#CF142B"/>
<path d="M10.5007 19.498H8.16035L2.48438 23.2711C2.84813 23.82 3.25307 24.3481 3.68546 24.8421L10.5007 20.3143V19.498Z" fill="#CF142B"/>
<path d="M8.25636 10.4973L2.51176 6.68292C2.148 7.23174 1.81856 7.80115 1.52344 8.39799L4.68743 10.5041H8.25636V10.4973Z" fill="#CF142B"/>
</svg>
