<svg width="30" height="30" viewBox="0 0 30 30" fill="none" xmlns="http://www.w3.org/2000/svg">
<path d="M0.411964 18.4658H29.5956C29.774 17.718 29.8906 16.9497 29.9523 16.1608H0.0552368C0.116979 16.9428 0.233597 17.7112 0.411964 18.4658Z" fill="#F1F4FB"/>
<path d="M2.36713 23.0769H27.6335C28.1 22.3497 28.5048 21.5745 28.8478 20.7719H1.15286C1.49588 21.5814 1.90064 22.3497 2.36713 23.0769Z" fill="#F1F4FB"/>
<path d="M7.01156 27.6949H22.9891C24.0251 27.0432 24.9718 26.268 25.8156 25.3899H4.18512C5.02893 26.268 5.98252 27.0432 7.01156 27.6949Z" fill="#F1F4FB"/>
<path d="M22.996 2.31348H7.01845C5.98255 2.9652 5.03583 3.7404 4.19202 4.61852H25.8225C24.9787 3.7404 24.0251 2.9652 22.996 2.31348Z" fill="#F1F4FB"/>
<path d="M1.15976 20.7714H28.8547C29.1634 20.0304 29.4104 19.2621 29.5956 18.4663H0.411987C0.597215 19.2621 0.851043 20.0304 1.15976 20.7714Z" fill="#BF0A30"/>
<path d="M4.18513 25.3894H25.8156C26.4948 24.6828 27.1053 23.9076 27.6336 23.0844H2.36716C2.90226 23.9076 3.50596 24.6828 4.18513 25.3894Z" fill="#BF0A30"/>
<path d="M15.0038 30.0005C17.94 30.0005 20.6772 29.1498 22.996 27.6954H7.0184C9.33032 29.1567 12.0676 30.0005 15.0038 30.0005Z" fill="#BF0A30"/>
<path d="M0.411987 11.5421H29.5956C29.4104 10.7463 29.1566 9.97797 28.8478 9.23706H1.1529C0.844186 9.97797 0.597215 10.7463 0.411987 11.5421Z" fill="#BF0A30"/>
<path d="M0.00723267 15.0007C0.00723267 15.3918 0.0278185 15.776 0.0552596 16.1533H29.9523C29.9798 15.7691 30.0004 15.3849 30.0004 15.0007C30.0004 14.6097 29.9798 14.2256 29.9523 13.8483H0.0552596C0.0278185 14.2324 0.00723267 14.6097 0.00723267 15.0007Z" fill="#BF0A30"/>
<path d="M4.18513 4.61908C3.50596 5.32569 2.8954 6.09403 2.36716 6.92412H27.6336C27.1053 6.09403 26.4948 5.32569 25.8156 4.61908H4.18513Z" fill="#BF0A30"/>
<path d="M15.0038 0.0010376C12.0676 0.0010376 9.33037 0.851709 7.0116 2.31295H22.9892C20.6773 0.851709 17.94 0.0010376 15.0038 0.0010376Z" fill="#BF0A30"/>
<path d="M0.0552368 13.8478H29.9523C29.8906 13.0589 29.774 12.2904 29.5956 11.5427H0.411964C0.233597 12.2904 0.116979 13.0589 0.0552368 13.8478Z" fill="#F1F4FB"/>
<path d="M1.15286 9.23656H28.8478C28.5117 8.42705 28.1 7.65871 27.6335 6.93152H2.36713C1.90064 7.65185 1.49588 8.42705 1.15286 9.23656Z" fill="#F1F4FB"/>
<path d="M14.9897 0.0010376C6.70935 0.00789945 0 6.71878 0 15.001C0 15.399 0.0205754 15.7833 0.0480165 16.1744H14.9828V0.0010376H14.9897Z" fill="#002868"/>
<path d="M0.91963 9.83405C0.899049 9.88893 0.885327 9.9438 0.864746 9.99869L0.91963 9.83405Z" fill="#F1F4FB"/>
<path d="M0.7549 10.3144C0.706878 10.4722 0.651995 10.6368 0.603973 10.8014L0.7549 10.3144Z" fill="#F1F4FB"/>
<path d="M1.48213 15.3095L1.03622 14.9871L0.590305 15.3095L0.761812 14.7882L0.315887 14.4657H0.864712L1.03622 13.9443L1.20773 14.4657H1.74968L1.31063 14.7882L1.48213 15.3095Z" fill="#F1F4FB"/>
<path d="M3.48535 13.0589L3.04628 12.7364L2.60037 13.0589L2.77187 12.5375L2.32596 12.2151H2.87477L3.04628 11.6937L3.21093 12.2151H3.75975L3.3207 12.5375L3.48535 13.0589Z" fill="#F1F4FB"/>
<path d="M3.3618 7.96053L3.52645 8.48192L3.0874 8.15951L2.64147 8.48192L2.81298 7.96053L2.36707 7.63812H2.91589L3.0874 7.1236L3.25204 7.63812H3.80086L3.3618 7.96053Z" fill="#F1F4FB"/>
<path d="M5.57772 15.3095L5.13867 14.9871L4.69275 15.3095L4.86426 14.7882L4.41833 14.4657H4.96716L5.13867 13.9443L5.30332 14.4657H5.85214L5.40622 14.7882L5.57772 15.3095Z" fill="#F1F4FB"/>
<path d="M5.60517 10.177L5.40622 10.3211L5.57772 10.8425L5.13867 10.52L4.69275 10.8425L4.86426 10.3211L4.66531 10.177L4.41833 9.9986H4.96716L5.13867 9.47729L5.30332 9.9986H5.85214L5.60517 10.177Z" fill="#F1F4FB"/>
<path d="M5.40622 5.64123L5.57772 6.15575L5.13867 5.8402L4.69275 6.15575L4.86426 5.64123L4.41833 5.31881H4.96716L5.13867 4.79742L5.30332 5.31881H5.85214L5.40622 5.64123Z" fill="#F1F4FB"/>
<path d="M7.58779 13.2235L7.14187 12.8942L6.70281 13.2235L6.86746 12.6952L6.42841 12.3797H6.97723L7.14187 11.8514L7.31338 12.3797H7.8622L7.41629 12.6952L7.58779 13.2235Z" fill="#F1F4FB"/>
<path d="M7.46425 8.12523L7.6289 8.64662L7.18299 8.32421L6.74393 8.64662L6.91544 8.12523L6.46951 7.80282H7.01834L7.18299 7.28143L7.35449 7.80282H7.90331L7.46425 8.12523Z" fill="#F1F4FB"/>
<path d="M7.49862 3.50036L7.67013 4.01488L7.23107 3.69933L6.78516 4.01488L6.9498 3.50036L6.51074 3.17794H7.05957L7.23107 2.65656L7.39572 3.17794H7.94455L7.49862 3.50036Z" fill="#F1F4FB"/>
<path d="M9.68017 15.3095L9.23425 14.9871L8.79519 15.3095L8.95984 14.7882L8.52078 14.4657H9.06961L9.23425 13.9443L9.40575 14.4657H9.95458L9.50866 14.7882L9.68017 15.3095Z" fill="#F1F4FB"/>
<path d="M9.70761 10.177L9.50866 10.3211L9.68017 10.8425L9.23425 10.52L8.79519 10.8425L8.95984 10.3211L8.76089 10.177L8.52078 9.9986H9.06961L9.23425 9.47729L9.40575 9.9986H9.95458L9.70761 10.177Z" fill="#F1F4FB"/>
<path d="M9.50866 5.64123L9.68017 6.15575L9.23425 5.8402L8.79519 6.15575L8.95984 5.64123L8.52078 5.31881H9.06961L9.23425 4.79742L9.40575 5.31881H9.95458L9.50866 5.64123Z" fill="#F1F4FB"/>
<path d="M11.6902 13.2235L11.2443 12.8942L10.8053 13.2235L10.9699 12.6952L10.5309 12.3797H11.0797L11.2443 11.8514L11.4158 12.3797H11.9646L11.5187 12.6952L11.6902 13.2235Z" fill="#F1F4FB"/>
<path d="M11.5598 8.12523L11.7313 8.64662L11.2854 8.32421L10.8395 8.64662L11.011 8.12523L10.572 7.80282H11.1208L11.2854 7.28143L11.4569 7.80282H12.0058L11.5598 8.12523Z" fill="#F1F4FB"/>
<path d="M11.6011 3.50036L11.7726 4.01488L11.3267 3.69933L10.8807 4.01488L11.0522 3.50036L10.6132 3.17794H11.1551L11.3267 2.65656L11.4982 3.17794H12.047L11.6011 3.50036Z" fill="#F1F4FB"/>
<path d="M13.7826 15.3095L13.3367 14.9871L12.8908 15.3095L13.0623 14.7882L12.6233 14.4657H13.1652L13.3367 13.9443L13.5082 14.4657H14.0502L13.6111 14.7882L13.7826 15.3095Z" fill="#F1F4FB"/>
<path d="M13.8101 10.177L13.6111 10.3211L13.7826 10.8425L13.3367 10.52L12.8908 10.8425L13.0623 10.3211L12.8634 10.177L12.6233 9.9986H13.1652L13.3367 9.47729L13.5082 9.9986H14.0502L13.8101 10.177Z" fill="#F1F4FB"/>
<path d="M13.6111 5.64123L13.7826 6.15575L13.3367 5.8402L12.8908 6.15575L13.0623 5.64123L12.6233 5.31881H13.1652L13.3367 4.79742L13.5082 5.31881H14.0502L13.6111 5.64123Z" fill="#F1F4FB"/>
<path d="M13.6111 1.0644L13.7826 1.58579L13.3367 1.2633L12.8908 1.58579L13.0623 1.0644L12.6233 0.741908H13.1652L13.3367 0.22052L13.5082 0.741908H14.0502L13.6111 1.0644Z" fill="#F1F4FB"/>
<path d="M9.23424 1.26329L9.6733 1.58578L9.50179 1.0644L9.56353 1.02319C9.33029 1.11238 9.1039 1.20845 8.87065 1.31136L8.78146 1.58578L9.23424 1.26329Z" fill="#F1F4FB"/>
<path d="M9.23425 4.79742L9.06961 5.31881H8.52078L8.95984 5.64123L8.79519 6.15575L9.23425 5.8402L9.68017 6.15575L9.50866 5.64123L9.95458 5.31881H9.40575L9.23425 4.79742Z" fill="#F1F4FB"/>
<path d="M9.23425 9.47729L9.06961 9.9986H8.52078L8.76089 10.177L8.95984 10.3211L8.79519 10.8425L9.23425 10.52L9.68017 10.8425L9.50866 10.3211L9.70761 10.177L9.95458 9.9986H9.40575L9.23425 9.47729Z" fill="#F1F4FB"/>
<path d="M9.40575 14.4657L9.23425 13.9443L9.06961 14.4657H8.52078L8.95984 14.7882L8.79519 15.3095L9.23425 14.9871L9.68017 15.3095L9.50866 14.7882L9.95458 14.4657H9.40575Z" fill="#F1F4FB"/>
<path d="M5.13867 4.79742L4.96716 5.31881H4.41833L4.86426 5.64123L4.69275 6.15575L5.13867 5.8402L5.57772 6.15575L5.40622 5.64123L5.85214 5.31881H5.30332L5.13867 4.79742Z" fill="#F1F4FB"/>
<path d="M5.13867 9.47729L4.96716 9.9986H4.41833L4.66531 10.177L4.86426 10.3211L4.69275 10.8425L5.13867 10.52L5.57772 10.8425L5.40622 10.3211L5.60517 10.177L5.85214 9.9986H5.30332L5.13867 9.47729Z" fill="#F1F4FB"/>
<path d="M5.30332 14.4657L5.13867 13.9443L4.96716 14.4657H4.41833L4.86426 14.7882L4.69275 15.3095L5.13867 14.9871L5.57772 15.3095L5.40622 14.7882L5.85214 14.4657H5.30332Z" fill="#F1F4FB"/>
<path d="M0.590332 10.8422C0.597104 10.8287 0.603869 10.8151 0.603869 10.8016L0.590332 10.8422Z" fill="#F1F4FB"/>
<path d="M1.03627 9.47729L0.919647 9.83396C0.960809 9.72419 1.00883 9.62131 1.04999 9.51155L1.03627 9.47729Z" fill="#F1F4FB"/>
<path d="M1.48216 10.8425L1.31065 10.3211L1.50961 10.177L1.75658 9.99859H1.20775L1.04997 9.51154C1.00881 9.61444 0.960784 9.72418 0.919623 9.83395L0.864739 9.99859C0.830438 10.1015 0.789273 10.2113 0.754972 10.3142L0.761839 10.3211L0.604045 10.8013C0.597185 10.815 0.597192 10.8288 0.590332 10.8425L1.02939 10.52L1.48216 10.8425Z" fill="#F1F4FB"/>
<path d="M1.20773 14.4657L1.03622 13.9443L0.864712 14.4657H0.315887L0.761812 14.7882L0.590305 15.3095L1.03622 14.9871L1.48213 15.3095L1.31063 14.7882L1.74968 14.4657H1.20773Z" fill="#F1F4FB"/>
<path d="M11.2854 7.28143L11.1208 7.80282H10.572L11.011 8.12523L10.8395 8.64662L11.2854 8.32421L11.7313 8.64662L11.5598 8.12523L12.0058 7.80282H11.4569L11.2854 7.28143Z" fill="#F1F4FB"/>
<path d="M11.4158 12.3797L11.2443 11.8514L11.0797 12.3797H10.5309L10.9699 12.6952L10.8053 13.2235L11.2443 12.8942L11.6902 13.2235L11.5187 12.6952L11.9646 12.3797H11.4158Z" fill="#F1F4FB"/>
<path d="M7.18299 7.28143L7.01834 7.80282H6.46951L6.91544 8.12523L6.74393 8.64662L7.18299 8.32421L7.6289 8.64662L7.46425 8.12523L7.90331 7.80282H7.35449L7.18299 7.28143Z" fill="#F1F4FB"/>
<path d="M7.31338 12.3797L7.14187 11.8514L6.97723 12.3797H6.42841L6.86746 12.6952L6.70281 13.2235L7.14187 12.8942L7.58779 13.2235L7.41629 12.6952L7.8622 12.3797H7.31338Z" fill="#F1F4FB"/>
<path d="M3.0874 7.1236L2.91589 7.63812H2.36707L2.81298 7.96053L2.64147 8.48192L3.0874 8.15951L3.52645 8.48192L3.3618 7.96053L3.80086 7.63812H3.25204L3.0874 7.1236Z" fill="#F1F4FB"/>
<path d="M3.21093 12.2151L3.04628 11.6937L2.87477 12.2151H2.32596L2.77187 12.5375L2.60037 13.0589L3.04628 12.7364L3.48535 13.0589L3.3207 12.5375L3.75975 12.2151H3.21093Z" fill="#F1F4FB"/>
<path d="M13.3367 4.79742L13.1652 5.31881H12.6233L13.0623 5.64123L12.8908 6.15575L13.3367 5.8402L13.7826 6.15575L13.6111 5.64123L14.0502 5.31881H13.5082L13.3367 4.79742Z" fill="#F1F4FB"/>
<path d="M7.23107 2.65656L7.05957 3.17794H6.51074L6.9498 3.50036L6.78516 4.01488L7.23107 3.69933L7.67013 4.01488L7.49862 3.50036L7.94455 3.17794H7.39572L7.23107 2.65656Z" fill="#F1F4FB"/>
<path d="M11.3267 2.65656L11.1551 3.17794H10.6132L11.0522 3.50036L10.8807 4.01488L11.3267 3.69933L11.7726 4.01488L11.6011 3.50036L12.047 3.17794H11.4982L11.3267 2.65656Z" fill="#F1F4FB"/>
<path d="M13.3367 0.22052L13.1652 0.741908H12.6233L13.0623 1.0644L12.8908 1.58579L13.3367 1.2633L13.7826 1.58579L13.6111 1.0644L14.0502 0.741908H13.5082L13.3367 0.22052Z" fill="#F1F4FB"/>
<path d="M13.3367 9.47729L13.1652 9.9986H12.6233L12.8634 10.177L13.0623 10.3211L12.8908 10.8425L13.3367 10.52L13.7826 10.8425L13.6111 10.3211L13.8101 10.177L14.0502 9.9986H13.5082L13.3367 9.47729Z" fill="#F1F4FB"/>
<path d="M13.5082 14.4657L13.3367 13.9443L13.1652 14.4657H12.6233L13.0623 14.7882L12.8908 15.3095L13.3367 14.9871L13.7826 15.3095L13.6111 14.7882L14.0502 14.4657H13.5082Z" fill="#F1F4FB"/>
</svg>
