<svg width="30" height="30" viewBox="0 0 30 30" fill="none" xmlns="http://www.w3.org/2000/svg">
<path d="M2.53206 23.3313H27.4749C28.1611 22.302 28.71 21.1836 29.1354 19.9965H0.878357C1.29007 21.1836 1.83902 22.3089 2.53206 23.3313Z" fill="#F1F4FB"/>
<path d="M0.871492 20.0033H29.1286C29.506 18.9397 29.7736 17.8281 29.904 16.6685H0.0960999C0.226475 17.8281 0.49409 18.9397 0.871492 20.0033Z" fill="#0038A8"/>
<path d="M9.15527e-05 15.001C9.15527e-05 15.5637 0.0343899 16.1195 0.0961465 16.6685H29.904C29.9658 16.1195 30.0001 15.5637 30.0001 15.001C30.0001 14.4383 29.9658 13.8826 29.904 13.3336H0.0961465C0.0343899 13.8826 9.15527e-05 14.4383 9.15527e-05 15.001Z" fill="#F1F4FB"/>
<path d="M15.0001 30.001C18.5683 30.001 21.8414 28.7521 24.4214 26.6661H5.58566C8.15886 28.7521 11.432 30.001 15.0001 30.001Z" fill="#F1F4FB"/>
<path d="M5.5788 26.6661H24.4146C25.5948 25.7124 26.6241 24.5939 27.4681 23.3313H2.52527C3.36928 24.5939 4.40542 25.7192 5.5788 26.6661Z" fill="#0038A8"/>
<path d="M2.53217 6.67072H27.475C26.631 5.40814 25.6017 4.28967 24.4215 3.33588H5.58568C4.40544 4.28281 3.37617 5.40814 2.53217 6.67072Z" fill="#0038A8"/>
<path d="M5.57877 3.33589H24.4145C21.8413 1.24988 18.5682 0.0010376 14.9932 0.0010376C11.4319 0.0010376 8.15882 1.24988 5.57877 3.33589Z" fill="#F1F4FB"/>
<path d="M0.87149 9.99867H29.1286C28.71 8.81157 28.1611 7.6931 27.468 6.66382H2.5252C1.83901 7.6931 1.29006 8.81843 0.87149 9.99867Z" fill="#F1F4FB"/>
<path d="M0.0960999 13.3337H29.904C29.7736 12.174 29.506 11.0623 29.1286 9.99872H0.871492C0.49409 11.0623 0.226475 12.174 0.0960999 13.3337Z" fill="#0038A8"/>
<path d="M14.9931 0.0010376C6.71089 0.00789945 0 6.71878 0 15.001C0 15.5637 0.0342983 16.1195 0.096055 16.6685H14.9863V0.0010376H14.9931Z" fill="#F1F4FB"/>
<path d="M8.95467 7.87847L12.0013 5.77191L9.88789 8.81167L13.5384 9.49098L9.88789 10.136L12.0013 13.1895L8.95467 11.0692L8.29594 14.7128L7.63721 11.0624L4.59055 13.1621L6.70399 10.1223L3.04663 9.44986L6.70399 8.79793L4.58368 5.74444L7.63721 7.8716L8.29594 4.22113L8.95467 7.87847Z" fill="#FCD116" stroke="black" stroke-width="0.1" stroke-miterlimit="20"/>
<path d="M8.27548 4.24866H8.30294L8.31665 14.6787H8.28235L8.27548 4.24866Z" fill="black"/>
<path d="M4.57681 5.75825L4.59742 5.73077L12.0151 13.1759L11.9945 13.2033L4.57681 5.75825Z" fill="black"/>
<path d="M3.04663 9.46373V9.42938L13.5384 9.47059V9.50485L3.04663 9.46373Z" fill="black"/>
<path d="M4.57681 13.1484L11.967 5.78564L11.9945 5.80617L4.59742 13.1758L4.57681 13.1484Z" fill="black"/>
<path d="M10.0116 9.51847C10.0116 10.4654 9.24309 11.2339 8.2893 11.2339C7.3355 11.2339 6.56699 10.4654 6.56699 9.51847C6.56699 8.56468 7.3355 7.79614 8.2893 7.79614C9.24309 7.79614 10.0116 8.57154 10.0116 9.51847Z" fill="#FCD116"/>
<path d="M6.5531 9.51848C6.5531 8.55782 7.32849 7.78241 8.28915 7.78241C9.24981 7.78241 10.0252 8.55782 10.0252 9.51848C10.0252 10.4791 9.24981 11.2545 8.28915 11.2545C7.32849 11.2545 6.5531 10.4791 6.5531 9.51848ZM6.58742 9.51848C6.58742 10.4586 7.34907 11.2202 8.28915 11.2202C9.22922 11.2202 9.99089 10.4586 9.99089 9.51848C9.99089 8.5784 9.22922 7.81675 8.28915 7.80988C7.34907 7.81675 6.58742 8.5784 6.58742 9.51848Z" fill="black"/>
<path d="M7.02653 8.77746C6.94419 8.87353 6.98537 8.84602 7.09515 8.79798C7.20494 8.75681 7.51372 8.66081 7.62351 8.68825C7.80192 8.74315 8.04895 8.88726 8.07639 8.86667C8.11757 8.83236 7.84996 8.59903 7.71959 8.57844C7.56862 8.55099 7.45198 8.54415 7.33532 8.59218C7.21867 8.64021 7.09515 8.70884 7.02653 8.77746Z" fill="black"/>
<path d="M7.41758 10.1704C7.37641 10.239 7.29407 10.4174 7.43816 10.1841C7.58226 9.95078 7.45189 10.1086 7.41758 10.1704Z" fill="black"/>
<path d="M7.36266 8.88715C7.25973 9.04497 7.27344 9.09303 7.3695 9.17537C7.28716 9.03127 7.36266 8.88715 7.36266 8.88715Z" fill="black"/>
<path d="M7.78123 9.04504C7.78123 9.12052 7.69204 9.20972 7.61655 9.20972C7.54107 9.20972 7.40384 9.16851 7.40384 9.08617C7.40384 9.00382 7.49304 8.88715 7.67831 8.88715C7.76065 8.88715 7.78123 8.9627 7.78123 9.04504Z" fill="black"/>
<path d="M7.1225 9.00387C6.97841 8.98329 7.45186 8.8392 7.60282 8.84606C7.76064 8.85292 7.89102 8.86666 7.9665 8.94901C8.04198 9.03821 7.7881 8.92841 7.6989 8.93527C7.60969 8.93527 7.19112 9.01073 7.1225 9.00387Z" fill="black"/>
<path d="M7.17737 9.05872C7.17737 9.05872 7.32833 9.17542 7.49988 9.196C7.66456 9.21659 7.87728 9.08617 7.91159 9.15479C7.9459 9.22341 7.74004 9.2646 7.58908 9.25774C7.43812 9.25087 7.17737 9.05872 7.17737 9.05872Z" fill="black"/>
<path d="M9.55163 8.77748C9.48301 8.70887 9.35951 8.64024 9.24286 8.59907C9.12621 8.5579 9.00955 8.56475 8.85173 8.58533C8.72136 8.60592 8.45375 8.83925 8.49492 8.87356C8.52237 8.89415 8.7694 8.7569 8.94781 8.69515C9.06446 8.6677 9.36638 8.75684 9.48303 8.80487C9.59282 8.84605 9.64084 8.87355 9.55163 8.77748Z" fill="black"/>
<path d="M8.28894 9.90956C8.17915 9.90956 8.12427 9.83409 8.00076 9.83409C7.87724 9.83409 7.71255 9.87529 7.63021 9.94391C7.61649 9.95763 7.70569 9.84786 7.82234 9.79296C7.92527 9.74493 7.92527 9.53224 8.01447 9.55969C8.01447 9.62144 7.96644 9.60768 7.95272 9.69689C7.95272 9.77237 8.04192 9.79295 8.1174 9.69689C8.10367 9.83413 8.28209 9.82044 8.28209 9.82044C8.28209 9.82044 8.4605 9.83413 8.44677 9.69689C8.52911 9.79295 8.61832 9.77237 8.61832 9.69689C8.60459 9.60768 8.55656 9.62144 8.55656 9.55969C8.64577 9.53224 8.64577 9.74493 8.74869 9.79296C8.85848 9.84786 8.95455 9.95763 8.94083 9.94391C8.86535 9.88215 8.69379 9.83409 8.57028 9.83409C8.45363 9.83409 8.39873 9.90956 8.28894 9.90956Z" fill="black"/>
<path d="M9.17415 10.1704C9.13298 10.1086 9.00946 9.95078 9.15356 10.1841C9.2908 10.4174 9.20846 10.239 9.17415 10.1704Z" fill="black"/>
<path d="M9.2222 8.88715C9.33199 9.04497 9.3114 9.09303 9.21533 9.17537C9.30454 9.03127 9.2222 8.88715 9.2222 8.88715Z" fill="black"/>
<path d="M8.79678 9.04504C8.79678 9.12052 8.88598 9.20972 8.96146 9.20972C9.03694 9.20972 9.17418 9.16851 9.17418 9.08617C9.17418 9.00382 9.09183 8.88715 8.89284 8.88715C8.81736 8.88715 8.79678 8.9627 8.79678 9.04504Z" fill="black"/>
<path d="M9.4555 9.00387C9.5996 8.98329 9.12613 8.8392 8.97517 8.84606C8.81734 8.85292 8.68697 8.86666 8.61149 8.94901C8.53601 9.03821 8.78991 8.92841 8.87911 8.93527C8.96831 8.93527 9.38689 9.01073 9.4555 9.00387Z" fill="black"/>
<path d="M9.40069 9.05872C9.40069 9.05872 9.24973 9.17542 9.07818 9.196C8.90664 9.21659 8.70078 9.08617 8.66647 9.15479C8.63216 9.22341 8.83115 9.2646 8.98898 9.25774C9.1468 9.25087 9.40069 9.05872 9.40069 9.05872Z" fill="black"/>
<path d="M8.52922 10.1017C8.4057 10.1017 8.37825 10.1498 8.28905 10.1498C8.19298 10.1498 8.16555 10.1017 8.0489 10.1017C7.94597 10.1017 7.74011 10.2047 7.46564 10.2047C7.97341 10.4174 7.90478 10.4723 8.28905 10.4723C8.67331 10.4723 8.6047 10.4243 9.11248 10.2047C8.838 10.2047 8.639 10.1017 8.52922 10.1017ZM8.2822 10.3488C8.05576 10.3488 7.9391 10.3145 7.80186 10.2802C7.8842 10.2733 8.00772 10.2527 8.2822 10.2527C8.55667 10.2527 8.68017 10.2733 8.76252 10.2802C8.63214 10.3145 8.50864 10.3488 8.2822 10.3488Z" fill="black"/>
<path d="M8.39881 10.6507C8.39881 10.6644 8.35078 10.6782 8.28902 10.6782C8.22727 10.6782 8.17923 10.6713 8.17923 10.6507C8.17923 10.637 8.22727 10.6232 8.28902 10.6232C8.35078 10.6232 8.39881 10.637 8.39881 10.6507Z" fill="black"/>
</svg>
