<svg width="30" height="30" viewBox="0 0 30 30" fill="none" xmlns="http://www.w3.org/2000/svg">
<path d="M15.0001 30.001C21.361 30.001 26.7819 26.0349 28.964 20.4494H1.03625C3.21832 26.0349 8.63916 30.001 15.0001 30.001Z" fill="#1EB53A"/>
<path d="M0.000152588 15.001C0.000152588 16.641 0.274631 18.2123 0.75496 19.6876H29.2453C29.7325 18.2123 30.0002 16.641 30.0002 15.001C30.0002 13.361 29.7257 11.7897 29.2453 10.3144H0.761808C0.274616 11.7897 0.000152588 13.361 0.000152588 15.001Z" fill="#F1F4FB"/>
<path d="M15.0001 0.0010376C8.63916 0.0010376 3.21832 3.96722 1.03625 9.55276H28.964C26.7819 3.96722 21.361 0.0010376 15.0001 0.0010376Z" fill="#0099B5"/>
<path d="M29.1012 9.93695C29.0532 9.80658 29.012 9.68311 28.9639 9.55273H1.03624C0.988207 9.67625 0.940166 9.80658 0.898995 9.93695C0.850962 10.0673 0.80292 10.1909 0.761749 10.3144H29.2453C29.2041 10.184 29.1492 10.0605 29.1012 9.93695Z" fill="#CE1126"/>
<path d="M0.754974 19.6876C0.796145 19.818 0.851028 19.9416 0.892199 20.0719C0.940232 20.1954 0.981411 20.3258 1.02944 20.4494H28.9572C29.0052 20.3258 29.0532 20.1954 29.0944 20.0719C29.1424 19.9416 29.1905 19.818 29.2316 19.6876H0.754974Z" fill="#CE1126"/>
<path d="M3.79474 6.86975L3.96628 7.39126H4.52209L4.06921 7.72061L4.24075 8.24899L3.79474 7.91963L3.34872 8.24899L3.52027 7.72061L3.06738 7.39126H3.62319L3.79474 6.86975Z" fill="#F1F4FB"/>
<path d="M6.42276 6.86975L6.5943 7.39126H7.15011L6.69725 7.72061L6.8688 8.24899L6.42276 7.91963L5.97674 8.24899L6.14829 7.72061L5.6954 7.39126H6.25121L6.42276 6.86975Z" fill="#F1F4FB"/>
<path d="M9.05084 6.86975L9.22239 7.39126H9.77819L9.33218 7.72061L9.49686 8.24899L9.05084 7.91963L8.60482 8.24899L8.77637 7.72061L8.32349 7.39126H8.87929L9.05084 6.86975Z" fill="#F1F4FB"/>
<path d="M11.679 6.86975L11.8505 7.39126H12.4063L11.9534 7.72061L12.125 8.24899L11.679 7.91963L11.2329 8.24899L11.3976 7.72061L10.9516 7.39126H11.5074L11.679 6.86975Z" fill="#F1F4FB"/>
<path d="M14.307 6.86975L14.4786 7.39126H15.0344L14.5815 7.72061L14.7531 8.24899L14.307 7.91963L13.861 8.24899L14.0325 7.72061L13.5797 7.39126H14.1355L14.307 6.86975Z" fill="#F1F4FB"/>
<path d="M6.42282 4.17303L6.59437 4.70828H7.15017L6.69731 5.03077L6.86886 5.55914L6.42282 5.22979L5.9768 5.55914L6.14835 5.03077L5.69547 4.70828H6.25127L6.42282 4.17303Z" fill="#F1F4FB"/>
<path d="M9.05078 4.17303L9.22233 4.70828H9.77813L9.33212 5.03077L9.4968 5.55914L9.05078 5.22979L8.60476 5.55914L8.77631 5.03077L8.32343 4.70828H8.87923L9.05078 4.17303Z" fill="#F1F4FB"/>
<path d="M11.6789 4.17303L11.8504 4.70828H12.4062L11.9533 5.03077L12.1249 5.55914L11.6789 5.22979L11.2328 5.55914L11.3975 5.03077L10.9515 4.70828H11.5073L11.6789 4.17303Z" fill="#F1F4FB"/>
<path d="M14.307 4.17303L14.4785 4.70828H15.0343L14.5814 5.03077L14.753 5.55914L14.307 5.22979L13.8609 5.55914L14.0325 5.03077L13.5796 4.70828H14.1354L14.307 4.17303Z" fill="#F1F4FB"/>
<path d="M9.0509 1.49011L9.22245 2.01162H9.77826L9.33224 2.34097L9.49692 2.86935L9.0509 2.53991L8.60489 2.86935L8.77643 2.34097L8.32355 2.01162H8.87936L9.0509 1.49011Z" fill="#F1F4FB"/>
<path d="M11.6788 1.49011L11.8503 2.01162H12.4062L11.9533 2.34097L12.1248 2.86935L11.6788 2.53991L11.2328 2.86935L11.3975 2.34097L10.9514 2.01162H11.5073L11.6788 1.49011Z" fill="#F1F4FB"/>
<path d="M14.3069 1.49011L14.4784 2.01162H15.0342L14.5814 2.34097L14.7529 2.86935L14.3069 2.53991L13.8608 2.86935L14.0324 2.34097L13.5795 2.01162H14.1353L14.3069 1.49011Z" fill="#F1F4FB"/>
</svg>
