<svg width="30" height="30" viewBox="0 0 30 30" fill="none" xmlns="http://www.w3.org/2000/svg">
<path d="M0.000366211 14.9975C0.000366211 19.143 1.68152 22.8973 4.39881 25.6152V4.38672C1.68152 7.09777 0.000366211 10.852 0.000366211 14.9975Z" fill="#0072C6"/>
<path d="M30.0004 14.9975C30.0004 10.852 28.3192 7.09773 25.6019 4.37982V25.6083C28.3192 22.8973 30.0004 19.143 30.0004 14.9975Z" fill="#009E60"/>
<path d="M4.39886 4.38667V25.6152C7.10929 28.3262 10.8627 30.0009 15.0004 30.0009C19.1381 30.0009 22.8847 28.3262 25.602 25.6152V4.38667C22.8915 1.67562 19.1381 0.000936543 15.0004 0.000936543C10.8627 -0.00592687 7.11616 1.66876 4.39886 4.38667Z" fill="#FCD116"/>
<path d="M15.014 16.178L17.498 21.1128L15.014 26.0681L12.5026 21.1128L15.014 16.178Z" fill="#009E60"/>
<path d="M11.8715 10.0078L14.3623 14.9426L11.8715 19.898L9.36688 14.9426L11.8715 10.0078Z" fill="#009E60"/>
<path d="M18.1498 10.0078L20.6339 14.9426L18.1498 19.898L15.6384 14.9426L18.1498 10.0078Z" fill="#009E60"/>
</svg>
