<svg width="30" height="30" viewBox="0 0 30 30" fill="none" xmlns="http://www.w3.org/2000/svg">
<path d="M15.0002 30.0011C21.0523 30.0011 26.2673 26.4123 28.6347 21.2522H1.36566C3.733 26.4123 8.94801 30.0011 15.0002 30.0011Z" fill="#CF142B"/>
<path d="M15.0002 0.0010376C8.94801 0.0010376 3.733 3.58979 1.36566 8.7499H28.6347C26.2605 3.58979 21.0523 0.0010376 15.0002 0.0010376Z" fill="#F7D117"/>
<path d="M0.00012207 15.001C0.00012207 17.2311 0.494169 19.3514 1.36562 21.2522H28.6346C29.5061 19.3514 30.0001 17.2311 30.0001 15.001C30.0001 12.7709 29.5061 10.6575 28.6346 8.74988H1.36562C0.487307 10.6506 0.00012207 12.7709 0.00012207 15.001Z" fill="#0033AB"/>
<path d="M6.62875 16.5862L6.96497 17.6086L8.00112 17.588L7.17769 18.2467L7.51391 19.2691L6.66992 18.6516L5.84649 19.3034L6.14154 18.2673L5.29755 17.6429L6.32682 17.6223L6.62875 16.5862Z" fill="#F1F4FB"/>
<path d="M8.62559 13.8963L8.57755 14.9736L9.55193 15.3167L8.55008 15.6392L8.50891 16.7234L7.93254 15.8382L6.93756 16.1676L7.58258 15.2961L7.00616 14.4178L7.98058 14.7609L8.62559 13.8963Z" fill="#F1F4FB"/>
<path d="M11.4389 12.0848L11.0135 13.0798L11.8095 13.7454L10.7596 13.6904L10.3342 14.6854L10.1077 13.663L9.05786 13.6081L9.9705 13.0249L9.73722 12.0024L10.5263 12.668L11.4389 12.0848Z" fill="#F1F4FB"/>
<path d="M14.7121 11.378L13.971 12.1602L14.4719 13.066L13.5112 12.6475L12.7633 13.4296L12.9143 12.3936L11.9467 11.9749L13.0034 11.7485L13.1544 10.7055L13.6553 11.6044L14.7121 11.378Z" fill="#F1F4FB"/>
<path d="M18.0263 11.879L17.0519 12.3455L17.2029 13.3679L16.4481 12.6406L15.4806 13.1072L15.9815 12.1877L15.2267 11.4535L16.2971 11.6182L16.8049 10.6987L16.9558 11.7211L18.0263 11.879Z" fill="#F1F4FB"/>
<path d="M20.9494 13.512L19.8721 13.6081L19.6594 14.6169L19.2065 13.663L18.1292 13.7591L18.932 13.0798L18.4792 12.126L19.4261 12.6543L20.2221 11.975L20.0094 12.9837L20.9494 13.512Z" fill="#F1F4FB"/>
<path d="M23.111 16.0716L22.0679 15.7765L21.5121 16.6479L21.4298 15.5981L20.3868 15.3099L21.3749 14.9531L21.2857 13.9032L21.9856 14.7335L22.9737 14.3766L22.4179 15.2412L23.111 16.0716Z" fill="#F1F4FB"/>
<path d="M24.2294 19.228L23.3579 18.5898L22.5276 19.2005L22.8159 18.1918L21.9444 17.5537L22.9942 17.5674L23.2893 16.5587L23.6461 17.5743L24.696 17.588L23.8726 18.2056L24.2294 19.228Z" fill="#F1F4FB"/>
</svg>
