<svg width="30" height="30" viewBox="0 0 30 30" fill="none" xmlns="http://www.w3.org/2000/svg">
<g clip-path="url(#clip0_1_17141)">
<path d="M45 0.0010376H-15V30.001H45V0.0010376Z" fill="#012169"/>
<path d="M-15 0.0010376L15 15.001L-15 0.0010376ZM15 0.0010376L-15 15.001L15 0.0010376Z" fill="black"/>
<path d="M-15 0.0010376L15 15.001M15 0.0010376L-15 15.001" stroke="white" stroke-width="3"/>
<mask id="mask0_1_17141" style="mask-type:luminance" maskUnits="userSpaceOnUse" x="-15" y="0" width="35" height="18">
<path d="M-15 0.0010376V7.50104H20V15.001H15L-15 0.0010376ZM15 0.0010376H0V17.501H-15V15.001L15 0.0010376Z" fill="white"/>
</mask>
<g mask="url(#mask0_1_17141)">
<path d="M-15 0.0010376L15 15.001L-15 0.0010376ZM15 0.0010376L-15 15.001L15 0.0010376Z" fill="black"/>
<path d="M-15 0.0010376L15 15.001M15 0.0010376L-15 15.001" stroke="#C8102E" stroke-width="2"/>
</g>
<path d="M0 0.0010376V17.501V0.0010376ZM-15 7.50104H20H-15Z" fill="black"/>
<path d="M2.23517e-07 0.0010376V17.501M-15 7.50104H20" stroke="white" stroke-width="5"/>
<path d="M0 0.0010376V17.501V0.0010376ZM-15 7.50104H20H-15Z" fill="black"/>
<path d="M2.23517e-07 0.0010376V17.501M-15 7.50104H20" stroke="#C8102E" stroke-width="3"/>
<path d="M-15 15.001H15V0.0010376H45V30.001H-15V15.001Z" fill="#012169"/>
<path d="M18.1564 7.20448L30.6765 7.15802L30.6532 18.3076C30.6532 18.3076 31.0946 20.0033 25.4036 22.5816C27.4477 22.3726 29.6776 20.1891 29.6776 20.1891C29.6776 20.1891 30.5835 19.0277 31.0249 19.6781C31.4662 20.3285 31.8843 20.6537 32.2095 20.9092C32.5347 21.1647 32.7902 21.8616 32.3024 22.3726C31.8146 22.8836 31.0481 22.9533 30.8391 22.3261C30.5139 22.4887 28.5162 24.9045 24.4281 25.0206C20.2702 24.9509 17.9938 22.3029 17.9938 22.3029C17.9938 22.3029 17.4363 23.1856 16.6466 22.4887C15.88 21.5828 16.4607 21.0021 16.4607 21.0021C16.4607 21.0021 17.1111 20.6305 17.297 20.3749C17.5989 20.0265 17.6918 19.5619 18.2029 19.5619C18.8068 19.6084 19.0391 20.0962 19.0391 20.0962C19.0391 20.0962 21.1296 22.3029 23.3828 22.5816C18.296 20.1425 18.1101 18.6326 18.1334 18.261L18.1566 7.20433L18.1564 7.20448Z" fill="white"/>
<path d="M18.4586 7.50639L30.3979 7.43671V18.1682C30.4211 19.5619 28.0751 20.9788 24.405 22.7906C20.6188 20.8395 18.4353 19.6548 18.4121 18.145L18.4586 7.50639Z" fill="#006129" stroke="black" stroke-width="0.094365"/>
<path d="M20.083 9.09232L20.7878 8.05725L21.4959 9.09448" stroke="#FFC72C" stroke-width="0.094365"/>
<path d="M20.9293 8.70544C20.9294 8.78275 20.8667 8.84544 20.7894 8.84544C20.7121 8.84544 20.6494 8.78275 20.6494 8.70544C20.6494 8.62812 20.7121 8.56543 20.7894 8.56543C20.8667 8.56543 20.9294 8.62812 20.9293 8.70544Z" fill="#FFC72C" stroke="black" stroke-width="0.047185"/>
<path d="M20.2157 9.85688L21.3083 9.85999C21.3083 9.85999 21.3254 9.71819 21.1941 9.63201C21.7664 9.55332 21.6177 9.04854 22.097 9.01993C22.19 9.03423 21.8466 9.23453 21.8466 9.23453C21.8466 9.23453 21.5577 9.43845 21.6893 9.54212C21.7937 9.62443 21.8395 9.49205 21.8538 9.39191C21.8681 9.29176 22.3188 9.22738 22.2544 8.94125C22.1471 8.70519 21.5176 9.09861 21.5176 9.09861L21.0685 9.09612C21.0405 9.04572 20.9167 8.84359 20.7889 8.84265C20.6372 8.84818 20.5304 9.09862 20.5304 9.09862H19.8795H19.5147C19.5147 9.09862 19.4798 9.35924 19.9949 9.40932C20.1108 9.56076 20.2007 9.60308 20.3015 9.64228C20.2343 9.69829 20.2154 9.76604 20.2157 9.85688Z" fill="#FFC72C" stroke="black" stroke-width="0.047185"/>
<path d="M20.2939 9.63512L21.204 9.63202L20.2939 9.63512Z" fill="#FFC72C"/>
<path d="M20.2939 9.63512L21.204 9.63202" stroke="black" stroke-width="0.047185"/>
<path d="M19.8773 9.09851C19.8773 9.09851 19.9501 9.52414 20.2861 9.62495L19.8773 9.09851Z" fill="#FFC72C"/>
<path d="M19.8773 9.09851C19.8773 9.09851 19.9501 9.52414 20.2861 9.62495" stroke="black" stroke-width="0.047185"/>
<path d="M19.8215 9.09299C19.8551 8.93058 19.9167 8.90258 19.9839 8.69537C19.9951 8.49376 19.8215 8.51615 19.8719 8.38735C19.9615 8.24734 19.9167 8.11294 19.7487 8.00653C19.7823 8.19134 19.5303 8.36495 19.5303 8.51616C19.5303 8.66737 19.6591 8.63376 19.6423 8.86338C19.6535 8.99778 19.6087 8.96419 19.5975 9.09299L19.8215 9.09299Z" fill="url(#paint0_linear_1_17141)" stroke="black" stroke-width="0.047185"/>
<path d="M20.9177 8.0837C20.9177 8.15482 20.86 8.2125 20.7889 8.2125C20.7178 8.2125 20.6601 8.15482 20.6602 8.0837C20.6601 8.01257 20.7178 7.9549 20.7889 7.9549C20.86 7.9549 20.9177 8.01257 20.9177 8.0837Z" fill="#FFC72C" stroke="black" stroke-width="0.047185"/>
<path d="M20.0446 11.1577L20.7493 10.1226L21.4575 11.1598" stroke="#FFC72C" stroke-width="0.094365"/>
<path d="M20.8909 10.7707C20.8909 10.8481 20.8282 10.9107 20.7509 10.9107C20.6736 10.9107 20.6109 10.8481 20.611 10.7707C20.6109 10.6934 20.6736 10.6307 20.7509 10.6307C20.8282 10.6307 20.8909 10.6934 20.8909 10.7707Z" fill="#FFC72C" stroke="black" stroke-width="0.047185"/>
<path d="M20.1766 11.9222L21.2692 11.9253C21.2692 11.9253 21.2863 11.7835 21.1551 11.6973C21.7273 11.6186 21.5787 11.1138 22.058 11.0852C22.1509 11.0995 21.8076 11.2998 21.8076 11.2998C21.8076 11.2998 21.5186 11.5038 21.6502 11.6074C21.7547 11.6897 21.8004 11.5574 21.8147 11.4572C21.829 11.3571 22.2797 11.2927 22.2153 11.0066C22.108 10.7705 21.4785 11.1639 21.4785 11.1639L21.0294 11.1614C21.0014 11.111 20.8777 10.9089 20.7498 10.908C20.5982 10.9135 20.4914 11.1639 20.4914 11.1639H19.8404H19.4756C19.4756 11.1639 19.4408 11.4246 19.9558 11.4746C20.0718 11.6261 20.1617 11.6684 20.2625 11.7076C20.1953 11.7636 20.1763 11.8313 20.1766 11.9222Z" fill="#FFC72C" stroke="black" stroke-width="0.047185"/>
<path d="M20.2549 11.7005L21.1649 11.6974L20.2549 11.7005Z" fill="#FFC72C"/>
<path d="M20.2549 11.7005L21.1649 11.6974" stroke="black" stroke-width="0.047185"/>
<path d="M19.8389 11.1639C19.8389 11.1639 19.9117 11.5895 20.2477 11.6903L19.8389 11.1639Z" fill="#FFC72C"/>
<path d="M19.8389 11.1639C19.8389 11.1639 19.9117 11.5895 20.2477 11.6903" stroke="black" stroke-width="0.047185"/>
<path d="M19.7828 11.1583C19.8164 10.9959 19.878 10.9679 19.9452 10.7607C19.9564 10.5591 19.7828 10.5815 19.8332 10.4527C19.9228 10.3127 19.878 10.1782 19.71 10.0718C19.7436 10.2567 19.4916 10.4303 19.4916 10.5815C19.4916 10.7327 19.6204 10.6991 19.6036 10.9287C19.6148 11.0631 19.57 11.0295 19.5588 11.1583L19.7828 11.1583Z" fill="url(#paint1_linear_1_17141)" stroke="black" stroke-width="0.047185"/>
<path d="M20.8795 10.1491C20.8795 10.2202 20.8218 10.2779 20.7507 10.2779C20.6796 10.2779 20.6219 10.2202 20.6219 10.1491C20.6219 10.0779 20.6796 10.0203 20.7507 10.0203C20.8218 10.0203 20.8795 10.0779 20.8795 10.1491Z" fill="#FFC72C" stroke="black" stroke-width="0.047185"/>
<path d="M20.0289 13.1931L20.7337 12.1581L21.4419 13.1953" stroke="#FFC72C" stroke-width="0.094365"/>
<path d="M20.8746 12.8061C20.8747 12.8835 20.812 12.9462 20.7347 12.9462C20.6574 12.9462 20.5947 12.8835 20.5947 12.8061C20.5947 12.7288 20.6574 12.6661 20.7347 12.6661C20.812 12.6661 20.8747 12.7288 20.8746 12.8061Z" fill="#FFC72C" stroke="black" stroke-width="0.047185"/>
<path d="M20.161 13.9576L21.2536 13.9607C21.2536 13.9607 21.2707 13.8189 21.1395 13.7327C21.7117 13.654 21.5631 13.1492 22.0423 13.1206C22.1353 13.1349 21.792 13.3352 21.792 13.3352C21.792 13.3352 21.503 13.5392 21.6346 13.6428C21.7391 13.7251 21.7848 13.5928 21.7991 13.4926C21.8134 13.3925 22.2641 13.3281 22.1997 13.042C22.0924 12.8059 21.4629 13.1993 21.4629 13.1993L21.0138 13.1968C20.9858 13.1464 20.862 12.9443 20.7342 12.9434C20.5826 12.9489 20.4757 13.1993 20.4757 13.1993H19.8248H19.46C19.46 13.1993 19.4251 13.46 19.9402 13.51C20.0561 13.6615 20.146 13.7038 20.2468 13.743C20.1796 13.799 20.1607 13.8667 20.161 13.9576Z" fill="#FFC72C" stroke="black" stroke-width="0.047185"/>
<path d="M20.2401 13.7359L21.1501 13.7328L20.2401 13.7359Z" fill="#FFC72C"/>
<path d="M20.2401 13.7359L21.1501 13.7328" stroke="black" stroke-width="0.047185"/>
<path d="M19.8232 13.1993C19.8232 13.1993 19.896 13.625 20.2321 13.7258L19.8232 13.1993Z" fill="#FFC72C"/>
<path d="M19.8232 13.1993C19.8232 13.1993 19.896 13.625 20.2321 13.7258" stroke="black" stroke-width="0.047185"/>
<path d="M19.7672 13.1938C19.8008 13.0314 19.8624 13.0033 19.9296 12.7961C19.9408 12.5945 19.7672 12.6169 19.8176 12.4881C19.9072 12.3481 19.8624 12.2137 19.6944 12.1073C19.728 12.2921 19.476 12.4657 19.476 12.6169C19.476 12.7681 19.6048 12.7345 19.588 12.9642C19.5992 13.0985 19.5544 13.065 19.5432 13.1938L19.7672 13.1938Z" fill="url(#paint2_linear_1_17141)" stroke="black" stroke-width="0.047185"/>
<path d="M20.8638 12.1845C20.8639 12.2557 20.8062 12.3133 20.7351 12.3133C20.664 12.3133 20.6063 12.2557 20.6063 12.1845C20.6063 12.1134 20.664 12.0557 20.7351 12.0557C20.8062 12.0557 20.8639 12.1134 20.8638 12.1845Z" fill="#FFC72C" stroke="black" stroke-width="0.047185"/>
<path d="M21.364 15.3975L22.0688 14.3624L22.7769 15.3997" stroke="#FFC72C" stroke-width="0.094365"/>
<path d="M22.2103 15.0106C22.2104 15.0879 22.1477 15.1506 22.0704 15.1506C21.9931 15.1506 21.9304 15.0879 21.9304 15.0106C21.9304 14.9332 21.9931 14.8705 22.0704 14.8705C22.1477 14.8705 22.2104 14.9332 22.2103 15.0106Z" fill="#FFC72C" stroke="black" stroke-width="0.047185"/>
<path d="M21.4967 16.1619L22.5893 16.165C22.5893 16.165 22.6064 16.0232 22.4751 15.9371C23.0474 15.8584 22.8987 15.3536 23.378 15.325C23.471 15.3393 23.1277 15.5396 23.1277 15.5396C23.1277 15.5396 22.8387 15.7435 22.9703 15.8472C23.0747 15.9295 23.1205 15.7971 23.1348 15.697C23.1491 15.5968 23.5998 15.5324 23.5354 15.2463C23.4281 15.0102 22.7986 15.4037 22.7986 15.4037L22.3495 15.4012C22.3215 15.3508 22.1977 15.1486 22.0699 15.1477C21.9183 15.1532 21.8114 15.4037 21.8114 15.4037H21.1605H20.7957C20.7957 15.4037 20.7608 15.6643 21.2759 15.7144C21.3918 15.8658 21.4817 15.9081 21.5825 15.9473C21.5153 16.0033 21.4964 16.0711 21.4967 16.1619Z" fill="#FFC72C" stroke="black" stroke-width="0.047185"/>
<path d="M21.5752 15.9402L22.4852 15.9371L21.5752 15.9402Z" fill="#FFC72C"/>
<path d="M21.5752 15.9402L22.4852 15.9371" stroke="black" stroke-width="0.047185"/>
<path d="M21.1581 15.4036C21.1581 15.4036 21.2309 15.8293 21.5669 15.9301L21.1581 15.4036Z" fill="#FFC72C"/>
<path d="M21.1581 15.4036C21.1581 15.4036 21.2309 15.8293 21.5669 15.9301" stroke="black" stroke-width="0.047185"/>
<path d="M21.1026 15.398C21.1362 15.2356 21.1978 15.2076 21.265 15.0004C21.2762 14.7988 21.1026 14.8212 21.153 14.6924C21.2426 14.5524 21.1978 14.418 21.0298 14.3116C21.0634 14.4964 20.8114 14.67 20.8114 14.8212C20.8114 14.9724 20.9402 14.9388 20.9234 15.1684C20.9346 15.3028 20.8898 15.2692 20.8786 15.398L21.1026 15.398Z" fill="url(#paint3_linear_1_17141)" stroke="black" stroke-width="0.047185"/>
<path d="M22.1998 14.3889C22.1998 14.46 22.1422 14.5177 22.071 14.5177C21.9999 14.5177 21.9422 14.46 21.9423 14.3889C21.9422 14.3177 21.9999 14.2601 22.071 14.2601C22.1422 14.2601 22.1998 14.3177 22.1998 14.3889Z" fill="#FFC72C" stroke="black" stroke-width="0.047185"/>
<path d="M19.8542 17.2005L20.559 16.1655L21.2672 17.2027" stroke="#FFC72C" stroke-width="0.094365"/>
<path d="M20.7006 16.8136C20.7006 16.8909 20.6379 16.9536 20.5606 16.9536C20.4833 16.9536 20.4206 16.8909 20.4207 16.8136C20.4206 16.7363 20.4833 16.6736 20.5606 16.6736C20.6379 16.6736 20.7006 16.7363 20.7006 16.8136Z" fill="#FFC72C" stroke="black" stroke-width="0.047185"/>
<path d="M19.9869 17.965L21.0795 17.9681C21.0795 17.9681 21.0966 17.8263 20.9654 17.7401C21.5377 17.6614 21.389 17.1566 21.8683 17.128C21.9612 17.1423 21.6179 17.3426 21.6179 17.3426C21.6179 17.3426 21.3289 17.5465 21.4605 17.6502C21.565 17.7325 21.6107 17.6001 21.625 17.5C21.6393 17.3999 22.09 17.3355 22.0256 17.0493C21.9183 16.8133 21.2888 17.2067 21.2888 17.2067L20.8397 17.2042C20.8117 17.1538 20.688 16.9517 20.5601 16.9507C20.4085 16.9563 20.3017 17.2067 20.3017 17.2067H19.6507H19.2859C19.2859 17.2067 19.2511 17.4673 19.7661 17.5174C19.8821 17.6689 19.972 17.7112 20.0728 17.7504C20.0056 17.8064 19.9866 17.8741 19.9869 17.965Z" fill="#FFC72C" stroke="black" stroke-width="0.047185"/>
<path d="M20.0654 17.7433L20.9755 17.7402L20.0654 17.7433Z" fill="#FFC72C"/>
<path d="M20.0654 17.7433L20.9755 17.7402" stroke="black" stroke-width="0.047185"/>
<path d="M19.6486 17.2067C19.6486 17.2067 19.7214 17.6324 20.0574 17.7332L19.6486 17.2067Z" fill="#FFC72C"/>
<path d="M19.6486 17.2067C19.6486 17.2067 19.7214 17.6324 20.0574 17.7332" stroke="black" stroke-width="0.047185"/>
<path d="M19.5925 17.2011C19.6261 17.0387 19.6877 17.0107 19.7549 16.8035C19.7661 16.6019 19.5925 16.6243 19.6429 16.4955C19.7325 16.3555 19.6877 16.2211 19.5197 16.1147C19.5533 16.2995 19.3013 16.4731 19.3013 16.6243C19.3013 16.7755 19.4301 16.7419 19.4133 16.9715C19.4245 17.1059 19.3797 17.0723 19.3685 17.2011L19.5925 17.2011Z" fill="url(#paint4_linear_1_17141)" stroke="black" stroke-width="0.047185"/>
<path d="M20.6892 16.1919C20.6892 16.263 20.6315 16.3207 20.5604 16.3207C20.4893 16.3207 20.4316 16.263 20.4316 16.1919C20.4316 16.1208 20.4893 16.0631 20.5604 16.0631C20.6315 16.0631 20.6892 16.1208 20.6892 16.1919Z" fill="#FFC72C" stroke="black" stroke-width="0.047185"/>
<path d="M19.8936 19.3311L20.5983 18.296L21.3065 19.3333" stroke="#FFC72C" stroke-width="0.094365"/>
<path d="M20.7399 18.9441C20.7399 19.0215 20.6772 19.0842 20.5999 19.0842C20.5226 19.0842 20.4599 19.0215 20.46 18.9441C20.4599 18.8668 20.5226 18.8041 20.5999 18.8041C20.6772 18.8041 20.7399 18.8668 20.7399 18.9441Z" fill="#FFC72C" stroke="black" stroke-width="0.047185"/>
<path d="M20.0262 20.0955L21.1188 20.0986C21.1188 20.0986 21.1359 19.9568 21.0047 19.8707C21.577 19.792 21.4283 19.2872 21.9076 19.2586C22.0006 19.2729 21.6572 19.4732 21.6572 19.4732C21.6572 19.4732 21.3682 19.6771 21.4998 19.7808C21.6043 19.8631 21.65 19.7307 21.6643 19.6306C21.6787 19.5304 22.1293 19.466 22.0649 19.1799C21.9576 18.9438 21.3281 19.3373 21.3281 19.3373L20.879 19.3348C20.851 19.2844 20.7273 19.0822 20.5994 19.0813C20.4478 19.0868 20.341 19.3373 20.341 19.3373H19.69H19.3252C19.3252 19.3373 19.2904 19.5979 19.8054 19.648C19.9214 19.7994 20.0113 19.8417 20.1121 19.8809C20.0449 19.9369 20.0259 20.0047 20.0262 20.0955Z" fill="#FFC72C" stroke="black" stroke-width="0.047185"/>
<path d="M20.1045 19.8738L21.0145 19.8707L20.1045 19.8738Z" fill="#FFC72C"/>
<path d="M20.1045 19.8738L21.0145 19.8707" stroke="black" stroke-width="0.047185"/>
<path d="M19.6879 19.3373C19.6879 19.3373 19.7607 19.7629 20.0967 19.8637L19.6879 19.3373Z" fill="#FFC72C"/>
<path d="M19.6879 19.3373C19.6879 19.3373 19.7607 19.7629 20.0967 19.8637" stroke="black" stroke-width="0.047185"/>
<path d="M19.632 19.3316C19.6656 19.1692 19.7272 19.1412 19.7944 18.934C19.8056 18.7324 19.632 18.7548 19.6824 18.626C19.772 18.486 19.7272 18.3516 19.5592 18.2452C19.5928 18.43 19.3408 18.6036 19.3408 18.7548C19.3408 18.906 19.4696 18.8724 19.4528 19.102C19.464 19.2364 19.4192 19.2028 19.408 19.3316L19.632 19.3316Z" fill="url(#paint5_linear_1_17141)" stroke="black" stroke-width="0.047185"/>
<path d="M20.7282 18.3225C20.7283 18.3936 20.6706 18.4513 20.5995 18.4513C20.5283 18.4513 20.4707 18.3936 20.4707 18.3225C20.4707 18.2513 20.5283 18.1937 20.5995 18.1937C20.6706 18.1937 20.7283 18.2513 20.7282 18.3225Z" fill="#FFC72C" stroke="black" stroke-width="0.047185"/>
<path d="M27.3967 9.12601L28.1015 8.09094L28.8097 9.12817" stroke="#FFC72C" stroke-width="0.094365"/>
<path d="M28.2431 8.73907C28.2431 8.81638 28.1804 8.87907 28.1031 8.87907C28.0258 8.87907 27.9631 8.81638 27.9631 8.73907C27.9631 8.66175 28.0258 8.59906 28.1031 8.59906C28.1804 8.59906 28.2431 8.66175 28.2431 8.73907Z" fill="#FFC72C" stroke="black" stroke-width="0.047185"/>
<path d="M27.5294 9.89057L28.622 9.89368C28.622 9.89368 28.6391 9.75188 28.5079 9.6657C29.0801 9.58701 28.9315 9.08223 29.4107 9.05362C29.5037 9.06792 29.1604 9.26822 29.1604 9.26822C29.1604 9.26822 28.8714 9.47214 29.003 9.57581C29.1075 9.65812 29.1532 9.52575 29.1675 9.4256C29.1818 9.32545 29.6325 9.26107 29.5681 8.97494C29.4608 8.73888 28.8313 9.13231 28.8313 9.13231L28.3822 9.12981C28.3542 9.07941 28.2304 8.87728 28.1026 8.87634C27.951 8.88188 27.8441 9.13231 27.8441 9.13231H27.1932H26.8284C26.8284 9.13231 26.7935 9.39294 27.3086 9.44301C27.4245 9.59445 27.5144 9.63677 27.6152 9.67597C27.548 9.73198 27.5291 9.79973 27.5294 9.89057Z" fill="#FFC72C" stroke="black" stroke-width="0.047185"/>
<path d="M27.6079 9.66875L28.5179 9.66565L27.6079 9.66875Z" fill="#FFC72C"/>
<path d="M27.6079 9.66875L28.5179 9.66565" stroke="black" stroke-width="0.047185"/>
<path d="M27.1913 9.1322C27.1913 9.1322 27.2641 9.55783 27.6001 9.65864L27.1913 9.1322Z" fill="#FFC72C"/>
<path d="M27.1913 9.1322C27.1913 9.1322 27.2641 9.55783 27.6001 9.65864" stroke="black" stroke-width="0.047185"/>
<path d="M27.135 9.12662C27.1686 8.96421 27.2302 8.93621 27.2974 8.729C27.3086 8.52739 27.135 8.54979 27.1854 8.42098C27.275 8.28097 27.2302 8.14657 27.0622 8.04016C27.0958 8.22497 26.8438 8.39858 26.8438 8.54979C26.8438 8.701 26.9726 8.6674 26.9558 8.89701C26.967 9.03141 26.9222 8.99782 26.911 9.12662L27.135 9.12662Z" fill="url(#paint6_linear_1_17141)" stroke="black" stroke-width="0.047185"/>
<path d="M28.232 8.11745C28.232 8.18857 28.1744 8.24625 28.1033 8.24625C28.0321 8.24625 27.9745 8.18857 27.9745 8.11745C27.9745 8.04632 28.0321 7.98865 28.1033 7.98865C28.1744 7.98865 28.232 8.04632 28.232 8.11745Z" fill="#FFC72C" stroke="black" stroke-width="0.047185"/>
<path d="M27.3298 11.1534L28.0346 10.1183L28.7428 11.1555" stroke="#FFC72C" stroke-width="0.094365"/>
<path d="M28.1762 10.7664C28.1762 10.8437 28.1135 10.9064 28.0362 10.9064C27.9589 10.9064 27.8962 10.8437 27.8962 10.7664C27.8962 10.6891 27.9589 10.6264 28.0362 10.6264C28.1135 10.6264 28.1762 10.6891 28.1762 10.7664Z" fill="#FFC72C" stroke="black" stroke-width="0.047185"/>
<path d="M27.4625 11.9179L28.5551 11.921C28.5551 11.921 28.5722 11.7792 28.441 11.693C29.0132 11.6144 28.8646 11.1096 29.3438 11.081C29.4368 11.0953 29.0935 11.2956 29.0935 11.2956C29.0935 11.2956 28.8045 11.4995 28.9361 11.6032C29.0406 11.6855 29.0863 11.5531 29.1006 11.4529C29.1149 11.3528 29.5656 11.2884 29.5012 11.0023C29.3939 10.7662 28.7644 11.1596 28.7644 11.1596L28.3153 11.1572C28.2873 11.1068 28.1635 10.9046 28.0357 10.9037C27.8841 10.9092 27.7773 11.1597 27.7773 11.1597H27.1263H26.7615C26.7615 11.1597 26.7267 11.4203 27.2417 11.4704C27.3577 11.6218 27.4475 11.6641 27.5484 11.7033C27.4811 11.7593 27.4622 11.8271 27.4625 11.9179Z" fill="#FFC72C" stroke="black" stroke-width="0.047185"/>
<path d="M27.541 11.6961L28.451 11.693L27.541 11.6961Z" fill="#FFC72C"/>
<path d="M27.541 11.6961L28.451 11.693" stroke="black" stroke-width="0.047185"/>
<path d="M27.1241 11.1595C27.1241 11.1595 27.1969 11.5852 27.533 11.686L27.1241 11.1595Z" fill="#FFC72C"/>
<path d="M27.1241 11.1595C27.1241 11.1595 27.1969 11.5852 27.533 11.686" stroke="black" stroke-width="0.047185"/>
<path d="M27.0681 11.154C27.1017 10.9916 27.1633 10.9635 27.2305 10.7563C27.2417 10.5547 27.0681 10.5771 27.1185 10.4483C27.2081 10.3083 27.1633 10.1739 26.9953 10.0675C27.0289 10.2523 26.7769 10.4259 26.7769 10.5771C26.7769 10.7283 26.9057 10.6947 26.8889 10.9244C26.9001 11.0588 26.8553 11.0252 26.8441 11.154L27.0681 11.154Z" fill="url(#paint7_linear_1_17141)" stroke="black" stroke-width="0.047185"/>
<path d="M28.1647 10.1448C28.1648 10.2159 28.1071 10.2736 28.036 10.2736C27.9649 10.2736 27.9072 10.2159 27.9072 10.1448C27.9072 10.0737 27.9649 10.016 28.036 10.016C28.1071 10.016 28.1648 10.0737 28.1647 10.1448Z" fill="#FFC72C" stroke="black" stroke-width="0.047185"/>
<path d="M27.2402 13.2256L27.945 12.1906L28.6532 13.2278" stroke="#FFC72C" stroke-width="0.094365"/>
<path d="M28.0866 12.8387C28.0866 12.916 28.0239 12.9787 27.9466 12.9787C27.8693 12.9787 27.8066 12.916 27.8066 12.8387C27.8066 12.7614 27.8693 12.6987 27.9466 12.6987C28.0239 12.6987 28.0866 12.7614 28.0866 12.8387Z" fill="#FFC72C" stroke="black" stroke-width="0.047185"/>
<path d="M27.3729 13.9901L28.4655 13.9932C28.4655 13.9932 28.4826 13.8514 28.3514 13.7652C28.9236 13.6865 28.775 13.1817 29.2542 13.1531C29.3472 13.1674 29.0039 13.3677 29.0039 13.3677C29.0039 13.3677 28.7149 13.5716 28.8465 13.6753C28.951 13.7576 28.9967 13.6252 29.011 13.5251C29.0253 13.4249 29.476 13.3606 29.4116 13.0744C29.3043 12.8384 28.6748 13.2318 28.6748 13.2318L28.2257 13.2293C28.1977 13.1789 28.0739 12.9768 27.9461 12.9758C27.7945 12.9814 27.6877 13.2318 27.6877 13.2318H27.0367H26.6719C26.6719 13.2318 26.6371 13.4924 27.1521 13.5425C27.2681 13.6939 27.3579 13.7363 27.4588 13.7755C27.3915 13.8315 27.3726 13.8992 27.3729 13.9901Z" fill="#FFC72C" stroke="black" stroke-width="0.047185"/>
<path d="M27.4512 13.7684L28.3612 13.7653L27.4512 13.7684Z" fill="#FFC72C"/>
<path d="M27.4512 13.7684L28.3612 13.7653" stroke="black" stroke-width="0.047185"/>
<path d="M27.0345 13.2318C27.0345 13.2318 27.1073 13.6574 27.4434 13.7582L27.0345 13.2318Z" fill="#FFC72C"/>
<path d="M27.0345 13.2318C27.0345 13.2318 27.1073 13.6574 27.4434 13.7582" stroke="black" stroke-width="0.047185"/>
<path d="M26.9787 13.2262C27.0123 13.0638 27.0739 13.0358 27.1411 12.8285C27.1523 12.6269 26.9787 12.6493 27.0291 12.5205C27.1187 12.3805 27.0739 12.2461 26.9059 12.1397C26.9395 12.3245 26.6875 12.4981 26.6875 12.6493C26.6875 12.8005 26.8163 12.7669 26.7995 12.9966C26.8107 13.131 26.7659 13.0974 26.7547 13.2262L26.9787 13.2262Z" fill="url(#paint8_linear_1_17141)" stroke="black" stroke-width="0.047185"/>
<path d="M28.0758 12.217C28.0758 12.2881 28.0181 12.3458 27.947 12.3458C27.8759 12.3458 27.8182 12.2881 27.8182 12.217C27.8182 12.1459 27.8759 12.0882 27.947 12.0882C28.0181 12.0882 28.0758 12.1459 28.0758 12.217Z" fill="#FFC72C" stroke="black" stroke-width="0.047185"/>
<path d="M27.3406 15.264L28.0453 14.2289L28.7535 15.2662" stroke="#FFC72C" stroke-width="0.094365"/>
<path d="M28.1869 14.877C28.1869 14.9543 28.1243 15.017 28.0469 15.017C27.9696 15.017 27.907 14.9543 27.907 14.877C27.907 14.7997 27.9696 14.737 28.0469 14.737C28.1243 14.737 28.1869 14.7997 28.1869 14.877Z" fill="#FFC72C" stroke="black" stroke-width="0.047185"/>
<path d="M27.4733 16.0284L28.5658 16.0316C28.5658 16.0316 28.583 15.8898 28.4517 15.8036C29.024 15.7249 28.8753 15.2201 29.3546 15.1915C29.4476 15.2058 29.1042 15.4061 29.1042 15.4061C29.1042 15.4061 28.8153 15.61 28.9468 15.7137C29.0513 15.796 29.0971 15.6636 29.1114 15.5635C29.1257 15.4633 29.5763 15.3989 29.512 15.1128C29.4047 14.8768 28.7752 15.2702 28.7752 15.2702L28.3261 15.2677C28.2981 15.2173 28.1743 15.0152 28.0465 15.0142C27.8948 15.0198 27.788 15.2702 27.788 15.2702H27.137H26.7722C26.7722 15.2702 26.7374 15.5308 27.2524 15.5809C27.3684 15.7323 27.4583 15.7746 27.5591 15.8138C27.4919 15.8699 27.473 15.9376 27.4733 16.0284Z" fill="#FFC72C" stroke="black" stroke-width="0.047185"/>
<path d="M27.5518 15.8068L28.4618 15.8036L27.5518 15.8068Z" fill="#FFC72C"/>
<path d="M27.5518 15.8068L28.4618 15.8036" stroke="black" stroke-width="0.047185"/>
<path d="M27.1346 15.2702C27.1346 15.2702 27.2074 15.6958 27.5435 15.7966L27.1346 15.2702Z" fill="#FFC72C"/>
<path d="M27.1346 15.2702C27.1346 15.2702 27.2074 15.6958 27.5435 15.7966" stroke="black" stroke-width="0.047185"/>
<path d="M27.0792 15.2646C27.1128 15.1022 27.1744 15.0742 27.2416 14.867C27.2528 14.6654 27.0792 14.6878 27.1296 14.559C27.2192 14.419 27.1744 14.2846 27.0064 14.1782C27.04 14.363 26.788 14.5366 26.788 14.6878C26.788 14.839 26.9168 14.8054 26.9 15.035C26.9112 15.1694 26.8664 15.1358 26.8552 15.2646L27.0792 15.2646Z" fill="url(#paint9_linear_1_17141)" stroke="black" stroke-width="0.047185"/>
<path d="M28.1763 14.2553C28.1764 14.3265 28.1187 14.3841 28.0476 14.3841C27.9765 14.3841 27.9188 14.3265 27.9188 14.2553C27.9188 14.1842 27.9765 14.1265 28.0476 14.1265C28.1187 14.1265 28.1764 14.1842 28.1763 14.2553Z" fill="#FFC72C" stroke="black" stroke-width="0.047185"/>
<path d="M27.319 17.3027L28.0237 16.2676L28.7319 17.3049" stroke="#FFC72C" stroke-width="0.094365"/>
<path d="M28.1647 16.9158C28.1647 16.9931 28.102 17.0558 28.0247 17.0558C27.9474 17.0558 27.8847 16.9931 27.8848 16.9158C27.8847 16.8384 27.9474 16.7758 28.0247 16.7758C28.102 16.7758 28.1647 16.8384 28.1647 16.9158Z" fill="#FFC72C" stroke="black" stroke-width="0.047185"/>
<path d="M27.451 18.0673L28.5436 18.0704C28.5436 18.0704 28.5607 17.9286 28.4295 17.8424C29.0018 17.7637 28.8531 17.2589 29.3324 17.2303C29.4254 17.2446 29.082 17.4449 29.082 17.4449C29.082 17.4449 28.793 17.6488 28.9246 17.7525C29.0291 17.8348 29.0748 17.7024 29.0892 17.6023C29.1035 17.5021 29.5541 17.4378 29.4897 17.1516C29.3824 16.9156 28.7529 17.309 28.7529 17.309L28.3038 17.3065C28.2758 17.2561 28.1521 17.054 28.0242 17.053C27.8726 17.0586 27.7658 17.309 27.7658 17.309H27.1148H26.75C26.75 17.309 26.7152 17.5696 27.2302 17.6197C27.3462 17.7712 27.4361 17.8135 27.5369 17.8527C27.4697 17.9087 27.4508 17.9764 27.451 18.0673Z" fill="#FFC72C" stroke="black" stroke-width="0.047185"/>
<path d="M27.5302 17.8454L28.4402 17.8423L27.5302 17.8454Z" fill="#FFC72C"/>
<path d="M27.5302 17.8454L28.4402 17.8423" stroke="black" stroke-width="0.047185"/>
<path d="M27.1133 17.3089C27.1133 17.3089 27.1861 17.7345 27.5221 17.8353L27.1133 17.3089Z" fill="#FFC72C"/>
<path d="M27.1133 17.3089C27.1133 17.3089 27.1861 17.7345 27.5221 17.8353" stroke="black" stroke-width="0.047185"/>
<path d="M27.0572 17.3033C27.0908 17.1409 27.1524 17.1129 27.2196 16.9057C27.2308 16.7041 27.0572 16.7265 27.1076 16.5977C27.1972 16.4577 27.1524 16.3233 26.9844 16.2169C27.018 16.4017 26.766 16.5753 26.766 16.7265C26.766 16.8777 26.8948 16.8441 26.878 17.0737C26.8892 17.2081 26.8444 17.1745 26.8332 17.3033L27.0572 17.3033Z" fill="url(#paint10_linear_1_17141)" stroke="black" stroke-width="0.047185"/>
<path d="M28.1539 16.2941C28.1539 16.3652 28.0963 16.4229 28.0251 16.4229C27.954 16.4229 27.8963 16.3652 27.8964 16.2941C27.8963 16.223 27.954 16.1653 28.0251 16.1653C28.0963 16.1653 28.1539 16.223 28.1539 16.2941Z" fill="#FFC72C" stroke="black" stroke-width="0.047185"/>
<path d="M27.3298 19.3523L28.0346 18.3172L28.7428 19.3544" stroke="#FFC72C" stroke-width="0.094365"/>
<path d="M28.1762 18.9653C28.1762 19.0426 28.1135 19.1053 28.0362 19.1053C27.9589 19.1053 27.8962 19.0426 27.8962 18.9653C27.8962 18.888 27.9589 18.8253 28.0362 18.8253C28.1135 18.8253 28.1762 18.888 28.1762 18.9653Z" fill="#FFC72C" stroke="black" stroke-width="0.047185"/>
<path d="M27.4625 20.1168L28.5551 20.1199C28.5551 20.1199 28.5722 19.9781 28.441 19.8919C29.0132 19.8132 28.8646 19.3084 29.3438 19.2798C29.4368 19.2941 29.0935 19.4944 29.0935 19.4944C29.0935 19.4944 28.8045 19.6983 28.9361 19.802C29.0406 19.8843 29.0863 19.7519 29.1006 19.6518C29.1149 19.5516 29.5656 19.4873 29.5012 19.2011C29.3939 18.9651 28.7644 19.3585 28.7644 19.3585L28.3153 19.356C28.2873 19.3056 28.1635 19.1035 28.0357 19.1025C27.8841 19.1081 27.7773 19.3585 27.7773 19.3585H27.1263H26.7615C26.7615 19.3585 26.7267 19.6191 27.2417 19.6692C27.3577 19.8206 27.4475 19.863 27.5484 19.9022C27.4811 19.9582 27.4622 20.0259 27.4625 20.1168Z" fill="#FFC72C" stroke="black" stroke-width="0.047185"/>
<path d="M27.541 19.895L28.451 19.8919L27.541 19.895Z" fill="#FFC72C"/>
<path d="M27.541 19.895L28.451 19.8919" stroke="black" stroke-width="0.047185"/>
<path d="M27.1241 19.3585C27.1241 19.3585 27.1969 19.7841 27.533 19.8849L27.1241 19.3585Z" fill="#FFC72C"/>
<path d="M27.1241 19.3585C27.1241 19.3585 27.1969 19.7841 27.533 19.8849" stroke="black" stroke-width="0.047185"/>
<path d="M27.0681 19.3529C27.1017 19.1905 27.1633 19.1625 27.2305 18.9553C27.2417 18.7536 27.0681 18.776 27.1185 18.6472C27.2081 18.5072 27.1633 18.3728 26.9953 18.2664C27.0289 18.4512 26.7769 18.6248 26.7769 18.776C26.7769 18.9273 26.9057 18.8937 26.8889 19.1233C26.9001 19.2577 26.8553 19.2241 26.8441 19.3529L27.0681 19.3529Z" fill="url(#paint11_linear_1_17141)" stroke="black" stroke-width="0.047185"/>
<path d="M28.1647 18.3436C28.1648 18.4148 28.1071 18.4724 28.036 18.4724C27.9649 18.4724 27.9072 18.4148 27.9072 18.3436C27.9072 18.2725 27.9649 18.2148 28.036 18.2148C28.1071 18.2148 28.1648 18.2725 28.1647 18.3436Z" fill="#FFC72C" stroke="black" stroke-width="0.047185"/>
<path d="M25.135 20.3169C25.135 20.3169 25.4201 20.9743 25.7449 20.5704C26.0696 20.1664 25.9508 19.9922 25.9508 19.9922L25.2221 19.5962L25.0083 20.0476L25.135 20.3169Z" fill="#FFC72C" stroke="black" stroke-width="0.047185"/>
<path d="M25.7604 20.2298C25.7604 20.2298 25.8079 20.2377 25.8475 20.1664C25.8871 20.0951 25.7604 20.0635 25.705 19.9843L25.6416 20.111L25.7604 20.2298Z" fill="#FFC6B5" stroke="black" stroke-width="0.047185"/>
<path d="M24.1132 20.0556L23.4717 20.404C23.4717 20.404 23.1549 20.4674 23.1311 20.404C23.1074 20.3407 23.1391 20.2852 23.3054 20.2773C23.4717 20.2694 23.9231 19.8575 23.9231 19.8575L24.1132 20.0556Z" fill="#FFC6B5" stroke="black" stroke-width="0.047185"/>
<path d="M24.1212 8.65863C24.1212 8.65863 24.1371 8.80911 24.145 8.88831C24.1529 8.96751 24.0183 9.13383 24.0103 9.12591C24.0024 9.11799 23.9391 9.13383 23.947 9.18135C23.9549 9.22887 24.0499 9.24471 24.0499 9.24471C24.0499 9.24471 24.0103 9.41103 24.0499 9.41895C24.0895 9.42687 23.947 9.6328 24.0499 9.68823C24.1529 9.74367 24.3271 9.81495 24.4063 9.79911C24.4855 9.78327 24.4063 10.108 24.4063 10.108L24.1846 10.5832L25.4043 10.4565L25.1508 10.0525C25.1508 10.0525 25.032 9.97335 25.0637 9.74367C25.0954 9.51399 25.0479 8.47647 25.0479 8.47647L24.1767 8.35767L24.1212 8.65863Z" fill="#FFC6B5" stroke="black" stroke-width="0.047185"/>
<path d="M23.8999 10.4644C23.8999 10.4644 23.5039 10.6466 23.5197 11.1376C23.4168 11.6128 23.3613 12.088 23.3613 12.088C23.3613 12.088 22.8941 12.6187 22.7515 12.8087C22.6089 12.9988 22.3951 13.3869 22.3159 13.4899C22.2367 13.5928 21.9278 13.9334 21.9357 14.0601C21.9436 14.1868 21.8644 14.7492 22.1733 14.8125C22.2525 14.8442 22.506 14.1631 22.506 14.1631C22.506 14.1631 22.5218 13.87 22.4347 13.8146C22.3476 13.7591 22.6248 13.5691 22.6248 13.5691C22.6248 13.5691 23.1554 13.181 23.2742 13.0859C23.393 12.9909 23.7177 12.6266 23.7177 12.6266L23.8999 10.4644Z" fill="#FFC6B5" stroke="black" stroke-width="0.047185"/>
<path d="M24.3511 10.0922C24.3511 10.0922 24.4541 10.3694 24.6838 10.3219C24.9134 10.2743 25.1827 10.0605 25.1827 10.0605C25.1827 10.0605 25.3966 10.0526 25.4282 10.0843C25.4599 10.1159 26.0064 10.6466 25.9906 10.8129C25.9747 10.9792 25.7371 10.9317 25.65 11.0426C25.5629 11.1535 25.4203 11.4307 25.4599 11.6366C25.4995 11.8425 25.6183 12.1118 25.6025 12.2148C25.5866 12.3177 25.4995 12.3494 25.4995 12.4048C25.4995 12.4603 25.5708 12.5553 25.5708 12.6583C25.5708 12.7612 25.4758 12.9117 25.4916 13.0147C25.5075 13.1176 25.5154 13.4186 25.5154 13.4186L25.4916 14.8125C25.4916 14.8125 25.5708 14.86 25.5787 14.9392C25.5867 15.0184 26.1173 17.3232 26.1173 17.3232C26.1173 17.3232 26.0935 17.3944 26.0381 17.3865C25.9826 17.3786 26.2519 17.7429 26.2599 17.8459C26.2678 17.9489 26.5371 18.7567 26.5291 18.8676C26.5212 18.9785 26.4816 19.224 26.4579 19.2319C26.4341 19.2398 26.6321 19.7388 26.6004 19.818C26.5687 19.8972 26.244 19.8893 26.244 19.8893L26.1569 19.8734C26.1569 19.8734 26.1648 19.9764 26.1015 19.9843C26.0381 19.9922 25.5708 19.9605 25.5708 19.9605C25.5708 19.9605 25.4362 20.1665 25.357 20.1585C25.2778 20.1506 25.1748 20.0081 25.151 20.0318C25.1273 20.0556 25.2223 20.1902 25.1986 20.2298C25.1748 20.2694 24.7709 20.3565 24.6917 20.1665C24.6125 19.9764 24.7392 20.0239 24.7154 19.9843C24.6917 19.9447 24.5095 19.8417 24.4541 19.8734C24.3986 19.9051 24.5966 19.9526 24.5887 20.0318C24.5808 20.111 24.4145 20.2298 24.3511 20.2298C24.2878 20.2298 24.1373 19.9368 23.9155 19.9685C23.6938 20.0001 23.5512 20.0556 23.5512 20.0556C23.5512 20.0556 23.2898 20.1665 23.179 20.1427C23.0681 20.1189 23.0206 20.0318 23.0206 19.9843C23.0206 19.9368 23.0998 19.7309 23.0918 19.6675C23.0839 19.6041 23.0206 19.5408 23.0206 19.4457C23.0206 19.3507 23.2027 19.026 23.2027 19.026L23.1948 17.5687C23.1948 17.5687 23.0285 17.5687 23.0206 17.4657C23.0126 17.3628 23.274 15.161 23.3136 15.0184C23.3532 14.8759 23.4562 14.369 23.4562 14.369C23.4562 14.369 23.3374 14.4244 23.3294 14.369C23.3215 14.3136 23.6858 13.0543 23.6858 13.0543C23.6858 13.0543 23.7492 12.4286 23.7492 12.2623C23.7492 12.096 23.7175 11.8663 23.7175 11.8663C23.7175 11.8663 23.3924 11.7286 23.3849 11.5178C23.3551 11.1824 23.6938 10.9951 23.7334 10.8842C23.773 10.7733 23.8918 10.4407 23.8918 10.4407C23.8918 10.4407 24.066 10.1397 24.3511 10.0922Z" fill="white" stroke="black" stroke-width="0.047185"/>
<path d="M24.2321 20.1506C24.2321 20.1506 23.4638 20.5546 23.353 20.5862C23.2421 20.6179 23.1708 20.4516 23.2817 20.4199C23.3926 20.3882 23.5668 20.3724 23.5668 20.3724C23.5668 20.3724 23.3054 20.1665 23.3133 20.1586C23.3213 20.1506 23.6698 20.0239 23.6777 20.0239C23.6856 20.0239 23.7886 20.2298 23.8598 20.214C23.9311 20.1982 24.137 20.0398 24.137 20.0398C24.137 20.0398 24.2479 20.1665 24.2321 20.1506Z" fill="#FFC72C" stroke="black" stroke-width="0.047185"/>
<path d="M25.3145 20.3724C25.3871 20.4661 25.4155 20.6286 25.5818 20.5335C25.7481 20.4385 25.4966 20.2621 25.4966 20.2621L25.3145 20.3724Z" fill="#FFC6B5" stroke="black" stroke-width="0.047185"/>
<path d="M25.6185 20.3565C25.6185 20.3565 25.6977 20.4199 25.769 20.3486C25.8402 20.2773 25.6264 20.1268 25.6264 20.1268L25.5234 20.2456L25.6185 20.3565Z" fill="#FFC6B5" stroke="black" stroke-width="0.047185"/>
<path d="M25.9586 10.8492C25.9665 10.8492 26.2199 11.6333 26.2516 11.8313C26.2833 12.0293 26.3862 12.8213 26.3466 12.9322C26.307 13.0431 25.9031 13.5737 25.8556 13.7084C25.8081 13.843 25.5229 14.3578 25.5229 14.3578C25.5229 14.3578 25.4517 14.8647 25.42 14.8885C25.3883 14.9122 25.5017 15.0366 25.4913 15.0785C25.4756 15.1257 25.2616 15.3478 25.1666 15.3241C25.0715 15.3003 24.921 15.1894 24.9131 15.0865C24.9052 14.9835 24.921 14.6429 24.9923 14.5558C25.0636 14.4687 25.4358 13.5896 25.4596 13.5341C25.4833 13.4787 25.8001 12.7897 25.8081 12.6709C25.816 12.5521 25.7095 12.2773 25.5975 12.1765C25.3482 11.4429 25.4462 11.0005 25.9586 10.8492Z" fill="#FFC6B5" stroke="black" stroke-width="0.047185"/>
<path d="M24.0976 8.61117C24.0976 8.61117 24.2718 8.63493 24.3669 8.57949C24.4619 8.52405 24.5728 8.5003 24.652 8.61117C24.7312 8.72205 24.7866 8.71413 24.7866 8.71413C24.7866 8.71413 24.6678 9.00717 24.7866 9.03885C24.9054 9.07053 24.9609 9.07053 24.9688 9.11013C24.9767 9.14973 24.8658 9.23685 24.8975 9.27645C24.9292 9.31605 24.9846 9.36358 24.9926 9.39525C25.0005 9.42693 24.9213 9.56157 24.945 9.59325C24.9688 9.62493 25.0401 9.75166 25.0876 9.75166C25.1351 9.75166 25.1034 9.94966 25.246 9.90214C25.3886 9.85462 25.3806 9.72789 25.3806 9.72789C25.3806 9.72789 25.5311 9.70414 25.5707 9.56949C25.6103 9.43485 25.7054 9.40317 25.7054 9.40317C25.7054 9.40317 25.8955 9.30021 25.642 9.14182C25.642 8.03301 24.9134 8.15181 24.9134 8.15181C24.9134 8.15181 24.8262 7.9538 24.6837 7.97757C24.5411 8.00133 24.5332 8.16766 24.4302 8.15181C24.3273 8.13597 24.3035 8.06469 24.2956 8.07261C24.2877 8.08053 24.2006 8.23892 24.2006 8.27853C24.2006 8.31813 23.9234 8.22309 23.9471 8.42901C23.9709 8.63493 24.1055 8.62701 24.0976 8.61117Z" fill="#9C5100" stroke="black" stroke-width="0.047185"/>
<path d="M25.381 10.401C25.381 10.401 24.6761 10.8524 24.6919 11.0108" stroke="black" stroke-width="0.047185"/>
<path d="M25.5391 10.4802C25.5391 10.4802 25.3807 10.6545 25.3728 10.6545" stroke="black" stroke-width="0.047185"/>
<path d="M25.753 10.6703C25.753 10.6703 25.4045 10.9554 25.46 11.1376" stroke="black" stroke-width="0.047185"/>
<path d="M24.1055 10.3615C24.1055 10.3615 24.0025 10.5753 24.0263 10.6466C24.05 10.7178 24.2243 10.9871 24.248 11.1535C24.2718 11.3198 24.248 11.4386 24.248 11.4386" stroke="black" stroke-width="0.047185"/>
<path d="M23.9238 10.7574C23.9238 10.7574 23.9555 11.0109 24.003 11.0584C24.0505 11.1059 24.1773 11.3198 24.1931 11.4069" stroke="black" stroke-width="0.047185"/>
<path d="M23.8604 11.8108C23.8604 11.8108 24.0663 11.9138 24.2564 11.5178" stroke="black" stroke-width="0.047185"/>
<path d="M24.5645 11.2406C24.5566 11.2406 24.414 11.6287 24.6675 11.7712C24.9209 11.9138 25.111 11.898 25.2219 11.8584C25.3328 11.8188 25.4516 11.7475 25.4516 11.7475" stroke="black" stroke-width="0.047185"/>
<path d="M24.454 11.7158C24.454 11.7158 24.4698 12.2385 25.2381 12.7533" stroke="black" stroke-width="0.047185"/>
<path d="M24.4862 12.2068C24.4862 12.2068 24.4783 12.6661 24.7793 12.8721" stroke="black" stroke-width="0.047185"/>
<path d="M24.3271 11.6682C24.3271 11.6682 24.0974 12.3493 23.9153 12.4206" stroke="black" stroke-width="0.047185"/>
<path d="M24.2563 12.1672C24.2563 12.1672 24.2484 12.6582 24.1851 12.8325" stroke="black" stroke-width="0.047185"/>
<path d="M24.1216 12.9513C24.1216 12.9513 24.28 13.1493 24.4542 13.1335C24.6285 13.1176 24.6997 12.9117 24.8185 12.9434C24.9373 12.9751 25.0482 13.0701 25.3254 13.0463" stroke="black" stroke-width="0.047185"/>
<path d="M24.9297 13.2522C24.9297 13.2522 24.9297 13.6561 25.001 13.6957C25.0722 13.7353 25.0406 14.1076 25.0406 14.1076" stroke="black" stroke-width="0.047185"/>
<path d="M23.9631 13.0621C23.9631 13.0621 23.9552 13.4423 23.9077 13.5769C23.8601 13.7116 23.7651 13.9413 23.7809 14.1393" stroke="black" stroke-width="0.047185"/>
<path d="M23.4803 14.3611C23.5199 14.3452 23.6546 14.2264 23.6546 14.2264" stroke="black" stroke-width="0.047185"/>
<path d="M23.725 14.3135C23.725 14.3135 23.3845 15.7708 23.4795 16.642" stroke="black" stroke-width="0.047185"/>
<path d="M23.8045 14.3848C23.8045 14.3848 23.6303 15.4778 23.7095 15.6837" stroke="black" stroke-width="0.047185"/>
<path d="M23.7175 14.3531C23.7254 14.3531 24.3828 14.4007 24.3828 14.4007" stroke="black" stroke-width="0.047185"/>
<path d="M24.478 14.3135C24.478 14.3135 24.6602 14.4086 24.9136 14.3927" stroke="black" stroke-width="0.047185"/>
<path d="M24.3985 14.8442C24.3985 14.8442 24.3669 16.7133 24.3193 17.1251" stroke="black" stroke-width="0.047185"/>
<path d="M25.3728 15.2718C25.3728 15.2718 25.5787 16.9112 25.6975 17.0617" stroke="black" stroke-width="0.047185"/>
<path d="M24.9764 15.4778C24.9764 15.4778 25.1032 16.9271 25.1744 17.0539" stroke="black" stroke-width="0.047185"/>
<path d="M23.1792 17.5607C23.1792 17.5607 23.4247 17.4815 23.6465 17.2439C23.8999 17.5844 24.288 17.2597 24.288 17.2597C24.288 17.2597 24.8899 17.6716 25.1592 17.2122C25.571 17.4815 25.777 17.1726 25.777 17.1726C25.777 17.1726 25.9275 17.4023 26.0383 17.3785" stroke="black" stroke-width="0.047185"/>
<path d="M25.3807 17.5369C25.3807 17.5369 25.6896 18.9863 26.149 19.3981" stroke="black" stroke-width="0.047185"/>
<path d="M23.7889 17.3865C23.7889 17.3865 23.8285 18.5983 23.8998 19.4537" stroke="black" stroke-width="0.047185"/>
<path d="M23.7335 18.7566C23.7335 18.7566 23.6939 19.5486 23.6464 19.604" stroke="black" stroke-width="0.047185"/>
<path d="M23.2659 19.6832C23.2659 19.6832 23.353 20.0238 23.7886 19.707C24.2242 19.3902 24.2321 19.8258 24.2479 19.8733C24.2638 19.9208 24.3351 20.2614 24.5014 19.9763" stroke="black" stroke-width="0.047185"/>
<path d="M24.8504 19.5091C24.8504 19.5091 24.7791 20.214 25.4048 19.6992C26.0304 19.1844 26.1334 19.6913 26.1492 19.8497" stroke="black" stroke-width="0.047185"/>
<path d="M24.8581 8.34186C24.8581 8.34186 24.8027 8.69033 25.1749 8.65866C25.1274 8.84874 25.27 8.9121 25.27 8.9121" stroke="black" stroke-width="0.047185"/>
<path d="M25.5473 9.12592C25.5553 9.12592 25.7137 9.22887 25.5394 9.3556" stroke="black" stroke-width="0.047185"/>
<path d="M25.0087 9.40308C25.0087 9.40308 25.0879 9.49812 25.175 9.47436C25.2621 9.4506 25.4047 9.56148 25.4047 9.56148C25.4047 9.56148 25.5235 9.60108 25.5393 9.57732" stroke="black" stroke-width="0.047185"/>
<path d="M24.5256 9.70405C24.5256 9.70405 24.7949 9.80702 24.9692 9.37933" stroke="black" stroke-width="0.047185"/>
<path d="M24.0264 9.25256L24.1848 9.26048" stroke="black" stroke-width="0.047185"/>
<path d="M22.2694 14.2473L22.2818 14.5944" stroke="black" stroke-width="0.047185"/>
<path d="M21.9438 14.2216C21.9438 14.2216 22.1664 14.5938 22.1478 14.7921" stroke="black" stroke-width="0.047185"/>
<path d="M24.0502 9.41101H24.1927L24.066 9.46645" stroke="black" stroke-width="0.047185" stroke-linejoin="round"/>
<path d="M24.9266 14.9993C24.9266 14.9993 25.093 14.9818 25.0878 15.2596C25.194 14.9145 25.4101 14.9063 25.4101 14.9063" stroke="black" stroke-width="0.047185" stroke-linejoin="round"/>
<path d="M24.2485 8.96756C24.2723 8.96756 24.3594 8.93588 24.3753 8.95964C24.3911 8.98341 24.2802 8.99925 24.2485 8.96756Z" stroke="black" stroke-width="0.08493" stroke-linejoin="round"/>
<path d="M24.3581 22.93C27.7029 22.8371 29.8632 20.4214 29.84 20.3982C29.8167 20.3749 30.2813 19.7245 30.653 19.8174C31.0246 19.9104 31.5589 21.0021 32.2093 21.2344C32.5344 21.7454 32.1163 22.21 31.977 22.3029C31.8376 22.3958 31.2104 22.6513 31.1175 22.2796C31.0246 21.908 30.8388 21.9777 30.8388 21.9777C30.8388 21.9777 27.8656 24.8812 24.4278 24.7651C20.8739 24.7883 17.9471 21.9777 17.9471 21.9777L17.6916 22.2564C17.6916 22.2564 17.4128 22.5584 17.2735 22.5352C17.1341 22.5119 16.5302 22.1171 16.4837 21.7222C16.4372 21.3273 16.8554 21.0718 16.8554 21.0718C16.8554 21.0718 17.8774 20.282 17.9935 19.8639C18.2258 19.6316 18.6672 20.0265 18.6672 20.0265C18.6672 20.0265 21.3616 23.1159 24.3581 22.93Z" fill="#FFC72C" stroke="black" stroke-width="0.094365"/>
<path d="M16.7863 21.1333C16.7863 21.1333 17.0627 21.0596 17.164 21.1747C17.2653 21.2899 17.9609 21.9717 17.9609 21.9717" stroke="black" stroke-width="0.094365"/>
<path d="M17.417 21.4557L17.1406 21.663C17.1406 21.663 17.8362 21.8012 17.6796 22.2573" stroke="black" stroke-width="0.094365"/>
<path d="M20.3263 21.8709C20.3081 21.9235 20.2602 21.8695 20.2204 21.88C20.1157 21.884 20.0287 21.9523 19.939 21.9989C19.6322 22.1778 19.3254 22.3566 19.0186 22.5355C18.9877 22.5253 18.995 22.5003 19.0026 22.4752C19.0843 22.092 19.1693 21.7095 19.2488 21.3259C19.262 21.2588 19.2833 21.1754 19.2185 21.1265C19.1909 21.1077 19.2336 21.0696 19.2512 21.1043C19.4081 21.2161 19.5649 21.3279 19.7217 21.4398C19.7066 21.484 19.6799 21.453 19.6531 21.4351C19.588 21.3724 19.5095 21.4303 19.5114 21.5094C19.4555 21.762 19.4009 22.015 19.3455 22.2677C19.5538 22.1439 19.7644 22.024 19.9708 21.8971C20.0445 21.8643 20.0988 21.7655 20.0222 21.7043C19.9931 21.6872 19.9451 21.6404 19.993 21.6332C20.1041 21.7125 20.2152 21.7917 20.3263 21.8709Z" fill="black"/>
<path d="M20.6573 23.4701C20.6489 23.4987 20.634 23.505 20.6112 23.4844C20.4266 23.3834 20.2421 23.2825 20.0575 23.1816C20.0659 23.153 20.0808 23.1467 20.1036 23.1673C20.1536 23.2013 20.2353 23.2142 20.2718 23.1545C20.3451 23.037 20.4068 22.9126 20.4747 22.7918C20.567 22.6209 20.6632 22.4519 20.7527 22.2794C20.7955 22.2184 20.7477 22.1431 20.6878 22.1169C20.6676 22.1061 20.6377 22.098 20.6634 22.0737C20.6757 22.0585 20.7019 22.0909 20.7198 22.0949C20.8968 22.1916 21.0737 22.2884 21.2506 22.3851C21.2423 22.4138 21.2273 22.4201 21.2045 22.3995C21.1545 22.3655 21.0724 22.3525 21.0355 22.4117C20.9623 22.5293 20.9005 22.6537 20.8326 22.7744C20.7403 22.9454 20.6441 23.1144 20.5546 23.2868C20.5118 23.3484 20.5594 23.4242 20.6203 23.4498C20.6326 23.4566 20.645 23.4633 20.6573 23.4701Z" fill="black"/>
<path d="M22.7873 22.9704C22.7372 23.1111 22.6871 23.2518 22.6369 23.3925C22.5753 23.386 22.6163 23.3072 22.5971 23.2656C22.5751 23.0756 22.435 22.8982 22.2441 22.8575C22.0981 22.8178 21.9441 22.8929 21.8584 23.0116C21.7289 23.1885 21.6501 23.4043 21.6391 23.6234C21.6317 23.7479 21.6888 23.8757 21.7975 23.9412C21.8837 23.998 21.9884 24.0209 22.0907 24.018C22.1268 23.9116 22.17 23.8073 22.2001 23.699C22.2124 23.6285 22.1396 23.586 22.0813 23.5698C22.0722 23.5494 22.0948 23.5242 22.1185 23.5463C22.3025 23.6118 22.4864 23.6773 22.6704 23.7428C22.6638 23.8107 22.5871 23.7374 22.5446 23.7645C22.4766 23.7906 22.4707 23.8723 22.445 23.9315C22.4226 23.9944 22.4001 24.0573 22.3777 24.1203C22.1304 24.1378 21.8756 24.0854 21.6603 23.961C21.4511 23.8291 21.3096 23.5745 21.3508 23.3248C21.3826 23.1111 21.5158 22.911 21.7128 22.8166C21.8938 22.7204 22.1147 22.7208 22.3026 22.797C22.4054 22.8316 22.4941 22.8952 22.5736 22.9675C22.6218 23.0325 22.7151 23.0326 22.7546 22.9588C22.7655 22.9626 22.7764 22.9665 22.7873 22.9704Z" fill="black"/>
<path d="M23.6847 24.4111C23.6836 24.4335 23.6811 24.4541 23.6542 24.4415C23.4436 24.4096 23.233 24.3777 23.0223 24.3458C23.0235 24.3234 23.026 24.3028 23.0528 24.3153C23.1076 24.3265 23.181 24.3256 23.2075 24.2665C23.2342 24.1821 23.2396 24.0927 23.255 24.0058C23.2911 23.7629 23.3297 23.5205 23.3643 23.2774C23.3777 23.225 23.3597 23.1658 23.3055 23.1454C23.2748 23.1309 23.2406 23.1287 23.2075 23.1232C23.2087 23.1008 23.2112 23.0802 23.238 23.0927C23.4487 23.1246 23.6593 23.1565 23.8699 23.1885C23.8688 23.2109 23.8663 23.2314 23.8394 23.2189C23.7843 23.2076 23.7113 23.2091 23.6839 23.2676C23.6571 23.352 23.6518 23.4414 23.6364 23.5284C23.6002 23.7712 23.5616 24.0137 23.5271 24.2567C23.5138 24.3089 23.5318 24.3694 23.5863 24.3891C23.6173 24.4032 23.6516 24.4056 23.6847 24.4111Z" fill="black"/>
<path d="M25.3912 23.9968C25.3829 24.1461 25.3745 24.2955 25.3662 24.4449C24.9904 24.464 24.6147 24.4832 24.2389 24.5024C24.232 24.4749 24.2394 24.4603 24.2692 24.4661C24.3259 24.4675 24.3989 24.4435 24.4061 24.3785C24.4111 24.2672 24.3986 24.1558 24.3949 24.0444C24.3827 23.8224 24.3739 23.6001 24.3594 23.3782C24.3656 23.3121 24.3061 23.2631 24.2434 23.2652C24.2235 23.2551 24.1696 23.2859 24.175 23.2496C24.1659 23.2202 24.2068 23.2359 24.224 23.2302C24.433 23.2196 24.6421 23.2089 24.8511 23.1982C24.858 23.2257 24.8506 23.2403 24.8208 23.2345C24.7628 23.2342 24.6875 23.2483 24.6715 23.3137C24.6623 23.41 24.6758 23.5069 24.6784 23.6035C24.6911 23.8347 24.7001 24.0662 24.7154 24.2973C24.7107 24.3578 24.7592 24.4113 24.8219 24.3997C24.9134 24.3951 25.0069 24.399 25.0962 24.376C25.2216 24.3427 25.2899 24.2185 25.3242 24.1025C25.3467 24.0712 25.3281 23.9929 25.3778 23.9974C25.3823 23.9972 25.3867 23.997 25.3912 23.9968Z" fill="black"/>
<path d="M26.2698 22.9119C26.2399 22.9125 26.2531 22.9506 26.2455 22.9706C26.1956 23.3444 26.1483 23.7186 26.0967 24.0922C26.0842 24.1749 26.0635 24.2716 25.9818 24.3134C25.9517 24.3241 25.9782 24.3715 26.0059 24.3452C26.1313 24.3075 26.2568 24.2699 26.3823 24.2322C26.3776 24.1688 26.3053 24.2264 26.2648 24.2153C26.1784 24.2152 26.1656 24.1103 26.1776 24.0447C26.1828 24.0005 26.1881 23.9562 26.1933 23.9119C26.337 23.8687 26.4808 23.8255 26.6245 23.7822C26.6795 23.8515 26.7402 23.9168 26.79 23.9899C26.8274 24.0604 26.7365 24.0926 26.6838 24.1062C26.6591 24.1088 26.6806 24.1605 26.7031 24.1365C26.892 24.0799 27.0809 24.0232 27.2698 23.9666C27.2681 23.9025 27.186 23.9626 27.1514 23.9198C27.0453 23.8401 26.9692 23.7292 26.8814 23.631C26.6775 23.3913 26.4737 23.1516 26.2698 22.9119ZM26.2667 23.3604C26.3688 23.4822 26.4709 23.6041 26.5729 23.726C26.4505 23.7624 26.3282 23.7989 26.2058 23.8354C26.2261 23.677 26.2464 23.5187 26.2667 23.3604Z" fill="black"/>
<path d="M28.198 22.07C28.2523 22.171 28.3066 22.272 28.3609 22.373C28.3102 22.4165 28.2839 22.3155 28.2379 22.3001C28.1626 22.2367 28.049 22.2247 27.9651 22.2785C27.9308 22.2964 27.8968 22.315 27.8627 22.3332C28.0265 22.6366 28.1881 22.9413 28.3534 23.2439C28.379 23.3215 28.4743 23.336 28.5358 23.2923C28.5596 23.275 28.5812 23.2652 28.5888 23.3017C28.5056 23.3499 28.4147 23.3958 28.3286 23.4431C28.2201 23.5014 28.1116 23.5597 28.0032 23.618C27.9776 23.5915 27.9947 23.5779 28.0235 23.5677C28.1006 23.5391 28.1302 23.4455 28.0786 23.3796C27.9183 23.0783 27.7556 22.7783 27.5943 22.4775C27.5045 22.5273 27.3898 22.5721 27.3672 22.6841C27.3417 22.7546 27.3792 22.8408 27.3792 22.9008C27.3516 22.9295 27.3443 22.8904 27.3315 22.8696C27.2851 22.7833 27.2387 22.697 27.1923 22.6107C27.5275 22.4304 27.8627 22.2502 28.198 22.07Z" fill="black"/>
<path d="M28.9608 21.6178C29.0647 21.7556 29.1686 21.8933 29.2725 22.031C29.3447 21.9851 29.4051 21.903 29.3834 21.8133C29.3917 21.7433 29.2916 21.664 29.326 21.6148C29.3486 21.6008 29.362 21.6532 29.3807 21.667C29.4994 21.8243 29.618 21.9816 29.7366 22.1388C29.6902 22.1917 29.6566 22.0839 29.6075 22.0723C29.5381 22.023 29.4408 21.9984 29.3665 22.0524C29.311 22.0702 29.3136 22.1013 29.3513 22.1355C29.4348 22.2433 29.5123 22.3561 29.6015 22.4593C29.656 22.5122 29.7239 22.4569 29.7701 22.4201C29.8895 22.3388 29.9943 22.2119 29.9882 22.0596C29.996 21.9931 29.9542 21.9189 29.9547 21.8628C29.9814 21.8272 29.9889 21.8825 30.0043 21.9006C30.0604 22.0019 30.1165 22.1033 30.1726 22.2046C29.8802 22.4251 29.5878 22.6457 29.2954 22.8662C29.2573 22.8393 29.2948 22.8234 29.3188 22.8048C29.4007 22.7542 29.3746 22.6509 29.3144 22.5941C29.127 22.3473 28.9429 22.0979 28.7531 21.8529C28.7045 21.7871 28.6148 21.8218 28.5658 21.8677C28.5455 21.8965 28.5136 21.8388 28.5522 21.8345C28.8279 21.6265 29.1036 21.4185 29.3793 21.2106C29.4548 21.3106 29.5303 21.4107 29.6057 21.5107C29.5533 21.5639 29.5068 21.4454 29.447 21.4392C29.3383 21.3826 29.2091 21.4282 29.1193 21.4996C29.0656 21.5379 29.0136 21.5784 28.9608 21.6178Z" fill="black"/>
</g>
<defs>
<linearGradient id="paint0_linear_1_17141" x1="19.6698" y1="8.78133" x2="19.0993" y2="8.6972" gradientUnits="userSpaceOnUse">
<stop stop-color="#FF0000"/>
<stop offset="1" stop-color="#FFFF00"/>
</linearGradient>
<linearGradient id="paint1_linear_1_17141" x1="19.6311" y1="10.8466" x2="19.0606" y2="10.7625" gradientUnits="userSpaceOnUse">
<stop stop-color="#FF0000"/>
<stop offset="1" stop-color="#FFFF00"/>
</linearGradient>
<linearGradient id="paint2_linear_1_17141" x1="19.6155" y1="12.8821" x2="19.045" y2="12.798" gradientUnits="userSpaceOnUse">
<stop stop-color="#FF0000"/>
<stop offset="1" stop-color="#FFFF00"/>
</linearGradient>
<linearGradient id="paint3_linear_1_17141" x1="20.9509" y1="15.0864" x2="20.3804" y2="15.0023" gradientUnits="userSpaceOnUse">
<stop stop-color="#FF0000"/>
<stop offset="1" stop-color="#FFFF00"/>
</linearGradient>
<linearGradient id="paint4_linear_1_17141" x1="19.4408" y1="16.8895" x2="18.8703" y2="16.8054" gradientUnits="userSpaceOnUse">
<stop stop-color="#FF0000"/>
<stop offset="1" stop-color="#FFFF00"/>
</linearGradient>
<linearGradient id="paint5_linear_1_17141" x1="19.4803" y1="19.02" x2="18.9098" y2="18.9358" gradientUnits="userSpaceOnUse">
<stop stop-color="#FF0000"/>
<stop offset="1" stop-color="#FFFF00"/>
</linearGradient>
<linearGradient id="paint6_linear_1_17141" x1="26.9833" y1="8.81496" x2="26.4128" y2="8.73083" gradientUnits="userSpaceOnUse">
<stop stop-color="#FF0000"/>
<stop offset="1" stop-color="#FFFF00"/>
</linearGradient>
<linearGradient id="paint7_linear_1_17141" x1="26.9164" y1="10.8423" x2="26.3459" y2="10.7582" gradientUnits="userSpaceOnUse">
<stop stop-color="#FF0000"/>
<stop offset="1" stop-color="#FFFF00"/>
</linearGradient>
<linearGradient id="paint8_linear_1_17141" x1="26.827" y1="12.9145" x2="26.2565" y2="12.8304" gradientUnits="userSpaceOnUse">
<stop stop-color="#FF0000"/>
<stop offset="1" stop-color="#FFFF00"/>
</linearGradient>
<linearGradient id="paint9_linear_1_17141" x1="26.9275" y1="14.953" x2="26.357" y2="14.8688" gradientUnits="userSpaceOnUse">
<stop stop-color="#FF0000"/>
<stop offset="1" stop-color="#FFFF00"/>
</linearGradient>
<linearGradient id="paint10_linear_1_17141" x1="26.9055" y1="16.9917" x2="26.335" y2="16.9075" gradientUnits="userSpaceOnUse">
<stop stop-color="#FF0000"/>
<stop offset="1" stop-color="#FFFF00"/>
</linearGradient>
<linearGradient id="paint11_linear_1_17141" x1="26.9164" y1="19.0412" x2="26.3459" y2="18.9571" gradientUnits="userSpaceOnUse">
<stop stop-color="#FF0000"/>
<stop offset="1" stop-color="#FFFF00"/>
</linearGradient>
<clipPath id="clip0_1_17141">
<rect y="0.0010376" width="30" height="30" rx="15" fill="white"/>
</clipPath>
</defs>
</svg>
