<svg width="30" height="30" viewBox="0 0 30 30" fill="none" xmlns="http://www.w3.org/2000/svg">
<path d="M29.7463 12.2838C28.4631 5.2984 22.3561 0.0010376 15.0071 0.0010376C11.3977 0.0010376 8.08344 1.27731 5.49652 3.40449L20.9975 12.2838H29.7463Z" fill="#D21034"/>
<path d="M5.48962 26.5976C8.07654 28.7248 11.3908 30.001 15.0001 30.001C22.356 30.001 28.4631 24.7037 29.7394 17.7183H20.9837L5.48962 26.5976Z" fill="#009543"/>
<path d="M4.06921 4.74946L20.5651 14.1982H29.959C29.9247 13.5463 29.856 12.9082 29.7394 12.2838H20.9837L5.48275 3.40448C4.9887 3.81619 4.5221 4.27599 4.06921 4.74946Z" fill="black"/>
<path d="M3.04678 5.96393C1.13919 8.48223 0.00012207 11.6044 0.00012207 15.001C0.00012207 18.3976 1.14605 21.5198 3.04678 24.0381L18.8222 15.001L3.04678 5.96393Z" fill="black"/>
<path d="M4.06921 25.2526C4.51523 25.7261 4.98184 26.1858 5.48962 26.5975L20.9837 17.7183H29.7394C29.856 17.0938 29.9247 16.4489 29.959 15.797H20.5651L4.06921 25.2526Z" fill="black"/>
<path d="M29.9589 14.1981H20.565L4.06916 4.74945C3.70548 5.13371 3.36926 5.53849 3.04675 5.96393L18.8221 15.001L3.04675 24.0381C3.36926 24.4635 3.70548 24.8684 4.06916 25.2527L20.565 15.8039H29.9589C29.9726 15.5363 30.0001 15.2755 30.0001 15.001C30.0001 14.7334 29.9795 14.4658 29.9589 14.1981Z" fill="#FFCE00"/>
<path d="M5.63379 10.7398C5.99747 10.7124 6.36115 10.7809 6.71111 10.877C7.03362 10.9662 7.35612 11.0966 7.65118 11.2613C8.25502 11.5975 8.76966 12.0916 9.09217 12.7092C9.43526 13.361 9.55877 14.0952 9.55877 14.8226C9.55877 15.5705 9.41466 16.3253 9.07843 16.9978C8.78337 17.5811 8.34423 18.0889 7.80901 18.4663C7.2532 18.8642 6.59445 19.1318 5.91513 19.2279C5.81907 19.2416 5.44853 19.2622 5.44853 19.2622V17.6703C5.44853 17.6703 5.67497 17.6565 5.723 17.6565C6.40232 17.581 6.99931 17.1968 7.42475 16.6753C7.64433 16.4077 7.81586 16.0989 7.94623 15.7832C8.01485 15.6117 8.06975 15.4333 8.10406 15.248C8.14523 15.0696 8.16582 14.8844 8.16582 14.706C8.16582 14.5138 8.15209 14.3285 8.11778 14.1433C8.08347 13.958 8.02171 13.7796 7.94623 13.608C7.82272 13.3198 7.65118 13.0591 7.43846 12.8257C6.99244 12.3386 6.36801 12.0229 5.69555 11.9955C5.33873 11.9818 4.98878 12.0504 4.66627 12.1945C4.37807 12.3249 4.11733 12.5239 3.90462 12.764C3.6919 13.0042 3.51348 13.2924 3.40369 13.5944C3.28704 13.9306 3.21843 14.2805 3.2596 14.6373C3.34194 15.3235 3.79481 15.9274 4.40552 16.243C4.70058 16.394 5.03682 16.4832 5.36619 16.5038C5.72301 16.5244 6.07295 16.4763 6.40232 16.3322C6.68365 16.2087 6.93068 16.0165 7.12967 15.7832C7.2326 15.6666 7.32181 15.5431 7.39042 15.4127C7.4316 15.3441 7.4659 15.2755 7.49335 15.2C7.51393 15.1588 7.52766 15.1108 7.54139 15.0696C7.55511 15.0284 7.56197 14.9804 7.58256 14.9393C7.59628 14.9049 7.60315 14.85 7.61001 14.8157C7.61687 14.7677 7.62372 14.7265 7.62372 14.6785C7.63745 14.7746 7.63746 14.8706 7.63746 14.9735C7.63746 15.0696 7.63745 15.1657 7.62372 15.2617C7.60314 15.4333 7.56884 15.6117 7.50709 15.7764C7.3973 16.0852 7.20515 16.3665 6.95813 16.5861C6.7111 16.8057 6.41604 16.9704 6.10039 17.0801C5.93571 17.135 5.76416 17.183 5.58576 17.2105C5.40049 17.2379 5.21522 17.2311 5.02995 17.2036C4.3369 17.1213 3.63014 16.8606 3.10864 16.3802C2.86847 16.1606 2.66948 15.893 2.52538 15.598C2.36756 15.2549 2.27835 14.8912 2.24404 14.5138C2.23032 14.3217 2.23031 14.1296 2.23717 13.9374C2.24403 13.7522 2.27148 13.5669 2.30579 13.3816C2.38127 13.0248 2.51166 12.6817 2.70379 12.3729C3.05375 11.8171 3.5821 11.3985 4.17909 11.124C4.64569 10.9182 5.13974 10.781 5.63379 10.7398Z" fill="#FECE12"/>
<path d="M6.84129 12.8945C6.86188 12.8739 6.88932 12.8533 6.92363 12.8533C6.94422 12.8601 6.96479 12.8808 6.95793 12.9082C6.96479 12.9494 6.93049 12.9836 6.90305 13.0111C6.80698 13.0934 6.69719 13.1483 6.58054 13.2101C6.69033 13.1758 6.80011 13.1209 6.91676 13.1072C6.95793 13.1072 7.00597 13.1003 7.03342 13.1346C7.03342 13.1415 7.03342 13.1484 7.03342 13.1552C6.99911 13.1964 6.95107 13.2101 6.89618 13.2238C6.75208 13.265 6.60112 13.2856 6.45016 13.2993C6.39527 13.3062 6.36095 13.3542 6.31292 13.3679C6.42957 13.3473 6.53937 13.3131 6.64916 13.3199C6.66975 13.3199 6.69032 13.3267 6.70405 13.3404C6.69718 13.361 6.69032 13.3748 6.67659 13.3885C6.64228 13.416 6.60112 13.4228 6.55995 13.4365C6.45703 13.4571 6.34724 13.4571 6.24431 13.4571C6.23059 13.4571 6.21 13.4503 6.19628 13.464C6.16883 13.4846 6.14138 13.5051 6.10707 13.5189C6.19627 13.5051 6.29233 13.4777 6.38154 13.4777C6.41585 13.4709 6.45702 13.4709 6.49133 13.4915C6.49133 13.4983 6.49133 13.512 6.49133 13.5189C6.47761 13.5394 6.45703 13.5532 6.43644 13.5601C6.3541 13.5944 6.27175 13.5943 6.18941 13.6081C6.12765 13.6149 6.06589 13.6081 6.01099 13.6149C5.96982 13.6355 5.94239 13.6698 5.90122 13.6973C6.01101 13.6835 6.11394 13.6493 6.22373 13.6561C6.23745 13.6561 6.25802 13.6699 6.27175 13.6767C6.27175 13.6836 6.27175 13.6973 6.27175 13.711C6.25802 13.7316 6.24431 13.7522 6.22373 13.7591C6.1757 13.7934 6.10707 13.8071 6.04531 13.8208C5.94239 13.8345 5.8326 13.8483 5.72968 13.8483C5.6885 13.8757 5.65419 13.9168 5.61301 13.9512C5.66105 13.9443 5.70223 13.9238 5.75026 13.9169C5.8326 13.8963 5.91493 13.8688 5.99728 13.8963C5.99728 13.8963 6.00413 13.91 6.01099 13.91C6.01099 13.9169 6.01099 13.9238 6.01099 13.9306C5.97668 13.9855 5.91493 14.006 5.86003 14.0266C5.72966 14.0747 5.59242 14.0884 5.45518 14.1158C5.41401 14.1364 5.38657 14.1776 5.35226 14.2119C5.3454 14.2188 5.33854 14.2188 5.33168 14.2256C5.4346 14.2051 5.53068 14.1639 5.64047 14.157C5.66105 14.1502 5.68164 14.157 5.70222 14.1639C5.70222 14.1845 5.68849 14.205 5.67477 14.2188C5.61301 14.2805 5.53753 14.3149 5.45518 14.3423C5.36598 14.3766 5.26991 14.3972 5.17385 14.4109C5.12581 14.4658 5.09152 14.5207 5.04349 14.5687C5.08466 14.5481 5.12583 14.5207 5.167 14.507C5.24248 14.4727 5.3111 14.4315 5.38658 14.4109C5.41403 14.4041 5.43461 14.4041 5.46205 14.4109C5.46205 14.4246 5.46205 14.4384 5.46205 14.4453C5.43461 14.5002 5.38657 14.5413 5.33168 14.5756C5.2013 14.6511 5.05034 14.6991 4.90624 14.7334C4.88566 14.7609 4.86508 14.7883 4.84449 14.8158C4.83763 14.8158 4.83077 14.8226 4.82391 14.8226C4.85822 14.8226 4.88565 14.7952 4.91996 14.7815C4.98858 14.7472 5.05035 14.7129 5.12583 14.6923C5.15328 14.6854 5.18072 14.6923 5.20817 14.6923C5.21503 14.754 5.16012 14.7952 5.11209 14.8295C4.98172 14.9187 4.83762 14.9736 4.68666 15.0216C4.66608 15.0559 4.64549 15.0834 4.61804 15.1177C4.65921 15.104 4.7004 15.0697 4.74157 15.0491C4.82391 15.0079 4.9131 14.9599 5.0023 14.9393C5.02975 14.9324 5.05721 14.9324 5.07779 14.9393C5.07779 14.9599 5.0778 14.9804 5.06407 15.001C5.03663 15.0491 4.98858 15.0765 4.94055 15.1108C4.81703 15.1726 4.6798 15.2137 4.54257 15.248C4.52198 15.2686 4.50825 15.2961 4.49453 15.3235C4.48767 15.3304 4.48081 15.3304 4.47395 15.3373C4.51512 15.3373 4.54256 15.3099 4.57687 15.2961C4.66607 15.255 4.75529 15.2069 4.84449 15.1794C4.8788 15.1726 4.90624 15.1726 4.94055 15.1726C4.94741 15.1794 4.95427 15.1932 4.96113 15.2001C4.96113 15.2069 4.96113 15.2138 4.96113 15.2207C4.94741 15.2412 4.93368 15.2618 4.91996 15.2755C4.87193 15.3167 4.81017 15.3441 4.74841 15.3647C4.63863 15.4059 4.52197 15.4402 4.40532 15.4677C4.37101 15.5294 4.32985 15.598 4.30927 15.6666C4.27496 15.6598 4.25438 15.6392 4.22693 15.6255C4.22693 15.6186 4.22693 15.6117 4.22693 15.6049C4.28182 15.5294 4.32298 15.4402 4.38474 15.3647C4.38474 15.351 4.37788 15.3304 4.37102 15.3167C4.35044 15.2755 4.33671 15.2275 4.32298 15.1863C4.31612 15.1657 4.31613 15.1452 4.30927 15.1315C4.28868 15.0354 4.27496 14.9393 4.30927 14.8432C4.32985 14.7952 4.3573 14.754 4.39847 14.7334C4.4122 14.7197 4.43277 14.7334 4.44649 14.7334C4.48766 14.8158 4.48081 14.9187 4.48081 15.0079C4.48081 15.0422 4.47395 15.0697 4.47395 15.104C4.47395 15.1451 4.46021 15.1931 4.46708 15.2343C4.46708 15.2275 4.47395 15.2207 4.47395 15.2138C4.49453 15.1932 4.50827 15.1657 4.52885 15.1451C4.52885 15.1245 4.52884 15.1108 4.52198 15.0902C4.50826 15.0079 4.49452 14.9256 4.48766 14.8501C4.48766 14.7678 4.48081 14.6923 4.5014 14.6168C4.51512 14.5756 4.5357 14.5276 4.57687 14.5139C4.59745 14.507 4.61118 14.5275 4.61804 14.5413C4.64549 14.6099 4.63862 14.6854 4.63862 14.7609C4.63862 14.8158 4.63864 14.8638 4.63178 14.9118C4.62491 14.9461 4.62491 14.9805 4.63178 15.0079C4.63178 15.001 4.63862 14.9942 4.63862 14.9873C4.65921 14.9598 4.67981 14.9324 4.7004 14.905C4.7004 14.8912 4.70039 14.8707 4.69353 14.857C4.67981 14.7334 4.66609 14.5962 4.67981 14.4658C4.68668 14.4109 4.70038 14.3492 4.74841 14.308C4.769 14.2943 4.78274 14.3011 4.80332 14.308C4.81018 14.3354 4.81704 14.3629 4.82391 14.3903C4.83077 14.4795 4.8239 14.5756 4.81704 14.6648C4.81018 14.6991 4.81017 14.7334 4.81017 14.7678C4.83762 14.7266 4.86508 14.6923 4.89253 14.6579C4.88567 14.5001 4.86508 14.3423 4.91311 14.1914C4.91998 14.1708 4.92682 14.157 4.94055 14.1364C4.96113 14.1158 4.97485 14.0884 5.0023 14.0747C5.01602 14.0678 5.02977 14.0747 5.04349 14.0747C5.05035 14.0816 5.05721 14.1022 5.06407 14.109C5.07094 14.2188 5.05034 14.3286 5.02975 14.4384C5.02289 14.4658 5.01603 14.4933 5.00917 14.5276C5.03662 14.4864 5.07778 14.4452 5.11209 14.4109C5.10523 14.3286 5.09838 14.2394 5.10524 14.1639C5.11211 14.1227 5.1121 14.0815 5.11896 14.0404C5.13268 13.9855 5.15328 13.9237 5.19445 13.8894C5.20818 13.8757 5.22875 13.8757 5.24934 13.8825C5.28365 14.0198 5.23561 14.157 5.22188 14.2874L5.22875 14.2737C5.2562 14.2463 5.29051 14.2188 5.31109 14.1914C5.31109 14.0541 5.3111 13.9168 5.35913 13.7865C5.37971 13.7384 5.40716 13.6835 5.46205 13.6904C5.46891 13.7041 5.47578 13.7248 5.48264 13.7453C5.48264 13.7659 5.48264 13.7796 5.48264 13.8002C5.47578 13.8414 5.47578 13.8826 5.46205 13.9306C5.45519 13.9581 5.4552 13.9855 5.44834 14.013C5.44834 14.0336 5.44147 14.0541 5.44147 14.0678C5.46892 14.0404 5.50323 14.0129 5.53068 13.9786C5.53068 13.8414 5.53068 13.6973 5.5993 13.5738C5.62675 13.5326 5.68163 13.4777 5.73652 13.5052C5.74338 13.5464 5.73652 13.5806 5.73652 13.6218L5.72968 13.6287C5.72968 13.6424 5.72281 13.6493 5.72281 13.663C5.71594 13.6767 5.70909 13.6904 5.70909 13.711C5.69537 13.7453 5.68163 13.7796 5.67477 13.8139C5.66791 13.8277 5.66791 13.8414 5.66105 13.8551C5.65419 13.8551 5.64732 13.8619 5.64732 13.8619C5.6679 13.8619 5.68164 13.8414 5.70222 13.8277C5.72281 13.814 5.74338 13.7933 5.75711 13.7727C5.75711 13.7316 5.76398 13.6904 5.77084 13.6561C5.77771 13.6218 5.78456 13.5944 5.78456 13.5601C5.79828 13.5189 5.80514 13.4777 5.81886 13.4365C5.83945 13.3816 5.86004 13.3199 5.91494 13.2856C5.93552 13.2718 5.95611 13.2787 5.97669 13.2856C5.99042 13.3748 5.9561 13.4502 5.92865 13.5326C5.92865 13.5394 5.92867 13.5463 5.92181 13.5532C5.90122 13.5944 5.88749 13.6355 5.87377 13.6835C5.90122 13.6629 5.92867 13.6424 5.96298 13.6218C5.9767 13.5326 5.99728 13.4503 6.02473 13.3748C6.03159 13.3542 6.03845 13.3405 6.04531 13.3268C6.07276 13.2719 6.10021 13.2169 6.15511 13.1826C6.17569 13.1689 6.20314 13.1758 6.22373 13.1758C6.22373 13.1963 6.22373 13.217 6.22373 13.2376C6.20314 13.3131 6.16882 13.3885 6.12765 13.4571C6.12079 13.4777 6.10706 13.4983 6.1002 13.5189C6.12765 13.4983 6.15509 13.4846 6.18254 13.464C6.19626 13.4228 6.21001 13.3748 6.22373 13.3337C6.22373 13.3268 6.23058 13.313 6.23745 13.2993C6.27175 13.217 6.30607 13.1346 6.36782 13.066C6.39527 13.0386 6.43644 13.0111 6.47761 13.0179C6.47761 13.0454 6.4776 13.0728 6.46388 13.0934C6.42957 13.1758 6.38153 13.2513 6.3335 13.3268C6.31978 13.3474 6.31292 13.3611 6.2992 13.3748C6.32665 13.3542 6.36782 13.3405 6.38841 13.3199C6.43644 13.217 6.49134 13.114 6.56682 13.0179C6.60113 12.9768 6.64916 12.9287 6.71091 12.9356C6.71091 12.9425 6.71091 12.9631 6.71091 12.97C6.66974 13.0592 6.60797 13.1415 6.54622 13.217C6.58052 13.2032 6.6217 13.1827 6.65601 13.1552C6.72463 13.0454 6.77267 12.9631 6.84129 12.8945Z" fill="#FECE12"/>
<path d="M4.43963 12.8945C4.41904 12.8739 4.3916 12.8533 4.35729 12.8533C4.3367 12.8601 4.31611 12.8808 4.32297 12.9082C4.31611 12.9494 4.35043 12.9836 4.37787 13.0111C4.47394 13.0934 4.59059 13.1483 4.70038 13.2101C4.58373 13.1758 4.48079 13.1209 4.36414 13.1072C4.32297 13.1072 4.27494 13.1003 4.2475 13.1346C4.2475 13.1415 4.2475 13.1484 4.2475 13.1552C4.28181 13.1964 4.32984 13.2101 4.37787 13.2238C4.52197 13.265 4.67293 13.2856 4.82389 13.2993C4.87879 13.3062 4.91308 13.3542 4.96111 13.3679C4.85133 13.3473 4.73468 13.3131 4.62489 13.3199C4.60431 13.3199 4.58373 13.3267 4.57001 13.3404C4.57687 13.361 4.57685 13.3748 4.59744 13.3885C4.63175 13.416 4.67293 13.4228 4.72097 13.4365C4.82389 13.4571 4.93368 13.4571 5.03661 13.4571C5.05033 13.4571 5.07091 13.4503 5.09149 13.464C5.11894 13.4846 5.14639 13.5051 5.1807 13.5189C5.08463 13.5051 4.99543 13.4777 4.90623 13.4777C4.86506 13.4709 4.83075 13.4709 4.79644 13.4915C4.79644 13.4983 4.79644 13.512 4.79644 13.5189C4.81016 13.5394 4.83076 13.5532 4.85134 13.5601C4.93369 13.5944 5.01602 13.5943 5.10523 13.6081C5.16699 13.6149 5.22187 13.6081 5.28362 13.6149C5.32479 13.6355 5.35224 13.6698 5.39341 13.6973C5.28362 13.6835 5.1807 13.6493 5.07091 13.6561C5.05032 13.6561 5.03661 13.6699 5.02289 13.6767C5.02289 13.6836 5.02289 13.6973 5.02289 13.711C5.03661 13.7316 5.05034 13.7522 5.06406 13.7591C5.11895 13.7934 5.1807 13.8071 5.24245 13.8208C5.35224 13.8345 5.45517 13.8483 5.56496 13.8483C5.60613 13.8757 5.64045 13.9168 5.68162 13.9512C5.63359 13.9443 5.59241 13.9238 5.54438 13.9169C5.46203 13.8963 5.3797 13.8688 5.29736 13.8963C5.2905 13.8963 5.29048 13.91 5.28362 13.91C5.28362 13.9169 5.28362 13.9238 5.28362 13.9306C5.31793 13.9855 5.37969 14.006 5.43458 14.0266C5.56496 14.0747 5.70219 14.0884 5.83943 14.1158C5.8806 14.1364 5.90807 14.1776 5.94237 14.2119C5.94924 14.2188 5.9561 14.2188 5.96296 14.2256C5.86003 14.2051 5.76396 14.1639 5.65417 14.157C5.63358 14.1502 5.613 14.157 5.59241 14.1639C5.59241 14.1845 5.60614 14.205 5.61987 14.2188C5.68162 14.2805 5.76395 14.3149 5.83943 14.3423C5.92863 14.3766 6.03156 14.3972 6.12077 14.4109C6.1688 14.4658 6.20312 14.5207 6.25801 14.5687C6.21684 14.5481 6.17568 14.5207 6.13451 14.507C6.05903 14.4727 5.9904 14.4315 5.91492 14.4109C5.88747 14.4041 5.86688 14.4041 5.83943 14.4109C5.83943 14.4246 5.83943 14.4384 5.83943 14.4453C5.86688 14.5002 5.91493 14.5413 5.96296 14.5756C6.09333 14.6511 6.24429 14.6991 6.38839 14.7334C6.40898 14.7609 6.42956 14.7883 6.45014 14.8158C6.45701 14.8158 6.46387 14.8226 6.47073 14.8226C6.43642 14.8226 6.40896 14.7952 6.37465 14.7815C6.30604 14.7472 6.23742 14.7129 6.16881 14.6923C6.14136 14.6854 6.11392 14.6923 6.08647 14.6923C6.07961 14.754 6.1345 14.7952 6.17568 14.8295C6.30605 14.9187 6.45701 14.9736 6.60111 15.0216C6.62169 15.0559 6.64228 15.0834 6.66973 15.1177C6.6217 15.104 6.58737 15.0697 6.5462 15.0491C6.46386 15.0079 6.37467 14.9599 6.28547 14.9393C6.25802 14.9324 6.23056 14.9324 6.20998 14.9393C6.20998 14.9599 6.20999 14.9804 6.22371 15.001C6.25116 15.0491 6.29919 15.0765 6.34722 15.1108C6.47073 15.1726 6.60796 15.2137 6.7452 15.248C6.76578 15.2686 6.77951 15.2961 6.79324 15.3235C6.8001 15.3304 6.80696 15.3304 6.81382 15.3373C6.77265 15.3373 6.74521 15.3099 6.7109 15.2961C6.62169 15.255 6.53248 15.2069 6.44328 15.1794C6.40897 15.1726 6.38153 15.1726 6.34722 15.1726C6.34036 15.1794 6.3335 15.1932 6.32664 15.2001C6.32664 15.2069 6.32664 15.2138 6.32664 15.2207C6.34036 15.2412 6.34722 15.2618 6.36781 15.2755C6.4227 15.3167 6.48446 15.3441 6.53935 15.3647C6.64914 15.4059 6.76579 15.4402 6.88244 15.4677C6.91675 15.5294 6.95791 15.598 6.9785 15.6666C7.01281 15.6598 7.03339 15.6392 7.06084 15.6255C7.06084 15.6186 7.06084 15.6117 7.06084 15.6049C7.00594 15.5294 6.96479 15.4402 6.90303 15.3647C6.90303 15.351 6.90988 15.3304 6.91675 15.3167C6.93733 15.2755 6.95106 15.2275 6.96478 15.1863C6.97165 15.1657 6.97164 15.1452 6.9785 15.1315C6.99908 15.0354 7.01281 14.9393 6.9785 14.8432C6.95791 14.7952 6.93046 14.754 6.88929 14.7334C6.87557 14.7197 6.855 14.7334 6.84128 14.7334C6.8001 14.8158 6.80695 14.9187 6.80695 15.0079C6.80695 15.0422 6.81382 15.0697 6.81382 15.104C6.81382 15.1451 6.82755 15.1931 6.82069 15.2343C6.81383 15.2275 6.81382 15.2207 6.81382 15.2138C6.79324 15.1932 6.77952 15.1657 6.75894 15.1451C6.75894 15.1245 6.75892 15.1108 6.76578 15.0902C6.78637 15.0079 6.79324 14.9256 6.80011 14.8501C6.80011 14.7678 6.80695 14.6923 6.78637 14.6168C6.77264 14.5756 6.75893 14.5276 6.7109 14.5139C6.69031 14.507 6.67659 14.5275 6.66973 14.5413C6.64228 14.6099 6.64914 14.6854 6.64914 14.7609C6.64914 14.8158 6.64227 14.8638 6.65599 14.9118C6.65599 14.9461 6.66285 14.9805 6.65599 15.0079C6.65599 15.001 6.64914 14.9942 6.64914 14.9873C6.62856 14.9598 6.60798 14.9324 6.58739 14.905C6.58739 14.8912 6.58738 14.8707 6.59424 14.857C6.60796 14.7334 6.6217 14.5962 6.60797 14.4658C6.60111 14.4109 6.58739 14.3492 6.53935 14.308C6.52563 14.2943 6.50503 14.3011 6.48445 14.308C6.47758 14.3354 6.47072 14.3629 6.46386 14.3903C6.457 14.4795 6.46387 14.5756 6.47073 14.6648C6.47759 14.6991 6.4776 14.7334 6.4776 14.7678C6.45015 14.7266 6.42271 14.6923 6.39526 14.6579C6.40212 14.5001 6.42269 14.3423 6.38152 14.1914C6.37466 14.1708 6.36779 14.157 6.35407 14.1364C6.33348 14.1158 6.31291 14.0884 6.28547 14.0747C6.27174 14.0678 6.25802 14.0747 6.2443 14.0747C6.23744 14.0816 6.23056 14.1022 6.23056 14.109C6.21684 14.2188 6.2443 14.3286 6.26488 14.4384C6.27174 14.4658 6.27861 14.4933 6.28547 14.5276C6.25802 14.4864 6.21683 14.4452 6.18252 14.4109C6.18938 14.3286 6.19625 14.2394 6.18939 14.1639C6.18253 14.1227 6.18254 14.0815 6.17568 14.0404C6.16195 13.9855 6.14135 13.9237 6.10018 13.8894C6.08646 13.8757 6.06588 13.8757 6.0453 13.8825C6.01785 14.0198 6.05903 14.157 6.07275 14.2874L6.06588 14.2737C6.03844 14.2463 6.01098 14.2188 5.99039 14.1914C5.99039 14.0541 5.99041 13.9168 5.94237 13.7865C5.92179 13.7384 5.89433 13.6835 5.83943 13.6904C5.83257 13.7041 5.82571 13.7248 5.81885 13.7453C5.81885 13.7659 5.81885 13.7796 5.81885 13.8002C5.82571 13.8414 5.82571 13.8826 5.83943 13.9306C5.84629 13.9581 5.84631 13.9855 5.85317 14.013C5.85317 14.0336 5.86002 14.0541 5.86002 14.0678C5.83257 14.0404 5.79828 14.0129 5.77083 13.9786C5.77083 13.8414 5.77082 13.6973 5.70221 13.5738C5.67476 13.5326 5.62672 13.4777 5.56496 13.5052C5.5581 13.5464 5.56496 13.5806 5.56496 13.6218V13.6287C5.56496 13.6424 5.57183 13.6493 5.57183 13.663C5.57869 13.6767 5.57868 13.6904 5.58555 13.711C5.59927 13.7453 5.60614 13.7796 5.61987 13.8139C5.62673 13.8277 5.62672 13.8414 5.63358 13.8551C5.64045 13.8551 5.6473 13.8619 5.6473 13.8619C5.62671 13.8619 5.613 13.8414 5.59241 13.8277C5.57183 13.814 5.55125 13.7933 5.53753 13.7727C5.53067 13.7316 5.53065 13.6904 5.52379 13.6561C5.51693 13.6218 5.51007 13.5944 5.51007 13.5601C5.50321 13.5189 5.48948 13.4777 5.47575 13.4365C5.45517 13.3816 5.43459 13.3199 5.3797 13.2856C5.35911 13.2718 5.33853 13.2787 5.31794 13.2856C5.30422 13.3748 5.33167 13.4502 5.36598 13.5326C5.36598 13.5394 5.36598 13.5463 5.36598 13.5532C5.37971 13.5944 5.40028 13.6355 5.414 13.6835C5.38655 13.6629 5.3591 13.6424 5.32479 13.6218C5.31107 13.5326 5.29049 13.4503 5.26304 13.3748C5.25618 13.3542 5.24931 13.3405 5.24245 13.3268C5.21501 13.2719 5.18756 13.2169 5.13266 13.1826C5.11208 13.1689 5.08464 13.1758 5.05719 13.1758C5.05719 13.1963 5.05719 13.217 5.05719 13.2376C5.07778 13.3131 5.11207 13.3885 5.15325 13.4571C5.16697 13.4777 5.17384 13.4983 5.1807 13.5189C5.15325 13.4983 5.12581 13.4846 5.10523 13.464C5.08464 13.4228 5.07778 13.3748 5.05719 13.3337C5.05033 13.3268 5.05034 13.313 5.04347 13.2993C5.00917 13.217 4.97485 13.1346 4.9131 13.066C4.88565 13.0386 4.84448 13.0111 4.80331 13.0179C4.80331 13.0454 4.8033 13.0728 4.81702 13.0934C4.85133 13.1758 4.89937 13.2513 4.9474 13.3268C4.96112 13.3474 4.96798 13.3611 4.98857 13.3748C4.95426 13.3542 4.91995 13.3405 4.89936 13.3199C4.84447 13.217 4.79645 13.114 4.72097 13.0179C4.68666 12.9768 4.63861 12.9287 4.57685 12.9356C4.57685 12.9425 4.57685 12.9631 4.57685 12.97C4.61802 13.0592 4.67979 13.1415 4.74155 13.217C4.70038 13.2032 4.65919 13.1827 4.63861 13.1552C4.55626 13.0454 4.50825 12.9631 4.43963 12.8945Z" fill="#FECE12"/>
</svg>
