<svg width="30" height="30" viewBox="0 0 30 30" fill="none" xmlns="http://www.w3.org/2000/svg">
<path d="M30.0002 15.0009C30.0002 23.2832 23.2825 30.0009 15.0002 30.0009C6.71798 30.0009 0.000244141 23.2832 0.000244141 15.0009C0.000244141 6.71865 6.71798 0.000915527 15.0002 0.000915527C23.2893 0.000915527 30.0002 6.71865 30.0002 15.0009Z" fill="#D21034"/>
<path d="M14.9934 0.000915527C6.71114 0.00777737 0.000244141 6.71865 0.000244141 15.0009C0.000244141 15.3989 0.0208347 15.7832 0.0482821 16.1743H14.9865V0.000915527H14.9934Z" fill="#003580"/>
<path d="M7.32214 4.78364H8.26908L8.56414 3.87787L8.85921 4.78364H9.80613L9.03761 5.33945L9.33268 6.24517L8.56414 5.68936L7.79561 6.24517L8.09067 5.33945L7.32214 4.78364Z" fill="white"/>
<path d="M3.77319 7.73682H4.72123L5.01602 6.83325L5.30859 7.73682H6.25552L5.48866 8.29343L5.78235 9.19539L5.01546 8.63926L4.24693 9.19539L4.54062 8.29343L3.77319 7.73682Z" fill="white"/>
<path d="M11.1642 7.15878H12.0069L12.2704 6.35675L12.53 7.15878H13.3743L12.6925 7.65503L12.9527 8.45867L12.2709 7.96355L11.5886 8.45867L11.8471 7.65503L11.1642 7.15878Z" fill="white"/>
<path d="M6.94836 12.6966H8.17966L8.56173 11.5213L8.94323 12.6966H10.1751L9.17873 13.4218L9.55916 14.5938L8.56227 13.8686L7.56593 14.5938L7.9458 13.4218L6.94836 12.6966Z" fill="white"/>
<path d="M10.3345 9.36737L10.5061 9.8957H11.055L10.609 10.2182L10.7805 10.7397L10.3345 10.4172L9.8885 10.7397L10.0601 10.2182L9.61401 9.8957H10.163L10.3345 9.36737Z" fill="white"/>
</svg>
