<svg width="30" height="30" viewBox="0 0 30 30" fill="none" xmlns="http://www.w3.org/2000/svg">
<path d="M15.0036 30.0011C21.0543 30.0011 26.2613 26.4123 28.6349 21.2522H1.36536C3.73215 26.4192 8.94596 30.0011 15.0036 30.0011Z" fill="black"/>
<path d="M15.0036 0.0010376C8.95282 0.0010376 3.73901 3.58979 1.36536 8.7499H28.6349C26.2613 3.58979 21.0475 0.0010376 15.0036 0.0010376Z" fill="#EF2B2D"/>
<path d="M6.10352e-05 15.001C6.10352e-05 17.2311 0.487176 19.3514 1.36529 21.2522H28.6349C29.5061 19.3514 30.0001 17.2311 30.0001 15.001C30.0001 12.7709 29.5061 10.6575 28.6349 8.74988H1.36529C0.494036 10.6575 6.10352e-05 12.7709 6.10352e-05 15.001Z" fill="#F1F4FB"/>
</svg>
