<svg width="30" height="30" viewBox="0 0 30 30" fill="none" xmlns="http://www.w3.org/2000/svg">
<path d="M29.698 11.9955C29.5608 11.3093 29.3686 10.6437 29.1422 9.99872H18.0054L6.73142 2.48499C6.1413 2.87611 5.58549 3.30154 5.05713 3.76815L17.4016 12.0024H29.698V11.9955Z" fill="#F1F4FB"/>
<path d="M29.1353 20.0032C29.3618 19.3582 29.5539 18.6858 29.6912 18.0065H17.4016L5.05713 26.2407C5.58549 26.7073 6.1413 27.1327 6.73142 27.5238L18.0054 20.0101H29.1353V20.0032Z" fill="#F1F4FB"/>
<path d="M29.1354 9.99869C27.0769 4.17299 21.5187 0.000976562 14.9931 0.000976562C11.9396 0.000976562 9.09881 0.913599 6.72461 2.48496L17.9986 9.99869H29.1354Z" fill="#EE3424"/>
<path d="M29.1354 20.0032H17.9986L6.72461 27.517C9.09195 29.0815 11.9396 30.001 14.9931 30.001C21.5256 30.001 27.0769 25.8221 29.1354 20.0032Z" fill="#0055A4"/>
<path d="M29.6981 17.9996C29.8971 17.032 30 16.0234 30 15.0009C30 13.9717 29.8971 12.9698 29.6981 11.9954H17.4085L5.06406 3.76123C3.55446 5.09243 2.31933 6.72555 1.44788 8.56452L11.0888 14.9941L1.44788 21.4236C2.31933 23.2626 3.56132 24.8957 5.06406 26.2269L17.4085 17.9927H29.6981V17.9996Z" fill="#008A5F"/>
<path d="M1.44099 8.57141C1.1528 9.18212 0.89891 9.82028 0.693054 10.4722L7.47943 15.001L0.693054 19.5229C0.89891 20.1817 1.1528 20.8129 1.44099 21.4236L11.0819 14.9941L1.44099 8.57141Z" fill="#FDBB30"/>
<path d="M0.693053 10.4722C0.240171 11.8994 0 13.4227 0 15.001C0 16.5792 0.247033 18.0957 0.693053 19.5229L7.47943 15.001L0.693053 10.4722Z" fill="black"/>
</svg>
