<svg width="30" height="30" viewBox="0 0 30 30" fill="none" xmlns="http://www.w3.org/2000/svg">
<path d="M19.3641 9.68089H24.6821H29.0118C26.8641 4.02801 21.409 0.0010376 15 0.0010376C6.71774 0.0010376 0 6.71724 0 14.9976C0 22.9555 6.20309 29.4522 14.0393 29.9462V9.67402H19.3641V9.68089Z" fill="#198A00"/>
<path d="M24.682 9.68091V26.4475C27.9345 23.6965 30 19.594 30 14.9976C30 13.1248 29.6431 11.3342 29.0118 9.68091H24.682Z" fill="#EF7D00"/>
<path d="M19.3643 29.3494C21.3405 28.7457 23.1451 27.7509 24.6822 26.4475V9.68091H19.3643V29.3494Z" fill="black"/>
<path d="M19.3642 29.3494V9.68091H14.0463V29.9531C14.3619 29.9737 14.6845 30.0011 15.007 30.0011C16.5234 29.9942 17.985 29.7678 19.3642 29.3494Z" fill="#DE2010"/>
<path d="M25.965 5.28339C25.9033 5.31083 25.8484 5.34514 25.7866 5.37945C25.6699 5.45491 25.5602 5.52355 25.4366 5.58529C25.4984 5.53041 25.5602 5.47552 25.6151 5.41378C25.6837 5.33146 25.7454 5.23539 25.766 5.13249C25.7729 5.09818 25.7797 5.05701 25.7523 5.03643C25.6974 5.02271 25.6493 5.05018 25.6013 5.0639C25.3886 5.17366 25.1896 5.31089 24.9837 5.42751C25.1004 5.33147 25.2102 5.22858 25.2926 5.09823C25.3132 5.06393 25.3406 5.01588 25.3132 4.98158C25.2926 4.961 25.2719 4.99532 25.2514 5.00218C25.1484 5.06392 25.0524 5.11193 24.9426 5.15995C24.6132 5.31774 24.277 5.46869 23.9408 5.61276C23.9888 5.55101 24.0437 5.48924 24.0505 5.40691C24.0505 5.35203 23.982 5.33149 23.9477 5.35893C23.9134 5.37951 23.8722 5.40007 23.8379 5.42065C23.7006 5.48239 23.5565 5.52353 23.4124 5.56469C23.1723 5.63329 22.9321 5.68817 22.685 5.73619C22.5066 5.79794 22.3214 5.86655 22.1361 5.91457C22.0744 5.93515 22.0057 5.95577 21.9371 5.95577C21.7175 5.94205 21.498 5.92832 21.2715 5.9489C21.1206 5.95576 20.9696 5.96947 20.8324 6.02436C20.7981 5.93517 20.7637 5.8391 20.7912 5.74306C20.8186 5.6676 20.8941 5.61954 20.9764 5.61954C21.0245 5.61954 21.0793 5.61274 21.1274 5.59215C21.1617 5.62646 21.1411 5.66756 21.148 5.70873C21.1754 5.72245 21.196 5.69506 21.2166 5.68134C21.2715 5.64018 21.3127 5.57844 21.3058 5.50983C21.2989 5.45495 21.2578 5.41376 21.2166 5.39318C21.1342 5.34516 21.0314 5.33145 20.9353 5.31773C20.8255 5.20796 20.6745 5.16683 20.5235 5.17369C20.352 5.17369 20.1805 5.24909 20.0638 5.37258C19.9197 5.51664 19.8443 5.71562 19.8031 5.91457C19.4806 5.81852 19.1443 5.77048 18.8081 5.71559C18.4307 5.60583 18.0876 5.42065 17.7377 5.24914C17.6759 5.2217 17.6141 5.1874 17.5524 5.16682C17.5249 5.15996 17.4769 5.1599 17.47 5.1942C17.4632 5.22851 17.4907 5.26282 17.5044 5.29026C17.573 5.39316 17.6691 5.48238 17.7514 5.57842C17.4289 5.40005 17.0995 5.2423 16.7632 5.09823C16.6191 5.04335 16.4957 4.96098 16.3653 4.87866C16.3378 4.86494 16.3035 4.83755 16.2692 4.84441C16.2418 4.85127 16.2349 4.88555 16.2349 4.90613C16.2349 4.98845 16.276 5.06388 16.3172 5.13249C16.4064 5.26969 16.5231 5.3932 16.6398 5.50297C16.5574 5.46867 16.4819 5.42747 16.4064 5.38631C16.3515 5.35887 16.3035 5.33143 16.2555 5.29713C16.1251 5.22852 16.0496 5.09823 15.933 5.00905C15.9124 4.99533 15.8781 4.97473 15.8575 4.99531C15.8438 5.01589 15.8438 5.05019 15.8507 5.07763C15.8781 5.24914 15.9673 5.41373 16.0839 5.53722C16.0153 5.48234 15.9536 5.42747 15.885 5.37945C15.8507 5.352 15.8232 5.32459 15.7752 5.31773C15.7477 5.31087 15.7271 5.33149 15.7271 5.35893C15.7271 5.40695 15.7477 5.44807 15.7683 5.48923C15.8232 5.59214 15.8987 5.68132 15.9879 5.74993C15.9192 5.70877 15.8507 5.66077 15.7958 5.60589C15.7752 5.59217 15.7478 5.55783 15.7134 5.57155C15.686 5.59213 15.6997 5.62643 15.7066 5.65387C15.7272 5.7362 15.782 5.80484 15.8438 5.86658C15.9742 6.00379 16.1389 6.09293 16.3036 6.16839C16.4545 6.237 16.6123 6.28501 16.7701 6.32617C16.7221 6.33989 16.6741 6.33992 16.6329 6.3605C16.6123 6.38794 16.6329 6.41538 16.6467 6.43596C16.6878 6.47712 16.7358 6.50456 16.7907 6.51828C16.9348 6.5663 17.0927 6.56626 17.2505 6.56626C17.1407 6.60742 17.024 6.59377 16.9211 6.63493C16.8799 6.65551 16.9142 6.69667 16.9417 6.71725C17.0583 6.79957 17.1956 6.82697 17.3328 6.84069C17.4632 6.85441 17.5935 6.82701 17.7239 6.79957C17.6896 6.81329 17.6484 6.82697 17.6141 6.84069C17.5524 6.85441 17.4907 6.85444 17.4289 6.86816C17.422 6.87502 17.422 6.88876 17.4152 6.89563C17.422 6.92993 17.4495 6.9505 17.4769 6.97108C17.5524 7.0191 17.6416 7.03968 17.7239 7.0534C17.9366 7.07398 18.1494 7.03283 18.3552 6.98481C18.2455 7.03283 18.1219 7.05336 18.0122 7.10138C18.0122 7.1151 18.0122 7.12886 18.0259 7.14259C18.0671 7.19061 18.1288 7.22493 18.1906 7.24551C18.2798 7.27981 18.3826 7.27974 18.4787 7.26602C18.513 7.25916 18.5542 7.25922 18.5885 7.23864C18.5885 7.23864 18.5885 7.23865 18.5954 7.24551V7.25229C18.5679 7.26601 18.5336 7.28665 18.5199 7.31409C18.5131 7.34839 18.5611 7.36209 18.5885 7.37581C18.7052 7.41011 18.8356 7.38265 18.9522 7.35521C18.9248 7.37579 18.8836 7.3895 18.8768 7.4238C18.8905 7.4581 18.9317 7.47187 18.9728 7.47873C19.0689 7.48559 19.1649 7.46498 19.2541 7.4444C19.2816 7.43754 19.309 7.42387 19.3364 7.41015C19.309 7.43073 19.2816 7.45816 19.2747 7.4856C19.2747 7.5199 19.2885 7.5542 19.3159 7.56792C19.3571 7.5885 19.3982 7.58165 19.4394 7.57479C19.5698 7.56107 19.6864 7.51303 19.81 7.47873C19.7688 7.51303 19.7139 7.5473 19.7139 7.60904C19.7482 7.67764 19.8237 7.72571 19.8992 7.74629C20.0364 7.78746 20.1873 7.77372 20.3177 7.73256C20.3109 7.77372 20.2903 7.81484 20.2971 7.86286C20.3314 7.87659 20.352 7.84233 20.3726 7.82175C20.3177 7.97267 20.3108 8.13728 20.2696 8.29507C20.2628 8.31565 20.2765 8.33627 20.2971 8.34313C20.3657 8.31569 20.4137 8.25389 20.4481 8.19901C20.4412 8.27448 20.407 8.35687 20.4275 8.43919C20.4413 8.43919 20.4549 8.44598 20.4755 8.45284C20.4549 8.52144 20.4138 8.5969 20.3383 8.62435C20.2834 8.65179 20.2285 8.63809 20.1737 8.65181C20.1119 8.66553 20.0569 8.69298 20.0158 8.741C19.9746 8.78902 19.9609 8.84389 19.9472 8.89877C19.9334 8.95366 19.9334 9.00853 19.9472 9.06341C19.954 9.06341 19.9746 9.07028 19.9815 9.07028C20.0089 9.04284 20.0226 9.00853 20.0432 8.97423C20.1187 8.98795 20.201 8.96741 20.2696 8.93311C20.2491 8.98799 20.2491 9.04287 20.2765 9.09775C20.2765 9.15949 20.2834 9.22809 20.3383 9.26926C20.3658 9.28298 20.4001 9.30356 20.4275 9.27612C20.4275 9.24182 20.4001 9.21437 20.4001 9.18007C20.455 9.16635 20.503 9.1389 20.5373 9.09088C20.5441 9.08402 20.551 9.07027 20.5647 9.06341C20.5853 9.11144 20.6196 9.15263 20.6539 9.18694C20.6677 9.24182 20.6951 9.28979 20.75 9.31037C20.7775 9.31723 20.8324 9.33788 20.8324 9.28986C20.8049 9.25556 20.7774 9.21436 20.7774 9.16634C20.8049 9.12517 20.8392 9.08405 20.853 9.03603C20.8736 9.05661 20.8872 9.07716 20.9078 9.09088C20.9216 9.1046 20.949 9.09773 20.949 9.07715C20.9421 9.04285 20.9353 9.00852 20.9353 8.96736C20.9833 8.97422 21.0313 8.96055 21.0656 8.93311C21.0656 8.98113 21.0588 9.02912 21.0931 9.07028C21.1137 9.09772 21.1069 9.13203 21.1137 9.16634C21.1206 9.21436 21.1549 9.25554 21.2029 9.26926C21.2235 9.26926 21.2578 9.28297 21.2715 9.26239C21.2784 9.23495 21.2509 9.22125 21.2441 9.20067C21.2372 9.18009 21.2303 9.15945 21.2441 9.13887C21.2715 9.11829 21.3058 9.10458 21.3195 9.07028C21.3676 8.99482 21.3607 8.90564 21.3539 8.82332C21.3607 8.81646 21.3607 8.80958 21.3676 8.80272C21.3813 8.85074 21.395 8.90567 21.4362 8.93998C21.4705 8.96742 21.5116 8.97423 21.5528 8.97423C21.5528 9.00853 21.5391 9.02911 21.5254 9.05655C21.5117 9.07027 21.5254 9.09774 21.546 9.09088C21.6078 9.09088 21.6764 9.06344 21.697 9.0017C21.7244 8.93309 21.7381 8.8508 21.7107 8.77534C21.6901 8.72731 21.6421 8.69299 21.594 8.66555C21.6146 8.65869 21.6283 8.64496 21.6489 8.65868C21.6901 8.6724 21.7312 8.69984 21.7587 8.741C21.7724 8.76158 21.8067 8.74785 21.8136 8.72727C21.8204 8.66552 21.7861 8.61066 21.745 8.56949C21.6832 8.51461 21.594 8.54894 21.5254 8.51464C21.5254 8.4872 21.5254 8.45976 21.5185 8.43232C21.594 8.47348 21.6832 8.5215 21.7724 8.50777C21.7724 8.49405 21.7724 8.48029 21.7656 8.46657C21.6969 8.33623 21.594 8.21964 21.5597 8.07557C21.6352 8.11674 21.6901 8.20588 21.7862 8.20588C21.8068 8.20588 21.8548 8.19907 21.8479 8.17163C21.841 8.13047 21.793 8.11676 21.7587 8.09617C21.7107 8.06873 21.6695 8.02067 21.6489 7.97265C21.7381 8.04812 21.8479 8.11669 21.9646 8.11669C22.0058 8.12355 22.0126 8.08241 22.0194 8.04811C22.1361 8.12357 22.2802 8.19219 22.4243 8.15103C22.4654 8.14417 22.4861 8.09613 22.4792 8.05497C22.4724 8.02067 22.4312 8.00009 22.4038 7.97265C22.3351 7.93149 22.2596 7.8835 22.2047 7.82861C22.3351 7.90408 22.4723 7.96583 22.6233 8.00699C22.7056 8.02757 22.7948 8.03442 22.8772 8.00012C22.9115 7.9864 22.9115 7.93837 22.8978 7.91093C22.8566 7.84233 22.7949 7.80118 22.7331 7.74629C22.7468 7.74629 22.7605 7.7463 22.7674 7.75316C22.884 7.77374 23.0144 7.7463 23.1105 7.67084C23.1379 7.65026 23.1173 7.61589 23.0967 7.60217C23.1791 7.59531 23.2546 7.58849 23.3232 7.56105C23.3438 7.54733 23.3781 7.53356 23.3712 7.50612C23.3644 7.47182 23.3232 7.45812 23.3026 7.4444C23.5085 7.43068 23.7075 7.36893 23.8927 7.26602C23.9408 7.23858 23.9888 7.20428 24.0368 7.17684C24.0505 7.16998 24.0574 7.14944 24.0574 7.13572C24.2838 7.10142 24.4966 7.04654 24.7162 6.97108C24.9564 6.88189 25.1896 6.76524 25.3886 6.6006C25.4847 6.51827 25.5739 6.42219 25.6219 6.30557C25.6288 6.28499 25.6494 6.25069 25.6288 6.23011C25.6082 6.21639 25.5808 6.23012 25.5602 6.23698C25.67 6.14094 25.7729 6.04493 25.8621 5.9283C25.8895 5.894 25.9101 5.86654 25.9238 5.82538C25.9307 5.79794 25.9101 5.76366 25.8758 5.76366C25.8072 5.77052 25.7385 5.80481 25.6699 5.83225C25.7797 5.74306 25.8758 5.64706 25.9581 5.53044C25.9925 5.47555 26.0336 5.4138 26.0474 5.34519C26.0199 5.29717 25.9925 5.26967 25.965 5.28339ZM21.1755 8.56949C21.1137 8.56949 21.0519 8.56951 20.9833 8.58323C20.9559 8.59009 20.9284 8.60383 20.901 8.60383C20.8598 8.59011 20.8186 8.56947 20.7843 8.54203C20.7706 8.53517 20.7706 8.51463 20.7706 8.50091C20.7638 8.43231 20.7706 8.3568 20.7706 8.2882C20.7981 8.3225 20.8255 8.34994 20.8598 8.37052C20.8736 8.37738 20.8872 8.37052 20.901 8.37052C20.901 8.31564 20.901 8.26077 20.8941 8.21275C20.8872 8.17158 20.8666 8.13047 20.8735 8.08931C20.8941 7.9178 20.8941 7.74629 20.901 7.56792C20.9833 7.73257 21.0794 7.90408 21.1137 8.08931C21.1343 8.19907 21.1206 8.31569 21.1069 8.42545C21.1343 8.44604 21.1686 8.4323 21.1961 8.40485C21.2029 8.44602 21.2029 8.48035 21.2029 8.52151C21.2029 8.54209 21.1892 8.55577 21.1755 8.56949Z" fill="#291908"/>
<path d="M16.2829 4.8924C16.3104 4.89926 16.3309 4.90615 16.3515 4.91987C16.4544 4.98849 16.5642 5.05704 16.674 5.11194C17.0514 5.27662 17.422 5.44819 17.772 5.64718C17.8543 5.69521 17.9366 5.72956 18.019 5.77073C17.9366 5.81877 17.8405 5.85307 17.7376 5.85307C17.717 5.85307 17.6895 5.85301 17.6964 5.88046C17.7101 5.94222 17.7651 5.97655 17.82 5.99027C17.9023 6.004 17.9915 5.99025 18.0738 5.96967C17.9984 6.04515 17.916 6.11377 17.8131 6.14808C17.7925 6.17553 17.8405 6.19617 17.8611 6.20303C17.9846 6.23734 18.1219 6.23049 18.2454 6.2099C18.1836 6.27166 18.1218 6.34714 18.0464 6.38832C18.0258 6.40204 18.0464 6.42945 18.067 6.43631C18.115 6.45004 18.1699 6.45005 18.2248 6.45005C18.2797 6.45005 18.3346 6.44317 18.3826 6.42944C18.3346 6.47061 18.2728 6.49808 18.2248 6.53239C18.2248 6.53925 18.2248 6.553 18.2316 6.55986C18.2797 6.58045 18.3277 6.58038 18.3826 6.58038C18.5267 6.57352 18.6708 6.53234 18.808 6.48431C18.712 6.55293 18.6159 6.62155 18.5061 6.66272C18.4924 6.66958 18.4718 6.67648 18.4649 6.69707C18.4649 6.71079 18.4718 6.71767 18.4855 6.71767C18.5747 6.74512 18.6708 6.7794 18.7669 6.77254C18.9384 6.76567 19.1031 6.69709 19.2609 6.63533C19.158 6.71767 19.0482 6.78626 18.9384 6.85487C18.9247 6.8686 18.9041 6.88237 18.9178 6.90295C18.9384 6.93726 18.9727 6.9441 19.007 6.95782C18.8629 7.09506 18.6777 7.20487 18.4787 7.23918C18.3346 7.25976 18.1699 7.24602 18.0601 7.13623C18.1836 7.09506 18.314 7.06757 18.4375 6.99895C18.4718 6.97836 18.5062 6.95779 18.5199 6.92348C18.5267 6.89603 18.4993 6.89609 18.4787 6.90295C18.314 6.95785 18.1493 6.99896 17.9778 7.01268C17.8405 7.02641 17.6964 7.02645 17.5661 6.97156C17.5318 6.95783 17.4906 6.93719 17.4631 6.90974C17.5386 6.89602 17.6141 6.90292 17.6828 6.86861C17.8337 6.81372 17.9915 6.76569 18.1356 6.70393C18.1493 6.69707 18.1768 6.69018 18.1768 6.66959C18.1699 6.64214 18.1424 6.65585 18.1287 6.65585C17.916 6.71761 17.6964 6.77943 17.4769 6.80688C17.3671 6.81374 17.2504 6.79998 17.1406 6.76567C17.072 6.74508 17.0034 6.71762 16.9554 6.66959C17.0171 6.65587 17.0789 6.64906 17.1338 6.6422C17.1887 6.63534 17.2367 6.61471 17.2847 6.60099C17.4219 6.55982 17.566 6.51182 17.7033 6.46379C17.7239 6.45692 17.7582 6.45002 17.7582 6.41571C17.7445 6.38826 17.717 6.40198 17.6964 6.40884C17.5729 6.43629 17.4631 6.47747 17.3464 6.51178C17.2915 6.52551 17.2298 6.52552 17.1749 6.52552C17.0651 6.52552 16.9622 6.51863 16.8593 6.49805C16.7907 6.47746 16.722 6.45686 16.6809 6.3951C16.7701 6.37451 16.8593 6.37457 16.9485 6.36084C17.0583 6.34026 17.1749 6.31969 17.2847 6.29224C17.3053 6.29224 17.3122 6.27161 17.3053 6.25103C17.2847 6.2373 17.2573 6.25103 17.2436 6.25103C17.1475 6.27161 17.0514 6.29904 16.9554 6.31276C16.921 6.31962 16.8936 6.30589 16.8661 6.30589C16.6466 6.251 16.4338 6.18241 16.2348 6.07948C16.0976 6.01086 15.9741 5.92851 15.8712 5.81186C15.8232 5.75696 15.7751 5.6884 15.7614 5.61292C15.8437 5.67468 15.9123 5.7433 16.0084 5.78447C16.2005 5.86681 16.3995 5.94228 16.5985 6.02462C16.7426 6.08637 16.8867 6.14814 17.0377 6.20303C17.0583 6.20989 17.0789 6.19614 17.072 6.17556C17.0446 6.15497 17.0171 6.14807 16.9897 6.13435C16.8662 6.08631 16.7495 6.03831 16.626 5.99027C16.4613 5.92166 16.2966 5.83934 16.132 5.76386C16.029 5.71583 15.9467 5.63343 15.8849 5.53737C15.8506 5.48247 15.8162 5.42766 15.8025 5.35904C15.8506 5.37962 15.8849 5.41393 15.9261 5.44138C16.0496 5.5443 16.1731 5.65402 16.3309 5.70892C16.6946 5.85988 17.0515 6.01085 17.4151 6.15495C17.4357 6.16181 17.4494 6.17554 17.47 6.16182C17.4974 6.13437 17.4495 6.11381 17.4289 6.10009C17.1201 5.96971 16.7975 5.85989 16.4887 5.72265C16.4201 5.68834 16.3515 5.65409 16.2829 5.61292C16.1182 5.50313 15.9947 5.34528 15.9398 5.15315C15.9261 5.11198 15.9192 5.07077 15.9192 5.0296C16.0359 5.10508 16.1113 5.22861 16.2348 5.30409C16.2829 5.33154 16.3172 5.35898 16.3652 5.38643C16.5025 5.46191 16.6466 5.53056 16.7907 5.59232C17.0103 5.69525 17.2298 5.79127 17.4494 5.8942C17.47 5.90792 17.4974 5.92167 17.518 5.92167C17.5386 5.92167 17.5454 5.88732 17.5249 5.88046C17.5111 5.8736 17.4975 5.8668 17.4837 5.85994C17.2847 5.76387 17.0789 5.66778 16.873 5.57171C16.825 5.54426 16.7632 5.52368 16.7221 5.4825C16.6054 5.37958 16.4956 5.26291 16.4064 5.12567C16.324 5.06392 16.276 4.9816 16.2829 4.8924Z" fill="#EF7D00"/>
<path d="M24.8258 5.27661C24.9699 5.20799 25.1072 5.13942 25.2444 5.0708C25.1758 5.17373 25.0935 5.25608 25.0043 5.33842C24.7572 5.55114 24.4828 5.72267 24.1809 5.83932C23.9956 5.92167 23.7966 5.98344 23.5976 6.03148C23.5702 6.03148 23.577 6.05889 23.5839 6.07947C23.4055 6.05889 23.2202 6.03144 23.0418 5.99713C23.2545 5.93538 23.4672 5.8668 23.6731 5.78446C23.7417 5.75701 23.8034 5.72271 23.872 5.70212C24.1877 5.56488 24.5102 5.4207 24.8258 5.27661Z" fill="#EF7D00"/>
<path d="M25.5534 5.1463C25.6083 5.11885 25.6563 5.09142 25.7181 5.0777C25.7112 5.17376 25.6631 5.26297 25.6014 5.33845C25.4985 5.46883 25.3681 5.57861 25.2309 5.67468C25.1348 5.73643 25.0387 5.7982 24.9358 5.85309C24.4623 6.08639 23.9614 6.27163 23.4536 6.41573C23.4536 6.402 23.4536 6.38832 23.4536 6.3746C23.4399 6.35401 23.4194 6.34024 23.4056 6.32652C23.5772 6.34024 23.7556 6.29909 23.8859 6.17558C23.9134 6.14813 23.9477 6.12067 23.9614 6.0795C23.9614 6.05205 23.934 6.0589 23.9203 6.06576C23.8242 6.08635 23.7212 6.08636 23.632 6.07263C23.8242 6.03146 24.0164 5.9697 24.1948 5.89422C24.3183 5.84619 24.4349 5.78443 24.5584 5.72267C24.7985 5.59916 25.0387 5.46194 25.2652 5.31785C25.3544 5.26295 25.4505 5.20119 25.5534 5.1463Z" fill="#EF7D00"/>
<path d="M17.5113 5.2149C17.5662 5.22177 17.6142 5.24927 17.6622 5.26985C18.0328 5.45512 18.4034 5.6541 18.8013 5.77076C19.117 5.82565 19.4394 5.85997 19.7482 5.95604C19.7962 5.96976 19.8443 5.99031 19.8924 6.00403C19.9129 6.01776 19.9335 5.99028 19.9197 5.97656C19.8992 5.95597 19.8786 5.94228 19.858 5.9217C19.8992 5.72956 19.9747 5.53743 20.1188 5.40019C20.2491 5.26981 20.4412 5.21492 20.6128 5.23551C20.7226 5.24923 20.8324 5.2835 20.9148 5.36585C20.9285 5.37957 20.9422 5.37958 20.9559 5.37958C21.0451 5.39331 21.1343 5.40701 21.2098 5.44818C21.2441 5.46877 21.2785 5.50309 21.2785 5.54426C21.2716 5.59229 21.2372 5.62663 21.2098 5.65407C21.2029 5.61976 21.1961 5.58545 21.1686 5.56487C21.1069 5.51683 21.0245 5.53057 20.9559 5.49626C20.9353 5.49626 20.9147 5.46881 20.8942 5.4894C20.8804 5.50312 20.8873 5.52374 20.9079 5.52374C20.9491 5.55119 21.0039 5.55116 21.0451 5.5786C20.9559 5.5786 20.853 5.59233 20.7981 5.66781C20.7295 5.75701 20.75 5.8805 20.7843 5.98343C20.75 5.94226 20.7295 5.90113 20.7089 5.85309C20.702 5.82565 20.654 5.84625 20.6677 5.86683C20.7021 5.95604 20.7569 6.03148 20.8324 6.08637C20.9628 6.17558 21.0657 6.29222 21.1549 6.41573C21.1824 6.4569 21.2167 6.49811 21.2304 6.54615C21.2647 6.71769 21.299 6.89611 21.3196 7.06766C21.3333 7.06766 21.3471 7.07452 21.3539 7.07452C21.3608 7.02649 21.3539 6.98527 21.3471 6.93724C21.3333 6.82745 21.3127 6.71766 21.2921 6.60101C21.5048 6.83432 21.7519 7.0402 22.0058 7.23233C22.0675 7.32154 22.1499 7.39012 22.2254 7.45188C22.2666 7.48618 22.3077 7.52052 22.342 7.56169C22.2048 7.56855 22.0744 7.50676 21.9578 7.43814C21.8137 7.34893 21.6764 7.23915 21.5735 7.10191C21.5529 7.07447 21.5392 7.04016 21.5117 7.01958C21.4912 7.01958 21.4843 7.04707 21.4911 7.06766C21.5049 7.11569 21.5392 7.14994 21.5666 7.18425C21.6421 7.27346 21.7313 7.35581 21.8068 7.45188C21.8411 7.49305 21.8754 7.5274 21.8823 7.58229C21.8068 7.58916 21.7382 7.55479 21.6695 7.52735C21.5666 7.47931 21.4705 7.41754 21.3882 7.34206C21.3333 7.27344 21.2784 7.20488 21.2166 7.14313C21.2029 7.1294 21.1824 7.15 21.1755 7.15686C21.2235 7.2392 21.2853 7.30092 21.3539 7.36954C21.4569 7.49991 21.5117 7.65775 21.5597 7.81557C21.5872 7.90478 21.6284 7.99397 21.7039 8.06259C21.7313 8.08318 21.7657 8.09688 21.8 8.12432C21.7245 8.10374 21.6696 8.03517 21.6009 8.00086C21.5872 7.994 21.5529 7.98027 21.5461 8.00086C21.5255 8.0283 21.5324 8.06262 21.5461 8.09006C21.5941 8.20672 21.6695 8.3165 21.7313 8.42629C21.5735 8.39198 21.4294 8.28215 21.3677 8.13119C21.3471 8.09688 21.347 8.06256 21.3333 8.02825C21.3265 8.01452 21.299 8.02139 21.299 8.03512C21.2921 8.15177 21.2579 8.27527 21.1824 8.37134C21.1961 8.25469 21.203 8.1449 21.1755 8.02825C21.1275 7.82925 21.0246 7.65088 20.9285 7.46561C20.9148 7.42444 20.9079 7.37637 20.8735 7.34206C20.8049 7.25286 20.7021 7.21169 20.5991 7.17738C20.5511 7.16366 20.5099 7.12936 20.4687 7.10191C20.4344 7.08133 20.407 7.05389 20.3726 7.02644C20.3658 7.01958 20.3453 7.02646 20.3453 7.04018C20.3247 7.09508 20.3178 7.1431 20.304 7.19799C20.2423 7.0882 20.1668 6.98531 20.0913 6.88924C19.9884 6.97844 19.858 7.06764 19.7208 7.04705C19.7894 6.92354 19.8855 6.81375 19.9747 6.70396C19.8992 6.62161 19.8375 6.51864 19.8237 6.40199C19.81 6.31279 19.8374 6.21679 19.8717 6.12758C19.8786 6.10014 19.8855 6.07269 19.8855 6.03838C19.8786 6.03838 19.858 6.03838 19.8511 6.03838C19.8374 6.07269 19.8375 6.10693 19.81 6.14124C19.7071 6.27161 19.5904 6.402 19.4463 6.4912C19.3571 6.55296 19.2542 6.58732 19.1581 6.62849C19.0414 6.66966 18.9316 6.70396 18.8081 6.71083C18.7326 6.71083 18.6641 6.69706 18.5955 6.66961C18.7807 6.57355 18.9386 6.44318 19.117 6.33339C19.1444 6.32653 19.1238 6.27854 19.0964 6.29226C18.9317 6.38833 18.7464 6.46375 18.5542 6.4912C18.4925 6.50492 18.4239 6.5118 18.3553 6.50494C18.3828 6.47749 18.4171 6.46379 18.4514 6.4432C18.5818 6.354 18.7052 6.27165 18.8356 6.18245C18.9523 6.2099 19.0758 6.20988 19.1924 6.16871C19.1718 6.19616 19.1513 6.22361 19.1307 6.25792C19.1307 6.26478 19.1307 6.27166 19.1376 6.27853C19.1993 6.28539 19.2541 6.29226 19.3228 6.29226C19.3433 6.29226 19.3434 6.25791 19.3296 6.25105C19.2885 6.24419 19.2405 6.24418 19.1993 6.24418C19.2267 6.20301 19.2542 6.16189 19.2885 6.12072C19.3022 6.10699 19.2816 6.09324 19.2748 6.08637C19.1513 6.14813 19.0141 6.17555 18.8837 6.14811C18.918 6.1138 18.9591 6.07956 18.9865 6.04525C18.9934 6.01094 18.9591 6.01777 18.9385 6.01777C18.8219 6.04522 18.6915 6.03146 18.5817 5.98343C18.616 5.95598 18.6778 5.94225 18.6915 5.89422C18.6641 5.85991 18.6229 5.88742 18.5886 5.8737C18.3896 5.83939 18.2111 5.75702 18.0327 5.67468C17.9847 5.64723 17.923 5.6335 17.8887 5.58547C17.7995 5.48254 17.6896 5.37964 17.6073 5.26985C17.5387 5.26985 17.525 5.24235 17.5113 5.2149Z" fill="#EF7D00"/>
<path d="M20.3246 5.4071C20.3932 5.3522 20.4618 5.29727 20.551 5.28355C20.6059 5.27669 20.6745 5.29047 20.7019 5.34536C20.7225 5.37967 20.6882 5.41398 20.6608 5.4277C20.6059 5.45515 20.5441 5.44143 20.4892 5.4277C20.4343 5.41398 20.3795 5.4071 20.3246 5.4071Z" fill="#291908"/>
<path d="M20.4412 5.37267C20.4893 5.34522 20.5442 5.31781 20.5991 5.32468C20.6266 5.32468 20.6471 5.35208 20.6609 5.3658C20.6471 5.37953 20.6265 5.39328 20.6059 5.39328C20.5579 5.40014 20.503 5.3864 20.4412 5.37267Z" fill="#EF7D00"/>
<path d="M25.7043 5.48941C25.7866 5.44138 25.8621 5.38651 25.9513 5.34534C25.8964 5.46199 25.8141 5.56489 25.718 5.66096C25.6014 5.77074 25.4778 5.86684 25.3406 5.94918C25.1141 6.05897 24.8946 6.17561 24.6681 6.27854C24.5652 6.32657 24.4623 6.35397 24.3525 6.39514C24.3251 6.402 24.3457 6.45008 24.3731 6.44322C24.4829 6.41577 24.5789 6.37457 24.6819 6.3334C24.8534 6.26478 25.025 6.18933 25.1896 6.10012C25.2788 6.05209 25.3612 5.99036 25.4573 5.95605C25.5808 5.8943 25.7043 5.83246 25.8347 5.79129C25.8141 5.83932 25.7798 5.88054 25.7386 5.92171C25.5259 6.16187 25.2651 6.35399 24.9838 6.50495C24.7642 6.6216 24.5309 6.71082 24.2908 6.77257C23.8516 6.8755 23.385 6.87552 22.9458 6.79318C22.8978 6.78632 22.8566 6.77257 22.8086 6.7657C22.7812 6.75884 22.7674 6.80006 22.7949 6.81378C22.8292 6.82751 22.8704 6.83431 22.9115 6.84117C23.3095 6.93724 23.7349 6.94413 24.1398 6.86865C24.428 6.81375 24.7093 6.71766 24.9701 6.58729C25.0936 6.52553 25.2102 6.45697 25.3268 6.38835C25.3955 6.34718 25.471 6.29911 25.5396 6.2648C25.471 6.40204 25.3612 6.50496 25.2445 6.60103C25.0455 6.75885 24.8054 6.86177 24.5652 6.93725C24.3456 7.00587 24.1192 7.05387 23.8927 7.08132C23.68 7.08818 23.4674 7.10196 23.2546 7.13627C23.1517 7.08824 23.035 7.0745 22.9252 7.04019C22.6301 6.95785 22.3488 6.82744 22.1018 6.65589C22.2253 6.71765 22.3557 6.76572 22.4929 6.77944C22.5958 6.7863 22.7057 6.7794 22.8017 6.73823C22.836 6.71764 22.884 6.72458 22.9252 6.72458C23.0075 6.72458 23.0967 6.72456 23.1791 6.71084C23.1997 6.71084 23.1997 6.68335 23.1928 6.66963C23.1311 6.66277 23.0693 6.6765 23.0075 6.6765C22.9458 6.6765 22.8841 6.68335 22.8292 6.66963C22.7331 6.61473 22.637 6.56671 22.541 6.51182C22.7331 6.55299 22.9321 6.58729 23.1311 6.58729C23.1791 6.58729 23.2271 6.58728 23.2683 6.57355C23.2889 6.56669 23.3026 6.53927 23.2889 6.51869C23.2752 6.47065 23.234 6.45693 23.1928 6.43635C23.2477 6.44321 23.3095 6.44321 23.3644 6.43635C23.3644 6.44321 23.3575 6.45696 23.3506 6.46382C23.3644 6.48441 23.385 6.49121 23.4056 6.48434C23.8722 6.36083 24.3319 6.2099 24.7642 6.00405C25.0799 5.83936 25.3955 5.68154 25.7043 5.48941Z" fill="#EF7D00"/>
<path d="M23.8926 5.45507C23.9269 5.43449 23.9544 5.41393 23.9956 5.40021C23.9956 5.44824 23.9681 5.48946 23.9407 5.53063C23.8858 5.59924 23.8172 5.661 23.7417 5.70217C23.5976 5.76393 23.4466 5.81882 23.2956 5.86685C23.1104 5.92861 22.9114 5.98348 22.7193 6.01779C22.6506 6.03151 22.5889 6.03153 22.5202 6.03153C22.4997 6.02467 22.4928 6.04519 22.4791 6.05892C22.486 6.06578 22.4928 6.07953 22.4928 6.08639C22.5408 6.09325 22.5958 6.08643 22.6369 6.12074C22.6506 6.14132 22.63 6.155 22.6163 6.16186C22.582 6.18245 22.5408 6.18935 22.5065 6.20307C22.383 6.22366 22.2595 6.20992 22.136 6.18247C22.1086 6.16875 22.0811 6.20301 22.1017 6.2236C22.1566 6.25791 22.2183 6.29224 22.2664 6.34028C22.1428 6.34714 22.0125 6.34026 21.889 6.32654C21.8273 6.31968 21.7792 6.28539 21.7175 6.26481C21.6969 6.25795 21.69 6.27856 21.6831 6.29228C21.7312 6.36776 21.841 6.34714 21.889 6.42262C21.738 6.42948 21.5802 6.44325 21.4361 6.38149C21.4224 6.39521 21.4018 6.41576 21.4224 6.42949C21.4635 6.45007 21.5116 6.4569 21.5459 6.48435C21.4498 6.49807 21.34 6.49814 21.2439 6.4707C21.2096 6.46383 21.1959 6.4226 21.1753 6.40201C21.1136 6.31281 21.0449 6.23048 20.9695 6.16186C20.942 6.13442 20.9077 6.11383 20.8871 6.07952C21.093 6.01777 21.3057 6.01092 21.5253 6.01092C21.6214 6.01092 21.7243 6.0178 21.8203 6.02466C21.8889 6.02466 21.9507 6.03838 22.0193 6.02466C22.2458 5.96976 22.4722 5.88052 22.6918 5.8119C23.0349 5.74328 23.378 5.6678 23.7073 5.55115C23.7691 5.50998 23.8309 5.48252 23.8926 5.45507Z" fill="#EF7D00"/>
<path d="M18.0739 5.79126C18.2248 5.85988 18.3826 5.92171 18.5542 5.94915C18.5199 5.96288 18.4925 5.97656 18.4582 5.99028C18.417 6.03145 18.3758 6.0864 18.3278 6.12757C18.2866 6.16874 18.2317 6.16183 18.1837 6.1687C18.0876 6.17556 17.9915 6.18241 17.9023 6.16183C18.0121 6.10007 18.1082 6.01088 18.1906 5.91481C18.1837 5.90109 18.1699 5.88048 18.1562 5.8942C18.0533 5.92165 17.9504 5.95601 17.8406 5.94228C17.8063 5.93542 17.7788 5.92165 17.7583 5.8942C17.868 5.8942 17.9778 5.85302 18.0739 5.79126Z" fill="#EF7D00"/>
<path d="M22.685 6.07238C22.7811 6.05866 22.8703 6.0381 22.9595 6.01752C23.0144 6.0381 23.0762 6.04492 23.1379 6.05864C23.3301 6.09295 23.5153 6.12047 23.7074 6.12733C23.7623 6.12733 23.8241 6.12732 23.879 6.12046C23.7555 6.25084 23.5702 6.29886 23.3987 6.27827C23.2683 6.27141 23.1585 6.21651 23.035 6.18906C23.0144 6.18906 23.0075 6.21646 23.0212 6.22332C23.0967 6.26449 23.1859 6.27829 23.2683 6.29888C23.3231 6.3126 23.3712 6.34004 23.4124 6.38122C23.2889 6.40866 23.1654 6.38807 23.0418 6.37435C22.9321 6.36748 22.836 6.31946 22.7331 6.29201C22.7194 6.28515 22.6919 6.28508 22.6919 6.30566C22.685 6.31938 22.6988 6.32627 22.7125 6.33314C22.788 6.37431 22.8703 6.38802 22.9526 6.40861C23.0281 6.42919 23.0968 6.44976 23.1723 6.47721C23.1997 6.49093 23.234 6.49785 23.2409 6.53216C23.1311 6.55274 23.0282 6.53215 22.9184 6.52529C22.7537 6.5047 22.589 6.47724 22.4311 6.42921C22.3968 6.41549 22.3694 6.39493 22.3351 6.37435C22.3213 6.38121 22.3008 6.38801 22.3077 6.40174C22.3214 6.42918 22.3557 6.44297 22.3831 6.46355C22.4586 6.51845 22.5409 6.56646 22.6301 6.61449C22.6782 6.64194 22.7262 6.66252 22.7742 6.69683C22.6576 6.738 22.5204 6.74489 22.4037 6.71744C22.2185 6.67627 22.0469 6.58021 21.8891 6.47042C21.9028 6.46356 21.9302 6.46353 21.944 6.44295C21.9577 6.42236 21.9508 6.4018 21.9508 6.38122C22.0538 6.39494 22.1567 6.39487 22.2665 6.39487C22.2802 6.39487 22.3008 6.38808 22.3145 6.38122C22.3557 6.33318 22.2939 6.27824 22.2596 6.2508C22.3968 6.26452 22.5478 6.27141 22.6644 6.19593C22.6987 6.16162 22.6987 6.11355 22.685 6.07238Z" fill="#EF7D00"/>
<path d="M18.4031 6.12042C18.4306 6.09298 18.4512 6.06553 18.4786 6.03809C18.5953 6.08612 18.7257 6.11354 18.8492 6.09295C18.8149 6.12726 18.7805 6.16157 18.7394 6.18216C18.657 6.23019 18.5747 6.27821 18.4992 6.33997C18.458 6.37428 18.41 6.38111 18.362 6.39483C18.2797 6.40856 18.1973 6.41542 18.115 6.4017C18.2248 6.31936 18.3071 6.21649 18.4031 6.12042Z" fill="#EF7D00"/>
<path d="M18.9661 6.90262C19.2474 6.71735 19.5287 6.52519 19.7551 6.2713C19.7345 6.36737 19.7483 6.47711 19.7826 6.56631C19.6522 6.70355 19.4944 6.82713 19.3091 6.88888C19.1994 6.93006 19.0758 6.94379 18.9661 6.90262Z" fill="#EF7D00"/>
<path d="M21.6078 6.46344C21.6764 6.4703 21.7382 6.46345 21.7999 6.47031C21.848 6.49776 21.8822 6.54573 21.9303 6.58004C22.2116 6.81334 22.5479 6.97809 22.8978 7.07415C23.0076 7.10846 23.1242 7.12212 23.234 7.17702C23.234 7.17702 23.234 7.18389 23.234 7.19075C23.1723 7.25937 23.0831 7.27995 22.9939 7.27309C22.8429 7.26623 22.6988 7.21817 22.5616 7.16328C22.1979 7.01232 21.8617 6.79962 21.5323 6.58004C21.5254 6.59376 21.498 6.60066 21.5117 6.62125C21.5254 6.64183 21.5391 6.64865 21.5528 6.66238C21.7244 6.78589 21.8959 6.90942 22.0675 7.02608C22.2596 7.14959 22.4449 7.27997 22.6508 7.37604C22.5616 7.39662 22.4724 7.38976 22.39 7.37604C22.3214 7.36917 22.2596 7.35541 22.1979 7.33482C22.1842 7.32796 22.1704 7.32117 22.1498 7.32117C22.1567 7.31431 22.1567 7.30743 22.1635 7.30057C22.1086 7.27312 22.0538 7.24567 21.9989 7.21823C21.944 7.19078 21.896 7.14958 21.8479 7.10841C21.6695 6.97118 21.5048 6.8202 21.347 6.66238C21.3059 6.62121 21.2715 6.58007 21.2441 6.53204C21.3401 6.55263 21.4431 6.5595 21.5392 6.53891C21.5941 6.51832 21.6078 6.49089 21.6078 6.46344Z" fill="#EF7D00"/>
<path d="M19.7482 6.66235C19.7688 6.64176 19.7825 6.62121 19.8031 6.60748C19.8306 6.64865 19.858 6.68299 19.8786 6.7173C19.8306 6.79964 19.7482 6.86134 19.6658 6.91623C19.4737 7.04661 19.2747 7.15641 19.0757 7.27306C19.0346 7.29365 18.9866 7.30742 18.9385 7.32114C18.8287 7.34859 18.7189 7.36912 18.6023 7.34853C18.5886 7.34167 18.5679 7.34173 18.5611 7.32114C18.6983 7.22508 18.8561 7.14957 18.9865 7.03978C19.014 7.0192 19.0346 6.99176 19.0415 6.96431C19.1787 6.97804 19.3228 6.93686 19.4394 6.87511C19.5629 6.82021 19.659 6.74469 19.7482 6.66235Z" fill="#EF7D00"/>
<path d="M20.7362 6.86811C20.7499 6.86125 20.7636 6.86813 20.7705 6.88872C20.7979 6.98478 20.846 7.07399 20.9214 7.14947C20.9969 7.21809 21.0587 7.30043 21.0792 7.40335C21.0861 7.42394 21.0586 7.43761 21.0449 7.43074C21.0312 7.38271 21.0175 7.33471 20.99 7.29354C20.9489 7.22492 20.8803 7.18374 20.8322 7.11513C20.7911 7.06023 20.7567 6.99159 20.7362 6.92297C20.7293 6.89553 20.7224 6.87497 20.7362 6.86811Z" fill="#291908"/>
<path d="M18.9247 7.43076C19.1855 7.26608 19.4531 7.12202 19.707 6.95734C19.6795 6.99851 19.6452 7.03964 19.6315 7.08767C19.6315 7.1014 19.652 7.10142 19.6658 7.10828C19.7412 7.12886 19.8236 7.10833 19.8923 7.07402C19.954 7.04657 20.002 7.01224 20.0569 6.97107C20.1667 7.11517 20.2697 7.26609 20.3246 7.4445C20.3451 7.51998 20.3589 7.60917 20.3246 7.68465C20.3108 7.7121 20.2765 7.71213 20.256 7.71899C20.153 7.74644 20.0363 7.74645 19.9265 7.72586C19.8579 7.70527 19.7825 7.67093 19.7413 7.60231C19.8031 7.52683 19.8854 7.4788 19.9677 7.43076C20.0089 7.40332 20.0569 7.38961 20.1049 7.36216C20.1255 7.34844 20.1049 7.33476 20.0912 7.32103C19.9334 7.40338 19.7687 7.45821 19.5972 7.5131C19.5148 7.53369 19.4256 7.56804 19.3295 7.55431C19.309 7.55431 19.3021 7.52682 19.3021 7.50623C19.4257 7.38272 19.5835 7.30043 19.7207 7.21122C19.7413 7.1975 19.7207 7.18373 19.707 7.17001C19.5629 7.25235 19.4188 7.32789 19.2815 7.40337C19.1992 7.43768 19.11 7.45138 19.0208 7.45824C18.9933 7.45138 18.9522 7.45821 18.9247 7.43076Z" fill="#EF7D00"/>
<path d="M22.1636 7.01221C22.3214 7.10141 22.4793 7.17695 22.6508 7.2387C22.6714 7.24556 22.692 7.25236 22.7126 7.25236C22.7263 7.25236 22.7332 7.25923 22.7469 7.26609C22.7263 7.26609 22.7057 7.26609 22.6851 7.25922C22.6851 7.27295 22.6782 7.29358 22.692 7.3073C22.8086 7.3622 22.9322 7.39652 23.0625 7.41025C23.138 7.43083 23.2135 7.44454 23.2821 7.47885C23.2135 7.5063 23.1312 7.51998 23.0557 7.52685C22.9802 7.52685 22.9047 7.52683 22.8293 7.50624C22.7332 7.47879 22.644 7.45821 22.5548 7.4239C22.6165 7.4239 22.6783 7.42394 22.7332 7.38277C22.7469 7.37591 22.7469 7.35528 22.7469 7.33469C22.6646 7.32097 22.6028 7.27301 22.5342 7.2387C22.4038 7.17008 22.2802 7.09455 22.1636 7.01221Z" fill="#EF7D00"/>
<path d="M20.3383 7.13576C20.3383 7.12889 20.3451 7.10829 20.3588 7.11515C20.4274 7.16318 20.4961 7.21811 20.5784 7.2387C20.6607 7.26615 20.7499 7.30042 20.8048 7.36903C20.8391 7.41021 20.8529 7.47195 20.8529 7.52684C20.846 7.71211 20.846 7.90429 20.8254 8.08956C20.8186 8.12387 20.8323 8.15819 20.8392 8.18564C20.8529 8.22681 20.8529 8.26793 20.8529 8.30911C20.798 8.25421 20.7568 8.19245 20.7225 8.13069C20.7019 8.09638 20.6882 8.06205 20.6607 8.02775C20.6264 8.05519 20.6401 8.10325 20.6195 8.13756C20.5852 8.23362 20.5372 8.33656 20.4548 8.39831C20.4617 8.28852 20.4892 8.17875 20.5029 8.06896C20.5098 7.97289 20.5304 7.8768 20.5167 7.78073C20.5167 7.75328 20.4892 7.767 20.4755 7.77386C20.4823 7.9111 20.4755 8.05526 20.4 8.17877C20.3794 8.21994 20.3451 8.25418 20.3108 8.28163C20.3451 8.15126 20.3519 8.00718 20.3931 7.87681C20.4137 7.80819 20.448 7.7464 20.4548 7.67778C20.4548 7.6572 20.4275 7.65041 20.4206 7.671C20.3931 7.70531 20.3726 7.74642 20.3451 7.78073C20.352 7.72583 20.3794 7.67781 20.3862 7.61605C20.3931 7.51312 20.3726 7.41711 20.3314 7.32791C20.3039 7.26615 20.3245 7.19751 20.3383 7.13576Z" fill="#EF7D00"/>
<path d="M23.7143 7.14945C23.7898 7.14259 23.8585 7.12885 23.9339 7.12885C23.7075 7.28667 23.4261 7.37585 23.1448 7.36212C23.035 7.36212 22.9389 7.30725 22.836 7.30039C22.8222 7.30039 22.8086 7.29352 22.7948 7.28665C22.8291 7.27979 22.8635 7.3004 22.9047 7.30726C23.0144 7.32098 23.1311 7.32094 23.2203 7.25918C23.2546 7.23859 23.2683 7.2043 23.2957 7.18371C23.4398 7.16999 23.5771 7.16317 23.7143 7.14945Z" fill="#EF7D00"/>
<path d="M22.0949 7.30035C22.1497 7.3278 22.2046 7.369 22.2458 7.41704C22.3899 7.55427 22.5546 7.66401 22.7056 7.78752C22.7536 7.82869 22.8017 7.86991 22.8291 7.92481C22.7193 7.96598 22.6026 7.93163 22.4997 7.89046C22.335 7.82871 22.1841 7.74638 22.04 7.65032C22.0194 7.62973 21.9851 7.65713 21.9988 7.68457C22.0811 7.80123 22.191 7.89045 22.3076 7.96593C22.3419 7.98652 22.3762 8.00709 22.4037 8.03454C22.4174 8.04826 22.4105 8.06888 22.3899 8.07575C22.3145 8.10319 22.2321 8.07572 22.1566 8.04827C22.0605 8.0071 21.9782 7.94535 21.8958 7.88359C21.8684 7.86301 21.8478 7.83559 21.8204 7.82186C21.7861 7.815 21.7793 7.863 21.7998 7.87673C21.8479 7.93162 21.9233 7.96592 21.9508 8.0414C21.8341 8.0414 21.738 7.97281 21.6557 7.89733C21.6282 7.86302 21.5871 7.84242 21.5733 7.79439C21.539 7.6846 21.4979 7.57483 21.443 7.47877C21.5528 7.55425 21.6763 7.62287 21.8135 7.65032C21.8478 7.65718 21.9096 7.65027 21.9096 7.60224C21.9027 7.53362 21.841 7.47872 21.7998 7.43069C21.9302 7.51989 22.0674 7.60226 22.2253 7.62971C22.2664 7.63657 22.3144 7.64343 22.3556 7.62971C22.3762 7.60226 22.3556 7.56795 22.335 7.5405C22.2664 7.44444 22.1703 7.3827 22.0949 7.30035Z" fill="#EF7D00"/>
<path d="M22.3007 7.39642C22.3282 7.40329 22.3556 7.4033 22.3831 7.41016C22.4105 7.43075 22.438 7.44443 22.4723 7.45816C22.5821 7.50619 22.6919 7.54052 22.8085 7.5611C22.884 7.57482 22.9526 7.58852 23.0281 7.61597C22.9457 7.664 22.8565 7.68456 22.7673 7.6777C22.6712 7.67084 22.5958 7.616 22.5134 7.56797C22.4379 7.51994 22.3694 7.45818 22.3007 7.39642Z" fill="#EF7D00"/>
<path d="M20.6745 8.13043C20.6882 8.16474 20.7156 8.1922 20.7293 8.22651C20.7293 8.32257 20.7156 8.42554 20.7225 8.5216C20.7225 8.54219 20.7294 8.56275 20.7431 8.57647C20.7774 8.60392 20.8186 8.61762 20.8529 8.6382C20.8254 8.67251 20.8117 8.71371 20.8048 8.75488C20.7842 8.77547 20.7568 8.78916 20.7431 8.80975C20.7431 8.83033 20.7568 8.84411 20.7705 8.8647C20.8049 8.91959 20.8117 8.995 20.7842 9.0499C20.7705 9.07734 20.7431 9.098 20.7293 9.12545C20.7225 9.15976 20.7293 9.18713 20.7293 9.22144C20.7156 9.194 20.7087 9.17342 20.7087 9.14597C20.6264 9.09794 20.5921 8.99502 20.5921 8.89896C20.5921 8.86465 20.5372 8.86465 20.5441 8.89896C20.5441 8.96071 20.5372 9.0362 20.4823 9.07737C20.4549 9.10482 20.4068 9.11173 20.3725 9.13232C20.3519 9.15291 20.3588 9.18034 20.3519 9.20779C20.3245 9.16662 20.3314 9.11854 20.3382 9.07737C20.3245 9.05679 20.3039 9.03622 20.3108 9.01564C20.3176 8.94702 20.3657 8.89899 20.4069 8.85096C20.4206 8.83037 20.4068 8.80975 20.3862 8.80975C20.3519 8.82347 20.3313 8.85097 20.297 8.8647C20.2216 8.90587 20.1392 8.94015 20.0569 8.91956C20.0294 8.90584 20.0157 8.93332 19.9952 8.9539C20.0089 8.90587 20.0157 8.85778 20.0363 8.80975C20.0706 8.75485 20.1255 8.72053 20.1872 8.7068C20.249 8.69994 20.3108 8.70686 20.3725 8.67941C20.4617 8.63824 20.5235 8.5422 20.5372 8.44613C20.544 8.40496 20.5715 8.37751 20.5921 8.35006C20.6196 8.28144 20.6539 8.20591 20.6745 8.13043Z" fill="#EF7D00"/>
<path d="M21.2509 8.29513C21.2715 8.25396 21.2852 8.20597 21.2989 8.16479C21.3332 8.24714 21.3882 8.30884 21.45 8.36373C21.4637 8.4049 21.4568 8.45985 21.4636 8.50102C21.4773 8.52847 21.5048 8.53528 21.5254 8.54215C21.5666 8.55587 21.6146 8.55589 21.6558 8.56275C21.6901 8.56275 21.7107 8.59025 21.7312 8.6177C21.6901 8.60398 21.6489 8.56963 21.6009 8.58336C21.5666 8.59022 21.5323 8.62452 21.5392 8.65883C21.5392 8.68628 21.5734 8.6931 21.594 8.70682C21.6489 8.73427 21.6695 8.79609 21.6626 8.85098C21.6558 8.90587 21.6489 8.96761 21.594 9.00192C21.6009 8.96761 21.6077 8.92643 21.5803 8.90584C21.5529 8.8784 21.5048 8.90582 21.4705 8.88524C21.4362 8.85779 21.4293 8.80294 21.4156 8.76177C21.3882 8.71374 21.3058 8.73435 21.2921 8.78238C21.2989 8.85786 21.3196 8.94704 21.2784 9.01566C21.2647 9.04997 21.2304 9.06366 21.1961 9.07052C21.1824 9.10483 21.1823 9.14603 21.1892 9.1872C21.1549 9.15289 21.1686 9.09795 21.1617 9.04992C21.1549 9.02933 21.1343 9.01563 21.1274 8.98818C21.1137 8.92643 21.148 8.86466 21.1617 8.8029C21.1686 8.77545 21.1206 8.7618 21.1137 8.78925C21.0794 8.83042 21.0519 8.88525 20.9902 8.89898C20.9627 8.9127 20.9284 8.88525 20.8941 8.89898C20.8804 8.91956 20.8872 8.94699 20.8872 8.96758C20.8667 8.90582 20.8735 8.84414 20.8666 8.78238C20.8598 8.73435 20.8873 8.68628 20.9285 8.65883C21.0039 8.61766 21.0931 8.6177 21.1755 8.6177C21.2166 8.62456 21.2372 8.58333 21.2509 8.55588C21.2509 8.48727 21.2441 8.4187 21.2441 8.35008C21.2372 8.32949 21.2509 8.30885 21.2509 8.29513Z" fill="#EF7D00"/>
</svg>
