<svg width="30" height="30" viewBox="0 0 30 30" fill="none" xmlns="http://www.w3.org/2000/svg">
<path d="M5.0297 25.8565H25.3339C26.6377 24.6214 27.7081 23.1529 28.4972 21.5129H9.38009L5.0297 25.8565Z" fill="#FFD200"/>
<path d="M9.38704 21.5198H28.5042C29.156 20.168 29.6089 18.7133 29.8353 17.1763H13.7443L9.38704 21.5198Z" fill="#DE2010"/>
<path d="M4.85832 26.0281C7.52758 28.4846 11.0888 30.001 15.0069 30.001C19.0143 30.001 22.6442 28.4228 25.3409 25.8565H5.03665L4.85832 26.0281Z" fill="#319208"/>
<path d="M9.38009 8.48915H28.4972C27.7081 6.85603 26.6377 5.38762 25.3339 4.14563H5.0297L9.38009 8.48915Z" fill="#FFD200"/>
<path d="M13.7374 12.8327H29.8284C29.602 11.2956 29.1491 9.83406 28.4973 8.48914H9.38015L13.7374 12.8327Z" fill="#DE2010"/>
<path d="M25.334 4.14562C22.6442 1.58615 19.0074 0.0010376 15.0001 0.0010376C11.0819 0.0010376 7.52756 1.51753 4.85143 3.97408L5.02298 4.14562H25.334Z" fill="#319208"/>
<path d="M15.9127 15.001L13.7375 17.1763H29.8285C29.9314 16.4626 30 15.7421 30 15.001C30 14.26 29.9314 13.5394 29.8285 12.8258H13.7375L15.9127 15.001Z" fill="black"/>
<path d="M4.85819 3.97406C4.79644 4.02895 4.73467 4.09071 4.67291 4.14561C4.57684 4.23481 4.48075 4.31716 4.38468 4.40636L14.9999 15.001L4.38468 25.5958C4.47389 25.685 4.57684 25.7673 4.67291 25.8565C4.73467 25.9114 4.79644 25.9732 4.85819 26.0281L15.9126 15.001L4.85819 3.97406Z" fill="black"/>
<path d="M12.8248 12.8327L8.47437 8.48917L4.38473 4.41327C3.21136 5.59351 2.24387 6.97956 1.50279 8.48917C0.850913 9.83409 0.397987 11.2956 0.171546 12.8327C0.0686185 13.5463 0 14.2668 0 15.0079C0 15.749 0.0686185 16.4695 0.171546 17.1832C0.397987 18.7202 0.850913 20.1749 1.50279 21.5267C2.23701 23.0432 3.2045 24.4292 4.38473 25.6095L8.47437 21.5267L12.8248 17.1832L15 15.0079L12.8248 12.8327Z" fill="#F1F4FB"/>
<path d="M5.88072 9.7243L7.50697 13.3268L11.4319 13.7591L8.50878 16.4146L9.31164 20.2778L5.88072 18.3221L2.45666 20.2778L3.25944 16.4146L0.336288 13.7591L4.26133 13.3268L5.88072 9.7243Z" fill="#DE2010"/>
<path d="M3.2805 10.5615H3.40405C3.60304 10.5752 3.79512 10.6712 3.94608 10.7947C4.1588 10.9663 4.32348 11.1859 4.46072 11.4261C4.6803 11.7897 4.88618 12.1603 5.09204 12.5239C5.10576 12.5583 5.12632 12.5926 5.1469 12.6131C5.26355 12.7298 5.39396 12.8327 5.51747 12.9356C5.77822 13.1484 6.05272 13.3336 6.32034 13.5326C6.86928 13.9306 7.41129 14.3423 7.95338 14.7403C8.38567 15.056 8.81119 15.3785 9.23662 15.7079C9.38758 15.8176 9.53848 15.9343 9.68258 16.0509C9.71689 16.0853 9.75121 16.1058 9.77865 16.1402C9.64142 16.1264 9.5042 16.1058 9.36696 16.0921C9.07876 17.2106 8.79056 18.3222 8.50236 19.4338H3.04035C2.89625 18.7339 2.75215 18.034 2.60805 17.3272C2.56688 17.3204 2.51882 17.3067 2.49137 17.2655C2.43647 17.2037 2.41591 17.1145 2.42277 17.0321C2.42963 16.7302 2.54628 16.4421 2.67665 16.1676C2.82075 15.8657 2.97856 15.5775 3.09522 15.2687C3.1707 15.0628 3.21192 14.8501 3.2325 14.6374C3.27367 14.3011 3.28048 13.9649 3.25989 13.6287C3.24617 13.3268 3.20505 13.0249 3.1433 12.7298C3.10212 12.5446 3.05407 12.3524 2.95114 12.1877C2.86194 12.0505 2.73841 11.9406 2.58745 11.8858C2.46393 11.8377 2.32673 11.824 2.18949 11.8378C2.11401 11.8446 2.04535 11.8584 1.97673 11.8652V11.8103C1.98359 11.7485 2.0179 11.6868 2.05907 11.6319C2.12083 11.5427 2.20314 11.4741 2.29235 11.4192C2.34038 11.3849 2.38847 11.3574 2.4365 11.3369C2.49826 11.1241 2.59431 10.9182 2.75899 10.7673C2.90995 10.6438 3.09523 10.5752 3.2805 10.5615Z" fill="black"/>
<path d="M2.8139 10.7536C2.97172 10.6232 3.1845 10.5752 3.39035 10.5889C3.58249 10.5958 3.76769 10.685 3.92551 10.8085C4.06961 10.9183 4.19316 11.0623 4.30295 11.2133C4.38529 11.3231 4.44709 11.4329 4.51571 11.5495C4.72156 11.8995 4.92056 12.2563 5.11955 12.6063C4.89997 12.6955 4.68035 12.7984 4.46763 12.8945C4.06964 13.0798 3.67166 13.2719 3.27367 13.4571C3.25309 13.2032 3.21875 12.9494 3.15699 12.7024C3.11582 12.5239 3.06786 12.3455 2.97179 12.1877C2.87572 12.0299 2.72469 11.9133 2.55314 11.8584C2.37474 11.8035 2.17578 11.8172 1.99051 11.8515C1.99051 11.8172 1.9974 11.776 2.01798 11.7417C2.05915 11.6456 2.12779 11.5702 2.20327 11.5084C2.27875 11.4398 2.36108 11.3849 2.45028 11.3506C2.46401 11.33 2.46394 11.3094 2.47081 11.2888C2.53942 11.0829 2.64235 10.884 2.8139 10.7536Z" fill="#FFC617"/>
<path d="M3.17759 11.0418C3.22562 11.035 3.26684 11.0418 3.30801 11.0762C3.35604 11.1105 3.39035 11.1653 3.39721 11.2271C3.39721 11.3026 3.35602 11.3712 3.2874 11.4055C3.23251 11.433 3.16388 11.4261 3.10899 11.3986C3.05409 11.3712 3.01977 11.3163 3.00604 11.2546C2.99232 11.1516 3.07466 11.0487 3.17759 11.0418Z" fill="black"/>
<path d="M3.15005 11.0967C3.22553 11.0693 3.31475 11.1173 3.32847 11.1928C3.34905 11.2683 3.29422 11.3438 3.21874 11.3575C3.14326 11.3712 3.05406 11.3094 3.05406 11.2271C3.06092 11.1722 3.10202 11.1173 3.15005 11.0967Z" fill="#FFC617"/>
<path d="M4.87916 12.7161C4.95464 12.6818 5.03698 12.6406 5.12618 12.6132C5.32517 12.8122 5.5448 12.9837 5.77124 13.1553C6.77307 13.8826 7.76115 14.6168 8.74926 15.3579C8.96198 15.5157 9.17472 15.6735 9.38058 15.8382C9.49723 15.9343 9.62077 16.0235 9.74428 16.1264C8.91399 16.0304 8.0905 15.9206 7.27394 15.7765C6.88968 15.7147 6.51234 15.6392 6.13494 15.5432C5.99084 15.5089 5.84674 15.4608 5.70951 15.4059C5.53796 15.3441 5.35954 15.2824 5.188 15.207C5.07821 15.1521 4.9615 15.0903 4.8723 15.0011C4.74878 14.8844 4.65963 14.7335 4.57728 14.5756C4.51553 14.4658 4.4675 14.3492 4.41261 14.2463C4.39202 14.2394 4.40574 14.2669 4.40574 14.2738C4.48808 14.4453 4.57043 14.6237 4.67336 14.7884C4.74198 14.8913 4.81744 14.9805 4.91351 15.0628C5.03702 15.1657 5.18798 15.2344 5.33894 15.2962C5.50362 15.3579 5.66828 15.4197 5.8261 15.4746C5.8261 15.5363 5.79869 15.5912 5.77124 15.6393C5.70262 15.7559 5.60654 15.8451 5.50362 15.9343C5.36638 16.0441 5.22228 16.1333 5.07819 16.2225C4.9684 16.2843 4.85861 16.346 4.73509 16.3872C4.58413 16.4352 4.44002 16.5038 4.29592 16.5725C4.14496 16.6548 3.99401 16.7577 3.87736 16.8881C3.78816 16.991 3.7127 17.1214 3.72642 17.2655C3.67153 17.2655 3.60977 17.2724 3.55487 17.2724C3.45881 17.2792 3.36272 17.2792 3.27351 17.286C3.19803 17.286 3.11572 17.2998 3.04023 17.2929C3.03337 17.2792 3.02648 17.2655 3.01276 17.2518C2.95787 17.1283 2.97158 16.991 3.00589 16.8606C3.02648 16.8126 3.05392 16.7646 3.08136 16.7165C3.17057 16.5862 3.25978 16.4627 3.34898 16.3323C3.53425 16.0578 3.70582 15.7559 3.80189 15.4402C3.85679 15.2481 3.8911 15.0491 3.8911 14.8501H3.87736C3.87736 15.1932 3.7813 15.5294 3.62348 15.8382C3.4931 16.1127 3.31473 16.3529 3.14318 16.5931C3.09515 16.6617 3.04706 16.7303 3.00589 16.7989C2.96472 16.8675 2.95789 16.943 2.95103 17.0254C2.94417 17.1214 2.96472 17.2106 3.00589 17.2929C2.87552 17.2998 2.75205 17.3066 2.62167 17.3135C2.55992 17.3204 2.50496 17.2792 2.47752 17.2312C2.44321 17.1763 2.42266 17.1214 2.42952 17.0596C2.42952 16.8538 2.48437 16.6479 2.55985 16.4558C2.68337 16.147 2.84805 15.8657 2.98529 15.5638C3.04704 15.4197 3.11566 15.2756 3.15683 15.1246C3.22545 14.8845 3.25293 14.6305 3.27351 14.3835C3.2941 14.0884 3.29409 13.7934 3.26665 13.4984C3.26665 13.4846 3.25979 13.4571 3.27351 13.4503C3.80874 13.2101 4.34394 12.9563 4.87916 12.7161Z" fill="#FFC617"/>
<path d="M5.85367 15.4814C5.99777 15.5295 6.14188 15.5637 6.29284 15.6049C6.26539 15.7078 6.18991 15.7971 6.11443 15.8794C6.00464 15.9823 5.8811 16.0784 5.75073 16.147C5.73014 16.1607 5.70271 16.1539 5.67526 16.1539C5.53116 16.1539 5.38706 16.147 5.24296 16.147C5.3253 16.0921 5.40763 16.0304 5.48997 15.9686C5.59976 15.8725 5.70959 15.7765 5.78507 15.653C5.81938 15.5981 5.84681 15.5363 5.85367 15.4814Z" fill="#FFC617"/>
<path d="M6.12812 15.8794C6.2036 15.8039 6.27222 15.7078 6.30653 15.6049C6.44377 15.6324 6.58099 15.6667 6.72509 15.6941C6.67706 15.8314 6.57412 15.9549 6.4506 16.0304C6.34767 16.0921 6.23102 16.1402 6.10751 16.1402C5.99772 16.147 5.88794 16.147 5.77129 16.147C5.90166 16.0716 6.02519 15.9892 6.12812 15.8794Z" fill="#FFC617"/>
<path d="M6.71137 15.7696C6.72509 15.749 6.72512 15.7147 6.74571 15.701C6.89667 15.7216 7.04756 15.7559 7.19166 15.7833C7.82295 15.8931 8.45425 15.9823 9.08554 16.0647C9.17474 16.0784 9.26396 16.0921 9.35316 16.0989C9.29141 16.3528 9.22276 16.6136 9.15414 16.8675C9.14042 16.8675 9.11986 16.8606 9.09928 16.8606C9.09241 16.8675 9.08554 16.8675 9.08554 16.8743C9.10613 16.8743 9.12677 16.8812 9.14736 16.8881C9.0856 17.1351 9.01696 17.3821 8.9552 17.6291C8.52977 17.5399 8.0906 17.4714 7.6583 17.4233C6.98584 17.3478 6.29968 17.3067 5.62035 17.2792C5.5037 17.2724 5.39391 17.2792 5.27726 17.2724C5.15375 17.2724 5.03708 17.2655 4.91356 17.2655C4.59792 17.2518 4.28227 17.2518 3.96662 17.2518C3.89114 17.2586 3.81569 17.2655 3.74021 17.2655C3.73335 17.1557 3.78132 17.0459 3.84307 16.9635C3.93914 16.8263 4.0764 16.7303 4.21364 16.6479C4.33029 16.5793 4.44696 16.5244 4.57047 16.4764C4.70771 16.4764 4.84493 16.4833 4.98217 16.4833C5.05078 16.4833 5.11257 16.4901 5.18119 16.4901C5.27725 16.4901 5.37326 16.497 5.46933 16.5039C5.51736 16.5039 5.55858 16.5107 5.60662 16.5107C5.69582 16.5107 5.77817 16.5244 5.86737 16.5244C6.94468 16.5861 8.02882 16.6822 9.09241 16.8881C9.09241 16.8812 9.08554 16.8743 9.08554 16.8675C9.06495 16.8675 9.05126 16.8675 9.03067 16.8606C8.54348 16.7645 8.04941 16.7028 7.55536 16.6411C6.94466 16.5724 6.334 16.5313 5.71643 16.497C5.56547 16.4901 5.41449 16.4901 5.26352 16.4764C5.11943 16.4764 4.97532 16.4627 4.83122 16.4695C4.75574 16.4695 4.68022 16.4627 4.6116 16.4695C4.65963 16.4489 4.71459 16.4352 4.76262 16.4146C4.92045 16.346 5.07135 16.2705 5.21545 16.1813C5.24975 16.1744 5.29095 16.1813 5.32526 16.1813C5.52425 16.1813 5.71637 16.1882 5.91537 16.1882C6.0183 16.1813 6.12127 16.1882 6.2242 16.1676C6.43006 16.099 6.62216 15.9686 6.71137 15.7696Z" fill="#FFC617"/>
<path d="M5.57933 16.6479C5.65481 16.6342 5.74406 16.6548 5.79896 16.7097C5.87444 16.7851 5.89498 16.9087 5.84009 16.9979C5.79891 17.0802 5.70975 17.1282 5.62054 17.1213C5.51075 17.1213 5.41463 17.0322 5.39405 16.9224C5.37346 16.8058 5.46268 16.6754 5.57933 16.6479Z" fill="black"/>
<path d="M5.61346 16.7028C5.70266 16.6959 5.79181 16.7577 5.8124 16.8469C5.83984 16.943 5.77126 17.0459 5.68206 17.0665C5.63403 17.0802 5.58602 17.0665 5.53799 17.0459C5.46937 17.0047 5.4282 16.9087 5.45565 16.8332C5.47624 16.7646 5.54484 16.7097 5.61346 16.7028Z" fill="#FFC617"/>
<path d="M6.44383 16.7234C6.53989 16.6891 6.66342 16.7234 6.71832 16.8126C6.77321 16.895 6.77321 17.0048 6.71832 17.0802C6.69087 17.1214 6.64967 17.1557 6.60164 17.1695C6.51929 17.2038 6.42324 17.1831 6.36149 17.1214C6.30659 17.0802 6.27916 17.0048 6.28602 16.9362C6.29288 16.8401 6.35462 16.7509 6.44383 16.7234Z" fill="black"/>
<path d="M6.47821 16.7646C6.58114 16.7372 6.70462 16.8195 6.70462 16.9362C6.71148 17.0117 6.66341 17.1008 6.58107 17.1214C6.49873 17.1557 6.39583 17.1145 6.35466 17.0322C6.32721 16.9773 6.33409 16.895 6.3684 16.8401C6.40271 16.8058 6.4439 16.7784 6.47821 16.7646Z" fill="#FFC617"/>
<path d="M4.09695 17.2655C4.3577 17.2724 4.62533 17.2655 4.89295 17.2724C4.97529 17.2724 5.05075 17.2724 5.13309 17.2724C5.00958 17.3822 4.88613 17.4851 4.76948 17.5949C4.71458 17.6429 4.65969 17.6978 4.59793 17.7458C4.43325 17.588 4.26163 17.4233 4.09695 17.2655Z" fill="#FFC617"/>
<path d="M3.68524 17.2724C3.80875 17.2724 3.93917 17.2655 4.06954 17.2655C4.07641 17.4508 4.09009 17.6291 4.11067 17.8075C4.11067 17.8144 4.1038 17.8213 4.1038 17.8213C4.11753 17.8419 4.12441 17.8762 4.12441 17.8967C4.13813 18.0065 4.14503 18.1164 4.15875 18.2262C4.16561 18.2193 4.17935 18.2124 4.17249 18.1987C4.16563 18.0889 4.14501 17.9723 4.13815 17.8693C4.15187 17.8762 4.16563 17.883 4.17249 17.8899C4.31659 18.0202 4.46061 18.1575 4.61157 18.2879C4.52237 18.2811 4.4195 18.2879 4.3303 18.281C4.28226 18.281 4.23418 18.281 4.19301 18.281C4.17929 18.2742 4.18614 18.2536 4.18614 18.2398C4.17928 18.2398 4.17249 18.2398 4.17249 18.2398C4.2068 18.6241 4.26167 19.0084 4.31656 19.3927C4.31656 19.4064 4.31656 19.4201 4.31656 19.427C3.90485 19.427 3.48624 19.427 3.07453 19.427C2.93043 18.734 2.78633 18.034 2.64909 17.3341C2.83436 17.3272 3.01281 17.3135 3.19808 17.2998C3.27356 17.2998 3.34901 17.286 3.42449 17.2929C3.49997 17.2792 3.59604 17.2861 3.68524 17.2724Z" fill="#FFC617"/>
<path d="M4.08338 17.2792C4.25493 17.4439 4.42647 17.6086 4.59802 17.7664C4.62547 17.7527 4.64604 17.7253 4.66662 17.7115C4.83131 17.5674 4.9891 17.4233 5.15379 17.2792C5.25671 17.389 5.35969 17.4988 5.46262 17.6086C5.51752 17.6703 5.57241 17.7321 5.63417 17.7801C5.81944 17.6292 5.99779 17.4713 6.18306 17.3204C6.33403 17.485 6.47814 17.6497 6.6291 17.8213C6.64283 17.835 6.64972 17.8487 6.66344 17.8556C6.84871 17.7046 7.02707 17.5468 7.21234 17.389C7.34958 17.5536 7.4868 17.7115 7.62404 17.8762C7.6309 17.8831 7.64465 17.8968 7.65151 17.8831C7.82992 17.7596 8.00835 17.6223 8.18676 17.4988C8.39947 17.7046 8.61214 17.9036 8.82486 18.1026C8.79055 18.2261 8.76309 18.3497 8.72879 18.4732C8.53665 18.3085 8.35141 18.1369 8.15928 17.9722C7.97401 18.1026 7.79558 18.2467 7.61717 18.384C7.46621 18.2124 7.32218 18.034 7.17122 17.8625C6.98595 18.0066 6.8075 18.1643 6.62223 18.3153C6.46441 18.1506 6.29976 17.9791 6.14194 17.8075C6.07332 17.8624 6.00467 17.9242 5.93605 17.9859C5.82626 18.082 5.72335 18.1781 5.61356 18.2673C5.44888 18.1026 5.28414 17.9311 5.12631 17.7664C4.96163 17.9242 4.80384 18.0889 4.64602 18.2467C4.47447 18.0957 4.31667 17.9448 4.15198 17.8007C4.13826 17.7869 4.13136 17.7801 4.11764 17.7801C4.11078 17.6155 4.09024 17.4508 4.08338 17.2792Z" fill="#FFC617"/>
<path d="M5.18117 17.286C5.3184 17.2792 5.44876 17.2929 5.58599 17.2929C5.69578 17.2998 5.79869 17.2998 5.90848 17.3066C5.99768 17.3066 6.08003 17.3204 6.16923 17.3204C5.99083 17.4713 5.81927 17.6223 5.64086 17.7733C5.48304 17.6086 5.33213 17.4439 5.18117 17.286Z" fill="#FFC617"/>
<path d="M6.21049 17.3273C6.36145 17.3273 6.51922 17.341 6.67705 17.3479C6.84859 17.3616 7.02014 17.3753 7.19169 17.389C7.02014 17.5331 6.84859 17.6841 6.67705 17.8282C6.67018 17.835 6.66339 17.8282 6.65652 17.8213C6.50556 17.6566 6.36145 17.492 6.21049 17.3273Z" fill="#FFC617"/>
<path d="M7.23981 17.3958C7.55545 17.4164 7.86423 17.4576 8.17988 17.4988C8.00147 17.6223 7.82992 17.7527 7.65837 17.8762C7.51427 17.7184 7.37018 17.5605 7.23981 17.3958Z" fill="#FFC617"/>
<path d="M8.2209 17.5057C8.46793 17.54 8.715 17.588 8.95517 17.6429C8.92086 17.7938 8.87966 17.9448 8.83848 18.0958C8.63263 17.8968 8.42676 17.7047 8.2209 17.5057Z" fill="#FFC617"/>
<path d="M4.87239 18.1095C4.96159 18.0203 5.04394 17.9379 5.13314 17.8556C5.20176 17.9242 5.26355 17.9928 5.33216 18.0614C5.41451 18.1437 5.49683 18.2262 5.57231 18.3085C5.4488 18.3085 5.33213 18.2948 5.20861 18.2948C5.09882 18.2948 4.98905 18.2879 4.87926 18.2879C4.8175 18.2879 4.7626 18.2879 4.70084 18.2879C4.75574 18.2261 4.8175 18.1644 4.87239 18.1095Z" fill="#FFC617"/>
<path d="M5.67527 18.3085C5.82623 18.1644 5.99096 18.0271 6.14878 17.8899C6.29974 18.0409 6.43691 18.1987 6.58787 18.3497C6.5467 18.3497 6.50557 18.3497 6.4644 18.3497C6.19679 18.3291 5.93602 18.3154 5.67527 18.3085Z" fill="#FFC617"/>
<path d="M6.684 18.3565C6.84868 18.2193 7.01343 18.0821 7.17811 17.9448C7.30849 18.1026 7.43884 18.2536 7.57607 18.4114C7.56235 18.4114 7.54859 18.4183 7.54173 18.4251C7.56918 18.4183 7.60348 18.432 7.62407 18.4595C7.63779 18.4526 7.64469 18.4389 7.66528 18.432C8.0221 18.4663 8.37208 18.5006 8.72203 18.5555C8.674 18.7477 8.61904 18.9398 8.57101 19.1319C8.55042 19.228 8.52298 19.3241 8.49554 19.4201C7.10258 19.4201 5.70966 19.4201 4.32356 19.4201C4.26867 19.0496 4.22058 18.6722 4.17941 18.3017C4.22058 18.3017 4.26865 18.2948 4.30982 18.3017C4.40589 18.3017 4.50199 18.3017 4.60492 18.3017C4.62551 18.3017 4.63919 18.3153 4.65292 18.329C4.65978 18.3222 4.67354 18.3085 4.68726 18.3017C4.81077 18.3085 4.92736 18.3085 5.05087 18.3085C5.14694 18.3085 5.2499 18.3153 5.34597 18.3153C5.42145 18.3153 5.50377 18.3222 5.57925 18.3222C5.59297 18.3222 5.60674 18.3428 5.62046 18.3565C5.63418 18.3497 5.64099 18.3359 5.64785 18.329C5.77136 18.3359 5.8949 18.3359 6.01842 18.3428C6.08704 18.3428 6.16934 18.3497 6.23796 18.3497C6.35461 18.3565 6.47814 18.3634 6.59479 18.3703C6.60851 18.3771 6.61541 18.3909 6.62913 18.3977C6.64286 18.384 6.64968 18.3703 6.67026 18.3703C6.9516 18.384 7.24666 18.4045 7.52799 18.432C7.52799 18.4251 7.52799 18.4114 7.52799 18.4114C7.50741 18.4182 7.48684 18.4114 7.46626 18.4114C7.21237 18.3839 6.95161 18.3702 6.684 18.3565Z" fill="#FFC617"/>
<path d="M7.727 18.384C7.8711 18.2742 8.02207 18.1644 8.16617 18.0478C8.30341 18.1644 8.44063 18.2948 8.57787 18.4114C8.6259 18.4594 8.67399 18.4938 8.72202 18.5418C8.37207 18.5007 8.02896 18.4526 7.67901 18.4251C7.69273 18.4114 7.71328 18.3977 7.727 18.384Z" fill="#FFC617"/>
</svg>
