<svg width="26" height="24" viewBox="0 0 26 24" fill="none" xmlns="http://www.w3.org/2000/svg">
  <path d="M2.22083 10.0744C2.50926 10.1861 2.81774 10.5509 2.88879 10.8509C3.39218 12.9834 3.85307 15.1259 4.28664 17.2732C4.39108 17.7908 4.58297 17.9987 5.14466 17.9969C10.3772 17.9797 15.6091 17.9821 20.8417 17.9952C21.3754 17.9963 21.5989 17.8377 21.7112 17.2911C22.1436 15.1788 22.6451 13.0802 23.1194 10.9757C23.2287 10.4897 23.3374 10.1088 23.9871 9.95374C24.8093 9.75766 25.1743 8.90979 24.9205 8.10708C24.6782 7.3406 24.1043 6.99005 23.2876 7.05778C22.0658 7.15938 21.6213 8.18729 22.1994 9.70122C20.6407 10.5057 19.0734 11.3144 17.4642 12.145C16.1647 9.7541 14.9302 7.4832 13.7109 5.24083C14.8549 4.20223 14.9989 3.31633 14.2343 2.49935C13.6399 1.8636 12.5128 1.82973 11.8443 2.42746C11.0039 3.17967 11.1283 4.10003 12.2669 5.29668C11.656 6.42024 11.0385 7.56282 10.4148 8.70183C9.79425 9.8355 9.16637 10.9656 8.5136 12.1486C6.87832 11.2995 5.32865 10.495 3.70612 9.6519C3.79478 9.48673 3.84336 9.40235 3.88586 9.31501C4.32368 8.40772 4.02614 7.50103 3.17783 7.15166C2.3945 6.82903 1.44357 7.1986 1.12963 7.94843C0.75132 8.84919 1.22679 9.68934 2.22083 10.0744Z" stroke="white" stroke-width="2"/>
  <mask id="path-2-inside-1_11575_71715" fill="white">
    <path d="M16.5016 21.0002C17.9972 20.9997 19.1685 20.9639 20.6641 20.9734C21.3224 20.9775 22.0243 20.9288 22.0468 20.1403C22.0723 19.2515 21.343 19.2265 20.6641 19.2408C20.6301 19.2414 20.5961 19.2408 20.5621 19.2408C15.4978 19.2408 10.4335 19.2491 5.36912 19.2325C4.65502 19.2301 3.95791 19.3323 3.96095 20.1267C3.96459 20.968 4.74306 20.974 5.40798 20.974C7.92193 20.9728 10.4359 20.9734 12.9498 20.9734C12.9498 20.9644 12.9498 20.9823 12.9498 20.9734C14.0374 20.9728 15.414 21.0008 16.5016 21.0002Z"/>
  </mask>
  <path d="M16.5016 21.0002L16.5008 19.0002L16.5005 19.0002L16.5016 21.0002ZM20.6641 20.9734L20.6514 22.9733L20.6515 22.9733L20.6641 20.9734ZM22.0468 20.1403L20.0476 20.083L20.0476 20.0834L22.0468 20.1403ZM20.6641 19.2408L20.6991 21.2405L20.7061 21.2403L20.6641 19.2408ZM5.36912 19.2325L5.36247 21.2325L5.36255 21.2325L5.36912 19.2325ZM3.96095 20.1267L1.96096 20.1343L1.96097 20.1353L3.96095 20.1267ZM5.40798 20.974V22.974L5.40893 22.974L5.40798 20.974ZM16.5016 21.0002L16.5024 23.0002C18.1184 22.9996 19.1139 22.9635 20.6514 22.9733L20.6641 20.9734L20.6768 18.9734C19.2231 18.9642 17.876 18.9997 16.5008 19.0002L16.5016 21.0002ZM20.6641 20.9734L20.6515 22.9733C20.9364 22.9751 21.6796 22.9894 22.373 22.6961C22.7741 22.5264 23.2222 22.2314 23.5624 21.7361C23.9024 21.2412 24.0318 20.696 24.046 20.1973L22.0468 20.1403L20.0476 20.0834C20.0506 19.979 20.0839 19.7355 20.2653 19.4713C20.447 19.2068 20.6743 19.0715 20.8148 19.0121C20.9362 18.9607 21.0022 18.961 20.9504 18.9663C20.9035 18.9711 20.8247 18.9743 20.6768 18.9734L20.6641 20.9734ZM22.0468 20.1403L24.046 20.1977C24.0601 19.7068 23.9749 19.1382 23.6572 18.6025C23.3297 18.0503 22.8615 17.7123 22.4216 17.5197C21.6871 17.1982 20.8812 17.2358 20.6221 17.2412L20.6641 19.2408L20.7061 21.2403C20.8691 21.2369 20.9491 21.2386 20.9968 21.2428C21.05 21.2474 20.9639 21.2481 20.8176 21.184C20.6417 21.1071 20.3935 20.941 20.2168 20.643C20.0499 20.3616 20.0463 20.1295 20.0476 20.083L22.0468 20.1403ZM20.6641 19.2408L20.6292 17.2411C20.6342 17.241 20.6344 17.2411 20.6219 17.241C20.6146 17.241 20.6101 17.241 20.5985 17.2409C20.5889 17.2408 20.5761 17.2408 20.5621 17.2408V19.2408V21.2408C20.574 21.2408 20.575 21.2409 20.6044 21.241C20.6259 21.2411 20.6601 21.2412 20.6991 21.2405L20.6641 19.2408ZM20.5621 19.2408V17.2408C15.4934 17.2408 10.4356 17.2491 5.37569 17.2325L5.36912 19.2325L5.36255 21.2325C10.4313 21.2491 15.5022 21.2408 20.5621 21.2408V19.2408ZM5.36912 19.2325L5.37578 17.2325C5.01293 17.2313 4.25024 17.2371 3.54051 17.573C3.13648 17.7643 2.70273 18.0824 2.38516 18.5885C2.06878 19.0927 1.95906 19.6379 1.96096 20.1343L3.96095 20.1267L5.96093 20.119C5.96131 20.2182 5.93759 20.4528 5.77339 20.7145C5.60799 20.9781 5.39257 21.1219 5.2517 21.1885C5.1294 21.2464 5.0609 21.2486 5.10658 21.2426C5.1464 21.2374 5.2242 21.232 5.36247 21.2325L5.36912 19.2325ZM3.96095 20.1267L1.96097 20.1353C1.96324 20.6602 2.09107 21.2429 2.46098 21.7671C2.82873 22.2883 3.31252 22.5769 3.72053 22.7333C4.41282 22.9987 5.17869 22.974 5.40798 22.974V20.974V18.974C5.23096 18.974 5.13792 18.9725 5.06589 18.9666C4.99036 18.9604 5.04151 18.9558 5.15244 18.9984C5.28227 19.0481 5.5292 19.1775 5.72918 19.4609C5.93132 19.7473 5.96048 20.0138 5.96093 20.118L3.96095 20.1267ZM5.40798 20.974L5.40893 22.974C7.92225 22.9728 10.4353 22.9734 12.9498 22.9734V20.9734V18.9734C10.4365 18.9734 7.92162 18.9728 5.40704 18.974L5.40798 20.974ZM12.9498 20.9734H10.9498C10.9498 20.9734 10.9498 20.9734 10.9498 20.9734C10.9498 20.9734 10.9498 20.9734 10.9498 20.9735C10.9498 20.9735 10.9498 20.9735 10.9498 20.9735C10.9498 20.9735 10.9498 20.9735 10.9498 20.9736C10.9498 20.9736 10.9498 20.9736 10.9498 20.9736C10.9498 20.9736 10.9498 20.9736 10.9498 20.9737C10.9498 20.9737 10.9498 20.9737 10.9498 20.9737C10.9498 20.9737 10.9498 20.9737 10.9498 20.9738C10.9498 20.9738 10.9498 20.9738 10.9498 20.9738C10.9498 20.9738 10.9498 20.9738 10.9498 20.9739C10.9498 20.9739 10.9498 20.9739 10.9498 20.9739C10.9498 20.9739 10.9498 20.9739 10.9498 20.9739C10.9498 20.974 10.9498 20.974 10.9498 20.974C10.9498 20.974 10.9498 20.974 10.9498 20.974C10.9498 20.974 10.9498 20.9741 10.9498 20.9741C10.9498 20.9741 10.9498 20.9741 10.9498 20.9741C10.9498 20.9741 10.9498 20.9741 10.9498 20.9742C10.9498 20.9742 10.9498 20.9742 10.9498 20.9742C10.9498 20.9742 10.9498 20.9742 10.9498 20.9742C10.9498 20.9743 10.9498 20.9743 10.9498 20.9743C10.9498 20.9743 10.9498 20.9743 10.9498 20.9743C10.9498 20.9743 10.9498 20.9744 10.9498 20.9744C10.9498 20.9744 10.9498 20.9744 10.9498 20.9744C10.9498 20.9744 10.9498 20.9744 10.9498 20.9744C10.9498 20.9745 10.9498 20.9745 10.9498 20.9745C10.9498 20.9745 10.9498 20.9745 10.9498 20.9745C10.9498 20.9745 10.9498 20.9745 10.9498 20.9746C10.9498 20.9746 10.9498 20.9746 10.9498 20.9746C10.9498 20.9746 10.9498 20.9746 10.9498 20.9746C10.9498 20.9746 10.9498 20.9747 10.9498 20.9747C10.9498 20.9747 10.9498 20.9747 10.9498 20.9747C10.9498 20.9747 10.9498 20.9747 10.9498 20.9747C10.9498 20.9747 10.9498 20.9748 10.9498 20.9748C10.9498 20.9748 10.9498 20.9748 10.9498 20.9748C10.9498 20.9748 10.9498 20.9748 10.9498 20.9748C10.9498 20.9748 10.9498 20.9749 10.9498 20.9749C10.9498 20.9749 10.9498 20.9749 10.9498 20.9749C10.9498 20.9749 10.9498 20.9749 10.9498 20.9749C10.9498 20.9749 10.9498 20.9749 10.9498 20.975C10.9498 20.975 10.9498 20.975 10.9498 20.975C10.9498 20.975 10.9498 20.975 10.9498 20.975C10.9498 20.975 10.9498 20.975 10.9498 20.975C10.9498 20.9751 10.9498 20.9751 10.9498 20.9751C10.9498 20.9751 10.9498 20.9751 10.9498 20.9751C10.9498 20.9751 10.9498 20.9751 10.9498 20.9751C10.9498 20.9751 10.9498 20.9751 10.9498 20.9752C10.9498 20.9752 10.9498 20.9752 10.9498 20.9752C10.9498 20.9752 10.9498 20.9752 10.9498 20.9752C10.9498 20.9752 10.9498 20.9752 10.9498 20.9752C10.9498 20.9752 10.9498 20.9752 10.9498 20.9753C10.9498 20.9753 10.9498 20.9753 10.9498 20.9753C10.9498 20.9753 10.9498 20.9753 10.9498 20.9753C10.9498 20.9753 10.9498 20.9753 10.9498 20.9753C10.9498 20.9753 10.9498 20.9753 10.9498 20.9754C10.9498 20.9754 10.9498 20.9754 10.9498 20.9754C10.9498 20.9754 10.9498 20.9754 10.9498 20.9754C10.9498 20.9754 10.9498 20.9754 10.9498 20.9754C10.9498 20.9754 10.9498 20.9754 10.9498 20.9754C10.9498 20.9754 10.9498 20.9755 10.9498 20.9755C10.9498 20.9755 10.9498 20.9755 10.9498 20.9755C10.9498 20.9755 10.9498 20.9755 10.9498 20.9755C10.9498 20.9755 10.9498 20.9755 10.9498 20.9755C10.9498 20.9755 10.9498 20.9755 10.9498 20.9755C10.9498 20.9755 10.9498 20.9755 10.9498 20.9756C10.9498 20.9756 10.9498 20.9756 10.9498 20.9756C10.9498 20.9756 10.9498 20.9756 10.9498 20.9756C10.9498 20.9756 10.9498 20.9756 10.9498 20.9756C10.9498 20.9756 10.9498 20.9756 10.9498 20.9756C10.9498 20.9756 10.9498 20.9756 10.9498 20.9756C10.9498 20.9756 10.9498 20.9756 10.9498 20.9757C10.9498 20.9757 10.9498 20.9757 10.9498 20.9757C10.9498 20.9757 10.9498 20.9757 10.9498 20.9757C10.9498 20.9757 10.9498 20.9757 10.9498 20.9757C10.9498 20.9757 10.9498 20.9757 10.9498 20.9757C10.9498 20.9757 10.9498 20.9757 10.9498 20.9757C10.9498 20.9757 10.9498 20.9757 10.9498 20.9757C10.9498 20.9757 10.9498 20.9757 10.9498 20.9758C10.9498 20.9758 10.9498 20.9758 10.9498 20.9758C10.9498 20.9758 10.9498 20.9758 10.9498 20.9758C10.9498 20.9758 10.9498 20.9758 10.9498 20.9758C10.9498 20.9758 10.9498 20.9758 10.9498 20.9758C10.9498 20.9758 10.9498 20.9758 10.9498 20.9758C10.9498 20.9758 10.9498 20.9758 10.9498 20.9758C10.9498 20.9758 10.9498 20.9758 10.9498 20.9758C10.9498 20.9758 10.9498 20.9758 10.9498 20.9758C10.9498 20.9758 10.9498 20.9758 10.9498 20.9758C10.9498 20.9758 10.9498 20.9758 10.9498 20.9759C10.9498 20.9759 10.9498 20.9759 10.9498 20.9759C10.9498 20.9759 10.9498 20.9759 10.9498 20.9759C10.9498 20.9759 10.9498 20.9759 10.9498 20.9759C10.9498 20.9759 10.9498 20.9759 10.9498 20.9759C10.9498 20.9759 10.9498 20.9759 10.9498 20.9759C10.9498 20.9759 10.9498 20.9759 10.9498 20.9759C10.9498 20.9759 10.9498 20.9759 10.9498 20.9759C10.9498 20.9759 10.9498 20.9759 10.9498 20.9759C10.9498 20.9759 10.9498 20.9759 10.9498 20.9759C10.9498 20.9759 10.9498 20.9759 10.9498 20.9759C10.9498 20.9759 10.9498 20.9759 10.9498 20.9759C10.9498 20.9759 10.9498 20.9759 10.9498 20.9759C10.9498 20.9759 10.9498 20.9759 10.9498 20.9759C10.9498 20.9759 10.9498 20.9759 10.9498 20.9759C10.9498 20.9759 10.9498 20.9759 10.9498 20.9759C10.9498 20.9759 10.9498 20.9759 10.9498 20.9759C10.9498 20.9759 10.9498 20.9759 10.9498 20.9759C10.9498 20.9759 10.9498 20.9759 10.9498 20.9759C10.9498 20.9759 10.9498 20.9759 10.9498 20.9759C10.9498 20.9759 10.9498 20.9759 10.9498 20.9759C10.9498 20.9759 10.9498 20.9759 10.9498 20.9759C12.9498 20.9759 14.9498 20.9759 14.9498 20.9759C14.9498 20.9759 14.9498 20.9759 14.9498 20.9759C14.9498 20.9759 14.9498 20.9759 14.9498 20.9759C14.9498 20.9759 14.9498 20.9759 14.9498 20.9759C14.9498 20.9759 14.9498 20.9759 14.9498 20.9759C14.9498 20.9759 14.9498 20.9759 14.9498 20.9759C14.9498 20.9759 14.9498 20.9759 14.9498 20.9759C14.9498 20.9759 14.9498 20.9759 14.9498 20.9759C14.9498 20.9759 14.9498 20.9759 14.9498 20.9759C14.9498 20.9759 14.9498 20.9759 14.9498 20.9759C14.9498 20.9759 14.9498 20.9759 14.9498 20.9759C14.9498 20.9759 14.9498 20.9759 14.9498 20.9759C14.9498 20.9759 14.9498 20.9759 14.9498 20.9759C14.9498 20.9759 14.9498 20.9759 14.9498 20.9759C14.9498 20.9759 14.9498 20.9759 14.9498 20.9759C14.9498 20.9759 14.9498 20.9759 14.9498 20.9759C14.9498 20.9759 14.9498 20.9759 14.9498 20.9759C14.9498 20.9759 14.9498 20.9759 14.9498 20.9759C14.9498 20.9759 14.9498 20.9759 14.9498 20.9759C14.9498 20.9759 14.9498 20.9759 14.9498 20.9759C14.9498 20.9759 14.9498 20.9759 14.9498 20.9759C14.9498 20.9759 14.9498 20.9759 14.9498 20.9759C14.9498 20.9759 14.9498 20.9759 14.9498 20.9758C14.9498 20.9758 14.9498 20.9758 14.9498 20.9758C14.9498 20.9758 14.9498 20.9758 14.9498 20.9758C14.9498 20.9758 14.9498 20.9758 14.9498 20.9758C14.9498 20.9758 14.9498 20.9758 14.9498 20.9758C14.9498 20.9758 14.9498 20.9758 14.9498 20.9758C14.9498 20.9758 14.9498 20.9758 14.9498 20.9758C14.9498 20.9758 14.9498 20.9758 14.9498 20.9758C14.9498 20.9758 14.9498 20.9758 14.9498 20.9758C14.9498 20.9758 14.9498 20.9758 14.9498 20.9758C14.9498 20.9758 14.9498 20.9758 14.9498 20.9758C14.9498 20.9758 14.9498 20.9758 14.9498 20.9757C14.9498 20.9757 14.9498 20.9757 14.9498 20.9757C14.9498 20.9757 14.9498 20.9757 14.9498 20.9757C14.9498 20.9757 14.9498 20.9757 14.9498 20.9757C14.9498 20.9757 14.9498 20.9757 14.9498 20.9757C14.9498 20.9757 14.9498 20.9757 14.9498 20.9757C14.9498 20.9757 14.9498 20.9757 14.9498 20.9757C14.9498 20.9757 14.9498 20.9757 14.9498 20.9757C14.9498 20.9757 14.9498 20.9757 14.9498 20.9757C14.9498 20.9757 14.9498 20.9756 14.9498 20.9756C14.9498 20.9756 14.9498 20.9756 14.9498 20.9756C14.9498 20.9756 14.9498 20.9756 14.9498 20.9756C14.9498 20.9756 14.9498 20.9756 14.9498 20.9756C14.9498 20.9756 14.9498 20.9756 14.9498 20.9756C14.9498 20.9756 14.9498 20.9756 14.9498 20.9756C14.9498 20.9756 14.9498 20.9756 14.9498 20.9756C14.9498 20.9756 14.9498 20.9756 14.9498 20.9755C14.9498 20.9755 14.9498 20.9755 14.9498 20.9755C14.9498 20.9755 14.9498 20.9755 14.9498 20.9755C14.9498 20.9755 14.9498 20.9755 14.9498 20.9755C14.9498 20.9755 14.9498 20.9755 14.9498 20.9755C14.9498 20.9755 14.9498 20.9755 14.9498 20.9755C14.9498 20.9755 14.9498 20.9755 14.9498 20.9755C14.9498 20.9754 14.9498 20.9754 14.9498 20.9754C14.9498 20.9754 14.9498 20.9754 14.9498 20.9754C14.9498 20.9754 14.9498 20.9754 14.9498 20.9754C14.9498 20.9754 14.9498 20.9754 14.9498 20.9754C14.9498 20.9754 14.9498 20.9754 14.9498 20.9754C14.9498 20.9754 14.9498 20.9754 14.9498 20.9754C14.9498 20.9753 14.9498 20.9753 14.9498 20.9753C14.9498 20.9753 14.9498 20.9753 14.9498 20.9753C14.9498 20.9753 14.9498 20.9753 14.9498 20.9753C14.9498 20.9753 14.9498 20.9753 14.9498 20.9753C14.9498 20.9753 14.9498 20.9753 14.9498 20.9753C14.9498 20.9753 14.9498 20.9753 14.9498 20.9752C14.9498 20.9752 14.9498 20.9752 14.9498 20.9752C14.9498 20.9752 14.9498 20.9752 14.9498 20.9752C14.9498 20.9752 14.9498 20.9752 14.9498 20.9752C14.9498 20.9752 14.9498 20.9752 14.9498 20.9752C14.9498 20.9752 14.9498 20.9752 14.9498 20.9752C14.9498 20.9751 14.9498 20.9751 14.9498 20.9751C14.9498 20.9751 14.9498 20.9751 14.9498 20.9751C14.9498 20.9751 14.9498 20.9751 14.9498 20.9751C14.9498 20.9751 14.9498 20.9751 14.9498 20.9751C14.9498 20.9751 14.9498 20.9751 14.9498 20.9751C14.9498 20.975 14.9498 20.975 14.9498 20.975C14.9498 20.975 14.9498 20.975 14.9498 20.975C14.9498 20.975 14.9498 20.975 14.9498 20.975C14.9498 20.975 14.9498 20.975 14.9498 20.975C14.9498 20.975 14.9498 20.975 14.9498 20.9749C14.9498 20.9749 14.9498 20.9749 14.9498 20.9749C14.9498 20.9749 14.9498 20.9749 14.9498 20.9749C14.9498 20.9749 14.9498 20.9749 14.9498 20.9749C14.9498 20.9749 14.9498 20.9749 14.9498 20.9749C14.9498 20.9749 14.9498 20.9748 14.9498 20.9748C14.9498 20.9748 14.9498 20.9748 14.9498 20.9748C14.9498 20.9748 14.9498 20.9748 14.9498 20.9748C14.9498 20.9748 14.9498 20.9748 14.9498 20.9748C14.9498 20.9748 14.9498 20.9748 14.9498 20.9748C14.9498 20.9747 14.9498 20.9747 14.9498 20.9747C14.9498 20.9747 14.9498 20.9747 14.9498 20.9747C14.9498 20.9747 14.9498 20.9747 14.9498 20.9747C14.9498 20.9747 14.9498 20.9747 14.9498 20.9747C14.9498 20.9747 14.9498 20.9746 14.9498 20.9746C14.9498 20.9746 14.9498 20.9746 14.9498 20.9746C14.9498 20.9746 14.9498 20.9746 14.9498 20.9746C14.9498 20.9746 14.9498 20.9746 14.9498 20.9746C14.9498 20.9746 14.9498 20.9746 14.9498 20.9745C14.9498 20.9745 14.9498 20.9745 14.9498 20.9745C14.9498 20.9745 14.9498 20.9745 14.9498 20.9745C14.9498 20.9745 14.9498 20.9745 14.9498 20.9745C14.9498 20.9745 14.9498 20.9745 14.9498 20.9745C14.9498 20.9744 14.9498 20.9744 14.9498 20.9744C14.9498 20.9744 14.9498 20.9744 14.9498 20.9744C14.9498 20.9744 14.9498 20.9744 14.9498 20.9744C14.9498 20.9744 14.9498 20.9744 14.9498 20.9744C14.9498 20.9743 14.9498 20.9743 14.9498 20.9743C14.9498 20.9743 14.9498 20.9743 14.9498 20.9743C14.9498 20.9743 14.9498 20.9743 14.9498 20.9743C14.9498 20.9743 14.9498 20.9743 14.9498 20.9743C14.9498 20.9743 14.9498 20.9742 14.9498 20.9742C14.9498 20.9742 14.9498 20.9742 14.9498 20.9742C14.9498 20.9742 14.9498 20.9742 14.9498 20.9742C14.9498 20.9742 14.9498 20.9742 14.9498 20.9742C14.9498 20.9742 14.9498 20.9741 14.9498 20.9741C14.9498 20.9741 14.9498 20.9741 14.9498 20.9741C14.9498 20.9741 14.9498 20.9741 14.9498 20.9741C14.9498 20.9741 14.9498 20.9741 14.9498 20.9741C14.9498 20.9741 14.9498 20.974 14.9498 20.974C14.9498 20.974 14.9498 20.974 14.9498 20.974C14.9498 20.974 14.9498 20.974 14.9498 20.974C14.9498 20.974 14.9498 20.974 14.9498 20.974C14.9498 20.9739 14.9498 20.9739 14.9498 20.9739C14.9498 20.9739 14.9498 20.9739 14.9498 20.9739C14.9498 20.9739 14.9498 20.9739 14.9498 20.9739C14.9498 20.9739 14.9498 20.9739 14.9498 20.9739C14.9498 20.9738 14.9498 20.9738 14.9498 20.9738C14.9498 20.9738 14.9498 20.9738 14.9498 20.9738C14.9498 20.9738 14.9498 20.9738 14.9498 20.9738C14.9498 20.9738 14.9498 20.9738 14.9498 20.9738C14.9498 20.9737 14.9498 20.9737 14.9498 20.9737C14.9498 20.9737 14.9498 20.9737 14.9498 20.9737C14.9498 20.9737 14.9498 20.9737 14.9498 20.9737C14.9498 20.9737 14.9498 20.9737 14.9498 20.9736C14.9498 20.9736 14.9498 20.9736 14.9498 20.9736C14.9498 20.9736 14.9498 20.9736 14.9498 20.9736C14.9498 20.9736 14.9498 20.9736 14.9498 20.9736C14.9498 20.9736 14.9498 20.9736 14.9498 20.9735C14.9498 20.9735 14.9498 20.9735 14.9498 20.9735C14.9498 20.9735 14.9498 20.9735 14.9498 20.9735C14.9498 20.9735 14.9498 20.9735 14.9498 20.9735C14.9498 20.9735 14.9498 20.9734 14.9498 20.9734C14.9498 20.9734 14.9498 20.9734 14.9498 20.9734C14.9498 20.9734 14.9498 20.9734 14.9498 20.9734C14.9498 20.9734 14.9498 20.9734 14.9498 20.9734C14.9498 20.9734 14.9498 20.9733 14.9498 20.9733C14.9498 20.9733 14.9498 20.9733 14.9498 20.9733C14.9498 20.9733 14.9498 20.9733 14.9498 20.9733C14.9498 20.9733 14.9498 20.9733 14.9498 20.9733C14.9498 20.9732 14.9498 20.9732 14.9498 20.9732C14.9498 20.9732 14.9498 20.9732 14.9498 20.9732C14.9498 20.9732 14.9498 20.9732 14.9498 20.9732C14.9498 20.9732 14.9498 20.9732 14.9498 20.9732C14.9498 20.9731 14.9498 20.9731 14.9498 20.9731C14.9498 20.9731 14.9498 20.9731 14.9498 20.9731C14.9498 20.9731 14.9498 20.9731 14.9498 20.9731C14.9498 20.9731 14.9498 20.9731 14.9498 20.973C14.9498 20.973 14.9498 20.973 14.9498 20.973C14.9498 20.973 14.9498 20.973 14.9498 20.973C14.9498 20.973 14.9498 20.973 14.9498 20.973C14.9498 20.973 14.9498 20.973 14.9498 20.9729C14.9498 20.9729 14.9498 20.9729 14.9498 20.9729C14.9498 20.9729 14.9498 20.9729 14.9498 20.9729C14.9498 20.9729 14.9498 20.9729 14.9498 20.9729C14.9498 20.9729 14.9498 20.9729 14.9498 20.9728C14.9498 20.9728 14.9498 20.9728 14.9498 20.9728C14.9498 20.9728 14.9498 20.9728 14.9498 20.9728C14.9498 20.9728 14.9498 20.9728 14.9498 20.9728C14.9498 20.9728 14.9498 20.9727 14.9498 20.9727C14.9498 20.9727 14.9498 20.9727 14.9498 20.9727C14.9498 20.9727 14.9498 20.9727 14.9498 20.9727C14.9498 20.9727 14.9498 20.9727 14.9498 20.9727C14.9498 20.9727 14.9498 20.9726 14.9498 20.9726C14.9498 20.9726 14.9498 20.9726 14.9498 20.9726C14.9498 20.9726 14.9498 20.9726 14.9498 20.9726C14.9498 20.9726 14.9498 20.9726 14.9498 20.9726C14.9498 20.9726 14.9498 20.9725 14.9498 20.9725C14.9498 20.9725 14.9498 20.9725 14.9498 20.9725C14.9498 20.9725 14.9498 20.9725 14.9498 20.9725C14.9498 20.9725 14.9498 20.9725 14.9498 20.9725C14.9498 20.9725 14.9498 20.9724 14.9498 20.9724C14.9498 20.9724 14.9498 20.9724 14.9498 20.9724C14.9498 20.9724 14.9498 20.9724 14.9498 20.9724C14.9498 20.9724 14.9498 20.9724 14.9498 20.9724C14.9498 20.9724 14.9498 20.9724 14.9498 20.9723C14.9498 20.9723 14.9498 20.9723 14.9498 20.9723C14.9498 20.9723 14.9498 20.9723 14.9498 20.9723C14.9498 20.9723 14.9498 20.9723 14.9498 20.9723C14.9498 20.9723 14.9498 20.9723 14.9498 20.9722C14.9498 20.9722 14.9498 20.9722 14.9498 20.9722C14.9498 20.9722 14.9498 20.9722 14.9498 20.9722C14.9498 20.9722 14.9498 20.9722 14.9498 20.9722C14.9498 20.9722 14.9498 20.9722 14.9498 20.9722C14.9498 20.9721 14.9498 20.9721 14.9498 20.9721C14.9498 20.9721 14.9498 20.9721 14.9498 20.9721C14.9498 20.9721 14.9498 20.9721 14.9498 20.9721C14.9498 20.9721 14.9498 20.9721 14.9498 20.9721C14.9498 20.9721 14.9498 20.972 14.9498 20.972C14.9498 20.972 14.9498 20.972 14.9498 20.972C14.9498 20.972 14.9498 20.972 14.9498 20.972C14.9498 20.972 14.9498 20.972 14.9498 20.972C14.9498 20.972 14.9498 20.972 14.9498 20.9719C14.9498 20.9719 14.9498 20.9719 14.9498 20.9719C14.9498 20.9719 14.9498 20.9719 14.9498 20.9719C14.9498 20.9719 14.9498 20.9719 14.9498 20.9719C14.9498 20.9719 14.9498 20.9719 14.9498 20.9719C14.9498 20.9719 14.9498 20.9718 14.9498 20.9718C14.9498 20.9718 14.9498 20.9718 14.9498 20.9718C14.9498 20.9718 14.9498 20.9718 14.9498 20.9718C14.9498 20.9718 14.9498 20.9718 14.9498 20.9718C14.9498 20.9718 14.9498 20.9718 14.9498 20.9718C14.9498 20.9717 14.9498 20.9717 14.9498 20.9717C14.9498 20.9717 14.9498 20.9717 14.9498 20.9717C14.9498 20.9717 14.9498 20.9717 14.9498 20.9717C14.9498 20.9717 14.9498 20.9717 14.9498 20.9717C14.9498 20.9717 14.9498 20.9717 14.9498 20.9717C14.9498 20.9716 14.9498 20.9716 14.9498 20.9716C14.9498 20.9716 14.9498 20.9716 14.9498 20.9716C14.9498 20.9716 14.9498 20.9716 14.9498 20.9716C14.9498 20.9716 14.9498 20.9716 14.9498 20.9716C14.9498 20.9716 14.9498 20.9716 14.9498 20.9716C14.9498 20.9715 14.9498 20.9715 14.9498 20.9715C14.9498 20.9715 14.9498 20.9715 14.9498 20.9715C14.9498 20.9715 14.9498 20.9715 14.9498 20.9715C14.9498 20.9715 14.9498 20.9715 14.9498 20.9715C14.9498 20.9715 14.9498 20.9715 14.9498 20.9715C14.9498 20.9715 14.9498 20.9714 14.9498 20.9714C14.9498 20.9714 14.9498 20.9714 14.9498 20.9714C14.9498 20.9714 14.9498 20.9714 14.9498 20.9714C14.9498 20.9714 14.9498 20.9714 14.9498 20.9714C14.9498 20.9714 14.9498 20.9714 14.9498 20.9714C14.9498 20.9714 14.9498 20.9714 14.9498 20.9714C14.9498 20.9713 14.9498 20.9713 14.9498 20.9713C14.9498 20.9713 14.9498 20.9713 14.9498 20.9713C14.9498 20.9713 14.9498 20.9713 14.9498 20.9713C14.9498 20.9713 14.9498 20.9713 14.9498 20.9713C14.9498 20.9713 14.9498 20.9713 14.9498 20.9713C14.9498 20.9713 14.9498 20.9713 14.9498 20.9713C14.9498 20.9712 14.9498 20.9712 14.9498 20.9712C14.9498 20.9712 14.9498 20.9712 14.9498 20.9712C14.9498 20.9712 14.9498 20.9712 14.9498 20.9712C14.9498 20.9712 14.9498 20.9712 14.9498 20.9712C14.9498 20.9712 14.9498 20.9712 14.9498 20.9712C14.9498 20.9712 14.9498 20.9712 14.9498 20.9712C14.9498 20.9712 14.9498 20.9712 14.9498 20.9711C14.9498 20.9711 14.9498 20.9711 14.9498 20.9711C14.9498 20.9711 14.9498 20.9711 14.9498 20.9711C14.9498 20.9711 14.9498 20.9711 14.9498 20.9711C14.9498 20.9711 14.9498 20.9711 14.9498 20.9711C14.9498 20.9711 14.9498 20.9711 14.9498 20.9711C14.9498 20.9711 14.9498 20.9711 14.9498 20.9711C14.9498 20.9711 14.9498 20.9711 14.9498 20.9711C14.9498 20.9711 14.9498 20.971 14.9498 20.971C14.9498 20.971 14.9498 20.971 14.9498 20.971C14.9498 20.971 14.9498 20.971 14.9498 20.971C14.9498 20.971 14.9498 20.971 14.9498 20.971C14.9498 20.971 14.9498 20.971 14.9498 20.971C14.9498 20.971 14.9498 20.971 14.9498 20.971C14.9498 20.971 14.9498 20.971 14.9498 20.971C14.9498 20.971 14.9498 20.971 14.9498 20.971C14.9498 20.971 14.9498 20.971 14.9498 20.971C14.9498 20.971 14.9498 20.9709 14.9498 20.9709C14.9498 20.9709 14.9498 20.9709 14.9498 20.9709C14.9498 20.9709 14.9498 20.9709 14.9498 20.9709C14.9498 20.9709 14.9498 20.9709 14.9498 20.9709C14.9498 20.9709 14.9498 20.9709 14.9498 20.9709C14.9498 20.9709 14.9498 20.9709 14.9498 20.9709C14.9498 20.9709 14.9498 20.9709 14.9498 20.9709C14.9498 20.9709 14.9498 20.9709 14.9498 20.9709C14.9498 20.9709 14.9498 20.9709 14.9498 20.9709C14.9498 20.9709 14.9498 20.9709 14.9498 20.9709C14.9498 20.9709 14.9498 20.9709 14.9498 20.9709C14.9498 20.9709 14.9498 20.9709 14.9498 20.9709C14.9498 20.9709 14.9498 20.9709 14.9498 20.9708C14.9498 20.9708 14.9498 20.9708 14.9498 20.9708C14.9498 20.9708 14.9498 20.9708 14.9498 20.9708C14.9498 20.9708 14.9498 20.9708 14.9498 20.9708C14.9498 20.9708 14.9498 20.9708 14.9498 20.9708C14.9498 20.9708 14.9498 20.9708 14.9498 20.9708C14.9498 20.9708 14.9498 20.9708 14.9498 20.9708C14.9498 20.9708 14.9498 20.9708 14.9498 20.9708C14.9498 20.9708 14.9498 20.9708 14.9498 20.9708C14.9498 20.9708 14.9498 20.9708 14.9498 20.9708C14.9498 20.9708 14.9498 20.9708 14.9498 20.9708C14.9498 20.9708 14.9498 20.9708 14.9498 20.9708C14.9498 20.9708 14.9498 20.9708 14.9498 20.9708C14.9498 20.9708 14.9498 20.9708 14.9498 20.9708C14.9498 20.9708 14.9498 20.9708 14.9498 20.9708C14.9498 20.9708 14.9498 20.9708 14.9498 20.9708C14.9498 20.9708 14.9498 20.9708 14.9498 20.9708C14.9498 20.9708 14.9498 20.9708 14.9498 20.9708C14.9498 20.9708 14.9498 20.9708 14.9498 20.9708C14.9498 20.9708 12.9498 20.9708 10.9498 20.9708C10.9498 20.9708 10.9498 20.9708 10.9498 20.9708C10.9498 20.9708 10.9498 20.9708 10.9498 20.9708C10.9498 20.9708 10.9498 20.9708 10.9498 20.9708C10.9498 20.9708 10.9498 20.9708 10.9498 20.9708C10.9498 20.9708 10.9498 20.9708 10.9498 20.9708C10.9498 20.9708 10.9498 20.9708 10.9498 20.9708C10.9498 20.9708 10.9498 20.9708 10.9498 20.9708C10.9498 20.9708 10.9498 20.9708 10.9498 20.9708C10.9498 20.9708 10.9498 20.9708 10.9498 20.9708C10.9498 20.9708 10.9498 20.9708 10.9498 20.9708C10.9498 20.9708 10.9498 20.9708 10.9498 20.9708C10.9498 20.9708 10.9498 20.9708 10.9498 20.9708C10.9498 20.9708 10.9498 20.9708 10.9498 20.9708C10.9498 20.9708 10.9498 20.9708 10.9498 20.9708C10.9498 20.9708 10.9498 20.9708 10.9498 20.9708C10.9498 20.9708 10.9498 20.9708 10.9498 20.9708C10.9498 20.9708 10.9498 20.9708 10.9498 20.9708C10.9498 20.9708 10.9498 20.9708 10.9498 20.9709C10.9498 20.9709 10.9498 20.9709 10.9498 20.9709C10.9498 20.9709 10.9498 20.9709 10.9498 20.9709C10.9498 20.9709 10.9498 20.9709 10.9498 20.9709C10.9498 20.9709 10.9498 20.9709 10.9498 20.9709C10.9498 20.9709 10.9498 20.9709 10.9498 20.9709C10.9498 20.9709 10.9498 20.9709 10.9498 20.9709C10.9498 20.9709 10.9498 20.9709 10.9498 20.9709C10.9498 20.9709 10.9498 20.9709 10.9498 20.9709C10.9498 20.9709 10.9498 20.9709 10.9498 20.9709C10.9498 20.9709 10.9498 20.9709 10.9498 20.9709C10.9498 20.9709 10.9498 20.9709 10.9498 20.9709C10.9498 20.971 10.9498 20.971 10.9498 20.971C10.9498 20.971 10.9498 20.971 10.9498 20.971C10.9498 20.971 10.9498 20.971 10.9498 20.971C10.9498 20.971 10.9498 20.971 10.9498 20.971C10.9498 20.971 10.9498 20.971 10.9498 20.971C10.9498 20.971 10.9498 20.971 10.9498 20.971C10.9498 20.971 10.9498 20.971 10.9498 20.971C10.9498 20.971 10.9498 20.971 10.9498 20.9711C10.9498 20.9711 10.9498 20.9711 10.9498 20.9711C10.9498 20.9711 10.9498 20.9711 10.9498 20.9711C10.9498 20.9711 10.9498 20.9711 10.9498 20.9711C10.9498 20.9711 10.9498 20.9711 10.9498 20.9711C10.9498 20.9711 10.9498 20.9711 10.9498 20.9711C10.9498 20.9711 10.9498 20.9711 10.9498 20.9712C10.9498 20.9712 10.9498 20.9712 10.9498 20.9712C10.9498 20.9712 10.9498 20.9712 10.9498 20.9712C10.9498 20.9712 10.9498 20.9712 10.9498 20.9712C10.9498 20.9712 10.9498 20.9712 10.9498 20.9712C10.9498 20.9712 10.9498 20.9712 10.9498 20.9712C10.9498 20.9713 10.9498 20.9713 10.9498 20.9713C10.9498 20.9713 10.9498 20.9713 10.9498 20.9713C10.9498 20.9713 10.9498 20.9713 10.9498 20.9713C10.9498 20.9713 10.9498 20.9713 10.9498 20.9713C10.9498 20.9713 10.9498 20.9713 10.9498 20.9713C10.9498 20.9714 10.9498 20.9714 10.9498 20.9714C10.9498 20.9714 10.9498 20.9714 10.9498 20.9714C10.9498 20.9714 10.9498 20.9714 10.9498 20.9714C10.9498 20.9714 10.9498 20.9714 10.9498 20.9714C10.9498 20.9714 10.9498 20.9715 10.9498 20.9715C10.9498 20.9715 10.9498 20.9715 10.9498 20.9715C10.9498 20.9715 10.9498 20.9715 10.9498 20.9715C10.9498 20.9715 10.9498 20.9715 10.9498 20.9715C10.9498 20.9716 10.9498 20.9716 10.9498 20.9716C10.9498 20.9716 10.9498 20.9716 10.9498 20.9716C10.9498 20.9716 10.9498 20.9716 10.9498 20.9716C10.9498 20.9716 10.9498 20.9716 10.9498 20.9717C10.9498 20.9717 10.9498 20.9717 10.9498 20.9717C10.9498 20.9717 10.9498 20.9717 10.9498 20.9717C10.9498 20.9717 10.9498 20.9717 10.9498 20.9717C10.9498 20.9717 10.9498 20.9718 10.9498 20.9718C10.9498 20.9718 10.9498 20.9718 10.9498 20.9718C10.9498 20.9718 10.9498 20.9718 10.9498 20.9718C10.9498 20.9718 10.9498 20.9718 10.9498 20.9719C10.9498 20.9719 10.9498 20.9719 10.9498 20.9719C10.9498 20.9719 10.9498 20.9719 10.9498 20.9719C10.9498 20.9719 10.9498 20.9719 10.9498 20.972C10.9498 20.972 10.9498 20.972 10.9498 20.972C10.9498 20.972 10.9498 20.972 10.9498 20.972C10.9498 20.972 10.9498 20.972 10.9498 20.9721C10.9498 20.9721 10.9498 20.9721 10.9498 20.9721C10.9498 20.9721 10.9498 20.9721 10.9498 20.9721C10.9498 20.9721 10.9498 20.9722 10.9498 20.9722C10.9498 20.9722 10.9498 20.9722 10.9498 20.9722C10.9498 20.9722 10.9498 20.9722 10.9498 20.9722C10.9498 20.9723 10.9498 20.9723 10.9498 20.9723C10.9498 20.9723 10.9498 20.9723 10.9498 20.9723C10.9498 20.9723 10.9498 20.9723 10.9498 20.9724C10.9498 20.9724 10.9498 20.9724 10.9498 20.9724C10.9498 20.9724 10.9498 20.9724 10.9498 20.9724C10.9498 20.9725 10.9498 20.9725 10.9498 20.9725C10.9498 20.9725 10.9498 20.9725 10.9498 20.9725C10.9498 20.9725 10.9498 20.9725 10.9498 20.9726C10.9498 20.9726 10.9498 20.9726 10.9498 20.9726C10.9498 20.9726 10.9498 20.9726 10.9498 20.9726C10.9498 20.9727 10.9498 20.9727 10.9498 20.9727C10.9498 20.9727 10.9498 20.9727 10.9498 20.9727C10.9498 20.9727 10.9498 20.9728 10.9498 20.9728C10.9498 20.9728 10.9498 20.9728 10.9498 20.9728C10.9498 20.9728 10.9498 20.9729 10.9498 20.9729C10.9498 20.9729 10.9498 20.9729 10.9498 20.9729C10.9498 20.9729 10.9498 20.9729 10.9498 20.973C10.9498 20.973 10.9498 20.973 10.9498 20.973C10.9498 20.973 10.9498 20.973 10.9498 20.9731C10.9498 20.9731 10.9498 20.9731 10.9498 20.9731C10.9498 20.9731 10.9498 20.9731 10.9498 20.9732C10.9498 20.9732 10.9498 20.9732 10.9498 20.9732C10.9498 20.9732 10.9498 20.9732 10.9498 20.9733C10.9498 20.9733 10.9498 20.9733 10.9498 20.9733C10.9498 20.9733 10.9498 20.9733 10.9498 20.9734H12.9498H14.9498C14.9498 20.9733 14.9498 20.9733 14.9498 20.9733C14.9498 20.9733 14.9498 20.9733 14.9498 20.9733C14.9498 20.9732 14.9498 20.9732 14.9498 20.9732C14.9498 20.9732 14.9498 20.9732 14.9498 20.9732C14.9498 20.9731 14.9498 20.9731 14.9498 20.9731C14.9498 20.9731 14.9498 20.9731 14.9498 20.9731C14.9498 20.973 14.9498 20.973 14.9498 20.973C14.9498 20.973 14.9498 20.973 14.9498 20.973C14.9498 20.9729 14.9498 20.9729 14.9498 20.9729C14.9498 20.9729 14.9498 20.9729 14.9498 20.9729C14.9498 20.9729 14.9498 20.9728 14.9498 20.9728C14.9498 20.9728 14.9498 20.9728 14.9498 20.9728C14.9498 20.9728 14.9498 20.9727 14.9498 20.9727C14.9498 20.9727 14.9498 20.9727 14.9498 20.9727C14.9498 20.9727 14.9498 20.9727 14.9498 20.9726C14.9498 20.9726 14.9498 20.9726 14.9498 20.9726C14.9498 20.9726 14.9498 20.9726 14.9498 20.9726C14.9498 20.9725 14.9498 20.9725 14.9498 20.9725C14.9498 20.9725 14.9498 20.9725 14.9498 20.9725C14.9498 20.9725 14.9498 20.9725 14.9498 20.9724C14.9498 20.9724 14.9498 20.9724 14.9498 20.9724C14.9498 20.9724 14.9498 20.9724 14.9498 20.9724C14.9498 20.9723 14.9498 20.9723 14.9498 20.9723C14.9498 20.9723 14.9498 20.9723 14.9498 20.9723C14.9498 20.9723 14.9498 20.9723 14.9498 20.9722C14.9498 20.9722 14.9498 20.9722 14.9498 20.9722C14.9498 20.9722 14.9498 20.9722 14.9498 20.9722C14.9498 20.9722 14.9498 20.9721 14.9498 20.9721C14.9498 20.9721 14.9498 20.9721 14.9498 20.9721C14.9498 20.9721 14.9498 20.9721 14.9498 20.9721C14.9498 20.972 14.9498 20.972 14.9498 20.972C14.9498 20.972 14.9498 20.972 14.9498 20.972C14.9498 20.972 14.9498 20.972 14.9498 20.972C14.9498 20.9719 14.9498 20.9719 14.9498 20.9719C14.9498 20.9719 14.9498 20.9719 14.9498 20.9719C14.9498 20.9719 14.9498 20.9719 14.9498 20.9719C14.9498 20.9718 14.9498 20.9718 14.9498 20.9718C14.9498 20.9718 14.9498 20.9718 14.9498 20.9718C14.9498 20.9718 14.9498 20.9718 14.9498 20.9718C14.9498 20.9718 14.9498 20.9717 14.9498 20.9717C14.9498 20.9717 14.9498 20.9717 14.9498 20.9717C14.9498 20.9717 14.9498 20.9717 14.9498 20.9717C14.9498 20.9717 14.9498 20.9717 14.9498 20.9717C14.9498 20.9716 14.9498 20.9716 14.9498 20.9716C14.9498 20.9716 14.9498 20.9716 14.9498 20.9716C14.9498 20.9716 14.9498 20.9716 14.9498 20.9716C14.9498 20.9716 14.9498 20.9716 14.9498 20.9715C14.9498 20.9715 14.9498 20.9715 14.9498 20.9715C14.9498 20.9715 14.9498 20.9715 14.9498 20.9715C14.9498 20.9715 14.9498 20.9715 14.9498 20.9715C14.9498 20.9715 14.9498 20.9714 14.9498 20.9714C14.9498 20.9714 14.9498 20.9714 14.9498 20.9714C14.9498 20.9714 14.9498 20.9714 14.9498 20.9714C14.9498 20.9714 14.9498 20.9714 14.9498 20.9714C14.9498 20.9714 14.9498 20.9714 14.9498 20.9713C14.9498 20.9713 14.9498 20.9713 14.9498 20.9713C14.9498 20.9713 14.9498 20.9713 14.9498 20.9713C14.9498 20.9713 14.9498 20.9713 14.9498 20.9713C14.9498 20.9713 14.9498 20.9713 14.9498 20.9713C14.9498 20.9713 14.9498 20.9713 14.9498 20.9712C14.9498 20.9712 14.9498 20.9712 14.9498 20.9712C14.9498 20.9712 14.9498 20.9712 14.9498 20.9712C14.9498 20.9712 14.9498 20.9712 14.9498 20.9712C14.9498 20.9712 14.9498 20.9712 14.9498 20.9712C14.9498 20.9712 14.9498 20.9712 14.9498 20.9712C14.9498 20.9711 14.9498 20.9711 14.9498 20.9711C14.9498 20.9711 14.9498 20.9711 14.9498 20.9711C14.9498 20.9711 14.9498 20.9711 14.9498 20.9711C14.9498 20.9711 14.9498 20.9711 14.9498 20.9711C14.9498 20.9711 14.9498 20.9711 14.9498 20.9711C14.9498 20.9711 14.9498 20.9711 14.9498 20.9711C14.9498 20.971 14.9498 20.971 14.9498 20.971C14.9498 20.971 14.9498 20.971 14.9498 20.971C14.9498 20.971 14.9498 20.971 14.9498 20.971C14.9498 20.971 14.9498 20.971 14.9498 20.971C14.9498 20.971 14.9498 20.971 14.9498 20.971C14.9498 20.971 14.9498 20.971 14.9498 20.971C14.9498 20.971 14.9498 20.971 14.9498 20.971C14.9498 20.971 14.9498 20.971 14.9498 20.9709C14.9498 20.9709 14.9498 20.9709 14.9498 20.9709C14.9498 20.9709 14.9498 20.9709 14.9498 20.9709C14.9498 20.9709 14.9498 20.9709 14.9498 20.9709C14.9498 20.9709 14.9498 20.9709 14.9498 20.9709C14.9498 20.9709 14.9498 20.9709 14.9498 20.9709C14.9498 20.9709 14.9498 20.9709 14.9498 20.9709C14.9498 20.9709 14.9498 20.9709 14.9498 20.9709C14.9498 20.9709 14.9498 20.9709 14.9498 20.9709C14.9498 20.9709 14.9498 20.9709 14.9498 20.9709C14.9498 20.9709 14.9498 20.9709 14.9498 20.9709C14.9498 20.9709 14.9498 20.9709 14.9498 20.9709C14.9498 20.9708 14.9498 20.9708 14.9498 20.9708C14.9498 20.9708 14.9498 20.9708 14.9498 20.9708C14.9498 20.9708 14.9498 20.9708 14.9498 20.9708C14.9498 20.9708 14.9498 20.9708 14.9498 20.9708C14.9498 20.9708 14.9498 20.9708 14.9498 20.9708C14.9498 20.9708 14.9498 20.9708 14.9498 20.9708C14.9498 20.9708 14.9498 20.9708 14.9498 20.9708C14.9498 20.9708 14.9498 20.9708 14.9498 20.9708C14.9498 20.9708 14.9498 20.9708 14.9498 20.9708C14.9498 20.9708 14.9498 20.9708 14.9498 20.9708C14.9498 20.9708 14.9498 20.9708 14.9498 20.9708C14.9498 20.9708 14.9498 20.9708 14.9498 20.9708C14.9498 20.9708 14.9498 20.9708 14.9498 20.9708C14.9498 20.9708 14.9498 20.9708 14.9498 20.9708C14.9498 20.9708 14.9498 20.9708 14.9498 20.9708C14.9498 20.9708 14.9498 20.9708 14.9498 20.9708C14.9498 20.9708 14.9498 20.9708 14.9498 20.9708C14.9498 20.9708 14.9498 20.9708 14.9498 20.9708C12.9498 20.9708 10.9498 20.9708 10.9498 20.9708C10.9498 20.9708 10.9498 20.9708 10.9498 20.9708C10.9498 20.9708 10.9498 20.9708 10.9498 20.9708C10.9498 20.9708 10.9498 20.9708 10.9498 20.9708C10.9498 20.9708 10.9498 20.9708 10.9498 20.9708C10.9498 20.9708 10.9498 20.9708 10.9498 20.9708C10.9498 20.9708 10.9498 20.9708 10.9498 20.9708C10.9498 20.9708 10.9498 20.9708 10.9498 20.9708C10.9498 20.9708 10.9498 20.9708 10.9498 20.9708C10.9498 20.9708 10.9498 20.9708 10.9498 20.9708C10.9498 20.9708 10.9498 20.9708 10.9498 20.9708C10.9498 20.9708 10.9498 20.9708 10.9498 20.9708C10.9498 20.9708 10.9498 20.9708 10.9498 20.9708C10.9498 20.9708 10.9498 20.9708 10.9498 20.9708C10.9498 20.9708 10.9498 20.9708 10.9498 20.9708C10.9498 20.9708 10.9498 20.9708 10.9498 20.9708C10.9498 20.9708 10.9498 20.9708 10.9498 20.9708C10.9498 20.9708 10.9498 20.9708 10.9498 20.9708C10.9498 20.9708 10.9498 20.9708 10.9498 20.9708C10.9498 20.9709 10.9498 20.9709 10.9498 20.9709C10.9498 20.9709 10.9498 20.9709 10.9498 20.9709C10.9498 20.9709 10.9498 20.9709 10.9498 20.9709C10.9498 20.9709 10.9498 20.9709 10.9498 20.9709C10.9498 20.9709 10.9498 20.9709 10.9498 20.9709C10.9498 20.9709 10.9498 20.9709 10.9498 20.9709C10.9498 20.9709 10.9498 20.9709 10.9498 20.9709C10.9498 20.9709 10.9498 20.9709 10.9498 20.9709C10.9498 20.9709 10.9498 20.9709 10.9498 20.9709C10.9498 20.9709 10.9498 20.9709 10.9498 20.9709C10.9498 20.9709 10.9498 20.9709 10.9498 20.9709C10.9498 20.9709 10.9498 20.9709 10.9498 20.9709C10.9498 20.9709 10.9498 20.971 10.9498 20.971C10.9498 20.971 10.9498 20.971 10.9498 20.971C10.9498 20.971 10.9498 20.971 10.9498 20.971C10.9498 20.971 10.9498 20.971 10.9498 20.971C10.9498 20.971 10.9498 20.971 10.9498 20.971C10.9498 20.971 10.9498 20.971 10.9498 20.971C10.9498 20.971 10.9498 20.971 10.9498 20.971C10.9498 20.971 10.9498 20.971 10.9498 20.971C10.9498 20.971 10.9498 20.971 10.9498 20.971C10.9498 20.971 10.9498 20.9711 10.9498 20.9711C10.9498 20.9711 10.9498 20.9711 10.9498 20.9711C10.9498 20.9711 10.9498 20.9711 10.9498 20.9711C10.9498 20.9711 10.9498 20.9711 10.9498 20.9711C10.9498 20.9711 10.9498 20.9711 10.9498 20.9711C10.9498 20.9711 10.9498 20.9711 10.9498 20.9711C10.9498 20.9711 10.9498 20.9711 10.9498 20.9711C10.9498 20.9711 10.9498 20.9711 10.9498 20.9711C10.9498 20.9712 10.9498 20.9712 10.9498 20.9712C10.9498 20.9712 10.9498 20.9712 10.9498 20.9712C10.9498 20.9712 10.9498 20.9712 10.9498 20.9712C10.9498 20.9712 10.9498 20.9712 10.9498 20.9712C10.9498 20.9712 10.9498 20.9712 10.9498 20.9712C10.9498 20.9712 10.9498 20.9712 10.9498 20.9712C10.9498 20.9712 10.9498 20.9712 10.9498 20.9713C10.9498 20.9713 10.9498 20.9713 10.9498 20.9713C10.9498 20.9713 10.9498 20.9713 10.9498 20.9713C10.9498 20.9713 10.9498 20.9713 10.9498 20.9713C10.9498 20.9713 10.9498 20.9713 10.9498 20.9713C10.9498 20.9713 10.9498 20.9713 10.9498 20.9713C10.9498 20.9713 10.9498 20.9713 10.9498 20.9714C10.9498 20.9714 10.9498 20.9714 10.9498 20.9714C10.9498 20.9714 10.9498 20.9714 10.9498 20.9714C10.9498 20.9714 10.9498 20.9714 10.9498 20.9714C10.9498 20.9714 10.9498 20.9714 10.9498 20.9714C10.9498 20.9714 10.9498 20.9714 10.9498 20.9714C10.9498 20.9714 10.9498 20.9715 10.9498 20.9715C10.9498 20.9715 10.9498 20.9715 10.9498 20.9715C10.9498 20.9715 10.9498 20.9715 10.9498 20.9715C10.9498 20.9715 10.9498 20.9715 10.9498 20.9715C10.9498 20.9715 10.9498 20.9715 10.9498 20.9715C10.9498 20.9715 10.9498 20.9715 10.9498 20.9716C10.9498 20.9716 10.9498 20.9716 10.9498 20.9716C10.9498 20.9716 10.9498 20.9716 10.9498 20.9716C10.9498 20.9716 10.9498 20.9716 10.9498 20.9716C10.9498 20.9716 10.9498 20.9716 10.9498 20.9716C10.9498 20.9716 10.9498 20.9716 10.9498 20.9717C10.9498 20.9717 10.9498 20.9717 10.9498 20.9717C10.9498 20.9717 10.9498 20.9717 10.9498 20.9717C10.9498 20.9717 10.9498 20.9717 10.9498 20.9717C10.9498 20.9717 10.9498 20.9717 10.9498 20.9717C10.9498 20.9717 10.9498 20.9717 10.9498 20.9718C10.9498 20.9718 10.9498 20.9718 10.9498 20.9718C10.9498 20.9718 10.9498 20.9718 10.9498 20.9718C10.9498 20.9718 10.9498 20.9718 10.9498 20.9718C10.9498 20.9718 10.9498 20.9718 10.9498 20.9718C10.9498 20.9718 10.9498 20.9719 10.9498 20.9719C10.9498 20.9719 10.9498 20.9719 10.9498 20.9719C10.9498 20.9719 10.9498 20.9719 10.9498 20.9719C10.9498 20.9719 10.9498 20.9719 10.9498 20.9719C10.9498 20.9719 10.9498 20.9719 10.9498 20.9719C10.9498 20.972 10.9498 20.972 10.9498 20.972C10.9498 20.972 10.9498 20.972 10.9498 20.972C10.9498 20.972 10.9498 20.972 10.9498 20.972C10.9498 20.972 10.9498 20.972 10.9498 20.972C10.9498 20.972 10.9498 20.9721 10.9498 20.9721C10.9498 20.9721 10.9498 20.9721 10.9498 20.9721C10.9498 20.9721 10.9498 20.9721 10.9498 20.9721C10.9498 20.9721 10.9498 20.9721 10.9498 20.9721C10.9498 20.9721 10.9498 20.9721 10.9498 20.9722C10.9498 20.9722 10.9498 20.9722 10.9498 20.9722C10.9498 20.9722 10.9498 20.9722 10.9498 20.9722C10.9498 20.9722 10.9498 20.9722 10.9498 20.9722C10.9498 20.9722 10.9498 20.9722 10.9498 20.9722C10.9498 20.9723 10.9498 20.9723 10.9498 20.9723C10.9498 20.9723 10.9498 20.9723 10.9498 20.9723C10.9498 20.9723 10.9498 20.9723 10.9498 20.9723C10.9498 20.9723 10.9498 20.9723 10.9498 20.9723C10.9498 20.9724 10.9498 20.9724 10.9498 20.9724C10.9498 20.9724 10.9498 20.9724 10.9498 20.9724C10.9498 20.9724 10.9498 20.9724 10.9498 20.9724C10.9498 20.9724 10.9498 20.9724 10.9498 20.9724C10.9498 20.9724 10.9498 20.9725 10.9498 20.9725C10.9498 20.9725 10.9498 20.9725 10.9498 20.9725C10.9498 20.9725 10.9498 20.9725 10.9498 20.9725C10.9498 20.9725 10.9498 20.9725 10.9498 20.9725C10.9498 20.9725 10.9498 20.9726 10.9498 20.9726C10.9498 20.9726 10.9498 20.9726 10.9498 20.9726C10.9498 20.9726 10.9498 20.9726 10.9498 20.9726C10.9498 20.9726 10.9498 20.9726 10.9498 20.9726C10.9498 20.9726 10.9498 20.9727 10.9498 20.9727C10.9498 20.9727 10.9498 20.9727 10.9498 20.9727C10.9498 20.9727 10.9498 20.9727 10.9498 20.9727C10.9498 20.9727 10.9498 20.9727 10.9498 20.9727C10.9498 20.9727 10.9498 20.9728 10.9498 20.9728C10.9498 20.9728 10.9498 20.9728 10.9498 20.9728C10.9498 20.9728 10.9498 20.9728 10.9498 20.9728C10.9498 20.9728 10.9498 20.9728 10.9498 20.9728C10.9498 20.9729 10.9498 20.9729 10.9498 20.9729C10.9498 20.9729 10.9498 20.9729 10.9498 20.9729C10.9498 20.9729 10.9498 20.9729 10.9498 20.9729C10.9498 20.9729 10.9498 20.9729 10.9498 20.9729C10.9498 20.973 10.9498 20.973 10.9498 20.973C10.9498 20.973 10.9498 20.973 10.9498 20.973C10.9498 20.973 10.9498 20.973 10.9498 20.973C10.9498 20.973 10.9498 20.973 10.9498 20.973C10.9498 20.9731 10.9498 20.9731 10.9498 20.9731C10.9498 20.9731 10.9498 20.9731 10.9498 20.9731C10.9498 20.9731 10.9498 20.9731 10.9498 20.9731C10.9498 20.9731 10.9498 20.9731 10.9498 20.9732C10.9498 20.9732 10.9498 20.9732 10.9498 20.9732C10.9498 20.9732 10.9498 20.9732 10.9498 20.9732C10.9498 20.9732 10.9498 20.9732 10.9498 20.9732C10.9498 20.9732 10.9498 20.9732 10.9498 20.9733C10.9498 20.9733 10.9498 20.9733 10.9498 20.9733C10.9498 20.9733 10.9498 20.9733 10.9498 20.9733C10.9498 20.9733 10.9498 20.9733 10.9498 20.9733C10.9498 20.9733 10.9498 20.9734 10.9498 20.9734C10.9498 20.9734 10.9498 20.9734 10.9498 20.9734C10.9498 20.9734 10.9498 20.9734 10.9498 20.9734C10.9498 20.9734 10.9498 20.9734 10.9498 20.9734C10.9498 20.9734 10.9498 20.9735 10.9498 20.9735C10.9498 20.9735 10.9498 20.9735 10.9498 20.9735C10.9498 20.9735 10.9498 20.9735 10.9498 20.9735C10.9498 20.9735 10.9498 20.9735 10.9498 20.9735C10.9498 20.9736 10.9498 20.9736 10.9498 20.9736C10.9498 20.9736 10.9498 20.9736 10.9498 20.9736C10.9498 20.9736 10.9498 20.9736 10.9498 20.9736C10.9498 20.9736 10.9498 20.9736 10.9498 20.9736C10.9498 20.9737 10.9498 20.9737 10.9498 20.9737C10.9498 20.9737 10.9498 20.9737 10.9498 20.9737C10.9498 20.9737 10.9498 20.9737 10.9498 20.9737C10.9498 20.9737 10.9498 20.9737 10.9498 20.9738C10.9498 20.9738 10.9498 20.9738 10.9498 20.9738C10.9498 20.9738 10.9498 20.9738 10.9498 20.9738C10.9498 20.9738 10.9498 20.9738 10.9498 20.9738C10.9498 20.9738 10.9498 20.9738 10.9498 20.9739C10.9498 20.9739 10.9498 20.9739 10.9498 20.9739C10.9498 20.9739 10.9498 20.9739 10.9498 20.9739C10.9498 20.9739 10.9498 20.9739 10.9498 20.9739C10.9498 20.9739 10.9498 20.9739 10.9498 20.974C10.9498 20.974 10.9498 20.974 10.9498 20.974C10.9498 20.974 10.9498 20.974 10.9498 20.974C10.9498 20.974 10.9498 20.974 10.9498 20.974C10.9498 20.974 10.9498 20.9741 10.9498 20.9741C10.9498 20.9741 10.9498 20.9741 10.9498 20.9741C10.9498 20.9741 10.9498 20.9741 10.9498 20.9741C10.9498 20.9741 10.9498 20.9741 10.9498 20.9741C10.9498 20.9741 10.9498 20.9742 10.9498 20.9742C10.9498 20.9742 10.9498 20.9742 10.9498 20.9742C10.9498 20.9742 10.9498 20.9742 10.9498 20.9742C10.9498 20.9742 10.9498 20.9742 10.9498 20.9742C10.9498 20.9742 10.9498 20.9743 10.9498 20.9743C10.9498 20.9743 10.9498 20.9743 10.9498 20.9743C10.9498 20.9743 10.9498 20.9743 10.9498 20.9743C10.9498 20.9743 10.9498 20.9743 10.9498 20.9743C10.9498 20.9743 10.9498 20.9743 10.9498 20.9744C10.9498 20.9744 10.9498 20.9744 10.9498 20.9744C10.9498 20.9744 10.9498 20.9744 10.9498 20.9744C10.9498 20.9744 10.9498 20.9744 10.9498 20.9744C10.9498 20.9744 10.9498 20.9744 10.9498 20.9745C10.9498 20.9745 10.9498 20.9745 10.9498 20.9745C10.9498 20.9745 10.9498 20.9745 10.9498 20.9745C10.9498 20.9745 10.9498 20.9745 10.9498 20.9745C10.9498 20.9745 10.9498 20.9745 10.9498 20.9745C10.9498 20.9746 10.9498 20.9746 10.9498 20.9746C10.9498 20.9746 10.9498 20.9746 10.9498 20.9746C10.9498 20.9746 10.9498 20.9746 10.9498 20.9746C10.9498 20.9746 10.9498 20.9746 10.9498 20.9746C10.9498 20.9746 10.9498 20.9747 10.9498 20.9747C10.9498 20.9747 10.9498 20.9747 10.9498 20.9747C10.9498 20.9747 10.9498 20.9747 10.9498 20.9747C10.9498 20.9747 10.9498 20.9747 10.9498 20.9747C10.9498 20.9747 10.9498 20.9747 10.9498 20.9748C10.9498 20.9748 10.9498 20.9748 10.9498 20.9748C10.9498 20.9748 10.9498 20.9748 10.9498 20.9748C10.9498 20.9748 10.9498 20.9748 10.9498 20.9748C10.9498 20.9748 10.9498 20.9748 10.9498 20.9748C10.9498 20.9748 10.9498 20.9749 10.9498 20.9749C10.9498 20.9749 10.9498 20.9749 10.9498 20.9749C10.9498 20.9749 10.9498 20.9749 10.9498 20.9749C10.9498 20.9749 10.9498 20.9749 10.9498 20.9749C10.9498 20.9749 10.9498 20.9749 10.9498 20.9749C10.9498 20.975 10.9498 20.975 10.9498 20.975C10.9498 20.975 10.9498 20.975 10.9498 20.975C10.9498 20.975 10.9498 20.975 10.9498 20.975C10.9498 20.975 10.9498 20.975 10.9498 20.975C10.9498 20.975 10.9498 20.975 10.9498 20.9751C10.9498 20.9751 10.9498 20.9751 10.9498 20.9751C10.9498 20.9751 10.9498 20.9751 10.9498 20.9751C10.9498 20.9751 10.9498 20.9751 10.9498 20.9751C10.9498 20.9751 10.9498 20.9751 10.9498 20.9751C10.9498 20.9751 10.9498 20.9751 10.9498 20.9752C10.9498 20.9752 10.9498 20.9752 10.9498 20.9752C10.9498 20.9752 10.9498 20.9752 10.9498 20.9752C10.9498 20.9752 10.9498 20.9752 10.9498 20.9752C10.9498 20.9752 10.9498 20.9752 10.9498 20.9752C10.9498 20.9752 10.9498 20.9752 10.9498 20.9752C10.9498 20.9753 10.9498 20.9753 10.9498 20.9753C10.9498 20.9753 10.9498 20.9753 10.9498 20.9753C10.9498 20.9753 10.9498 20.9753 10.9498 20.9753C10.9498 20.9753 10.9498 20.9753 10.9498 20.9753C10.9498 20.9753 10.9498 20.9753 10.9498 20.9753C10.9498 20.9753 10.9498 20.9753 10.9498 20.9754C10.9498 20.9754 10.9498 20.9754 10.9498 20.9754C10.9498 20.9754 10.9498 20.9754 10.9498 20.9754C10.9498 20.9754 10.9498 20.9754 10.9498 20.9754C10.9498 20.9754 10.9498 20.9754 10.9498 20.9754C10.9498 20.9754 10.9498 20.9754 10.9498 20.9754C10.9498 20.9754 10.9498 20.9754 10.9498 20.9755C10.9498 20.9755 10.9498 20.9755 10.9498 20.9755C10.9498 20.9755 10.9498 20.9755 10.9498 20.9755C10.9498 20.9755 10.9498 20.9755 10.9498 20.9755C10.9498 20.9755 10.9498 20.9755 10.9498 20.9755C10.9498 20.9755 10.9498 20.9755 10.9498 20.9755C10.9498 20.9755 10.9498 20.9755 10.9498 20.9755C10.9498 20.9756 10.9498 20.9756 10.9498 20.9756C10.9498 20.9756 10.9498 20.9756 10.9498 20.9756C10.9498 20.9756 10.9498 20.9756 10.9498 20.9756C10.9498 20.9756 10.9498 20.9756 10.9498 20.9756C10.9498 20.9756 10.9498 20.9756 10.9498 20.9756C10.9498 20.9756 10.9498 20.9756 10.9498 20.9756C10.9498 20.9756 10.9498 20.9756 10.9498 20.9756C10.9498 20.9756 10.9498 20.9757 10.9498 20.9757C10.9498 20.9757 10.9498 20.9757 10.9498 20.9757C10.9498 20.9757 10.9498 20.9757 10.9498 20.9757C10.9498 20.9757 10.9498 20.9757 10.9498 20.9757C10.9498 20.9757 10.9498 20.9757 10.9498 20.9757C10.9498 20.9757 10.9498 20.9757 10.9498 20.9757C10.9498 20.9757 10.9498 20.9757 10.9498 20.9757C10.9498 20.9757 10.9498 20.9757 10.9498 20.9757C10.9498 20.9757 10.9498 20.9757 10.9498 20.9757C10.9498 20.9758 10.9498 20.9758 10.9498 20.9758C10.9498 20.9758 10.9498 20.9758 10.9498 20.9758C10.9498 20.9758 10.9498 20.9758 10.9498 20.9758C10.9498 20.9758 10.9498 20.9758 10.9498 20.9758C10.9498 20.9758 10.9498 20.9758 10.9498 20.9758C10.9498 20.9758 10.9498 20.9758 10.9498 20.9758C10.9498 20.9758 10.9498 20.9758 10.9498 20.9758C10.9498 20.9758 10.9498 20.9758 10.9498 20.9758C10.9498 20.9758 10.9498 20.9758 10.9498 20.9758C10.9498 20.9758 10.9498 20.9758 10.9498 20.9758C10.9498 20.9758 10.9498 20.9758 10.9498 20.9758C10.9498 20.9759 10.9498 20.9759 10.9498 20.9759C10.9498 20.9759 10.9498 20.9759 10.9498 20.9759C10.9498 20.9759 10.9498 20.9759 10.9498 20.9759C10.9498 20.9759 10.9498 20.9759 10.9498 20.9759C10.9498 20.9759 10.9498 20.9759 10.9498 20.9759C10.9498 20.9759 10.9498 20.9759 10.9498 20.9759C10.9498 20.9759 10.9498 20.9759 10.9498 20.9759C10.9498 20.9759 10.9498 20.9759 10.9498 20.9759C10.9498 20.9759 10.9498 20.9759 10.9498 20.9759C10.9498 20.9759 10.9498 20.9759 10.9498 20.9759C10.9498 20.9759 10.9498 20.9759 10.9498 20.9759C10.9498 20.9759 10.9498 20.9759 10.9498 20.9759C10.9498 20.9759 10.9498 20.9759 10.9498 20.9759C10.9498 20.9759 10.9498 20.9759 10.9498 20.9759C10.9498 20.9759 10.9498 20.9759 10.9498 20.9759C10.9498 20.9759 10.9498 20.9759 10.9498 20.9759C10.9498 20.9759 10.9498 20.9759 10.9498 20.9759C10.9498 20.9759 10.9498 20.9759 10.9498 20.9759C10.9498 20.9759 10.9498 20.9759 10.9498 20.9759C10.9498 20.9759 10.9498 20.9759 10.9498 20.9759C10.9498 20.9759 10.9498 20.9759 10.9498 20.9759C10.9498 20.9759 10.9498 20.9759 10.9498 20.9759C10.9498 20.9759 12.9498 20.9759 14.9498 20.9759C14.9498 20.9759 14.9498 20.9759 14.9498 20.9759C14.9498 20.9759 14.9498 20.9759 14.9498 20.9759C14.9498 20.9759 14.9498 20.9759 14.9498 20.9759C14.9498 20.9759 14.9498 20.9759 14.9498 20.9759C14.9498 20.9759 14.9498 20.9759 14.9498 20.9759C14.9498 20.9759 14.9498 20.9759 14.9498 20.9759C14.9498 20.9759 14.9498 20.9759 14.9498 20.9759C14.9498 20.9759 14.9498 20.9759 14.9498 20.9759C14.9498 20.9759 14.9498 20.9759 14.9498 20.9759C14.9498 20.9759 14.9498 20.9759 14.9498 20.9759C14.9498 20.9759 14.9498 20.9759 14.9498 20.9759C14.9498 20.9759 14.9498 20.9759 14.9498 20.9759C14.9498 20.9759 14.9498 20.9759 14.9498 20.9759C14.9498 20.9759 14.9498 20.9759 14.9498 20.9759C14.9498 20.9759 14.9498 20.9759 14.9498 20.9759C14.9498 20.9759 14.9498 20.9759 14.9498 20.9759C14.9498 20.9759 14.9498 20.9759 14.9498 20.9759C14.9498 20.9759 14.9498 20.9759 14.9498 20.9759C14.9498 20.9759 14.9498 20.9759 14.9498 20.9759C14.9498 20.9759 14.9498 20.9759 14.9498 20.9759C14.9498 20.9759 14.9498 20.9759 14.9498 20.9759C14.9498 20.9758 14.9498 20.9758 14.9498 20.9758C14.9498 20.9758 14.9498 20.9758 14.9498 20.9758C14.9498 20.9758 14.9498 20.9758 14.9498 20.9758C14.9498 20.9758 14.9498 20.9758 14.9498 20.9758C14.9498 20.9758 14.9498 20.9758 14.9498 20.9758C14.9498 20.9758 14.9498 20.9758 14.9498 20.9758C14.9498 20.9758 14.9498 20.9758 14.9498 20.9758C14.9498 20.9758 14.9498 20.9758 14.9498 20.9758C14.9498 20.9758 14.9498 20.9758 14.9498 20.9758C14.9498 20.9758 14.9498 20.9758 14.9498 20.9758C14.9498 20.9757 14.9498 20.9757 14.9498 20.9757C14.9498 20.9757 14.9498 20.9757 14.9498 20.9757C14.9498 20.9757 14.9498 20.9757 14.9498 20.9757C14.9498 20.9757 14.9498 20.9757 14.9498 20.9757C14.9498 20.9757 14.9498 20.9757 14.9498 20.9757C14.9498 20.9757 14.9498 20.9757 14.9498 20.9757C14.9498 20.9757 14.9498 20.9757 14.9498 20.9757C14.9498 20.9756 14.9498 20.9756 14.9498 20.9756C14.9498 20.9756 14.9498 20.9756 14.9498 20.9756C14.9498 20.9756 14.9498 20.9756 14.9498 20.9756C14.9498 20.9756 14.9498 20.9756 14.9498 20.9756C14.9498 20.9756 14.9498 20.9756 14.9498 20.9756C14.9498 20.9756 14.9498 20.9756 14.9498 20.9756C14.9498 20.9755 14.9498 20.9755 14.9498 20.9755C14.9498 20.9755 14.9498 20.9755 14.9498 20.9755C14.9498 20.9755 14.9498 20.9755 14.9498 20.9755C14.9498 20.9755 14.9498 20.9755 14.9498 20.9755C14.9498 20.9755 14.9498 20.9755 14.9498 20.9755C14.9498 20.9755 14.9498 20.9754 14.9498 20.9754C14.9498 20.9754 14.9498 20.9754 14.9498 20.9754C14.9498 20.9754 14.9498 20.9754 14.9498 20.9754C14.9498 20.9754 14.9498 20.9754 14.9498 20.9754C14.9498 20.9754 14.9498 20.9754 14.9498 20.9754C14.9498 20.9753 14.9498 20.9753 14.9498 20.9753C14.9498 20.9753 14.9498 20.9753 14.9498 20.9753C14.9498 20.9753 14.9498 20.9753 14.9498 20.9753C14.9498 20.9753 14.9498 20.9753 14.9498 20.9753C14.9498 20.9752 14.9498 20.9752 14.9498 20.9752C14.9498 20.9752 14.9498 20.9752 14.9498 20.9752C14.9498 20.9752 14.9498 20.9752 14.9498 20.9752C14.9498 20.9752 14.9498 20.9752 14.9498 20.9752C14.9498 20.9751 14.9498 20.9751 14.9498 20.9751C14.9498 20.9751 14.9498 20.9751 14.9498 20.9751C14.9498 20.9751 14.9498 20.9751 14.9498 20.9751C14.9498 20.9751 14.9498 20.9751 14.9498 20.975C14.9498 20.975 14.9498 20.975 14.9498 20.975C14.9498 20.975 14.9498 20.975 14.9498 20.975C14.9498 20.975 14.9498 20.975 14.9498 20.975C14.9498 20.9749 14.9498 20.9749 14.9498 20.9749C14.9498 20.9749 14.9498 20.9749 14.9498 20.9749C14.9498 20.9749 14.9498 20.9749 14.9498 20.9749C14.9498 20.9749 14.9498 20.9748 14.9498 20.9748C14.9498 20.9748 14.9498 20.9748 14.9498 20.9748C14.9498 20.9748 14.9498 20.9748 14.9498 20.9748C14.9498 20.9748 14.9498 20.9747 14.9498 20.9747C14.9498 20.9747 14.9498 20.9747 14.9498 20.9747C14.9498 20.9747 14.9498 20.9747 14.9498 20.9747C14.9498 20.9747 14.9498 20.9746 14.9498 20.9746C14.9498 20.9746 14.9498 20.9746 14.9498 20.9746C14.9498 20.9746 14.9498 20.9746 14.9498 20.9746C14.9498 20.9745 14.9498 20.9745 14.9498 20.9745C14.9498 20.9745 14.9498 20.9745 14.9498 20.9745C14.9498 20.9745 14.9498 20.9745 14.9498 20.9744C14.9498 20.9744 14.9498 20.9744 14.9498 20.9744C14.9498 20.9744 14.9498 20.9744 14.9498 20.9744C14.9498 20.9744 14.9498 20.9743 14.9498 20.9743C14.9498 20.9743 14.9498 20.9743 14.9498 20.9743C14.9498 20.9743 14.9498 20.9743 14.9498 20.9742C14.9498 20.9742 14.9498 20.9742 14.9498 20.9742C14.9498 20.9742 14.9498 20.9742 14.9498 20.9742C14.9498 20.9741 14.9498 20.9741 14.9498 20.9741C14.9498 20.9741 14.9498 20.9741 14.9498 20.9741C14.9498 20.9741 14.9498 20.974 14.9498 20.974C14.9498 20.974 14.9498 20.974 14.9498 20.974C14.9498 20.974 14.9498 20.974 14.9498 20.9739C14.9498 20.9739 14.9498 20.9739 14.9498 20.9739C14.9498 20.9739 14.9498 20.9739 14.9498 20.9739C14.9498 20.9738 14.9498 20.9738 14.9498 20.9738C14.9498 20.9738 14.9498 20.9738 14.9498 20.9738C14.9498 20.9737 14.9498 20.9737 14.9498 20.9737C14.9498 20.9737 14.9498 20.9737 14.9498 20.9737C14.9498 20.9736 14.9498 20.9736 14.9498 20.9736C14.9498 20.9736 14.9498 20.9736 14.9498 20.9736C14.9498 20.9735 14.9498 20.9735 14.9498 20.9735C14.9498 20.9735 14.9498 20.9735 14.9498 20.9735C14.9498 20.9734 14.9498 20.9734 14.9498 20.9734C14.9498 20.9734 14.9498 20.9734 14.9498 20.9734H12.9498ZM12.9498 20.9734L12.9509 22.9734C13.4807 22.9731 14.0843 22.9798 14.7034 22.9867C15.3164 22.9935 15.9449 23.0005 16.5027 23.0002L16.5016 21.0002L16.5005 19.0002C15.9707 19.0005 15.3671 18.9938 14.748 18.9869C14.135 18.9801 13.5065 18.9731 12.9487 18.9734L12.9498 20.9734Z" fill="white" mask="url(#path-2-inside-1_11575_71715)"/>
</svg>
