<svg width="20" height="20" viewBox="0 0 20 20" fill="none" xmlns="http://www.w3.org/2000/svg">
<g clip-path="url(#clip0_726_17504)">
<path d="M0.833354 20C0.701412 19.9999 0.571384 19.9684 0.45395 19.9083C0.336516 19.8482 0.235027 19.761 0.15782 19.654C0.0806125 19.547 0.0298894 19.4232 0.00981699 19.2928C-0.0102554 19.1624 0.000895611 19.0291 0.0423541 18.9038L0.95502 16.1564C0.326021 15.0406 -0.003013 13.7809 2.07908e-05 12.5C0.00500217 10.6885 0.663284 8.93963 1.854 7.57445C3.04471 6.20927 4.68793 5.31944 6.48193 5.06834C6.70101 5.03851 6.92297 5.09692 7.09898 5.23074C7.27499 5.36455 7.39064 5.5628 7.42048 5.78188C7.45031 6.00096 7.3919 6.22292 7.25808 6.39893C7.12427 6.57495 6.92601 6.69059 6.70693 6.72043C5.3118 6.91569 4.03394 7.60773 3.10804 8.66945C2.18214 9.73117 1.67036 11.0913 1.66669 12.5C1.66319 13.6002 1.97603 14.6781 2.56794 15.6055C2.63508 15.7101 2.67796 15.8284 2.69345 15.9518C2.70894 16.0751 2.69663 16.2004 2.65744 16.3183L2.10244 17.9891L4.04169 17.5033C4.24992 17.4512 4.47023 17.4812 4.65694 17.5871C5.52392 18.0781 6.50366 18.3352 7.50002 18.3333C8.85554 18.3325 10.1686 17.8601 11.2139 16.9972C12.2592 16.1342 12.9717 14.9344 13.2292 13.6035C13.248 13.4944 13.2885 13.3901 13.3481 13.2968C13.4077 13.2035 13.4853 13.123 13.5764 13.0601C13.6675 12.9971 13.7702 12.9529 13.8785 12.9301C13.9869 12.9072 14.0987 12.9062 14.2074 12.9271C14.3162 12.948 14.4197 12.9903 14.5119 13.0517C14.6041 13.113 14.6831 13.1921 14.7444 13.2843C14.8057 13.3765 14.848 13.48 14.8688 13.5888C14.8896 13.6975 14.8886 13.8093 14.8657 13.9177C14.6474 15.0562 14.1679 16.1285 13.465 17.0503C12.7621 17.9721 11.8549 18.7183 10.8148 19.2301C9.77466 19.7419 8.62998 20.0054 7.47076 19.9999C6.31155 19.9944 5.16941 19.7201 4.13419 19.1984L1.03602 19.975C0.96977 19.9918 0.901687 20.0002 0.833354 20ZM8.53835 14.1349C8.65678 13.9599 8.8053 13.8073 8.97702 13.6841C9.3218 13.4316 9.59611 13.095 9.77376 12.7063C9.95141 12.3177 10.0265 11.8899 9.99176 11.464C9.95705 11.0381 9.81375 10.6282 9.57552 10.2734C9.3373 9.91862 9.01211 9.63083 8.631 9.4375C8.24989 9.24418 7.82559 9.15177 7.3986 9.16911C6.97162 9.18644 6.5562 9.31294 6.19202 9.53652C5.82784 9.76011 5.52705 10.0733 5.31837 10.4462C5.10969 10.8192 5.00008 11.2393 5.00002 11.6667C5.00002 11.8877 5.08782 12.0997 5.2441 12.2559C5.40038 12.4122 5.61234 12.5 5.83335 12.5C6.05437 12.5 6.26633 12.4122 6.42261 12.2559C6.57889 12.0997 6.66669 11.8877 6.66669 11.6667C6.66665 11.5242 6.70317 11.384 6.77275 11.2596C6.84233 11.1352 6.94265 11.0308 7.06412 10.9562C7.18559 10.8817 7.32415 10.8395 7.46655 10.8338C7.60896 10.8281 7.75045 10.859 7.87751 10.9235C8.00457 10.9881 8.11295 11.0842 8.19229 11.2026C8.27163 11.321 8.31928 11.4577 8.33068 11.5998C8.34208 11.7419 8.31686 11.8845 8.25742 12.014C8.19799 12.1435 8.10632 12.2557 7.99118 12.3397C7.66051 12.5795 7.37493 12.8759 7.14769 13.2153C7.02574 13.3998 6.98205 13.6251 7.02623 13.8417C7.07041 14.0584 7.19884 14.2486 7.38327 14.3705C7.56769 14.4925 7.79301 14.5361 8.00964 14.492C8.22628 14.4478 8.41649 14.3194 8.53843 14.1349H8.53835ZM7.50002 15C7.3352 15 7.17408 15.0489 7.03704 15.1405C6.9 15.232 6.79319 15.3622 6.73012 15.5144C6.66705 15.6667 6.65054 15.8343 6.6827 15.9959C6.71485 16.1576 6.79422 16.3061 6.91076 16.4226C7.02731 16.5391 7.17579 16.6185 7.33744 16.6507C7.49909 16.6828 7.66665 16.6663 7.81892 16.6032C7.97119 16.5402 8.10134 16.4334 8.19291 16.2963C8.28448 16.1593 8.33335 15.9982 8.33335 15.8333C8.33335 15.6123 8.24555 15.4004 8.08927 15.2441C7.93299 15.0878 7.72103 15 7.50002 15ZM19.1667 11.6667C19.0984 11.6668 19.0303 11.6584 18.9641 11.6417L16.7152 11.0785C15.4643 11.6867 14.0373 11.8283 12.6912 11.4777C11.3452 11.127 10.1686 10.3073 9.37341 9.1661C8.57819 8.02489 8.21661 6.63723 8.35381 5.25307C8.491 3.8689 9.11795 2.57922 10.1217 1.61633C11.1255 0.653429 12.4401 0.0806108 13.8288 0.00104841C15.2174 -0.078514 16.5889 0.34041 17.6961 1.18236C18.8032 2.02431 19.5734 3.23395 19.8678 4.59338C20.1622 5.95282 19.9614 7.3727 19.3018 8.59726L19.9577 10.5708C19.9993 10.696 20.0105 10.8293 19.9905 10.9598C19.9705 11.0902 19.9197 11.214 19.8425 11.3211C19.7653 11.4281 19.6637 11.5152 19.5462 11.5753C19.4287 11.6354 19.2987 11.6667 19.1667 11.6667ZM14.1667 1.66667C13.0616 1.66667 12.0018 2.10566 11.2204 2.88706C10.439 3.66847 10 4.72827 10 5.83334C10 6.93841 10.439 7.99822 11.2204 8.77962C12.0018 9.56102 13.0616 10 14.1667 10C14.878 10.0012 15.5775 9.81782 16.1967 9.46776C16.3827 9.36081 16.6032 9.33073 16.8111 9.38393L17.8975 9.65576L17.6004 8.76301C17.5612 8.64501 17.5489 8.51973 17.5644 8.39636C17.5799 8.27298 17.6228 8.15464 17.69 8.05001C18.1125 7.38806 18.3358 6.61862 18.3333 5.83334C18.3321 4.72867 17.8927 3.6696 17.1115 2.88848C16.3304 2.10735 15.2714 1.66795 14.1667 1.66667ZM14.3392 7.55451L16.0058 5.88784C16.1582 5.73077 16.2427 5.52008 16.241 5.30127C16.2393 5.08246 16.1516 4.87308 15.9969 4.71836C15.8422 4.56364 15.6328 4.47598 15.414 4.47433C15.1952 4.47267 14.9845 4.55715 14.8274 4.70951L13.75 5.78693L13.5058 5.54284C13.3488 5.39048 13.1381 5.30601 12.9193 5.30766C12.7005 5.30932 12.4911 5.39697 12.3364 5.5517C12.1816 5.70642 12.094 5.91579 12.0923 6.13461C12.0906 6.35342 12.1751 6.56411 12.3274 6.72118L13.1608 7.55451C13.317 7.71076 13.529 7.79854 13.75 7.79854C13.971 7.79854 14.1829 7.71076 14.3392 7.55451Z" fill="#3A4055"/>
</g>
<defs>
<clipPath id="clip0_726_17504">
<rect width="20" height="20" fill="white"/>
</clipPath>
</defs>
</svg>