<svg width="45" height="45" viewBox="0 0 45 45" fill="none" xmlns="http://www.w3.org/2000/svg">
<path d="M12.2727 22.4997C12.2727 21.37 11.3569 20.4542 10.2273 20.4542H2.04545C0.915817 20.4542 0 21.37 0 22.4997C0 23.6293 0.915817 24.5451 2.04545 24.5451H10.2273C11.3569 24.5451 12.2727 23.6293 12.2727 22.4997Z" fill="#FFFFFF"/>
<path d="M40.9093 20.4542H36.8184C35.6888 20.4542 34.7729 21.37 34.7729 22.4997C34.7729 23.6293 35.6888 24.5451 36.8184 24.5451H40.9093C42.0389 24.5451 42.9548 23.6293 42.9548 22.4997C42.9548 21.37 42.0389 20.4542 40.9093 20.4542Z" fill="#FFFFFF"/>
<path d="M22.5 12.2727C23.6297 12.2727 24.5455 11.3569 24.5455 10.2272V2.04545C24.5455 0.915816 23.6297 0 22.5 0C21.3704 0 20.4546 0.915816 20.4546 2.04545V10.2272C20.4546 11.3569 21.3704 12.2727 22.5 12.2727Z" fill="#FFFFFF"/>
<path d="M22.5 32.7273C21.3704 32.7273 20.4546 33.6431 20.4546 34.7727V42.9546C20.4546 44.0842 21.3704 45 22.5 45C23.6297 45 24.5455 44.0842 24.5455 42.9546V34.7727C24.5455 33.6431 23.6297 32.7273 22.5 32.7273Z" fill="#FFFFFF"/>
<path d="M9.48252 6.58978C8.68398 5.79097 7.38879 5.7911 6.58984 6.58978C5.79102 7.3886 5.79102 8.68365 6.58984 9.48246L12.3753 15.2681C12.7748 15.6675 13.2983 15.8673 13.8216 15.8673C14.345 15.8673 14.8686 15.6675 15.2679 15.2682C16.0667 14.4694 16.0667 13.1744 15.2679 12.3755L9.48252 6.58978Z" fill="#FFFFFF"/>
<path d="M32.6246 29.7321C31.8259 28.9334 30.5307 28.9334 29.7319 29.7321C28.9331 30.5309 28.9332 31.8259 29.7319 32.6248L35.5175 38.4101C35.9169 38.8095 36.4404 39.0092 36.9639 39.0092C37.4874 39.0092 38.0109 38.8094 38.4102 38.4101C39.209 37.6113 39.209 36.3163 38.4102 35.5174L32.6246 29.7321Z" fill="#FFFFFF"/>
<path d="M12.3757 29.7318L6.59032 35.5172C5.79151 36.316 5.79151 37.611 6.59032 38.4098C6.98973 38.8092 7.51323 39.0089 8.03673 39.0089C8.56023 39.0089 9.08372 38.8092 9.483 38.4098L15.2683 32.6245C16.0672 31.8257 16.0672 30.5306 15.2683 29.7318C14.4695 28.933 13.1743 28.933 12.3757 29.7318Z" fill="#FFFFFF"/>
</svg>
