<svg width="24" height="24" viewBox="0 0 24 24" fill="none" xmlns="http://www.w3.org/2000/svg">
<path d="M20.9926 9.8537L20.9929 9.85476C21.0123 9.91695 20.9892 9.97332 20.9618 9.99834L20.961 9.99907L16.5977 13.9914L16.1733 14.3797L16.2956 14.9417L17.5821 20.8554C17.5966 20.9223 17.567 20.9726 17.5428 20.991L17.5427 20.991C17.5368 20.9955 17.5324 20.9975 17.5298 20.9984C17.5271 20.9994 17.525 20.9997 17.5236 20.9998C17.5221 20.9998 17.5206 20.9997 17.5189 20.9993C17.5173 20.9988 17.5141 20.9978 17.5093 20.9948L17.5069 20.9933L12.5294 17.8879L12.0002 17.5577L11.4709 17.8878L6.49153 20.9932L6.49108 20.9935C6.48444 20.9976 6.48025 20.9991 6.47867 20.9995C6.47706 21 6.47628 21 6.47581 21C6.47492 21 6.47349 20.9999 6.47105 20.9991C6.46872 20.9983 6.46336 20.9961 6.45543 20.9902C6.43283 20.9732 6.40235 20.9237 6.41722 20.855L7.70366 14.9417L7.82593 14.3797L7.40163 13.9915L3.03828 9.99833L3.03641 9.99663C3.0249 9.98615 3.0122 9.96824 3.00505 9.9411C2.99786 9.91381 2.99818 9.88374 3.00706 9.85527C3.01598 9.82664 3.02995 9.80982 3.04045 9.80106C3.05045 9.79271 3.0577 9.79094 3.0623 9.79046C3.06238 9.79045 3.06246 9.79044 3.06253 9.79044L8.83428 9.24365L9.43624 9.18663L9.66538 8.62707L11.9475 3.05414C11.9476 3.05401 11.9476 3.05388 11.9477 3.05375C11.9588 3.02691 11.9732 3.01303 11.9825 3.00664C11.9914 3.00051 11.9968 3 12.0001 3C12.0034 3 12.009 3.00053 12.0181 3.00679C12.0275 3.0133 12.0418 3.02715 12.0527 3.05337C12.0528 3.05356 12.0529 3.05375 12.053 3.05394L14.3348 8.62701L14.5639 9.18661L15.1659 9.24365L20.9384 9.7906L20.9391 9.79066C20.943 9.79103 20.9499 9.79246 20.96 9.80087C20.9705 9.80957 20.9841 9.82608 20.9926 9.8537Z" stroke="white" stroke-width="2"/>
</svg>
