<svg width="20" height="20" viewBox="0 0 20 20" fill="none" xmlns="http://www.w3.org/2000/svg">
<path d="M15.743 7.49999H12.603L13.0397 3.77916C13.1289 3.13262 12.9701 2.47627 12.5952 1.94203C12.2203 1.40779 11.657 1.03526 11.0187 0.899319C10.3803 0.763375 9.71419 0.874091 9.15413 1.20922C8.59408 1.54434 8.18163 2.07903 7.99968 2.70582L7.52385 4.38166C7.1619 5.64532 6.46747 6.78869 5.51301 7.69249C5.36909 7.57127 5.18782 7.5033 4.99968 7.49999H1.66634C1.44533 7.49999 1.23337 7.58779 1.07709 7.74407C0.920805 7.90035 0.833008 8.11231 0.833008 8.33333V18.3333C0.833008 18.5543 0.920805 18.7663 1.07709 18.9226C1.23337 19.0789 1.44533 19.1667 1.66634 19.1667H4.99968C5.22069 19.1667 5.43265 19.0789 5.58893 18.9226C5.74521 18.7663 5.83301 18.5543 5.83301 18.3333V18.2233L5.91634 18.2808C6.78287 18.8596 7.8018 19.1679 8.84385 19.1667H13.1138C13.5777 19.1682 14.0343 19.0509 14.44 18.826C14.8457 18.6011 15.187 18.2759 15.4314 17.8817L18.6455 12.7383C18.9695 12.2202 19.1489 11.6247 19.1651 11.0138C19.1812 10.4028 19.0335 9.79873 18.7373 9.26417C18.4411 8.7296 18.0072 8.28408 17.4807 7.97385C16.9541 7.66362 16.3542 7.50001 15.743 7.49999ZM4.16634 17.5H2.49968V9.16666H4.16634V17.5ZM17.2322 11.855L14.0172 17C13.9218 17.1535 13.7887 17.28 13.6306 17.3675C13.4725 17.455 13.2946 17.5006 13.1138 17.5H8.84385C8.1319 17.5005 7.43582 17.2897 6.84385 16.8942L5.83301 16.2208V9.58833C7.42251 8.4095 8.57983 6.74029 9.12635 4.83832L9.60551 3.16666C9.6598 2.97515 9.77495 2.80651 9.93356 2.68624C10.0922 2.56596 10.2856 2.50059 10.4847 2.49999C10.6158 2.49916 10.7455 2.52691 10.8648 2.58131C10.9841 2.63571 11.0902 2.71545 11.1755 2.81499C11.2637 2.91677 11.3284 3.03675 11.365 3.16638C11.4016 3.29601 11.4092 3.4321 11.3872 3.56499L10.8388 8.23666C10.8252 8.35344 10.8364 8.47179 10.8718 8.58392C10.9072 8.69605 10.9658 8.79944 11.044 8.88727C11.1221 8.97511 11.218 9.04542 11.3253 9.09357C11.4325 9.14172 11.5488 9.16663 11.6663 9.16666H15.743C16.0566 9.16667 16.3646 9.25066 16.6348 9.40988C16.905 9.5691 17.1276 9.79776 17.2796 10.0721C17.4316 10.3465 17.5073 10.6565 17.499 10.97C17.4906 11.2835 17.3985 11.5891 17.2322 11.855Z" fill="#525C7B"/>
</svg>
