<svg width="20" height="20" viewBox="0 0 20 20" fill="none" xmlns="http://www.w3.org/2000/svg">
<path fill-rule="evenodd" clip-rule="evenodd" d="M15 13.4C14.3667 13.4 13.8 13.65 13.3667 14.0417L7.425 10.5833C7.46667 10.3917 7.5 10.2 7.5 10C7.5 9.80001 7.46667 9.60834 7.425 9.41667L13.3 5.99167C13.75 6.40834 14.3417 6.66667 15 6.66667C16.3833 6.66667 17.5 5.55001 17.5 4.16667C17.5 2.78334 16.3833 1.66667 15 1.66667C13.6167 1.66667 12.5 2.78334 12.5 4.16667C12.5 4.36667 12.5333 4.55834 12.575 4.75001L6.7 8.17501C6.25 7.75834 5.65833 7.50001 5 7.50001C3.61667 7.50001 2.5 8.61667 2.5 10C2.5 11.3833 3.61667 12.5 5 12.5C5.65833 12.5 6.25 12.2417 6.7 11.825L12.6333 15.2917C12.5917 15.4667 12.5667 15.65 12.5667 15.8333C12.5667 17.175 13.6583 18.2667 15 18.2667C16.3417 18.2667 17.4333 17.175 17.4333 15.8333C17.4333 14.4917 16.3417 13.4 15 13.4Z" fill="#525C7B"/>
</svg>
