<svg xmlns="http://www.w3.org/2000/svg" width="24" height="24" fill="none" viewBox="0 0 24 24"><path fill="#fff" stroke="#fff" stroke-width="0.125" d="M16.6875 3.8125C18.212 3.81424 19.673 4.42107 20.751 5.49902C21.8289 6.57698 22.4358 8.03804 22.4375 9.5625C22.4375 12.8145 20.0245 15.7673 17.542 17.9414C15.0638 20.1117 12.5331 21.491 12.3262 21.6006V21.6016C12.2261 21.6554 12.1137 21.6836 12 21.6836C11.8863 21.6836 11.7739 21.6554 11.6738 21.6016V21.6006C11.4669 21.491 8.9362 20.1117 6.45801 17.9414C3.97546 15.7673 1.5625 12.8145 1.5625 9.5625L1.57031 9.27734C1.64234 7.85677 2.23847 6.50957 3.24902 5.49902C4.25957 4.48847 5.60677 3.89234 7.02734 3.82031L7.3125 3.8125C9.23017 3.8125 10.9063 4.63696 11.9502 6.02734L12 6.09375L12.0498 6.02734C13.0937 4.63696 14.7698 3.8125 16.6875 3.8125Z"/></svg>