<svg xmlns="http://www.w3.org/2000/svg" xmlns:xlink="http://www.w3.org/1999/xlink"><symbol fill="none" viewBox="0 0 24 24" id="arrow-clockwise" xmlns="http://www.w3.org/2000/svg"><path fill="currentColor" fill-rule="evenodd" d="M21.016 4.098a.75.75 0 0 1 .75.75v4.5a.75.75 0 0 1-.75.75h-4.5a.75.75 0 0 1 0-1.5h3.75v-3.75a.75.75 0 0 1 .75-.75Z" clip-rule="evenodd"/><path fill="currentColor" fill-rule="evenodd" d="M13.463 4.644a7.5 7.5 0 1 0 3.84 12.66.75.75 0 0 1 1.061 1.06 9.001 9.001 0 1 1 0-12.728l3.182 3.182a.75.75 0 0 1-1.06 1.06l-3.183-3.181a7.5 7.5 0 0 0-3.84-2.053Z" clip-rule="evenodd"/></symbol><symbol fill="none" viewBox="0 0 16 16" id="arrow-square-out" xmlns="http://www.w3.org/2000/svg"><path fill-rule="evenodd" clip-rule="evenodd" d="M9 2.5a.75.75 0 0 1 .75-.75h3.75a.75.75 0 0 1 .75.75v3.75a.75.75 0 1 1-1.5 0v-3h-3A.75.75 0 0 1 9 2.5Z" fill="currentColor"/><path fill-rule="evenodd" clip-rule="evenodd" d="M14.028 1.972a.75.75 0 0 1 0 1.06l-4.5 4.5a.75.75 0 0 1-1.06-1.06l4.5-4.5a.75.75 0 0 1 1.06 0Z" fill="currentColor"/><path fill-rule="evenodd" clip-rule="evenodd" d="M3.25 5.25H7a.75.75 0 0 0 0-1.5H3A1.25 1.25 0 0 0 1.75 5v8A1.25 1.25 0 0 0 3 14.25h8A1.25 1.25 0 0 0 12.25 13V9a.75.75 0 0 0-1.5 0v3.75h-7.5v-7.5Z" fill="currentColor"/></symbol><symbol fill="none" viewBox="0 0 34 34" id="az" xmlns="http://www.w3.org/2000/svg"><path fill="currentColor" d="m15.794 21.407-4.363-8.799c-.37-.745-1.582-.745-1.952 0l-4.364 8.8a1.108 1.108 0 0 0 .488 1.476 1.083 1.083 0 0 0 1.464-.492l.789-1.593h5.197l.79 1.592a1.095 1.095 0 0 0 .63.552 1.08 1.08 0 0 0 .833-.06c.539-.272.758-.932.488-1.476ZM8.947 18.6l1.507-3.04 1.508 3.04H8.947ZM27.909 23h-6.546a1.086 1.086 0 0 1-.974-.608 1.108 1.108 0 0 1 .102-1.152l5.236-7.04h-4.364c-.289 0-.566-.115-.77-.321a1.105 1.105 0 0 1 0-1.556c.204-.206.481-.322.77-.322h6.546a1.085 1.085 0 0 1 .975.609 1.108 1.108 0 0 1-.102 1.15l-5.237 7.04h4.364c.29 0 .567.116.771.322a1.104 1.104 0 0 1 0 1.556 1.086 1.086 0 0 1-.77.322Zm-8.727-4.4H17c-.29 0-.567-.115-.772-.322a1.105 1.105 0 0 1 0-1.555c.205-.207.482-.322.772-.322h2.182c.289 0 .567.116.771.322a1.104 1.104 0 0 1 0 1.555 1.086 1.086 0 0 1-.771.322Z"/></symbol><symbol fill="none" viewBox="0 0 16 16" id="bypass-list" xmlns="http://www.w3.org/2000/svg"><path fill-rule="evenodd" clip-rule="evenodd" d="M4 3.25c-.69 0-1.25.56-1.25 1.25v7c0 .69.56 1.25 1.25 1.25h1.5a.75.75 0 0 1 0 1.5H4a2.75 2.75 0 0 1-2.75-2.75v-7A2.75 2.75 0 0 1 4 1.75h6a2.75 2.75 0 0 1 2.75 2.75v5a.75.75 0 0 1-1.5 0v-5c0-.69-.56-1.25-1.25-1.25H4ZM14.73 10.803a.75.75 0 0 1 0 1.06l-2.666 2.667a.75.75 0 0 1-1.06 0L9.67 13.197a.75.75 0 0 1 1.06-1.06l.803.802 2.137-2.136a.75.75 0 0 1 1.06 0Z" fill="currentColor"/><path fill-rule="evenodd" clip-rule="evenodd" d="M4.117 5.333a.75.75 0 0 1 .75-.75h4.666a.75.75 0 0 1 0 1.5H4.867a.75.75 0 0 1-.75-.75ZM4.117 8a.75.75 0 0 1 .75-.75H8.2a.75.75 0 0 1 0 1.5H4.867a.75.75 0 0 1-.75-.75ZM4.117 10.67a.75.75 0 0 1 .75-.75h2.5a.75.75 0 0 1 0 1.5h-2.5a.75.75 0 0 1-.75-.75Z" fill="currentColor"/></symbol><symbol fill="none" viewBox="0 0 16 16" id="check" xmlns="http://www.w3.org/2000/svg"><path fill-rule="evenodd" clip-rule="evenodd" d="M13.864 4.136a.75.75 0 0 1 0 1.061l-6.667 6.667a.75.75 0 0 1-1.06 0L2.802 8.53a.75.75 0 1 1 1.06-1.06l2.804 2.803 6.136-6.137a.75.75 0 0 1 1.06 0Z" fill="currentColor"/></symbol><symbol fill="none" viewBox="0 0 24 24" id="chevron-down" xmlns="http://www.w3.org/2000/svg"><path fill="currentColor" d="M18.97 8.47a.75.75 0 1 1 1.06 1.06l-7.5 7.5a.75.75 0 0 1-1.06 0l-7.5-7.5a.75.75 0 1 1 1.06-1.06L12 15.44z"/></symbol><symbol fill="none" viewBox="0 0 24 24" id="chevron-left" xmlns="http://www.w3.org/2000/svg"><path d="M15.85 4.492a1.041 1.041 0 0 0-1.475 0L7.45 11.417a.83.83 0 0 0 0 1.175l6.925 6.925a1.041 1.041 0 0 0 1.475 0 1.041 1.041 0 0 0 0-1.475L9.817 12l6.042-6.042c.4-.4.4-1.066-.009-1.466Z" fill="currentColor"/></symbol><symbol fill="none" viewBox="0 0 24 24" id="chevron-right" xmlns="http://www.w3.org/2000/svg"><path fill="currentColor" d="M8.15 19.508a1.041 1.041 0 0 0 1.475 0l6.925-6.925a.83.83 0 0 0 0-1.175L9.625 4.483a1.041 1.041 0 0 0-1.475 0 1.041 1.041 0 0 0 0 1.475L14.183 12l-6.041 6.042c-.4.4-.4 1.066.008 1.466Z"/></symbol><symbol fill="none" viewBox="0 0 24 24" id="crown" xmlns="http://www.w3.org/2000/svg"><path d="M21.674 9.693a.585.585 0 0 1-.016.175l-1.295 5.18a.589.589 0 0 1-.568.447l-7.772.04H4.248a.589.589 0 0 1-.572-.447L2.381 9.887a.588.588 0 0 1-.015-.18 1.238 1.238 0 0 1 .37-2.416 1.238 1.238 0 0 1 .786 2.191l1.621 1.634c.41.413.979.65 1.56.65a2.21 2.21 0 0 0 1.758-.874l2.665-3.532A1.238 1.238 0 0 1 12 5.25c.682 0 1.236.555 1.236 1.236 0 .331-.13.631-.343.853l.002.003 2.646 3.541a2.209 2.209 0 0 0 1.761.883c.588 0 1.14-.229 1.555-.644L20.49 9.49a1.234 1.234 0 0 1 .775-2.199c.681 0 1.236.555 1.236 1.237 0 .537-.346.995-.826 1.165Zm-1.438 7.686a.589.589 0 0 0-.588-.589H4.418a.589.589 0 0 0-.589.589v1.413c0 .325.264.589.589.589h15.23a.589.589 0 0 0 .588-.589V17.38Z"/></symbol><symbol fill="none" viewBox="0 0 20 20" id="custom-proxy" xmlns="http://www.w3.org/2000/svg"><path fill-rule="evenodd" clip-rule="evenodd" d="M4.59 11.704a.952.952 0 0 1-.951-.95.952.952 0 0 1 1.902 0c0 .524-.427.95-.951.95Zm15.018 4.674a.392.392 0 1 1 0 .784H11.92V18.3a.392.392 0 0 1-.392.392H8.471a.392.392 0 0 1-.392-.392v-1.137H.392a.392.392 0 1 1 0-.784H8.08v-1.136c0-.216.175-.392.392-.392h1.137v-1.37h-5.79a1.845 1.845 0 0 1-1.843-1.842v-1.77c0-1.015.827-1.84 1.843-1.84h12.363c1.017 0 1.844.825 1.844 1.84v1.77a1.845 1.845 0 0 1-1.843 1.842h-5.79v1.37h1.137c.216 0 .392.176.392.392v1.136h7.687Zm-3.693-9.201H3.606c-.463 0-.898.12-1.276.329l1.753-5.203A1.515 1.515 0 0 1 5.53 1.286h8.466c.66 0 1.24.409 1.446 1.017l1.755 5.206a2.63 2.63 0 0 0-1.282-.332Z" fill="currentColor"/></symbol><symbol fill="none" viewBox="0 0 20 20" id="download-simple" xmlns="http://www.w3.org/2000/svg"><path fill="currentColor" d="M12.751 8.063a.75.75 0 1 1 1.06 1.061l-3.28 3.281a.75.75 0 0 1-1.061 0L6.188 9.124a.75.75 0 1 1 1.061-1.06L10 10.813z"/><path fill="currentColor" d="M9.25 11.875v-8.75a.75.75 0 0 1 1.5 0v8.75a.75.75 0 0 1-1.5 0"/><path fill="currentColor" d="M17.625 16.25a1.376 1.376 0 0 1-1.375 1.375H3.75a1.376 1.376 0 0 1-1.375-1.375v-4.375a.75.75 0 0 1 1.5 0v4.25h12.25v-4.25a.75.75 0 0 1 1.5 0z"/></symbol><symbol fill="none" viewBox="0 0 18 18" id="eye-hide" xmlns="http://www.w3.org/2000/svg"><g clip-path="url(#ala)" fill="currentColor" stroke="currentColor" stroke-width=".25" stroke-miterlimit="10"><path d="M15.463 6.632c-3.594-3.45-9.423-3.45-13.017 0L.06 8.97l2.447 2.368c1.782 1.725 4.168 2.602 6.523 2.602a9.452 9.452 0 0 0 6.524-2.602l2.386-2.31-2.477-2.397Zm-.362 4.298c-3.353 3.245-8.82 3.245-12.171 0L.906 8.97l1.963-1.9c3.352-3.245 8.819-3.245 12.171 0l2.024 1.96-1.963 1.9Z"/><path d="M8.97 5.199C6.795 5.199 5.044 6.895 5.044 9c0 2.105 1.751 3.801 3.926 3.801 2.174 0 3.926-1.696 3.926-3.801 0-2.105-1.752-3.801-3.926-3.801Zm0 7.017c-1.842 0-3.322-1.432-3.322-3.216 0-1.784 1.48-3.216 3.322-3.216S12.292 7.216 12.292 9c0 1.784-1.48 3.216-3.322 3.216Z"/></g><path stroke="currentColor" d="m1.354.646 15.508 15.508"/><defs><clipPath id="ala"><path fill="currentColor" transform="translate(0 4)" d="M0 0h18v10H0z"/></clipPath></defs></symbol><symbol fill="none" viewBox="0 0 18 18" id="eye-show" xmlns="http://www.w3.org/2000/svg"><g clip-path="url(#ama)" fill="currentColor" stroke="currentColor" stroke-width=".25" stroke-miterlimit="10"><path d="M15.463 6.632c-3.594-3.45-9.423-3.45-13.017 0L.06 8.97l2.447 2.368c1.782 1.725 4.168 2.602 6.523 2.602a9.452 9.452 0 0 0 6.524-2.602l2.386-2.31-2.477-2.397Zm-.362 4.298c-3.353 3.245-8.82 3.245-12.171 0L.906 8.97l1.963-1.9c3.352-3.245 8.819-3.245 12.171 0l2.024 1.96-1.963 1.9Z"/><path d="M8.97 5.199C6.795 5.199 5.044 6.895 5.044 9c0 2.105 1.751 3.801 3.926 3.801 2.174 0 3.926-1.696 3.926-3.801 0-2.105-1.752-3.801-3.926-3.801Zm0 7.017c-1.842 0-3.322-1.432-3.322-3.216 0-1.784 1.48-3.216 3.322-3.216S12.292 7.216 12.292 9c0 1.784-1.48 3.216-3.322 3.216Z"/></g><defs><clipPath id="ama"><path fill="currentColor" transform="translate(0 4)" d="M0 0h18v10H0z"/></clipPath></defs></symbol><symbol fill="none" viewBox="0 0 24 24" id="gear" xmlns="http://www.w3.org/2000/svg"><path fill-rule="evenodd" clip-rule="evenodd" d="M22.931 10.778c-.034-.31-.395-.542-.707-.542a2.445 2.445 0 0 1-2.278-1.507 2.451 2.451 0 0 1 .615-2.72.61.61 0 0 0 .067-.83 10.91 10.91 0 0 0-1.743-1.759.61.61 0 0 0-.835.068c-.656.726-1.834.996-2.744.616a2.443 2.443 0 0 1-1.486-2.388.61.61 0 0 0-.54-.643 10.971 10.971 0 0 0-2.475-.006.612.612 0 0 0-.544.63 2.447 2.447 0 0 1-1.506 2.346c-.9.367-2.069.1-2.723-.62a.613.613 0 0 0-.83-.07 10.931 10.931 0 0 0-1.78 1.76.611.611 0 0 0 .066.835 2.437 2.437 0 0 1 .614 2.745c-.38.904-1.318 1.487-2.393 1.487a.597.597 0 0 0-.635.54 11.018 11.018 0 0 0-.005 2.502c.034.31.406.54.72.54.959-.024 1.879.57 2.264 1.508.385.937.138 2.03-.615 2.72a.612.612 0 0 0-.067.829 10.93 10.93 0 0 0 1.74 1.76.612.612 0 0 0 .838-.066c.658-.727 1.836-.997 2.742-.617a2.44 2.44 0 0 1 1.488 2.388.611.611 0 0 0 .54.642 10.922 10.922 0 0 0 2.475.007.612.612 0 0 0 .544-.63 2.446 2.446 0 0 1 1.506-2.346c.905-.37 2.07-.1 2.724.62a.615.615 0 0 0 .83.069 10.927 10.927 0 0 0 1.78-1.76.61.61 0 0 0-.066-.835 2.437 2.437 0 0 1-.617-2.743 2.463 2.463 0 0 1 2.25-1.492l.137.003a.612.612 0 0 0 .643-.539c.098-.827.1-1.669.006-2.502ZM12.018 15.69a3.673 3.673 0 0 1-3.669-3.668 3.673 3.673 0 0 1 3.669-3.669 3.673 3.673 0 0 1 3.668 3.669 3.672 3.672 0 0 1-3.668 3.668Z" fill="currentColor"/></symbol><symbol fill="none" viewBox="0 0 24 24" id="globe" xmlns="http://www.w3.org/2000/svg"><path d="m21.137 5.88-.33.105-1.75.154-.497.792-.358-.112-1.394-1.26-.203-.652-.273-.7-.875-.784-1.037-.203-.021.476 1.016.987.497.581-.56.294-.456-.133-.68-.287.022-.546-.89-.371-.3 1.288-.897.203.09.721 1.17.225.204-1.149.966.14.448.266h.722l.49.988 1.31 1.33-.098.518-1.058-.133-1.82.917-1.318 1.576-.168.7h-.462l-.876-.406-.854.406.21.896.371-.427.652-.02-.042.804.539.161.54.61.882-.246 1.008.162 1.17.315.581.07.988 1.12 1.912 1.12-1.232 2.36-1.303.609-.498 1.351-1.89 1.26-.204.729c4.826-1.162 8.42-5.497 8.42-10.678 0-2.276-.687-4.376-1.864-6.127Z" fill="currentColor"/><path d="m13.264 17.749-.798-1.485.735-1.533-.735-.217-.827-.826-1.828-.414-.61-1.267v.756h-.265L7.36 10.628V8.87L6.204 6.987l-1.835.322h-1.24l-.623-.406.791-.63-.784.182A10.894 10.894 0 0 0 1 12c0 6.07 4.924 11 10.996 11 .47 0 .925-.042 1.38-.098l-.112-1.33s.505-1.982.505-2.045c0-.07-.505-1.778-.505-1.778ZM5.09 4.55l1.954-.273.903-.49 1.016.294 1.618-.091.553-.868.806.133 1.968-.182.54-.596.763-.51 1.078.16.392-.063A10.826 10.826 0 0 0 11.997 1a10.973 10.973 0 0 0-8.482 3.998h.007L5.09 4.55Zm7.375-2.458 1.12-.616.722.413-1.044.791-.994.098-.448-.294.644-.392Zm-3.327.091.497.203.652-.203.35.616-1.499.393-.721-.42s.7-.456.721-.589Z" fill="currentColor"/></symbol><symbol fill="none" viewBox="0 0 24 24" id="help" xmlns="http://www.w3.org/2000/svg"><path d="M12 1C5.927 1 1 5.92 1 11.994 1 18.074 5.927 23 12 23c6.077 0 11-4.927 11-11.006C23 5.921 18.077 1 12 1Zm.784 17.115a1.296 1.296 0 0 1-.887.342 1.34 1.34 0 0 1-.908-.337c-.259-.225-.388-.54-.388-.943 0-.358.125-.66.375-.904s.557-.366.921-.366c.358 0 .66.122.905.366.244.245.366.546.366.904 0 .398-.128.71-.384.938Zm3.186-7.898c-.196.364-.43.678-.7.943-.27.264-.755.709-1.455 1.334a5.9 5.9 0 0 0-.464.465 1.893 1.893 0 0 0-.26.367c-.057.11-.1.222-.132.333-.031.11-.078.306-.141.584-.108.592-.446.887-1.015.887a1.04 1.04 0 0 1-.747-.29c-.201-.193-.302-.48-.302-.861 0-.477.075-.891.222-1.241.147-.35.344-.657.588-.922.245-.264.574-.578.99-.942.364-.319.627-.559.79-.72.162-.163.298-.343.408-.542.112-.2.166-.415.166-.648 0-.455-.168-.839-.507-1.151-.338-.313-.775-.47-1.31-.47-.625 0-1.086.158-1.381.474-.295.315-.546.78-.75 1.394-.194.643-.561.964-1.1.964-.32 0-.588-.112-.807-.337-.219-.224-.328-.467-.328-.729 0-.54.173-1.087.52-1.642.347-.554.853-1.013 1.519-1.377.664-.364 1.441-.546 2.328-.546.824 0 1.552.152 2.183.457.63.304 1.118.717 1.463 1.24.344.524.516 1.092.516 1.706 0 .483-.098.906-.294 1.27Z" fill="currentColor"/></symbol><symbol fill="none" viewBox="0 0 16 16" id="infoblock" xmlns="http://www.w3.org/2000/svg"><path fill-rule="evenodd" clip-rule="evenodd" d="M8 2.75a5.25 5.25 0 1 0 0 10.5 5.25 5.25 0 0 0 0-10.5ZM1.25 8a6.75 6.75 0 1 1 13.5 0 6.75 6.75 0 0 1-13.5 0Z" fill="currentColor"/><path fill-rule="evenodd" clip-rule="evenodd" d="M6.75 7.5a.75.75 0 0 1 .75-.75H8a.75.75 0 0 1 .75.75v2.793a.75.75 0 0 1-.25 1.457H8a.75.75 0 0 1-.75-.75V8.207a.75.75 0 0 1-.5-.707Z" fill="currentColor"/><path d="M7.87 6a.75.75 0 1 0 0-1.5.75.75 0 0 0 0 1.5Z" fill="currentColor"/></symbol><symbol fill="none" viewBox="0 0 12 13" id="infoblock-filled" xmlns="http://www.w3.org/2000/svg"><path d="M6 1.5A5.001 5.001 0 1 1 6 11.5 5.001 5.001 0 0 1 6 1.5Zm-.002 4.125a.5.5 0 0 0-.496.442l-.003.058.001 2.751.004.058a.5.5 0 0 0 .993 0l.003-.059-.001-2.75-.004-.059a.5.5 0 0 0-.497-.441ZM6 3.75a.626.626 0 1 0-.035 1.251A.626.626 0 0 0 6 3.75Z" fill="currentColor"/></symbol><symbol fill="none" viewBox="0 0 24 24" id="laptop-device" xmlns="http://www.w3.org/2000/svg"><path fill-rule="evenodd" clip-rule="evenodd" d="M5.25 6a.75.75 0 0 0-.75.75v9.75a.75.75 0 0 1-1.5 0V6.75A2.25 2.25 0 0 1 5.25 4.5h13.5A2.25 2.25 0 0 1 21 6.75v9.75a.75.75 0 0 1-1.5 0V6.75a.75.75 0 0 0-.75-.75H5.25Z" fill="currentColor"/><path fill-rule="evenodd" clip-rule="evenodd" d="M1.5 16.5a.75.75 0 0 1 .75-.75h19.5a.75.75 0 0 1 .75.75V18a2.25 2.25 0 0 1-2.25 2.25H3.75A2.25 2.25 0 0 1 1.5 18v-1.5Zm1.5.75V18a.75.75 0 0 0 .75.75h16.5A.75.75 0 0 0 21 18v-.75H3ZM9.75 8.25a.75.75 0 0 1 .75-.75h3a.75.75 0 0 1 0 1.5h-3a.75.75 0 0 1-.75-.75Z" fill="currentColor"/></symbol><symbol fill="none" viewBox="0 0 22 22" id="onboarding--onbw-ads" xmlns="http://www.w3.org/2000/svg"><path d="M11.183 8.25 9.35 6.417h2.567c1.008 0 1.833.825 1.833 1.833v2.567l-1.833-1.834V8.25h-.734Zm9.9 0V6.417h-3.666a1.839 1.839 0 0 0-1.834 1.833v1.833c0 1.009.825 1.834 1.834 1.834h1.833v1.833h-2.567l1.834 1.833h.733a1.839 1.839 0 0 0 1.833-1.833v-1.833a1.839 1.839 0 0 0-1.833-1.834h-1.833V8.25h3.666Zm-.825 11.458L19.067 20.9 13.2 15.033c-.275.275-.733.55-1.283.55H8.25V9.992L6.417 8.158v7.425H4.583v-3.666H2.75v3.666H.917V8.25c0-1.008.825-1.833 1.833-1.833h1.925L1.008 2.75 2.2 1.558l18.058 18.15ZM4.583 8.25H2.75v1.833h1.833V8.25Zm7.334 5.408-1.834-1.833v1.925h1.834v-.092Z" fill="currentColor"/><defs><linearGradient id="bka" x1="11" y1="1.558" x2="11" y2="20.9" gradientUnits="userSpaceOnUse"><stop stop-color="currentColor"/><stop offset="1" stop-color="currentColor"/></linearGradient></defs></symbol><symbol fill="none" viewBox="0 0 14 15" id="onboarding--onbw-arrow-right" xmlns="http://www.w3.org/2000/svg"><path fill-rule="evenodd" clip-rule="evenodd" d="M7.223 2.475a.765.765 0 0 1 1.084 0L12.9 7.068a.765.765 0 0 1 0 1.084l-4.593 4.593a.767.767 0 0 1-1.084-1.084l4.053-4.05-4.053-4.052a.765.765 0 0 1 0-1.084Z" fill="currentColor"/><path fill-rule="evenodd" clip-rule="evenodd" d="M.875 7.61a.766.766 0 0 1 .766-.765h9.952a.766.766 0 0 1 0 1.53H1.64a.766.766 0 0 1-.766-.765Z" fill="currentColor"/></symbol><symbol fill="none" viewBox="0 0 24 24" id="onboarding--onbw-devices" xmlns="http://www.w3.org/2000/svg"><path d="M15.296 20.657h.1c-2.091-.263-2.263-1.663-2.276-1.972h3.084V15.34H1.56a.274.274 0 0 1-.273-.273V3.56c0-.15.122-.273.273-.273h18.336c.15 0 .273.122.273.273V9.19h1.287V3.56c0-.86-.7-1.56-1.56-1.56H1.56C.7 2 0 2.7 0 3.56v13.806h.001c.029.733.632 1.32 1.373 1.32h6.962c-.013.308-.185 1.709-2.276 1.971h.067a.598.598 0 0 0 0 1.196h9.17a.598.598 0 1 0 0-1.196Zm-4.568-2.747a.763.763 0 1 1 0-1.526.763.763 0 0 1 0 1.526Zm11.617-7.97h-3.573c-.914 0-1.655.741-1.655 1.655v8.604c0 .913.741 1.654 1.655 1.654h3.574c.913 0 1.654-.74 1.654-1.654v-8.604c0-.914-.74-1.654-1.655-1.654Zm-1.787 10.995a.669.669 0 1 1 0-1.338.669.669 0 0 1 0 1.338Z" fill="currentColor"/></symbol><symbol fill="none" viewBox="0 0 24 24" id="onboarding--onbw-free-location" xmlns="http://www.w3.org/2000/svg"><path fill-rule="evenodd" clip-rule="evenodd" d="M12.588 2c4.637 0 8.464 3.73 8.464 8.319 0 3.586-3.68 8.678-7.065 11.26a2.258 2.258 0 0 1-2.723-.072c-3.312-2.726-7.212-7.315-7.212-11.188C4.052 5.729 7.878 2 12.588 2Zm0 4.375c2.208 0 3.975 1.72 3.975 3.944 0 2.151-1.767 3.873-3.975 3.873-2.281 0-4.047-1.722-4.047-3.873 0-2.223 1.766-3.944 4.047-3.944Z" fill="currentColor"/></symbol><symbol fill="none" viewBox="0 0 24 24" id="onboarding--onbw-ip" xmlns="http://www.w3.org/2000/svg"><path d="M7.176 19h-2.84V5.66h2.84V19Zm5.488 0h-2.84V5.66h6.24c1.4 0 2.493.413 3.28 1.24.8.813 1.2 1.833 1.2 3.06 0 1.213-.4 2.233-1.2 3.06-.8.827-1.893 1.24-3.28 1.24h-3.4V19Zm3.02-7.24c.573 0 1.04-.16 1.4-.48.373-.333.56-.773.56-1.32s-.187-.98-.56-1.3c-.36-.333-.827-.5-1.4-.5h-3.02v3.6h3.02Z" fill="currentColor"/></symbol><symbol fill="none" viewBox="0 0 16 16" id="onboarding--onbw-location" xmlns="http://www.w3.org/2000/svg"><path d="M8 7.667a1.667 1.667 0 1 1 0-3.334 1.667 1.667 0 0 1 0 3.334Zm0-6.334A4.667 4.667 0 0 0 3.333 6C3.333 9.5 8 14.667 8 14.667S12.667 9.5 12.667 6A4.666 4.666 0 0 0 8 1.333Z" fill="currentColor"/></symbol><symbol fill="none" viewBox="0 0 24 24" id="onboarding--onbw-no-log" xmlns="http://www.w3.org/2000/svg"><path d="M19.158 6.59v12.084A3.333 3.333 0 0 1 15.832 22H9.747a3.344 3.344 0 0 1-2.379-.99L.842 14.358s1.053-1.032 1.074-1.032c.19-.168.4-.231.652-.231a1 1 0 0 1 .506.126c.042 0 3.6 2.042 3.6 2.042V5.326c0-.694.568-1.242 1.242-1.242.695 0 1.242.569 1.242 1.242v5.832H10V3.242C10 2.547 10.568 2 11.242 2s1.242.568 1.242 1.242v7.916h.842V4.084c0-.695.569-1.242 1.242-1.242.674 0 1.242.569 1.242 1.242v7.074h.843V6.589c0-.694.568-1.242 1.242-1.242.673 0 1.263.548 1.263 1.242Z" fill="currentColor"/></symbol><symbol fill="none" viewBox="0 0 24 24" id="onboarding--onbw-not" xmlns="http://www.w3.org/2000/svg"><path d="M12 2C6.5 2 2 6.5 2 12s4.5 10 10 10 10-4.5 10-10S17.5 2 12 2ZM4 12c0-4.4 3.6-8 8-8 1.8 0 3.5.6 4.9 1.7L5.7 16.9C4.6 15.5 4 13.8 4 12Zm8 8c-1.8 0-3.5-.6-4.9-1.7L18.3 7.1C19.4 8.5 20 10.2 20 12c0 4.4-3.6 8-8 8Z" fill="currentColor"/></symbol><symbol fill="none" viewBox="0 0 24 24" id="onboarding--onbw-padlock" xmlns="http://www.w3.org/2000/svg"><path d="M18.438 9.25h-.688V6.5c0-3.033-2.467-5.5-5.5-5.5a5.506 5.506 0 0 0-5.5 5.5v2.75h-.688A2.065 2.065 0 0 0 4 11.313v9.624C4 22.075 4.926 23 6.063 23h12.375a2.065 2.065 0 0 0 2.062-2.063v-9.625a2.065 2.065 0 0 0-2.063-2.062ZM8.582 6.5a3.67 3.67 0 0 1 3.667-3.667A3.67 3.67 0 0 1 15.917 6.5v2.75H8.583V6.5Zm4.584 9.828v2.089a.916.916 0 1 1-1.834 0v-2.089a1.827 1.827 0 0 1-.916-1.578c0-1.011.822-1.833 1.833-1.833 1.011 0 1.833.822 1.833 1.833 0 .676-.37 1.26-.916 1.578Z" fill="currentColor"/></symbol><symbol fill="none" viewBox="0 0 24 26" id="onboarding--onbw-protocol" xmlns="http://www.w3.org/2000/svg"><path d="M22.14 7.167c-.025-.637-.025-1.25-.025-1.837a.826.826 0 0 0-.833-.833c-3.6-.025-6.344-1.054-8.622-3.258a.843.843 0 0 0-1.176 0C9.206 3.443 6.462 4.472 2.886 4.472a.826.826 0 0 0-.833.833c0 .588 0 1.2-.024 1.862-.123 6.05-.294 14.306 9.774 17.784.097.024.171.049.269.049a.88.88 0 0 0 .27-.049c10.067-3.478 9.896-11.734 9.798-17.784ZM12.072 23.26c-8.623-3.136-8.5-9.995-8.378-16.045 0-.368.025-.71.025-1.053 3.356-.172 6.05-1.176 8.353-3.185 2.303 2.009 4.997 3.038 8.353 3.16 0 .343 0 .686.025 1.053.122 6.075.245 12.934-8.378 16.07Z" fill="currentColor" stroke="currentColor" stroke-width=".5"/><path d="m14.963 10.082-4.042 4.042-1.74-1.74c-.318-.318-.857-.318-1.2 0-.318.319-.318.858 0 1.2l2.327 2.328a.796.796 0 0 0 .588.245.76.76 0 0 0 .588-.245l4.654-4.654c.319-.319.319-.858 0-1.2a.821.821 0 0 0-1.176.024Z" fill="currentColor" stroke="currentColor" stroke-width=".5"/></symbol><symbol fill="none" viewBox="0 0 22 22" id="onboarding--onbw-rocket" xmlns="http://www.w3.org/2000/svg"><path d="M7.398 10.95c1.558-1.326.979-2.406 1.68-2.982-1.902-.226-4.612.521-5.161 1.343-.55.821 2.561 1.008 3.092 1.867.455.736.362-.128.389-.227Z" fill="currentColor"/><path d="M13.222 13.949c-.584 1.755-2.454 3.845-3.456 3.93-1.001.085-.096-2.856-.576-3.49-.48-.635 3.182-.11 4.032-.44Z" fill="currentColor"/><path d="M5.121 12.257c-.361.128-.647.377-1.008.505-.415.325-.857.75-1.093 1.221a4.642 4.642 0 0 0-.737 1.513l-.054.198c-.053.198.098.443.303.49l.205.047c.513.118 1.053.136 1.592.155.977.014 1.958-.392 2.761-.944l-1.06-1.715-.909-1.47Z" fill="currentColor"/><path d="M9.718 15.107c-.102-.024-.28-.17-.28-.17l-2.423-3.919c-.151-.245-.098-.443.058-.617.544-.4 1.04-1.023 1.406-1.57a1.14 1.14 0 0 1 .495-.622c.285-.25.441-.424.598-.598a8.232 8.232 0 0 1 1.503-1.127c2.715-1.585 6.794-.965 8.434-.589.103.024.28.17.28.17.077.122.05.221-.004.419-.429 1.583-1.782 5.372-4.498 6.957a8.372 8.372 0 0 1-1.73.759c-.232.052-.464.104-.825.231l-.695.156c-.67.057-1.391.312-2.011.59l-.308-.07Zm4.53-7.475c-1.128-.259-2.292.42-2.587 1.509-.295 1.088.387 2.19 1.514 2.449 1.128.258 2.292-.42 2.587-1.509.192-1.112-.386-2.19-1.514-2.45Z" fill="currentColor"/><defs><linearGradient id="bua" x1="6.808" y1="7.448" x2="5.955" y2="11.169" gradientUnits="userSpaceOnUse"><stop stop-color="currentColor"/><stop offset="1" stop-color="currentColor"/></linearGradient><linearGradient id="bub" x1="11.345" y1="13.518" x2="10.311" y2="18.026" gradientUnits="userSpaceOnUse"><stop stop-color="currentColor"/><stop offset="1" stop-color="currentColor"/></linearGradient><linearGradient id="buc" x1="5.531" y1="12.351" x2="4.547" y2="16.646" gradientUnits="userSpaceOnUse"><stop stop-color="currentColor"/><stop offset="1" stop-color="currentColor"/></linearGradient><linearGradient id="bud" x1="14.401" y1="4.724" x2="11.905" y2="15.608" gradientUnits="userSpaceOnUse"><stop stop-color="currentColor"/><stop offset="1" stop-color="currentColor"/></linearGradient></defs></symbol><symbol fill="none" viewBox="0 0 22 22" id="onboarding--onbw-servers" xmlns="http://www.w3.org/2000/svg"><path d="M2.063 5.225c0-.864.605-1.787 1.604-1.787h14.666c.999 0 1.605.923 1.605 1.787v3.3c0 .864-.606 1.787-1.605 1.787H3.667c-.999 0-1.604-.923-1.604-1.787v-3.3Zm3.437.963a.688.688 0 1 0 0 1.375h1.833a.688.688 0 1 0 0-1.375H5.5Zm-3.438 7.287c0-.864.606-1.787 1.605-1.787h14.666c.999 0 1.605.923 1.605 1.787v3.3c0 .864-.606 1.788-1.605 1.788H3.667c-.999 0-1.604-.924-1.604-1.788v-3.3Zm3.438.963a.687.687 0 1 0 0 1.374h1.833a.687.687 0 1 0 0-1.374H5.5Z" fill="currentColor"/><defs><linearGradient id="bva" x1="11" y1="3.438" x2="11" y2="18.563" gradientUnits="userSpaceOnUse"><stop stop-color="currentColor"/><stop offset="1" stop-color="currentColor"/></linearGradient></defs></symbol><symbol fill="none" viewBox="0 0 22 23" id="onboarding--onbw-shield" xmlns="http://www.w3.org/2000/svg"><path d="M20.295 5.986c-.023-.583-.023-1.145-.023-1.684a.757.757 0 0 0-.763-.763c-3.301-.023-5.816-.966-7.904-2.987a.773.773 0 0 0-1.078 0C8.439 2.573 5.924 3.516 2.645 3.516a.757.757 0 0 0-.763.764c0 .539 0 1.1-.023 1.706-.112 5.547-.269 13.114 8.96 16.302.09.023.157.045.247.045a.81.81 0 0 0 .247-.044c9.229-3.19 9.072-10.756 8.982-16.303Zm-9.23 14.753c-7.903-2.874-7.79-9.161-7.679-14.708 0-.337.023-.65.023-.965 3.076-.157 5.546-1.078 7.657-2.92 2.11 1.842 4.58 2.785 7.657 2.897 0 .315 0 .629.022.966.113 5.569.225 11.856-7.68 14.73Z" fill="currentColor"/><path d="m13.715 8.658-3.705 3.706-1.594-1.595c-.292-.292-.786-.292-1.1 0-.292.292-.292.786 0 1.1l2.133 2.134a.73.73 0 0 0 .539.224.696.696 0 0 0 .539-.224l4.266-4.267c.292-.292.292-.786 0-1.1a.753.753 0 0 0-1.078.022Z" fill="currentColor"/><defs><linearGradient id="bwa" x1="11.074" y1=".333" x2="11.074" y2="22.333" gradientUnits="userSpaceOnUse"><stop stop-color="currentColor"/><stop offset="1" stop-color="currentColor"/></linearGradient><linearGradient id="bwb" x1="11.055" y1="8.42" x2="11.055" y2="14.227" gradientUnits="userSpaceOnUse"><stop stop-color="currentColor"/><stop offset="1" stop-color="currentColor"/></linearGradient></defs></symbol><symbol fill="none" viewBox="0 0 16 16" id="onboarding--onbw-speed" xmlns="http://www.w3.org/2000/svg"><path d="M6.967 10.333c.278.278.628.409 1.05.392.422-.016.728-.169.917-.458l3.733-5.6-5.6 3.733c-.29.2-.447.503-.475.908-.027.405.098.747.375 1.025Zm-3.567 3c-.244 0-.47-.053-.675-.158a1.197 1.197 0 0 1-.492-.475 7.472 7.472 0 0 1-.666-1.625 6.488 6.488 0 0 1-.234-1.742c0-.922.176-1.788.526-2.6a6.743 6.743 0 0 1 1.425-2.116c.6-.6 1.305-1.075 2.116-1.425A6.506 6.506 0 0 1 8 2.667a6.42 6.42 0 0 1 2.567.516A6.737 6.737 0 0 1 14.1 6.675c.356.795.54 1.647.55 2.558a6.69 6.69 0 0 1-.208 1.792 6.515 6.515 0 0 1-.692 1.675c-.122.211-.286.37-.491.475-.206.106-.43.159-.676.158H3.4Z" fill="currentColor"/></symbol><symbol fill="none" viewBox="0 0 16 16" id="onboarding--onbw-video" xmlns="http://www.w3.org/2000/svg"><path d="M13.411 5.083a.667.667 0 0 0-.376.067L10 6.667v2.666l3.035 1.517a.666.666 0 0 0 .965-.595v-4.51a.667.667 0 0 0-.589-.662Z" fill="currentColor"/><path d="M3.333 3.333c-1.096 0-2 .904-2 2v5.334c0 1.096.904 2 2 2h5.334c1.097 0 2-.904 2-2V5.333c0-1.096-.903-2-2-2H3.334Z" fill="currentColor"/></symbol><symbol fill="none" viewBox="0 0 24 24" id="onboarding--onbw-websites" xmlns="http://www.w3.org/2000/svg"><path d="M21.54 15c.298-.947.46-1.955.46-3a9.992 9.992 0 0 0-.46-3h-4.724a24.593 24.593 0 0 1 0 6h4.725ZM14.436 7C13.812 4.475 12.791 3 12 3c-.791 0-1.812 1.475-2.436 4h4.872ZM7 12c0-1.002.062-2.015.184-3H2.459A9.993 9.993 0 0 0 2 12c0 1.045.162 2.053.46 3h4.724A24.575 24.575 0 0 1 7 12ZM9.564 17c.624 2.525 1.645 4 2.436 4 .791 0 1.812-1.475 2.436-4H9.564ZM14.81 9H9.19c-.12.916-.19 1.918-.19 3s.07 2.084.19 3h5.62c.12-.916.19-1.918.19-3s-.07-2.084-.19-3ZM16.474 7h4.177a10.004 10.004 0 0 0-6.194-4.683C15.371 3.407 16.05 5.08 16.474 7ZM7.526 17H3.35a10.004 10.004 0 0 0 6.193 4.683C8.63 20.593 7.95 18.92 7.526 17ZM16.474 17c-.424 1.92-1.103 3.593-2.017 4.683A10.004 10.004 0 0 0 20.651 17h-4.177ZM7.526 7C7.95 5.08 8.63 3.407 9.542 2.317A10.004 10.004 0 0 0 3.35 7h4.177Z" fill="currentColor"/></symbol><symbol fill="none" viewBox="0 0 24 24" id="padlock" xmlns="http://www.w3.org/2000/svg"><path d="M12 2.25c1.26 0 2.468.5 3.358 1.392l.163.17A4.75 4.75 0 0 1 16.75 7v3.25H17A2.75 2.75 0 0 1 19.75 13v6A2.75 2.75 0 0 1 17 21.75H7a2.75 2.75 0 0 1-1.743-.623l-.201-.183A2.75 2.75 0 0 1 4.25 19v-6c0-.73.29-1.429.806-1.944l.2-.183A2.75 2.75 0 0 1 7 10.25h.25V7c0-1.26.5-2.468 1.392-3.358l.17-.163A4.75 4.75 0 0 1 12 2.25ZM12 13a2 2 0 0 0-.968 3.749c-.02.08-.032.164-.032.251v1a1 1 0 1 0 2 0v-1a.999.999 0 0 0-.033-.251A2 2 0 0 0 12 13Zm0-9.25c-.808 0-1.585.3-2.182.84l-.116.112A3.25 3.25 0 0 0 8.75 7v3.25h6.5V7c0-.808-.3-1.585-.84-2.182l-.112-.116A3.25 3.25 0 0 0 12 3.75Z" fill="currentColor"/></symbol><symbol fill="none" viewBox="0 0 24 24" id="pen" xmlns="http://www.w3.org/2000/svg"><path fill-rule="evenodd" clip-rule="evenodd" d="M15.13 4.194a3.578 3.578 0 0 1 3.9 5.836l-10.5 10.5a.75.75 0 0 1-.53.22H4a.75.75 0 0 1-.75-.75v-4a.75.75 0 0 1 .22-.53l10.5-10.5a3.578 3.578 0 0 1 1.16-.776Zm1.37 1.228a2.079 2.079 0 0 0-1.47.608L4.75 16.31v2.94h2.94L17.97 8.97a2.078 2.078 0 0 0-1.47-3.548Z" fill="currentColor"/><path fill-rule="evenodd" clip-rule="evenodd" d="M12.97 5.97a.75.75 0 0 1 1.06 0l4 4a.75.75 0 1 1-1.06 1.06l-4-4a.75.75 0 0 1 0-1.06Z" fill="currentColor"/></symbol><symbol fill="none" viewBox="0 0 24 24" id="person" xmlns="http://www.w3.org/2000/svg"><path d="M12 12.46c2.992 0 5.25-2.249 5.25-5.23C17.25 4.249 14.992 2 12 2S6.75 4.249 6.75 7.23c0 2.981 2.258 5.23 5.25 5.23Zm1.5 1.416h-3c-4.136 0-7.5 3.352-7.5 7.472v1.494h18v-1.494c0-4.12-3.364-7.471-7.5-7.471Z" fill="currentColor"/></symbol><symbol fill="none" viewBox="0 0 18 20" id="pin" xmlns="http://www.w3.org/2000/svg"><path d="M8.5.625C4.917.625 2 3.672 2 7.415c0 4.647 5.816 11.47 6.065 11.755a.567.567 0 0 0 .87 0C9.184 18.88 15 12.062 15 7.415c.004-3.743-2.913-6.79-6.5-6.79Zm0 10.206c-1.802 0-3.271-1.534-3.271-3.416 0-1.883 1.469-3.417 3.271-3.417 1.802 0 3.271 1.534 3.271 3.417 0 1.882-1.465 3.416-3.271 3.416Z" fill="currentColor"/></symbol><symbol fill="none" viewBox="0 0 18 21" id="pin-alt" xmlns="http://www.w3.org/2000/svg"><path d="M15.364 2.636a9 9 0 0 1 .203 12.519l-.203.21-4.243 4.242a3 3 0 0 1-4.097.135l-.144-.135-4.244-4.243A9 9 0 1 1 15.364 2.636ZM9 6a3 3 0 1 0 0 6 3 3 0 0 0 0-6Z" fill="currentColor"/></symbol><symbol fill="none" viewBox="0 0 16 16" id="plus" xmlns="http://www.w3.org/2000/svg"><path fill-rule="evenodd" clip-rule="evenodd" d="M8 2.583a.75.75 0 0 1 .75.75v9.334a.75.75 0 0 1-1.5 0V3.333a.75.75 0 0 1 .75-.75Z" fill="currentColor"/><path fill-rule="evenodd" clip-rule="evenodd" d="M2.583 8a.75.75 0 0 1 .75-.75h9.333a.75.75 0 0 1 0 1.5H3.333a.75.75 0 0 1-.75-.75Z" fill="currentColor"/></symbol><symbol fill="none" viewBox="0 0 16 16" id="qr-code" xmlns="http://www.w3.org/2000/svg"><path fill="currentColor" d="M3.5 3.5v3h3v-3zm4 3a1 1 0 0 1-1 1h-3a1 1 0 0 1-1-1v-3a1 1 0 0 1 1-1h3a1 1 0 0 1 1 1zm-4 3v3h3v-3zm4 3a1 1 0 0 1-1 1h-3a1 1 0 0 1-1-1v-3a1 1 0 0 1 1-1h3a1 1 0 0 1 1 1zm2-9v3h3v-3zm4 3a1 1 0 0 1-1 1h-3a1 1 0 0 1-1-1v-3a1 1 0 0 1 1-1h3a1 1 0 0 1 1 1zm-5 4.5V9a.5.5 0 0 1 1 0v2a.5.5 0 0 1-1 0"/><path fill="currentColor" d="M10.5 9a.5.5 0 0 1 1 0v4a.5.5 0 0 1-.5.5H9a.5.5 0 0 1 0-1h1.5z"/><path fill="currentColor" d="M13 9.5a.5.5 0 0 1 0 1h-2a.5.5 0 0 1 0-1zm-.5 3.5v-1a.5.5 0 0 1 1 0v1a.5.5 0 0 1-1 0"/></symbol><symbol fill="none" viewBox="0 0 16 16" id="search" xmlns="http://www.w3.org/2000/svg"><path fill="currentColor" d="M11.75 7.25a4.5 4.5 0 1 0-8.998 0 4.5 4.5 0 0 0 8.998 0m1.5 0c0 1.578-.623 3.09-1.73 4.212l3.01 3.008a.75.75 0 0 1-1.061 1.06l-3.04-3.037a1 1 0 0 1-.085-.103A5.999 5.999 0 1 1 7.25 1.25a6 6 0 0 1 6 6"/></symbol><symbol fill="none" viewBox="0 0 32 32" id="shield-check" xmlns="http://www.w3.org/2000/svg"><path fill="currentColor" d="m16.05 4.05-8.533 3.2A.821.821 0 0 0 7 8v10.134c0 2.206 1.32 4.01 3.033 5.543 1.713 1.533 3.874 2.86 5.859 4.183a.767.767 0 0 0 .883 0c1.985-1.323 4.146-2.65 5.858-4.183 1.713-1.534 3.034-3.337 3.034-5.543V8a.822.822 0 0 0-.517-.75l-8.533-3.2c-.202-.077-.38-.056-.567 0Zm.283 1.6 7.734 2.9v9.584c0 1.564-.946 2.96-2.5 4.35-1.44 1.29-3.357 2.517-5.234 3.76-1.877-1.242-3.792-2.47-5.233-3.76-1.554-1.39-2.5-2.786-2.5-4.35V8.55l7.733-2.9Zm4.825 5.817c-.041-.003-.075.003-.116.008a.807.807 0 0 0-.475.242l-5.834 5.884-2.641-2.2c-.313-.318-.907-.293-1.192.05-.285.343-.195.926.175 1.175l3.2 2.658a.813.813 0 0 0 1.075-.041l6.35-6.4a.829.829 0 0 0 .158-.926.83.83 0 0 0-.7-.45Z"/></symbol><symbol fill="none" viewBox="0 0 32 32" id="shield-x" xmlns="http://www.w3.org/2000/svg"><path fill="currentColor" d="m16.05 4.05-8.533 3.2A.821.821 0 0 0 7 8v10.133c0 2.205 1.32 4.009 3.033 5.542 1.713 1.533 3.874 2.86 5.859 4.183a.759.759 0 0 0 .883 0c1.985-1.323 4.146-2.65 5.858-4.183 1.713-1.533 3.034-3.337 3.034-5.542V8a.82.82 0 0 0-.517-.75l-8.533-3.2a.833.833 0 0 0-.567 0Zm.283 1.6 7.734 2.9v9.583c0 1.564-.946 2.959-2.5 4.35-1.44 1.29-3.357 2.517-5.234 3.759-1.877-1.242-3.792-2.47-5.233-3.759-1.554-1.391-2.5-2.786-2.5-4.35V8.55l7.733-2.9ZM13.4 11.733a.82.82 0 0 0-.55.25c-.313.313-.347.767 0 1.134l2.35 2.35-2.367 2.366a.809.809 0 0 0 0 1.134.802.802 0 0 0 1.134 0l2.366-2.367 2.367 2.367a.807.807 0 0 0 1.133 0 .802.802 0 0 0 0-1.134l-2.366-2.366 2.35-2.35c.352-.358.312-.821 0-1.134-.313-.312-.782-.351-1.134 0l-2.35 2.35-2.35-2.35a.777.777 0 0 0-.583-.25Z"/></symbol><symbol fill="none" viewBox="0 0 24 24" id="star" xmlns="http://www.w3.org/2000/svg"><g clip-path="url(#bea)"><path d="m12.414 17.881 4.728 2.996c.604.383 1.355-.187 1.175-.892l-1.366-5.374a.821.821 0 0 1 .266-.832l4.24-3.53c.557-.463.27-1.388-.446-1.434l-5.537-.36a.79.79 0 0 1-.68-.501l-2.065-5.2a.78.78 0 0 0-1.458 0l-2.065 5.2a.79.79 0 0 1-.68.501l-5.537.36c-.716.046-1.003.97-.446 1.435l4.24 3.529a.82.82 0 0 1 .266.832l-1.267 4.983c-.215.847.685 1.53 1.41 1.071l4.394-2.784a.77.77 0 0 1 .828 0v0Z" stroke="currentColor" stroke-width="1.5" stroke-linecap="round" stroke-linejoin="round"/></g><defs><clipPath id="bea"><path fill="currentColor" d="M0 0h24v24H0z"/></clipPath></defs></symbol><symbol fill="none" viewBox="0 0 24 24" id="star-filled" xmlns="http://www.w3.org/2000/svg"><path fill="currentColor" stroke="currentColor" stroke-linecap="round" stroke-linejoin="round" stroke-width="1.5" d="m12.414 17.881 4.728 2.996c.604.383 1.355-.187 1.175-.892l-1.366-5.374a.82.82 0 0 1 .266-.832l4.24-3.53c.557-.463.27-1.388-.446-1.434l-5.537-.36a.79.79 0 0 1-.68-.501l-2.065-5.2a.78.78 0 0 0-1.458 0l-2.065 5.2a.79.79 0 0 1-.68.501l-5.537.36c-.716.046-1.003.97-.446 1.435l4.24 3.529a.82.82 0 0 1 .266.832l-1.267 4.983c-.215.847.685 1.53 1.41 1.071l4.394-2.784a.77.77 0 0 1 .828 0"/></symbol><symbol fill="none" viewBox="0 0 24 24" id="support" xmlns="http://www.w3.org/2000/svg"><path d="M12 2C6.486 2 2 6.486 2 12v4.143C2 17.167 2.897 18 4 18h1a1 1 0 0 0 1-1v-5.143a1 1 0 0 0-1-1h-.908C4.648 6.987 7.978 4 12 4s7.352 2.987 7.908 6.857H19a1 1 0 0 0-1 1V18c0 1.103-.897 2-2 2h-2v-1h-4v3h6c2.206 0 4-1.794 4-4 1.103 0 2-.833 2-1.857V12c0-5.514-4.486-10-10-10Z" fill="currentColor"/></symbol><symbol fill="none" viewBox="0 0 24 24" id="x-circle" xmlns="http://www.w3.org/2000/svg"><path fill-rule="evenodd" clip-rule="evenodd" d="M15.53 8.47a.75.75 0 0 1 0 1.06l-6 6a.75.75 0 0 1-1.06-1.06l6-6a.75.75 0 0 1 1.06 0Z" fill="currentColor"/><path fill-rule="evenodd" clip-rule="evenodd" d="M8.47 8.47a.75.75 0 0 1 1.06 0l6 6a.75.75 0 1 1-1.06 1.06l-6-6a.75.75 0 0 1 0-1.06Z" fill="currentColor"/><path fill-rule="evenodd" clip-rule="evenodd" d="M12 3.75a8.25 8.25 0 1 0 0 16.5 8.25 8.25 0 0 0 0-16.5ZM2.25 12c0-5.385 4.365-9.75 9.75-9.75s9.75 4.365 9.75 9.75-4.365 9.75-9.75 9.75S2.25 17.385 2.25 12Z" fill="currentColor"/></symbol><symbol fill="none" viewBox="0 0 16 16" id="x-close-16" xmlns="http://www.w3.org/2000/svg"><path fill="currentColor" d="M11.97 2.97a.75.75 0 1 1 1.06 1.06L9.06 8l3.97 3.97a.75.75 0 1 1-1.06 1.06L8 9.06l-3.97 3.97a.75.75 0 1 1-1.06-1.06L6.94 8 2.97 4.03a.75.75 0 1 1 1.06-1.06L8 6.94z"/></symbol><symbol fill="none" viewBox="0 0 24 25" id="x-close-cross" xmlns="http://www.w3.org/2000/svg"><path d="m13.41 12.5 4.3-4.29a1.004 1.004 0 1 0-1.42-1.42L12 11.09l-4.29-4.3a1.004 1.004 0 0 0-1.42 1.42l4.3 4.29-4.3 4.29a1 1 0 0 0 .325 1.639 1 1 0 0 0 1.095-.219l4.29-4.3 4.29 4.3a1.001 1.001 0 0 0 1.639-.325 1 1 0 0 0-.22-1.095l-4.3-4.29Z" fill="currentColor"/></symbol><symbol fill="none" viewBox="0 0 34 34" id="za" xmlns="http://www.w3.org/2000/svg"><path fill="currentColor" d="m28.794 21.407-4.363-8.799c-.37-.745-1.582-.745-1.952 0l-4.364 8.8a1.109 1.109 0 0 0 .488 1.476 1.083 1.083 0 0 0 1.464-.492l.789-1.593h5.197l.79 1.592a1.095 1.095 0 0 0 .63.552 1.08 1.08 0 0 0 .833-.06c.538-.272.758-.932.488-1.476ZM21.947 18.6l1.507-3.04 1.508 3.04h-3.015Zm-4.674 0H15.09c-.29 0-.567-.116-.771-.323a1.104 1.104 0 0 1 0-1.555c.204-.207.482-.322.77-.322h2.183c.29 0 .567.116.771.322a1.105 1.105 0 0 1 0 1.555 1.086 1.086 0 0 1-.771.322ZM12.636 23H6.091a1.086 1.086 0 0 1-.975-.61 1.109 1.109 0 0 1 .102-1.15l5.237-7.04H6.09c-.29 0-.567-.116-.771-.322a1.105 1.105 0 0 1 0-1.556c.204-.206.482-.322.77-.322h6.546a1.085 1.085 0 0 1 .975.609 1.108 1.108 0 0 1-.102 1.15L8.273 20.8h4.364c.289 0 .566.116.77.322a1.104 1.104 0 0 1 0 1.556 1.086 1.086 0 0 1-.77.322Z"/></symbol></svg>