<svg xmlns="http://www.w3.org/2000/svg"><symbol xmlns="http://www.w3.org/2000/svg" id="base--browsers" fill="none" viewBox="0 0 16 16"><g stroke="currentColor" stroke-linecap="round" stroke-linejoin="round" stroke-width="1.5" clip-path="url(#aba)"><path d="M4 5V3.5a.5.5 0 0 1 .5-.5h9a.5.5 0 0 1 .5.5v7a.5.5 0 0 1-.5.5H12"/><path d="M11.5 5h-9a.5.5 0 0 0-.5.5v7a.5.5 0 0 0 .5.5h9a.5.5 0 0 0 .5-.5v-7a.5.5 0 0 0-.5-.5ZM2 7h10"/></g><defs><clipPath id="aba"><path fill="currentColor" d="M0 0h16v16H0z"/></clipPath></defs></symbol><symbol xmlns="http://www.w3.org/2000/svg" id="base--check" fill="none" viewBox="0 0 24 24"><g clip-path="url(#aia)"><path stroke="currentColor" stroke-linecap="round" stroke-linejoin="round" stroke-width="1.5" d="m20.25 6.75-10.5 10.5L4.5 12"/></g><defs><clipPath id="aia"><path fill="currentColor" d="M0 0h24v24H0z"/></clipPath></defs></symbol><symbol xmlns="http://www.w3.org/2000/svg" id="base--check-circle-24" fill="none" viewBox="0 0 24 24"><g stroke="currentColor" stroke-linecap="round" stroke-linejoin="round" stroke-width="1.5" clip-path="url(#aga)"><path d="m16.125 9.75-5.5 5.25-2.75-2.625"/><path d="M12 21a9 9 0 1 0 0-18 9 9 0 0 0 0 18Z"/></g><defs><clipPath id="aga"><path fill="currentColor" d="M0 0h24v24H0z"/></clipPath></defs></symbol><symbol xmlns="http://www.w3.org/2000/svg" id="base--check-circle-green-24" fill="none" viewBox="0 0 24 24"><g clip-path="url(#aha)"><path fill="currentColor" d="M17 3.34a10 10 0 1 1-14.995 8.984L2 12l.005-.324A10 10 0 0 1 17 3.34Zm-1.293 5.953a1 1 0 0 0-1.32-.083l-.094.083L11 12.585l-1.293-1.292-.094-.083a1 1 0 0 0-1.403 1.403l.083.094 2 2 .094.083a1 1 0 0 0 1.226 0l.094-.083 4-4 .083-.094a1 1 0 0 0-.083-1.32Z"/></g><defs><clipPath id="aha"><path fill="currentColor" d="M0 0h24v24H0z"/></clipPath></defs></symbol><symbol xmlns="http://www.w3.org/2000/svg" id="base--email-16" fill="none" viewBox="0 0 16 16"><g stroke="currentColor" stroke-linecap="round" stroke-linejoin="round" stroke-width="1.5" clip-path="url(#aoa)"><path d="M6.5 12H3.333A1.333 1.333 0 0 1 2 10.666V4a1.333 1.333 0 0 1 1.333-1.333h9.334A1.333 1.333 0 0 1 14 4v3.5"/><path d="m2 4 6 4 6-4M10 12h4M12 10l2 2-2 2"/></g><defs><clipPath id="aoa"><path fill="currentColor" d="M0 0h16v16H0z"/></clipPath></defs></symbol><symbol xmlns="http://www.w3.org/2000/svg" id="base--eye-slash-hide-16" fill="none" viewBox="0 0 16 16"><g stroke="currentColor" stroke-linecap="round" stroke-linejoin="round" stroke-width="1.5" clip-path="url(#apa)"><path d="M9.682 9.85a2.5 2.5 0 0 1-3.364-3.7"/><path d="M4.625 4.287C2.077 5.577 1 8 1 8s2 4.5 7 4.5a7.376 7.376 0 0 0 3.375-.788m1.663-1.143C14.4 9.349 15 8 15 8s-2-4.5-7-4.5a7.778 7.778 0 0 0-1.293.105"/><path d="M8.47 5.544a2.502 2.502 0 0 1 2.02 2.22M3 2.5l10 11"/></g><defs><clipPath id="apa"><path fill="currentColor" d="M0 0h16v16H0z"/></clipPath></defs></symbol><symbol xmlns="http://www.w3.org/2000/svg" id="base--game-controller-device" fill="none" viewBox="0 0 16 16"><g stroke="currentColor" stroke-linecap="round" stroke-linejoin="round" stroke-width="1.5" clip-path="url(#ara)"><path d="M9.5 6.75h2m-7 0h2m-1-1v2m5.25-4.266-5.5.016a3.25 3.25 0 0 0-3.201 2.685h0l-1.022 5.26a1.75 1.75 0 0 0 2.96 1.542h0L6.69 10l4.06-.016a3.25 3.25 0 1 0 0-6.5v0Z"/><path d="m13.952 6.17 1.022 5.276a1.75 1.75 0 0 1-2.961 1.541h0l-2.7-2.997"/></g><defs><clipPath id="ara"><path fill="currentColor" d="M0 0h16v16H0z"/></clipPath></defs></symbol><symbol xmlns="http://www.w3.org/2000/svg" id="base--lock-key" fill="none" viewBox="0 0 16 16"><g stroke="currentColor" stroke-linecap="round" stroke-linejoin="round" stroke-width="1.5" clip-path="url(#aua)"><path d="M8 10a1.25 1.25 0 1 0 0-2.5A1.25 1.25 0 0 0 8 10Zm0 0v1.5"/><path d="M13 5.5H3a.5.5 0 0 0-.5.5v7a.5.5 0 0 0 .5.5h10a.5.5 0 0 0 .5-.5V6a.5.5 0 0 0-.5-.5Zm-7.25 0V3.25a2.25 2.25 0 1 1 4.5 0V5.5"/></g><defs><clipPath id="aua"><path fill="currentColor" d="M0 0h16v16H0z"/></clipPath></defs></symbol><symbol xmlns="http://www.w3.org/2000/svg" id="base--magnifying-glass-search" fill="none" viewBox="0 0 16 16"><g stroke="currentColor" stroke-linecap="round" stroke-linejoin="round" stroke-width="1.5" clip-path="url(#ava)"><path d="M10.96 11.962 13.999 15M7.25 12.5a5.25 5.25 0 1 0 0-10.5 5.25 5.25 0 0 0 0 10.5Z"/></g><defs><clipPath id="ava"><path fill="currentColor" d="M0 0h16v16H0z"/></clipPath></defs></symbol><symbol xmlns="http://www.w3.org/2000/svg" id="base--monitor-device" fill="none" viewBox="0 0 16 16"><g stroke="currentColor" stroke-linecap="round" stroke-linejoin="round" stroke-width="1.5" clip-path="url(#baa)"><path d="M3 12h10a1 1 0 0 0 1-1V4a1 1 0 0 0-1-1H3a1 1 0 0 0-1 1v7a1 1 0 0 0 1 1Zm7 2H6"/></g><defs><clipPath id="baa"><path fill="currentColor" d="M0 0h16v16H0z"/></clipPath></defs></symbol><symbol xmlns="http://www.w3.org/2000/svg" id="base--prohibit" fill="none" viewBox="0 0 16 16"><g stroke="currentColor" stroke-linecap="round" stroke-linejoin="round" stroke-width="1.5" clip-path="url(#bia)"><path d="M8 14A6 6 0 1 0 8 2a6 6 0 0 0 0 12ZM3.758 3.757l8.485 8.486"/></g><defs><clipPath id="bia"><path fill="currentColor" d="M0 0h16v16H0z"/></clipPath></defs></symbol><symbol xmlns="http://www.w3.org/2000/svg" id="base--prohibit-inset" fill="none" viewBox="0 0 16 16"><g stroke="currentColor" stroke-linecap="round" stroke-linejoin="round" stroke-width="1.5" clip-path="url(#bha)"><path d="M8 14A6 6 0 1 0 8 2a6 6 0 0 0 0 12ZM6.232 6.232l3.536 3.536"/></g><defs><clipPath id="bha"><path fill="currentColor" d="M0 0h16v16H0z"/></clipPath></defs></symbol><symbol xmlns="http://www.w3.org/2000/svg" id="base--question" fill="none" viewBox="0 0 16 16"><g stroke="currentColor" clip-path="url(#bja)"><path stroke-linecap="round" stroke-linejoin="round" stroke-width="1.5" d="M8 14A6 6 0 1 0 8 2a6 6 0 0 0 0 12Z"/><path fill="currentColor" stroke-width=".125" d="M8.688 11.375a.687.687 0 1 1-1.375 0 .687.687 0 0 1 1.375 0Z"/><path stroke-linecap="round" stroke-linejoin="round" stroke-width="1.5" d="M8 9v-.5a1.75 1.75 0 1 0-1.75-1.75"/></g><defs><clipPath id="bja"><path fill="currentColor" d="M0 0h16v16H0z"/></clipPath></defs></symbol><symbol xmlns="http://www.w3.org/2000/svg" id="base--squares-four" fill="none" viewBox="0 0 16 16"><g stroke="currentColor" stroke-linecap="round" stroke-linejoin="round" stroke-width="1.5" clip-path="url(#bma)"><path d="M7 3H3v4h4V3Zm6 0H9v4h4V3ZM7 9H3v4h4V9Zm6 0H9v4h4V9Z"/></g><defs><clipPath id="bma"><path fill="currentColor" d="M0 0h16v16H0z"/></clipPath></defs></symbol><symbol xmlns="http://www.w3.org/2000/svg" id="base--stack" fill="none" viewBox="0 0 16 16"><g stroke="currentColor" stroke-linecap="round" stroke-linejoin="round" stroke-width="1.5" clip-path="url(#bna)"><path d="m2 11 6 3.5 6-3.5"/><path d="m2 8 6 3.5L14 8"/><path d="m2 5 6 3.5L14 5 8 1.5 2 5Z"/></g><defs><clipPath id="bna"><path fill="currentColor" d="M0 0h16v16H0z"/></clipPath></defs></symbol><symbol xmlns="http://www.w3.org/2000/svg" id="base--user-16" fill="none" viewBox="0 0 16 16"><g stroke="currentColor" stroke-linecap="round" stroke-linejoin="round" stroke-width="1.5" clip-path="url(#bpa)"><path d="M8 8.666a2 2 0 1 0 0-4 2 2 0 0 0 0 4Z"/><path d="M8 2c4.8 0 6 1.2 6 6s-1.2 6-6 6-6-1.2-6-6 1.2-6 6-6Z"/><path d="M4 13.367v-.034a2.667 2.667 0 0 1 2.667-2.667h2.666A2.667 2.667 0 0 1 12 13.333v.034"/></g><defs><clipPath id="bpa"><path fill="currentColor" d="M0 0h16v16H0z"/></clipPath></defs></symbol><symbol xmlns="http://www.w3.org/2000/svg" id="base--wifi-slash" fill="none" viewBox="0 0 16 16"><g clip-path="url(#bra)"><path stroke="currentColor" stroke-linecap="round" stroke-linejoin="round" stroke-width="1.5" d="M6.693 3.594c.433-.063.87-.095 1.307-.094a9.1 9.1 0 0 1 6.43 2.638M1.568 6.137a9.106 9.106 0 0 1 2.957-1.956m4.981 2.507a6.094 6.094 0 0 1 2.806 1.568m-8.624 0A6.144 6.144 0 0 1 6.75 6.625m-.943 3.756a3.181 3.181 0 0 1 4.225-.15"/><path fill="currentColor" d="M8 13.5A.75.75 0 1 0 8 12a.75.75 0 0 0 0 1.5Z"/><path stroke="currentColor" stroke-linecap="round" stroke-linejoin="round" stroke-width="1.5" d="m3 2.5 10 11"/></g><defs><clipPath id="bra"><path fill="currentColor" d="M0 0h16v16H0z"/></clipPath></defs></symbol><symbol xmlns="http://www.w3.org/2000/svg" id="base--x-close-cross-16" fill="none" viewBox="0 0 16 16"><g stroke="currentColor" stroke-linecap="round" stroke-linejoin="round" stroke-width="1.5" clip-path="url(#bsa)"><path d="m12.5 3.5-9 9M12.5 12.5l-9-9"/></g><defs><clipPath id="bsa"><path fill="currentColor" d="M0 0h16v16H0z"/></clipPath></defs></symbol><symbol xmlns="http://www.w3.org/2000/svg" id="platforms--mac" fill="none" viewBox="0 0 25 24"><g fill="currentColor" fill-rule="evenodd" clip-path="url(#cua)" clip-rule="evenodd"><path d="M14.734 17.09c2.313-.223 4.34-.831 5.578-1.622l.73.933c-1.704.994-3.914 1.643-6.308 1.886A15.276 15.276 0 0 0 16.118 24h3.676a4.706 4.706 0 0 0 4.706-4.706V4.706A4.706 4.706 0 0 0 19.794 0h-3.282c-3.204 3.78-4.97 8.168-5.51 12.892h4.361c-.365 1.42-.588 2.82-.629 4.198Zm1.947-11.703h1.238v2.86H16.68v-2.86Z"/><path d="M14.967 0H5.206A4.706 4.706 0 0 0 .5 4.706v14.588A4.706 4.706 0 0 0 5.206 24h9.51c-.803-1.711-1.196-3.665-1.26-5.681v.05c-3.123.12-6.49-.467-9.33-1.887l.589-.933c2.758 1.298 5.921 1.744 8.74 1.623.03-1.002.134-2.01.306-3.003H9.52C10.009 8.611 12.016 3.83 14.968 0ZM7.615 5.387H6.378v2.86h1.237v-2.86Z"/></g><defs><clipPath id="cua"><path fill="currentColor" d="M0 0h24v24H0z" transform="translate(.5)"/></clipPath></defs></symbol><symbol xmlns="http://www.w3.org/2000/svg" id="platforms--playstation" fill="none" viewBox="0 0 56 56"><g fill="currentColor" clip-path="url(#cxa)"><path d="M20.94 7c2.436.454 4.83 1.102 7.212 1.778 1.362.396 2.721.806 4.071 1.242 2.121.675 4.233 1.44 6.154 2.58.86.523 1.687 1.114 2.393 1.834a9.126 9.126 0 0 1 1.852 2.6c.837 1.75 1.124 3.703 1.21 5.625.039 1.253.036 2.518-.198 3.756-.194 1.075-.54 2.135-1.116 3.07-.508.824-1.214 1.538-2.071 1.998a5.475 5.475 0 0 1-2.696.635c-1.414.015-2.786-.436-4.056-1.027-.023-4.22-.003-8.442-.01-12.662-.008-.763.044-1.535-.11-2.288-.109-.584-.347-1.172-.805-1.568-.304-.274-.698-.429-1.094-.512a1.12 1.12 0 0 0-1.075.415c-.412.515-.52 1.198-.538 1.839-.004 11.299.004 22.598-.004 33.897-3.04-.964-6.08-1.928-9.119-2.894-.003-13.44-.001-26.878 0-40.318ZM7.278 35.594c3.963-1.403 7.922-2.82 11.886-4.219.006 1.556 0 3.112.003 4.67-.003.21.01.423-.016.633-3.133 1.11-6.261 2.24-9.391 3.359-.434.164-.88.35-1.214.68-.156.156-.283.386-.198.608.107.263.375.406.622.513.687.28 1.437.32 2.169.353.816-.013 1.635-.074 2.434-.25.54-.107 1.06-.288 1.574-.482 1.338-.484 2.675-.971 4.015-1.45.01 1.316.002 2.632.004 3.95-.004.263.012.528-.014.79-1.645.296-3.31.496-4.983.523a29.739 29.739 0 0 1-9.941-1.498c-1.05-.304-2.092-.709-2.968-1.375-.482-.373-.914-.843-1.133-1.42a1.958 1.958 0 0 1 .058-1.526c.221-.47.607-.842 1.032-1.132.982-.678 2.067-1.196 3.165-1.658.948-.403 1.93-.717 2.896-1.07Z"/><path d="M39.164 33.821c.899-.104 1.804-.128 2.707-.16 2.973.01 5.96.38 8.804 1.272.558.17 1.098.39 1.654.566.991.362 1.983.801 2.776 1.514.477.434.888 1.02.893 1.688.028.545-.218 1.067-.571 1.468-.672.754-1.56 1.271-2.451 1.723-.95.484-1.97.796-2.964 1.164-6.075 2.181-12.15 4.362-18.223 6.546-.001-1.702.002-3.403-.001-5.103.01-.068-.028-.187.068-.205 4.622-1.644 9.242-3.293 13.863-4.942.625-.234 1.298-.403 1.828-.826.217-.17.43-.442.323-.735-.11-.255-.376-.397-.62-.503-.692-.273-1.445-.326-2.18-.347-1.153.008-2.315.15-3.41.52-3.292 1.153-6.578 2.32-9.87 3.47 0-1.827-.002-3.653 0-5.48 2.382-.835 4.87-1.342 7.374-1.63Z"/></g><defs><clipPath id="cxa"><path fill="currentColor" d="M0 0h56v56H0z"/></clipPath></defs></symbol><symbol xmlns="http://www.w3.org/2000/svg" id="social--twitter" fill="none" viewBox="0 0 25 24"><g clip-path="url(#caa)"><path fill="currentColor" d="M19.63 1h3.68l-8.08 9.2 9.44 12.48h-7.408l-5.8-7.584-6.64 7.584h-3.68l8.56-9.84L.662 1h7.592l5.24 6.928L19.63 1Zm-1.288 19.52h2.04L7.182 3.08H4.99l13.352 17.44Z"/></g><defs><clipPath id="caa"><path fill="currentColor" d="M0 0h24v21.68H0z" transform="translate(.75 1)"/></clipPath></defs></symbol></svg>