<svg width="20" height="20" viewBox="0 0 20 20" fill="none" xmlns="http://www.w3.org/2000/svg">
<g clip-path="url(#clip0_801_7347)">
<path d="M6.48293 12.0302H7.99741L6.0981 7.6854H4.6581L2.75879 12.0302H4.24844L4.54017 11.273H6.1912L6.48293 12.0302ZM4.94362 10.2178L5.36569 9.1254L5.78775 10.2178H4.94362Z" fill="#97ABC3"/>
<path d="M8.23119 12.0302H10.3726C11.825 12.0302 12.8243 11.2047 12.8243 9.85781C12.8243 8.51092 11.825 7.6854 10.3726 7.6854H8.23119V12.0302ZM9.69601 10.8882V8.82747H10.3105C10.925 8.82747 11.347 9.19368 11.347 9.85781C11.347 10.522 10.925 10.8882 10.3105 10.8882H9.69601Z" fill="#97ABC3"/>
<path d="M14.9791 12.1295C16.326 12.1295 17.0026 11.4592 17.0026 10.6647C17.0026 9.06333 14.6005 9.49781 14.6005 8.97643C14.6005 8.82747 14.7371 8.70333 15.1654 8.70333C15.544 8.70333 15.9474 8.80885 16.3757 9.02609L16.8164 7.96471C16.3633 7.71023 15.7612 7.58609 15.1778 7.58609C13.8309 7.58609 13.1543 8.24402 13.1543 9.05092C13.1543 10.6709 15.5564 10.2302 15.5564 10.7764C15.5564 10.9254 15.4074 11.0123 14.9916 11.0123C14.5136 11.0123 13.9674 10.8571 13.5578 10.6151L13.086 11.6826C13.5205 11.9495 14.2529 12.1295 14.9791 12.1295Z" fill="#97ABC3"/>
<path fill-rule="evenodd" clip-rule="evenodd" d="M10 18.2759C14.5706 18.2759 18.2759 14.5706 18.2759 10C18.2759 5.42937 14.5706 1.72414 10 1.72414C5.42937 1.72414 1.72414 5.42937 1.72414 10C1.72414 14.5706 5.42937 18.2759 10 18.2759ZM10 20C15.5228 20 20 15.5228 20 10C20 4.47715 15.5228 0 10 0C4.47715 0 0 4.47715 0 10C0 15.5228 4.47715 20 10 20Z" fill="#97ABC3"/>
<path d="M4.13691 16.5518C4.75466 17.1531 4.75469 17.1531 4.75476 17.153L8.69577 13.1035H6.28994L3.51953 15.9501C3.51947 15.9502 3.51915 15.9505 4.13691 16.5518Z" fill="#97ABC3"/>
<path d="M12.3296 6.89664H14.735C15.6339 5.97257 16.4677 5.11528 17.1688 4.39412L15.9326 3.19226C14.9353 4.21807 13.6695 5.51941 12.3296 6.89664Z" fill="#97ABC3"/>
</g>
<defs>
<clipPath id="clip0_801_7347">
<rect width="20" height="20" fill="white"/>
</clipPath>
</defs>
</svg>
