<svg width="24" height="24" viewBox="0 0 24 24" fill="none" xmlns="http://www.w3.org/2000/svg">
  <g clip-path="url(#clip0_1435_22286)">
    <g clip-path="url(#clip1_1435_22286)">
      <path fill-rule="evenodd" clip-rule="evenodd" d="M13.2 15.6V17.0048C14.2229 17.3664 15.0336 18.1771 15.3952 19.2H21.6V21.6H15.3952C14.901 22.9982 13.5675 24 12 24C10.4325 24 9.09905 22.9982 8.60485 21.6H2.4V19.2H8.60485C8.96639 18.1771 9.7771 17.3664 10.8 17.0048V15.6H6.28235C2.82756 15.6 0 12.9295 0 9.6C0 6.78732 2.03031 4.40865 4.79695 3.76877C6.21447 1.46494 8.96463 0 12 0C15.5768 0 18.7119 2.03262 19.7918 4.9769C22.2206 5.5865 24 7.69863 24 10.2C24 13.1982 21.4569 15.6 18.3529 15.6H13.2ZM12 21.6C12.6627 21.6 13.2 21.0627 13.2 20.4C13.2 19.7373 12.6627 19.2 12 19.2C11.3373 19.2 10.8 19.7373 10.8 20.4C10.8 21.0627 11.3373 21.6 12 21.6ZM21.6 10.2C21.6 8.68585 20.369 7.39373 18.7281 7.21974L17.8778 7.12958L17.6854 6.29646C17.1737 4.08072 14.8157 2.4 12 2.4C9.61625 2.4 7.52514 3.60881 6.64427 5.38095L6.36015 5.95256L5.72735 6.03642C3.817 6.28959 2.4 7.81657 2.4 9.6C2.4 11.5724 4.12334 13.2 6.28235 13.2H18.3529C20.1611 13.2 21.6 11.841 21.6 10.2Z" fill="#97ABC3"/>
    </g>
  </g>
  <defs>
    <clipPath id="clip0_1435_22286">
      <rect width="24" height="24" fill="white"/>
    </clipPath>
    <clipPath id="clip1_1435_22286">
      <rect width="24" height="24" fill="white"/>
    </clipPath>
  </defs>
</svg>
