<svg width="20" height="20" viewBox="0 0 20 20" fill="none" xmlns="http://www.w3.org/2000/svg">
<g clip-path="url(#clip0_801_7358)">
<path d="M19.9772 9.54971C19.4904 9.82819 18.9337 10 18.3332 10C17.0118 10 15.8806 9.22432 15.341 8.10928C14.9748 8.24776 14.5817 8.33321 14.1668 8.33321C12.3268 8.33321 10.8332 6.84071 10.8332 4.99992C10.8332 4.17824 11.1425 3.43533 11.6365 2.85397C10.6609 2.27242 10 1.21822 10 0C4.4775 0 0 4.4775 0 10C0 15.523 4.4775 20.0001 10 20.0001C15.5233 20.0001 20.0001 15.523 20.0001 10C20.0001 9.84821 19.9837 9.70001 19.9772 9.54971ZM10 18.3331C5.40524 18.3331 1.66645 14.5948 1.66645 10C1.66645 5.86166 4.69894 2.41852 8.65726 1.77498C8.85582 2.29759 9.14307 2.78168 9.5068 3.21007C9.28383 3.77941 9.16672 4.38671 9.16672 4.99992C9.16672 7.757 11.4096 10 14.1668 10C14.3097 10 14.4537 9.99355 14.5981 9.98001C15.4949 11.0025 16.7707 11.6188 18.1665 11.664C17.3933 15.4642 14.0253 18.3331 10 18.3331Z" fill="#97ABC3"/>
<path d="M15 13.7501C15 14.4403 14.4403 15 13.7501 15C13.0596 15 12.5 14.4403 12.5 13.7501C12.5 13.0596 13.0596 12.5 13.7501 12.5C14.4403 12.5 15 13.0596 15 13.7501Z" fill="#97ABC3"/>
<path d="M9.99996 15.4165C9.99996 16.1068 9.44035 16.6664 8.74989 16.6664C8.05962 16.6664 7.5 16.1068 7.5 15.4165C7.5 14.7261 8.05962 14.1664 8.74989 14.1664C9.44035 14.1664 9.99996 14.7261 9.99996 15.4165Z" fill="#97ABC3"/>
<path d="M10.833 11.2499C10.833 11.9404 10.2734 12.5 9.58308 12.5C8.89262 12.5 8.33301 11.9404 8.33301 11.2499C8.33301 10.5596 8.89262 10 9.58308 10C10.2734 10 10.833 10.5596 10.833 11.2499Z" fill="#97ABC3"/>
<path d="M7.50015 6.25002C7.50015 6.94028 6.94035 7.50009 6.25008 7.50009C5.55981 7.50009 5 6.94028 5 6.25002C5 5.55975 5.55981 4.99994 6.25008 4.99994C6.94035 4.99994 7.50015 5.55975 7.50015 6.25002Z" fill="#97ABC3"/>
<path d="M5.83297 10.4164C5.83297 11.1069 5.27335 11.6665 4.58289 11.6665C3.89262 11.6665 3.33301 11.1069 3.33301 10.4164C3.33301 9.72615 3.89262 9.16653 4.58289 9.16653C5.27335 9.16653 5.83297 9.72615 5.83297 10.4164Z" fill="#97ABC3"/>
</g>
<defs>
<clipPath id="clip0_801_7358">
<rect width="20" height="20" fill="white"/>
</clipPath>
</defs>
</svg>
