<svg width="20" height="20" viewBox="0 0 20 20" fill="none" xmlns="http://www.w3.org/2000/svg">
<g clip-path="url(#clip0_801_7383)">
<path fill-rule="evenodd" clip-rule="evenodd" d="M16.2859 3.81801C16.762 3.81801 17.148 3.43205 17.148 2.95594C17.148 2.47983 16.762 2.09387 16.2859 2.09387H2.83765C2.36155 2.09387 1.97559 2.47983 1.97559 2.95594C1.97559 3.43205 2.36155 3.81801 2.83765 3.81801H16.2859ZM16.7207 6.45913C16.9763 6.30955 17.148 6.03211 17.148 5.71456C17.148 5.23845 16.762 4.85249 16.2859 4.85249H2.83765C2.36155 4.85249 1.97559 5.23845 1.97559 5.71456C1.97559 6.19067 2.36155 6.57663 2.83765 6.57663H11.7847C12.5808 6.21938 13.4634 6.02066 14.3925 6.02066C15.2141 6.02066 15.9995 6.17609 16.7207 6.45913ZM8.05837 13.1284C8.12746 13.7328 8.28108 14.3115 8.5071 14.8525H2.83765C2.36155 14.8525 1.97559 14.4665 1.97559 13.9904C1.97559 13.5143 2.36155 13.1284 2.83765 13.1284H8.05837ZM8.34564 10.3697C8.16288 10.9153 8.05188 11.4937 8.02385 12.0939H2.83765C2.36155 12.0939 1.97559 11.7079 1.97559 11.2318C1.97559 10.7557 2.36155 10.3697 2.83765 10.3697H8.34564ZM10.1792 7.61111C9.62493 8.0995 9.15621 8.68266 8.79835 9.33525H2.83765C2.36155 9.33525 1.97559 8.94929 1.97559 8.47318C1.97559 7.99708 2.36155 7.61111 2.83765 7.61111H10.1792ZM5.21696 17.6111C5.69307 17.6111 6.07903 17.2252 6.07903 16.749C6.07903 16.2729 5.69307 15.887 5.21696 15.887H2.83766C2.36155 15.887 1.97559 16.2729 1.97559 16.749C1.97559 17.2252 2.36155 17.6111 2.83765 17.6111H5.21696Z" fill="#97ABC3"/>
<path fill-rule="evenodd" clip-rule="evenodd" d="M17.9543 12.3967C17.9543 14.3639 16.3595 15.9587 14.3923 15.9587C13.8047 15.9587 13.2504 15.8164 12.7619 15.5645L17.5601 10.7663C17.812 11.2548 17.9543 11.8091 17.9543 12.3967ZM11.5733 14.5745L16.5701 9.57774C15.968 9.11186 15.2125 8.83463 14.3923 8.83463C12.425 8.83463 10.8302 10.4294 10.8302 12.3967C10.8302 13.2169 11.1075 13.9724 11.5733 14.5745ZM19.3099 12.3967C19.3099 15.1126 17.1082 17.3143 14.3923 17.3143C11.6763 17.3143 9.47461 15.1126 9.47461 12.3967C9.47461 9.68071 11.6763 7.479 14.3923 7.479C17.1082 7.479 19.3099 9.68071 19.3099 12.3967Z" fill="#97ABC3"/>
</g>
<defs>
<clipPath id="clip0_801_7383">
<rect width="20" height="20" fill="white"/>
</clipPath>
</defs>
</svg>
