<svg width="24" height="24" viewBox="0 0 24 24" fill="none" xmlns="http://www.w3.org/2000/svg">
<g clip-path="url(#clip0_1435_22388)">
<g clip-path="url(#clip1_1435_22388)">
<path d="M12 0.82918C12.0175 0.828155 12.0352 0.827635 12.0529 0.827637C12.5445 0.827674 12.943 1.22622 12.943 1.71781L12.9429 3.10214C12.9428 3.59373 12.5443 3.99222 12.0527 3.99218C12.035 3.99218 12.0174 3.99166 12 3.99064C11.9826 3.99166 11.965 3.99218 11.9473 3.99218C11.4557 3.99222 11.0572 3.59373 11.0571 3.10214L11.057 1.71781C11.057 1.22622 11.4555 0.827674 11.9471 0.827637C11.9648 0.827635 11.9825 0.828155 12 0.82918Z" fill="#97ABC3"/>
<path d="M5.12501 6.28478C5.44715 5.91346 5.40728 5.35129 5.03595 5.02914L3.89494 4.03926C3.52362 3.71711 2.96145 3.75698 2.6393 4.12831C2.31716 4.49963 2.35703 5.0618 2.72835 5.38395L3.86936 6.37383C4.24069 6.69598 4.80286 6.65611 5.12501 6.28478Z" fill="#97ABC3"/>
<path fill-rule="evenodd" clip-rule="evenodd" d="M12 5.10014C8.141 5.10014 4.97021 8.1466 4.81593 12.0025L4.79228 12.5935C4.72465 14.2837 5.36648 15.9254 6.56263 17.1215L7.22917 17.7881C7.68356 18.2425 7.96041 18.8444 8.00971 19.4851L8.03975 19.8756C8.19812 21.9337 9.8763 23.5344 11.9228 23.6114V23.6143C11.9486 23.6143 11.9743 23.614 12 23.6136C12.0257 23.614 12.0514 23.6143 12.0772 23.6143V23.6114C14.1237 23.5344 15.8019 21.9337 15.9602 19.8756L15.9903 19.4851C16.0396 18.8444 16.3164 18.2425 16.7708 17.7881L17.4374 17.1215C18.6335 15.9254 19.2753 14.2837 19.2077 12.5935L19.1841 12.0025C19.0298 8.1466 15.859 5.10014 12 5.10014ZM14.1853 19.739C14.0963 20.8955 13.151 21.7942 12 21.8328C10.849 21.7942 9.9037 20.8955 9.81471 19.739L9.78467 19.3485C9.70277 18.2841 9.24284 17.2841 8.48798 16.5293L7.82143 15.8627C6.97662 15.0179 6.5233 13.8584 6.57107 12.6646L6.59471 12.0737C6.71079 9.1725 9.09649 6.88035 12 6.88035C14.9035 6.88035 17.2892 9.1725 17.4053 12.0737L17.4289 12.6646C17.4767 13.8584 17.0234 15.0179 16.1786 15.8627L15.512 16.5293C14.7572 17.2841 14.2972 18.2841 14.2153 19.3485L14.1853 19.739Z" fill="#97ABC3"/>
<path d="M5.86461 17.4662C5.51701 17.1186 4.95342 17.1186 4.60582 17.4662L3.53769 18.5344C3.19009 18.882 3.19009 19.4456 3.53769 19.7932C3.8853 20.1408 4.44888 20.1408 4.79649 19.7932L5.86461 18.725C6.21222 18.3774 6.21222 17.8139 5.86461 17.4662Z" fill="#97ABC3"/>
<path d="M2.40066 10.8264C2.89225 10.8264 3.29076 11.2249 3.29076 11.7165C3.29076 12.208 2.89225 12.6066 2.40066 12.6066H0.890103C0.398513 12.6066 0 12.208 0 11.7165C0 11.2249 0.398513 10.8264 0.890103 10.8264H2.40066Z" fill="#97ABC3"/>
<path d="M18.1354 17.4662C18.483 17.1186 19.0466 17.1186 19.3942 17.4662L20.4623 18.5344C20.8099 18.882 20.8099 19.4456 20.4623 19.7932C20.1147 20.1408 19.5511 20.1408 19.2035 19.7932L18.1354 18.725C17.7878 18.3774 17.7878 17.8139 18.1354 17.4662Z" fill="#97ABC3"/>
<path d="M21.5993 10.8264C21.1077 10.8264 20.7092 11.2249 20.7092 11.7165C20.7092 12.208 21.1077 12.6066 21.5993 12.6066H23.1099C23.6015 12.6066 24 12.208 24 11.7165C24 11.2249 23.6015 10.8264 23.1099 10.8264H21.5993Z" fill="#97ABC3"/>
<path d="M18.875 6.28478C18.5528 5.91346 18.5927 5.35129 18.964 5.02914L20.1051 4.03926C20.4764 3.71711 21.0386 3.75698 21.3607 4.12831C21.6828 4.49963 21.643 5.0618 21.2716 5.38395L20.1306 6.37383C19.7593 6.69598 19.1971 6.65611 18.875 6.28478Z" fill="#97ABC3"/>
</g>
</g>
<defs>
<clipPath id="clip0_1435_22388">
<rect width="24" height="24" fill="white"/>
</clipPath>
<clipPath id="clip1_1435_22388">
<rect width="24" height="24" fill="white"/>
</clipPath>
</defs>
</svg>
