<svg width="20" height="20" viewBox="0 0 20 20" fill="none" xmlns="http://www.w3.org/2000/svg">
<g clip-path="url(#clip0_801_7371)">
<path d="M18.633 10.398L18.9953 10.0023L18.633 9.60656C17.2291 8.07333 15.7988 6.9036 14.3818 6.12982C12.9345 5.33951 11.4606 4.93875 10.0011 4.93875C8.54164 4.93875 7.06771 5.33947 5.62035 6.12982C4.20337 6.9036 2.77304 8.07333 1.36916 9.60656L1.00684 10.0023L1.36916 10.398C2.77304 11.9312 4.20337 13.101 5.62035 13.8747C7.06771 14.665 8.5416 15.0658 10.0011 15.0658C11.4605 15.0658 12.9345 14.6651 14.3818 13.8747C15.7988 13.101 17.2291 11.9312 18.633 10.398ZM10.0006 13.8781C7.86348 13.8781 6.12474 12.1394 6.12474 10.0023C6.12474 7.86512 7.86348 6.12642 10.0006 6.12642C12.1378 6.12642 13.8765 7.86512 13.8765 10.0023C13.8765 12.1394 12.1378 13.8781 10.0006 13.8781ZM2.60456 10.0023C3.61261 8.95313 4.62554 8.10986 5.62695 7.48428C5.19834 8.22588 4.95282 9.08591 4.95282 10.0023C4.95282 10.9186 5.19834 11.7787 5.62695 12.5203C4.62554 11.8947 3.61261 11.0515 2.60456 10.0023ZM14.3738 12.5212C14.8027 11.7794 15.0485 10.919 15.0485 10.0023C15.0485 9.08552 14.8027 8.22514 14.3738 7.48335C15.3757 8.10904 16.3891 8.95259 17.3977 10.0023C16.3891 11.052 15.3757 11.8955 14.3738 12.5212Z" fill="#97ABC3"/>
<path d="M10.0002 8.10663C8.95488 8.10663 8.10449 8.95702 8.10449 10.0023C8.10449 11.0476 8.95492 11.898 10.0002 11.898C11.0454 11.898 11.8958 11.0476 11.8958 10.0023C11.8958 8.95702 11.0454 8.10663 10.0002 8.10663ZM10.0002 10.7261C9.60107 10.7261 9.27641 10.4014 9.27641 10.0023C9.27641 9.60322 9.60111 9.27855 10.0002 9.27855C10.3992 9.27855 10.7239 9.60326 10.7239 10.0023C10.7239 10.4014 10.3992 10.7261 10.0002 10.7261Z" fill="#97ABC3"/>
<path fill-rule="evenodd" clip-rule="evenodd" d="M0.241217 0.241394H4.89722V1.8276H1.82742L1.82742 5.19494L0.241214 5.19494L0.241217 0.241394ZM18.1723 1.8276H15.0907V0.241394H19.7585V5.20379H18.1723V1.8276ZM1.82742 18.1724L1.82742 14.1676L0.241211 14.1676L0.241218 19.7586H5.55287V18.1724H1.82742ZM18.1723 18.1724V14.8211H19.7585V19.7586H14.4824V18.1724H18.1723Z" fill="#97ABC3"/>
</g>
<defs>
<clipPath id="clip0_801_7371">
<rect width="20" height="20" fill="white"/>
</clipPath>
</defs>
</svg>
