<svg width="40" height="40" viewBox="0 0 40 40" fill="none" xmlns="http://www.w3.org/2000/svg">
<g clip-path="url(#clip0_801_17247)">
<path d="M20 40C31.0457 40 40 31.0457 40 20C40 8.95431 31.0457 0 20 0C8.95431 0 0 8.95431 0 20C0 31.0457 8.95431 40 20 40Z" fill="#FF4500"/>
<path d="M30.5254 20.1421C30.5079 19.6977 30.3624 19.2678 30.1065 18.904C29.8506 18.5402 29.4951 18.258 29.0828 18.0913C28.6704 17.9246 28.2187 17.8804 27.7819 17.9641C27.3451 18.0478 26.9417 18.2558 26.6202 18.5632C24.8205 17.3362 22.7031 16.6587 20.5254 16.6132L21.5518 11.6816L24.9412 12.3947C24.9815 12.7679 25.1534 13.1144 25.426 13.3723C25.6987 13.6302 26.0543 13.7825 26.4291 13.802C26.8039 13.8215 27.1733 13.7069 27.4712 13.4786C27.7692 13.2504 27.9761 12.9235 28.0548 12.5566C28.1336 12.1897 28.0791 11.8067 27.9011 11.4763C27.7231 11.1459 27.4332 10.8897 27.0835 10.7537C26.7337 10.6176 26.3469 10.6106 25.9925 10.7339C25.638 10.8571 25.339 11.1026 25.1491 11.4263L21.2754 10.6526C21.2125 10.6387 21.1475 10.6373 21.0841 10.6485C21.0206 10.6598 20.96 10.6834 20.9057 10.7182C20.8515 10.7529 20.8046 10.798 20.7678 10.8508C20.731 10.9037 20.7049 10.9634 20.6912 11.0263L19.5254 16.5184C17.325 16.5545 15.1826 17.2302 13.3597 18.4632C12.9098 18.0674 12.3237 17.8621 11.7252 17.8907C11.1268 17.9192 10.5629 18.1794 10.1528 18.6162C9.74266 19.0529 9.51847 19.6321 9.52761 20.2311C9.53675 20.8302 9.77851 21.4023 10.2018 21.8263C10.3833 21.9996 10.5934 22.1403 10.8228 22.2421C10.807 22.4743 10.807 22.7073 10.8228 22.9395C10.8228 26.4789 14.9465 29.3579 20.0333 29.3579C25.1202 29.3579 29.2439 26.4816 29.2439 22.9395C29.2597 22.7073 29.2597 22.4743 29.2439 22.2421C29.634 22.0488 29.9614 21.749 30.1882 21.3773C30.415 21.0057 30.5319 20.5774 30.5254 20.1421ZM14.7202 21.721C14.7202 21.4088 14.8128 21.1035 14.9863 20.8438C15.1598 20.5842 15.4064 20.3818 15.6949 20.2623C15.9834 20.1428 16.3009 20.1115 16.6072 20.1724C16.9135 20.2334 17.1948 20.3837 17.4156 20.6046C17.6364 20.8254 17.7868 21.1067 17.8477 21.413C17.9087 21.7193 17.8774 22.0368 17.7579 22.3253C17.6384 22.6138 17.436 22.8604 17.1763 23.0339C16.9167 23.2074 16.6114 23.3 16.2991 23.3C15.8808 23.3 15.4796 23.134 15.1836 22.8385C14.8875 22.5429 14.7209 22.142 14.7202 21.7237V21.721ZM23.9018 26.071C22.7807 26.9158 21.4017 27.3463 19.9991 27.2895C18.5956 27.3471 17.2156 26.9166 16.0939 26.071C16.0232 25.9897 15.986 25.8847 15.9897 25.777C15.9934 25.6693 16.0376 25.5671 16.1136 25.4907C16.1896 25.4144 16.2917 25.3697 16.3994 25.3655C16.507 25.3614 16.6122 25.3981 16.6939 25.4684C17.6448 26.1655 18.8055 26.5165 19.9833 26.4631C21.1607 26.5257 22.3244 26.1861 23.2833 25.5C23.3673 25.4186 23.4796 25.3732 23.5965 25.3732C23.7134 25.3732 23.8257 25.4186 23.9097 25.5C23.9511 25.5354 23.9843 25.5795 24.0068 25.6292C24.0293 25.6788 24.0406 25.7328 24.0398 25.7874C24.0391 25.8419 24.0263 25.8956 24.0024 25.9446C23.9786 25.9936 23.9442 26.0368 23.9018 26.071ZM22.036 21.7789C22.036 21.3602 22.2023 20.9586 22.4984 20.6625C22.7945 20.3663 23.1962 20.2 23.6149 20.2C24.0337 20.2 24.4353 20.3663 24.7314 20.6625C25.0275 20.9586 25.1939 21.3602 25.1939 21.7789C25.236 22.6526 24.736 23.421 23.6833 23.421C23.4649 23.4307 23.2468 23.3949 23.0429 23.3158C22.839 23.2368 22.6538 23.1163 22.4989 22.9619C22.344 22.8075 22.2229 22.6227 22.1432 22.419C22.0635 22.2154 22.027 21.9974 22.036 21.7789Z" fill="white"/>
</g>
<defs>
<clipPath id="clip0_801_17247">
<rect width="40" height="40" fill="white"/>
</clipPath>
</defs>
</svg>
