<svg width="40" height="40" viewBox="0 0 40 40" fill="none" xmlns="http://www.w3.org/2000/svg">
<g clip-path="url(#clip0_801_17211)">
<path d="M20 40C31.0457 40 40 31.0457 40 20C40 8.9543 31.0457 0 20 0C8.9543 0 0 8.9543 0 20C0 31.0457 8.9543 40 20 40Z" fill="#039BE5"/>
<path d="M9.1521 19.5667L28.4354 12.1317C29.3304 11.8083 30.1121 12.35 29.8221 13.7033L29.8238 13.7017L26.5404 29.17C26.2971 30.2667 25.6454 30.5333 24.7338 30.0167L19.7338 26.3317L17.3221 28.655C17.0554 28.9217 16.8304 29.1467 16.3138 29.1467L16.6688 24.0583L25.9354 15.6867C26.3388 15.3317 25.8454 15.1317 25.3138 15.485L13.8621 22.695L8.92544 21.155C7.85377 20.815 7.83044 20.0833 9.1521 19.5667Z" fill="white"/>
</g>
<defs>
<clipPath id="clip0_801_17211">
<rect width="40" height="40" fill="white"/>
</clipPath>
</defs>
</svg>
