<svg width="40" height="40" viewBox="0 0 40 40" fill="none" xmlns="http://www.w3.org/2000/svg">
<g clip-path="url(#clip0_801_17239)">
<path d="M20 40C31.0457 40 40 31.0457 40 20C40 8.95431 31.0457 0 20 0C8.95431 0 0 8.95431 0 20C0 31.0457 8.95431 40 20 40Z" fill="#665CAC"/>
<path d="M22.1043 9.47369H17.8938C15.9396 9.47369 14.0654 10.25 12.6836 11.6319C11.3017 13.0137 10.5254 14.8879 10.5254 16.8421V20C10.5248 21.3949 10.9202 22.7613 11.6655 23.9404C12.4109 25.1195 13.4756 26.0627 14.7359 26.6605V30.179C14.7372 30.2476 14.7584 30.3144 14.7971 30.3711C14.8358 30.4278 14.8901 30.472 14.9536 30.4983C15.017 30.5246 15.0867 30.5318 15.1542 30.519C15.2216 30.5062 15.2839 30.474 15.3333 30.4263L18.3912 27.3684H22.1043C24.0586 27.3684 25.9328 26.5921 27.3146 25.2103C28.6964 23.8284 29.4728 21.9542 29.4728 20V16.8421C29.4728 14.8879 28.6964 13.0137 27.3146 11.6319C25.9328 10.25 24.0586 9.47369 22.1043 9.47369ZM24.8622 23.2842L23.8096 24.3369C22.6886 25.4342 19.7622 24.1816 17.1833 21.5474C14.6043 18.9132 13.4728 15.9579 14.5517 14.8605L15.6043 13.8079C15.8106 13.6227 16.0789 13.5216 16.3561 13.5245C16.6333 13.5274 16.8994 13.6342 17.1017 13.8237L18.6385 15.4026C18.7606 15.5286 18.8486 15.6835 18.8943 15.8529C18.94 16.0222 18.9419 16.2004 18.8998 16.3706C18.8577 16.5409 18.773 16.6976 18.6536 16.8262C18.5343 16.9547 18.3842 17.0507 18.2175 17.1053C17.9704 17.1811 17.762 17.3491 17.6356 17.5746C17.5092 17.8 17.4744 18.0654 17.5385 18.3158C17.8017 19.4842 19.2859 20.9474 20.3912 21.2342C20.6404 21.2936 20.9026 21.2601 21.1289 21.1399C21.3551 21.0198 21.5298 20.8213 21.6201 20.5816C21.6785 20.4144 21.7789 20.2651 21.9117 20.148C22.0445 20.0309 22.2053 19.9499 22.3784 19.9129C22.5516 19.8759 22.7313 19.8841 22.9004 19.9367C23.0695 19.9892 23.2222 20.0845 23.3438 20.2132L24.878 21.7921C25.0623 21.9978 25.1629 22.2651 25.1599 22.5412C25.157 22.8174 25.0508 23.0824 24.8622 23.2842ZM20.957 14.4737C20.8523 14.4732 20.7477 14.4793 20.6438 14.4921C20.598 14.4971 20.5517 14.4931 20.5075 14.4802C20.4633 14.4673 20.422 14.4458 20.3861 14.417C20.3502 14.3881 20.3203 14.3525 20.2981 14.3121C20.276 14.2717 20.262 14.2274 20.257 14.1816C20.252 14.1358 20.256 14.0895 20.2689 14.0452C20.2818 14.001 20.3033 13.9598 20.3321 13.9239C20.361 13.8879 20.3966 13.858 20.437 13.8359C20.4774 13.8137 20.5217 13.7998 20.5675 13.7947C20.6968 13.7799 20.8268 13.7728 20.957 13.7737C21.8883 13.773 22.7817 14.1421 23.441 14.7999C24.1003 15.4577 24.4714 16.3503 24.4728 17.2816C24.4736 17.4117 24.4666 17.5418 24.4517 17.6711C24.4467 17.7169 24.4327 17.7612 24.4106 17.8016C24.3884 17.842 24.3585 17.8776 24.3226 17.9064C24.2867 17.9353 24.2454 17.9568 24.2012 17.9696C24.157 17.9825 24.1107 17.9866 24.0649 17.9816C24.0191 17.9766 23.9747 17.9626 23.9343 17.9404C23.8939 17.9183 23.8583 17.8884 23.8295 17.8525C23.8006 17.8166 23.7792 17.7753 23.7663 17.7311C23.7534 17.6869 23.7493 17.6405 23.7543 17.5947C23.7658 17.4907 23.7719 17.3862 23.7728 17.2816C23.7714 16.5359 23.474 15.8214 22.946 15.2949C22.418 14.7683 21.7026 14.473 20.957 14.4737ZM23.0622 17.2816C23.0546 17.3695 23.0143 17.4514 22.9493 17.511C22.8842 17.5707 22.7992 17.6038 22.7109 17.6038C22.6227 17.6038 22.5376 17.5707 22.4726 17.511C22.4075 17.4514 22.3672 17.3695 22.3596 17.2816C22.3596 16.9096 22.2118 16.5528 21.9488 16.2898C21.6857 16.0267 21.329 15.879 20.957 15.879C20.9083 15.8832 20.8592 15.8772 20.813 15.8615C20.7667 15.8457 20.7242 15.8206 20.6882 15.7875C20.6522 15.7545 20.6234 15.7143 20.6037 15.6696C20.5841 15.6249 20.5739 15.5765 20.5739 15.5276C20.5739 15.4788 20.5841 15.4304 20.6037 15.3857C20.6234 15.341 20.6522 15.3008 20.6882 15.2678C20.7242 15.2347 20.7667 15.2095 20.813 15.1938C20.8592 15.1781 20.9083 15.1721 20.957 15.1763C21.5153 15.1763 22.0508 15.3981 22.4456 15.7929C22.8404 16.1878 23.0622 16.7232 23.0622 17.2816ZM25.7385 18.4211C25.7308 18.4689 25.7132 18.5146 25.687 18.5554C25.6607 18.5961 25.6264 18.631 25.586 18.6579C25.5457 18.6848 25.5002 18.703 25.4525 18.7116C25.4048 18.7201 25.3558 18.7187 25.3087 18.7074C25.2616 18.6962 25.2172 18.6754 25.1785 18.6462C25.1398 18.6171 25.1075 18.5803 25.0836 18.5381C25.0597 18.4959 25.0448 18.4493 25.0398 18.401C25.0347 18.3528 25.0397 18.3041 25.0543 18.2579C25.1303 17.9398 25.1683 17.6139 25.1675 17.2869C25.1675 16.1702 24.7239 15.0992 23.9343 14.3096C23.1446 13.5199 22.0737 13.0763 20.957 13.0763C20.8491 13.0763 20.7386 13.0763 20.6307 13.0763C20.5847 13.0798 20.5385 13.0742 20.4947 13.0598C20.4509 13.0454 20.4104 13.0225 20.3755 12.9924C20.3049 12.9317 20.2613 12.8455 20.2543 12.7526C20.2474 12.6598 20.2775 12.568 20.3382 12.4974C20.3989 12.4269 20.4852 12.3833 20.578 12.3763C20.7043 12.3658 20.8307 12.3605 20.957 12.3605C22.2607 12.3626 23.5104 12.882 24.4316 13.8047C25.3527 14.7273 25.8701 15.9778 25.8701 17.2816C25.8703 17.6652 25.8261 18.0476 25.7385 18.4211Z" fill="white"/>
</g>
<defs>
<clipPath id="clip0_801_17239">
<rect width="40" height="40" fill="white"/>
</clipPath>
</defs>
</svg>
