<svg width="40" height="40" viewBox="0 0 40 40" fill="none" xmlns="http://www.w3.org/2000/svg">
<path d="M20 40C31.0457 40 40 31.0457 40 20C40 8.9543 31.0457 0 20 0C8.9543 0 0 8.9543 0 20C0 31.0457 8.9543 40 20 40Z" fill="#29A71A"/>
<path d="M28.819 11.1818C26.7381 9.08023 23.9748 7.79139 21.0274 7.54778C18.08 7.30417 15.1425 8.12183 12.7449 9.85328C10.3473 11.5847 8.64727 14.116 7.95156 16.9904C7.25586 19.8649 7.61024 22.8934 8.95078 25.5296L7.63487 31.9182C7.62122 31.9818 7.62083 32.0475 7.63374 32.1112C7.64664 32.175 7.67256 32.2354 7.70987 32.2886C7.76453 32.3695 7.84255 32.4317 7.93352 32.4671C8.02449 32.5024 8.12407 32.5091 8.21896 32.4864L14.4803 31.0023C17.1091 32.3089 20.1162 32.6405 22.9665 31.9381C25.8168 31.2356 28.3255 29.5448 30.0461 27.1663C31.7668 24.7878 32.5878 21.876 32.3631 18.9491C32.1384 16.0221 30.8825 13.2698 28.819 11.1818ZM26.8667 26.7636C25.427 28.1993 23.573 29.147 21.5662 29.4732C19.5593 29.7994 17.5006 29.4876 15.6803 28.5818L14.8076 28.15L10.969 29.0591L10.9803 29.0114L11.7758 25.1477L11.3485 24.3046C10.4184 22.4779 10.0903 20.4037 10.4112 18.3792C10.7321 16.3546 11.6855 14.4836 13.1349 13.0341C14.956 11.2135 17.4257 10.1908 20.0008 10.1908C22.5759 10.1908 25.0455 11.2135 26.8667 13.0341C26.8822 13.0519 26.8989 13.0686 26.9167 13.0841C28.7153 14.9094 29.7193 17.3717 29.71 19.9342C29.7006 22.4967 28.6786 24.9516 26.8667 26.7636Z" fill="white"/>
<path d="M26.5259 23.9296C26.0555 24.6705 25.3123 25.5773 24.3782 25.8023C22.7418 26.1977 20.2305 25.8159 17.1055 22.9023L17.0668 22.8682C14.3191 20.3205 13.6055 18.2 13.7782 16.5182C13.8736 15.5636 14.6691 14.7 15.3395 14.1364C15.4455 14.0459 15.5712 13.9815 15.7066 13.9483C15.8419 13.9151 15.9832 13.914 16.119 13.9452C16.2548 13.9763 16.3815 14.0388 16.4888 14.1276C16.5962 14.2165 16.6813 14.3292 16.7373 14.4568L17.7486 16.7296C17.8144 16.8769 17.8387 17.0394 17.8191 17.1996C17.7995 17.3597 17.7366 17.5115 17.6373 17.6386L17.1259 18.3023C17.0162 18.4393 16.95 18.606 16.9358 18.781C16.9216 18.956 16.9601 19.1312 17.0464 19.2841C17.3327 19.7864 18.0191 20.525 18.7805 21.2091C19.635 21.9818 20.5827 22.6886 21.1827 22.9296C21.3433 22.9951 21.5198 23.0111 21.6895 22.9755C21.8592 22.9399 22.0144 22.8542 22.135 22.7296L22.7282 22.1318C22.8426 22.019 22.985 21.9385 23.1407 21.8985C23.2964 21.8586 23.4599 21.8607 23.6145 21.9046L26.0168 22.5864C26.1493 22.627 26.2708 22.6974 26.3719 22.7922C26.4731 22.887 26.5512 23.0037 26.6003 23.1333C26.6494 23.2629 26.6683 23.402 26.6554 23.54C26.6425 23.6781 26.5982 23.8113 26.5259 23.9296Z" fill="white"/>
</svg>
