<svg width="30" height="30" viewBox="0 0 41 40" fill="none" xmlns="http://www.w3.org/2000/svg">
  <path d="M20.5 40C31.5457 40 40.5 31.0457 40.5 20C40.5 8.95431 31.5457 0 20.5 0C9.45431 0 0.5 8.95431 0.5 20C0.5 31.0457 9.45431 40 20.5 40Z" fill="#FF4500"/>
  <path d="M31.0254 20.1422C31.0079 19.6978 30.8624 19.2678 30.6065 18.9041C30.3506 18.5403 29.9951 18.2581 29.5828 18.0914C29.1704 17.9247 28.7187 17.8805 28.2819 17.9642C27.8451 18.0479 27.4417 18.2559 27.1202 18.5632C25.3205 17.3363 23.2031 16.6588 21.0254 16.6132L22.0518 11.6817L25.4412 12.3948C25.4815 12.7679 25.6534 13.1145 25.926 13.3724C26.1987 13.6303 26.5543 13.7826 26.9291 13.8021C27.3039 13.8216 27.6733 13.707 27.9712 13.4787C28.2692 13.2505 28.4761 12.9236 28.5548 12.5567C28.6336 12.1898 28.5791 11.8068 28.4011 11.4764C28.2231 11.146 27.9332 10.8898 27.5835 10.7538C27.2337 10.6177 26.8469 10.6107 26.4925 10.7339C26.138 10.8572 25.839 11.1027 25.6491 11.4264L21.7754 10.6527C21.7125 10.6388 21.6475 10.6374 21.5841 10.6486C21.5206 10.6599 21.46 10.6835 21.4057 10.7182C21.3515 10.753 21.3046 10.7981 21.2678 10.8509C21.231 10.9038 21.2049 10.9634 21.1912 11.0264L20.0254 16.5185C17.825 16.5545 15.6826 17.2303 13.8597 18.4632C13.4098 18.0675 12.8237 17.8622 12.2252 17.8908C11.6268 17.9193 11.0629 18.1795 10.6528 18.6162C10.2427 19.053 10.0185 19.6322 10.0276 20.2312C10.0368 20.8303 10.2785 21.4023 10.7018 21.8264C10.8833 21.9997 11.0934 22.1404 11.3228 22.2422C11.307 22.4744 11.307 22.7074 11.3228 22.9396C11.3228 26.479 15.4465 29.358 20.5333 29.358C25.6202 29.358 29.7439 26.4817 29.7439 22.9396C29.7597 22.7074 29.7597 22.4744 29.7439 22.2422C30.134 22.0489 30.4614 21.7491 30.6882 21.3774C30.915 21.0058 31.0319 20.5775 31.0254 20.1422ZM15.2202 21.7211C15.2202 21.4089 15.3128 21.1036 15.4863 20.8439C15.6598 20.5843 15.9064 20.3819 16.1949 20.2624C16.4834 20.1429 16.8009 20.1116 17.1072 20.1725C17.4135 20.2335 17.6948 20.3838 17.9156 20.6047C18.1364 20.8255 18.2868 21.1068 18.3477 21.4131C18.4087 21.7194 18.3774 22.0369 18.2579 22.3254C18.1384 22.6139 17.936 22.8605 17.6763 23.034C17.4167 23.2075 17.1114 23.3001 16.7991 23.3001C16.3808 23.3001 15.9796 23.1341 15.6836 22.8386C15.3875 22.543 15.2209 22.1421 15.2202 21.7238V21.7211ZM24.4018 26.0711C23.2807 26.9159 21.9017 27.3464 20.4991 27.2896C19.0956 27.3472 17.7156 26.9166 16.5939 26.0711C16.5232 25.9898 16.486 25.8847 16.4897 25.7771C16.4934 25.6694 16.5376 25.5672 16.6136 25.4908C16.6896 25.4145 16.7917 25.3698 16.8994 25.3656C17.007 25.3615 17.1122 25.3982 17.1939 25.4685C18.1448 26.1656 19.3055 26.5166 20.4833 26.4632C21.6607 26.5258 22.8244 26.1862 23.7833 25.5001C23.8673 25.4187 23.9796 25.3732 24.0965 25.3732C24.2134 25.3732 24.3257 25.4187 24.4097 25.5001C24.4511 25.5355 24.4843 25.5796 24.5068 25.6293C24.5293 25.6789 24.5406 25.7329 24.5398 25.7875C24.5391 25.842 24.5263 25.8957 24.5024 25.9447C24.4786 25.9937 24.4442 26.0369 24.4018 26.0711ZM22.536 21.779C22.536 21.3603 22.7023 20.9587 22.9984 20.6625C23.2945 20.3664 23.6962 20.2001 24.1149 20.2001C24.5337 20.2001 24.9353 20.3664 25.2314 20.6625C25.5275 20.9587 25.6939 21.3603 25.6939 21.779C25.736 22.6527 25.236 23.4211 24.1833 23.4211C23.9649 23.4308 23.7468 23.395 23.5429 23.3159C23.339 23.2369 23.1538 23.1164 22.9989 22.962C22.844 22.8076 22.7229 22.6228 22.6432 22.4191C22.5635 22.2155 22.527 21.9975 22.536 21.779Z" fill="white"/>
</svg>