<svg width="30" height="30" viewBox="0 0 41 40" fill="none" xmlns="http://www.w3.org/2000/svg">
  <path d="M20.5 40C31.5457 40 40.5 31.0457 40.5 20C40.5 8.9543 31.5457 0 20.5 0C9.4543 0 0.5 8.9543 0.5 20C0.5 31.0457 9.4543 40 20.5 40Z" fill="#039BE5"/>
  <path d="M9.65113 19.5668L28.9345 12.1318C29.8295 11.8084 30.6111 12.3501 30.3211 13.7034L30.3228 13.7018L27.0395 29.1701C26.7961 30.2668 26.1445 30.5334 25.2328 30.0168L20.2328 26.3318L17.8211 28.6551C17.5545 28.9218 17.3295 29.1468 16.8128 29.1468L17.1678 24.0584L26.4345 15.6868C26.8378 15.3318 26.3445 15.1318 25.8128 15.4851L14.3611 22.6951L9.42446 21.1551C8.35279 20.8151 8.32946 20.0834 9.65113 19.5668Z" fill="white"/>
</svg>