<svg width="30" height="30" viewBox="0 0 41 40" fill="none" xmlns="http://www.w3.org/2000/svg">
  <path d="M20.5 0C9.4543 0 0.5 8.9543 0.5 20C0.5 31.0457 9.4543 40 20.5 40C31.5457 40 40.5 31.0457 40.5 20C40.5 8.9543 31.5457 0 20.5 0ZM32.2369 27.3079L28.7869 27.3552C28.7869 27.3552 28.0448 27.5026 27.0711 26.8289C25.779 25.942 24.5632 23.6395 23.6159 23.9341C22.6685 24.2288 22.6843 26.3026 22.6843 26.3026C22.6873 26.5458 22.6127 26.7837 22.4712 26.9816C22.272 27.1522 22.0264 27.2594 21.7659 27.2895H20.237C20.237 27.2895 16.8159 27.4921 13.8291 24.371C10.5448 20.9816 7.65273 14.2105 7.65273 14.2105C7.65273 14.2105 7.48242 13.8177 7.66852 13.5526C7.82938 13.3234 8.22609 13.2987 8.42641 13.2895C9.28992 13.2491 11.8843 13.2658 11.8843 13.2658C12.1013 13.2604 12.2472 13.2718 12.5159 13.3895C12.7468 13.5036 12.922 13.6736 13.0343 13.9473C13.4334 14.9412 13.8967 15.9082 14.4212 16.8421C15.9633 19.5079 16.6817 20.0895 17.2054 19.8052C17.9659 19.3895 17.7317 16.0395 17.7317 16.0395C17.7317 16.0395 17.7317 14.821 17.3475 14.2816C17.0583 13.9437 16.6504 13.7298 16.208 13.6842C16.0002 13.6552 16.3423 13.1737 16.7844 12.9579C17.4475 12.6316 18.6213 12.6316 20.0054 12.6316C20.6145 12.6086 21.2239 12.6706 21.8159 12.8158C23.0896 13.1237 22.658 14.3079 22.658 17.1552C22.658 18.0658 22.4923 19.35 23.1502 19.7868C23.4344 19.9684 24.1238 19.8131 25.8554 16.8763C26.4078 15.9044 26.8872 14.8929 27.2896 13.8499C27.3671 13.6841 27.4847 13.5404 27.6317 13.4315C27.7872 13.3541 27.962 13.3239 28.1344 13.3446L32.0186 13.3183C32.0186 13.3183 33.1844 13.1788 33.3738 13.7077C33.5633 14.2367 32.937 15.5498 31.3502 17.6551C28.7449 21.1287 28.4554 20.813 30.6186 22.8103C32.6844 24.7287 33.1134 25.663 33.1844 25.7787C34.0421 27.1948 32.2369 27.3079 32.2369 27.3079Z" fill="#4C75A3"/>
</svg>