<svg width="30" height="30" viewBox="0 0 41 40" fill="none" xmlns="http://www.w3.org/2000/svg">
  <path d="M20.5 40C31.5457 40 40.5 31.0457 40.5 20C40.5 8.9543 31.5457 0 20.5 0C9.4543 0 0.5 8.9543 0.5 20C0.5 31.0457 9.4543 40 20.5 40Z" fill="#29A71A"/>
  <path d="M29.319 11.1818C27.2381 9.08023 24.4748 7.79139 21.5274 7.54778C18.58 7.30417 15.6425 8.12183 13.2449 9.85328C10.8473 11.5847 9.14727 14.116 8.45156 16.9904C7.75586 19.8649 8.11024 22.8934 9.45078 25.5296L8.13487 31.9182C8.12122 31.9818 8.12083 32.0475 8.13374 32.1112C8.14664 32.175 8.17256 32.2354 8.20987 32.2886C8.26453 32.3695 8.34255 32.4317 8.43352 32.4671C8.52449 32.5024 8.62407 32.5091 8.71896 32.4864L14.9803 31.0023C17.6091 32.3089 20.6162 32.6405 23.4665 31.9381C26.3168 31.2356 28.8255 29.5448 30.5461 27.1663C32.2668 24.7878 33.0878 21.876 32.8631 18.9491C32.6384 16.0221 31.3825 13.2698 29.319 11.1818ZM27.3667 26.7636C25.927 28.1993 24.073 29.147 22.0662 29.4732C20.0593 29.7994 18.0006 29.4876 16.1803 28.5818L15.3076 28.15L11.469 29.0591L11.4803 29.0114L12.2758 25.1477L11.8485 24.3046C10.9184 22.4779 10.5903 20.4037 10.9112 18.3792C11.2321 16.3546 12.1855 14.4836 13.6349 13.0341C15.456 11.2135 17.9257 10.1908 20.5008 10.1908C23.0759 10.1908 25.5455 11.2135 27.3667 13.0341C27.3822 13.0519 27.3989 13.0686 27.4167 13.0841C29.2153 14.9094 30.2193 17.3717 30.21 19.9342C30.2006 22.4967 29.1786 24.9516 27.3667 26.7636Z" fill="white"/>
  <path d="M27.0259 23.9296C26.5555 24.6705 25.8123 25.5773 24.8782 25.8023C23.2418 26.1978 20.7305 25.8159 17.6055 22.9023L17.5668 22.8682C14.8191 20.3205 14.1055 18.2 14.2782 16.5182C14.3736 15.5637 15.1691 14.7 15.8395 14.1364C15.9455 14.0459 16.0712 13.9815 16.2066 13.9483C16.3419 13.9151 16.4832 13.9141 16.619 13.9452C16.7548 13.9763 16.8815 14.0388 16.9888 14.1277C17.0962 14.2165 17.1813 14.3293 17.2373 14.4569L18.2486 16.7296C18.3144 16.877 18.3387 17.0394 18.3191 17.1996C18.2995 17.3597 18.2366 17.5115 18.1373 17.6387L17.6259 18.3023C17.5162 18.4393 17.45 18.6061 17.4358 18.781C17.4216 18.956 17.4601 19.1312 17.5464 19.2841C17.8327 19.7864 18.5191 20.525 19.2805 21.2091C20.135 21.9819 21.0827 22.6887 21.6827 22.9296C21.8433 22.9952 22.0198 23.0112 22.1895 22.9755C22.3592 22.9399 22.5144 22.8542 22.635 22.7296L23.2282 22.1319C23.3426 22.019 23.485 21.9385 23.6407 21.8986C23.7964 21.8586 23.9599 21.8607 24.1145 21.9046L26.5168 22.5864C26.6493 22.6271 26.7708 22.6975 26.8719 22.7923C26.9731 22.8871 27.0512 23.0037 27.1003 23.1333C27.1494 23.2629 27.1683 23.4021 27.1554 23.5401C27.1425 23.6781 27.0982 23.8113 27.0259 23.9296Z" fill="white"/>
</svg>