<svg
  width="22"
  height="22"
  viewBox="0 0 22 22"
  fill="none"
  xmlns="http://www.w3.org/2000/svg"
>
  <g clip-path="url(#clip0_10513_67293)">
    <path
      d="M7.13171 13.2332H8.79764L6.7084 8.45391H5.1244L3.03516 13.2332H4.67378L4.99467 12.4003H6.81081L7.13171 13.2332ZM5.43847 11.2396L5.90274 10.0379L6.36702 11.2396H5.43847Z"
      fill="#F7971E"
    />
    <path
      d="M9.05479 13.2332H11.4103C13.008 13.2332 14.1072 12.3251 14.1072 10.8436C14.1072 9.36198 13.008 8.45391 11.4103 8.45391H9.05479V13.2332ZM10.6661 11.9769V9.71018H11.342C12.018 9.71018 12.4822 10.113 12.4822 10.8436C12.4822 11.5741 12.018 11.9769 11.342 11.9769H10.6661Z"
      fill="#F7971E"
    />
    <path
      d="M16.4776 13.3425C17.9591 13.3425 18.7033 12.6051 18.7033 11.7311C18.7033 9.96963 16.0611 10.4476 16.0611 9.87404C16.0611 9.71018 16.2113 9.57363 16.6824 9.57363C17.0989 9.57363 17.5427 9.6897 18.0138 9.92867L18.4985 8.76115C18.0001 8.48122 17.3378 8.34467 16.696 8.34467C15.2145 8.34467 14.4702 9.06839 14.4702 9.95598C14.4702 11.738 17.1125 11.2532 17.1125 11.854C17.1125 12.0179 16.9487 12.1135 16.4912 12.1135C15.9655 12.1135 15.3647 11.9428 14.914 11.6765L14.3951 12.8509C14.8731 13.1445 15.6787 13.3425 16.4776 13.3425Z"
      fill="#F7971E"
    />
    <path
      fill-rule="evenodd"
      clip-rule="evenodd"
      d="M11 20.1034C16.0277 20.1034 20.1034 16.0277 20.1034 11C20.1034 5.9723 16.0277 1.89655 11 1.89655C5.9723 1.89655 1.89655 5.9723 1.89655 11C1.89655 16.0277 5.9723 20.1034 11 20.1034ZM11 22C17.0751 22 22 17.0751 22 11C22 4.92487 17.0751 0 11 0C4.92487 0 0 4.92487 0 11C0 17.0751 4.92487 22 11 22Z"
      fill="#F7971E"
    />
    <path
      d="M4.55021 18.207C5.22974 18.8685 5.22977 18.8684 5.22984 18.8683L9.56496 14.4139H6.91854L3.8711 17.5452C3.87103 17.5453 3.87067 17.5456 4.55021 18.207Z"
      fill="#F7971E"
    />
    <path
      d="M13.5622 7.58635H16.2081C17.1969 6.56987 18.1141 5.62685 18.8853 4.83358L17.5255 3.51154C16.4284 4.63992 15.0361 6.0714 13.5622 7.58635Z"
      fill="#F7971E"
    />
  </g>
  <defs>
    <clipPath id="clip0_10513_67293">
      <rect width="22" height="22" fill="white" />
    </clipPath>
  </defs>
</svg>